<?xml version="1.0" encoding="utf-8"?>
<!-- Generator: Adobe Illustrator 14.0.0, SVG Export Plug-In . SVG Version: 6.00 Build 43363)  -->
<!DOCTYPE svg PUBLIC "-//W3C//DTD SVG 1.1//EN" "http://www.w3.org/Graphics/SVG/1.1/DTD/svg11.dtd">
<svg version="1.1" id="Layer_1" xmlns="http://www.w3.org/2000/svg" xmlns:xlink="http://www.w3.org/1999/xlink" x="0px" y="0px"
	 width="595.28px" height="329.167px" viewBox="0 0 595.28 329.167" enable-background="new 0 0 595.28 329.167"
	 xml:space="preserve">
<rect x="6.972" y="95.641" fill="#FFFFFF" stroke="#2B3990" stroke-width="4" width="137.479" height="74.938"/>
<g>
	<path d="M35.665,129.071c-0.468,0.18-1.403,0.444-2.495,0.444c-1.224,0-2.231-0.312-3.022-1.067
		c-0.695-0.672-1.127-1.751-1.127-3.01c0-2.411,1.667-4.174,4.378-4.174c0.935,0,1.679,0.204,2.027,0.372l-0.264,0.852
		c-0.432-0.204-0.971-0.348-1.787-0.348c-1.967,0-3.25,1.223-3.25,3.25c0,2.051,1.223,3.262,3.118,3.262
		c0.684,0,1.151-0.096,1.391-0.216v-2.411h-1.631v-0.839h2.663V129.071z"/>
	<path d="M42.074,127.835c0,0.612,0.012,1.14,0.048,1.595h-0.936l-0.06-0.947h-0.024c-0.264,0.468-0.887,1.079-1.919,1.079
		c-0.911,0-2.003-0.516-2.003-2.542v-3.394h1.056v3.202c0,1.104,0.348,1.859,1.295,1.859c0.708,0,1.199-0.492,1.391-0.971
		c0.06-0.144,0.096-0.336,0.096-0.54v-3.55h1.056V127.835z"/>
	<path d="M45.1,122.234v1.392h1.511v0.803H45.1v3.13c0,0.72,0.204,1.127,0.792,1.127c0.288,0,0.456-0.024,0.611-0.072l0.048,0.803
		c-0.204,0.072-0.528,0.144-0.936,0.144c-0.492,0-0.888-0.168-1.14-0.444c-0.288-0.324-0.408-0.839-0.408-1.523v-3.167h-0.899
		v-0.803h0.899v-1.08L45.1,122.234z"/>
	<path d="M56.017,129.179c-0.372,0.192-1.151,0.384-2.135,0.384c-2.279,0-3.982-1.439-3.982-4.102c0-2.542,1.715-4.246,4.222-4.246
		c0.996,0,1.643,0.216,1.919,0.36l-0.264,0.852c-0.384-0.192-0.948-0.336-1.619-0.336c-1.895,0-3.154,1.211-3.154,3.334
		c0,1.991,1.139,3.25,3.094,3.25c0.647,0,1.295-0.132,1.715-0.336L56.017,129.179z"/>
	<path d="M62.425,126.48c0,2.146-1.499,3.082-2.89,3.082c-1.559,0-2.783-1.151-2.783-2.986c0-1.931,1.284-3.07,2.878-3.07
		C61.298,123.506,62.425,124.717,62.425,126.48z M57.832,126.54c0,1.271,0.72,2.231,1.751,2.231c1.007,0,1.763-0.947,1.763-2.255
		c0-0.983-0.492-2.219-1.739-2.219C58.371,124.297,57.832,125.449,57.832,126.54z"/>
	<path d="M63.76,125.197c0-0.611-0.024-1.091-0.048-1.571h0.923l0.048,0.947h0.036c0.324-0.552,0.864-1.067,1.835-1.067
		c0.78,0,1.379,0.48,1.631,1.164h0.024c0.18-0.336,0.419-0.576,0.66-0.756c0.348-0.264,0.719-0.408,1.271-0.408
		c0.78,0,1.919,0.504,1.919,2.519v3.406h-1.031v-3.274c0-1.127-0.42-1.787-1.259-1.787c-0.612,0-1.067,0.443-1.259,0.947
		c-0.048,0.156-0.084,0.336-0.084,0.528v3.586h-1.031v-3.478c0-0.923-0.408-1.583-1.211-1.583c-0.648,0-1.14,0.527-1.308,1.055
		c-0.06,0.144-0.084,0.336-0.084,0.516v3.49H63.76V125.197z"/>
	<path d="M73.768,125.521c0-0.744-0.024-1.343-0.048-1.895h0.936l0.06,0.995h0.024c0.419-0.708,1.115-1.115,2.062-1.115
		c1.416,0,2.471,1.188,2.471,2.938c0,2.087-1.283,3.118-2.65,3.118c-0.768,0-1.439-0.336-1.787-0.912h-0.024v3.154h-1.043V125.521z
		 M74.812,127.068c0,0.156,0.012,0.3,0.048,0.432c0.192,0.732,0.828,1.235,1.583,1.235c1.115,0,1.763-0.911,1.763-2.243
		c0-1.151-0.611-2.146-1.727-2.146c-0.72,0-1.403,0.503-1.595,1.295c-0.036,0.132-0.072,0.288-0.072,0.42V127.068z"/>
	<path d="M84.673,128.04c0,0.503,0.024,0.995,0.084,1.391H83.81l-0.084-0.731H83.69c-0.324,0.456-0.947,0.863-1.775,0.863
		c-1.175,0-1.775-0.828-1.775-1.667c0-1.403,1.247-2.171,3.49-2.159v-0.12c0-0.468-0.132-1.343-1.319-1.331
		c-0.552,0-1.116,0.156-1.523,0.432l-0.24-0.708c0.479-0.3,1.187-0.504,1.919-0.504c1.775,0,2.207,1.211,2.207,2.363V128.04z
		 M83.654,126.468c-1.151-0.024-2.458,0.18-2.458,1.307c0,0.696,0.456,1.008,0.983,1.008c0.768,0,1.259-0.48,1.427-0.972
		c0.036-0.12,0.048-0.24,0.048-0.336V126.468z"/>
	<path d="M86.38,125.437c0-0.684-0.012-1.271-0.048-1.811h0.923l0.048,1.151h0.036c0.264-0.78,0.912-1.271,1.619-1.271
		c0.108,0,0.192,0.012,0.288,0.024v0.996c-0.108-0.024-0.216-0.024-0.36-0.024c-0.744,0-1.271,0.552-1.416,1.343
		c-0.024,0.144-0.036,0.324-0.036,0.492v3.094H86.38V125.437z"/>
	<path d="M91.863,122.234v1.392h1.511v0.803h-1.511v3.13c0,0.72,0.204,1.127,0.792,1.127c0.288,0,0.456-0.024,0.611-0.072
		l0.048,0.803c-0.204,0.072-0.528,0.144-0.936,0.144c-0.492,0-0.888-0.168-1.14-0.444c-0.288-0.324-0.408-0.839-0.408-1.523v-3.167
		h-0.899v-0.803h0.899v-1.08L91.863,122.234z"/>
	<path d="M94.563,125.197c0-0.611-0.024-1.091-0.048-1.571h0.923l0.048,0.947h0.036c0.324-0.552,0.864-1.067,1.835-1.067
		c0.78,0,1.379,0.48,1.631,1.164h0.024c0.18-0.336,0.419-0.576,0.66-0.756c0.348-0.264,0.719-0.408,1.271-0.408
		c0.78,0,1.919,0.504,1.919,2.519v3.406h-1.031v-3.274c0-1.127-0.42-1.787-1.259-1.787c-0.612,0-1.067,0.443-1.259,0.947
		c-0.048,0.156-0.084,0.336-0.084,0.528v3.586h-1.031v-3.478c0-0.923-0.408-1.583-1.211-1.583c-0.648,0-1.14,0.527-1.308,1.055
		c-0.06,0.144-0.084,0.336-0.084,0.516v3.49h-1.031V125.197z"/>
	<path d="M105.159,126.72c0.024,1.427,0.923,2.015,1.991,2.015c0.755,0,1.223-0.132,1.607-0.3l0.192,0.756
		c-0.372,0.168-1.019,0.372-1.943,0.372c-1.787,0-2.854-1.188-2.854-2.938s1.032-3.118,2.723-3.118c1.907,0,2.399,1.655,2.399,2.723
		c0,0.216-0.012,0.372-0.036,0.492H105.159z M108.253,125.964c0.012-0.66-0.276-1.703-1.463-1.703c-1.08,0-1.535,0.971-1.619,1.703
		H108.253z"/>
	<path d="M110.583,125.197c0-0.611-0.012-1.091-0.048-1.571h0.936l0.06,0.959h0.024c0.288-0.54,0.959-1.08,1.919-1.08
		c0.803,0,2.051,0.48,2.051,2.471v3.454h-1.056v-3.346c0-0.936-0.348-1.715-1.343-1.715c-0.684,0-1.223,0.492-1.415,1.079
		c-0.048,0.132-0.072,0.312-0.072,0.492v3.49h-1.056V125.197z"/>
	<path d="M118.467,122.234v1.392h1.511v0.803h-1.511v3.13c0,0.72,0.204,1.127,0.792,1.127c0.288,0,0.456-0.024,0.611-0.072
		l0.048,0.803c-0.204,0.072-0.528,0.144-0.936,0.144c-0.492,0-0.888-0.168-1.14-0.444c-0.288-0.324-0.408-0.839-0.408-1.523v-3.167
		h-0.899v-0.803h0.899v-1.08L118.467,122.234z"/>
	<path d="M57.046,135.747h1.056v7.208h3.454v0.875h-4.51V135.747z"/>
	<path d="M67.677,140.208v0.768h-2.962v-0.768H67.677z"/>
	<path d="M68.95,135.867c0.636-0.108,1.391-0.18,2.219-0.18c1.499,0,2.566,0.36,3.274,1.007c0.732,0.66,1.151,1.595,1.151,2.902
		c0,1.319-0.419,2.399-1.163,3.143c-0.768,0.755-2.015,1.163-3.586,1.163c-0.756,0-1.367-0.036-1.895-0.096V135.867z
		 M69.994,143.015c0.264,0.036,0.647,0.048,1.055,0.048c2.243,0,3.442-1.248,3.442-3.43c0.012-1.907-1.067-3.118-3.274-3.118
		c-0.54,0-0.947,0.048-1.223,0.108V143.015z"/>
	<path d="M82.207,140.88c0,2.146-1.499,3.082-2.89,3.082c-1.559,0-2.783-1.151-2.783-2.986c0-1.931,1.284-3.07,2.878-3.07
		C81.08,137.906,82.207,139.117,82.207,140.88z M77.614,140.94c0,1.271,0.72,2.231,1.751,2.231c1.007,0,1.763-0.947,1.763-2.255
		c0-0.983-0.492-2.219-1.739-2.219C78.153,138.697,77.614,139.849,77.614,140.94z"/>
	<path d="M83.542,139.921c0-0.744-0.024-1.343-0.048-1.895h0.936l0.06,0.995h0.024c0.419-0.708,1.115-1.115,2.062-1.115
		c1.416,0,2.471,1.188,2.471,2.938c0,2.087-1.283,3.118-2.65,3.118c-0.768,0-1.439-0.336-1.787-0.912h-0.024v3.154h-1.043V139.921z
		 M84.585,141.468c0,0.156,0.012,0.3,0.048,0.432c0.192,0.732,0.828,1.235,1.583,1.235c1.116,0,1.763-0.911,1.763-2.243
		c0-1.151-0.612-2.147-1.727-2.147c-0.72,0-1.403,0.504-1.595,1.295c-0.036,0.132-0.072,0.288-0.072,0.42V141.468z"/>
	<path d="M94.447,142.439c0,0.503,0.024,0.995,0.084,1.391h-0.947l-0.084-0.731h-0.036c-0.324,0.456-0.947,0.863-1.775,0.863
		c-1.175,0-1.775-0.828-1.775-1.667c0-1.403,1.247-2.171,3.49-2.159v-0.12c0-0.468-0.132-1.343-1.319-1.331
		c-0.551,0-1.115,0.156-1.523,0.432l-0.24-0.708c0.479-0.3,1.188-0.504,1.919-0.504c1.775,0,2.207,1.211,2.207,2.363V142.439z
		 M93.428,140.868c-1.151-0.024-2.459,0.18-2.459,1.307c0,0.696,0.456,1.008,0.983,1.008c0.768,0,1.259-0.48,1.427-0.972
		c0.036-0.12,0.048-0.24,0.048-0.336V140.868z"/>
</g>
<g>
	<rect x="202.596" y="95.641" fill="#FFFFFF" stroke="#2B3990" stroke-width="4" width="137.479" height="74.938"/>
	<g>
		<path d="M221.511,121.469c0.456-0.108,1.187-0.18,1.907-0.18c1.043,0,1.715,0.18,2.207,0.588c0.419,0.312,0.684,0.792,0.684,1.427
			c0,0.792-0.528,1.475-1.367,1.775v0.036c0.768,0.18,1.667,0.815,1.667,2.015c0,0.696-0.276,1.235-0.696,1.619
			c-0.552,0.516-1.463,0.755-2.782,0.755c-0.72,0-1.271-0.048-1.619-0.096V121.469z M222.555,124.779h0.947
			c1.091,0,1.739-0.588,1.739-1.367c0-0.936-0.708-1.319-1.763-1.319c-0.48,0-0.755,0.036-0.923,0.072V124.779z M222.555,128.641
			c0.216,0.036,0.503,0.048,0.875,0.048c1.079,0,2.075-0.396,2.075-1.571c0-1.091-0.947-1.559-2.087-1.559h-0.863V128.641z"/>
		<path d="M233.28,126.482c0,2.146-1.499,3.082-2.89,3.082c-1.559,0-2.783-1.151-2.783-2.986c0-1.931,1.284-3.07,2.878-3.07
			C232.153,123.508,233.28,124.719,233.28,126.482z M228.687,126.542c0,1.271,0.72,2.231,1.751,2.231
			c1.007,0,1.763-0.947,1.763-2.255c0-0.983-0.492-2.219-1.739-2.219C229.226,124.299,228.687,125.451,228.687,126.542z"/>
		<path d="M239.616,120.917v7.016c0,0.516,0.024,1.103,0.048,1.499h-0.936l-0.048-1.007h-0.036
			c-0.312,0.647-1.007,1.139-1.955,1.139c-1.403,0-2.495-1.188-2.495-2.95c-0.012-1.931,1.2-3.106,2.603-3.106
			c0.9,0,1.487,0.42,1.751,0.875h0.024v-3.466H239.616z M238.573,125.991c0-0.132-0.012-0.312-0.048-0.444
			c-0.156-0.66-0.731-1.211-1.523-1.211c-1.091,0-1.739,0.959-1.739,2.231c0,1.175,0.588,2.146,1.715,2.146
			c0.708,0,1.355-0.479,1.547-1.259c0.036-0.144,0.048-0.288,0.048-0.456V125.991z"/>
		<path d="M241.767,123.628l1.259,3.43c0.144,0.384,0.288,0.839,0.384,1.187h0.024c0.108-0.348,0.228-0.792,0.372-1.211l1.151-3.406
			h1.115l-1.583,4.138c-0.756,1.991-1.271,2.998-1.991,3.634c-0.527,0.444-1.031,0.624-1.295,0.672l-0.264-0.875
			c0.264-0.084,0.612-0.252,0.924-0.516c0.288-0.228,0.635-0.635,0.887-1.175c0.048-0.108,0.084-0.192,0.084-0.251
			c0-0.06-0.024-0.144-0.084-0.276l-2.135-5.349H241.767z"/>
		<path d="M255.251,129.181c-0.372,0.192-1.151,0.384-2.135,0.384c-2.279,0-3.982-1.439-3.982-4.102
			c0-2.542,1.715-4.246,4.222-4.246c0.996,0,1.643,0.216,1.919,0.36l-0.264,0.852c-0.384-0.192-0.948-0.336-1.619-0.336
			c-1.895,0-3.154,1.211-3.154,3.334c0,1.991,1.139,3.25,3.094,3.25c0.648,0,1.295-0.132,1.715-0.336L255.251,129.181z"/>
		<path d="M261.66,126.482c0,2.146-1.499,3.082-2.89,3.082c-1.559,0-2.783-1.151-2.783-2.986c0-1.931,1.284-3.07,2.878-3.07
			C260.533,123.508,261.66,124.719,261.66,126.482z M257.066,126.542c0,1.271,0.72,2.231,1.751,2.231
			c1.007,0,1.763-0.947,1.763-2.255c0-0.983-0.492-2.219-1.739-2.219C257.606,124.299,257.066,125.451,257.066,126.542z"/>
		<path d="M262.995,125.199c0-0.611-0.024-1.091-0.048-1.571h0.923l0.048,0.947h0.036c0.324-0.552,0.864-1.067,1.835-1.067
			c0.78,0,1.379,0.48,1.631,1.164h0.024c0.18-0.336,0.419-0.576,0.66-0.756c0.348-0.264,0.719-0.408,1.271-0.408
			c0.78,0,1.919,0.504,1.919,2.519v3.406h-1.031v-3.274c0-1.127-0.42-1.787-1.259-1.787c-0.612,0-1.067,0.443-1.259,0.947
			c-0.048,0.156-0.084,0.336-0.084,0.528v3.586h-1.031v-3.478c0-0.923-0.408-1.583-1.211-1.583c-0.648,0-1.14,0.527-1.308,1.055
			c-0.06,0.144-0.084,0.336-0.084,0.516v3.49h-1.031V125.199z"/>
		<path d="M273.002,125.523c0-0.744-0.024-1.343-0.048-1.895h0.936l0.06,0.995h0.024c0.419-0.708,1.115-1.115,2.062-1.115
			c1.416,0,2.471,1.188,2.471,2.938c0,2.087-1.283,3.118-2.65,3.118c-0.768,0-1.439-0.336-1.787-0.912h-0.024v3.154h-1.043V125.523z
			 M274.046,127.07c0,0.156,0.012,0.3,0.048,0.432c0.192,0.732,0.828,1.235,1.583,1.235c1.116,0,1.763-0.911,1.763-2.243
			c0-1.151-0.612-2.146-1.727-2.146c-0.72,0-1.403,0.503-1.595,1.295c-0.036,0.132-0.072,0.288-0.072,0.42V127.07z"/>
		<path d="M283.908,128.042c0,0.503,0.024,0.995,0.084,1.391h-0.947l-0.084-0.731h-0.036c-0.324,0.456-0.947,0.863-1.775,0.863
			c-1.175,0-1.775-0.828-1.775-1.667c0-1.403,1.247-2.171,3.49-2.159v-0.12c0-0.468-0.132-1.343-1.319-1.331
			c-0.552,0-1.116,0.156-1.523,0.432l-0.24-0.708c0.479-0.3,1.187-0.504,1.919-0.504c1.775,0,2.207,1.211,2.207,2.363V128.042z
			 M282.889,126.47c-1.151-0.024-2.458,0.18-2.458,1.307c0,0.696,0.456,1.008,0.983,1.008c0.768,0,1.259-0.48,1.427-0.972
			c0.036-0.12,0.048-0.24,0.048-0.336V126.47z"/>
		<path d="M285.614,125.439c0-0.684-0.012-1.271-0.048-1.811h0.923l0.048,1.151h0.036c0.264-0.78,0.912-1.271,1.619-1.271
			c0.108,0,0.192,0.012,0.288,0.024v0.996c-0.108-0.024-0.216-0.024-0.359-0.024c-0.744,0-1.271,0.552-1.416,1.343
			c-0.024,0.144-0.036,0.324-0.036,0.492v3.094h-1.056V125.439z"/>
		<path d="M291.098,122.236v1.392h1.511v0.803h-1.511v3.13c0,0.72,0.204,1.127,0.792,1.127c0.288,0,0.456-0.024,0.612-0.072
			l0.048,0.803c-0.204,0.072-0.528,0.144-0.936,0.144c-0.492,0-0.888-0.168-1.14-0.444c-0.288-0.324-0.408-0.839-0.408-1.523v-3.167
			h-0.899v-0.803h0.899v-1.08L291.098,122.236z"/>
		<path d="M293.798,125.199c0-0.611-0.024-1.091-0.048-1.571h0.923l0.048,0.947h0.036c0.324-0.552,0.864-1.067,1.835-1.067
			c0.78,0,1.379,0.48,1.631,1.164h0.024c0.18-0.336,0.419-0.576,0.66-0.756c0.348-0.264,0.719-0.408,1.271-0.408
			c0.78,0,1.919,0.504,1.919,2.519v3.406h-1.031v-3.274c0-1.127-0.42-1.787-1.26-1.787c-0.611,0-1.067,0.443-1.259,0.947
			c-0.048,0.156-0.084,0.336-0.084,0.528v3.586h-1.031v-3.478c0-0.923-0.408-1.583-1.211-1.583c-0.648,0-1.14,0.527-1.308,1.055
			c-0.06,0.144-0.084,0.336-0.084,0.516v3.49h-1.031V125.199z"/>
		<path d="M304.395,126.722c0.023,1.427,0.923,2.015,1.99,2.015c0.756,0,1.223-0.132,1.607-0.3l0.191,0.756
			c-0.371,0.168-1.02,0.372-1.943,0.372c-1.787,0-2.854-1.188-2.854-2.938s1.031-3.118,2.723-3.118c1.906,0,2.398,1.655,2.398,2.723
			c0,0.216-0.012,0.372-0.036,0.492H304.395z M307.488,125.966c0.012-0.66-0.275-1.703-1.463-1.703c-1.08,0-1.535,0.971-1.619,1.703
			H307.488z"/>
		<path d="M309.818,125.199c0-0.611-0.013-1.091-0.049-1.571h0.936l0.061,0.959h0.023c0.288-0.54,0.96-1.08,1.92-1.08
			c0.803,0,2.051,0.48,2.051,2.471v3.454h-1.057v-3.346c0-0.936-0.348-1.715-1.343-1.715c-0.684,0-1.224,0.492-1.415,1.079
			c-0.048,0.132-0.072,0.312-0.072,0.492v3.49h-1.055V125.199z"/>
		<path d="M317.701,122.236v1.392h1.512v0.803h-1.512v3.13c0,0.72,0.204,1.127,0.792,1.127c0.288,0,0.456-0.024,0.611-0.072
			l0.048,0.803c-0.203,0.072-0.527,0.144-0.936,0.144c-0.491,0-0.887-0.168-1.139-0.444c-0.288-0.324-0.408-0.839-0.408-1.523
			v-3.167h-0.899v-0.803h0.899v-1.08L317.701,122.236z"/>
		<path d="M252.669,135.749h1.056v7.208h3.454v0.875h-4.51V135.749z"/>
		<path d="M263.299,140.21v0.768h-2.962v-0.768H263.299z"/>
		<path d="M264.573,135.869c0.636-0.108,1.391-0.18,2.219-0.18c1.499,0,2.566,0.36,3.274,1.007c0.732,0.66,1.151,1.595,1.151,2.902
			c0,1.319-0.419,2.399-1.163,3.143c-0.768,0.755-2.015,1.163-3.586,1.163c-0.756,0-1.367-0.036-1.895-0.096V135.869z
			 M265.616,143.017c0.264,0.036,0.647,0.048,1.055,0.048c2.243,0,3.442-1.248,3.442-3.43c0.012-1.907-1.067-3.118-3.274-3.118
			c-0.54,0-0.947,0.048-1.223,0.108V143.017z"/>
		<path d="M277.83,140.882c0,2.146-1.499,3.082-2.89,3.082c-1.559,0-2.783-1.151-2.783-2.986c0-1.931,1.284-3.07,2.878-3.07
			C276.703,137.908,277.83,139.119,277.83,140.882z M273.236,140.942c0,1.271,0.72,2.231,1.751,2.231
			c1.007,0,1.763-0.947,1.763-2.255c0-0.983-0.492-2.219-1.739-2.219C273.776,138.699,273.236,139.851,273.236,140.942z"/>
		<path d="M279.165,139.923c0-0.744-0.024-1.343-0.048-1.895h0.936l0.06,0.995h0.024c0.419-0.708,1.115-1.115,2.062-1.115
			c1.416,0,2.471,1.188,2.471,2.938c0,2.087-1.283,3.118-2.65,3.118c-0.768,0-1.439-0.336-1.787-0.912h-0.024v3.154h-1.043V139.923z
			 M280.208,141.47c0,0.156,0.012,0.3,0.048,0.432c0.192,0.732,0.828,1.235,1.583,1.235c1.116,0,1.763-0.911,1.763-2.243
			c0-1.151-0.612-2.147-1.727-2.147c-0.72,0-1.403,0.504-1.595,1.295c-0.036,0.132-0.072,0.288-0.072,0.42V141.47z"/>
		<path d="M290.07,142.441c0,0.503,0.024,0.995,0.084,1.391h-0.947l-0.084-0.731h-0.036c-0.324,0.456-0.947,0.863-1.775,0.863
			c-1.175,0-1.775-0.828-1.775-1.667c0-1.403,1.247-2.171,3.49-2.159v-0.12c0-0.468-0.132-1.343-1.319-1.331
			c-0.551,0-1.115,0.156-1.523,0.432l-0.24-0.708c0.479-0.3,1.188-0.504,1.919-0.504c1.775,0,2.207,1.211,2.207,2.363V142.441z
			 M289.051,140.87c-1.151-0.024-2.459,0.18-2.459,1.307c0,0.696,0.456,1.008,0.983,1.008c0.768,0,1.259-0.48,1.427-0.972
			c0.036-0.12,0.048-0.24,0.048-0.336V140.87z"/>
	</g>
</g>
<g>
	<rect x="398.221" y="95.641" fill="#FFFFFF" stroke="#2B3990" stroke-width="4" width="137.478" height="74.938"/>
	<g>
		<path d="M417.136,121.468c0.456-0.108,1.187-0.18,1.907-0.18c1.043,0,1.715,0.18,2.207,0.588c0.419,0.312,0.684,0.792,0.684,1.427
			c0,0.792-0.528,1.475-1.367,1.775v0.036c0.768,0.18,1.666,0.815,1.666,2.015c0,0.696-0.275,1.235-0.695,1.619
			c-0.552,0.516-1.463,0.755-2.782,0.755c-0.72,0-1.271-0.048-1.619-0.096V121.468z M418.18,124.778h0.947
			c1.091,0,1.738-0.588,1.738-1.367c0-0.936-0.707-1.319-1.763-1.319c-0.479,0-0.755,0.036-0.923,0.072V124.778z M418.18,128.64
			c0.215,0.036,0.503,0.048,0.875,0.048c1.079,0,2.074-0.396,2.074-1.571c0-1.091-0.947-1.559-2.086-1.559h-0.863V128.64z"/>
		<path d="M428.904,126.481c0,2.146-1.499,3.082-2.891,3.082c-1.559,0-2.782-1.151-2.782-2.986c0-1.931,1.284-3.07,2.878-3.07
			C427.777,123.507,428.904,124.718,428.904,126.481z M424.311,126.541c0,1.271,0.721,2.231,1.752,2.231
			c1.007,0,1.763-0.947,1.763-2.255c0-0.983-0.491-2.219-1.739-2.219C424.851,124.298,424.311,125.45,424.311,126.541z"/>
		<path d="M435.24,120.917v7.016c0,0.516,0.024,1.103,0.049,1.499h-0.936l-0.049-1.007h-0.035c-0.312,0.647-1.008,1.139-1.955,1.139
			c-1.403,0-2.495-1.188-2.495-2.95c-0.012-1.931,1.2-3.106,2.603-3.106c0.9,0,1.487,0.42,1.752,0.875h0.023v-3.466H435.24z
			 M434.197,125.99c0-0.132-0.012-0.312-0.049-0.444c-0.155-0.66-0.73-1.211-1.522-1.211c-1.091,0-1.739,0.959-1.739,2.231
			c0,1.175,0.588,2.146,1.715,2.146c0.708,0,1.355-0.479,1.547-1.259c0.037-0.144,0.049-0.288,0.049-0.456V125.99z"/>
		<path d="M437.391,123.627l1.26,3.43c0.145,0.384,0.288,0.839,0.384,1.187h0.024c0.107-0.348,0.228-0.792,0.371-1.211l1.152-3.406
			h1.115l-1.584,4.138c-0.756,1.991-1.271,2.998-1.99,3.634c-0.527,0.444-1.031,0.624-1.295,0.672l-0.265-0.875
			c0.265-0.084,0.612-0.252,0.924-0.516c0.288-0.228,0.636-0.635,0.888-1.175c0.047-0.108,0.084-0.192,0.084-0.251
			c0-0.06-0.024-0.144-0.084-0.276l-2.135-5.349H437.391z"/>
		<path d="M450.876,129.18c-0.372,0.192-1.151,0.384-2.135,0.384c-2.278,0-3.981-1.439-3.981-4.102c0-2.542,1.715-4.246,4.221-4.246
			c0.996,0,1.644,0.216,1.92,0.36l-0.264,0.852c-0.385-0.192-0.948-0.336-1.619-0.336c-1.896,0-3.154,1.211-3.154,3.334
			c0,1.991,1.139,3.25,3.094,3.25c0.648,0,1.295-0.132,1.715-0.336L450.876,129.18z"/>
		<path d="M457.284,126.481c0,2.146-1.499,3.082-2.89,3.082c-1.56,0-2.783-1.151-2.783-2.986c0-1.931,1.283-3.07,2.879-3.07
			C456.157,123.507,457.284,124.718,457.284,126.481z M452.691,126.541c0,1.271,0.719,2.231,1.75,2.231
			c1.008,0,1.764-0.947,1.764-2.255c0-0.983-0.492-2.219-1.739-2.219C453.23,124.298,452.691,125.45,452.691,126.541z"/>
		<path d="M458.619,125.198c0-0.611-0.023-1.091-0.048-1.571h0.923l0.049,0.947h0.035c0.324-0.552,0.864-1.067,1.836-1.067
			c0.779,0,1.379,0.48,1.631,1.164h0.023c0.18-0.336,0.42-0.576,0.66-0.756c0.348-0.264,0.719-0.408,1.271-0.408
			c0.779,0,1.918,0.504,1.918,2.519v3.406h-1.031v-3.274c0-1.127-0.42-1.787-1.259-1.787c-0.612,0-1.067,0.443-1.259,0.947
			c-0.049,0.156-0.084,0.336-0.084,0.528v3.586h-1.031v-3.478c0-0.923-0.408-1.583-1.212-1.583c-0.647,0-1.14,0.527-1.308,1.055
			c-0.06,0.144-0.084,0.336-0.084,0.516v3.49h-1.031V125.198z"/>
		<path d="M468.627,125.522c0-0.744-0.023-1.343-0.048-1.895h0.936l0.06,0.995h0.024c0.419-0.708,1.115-1.115,2.062-1.115
			c1.415,0,2.471,1.188,2.471,2.938c0,2.087-1.283,3.118-2.65,3.118c-0.768,0-1.439-0.336-1.787-0.912h-0.024v3.154h-1.043V125.522z
			 M469.67,127.069c0,0.156,0.013,0.3,0.049,0.432c0.191,0.732,0.827,1.235,1.582,1.235c1.116,0,1.764-0.911,1.764-2.243
			c0-1.151-0.611-2.146-1.727-2.146c-0.721,0-1.404,0.503-1.596,1.295c-0.035,0.132-0.072,0.288-0.072,0.42V127.069z"/>
		<path d="M479.533,128.041c0,0.503,0.023,0.995,0.084,1.391h-0.947l-0.084-0.731h-0.037c-0.323,0.456-0.947,0.863-1.774,0.863
			c-1.175,0-1.774-0.828-1.774-1.667c0-1.403,1.246-2.171,3.489-2.159v-0.12c0-0.468-0.132-1.343-1.319-1.331
			c-0.551,0-1.115,0.156-1.523,0.432l-0.239-0.708c0.479-0.3,1.187-0.504,1.919-0.504c1.775,0,2.207,1.211,2.207,2.363V128.041z
			 M478.514,126.469c-1.152-0.024-2.459,0.18-2.459,1.307c0,0.696,0.456,1.008,0.983,1.008c0.768,0,1.259-0.48,1.427-0.972
			c0.037-0.12,0.049-0.24,0.049-0.336V126.469z"/>
		<path d="M481.238,125.438c0-0.684-0.012-1.271-0.047-1.811h0.923l0.048,1.151h0.036c0.264-0.78,0.911-1.271,1.619-1.271
			c0.108,0,0.192,0.012,0.288,0.024v0.996c-0.108-0.024-0.217-0.024-0.359-0.024c-0.744,0-1.271,0.552-1.416,1.343
			c-0.023,0.144-0.035,0.324-0.035,0.492v3.094h-1.057V125.438z"/>
		<path d="M486.723,122.235v1.392h1.511v0.803h-1.511v3.13c0,0.72,0.203,1.127,0.791,1.127c0.287,0,0.455-0.024,0.611-0.072
			l0.049,0.803c-0.205,0.072-0.528,0.144-0.936,0.144c-0.492,0-0.889-0.168-1.141-0.444c-0.287-0.324-0.407-0.839-0.407-1.523
			v-3.167h-0.899v-0.803h0.899v-1.08L486.723,122.235z"/>
		<path d="M489.423,125.198c0-0.611-0.024-1.091-0.048-1.571h0.924l0.047,0.947h0.037c0.323-0.552,0.863-1.067,1.834-1.067
			c0.78,0,1.38,0.48,1.632,1.164h0.024c0.18-0.336,0.419-0.576,0.659-0.756c0.348-0.264,0.72-0.408,1.271-0.408
			c0.78,0,1.92,0.504,1.92,2.519v3.406h-1.031v-3.274c0-1.127-0.42-1.787-1.26-1.787c-0.611,0-1.067,0.443-1.26,0.947
			c-0.047,0.156-0.084,0.336-0.084,0.528v3.586h-1.031v-3.478c0-0.923-0.408-1.583-1.211-1.583c-0.648,0-1.14,0.527-1.308,1.055
			c-0.06,0.144-0.084,0.336-0.084,0.516v3.49h-1.031V125.198z"/>
		<path d="M500.019,126.721c0.024,1.427,0.923,2.015,1.991,2.015c0.755,0,1.223-0.132,1.606-0.3l0.192,0.756
			c-0.372,0.168-1.02,0.372-1.943,0.372c-1.787,0-2.854-1.188-2.854-2.938s1.032-3.118,2.723-3.118c1.907,0,2.399,1.655,2.399,2.723
			c0,0.216-0.013,0.372-0.037,0.492H500.019z M503.113,125.965c0.012-0.66-0.276-1.703-1.464-1.703
			c-1.079,0-1.535,0.971-1.619,1.703H503.113z"/>
		<path d="M505.442,125.198c0-0.611-0.013-1.091-0.048-1.571h0.936l0.061,0.959h0.023c0.287-0.54,0.959-1.08,1.919-1.08
			c0.804,0,2.051,0.48,2.051,2.471v3.454h-1.056v-3.346c0-0.936-0.348-1.715-1.344-1.715c-0.684,0-1.223,0.492-1.414,1.079
			c-0.049,0.132-0.072,0.312-0.072,0.492v3.49h-1.056V125.198z"/>
		<path d="M513.326,122.235v1.392h1.512v0.803h-1.512v3.13c0,0.72,0.203,1.127,0.791,1.127c0.288,0,0.456-0.024,0.611-0.072
			l0.049,0.803c-0.204,0.072-0.527,0.144-0.936,0.144c-0.492,0-0.888-0.168-1.14-0.444c-0.288-0.324-0.407-0.839-0.407-1.523v-3.167
			h-0.9v-0.803h0.9v-1.08L513.326,122.235z"/>
		<path d="M448.521,142.632c0.3,0.18,0.983,0.479,1.727,0.479c1.344,0,1.775-0.852,1.764-1.511
			c-0.012-1.091-0.996-1.559-2.016-1.559h-0.587v-0.792h0.587c0.768,0,1.74-0.396,1.74-1.319c0-0.624-0.396-1.175-1.367-1.175
			c-0.625,0-1.225,0.276-1.56,0.516l-0.288-0.768c0.42-0.3,1.211-0.6,2.051-0.6c1.535,0,2.23,0.912,2.23,1.859
			c0,0.816-0.491,1.5-1.439,1.847v0.024c0.96,0.18,1.728,0.899,1.74,1.991c0,1.247-0.984,2.338-2.843,2.338
			c-0.876,0-1.644-0.276-2.026-0.528L448.521,142.632z"/>
		<path d="M459.752,140.209v0.768h-2.963v-0.768H459.752z"/>
		<path d="M468.102,139.706c0,2.77-1.691,4.257-3.754,4.257c-2.146,0-3.635-1.667-3.635-4.114c0-2.566,1.584-4.246,3.742-4.246
			C466.674,135.604,468.102,137.295,468.102,139.706z M461.816,139.826c0,1.739,0.936,3.286,2.592,3.286
			c1.654,0,2.59-1.523,2.59-3.358c0-1.619-0.84-3.298-2.578-3.298C462.68,136.456,461.816,138.062,461.816,139.826z"/>
		<path d="M476.273,140.281c-0.061-1.127-0.133-2.494-0.133-3.49h-0.023c-0.288,0.936-0.611,1.955-1.02,3.07l-1.428,3.922h-0.791
			l-1.319-3.85c-0.384-1.151-0.695-2.183-0.923-3.142h-0.024c-0.024,1.007-0.084,2.351-0.156,3.574l-0.216,3.466h-0.995l0.563-8.083
			h1.332l1.379,3.91c0.336,0.996,0.6,1.883,0.814,2.723h0.025c0.215-0.815,0.503-1.703,0.863-2.723l1.439-3.91h1.33l0.504,8.083
			h-1.031L476.273,140.281z"/>
		<path d="M479.109,135.868c0.635-0.108,1.391-0.18,2.219-0.18c1.498,0,2.566,0.36,3.273,1.007c0.732,0.66,1.151,1.595,1.151,2.902
			c0,1.319-0.419,2.399-1.163,3.143c-0.768,0.755-2.016,1.163-3.586,1.163c-0.756,0-1.367-0.036-1.895-0.096V135.868z
			 M480.152,143.016c0.264,0.036,0.647,0.048,1.055,0.048c2.243,0,3.443-1.248,3.443-3.43c0.012-1.907-1.068-3.118-3.275-3.118
			c-0.539,0-0.947,0.048-1.223,0.108V143.016z"/>
	</g>
</g>
<g>
	<rect x="398.22" y="192.124" fill="#FFFFFF" stroke="#2B3990" stroke-width="4" width="137.479" height="74.938"/>
	<g>
		<path d="M417.6,218.464c-0.371,0.192-1.151,0.384-2.135,0.384c-2.279,0-3.982-1.439-3.982-4.102c0-2.542,1.716-4.246,4.223-4.246
			c0.995,0,1.643,0.216,1.918,0.36l-0.264,0.852c-0.383-0.192-0.947-0.336-1.619-0.336c-1.895,0-3.154,1.211-3.154,3.334
			c0,1.991,1.14,3.25,3.095,3.25c0.647,0,1.296-0.132,1.716-0.336L417.6,218.464z"/>
		<path d="M419.343,216.005c0.024,1.427,0.923,2.015,1.991,2.015c0.755,0,1.223-0.132,1.606-0.3l0.192,0.756
			c-0.372,0.168-1.02,0.372-1.943,0.372c-1.787,0-2.854-1.188-2.854-2.938s1.032-3.118,2.723-3.118c1.907,0,2.399,1.655,2.399,2.723
			c0,0.216-0.013,0.372-0.037,0.492H419.343z M422.438,215.25c0.012-0.66-0.276-1.703-1.464-1.703c-1.079,0-1.535,0.971-1.619,1.703
			H422.438z"/>
		<path d="M424.767,214.482c0-0.611-0.013-1.091-0.048-1.571h0.936l0.061,0.959h0.023c0.287-0.54,0.959-1.08,1.919-1.08
			c0.804,0,2.051,0.48,2.051,2.471v3.454h-1.056v-3.346c0-0.936-0.348-1.715-1.344-1.715c-0.684,0-1.223,0.492-1.414,1.079
			c-0.049,0.132-0.072,0.312-0.072,0.492v3.49h-1.056V214.482z"/>
		<path d="M432.65,211.52v1.392h1.511v0.803h-1.511v3.13c0,0.72,0.203,1.127,0.791,1.127c0.287,0,0.455-0.024,0.611-0.072
			l0.049,0.803c-0.205,0.072-0.528,0.144-0.936,0.144c-0.492,0-0.889-0.168-1.141-0.444c-0.287-0.324-0.407-0.839-0.407-1.523
			v-3.167h-0.899v-0.803h0.899v-1.08L432.65,211.52z"/>
		<path d="M435.351,214.722c0-0.684-0.013-1.271-0.048-1.811h0.924l0.047,1.151h0.037c0.264-0.78,0.911-1.271,1.619-1.271
			c0.107,0,0.191,0.012,0.287,0.024v0.996c-0.107-0.024-0.216-0.024-0.359-0.024c-0.744,0-1.271,0.552-1.416,1.343
			c-0.023,0.144-0.035,0.324-0.035,0.492v3.094h-1.056V214.722z"/>
		<path d="M443.293,217.325c0,0.503,0.023,0.995,0.084,1.391h-0.947l-0.084-0.731h-0.037c-0.323,0.456-0.947,0.863-1.774,0.863
			c-1.175,0-1.774-0.828-1.774-1.667c0-1.403,1.246-2.171,3.489-2.159v-0.12c0-0.468-0.132-1.343-1.319-1.331
			c-0.551,0-1.115,0.156-1.523,0.432l-0.239-0.708c0.479-0.3,1.187-0.504,1.919-0.504c1.775,0,2.207,1.211,2.207,2.363V217.325z
			 M442.273,215.753c-1.152-0.024-2.459,0.18-2.459,1.307c0,0.696,0.456,1.008,0.983,1.008c0.768,0,1.259-0.48,1.427-0.972
			c0.037-0.12,0.049-0.24,0.049-0.336V215.753z"/>
		<path d="M444.998,210.201h1.057v8.515h-1.057V210.201z"/>
		<path d="M456.047,218.464c-0.371,0.192-1.15,0.384-2.135,0.384c-2.278,0-3.981-1.439-3.981-4.102c0-2.542,1.716-4.246,4.222-4.246
			c0.996,0,1.643,0.216,1.919,0.36l-0.264,0.852c-0.384-0.192-0.948-0.336-1.619-0.336c-1.896,0-3.154,1.211-3.154,3.334
			c0,1.991,1.14,3.25,3.095,3.25c0.646,0,1.295-0.132,1.715-0.336L456.047,218.464z"/>
		<path d="M462.455,215.766c0,2.146-1.499,3.082-2.891,3.082c-1.559,0-2.782-1.151-2.782-2.986c0-1.931,1.284-3.07,2.878-3.07
			C461.328,212.791,462.455,214.002,462.455,215.766z M457.861,215.825c0,1.271,0.721,2.231,1.752,2.231
			c1.007,0,1.763-0.947,1.763-2.255c0-0.983-0.491-2.219-1.739-2.219C458.401,213.583,457.861,214.734,457.861,215.825z"/>
		<path d="M463.79,214.482c0-0.611-0.024-1.091-0.048-1.571h0.924l0.047,0.947h0.037c0.323-0.552,0.863-1.067,1.834-1.067
			c0.78,0,1.38,0.48,1.632,1.164h0.024c0.18-0.336,0.419-0.576,0.659-0.756c0.348-0.264,0.72-0.408,1.271-0.408
			c0.78,0,1.92,0.504,1.92,2.519v3.406h-1.031v-3.274c0-1.127-0.42-1.787-1.26-1.787c-0.611,0-1.067,0.443-1.26,0.947
			c-0.047,0.156-0.084,0.336-0.084,0.528v3.586h-1.031v-3.478c0-0.923-0.408-1.583-1.211-1.583c-0.648,0-1.14,0.527-1.308,1.055
			c-0.06,0.144-0.084,0.336-0.084,0.516v3.49h-1.031V214.482z"/>
		<path d="M473.799,214.806c0-0.744-0.024-1.343-0.049-1.895h0.936l0.061,0.995h0.023c0.42-0.708,1.115-1.115,2.062-1.115
			c1.416,0,2.471,1.188,2.471,2.938c0,2.087-1.283,3.118-2.65,3.118c-0.768,0-1.439-0.336-1.787-0.912h-0.023v3.154h-1.043V214.806z
			 M474.842,216.353c0,0.156,0.012,0.3,0.048,0.432c0.192,0.732,0.827,1.235,1.583,1.235c1.115,0,1.764-0.911,1.764-2.243
			c0-1.151-0.611-2.146-1.728-2.146c-0.72,0-1.403,0.503-1.595,1.295c-0.036,0.132-0.072,0.288-0.072,0.42V216.353z"/>
		<path d="M484.703,217.325c0,0.503,0.024,0.995,0.084,1.391h-0.947l-0.084-0.731h-0.035c-0.324,0.456-0.947,0.863-1.775,0.863
			c-1.176,0-1.775-0.828-1.775-1.667c0-1.403,1.248-2.171,3.49-2.159v-0.12c0-0.468-0.132-1.343-1.318-1.331
			c-0.553,0-1.116,0.156-1.523,0.432l-0.24-0.708c0.479-0.3,1.188-0.504,1.919-0.504c1.774,0,2.206,1.211,2.206,2.363V217.325z
			 M483.684,215.753c-1.15-0.024-2.458,0.18-2.458,1.307c0,0.696,0.456,1.008,0.983,1.008c0.768,0,1.26-0.48,1.428-0.972
			c0.035-0.12,0.047-0.24,0.047-0.336V215.753z"/>
		<path d="M486.41,214.722c0-0.684-0.012-1.271-0.048-1.811h0.923l0.049,1.151h0.035c0.264-0.78,0.912-1.271,1.619-1.271
			c0.108,0,0.192,0.012,0.289,0.024v0.996c-0.109-0.024-0.217-0.024-0.36-0.024c-0.743,0-1.271,0.552-1.415,1.343
			c-0.024,0.144-0.036,0.324-0.036,0.492v3.094h-1.056V214.722z"/>
		<path d="M491.894,211.52v1.392h1.511v0.803h-1.511v3.13c0,0.72,0.204,1.127,0.792,1.127c0.287,0,0.455-0.024,0.611-0.072
			l0.048,0.803c-0.204,0.072-0.528,0.144-0.936,0.144c-0.491,0-0.888-0.168-1.14-0.444c-0.287-0.324-0.408-0.839-0.408-1.523v-3.167
			h-0.898v-0.803h0.898v-1.08L491.894,211.52z"/>
		<path d="M494.594,214.482c0-0.611-0.023-1.091-0.048-1.571h0.923l0.049,0.947h0.035c0.324-0.552,0.864-1.067,1.836-1.067
			c0.779,0,1.379,0.48,1.631,1.164h0.023c0.18-0.336,0.42-0.576,0.66-0.756c0.348-0.264,0.719-0.408,1.271-0.408
			c0.779,0,1.918,0.504,1.918,2.519v3.406h-1.031v-3.274c0-1.127-0.42-1.787-1.259-1.787c-0.612,0-1.067,0.443-1.259,0.947
			c-0.049,0.156-0.084,0.336-0.084,0.528v3.586h-1.031v-3.478c0-0.923-0.408-1.583-1.212-1.583c-0.647,0-1.14,0.527-1.308,1.055
			c-0.06,0.144-0.084,0.336-0.084,0.516v3.49h-1.031V214.482z"/>
		<path d="M505.189,216.005c0.023,1.427,0.924,2.015,1.99,2.015c0.756,0,1.224-0.132,1.607-0.3l0.191,0.756
			c-0.371,0.168-1.019,0.372-1.942,0.372c-1.787,0-2.854-1.188-2.854-2.938s1.031-3.118,2.723-3.118
			c1.906,0,2.398,1.655,2.398,2.723c0,0.216-0.012,0.372-0.035,0.492H505.189z M508.283,215.25c0.012-0.66-0.275-1.703-1.463-1.703
			c-1.08,0-1.535,0.971-1.619,1.703H508.283z"/>
		<path d="M510.613,214.482c0-0.611-0.012-1.091-0.047-1.571h0.936l0.059,0.959h0.025c0.287-0.54,0.959-1.08,1.918-1.08
			c0.804,0,2.051,0.48,2.051,2.471v3.454H514.5v-3.346c0-0.936-0.348-1.715-1.344-1.715c-0.684,0-1.223,0.492-1.415,1.079
			c-0.048,0.132-0.071,0.312-0.071,0.492v3.49h-1.057V214.482z"/>
		<path d="M518.497,211.52v1.392h1.511v0.803h-1.511v3.13c0,0.72,0.204,1.127,0.792,1.127c0.287,0,0.455-0.024,0.611-0.072
			l0.048,0.803c-0.204,0.072-0.528,0.144-0.936,0.144c-0.491,0-0.888-0.168-1.14-0.444c-0.287-0.324-0.408-0.839-0.408-1.523v-3.167
			h-0.898v-0.803h0.898v-1.08L518.497,211.52z"/>
		<path d="M439.742,225.14c0.527-0.096,1.295-0.168,2.004-0.168c1.115,0,1.846,0.216,2.338,0.66c0.396,0.36,0.636,0.912,0.636,1.547
			c0,1.055-0.671,1.763-1.511,2.051v0.036c0.611,0.216,0.982,0.792,1.175,1.631c0.265,1.127,0.456,1.907,0.624,2.219h-1.08
			c-0.131-0.24-0.312-0.923-0.527-1.931c-0.24-1.115-0.684-1.535-1.631-1.571h-0.983v3.502h-1.044V225.14z M440.786,228.822h1.067
			c1.115,0,1.822-0.612,1.822-1.535c0-1.043-0.755-1.5-1.858-1.5c-0.504,0-0.852,0.036-1.031,0.084V228.822z"/>
		<path d="M451.463,230.166c0,2.146-1.498,3.082-2.89,3.082c-1.56,0-2.782-1.151-2.782-2.986c0-1.931,1.283-3.07,2.878-3.07
			C450.336,227.191,451.463,228.402,451.463,230.166z M446.87,230.225c0,1.271,0.72,2.231,1.751,2.231
			c1.008,0,1.764-0.947,1.764-2.255c0-0.983-0.492-2.219-1.74-2.219C447.41,227.982,446.87,229.134,446.87,230.225z"/>
		<path d="M460.199,229.134c0,2.651-0.995,4.114-2.71,4.114c-1.523,0-2.567-1.427-2.591-4.006c0-2.626,1.14-4.054,2.723-4.054
			C459.252,225.188,460.199,226.651,460.199,229.134z M455.966,229.254c0,2.027,0.624,3.178,1.583,3.178
			c1.068,0,1.584-1.259,1.584-3.25c0-1.919-0.48-3.178-1.584-3.178C456.638,226.003,455.966,227.131,455.966,229.254z"/>
		<path d="M464.424,233.116v-2.135h-3.621v-0.684l3.479-4.978h1.139v4.846h1.092v0.815h-1.092v2.135H464.424z M464.424,230.166
			v-2.603c0-0.408,0.013-0.816,0.037-1.224h-0.037c-0.239,0.456-0.432,0.792-0.646,1.151l-1.908,2.651v0.024H464.424z"/>
		<path d="M470.101,229.494v0.768h-2.962v-0.768H470.101z"/>
		<path d="M475.656,226.208h-2.975l-0.301,2.003c0.18-0.024,0.348-0.036,0.637-0.036c0.611,0,1.199,0.12,1.679,0.42
			c0.611,0.336,1.115,1.02,1.115,1.991c0,1.523-1.212,2.663-2.902,2.663c-0.852,0-1.56-0.24-1.942-0.479l0.264-0.804
			c0.323,0.192,0.959,0.432,1.679,0.432c0.983,0,1.847-0.647,1.835-1.691c0-1.007-0.684-1.715-2.23-1.715
			c-0.456,0-0.805,0.036-1.092,0.072l0.504-3.742h3.73V226.208z"/>
		<path d="M479.449,226.304h-0.024l-1.355,0.731l-0.204-0.804l1.703-0.912h0.9v7.796h-1.02V226.304z"/>
		<path d="M483.313,233.116v-0.647l0.827-0.804c1.992-1.895,2.902-2.902,2.902-4.078c0-0.792-0.371-1.523-1.535-1.523
			c-0.707,0-1.295,0.36-1.654,0.66l-0.336-0.744c0.527-0.443,1.307-0.792,2.195-0.792c1.679,0,2.387,1.151,2.387,2.267
			c0,1.439-1.044,2.603-2.688,4.186l-0.611,0.576v0.024h3.49v0.875H483.313z"/>
		<path d="M494.531,225.32v0.696l-3.395,7.1h-1.092l3.383-6.896v-0.024h-3.814v-0.875H494.531z"/>
		<path d="M426.279,243.474v-0.719h6.188v0.719H426.279z M426.279,245.825v-0.72h6.188v0.72H426.279z"/>
		<path d="M435.17,244.973l-0.84,2.542h-1.079l2.759-8.083h1.247l2.759,8.083H438.9l-0.863-2.542H435.17z M437.832,244.157
			l-0.803-2.327c-0.18-0.527-0.301-1.007-0.42-1.475h-0.024c-0.12,0.468-0.239,0.972-0.407,1.463l-0.792,2.338H437.832z"/>
		<path d="M442.514,244.973l-0.839,2.542h-1.079l2.758-8.083h1.248l2.758,8.083h-1.115l-0.863-2.542H442.514z M445.177,244.157
			l-0.804-2.327c-0.18-0.527-0.3-1.007-0.42-1.475h-0.023c-0.12,0.468-0.24,0.972-0.408,1.463l-0.791,2.338H445.177z"/>
		<path d="M448.551,239.552c0.636-0.108,1.391-0.18,2.219-0.18c1.499,0,2.566,0.36,3.273,1.007c0.732,0.66,1.152,1.595,1.152,2.902
			c0,1.319-0.42,2.399-1.164,3.143c-0.768,0.755-2.015,1.163-3.586,1.163c-0.756,0-1.367-0.036-1.895-0.096V239.552z M449.594,246.7
			c0.264,0.036,0.648,0.048,1.056,0.048c2.243,0,3.442-1.247,3.442-3.43c0.012-1.907-1.067-3.118-3.274-3.118
			c-0.54,0-0.947,0.048-1.224,0.108V246.7z"/>
		<path d="M462.18,247.264c-0.372,0.192-1.152,0.384-2.135,0.384c-2.279,0-3.982-1.439-3.982-4.102c0-2.542,1.715-4.246,4.222-4.246
			c0.995,0,1.644,0.216,1.919,0.36l-0.264,0.852c-0.384-0.192-0.947-0.336-1.619-0.336c-1.895,0-3.154,1.211-3.154,3.334
			c0,1.991,1.139,3.25,3.094,3.25c0.648,0,1.296-0.132,1.716-0.336L462.18,247.264z"/>
		<path d="M467.186,240.08c0,0.36-0.252,0.648-0.672,0.648c-0.383,0-0.635-0.288-0.635-0.648s0.264-0.66,0.659-0.66
			C466.922,239.42,467.186,239.708,467.186,240.08z M466.01,247.516v-5.805h1.057v5.805H466.01z"/>
		<path d="M468.818,243.282c0-0.611-0.012-1.091-0.048-1.571h0.936l0.06,0.959h0.024c0.288-0.54,0.96-1.08,1.919-1.08
			c0.803,0,2.051,0.48,2.051,2.471v3.454h-1.056v-3.346c0-0.936-0.348-1.715-1.343-1.715c-0.684,0-1.224,0.492-1.416,1.079
			c-0.047,0.132-0.071,0.312-0.071,0.492v3.49h-1.056V243.282z"/>
		<path d="M475.479,239h1.055v3.634h0.024c0.168-0.3,0.432-0.576,0.755-0.755c0.312-0.18,0.684-0.288,1.08-0.288
			c0.779,0,2.027,0.48,2.027,2.471v3.454h-1.057v-3.334c0-0.936-0.348-1.715-1.343-1.715c-0.684,0-1.212,0.48-1.415,1.043
			c-0.061,0.156-0.072,0.312-0.072,0.504v3.502h-1.055V239z"/>
		<path d="M483.313,240.08c0,0.36-0.252,0.648-0.671,0.648c-0.385,0-0.637-0.288-0.637-0.648s0.264-0.66,0.66-0.66
			C483.05,239.42,483.313,239.708,483.313,240.08z M482.139,247.516v-5.805h1.055v5.805H482.139z"/>
		<path d="M484.945,239h1.044v3.646h0.024c0.371-0.648,1.043-1.056,1.979-1.056c1.451,0,2.459,1.199,2.459,2.95
			c0,2.075-1.32,3.106-2.615,3.106c-0.84,0-1.511-0.324-1.955-1.079h-0.023l-0.061,0.947h-0.898
			c0.023-0.396,0.047-0.983,0.047-1.499V239z M485.989,245.189c0,0.132,0.013,0.264,0.048,0.384
			c0.191,0.731,0.816,1.235,1.584,1.235c1.115,0,1.762-0.899,1.762-2.231c0-1.163-0.6-2.159-1.738-2.159
			c-0.708,0-1.379,0.504-1.596,1.295c-0.035,0.132-0.06,0.276-0.06,0.443V245.189z"/>
		<path d="M492.949,240.08c0,0.36-0.252,0.648-0.672,0.648c-0.383,0-0.635-0.288-0.635-0.648s0.264-0.66,0.659-0.66
			C492.686,239.42,492.949,239.708,492.949,240.08z M491.773,247.516v-5.805h1.057v5.805H491.773z"/>
		<path d="M495.854,240.319v1.392h1.511v0.803h-1.511v3.13c0,0.72,0.203,1.127,0.791,1.127c0.287,0,0.455-0.024,0.611-0.072
			l0.049,0.803c-0.205,0.072-0.528,0.144-0.936,0.144c-0.492,0-0.889-0.168-1.141-0.444c-0.287-0.324-0.407-0.839-0.407-1.523
			v-3.167h-0.899v-0.803h0.899v-1.08L495.854,240.319z"/>
		<path d="M503.734,244.565c0,2.146-1.499,3.082-2.891,3.082c-1.559,0-2.782-1.151-2.782-2.986c0-1.931,1.284-3.07,2.878-3.07
			C502.607,241.591,503.734,242.802,503.734,244.565z M499.141,244.625c0,1.271,0.721,2.231,1.752,2.231
			c1.007,0,1.763-0.947,1.763-2.255c0-0.983-0.491-2.219-1.739-2.219C499.681,242.382,499.141,243.534,499.141,244.625z"/>
		<path d="M505.069,243.522c0-0.684-0.013-1.271-0.048-1.811h0.924l0.047,1.151h0.037c0.264-0.78,0.911-1.271,1.619-1.271
			c0.107,0,0.191,0.012,0.287,0.024v0.996c-0.107-0.024-0.216-0.024-0.359-0.024c-0.744,0-1.271,0.552-1.416,1.343
			c-0.023,0.144-0.035,0.324-0.035,0.492v3.094h-1.056V243.522z"/>
	</g>
</g>
<g>
	<g>
		<line fill="none" stroke="#010101" x1="191.616" y1="133.11" x2="155.432" y2="133.11"/>
		<polygon fill="#010101" points="188.807,136.813 190.38,133.11 188.807,129.406 197.585,133.11 		"/>
	</g>
</g>
<g>
	<g>
		<line fill="none" stroke="#010101" x1="387.239" y1="133.109" x2="351.056" y2="133.109"/>
		<polygon fill="#010101" points="384.431,136.812 386.004,133.109 384.431,129.405 393.209,133.109 		"/>
	</g>
</g>
<g>
	<g>
		<line fill="none" stroke="#010101" x1="578.28" y1="133.11" x2="542.097" y2="133.11"/>
		<polygon fill="#010101" points="575.472,136.813 577.045,133.11 575.472,129.406 584.25,133.11 		"/>
	</g>
</g>
<g>
	<g>
		<line fill="none" stroke="#010101" x1="271.335" y1="36.39" x2="271.335" y2="84.39"/>
		<polygon fill="#010101" points="275.038,39.199 271.335,37.626 267.631,39.199 271.335,30.421 		"/>
	</g>
</g>
<g>
	<g>
		<line fill="none" stroke="#010101" x1="271.335" y1="284.062" x2="271.335" y2="183.556"/>
		<polygon fill="#010101" points="267.632,281.253 271.335,282.826 275.039,281.253 271.335,290.031 		"/>
	</g>
</g>
<g>
	<line fill="none" stroke="#010101" stroke-width="4" x1="252.719" y1="210.054" x2="289.953" y2="247.288"/>
	<line fill="none" stroke="#010101" stroke-width="4" x1="289.953" y1="210.054" x2="252.718" y2="247.289"/>
</g>
<line fill="none" stroke="#000000" x1="378.278" y1="233.809" x2="301.871" y2="233.809"/>
<line fill="none" stroke="#000000" stroke-width="4" x1="301.871" y1="227.069" x2="301.871" y2="240.548"/>
<g>
	<path d="M172.641,106.632h0.024c0.144-0.204,0.336-0.456,0.504-0.66l1.715-2.003h1.259l-2.23,2.387l2.554,3.418h-1.295
		l-1.991-2.782l-0.54,0.6v2.183h-1.043v-8.515h1.043V106.632z"/>
	<path d="M181.519,108.383c0,0.503,0.024,0.995,0.084,1.391h-0.947l-0.084-0.731h-0.036c-0.324,0.456-0.947,0.863-1.775,0.863
		c-1.175,0-1.775-0.828-1.775-1.667c0-1.403,1.247-2.171,3.49-2.159v-0.12c0-0.468-0.132-1.343-1.319-1.331
		c-0.551,0-1.115,0.156-1.523,0.432l-0.24-0.708c0.479-0.3,1.188-0.504,1.919-0.504c1.775,0,2.207,1.211,2.207,2.363V108.383z
		 M180.5,106.812c-1.151-0.024-2.459,0.18-2.459,1.307c0,0.696,0.456,1.008,0.983,1.008c0.768,0,1.259-0.48,1.427-0.972
		c0.036-0.12,0.048-0.24,0.048-0.336V106.812z"/>
	<path d="M183.721,108.104v5.667h-0.74v-5.667H183.721z"/>
</g>
<g>
</g>
<g>
	<path d="M174.423,150.25h4.354v0.875h-3.298v2.687h3.046v0.863h-3.046v3.658h-1.056V150.25z"/>
</g>
<g>
	<path d="M360.695,102.526c-0.371,0.192-1.151,0.384-2.135,0.384c-2.279,0-3.982-1.439-3.982-4.102c0-2.542,1.716-4.246,4.223-4.246
		c0.995,0,1.643,0.216,1.918,0.36l-0.264,0.852c-0.383-0.192-0.947-0.336-1.619-0.336c-1.895,0-3.154,1.211-3.154,3.334
		c0,1.991,1.14,3.25,3.095,3.25c0.647,0,1.296-0.132,1.716-0.336L360.695,102.526z"/>
	<path d="M362.006,94.695h1.057v7.208h3.453v0.875h-4.51V94.695z"/>
	<path d="M371.361,106.598c-0.261,0.135-0.808,0.269-1.497,0.269c-1.597,0-2.791-1.009-2.791-2.875c0-1.783,1.202-2.977,2.96-2.977
		c0.697,0,1.151,0.151,1.345,0.252l-0.185,0.597c-0.27-0.134-0.664-0.235-1.135-0.235c-1.329,0-2.212,0.849-2.212,2.337
		c0,1.396,0.799,2.278,2.169,2.278c0.454,0,0.908-0.092,1.203-0.235L371.361,106.598z"/>
	<path d="M376.948,103.882c0,1.942-1.186,2.984-2.632,2.984c-1.505,0-2.547-1.168-2.547-2.884c0-1.799,1.109-2.976,2.623-2.976
		C375.947,101.007,376.948,102.192,376.948,103.882z M372.543,103.966c0,1.219,0.655,2.304,1.815,2.304s1.816-1.068,1.816-2.354
		c0-1.135-0.589-2.312-1.808-2.312S372.543,102.73,372.543,103.966z"/>
	<path d="M382.668,104.286c-0.041-0.79-0.092-1.749-0.092-2.446h-0.018c-0.201,0.656-0.428,1.37-0.715,2.152l-1,2.749h-0.555
		l-0.925-2.699c-0.269-0.807-0.487-1.53-0.647-2.203H378.7c-0.017,0.706-0.06,1.647-0.109,2.505l-0.151,2.43h-0.697l0.395-5.667
		h0.934l0.967,2.741c0.235,0.698,0.42,1.32,0.571,1.909h0.017c0.152-0.572,0.354-1.194,0.605-1.909l1.01-2.741h0.933l0.353,5.667
		h-0.723L382.668,104.286z"/>
	<path d="M385.639,101.73h-1.724v-0.622h4.195v0.622h-1.731v5.044h-0.74V101.73z"/>
</g>
<g>
	<path d="M314.771,46.971c-0.372,0.192-1.151,0.384-2.135,0.384c-2.279,0-3.982-1.439-3.982-4.102c0-2.542,1.715-4.246,4.222-4.246
		c0.995,0,1.644,0.216,1.919,0.36l-0.264,0.852c-0.384-0.192-0.947-0.336-1.619-0.336c-1.895,0-3.154,1.211-3.154,3.334
		c0,1.991,1.14,3.25,3.095,3.25c0.647,0,1.295-0.132,1.715-0.336L314.771,46.971z"/>
	<path d="M316.082,39.139h1.056v7.208h3.454v0.875h-4.51V39.139z"/>
	<path d="M321.485,45.628c0.37-0.067,0.908-0.118,1.404-0.118c0.782,0,1.295,0.151,1.64,0.463c0.277,0.252,0.445,0.639,0.445,1.084
		c0,0.74-0.471,1.236-1.06,1.438v0.025c0.429,0.151,0.689,0.555,0.824,1.144c0.186,0.79,0.319,1.336,0.438,1.555h-0.757
		c-0.093-0.168-0.219-0.647-0.37-1.354c-0.168-0.782-0.479-1.076-1.144-1.102h-0.689v2.455h-0.731V45.628z M322.217,48.209h0.749
		c0.781,0,1.277-0.429,1.277-1.076c0-0.731-0.529-1.051-1.303-1.051c-0.354,0-0.598,0.025-0.724,0.059V48.209z"/>
	<path d="M328.93,48.562h-2.194v2.043h2.455v0.614h-3.194v-5.667h3.068v0.614h-2.329v1.791h2.194V48.562z"/>
	<path d="M330.045,50.328c0.327,0.21,0.799,0.37,1.303,0.37c0.748,0,1.186-0.395,1.186-0.967c0-0.521-0.303-0.832-1.067-1.118
		c-0.925-0.336-1.497-0.824-1.497-1.614c0-0.883,0.731-1.539,1.833-1.539c0.571,0,1,0.135,1.244,0.277l-0.201,0.597
		c-0.177-0.109-0.556-0.269-1.068-0.269c-0.773,0-1.067,0.462-1.067,0.849c0,0.53,0.345,0.791,1.126,1.093
		c0.959,0.37,1.438,0.833,1.438,1.665c0,0.874-0.64,1.639-1.977,1.639c-0.546,0-1.143-0.168-1.445-0.37L330.045,50.328z"/>
	<path d="M335.354,46.174h-1.724v-0.622h4.195v0.622h-1.731v5.044h-0.74V46.174z"/>
</g>
<g>
	<path d="M553.104,99.749c-0.372,0.192-1.151,0.384-2.136,0.384c-2.278,0-3.981-1.439-3.981-4.102c0-2.542,1.715-4.246,4.222-4.246
		c0.995,0,1.644,0.216,1.919,0.36l-0.264,0.851c-0.384-0.191-0.947-0.335-1.619-0.335c-1.895,0-3.154,1.211-3.154,3.334
		c0,1.991,1.14,3.25,3.095,3.25c0.647,0,1.295-0.132,1.715-0.336L553.104,99.749z"/>
	<path d="M554.415,91.917h1.056v7.208h3.454V100h-4.51V91.917z"/>
	<path d="M564.661,101.104c0,1.942-1.186,2.984-2.631,2.984c-1.505,0-2.548-1.168-2.548-2.884c0-1.799,1.109-2.976,2.623-2.976
		C563.661,98.229,564.661,99.415,564.661,101.104z M560.256,101.188c0,1.219,0.656,2.304,1.816,2.304s1.815-1.068,1.815-2.354
		c0-1.135-0.588-2.312-1.808-2.312C560.861,98.826,560.256,99.953,560.256,101.188z"/>
	<path d="M570.381,101.508c-0.042-0.79-0.092-1.749-0.092-2.446h-0.017c-0.202,0.656-0.43,1.37-0.715,2.152l-1.001,2.749h-0.555
		l-0.925-2.699c-0.27-0.807-0.487-1.53-0.647-2.203h-0.017c-0.017,0.706-0.059,1.647-0.109,2.505l-0.151,2.43h-0.698l0.396-5.667
		h0.934l0.967,2.741c0.235,0.698,0.42,1.32,0.571,1.909h0.017c0.151-0.572,0.354-1.194,0.605-1.909l1.009-2.741h0.934l0.354,5.667
		h-0.724L570.381,101.508z"/>
	<path d="M572.359,98.414c0.446-0.076,0.976-0.126,1.556-0.126c1.051,0,1.799,0.252,2.295,0.707
		c0.514,0.462,0.808,1.118,0.808,2.035c0,0.925-0.294,1.682-0.815,2.203c-0.538,0.53-1.413,0.815-2.514,0.815
		c-0.53,0-0.959-0.025-1.329-0.067V98.414z M573.091,103.425c0.186,0.025,0.454,0.034,0.74,0.034c1.572,0,2.413-0.875,2.413-2.405
		c0.008-1.336-0.748-2.186-2.296-2.186c-0.378,0-0.664,0.033-0.857,0.076V103.425z"/>
	<path d="M577.164,105.039c0.185-0.504,0.412-1.404,0.504-2.018l0.824-0.084c-0.202,0.715-0.571,1.648-0.807,2.043L577.164,105.039z
		"/>
	<path d="M580.205,98.784c0,0.252-0.177,0.454-0.471,0.454c-0.269,0-0.445-0.202-0.445-0.454c0-0.252,0.185-0.462,0.462-0.462
		C580.021,98.321,580.205,98.523,580.205,98.784z M579.381,103.997v-4.069h0.74v4.069H579.381z"/>
</g>
<g>
	<path d="M206.271,235.081c-0.372,0.192-1.151,0.384-2.135,0.384c-2.279,0-3.982-1.439-3.982-4.102c0-2.542,1.715-4.246,4.222-4.246
		c0.996,0,1.643,0.216,1.919,0.36l-0.264,0.851c-0.384-0.191-0.948-0.335-1.619-0.335c-1.895,0-3.154,1.211-3.154,3.334
		c0,1.991,1.139,3.25,3.094,3.25c0.647,0,1.295-0.132,1.715-0.336L206.271,235.081z"/>
	<path d="M207.582,227.249h1.056v7.208h3.454v0.875h-4.51V227.249z"/>
	<path d="M213.901,237.546l-0.588,1.782h-0.757l1.934-5.667h0.875l1.934,5.667h-0.782l-0.605-1.782H213.901z M215.768,236.975
		l-0.563-1.631c-0.126-0.37-0.21-0.706-0.294-1.034h-0.017c-0.084,0.328-0.168,0.681-0.286,1.026l-0.555,1.64H215.768z"/>
	<path d="M219.042,237.546l-0.588,1.782h-0.757l1.934-5.667h0.875l1.934,5.667h-0.782l-0.605-1.782H219.042z M220.909,236.975
		l-0.563-1.631c-0.126-0.37-0.21-0.706-0.294-1.034h-0.017c-0.084,0.328-0.168,0.681-0.286,1.026l-0.555,1.64H220.909z"/>
	<path d="M223.267,233.746c0.445-0.076,0.975-0.126,1.555-0.126c1.051,0,1.799,0.252,2.295,0.707
		c0.513,0.462,0.807,1.118,0.807,2.035c0,0.925-0.294,1.682-0.815,2.203c-0.538,0.53-1.413,0.815-2.514,0.815
		c-0.53,0-0.958-0.025-1.328-0.067V233.746z M223.998,238.757c0.185,0.025,0.454,0.034,0.74,0.034c1.572,0,2.413-0.875,2.413-2.405
		c0.008-1.336-0.749-2.186-2.295-2.186c-0.378,0-0.664,0.033-0.857,0.076V238.757z"/>
	<path d="M232.812,239.152c-0.26,0.135-0.807,0.269-1.497,0.269c-1.597,0-2.791-1.009-2.791-2.875c0-1.783,1.202-2.977,2.959-2.977
		c0.698,0,1.152,0.151,1.345,0.252l-0.185,0.597c-0.269-0.134-0.664-0.235-1.135-0.235c-1.329,0-2.211,0.849-2.211,2.337
		c0,1.396,0.799,2.278,2.169,2.278c0.454,0,0.908-0.092,1.203-0.235L232.812,239.152z"/>
</g>
<g>
	<path d="M317.876,197.473v8.083h-1.056v-8.083H317.876z"/>
	<path d="M319.7,205.556v-8.083h1.151l2.579,4.09c0.588,0.947,1.067,1.799,1.439,2.626l0.035-0.012
		c-0.096-1.079-0.119-2.062-0.119-3.322v-3.382h0.983v8.083h-1.056l-2.566-4.102c-0.563-0.9-1.104-1.823-1.499-2.699l-0.036,0.012
		c0.06,1.019,0.071,1.991,0.071,3.334v3.454H319.7z"/>
	<path d="M328.64,197.473v3.382h3.91v-3.382h1.055v8.083h-1.055v-3.79h-3.91v3.79h-1.056v-8.083H328.64z"/>
	<path d="M336.464,197.473v8.083h-1.056v-8.083H336.464z"/>
	<path d="M338.288,197.593c0.456-0.108,1.188-0.18,1.907-0.18c1.044,0,1.715,0.18,2.207,0.588c0.42,0.312,0.684,0.792,0.684,1.427
		c0,0.792-0.527,1.475-1.367,1.775v0.036c0.768,0.18,1.667,0.816,1.667,2.015c0,0.696-0.276,1.235-0.695,1.619
		c-0.552,0.516-1.464,0.755-2.783,0.755c-0.72,0-1.271-0.048-1.619-0.096V197.593z M339.332,200.903h0.947
		c1.092,0,1.739-0.588,1.739-1.367c0-0.936-0.708-1.319-1.763-1.319c-0.48,0-0.756,0.036-0.924,0.072V200.903z M339.332,204.765
		c0.216,0.036,0.504,0.048,0.875,0.048c1.08,0,2.075-0.396,2.075-1.571c0-1.091-0.947-1.559-2.087-1.559h-0.863V204.765z"/>
	<path d="M345.836,197.473v8.083h-1.056v-8.083H345.836z"/>
	<path d="M349.194,198.36h-2.458v-0.888h5.984v0.888h-2.471v7.196h-1.056V198.36z"/>
	<path d="M354.668,197.473v8.083h-1.056v-8.083H354.668z"/>
	<path d="M363.399,201.431c0,2.77-1.69,4.257-3.754,4.257c-2.146,0-3.634-1.667-3.634-4.114c0-2.566,1.583-4.246,3.742-4.246
		C361.973,197.329,363.399,199.02,363.399,201.431z M357.115,201.55c0,1.739,0.936,3.286,2.591,3.286s2.591-1.523,2.591-3.358
		c0-1.619-0.84-3.298-2.579-3.298S357.115,199.787,357.115,201.55z"/>
	<path d="M364.76,205.556v-8.083h1.151l2.579,4.09c0.588,0.947,1.067,1.799,1.439,2.626l0.035-0.012
		c-0.096-1.079-0.119-2.062-0.119-3.322v-3.382h0.983v8.083h-1.056l-2.566-4.102c-0.563-0.9-1.104-1.823-1.499-2.699l-0.036,0.012
		c0.06,1.019,0.071,1.991,0.071,3.334v3.454H364.76z"/>
	<path d="M341.432,216.814h0.024c0.144-0.204,0.335-0.456,0.503-0.66l1.716-2.003h1.259l-2.23,2.387l2.555,3.418h-1.296l-1.99-2.782
		l-0.54,0.6v2.183h-1.043v-8.515h1.043V216.814z"/>
	<path d="M347.396,212.52c0,0.36-0.252,0.648-0.672,0.648c-0.384,0-0.636-0.288-0.636-0.648s0.265-0.66,0.66-0.66
		C347.132,211.86,347.396,212.148,347.396,212.52z M346.221,219.956v-5.805h1.055v5.805H346.221z"/>
</g>
<g>
	<path d="M245.883,306.592c0.636-0.107,1.391-0.18,2.219-0.18c1.499,0,2.566,0.359,3.274,1.008c0.732,0.659,1.151,1.595,1.151,2.902
		c0,1.319-0.419,2.398-1.163,3.142c-0.768,0.756-2.015,1.164-3.586,1.164c-0.756,0-1.368-0.036-1.895-0.097V306.592z
		 M246.926,313.74c0.264,0.036,0.647,0.048,1.055,0.048c2.243,0,3.442-1.247,3.442-3.43c0.012-1.907-1.067-3.119-3.274-3.119
		c-0.54,0-0.947,0.049-1.223,0.108V313.74z"/>
	<path d="M259.139,311.605c0,2.146-1.499,3.082-2.89,3.082c-1.559,0-2.783-1.151-2.783-2.986c0-1.931,1.284-3.07,2.878-3.07
		C258.012,308.631,259.139,309.842,259.139,311.605z M254.546,311.665c0,1.271,0.72,2.231,1.751,2.231
		c1.007,0,1.763-0.948,1.763-2.255c0-0.983-0.492-2.219-1.739-2.219C255.085,309.423,254.546,310.574,254.546,311.665z"/>
	<path d="M260.475,310.646c0-0.743-0.024-1.343-0.048-1.895h0.936l0.06,0.995h0.024c0.419-0.707,1.115-1.115,2.062-1.115
		c1.416,0,2.471,1.188,2.471,2.938c0,2.087-1.283,3.118-2.65,3.118c-0.768,0-1.439-0.336-1.787-0.911h-0.024v3.154h-1.043V310.646z
		 M261.518,312.193c0,0.155,0.012,0.3,0.048,0.432c0.192,0.731,0.828,1.235,1.583,1.235c1.115,0,1.763-0.912,1.763-2.243
		c0-1.151-0.611-2.146-1.727-2.146c-0.72,0-1.403,0.504-1.595,1.295c-0.036,0.132-0.072,0.288-0.072,0.42V312.193z"/>
	<path d="M271.38,313.164c0,0.504,0.024,0.996,0.084,1.392h-0.947l-0.084-0.731h-0.036c-0.324,0.456-0.947,0.863-1.775,0.863
		c-1.175,0-1.775-0.827-1.775-1.667c0-1.403,1.247-2.171,3.49-2.159v-0.119c0-0.468-0.132-1.344-1.319-1.332
		c-0.552,0-1.116,0.156-1.523,0.432l-0.24-0.707c0.479-0.3,1.187-0.504,1.919-0.504c1.775,0,2.207,1.211,2.207,2.362V313.164z
		 M270.36,311.594c-1.151-0.024-2.458,0.18-2.458,1.307c0,0.696,0.456,1.008,0.983,1.008c0.768,0,1.259-0.479,1.427-0.972
		c0.036-0.12,0.048-0.24,0.048-0.336V311.594z"/>
	<path d="M273.086,310.322c0-0.612-0.024-1.092-0.048-1.571h0.923l0.048,0.947h0.036c0.324-0.552,0.864-1.067,1.835-1.067
		c0.78,0,1.379,0.479,1.631,1.163h0.024c0.18-0.336,0.419-0.575,0.66-0.755c0.348-0.265,0.719-0.408,1.271-0.408
		c0.78,0,1.919,0.504,1.919,2.519v3.406h-1.031v-3.274c0-1.127-0.42-1.787-1.259-1.787c-0.612,0-1.067,0.444-1.259,0.948
		c-0.048,0.155-0.084,0.335-0.084,0.527v3.586h-1.031v-3.479c0-0.923-0.408-1.583-1.211-1.583c-0.648,0-1.14,0.528-1.308,1.056
		c-0.06,0.144-0.084,0.336-0.084,0.516v3.49h-1.031V310.322z"/>
	<path d="M284.27,307.12c0,0.359-0.252,0.647-0.671,0.647c-0.384,0-0.636-0.288-0.636-0.647c0-0.36,0.264-0.66,0.66-0.66
		C284.006,306.46,284.27,306.748,284.27,307.12z M283.094,314.556v-5.805h1.056v5.805H283.094z"/>
	<path d="M285.902,310.322c0-0.612-0.012-1.092-0.048-1.571h0.936l0.06,0.959h0.024c0.288-0.539,0.959-1.079,1.919-1.079
		c0.803,0,2.051,0.479,2.051,2.471v3.454h-1.056v-3.346c0-0.936-0.348-1.716-1.343-1.716c-0.684,0-1.223,0.492-1.415,1.08
		c-0.048,0.132-0.072,0.312-0.072,0.491v3.49h-1.056V310.322z"/>
	<path d="M293.15,311.845c0.024,1.428,0.923,2.016,1.991,2.016c0.755,0,1.223-0.132,1.607-0.3l0.192,0.755
		c-0.372,0.168-1.019,0.372-1.943,0.372c-1.787,0-2.854-1.188-2.854-2.938s1.032-3.118,2.723-3.118c1.907,0,2.399,1.655,2.399,2.723
		c0,0.216-0.012,0.372-0.036,0.491H293.15z M296.244,311.09c0.012-0.66-0.276-1.703-1.463-1.703c-1.08,0-1.535,0.972-1.619,1.703
		H296.244z"/>
</g>
<g>
	<path d="M233.76,13.319c0,2.77-1.691,4.257-3.754,4.257c-2.147,0-3.634-1.667-3.634-4.114c0-2.566,1.583-4.246,3.742-4.246
		C232.333,9.217,233.76,10.908,233.76,13.319z M227.475,13.439c0,1.739,0.936,3.286,2.59,3.286c1.655,0,2.591-1.523,2.591-3.358
		c0-1.619-0.839-3.298-2.579-3.298C228.339,10.069,227.475,11.676,227.475,13.439z"/>
	<path d="M236.559,10.249v1.391h1.511v0.803h-1.511v3.13c0,0.72,0.204,1.127,0.792,1.127c0.288,0,0.456-0.024,0.611-0.072
		l0.048,0.803c-0.204,0.072-0.528,0.144-0.936,0.144c-0.492,0-0.888-0.168-1.14-0.444c-0.288-0.324-0.408-0.839-0.408-1.523v-3.167
		h-0.899V11.64h0.899v-1.08L236.559,10.249z"/>
	<path d="M239.259,8.93h1.056v3.634h0.024c0.168-0.3,0.432-0.576,0.755-0.755c0.312-0.18,0.684-0.288,1.08-0.288
		c0.779,0,2.027,0.48,2.027,2.471v3.454h-1.056v-3.334c0-0.936-0.348-1.715-1.343-1.715c-0.684,0-1.211,0.48-1.415,1.043
		c-0.06,0.156-0.072,0.312-0.072,0.504v3.502h-1.056V8.93z"/>
	<path d="M246.507,14.734c0.024,1.427,0.923,2.015,1.991,2.015c0.755,0,1.223-0.132,1.607-0.3l0.192,0.756
		c-0.372,0.168-1.019,0.372-1.943,0.372c-1.787,0-2.854-1.187-2.854-2.938c0-1.751,1.032-3.118,2.723-3.118
		c1.907,0,2.399,1.655,2.399,2.723c0,0.216-0.012,0.372-0.036,0.492H246.507z M249.602,13.979c0.012-0.659-0.276-1.703-1.463-1.703
		c-1.08,0-1.535,0.971-1.619,1.703H249.602z"/>
	<path d="M251.931,13.451c0-0.684-0.012-1.271-0.048-1.811h0.923l0.048,1.151h0.036c0.264-0.78,0.912-1.271,1.619-1.271
		c0.108,0,0.192,0.012,0.288,0.024v0.996c-0.108-0.024-0.216-0.024-0.36-0.024c-0.744,0-1.271,0.552-1.416,1.343
		c-0.024,0.144-0.036,0.324-0.036,0.492v3.094h-1.056V13.451z"/>
	<path d="M265.247,13.895c-0.06-1.127-0.132-2.494-0.132-3.49h-0.024c-0.288,0.936-0.612,1.955-1.02,3.07l-1.427,3.922h-0.792
		l-1.319-3.85c-0.384-1.151-0.695-2.183-0.923-3.142h-0.024c-0.024,1.007-0.084,2.351-0.156,3.574l-0.216,3.466h-0.995l0.563-8.083
		h1.332l1.379,3.91c0.336,0.996,0.6,1.883,0.815,2.723h0.024c0.216-0.815,0.503-1.703,0.863-2.723l1.439-3.91h1.331l0.504,8.083
		h-1.032L265.247,13.895z"/>
	<path d="M268.707,14.734c0.024,1.427,0.923,2.015,1.991,2.015c0.755,0,1.223-0.132,1.607-0.3l0.192,0.756
		c-0.372,0.168-1.019,0.372-1.943,0.372c-1.787,0-2.854-1.187-2.854-2.938c0-1.751,1.032-3.118,2.723-3.118
		c1.907,0,2.399,1.655,2.399,2.723c0,0.216-0.012,0.372-0.036,0.492H268.707z M271.801,13.979c0.012-0.659-0.276-1.703-1.463-1.703
		c-1.08,0-1.535,0.971-1.619,1.703H271.801z"/>
	<path d="M275.402,10.249v1.391h1.511v0.803h-1.511v3.13c0,0.72,0.204,1.127,0.792,1.127c0.288,0,0.456-0.024,0.611-0.072
		l0.048,0.803c-0.204,0.072-0.528,0.144-0.936,0.144c-0.492,0-0.888-0.168-1.14-0.444c-0.288-0.324-0.408-0.839-0.408-1.523v-3.167
		h-0.899V11.64h0.899v-1.08L275.402,10.249z"/>
	<path d="M282.18,16.054c0,0.503,0.024,0.995,0.084,1.391h-0.947l-0.084-0.731h-0.036c-0.324,0.456-0.947,0.863-1.775,0.863
		c-1.175,0-1.775-0.828-1.775-1.667c0-1.403,1.247-2.171,3.49-2.159v-0.12c0-0.468-0.132-1.343-1.319-1.331
		c-0.551,0-1.115,0.156-1.523,0.432l-0.24-0.708c0.479-0.3,1.188-0.504,1.919-0.504c1.775,0,2.207,1.211,2.207,2.363V16.054z
		 M281.161,14.482c-1.151-0.024-2.459,0.18-2.459,1.307c0,0.696,0.456,1.008,0.983,1.008c0.768,0,1.259-0.48,1.427-0.972
		c0.036-0.12,0.048-0.24,0.048-0.336V14.482z"/>
	<path d="M283.886,8.93h1.043v3.646h0.024c0.372-0.648,1.043-1.056,1.979-1.056c1.451,0,2.458,1.199,2.458,2.951
		c0,2.075-1.319,3.106-2.614,3.106c-0.84,0-1.511-0.324-1.955-1.079h-0.024l-0.06,0.947h-0.899c0.024-0.396,0.048-0.983,0.048-1.499
		V8.93z M284.93,15.118c0,0.132,0.012,0.264,0.048,0.384c0.192,0.731,0.815,1.235,1.583,1.235c1.116,0,1.763-0.899,1.763-2.231
		c0-1.163-0.6-2.159-1.739-2.159c-0.708,0-1.379,0.504-1.595,1.295c-0.036,0.132-0.06,0.276-0.06,0.444V15.118z"/>
	<path d="M295.967,14.495c0,2.146-1.499,3.082-2.89,3.082c-1.559,0-2.783-1.151-2.783-2.986c0-1.931,1.284-3.07,2.878-3.07
		C294.84,11.52,295.967,12.731,295.967,14.495z M291.374,14.554c0,1.271,0.72,2.231,1.751,2.231c1.007,0,1.763-0.947,1.763-2.255
		c0-0.983-0.492-2.219-1.739-2.219C291.914,12.312,291.374,13.463,291.374,14.554z"/>
	<path d="M297.302,8.93h1.056v8.515h-1.056V8.93z"/>
	<path d="M301.31,10.009c0,0.36-0.252,0.648-0.671,0.648c-0.385,0-0.637-0.288-0.637-0.648s0.264-0.66,0.66-0.66
		C301.046,9.349,301.31,9.637,301.31,10.009z M300.135,17.445V11.64h1.055v5.805H300.135z"/>
	<path d="M304.213,10.249v1.391h1.512v0.803h-1.512v3.13c0,0.72,0.204,1.127,0.792,1.127c0.288,0,0.456-0.024,0.611-0.072
		l0.048,0.803c-0.203,0.072-0.527,0.144-0.936,0.144c-0.491,0-0.887-0.168-1.139-0.444c-0.288-0.324-0.408-0.839-0.408-1.523v-3.167
		h-0.899V11.64h0.899v-1.08L304.213,10.249z"/>
	<path d="M307.43,14.734c0.024,1.427,0.924,2.015,1.991,2.015c0.755,0,1.224-0.132,1.606-0.3l0.192,0.756
		c-0.372,0.168-1.019,0.372-1.942,0.372c-1.787,0-2.855-1.187-2.855-2.938c0-1.751,1.032-3.118,2.723-3.118
		c1.907,0,2.399,1.655,2.399,2.723c0,0.216-0.013,0.372-0.036,0.492H307.43z M310.524,13.979c0.012-0.659-0.276-1.703-1.464-1.703
		c-1.079,0-1.535,0.971-1.619,1.703H310.524z"/>
	<path d="M312.71,16.377c0.324,0.192,0.876,0.408,1.403,0.408c0.756,0,1.115-0.372,1.115-0.863c0-0.504-0.3-0.768-1.067-1.056
		c-1.056-0.384-1.547-0.947-1.547-1.643c0-0.936,0.768-1.703,2.003-1.703c0.588,0,1.104,0.156,1.415,0.36l-0.252,0.768
		c-0.228-0.144-0.647-0.348-1.187-0.348c-0.625,0-0.96,0.36-0.96,0.792c0,0.479,0.335,0.695,1.091,0.996
		c0.996,0.372,1.523,0.875,1.523,1.739c0,1.031-0.803,1.751-2.158,1.751c-0.637,0-1.224-0.168-1.632-0.408L312.71,16.377z"/>
</g>
</svg>
