<?xml version="1.0" encoding="UTF-8" standalone="no"?>
<!DOCTYPE svg PUBLIC "-//W3C//DTD SVG 1.1//EN"
 "http://www.w3.org/Graphics/SVG/1.1/DTD/svg11.dtd">
<!-- Generated by graphviz version 2.24.0 (20090616.2323)
 -->
<!-- Title: G Pages: 1 -->
<svg width="776pt" height="213pt"
 viewBox="0.00 0.00 776.00 213.00" xmlns="http://www.w3.org/2000/svg" xmlns:xlink="http://www.w3.org/1999/xlink">
<g id="graph1" class="graph" transform="scale(1 1) rotate(0) translate(4 209)">
<title>G</title>
<polygon fill="white" stroke="white" points="-4,5 -4,-209 773,-209 773,5 -4,5"/>
<!-- N0 -->
<g id="node1" class="node"><title>N0</title>
<ellipse fill="none" stroke="black" cx="27" cy="-96" rx="27" ry="18"/>
<text text-anchor="middle" x="27" y="-93.5" font-family="Times Roman,serif" font-size="10.00">N0</text>
</g>
<!-- R0X_intermediate_r -->
<g id="node5" class="node"><title>R0X_intermediate_r</title>
<ellipse fill="black" stroke="black" cx="91" cy="-181" rx="0.036" ry="0.036"/>
</g>
<!-- N0&#45;&gt;R0X_intermediate_r -->
<g id="edge4" class="edge"><title>N0&#45;&gt;R0X_intermediate_r</title>
<path fill="none" stroke="black" d="M39.3398,-112.389C57.3563,-136.317 88.9477,-178.274 90.9046,-180.873"/>
</g>
<!-- R0X_intermediate_m -->
<g id="node10" class="node"><title>R0X_intermediate_m</title>
<ellipse fill="black" stroke="black" cx="205" cy="-150" rx="0.036" ry="0.036"/>
</g>
<!-- N0&#45;&gt;R0X_intermediate_m -->
<g id="edge10" class="edge"><title>N0&#45;&gt;R0X_intermediate_m</title>
<path fill="none" stroke="black" d="M49.7966,-105.815C61.6594,-110.726 76.4735,-116.554 90,-121 139.293,-137.201 202.975,-149.607 204.953,-149.991"/>
</g>
<!-- R01_intermediate_r -->
<g id="node14" class="node"><title>R01_intermediate_r</title>
<ellipse fill="black" stroke="black" cx="91" cy="-112" rx="0.036" ry="0.036"/>
</g>
<!-- N0&#45;&gt;R01_intermediate_r -->
<g id="edge14" class="edge"><title>N0&#45;&gt;R01_intermediate_r</title>
<path fill="none" stroke="black" d="M52.2945,-102.324C69.6246,-106.656 89.7018,-111.675 90.9397,-111.985"/>
</g>
<!-- R00_intermediate_r -->
<g id="node22" class="node"><title>R00_intermediate_r</title>
<ellipse fill="black" stroke="black" cx="91" cy="-11" rx="0.036" ry="0.036"/>
</g>
<!-- N0&#45;&gt;R00_intermediate_r -->
<g id="edge24" class="edge"><title>N0&#45;&gt;R00_intermediate_r</title>
<path fill="none" stroke="black" d="M39.3398,-79.6111C57.3563,-55.683 88.9477,-13.7257 90.9046,-11.1267"/>
</g>
<!-- N1 -->
<g id="node2" class="node"><title>N1</title>
<ellipse fill="none" stroke="black" cx="295" cy="-97" rx="27" ry="18"/>
<text text-anchor="middle" x="295" y="-94.5" font-family="Times Roman,serif" font-size="10.00">N1</text>
</g>
<!-- R1X_intermediate_r -->
<g id="node29" class="node"><title>R1X_intermediate_r</title>
<ellipse fill="black" stroke="black" cx="359" cy="-182" rx="0.036" ry="0.036"/>
</g>
<!-- N1&#45;&gt;R1X_intermediate_r -->
<g id="edge32" class="edge"><title>N1&#45;&gt;R1X_intermediate_r</title>
<path fill="none" stroke="black" d="M307.34,-113.389C325.356,-137.317 356.948,-179.274 358.905,-181.873"/>
</g>
<!-- R1X_intermediate_m -->
<g id="node34" class="node"><title>R1X_intermediate_m</title>
<ellipse fill="black" stroke="black" cx="473" cy="-151" rx="0.036" ry="0.036"/>
</g>
<!-- N1&#45;&gt;R1X_intermediate_m -->
<g id="edge38" class="edge"><title>N1&#45;&gt;R1X_intermediate_m</title>
<path fill="none" stroke="black" d="M317.797,-106.815C329.659,-111.726 344.474,-117.554 358,-122 407.293,-138.201 470.975,-150.607 472.953,-150.991"/>
</g>
<!-- R12_intermediate_r -->
<g id="node38" class="node"><title>R12_intermediate_r</title>
<ellipse fill="black" stroke="black" cx="359" cy="-113" rx="0.036" ry="0.036"/>
</g>
<!-- N1&#45;&gt;R12_intermediate_r -->
<g id="edge42" class="edge"><title>N1&#45;&gt;R12_intermediate_r</title>
<path fill="none" stroke="black" d="M320.294,-103.324C337.625,-107.656 357.702,-112.675 358.94,-112.985"/>
</g>
<!-- R11_intermediate_r -->
<g id="node46" class="node"><title>R11_intermediate_r</title>
<ellipse fill="black" stroke="black" cx="359" cy="-12" rx="0.036" ry="0.036"/>
</g>
<!-- N1&#45;&gt;R11_intermediate_r -->
<g id="edge52" class="edge"><title>N1&#45;&gt;R11_intermediate_r</title>
<path fill="none" stroke="black" d="M307.34,-80.6111C325.356,-56.683 356.948,-14.7257 358.905,-12.1267"/>
</g>
<!-- N2 -->
<g id="node3" class="node"><title>N2</title>
<ellipse fill="none" stroke="black" cx="563" cy="-98" rx="27" ry="18"/>
<text text-anchor="middle" x="563" y="-95.5" font-family="Times Roman,serif" font-size="10.00">N2</text>
</g>
<!-- R2X_intermediate_r -->
<g id="node53" class="node"><title>R2X_intermediate_r</title>
<ellipse fill="black" stroke="black" cx="627" cy="-115" rx="0.036" ry="0.036"/>
</g>
<!-- N2&#45;&gt;R2X_intermediate_r -->
<g id="edge60" class="edge"><title>N2&#45;&gt;R2X_intermediate_r</title>
<path fill="none" stroke="black" d="M588.294,-104.719C605.625,-109.322 625.702,-114.655 626.94,-114.984"/>
</g>
<!-- R2X_intermediate_m -->
<g id="node58" class="node"><title>R2X_intermediate_m</title>
<ellipse fill="black" stroke="black" cx="741" cy="-84" rx="0.036" ry="0.036"/>
</g>
<!-- N2&#45;&gt;R2X_intermediate_m -->
<g id="edge66" class="edge"><title>N2&#45;&gt;R2X_intermediate_m</title>
<path fill="none" stroke="black" d="M590.034,-95.8737C639.051,-92.0184 737.851,-84.2477 740.926,-84.0058"/>
</g>
<!-- R0X -->
<g id="node4" class="node"><title>R0X</title>
<polygon fill="none" stroke="black" points="142,-192 128,-192 128,-178 142,-178 142,-192"/>
</g>
<!-- R0X_empty -->
<g id="node8" class="node"><title>R0X_empty</title>
<text text-anchor="middle" x="205" y="-181.5" font-family="Times Roman,serif" font-size="15.00" fill="blue">Ø</text>
</g>
<!-- R0X&#45;&gt;R0X_empty -->
<g id="edge6" class="edge"><title>R0X&#45;&gt;R0X_empty</title>
<path fill="none" stroke="black" d="M142.228,-185.103C148.45,-185.192 157.94,-185.328 167.672,-185.467"/>
<polygon fill="black" stroke="black" points="167.724,-188.968 177.773,-185.611 167.824,-181.968 167.724,-188.968"/>
</g>
<!-- R0X&#45;&gt;R0X_intermediate_m -->
<g id="edge8" class="edge"><title>R0X&#45;&gt;R0X_intermediate_m</title>
<path fill="none" stroke="black" d="M152.181,-173.408C159.864,-168.544 169.165,-163.082 178,-159 189.124,-153.861 204.034,-150.233 204.955,-150.011"/>
<polygon fill="none" stroke="black" points="152.063,-173.485 149.244,-180.123 142.034,-180.074 144.852,-173.437 152.063,-173.485"/>
</g>
<!-- R0X_intermediate_r&#45;&gt;R0X -->
<g id="edge2" class="edge"><title>R0X_intermediate_r&#45;&gt;R0X</title>
<path fill="none" stroke="black" d="M91.1262,-181.011C93.0215,-181.184 115.795,-183.254 127.759,-184.342"/>
</g>
<!-- R01 -->
<g id="node13" class="node"><title>R01</title>
<polygon fill="none" stroke="black" points="142,-122 128,-122 128,-108 142,-108 142,-122"/>
</g>
<!-- R01_intermediate_p -->
<g id="node17" class="node"><title>R01_intermediate_p</title>
<ellipse fill="black" stroke="black" cx="205" cy="-97" rx="0.036" ry="0.036"/>
</g>
<!-- R01&#45;&gt;R01_intermediate_p -->
<g id="edge16" class="edge"><title>R01&#45;&gt;R01_intermediate_p</title>
<path fill="none" stroke="black" d="M142.228,-113.141C159.554,-108.686 202.221,-97.7146 204.871,-97.0333"/>
</g>
<!-- R01_intermediate_r&#45;&gt;R01 -->
<g id="edge12" class="edge"><title>R01_intermediate_r&#45;&gt;R01</title>
<path fill="none" stroke="black" d="M91.1262,-112.009C93.0215,-112.138 115.795,-113.691 127.759,-114.506"/>
</g>
<!-- R01_intermediate_p&#45;&gt;N0 -->
<g id="edge18" class="edge"><title>R01_intermediate_p&#45;&gt;N0</title>
<path fill="none" stroke="black" d="M204.926,-96.9996C202.049,-96.9834 115.39,-96.4966 64.0937,-96.2084"/>
<polygon fill="black" stroke="black" points="64.0539,-92.7082 54.0344,-96.1519 64.0145,-99.7081 64.0539,-92.7082"/>
</g>
<!-- R01_intermediate_p&#45;&gt;N1 -->
<g id="edge20" class="edge"><title>R01_intermediate_p&#45;&gt;N1</title>
<path fill="none" stroke="black" d="M205.065,-97C206.565,-97 233.648,-97 257.704,-97"/>
<polygon fill="black" stroke="black" points="257.745,-100.5 267.745,-97 257.745,-93.5001 257.745,-100.5"/>
</g>
<!-- R00 -->
<g id="node21" class="node"><title>R00</title>
<polygon fill="none" stroke="black" points="142,-14 128,-14 128,-6.21725e-15 142,-2.66454e-15 142,-14"/>
</g>
<!-- R00_intermediate_p -->
<g id="node25" class="node"><title>R00_intermediate_p</title>
<ellipse fill="black" stroke="black" cx="205" cy="-25" rx="0.036" ry="0.036"/>
</g>
<!-- R00&#45;&gt;R00_intermediate_p -->
<g id="edge26" class="edge"><title>R00&#45;&gt;R00_intermediate_p</title>
<path fill="none" stroke="black" d="M142.228,-8.85852C159.554,-13.3138 202.221,-24.2854 204.871,-24.9667"/>
</g>
<!-- R00_intermediate_r&#45;&gt;R00 -->
<g id="edge22" class="edge"><title>R00_intermediate_r&#45;&gt;R00</title>
<path fill="none" stroke="black" d="M91.1262,-10.9885C93.0215,-10.8162 115.795,-8.74595 127.759,-7.65828"/>
</g>
<!-- R00_intermediate_p&#45;&gt;N0 -->
<g id="edge28" class="edge"><title>R00_intermediate_p&#45;&gt;N0</title>
<path fill="none" stroke="black" d="M204.923,-25.0309C201.889,-26.2409 110.362,-62.7487 59.7986,-82.9174"/>
<polygon fill="black" stroke="black" points="58.262,-79.7621 50.2704,-86.718 60.8555,-86.2639 58.262,-79.7621"/>
</g>
<!-- R1X -->
<g id="node28" class="node"><title>R1X</title>
<polygon fill="none" stroke="black" points="410,-193 396,-193 396,-179 410,-179 410,-193"/>
</g>
<!-- R1X_empty -->
<g id="node32" class="node"><title>R1X_empty</title>
<text text-anchor="middle" x="473" y="-182.5" font-family="Times Roman,serif" font-size="15.00" fill="blue">Ø</text>
</g>
<!-- R1X&#45;&gt;R1X_empty -->
<g id="edge34" class="edge"><title>R1X&#45;&gt;R1X_empty</title>
<path fill="none" stroke="black" d="M410.228,-186.103C416.45,-186.192 425.94,-186.328 435.672,-186.467"/>
<polygon fill="black" stroke="black" points="435.724,-189.968 445.773,-186.611 435.824,-182.968 435.724,-189.968"/>
</g>
<!-- R1X&#45;&gt;R1X_intermediate_m -->
<g id="edge36" class="edge"><title>R1X&#45;&gt;R1X_intermediate_m</title>
<path fill="none" stroke="black" d="M420.181,-174.408C427.864,-169.544 437.165,-164.082 446,-160 457.124,-154.861 472.034,-151.233 472.955,-151.011"/>
<polygon fill="none" stroke="black" points="420.063,-174.485 417.244,-181.123 410.034,-181.074 412.852,-174.437 420.063,-174.485"/>
</g>
<!-- R1X_intermediate_r&#45;&gt;R1X -->
<g id="edge30" class="edge"><title>R1X_intermediate_r&#45;&gt;R1X</title>
<path fill="none" stroke="black" d="M359.126,-182.011C361.022,-182.184 383.795,-184.254 395.759,-185.342"/>
</g>
<!-- R12 -->
<g id="node37" class="node"><title>R12</title>
<polygon fill="none" stroke="black" points="410,-123 396,-123 396,-109 410,-109 410,-123"/>
</g>
<!-- R12_intermediate_p -->
<g id="node41" class="node"><title>R12_intermediate_p</title>
<ellipse fill="black" stroke="black" cx="473" cy="-98" rx="0.036" ry="0.036"/>
</g>
<!-- R12&#45;&gt;R12_intermediate_p -->
<g id="edge44" class="edge"><title>R12&#45;&gt;R12_intermediate_p</title>
<path fill="none" stroke="black" d="M410.228,-114.141C427.554,-109.686 470.221,-98.7146 472.871,-98.0333"/>
</g>
<!-- R12_intermediate_r&#45;&gt;R12 -->
<g id="edge40" class="edge"><title>R12_intermediate_r&#45;&gt;R12</title>
<path fill="none" stroke="black" d="M359.126,-113.009C361.022,-113.138 383.795,-114.691 395.759,-115.506"/>
</g>
<!-- R12_intermediate_p&#45;&gt;N1 -->
<g id="edge46" class="edge"><title>R12_intermediate_p&#45;&gt;N1</title>
<path fill="none" stroke="black" d="M472.926,-97.9996C470.049,-97.9834 383.39,-97.4966 332.094,-97.2084"/>
<polygon fill="black" stroke="black" points="332.054,-93.7082 322.034,-97.1519 332.015,-100.708 332.054,-93.7082"/>
</g>
<!-- R12_intermediate_p&#45;&gt;N2 -->
<g id="edge48" class="edge"><title>R12_intermediate_p&#45;&gt;N2</title>
<path fill="none" stroke="black" d="M473.065,-98C474.565,-98 501.648,-98 525.704,-98"/>
<polygon fill="black" stroke="black" points="525.745,-101.5 535.745,-98 525.745,-94.5001 525.745,-101.5"/>
</g>
<!-- R11 -->
<g id="node45" class="node"><title>R11</title>
<polygon fill="none" stroke="black" points="410,-15 396,-15 396,-1 410,-1 410,-15"/>
</g>
<!-- R11_intermediate_p -->
<g id="node49" class="node"><title>R11_intermediate_p</title>
<ellipse fill="black" stroke="black" cx="473" cy="-26" rx="0.036" ry="0.036"/>
</g>
<!-- R11&#45;&gt;R11_intermediate_p -->
<g id="edge54" class="edge"><title>R11&#45;&gt;R11_intermediate_p</title>
<path fill="none" stroke="black" d="M410.228,-9.85852C427.554,-14.3138 470.221,-25.2854 472.871,-25.9667"/>
</g>
<!-- R11_intermediate_r&#45;&gt;R11 -->
<g id="edge50" class="edge"><title>R11_intermediate_r&#45;&gt;R11</title>
<path fill="none" stroke="black" d="M359.126,-11.9885C361.022,-11.8162 383.795,-9.74595 395.759,-8.65828"/>
</g>
<!-- R11_intermediate_p&#45;&gt;N1 -->
<g id="edge56" class="edge"><title>R11_intermediate_p&#45;&gt;N1</title>
<path fill="none" stroke="black" d="M472.923,-26.0309C469.889,-27.2409 378.362,-63.7487 327.799,-83.9174"/>
<polygon fill="black" stroke="black" points="326.262,-80.7621 318.27,-87.718 328.855,-87.2639 326.262,-80.7621"/>
</g>
<!-- R2X -->
<g id="node52" class="node"><title>R2X</title>
<polygon fill="none" stroke="black" points="678,-126 664,-126 664,-112 678,-112 678,-126"/>
</g>
<!-- R2X_empty -->
<g id="node56" class="node"><title>R2X_empty</title>
<text text-anchor="middle" x="741" y="-115.5" font-family="Times Roman,serif" font-size="15.00" fill="blue">Ø</text>
</g>
<!-- R2X&#45;&gt;R2X_empty -->
<g id="edge62" class="edge"><title>R2X&#45;&gt;R2X_empty</title>
<path fill="none" stroke="black" d="M678.228,-119.103C684.45,-119.192 693.94,-119.328 703.672,-119.467"/>
<polygon fill="black" stroke="black" points="703.724,-122.968 713.773,-119.611 703.824,-115.968 703.724,-122.968"/>
</g>
<!-- R2X&#45;&gt;R2X_intermediate_m -->
<g id="edge64" class="edge"><title>R2X&#45;&gt;R2X_intermediate_m</title>
<path fill="none" stroke="black" d="M688.181,-107.408C695.864,-102.544 705.165,-97.0819 714,-93 725.124,-87.8607 740.034,-84.2325 740.955,-84.0108"/>
<polygon fill="none" stroke="black" points="688.063,-107.485 685.244,-114.123 678.034,-114.074 680.852,-107.437 688.063,-107.485"/>
</g>
<!-- R2X_intermediate_r&#45;&gt;R2X -->
<g id="edge58" class="edge"><title>R2X_intermediate_r&#45;&gt;R2X</title>
<path fill="none" stroke="black" d="M627.126,-115.011C629.022,-115.184 651.795,-117.254 663.759,-118.342"/>
</g>
</g>
</svg>
