<?xml version="1.0" encoding="UTF-8" standalone="no"?>
<!DOCTYPE svg PUBLIC "-//W3C//DTD SVG 1.1//EN"
 "http://www.w3.org/Graphics/SVG/1.1/DTD/svg11.dtd">
<!-- Generated by graphviz version 2.24.0 (20090616.2323)
 -->
<!-- Title: G Pages: 1 -->
<svg width="420pt" height="98pt"
 viewBox="0.00 0.00 420.00 98.00" xmlns="http://www.w3.org/2000/svg" xmlns:xlink="http://www.w3.org/1999/xlink">
<g id="graph1" class="graph" transform="scale(1 1) rotate(0) translate(4 94)">
<title>G</title>
<polygon fill="white" stroke="white" points="-4,5 -4,-94 417,-94 417,5 -4,5"/>
<!-- P2 -->
<g id="node1" class="node"><title>P2</title>
<ellipse fill="none" stroke="black" cx="206" cy="-18" rx="27" ry="18"/>
<text text-anchor="middle" x="206" y="-15.5" font-family="Times Roman,serif" font-size="10.00">P2</text>
</g>
<!-- ___r2_intermediate_r -->
<g id="node10" class="node"><title>___r2_intermediate_r</title>
<ellipse fill="black" stroke="black" cx="272" cy="-18" rx="0.036" ry="0.036"/>
</g>
<!-- P2&#45;&gt;___r2_intermediate_r -->
<g id="edge10" class="edge"><title>P2&#45;&gt;___r2_intermediate_r</title>
<path fill="none" stroke="black" d="M233.226,-18C250.838,-18 270.715,-18 271.94,-18"/>
</g>
<!-- Target -->
<g id="node2" class="node"><title>Target</title>
<ellipse fill="none" stroke="black" cx="206" cy="-72" rx="29.0474" ry="18"/>
<text text-anchor="middle" x="206" y="-69.5" font-family="Times Roman,serif" font-size="10.00">Target</text>
</g>
<!-- ___r4_intermediate_r -->
<g id="node22" class="node"><title>___r4_intermediate_r</title>
<ellipse fill="black" stroke="black" cx="272" cy="-72" rx="0.036" ry="0.036"/>
</g>
<!-- Target&#45;&gt;___r4_intermediate_r -->
<g id="edge22" class="edge"><title>Target&#45;&gt;___r4_intermediate_r</title>
<path fill="none" stroke="black" d="M235.525,-72C252.549,-72 270.82,-72 271.945,-72"/>
</g>
<!-- ___r1 -->
<g id="node3" class="node"><title>___r1</title>
<polygon fill="none" stroke="black" points="104,-25 90,-25 90,-11 104,-11 104,-25"/>
</g>
<!-- ___r1_intermediate_p -->
<g id="node6" class="node"><title>___r1_intermediate_p</title>
<ellipse fill="black" stroke="black" cx="140" cy="-18" rx="0.036" ry="0.036"/>
</g>
<!-- ___r1&#45;&gt;___r1_intermediate_p -->
<g id="edge4" class="edge"><title>___r1&#45;&gt;___r1_intermediate_p</title>
<path fill="none" stroke="black" d="M104.101,-18C115.932,-18 138.531,-18 139.932,-18"/>
</g>
<!-- ___r1_empty -->
<g id="node4" class="node"><title>___r1_empty</title>
<text text-anchor="middle" x="27" y="-13.5" font-family="Times Roman,serif" font-size="15.00" fill="blue">Ø</text>
</g>
<!-- ___r1_empty&#45;&gt;___r1 -->
<g id="edge2" class="edge"><title>___r1_empty&#45;&gt;___r1</title>
<path fill="none" stroke="black" d="M54.2643,-18C67.1627,-18 81.5367,-18 89.8947,-18"/>
</g>
<!-- ___r1_intermediate_p&#45;&gt;P2 -->
<g id="edge6" class="edge"><title>___r1_intermediate_p&#45;&gt;P2</title>
<path fill="none" stroke="black" d="M140.048,-18C140.942,-18 154.244,-18 168.669,-18"/>
<polygon fill="black" stroke="black" points="168.697,-21.5001 178.697,-18 168.697,-14.5001 168.697,-21.5001"/>
</g>
<!-- ___r2 -->
<g id="node9" class="node"><title>___r2</title>
<polygon fill="none" stroke="black" points="322,-25 308,-25 308,-11 322,-11 322,-25"/>
</g>
<!-- ___r2_empty -->
<g id="node13" class="node"><title>___r2_empty</title>
<text text-anchor="middle" x="385" y="-13.5" font-family="Times Roman,serif" font-size="15.00" fill="blue">Ø</text>
</g>
<!-- ___r2&#45;&gt;___r2_empty -->
<g id="edge12" class="edge"><title>___r2&#45;&gt;___r2_empty</title>
<path fill="none" stroke="black" d="M322.228,-18C328.45,-18 337.94,-18 347.672,-18"/>
<polygon fill="black" stroke="black" points="347.773,-21.5001 357.773,-18 347.773,-14.5001 347.773,-21.5001"/>
</g>
<!-- ___r2_intermediate_r&#45;&gt;___r2 -->
<g id="edge8" class="edge"><title>___r2_intermediate_r&#45;&gt;___r2</title>
<path fill="none" stroke="black" d="M272.123,-18C273.976,-18 296.231,-18 307.924,-18"/>
</g>
<!-- ___r3 -->
<g id="node15" class="node"><title>___r3</title>
<polygon fill="none" stroke="black" points="104,-79 90,-79 90,-65 104,-65 104,-79"/>
</g>
<!-- ___r3_intermediate_p -->
<g id="node18" class="node"><title>___r3_intermediate_p</title>
<ellipse fill="black" stroke="black" cx="140" cy="-72" rx="0.036" ry="0.036"/>
</g>
<!-- ___r3&#45;&gt;___r3_intermediate_p -->
<g id="edge16" class="edge"><title>___r3&#45;&gt;___r3_intermediate_p</title>
<path fill="none" stroke="black" d="M104.101,-72C115.932,-72 138.531,-72 139.932,-72"/>
</g>
<!-- ___r3_empty -->
<g id="node16" class="node"><title>___r3_empty</title>
<text text-anchor="middle" x="27" y="-67.5" font-family="Times Roman,serif" font-size="15.00" fill="blue">Ø</text>
</g>
<!-- ___r3_empty&#45;&gt;___r3 -->
<g id="edge14" class="edge"><title>___r3_empty&#45;&gt;___r3</title>
<path fill="none" stroke="black" d="M54.2643,-72C67.1627,-72 81.5367,-72 89.8947,-72"/>
</g>
<!-- ___r3_intermediate_p&#45;&gt;Target -->
<g id="edge18" class="edge"><title>___r3_intermediate_p&#45;&gt;Target</title>
<path fill="none" stroke="black" d="M140.048,-72C140.888,-72 152.668,-72 166.046,-72"/>
<polygon fill="black" stroke="black" points="166.433,-75.5001 176.433,-72 166.433,-68.5001 166.433,-75.5001"/>
</g>
<!-- ___r4 -->
<g id="node21" class="node"><title>___r4</title>
<polygon fill="none" stroke="black" points="322,-79 308,-79 308,-65 322,-65 322,-79"/>
</g>
<!-- ___r4_empty -->
<g id="node25" class="node"><title>___r4_empty</title>
<text text-anchor="middle" x="385" y="-67.5" font-family="Times Roman,serif" font-size="15.00" fill="blue">Ø</text>
</g>
<!-- ___r4&#45;&gt;___r4_empty -->
<g id="edge24" class="edge"><title>___r4&#45;&gt;___r4_empty</title>
<path fill="none" stroke="black" d="M322.228,-72C328.45,-72 337.94,-72 347.672,-72"/>
<polygon fill="black" stroke="black" points="347.773,-75.5001 357.773,-72 347.773,-68.5001 347.773,-75.5001"/>
</g>
<!-- ___r4_intermediate_r&#45;&gt;___r4 -->
<g id="edge20" class="edge"><title>___r4_intermediate_r&#45;&gt;___r4</title>
<path fill="none" stroke="black" d="M272.123,-72C273.976,-72 296.231,-72 307.924,-72"/>
</g>
</g>
</svg>
