<?xml version="1.0" encoding="UTF-8" standalone="no"?>
<!DOCTYPE svg PUBLIC "-//W3C//DTD SVG 1.1//EN"
 "http://www.w3.org/Graphics/SVG/1.1/DTD/svg11.dtd">
<!-- Generated by graphviz version 2.24.0 (20090616.2323)
 -->
<!-- Title: G Pages: 1 -->
<svg width="486pt" height="98pt"
 viewBox="0.00 0.00 486.00 98.00" xmlns="http://www.w3.org/2000/svg" xmlns:xlink="http://www.w3.org/1999/xlink">
<g id="graph1" class="graph" transform="scale(1 1) rotate(0) translate(4 94)">
<title>G</title>
<polygon fill="white" stroke="white" points="-4,5 -4,-94 483,-94 483,5 -4,5"/>
<!-- II -->
<g id="node1" class="node"><title>II</title>
<polyline fill="none" stroke="black" points="42,-59 12,-59 "/>
<path fill="none" stroke="black" d="M12,-59C6,-59 2.07242e-14,-53 1.65793e-14,-47"/>
<polyline fill="none" stroke="black" points="1.65793e-14,-47 8.28967e-15,-35 "/>
<path fill="none" stroke="black" d="M8.28967e-15,-35C4.14483e-15,-29 6,-23 12,-23"/>
<polyline fill="none" stroke="black" points="12,-23 42,-23 "/>
<path fill="none" stroke="black" d="M42,-23C48,-23 54,-29 54,-35"/>
<polyline fill="none" stroke="black" points="54,-35 54,-47 "/>
<path fill="none" stroke="black" d="M54,-47C54,-53 48,-59 42,-59"/>
<text text-anchor="middle" x="27" y="-38.5" font-family="Times Roman,serif" font-size="10.00">II</text>
</g>
<!-- r1_intermediate_r -->
<g id="node6" class="node"><title>r1_intermediate_r</title>
<ellipse fill="black" stroke="black" cx="90" cy="-52" rx="0.036" ry="0.036"/>
</g>
<!-- II&#45;&gt;r1_intermediate_r -->
<g id="edge4" class="edge"><title>II&#45;&gt;r1_intermediate_r</title>
<path fill="none" stroke="black" d="M54.0833,-45.7288C70.6248,-48.617 88.8241,-51.7947 89.9454,-51.9905"/>
</g>
<!-- r3_intermediate_r -->
<g id="node20" class="node"><title>r3_intermediate_r</title>
<ellipse fill="black" stroke="black" cx="90" cy="-31" rx="0.036" ry="0.036"/>
</g>
<!-- II&#45;&gt;r3_intermediate_r -->
<g id="edge20" class="edge"><title>II&#45;&gt;r3_intermediate_r</title>
<path fill="none" stroke="black" d="M54.0833,-36.7011C70.6248,-34.0754 88.8241,-31.1866 89.9454,-31.0087"/>
</g>
<!-- M -->
<g id="node2" class="node"><title>M</title>
<ellipse fill="none" stroke="black" cx="239" cy="-72" rx="27" ry="18"/>
<text text-anchor="middle" x="239" y="-69.5" font-family="Times Roman,serif" font-size="10.00">M</text>
</g>
<!-- r2_intermediate_r -->
<g id="node13" class="node"><title>r2_intermediate_r</title>
<ellipse fill="black" stroke="black" cx="302" cy="-70" rx="0.036" ry="0.036"/>
</g>
<!-- M&#45;&gt;r2_intermediate_r -->
<g id="edge12" class="edge"><title>M&#45;&gt;r2_intermediate_r</title>
<path fill="none" stroke="black" d="M266.083,-71.1402C282.625,-70.6151 300.824,-70.0373 301.945,-70.0017"/>
</g>
<!-- IIa -->
<g id="node3" class="node"><title>IIa</title>
<polyline fill="none" stroke="black" points="466,-68 436,-68 "/>
<path fill="none" stroke="black" d="M436,-68C430,-68 424,-62 424,-56"/>
<polyline fill="none" stroke="black" points="424,-56 424,-44 "/>
<path fill="none" stroke="black" d="M424,-44C424,-38 430,-32 436,-32"/>
<polyline fill="none" stroke="black" points="436,-32 466,-32 "/>
<path fill="none" stroke="black" d="M466,-32C472,-32 478,-38 478,-44"/>
<polyline fill="none" stroke="black" points="478,-44 478,-56 "/>
<path fill="none" stroke="black" d="M478,-56C478,-62 472,-68 466,-68"/>
<text text-anchor="middle" x="451" y="-47.5" font-family="Times Roman,serif" font-size="10.00">IIa</text>
</g>
<!-- P2 -->
<g id="node4" class="node"><title>P2</title>
<ellipse fill="none" stroke="black" cx="239" cy="-18" rx="27" ry="18"/>
<text text-anchor="middle" x="239" y="-15.5" font-family="Times Roman,serif" font-size="10.00">P2</text>
</g>
<!-- r4_intermediate_r -->
<g id="node27" class="node"><title>r4_intermediate_r</title>
<ellipse fill="black" stroke="black" cx="302" cy="-29" rx="0.036" ry="0.036"/>
</g>
<!-- P2&#45;&gt;r4_intermediate_r -->
<g id="edge28" class="edge"><title>P2&#45;&gt;r4_intermediate_r</title>
<path fill="none" stroke="black" d="M265.353,-22.6013C282.077,-25.5213 300.791,-28.7888 301.944,-28.9902"/>
</g>
<!-- r1 -->
<g id="node5" class="node"><title>r1</title>
<polygon fill="none" stroke="black" points="140,-74 126,-74 126,-60 140,-60 140,-74"/>
</g>
<!-- r1_intermediate_p -->
<g id="node9" class="node"><title>r1_intermediate_p</title>
<ellipse fill="black" stroke="black" cx="176" cy="-70" rx="0.036" ry="0.036"/>
</g>
<!-- r1&#45;&gt;r1_intermediate_p -->
<g id="edge6" class="edge"><title>r1&#45;&gt;r1_intermediate_p</title>
<path fill="none" stroke="black" d="M140.101,-67.4954C151.932,-68.3208 174.531,-69.8975 175.932,-69.9952"/>
</g>
<!-- r1_intermediate_r&#45;&gt;r1 -->
<g id="edge2" class="edge"><title>r1_intermediate_r&#45;&gt;r1</title>
<path fill="none" stroke="black" d="M90.1234,-52.043C91.9756,-52.6891 114.231,-60.4527 125.924,-64.5315"/>
</g>
<!-- r1_intermediate_p&#45;&gt;M -->
<g id="edge8" class="edge"><title>r1_intermediate_p&#45;&gt;M</title>
<path fill="none" stroke="black" d="M176.046,-70.0014C176.865,-70.0275 188.597,-70.3999 201.716,-70.8164"/>
<polygon fill="black" stroke="black" points="201.753,-74.3192 211.86,-71.1384 201.976,-67.3228 201.753,-74.3192"/>
</g>
<!-- r2 -->
<g id="node12" class="node"><title>r2</title>
<polygon fill="none" stroke="black" points="352,-72 338,-72 338,-58 352,-58 352,-72"/>
</g>
<!-- r2_intermediate_p -->
<g id="node16" class="node"><title>r2_intermediate_p</title>
<ellipse fill="black" stroke="black" cx="388" cy="-61" rx="0.036" ry="0.036"/>
</g>
<!-- r2&#45;&gt;r2_intermediate_p -->
<g id="edge14" class="edge"><title>r2&#45;&gt;r2_intermediate_p</title>
<path fill="none" stroke="black" d="M352.101,-64.3395C363.932,-63.2389 386.531,-61.1367 387.932,-61.0064"/>
</g>
<!-- r2_intermediate_r&#45;&gt;r2 -->
<g id="edge10" class="edge"><title>r2_intermediate_r&#45;&gt;r2</title>
<path fill="none" stroke="black" d="M302.123,-69.9857C303.976,-69.7703 326.231,-67.1824 337.924,-65.8228"/>
</g>
<!-- r2_intermediate_p&#45;&gt;IIa -->
<g id="edge16" class="edge"><title>r2_intermediate_p&#45;&gt;IIa</title>
<path fill="none" stroke="black" d="M388.046,-60.992C388.865,-60.8489 400.597,-58.8005 413.716,-56.51"/>
<polygon fill="black" stroke="black" points="414.611,-59.9067 423.86,-54.7388 413.407,-53.0111 414.611,-59.9067"/>
</g>
<!-- r3 -->
<g id="node19" class="node"><title>r3</title>
<polygon fill="none" stroke="black" points="140,-31 126,-31 126,-17 140,-17 140,-31"/>
</g>
<!-- r3_intermediate_p -->
<g id="node23" class="node"><title>r3_intermediate_p</title>
<ellipse fill="black" stroke="black" cx="176" cy="-19" rx="0.036" ry="0.036"/>
</g>
<!-- r3&#45;&gt;r3_intermediate_p -->
<g id="edge22" class="edge"><title>r3&#45;&gt;r3_intermediate_p</title>
<path fill="none" stroke="black" d="M140.101,-23.1744C151.932,-21.7986 174.531,-19.1708 175.932,-19.0079"/>
</g>
<!-- r3_intermediate_r&#45;&gt;r3 -->
<g id="edge18" class="edge"><title>r3_intermediate_r&#45;&gt;r3</title>
<path fill="none" stroke="black" d="M90.1234,-30.9799C91.9756,-30.6784 114.231,-27.0554 125.924,-25.152"/>
</g>
<!-- r3_intermediate_p&#45;&gt;P2 -->
<g id="edge24" class="edge"><title>r3_intermediate_p&#45;&gt;P2</title>
<path fill="none" stroke="black" d="M176.046,-18.9993C176.865,-18.9863 188.597,-18.8 201.716,-18.5918"/>
<polygon fill="black" stroke="black" points="201.916,-22.0892 211.86,-18.4308 201.805,-15.09 201.916,-22.0892"/>
</g>
<!-- r4 -->
<g id="node26" class="node"><title>r4</title>
<polygon fill="none" stroke="black" points="352,-39 338,-39 338,-25 352,-25 352,-39"/>
</g>
<!-- r4_intermediate_p -->
<g id="node30" class="node"><title>r4_intermediate_p</title>
<ellipse fill="black" stroke="black" cx="388" cy="-39" rx="0.036" ry="0.036"/>
</g>
<!-- r4&#45;&gt;r4_intermediate_p -->
<g id="edge30" class="edge"><title>r4&#45;&gt;r4_intermediate_p</title>
<path fill="none" stroke="black" d="M352.101,-33.1559C363.932,-35.082 386.531,-38.7608 387.932,-38.9889"/>
</g>
<!-- r4_intermediate_r&#45;&gt;r4 -->
<g id="edge26" class="edge"><title>r4_intermediate_r&#45;&gt;r4</title>
<path fill="none" stroke="black" d="M302.123,-29.0086C303.976,-29.1378 326.231,-30.6905 337.924,-31.5063"/>
</g>
<!-- r4_intermediate_p&#45;&gt;IIa -->
<g id="edge32" class="edge"><title>r4_intermediate_p&#45;&gt;IIa</title>
<path fill="none" stroke="black" d="M388.046,-39.008C388.865,-39.1511 400.597,-41.1995 413.716,-43.49"/>
<polygon fill="black" stroke="black" points="413.407,-46.9889 423.86,-45.2612 414.611,-40.0933 413.407,-46.9889"/>
</g>
</g>
</svg>
