<?xml version="1.0" encoding="UTF-8" standalone="no"?>
<!DOCTYPE svg PUBLIC "-//W3C//DTD SVG 1.1//EN"
 "http://www.w3.org/Graphics/SVG/1.1/DTD/svg11.dtd">
<!-- Generated by graphviz version 2.30.1 (20140821.0912)
 -->
<!-- Title: G Pages: 1 -->
<svg width="678pt" height="87pt"
 viewBox="0.00 0.00 678.00 87.00" xmlns="http://www.w3.org/2000/svg" xmlns:xlink="http://www.w3.org/1999/xlink">
<g id="graph0" class="graph" transform="scale(1 1) rotate(0) translate(4 83)">
<title>G</title>
<polygon fill="white" stroke="white" points="-4,5 -4,-83 675,-83 675,5 -4,5"/>
<!-- GLC -->
<g id="GLC [CHEBI:17234]" class="node"><title>GLC</title>
<ellipse fill="none" stroke="black" cx="18" cy="-61" rx="18" ry="18"/>
<text text-anchor="middle" x="18" y="-58.5" font-family="Times,serif" font-size="10.00">GLC</text>
</g>
<!-- vgk_intermediate_r -->
<g id="node7" class="node"><title>vgk_intermediate_r</title>
<ellipse fill="black" stroke="black" cx="72" cy="-61" rx="0.036" ry="0.036"/>
</g>
<!-- GLC&#45;&gt;vgk_intermediate_r -->
<g id="edge2" class="edge"><title>GLC&#45;&gt;vgk_intermediate_r</title>
<path fill="none" stroke="black" d="M36.0267,-61C50.7182,-61 69.7665,-61 70.9427,-61"/>
</g>
<!-- G6P_F6P -->
<g id="G6P_F6P [CHEBI:15946] [CHEBI:15946] [CHEBI:17665]" class="node"><title>G6P_F6P</title>
<ellipse fill="none" stroke="black" cx="227" cy="-61" rx="32.9303" ry="18"/>
<text text-anchor="middle" x="227" y="-58.5" font-family="Times,serif" font-size="10.00">G6P_F6P</text>
</g>
<!-- vpfk_intermediate_r -->
<g id="node10" class="node"><title>vpfk_intermediate_r</title>
<ellipse fill="black" stroke="black" cx="296" cy="-61" rx="0.036" ry="0.036"/>
</g>
<!-- G6P_F6P&#45;&gt;vpfk_intermediate_r -->
<g id="edge6" class="edge"><title>G6P_F6P&#45;&gt;vpfk_intermediate_r</title>
<path fill="none" stroke="black" d="M260.322,-61C276.92,-61 293.904,-61 294.949,-61"/>
</g>
<!-- F6P -->
<g id="F6P [CHEBI:15946]" class="node"><title>F6P</title>
<ellipse fill="none" stroke="black" cx="350" cy="-18" rx="18" ry="18"/>
<text text-anchor="middle" x="350" y="-15.5" font-family="Times,serif" font-size="10.00">F6P</text>
</g>
<!-- vpfk_intermediate_m -->
<g id="node12" class="node"><title>vpfk_intermediate_m</title>
<ellipse fill="black" stroke="black" cx="404" cy="-31" rx="0.036" ry="0.036"/>
</g>
<!-- F6P&#45;&gt;vpfk_intermediate_m -->
<g id="edge10" class="edge"><title>F6P&#45;&gt;vpfk_intermediate_m</title>
<path fill="none" stroke="black" d="M367.739,-22.1848C382.466,-25.8664 401.751,-30.6878 402.942,-30.9855"/>
</g>
<!-- FBP -->
<g id="FBP [CHEBI:16905]" class="node"><title>FBP</title>
<ellipse fill="none" stroke="black" cx="458" cy="-61" rx="18" ry="18"/>
<text text-anchor="middle" x="458" y="-58.5" font-family="Times,serif" font-size="10.00">FBP</text>
</g>
<!-- vfba_intermediate_r -->
<g id="node14" class="node"><title>vfba_intermediate_r</title>
<ellipse fill="black" stroke="black" cx="512" cy="-61" rx="0.036" ry="0.036"/>
</g>
<!-- FBP&#45;&gt;vfba_intermediate_r -->
<g id="edge12" class="edge"><title>FBP&#45;&gt;vfba_intermediate_r</title>
<path fill="none" stroke="black" d="M476.027,-61C490.718,-61 509.767,-61 510.943,-61"/>
</g>
<!-- G3P -->
<g id="G3P [CHEBI:29052]" class="node"><title>G3P</title>
<ellipse fill="none" stroke="black" cx="652" cy="-61" rx="18" ry="18"/>
<text text-anchor="middle" x="652" y="-58.5" font-family="Times,serif" font-size="10.00">G3P</text>
</g>
<!-- vgk -->
<g id="node6" class="node"><title>vgk</title>
<polygon fill="none" stroke="black" points="122,-68 108,-68 108,-54 122,-54 122,-68"/>
</g>
<!-- vgk_intermediate_p -->
<g id="node8" class="node"><title>vgk_intermediate_p</title>
<ellipse fill="black" stroke="black" cx="158" cy="-61" rx="0.036" ry="0.036"/>
</g>
<!-- vgk&#45;&gt;vgk_intermediate_p -->
<g id="edge3" class="edge"><title>vgk&#45;&gt;vgk_intermediate_p</title>
<path fill="none" stroke="black" d="M122.05,-61C133.098,-61 155.54,-61 156.932,-61"/>
</g>
<!-- vgk_intermediate_r&#45;&gt;vgk -->
<g id="edge1" class="edge"><title>vgk_intermediate_r&#45;&gt;vgk</title>
<path fill="none" stroke="black" d="M73.1176,-61C74.9212,-61 97.0158,-61 107.95,-61"/>
</g>
<!-- vgk_intermediate_p&#45;&gt;G6P_F6P -->
<g id="edge4" class="edge"><title>vgk_intermediate_p&#45;&gt;G6P_F6P</title>
<path fill="none" stroke="black" d="M159.049,-61C159.863,-61 170.819,-61 183.64,-61"/>
<polygon fill="black" stroke="black" points="183.671,-64.5001 193.671,-61 183.671,-57.5001 183.671,-64.5001"/>
</g>
<!-- vpfk -->
<g id="node9" class="node"><title>vpfk</title>
<polygon fill="none" stroke="black" points="357,-68 343,-68 343,-54 357,-54 357,-68"/>
</g>
<!-- vpfk_intermediate_p -->
<g id="node11" class="node"><title>vpfk_intermediate_p</title>
<ellipse fill="black" stroke="black" cx="404" cy="-61" rx="0.036" ry="0.036"/>
</g>
<!-- vpfk&#45;&gt;vpfk_intermediate_p -->
<g id="edge7" class="edge"><title>vpfk&#45;&gt;vpfk_intermediate_p</title>
<path fill="none" stroke="black" d="M357.376,-61C370.828,-61 401.034,-61 402.909,-61"/>
</g>
<!-- vpfk&#45;&gt;vpfk_intermediate_m -->
<g id="edge9" class="edge"><title>vpfk&#45;&gt;vpfk_intermediate_m</title>
<path fill="none" stroke="black" d="M357.376,-57.3214C370.828,-49.5609 401.034,-32.1344 402.909,-31.0528"/>
</g>
<!-- vpfk_intermediate_r&#45;&gt;vpfk -->
<g id="edge5" class="edge"><title>vpfk_intermediate_r&#45;&gt;vpfk</title>
<path fill="none" stroke="black" d="M297.149,-61C299.532,-61 329.839,-61 342.984,-61"/>
</g>
<!-- vpfk_intermediate_p&#45;&gt;FBP -->
<g id="edge8" class="edge"><title>vpfk_intermediate_p&#45;&gt;FBP</title>
<path fill="none" stroke="black" d="M405.149,-61C406.568,-61 417.891,-61 429.595,-61"/>
<polygon fill="black" stroke="black" points="429.739,-64.5001 439.739,-61 429.739,-57.5001 429.739,-64.5001"/>
</g>
<!-- vfba -->
<g id="node13" class="node"><title>vfba</title>
<polygon fill="none" stroke="black" points="562,-68 548,-68 548,-54 562,-54 562,-68"/>
</g>
<!-- vfba_intermediate_p -->
<g id="node15" class="node"><title>vfba_intermediate_p</title>
<ellipse fill="black" stroke="black" cx="598" cy="-61" rx="0.036" ry="0.036"/>
</g>
<!-- vfba&#45;&gt;vfba_intermediate_p -->
<g id="edge13" class="edge"><title>vfba&#45;&gt;vfba_intermediate_p</title>
<path fill="none" stroke="black" d="M562.05,-61C573.098,-61 595.54,-61 596.932,-61"/>
</g>
<!-- vfba_intermediate_r&#45;&gt;vfba -->
<g id="edge11" class="edge"><title>vfba_intermediate_r&#45;&gt;vfba</title>
<path fill="none" stroke="black" d="M513.118,-61C514.921,-61 537.016,-61 547.95,-61"/>
</g>
<!-- vfba_intermediate_p&#45;&gt;G3P -->
<g id="edge14" class="edge"><title>vfba_intermediate_p&#45;&gt;G3P</title>
<path fill="none" stroke="black" d="M599.149,-61C600.568,-61 611.891,-61 623.595,-61"/>
<polygon fill="black" stroke="black" points="623.739,-64.5001 633.739,-61 623.739,-57.5001 623.739,-64.5001"/>
</g>
</g>
</svg>
