<?xml version="1.0" encoding="UTF-8" standalone="no"?>
<!DOCTYPE svg PUBLIC "-//W3C//DTD SVG 1.1//EN"
 "http://www.w3.org/Graphics/SVG/1.1/DTD/svg11.dtd">
<!-- Generated by graphviz version 2.30.1 (20140821.0912)
 -->
<!-- Title: G Pages: 1 -->
<svg width="564pt" height="148pt"
 viewBox="0.00 0.00 564.00 148.00" xmlns="http://www.w3.org/2000/svg" xmlns:xlink="http://www.w3.org/1999/xlink">
<g id="graph0" class="graph" transform="scale(1 1) rotate(0) translate(4 144)">
<title>G</title>
<polygon fill="white" stroke="white" points="-4,5 -4,-144 561,-144 561,5 -4,5"/>
<!-- alpha -->
<g id="alpha [CHEBI:16541]" class="node"><title>alpha</title>
<ellipse fill="none" stroke="black" cx="18" cy="-73" rx="18" ry="18"/>
<text text-anchor="middle" x="18" y="-70.5" font-family="Times,serif" font-size="10.00">alpha</text>
</g>
<!-- v1_intermediate_r -->
<g id="node5" class="node"><title>v1_intermediate_r</title>
<ellipse fill="black" stroke="black" cx="73" cy="-73" rx="0.036" ry="0.036"/>
</g>
<!-- alpha&#45;&gt;v1_intermediate_r -->
<g id="edge2" class="edge"><title>alpha&#45;&gt;v1_intermediate_r</title>
<path fill="none" stroke="black" d="M36.0613,-73C51.0707,-73 70.727,-73 71.9409,-73"/>
</g>
<!-- v3_intermediate_m -->
<g id="node14" class="node"><title>v3_intermediate_m</title>
<ellipse fill="black" stroke="black" cx="359" cy="-135" rx="0.036" ry="0.036"/>
</g>
<!-- alpha&#45;&gt;v3_intermediate_m -->
<g id="edge16" class="edge"><title>alpha&#45;&gt;v3_intermediate_m</title>
<path fill="none" stroke="black" d="M29.5596,-86.8824C45.8042,-106.507 78.9548,-140 116,-140 116,-140 116,-140 272,-140 309.09,-140 355.027,-135.308 357.862,-135.014"/>
</g>
<!-- beta -->
<g id="beta" class="node"><title>beta</title>
<ellipse fill="none" stroke="black" cx="216" cy="-73" rx="18" ry="18"/>
<text text-anchor="middle" x="216" y="-70.5" font-family="Times,serif" font-size="10.00">beta</text>
</g>
<!-- v2_intermediate_r -->
<g id="node8" class="node"><title>v2_intermediate_r</title>
<ellipse fill="black" stroke="black" cx="271" cy="-73" rx="0.036" ry="0.036"/>
</g>
<!-- beta&#45;&gt;v2_intermediate_r -->
<g id="edge6" class="edge"><title>beta&#45;&gt;v2_intermediate_r</title>
<path fill="none" stroke="black" d="M234.061,-73C249.071,-73 268.727,-73 269.941,-73"/>
</g>
<!-- v3_intermediate_r -->
<g id="node12" class="node"><title>v3_intermediate_r</title>
<ellipse fill="black" stroke="black" cx="271" cy="-98" rx="0.036" ry="0.036"/>
</g>
<!-- beta&#45;&gt;v3_intermediate_r -->
<g id="edge12" class="edge"><title>beta&#45;&gt;v3_intermediate_r</title>
<path fill="none" stroke="black" d="M232.615,-80.3656C247.76,-87.5095 268.647,-97.3616 269.937,-97.9703"/>
</g>
<!-- gamma -->
<g id="gamma" class="node"><title>gamma</title>
<ellipse fill="none" stroke="black" cx="414" cy="-122" rx="18" ry="18"/>
<text text-anchor="middle" x="414" y="-119.5" font-family="Times,serif" font-size="10.00">gamma</text>
</g>
<!-- v2_intermediate_m -->
<g id="node10" class="node"><title>v2_intermediate_m</title>
<ellipse fill="black" stroke="black" cx="469" cy="-83" rx="0.036" ry="0.036"/>
</g>
<!-- gamma&#45;&gt;v2_intermediate_m -->
<g id="edge10" class="edge"><title>gamma&#45;&gt;v2_intermediate_m</title>
<path fill="none" stroke="black" d="M428.925,-111.753C444.137,-100.559 466.547,-84.0694 467.932,-83.0497"/>
</g>
<!-- v4_intermediate_r -->
<g id="node16" class="node"><title>v4_intermediate_r</title>
<ellipse fill="black" stroke="black" cx="469" cy="-115" rx="0.036" ry="0.036"/>
</g>
<!-- gamma&#45;&gt;v4_intermediate_r -->
<g id="edge18" class="edge"><title>gamma&#45;&gt;v4_intermediate_r</title>
<path fill="none" stroke="black" d="M432.061,-119.747C447.071,-117.764 466.727,-115.168 467.941,-115.008"/>
</g>
<!-- v1 -->
<g id="node4" class="node"><title>v1</title>
<polygon fill="none" stroke="black" points="124,-80 110,-80 110,-66 124,-66 124,-80"/>
</g>
<!-- v1_intermediate_p -->
<g id="node6" class="node"><title>v1_intermediate_p</title>
<ellipse fill="black" stroke="black" cx="161" cy="-73" rx="0.036" ry="0.036"/>
</g>
<!-- v1&#45;&gt;v1_intermediate_p -->
<g id="edge3" class="edge"><title>v1&#45;&gt;v1_intermediate_p</title>
<path fill="none" stroke="black" d="M124.197,-73C135.515,-73 158.505,-73 159.93,-73"/>
</g>
<!-- v1_intermediate_r&#45;&gt;v1 -->
<g id="edge1" class="edge"><title>v1_intermediate_r&#45;&gt;v1</title>
<path fill="none" stroke="black" d="M74.1205,-73C75.9681,-73 98.6015,-73 109.803,-73"/>
</g>
<!-- v1_intermediate_p&#45;&gt;beta -->
<g id="edge4" class="edge"><title>v1_intermediate_p&#45;&gt;beta</title>
<path fill="none" stroke="black" d="M162.152,-73C163.632,-73 175.681,-73 187.9,-73"/>
<polygon fill="black" stroke="black" points="187.975,-76.5001 197.975,-73 187.975,-69.5001 187.975,-76.5001"/>
</g>
<!-- v2 -->
<g id="node7" class="node"><title>v2</title>
<polygon fill="none" stroke="black" points="322,-80 308,-80 308,-66 322,-66 322,-80"/>
</g>
<!-- v2_intermediate_p -->
<g id="node9" class="node"><title>v2_intermediate_p</title>
<ellipse fill="black" stroke="black" cx="359" cy="-5" rx="0.036" ry="0.036"/>
</g>
<!-- v2&#45;&gt;v2_intermediate_p -->
<g id="edge7" class="edge"><title>v2&#45;&gt;v2_intermediate_p</title>
<path fill="none" stroke="black" d="M320.337,-65.9789C330.732,-49.148 356.333,-7.6997 357.922,-5.12562"/>
</g>
<!-- v2&#45;&gt;v2_intermediate_m -->
<g id="edge9" class="edge"><title>v2&#45;&gt;v2_intermediate_m</title>
<path fill="none" stroke="black" d="M322.147,-73.4044C350.139,-75.246 464.352,-82.76 467.915,-82.9944"/>
</g>
<!-- v2_intermediate_r&#45;&gt;v2 -->
<g id="edge5" class="edge"><title>v2_intermediate_r&#45;&gt;v2</title>
<path fill="none" stroke="black" d="M272.12,-73C273.968,-73 296.602,-73 307.803,-73"/>
</g>
<!-- v2_intermediate_p&#45;&gt;alpha -->
<g id="edge8" class="edge"><title>v2_intermediate_p&#45;&gt;alpha</title>
<path fill="none" stroke="black" d="M357.862,-4.98566C355.027,-4.69238 309.09,-3.55271e-15 272,-0 116,-0 116,-0 116,-0 82.1361,-0 52.5703,-28.7556 35.2469,-50.1714"/>
<polygon fill="black" stroke="black" points="32.3651,-48.1765 29.0139,-58.2274 37.9014,-52.46 32.3651,-48.1765"/>
</g>
<!-- v3 -->
<g id="node11" class="node"><title>v3</title>
<polygon fill="none" stroke="black" points="322,-112 308,-112 308,-98 322,-98 322,-112"/>
</g>
<!-- v3_intermediate_p -->
<g id="node13" class="node"><title>v3_intermediate_p</title>
<ellipse fill="black" stroke="black" cx="359" cy="-109" rx="0.036" ry="0.036"/>
</g>
<!-- v3&#45;&gt;v3_intermediate_p -->
<g id="edge13" class="edge"><title>v3&#45;&gt;v3_intermediate_p</title>
<path fill="none" stroke="black" d="M322.197,-105.59C333.515,-106.668 356.505,-108.858 357.93,-108.993"/>
</g>
<!-- v3&#45;&gt;v3_intermediate_m -->
<g id="edge15" class="edge"><title>v3&#45;&gt;v3_intermediate_m</title>
<path fill="none" stroke="black" d="M322.197,-109.427C333.515,-117.511 356.505,-133.932 357.93,-134.95"/>
</g>
<!-- v3_intermediate_r&#45;&gt;v3 -->
<g id="edge11" class="edge"><title>v3_intermediate_r&#45;&gt;v3</title>
<path fill="none" stroke="black" d="M272.12,-98.0201C273.968,-98.328 296.602,-102.1 307.803,-103.967"/>
</g>
<!-- v3_intermediate_p&#45;&gt;gamma -->
<g id="edge14" class="edge"><title>v3_intermediate_p&#45;&gt;gamma</title>
<path fill="none" stroke="black" d="M360.152,-109.037C361.656,-109.406 374.081,-112.454 386.504,-115.501"/>
<polygon fill="black" stroke="black" points="385.712,-118.91 396.258,-117.893 387.379,-112.112 385.712,-118.91"/>
</g>
<!-- v4 -->
<g id="node15" class="node"><title>v4</title>
<polygon fill="none" stroke="black" points="520,-101 506,-101 506,-87 520,-87 520,-101"/>
</g>
<!-- v4_intermediate_p -->
<g id="node17" class="node"><title>v4_intermediate_p</title>
<ellipse fill="black" stroke="black" cx="556" cy="-66" rx="0.036" ry="0.036"/>
</g>
<!-- v4&#45;&gt;v4_intermediate_p -->
<g id="edge19" class="edge"><title>v4&#45;&gt;v4_intermediate_p</title>
<path fill="none" stroke="black" d="M520.05,-89.8685C531.098,-82.3232 553.54,-66.9969 554.932,-66.0464"/>
</g>
<!-- v4_intermediate_r&#45;&gt;v4 -->
<g id="edge17" class="edge"><title>v4_intermediate_r&#45;&gt;v4</title>
<path fill="none" stroke="black" d="M470.12,-114.94C471.968,-114.016 494.602,-102.699 505.803,-97.0986"/>
</g>
<!-- v4_intermediate_p&#45;&gt;beta -->
<g id="edge20" class="edge"><title>v4_intermediate_p&#45;&gt;beta</title>
<path fill="none" stroke="black" d="M554.869,-65.9197C552.179,-64.2773 508.532,-38 470,-38 314,-38 314,-38 314,-38 287.811,-38 259.879,-49.4285 240.747,-59.2244"/>
<polygon fill="black" stroke="black" points="239.018,-56.1801 231.855,-63.9866 242.323,-62.3509 239.018,-56.1801"/>
</g>
</g>
</svg>
