<?xml version="1.0" encoding="UTF-8" standalone="no"?>
<!DOCTYPE svg PUBLIC "-//W3C//DTD SVG 1.1//EN"
 "http://www.w3.org/Graphics/SVG/1.1/DTD/svg11.dtd">
<!-- Generated by graphviz version 2.24.0 (20090616.2323)
 -->
<!-- Title: G Pages: 1 -->
<svg width="590pt" height="785pt"
 viewBox="0.00 0.00 590.00 784.82" xmlns="http://www.w3.org/2000/svg" xmlns:xlink="http://www.w3.org/1999/xlink">
<g id="graph1" class="graph" transform="scale(1 1) rotate(0) translate(4 780.817)">
<title>G</title>
<polygon fill="white" stroke="white" points="-4,5 -4,-780.817 587,-780.817 587,5 -4,5"/>
<!-- OCT4_Gene -->
<g id="node1" class="node"><title>OCT4_Gene</title>
<polyline fill="none" stroke="black" points="73,-614.817 21,-614.817 "/>
<path fill="none" stroke="black" d="M21,-614.817C15,-614.817 9,-608.817 9,-602.817"/>
<polyline fill="none" stroke="black" points="9,-602.817 9,-590.817 "/>
<path fill="none" stroke="black" d="M9,-590.817C9,-584.817 15,-578.817 21,-578.817"/>
<polyline fill="none" stroke="black" points="21,-578.817 73,-578.817 "/>
<path fill="none" stroke="black" d="M73,-578.817C79,-578.817 85,-584.817 85,-590.817"/>
<polyline fill="none" stroke="black" points="85,-590.817 85,-602.817 "/>
<path fill="none" stroke="black" d="M85,-602.817C85,-608.817 79,-614.817 73,-614.817"/>
<text text-anchor="middle" x="47" y="-594.317" font-family="Times Roman,serif" font-size="10.00">OCT4_Gene</text>
</g>
<!-- R1_intermediate_r -->
<g id="node20" class="node"><title>R1_intermediate_r</title>
<ellipse fill="black" stroke="black" cx="130" cy="-596.817" rx="0.036" ry="0.036"/>
</g>
<!-- OCT4_Gene&#45;&gt;R1_intermediate_r -->
<g id="edge4" class="edge"><title>OCT4_Gene&#45;&gt;R1_intermediate_r</title>
<path fill="none" stroke="black" d="M85.0991,-596.817C106.237,-596.817 128.559,-596.817 129.933,-596.817"/>
</g>
<!-- NANOG_Gene -->
<g id="node2" class="node"><title>NANOG_Gene</title>
<polyline fill="none" stroke="black" points="78,-173.817 16,-173.817 "/>
<path fill="none" stroke="black" d="M16,-173.817C10,-173.817 4,-167.817 4,-161.817"/>
<polyline fill="none" stroke="black" points="4,-161.817 4,-149.817 "/>
<path fill="none" stroke="black" d="M4,-149.817C4,-143.817 10,-137.817 16,-137.817"/>
<polyline fill="none" stroke="black" points="16,-137.817 78,-137.817 "/>
<path fill="none" stroke="black" d="M78,-137.817C84,-137.817 90,-143.817 90,-149.817"/>
<polyline fill="none" stroke="black" points="90,-149.817 90,-161.817 "/>
<path fill="none" stroke="black" d="M90,-161.817C90,-167.817 84,-173.817 78,-173.817"/>
<text text-anchor="middle" x="47" y="-153.317" font-family="Times Roman,serif" font-size="10.00">NANOG_Gene</text>
</g>
<!-- R5_intermediate_r -->
<g id="node59" class="node"><title>R5_intermediate_r</title>
<ellipse fill="black" stroke="black" cx="130" cy="-155.817" rx="0.036" ry="0.036"/>
</g>
<!-- NANOG_Gene&#45;&gt;R5_intermediate_r -->
<g id="edge54" class="edge"><title>NANOG_Gene&#45;&gt;R5_intermediate_r</title>
<path fill="none" stroke="black" d="M90.4447,-155.817C109.899,-155.817 128.782,-155.817 129.944,-155.817"/>
</g>
<!-- SOX2_Gene -->
<g id="node3" class="node"><title>SOX2_Gene</title>
<polyline fill="none" stroke="black" points="72,-552.817 22,-552.817 "/>
<path fill="none" stroke="black" d="M22,-552.817C16,-552.817 10,-546.817 10,-540.817"/>
<polyline fill="none" stroke="black" points="10,-540.817 10,-528.817 "/>
<path fill="none" stroke="black" d="M10,-528.817C10,-522.817 16,-516.817 22,-516.817"/>
<polyline fill="none" stroke="black" points="22,-516.817 72,-516.817 "/>
<path fill="none" stroke="black" d="M72,-516.817C78,-516.817 84,-522.817 84,-528.817"/>
<polyline fill="none" stroke="black" points="84,-528.817 84,-540.817 "/>
<path fill="none" stroke="black" d="M84,-540.817C84,-546.817 78,-552.817 72,-552.817"/>
<text text-anchor="middle" x="47" y="-532.317" font-family="Times Roman,serif" font-size="10.00">SOX2_Gene</text>
</g>
<!-- R3_intermediate_r -->
<g id="node41" class="node"><title>R3_intermediate_r</title>
<ellipse fill="black" stroke="black" cx="130" cy="-534.817" rx="0.036" ry="0.036"/>
</g>
<!-- SOX2_Gene&#45;&gt;R3_intermediate_r -->
<g id="edge32" class="edge"><title>SOX2_Gene&#45;&gt;R3_intermediate_r</title>
<path fill="none" stroke="black" d="M84.6144,-534.817C105.889,-534.817 128.537,-534.817 129.932,-534.817"/>
</g>
<!-- GATA6_Gene -->
<g id="node4" class="node"><title>GATA6_Gene</title>
<polyline fill="none" stroke="black" points="75,-110.817 19,-110.817 "/>
<path fill="none" stroke="black" d="M19,-110.817C13,-110.817 7,-104.817 7,-98.8173"/>
<polyline fill="none" stroke="black" points="7,-98.8173 7,-86.8173 "/>
<path fill="none" stroke="black" d="M7,-86.8173C7,-80.8173 13,-74.8173 19,-74.8173"/>
<polyline fill="none" stroke="black" points="19,-74.8173 75,-74.8173 "/>
<path fill="none" stroke="black" d="M75,-74.8173C81,-74.8173 87,-80.8173 87,-86.8173"/>
<polyline fill="none" stroke="black" points="87,-86.8173 87,-98.8173 "/>
<path fill="none" stroke="black" d="M87,-98.8173C87,-104.817 81,-110.817 75,-110.817"/>
<text text-anchor="middle" x="47" y="-90.3173" font-family="Times Roman,serif" font-size="10.00">GATA6_Gene</text>
</g>
<!-- R11_intermediate_r -->
<g id="node112" class="node"><title>R11_intermediate_r</title>
<ellipse fill="black" stroke="black" cx="130" cy="-92.8173" rx="0.036" ry="0.036"/>
</g>
<!-- GATA6_Gene&#45;&gt;R11_intermediate_r -->
<g id="edge118" class="edge"><title>GATA6_Gene&#45;&gt;R11_intermediate_r</title>
<path fill="none" stroke="black" d="M87.0413,-92.8173C107.603,-92.8173 128.642,-92.8173 129.937,-92.8173"/>
</g>
<!-- CDX2_Gene -->
<g id="node5" class="node"><title>CDX2_Gene</title>
<polyline fill="none" stroke="black" points="73,-494.817 21,-494.817 "/>
<path fill="none" stroke="black" d="M21,-494.817C15,-494.817 9,-488.817 9,-482.817"/>
<polyline fill="none" stroke="black" points="9,-482.817 9,-470.817 "/>
<path fill="none" stroke="black" d="M9,-470.817C9,-464.817 15,-458.817 21,-458.817"/>
<polyline fill="none" stroke="black" points="21,-458.817 73,-458.817 "/>
<path fill="none" stroke="black" d="M73,-458.817C79,-458.817 85,-464.817 85,-470.817"/>
<polyline fill="none" stroke="black" points="85,-470.817 85,-482.817 "/>
<path fill="none" stroke="black" d="M85,-482.817C85,-488.817 79,-494.817 73,-494.817"/>
<text text-anchor="middle" x="47" y="-474.317" font-family="Times Roman,serif" font-size="10.00">CDX2_Gene</text>
</g>
<!-- R7_intermediate_r -->
<g id="node77" class="node"><title>R7_intermediate_r</title>
<ellipse fill="black" stroke="black" cx="130" cy="-476.817" rx="0.036" ry="0.036"/>
</g>
<!-- CDX2_Gene&#45;&gt;R7_intermediate_r -->
<g id="edge76" class="edge"><title>CDX2_Gene&#45;&gt;R7_intermediate_r</title>
<path fill="none" stroke="black" d="M85.5842,-476.817C106.582,-476.817 128.58,-476.817 129.934,-476.817"/>
</g>
<!-- GCNF_Gene -->
<g id="node6" class="node"><title>GCNF_Gene</title>
<polyline fill="none" stroke="black" points="73,-288.817 21,-288.817 "/>
<path fill="none" stroke="black" d="M21,-288.817C15,-288.817 9,-282.817 9,-276.817"/>
<polyline fill="none" stroke="black" points="9,-276.817 9,-264.817 "/>
<path fill="none" stroke="black" d="M9,-264.817C9,-258.817 15,-252.817 21,-252.817"/>
<polyline fill="none" stroke="black" points="21,-252.817 73,-252.817 "/>
<path fill="none" stroke="black" d="M73,-252.817C79,-252.817 85,-258.817 85,-264.817"/>
<polyline fill="none" stroke="black" points="85,-264.817 85,-276.817 "/>
<path fill="none" stroke="black" d="M85,-276.817C85,-282.817 79,-288.817 73,-288.817"/>
<text text-anchor="middle" x="47" y="-268.317" font-family="Times Roman,serif" font-size="10.00">GCNF_Gene</text>
</g>
<!-- R9_intermediate_r -->
<g id="node94" class="node"><title>R9_intermediate_r</title>
<ellipse fill="black" stroke="black" cx="130" cy="-270.817" rx="0.036" ry="0.036"/>
</g>
<!-- GCNF_Gene&#45;&gt;R9_intermediate_r -->
<g id="edge96" class="edge"><title>GCNF_Gene&#45;&gt;R9_intermediate_r</title>
<path fill="none" stroke="black" d="M85.5842,-270.817C106.582,-270.817 128.58,-270.817 129.934,-270.817"/>
</g>
<!-- targetGene -->
<g id="node7" class="node"><title>targetGene</title>
<ellipse fill="none" stroke="black" cx="47" cy="-650.817" rx="46.7846" ry="18"/>
<text text-anchor="middle" x="47" y="-648.317" font-family="Times Roman,serif" font-size="10.00">targetGene</text>
</g>
<!-- degradation -->
<g id="node8" class="node"><title>degradation</title>
<ellipse fill="none" stroke="black" cx="535" cy="-297.817" rx="46.7846" ry="18"/>
<text text-anchor="middle" x="535" y="-295.317" font-family="Times Roman,serif" font-size="10.00">degradation</text>
</g>
<!-- p53 -->
<g id="node9" class="node"><title>p53</title>
<polyline fill="none" stroke="black" points="62,-722.817 32,-722.817 "/>
<path fill="none" stroke="black" d="M32,-722.817C26,-722.817 20,-716.817 20,-710.817"/>
<polyline fill="none" stroke="black" points="20,-710.817 20,-698.817 "/>
<path fill="none" stroke="black" d="M20,-698.817C20,-692.817 26,-686.817 32,-686.817"/>
<polyline fill="none" stroke="black" points="32,-686.817 62,-686.817 "/>
<path fill="none" stroke="black" d="M62,-686.817C68,-686.817 74,-692.817 74,-698.817"/>
<polyline fill="none" stroke="black" points="74,-698.817 74,-710.817 "/>
<path fill="none" stroke="black" d="M74,-710.817C74,-716.817 68,-722.817 62,-722.817"/>
<text text-anchor="middle" x="47" y="-702.317" font-family="Times Roman,serif" font-size="10.00">p53</text>
</g>
<!-- A -->
<g id="node10" class="node"><title>A</title>
<ellipse fill="none" stroke="black" cx="292" cy="-383.817" rx="27" ry="18"/>
<text text-anchor="middle" x="292" y="-381.317" font-family="Times Roman,serif" font-size="10.00">A</text>
</g>
<!-- R1_intermediate_m -->
<g id="node26" class="node"><title>R1_intermediate_m</title>
<ellipse fill="black" stroke="black" cx="366" cy="-351.817" rx="0.036" ry="0.036"/>
</g>
<!-- A&#45;&gt;R1_intermediate_m -->
<g id="edge12" class="edge"><title>A&#45;&gt;R1_intermediate_m</title>
<path fill="none" stroke="black" d="M315.008,-373.868C336.052,-364.768 364.178,-352.605 365.915,-351.854"/>
</g>
<!-- OCT4 -->
<g id="node11" class="node"><title>OCT4</title>
<polyline fill="none" stroke="black" points="307,-623.817 277,-623.817 "/>
<path fill="none" stroke="black" d="M277,-623.817C271,-623.817 265,-617.817 265,-611.817"/>
<polyline fill="none" stroke="black" points="265,-611.817 265,-599.817 "/>
<path fill="none" stroke="black" d="M265,-599.817C265,-593.817 271,-587.817 277,-587.817"/>
<polyline fill="none" stroke="black" points="277,-587.817 307,-587.817 "/>
<path fill="none" stroke="black" d="M307,-587.817C313,-587.817 319,-593.817 319,-599.817"/>
<polyline fill="none" stroke="black" points="319,-599.817 319,-611.817 "/>
<path fill="none" stroke="black" d="M319,-611.817C319,-617.817 313,-623.817 307,-623.817"/>
<text text-anchor="middle" x="292" y="-603.317" font-family="Times Roman,serif" font-size="10.00">OCT4</text>
</g>
<!-- R2_intermediate_r -->
<g id="node34" class="node"><title>R2_intermediate_r</title>
<ellipse fill="black" stroke="black" cx="366" cy="-602.817" rx="0.036" ry="0.036"/>
</g>
<!-- OCT4&#45;&gt;R2_intermediate_r -->
<g id="edge24" class="edge"><title>OCT4&#45;&gt;R2_intermediate_r</title>
<path fill="none" stroke="black" d="M319.135,-604.717C339.594,-603.888 364.395,-602.882 365.925,-602.82"/>
</g>
<!-- R3_intermediate_m -->
<g id="node47" class="node"><title>R3_intermediate_m</title>
<ellipse fill="black" stroke="black" cx="366" cy="-559.817" rx="0.036" ry="0.036"/>
</g>
<!-- OCT4&#45;&gt;R3_intermediate_m -->
<g id="edge40" class="edge"><title>OCT4&#45;&gt;R3_intermediate_m</title>
<path fill="none" stroke="black" d="M319.135,-588.95C339.594,-576.232 364.395,-560.815 365.925,-559.864"/>
</g>
<!-- R7_intermediate_m -->
<g id="node83" class="node"><title>R7_intermediate_m</title>
<ellipse fill="black" stroke="black" cx="366" cy="-582.817" rx="0.036" ry="0.036"/>
</g>
<!-- OCT4&#45;&gt;R7_intermediate_m -->
<g id="edge84" class="edge"><title>OCT4&#45;&gt;R7_intermediate_m</title>
<path fill="none" stroke="black" d="M319.135,-597.384C339.594,-591.024 364.395,-583.316 365.925,-582.84"/>
</g>
<!-- SOX2 -->
<g id="node12" class="node"><title>SOX2</title>
<polyline fill="none" stroke="black" points="307,-455.817 277,-455.817 "/>
<path fill="none" stroke="black" d="M277,-455.817C271,-455.817 265,-449.817 265,-443.817"/>
<polyline fill="none" stroke="black" points="265,-443.817 265,-431.817 "/>
<path fill="none" stroke="black" d="M265,-431.817C265,-425.817 271,-419.817 277,-419.817"/>
<polyline fill="none" stroke="black" points="277,-419.817 307,-419.817 "/>
<path fill="none" stroke="black" d="M307,-419.817C313,-419.817 319,-425.817 319,-431.817"/>
<polyline fill="none" stroke="black" points="319,-431.817 319,-443.817 "/>
<path fill="none" stroke="black" d="M319,-443.817C319,-449.817 313,-455.817 307,-455.817"/>
<text text-anchor="middle" x="292" y="-435.317" font-family="Times Roman,serif" font-size="10.00">SOX2</text>
</g>
<!-- SOX2&#45;&gt;R1_intermediate_m -->
<g id="edge14" class="edge"><title>SOX2&#45;&gt;R1_intermediate_m</title>
<path fill="none" stroke="black" d="M319.287,-420.508C323.098,-417.514 326.799,-414.25 330,-410.817 350.294,-389.053 365.054,-354.087 365.956,-351.923"/>
</g>
<!-- R4_intermediate_r -->
<g id="node52" class="node"><title>R4_intermediate_r</title>
<ellipse fill="black" stroke="black" cx="366" cy="-392.817" rx="0.036" ry="0.036"/>
</g>
<!-- SOX2&#45;&gt;R4_intermediate_r -->
<g id="edge46" class="edge"><title>SOX2&#45;&gt;R4_intermediate_r</title>
<path fill="none" stroke="black" d="M319.135,-421.316C339.594,-408.875 364.395,-393.793 365.925,-392.863"/>
</g>
<!-- NANOG -->
<g id="node13" class="node"><title>NANOG</title>
<polyline fill="none" stroke="black" points="307,-201.817 277,-201.817 "/>
<path fill="none" stroke="black" d="M277,-201.817C271,-201.817 265,-195.817 265,-189.817"/>
<polyline fill="none" stroke="black" points="265,-189.817 265,-177.817 "/>
<path fill="none" stroke="black" d="M265,-177.817C265,-171.817 271,-165.817 277,-165.817"/>
<polyline fill="none" stroke="black" points="277,-165.817 307,-165.817 "/>
<path fill="none" stroke="black" d="M307,-165.817C313,-165.817 319,-171.817 319,-177.817"/>
<polyline fill="none" stroke="black" points="319,-177.817 319,-189.817 "/>
<path fill="none" stroke="black" d="M319,-189.817C319,-195.817 313,-201.817 307,-201.817"/>
<text text-anchor="middle" x="292" y="-181.317" font-family="Times Roman,serif" font-size="10.00">NANOG</text>
</g>
<!-- NANOG&#45;&gt;R1_intermediate_m -->
<g id="edge16" class="edge"><title>NANOG&#45;&gt;R1_intermediate_m</title>
<path fill="none" stroke="black" d="M303.957,-202.078C311.985,-214.832 322.437,-232.44 330,-248.817 350.014,-292.155 365.509,-349.978 365.989,-351.774"/>
</g>
<!-- NANOG&#45;&gt;R3_intermediate_m -->
<g id="edge42" class="edge"><title>NANOG&#45;&gt;R3_intermediate_m</title>
<path fill="none" stroke="black" d="M305.324,-201.884C313.846,-214.409 324.33,-231.83 330,-248.817 351.854,-314.296 365.781,-556 365.997,-559.773"/>
</g>
<!-- R6_intermediate_r -->
<g id="node70" class="node"><title>R6_intermediate_r</title>
<ellipse fill="black" stroke="black" cx="366" cy="-197.817" rx="0.036" ry="0.036"/>
</g>
<!-- NANOG&#45;&gt;R6_intermediate_r -->
<g id="edge68" class="edge"><title>NANOG&#45;&gt;R6_intermediate_r</title>
<path fill="none" stroke="black" d="M319.135,-188.951C339.594,-192.822 364.395,-197.514 365.925,-197.803"/>
</g>
<!-- R11_intermediate_m -->
<g id="node118" class="node"><title>R11_intermediate_m</title>
<ellipse fill="black" stroke="black" cx="366" cy="-83.8173" rx="0.036" ry="0.036"/>
</g>
<!-- NANOG&#45;&gt;R11_intermediate_m -->
<g id="edge128" class="edge"><title>NANOG&#45;&gt;R11_intermediate_m</title>
<path fill="none" stroke="black" d="M319.179,-167.072C323.091,-163.96 326.851,-160.514 330,-156.817 352.726,-130.14 365.206,-86.6412 365.963,-83.9485"/>
</g>
<!-- GATA6 -->
<g id="node14" class="node"><title>GATA6</title>
<polyline fill="none" stroke="black" points="307,-147.817 277,-147.817 "/>
<path fill="none" stroke="black" d="M277,-147.817C271,-147.817 265,-141.817 265,-135.817"/>
<polyline fill="none" stroke="black" points="265,-135.817 265,-123.817 "/>
<path fill="none" stroke="black" d="M265,-123.817C265,-117.817 271,-111.817 277,-111.817"/>
<polyline fill="none" stroke="black" points="277,-111.817 307,-111.817 "/>
<path fill="none" stroke="black" d="M307,-111.817C313,-111.817 319,-117.817 319,-123.817"/>
<polyline fill="none" stroke="black" points="319,-123.817 319,-135.817 "/>
<path fill="none" stroke="black" d="M319,-135.817C319,-141.817 313,-147.817 307,-147.817"/>
<text text-anchor="middle" x="292" y="-127.317" font-family="Times Roman,serif" font-size="10.00">GATA6</text>
</g>
<!-- R5_intermediate_m -->
<g id="node65" class="node"><title>R5_intermediate_m</title>
<ellipse fill="black" stroke="black" cx="366" cy="-37.8173" rx="0.036" ry="0.036"/>
</g>
<!-- GATA6&#45;&gt;R5_intermediate_m -->
<g id="edge64" class="edge"><title>GATA6&#45;&gt;R5_intermediate_m</title>
<path fill="none" stroke="black" d="M306.62,-111.641C327.512,-85.6673 363.652,-40.7358 365.891,-37.953"/>
</g>
<!-- R9_intermediate_m -->
<g id="node100" class="node"><title>R9_intermediate_m</title>
<ellipse fill="black" stroke="black" cx="366" cy="-229.817" rx="0.036" ry="0.036"/>
</g>
<!-- GATA6&#45;&gt;R9_intermediate_m -->
<g id="edge106" class="edge"><title>GATA6&#45;&gt;R9_intermediate_m</title>
<path fill="none" stroke="black" d="M319.179,-146.563C323.091,-149.674 326.851,-153.121 330,-156.817 352.726,-183.494 365.206,-226.993 365.963,-229.686"/>
</g>
<!-- R12_intermediate_r -->
<g id="node123" class="node"><title>R12_intermediate_r</title>
<ellipse fill="black" stroke="black" cx="366" cy="-146.817" rx="0.036" ry="0.036"/>
</g>
<!-- GATA6&#45;&gt;R12_intermediate_r -->
<g id="edge132" class="edge"><title>GATA6&#45;&gt;R12_intermediate_r</title>
<path fill="none" stroke="black" d="M319.135,-136.051C339.594,-140.751 364.395,-146.449 365.925,-146.8"/>
</g>
<!-- CDX2 -->
<g id="node15" class="node"><title>CDX2</title>
<polyline fill="none" stroke="black" points="307,-293.817 277,-293.817 "/>
<path fill="none" stroke="black" d="M277,-293.817C271,-293.817 265,-287.817 265,-281.817"/>
<polyline fill="none" stroke="black" points="265,-281.817 265,-269.817 "/>
<path fill="none" stroke="black" d="M265,-269.817C265,-263.817 271,-257.817 277,-257.817"/>
<polyline fill="none" stroke="black" points="277,-257.817 307,-257.817 "/>
<path fill="none" stroke="black" d="M307,-257.817C313,-257.817 319,-263.817 319,-269.817"/>
<polyline fill="none" stroke="black" points="319,-269.817 319,-281.817 "/>
<path fill="none" stroke="black" d="M319,-281.817C319,-287.817 313,-293.817 307,-293.817"/>
<text text-anchor="middle" x="292" y="-273.317" font-family="Times Roman,serif" font-size="10.00">CDX2</text>
</g>
<!-- CDX2&#45;&gt;R1_intermediate_m -->
<g id="edge18" class="edge"><title>CDX2&#45;&gt;R1_intermediate_m</title>
<path fill="none" stroke="black" d="M319.029,-293.378C322.875,-296.338 326.655,-299.525 330,-302.817 348.658,-321.181 364.951,-349.95 365.951,-351.731"/>
</g>
<!-- R8_intermediate_r -->
<g id="node87" class="node"><title>R8_intermediate_r</title>
<ellipse fill="black" stroke="black" cx="366" cy="-276.817" rx="0.036" ry="0.036"/>
</g>
<!-- CDX2&#45;&gt;R8_intermediate_r -->
<g id="edge88" class="edge"><title>CDX2&#45;&gt;R8_intermediate_r</title>
<path fill="none" stroke="black" d="M319.135,-276.184C339.594,-276.46 364.395,-276.796 365.925,-276.816"/>
</g>
<!-- CDX2&#45;&gt;R9_intermediate_m -->
<g id="edge104" class="edge"><title>CDX2&#45;&gt;R9_intermediate_m</title>
<path fill="none" stroke="black" d="M319.135,-258.95C339.594,-246.232 364.395,-230.815 365.925,-229.864"/>
</g>
<!-- GCNF -->
<g id="node16" class="node"><title>GCNF</title>
<polyline fill="none" stroke="black" points="307,-347.817 277,-347.817 "/>
<path fill="none" stroke="black" d="M277,-347.817C271,-347.817 265,-341.817 265,-335.817"/>
<polyline fill="none" stroke="black" points="265,-335.817 265,-323.817 "/>
<path fill="none" stroke="black" d="M265,-323.817C265,-317.817 271,-311.817 277,-311.817"/>
<polyline fill="none" stroke="black" points="277,-311.817 307,-311.817 "/>
<path fill="none" stroke="black" d="M307,-311.817C313,-311.817 319,-317.817 319,-323.817"/>
<polyline fill="none" stroke="black" points="319,-323.817 319,-335.817 "/>
<path fill="none" stroke="black" d="M319,-335.817C319,-341.817 313,-347.817 307,-347.817"/>
<text text-anchor="middle" x="292" y="-327.317" font-family="Times Roman,serif" font-size="10.00">GCNF</text>
</g>
<!-- GCNF&#45;&gt;R1_intermediate_m -->
<g id="edge20" class="edge"><title>GCNF&#45;&gt;R1_intermediate_m</title>
<path fill="none" stroke="black" d="M319.135,-337.884C339.594,-343.967 364.395,-351.34 365.925,-351.795"/>
</g>
<!-- R10_intermediate_r -->
<g id="node105" class="node"><title>R10_intermediate_r</title>
<ellipse fill="black" stroke="black" cx="366" cy="-327.817" rx="0.036" ry="0.036"/>
</g>
<!-- GCNF&#45;&gt;R10_intermediate_r -->
<g id="edge110" class="edge"><title>GCNF&#45;&gt;R10_intermediate_r</title>
<path fill="none" stroke="black" d="M319.135,-329.084C339.594,-328.531 364.395,-327.861 365.925,-327.819"/>
</g>
<!-- OCT4_SOX2 -->
<g id="node17" class="node"><title>OCT4_SOX2</title>
<polyline fill="none" stroke="black" points="317,-55.8173 267,-55.8173 "/>
<path fill="none" stroke="black" d="M267,-55.8173C261,-55.8173 255,-49.8173 255,-43.8173"/>
<polyline fill="none" stroke="black" points="255,-43.8173 255,-31.8173 "/>
<path fill="none" stroke="black" d="M255,-31.8173C255,-25.8173 261,-19.8173 267,-19.8173"/>
<polyline fill="none" stroke="black" points="267,-19.8173 317,-19.8173 "/>
<path fill="none" stroke="black" d="M317,-19.8173C323,-19.8173 329,-25.8173 329,-31.8173"/>
<polyline fill="none" stroke="black" points="329,-31.8173 329,-43.8173 "/>
<path fill="none" stroke="black" d="M329,-43.8173C329,-49.8173 323,-55.8173 317,-55.8173"/>
<text text-anchor="middle" x="292" y="-35.3173" font-family="Times Roman,serif" font-size="10.00">OCT4_SOX2</text>
</g>
<!-- OCT4_SOX2&#45;&gt;R5_intermediate_m -->
<g id="edge62" class="edge"><title>OCT4_SOX2&#45;&gt;R5_intermediate_m</title>
<path fill="none" stroke="black" d="M329.867,-37.8173C347.505,-37.8173 364.879,-37.8173 365.948,-37.8173"/>
</g>
<!-- OCT4_SOX2&#45;&gt;R11_intermediate_m -->
<g id="edge126" class="edge"><title>OCT4_SOX2&#45;&gt;R11_intermediate_m</title>
<path fill="none" stroke="black" d="M321.247,-55.9977C341.285,-68.4537 364.499,-82.8842 365.93,-83.774"/>
</g>
<!-- Protein -->
<g id="node18" class="node"><title>Protein</title>
<ellipse fill="none" stroke="black" cx="47" cy="-758.817" rx="32.1242" ry="18"/>
<text text-anchor="middle" x="47" y="-756.317" font-family="Times Roman,serif" font-size="10.00">Protein</text>
</g>
<!-- R1 -->
<g id="node19" class="node"><title>R1</title>
<polygon fill="none" stroke="black" points="180,-603.817 166,-603.817 166,-589.817 180,-589.817 180,-603.817"/>
</g>
<!-- R1_intermediate_p -->
<g id="node23" class="node"><title>R1_intermediate_p</title>
<ellipse fill="black" stroke="black" cx="217" cy="-605.817" rx="0.036" ry="0.036"/>
</g>
<!-- R1&#45;&gt;R1_intermediate_p -->
<g id="edge6" class="edge"><title>R1&#45;&gt;R1_intermediate_p</title>
<path fill="none" stroke="black" d="M180.266,-598.303C192.372,-600.78 215.497,-605.51 216.93,-605.803"/>
</g>
<!-- R1&#45;&gt;R1_intermediate_m -->
<g id="edge10" class="edge"><title>R1&#45;&gt;R1_intermediate_m</title>
<path fill="none" stroke="black" d="M190.635,-586.702C223.004,-567.249 292.05,-521.49 330,-464.817 358.869,-421.705 365.786,-353.974 365.995,-351.868"/>
<polygon fill="none" stroke="black" points="190.52,-586.77 187.366,-593.255 180.167,-592.838 183.321,-586.353 190.52,-586.77"/>
</g>
<!-- R1_intermediate_r&#45;&gt;R1 -->
<g id="edge2" class="edge"><title>R1_intermediate_r&#45;&gt;R1</title>
<path fill="none" stroke="black" d="M130.123,-596.817C131.976,-596.817 154.231,-596.817 165.924,-596.817"/>
</g>
<!-- R1_intermediate_p&#45;&gt;OCT4 -->
<g id="edge8" class="edge"><title>R1_intermediate_p&#45;&gt;OCT4</title>
<path fill="none" stroke="black" d="M217.054,-605.817C218.177,-605.817 236.508,-605.817 254.757,-605.817"/>
<polygon fill="black" stroke="black" points="254.777,-609.317 264.777,-605.817 254.777,-602.317 254.777,-609.317"/>
</g>
<!-- R2 -->
<g id="node33" class="node"><title>R2</title>
<polygon fill="none" stroke="black" points="416,-515.817 402,-515.817 402,-501.817 416,-501.817 416,-515.817"/>
</g>
<!-- R2_intermediate_p -->
<g id="node37" class="node"><title>R2_intermediate_p</title>
<ellipse fill="black" stroke="black" cx="452" cy="-442.817" rx="0.036" ry="0.036"/>
</g>
<!-- R2&#45;&gt;R2_intermediate_p -->
<g id="edge26" class="edge"><title>R2&#45;&gt;R2_intermediate_p</title>
<path fill="none" stroke="black" d="M413.602,-501.754C424.348,-485.26 450.309,-445.412 451.921,-442.938"/>
</g>
<!-- R2_intermediate_r&#45;&gt;R2 -->
<g id="edge22" class="edge"><title>R2_intermediate_r&#45;&gt;R2</title>
<path fill="none" stroke="black" d="M366.031,-602.749C367.109,-600.392 395.869,-537.521 405.724,-515.979"/>
</g>
<!-- R2_intermediate_p&#45;&gt;degradation -->
<g id="edge28" class="edge"><title>R2_intermediate_p&#45;&gt;degradation</title>
<path fill="none" stroke="black" d="M452.06,-442.712C453.873,-439.546 496.207,-365.589 519.674,-324.592"/>
<polygon fill="black" stroke="black" points="522.856,-326.078 524.786,-315.661 516.781,-322.601 522.856,-326.078"/>
</g>
<!-- R3 -->
<g id="node40" class="node"><title>R3</title>
<polygon fill="none" stroke="black" points="180,-541.817 166,-541.817 166,-527.817 180,-527.817 180,-541.817"/>
</g>
<!-- R3_intermediate_p -->
<g id="node44" class="node"><title>R3_intermediate_p</title>
<ellipse fill="black" stroke="black" cx="217" cy="-446.817" rx="0.036" ry="0.036"/>
</g>
<!-- R3&#45;&gt;R3_intermediate_p -->
<g id="edge34" class="edge"><title>R3&#45;&gt;R3_intermediate_p</title>
<path fill="none" stroke="black" d="M176.601,-527.616C186.945,-506.927 216.071,-448.676 216.978,-446.861"/>
</g>
<!-- R3&#45;&gt;R3_intermediate_m -->
<g id="edge38" class="edge"><title>R3&#45;&gt;R3_intermediate_m</title>
<path fill="none" stroke="black" d="M192.512,-537.345C240.698,-543.586 361.747,-559.266 365.891,-559.803"/>
<polygon fill="none" stroke="black" points="192.231,-537.308 185.767,-540.504 180.33,-535.767 186.794,-532.571 192.231,-537.308"/>
</g>
<!-- R3_intermediate_r&#45;&gt;R3 -->
<g id="edge30" class="edge"><title>R3_intermediate_r&#45;&gt;R3</title>
<path fill="none" stroke="black" d="M130.123,-534.817C131.976,-534.817 154.231,-534.817 165.924,-534.817"/>
</g>
<!-- R3_intermediate_p&#45;&gt;SOX2 -->
<g id="edge36" class="edge"><title>R3_intermediate_p&#45;&gt;SOX2</title>
<path fill="none" stroke="black" d="M217.054,-446.811C218.177,-446.676 236.508,-444.476 254.757,-442.286"/>
<polygon fill="black" stroke="black" points="255.266,-445.751 264.777,-441.084 254.432,-438.8 255.266,-445.751"/>
</g>
<!-- R4 -->
<g id="node51" class="node"><title>R4</title>
<polygon fill="none" stroke="black" points="416,-381.817 402,-381.817 402,-367.817 416,-367.817 416,-381.817"/>
</g>
<!-- R4_intermediate_p -->
<g id="node55" class="node"><title>R4_intermediate_p</title>
<ellipse fill="black" stroke="black" cx="452" cy="-354.817" rx="0.036" ry="0.036"/>
</g>
<!-- R4&#45;&gt;R4_intermediate_p -->
<g id="edge48" class="edge"><title>R4&#45;&gt;R4_intermediate_p</title>
<path fill="none" stroke="black" d="M416.101,-371.515C427.932,-366.012 450.531,-355.501 451.932,-354.849"/>
</g>
<!-- R4_intermediate_r&#45;&gt;R4 -->
<g id="edge44" class="edge"><title>R4_intermediate_r&#45;&gt;R4</title>
<path fill="none" stroke="black" d="M366.123,-392.766C367.976,-391.99 390.231,-382.674 401.924,-377.78"/>
</g>
<!-- R4_intermediate_p&#45;&gt;degradation -->
<g id="edge50" class="edge"><title>R4_intermediate_p&#45;&gt;degradation</title>
<path fill="none" stroke="black" d="M452.06,-354.776C453.505,-353.784 480.709,-335.102 503.572,-319.401"/>
<polygon fill="black" stroke="black" points="505.797,-322.118 512.059,-313.572 501.834,-316.348 505.797,-322.118"/>
</g>
<!-- R5 -->
<g id="node58" class="node"><title>R5</title>
<polygon fill="none" stroke="black" points="180,-162.817 166,-162.817 166,-148.817 180,-148.817 180,-162.817"/>
</g>
<!-- R5_intermediate_p -->
<g id="node62" class="node"><title>R5_intermediate_p</title>
<ellipse fill="black" stroke="black" cx="217" cy="-165.817" rx="0.036" ry="0.036"/>
</g>
<!-- R5&#45;&gt;R5_intermediate_p -->
<g id="edge56" class="edge"><title>R5&#45;&gt;R5_intermediate_p</title>
<path fill="none" stroke="black" d="M180.266,-157.469C192.372,-160.22 215.497,-165.476 216.93,-165.801"/>
</g>
<!-- R5&#45;&gt;R5_intermediate_m -->
<g id="edge60" class="edge"><title>R5&#45;&gt;R5_intermediate_m</title>
<path fill="none" stroke="black" d="M177.082,-136.888C185.247,-104.289 206.997,-38.4 254,-10.8173 283.132,6.27831 297.956,-0.135808 330,-10.8173 348.381,-16.9442 364.934,-36.5391 365.951,-37.7578"/>
<polygon fill="none" stroke="black" points="177.075,-136.919 179.625,-143.664 174.38,-148.612 171.83,-141.867 177.075,-136.919"/>
</g>
<!-- R5_intermediate_r&#45;&gt;R5 -->
<g id="edge52" class="edge"><title>R5_intermediate_r&#45;&gt;R5</title>
<path fill="none" stroke="black" d="M130.123,-155.817C131.976,-155.817 154.231,-155.817 165.924,-155.817"/>
</g>
<!-- R5_intermediate_p&#45;&gt;NANOG -->
<g id="edge58" class="edge"><title>R5_intermediate_p&#45;&gt;NANOG</title>
<path fill="none" stroke="black" d="M217.054,-165.83C218.182,-166.101 236.678,-170.54 255.011,-174.94"/>
<polygon fill="black" stroke="black" points="254.237,-178.353 264.777,-177.284 255.87,-171.547 254.237,-178.353"/>
</g>
<!-- R6 -->
<g id="node69" class="node"><title>R6</title>
<polygon fill="none" stroke="black" points="416,-231.817 402,-231.817 402,-217.817 416,-217.817 416,-231.817"/>
</g>
<!-- R6_intermediate_p -->
<g id="node73" class="node"><title>R6_intermediate_p</title>
<ellipse fill="black" stroke="black" cx="452" cy="-248.817" rx="0.036" ry="0.036"/>
</g>
<!-- R6&#45;&gt;R6_intermediate_p -->
<g id="edge70" class="edge"><title>R6&#45;&gt;R6_intermediate_p</title>
<path fill="none" stroke="black" d="M416.101,-228.78C427.932,-235.384 450.531,-247.997 451.932,-248.779"/>
</g>
<!-- R6_intermediate_r&#45;&gt;R6 -->
<g id="edge66" class="edge"><title>R6_intermediate_r&#45;&gt;R6</title>
<path fill="none" stroke="black" d="M366.123,-197.895C367.976,-199.058 390.231,-213.032 401.924,-220.374"/>
</g>
<!-- R6_intermediate_p&#45;&gt;degradation -->
<g id="edge72" class="edge"><title>R6_intermediate_p&#45;&gt;degradation</title>
<path fill="none" stroke="black" d="M452.06,-248.853C453.447,-249.671 478.553,-264.493 500.782,-277.616"/>
<polygon fill="black" stroke="black" points="499.029,-280.646 509.42,-282.716 502.588,-274.618 499.029,-280.646"/>
</g>
<!-- R7 -->
<g id="node76" class="node"><title>R7</title>
<polygon fill="none" stroke="black" points="180,-483.817 166,-483.817 166,-469.817 180,-469.817 180,-483.817"/>
</g>
<!-- R7_intermediate_p -->
<g id="node80" class="node"><title>R7_intermediate_p</title>
<ellipse fill="black" stroke="black" cx="217" cy="-284.817" rx="0.036" ry="0.036"/>
</g>
<!-- R7&#45;&gt;R7_intermediate_p -->
<g id="edge78" class="edge"><title>R7&#45;&gt;R7_intermediate_p</title>
<path fill="none" stroke="black" d="M174.671,-469.525C182.583,-435.002 215.935,-289.465 216.975,-284.926"/>
</g>
<!-- R7&#45;&gt;R7_intermediate_m -->
<g id="edge82" class="edge"><title>R7&#45;&gt;R7_intermediate_m</title>
<path fill="none" stroke="black" d="M190.983,-486.694C238.081,-512.561 361.702,-580.457 365.891,-582.757"/>
<polygon fill="none" stroke="black" points="190.848,-486.62 183.664,-487.238 180.33,-480.843 187.515,-480.226 190.848,-486.62"/>
</g>
<!-- R7_intermediate_r&#45;&gt;R7 -->
<g id="edge74" class="edge"><title>R7_intermediate_r&#45;&gt;R7</title>
<path fill="none" stroke="black" d="M130.123,-476.817C131.976,-476.817 154.231,-476.817 165.924,-476.817"/>
</g>
<!-- R7_intermediate_p&#45;&gt;CDX2 -->
<g id="edge80" class="edge"><title>R7_intermediate_p&#45;&gt;CDX2</title>
<path fill="none" stroke="black" d="M217.054,-284.811C218.177,-284.676 236.508,-282.476 254.757,-280.286"/>
<polygon fill="black" stroke="black" points="255.266,-283.751 264.777,-279.084 254.432,-276.8 255.266,-283.751"/>
</g>
<!-- R8 -->
<g id="node86" class="node"><title>R8</title>
<polygon fill="none" stroke="black" points="416,-286.817 402,-286.817 402,-272.817 416,-272.817 416,-286.817"/>
</g>
<!-- R8_intermediate_p -->
<g id="node90" class="node"><title>R8_intermediate_p</title>
<ellipse fill="black" stroke="black" cx="452" cy="-284.817" rx="0.036" ry="0.036"/>
</g>
<!-- R8&#45;&gt;R8_intermediate_p -->
<g id="edge90" class="edge"><title>R8&#45;&gt;R8_intermediate_p</title>
<path fill="none" stroke="black" d="M416.101,-280.643C427.932,-282.019 450.531,-284.646 451.932,-284.809"/>
</g>
<!-- R8_intermediate_r&#45;&gt;R8 -->
<g id="edge86" class="edge"><title>R8_intermediate_r&#45;&gt;R8</title>
<path fill="none" stroke="black" d="M366.123,-276.826C367.976,-276.955 390.231,-278.508 401.924,-279.324"/>
</g>
<!-- R8_intermediate_p&#45;&gt;degradation -->
<g id="edge92" class="edge"><title>R8_intermediate_p&#45;&gt;degradation</title>
<path fill="none" stroke="black" d="M452.06,-284.827C453.035,-284.979 465.722,-286.966 480.893,-289.343"/>
<polygon fill="black" stroke="black" points="480.702,-292.855 491.123,-290.945 481.785,-285.94 480.702,-292.855"/>
</g>
<!-- R9 -->
<g id="node93" class="node"><title>R9</title>
<polygon fill="none" stroke="black" points="180,-277.817 166,-277.817 166,-263.817 180,-263.817 180,-277.817"/>
</g>
<!-- R9_intermediate_p -->
<g id="node97" class="node"><title>R9_intermediate_p</title>
<ellipse fill="black" stroke="black" cx="217" cy="-320.817" rx="0.036" ry="0.036"/>
</g>
<!-- R9&#45;&gt;R9_intermediate_p -->
<g id="edge98" class="edge"><title>R9&#45;&gt;R9_intermediate_p</title>
<path fill="none" stroke="black" d="M179.492,-278.195C191.349,-291.669 215.433,-319.037 216.927,-320.734"/>
</g>
<!-- R9&#45;&gt;R9_intermediate_m -->
<g id="edge102" class="edge"><title>R9&#45;&gt;R9_intermediate_m</title>
<path fill="none" stroke="black" d="M191.674,-265.19C208.01,-260.402 232.431,-253.564 254,-248.817 302.539,-238.135 364.044,-230.073 365.954,-229.823"/>
<polygon fill="none" stroke="black" points="191.594,-265.214 186.986,-270.761 180.094,-268.64 184.702,-263.094 191.594,-265.214"/>
</g>
<!-- R9_intermediate_r&#45;&gt;R9 -->
<g id="edge94" class="edge"><title>R9_intermediate_r&#45;&gt;R9</title>
<path fill="none" stroke="black" d="M130.123,-270.817C131.976,-270.817 154.231,-270.817 165.924,-270.817"/>
</g>
<!-- R9_intermediate_p&#45;&gt;GCNF -->
<g id="edge100" class="edge"><title>R9_intermediate_p&#45;&gt;GCNF</title>
<path fill="none" stroke="black" d="M217.054,-320.824C218.177,-320.959 236.508,-323.158 254.757,-325.348"/>
<polygon fill="black" stroke="black" points="254.432,-328.834 264.777,-326.551 255.266,-321.884 254.432,-328.834"/>
</g>
<!-- R10 -->
<g id="node104" class="node"><title>R10</title>
<polygon fill="none" stroke="black" points="416,-323.817 402,-323.817 402,-309.817 416,-309.817 416,-323.817"/>
</g>
<!-- R10_intermediate_p -->
<g id="node108" class="node"><title>R10_intermediate_p</title>
<ellipse fill="black" stroke="black" cx="452" cy="-311.817" rx="0.036" ry="0.036"/>
</g>
<!-- R10&#45;&gt;R10_intermediate_p -->
<g id="edge112" class="edge"><title>R10&#45;&gt;R10_intermediate_p</title>
<path fill="none" stroke="black" d="M416.101,-315.992C427.932,-314.616 450.531,-311.988 451.932,-311.825"/>
</g>
<!-- R10_intermediate_r&#45;&gt;R10 -->
<g id="edge108" class="edge"><title>R10_intermediate_r&#45;&gt;R10</title>
<path fill="none" stroke="black" d="M366.123,-327.786C367.976,-327.312 390.231,-321.619 401.924,-318.628"/>
</g>
<!-- R10_intermediate_p&#45;&gt;degradation -->
<g id="edge114" class="edge"><title>R10_intermediate_p&#45;&gt;degradation</title>
<path fill="none" stroke="black" d="M452.06,-311.807C453.052,-311.64 466.179,-309.426 481.708,-306.806"/>
<polygon fill="black" stroke="black" points="482.322,-310.252 491.601,-305.138 481.158,-303.35 482.322,-310.252"/>
</g>
<!-- R11 -->
<g id="node111" class="node"><title>R11</title>
<polygon fill="none" stroke="black" points="180,-99.8173 166,-99.8173 166,-85.8173 180,-85.8173 180,-99.8173"/>
</g>
<!-- R11_intermediate_p -->
<g id="node115" class="node"><title>R11_intermediate_p</title>
<ellipse fill="black" stroke="black" cx="217" cy="-139.817" rx="0.036" ry="0.036"/>
</g>
<!-- R11&#45;&gt;R11_intermediate_p -->
<g id="edge120" class="edge"><title>R11&#45;&gt;R11_intermediate_p</title>
<path fill="none" stroke="black" d="M179.875,-100.161C191.863,-112.967 215.465,-138.178 216.929,-139.741"/>
</g>
<!-- R11&#45;&gt;R11_intermediate_m -->
<g id="edge124" class="edge"><title>R11&#45;&gt;R11_intermediate_m</title>
<path fill="none" stroke="black" d="M192.512,-91.9074C240.698,-89.6604 361.747,-84.0156 365.891,-83.8224"/>
<polygon fill="none" stroke="black" points="192.317,-91.9164 186.51,-96.1916 180.33,-92.4755 186.137,-88.2003 192.317,-91.9164"/>
</g>
<!-- R11_intermediate_r&#45;&gt;R11 -->
<g id="edge116" class="edge"><title>R11_intermediate_r&#45;&gt;R11</title>
<path fill="none" stroke="black" d="M130.123,-92.8173C131.976,-92.8173 154.231,-92.8173 165.924,-92.8173"/>
</g>
<!-- R11_intermediate_p&#45;&gt;GATA6 -->
<g id="edge122" class="edge"><title>R11_intermediate_p&#45;&gt;GATA6</title>
<path fill="none" stroke="black" d="M217.054,-139.81C218.177,-139.66 236.508,-137.216 254.757,-134.783"/>
<polygon fill="black" stroke="black" points="255.328,-138.238 264.777,-133.447 254.403,-131.299 255.328,-138.238"/>
</g>
<!-- R12 -->
<g id="node122" class="node"><title>R12</title>
<polygon fill="none" stroke="black" points="416,-170.817 402,-170.817 402,-156.817 416,-156.817 416,-170.817"/>
</g>
<!-- R12_intermediate_p -->
<g id="node126" class="node"><title>R12_intermediate_p</title>
<ellipse fill="black" stroke="black" cx="452" cy="-190.817" rx="0.036" ry="0.036"/>
</g>
<!-- R12&#45;&gt;R12_intermediate_p -->
<g id="edge134" class="edge"><title>R12&#45;&gt;R12_intermediate_p</title>
<path fill="none" stroke="black" d="M416.101,-168.276C427.932,-175.705 450.531,-189.895 451.932,-190.774"/>
</g>
<!-- R12_intermediate_r&#45;&gt;R12 -->
<g id="edge130" class="edge"><title>R12_intermediate_r&#45;&gt;R12</title>
<path fill="none" stroke="black" d="M366.123,-146.866C367.976,-147.598 390.231,-156.397 401.924,-161.02"/>
</g>
<!-- R12_intermediate_p&#45;&gt;degradation -->
<g id="edge136" class="edge"><title>R12_intermediate_p&#45;&gt;degradation</title>
<path fill="none" stroke="black" d="M452.06,-190.895C453.756,-193.081 490.934,-241.01 514.933,-271.947"/>
<polygon fill="black" stroke="black" points="512.417,-274.415 521.312,-280.171 517.948,-270.124 512.417,-274.415"/>
</g>
</g>
</svg>
