<?xml version="1.0" encoding="UTF-8" standalone="no"?>
<!DOCTYPE svg PUBLIC "-//W3C//DTD SVG 1.1//EN"
 "http://www.w3.org/Graphics/SVG/1.1/DTD/svg11.dtd">
<!-- Generated by graphviz version 2.24.0 (20090616.2323)
 -->
<!-- Title: G Pages: 1 -->
<svg width="530pt" height="458pt"
 viewBox="0.00 0.00 530.00 458.34" xmlns="http://www.w3.org/2000/svg" xmlns:xlink="http://www.w3.org/1999/xlink">
<g id="graph1" class="graph" transform="scale(1 1) rotate(0) translate(4 454.343)">
<title>G</title>
<polygon fill="white" stroke="white" points="-4,5 -4,-454.343 527,-454.343 527,5 -4,5"/>
<!-- x1 -->
<g id="node1" class="node"><title>x1</title>
<ellipse fill="none" stroke="black" cx="243" cy="-315.577" rx="27" ry="18"/>
<text text-anchor="middle" x="243" y="-313.077" font-family="Times Roman,serif" font-size="10.00">x1</text>
</g>
<!-- v1_intermediate_m -->
<g id="node18" class="node"><title>v1_intermediate_m</title>
<ellipse fill="black" stroke="black" cx="307" cy="-214.577" rx="0.036" ry="0.036"/>
</g>
<!-- x1&#45;&gt;v1_intermediate_m -->
<g id="edge20" class="edge"><title>x1&#45;&gt;v1_intermediate_m</title>
<path fill="none" stroke="black" d="M257.141,-300.143C261.502,-295.045 266.162,-289.229 270,-283.577 288.938,-255.689 305.907,-217.079 306.949,-214.693"/>
</g>
<!-- v3_intermediate_r -->
<g id="node40" class="node"><title>v3_intermediate_r</title>
<ellipse fill="black" stroke="black" cx="307" cy="-409.577" rx="0.036" ry="0.036"/>
</g>
<!-- x1&#45;&gt;v3_intermediate_r -->
<g id="edge48" class="edge"><title>x1&#45;&gt;v3_intermediate_r</title>
<path fill="none" stroke="black" d="M260.285,-340.964C278.583,-367.839 305.086,-406.766 306.901,-409.432"/>
<polygon fill="black" stroke="black" points="262.963,-338.678 254.442,-332.382 257.177,-342.618 262.963,-338.678"/>
</g>
<!-- v3_intermediate_m -->
<g id="node46" class="node"><title>v3_intermediate_m</title>
<ellipse fill="black" stroke="black" cx="522" cy="-418.577" rx="0.036" ry="0.036"/>
</g>
<!-- x1&#45;&gt;v3_intermediate_m -->
<g id="edge56" class="edge"><title>x1&#45;&gt;v3_intermediate_m</title>
<path fill="none" stroke="black" d="M258.822,-330.256C278.737,-347.144 314.746,-372.577 351,-372.577 351,-372.577 351,-372.577 395,-372.577 436.317,-372.577 448.353,-374.554 486,-391.577 503.654,-399.56 520.889,-417.415 521.948,-418.523"/>
</g>
<!-- v4_intermediate_r -->
<g id="node51" class="node"><title>v4_intermediate_r</title>
<ellipse fill="black" stroke="black" cx="307" cy="-315.577" rx="0.036" ry="0.036"/>
</g>
<!-- x1&#45;&gt;v4_intermediate_r -->
<g id="edge62" class="edge"><title>x1&#45;&gt;v4_intermediate_r</title>
<path fill="none" stroke="black" d="M280.505,-315.577C293.931,-315.577 306.023,-315.577 306.944,-315.577"/>
<polygon fill="black" stroke="black" points="280.142,-312.077 270.142,-315.577 280.142,-319.077 280.142,-312.077"/>
</g>
<!-- v4_intermediate_m -->
<g id="node57" class="node"><title>v4_intermediate_m</title>
<ellipse fill="black" stroke="black" cx="522" cy="-288.577" rx="0.036" ry="0.036"/>
</g>
<!-- x1&#45;&gt;v4_intermediate_m -->
<g id="edge70" class="edge"><title>x1&#45;&gt;v4_intermediate_m</title>
<path fill="none" stroke="black" d="M255.749,-299.376C274.238,-277.869 310.716,-242.577 351,-242.577 351,-242.577 351,-242.577 395,-242.577 436.317,-242.577 448.353,-244.554 486,-261.577 503.654,-269.56 520.889,-287.415 521.948,-288.523"/>
</g>
<!-- x2 -->
<g id="node2" class="node"><title>x2</title>
<ellipse fill="none" stroke="black" cx="27" cy="-111.577" rx="27" ry="18"/>
<text text-anchor="middle" x="27" y="-109.077" font-family="Times Roman,serif" font-size="10.00">x2</text>
</g>
<!-- v1_intermediate_r -->
<g id="node10" class="node"><title>v1_intermediate_r</title>
<ellipse fill="black" stroke="black" cx="91" cy="-220.577" rx="0.036" ry="0.036"/>
</g>
<!-- x2&#45;&gt;v1_intermediate_r -->
<g id="edge6" class="edge"><title>x2&#45;&gt;v1_intermediate_r</title>
<path fill="none" stroke="black" d="M42.1608,-137.397C60.7617,-169.077 89.9777,-218.836 90.9738,-220.532"/>
<polygon fill="black" stroke="black" points="45.0815,-135.459 37,-128.608 39.0451,-139.004 45.0815,-135.459"/>
</g>
<!-- x2&#45;&gt;v1_intermediate_m -->
<g id="edge18" class="edge"><title>x2&#45;&gt;v1_intermediate_m</title>
<path fill="none" stroke="black" d="M50.8726,-120.358C117.526,-144.878 301.141,-212.422 306.863,-214.526"/>
</g>
<!-- v2_intermediate_m -->
<g id="node33" class="node"><title>v2_intermediate_m</title>
<ellipse fill="black" stroke="black" cx="522" cy="-93.5768" rx="0.036" ry="0.036"/>
</g>
<!-- x2&#45;&gt;v2_intermediate_m -->
<g id="edge44" class="edge"><title>x2&#45;&gt;v2_intermediate_m</title>
<path fill="none" stroke="black" d="M34.4657,-93.9034C48.923,-62.8089 83.8824,-1.57676 135,-1.57676 135,-1.57676 135,-1.57676 395,-1.57676 436.317,-1.57676 453.341,4.73029 486,-20.5768 513.701,-42.0422 521.516,-90.4271 521.978,-93.4302"/>
</g>
<!-- x3 -->
<g id="node3" class="node"><title>x3</title>
<ellipse fill="none" stroke="black" cx="243" cy="-147.577" rx="27" ry="18"/>
<text text-anchor="middle" x="243" y="-145.077" font-family="Times Roman,serif" font-size="10.00">x3</text>
</g>
<!-- x3&#45;&gt;v1_intermediate_m -->
<g id="edge22" class="edge"><title>x3&#45;&gt;v1_intermediate_m</title>
<path fill="none" stroke="black" d="M257.523,-162.78C275.815,-181.93 305.099,-212.587 306.912,-214.484"/>
</g>
<!-- v2_intermediate_r -->
<g id="node25" class="node"><title>v2_intermediate_r</title>
<ellipse fill="black" stroke="black" cx="307" cy="-129.577" rx="0.036" ry="0.036"/>
</g>
<!-- x3&#45;&gt;v2_intermediate_r -->
<g id="edge28" class="edge"><title>x3&#45;&gt;v2_intermediate_r</title>
<path fill="none" stroke="black" d="M277.884,-137.766C292.295,-133.712 305.919,-129.881 306.939,-129.594"/>
<polygon fill="black" stroke="black" points="276.606,-134.489 267.927,-140.566 278.501,-141.228 276.606,-134.489"/>
</g>
<!-- x3&#45;&gt;v2_intermediate_m -->
<g id="edge40" class="edge"><title>x3&#45;&gt;v2_intermediate_m</title>
<path fill="none" stroke="black" d="M267.59,-155.519C289.294,-161.821 321.915,-169.577 351,-169.577 351,-169.577 351,-169.577 395,-169.577 459.751,-169.577 520.086,-95.9332 521.955,-93.6318"/>
</g>
<!-- y1 -->
<g id="node4" class="node"><title>y1</title>
<ellipse fill="none" stroke="black" cx="27" cy="-244.577" rx="27" ry="18"/>
<text text-anchor="middle" x="27" y="-242.077" font-family="Times Roman,serif" font-size="10.00">y1</text>
</g>
<!-- y1&#45;&gt;v1_intermediate_r -->
<g id="edge4" class="edge"><title>y1&#45;&gt;v1_intermediate_r</title>
<path fill="none" stroke="black" d="M60.541,-231.999C75.4259,-226.417 89.8651,-221.002 90.9364,-220.601"/>
<polygon fill="black" stroke="black" points="58.9656,-228.852 50.8312,-235.64 61.4235,-235.406 58.9656,-228.852"/>
</g>
<!-- y1&#45;&gt;v1_intermediate_m -->
<g id="edge16" class="edge"><title>y1&#45;&gt;v1_intermediate_m</title>
<path fill="none" stroke="black" d="M50.6576,-253.321C72.299,-260.53 105.361,-269.577 135,-269.577 135,-269.577 135,-269.577 179,-269.577 239.951,-269.577 304.936,-216.282 306.952,-214.617"/>
</g>
<!-- y2 -->
<g id="node5" class="node"><title>y2</title>
<ellipse fill="none" stroke="black" cx="459" cy="-418.577" rx="27" ry="18"/>
<text text-anchor="middle" x="459" y="-416.077" font-family="Times Roman,serif" font-size="10.00">y2</text>
</g>
<!-- y2&#45;&gt;v3_intermediate_m -->
<g id="edge58" class="edge"><title>y2&#45;&gt;v3_intermediate_m</title>
<path fill="none" stroke="black" d="M486.083,-418.577C502.625,-418.577 520.824,-418.577 521.945,-418.577"/>
</g>
<!-- y3 -->
<g id="node6" class="node"><title>y3</title>
<ellipse fill="none" stroke="black" cx="459" cy="-288.577" rx="27" ry="18"/>
<text text-anchor="middle" x="459" y="-286.077" font-family="Times Roman,serif" font-size="10.00">y3</text>
</g>
<!-- y3&#45;&gt;v4_intermediate_m -->
<g id="edge72" class="edge"><title>y3&#45;&gt;v4_intermediate_m</title>
<path fill="none" stroke="black" d="M486.083,-288.577C502.625,-288.577 520.824,-288.577 521.945,-288.577"/>
</g>
<!-- y4 -->
<g id="node7" class="node"><title>y4</title>
<ellipse fill="none" stroke="black" cx="243" cy="-93.5768" rx="27" ry="18"/>
<text text-anchor="middle" x="243" y="-91.0768" font-family="Times Roman,serif" font-size="10.00">y4</text>
</g>
<!-- y4&#45;&gt;v2_intermediate_r -->
<g id="edge26" class="edge"><title>y4&#45;&gt;v2_intermediate_r</title>
<path fill="none" stroke="black" d="M272.72,-110.294C288.827,-119.354 305.708,-128.85 306.929,-129.537"/>
<polygon fill="black" stroke="black" points="274.388,-107.217 263.956,-105.365 270.956,-113.318 274.388,-107.217"/>
</g>
<!-- y4&#45;&gt;v2_intermediate_m -->
<g id="edge38" class="edge"><title>y4&#45;&gt;v2_intermediate_m</title>
<path fill="none" stroke="black" d="M270.074,-93.5768C291.918,-93.5768 323.438,-93.5768 351,-93.5768 351,-93.5768 351,-93.5768 395,-93.5768 450.562,-93.5768 519.799,-93.5768 521.949,-93.5768"/>
</g>
<!-- y5 -->
<g id="node8" class="node"><title>y5</title>
<ellipse fill="none" stroke="black" cx="459" cy="-47.5768" rx="27" ry="18"/>
<text text-anchor="middle" x="459" y="-45.0768" font-family="Times Roman,serif" font-size="10.00">y5</text>
</g>
<!-- y5&#45;&gt;v2_intermediate_m -->
<g id="edge42" class="edge"><title>y5&#45;&gt;v2_intermediate_m</title>
<path fill="none" stroke="black" d="M477.222,-60.8819C495.247,-74.0429 520.372,-92.3878 521.924,-93.5215"/>
</g>
<!-- v1 -->
<g id="node9" class="node"><title>v1</title>
<polygon fill="none" stroke="black" points="142,-227.577 128,-227.577 128,-213.577 142,-213.577 142,-227.577"/>
</g>
<!-- v1_intermediate_p -->
<g id="node14" class="node"><title>v1_intermediate_p</title>
<ellipse fill="black" stroke="black" cx="179" cy="-203.577" rx="0.036" ry="0.036"/>
</g>
<!-- v1&#45;&gt;v1_intermediate_p -->
<g id="edge8" class="edge"><title>v1&#45;&gt;v1_intermediate_p</title>
<path fill="none" stroke="black" d="M142.266,-217.77C154.372,-213.092 177.497,-204.158 178.93,-203.604"/>
</g>
<!-- v1&#45;&gt;v1_intermediate_m -->
<g id="edge14" class="edge"><title>v1&#45;&gt;v1_intermediate_m</title>
<path fill="none" stroke="black" d="M154.418,-219.899C198.636,-218.357 303.299,-214.706 306.904,-214.58"/>
<polygon fill="none" stroke="black" points="154.383,-219.901 148.526,-224.107 142.391,-220.319 148.247,-216.112 154.383,-219.901"/>
</g>
<!-- v1_intermediate_r&#45;&gt;v1 -->
<g id="edge2" class="edge"><title>v1_intermediate_r&#45;&gt;v1</title>
<path fill="none" stroke="black" d="M91.1262,-220.577C93.0215,-220.577 115.795,-220.577 127.759,-220.577"/>
</g>
<!-- v1_intermediate_p&#45;&gt;x1 -->
<g id="edge10" class="edge"><title>v1_intermediate_p&#45;&gt;x1</title>
<path fill="none" stroke="black" d="M179.046,-203.658C180.369,-205.973 209.686,-257.278 228.163,-289.611"/>
<polygon fill="black" stroke="black" points="225.279,-291.62 233.28,-298.566 231.357,-288.147 225.279,-291.62"/>
</g>
<!-- v1_intermediate_p&#45;&gt;x3 -->
<g id="edge12" class="edge"><title>v1_intermediate_p&#45;&gt;x3</title>
<path fill="none" stroke="black" d="M179.046,-203.536C180.162,-202.56 201.202,-184.15 218.848,-168.71"/>
<polygon fill="black" stroke="black" points="221.412,-171.117 226.633,-161.898 216.802,-165.849 221.412,-171.117"/>
</g>
<!-- v2 -->
<g id="node24" class="node"><title>v2</title>
<polygon fill="none" stroke="black" points="358,-136.577 344,-136.577 344,-122.577 358,-122.577 358,-136.577"/>
</g>
<!-- v2_intermediate_p -->
<g id="node29" class="node"><title>v2_intermediate_p</title>
<ellipse fill="black" stroke="black" cx="395" cy="-47.5768" rx="0.036" ry="0.036"/>
</g>
<!-- v2&#45;&gt;v2_intermediate_p -->
<g id="edge30" class="edge"><title>v2&#45;&gt;v2_intermediate_p</title>
<path fill="none" stroke="black" d="M354.905,-122.3C365.337,-102.858 393.185,-50.9589 394.916,-47.7342"/>
</g>
<!-- v2&#45;&gt;v2_intermediate_m -->
<g id="edge36" class="edge"><title>v2&#45;&gt;v2_intermediate_m</title>
<path fill="none" stroke="black" d="M370.343,-127.712C396.8,-124.872 445.599,-118.594 486,-107.577 502.045,-103.201 520.788,-94.1646 521.944,-93.6041"/>
<polygon fill="none" stroke="black" points="370.078,-127.739 364.51,-132.322 358.139,-128.945 363.706,-124.362 370.078,-127.739"/>
</g>
<!-- v2_intermediate_r&#45;&gt;v2 -->
<g id="edge24" class="edge"><title>v2_intermediate_r&#45;&gt;v2</title>
<path fill="none" stroke="black" d="M307.126,-129.577C309.022,-129.577 331.795,-129.577 343.759,-129.577"/>
</g>
<!-- v2_intermediate_p&#45;&gt;x2 -->
<g id="edge34" class="edge"><title>v2_intermediate_p&#45;&gt;x2</title>
<path fill="none" stroke="black" d="M394.859,-47.5768C391.954,-47.5768 344.889,-47.5768 307,-47.5768 135,-47.5768 135,-47.5768 135,-47.5768 101.521,-47.5768 69.3345,-70.6196 48.9433,-89.0521"/>
<polygon fill="black" stroke="black" points="46.3547,-86.682 41.471,-96.0841 51.1521,-91.7797 46.3547,-86.682"/>
</g>
<!-- v2_intermediate_p&#45;&gt;y5 -->
<g id="edge32" class="edge"><title>v2_intermediate_p&#45;&gt;y5</title>
<path fill="none" stroke="black" d="M395.046,-47.5768C395.885,-47.5768 407.971,-47.5768 421.414,-47.5768"/>
<polygon fill="black" stroke="black" points="421.794,-51.0769 431.794,-47.5768 421.794,-44.0769 421.794,-51.0769"/>
</g>
<!-- v3 -->
<g id="node39" class="node"><title>v3</title>
<polygon fill="none" stroke="black" points="358,-425.577 344,-425.577 344,-411.577 358,-411.577 358,-425.577"/>
</g>
<!-- v3_intermediate_p -->
<g id="node43" class="node"><title>v3_intermediate_p</title>
<ellipse fill="black" stroke="black" cx="395" cy="-418.577" rx="0.036" ry="0.036"/>
</g>
<!-- v3&#45;&gt;v3_intermediate_p -->
<g id="edge50" class="edge"><title>v3&#45;&gt;v3_intermediate_p</title>
<path fill="none" stroke="black" d="M358.266,-418.577C370.372,-418.577 393.497,-418.577 394.93,-418.577"/>
</g>
<!-- v3&#45;&gt;v3_intermediate_m -->
<g id="edge54" class="edge"><title>v3&#45;&gt;v3_intermediate_m</title>
<path fill="none" stroke="black" d="M369.009,-427.981C395.242,-440.388 445.273,-459.152 486,-445.577 504.381,-439.45 520.934,-419.855 521.951,-418.636"/>
<polygon fill="none" stroke="black" points="368.921,-427.937 361.766,-428.831 358.188,-422.57 365.344,-421.676 368.921,-427.937"/>
</g>
<!-- v3_intermediate_r&#45;&gt;v3 -->
<g id="edge46" class="edge"><title>v3_intermediate_r&#45;&gt;v3</title>
<path fill="none" stroke="black" d="M307.126,-409.603C309.022,-409.99 331.795,-414.648 343.759,-417.096"/>
</g>
<!-- v3_intermediate_p&#45;&gt;y2 -->
<g id="edge52" class="edge"><title>v3_intermediate_p&#45;&gt;y2</title>
<path fill="none" stroke="black" d="M395.046,-418.577C395.885,-418.577 407.971,-418.577 421.414,-418.577"/>
<polygon fill="black" stroke="black" points="421.794,-422.077 431.794,-418.577 421.794,-415.077 421.794,-422.077"/>
</g>
<!-- v4 -->
<g id="node50" class="node"><title>v4</title>
<polygon fill="none" stroke="black" points="358,-322.577 344,-322.577 344,-308.577 358,-308.577 358,-322.577"/>
</g>
<!-- v4_intermediate_p -->
<g id="node54" class="node"><title>v4_intermediate_p</title>
<ellipse fill="black" stroke="black" cx="395" cy="-297.577" rx="0.036" ry="0.036"/>
</g>
<!-- v4&#45;&gt;v4_intermediate_p -->
<g id="edge64" class="edge"><title>v4&#45;&gt;v4_intermediate_p</title>
<path fill="none" stroke="black" d="M358.266,-312.604C370.372,-307.652 393.497,-298.192 394.93,-297.605"/>
</g>
<!-- v4&#45;&gt;v4_intermediate_m -->
<g id="edge68" class="edge"><title>v4&#45;&gt;v4_intermediate_m</title>
<path fill="none" stroke="black" d="M370.317,-319.313C397.085,-323.664 446.609,-328.707 486,-315.577 504.381,-309.45 520.934,-289.855 521.951,-288.636"/>
<polygon fill="none" stroke="black" points="370.091,-319.272 363.476,-322.144 358.281,-317.143 364.896,-314.271 370.091,-319.272"/>
</g>
<!-- v4_intermediate_r&#45;&gt;v4 -->
<g id="edge60" class="edge"><title>v4_intermediate_r&#45;&gt;v4</title>
<path fill="none" stroke="black" d="M307.126,-315.577C309.022,-315.577 331.795,-315.577 343.759,-315.577"/>
</g>
<!-- v4_intermediate_p&#45;&gt;y3 -->
<g id="edge66" class="edge"><title>v4_intermediate_p&#45;&gt;y3</title>
<path fill="none" stroke="black" d="M395.046,-297.57C395.905,-297.449 408.565,-295.669 422.397,-293.724"/>
<polygon fill="black" stroke="black" points="423.109,-297.158 432.524,-292.3 422.134,-290.227 423.109,-297.158"/>
</g>
</g>
</svg>
