<?xml version="1.0" encoding="UTF-8" standalone="no"?>
<!DOCTYPE svg PUBLIC "-//W3C//DTD SVG 1.1//EN"
 "http://www.w3.org/Graphics/SVG/1.1/DTD/svg11.dtd">
<!-- Generated by graphviz version 2.24.0 (20090616.2323)
 -->
<!-- Title: G Pages: 1 -->
<svg width="950pt" height="488pt"
 viewBox="0.00 0.00 950.00 488.00" xmlns="http://www.w3.org/2000/svg" xmlns:xlink="http://www.w3.org/1999/xlink">
<g id="graph1" class="graph" transform="scale(1 1) rotate(0) translate(4 484)">
<title>G</title>
<polygon fill="white" stroke="white" points="-4,5 -4,-484 947,-484 947,5 -4,5"/>
<!-- Ca_Cyt -->
<g id="node1" class="node"><title>Ca_Cyt</title>
<ellipse fill="none" stroke="black" cx="303" cy="-388" rx="33.2417" ry="18"/>
<text text-anchor="middle" x="303" y="-385.5" font-family="Times Roman,serif" font-size="10.00">Ca_Cyt</text>
</g>
<!-- SERCA_intermediate_r -->
<g id="node21" class="node"><title>SERCA_intermediate_r</title>
<ellipse fill="black" stroke="black" cx="399" cy="-427" rx="0.036" ry="0.036"/>
</g>
<!-- Ca_Cyt&#45;&gt;SERCA_intermediate_r -->
<g id="edge16" class="edge"><title>Ca_Cyt&#45;&gt;SERCA_intermediate_r</title>
<path fill="none" stroke="black" d="M329.487,-398.76C357.014,-409.943 396.444,-425.962 398.881,-426.952"/>
</g>
<!-- PMCA_intermediate_r -->
<g id="node37" class="node"><title>PMCA_intermediate_r</title>
<ellipse fill="black" stroke="black" cx="399" cy="-362" rx="0.036" ry="0.036"/>
</g>
<!-- Ca_Cyt&#45;&gt;PMCA_intermediate_r -->
<g id="edge34" class="edge"><title>Ca_Cyt&#45;&gt;PMCA_intermediate_r</title>
<path fill="none" stroke="black" d="M332.586,-379.987C359.912,-372.586 396.622,-362.644 398.89,-362.03"/>
</g>
<!-- PLC_intermediate_m -->
<g id="node48" class="node"><title>PLC_intermediate_m</title>
<ellipse fill="black" stroke="black" cx="399" cy="-344" rx="0.036" ry="0.036"/>
</g>
<!-- Ca_Cyt&#45;&gt;PLC_intermediate_m -->
<g id="edge46" class="edge"><title>Ca_Cyt&#45;&gt;PLC_intermediate_m</title>
<path fill="none" stroke="black" d="M326.227,-375.135C339.423,-368.103 356.383,-359.522 372,-353 383.307,-348.278 398.046,-344.259 398.956,-344.012"/>
</g>
<!-- deg_intermediate_m -->
<g id="node57" class="node"><title>deg_intermediate_m</title>
<ellipse fill="black" stroke="black" cx="775" cy="-375" rx="0.036" ry="0.036"/>
</g>
<!-- Ca_Cyt&#45;&gt;deg_intermediate_m -->
<g id="edge56" class="edge"><title>Ca_Cyt&#45;&gt;deg_intermediate_m</title>
<path fill="none" stroke="black" d="M336.19,-387.086C442.788,-384.15 769.836,-375.142 774.94,-375.002"/>
</g>
<!-- IP3_Cyt -->
<g id="node2" class="node"><title>IP3_Cyt</title>
<ellipse fill="none" stroke="black" cx="497" cy="-308" rx="33.9733" ry="18"/>
<text text-anchor="middle" x="497" y="-305.5" font-family="Times Roman,serif" font-size="10.00">IP3_Cyt</text>
</g>
<!-- ER_Channel_intermediate_m -->
<g id="node17" class="node"><title>ER_Channel_intermediate_m</title>
<ellipse fill="black" stroke="black" cx="915" cy="-353" rx="0.036" ry="0.036"/>
</g>
<!-- IP3_Cyt&#45;&gt;ER_Channel_intermediate_m -->
<g id="edge12" class="edge"><title>IP3_Cyt&#45;&gt;ER_Channel_intermediate_m</title>
<path fill="none" stroke="black" d="M528.388,-300.423C565.543,-292.13 629.397,-280 685,-280 685,-280 685,-280 775,-280 844.077,-280 912.818,-350.737 914.949,-352.947"/>
</g>
<!-- deg_intermediate_r -->
<g id="node52" class="node"><title>deg_intermediate_r</title>
<ellipse fill="black" stroke="black" cx="595" cy="-308" rx="0.036" ry="0.036"/>
</g>
<!-- IP3_Cyt&#45;&gt;deg_intermediate_r -->
<g id="edge50" class="edge"><title>IP3_Cyt&#45;&gt;deg_intermediate_r</title>
<path fill="none" stroke="black" d="M531.551,-308C558.884,-308 592.805,-308 594.898,-308"/>
</g>
<!-- Ca_ER -->
<g id="node3" class="node"><title>Ca_ER</title>
<ellipse fill="none" stroke="black" cx="685" cy="-434" rx="18" ry="18"/>
<text text-anchor="middle" x="685" y="-431.5" font-family="Times Roman,serif" font-size="10.00">Ca_ER</text>
</g>
<!-- ER_Channel_intermediate_r -->
<g id="node11" class="node"><title>ER_Channel_intermediate_r</title>
<ellipse fill="black" stroke="black" cx="775" cy="-434" rx="0.036" ry="0.036"/>
</g>
<!-- Ca_ER&#45;&gt;ER_Channel_intermediate_r -->
<g id="edge4" class="edge"><title>Ca_ER&#45;&gt;ER_Channel_intermediate_r</title>
<path fill="none" stroke="black" d="M703.213,-434C728.689,-434 772.176,-434 774.869,-434"/>
</g>
<!-- S2 -->
<g id="node4" class="node"><title>S2</title>
<polyline fill="none" stroke="black" points="512,-79 482,-79 "/>
<path fill="none" stroke="black" d="M482,-79C476,-79 470,-73 470,-67"/>
<polyline fill="none" stroke="black" points="470,-67 470,-55 "/>
<path fill="none" stroke="black" d="M470,-55C470,-49 476,-43 482,-43"/>
<polyline fill="none" stroke="black" points="482,-43 512,-43 "/>
<path fill="none" stroke="black" d="M512,-43C518,-43 524,-49 524,-55"/>
<polyline fill="none" stroke="black" points="524,-55 524,-67 "/>
<path fill="none" stroke="black" d="M524,-67C524,-73 518,-79 512,-79"/>
<text text-anchor="middle" x="497" y="-58.5" font-family="Times Roman,serif" font-size="10.00">S2</text>
</g>
<!-- act_apoSTIM1_syn_intermediate_m -->
<g id="node66" class="node"><title>act_apoSTIM1_syn_intermediate_m</title>
<ellipse fill="black" stroke="black" cx="595" cy="-77" rx="0.036" ry="0.036"/>
</g>
<!-- S2&#45;&gt;act_apoSTIM1_syn_intermediate_m -->
<g id="edge66" class="edge"><title>S2&#45;&gt;act_apoSTIM1_syn_intermediate_m</title>
<path fill="none" stroke="black" d="M524.038,-65.4144C552.139,-70.0023 592.391,-76.574 594.879,-76.9802"/>
</g>
<!-- apoSTIM1_oligo_syn_intermediate_m -->
<g id="node81" class="node"><title>apoSTIM1_oligo_syn_intermediate_m</title>
<ellipse fill="black" stroke="black" cx="595" cy="-49" rx="0.036" ry="0.036"/>
</g>
<!-- S2&#45;&gt;apoSTIM1_oligo_syn_intermediate_m -->
<g id="edge82" class="edge"><title>S2&#45;&gt;apoSTIM1_oligo_syn_intermediate_m</title>
<path fill="none" stroke="black" d="M524.038,-57.6892C552.139,-54.2483 592.391,-49.3195 594.879,-49.0148"/>
</g>
<!-- S2a -->
<g id="node5" class="node"><title>S2a</title>
<polyline fill="none" stroke="black" points="700,-122 670,-122 "/>
<path fill="none" stroke="black" d="M670,-122C664,-122 658,-116 658,-110"/>
<polyline fill="none" stroke="black" points="658,-110 658,-98 "/>
<path fill="none" stroke="black" d="M658,-98C658,-92 664,-86 670,-86"/>
<polyline fill="none" stroke="black" points="670,-86 700,-86 "/>
<path fill="none" stroke="black" d="M700,-86C706,-86 712,-92 712,-98"/>
<polyline fill="none" stroke="black" points="712,-98 712,-110 "/>
<path fill="none" stroke="black" d="M712,-110C712,-116 706,-122 700,-122"/>
<text text-anchor="middle" x="685" y="-101.5" font-family="Times Roman,serif" font-size="10.00">S2a</text>
</g>
<!-- act_apoSTIM1_deg_intermediate_r -->
<g id="node70" class="node"><title>act_apoSTIM1_deg_intermediate_r</title>
<ellipse fill="black" stroke="black" cx="775" cy="-104" rx="0.036" ry="0.036"/>
</g>
<!-- S2a&#45;&gt;act_apoSTIM1_deg_intermediate_r -->
<g id="edge70" class="edge"><title>S2a&#45;&gt;act_apoSTIM1_deg_intermediate_r</title>
<path fill="none" stroke="black" d="M712.003,-104C737.685,-104 772.729,-104 774.895,-104"/>
</g>
<!-- open_CRAC_channel_prod_intermediate_m -->
<g id="node112" class="node"><title>open_CRAC_channel_prod_intermediate_m</title>
<ellipse fill="black" stroke="black" cx="775" cy="-136" rx="0.036" ry="0.036"/>
</g>
<!-- S2a&#45;&gt;open_CRAC_channel_prod_intermediate_m -->
<g id="edge116" class="edge"><title>S2a&#45;&gt;open_CRAC_channel_prod_intermediate_m</title>
<path fill="none" stroke="black" d="M712.003,-113.601C737.685,-122.732 772.729,-135.193 774.895,-135.962"/>
</g>
<!-- S4 -->
<g id="node6" class="node"><title>S4</title>
<polyline fill="none" stroke="black" points="700,-36 670,-36 "/>
<path fill="none" stroke="black" d="M670,-36C664,-36 658,-30 658,-24"/>
<polyline fill="none" stroke="black" points="658,-24 658,-12 "/>
<path fill="none" stroke="black" d="M658,-12C658,-6 664,-1.61846e-14 670,-1.46056e-14"/>
<polyline fill="none" stroke="black" points="670,-1.46056e-14 700,-6.71068e-15 "/>
<path fill="none" stroke="black" d="M700,-6.71068e-15C706,-5.1317e-15 712,-6 712,-12"/>
<polyline fill="none" stroke="black" points="712,-12 712,-24 "/>
<path fill="none" stroke="black" d="M712,-24C712,-30 706,-36 700,-36"/>
<text text-anchor="middle" x="685" y="-15.5" font-family="Times Roman,serif" font-size="10.00">S4</text>
</g>
<!-- apoSTIM1_oligo_deg_intermediate_r -->
<g id="node85" class="node"><title>apoSTIM1_oligo_deg_intermediate_r</title>
<ellipse fill="black" stroke="black" cx="775" cy="-18" rx="0.036" ry="0.036"/>
</g>
<!-- S4&#45;&gt;apoSTIM1_oligo_deg_intermediate_r -->
<g id="edge86" class="edge"><title>S4&#45;&gt;apoSTIM1_oligo_deg_intermediate_r</title>
<path fill="none" stroke="black" d="M712.003,-18C737.685,-18 772.729,-18 774.895,-18"/>
</g>
<!-- Oc -->
<g id="node7" class="node"><title>Oc</title>
<ellipse fill="none" stroke="black" cx="497" cy="-232" rx="27" ry="18"/>
<text text-anchor="middle" x="497" y="-229.5" font-family="Times Roman,serif" font-size="10.00">Oc</text>
</g>
<!-- closed_CRAC_channel_deg_intermediate_r -->
<g id="node100" class="node"><title>closed_CRAC_channel_deg_intermediate_r</title>
<ellipse fill="black" stroke="black" cx="595" cy="-232" rx="0.036" ry="0.036"/>
</g>
<!-- Oc&#45;&gt;closed_CRAC_channel_deg_intermediate_r -->
<g id="edge102" class="edge"><title>Oc&#45;&gt;closed_CRAC_channel_deg_intermediate_r</title>
<path fill="none" stroke="black" d="M524.038,-232C552.139,-232 592.391,-232 594.879,-232"/>
</g>
<!-- open_CRAC_channel_prod_intermediate_r -->
<g id="node106" class="node"><title>open_CRAC_channel_prod_intermediate_r</title>
<ellipse fill="black" stroke="black" cx="595" cy="-200" rx="0.036" ry="0.036"/>
</g>
<!-- Oc&#45;&gt;open_CRAC_channel_prod_intermediate_r -->
<g id="edge108" class="edge"><title>Oc&#45;&gt;open_CRAC_channel_prod_intermediate_r</title>
<path fill="none" stroke="black" d="M521.477,-224.008C549.597,-214.826 592.234,-200.903 594.871,-200.042"/>
</g>
<!-- O_o -->
<g id="node8" class="node"><title>O_o</title>
<ellipse fill="none" stroke="black" cx="117" cy="-229" rx="27" ry="18"/>
<text text-anchor="middle" x="117" y="-226.5" font-family="Times Roman,serif" font-size="10.00">O_o</text>
</g>
<!-- PM_Channel_intermediate_m -->
<g id="node33" class="node"><title>PM_Channel_intermediate_m</title>
<ellipse fill="black" stroke="black" cx="207" cy="-302" rx="0.036" ry="0.036"/>
</g>
<!-- O_o&#45;&gt;PM_Channel_intermediate_m -->
<g id="edge30" class="edge"><title>O_o&#45;&gt;PM_Channel_intermediate_m</title>
<path fill="none" stroke="black" d="M134.003,-243.26C146.62,-253.785 164.285,-268.407 180,-281 191.493,-290.209 206.057,-301.284 206.956,-301.967"/>
</g>
<!-- open_to_closed_intermediate_r -->
<g id="node116" class="node"><title>open_to_closed_intermediate_r</title>
<ellipse fill="black" stroke="black" cx="207" cy="-272" rx="0.036" ry="0.036"/>
</g>
<!-- O_o&#45;&gt;open_to_closed_intermediate_r -->
<g id="edge120" class="edge"><title>O_o&#45;&gt;open_to_closed_intermediate_r</title>
<path fill="none" stroke="black" d="M139.247,-239.629C165.066,-251.965 204.445,-270.779 206.881,-271.943"/>
</g>
<!-- open_CRAC_channel_deg_intermediate_r -->
<g id="node123" class="node"><title>open_CRAC_channel_deg_intermediate_r</title>
<ellipse fill="black" stroke="black" cx="207" cy="-194" rx="0.036" ry="0.036"/>
</g>
<!-- O_o&#45;&gt;open_CRAC_channel_deg_intermediate_r -->
<g id="edge128" class="edge"><title>O_o&#45;&gt;open_CRAC_channel_deg_intermediate_r</title>
<path fill="none" stroke="black" d="M139.888,-219.104C151.775,-214.079 166.583,-207.998 180,-203 191.483,-198.723 206.057,-194.286 206.956,-194.013"/>
</g>
<!-- Orai1 -->
<g id="node9" class="node"><title>Orai1</title>
<polyline fill="none" stroke="black" points="318,-287 288,-287 "/>
<path fill="none" stroke="black" d="M288,-287C282,-287 276,-281 276,-275"/>
<polyline fill="none" stroke="black" points="276,-275 276,-263 "/>
<path fill="none" stroke="black" d="M276,-263C276,-257 282,-251 288,-251"/>
<polyline fill="none" stroke="black" points="288,-251 318,-251 "/>
<path fill="none" stroke="black" d="M318,-251C324,-251 330,-257 330,-263"/>
<polyline fill="none" stroke="black" points="330,-263 330,-275 "/>
<path fill="none" stroke="black" d="M330,-275C330,-281 324,-287 318,-287"/>
<text text-anchor="middle" x="303" y="-266.5" font-family="Times Roman,serif" font-size="10.00">Orai1</text>
</g>
<!-- close_CRAC_prod_intermediate_m -->
<g id="node96" class="node"><title>close_CRAC_prod_intermediate_m</title>
<ellipse fill="black" stroke="black" cx="399" cy="-255" rx="0.036" ry="0.036"/>
</g>
<!-- Orai1&#45;&gt;close_CRAC_prod_intermediate_m -->
<g id="edge98" class="edge"><title>Orai1&#45;&gt;close_CRAC_prod_intermediate_m</title>
<path fill="none" stroke="black" d="M330.253,-265.026C357.748,-261.016 396.489,-255.366 398.883,-255.017"/>
</g>
<!-- ER_Channel -->
<g id="node10" class="node"><title>ER_Channel</title>
<polygon fill="none" stroke="black" points="852,-441 838,-441 838,-427 852,-427 852,-441"/>
</g>
<!-- ER_Channel_intermediate_p -->
<g id="node14" class="node"><title>ER_Channel_intermediate_p</title>
<ellipse fill="black" stroke="black" cx="915" cy="-443" rx="0.036" ry="0.036"/>
</g>
<!-- ER_Channel&#45;&gt;ER_Channel_intermediate_p -->
<g id="edge6" class="edge"><title>ER_Channel&#45;&gt;ER_Channel_intermediate_p</title>
<path fill="none" stroke="black" d="M852.228,-434.929C869.554,-437.157 912.221,-442.643 914.871,-442.983"/>
</g>
<!-- ER_Channel&#45;&gt;ER_Channel_intermediate_m -->
<g id="edge10" class="edge"><title>ER_Channel&#45;&gt;ER_Channel_intermediate_m</title>
<path fill="none" stroke="black" d="M859.129,-417.651C878.844,-394.838 912.478,-355.918 914.866,-353.155"/>
<polygon fill="none" stroke="black" points="859.058,-417.732 858.162,-424.888 851.212,-426.812 852.109,-419.657 859.058,-417.732"/>
</g>
<!-- ER_Channel_intermediate_r&#45;&gt;ER_Channel -->
<g id="edge2" class="edge"><title>ER_Channel_intermediate_r&#45;&gt;ER_Channel</title>
<path fill="none" stroke="black" d="M775.051,-434C776.748,-434 820.582,-434 837.98,-434"/>
</g>
<!-- ER_Channel_intermediate_p&#45;&gt;Ca_Cyt -->
<g id="edge8" class="edge"><title>ER_Channel_intermediate_p&#45;&gt;Ca_Cyt</title>
<path fill="none" stroke="black" d="M914.945,-443.027C912.639,-444.147 838.353,-480 775,-480 497,-480 497,-480 497,-480 431.432,-480 364.379,-436.566 328.836,-409.385"/>
<polygon fill="black" stroke="black" points="330.947,-406.592 320.913,-403.192 326.636,-412.108 330.947,-406.592"/>
</g>
<!-- SERCA -->
<g id="node20" class="node"><title>SERCA</title>
<polygon fill="none" stroke="black" points="504,-437 490,-437 490,-423 504,-423 504,-437"/>
</g>
<!-- SERCA_intermediate_p -->
<g id="node24" class="node"><title>SERCA_intermediate_p</title>
<ellipse fill="black" stroke="black" cx="595" cy="-433" rx="0.036" ry="0.036"/>
</g>
<!-- SERCA&#45;&gt;SERCA_intermediate_p -->
<g id="edge18" class="edge"><title>SERCA&#45;&gt;SERCA_intermediate_p</title>
<path fill="none" stroke="black" d="M504.048,-430.216C526.167,-430.893 592.871,-432.935 594.95,-432.998"/>
</g>
<!-- SERCA_intermediate_r&#45;&gt;SERCA -->
<g id="edge14" class="edge"><title>SERCA_intermediate_r&#45;&gt;SERCA</title>
<path fill="none" stroke="black" d="M399.071,-427.002C401.54,-427.078 467.694,-429.103 489.848,-429.781"/>
</g>
<!-- SERCA_intermediate_p&#45;&gt;Ca_ER -->
<g id="edge20" class="edge"><title>SERCA_intermediate_p&#45;&gt;Ca_ER</title>
<path fill="none" stroke="black" d="M595.065,-433.001C596.759,-433.02 631.076,-433.401 656.818,-433.687"/>
<polygon fill="black" stroke="black" points="656.823,-437.187 666.862,-433.798 656.901,-430.187 656.823,-437.187"/>
</g>
<!-- PM_Channel -->
<g id="node27" class="node"><title>PM_Channel</title>
<polygon fill="none" stroke="black" points="124,-349 110,-349 110,-335 124,-335 124,-349"/>
</g>
<!-- PM_Channel_intermediate_p -->
<g id="node30" class="node"><title>PM_Channel_intermediate_p</title>
<ellipse fill="black" stroke="black" cx="207" cy="-383" rx="0.036" ry="0.036"/>
</g>
<!-- PM_Channel&#45;&gt;PM_Channel_intermediate_p -->
<g id="edge24" class="edge"><title>PM_Channel&#45;&gt;PM_Channel_intermediate_p</title>
<path fill="none" stroke="black" d="M124.357,-345.425C136.1,-350.882 159.814,-361.869 180,-371 191.217,-376.074 205.133,-382.181 206.828,-382.925"/>
</g>
<!-- PM_Channel&#45;&gt;PM_Channel_intermediate_m -->
<g id="edge28" class="edge"><title>PM_Channel&#45;&gt;PM_Channel_intermediate_m</title>
<path fill="none" stroke="black" d="M135.283,-333.874C161.113,-322.394 205.352,-302.732 206.955,-302.02"/>
<polygon fill="none" stroke="black" points="135.028,-333.988 131.17,-340.08 124.062,-338.861 127.92,-332.769 135.028,-333.988"/>
</g>
<!-- PM_Channel_empty -->
<g id="node28" class="node"><title>PM_Channel_empty</title>
<text text-anchor="middle" x="27" y="-337.5" font-family="Times Roman,serif" font-size="15.00" fill="blue">Ø</text>
</g>
<!-- PM_Channel_empty&#45;&gt;PM_Channel -->
<g id="edge22" class="edge"><title>PM_Channel_empty&#45;&gt;PM_Channel</title>
<path fill="none" stroke="black" d="M54.003,-342C73.2642,-342 97.7921,-342 109.766,-342"/>
</g>
<!-- PM_Channel_intermediate_p&#45;&gt;Ca_Cyt -->
<g id="edge26" class="edge"><title>PM_Channel_intermediate_p&#45;&gt;Ca_Cyt</title>
<path fill="none" stroke="black" d="M207.07,-383.004C208.602,-383.083 235.162,-384.467 259.945,-385.758"/>
<polygon fill="black" stroke="black" points="259.848,-389.257 270.017,-386.282 260.212,-382.267 259.848,-389.257"/>
</g>
<!-- PMCA -->
<g id="node36" class="node"><title>PMCA</title>
<polygon fill="none" stroke="black" points="504,-360 490,-360 490,-346 504,-346 504,-360"/>
</g>
<!-- PMCA_empty -->
<g id="node40" class="node"><title>PMCA_empty</title>
<text text-anchor="middle" x="595" y="-339.5" font-family="Times Roman,serif" font-size="15.00" fill="blue">Ø</text>
</g>
<!-- PMCA&#45;&gt;PMCA_empty -->
<g id="edge36" class="edge"><title>PMCA&#45;&gt;PMCA_empty</title>
<path fill="none" stroke="black" d="M504.048,-352.353C515.26,-351.323 537.927,-349.241 557.826,-347.414"/>
<polygon fill="black" stroke="black" points="558.267,-350.888 567.905,-346.488 557.627,-343.918 558.267,-350.888"/>
</g>
<!-- PMCA_intermediate_r&#45;&gt;PMCA -->
<g id="edge32" class="edge"><title>PMCA_intermediate_r&#45;&gt;PMCA</title>
<path fill="none" stroke="black" d="M399.071,-361.993C401.54,-361.767 467.694,-355.691 489.848,-353.657"/>
</g>
<!-- PLC -->
<g id="node42" class="node"><title>PLC</title>
<polygon fill="none" stroke="black" points="310,-351 296,-351 296,-337 310,-337 310,-351"/>
</g>
<!-- PLC_intermediate_p -->
<g id="node45" class="node"><title>PLC_intermediate_p</title>
<ellipse fill="black" stroke="black" cx="399" cy="-317" rx="0.036" ry="0.036"/>
</g>
<!-- PLC&#45;&gt;PLC_intermediate_p -->
<g id="edge40" class="edge"><title>PLC&#45;&gt;PLC_intermediate_p</title>
<path fill="none" stroke="black" d="M310.216,-341.971C332.193,-335.79 396.934,-317.581 398.952,-317.014"/>
</g>
<!-- PLC&#45;&gt;PLC_intermediate_m -->
<g id="edge44" class="edge"><title>PLC&#45;&gt;PLC_intermediate_m</title>
<path fill="none" stroke="black" d="M322.484,-344C350.031,-344 397.233,-344 398.952,-344"/>
<polygon fill="none" stroke="black" points="322.216,-344 316.216,-348 310.216,-344 316.216,-340 322.216,-344"/>
</g>
<!-- PLC_empty -->
<g id="node43" class="node"><title>PLC_empty</title>
<text text-anchor="middle" x="207" y="-339.5" font-family="Times Roman,serif" font-size="15.00" fill="blue">Ø</text>
</g>
<!-- PLC_empty&#45;&gt;PLC -->
<g id="edge38" class="edge"><title>PLC_empty&#45;&gt;PLC</title>
<path fill="none" stroke="black" d="M234.253,-344C255.318,-344 282.983,-344 295.848,-344"/>
</g>
<!-- PLC_intermediate_p&#45;&gt;IP3_Cyt -->
<g id="edge42" class="edge"><title>PLC_intermediate_p&#45;&gt;IP3_Cyt</title>
<path fill="none" stroke="black" d="M399.071,-316.993C400.625,-316.851 427.396,-314.392 452.553,-312.082"/>
<polygon fill="black" stroke="black" points="453.151,-315.542 462.789,-311.142 452.511,-308.571 453.151,-315.542"/>
</g>
<!-- deg -->
<g id="node51" class="node"><title>deg</title>
<polygon fill="none" stroke="black" points="692,-340 678,-340 678,-326 692,-326 692,-340"/>
</g>
<!-- deg_empty -->
<g id="node55" class="node"><title>deg_empty</title>
<text text-anchor="middle" x="775" y="-328.5" font-family="Times Roman,serif" font-size="15.00" fill="blue">Ø</text>
</g>
<!-- deg&#45;&gt;deg_empty -->
<g id="edge52" class="edge"><title>deg&#45;&gt;deg_empty</title>
<path fill="none" stroke="black" d="M692.062,-333C701.877,-333 720.359,-333 737.389,-333"/>
<polygon fill="black" stroke="black" points="737.715,-336.5 747.715,-333 737.715,-329.5 737.715,-336.5"/>
</g>
<!-- deg&#45;&gt;deg_intermediate_m -->
<g id="edge54" class="edge"><title>deg&#45;&gt;deg_intermediate_m</title>
<path fill="none" stroke="black" d="M703.283,-341.532C729.113,-353.586 773.352,-374.231 774.955,-374.979"/>
<polygon fill="none" stroke="black" points="702.936,-341.37 695.808,-342.458 692.062,-336.296 699.191,-335.208 702.936,-341.37"/>
</g>
<!-- deg_intermediate_r&#45;&gt;deg -->
<g id="edge48" class="edge"><title>deg_intermediate_r&#45;&gt;deg</title>
<path fill="none" stroke="black" d="M595.065,-308.018C597.311,-308.642 656.951,-325.209 677.848,-331.013"/>
</g>
<!-- act_apoSTIM1_syn -->
<g id="node60" class="node"><title>act_apoSTIM1_syn</title>
<polygon fill="none" stroke="black" points="504,-111 490,-111 490,-97 504,-97 504,-111"/>
</g>
<!-- act_apoSTIM1_syn_intermediate_p -->
<g id="node63" class="node"><title>act_apoSTIM1_syn_intermediate_p</title>
<ellipse fill="black" stroke="black" cx="595" cy="-104" rx="0.036" ry="0.036"/>
</g>
<!-- act_apoSTIM1_syn&#45;&gt;act_apoSTIM1_syn_intermediate_p -->
<g id="edge60" class="edge"><title>act_apoSTIM1_syn&#45;&gt;act_apoSTIM1_syn_intermediate_p</title>
<path fill="none" stroke="black" d="M504.048,-104C526.167,-104 592.871,-104 594.95,-104"/>
</g>
<!-- act_apoSTIM1_syn&#45;&gt;act_apoSTIM1_syn_intermediate_m -->
<g id="edge64" class="edge"><title>act_apoSTIM1_syn&#45;&gt;act_apoSTIM1_syn_intermediate_m</title>
<path fill="none" stroke="black" d="M515.721,-98.8422C543.65,-91.1475 593.164,-77.506 594.95,-77.0137"/>
<polygon fill="none" stroke="black" points="515.617,-98.8708 510.895,-104.321 504.048,-102.058 508.77,-96.6082 515.617,-98.8708"/>
</g>
<!-- act_apoSTIM1_syn_empty -->
<g id="node61" class="node"><title>act_apoSTIM1_syn_empty</title>
<text text-anchor="middle" x="399" y="-99.5" font-family="Times Roman,serif" font-size="15.00" fill="blue">Ø</text>
</g>
<!-- act_apoSTIM1_syn_empty&#45;&gt;act_apoSTIM1_syn -->
<g id="edge58" class="edge"><title>act_apoSTIM1_syn_empty&#45;&gt;act_apoSTIM1_syn</title>
<path fill="none" stroke="black" d="M426.038,-104C447.794,-104 476.832,-104 489.991,-104"/>
</g>
<!-- act_apoSTIM1_syn_intermediate_p&#45;&gt;S2a -->
<g id="edge62" class="edge"><title>act_apoSTIM1_syn_intermediate_p&#45;&gt;S2a</title>
<path fill="none" stroke="black" d="M595.065,-104C596.565,-104 623.648,-104 647.704,-104"/>
<polygon fill="black" stroke="black" points="647.745,-107.5 657.745,-104 647.745,-100.5 647.745,-107.5"/>
</g>
<!-- act_apoSTIM1_deg -->
<g id="node69" class="node"><title>act_apoSTIM1_deg</title>
<polygon fill="none" stroke="black" points="852,-111 838,-111 838,-97 852,-97 852,-111"/>
</g>
<!-- act_apoSTIM1_deg_empty -->
<g id="node73" class="node"><title>act_apoSTIM1_deg_empty</title>
<text text-anchor="middle" x="915" y="-99.5" font-family="Times Roman,serif" font-size="15.00" fill="blue">Ø</text>
</g>
<!-- act_apoSTIM1_deg&#45;&gt;act_apoSTIM1_deg_empty -->
<g id="edge72" class="edge"><title>act_apoSTIM1_deg&#45;&gt;act_apoSTIM1_deg_empty</title>
<path fill="none" stroke="black" d="M852.228,-104C858.45,-104 867.94,-104 877.672,-104"/>
<polygon fill="black" stroke="black" points="877.773,-107.5 887.773,-104 877.773,-100.5 877.773,-107.5"/>
</g>
<!-- act_apoSTIM1_deg_intermediate_r&#45;&gt;act_apoSTIM1_deg -->
<g id="edge68" class="edge"><title>act_apoSTIM1_deg_intermediate_r&#45;&gt;act_apoSTIM1_deg</title>
<path fill="none" stroke="black" d="M775.051,-104C776.748,-104 820.582,-104 837.98,-104"/>
</g>
<!-- apoSTIM1_oligo_syn -->
<g id="node75" class="node"><title>apoSTIM1_oligo_syn</title>
<polygon fill="none" stroke="black" points="504,-25 490,-25 490,-11 504,-11 504,-25"/>
</g>
<!-- apoSTIM1_oligo_syn_intermediate_p -->
<g id="node78" class="node"><title>apoSTIM1_oligo_syn_intermediate_p</title>
<ellipse fill="black" stroke="black" cx="595" cy="-18" rx="0.036" ry="0.036"/>
</g>
<!-- apoSTIM1_oligo_syn&#45;&gt;apoSTIM1_oligo_syn_intermediate_p -->
<g id="edge76" class="edge"><title>apoSTIM1_oligo_syn&#45;&gt;apoSTIM1_oligo_syn_intermediate_p</title>
<path fill="none" stroke="black" d="M504.048,-18C526.167,-18 592.871,-18 594.95,-18"/>
</g>
<!-- apoSTIM1_oligo_syn&#45;&gt;apoSTIM1_oligo_syn_intermediate_m -->
<g id="edge80" class="edge"><title>apoSTIM1_oligo_syn&#45;&gt;apoSTIM1_oligo_syn_intermediate_m</title>
<path fill="none" stroke="black" d="M515.721,-23.9219C543.65,-32.7566 593.164,-48.4191 594.95,-48.9843"/>
<polygon fill="none" stroke="black" points="515.489,-23.8487 508.562,-25.8528 504.048,-20.2294 510.975,-18.2253 515.489,-23.8487"/>
</g>
<!-- apoSTIM1_oligo_syn_empty -->
<g id="node76" class="node"><title>apoSTIM1_oligo_syn_empty</title>
<text text-anchor="middle" x="399" y="-13.5" font-family="Times Roman,serif" font-size="15.00" fill="blue">Ø</text>
</g>
<!-- apoSTIM1_oligo_syn_empty&#45;&gt;apoSTIM1_oligo_syn -->
<g id="edge74" class="edge"><title>apoSTIM1_oligo_syn_empty&#45;&gt;apoSTIM1_oligo_syn</title>
<path fill="none" stroke="black" d="M426.038,-18C447.794,-18 476.832,-18 489.991,-18"/>
</g>
<!-- apoSTIM1_oligo_syn_intermediate_p&#45;&gt;S4 -->
<g id="edge78" class="edge"><title>apoSTIM1_oligo_syn_intermediate_p&#45;&gt;S4</title>
<path fill="none" stroke="black" d="M595.065,-18C596.565,-18 623.648,-18 647.704,-18"/>
<polygon fill="black" stroke="black" points="647.745,-21.5001 657.745,-18 647.745,-14.5001 647.745,-21.5001"/>
</g>
<!-- apoSTIM1_oligo_deg -->
<g id="node84" class="node"><title>apoSTIM1_oligo_deg</title>
<polygon fill="none" stroke="black" points="852,-25 838,-25 838,-11 852,-11 852,-25"/>
</g>
<!-- apoSTIM1_oligo_deg_empty -->
<g id="node88" class="node"><title>apoSTIM1_oligo_deg_empty</title>
<text text-anchor="middle" x="915" y="-13.5" font-family="Times Roman,serif" font-size="15.00" fill="blue">Ø</text>
</g>
<!-- apoSTIM1_oligo_deg&#45;&gt;apoSTIM1_oligo_deg_empty -->
<g id="edge88" class="edge"><title>apoSTIM1_oligo_deg&#45;&gt;apoSTIM1_oligo_deg_empty</title>
<path fill="none" stroke="black" d="M852.228,-18C858.45,-18 867.94,-18 877.672,-18"/>
<polygon fill="black" stroke="black" points="877.773,-21.5001 887.773,-18 877.773,-14.5001 877.773,-21.5001"/>
</g>
<!-- apoSTIM1_oligo_deg_intermediate_r&#45;&gt;apoSTIM1_oligo_deg -->
<g id="edge84" class="edge"><title>apoSTIM1_oligo_deg_intermediate_r&#45;&gt;apoSTIM1_oligo_deg</title>
<path fill="none" stroke="black" d="M775.051,-18C776.748,-18 820.582,-18 837.98,-18"/>
</g>
<!-- close_CRAC_prod -->
<g id="node90" class="node"><title>close_CRAC_prod</title>
<polygon fill="none" stroke="black" points="310,-233 296,-233 296,-219 310,-219 310,-233"/>
</g>
<!-- close_CRAC_prod_intermediate_p -->
<g id="node93" class="node"><title>close_CRAC_prod_intermediate_p</title>
<ellipse fill="black" stroke="black" cx="399" cy="-232" rx="0.036" ry="0.036"/>
</g>
<!-- close_CRAC_prod&#45;&gt;close_CRAC_prod_intermediate_p -->
<g id="edge92" class="edge"><title>close_CRAC_prod&#45;&gt;close_CRAC_prod_intermediate_p</title>
<path fill="none" stroke="black" d="M310.216,-226.451C332.193,-227.825 396.934,-231.871 398.952,-231.997"/>
</g>
<!-- close_CRAC_prod&#45;&gt;close_CRAC_prod_intermediate_m -->
<g id="edge96" class="edge"><title>close_CRAC_prod&#45;&gt;close_CRAC_prod_intermediate_m</title>
<path fill="none" stroke="black" d="M321.731,-231.658C349.161,-239.944 397.218,-254.462 398.952,-254.985"/>
<polygon fill="none" stroke="black" points="321.703,-231.65 314.803,-233.744 310.216,-228.18 317.116,-226.086 321.703,-231.65"/>
</g>
<!-- close_CRAC_prod_empty -->
<g id="node91" class="node"><title>close_CRAC_prod_empty</title>
<text text-anchor="middle" x="207" y="-225.5" font-family="Times Roman,serif" font-size="15.00" fill="blue">Ø</text>
</g>
<!-- close_CRAC_prod_empty&#45;&gt;close_CRAC_prod -->
<g id="edge90" class="edge"><title>close_CRAC_prod_empty&#45;&gt;close_CRAC_prod</title>
<path fill="none" stroke="black" d="M234.253,-228.864C255.318,-227.987 282.983,-226.834 295.848,-226.298"/>
</g>
<!-- close_CRAC_prod_intermediate_p&#45;&gt;Oc -->
<g id="edge94" class="edge"><title>close_CRAC_prod_intermediate_p&#45;&gt;Oc</title>
<path fill="none" stroke="black" d="M399.071,-232C400.777,-232 432.897,-232 459.892,-232"/>
<polygon fill="black" stroke="black" points="459.913,-235.5 469.913,-232 459.913,-228.5 459.913,-235.5"/>
</g>
<!-- closed_CRAC_channel_deg -->
<g id="node99" class="node"><title>closed_CRAC_channel_deg</title>
<polygon fill="none" stroke="black" points="692,-239 678,-239 678,-225 692,-225 692,-239"/>
</g>
<!-- closed_CRAC_channel_deg_empty -->
<g id="node103" class="node"><title>closed_CRAC_channel_deg_empty</title>
<text text-anchor="middle" x="775" y="-227.5" font-family="Times Roman,serif" font-size="15.00" fill="blue">Ø</text>
</g>
<!-- closed_CRAC_channel_deg&#45;&gt;closed_CRAC_channel_deg_empty -->
<g id="edge104" class="edge"><title>closed_CRAC_channel_deg&#45;&gt;closed_CRAC_channel_deg_empty</title>
<path fill="none" stroke="black" d="M692.062,-232C701.877,-232 720.359,-232 737.389,-232"/>
<polygon fill="black" stroke="black" points="737.715,-235.5 747.715,-232 737.715,-228.5 737.715,-235.5"/>
</g>
<!-- closed_CRAC_channel_deg_intermediate_r&#45;&gt;closed_CRAC_channel_deg -->
<g id="edge100" class="edge"><title>closed_CRAC_channel_deg_intermediate_r&#45;&gt;closed_CRAC_channel_deg</title>
<path fill="none" stroke="black" d="M595.065,-232C597.311,-232 656.951,-232 677.848,-232"/>
</g>
<!-- open_CRAC_channel_prod -->
<g id="node105" class="node"><title>open_CRAC_channel_prod</title>
<polygon fill="none" stroke="black" points="692,-192 678,-192 678,-178 692,-178 692,-192"/>
</g>
<!-- open_CRAC_channel_prod_intermediate_p -->
<g id="node109" class="node"><title>open_CRAC_channel_prod_intermediate_p</title>
<ellipse fill="black" stroke="black" cx="775" cy="-168" rx="0.036" ry="0.036"/>
</g>
<!-- open_CRAC_channel_prod&#45;&gt;open_CRAC_channel_prod_intermediate_p -->
<g id="edge110" class="edge"><title>open_CRAC_channel_prod&#45;&gt;open_CRAC_channel_prod_intermediate_p</title>
<path fill="none" stroke="black" d="M692.062,-183.666C712.947,-179.721 773.081,-168.362 774.955,-168.008"/>
</g>
<!-- open_CRAC_channel_prod&#45;&gt;open_CRAC_channel_prod_intermediate_m -->
<g id="edge114" class="edge"><title>open_CRAC_channel_prod&#45;&gt;open_CRAC_channel_prod_intermediate_m</title>
<path fill="none" stroke="black" d="M702.93,-175.238C728.708,-161.204 773.345,-136.901 774.955,-136.024"/>
<polygon fill="none" stroke="black" points="702.601,-175.417 699.244,-181.799 692.062,-181.155 695.419,-174.773 702.601,-175.417"/>
</g>
<!-- open_CRAC_channel_prod_intermediate_r&#45;&gt;open_CRAC_channel_prod -->
<g id="edge106" class="edge"><title>open_CRAC_channel_prod_intermediate_r&#45;&gt;open_CRAC_channel_prod</title>
<path fill="none" stroke="black" d="M595.065,-199.989C597.311,-199.615 656.951,-189.675 677.848,-186.192"/>
</g>
<!-- open_CRAC_channel_prod_intermediate_p&#45;&gt;O_o -->
<g id="edge112" class="edge"><title>open_CRAC_channel_prod_intermediate_p&#45;&gt;O_o</title>
<path fill="none" stroke="black" d="M774.928,-167.987C771.892,-167.442 674.143,-150 595,-150 303,-150 303,-150 303,-150 246.163,-150 231.34,-160.614 180,-185 166.652,-191.34 153.061,-200.431 141.935,-208.705"/>
<polygon fill="black" stroke="black" points="139.767,-205.957 133.953,-214.815 144.021,-211.516 139.767,-205.957"/>
</g>
<!-- open_to_closed -->
<g id="node115" class="node"><title>open_to_closed</title>
<polygon fill="none" stroke="black" points="310,-319 296,-319 296,-305 310,-305 310,-319"/>
</g>
<!-- open_to_closed_intermediate_p -->
<g id="node119" class="node"><title>open_to_closed_intermediate_p</title>
<ellipse fill="black" stroke="black" cx="399" cy="-283" rx="0.036" ry="0.036"/>
</g>
<!-- open_to_closed&#45;&gt;open_to_closed_intermediate_p -->
<g id="edge122" class="edge"><title>open_to_closed&#45;&gt;open_to_closed_intermediate_p</title>
<path fill="none" stroke="black" d="M310.216,-309.82C332.193,-303.181 396.934,-283.624 398.952,-283.015"/>
</g>
<!-- open_to_closed_intermediate_r&#45;&gt;open_to_closed -->
<g id="edge118" class="edge"><title>open_to_closed_intermediate_r&#45;&gt;open_to_closed</title>
<path fill="none" stroke="black" d="M207.07,-272.029C209.488,-273.037 274.292,-300.039 295.994,-309.081"/>
</g>
<!-- open_to_closed_intermediate_p&#45;&gt;Oc -->
<g id="edge124" class="edge"><title>open_to_closed_intermediate_p&#45;&gt;Oc</title>
<path fill="none" stroke="black" d="M399.071,-282.963C400.914,-282.004 438.256,-262.571 466.282,-247.986"/>
<polygon fill="black" stroke="black" points="468.11,-250.98 475.365,-243.259 464.878,-244.771 468.11,-250.98"/>
</g>
<!-- open_CRAC_channel_deg -->
<g id="node122" class="node"><title>open_CRAC_channel_deg</title>
<polygon fill="none" stroke="black" points="310,-201 296,-201 296,-187 310,-187 310,-201"/>
</g>
<!-- open_CRAC_channel_deg_empty -->
<g id="node126" class="node"><title>open_CRAC_channel_deg_empty</title>
<text text-anchor="middle" x="399" y="-191.5" font-family="Times Roman,serif" font-size="15.00" fill="blue">Ø</text>
</g>
<!-- open_CRAC_channel_deg&#45;&gt;open_CRAC_channel_deg_empty -->
<g id="edge130" class="edge"><title>open_CRAC_channel_deg&#45;&gt;open_CRAC_channel_deg_empty</title>
<path fill="none" stroke="black" d="M310.216,-194.15C321.156,-194.378 342.696,-194.827 361.818,-195.225"/>
<polygon fill="black" stroke="black" points="361.748,-198.725 371.819,-195.434 361.894,-191.726 361.748,-198.725"/>
</g>
<!-- open_CRAC_channel_deg_intermediate_r&#45;&gt;open_CRAC_channel_deg -->
<g id="edge126" class="edge"><title>open_CRAC_channel_deg_intermediate_r&#45;&gt;open_CRAC_channel_deg</title>
<path fill="none" stroke="black" d="M207.07,-194C209.488,-194 274.292,-194 295.994,-194"/>
</g>
</g>
</svg>
