<?xml version="1.0" encoding="UTF-8" standalone="no"?>
<!DOCTYPE svg PUBLIC "-//W3C//DTD SVG 1.1//EN"
 "http://www.w3.org/Graphics/SVG/1.1/DTD/svg11.dtd">
<!-- Generated by graphviz version 2.30.1 (20140821.0912)
 -->
<!-- Title: G Pages: 1 -->
<svg width="1556pt" height="302pt"
 viewBox="0.00 0.00 1556.00 302.00" xmlns="http://www.w3.org/2000/svg" xmlns:xlink="http://www.w3.org/1999/xlink">
<g id="graph0" class="graph" transform="scale(1 1) rotate(0) translate(4 298)">
<title>G</title>
<polygon fill="white" stroke="white" points="-4,5 -4,-298 1553,-298 1553,5 -4,5"/>
<!-- FA -->
<g id="FA [CHEBI:35366]" class="node"><title>FA</title>
<ellipse fill="none" stroke="black" cx="18" cy="-216" rx="18" ry="18"/>
<text text-anchor="middle" x="18" y="-213.5" font-family="Times,serif" font-size="10.00">FA</text>
</g>
<!-- r2_intermediate_r -->
<g id="node15" class="node"><title>r2_intermediate_r</title>
<ellipse fill="black" stroke="black" cx="73" cy="-204" rx="0.036" ry="0.036"/>
</g>
<!-- FA&#45;&gt;r2_intermediate_r -->
<g id="edge2" class="edge"><title>FA&#45;&gt;r2_intermediate_r</title>
<path fill="none" stroke="black" d="M35.7695,-212.203C50.8116,-208.797 70.7111,-204.292 71.9401,-204.014"/>
</g>
<!-- r1_intermediate_r -->
<g id="node75" class="node"><title>r1_intermediate_r</title>
<ellipse fill="black" stroke="black" cx="73" cy="-229" rx="0.036" ry="0.036"/>
</g>
<!-- FA&#45;&gt;r1_intermediate_r -->
<g id="edge78" class="edge"><title>FA&#45;&gt;r1_intermediate_r</title>
<path fill="none" stroke="black" d="M35.7695,-220.113C50.8116,-223.803 70.7111,-228.684 71.9401,-228.985"/>
</g>
<!-- HETE -->
<g id="HETE" class="node"><title>HETE</title>
<ellipse fill="none" stroke="black" cx="563" cy="-84" rx="27" ry="18"/>
<text text-anchor="middle" x="563" y="-81.5" font-family="Times,serif" font-size="10.00">HETE</text>
</g>
<!-- r9_intermediate_r -->
<g id="node42" class="node"><title>r9_intermediate_r</title>
<ellipse fill="black" stroke="black" cx="626" cy="-84" rx="0.036" ry="0.036"/>
</g>
<!-- HETE&#45;&gt;r9_intermediate_r -->
<g id="edge39" class="edge"><title>HETE&#45;&gt;r9_intermediate_r</title>
<path fill="none" stroke="black" d="M590.224,-84C606.24,-84 623.861,-84 624.947,-84"/>
</g>
<!-- PGH2 -->
<g id="PGH2 [CHEBI:15554]" class="node"><title>PGH2</title>
<ellipse fill="none" stroke="black" cx="563" cy="-187" rx="18" ry="18"/>
<text text-anchor="middle" x="563" y="-184.5" font-family="Times,serif" font-size="10.00">PGH2</text>
</g>
<!-- r13_intermediate_r -->
<g id="node45" class="node"><title>r13_intermediate_r</title>
<ellipse fill="black" stroke="black" cx="626" cy="-159" rx="0.036" ry="0.036"/>
</g>
<!-- PGH2&#45;&gt;r13_intermediate_r -->
<g id="edge42" class="edge"><title>PGH2&#45;&gt;r13_intermediate_r</title>
<path fill="none" stroke="black" d="M579.709,-179.789C597.218,-171.752 623.308,-159.777 624.921,-159.036"/>
</g>
<!-- r15_intermediate_r -->
<g id="node51" class="node"><title>r15_intermediate_r</title>
<ellipse fill="black" stroke="black" cx="626" cy="-212" rx="0.036" ry="0.036"/>
</g>
<!-- PGH2&#45;&gt;r15_intermediate_r -->
<g id="edge49" class="edge"><title>PGH2&#45;&gt;r15_intermediate_r</title>
<path fill="none" stroke="black" d="M580.027,-193.568C597.535,-200.744 623.327,-211.315 624.922,-211.968"/>
</g>
<!-- r17_intermediate_r -->
<g id="node57" class="node"><title>r17_intermediate_r</title>
<ellipse fill="black" stroke="black" cx="626" cy="-187" rx="0.036" ry="0.036"/>
</g>
<!-- PGH2&#45;&gt;r17_intermediate_r -->
<g id="edge56" class="edge"><title>PGH2&#45;&gt;r17_intermediate_r</title>
<path fill="none" stroke="black" d="M581.317,-187C598.788,-187 623.404,-187 624.926,-187"/>
</g>
<!-- PGE2 -->
<g id="PGE2" class="node"><title>PGE2</title>
<ellipse fill="none" stroke="black" cx="829" cy="-133" rx="27" ry="18"/>
<text text-anchor="middle" x="829" y="-130.5" font-family="Times,serif" font-size="10.00">PGE2</text>
</g>
<!-- r14_intermediate_r -->
<g id="node48" class="node"><title>r14_intermediate_r</title>
<ellipse fill="black" stroke="black" cx="892" cy="-133" rx="0.036" ry="0.036"/>
</g>
<!-- PGE2&#45;&gt;r14_intermediate_r -->
<g id="edge46" class="edge"><title>PGE2&#45;&gt;r14_intermediate_r</title>
<path fill="none" stroke="black" d="M856.224,-133C872.24,-133 889.861,-133 890.947,-133"/>
</g>
<!-- PGF2a -->
<g id="PGF2a [CHEBI:15553]" class="node"><title>PGF2a</title>
<ellipse fill="none" stroke="black" cx="829" cy="-241" rx="18" ry="18"/>
<text text-anchor="middle" x="829" y="-238.5" font-family="Times,serif" font-size="10.00">PGF2a</text>
</g>
<!-- r16_intermediate_r -->
<g id="node54" class="node"><title>r16_intermediate_r</title>
<ellipse fill="black" stroke="black" cx="892" cy="-241" rx="0.036" ry="0.036"/>
</g>
<!-- PGF2a&#45;&gt;r16_intermediate_r -->
<g id="edge53" class="edge"><title>PGF2a&#45;&gt;r16_intermediate_r</title>
<path fill="none" stroke="black" d="M847.317,-241C864.788,-241 889.404,-241 890.926,-241"/>
</g>
<!-- PGD2 -->
<g id="PGD2 [CHEBI:15555]" class="node"><title>PGD2</title>
<ellipse fill="none" stroke="black" cx="829" cy="-187" rx="18" ry="18"/>
<text text-anchor="middle" x="829" y="-184.5" font-family="Times,serif" font-size="10.00">PGD2</text>
</g>
<!-- r18_intermediate_r -->
<g id="node60" class="node"><title>r18_intermediate_r</title>
<ellipse fill="black" stroke="black" cx="892" cy="-176" rx="0.036" ry="0.036"/>
</g>
<!-- PGD2&#45;&gt;r18_intermediate_r -->
<g id="edge60" class="edge"><title>PGD2&#45;&gt;r18_intermediate_r</title>
<path fill="none" stroke="black" d="M846.992,-183.936C864.477,-180.783 889.385,-176.291 890.925,-176.014"/>
</g>
<!-- r19_intermediate_r -->
<g id="node63" class="node"><title>r19_intermediate_r</title>
<ellipse fill="black" stroke="black" cx="892" cy="-196" rx="0.036" ry="0.036"/>
</g>
<!-- PGD2&#45;&gt;r19_intermediate_r -->
<g id="edge64" class="edge"><title>PGD2&#45;&gt;r19_intermediate_r</title>
<path fill="none" stroke="black" d="M846.992,-189.507C864.477,-192.087 889.385,-195.762 890.925,-195.989"/>
</g>
<!-- PGJ2 -->
<g id="PGJ2 [CHEBI:27485]" class="node"><title>PGJ2</title>
<ellipse fill="none" stroke="black" cx="1096" cy="-160" rx="18" ry="18"/>
<text text-anchor="middle" x="1096" y="-157.5" font-family="Times,serif" font-size="10.00">PGJ2</text>
</g>
<!-- r21_intermediate_r -->
<g id="node69" class="node"><title>r21_intermediate_r</title>
<ellipse fill="black" stroke="black" cx="1160" cy="-160" rx="0.036" ry="0.036"/>
</g>
<!-- PGJ2&#45;&gt;r21_intermediate_r -->
<g id="edge71" class="edge"><title>PGJ2&#45;&gt;r21_intermediate_r</title>
<path fill="none" stroke="black" d="M1114.27,-160C1132.04,-160 1157.36,-160 1158.92,-160"/>
</g>
<!-- dPGJ2 -->
<g id="dPGJ2 [CHEBI:34159]" class="node"><title>dPGJ2</title>
<ellipse fill="none" stroke="black" cx="1354" cy="-160" rx="18" ry="18"/>
<text text-anchor="middle" x="1354" y="-157.5" font-family="Times,serif" font-size="10.00">dPGJ2</text>
</g>
<!-- r22_intermediate_r -->
<g id="node72" class="node"><title>r22_intermediate_r</title>
<ellipse fill="black" stroke="black" cx="1408" cy="-160" rx="0.036" ry="0.036"/>
</g>
<!-- dPGJ2&#45;&gt;r22_intermediate_r -->
<g id="edge75" class="edge"><title>dPGJ2&#45;&gt;r22_intermediate_r</title>
<path fill="none" stroke="black" d="M1372.03,-160C1386.72,-160 1405.77,-160 1406.94,-160"/>
</g>
<!-- AA -->
<g id="AA [CHEBI:15843]" class="node"><title>AA</title>
<ellipse fill="none" stroke="black" cx="271" cy="-149" rx="51.4282" ry="18"/>
<text text-anchor="middle" x="271" y="-146.5" font-family="Times,serif" font-size="10.00">Arachidonic acid</text>
</g>
<!-- r11_intermediate_r -->
<g id="node28" class="node"><title>r11_intermediate_r</title>
<ellipse fill="black" stroke="black" cx="359" cy="-203" rx="0.036" ry="0.036"/>
</g>
<!-- AA&#45;&gt;r11_intermediate_r -->
<g id="edge20" class="edge"><title>AA&#45;&gt;r11_intermediate_r</title>
<path fill="none" stroke="black" d="M296.875,-164.619C321.48,-180.069 355.777,-201.604 357.897,-202.935"/>
</g>
<!-- r10_intermediate_r -->
<g id="node32" class="node"><title>r10_intermediate_r</title>
<ellipse fill="black" stroke="black" cx="359" cy="-124" rx="0.036" ry="0.036"/>
</g>
<!-- AA&#45;&gt;r10_intermediate_r -->
<g id="edge26" class="edge"><title>AA&#45;&gt;r10_intermediate_r</title>
<path fill="none" stroke="black" d="M310.974,-137.67C333.017,-131.262 356.485,-124.441 357.93,-124.02"/>
</g>
<!-- r8_intermediate_r -->
<g id="node36" class="node"><title>r8_intermediate_r</title>
<ellipse fill="black" stroke="black" cx="359" cy="-92" rx="0.036" ry="0.036"/>
</g>
<!-- AA&#45;&gt;r8_intermediate_r -->
<g id="edge32" class="edge"><title>AA&#45;&gt;r8_intermediate_r</title>
<path fill="none" stroke="black" d="M295.956,-133.122C320.607,-116.784 355.724,-93.5088 357.894,-92.0701"/>
</g>
<!-- r4_intermediate_r -->
<g id="node39" class="node"><title>r4_intermediate_r</title>
<ellipse fill="black" stroke="black" cx="359" cy="-149" rx="0.036" ry="0.036"/>
</g>
<!-- AA&#45;&gt;r4_intermediate_r -->
<g id="edge36" class="edge"><title>AA&#45;&gt;r4_intermediate_r</title>
<path fill="none" stroke="black" d="M322.524,-149C340.659,-149 356.951,-149 357.951,-149"/>
</g>
<!-- r12_intermediate_r -->
<g id="node83" class="node"><title>r12_intermediate_r</title>
<ellipse fill="black" stroke="black" cx="359" cy="-174" rx="0.036" ry="0.036"/>
</g>
<!-- AA&#45;&gt;r12_intermediate_r -->
<g id="edge90" class="edge"><title>AA&#45;&gt;r12_intermediate_r</title>
<path fill="none" stroke="black" d="M310.974,-160.33C333.017,-166.738 356.485,-173.559 357.93,-173.98"/>
</g>
<!-- LPS -->
<g id="LPS [CHEBI:16412]" class="node"><title>LPS</title>
<ellipse fill="none" stroke="black" cx="128" cy="-276" rx="18" ry="18"/>
<text text-anchor="middle" x="128" y="-273.5" font-family="Times,serif" font-size="10.00">LPS</text>
</g>
<!-- r11_intermediate_m -->
<g id="node30" class="node"><title>r11_intermediate_m</title>
<ellipse fill="black" stroke="black" cx="473" cy="-250" rx="0.036" ry="0.036"/>
</g>
<!-- LPS&#45;&gt;r11_intermediate_m -->
<g id="edge24" class="edge"><title>LPS&#45;&gt;r11_intermediate_m</title>
<path fill="none" stroke="black" d="M146.361,-275.191C172.967,-274.022 225.43,-272 270,-272 270,-272 270,-272 360,-272 409.936,-272 470.088,-250.682 471.955,-250.016"/>
</g>
<!-- r1_intermediate_m -->
<g id="node77" class="node"><title>r1_intermediate_m</title>
<ellipse fill="black" stroke="black" cx="183" cy="-237" rx="0.036" ry="0.036"/>
</g>
<!-- LPS&#45;&gt;r1_intermediate_m -->
<g id="edge82" class="edge"><title>LPS&#45;&gt;r1_intermediate_m</title>
<path fill="none" stroke="black" d="M142.925,-265.753C158.137,-254.559 180.547,-238.069 181.932,-237.05"/>
</g>
<!-- r6_intermediate_m -->
<g id="node81" class="node"><title>r6_intermediate_m</title>
<ellipse fill="black" stroke="black" cx="183" cy="-219" rx="0.036" ry="0.036"/>
</g>
<!-- LPS&#45;&gt;r6_intermediate_m -->
<g id="edge88" class="edge"><title>LPS&#45;&gt;r6_intermediate_m</title>
<path fill="none" stroke="black" d="M141.027,-263.066C156.175,-246.774 180.426,-220.693 181.927,-219.079"/>
</g>
<!-- DG -->
<g id="DG [CHEBI:49172]" class="node"><title>DG</title>
<ellipse fill="none" stroke="black" cx="18" cy="-35" rx="18" ry="18"/>
<text text-anchor="middle" x="18" y="-32.5" font-family="Times,serif" font-size="10.00">DG</text>
</g>
<!-- r3_intermediate_r -->
<g id="node18" class="node"><title>r3_intermediate_r</title>
<ellipse fill="black" stroke="black" cx="73" cy="-35" rx="0.036" ry="0.036"/>
</g>
<!-- DG&#45;&gt;r3_intermediate_r -->
<g id="edge6" class="edge"><title>DG&#45;&gt;r3_intermediate_r</title>
<path fill="none" stroke="black" d="M36.0613,-35C51.0707,-35 70.727,-35 71.9409,-35"/>
</g>
<!-- r5_intermediate_m -->
<g id="node26" class="node"><title>r5_intermediate_m</title>
<ellipse fill="black" stroke="black" cx="183" cy="-82" rx="0.036" ry="0.036"/>
</g>
<!-- DG&#45;&gt;r5_intermediate_m -->
<g id="edge18" class="edge"><title>DG&#45;&gt;r5_intermediate_m</title>
<path fill="none" stroke="black" d="M35.5263,-39.7653C76.3182,-51.5273 178.733,-81.058 181.924,-81.978"/>
</g>
<!-- r10_intermediate_m -->
<g id="node34" class="node"><title>r10_intermediate_m</title>
<ellipse fill="black" stroke="black" cx="473" cy="-27" rx="0.036" ry="0.036"/>
</g>
<!-- DG&#45;&gt;r10_intermediate_m -->
<g id="edge30" class="edge"><title>DG&#45;&gt;r10_intermediate_m</title>
<path fill="none" stroke="black" d="M34.235,-26.7055C54.7042,-16.3555 92.5075,-0 127,-0 127,-0 127,-0 360,-0 410.404,-0 470.102,-26.1628 471.956,-26.9804"/>
</g>
<!-- GPCho -->
<g id="GPCho [CHEBI:49183]" class="node"><title>GPCho</title>
<ellipse fill="none" stroke="black" cx="18" cy="-137" rx="18" ry="18"/>
<text text-anchor="middle" x="18" y="-134.5" font-family="Times,serif" font-size="10.00">GPCho</text>
</g>
<!-- r7_intermediate_r -->
<g id="node21" class="node"><title>r7_intermediate_r</title>
<ellipse fill="black" stroke="black" cx="73" cy="-162" rx="0.036" ry="0.036"/>
</g>
<!-- GPCho&#45;&gt;r7_intermediate_r -->
<g id="edge10" class="edge"><title>GPCho&#45;&gt;r7_intermediate_r</title>
<path fill="none" stroke="black" d="M34.6151,-144.366C49.7602,-151.51 70.6465,-161.362 71.9371,-161.97"/>
</g>
<!-- r5_intermediate_r -->
<g id="node24" class="node"><title>r5_intermediate_r</title>
<ellipse fill="black" stroke="black" cx="73" cy="-112" rx="0.036" ry="0.036"/>
</g>
<!-- GPCho&#45;&gt;r5_intermediate_r -->
<g id="edge14" class="edge"><title>GPCho&#45;&gt;r5_intermediate_r</title>
<path fill="none" stroke="black" d="M34.6151,-129.634C49.7602,-122.49 70.6465,-112.638 71.9371,-112.03"/>
</g>
<!-- r6_intermediate_r -->
<g id="node79" class="node"><title>r6_intermediate_r</title>
<ellipse fill="black" stroke="black" cx="73" cy="-137" rx="0.036" ry="0.036"/>
</g>
<!-- GPCho&#45;&gt;r6_intermediate_r -->
<g id="edge84" class="edge"><title>GPCho&#45;&gt;r6_intermediate_r</title>
<path fill="none" stroke="black" d="M36.0613,-137C51.0707,-137 70.727,-137 71.9409,-137"/>
</g>
<!-- dPGD2 -->
<g id="dPGD2" class="node"><title>dPGD2</title>
<ellipse fill="none" stroke="black" cx="1096" cy="-214" rx="27.8353" ry="18"/>
<text text-anchor="middle" x="1096" y="-211.5" font-family="Times,serif" font-size="10.00">dPGD2</text>
</g>
<!-- r20_intermediate_r -->
<g id="node66" class="node"><title>r20_intermediate_r</title>
<ellipse fill="black" stroke="black" cx="1160" cy="-214" rx="0.036" ry="0.036"/>
</g>
<!-- dPGD2&#45;&gt;r20_intermediate_r -->
<g id="edge68" class="edge"><title>dPGD2&#45;&gt;r20_intermediate_r</title>
<path fill="none" stroke="black" d="M1124.01,-214C1140.2,-214 1157.86,-214 1158.95,-214"/>
</g>
<!-- r2 -->
<g id="node14" class="node"><title>r2</title>
<polygon fill="none" stroke="black" points="135,-208 121,-208 121,-194 135,-194 135,-208"/>
</g>
<!-- r2_intermediate_p -->
<g id="node16" class="node"><title>r2_intermediate_p</title>
<ellipse fill="black" stroke="black" cx="183" cy="-181" rx="0.036" ry="0.036"/>
</g>
<!-- r2&#45;&gt;r2_intermediate_p -->
<g id="edge3" class="edge"><title>r2&#45;&gt;r2_intermediate_p</title>
<path fill="none" stroke="black" d="M135.08,-198.706C148.566,-193.617 179.956,-181.771 181.905,-181.036"/>
</g>
<!-- r2_intermediate_r&#45;&gt;r2 -->
<g id="edge1" class="edge"><title>r2_intermediate_r&#45;&gt;r2</title>
<path fill="none" stroke="black" d="M74.152,-203.991C76.5807,-203.854 107.47,-202.105 120.868,-201.347"/>
</g>
<!-- r2_intermediate_p&#45;&gt;AA -->
<g id="edge4" class="edge"><title>r2_intermediate_p&#45;&gt;AA</title>
<path fill="none" stroke="black" d="M184.062,-180.977C185.309,-180.513 205.067,-173.161 225.323,-165.624"/>
<polygon fill="black" stroke="black" points="226.76,-168.824 234.912,-162.056 224.319,-162.263 226.76,-168.824"/>
</g>
<!-- r3 -->
<g id="node17" class="node"><title>r3</title>
<polygon fill="none" stroke="black" points="135,-42 121,-42 121,-28 135,-28 135,-42"/>
</g>
<!-- r3_intermediate_p -->
<g id="node19" class="node"><title>r3_intermediate_p</title>
<ellipse fill="black" stroke="black" cx="183" cy="-49" rx="0.036" ry="0.036"/>
</g>
<!-- r3&#45;&gt;r3_intermediate_p -->
<g id="edge7" class="edge"><title>r3&#45;&gt;r3_intermediate_p</title>
<path fill="none" stroke="black" d="M135.08,-36.606C148.566,-40.1684 179.956,-48.4601 181.905,-48.9749"/>
</g>
<!-- r3_intermediate_r&#45;&gt;r3 -->
<g id="edge5" class="edge"><title>r3_intermediate_r&#45;&gt;r3</title>
<path fill="none" stroke="black" d="M74.152,-35C76.5807,-35 107.47,-35 120.868,-35"/>
</g>
<!-- r3_intermediate_p&#45;&gt;AA -->
<g id="edge8" class="edge"><title>r3_intermediate_p&#45;&gt;AA</title>
<path fill="none" stroke="black" d="M184.062,-49.0725C185.801,-51.0943 223.53,-94.9655 248.414,-123.899"/>
<polygon fill="black" stroke="black" points="245.877,-126.317 255.051,-131.617 251.184,-121.753 245.877,-126.317"/>
</g>
<!-- r7 -->
<g id="node20" class="node"><title>r7</title>
<polygon fill="none" stroke="black" points="135,-176 121,-176 121,-162 135,-162 135,-176"/>
</g>
<!-- r7_intermediate_p -->
<g id="node22" class="node"><title>r7_intermediate_p</title>
<ellipse fill="black" stroke="black" cx="183" cy="-160" rx="0.036" ry="0.036"/>
</g>
<!-- r7&#45;&gt;r7_intermediate_p -->
<g id="edge11" class="edge"><title>r7&#45;&gt;r7_intermediate_p</title>
<path fill="none" stroke="black" d="M135.08,-167.968C148.566,-165.677 179.956,-160.347 181.905,-160.016"/>
</g>
<!-- r7_intermediate_r&#45;&gt;r7 -->
<g id="edge9" class="edge"><title>r7_intermediate_r&#45;&gt;r7</title>
<path fill="none" stroke="black" d="M74.152,-162.02C76.5807,-162.341 107.47,-166.421 120.868,-168.19"/>
</g>
<!-- r7_intermediate_p&#45;&gt;AA -->
<g id="edge12" class="edge"><title>r7_intermediate_p&#45;&gt;AA</title>
<path fill="none" stroke="black" d="M184.062,-159.992C185.039,-159.867 197.362,-158.291 212.387,-156.369"/>
<polygon fill="black" stroke="black" points="213.083,-159.809 222.559,-155.068 212.195,-152.865 213.083,-159.809"/>
</g>
<!-- r5 -->
<g id="node23" class="node"><title>r5</title>
<polygon fill="none" stroke="black" points="135,-112 121,-112 121,-98 135,-98 135,-112"/>
</g>
<!-- r5_intermediate_p -->
<g id="node25" class="node"><title>r5_intermediate_p</title>
<ellipse fill="black" stroke="black" cx="183" cy="-113" rx="0.036" ry="0.036"/>
</g>
<!-- r5&#45;&gt;r5_intermediate_p -->
<g id="edge15" class="edge"><title>r5&#45;&gt;r5_intermediate_p</title>
<path fill="none" stroke="black" d="M135.08,-105.918C148.566,-107.953 179.956,-112.692 181.905,-112.986"/>
</g>
<!-- r5&#45;&gt;r5_intermediate_m -->
<g id="edge17" class="edge"><title>r5&#45;&gt;r5_intermediate_m</title>
<path fill="none" stroke="black" d="M135.08,-102.362C148.566,-96.509 179.956,-82.8869 181.905,-82.0413"/>
</g>
<!-- r5_intermediate_r&#45;&gt;r5 -->
<g id="edge13" class="edge"><title>r5_intermediate_r&#45;&gt;r5</title>
<path fill="none" stroke="black" d="M74.152,-111.98C76.5807,-111.659 107.47,-107.579 120.868,-105.81"/>
</g>
<!-- r5_intermediate_p&#45;&gt;AA -->
<g id="edge16" class="edge"><title>r5_intermediate_p&#45;&gt;AA</title>
<path fill="none" stroke="black" d="M184.062,-113.026C185.365,-113.571 206.866,-122.572 228.033,-131.432"/>
<polygon fill="black" stroke="black" points="226.766,-134.696 237.341,-135.329 229.469,-128.239 226.766,-134.696"/>
</g>
<!-- r11 -->
<g id="node27" class="node"><title>r11</title>
<polygon fill="none" stroke="black" points="410,-220 396,-220 396,-206 410,-206 410,-220"/>
</g>
<!-- r11_intermediate_p -->
<g id="node29" class="node"><title>r11_intermediate_p</title>
<ellipse fill="black" stroke="black" cx="473" cy="-209" rx="0.036" ry="0.036"/>
</g>
<!-- r11&#45;&gt;r11_intermediate_p -->
<g id="edge21" class="edge"><title>r11&#45;&gt;r11_intermediate_p</title>
<path fill="none" stroke="black" d="M410.275,-212.631C426.583,-211.672 469.222,-209.163 471.871,-209.008"/>
</g>
<!-- r11&#45;&gt;r11_intermediate_m -->
<g id="edge23" class="edge"><title>r11&#45;&gt;r11_intermediate_m</title>
<path fill="none" stroke="black" d="M410.275,-216.415C426.583,-225.288 469.222,-248.488 471.871,-249.93"/>
</g>
<!-- r11_intermediate_r&#45;&gt;r11 -->
<g id="edge19" class="edge"><title>r11_intermediate_r&#45;&gt;r11</title>
<path fill="none" stroke="black" d="M360.12,-203.029C361.968,-203.469 384.602,-208.858 395.803,-211.524"/>
</g>
<!-- r11_intermediate_p&#45;&gt;PGH2 -->
<g id="edge22" class="edge"><title>r11_intermediate_p&#45;&gt;PGH2</title>
<path fill="none" stroke="black" d="M474.064,-208.984C475.738,-208.566 510.02,-199.995 535.275,-193.681"/>
<polygon fill="black" stroke="black" points="536.239,-197.048 545.091,-191.227 534.541,-190.257 536.239,-197.048"/>
</g>
<!-- r10 -->
<g id="node31" class="node"><title>r10</title>
<polygon fill="none" stroke="black" points="410,-123 396,-123 396,-109 410,-109 410,-123"/>
</g>
<!-- r10_intermediate_p -->
<g id="node33" class="node"><title>r10_intermediate_p</title>
<ellipse fill="black" stroke="black" cx="473" cy="-115" rx="0.036" ry="0.036"/>
</g>
<!-- r10&#45;&gt;r10_intermediate_p -->
<g id="edge27" class="edge"><title>r10&#45;&gt;r10_intermediate_p</title>
<path fill="none" stroke="black" d="M410.275,-115.908C426.583,-115.668 469.222,-115.041 471.871,-115.002"/>
</g>
<!-- r10&#45;&gt;r10_intermediate_m -->
<g id="edge29" class="edge"><title>r10&#45;&gt;r10_intermediate_m</title>
<path fill="none" stroke="black" d="M409.565,-108.717C425.551,-87.7931 470.564,-28.8798 471.966,-27.0439"/>
</g>
<!-- r10_intermediate_r&#45;&gt;r10 -->
<g id="edge25" class="edge"><title>r10_intermediate_r&#45;&gt;r10</title>
<path fill="none" stroke="black" d="M360.12,-123.977C361.968,-123.625 384.602,-119.314 395.803,-117.18"/>
</g>
<!-- r10_intermediate_p&#45;&gt;PGH2 -->
<g id="edge28" class="edge"><title>r10_intermediate_p&#45;&gt;PGH2</title>
<path fill="none" stroke="black" d="M474.045,-115.007C474.974,-115.158 489.984,-117.674 500,-124 517.299,-134.926 533.396,-151.559 544.851,-164.992"/>
<polygon fill="black" stroke="black" points="542.285,-167.382 551.353,-172.862 547.682,-162.924 542.285,-167.382"/>
</g>
<!-- r8 -->
<g id="node35" class="node"><title>r8</title>
<polygon fill="none" stroke="black" points="410,-91 396,-91 396,-77 410,-77 410,-91"/>
</g>
<!-- r8_intermediate_p -->
<g id="node37" class="node"><title>r8_intermediate_p</title>
<ellipse fill="black" stroke="black" cx="473" cy="-84" rx="0.036" ry="0.036"/>
</g>
<!-- r8&#45;&gt;r8_intermediate_p -->
<g id="edge33" class="edge"><title>r8&#45;&gt;r8_intermediate_p</title>
<path fill="none" stroke="black" d="M410.275,-84C426.583,-84 469.222,-84 471.871,-84"/>
</g>
<!-- r8_intermediate_r&#45;&gt;r8 -->
<g id="edge31" class="edge"><title>r8_intermediate_r&#45;&gt;r8</title>
<path fill="none" stroke="black" d="M360.12,-91.9771C361.968,-91.6251 384.602,-87.314 395.803,-85.1804"/>
</g>
<!-- r8_intermediate_p&#45;&gt;HETE -->
<g id="edge34" class="edge"><title>r8_intermediate_p&#45;&gt;HETE</title>
<path fill="none" stroke="black" d="M474.064,-84C475.533,-84 502.103,-84 525.654,-84"/>
<polygon fill="black" stroke="black" points="525.821,-87.5001 535.82,-84 525.82,-80.5001 525.821,-87.5001"/>
</g>
<!-- r4 -->
<g id="node38" class="node"><title>r4</title>
<polygon fill="none" stroke="black" points="410,-156 396,-156 396,-142 410,-142 410,-156"/>
</g>
<!-- r4_empty -->
<g id="node40" class="node"><title>r4_empty</title>
<text text-anchor="middle" x="473" y="-147.5" font-family="Times,serif" font-size="15.00" fill="blue">Ø</text>
</g>
<!-- r4&#45;&gt;r4_empty -->
<g id="edge37" class="edge"><title>r4&#45;&gt;r4_empty</title>
<path fill="none" stroke="black" d="M410.275,-149.185C416.278,-149.361 425.849,-149.643 435.68,-149.932"/>
<polygon fill="black" stroke="black" points="435.781,-153.436 445.88,-150.232 435.987,-146.439 435.781,-153.436"/>
</g>
<!-- r4_intermediate_r&#45;&gt;r4 -->
<g id="edge35" class="edge"><title>r4_intermediate_r&#45;&gt;r4</title>
<path fill="none" stroke="black" d="M360.12,-149C361.968,-149 384.602,-149 395.803,-149"/>
</g>
<!-- r9 -->
<g id="node41" class="node"><title>r9</title>
<polygon fill="none" stroke="black" points="676,-91 662,-91 662,-77 676,-77 676,-91"/>
</g>
<!-- r9_empty -->
<g id="node43" class="node"><title>r9_empty</title>
<text text-anchor="middle" x="739" y="-80.5" font-family="Times,serif" font-size="15.00" fill="blue">Ø</text>
</g>
<!-- r9&#45;&gt;r9_empty -->
<g id="edge40" class="edge"><title>r9&#45;&gt;r9_empty</title>
<path fill="none" stroke="black" d="M676.275,-84C682.278,-84 691.849,-84 701.68,-84"/>
<polygon fill="black" stroke="black" points="701.88,-87.5001 711.88,-84 701.88,-80.5001 701.88,-87.5001"/>
</g>
<!-- r9_intermediate_r&#45;&gt;r9 -->
<g id="edge38" class="edge"><title>r9_intermediate_r&#45;&gt;r9</title>
<path fill="none" stroke="black" d="M627.118,-84C628.921,-84 651.016,-84 661.95,-84"/>
</g>
<!-- r13 -->
<g id="node44" class="node"><title>r13</title>
<polygon fill="none" stroke="black" points="676,-156 662,-156 662,-142 676,-142 676,-156"/>
</g>
<!-- r13_intermediate_p -->
<g id="node46" class="node"><title>r13_intermediate_p</title>
<ellipse fill="black" stroke="black" cx="739" cy="-144" rx="0.036" ry="0.036"/>
</g>
<!-- r13&#45;&gt;r13_intermediate_p -->
<g id="edge43" class="edge"><title>r13&#45;&gt;r13_intermediate_p</title>
<path fill="none" stroke="black" d="M676.275,-148.539C692.583,-147.339 735.222,-144.204 737.871,-144.01"/>
</g>
<!-- r13_intermediate_r&#45;&gt;r13 -->
<g id="edge41" class="edge"><title>r13_intermediate_r&#45;&gt;r13</title>
<path fill="none" stroke="black" d="M627.118,-158.971C628.921,-158.531 651.016,-153.142 661.95,-150.476"/>
</g>
<!-- r13_intermediate_p&#45;&gt;PGE2 -->
<g id="edge44" class="edge"><title>r13_intermediate_p&#45;&gt;PGE2</title>
<path fill="none" stroke="black" d="M740.064,-143.992C741.542,-143.807 768.432,-140.446 792.09,-137.489"/>
<polygon fill="black" stroke="black" points="792.799,-140.927 802.288,-136.214 791.931,-133.981 792.799,-140.927"/>
</g>
<!-- r14 -->
<g id="node47" class="node"><title>r14</title>
<polygon fill="none" stroke="black" points="942,-140 928,-140 928,-126 942,-126 942,-140"/>
</g>
<!-- r14_empty -->
<g id="node49" class="node"><title>r14_empty</title>
<text text-anchor="middle" x="1005" y="-129.5" font-family="Times,serif" font-size="15.00" fill="blue">Ø</text>
</g>
<!-- r14&#45;&gt;r14_empty -->
<g id="edge47" class="edge"><title>r14&#45;&gt;r14_empty</title>
<path fill="none" stroke="black" d="M942.275,-133C948.278,-133 957.849,-133 967.68,-133"/>
<polygon fill="black" stroke="black" points="967.88,-136.5 977.88,-133 967.88,-129.5 967.88,-136.5"/>
</g>
<!-- r14_intermediate_r&#45;&gt;r14 -->
<g id="edge45" class="edge"><title>r14_intermediate_r&#45;&gt;r14</title>
<path fill="none" stroke="black" d="M893.118,-133C894.921,-133 917.016,-133 927.95,-133"/>
</g>
<!-- r15 -->
<g id="node50" class="node"><title>r15</title>
<polygon fill="none" stroke="black" points="676,-237 662,-237 662,-223 676,-223 676,-237"/>
</g>
<!-- r15_intermediate_p -->
<g id="node52" class="node"><title>r15_intermediate_p</title>
<ellipse fill="black" stroke="black" cx="739" cy="-235" rx="0.036" ry="0.036"/>
</g>
<!-- r15&#45;&gt;r15_intermediate_p -->
<g id="edge50" class="edge"><title>r15&#45;&gt;r15_intermediate_p</title>
<path fill="none" stroke="black" d="M676.275,-230.461C692.583,-231.661 735.222,-234.796 737.871,-234.99"/>
</g>
<!-- r15_intermediate_r&#45;&gt;r15 -->
<g id="edge48" class="edge"><title>r15_intermediate_r&#45;&gt;r15</title>
<path fill="none" stroke="black" d="M627.118,-212.052C628.921,-212.843 651.016,-222.544 661.95,-227.344"/>
</g>
<!-- r15_intermediate_p&#45;&gt;PGF2a -->
<g id="edge51" class="edge"><title>r15_intermediate_p&#45;&gt;PGF2a</title>
<path fill="none" stroke="black" d="M740.064,-235.004C741.721,-235.117 775.346,-237.41 800.524,-239.127"/>
<polygon fill="black" stroke="black" points="800.465,-242.631 810.68,-239.819 800.941,-235.647 800.465,-242.631"/>
</g>
<!-- r16 -->
<g id="node53" class="node"><title>r16</title>
<polygon fill="none" stroke="black" points="942,-248 928,-248 928,-234 942,-234 942,-248"/>
</g>
<!-- r16_empty -->
<g id="node55" class="node"><title>r16_empty</title>
<text text-anchor="middle" x="1005" y="-237.5" font-family="Times,serif" font-size="15.00" fill="blue">Ø</text>
</g>
<!-- r16&#45;&gt;r16_empty -->
<g id="edge54" class="edge"><title>r16&#45;&gt;r16_empty</title>
<path fill="none" stroke="black" d="M942.275,-241C948.278,-241 957.849,-241 967.68,-241"/>
<polygon fill="black" stroke="black" points="967.88,-244.5 977.88,-241 967.88,-237.5 967.88,-244.5"/>
</g>
<!-- r16_intermediate_r&#45;&gt;r16 -->
<g id="edge52" class="edge"><title>r16_intermediate_r&#45;&gt;r16</title>
<path fill="none" stroke="black" d="M893.118,-241C894.921,-241 917.016,-241 927.95,-241"/>
</g>
<!-- r17 -->
<g id="node56" class="node"><title>r17</title>
<polygon fill="none" stroke="black" points="676,-194 662,-194 662,-180 676,-180 676,-194"/>
</g>
<!-- r17_intermediate_p -->
<g id="node58" class="node"><title>r17_intermediate_p</title>
<ellipse fill="black" stroke="black" cx="739" cy="-187" rx="0.036" ry="0.036"/>
</g>
<!-- r17&#45;&gt;r17_intermediate_p -->
<g id="edge57" class="edge"><title>r17&#45;&gt;r17_intermediate_p</title>
<path fill="none" stroke="black" d="M676.275,-187C692.583,-187 735.222,-187 737.871,-187"/>
</g>
<!-- r17_intermediate_r&#45;&gt;r17 -->
<g id="edge55" class="edge"><title>r17_intermediate_r&#45;&gt;r17</title>
<path fill="none" stroke="black" d="M627.118,-187C628.921,-187 651.016,-187 661.95,-187"/>
</g>
<!-- r17_intermediate_p&#45;&gt;PGD2 -->
<g id="edge58" class="edge"><title>r17_intermediate_p&#45;&gt;PGD2</title>
<path fill="none" stroke="black" d="M740.064,-187C741.721,-187 775.346,-187 800.524,-187"/>
<polygon fill="black" stroke="black" points="800.68,-190.5 810.68,-187 800.68,-183.5 800.68,-190.5"/>
</g>
<!-- r18 -->
<g id="node59" class="node"><title>r18</title>
<polygon fill="none" stroke="black" points="942,-179 928,-179 928,-165 942,-165 942,-179"/>
</g>
<!-- r18_intermediate_p -->
<g id="node61" class="node"><title>r18_intermediate_p</title>
<ellipse fill="black" stroke="black" cx="1005" cy="-170" rx="0.036" ry="0.036"/>
</g>
<!-- r18&#45;&gt;r18_intermediate_p -->
<g id="edge61" class="edge"><title>r18&#45;&gt;r18_intermediate_p</title>
<path fill="none" stroke="black" d="M942.275,-171.815C958.583,-171.336 1001.22,-170.082 1003.87,-170.004"/>
</g>
<!-- r18_intermediate_r&#45;&gt;r18 -->
<g id="edge59" class="edge"><title>r18_intermediate_r&#45;&gt;r18</title>
<path fill="none" stroke="black" d="M893.118,-175.989C894.921,-175.813 917.016,-173.657 927.95,-172.59"/>
</g>
<!-- r18_intermediate_p&#45;&gt;PGJ2 -->
<g id="edge62" class="edge"><title>r18_intermediate_p&#45;&gt;PGJ2</title>
<path fill="none" stroke="black" d="M1006.06,-169.993C1007.75,-169.803 1042.12,-165.941 1067.63,-163.075"/>
<polygon fill="black" stroke="black" points="1068.35,-166.516 1077.9,-161.921 1067.57,-159.56 1068.35,-166.516"/>
</g>
<!-- r19 -->
<g id="node62" class="node"><title>r19</title>
<polygon fill="none" stroke="black" points="942,-212 928,-212 928,-198 942,-198 942,-212"/>
</g>
<!-- r19_intermediate_p -->
<g id="node64" class="node"><title>r19_intermediate_p</title>
<ellipse fill="black" stroke="black" cx="1005" cy="-205" rx="0.036" ry="0.036"/>
</g>
<!-- r19&#45;&gt;r19_intermediate_p -->
<g id="edge65" class="edge"><title>r19&#45;&gt;r19_intermediate_p</title>
<path fill="none" stroke="black" d="M942.275,-205C958.583,-205 1001.22,-205 1003.87,-205"/>
</g>
<!-- r19_intermediate_r&#45;&gt;r19 -->
<g id="edge63" class="edge"><title>r19_intermediate_r&#45;&gt;r19</title>
<path fill="none" stroke="black" d="M893.118,-196.026C894.921,-196.422 917.016,-201.272 927.95,-203.672"/>
</g>
<!-- r19_intermediate_p&#45;&gt;dPGD2 -->
<g id="edge66" class="edge"><title>r19_intermediate_p&#45;&gt;dPGD2</title>
<path fill="none" stroke="black" d="M1006.06,-205.007C1007.56,-205.157 1034.66,-207.899 1058.56,-210.315"/>
<polygon fill="black" stroke="black" points="1058.22,-213.799 1068.52,-211.323 1058.93,-206.834 1058.22,-213.799"/>
</g>
<!-- r20 -->
<g id="node65" class="node"><title>r20</title>
<polygon fill="none" stroke="black" points="1210,-221 1196,-221 1196,-207 1210,-207 1210,-221"/>
</g>
<!-- r20_empty -->
<g id="node67" class="node"><title>r20_empty</title>
<text text-anchor="middle" x="1273" y="-210.5" font-family="Times,serif" font-size="15.00" fill="blue">Ø</text>
</g>
<!-- r20&#45;&gt;r20_empty -->
<g id="edge69" class="edge"><title>r20&#45;&gt;r20_empty</title>
<path fill="none" stroke="black" d="M1210.28,-214C1216.28,-214 1225.85,-214 1235.68,-214"/>
<polygon fill="black" stroke="black" points="1235.88,-217.5 1245.88,-214 1235.88,-210.5 1235.88,-217.5"/>
</g>
<!-- r20_intermediate_r&#45;&gt;r20 -->
<g id="edge67" class="edge"><title>r20_intermediate_r&#45;&gt;r20</title>
<path fill="none" stroke="black" d="M1161.12,-214C1162.92,-214 1185.02,-214 1195.95,-214"/>
</g>
<!-- r21 -->
<g id="node68" class="node"><title>r21</title>
<polygon fill="none" stroke="black" points="1210,-167 1196,-167 1196,-153 1210,-153 1210,-167"/>
</g>
<!-- r21_intermediate_p -->
<g id="node70" class="node"><title>r21_intermediate_p</title>
<ellipse fill="black" stroke="black" cx="1273" cy="-160" rx="0.036" ry="0.036"/>
</g>
<!-- r21&#45;&gt;r21_intermediate_p -->
<g id="edge72" class="edge"><title>r21&#45;&gt;r21_intermediate_p</title>
<path fill="none" stroke="black" d="M1210.28,-160C1226.58,-160 1269.22,-160 1271.87,-160"/>
</g>
<!-- r21_intermediate_r&#45;&gt;r21 -->
<g id="edge70" class="edge"><title>r21_intermediate_r&#45;&gt;r21</title>
<path fill="none" stroke="black" d="M1161.12,-160C1162.92,-160 1185.02,-160 1195.95,-160"/>
</g>
<!-- r21_intermediate_p&#45;&gt;dPGJ2 -->
<g id="edge73" class="edge"><title>r21_intermediate_p&#45;&gt;dPGJ2</title>
<path fill="none" stroke="black" d="M1274.06,-160C1275.49,-160 1303.65,-160 1325.93,-160"/>
<polygon fill="black" stroke="black" points="1325.94,-163.5 1335.94,-160 1325.94,-156.5 1325.94,-163.5"/>
</g>
<!-- r22 -->
<g id="node71" class="node"><title>r22</title>
<polygon fill="none" stroke="black" points="1458,-167 1444,-167 1444,-153 1458,-153 1458,-167"/>
</g>
<!-- r22_empty -->
<g id="node73" class="node"><title>r22_empty</title>
<text text-anchor="middle" x="1521" y="-156.5" font-family="Times,serif" font-size="15.00" fill="blue">Ø</text>
</g>
<!-- r22&#45;&gt;r22_empty -->
<g id="edge76" class="edge"><title>r22&#45;&gt;r22_empty</title>
<path fill="none" stroke="black" d="M1458.28,-160C1464.28,-160 1473.85,-160 1483.68,-160"/>
<polygon fill="black" stroke="black" points="1483.88,-163.5 1493.88,-160 1483.88,-156.5 1483.88,-163.5"/>
</g>
<!-- r22_intermediate_r&#45;&gt;r22 -->
<g id="edge74" class="edge"><title>r22_intermediate_r&#45;&gt;r22</title>
<path fill="none" stroke="black" d="M1409.12,-160C1410.92,-160 1433.02,-160 1443.95,-160"/>
</g>
<!-- r1 -->
<g id="node74" class="node"><title>r1</title>
<polygon fill="none" stroke="black" points="135,-240 121,-240 121,-226 135,-226 135,-240"/>
</g>
<!-- r1_intermediate_p -->
<g id="node76" class="node"><title>r1_intermediate_p</title>
<ellipse fill="black" stroke="black" cx="183" cy="-200" rx="0.036" ry="0.036"/>
</g>
<!-- r1&#45;&gt;r1_intermediate_p -->
<g id="edge79" class="edge"><title>r1&#45;&gt;r1_intermediate_p</title>
<path fill="none" stroke="black" d="M135.08,-229.214C148.566,-220.817 179.956,-201.273 181.905,-200.059"/>
</g>
<!-- r1&#45;&gt;r1_intermediate_m -->
<g id="edge81" class="edge"><title>r1&#45;&gt;r1_intermediate_m</title>
<path fill="none" stroke="black" d="M135.08,-233.459C148.566,-234.477 179.956,-236.846 181.905,-236.993"/>
</g>
<!-- r1_intermediate_r&#45;&gt;r1 -->
<g id="edge77" class="edge"><title>r1_intermediate_r&#45;&gt;r1</title>
<path fill="none" stroke="black" d="M74.152,-229.011C76.5807,-229.195 107.47,-231.526 120.868,-232.537"/>
</g>
<!-- r1_intermediate_p&#45;&gt;AA -->
<g id="edge80" class="edge"><title>r1_intermediate_p&#45;&gt;AA</title>
<path fill="none" stroke="black" d="M184.062,-199.963C185.515,-199.102 212.073,-183.352 235.284,-169.588"/>
<polygon fill="black" stroke="black" points="237.14,-172.556 243.956,-164.444 233.57,-166.535 237.14,-172.556"/>
</g>
<!-- r6 -->
<g id="node78" class="node"><title>r6</title>
<polygon fill="none" stroke="black" points="135,-144 121,-144 121,-130 135,-130 135,-144"/>
</g>
<!-- r6_intermediate_p -->
<g id="node80" class="node"><title>r6_intermediate_p</title>
<ellipse fill="black" stroke="black" cx="183" cy="-139" rx="0.036" ry="0.036"/>
</g>
<!-- r6&#45;&gt;r6_intermediate_p -->
<g id="edge85" class="edge"><title>r6&#45;&gt;r6_intermediate_p</title>
<path fill="none" stroke="black" d="M135.08,-137.229C148.566,-137.738 179.956,-138.923 181.905,-138.996"/>
</g>
<!-- r6&#45;&gt;r6_intermediate_m -->
<g id="edge87" class="edge"><title>r6&#45;&gt;r6_intermediate_m</title>
<path fill="none" stroke="black" d="M135.122,-141.92C138.579,-144.894 142.829,-148.894 146,-153 165.783,-178.62 181.022,-216.541 181.955,-218.886"/>
</g>
<!-- r6_intermediate_r&#45;&gt;r6 -->
<g id="edge83" class="edge"><title>r6_intermediate_r&#45;&gt;r6</title>
<path fill="none" stroke="black" d="M74.152,-137C76.5807,-137 107.47,-137 120.868,-137"/>
</g>
<!-- r6_intermediate_p&#45;&gt;AA -->
<g id="edge86" class="edge"><title>r6_intermediate_p&#45;&gt;AA</title>
<path fill="none" stroke="black" d="M184.062,-139.007C185.03,-139.12 197.152,-140.529 212.002,-142.256"/>
<polygon fill="black" stroke="black" points="211.728,-145.748 222.065,-143.426 212.536,-138.795 211.728,-145.748"/>
</g>
<!-- r12 -->
<g id="node82" class="node"><title>r12</title>
<polygon fill="none" stroke="black" points="410,-188 396,-188 396,-174 410,-174 410,-188"/>
</g>
<!-- r12_intermediate_p -->
<g id="node84" class="node"><title>r12_intermediate_p</title>
<ellipse fill="black" stroke="black" cx="473" cy="-187" rx="0.036" ry="0.036"/>
</g>
<!-- r12&#45;&gt;r12_intermediate_p -->
<g id="edge91" class="edge"><title>r12&#45;&gt;r12_intermediate_p</title>
<path fill="none" stroke="black" d="M410.275,-181.554C426.583,-182.993 469.222,-186.755 471.871,-186.989"/>
</g>
<!-- r12_intermediate_r&#45;&gt;r12 -->
<g id="edge89" class="edge"><title>r12_intermediate_r&#45;&gt;r12</title>
<path fill="none" stroke="black" d="M360.12,-174.02C361.968,-174.328 384.602,-178.1 395.803,-179.967"/>
</g>
<!-- r12_intermediate_p&#45;&gt;PGH2 -->
<g id="edge92" class="edge"><title>r12_intermediate_p&#45;&gt;PGH2</title>
<path fill="none" stroke="black" d="M474.064,-187C475.721,-187 509.346,-187 534.524,-187"/>
<polygon fill="black" stroke="black" points="534.68,-190.5 544.68,-187 534.68,-183.5 534.68,-190.5"/>
</g>
</g>
</svg>
