<?xml version="1.0" encoding="UTF-8" standalone="no"?>
<!DOCTYPE svg PUBLIC "-//W3C//DTD SVG 1.1//EN"
 "http://www.w3.org/Graphics/SVG/1.1/DTD/svg11.dtd">
<!-- Generated by graphviz version 2.30.1 (20140821.0912)
 -->
<!-- Title: G Pages: 1 -->
<svg width="798pt" height="116pt"
 viewBox="0.00 0.00 798.00 116.00" xmlns="http://www.w3.org/2000/svg" xmlns:xlink="http://www.w3.org/1999/xlink">
<g id="graph0" class="graph" transform="scale(1 1) rotate(0) translate(4 112)">
<title>G</title>
<polygon fill="white" stroke="white" points="-4,5 -4,-112 795,-112 795,5 -4,5"/>
<!-- A_dopa -->
<g id="A_dopa [CHEBI:15765]" class="node"><title>A_dopa</title>
<ellipse fill="none" stroke="black" cx="30" cy="-38" rx="29.3664" ry="18"/>
<text text-anchor="middle" x="30" y="-35.5" font-family="Times,serif" font-size="10.00">A_dopa</text>
</g>
<!-- l_dopa_absorption_intermediate_r -->
<g id="node5" class="node"><title>l_dopa_absorption_intermediate_r</title>
<ellipse fill="black" stroke="black" cx="96" cy="-49" rx="0.036" ry="0.036"/>
</g>
<!-- A_dopa&#45;&gt;l_dopa_absorption_intermediate_r -->
<g id="edge2" class="edge"><title>A_dopa&#45;&gt;l_dopa_absorption_intermediate_r</title>
<path fill="none" stroke="black" d="M58.5132,-42.7288C75.3173,-45.617 93.8055,-48.7947 94.9446,-48.9905"/>
</g>
<!-- l_dopa_blood_hepa_clearance_intermediate_r -->
<g id="node8" class="node"><title>l_dopa_blood_hepa_clearance_intermediate_r</title>
<ellipse fill="black" stroke="black" cx="96" cy="-27" rx="0.036" ry="0.036"/>
</g>
<!-- A_dopa&#45;&gt;l_dopa_blood_hepa_clearance_intermediate_r -->
<g id="edge6" class="edge"><title>A_dopa&#45;&gt;l_dopa_blood_hepa_clearance_intermediate_r</title>
<path fill="none" stroke="black" d="M58.5132,-33.2712C75.3173,-30.383 93.8055,-27.2053 94.9446,-27.0095"/>
</g>
<!-- C_dopa -->
<g id="C_dopa [CHEBI:15765]" class="node"><title>C_dopa</title>
<ellipse fill="none" stroke="black" cx="301" cy="-54" rx="28.6898" ry="18"/>
<text text-anchor="middle" x="301" y="-51.5" font-family="Times,serif" font-size="10.00">C_dopa</text>
</g>
<!-- AADC_clearance_intermediate_r -->
<g id="node11" class="node"><title>AADC_clearance_intermediate_r</title>
<ellipse fill="black" stroke="black" cx="366" cy="-79" rx="0.036" ry="0.036"/>
</g>
<!-- C_dopa&#45;&gt;AADC_clearance_intermediate_r -->
<g id="edge9" class="edge"><title>C_dopa&#45;&gt;AADC_clearance_intermediate_r</title>
<path fill="none" stroke="black" d="M325.818,-63.4514C343.101,-70.3098 363.67,-78.472 364.938,-78.9755"/>
</g>
<!-- COMT_clearance_intermediate_r -->
<g id="node14" class="node"><title>COMT_clearance_intermediate_r</title>
<ellipse fill="black" stroke="black" cx="366" cy="-54" rx="0.036" ry="0.036"/>
</g>
<!-- C_dopa&#45;&gt;COMT_clearance_intermediate_r -->
<g id="edge12" class="edge"><title>C_dopa&#45;&gt;COMT_clearance_intermediate_r</title>
<path fill="none" stroke="black" d="M330.183,-54C346.433,-54 363.874,-54 364.948,-54"/>
</g>
<!-- rest_clearance_intermediate_r -->
<g id="node17" class="node"><title>rest_clearance_intermediate_r</title>
<ellipse fill="black" stroke="black" cx="366" cy="-29" rx="0.036" ry="0.036"/>
</g>
<!-- C_dopa&#45;&gt;rest_clearance_intermediate_r -->
<g id="edge16" class="edge"><title>C_dopa&#45;&gt;rest_clearance_intermediate_r</title>
<path fill="none" stroke="black" d="M325.818,-44.5486C343.101,-37.6902 363.67,-29.528 364.938,-29.0245"/>
</g>
<!-- C_OMD -->
<g id="C_OMD [CHEBI:25212]" class="node"><title>C_OMD</title>
<ellipse fill="none" stroke="black" cx="578" cy="-54" rx="35.8171" ry="18"/>
<text text-anchor="middle" x="578" y="-51.5" font-family="Times,serif" font-size="10.00">C_3&#45;OMD</text>
</g>
<!-- _3_OMD_clearance_intermediate_r -->
<g id="node20" class="node"><title>_3_OMD_clearance_intermediate_r</title>
<ellipse fill="black" stroke="black" cx="650" cy="-54" rx="0.036" ry="0.036"/>
</g>
<!-- C_OMD&#45;&gt;_3_OMD_clearance_intermediate_r -->
<g id="edge19" class="edge"><title>C_OMD&#45;&gt;_3_OMD_clearance_intermediate_r</title>
<path fill="none" stroke="black" d="M614,-54C630.953,-54 647.906,-54 648.949,-54"/>
</g>
<!-- l_dopa_absorption -->
<g id="node4" class="node"><title>l_dopa_absorption</title>
<polygon fill="none" stroke="black" points="146,-60 132,-60 132,-46 146,-46 146,-60"/>
</g>
<!-- l_dopa_absorption_intermediate_p -->
<g id="node6" class="node"><title>l_dopa_absorption_intermediate_p</title>
<ellipse fill="black" stroke="black" cx="209" cy="-54" rx="0.036" ry="0.036"/>
</g>
<!-- l_dopa_absorption&#45;&gt;l_dopa_absorption_intermediate_p -->
<g id="edge3" class="edge"><title>l_dopa_absorption&#45;&gt;l_dopa_absorption_intermediate_p</title>
<path fill="none" stroke="black" d="M146.275,-53.0923C162.583,-53.3321 205.222,-53.9591 207.871,-53.9981"/>
</g>
<!-- l_dopa_absorption_intermediate_r&#45;&gt;l_dopa_absorption -->
<g id="edge1" class="edge"><title>l_dopa_absorption_intermediate_r&#45;&gt;l_dopa_absorption</title>
<path fill="none" stroke="black" d="M97.1176,-49.0115C98.9212,-49.1874 121.016,-51.343 131.95,-52.4098"/>
</g>
<!-- l_dopa_absorption_intermediate_p&#45;&gt;C_dopa -->
<g id="edge4" class="edge"><title>l_dopa_absorption_intermediate_p&#45;&gt;C_dopa</title>
<path fill="none" stroke="black" d="M210.065,-54C211.54,-54 237.744,-54 261.487,-54"/>
<polygon fill="black" stroke="black" points="261.778,-57.5001 271.778,-54 261.778,-50.5001 261.778,-57.5001"/>
</g>
<!-- l_dopa_blood_hepa_clearance -->
<g id="node7" class="node"><title>l_dopa_blood_hepa_clearance</title>
<polygon fill="none" stroke="black" points="146,-27 132,-27 132,-13 146,-13 146,-27"/>
</g>
<!-- l_dopa_blood_hepa_clearance_empty -->
<g id="node9" class="node"><title>l_dopa_blood_hepa_clearance_empty</title>
<text text-anchor="middle" x="209" y="-14.5" font-family="Times,serif" font-size="15.00" fill="blue">Ø</text>
</g>
<!-- l_dopa_blood_hepa_clearance&#45;&gt;l_dopa_blood_hepa_clearance_empty -->
<g id="edge7" class="edge"><title>l_dopa_blood_hepa_clearance&#45;&gt;l_dopa_blood_hepa_clearance_empty</title>
<path fill="none" stroke="black" d="M146.275,-19.8154C152.278,-19.6389 161.849,-19.3574 171.68,-19.0682"/>
<polygon fill="black" stroke="black" points="171.987,-22.5608 181.88,-18.7682 171.781,-15.5638 171.987,-22.5608"/>
</g>
<!-- l_dopa_blood_hepa_clearance_intermediate_r&#45;&gt;l_dopa_blood_hepa_clearance -->
<g id="edge5" class="edge"><title>l_dopa_blood_hepa_clearance_intermediate_r&#45;&gt;l_dopa_blood_hepa_clearance</title>
<path fill="none" stroke="black" d="M97.1176,-26.9799C98.9212,-26.672 121.016,-22.8997 131.95,-21.0329"/>
</g>
<!-- AADC_clearance -->
<g id="node10" class="node"><title>AADC_clearance</title>
<polygon fill="none" stroke="black" points="416,-95 402,-95 402,-81 416,-81 416,-95"/>
</g>
<!-- AADC_clearance_empty -->
<g id="node12" class="node"><title>AADC_clearance_empty</title>
<text text-anchor="middle" x="479" y="-86.5" font-family="Times,serif" font-size="15.00" fill="blue">Ø</text>
</g>
<!-- AADC_clearance&#45;&gt;AADC_clearance_empty -->
<g id="edge10" class="edge"><title>AADC_clearance&#45;&gt;AADC_clearance_empty</title>
<path fill="none" stroke="black" d="M416.275,-88.1846C422.278,-88.3611 431.849,-88.6426 441.68,-88.9318"/>
<polygon fill="black" stroke="black" points="441.781,-92.4362 451.88,-89.2318 441.987,-85.4392 441.781,-92.4362"/>
</g>
<!-- AADC_clearance_intermediate_r&#45;&gt;AADC_clearance -->
<g id="edge8" class="edge"><title>AADC_clearance_intermediate_r&#45;&gt;AADC_clearance</title>
<path fill="none" stroke="black" d="M367.118,-79.0258C368.921,-79.4217 391.016,-84.2718 401.95,-86.672"/>
</g>
<!-- COMT_clearance -->
<g id="node13" class="node"><title>COMT_clearance</title>
<polygon fill="none" stroke="black" points="416,-61 402,-61 402,-47 416,-47 416,-61"/>
</g>
<!-- COMT_clearance_intermediate_p -->
<g id="node15" class="node"><title>COMT_clearance_intermediate_p</title>
<ellipse fill="black" stroke="black" cx="479" cy="-54" rx="0.036" ry="0.036"/>
</g>
<!-- COMT_clearance&#45;&gt;COMT_clearance_intermediate_p -->
<g id="edge13" class="edge"><title>COMT_clearance&#45;&gt;COMT_clearance_intermediate_p</title>
<path fill="none" stroke="black" d="M416.275,-54C432.583,-54 475.222,-54 477.871,-54"/>
</g>
<!-- COMT_clearance_intermediate_r&#45;&gt;COMT_clearance -->
<g id="edge11" class="edge"><title>COMT_clearance_intermediate_r&#45;&gt;COMT_clearance</title>
<path fill="none" stroke="black" d="M367.118,-54C368.921,-54 391.016,-54 401.95,-54"/>
</g>
<!-- COMT_clearance_intermediate_p&#45;&gt;C_OMD -->
<g id="edge14" class="edge"><title>COMT_clearance_intermediate_p&#45;&gt;C_OMD</title>
<path fill="none" stroke="black" d="M480.07,-54C481.588,-54 507.416,-54 532.026,-54"/>
<polygon fill="black" stroke="black" points="532.062,-57.5001 542.062,-54 532.062,-50.5001 532.062,-57.5001"/>
</g>
<!-- rest_clearance -->
<g id="node16" class="node"><title>rest_clearance</title>
<polygon fill="none" stroke="black" points="416,-27 402,-27 402,-13 416,-13 416,-27"/>
</g>
<!-- rest_clearance_empty -->
<g id="node18" class="node"><title>rest_clearance_empty</title>
<text text-anchor="middle" x="479" y="-14.5" font-family="Times,serif" font-size="15.00" fill="blue">Ø</text>
</g>
<!-- rest_clearance&#45;&gt;rest_clearance_empty -->
<g id="edge17" class="edge"><title>rest_clearance&#45;&gt;rest_clearance_empty</title>
<path fill="none" stroke="black" d="M416.275,-19.8154C422.278,-19.6389 431.849,-19.3574 441.68,-19.0682"/>
<polygon fill="black" stroke="black" points="441.987,-22.5608 451.88,-18.7682 441.781,-15.5638 441.987,-22.5608"/>
</g>
<!-- rest_clearance_intermediate_r&#45;&gt;rest_clearance -->
<g id="edge15" class="edge"><title>rest_clearance_intermediate_r&#45;&gt;rest_clearance</title>
<path fill="none" stroke="black" d="M367.118,-28.9742C368.921,-28.5783 391.016,-23.7282 401.95,-21.328"/>
</g>
<!-- _3_OMD_clearance -->
<g id="node19" class="node"><title>_3_OMD_clearance</title>
<polygon fill="none" stroke="black" points="700,-61 686,-61 686,-47 700,-47 700,-61"/>
</g>
<!-- _3_OMD_clearance_empty -->
<g id="node21" class="node"><title>_3_OMD_clearance_empty</title>
<text text-anchor="middle" x="763" y="-50.5" font-family="Times,serif" font-size="15.00" fill="blue">Ø</text>
</g>
<!-- _3_OMD_clearance&#45;&gt;_3_OMD_clearance_empty -->
<g id="edge20" class="edge"><title>_3_OMD_clearance&#45;&gt;_3_OMD_clearance_empty</title>
<path fill="none" stroke="black" d="M700.275,-54C706.278,-54 715.849,-54 725.68,-54"/>
<polygon fill="black" stroke="black" points="725.88,-57.5001 735.88,-54 725.88,-50.5001 725.88,-57.5001"/>
</g>
<!-- _3_OMD_clearance_intermediate_r&#45;&gt;_3_OMD_clearance -->
<g id="edge18" class="edge"><title>_3_OMD_clearance_intermediate_r&#45;&gt;_3_OMD_clearance</title>
<path fill="none" stroke="black" d="M651.118,-54C652.921,-54 675.016,-54 685.95,-54"/>
</g>
</g>
</svg>
