<?xml version="1.0" encoding="UTF-8" standalone="no"?>
<!DOCTYPE svg PUBLIC "-//W3C//DTD SVG 1.1//EN"
 "http://www.w3.org/Graphics/SVG/1.1/DTD/svg11.dtd">
<!-- Generated by graphviz version 2.24.0 (20090616.2323)
 -->
<!-- Title: G Pages: 1 -->
<svg width="806pt" height="215pt"
 viewBox="0.00 0.00 806.00 215.00" xmlns="http://www.w3.org/2000/svg" xmlns:xlink="http://www.w3.org/1999/xlink">
<g id="graph1" class="graph" transform="scale(1 1) rotate(0) translate(4 211)">
<title>G</title>
<polygon fill="white" stroke="white" points="-4,5 -4,-211 803,-211 803,5 -4,5"/>
<!-- Z -->
<g id="node1" class="node"><title>Z</title>
<ellipse fill="none" stroke="black" cx="342" cy="-54" rx="18" ry="18"/>
<text text-anchor="middle" x="342" y="-51.5" font-family="Times Roman,serif" font-size="10.00">Z</text>
</g>
<!-- R2_intermediate_r -->
<g id="node18" class="node"><title>R2_intermediate_r</title>
<ellipse fill="black" stroke="black" cx="461" cy="-38" rx="0.036" ry="0.036"/>
</g>
<!-- Z&#45;&gt;R2_intermediate_r -->
<g id="edge16" class="edge"><title>Z&#45;&gt;R2_intermediate_r</title>
<path fill="none" stroke="black" d="M360.074,-51.5699C392.843,-47.1639 458.895,-38.2831 460.951,-38.0066"/>
</g>
<!-- R_eff_intermediate_r -->
<g id="node39" class="node"><title>R_eff_intermediate_r</title>
<ellipse fill="black" stroke="black" cx="461" cy="-60" rx="0.036" ry="0.036"/>
</g>
<!-- Z&#45;&gt;R_eff_intermediate_r -->
<g id="edge40" class="edge"><title>Z&#45;&gt;R_eff_intermediate_r</title>
<path fill="none" stroke="black" d="M360.074,-54.9113C392.843,-56.5635 458.895,-59.8939 460.951,-59.9975"/>
</g>
<!-- Y -->
<g id="node2" class="node"><title>Y</title>
<ellipse fill="none" stroke="black" cx="656" cy="-46" rx="18" ry="18"/>
<text text-anchor="middle" x="656" y="-43.5" font-family="Times Roman,serif" font-size="10.00">Y</text>
</g>
<!-- R3_intermediate_r -->
<g id="node25" class="node"><title>R3_intermediate_r</title>
<ellipse fill="black" stroke="black" cx="711" cy="-68" rx="0.036" ry="0.036"/>
</g>
<!-- Y&#45;&gt;R3_intermediate_r -->
<g id="edge24" class="edge"><title>Y&#45;&gt;R3_intermediate_r</title>
<path fill="none" stroke="black" d="M672.801,-52.7203C688.47,-58.9879 709.629,-67.4517 710.936,-67.9745"/>
</g>
<!-- Rf_intermediate_r -->
<g id="node32" class="node"><title>Rf_intermediate_r</title>
<ellipse fill="black" stroke="black" cx="711" cy="-43" rx="0.036" ry="0.036"/>
</g>
<!-- Y&#45;&gt;Rf_intermediate_r -->
<g id="edge32" class="edge"><title>Y&#45;&gt;Rf_intermediate_r</title>
<path fill="none" stroke="black" d="M674.009,-45.0177C689.548,-44.1701 709.695,-43.0712 710.939,-43.0033"/>
</g>
<!-- Wt -->
<g id="node3" class="node"><title>Wt</title>
<ellipse fill="none" stroke="black" cx="139" cy="-189" rx="49.247" ry="18"/>
<text text-anchor="middle" x="139" y="-186.5" font-family="Times Roman,serif" font-size="10.00">Total Protein</text>
</g>
<!-- Protein_Phosphorylation_intermediate_m -->
<g id="node50" class="node"><title>Protein_Phosphorylation_intermediate_m</title>
<ellipse fill="black" stroke="black" cx="224" cy="-176" rx="0.036" ry="0.036"/>
</g>
<!-- Wt&#45;&gt;Protein_Phosphorylation_intermediate_m -->
<g id="edge52" class="edge"><title>Wt&#45;&gt;Protein_Phosphorylation_intermediate_m</title>
<path fill="none" stroke="black" d="M184.486,-182.043C204.064,-179.049 222.793,-176.185 223.944,-176.009"/>
</g>
<!-- W_star -->
<g id="node4" class="node"><title>W_star</title>
<ellipse fill="none" stroke="black" cx="342" cy="-146" rx="81.8731" ry="18"/>
<text text-anchor="middle" x="342" y="-143.5" font-family="Times Roman,serif" font-size="10.00">Phosphorylated protein</text>
</g>
<!-- R0 -->
<g id="node5" class="node"><title>R0</title>
<polygon fill="none" stroke="black" points="146,-90 132,-90 132,-76 146,-76 146,-90"/>
</g>
<!-- R0_intermediate_p -->
<g id="node8" class="node"><title>R0_intermediate_p</title>
<ellipse fill="black" stroke="black" cx="224" cy="-65" rx="0.036" ry="0.036"/>
</g>
<!-- R0&#45;&gt;R0_intermediate_p -->
<g id="edge4" class="edge"><title>R0&#45;&gt;R0_intermediate_p</title>
<path fill="none" stroke="black" d="M146.247,-81.4653C166.16,-77.2485 220.461,-65.7494 223.835,-65.0349"/>
</g>
<!-- R0_empty -->
<g id="node6" class="node"><title>R0_empty</title>
<text text-anchor="middle" x="27" y="-87.5" font-family="Times Roman,serif" font-size="15.00" fill="blue">Ø</text>
</g>
<!-- R0_empty&#45;&gt;R0 -->
<g id="edge2" class="edge"><title>R0_empty&#45;&gt;R0</title>
<path fill="none" stroke="black" d="M54.1121,-89.8214C79.749,-87.7612 116.509,-84.8073 131.85,-83.5745"/>
</g>
<!-- R0_intermediate_p&#45;&gt;Z -->
<g id="edge6" class="edge"><title>R0_intermediate_p&#45;&gt;Z</title>
<path fill="none" stroke="black" d="M224.086,-64.992C226.497,-64.7672 279.377,-59.8377 313.495,-56.6572"/>
<polygon fill="black" stroke="black" points="314.193,-60.1074 323.825,-55.6943 313.543,-53.1376 314.193,-60.1074"/>
</g>
<!-- R1 -->
<g id="node11" class="node"><title>R1</title>
<polygon fill="none" stroke="black" points="146,-47 132,-47 132,-33 146,-33 146,-47"/>
</g>
<!-- R1_intermediate_p -->
<g id="node14" class="node"><title>R1_intermediate_p</title>
<ellipse fill="black" stroke="black" cx="224" cy="-43" rx="0.036" ry="0.036"/>
</g>
<!-- R1&#45;&gt;R1_intermediate_p -->
<g id="edge10" class="edge"><title>R1&#45;&gt;R1_intermediate_p</title>
<path fill="none" stroke="black" d="M146.247,-40.2558C166.16,-40.9586 220.461,-42.8751 223.835,-42.9942"/>
</g>
<!-- R1_empty -->
<g id="node12" class="node"><title>R1_empty</title>
<text text-anchor="middle" x="27" y="-33.5" font-family="Times Roman,serif" font-size="15.00" fill="blue">Ø</text>
</g>
<!-- R1_empty&#45;&gt;R1 -->
<g id="edge8" class="edge"><title>R1_empty&#45;&gt;R1</title>
<path fill="none" stroke="black" d="M54.1121,-38.4841C79.749,-38.9419 116.509,-39.5984 131.85,-39.8723"/>
</g>
<!-- R1_intermediate_p&#45;&gt;Z -->
<g id="edge12" class="edge"><title>R1_intermediate_p&#45;&gt;Z</title>
<path fill="none" stroke="black" d="M224.086,-43.008C226.497,-43.2328 279.377,-48.1623 313.495,-51.3428"/>
<polygon fill="black" stroke="black" points="313.543,-54.8624 323.825,-52.3057 314.193,-47.8926 313.543,-54.8624"/>
</g>
<!-- R2 -->
<g id="node17" class="node"><title>R2</title>
<polygon fill="none" stroke="black" points="512,-42 498,-42 498,-28 512,-28 512,-42"/>
</g>
<!-- R2_intermediate_p -->
<g id="node21" class="node"><title>R2_intermediate_p</title>
<ellipse fill="black" stroke="black" cx="575" cy="-31" rx="0.036" ry="0.036"/>
</g>
<!-- R2&#45;&gt;R2_intermediate_p -->
<g id="edge18" class="edge"><title>R2&#45;&gt;R2_intermediate_p</title>
<path fill="none" stroke="black" d="M512.228,-34.587C529.554,-33.5969 572.221,-31.1588 574.871,-31.0074"/>
</g>
<!-- R2_intermediate_r&#45;&gt;R2 -->
<g id="edge14" class="edge"><title>R2_intermediate_r&#45;&gt;R2</title>
<path fill="none" stroke="black" d="M461.126,-37.9914C463.022,-37.8622 485.795,-36.3095 497.759,-35.4937"/>
</g>
<!-- R2_intermediate_p&#45;&gt;Y -->
<g id="edge20" class="edge"><title>R2_intermediate_p&#45;&gt;Y</title>
<path fill="none" stroke="black" d="M575.059,-31.0109C576.529,-31.2832 605.334,-36.6175 628.167,-40.8457"/>
<polygon fill="black" stroke="black" points="627.647,-44.309 638.118,-42.6885 628.922,-37.426 627.647,-44.309"/>
</g>
<!-- R3 -->
<g id="node24" class="node"><title>R3</title>
<polygon fill="none" stroke="black" points="762,-82 748,-82 748,-68 762,-68 762,-82"/>
</g>
<!-- R3_intermediate_p -->
<g id="node28" class="node"><title>R3_intermediate_p</title>
<ellipse fill="black" stroke="black" cx="798" cy="-94" rx="0.036" ry="0.036"/>
</g>
<!-- R3&#45;&gt;R3_intermediate_p -->
<g id="edge26" class="edge"><title>R3&#45;&gt;R3_intermediate_p</title>
<path fill="none" stroke="black" d="M762.101,-78.1375C773.932,-83.3654 796.531,-93.3508 797.932,-93.9698"/>
</g>
<!-- R3_intermediate_r&#45;&gt;R3 -->
<g id="edge22" class="edge"><title>R3_intermediate_r&#45;&gt;R3</title>
<path fill="none" stroke="black" d="M711.126,-68.0201C713.022,-68.3216 735.795,-71.9446 747.759,-73.848"/>
</g>
<!-- R3_intermediate_p&#45;&gt;Z -->
<g id="edge28" class="edge"><title>R3_intermediate_p&#45;&gt;Z</title>
<path fill="none" stroke="black" d="M797.863,-94.0545C795.044,-95.1689 749.341,-113 711,-113 505,-113 505,-113 505,-113 453.18,-113 397.327,-86.3084 366.311,-68.8311"/>
<polygon fill="black" stroke="black" points="367.923,-65.7202 357.514,-63.7427 364.418,-71.7795 367.923,-65.7202"/>
</g>
<!-- Rf -->
<g id="node31" class="node"><title>Rf</title>
<polygon fill="none" stroke="black" points="762,-47 748,-47 748,-33 762,-33 762,-47"/>
</g>
<!-- Rf_intermediate_p -->
<g id="node35" class="node"><title>Rf_intermediate_p</title>
<ellipse fill="black" stroke="black" cx="798" cy="-20" rx="0.036" ry="0.036"/>
</g>
<!-- Rf&#45;&gt;Rf_intermediate_p -->
<g id="edge34" class="edge"><title>Rf&#45;&gt;Rf_intermediate_p</title>
<path fill="none" stroke="black" d="M762.101,-36.6974C773.932,-31.1944 796.531,-20.6833 797.932,-20.0318"/>
</g>
<!-- Rf_intermediate_r&#45;&gt;Rf -->
<g id="edge30" class="edge"><title>Rf_intermediate_r&#45;&gt;Rf</title>
<path fill="none" stroke="black" d="M711.126,-42.9914C713.022,-42.8622 735.795,-41.3095 747.759,-40.4937"/>
</g>
<!-- Rf_intermediate_p&#45;&gt;Z -->
<g id="edge36" class="edge"><title>Rf_intermediate_p&#45;&gt;Z</title>
<path fill="none" stroke="black" d="M797.863,-19.9426C795.05,-18.7695 749.435,-0 711,-0 505,-0 505,-0 505,-0 453.939,-0 398.237,-24.1732 366.962,-40.1725"/>
<polygon fill="black" stroke="black" points="365.3,-37.0923 358.073,-44.8396 368.554,-43.2901 365.3,-37.0923"/>
</g>
<!-- R_eff -->
<g id="node38" class="node"><title>R_eff</title>
<polygon fill="none" stroke="black" points="512,-74 498,-74 498,-60 512,-60 512,-74"/>
</g>
<!-- R_eff_empty -->
<g id="node42" class="node"><title>R_eff_empty</title>
<text text-anchor="middle" x="575" y="-62.5" font-family="Times Roman,serif" font-size="15.00" fill="blue">Ø</text>
</g>
<!-- R_eff&#45;&gt;R_eff_empty -->
<g id="edge42" class="edge"><title>R_eff&#45;&gt;R_eff_empty</title>
<path fill="none" stroke="black" d="M512.228,-67C518.45,-67 527.94,-67 537.672,-67"/>
<polygon fill="black" stroke="black" points="537.773,-70.5001 547.773,-67 537.773,-63.5001 537.773,-70.5001"/>
</g>
<!-- R_eff_intermediate_r&#45;&gt;R_eff -->
<g id="edge38" class="edge"><title>R_eff_intermediate_r&#45;&gt;R_eff</title>
<path fill="none" stroke="black" d="M461.126,-60.0201C463.022,-60.3216 485.795,-63.9446 497.759,-65.848"/>
</g>
<!-- Protein_Phosphorylation -->
<g id="node44" class="node"><title>Protein_Phosphorylation</title>
<polygon fill="none" stroke="black" points="146,-153 132,-153 132,-139 146,-139 146,-153"/>
</g>
<!-- Protein_Phosphorylation_intermediate_p -->
<g id="node47" class="node"><title>Protein_Phosphorylation_intermediate_p</title>
<ellipse fill="black" stroke="black" cx="224" cy="-146" rx="0.036" ry="0.036"/>
</g>
<!-- Protein_Phosphorylation&#45;&gt;Protein_Phosphorylation_intermediate_p -->
<g id="edge46" class="edge"><title>Protein_Phosphorylation&#45;&gt;Protein_Phosphorylation_intermediate_p</title>
<path fill="none" stroke="black" d="M146.247,-146C166.16,-146 220.461,-146 223.835,-146"/>
</g>
<!-- Protein_Phosphorylation&#45;&gt;Protein_Phosphorylation_intermediate_m -->
<g id="edge50" class="edge"><title>Protein_Phosphorylation&#45;&gt;Protein_Phosphorylation_intermediate_m</title>
<path fill="none" stroke="black" d="M157.638,-151.819C166.821,-154.753 178.035,-158.439 188,-162 203.661,-167.597 222.764,-175.488 223.943,-175.976"/>
<polygon fill="none" stroke="black" points="157.465,-151.764 150.54,-153.776 146.02,-148.158 152.944,-146.146 157.465,-151.764"/>
</g>
<!-- Protein_Phosphorylation_empty -->
<g id="node45" class="node"><title>Protein_Phosphorylation_empty</title>
<text text-anchor="middle" x="27" y="-141.5" font-family="Times Roman,serif" font-size="15.00" fill="blue">Ø</text>
</g>
<!-- Protein_Phosphorylation_empty&#45;&gt;Protein_Phosphorylation -->
<g id="edge44" class="edge"><title>Protein_Phosphorylation_empty&#45;&gt;Protein_Phosphorylation</title>
<path fill="none" stroke="black" d="M54.1121,-146C79.749,-146 116.509,-146 131.85,-146"/>
</g>
<!-- Protein_Phosphorylation_intermediate_p&#45;&gt;W_star -->
<g id="edge48" class="edge"><title>Protein_Phosphorylation_intermediate_p&#45;&gt;W_star</title>
<path fill="none" stroke="black" d="M224.086,-146C225.118,-146 235.389,-146 249.478,-146"/>
<polygon fill="black" stroke="black" points="249.774,-149.5 259.774,-146 249.774,-142.5 249.774,-149.5"/>
</g>
</g>
</svg>
