<?xml version="1.0" encoding="UTF-8" standalone="no"?>
<!DOCTYPE svg PUBLIC "-//W3C//DTD SVG 1.1//EN"
 "http://www.w3.org/Graphics/SVG/1.1/DTD/svg11.dtd">
<!-- Generated by graphviz version 2.24.0 (20090616.2323)
 -->
<!-- Title: G Pages: 1 -->
<svg width="716pt" height="164pt"
 viewBox="0.00 0.00 716.00 164.00" xmlns="http://www.w3.org/2000/svg" xmlns:xlink="http://www.w3.org/1999/xlink">
<g id="graph1" class="graph" transform="scale(1 1) rotate(0) translate(4 160)">
<title>G</title>
<polygon fill="white" stroke="white" points="-4,5 -4,-160 713,-160 713,5 -4,5"/>
<!-- R -->
<g id="node1" class="node"><title>R</title>
<ellipse fill="none" stroke="black" cx="481" cy="-138" rx="27" ry="18"/>
<text text-anchor="middle" x="481" y="-135.5" font-family="Times Roman,serif" font-size="10.00">R</text>
</g>
<!-- r2_intermediate_r -->
<g id="node26" class="node"><title>r2_intermediate_r</title>
<ellipse fill="black" stroke="black" cx="545" cy="-138" rx="0.036" ry="0.036"/>
</g>
<!-- R&#45;&gt;r2_intermediate_r -->
<g id="edge26" class="edge"><title>R&#45;&gt;r2_intermediate_r</title>
<path fill="none" stroke="black" d="M508.142,-138C525.04,-138 543.788,-138 544.944,-138"/>
</g>
<!-- r3_intermediate_m -->
<g id="node38" class="node"><title>r3_intermediate_m</title>
<ellipse fill="black" stroke="black" cx="545" cy="-106" rx="0.036" ry="0.036"/>
</g>
<!-- R&#45;&gt;r3_intermediate_m -->
<g id="edge40" class="edge"><title>R&#45;&gt;r3_intermediate_m</title>
<path fill="none" stroke="black" d="M502.667,-127.166C520.654,-118.173 543.52,-106.74 544.931,-106.034"/>
</g>
<!-- X -->
<g id="node2" class="node"><title>X</title>
<ellipse fill="none" stroke="black" cx="243" cy="-132" rx="27" ry="18"/>
<text text-anchor="middle" x="243" y="-129.5" font-family="Times Roman,serif" font-size="10.00">X</text>
</g>
<!-- r0_intermediate_r -->
<g id="node7" class="node"><title>r0_intermediate_r</title>
<ellipse fill="black" stroke="black" cx="307" cy="-132" rx="0.036" ry="0.036"/>
</g>
<!-- X&#45;&gt;r0_intermediate_r -->
<g id="edge4" class="edge"><title>X&#45;&gt;r0_intermediate_r</title>
<path fill="none" stroke="black" d="M270.142,-132C287.04,-132 305.788,-132 306.944,-132"/>
</g>
<!-- S -->
<g id="node3" class="node"><title>S</title>
<ellipse fill="none" stroke="black" cx="117" cy="-89" rx="27" ry="18"/>
<text text-anchor="middle" x="117" y="-86.5" font-family="Times Roman,serif" font-size="10.00">S</text>
</g>
<!-- r1_intermediate_m -->
<g id="node22" class="node"><title>r1_intermediate_m</title>
<ellipse fill="black" stroke="black" cx="180" cy="-101" rx="0.036" ry="0.036"/>
</g>
<!-- S&#45;&gt;r1_intermediate_m -->
<g id="edge22" class="edge"><title>S&#45;&gt;r1_intermediate_m</title>
<path fill="none" stroke="black" d="M142.988,-93.9501C159.8,-97.1524 178.774,-100.766 179.943,-100.989"/>
</g>
<!-- Ep -->
<g id="node4" class="node"><title>Ep</title>
<ellipse fill="none" stroke="black" cx="362" cy="-46" rx="18" ry="18"/>
<text text-anchor="middle" x="362" y="-43.5" font-family="Times Roman,serif" font-size="10.00">Ep</text>
</g>
<!-- r0_intermediate_m -->
<g id="node13" class="node"><title>r0_intermediate_m</title>
<ellipse fill="black" stroke="black" cx="417" cy="-64" rx="0.036" ry="0.036"/>
</g>
<!-- Ep&#45;&gt;r0_intermediate_m -->
<g id="edge12" class="edge"><title>Ep&#45;&gt;r0_intermediate_m</title>
<path fill="none" stroke="black" d="M379.402,-51.6953C395.012,-56.804 415.662,-63.5623 416.938,-63.9797"/>
</g>
<!-- r4_intermediate_r -->
<g id="node42" class="node"><title>r4_intermediate_r</title>
<ellipse fill="black" stroke="black" cx="417" cy="-46" rx="0.036" ry="0.036"/>
</g>
<!-- Ep&#45;&gt;r4_intermediate_r -->
<g id="edge44" class="edge"><title>Ep&#45;&gt;r4_intermediate_r</title>
<path fill="none" stroke="black" d="M380.009,-46C395.548,-46 415.695,-46 416.939,-46"/>
</g>
<!-- E -->
<g id="node5" class="node"><title>E</title>
<ellipse fill="none" stroke="black" cx="600" cy="-46" rx="18" ry="18"/>
<text text-anchor="middle" x="600" y="-43.5" font-family="Times Roman,serif" font-size="10.00">E</text>
</g>
<!-- r3_intermediate_r -->
<g id="node32" class="node"><title>r3_intermediate_r</title>
<ellipse fill="black" stroke="black" cx="681" cy="-23" rx="0.036" ry="0.036"/>
</g>
<!-- E&#45;&gt;r3_intermediate_r -->
<g id="edge32" class="edge"><title>E&#45;&gt;r3_intermediate_r</title>
<path fill="none" stroke="black" d="M617.576,-41.0093C640.654,-34.4562 678.54,-23.6984 680.886,-23.0325"/>
</g>
<!-- r0 -->
<g id="node6" class="node"><title>r0</title>
<polygon fill="none" stroke="black" points="369,-139 355,-139 355,-125 369,-125 369,-139"/>
</g>
<!-- r0_intermediate_p -->
<g id="node10" class="node"><title>r0_intermediate_p</title>
<ellipse fill="black" stroke="black" cx="417" cy="-135" rx="0.036" ry="0.036"/>
</g>
<!-- r0&#45;&gt;r0_intermediate_p -->
<g id="edge6" class="edge"><title>r0&#45;&gt;r0_intermediate_p</title>
<path fill="none" stroke="black" d="M369.19,-132.392C383.633,-133.18 414.961,-134.889 416.905,-134.995"/>
</g>
<!-- r0&#45;&gt;r0_intermediate_m -->
<g id="edge10" class="edge"><title>r0&#45;&gt;r0_intermediate_m</title>
<path fill="none" stroke="black" d="M375.322,-115.529C391.001,-96.1445 415.142,-66.2975 416.898,-64.1256"/>
<polygon fill="none" stroke="black" points="375.225,-115.649 374.562,-122.829 367.679,-124.979 368.342,-117.798 375.225,-115.649"/>
</g>
<!-- r0_intermediate_r&#45;&gt;r0 -->
<g id="edge2" class="edge"><title>r0_intermediate_r&#45;&gt;r0</title>
<path fill="none" stroke="black" d="M307.158,-132C309.628,-132 340.463,-132 354.781,-132"/>
</g>
<!-- r0_intermediate_p&#45;&gt;R -->
<g id="edge8" class="edge"><title>r0_intermediate_p&#45;&gt;R</title>
<path fill="none" stroke="black" d="M417.046,-135.002C417.885,-135.041 429.971,-135.608 443.414,-136.238"/>
<polygon fill="black" stroke="black" points="443.641,-139.753 453.794,-136.725 443.969,-132.76 443.641,-139.753"/>
</g>
<!-- r1 -->
<g id="node16" class="node"><title>r1</title>
<polygon fill="none" stroke="black" points="124,-139 110,-139 110,-125 124,-125 124,-139"/>
</g>
<!-- r1_intermediate_p -->
<g id="node19" class="node"><title>r1_intermediate_p</title>
<ellipse fill="black" stroke="black" cx="180" cy="-132" rx="0.036" ry="0.036"/>
</g>
<!-- r1&#45;&gt;r1_intermediate_p -->
<g id="edge16" class="edge"><title>r1&#45;&gt;r1_intermediate_p</title>
<path fill="none" stroke="black" d="M124.227,-132C140.258,-132 177.571,-132 179.887,-132"/>
</g>
<!-- r1&#45;&gt;r1_intermediate_m -->
<g id="edge20" class="edge"><title>r1&#45;&gt;r1_intermediate_m</title>
<path fill="none" stroke="black" d="M135.118,-123.085C153.02,-114.276 178.005,-101.982 179.887,-101.056"/>
<polygon fill="none" stroke="black" points="134.994,-123.146 131.377,-129.384 124.227,-128.444 127.844,-122.206 134.994,-123.146"/>
</g>
<!-- r1_empty -->
<g id="node17" class="node"><title>r1_empty</title>
<text text-anchor="middle" x="27" y="-127.5" font-family="Times Roman,serif" font-size="15.00" fill="blue">Ø</text>
</g>
<!-- r1_empty&#45;&gt;r1 -->
<g id="edge14" class="edge"><title>r1_empty&#45;&gt;r1</title>
<path fill="none" stroke="black" d="M54.003,-132C73.2642,-132 97.7921,-132 109.766,-132"/>
</g>
<!-- r1_intermediate_p&#45;&gt;X -->
<g id="edge18" class="edge"><title>r1_intermediate_p&#45;&gt;X</title>
<path fill="none" stroke="black" d="M180.046,-132C180.865,-132 192.597,-132 205.716,-132"/>
<polygon fill="black" stroke="black" points="205.86,-135.5 215.86,-132 205.859,-128.5 205.86,-135.5"/>
</g>
<!-- r2 -->
<g id="node25" class="node"><title>r2</title>
<polygon fill="none" stroke="black" points="607,-145 593,-145 593,-131 607,-131 607,-145"/>
</g>
<!-- r2_empty -->
<g id="node29" class="node"><title>r2_empty</title>
<text text-anchor="middle" x="681" y="-133.5" font-family="Times Roman,serif" font-size="15.00" fill="blue">Ø</text>
</g>
<!-- r2&#45;&gt;r2_empty -->
<g id="edge28" class="edge"><title>r2&#45;&gt;r2_empty</title>
<path fill="none" stroke="black" d="M607.188,-138C615.457,-138 629.67,-138 643.429,-138"/>
<polygon fill="black" stroke="black" points="643.757,-141.5 653.757,-138 643.757,-134.5 643.757,-141.5"/>
</g>
<!-- r2_intermediate_r&#45;&gt;r2 -->
<g id="edge24" class="edge"><title>r2_intermediate_r&#45;&gt;r2</title>
<path fill="none" stroke="black" d="M545.158,-138C547.628,-138 578.463,-138 592.781,-138"/>
</g>
<!-- r3 -->
<g id="node31" class="node"><title>r3</title>
<polygon fill="none" stroke="black" points="250,-53 236,-53 236,-39 250,-39 250,-53"/>
</g>
<!-- r3_intermediate_p -->
<g id="node35" class="node"><title>r3_intermediate_p</title>
<ellipse fill="black" stroke="black" cx="307" cy="-46" rx="0.036" ry="0.036"/>
</g>
<!-- r3&#45;&gt;r3_intermediate_p -->
<g id="edge34" class="edge"><title>r3&#45;&gt;r3_intermediate_p</title>
<path fill="none" stroke="black" d="M250.342,-46C266.627,-46 304.532,-46 306.885,-46"/>
</g>
<!-- r3&#45;&gt;r3_intermediate_m -->
<g id="edge38" class="edge"><title>r3&#45;&gt;r3_intermediate_m</title>
<path fill="none" stroke="black" d="M260.362,-57.3892C282.845,-71.0117 323.699,-92 362,-92 362,-92 362,-92 417,-92 473.334,-92 542.792,-105.566 544.948,-105.99"/>
<polygon fill="none" stroke="black" points="260.283,-57.339 253.074,-57.5111 250.142,-50.9228 257.351,-50.7507 260.283,-57.339"/>
</g>
<!-- r3_intermediate_r&#45;&gt;r3 -->
<g id="edge30" class="edge"><title>r3_intermediate_r&#45;&gt;r3</title>
<path fill="none" stroke="black" d="M680.946,-22.9833C678.669,-22.2869 605.345,-0 545,-0 362,-0 362,-0 362,-0 316.815,-0 268.077,-29.2104 250.142,-41.0772"/>
</g>
<!-- r3_intermediate_p&#45;&gt;Ep -->
<g id="edge36" class="edge"><title>r3_intermediate_p&#45;&gt;Ep</title>
<path fill="none" stroke="black" d="M307.158,-46C308.674,-46 320.878,-46 333.389,-46"/>
<polygon fill="black" stroke="black" points="333.743,-49.5001 343.743,-46 333.743,-42.5001 333.743,-49.5001"/>
</g>
<!-- r4 -->
<g id="node41" class="node"><title>r4</title>
<polygon fill="none" stroke="black" points="488,-53 474,-53 474,-39 488,-39 488,-53"/>
</g>
<!-- r4_intermediate_p -->
<g id="node45" class="node"><title>r4_intermediate_p</title>
<ellipse fill="black" stroke="black" cx="545" cy="-46" rx="0.036" ry="0.036"/>
</g>
<!-- r4&#45;&gt;r4_intermediate_p -->
<g id="edge46" class="edge"><title>r4&#45;&gt;r4_intermediate_p</title>
<path fill="none" stroke="black" d="M488.342,-46C504.627,-46 542.532,-46 544.885,-46"/>
</g>
<!-- r4_intermediate_r&#45;&gt;r4 -->
<g id="edge42" class="edge"><title>r4_intermediate_r&#45;&gt;r4</title>
<path fill="none" stroke="black" d="M417.046,-46C418.576,-46 457.51,-46 473.868,-46"/>
</g>
<!-- r4_intermediate_p&#45;&gt;E -->
<g id="edge48" class="edge"><title>r4_intermediate_p&#45;&gt;E</title>
<path fill="none" stroke="black" d="M545.158,-46C546.674,-46 558.878,-46 571.389,-46"/>
<polygon fill="black" stroke="black" points="571.743,-49.5001 581.743,-46 571.743,-42.5001 571.743,-49.5001"/>
</g>
</g>
</svg>
