<?xml version="1.0" encoding="UTF-8" standalone="no"?>
<!DOCTYPE svg PUBLIC "-//W3C//DTD SVG 1.1//EN"
 "http://www.w3.org/Graphics/SVG/1.1/DTD/svg11.dtd">
<!-- Generated by graphviz version 2.30.1 (20140821.0912)
 -->
<!-- Title: G Pages: 1 -->
<svg width="728pt" height="253pt"
 viewBox="0.00 0.00 728.00 253.00" xmlns="http://www.w3.org/2000/svg" xmlns:xlink="http://www.w3.org/1999/xlink">
<g id="graph0" class="graph" transform="scale(1 1) rotate(0) translate(4 249)">
<title>G</title>
<polygon fill="white" stroke="white" points="-4,5 -4,-249 725,-249 725,5 -4,5"/>
<!-- X -->
<g id="X" class="node"><title>X</title>
<ellipse fill="none" stroke="black" cx="301" cy="-47" rx="27" ry="18"/>
<text text-anchor="middle" x="301" y="-44.5" font-family="Times,serif" font-size="10.00">TF_A</text>
</g>
<!-- TF_degradation_intermediate_r -->
<g id="node8" class="node"><title>TF_degradation_intermediate_r</title>
<ellipse fill="black" stroke="black" cx="427" cy="-47" rx="0.036" ry="0.036"/>
</g>
<!-- X&#45;&gt;TF_degradation_intermediate_r -->
<g id="edge5" class="edge"><title>X&#45;&gt;TF_degradation_intermediate_r</title>
<path fill="none" stroke="black" d="M328.297,-47C364.128,-47 424.09,-47 425.955,-47"/>
</g>
<!-- Y -->
<g id="Y [CHEBI:22984]" class="node"><title>Y</title>
<ellipse fill="none" stroke="black" cx="49" cy="-217" rx="48.7185" ry="18"/>
<text text-anchor="middle" x="49" y="-214.5" font-family="Times,serif" font-size="10.00">Calcium in store</text>
</g>
<!-- Calcium_into_cytoplasm_intermediate_r -->
<g id="node23" class="node"><title>Calcium_into_cytoplasm_intermediate_r</title>
<ellipse fill="black" stroke="black" cx="161" cy="-145" rx="0.036" ry="0.036"/>
</g>
<!-- Y&#45;&gt;Calcium_into_cytoplasm_intermediate_r -->
<g id="edge21" class="edge"><title>Y&#45;&gt;Calcium_into_cytoplasm_intermediate_r</title>
<path fill="none" stroke="black" d="M68.5336,-200.417C84.8348,-186.513 109.692,-166.915 134,-154 144.461,-148.442 159.054,-145.206 159.956,-145.01"/>
</g>
<!-- Leakage_intermediate_r -->
<g id="node26" class="node"><title>Leakage_intermediate_r</title>
<ellipse fill="black" stroke="black" cx="161" cy="-217" rx="0.036" ry="0.036"/>
</g>
<!-- Y&#45;&gt;Leakage_intermediate_r -->
<g id="edge25" class="edge"><title>Y&#45;&gt;Leakage_intermediate_r</title>
<path fill="none" stroke="black" d="M97.9276,-217C126.644,-217 157.976,-217 159.906,-217"/>
</g>
<!-- Z -->
<g id="Z [CHEBI:22984]" class="node"><title>Z</title>
<ellipse fill="none" stroke="black" cx="427" cy="-178" rx="62.2967" ry="18"/>
<text text-anchor="middle" x="427" y="-175.5" font-family="Times,serif" font-size="10.00">Calcium in cytoplasm</text>
</g>
<!-- Calcium_into_store_intermediate_r -->
<g id="node20" class="node"><title>Calcium_into_store_intermediate_r</title>
<ellipse fill="black" stroke="black" cx="533" cy="-203" rx="0.036" ry="0.036"/>
</g>
<!-- Z&#45;&gt;Calcium_into_store_intermediate_r -->
<g id="edge17" class="edge"><title>Z&#45;&gt;Calcium_into_store_intermediate_r</title>
<path fill="none" stroke="black" d="M475.435,-189.403C502.007,-195.79 530.181,-202.563 531.916,-202.98"/>
</g>
<!-- Leakage_from_cytoplasm_intermediate_r -->
<g id="node29" class="node"><title>Leakage_from_cytoplasm_intermediate_r</title>
<ellipse fill="black" stroke="black" cx="533" cy="-178" rx="0.036" ry="0.036"/>
</g>
<!-- Z&#45;&gt;Leakage_from_cytoplasm_intermediate_r -->
<g id="edge29" class="edge"><title>Z&#45;&gt;Leakage_from_cytoplasm_intermediate_r</title>
<path fill="none" stroke="black" d="M489.399,-178C511.212,-178 530.742,-178 531.942,-178"/>
</g>
<!-- TF_synthesis -->
<g id="node4" class="node"><title>TF_synthesis</title>
<polygon fill="none" stroke="black" points="168,-73 154,-73 154,-59 168,-59 168,-73"/>
</g>
<!-- TF_synthesis_intermediate_p -->
<g id="node6" class="node"><title>TF_synthesis_intermediate_p</title>
<ellipse fill="black" stroke="black" cx="231" cy="-59" rx="0.036" ry="0.036"/>
</g>
<!-- TF_synthesis&#45;&gt;TF_synthesis_intermediate_p -->
<g id="edge2" class="edge"><title>TF_synthesis&#45;&gt;TF_synthesis_intermediate_p</title>
<path fill="none" stroke="black" d="M168.275,-65.354C184.583,-63.6752 227.222,-59.286 229.871,-59.0133"/>
</g>
<!-- TF_synthesis_empty -->
<g id="node5" class="node"><title>TF_synthesis_empty</title>
<text text-anchor="middle" x="49" y="-68.5" font-family="Times,serif" font-size="15.00" fill="blue">Ø</text>
</g>
<!-- TF_synthesis_empty&#45;&gt;TF_synthesis -->
<g id="edge1" class="edge"><title>TF_synthesis_empty&#45;&gt;TF_synthesis</title>
<path fill="none" stroke="black" d="M76.0685,-70.5781C101.735,-69.1781 139.154,-67.137 153.798,-66.3383"/>
</g>
<!-- TF_synthesis_intermediate_p&#45;&gt;X -->
<g id="edge3" class="edge"><title>TF_synthesis_intermediate_p&#45;&gt;X</title>
<path fill="none" stroke="black" d="M232.049,-58.9913C233.035,-58.8173 248.652,-56.0614 264.665,-53.2357"/>
<polygon fill="black" stroke="black" points="265.319,-56.6744 274.558,-51.4897 264.102,-49.7809 265.319,-56.6744"/>
</g>
<!-- TF_degradation -->
<g id="node7" class="node"><title>TF_degradation</title>
<polygon fill="none" stroke="black" points="540,-54 526,-54 526,-40 540,-40 540,-54"/>
</g>
<!-- TF_degradation_empty -->
<g id="node9" class="node"><title>TF_degradation_empty</title>
<text text-anchor="middle" x="603" y="-43.5" font-family="Times,serif" font-size="15.00" fill="blue">Ø</text>
</g>
<!-- TF_degradation&#45;&gt;TF_degradation_empty -->
<g id="edge6" class="edge"><title>TF_degradation&#45;&gt;TF_degradation_empty</title>
<path fill="none" stroke="black" d="M540.275,-47C546.278,-47 555.849,-47 565.68,-47"/>
<polygon fill="black" stroke="black" points="565.88,-50.5001 575.88,-47 565.88,-43.5001 565.88,-50.5001"/>
</g>
<!-- TF_degradation_intermediate_r&#45;&gt;TF_degradation -->
<g id="edge4" class="edge"><title>TF_degradation_intermediate_r&#45;&gt;TF_degradation</title>
<path fill="none" stroke="black" d="M428.075,-47C430.757,-47 504.233,-47 525.988,-47"/>
</g>
<!-- TF_synthesis_basal -->
<g id="node10" class="node"><title>TF_synthesis_basal</title>
<polygon fill="none" stroke="black" points="168,-30 154,-30 154,-16 168,-16 168,-30"/>
</g>
<!-- TF_synthesis_basal_intermediate_p -->
<g id="node12" class="node"><title>TF_synthesis_basal_intermediate_p</title>
<ellipse fill="black" stroke="black" cx="231" cy="-26" rx="0.036" ry="0.036"/>
</g>
<!-- TF_synthesis_basal&#45;&gt;TF_synthesis_basal_intermediate_p -->
<g id="edge8" class="edge"><title>TF_synthesis_basal&#45;&gt;TF_synthesis_basal_intermediate_p</title>
<path fill="none" stroke="black" d="M168.275,-23.2769C184.583,-23.9963 227.222,-25.8774 229.871,-25.9943"/>
</g>
<!-- TF_synthesis_basal_empty -->
<g id="node11" class="node"><title>TF_synthesis_basal_empty</title>
<text text-anchor="middle" x="49" y="-14.5" font-family="Times,serif" font-size="15.00" fill="blue">Ø</text>
</g>
<!-- TF_synthesis_basal_empty&#45;&gt;TF_synthesis_basal -->
<g id="edge7" class="edge"><title>TF_synthesis_basal_empty&#45;&gt;TF_synthesis_basal</title>
<path fill="none" stroke="black" d="M76.0685,-19.1849C101.735,-20.3516 139.154,-22.0525 153.798,-22.7181"/>
</g>
<!-- TF_synthesis_basal_intermediate_p&#45;&gt;X -->
<g id="edge9" class="edge"><title>TF_synthesis_basal_intermediate_p&#45;&gt;X</title>
<path fill="none" stroke="black" d="M232.049,-26.0152C233.071,-26.3308 249.819,-31.5028 266.429,-36.6325"/>
<polygon fill="black" stroke="black" points="265.486,-40.0043 276.074,-39.611 267.552,-33.316 265.486,-40.0043"/>
</g>
<!-- Calcium_Influx -->
<g id="node13" class="node"><title>Calcium_Influx</title>
<polygon fill="none" stroke="black" points="238,-118 224,-118 224,-104 238,-104 238,-118"/>
</g>
<!-- Calcium_Influx_intermediate_p -->
<g id="node15" class="node"><title>Calcium_Influx_intermediate_p</title>
<ellipse fill="black" stroke="black" cx="301" cy="-124" rx="0.036" ry="0.036"/>
</g>
<!-- Calcium_Influx&#45;&gt;Calcium_Influx_intermediate_p -->
<g id="edge11" class="edge"><title>Calcium_Influx&#45;&gt;Calcium_Influx_intermediate_p</title>
<path fill="none" stroke="black" d="M238.275,-112.2C254.583,-115.317 297.222,-123.469 299.871,-123.975"/>
</g>
<!-- Calcium_Influx_empty -->
<g id="node14" class="node"><title>Calcium_Influx_empty</title>
<text text-anchor="middle" x="161" y="-105.5" font-family="Times,serif" font-size="15.00" fill="blue">Ø</text>
</g>
<!-- Calcium_Influx_empty&#45;&gt;Calcium_Influx -->
<g id="edge10" class="edge"><title>Calcium_Influx_empty&#45;&gt;Calcium_Influx</title>
<path fill="none" stroke="black" d="M188.096,-109.768C201.13,-110.151 215.805,-110.582 223.868,-110.82"/>
</g>
<!-- Calcium_Influx_intermediate_p&#45;&gt;Z -->
<g id="edge12" class="edge"><title>Calcium_Influx_intermediate_p&#45;&gt;Z</title>
<path fill="none" stroke="black" d="M302.09,-124.039C304.315,-125.008 347.433,-143.785 382.187,-158.92"/>
<polygon fill="black" stroke="black" points="381.161,-162.291 391.727,-163.074 383.956,-155.873 381.161,-162.291"/>
</g>
<!-- Calcium_Influx_stimulation -->
<g id="node16" class="node"><title>Calcium_Influx_stimulation</title>
<polygon fill="none" stroke="black" points="238,-185 224,-185 224,-171 238,-171 238,-185"/>
</g>
<!-- Calcium_Influx_stimulation_intermediate_p -->
<g id="node18" class="node"><title>Calcium_Influx_stimulation_intermediate_p</title>
<ellipse fill="black" stroke="black" cx="301" cy="-178" rx="0.036" ry="0.036"/>
</g>
<!-- Calcium_Influx_stimulation&#45;&gt;Calcium_Influx_stimulation_intermediate_p -->
<g id="edge14" class="edge"><title>Calcium_Influx_stimulation&#45;&gt;Calcium_Influx_stimulation_intermediate_p</title>
<path fill="none" stroke="black" d="M238.275,-178C254.583,-178 297.222,-178 299.871,-178"/>
</g>
<!-- Calcium_Influx_stimulation_empty -->
<g id="node17" class="node"><title>Calcium_Influx_stimulation_empty</title>
<text text-anchor="middle" x="161" y="-177.5" font-family="Times,serif" font-size="15.00" fill="blue">Ø</text>
</g>
<!-- Calcium_Influx_stimulation_empty&#45;&gt;Calcium_Influx_stimulation -->
<g id="edge13" class="edge"><title>Calcium_Influx_stimulation_empty&#45;&gt;Calcium_Influx_stimulation</title>
<path fill="none" stroke="black" d="M188.096,-179.849C201.13,-179.274 215.805,-178.626 223.868,-178.271"/>
</g>
<!-- Calcium_Influx_stimulation_intermediate_p&#45;&gt;Z -->
<g id="edge15" class="edge"><title>Calcium_Influx_stimulation_intermediate_p&#45;&gt;Z</title>
<path fill="none" stroke="black" d="M302.09,-178C303.735,-178 327.728,-178 354.168,-178"/>
<polygon fill="black" stroke="black" points="354.38,-181.5 364.38,-178 354.38,-174.5 354.38,-181.5"/>
</g>
<!-- Calcium_into_store -->
<g id="node19" class="node"><title>Calcium_into_store</title>
<polygon fill="none" stroke="black" points="610,-217 596,-217 596,-203 610,-203 610,-217"/>
</g>
<!-- Calcium_into_store_intermediate_p -->
<g id="node21" class="node"><title>Calcium_into_store_intermediate_p</title>
<ellipse fill="black" stroke="black" cx="693" cy="-229" rx="0.036" ry="0.036"/>
</g>
<!-- Calcium_into_store&#45;&gt;Calcium_into_store_intermediate_p -->
<g id="edge18" class="edge"><title>Calcium_into_store&#45;&gt;Calcium_into_store_intermediate_p</title>
<path fill="none" stroke="black" d="M610.049,-211.306C629.62,-215.532 690.071,-228.583 691.955,-228.99"/>
</g>
<!-- Calcium_into_store_intermediate_r&#45;&gt;Calcium_into_store -->
<g id="edge16" class="edge"><title>Calcium_into_store_intermediate_r&#45;&gt;Calcium_into_store</title>
<path fill="none" stroke="black" d="M534.049,-203.005C535.722,-203.177 579.535,-207.687 595.906,-209.373"/>
</g>
<!-- Calcium_into_store_intermediate_p&#45;&gt;Y -->
<g id="edge19" class="edge"><title>Calcium_into_store_intermediate_p&#45;&gt;Y</title>
<path fill="none" stroke="black" d="M691.936,-229.012C689.272,-229.496 603.479,-245 534,-245 230,-245 230,-245 230,-245 185.816,-245 136.248,-236.661 100.332,-229.084"/>
<polygon fill="black" stroke="black" points="100.628,-225.567 90.1138,-226.872 99.1466,-232.409 100.628,-225.567"/>
</g>
<!-- Calcium_into_cytoplasm -->
<g id="node22" class="node"><title>Calcium_into_cytoplasm</title>
<polygon fill="none" stroke="black" points="238,-152 224,-152 224,-138 238,-138 238,-152"/>
</g>
<!-- Calcium_into_cytoplasm_intermediate_p -->
<g id="node24" class="node"><title>Calcium_into_cytoplasm_intermediate_p</title>
<ellipse fill="black" stroke="black" cx="301" cy="-153" rx="0.036" ry="0.036"/>
</g>
<!-- Calcium_into_cytoplasm&#45;&gt;Calcium_into_cytoplasm_intermediate_p -->
<g id="edge22" class="edge"><title>Calcium_into_cytoplasm&#45;&gt;Calcium_into_cytoplasm_intermediate_p</title>
<path fill="none" stroke="black" d="M238.275,-145.738C254.583,-147.657 297.222,-152.673 299.871,-152.985"/>
</g>
<!-- Calcium_into_cytoplasm_intermediate_r&#45;&gt;Calcium_into_cytoplasm -->
<g id="edge20" class="edge"><title>Calcium_into_cytoplasm_intermediate_r&#45;&gt;Calcium_into_cytoplasm</title>
<path fill="none" stroke="black" d="M162.049,-145C163.722,-145 207.535,-145 223.906,-145"/>
</g>
<!-- Calcium_into_cytoplasm_intermediate_p&#45;&gt;Z -->
<g id="edge23" class="edge"><title>Calcium_into_cytoplasm_intermediate_p&#45;&gt;Z</title>
<path fill="none" stroke="black" d="M302.09,-153.018C303.969,-153.397 335.009,-159.655 365.548,-165.812"/>
<polygon fill="black" stroke="black" points="364.913,-169.255 375.408,-167.8 366.297,-162.393 364.913,-169.255"/>
</g>
<!-- Leakage -->
<g id="node25" class="node"><title>Leakage</title>
<polygon fill="none" stroke="black" points="238,-217 224,-217 224,-203 238,-203 238,-217"/>
</g>
<!-- Leakage_intermediate_p -->
<g id="node27" class="node"><title>Leakage_intermediate_p</title>
<ellipse fill="black" stroke="black" cx="301" cy="-203" rx="0.036" ry="0.036"/>
</g>
<!-- Leakage&#45;&gt;Leakage_intermediate_p -->
<g id="edge26" class="edge"><title>Leakage&#45;&gt;Leakage_intermediate_p</title>
<path fill="none" stroke="black" d="M238.275,-209.354C254.583,-207.675 297.222,-203.286 299.871,-203.013"/>
</g>
<!-- Leakage_intermediate_r&#45;&gt;Leakage -->
<g id="edge24" class="edge"><title>Leakage_intermediate_r&#45;&gt;Leakage</title>
<path fill="none" stroke="black" d="M162.049,-216.995C163.722,-216.823 207.535,-212.313 223.906,-210.627"/>
</g>
<!-- Leakage_intermediate_p&#45;&gt;Z -->
<g id="edge27" class="edge"><title>Leakage_intermediate_p&#45;&gt;Z</title>
<path fill="none" stroke="black" d="M302.09,-202.982C303.969,-202.603 335.009,-196.345 365.548,-190.188"/>
<polygon fill="black" stroke="black" points="366.297,-193.607 375.408,-188.2 364.913,-186.745 366.297,-193.607"/>
</g>
<!-- Leakage_from_cytoplasm -->
<g id="node28" class="node"><title>Leakage_from_cytoplasm</title>
<polygon fill="none" stroke="black" points="610,-185 596,-185 596,-171 610,-171 610,-185"/>
</g>
<!-- Leakage_from_cytoplasm_empty -->
<g id="node30" class="node"><title>Leakage_from_cytoplasm_empty</title>
<text text-anchor="middle" x="693" y="-174.5" font-family="Times,serif" font-size="15.00" fill="blue">Ø</text>
</g>
<!-- Leakage_from_cytoplasm&#45;&gt;Leakage_from_cytoplasm_empty -->
<g id="edge30" class="edge"><title>Leakage_from_cytoplasm&#45;&gt;Leakage_from_cytoplasm_empty</title>
<path fill="none" stroke="black" d="M610.049,-178C619.439,-178 638.239,-178 655.466,-178"/>
<polygon fill="black" stroke="black" points="655.891,-181.5 665.891,-178 655.891,-174.5 655.891,-181.5"/>
</g>
<!-- Leakage_from_cytoplasm_intermediate_r&#45;&gt;Leakage_from_cytoplasm -->
<g id="edge28" class="edge"><title>Leakage_from_cytoplasm_intermediate_r&#45;&gt;Leakage_from_cytoplasm</title>
<path fill="none" stroke="black" d="M534.049,-178C535.722,-178 579.535,-178 595.906,-178"/>
</g>
</g>
</svg>
