<?xml version="1.0" encoding="UTF-8" standalone="no"?>
<!DOCTYPE svg PUBLIC "-//W3C//DTD SVG 1.1//EN"
 "http://www.w3.org/Graphics/SVG/1.1/DTD/svg11.dtd">
<!-- Generated by graphviz version 2.24.0 (20090616.2323)
 -->
<!-- Title: G Pages: 1 -->
<svg width="582pt" height="44pt"
 viewBox="0.00 0.00 582.00 44.00" xmlns="http://www.w3.org/2000/svg" xmlns:xlink="http://www.w3.org/1999/xlink">
<g id="graph1" class="graph" transform="scale(1 1) rotate(0) translate(4 40)">
<title>G</title>
<polygon fill="white" stroke="white" points="-4,5 -4,-40 579,-40 579,5 -4,5"/>
<!-- G3P -->
<g id="node1" class="node"><title>G3P</title>
<ellipse fill="none" stroke="black" cx="270" cy="-18" rx="75.2158" ry="18"/>
<text text-anchor="middle" x="270" y="-15.5" font-family="Times Roman,serif" font-size="10.00">Glycerol 3&#45;phosphate</text>
</g>
<!-- Gpp_p_intermediate_r -->
<g id="node12" class="node"><title>Gpp_p_intermediate_r</title>
<ellipse fill="black" stroke="black" cx="382" cy="-18" rx="0.036" ry="0.036"/>
</g>
<!-- G3P&#45;&gt;Gpp_p_intermediate_r -->
<g id="edge12" class="edge"><title>G3P&#45;&gt;Gpp_p_intermediate_r</title>
<path fill="none" stroke="black" d="M355.725,-18C370.343,-18 381.155,-18 381.953,-18"/>
<polygon fill="black" stroke="black" points="355.637,-14.5001 345.637,-18 355.637,-21.5001 355.637,-14.5001"/>
</g>
<!-- Gly -->
<g id="node2" class="node"><title>Gly</title>
<ellipse fill="none" stroke="black" cx="539" cy="-18" rx="35.0885" ry="18"/>
<text text-anchor="middle" x="539" y="-15.5" font-family="Times Roman,serif" font-size="10.00">Glycerol</text>
</g>
<!-- DHAP -->
<g id="node3" class="node"><title>DHAP</title>
<ellipse fill="none" stroke="black" cx="18" cy="-18" rx="18" ry="18"/>
<text text-anchor="middle" x="18" y="-15.5" font-family="Times Roman,serif" font-size="10.00">DHAP</text>
</g>
<!-- Gpd_p_intermediate_r -->
<g id="node5" class="node"><title>Gpd_p_intermediate_r</title>
<ellipse fill="black" stroke="black" cx="72" cy="-18" rx="0.036" ry="0.036"/>
</g>
<!-- DHAP&#45;&gt;Gpd_p_intermediate_r -->
<g id="edge4" class="edge"><title>DHAP&#45;&gt;Gpd_p_intermediate_r</title>
<path fill="none" stroke="black" d="M46.5997,-18C59.0326,-18 71.0115,-18 71.942,-18"/>
<polygon fill="black" stroke="black" points="46.282,-14.5001 36.2819,-18 46.2819,-21.5001 46.282,-14.5001"/>
</g>
<!-- Gpd_p -->
<g id="node4" class="node"><title>Gpd_p</title>
<polygon fill="none" stroke="black" points="122,-25 108,-25 108,-11 122,-11 122,-25"/>
</g>
<!-- Gpd_p_intermediate_p -->
<g id="node8" class="node"><title>Gpd_p_intermediate_p</title>
<ellipse fill="black" stroke="black" cx="158" cy="-18" rx="0.036" ry="0.036"/>
</g>
<!-- Gpd_p&#45;&gt;Gpd_p_intermediate_p -->
<g id="edge6" class="edge"><title>Gpd_p&#45;&gt;Gpd_p_intermediate_p</title>
<path fill="none" stroke="black" d="M122.101,-18C133.932,-18 156.531,-18 157.932,-18"/>
</g>
<!-- Gpd_p_intermediate_r&#45;&gt;Gpd_p -->
<g id="edge2" class="edge"><title>Gpd_p_intermediate_r&#45;&gt;Gpd_p</title>
<path fill="none" stroke="black" d="M72.1234,-18C73.9756,-18 96.231,-18 107.924,-18"/>
</g>
<!-- Gpd_p_intermediate_p&#45;&gt;G3P -->
<g id="edge8" class="edge"><title>Gpd_p_intermediate_p&#45;&gt;G3P</title>
<path fill="none" stroke="black" d="M158.081,-18C159.104,-18 169.684,-18 183.966,-18"/>
<polygon fill="black" stroke="black" points="184.373,-21.5001 194.373,-18 184.373,-14.5001 184.373,-21.5001"/>
</g>
<!-- Gpp_p -->
<g id="node11" class="node"><title>Gpp_p</title>
<polygon fill="none" stroke="black" points="432,-25 418,-25 418,-11 432,-11 432,-25"/>
</g>
<!-- Gpp_p_intermediate_p -->
<g id="node15" class="node"><title>Gpp_p_intermediate_p</title>
<ellipse fill="black" stroke="black" cx="468" cy="-18" rx="0.036" ry="0.036"/>
</g>
<!-- Gpp_p&#45;&gt;Gpp_p_intermediate_p -->
<g id="edge14" class="edge"><title>Gpp_p&#45;&gt;Gpp_p_intermediate_p</title>
<path fill="none" stroke="black" d="M432.101,-18C443.932,-18 466.531,-18 467.932,-18"/>
</g>
<!-- Gpp_p_intermediate_r&#45;&gt;Gpp_p -->
<g id="edge10" class="edge"><title>Gpp_p_intermediate_r&#45;&gt;Gpp_p</title>
<path fill="none" stroke="black" d="M382.123,-18C383.976,-18 406.231,-18 417.924,-18"/>
</g>
<!-- Gpp_p_intermediate_p&#45;&gt;Gly -->
<g id="edge16" class="edge"><title>Gpp_p_intermediate_p&#45;&gt;Gly</title>
<path fill="none" stroke="black" d="M468.051,-18C468.91,-18 480.389,-18 493.873,-18"/>
<polygon fill="black" stroke="black" points="493.923,-21.5001 503.923,-18 493.922,-14.5001 493.923,-21.5001"/>
</g>
</g>
</svg>
