<?xml version="1.0" encoding="UTF-8" standalone="no"?>
<!DOCTYPE svg PUBLIC "-//W3C//DTD SVG 1.1//EN"
 "http://www.w3.org/Graphics/SVG/1.1/DTD/svg11.dtd">
<!-- Generated by graphviz version 2.24.0 (20090616.2323)
 -->
<!-- Title: G Pages: 1 -->
<svg width="1254pt" height="219pt"
 viewBox="0.00 0.00 1254.00 219.00" xmlns="http://www.w3.org/2000/svg" xmlns:xlink="http://www.w3.org/1999/xlink">
<g id="graph1" class="graph" transform="scale(1 1) rotate(0) translate(4 215)">
<title>G</title>
<polygon fill="white" stroke="white" points="-4,5 -4,-215 1251,-215 1251,5 -4,5"/>
<!-- L -->
<g id="node1" class="node"><title>L</title>
<ellipse fill="none" stroke="black" cx="205" cy="-111" rx="18" ry="18"/>
<text text-anchor="middle" x="205" y="-108.5" font-family="Times Roman,serif" font-size="10.00">L</text>
</g>
<!-- R_L_binding_intermediate_r -->
<g id="node23" class="node"><title>R_L_binding_intermediate_r</title>
<ellipse fill="black" stroke="black" cx="295" cy="-119" rx="0.036" ry="0.036"/>
</g>
<!-- L&#45;&gt;R_L_binding_intermediate_r -->
<g id="edge22" class="edge"><title>L&#45;&gt;R_L_binding_intermediate_r</title>
<path fill="none" stroke="black" d="M233.496,-113.533C258.923,-115.793 292.512,-118.779 294.869,-118.988"/>
<polygon fill="black" stroke="black" points="233.483,-110.018 223.213,-112.619 232.864,-116.991 233.483,-110.018"/>
</g>
<!-- R -->
<g id="node2" class="node"><title>R</title>
<polyline fill="none" stroke="black" points="220,-183 190,-183 "/>
<path fill="none" stroke="black" d="M190,-183C184,-183 178,-177 178,-171"/>
<polyline fill="none" stroke="black" points="178,-171 178,-159 "/>
<path fill="none" stroke="black" d="M178,-159C178,-153 184,-147 190,-147"/>
<polyline fill="none" stroke="black" points="190,-147 220,-147 "/>
<path fill="none" stroke="black" d="M220,-147C226,-147 232,-153 232,-159"/>
<polyline fill="none" stroke="black" points="232,-159 232,-171 "/>
<path fill="none" stroke="black" d="M232,-171C232,-177 226,-183 220,-183"/>
<text text-anchor="middle" x="205" y="-162.5" font-family="Times Roman,serif" font-size="10.00">R</text>
</g>
<!-- R_degradation_intermediate_r -->
<g id="node17" class="node"><title>R_degradation_intermediate_r</title>
<ellipse fill="black" stroke="black" cx="295" cy="-165" rx="0.036" ry="0.036"/>
</g>
<!-- R&#45;&gt;R_degradation_intermediate_r -->
<g id="edge14" class="edge"><title>R&#45;&gt;R_degradation_intermediate_r</title>
<path fill="none" stroke="black" d="M232.003,-165C257.685,-165 292.729,-165 294.895,-165"/>
</g>
<!-- R&#45;&gt;R_L_binding_intermediate_r -->
<g id="edge20" class="edge"><title>R&#45;&gt;R_L_binding_intermediate_r</title>
<path fill="none" stroke="black" d="M241.03,-146.585C265.202,-134.23 292.975,-120.035 294.895,-119.054"/>
<polygon fill="black" stroke="black" points="239.314,-143.531 232.003,-151.198 242.5,-149.764 239.314,-143.531"/>
</g>
<!-- C -->
<g id="node3" class="node"><title>C</title>
<ellipse fill="none" stroke="black" cx="525" cy="-119" rx="18" ry="18"/>
<text text-anchor="middle" x="525" y="-116.5" font-family="Times Roman,serif" font-size="10.00">C</text>
</g>
<!-- C_degradation_intermediate_r -->
<g id="node31" class="node"><title>C_degradation_intermediate_r</title>
<ellipse fill="black" stroke="black" cx="589" cy="-154" rx="0.036" ry="0.036"/>
</g>
<!-- C&#45;&gt;C_degradation_intermediate_r -->
<g id="edge30" class="edge"><title>C&#45;&gt;C_degradation_intermediate_r</title>
<path fill="none" stroke="black" d="M540.82,-127.652C559.18,-137.692 587.183,-153.006 588.916,-153.954"/>
</g>
<!-- C_I_binding_intermediate_r -->
<g id="node37" class="node"><title>C_I_binding_intermediate_r</title>
<ellipse fill="black" stroke="black" cx="589" cy="-84" rx="0.036" ry="0.036"/>
</g>
<!-- C&#45;&gt;C_I_binding_intermediate_r -->
<g id="edge36" class="edge"><title>C&#45;&gt;C_I_binding_intermediate_r</title>
<path fill="none" stroke="black" d="M549.996,-105.33C567.29,-95.8728 587.454,-84.8455 588.916,-84.0462"/>
<polygon fill="black" stroke="black" points="547.915,-102.479 540.82,-110.348 551.273,-108.621 547.915,-102.479"/>
</g>
<!-- I -->
<g id="node4" class="node"><title>I</title>
<polyline fill="none" stroke="black" points="540,-68 510,-68 "/>
<path fill="none" stroke="black" d="M510,-68C504,-68 498,-62 498,-56"/>
<polyline fill="none" stroke="black" points="498,-56 498,-44 "/>
<path fill="none" stroke="black" d="M498,-44C498,-38 504,-32 510,-32"/>
<polyline fill="none" stroke="black" points="510,-32 540,-32 "/>
<path fill="none" stroke="black" d="M540,-32C546,-32 552,-38 552,-44"/>
<polyline fill="none" stroke="black" points="552,-44 552,-56 "/>
<path fill="none" stroke="black" d="M552,-56C552,-62 546,-68 540,-68"/>
<text text-anchor="middle" x="525" y="-47.5" font-family="Times Roman,serif" font-size="10.00">I</text>
</g>
<!-- I&#45;&gt;C_I_binding_intermediate_r -->
<g id="edge38" class="edge"><title>I&#45;&gt;C_I_binding_intermediate_r</title>
<path fill="none" stroke="black" d="M561.317,-69.2936C575.21,-76.6739 587.996,-83.4667 588.944,-83.9701"/>
<polygon fill="black" stroke="black" points="562.615,-66.0198 552.142,-64.4191 559.331,-72.2016 562.615,-66.0198"/>
</g>
<!-- I_degradation_intermediate_r -->
<g id="node74" class="node"><title>I_degradation_intermediate_r</title>
<ellipse fill="black" stroke="black" cx="589" cy="-50" rx="0.036" ry="0.036"/>
</g>
<!-- I&#45;&gt;I_degradation_intermediate_r -->
<g id="edge78" class="edge"><title>I&#45;&gt;I_degradation_intermediate_r</title>
<path fill="none" stroke="black" d="M552.142,-50C569.04,-50 587.788,-50 588.944,-50"/>
</g>
<!-- X -->
<g id="node5" class="node"><title>X</title>
<ellipse fill="none" stroke="black" cx="784" cy="-73" rx="18" ry="18"/>
<text text-anchor="middle" x="784" y="-70.5" font-family="Times Roman,serif" font-size="10.00">X</text>
</g>
<!-- I_activation_intermediate_r -->
<g id="node45" class="node"><title>I_activation_intermediate_r</title>
<ellipse fill="black" stroke="black" cx="839" cy="-78" rx="0.036" ry="0.036"/>
</g>
<!-- X&#45;&gt;I_activation_intermediate_r -->
<g id="edge46" class="edge"><title>X&#45;&gt;I_activation_intermediate_r</title>
<path fill="none" stroke="black" d="M802.009,-74.6372C817.548,-76.0498 837.695,-77.8814 838.939,-77.9945"/>
</g>
<!-- X_degradation_intermediate_r -->
<g id="node53" class="node"><title>X_degradation_intermediate_r</title>
<ellipse fill="black" stroke="black" cx="839" cy="-59" rx="0.036" ry="0.036"/>
</g>
<!-- X&#45;&gt;X_degradation_intermediate_r -->
<g id="edge56" class="edge"><title>X&#45;&gt;X_degradation_intermediate_r</title>
<path fill="none" stroke="black" d="M801.705,-68.4932C817.281,-64.5285 837.679,-59.3363 838.939,-59.0156"/>
</g>
<!-- A -->
<g id="node6" class="node"><title>A</title>
<polyline fill="none" stroke="black" points="1058,-121 1028,-121 "/>
<path fill="none" stroke="black" d="M1028,-121C1022,-121 1016,-115 1016,-109"/>
<polyline fill="none" stroke="black" points="1016,-109 1016,-97 "/>
<path fill="none" stroke="black" d="M1016,-97C1016,-91 1022,-85 1028,-85"/>
<polyline fill="none" stroke="black" points="1028,-85 1058,-85 "/>
<path fill="none" stroke="black" d="M1058,-85C1064,-85 1070,-91 1070,-97"/>
<polyline fill="none" stroke="black" points="1070,-97 1070,-109 "/>
<path fill="none" stroke="black" d="M1070,-109C1070,-115 1064,-121 1058,-121"/>
<text text-anchor="middle" x="1043" y="-100.5" font-family="Times Roman,serif" font-size="10.00">A</text>
</g>
<!-- R_expression_intermediate_m -->
<g id="node13" class="node"><title>R_expression_intermediate_m</title>
<ellipse fill="black" stroke="black" cx="1106" cy="-166" rx="0.036" ry="0.036"/>
</g>
<!-- A&#45;&gt;R_expression_intermediate_m -->
<g id="edge10" class="edge"><title>A&#45;&gt;R_expression_intermediate_m</title>
<path fill="none" stroke="black" d="M1061.22,-121.222C1079.25,-139.247 1104.37,-164.372 1105.92,-165.924"/>
</g>
<!-- A_degradation_intermediate_r -->
<g id="node59" class="node"><title>A_degradation_intermediate_r</title>
<ellipse fill="black" stroke="black" cx="1106" cy="-103" rx="0.036" ry="0.036"/>
</g>
<!-- A&#45;&gt;A_degradation_intermediate_r -->
<g id="edge62" class="edge"><title>A&#45;&gt;A_degradation_intermediate_r</title>
<path fill="none" stroke="black" d="M1070.08,-103C1086.62,-103 1104.82,-103 1105.95,-103"/>
</g>
<!-- I_expression_intermediate_m -->
<g id="node70" class="node"><title>I_expression_intermediate_m</title>
<ellipse fill="black" stroke="black" cx="1106" cy="-46" rx="0.036" ry="0.036"/>
</g>
<!-- A&#45;&gt;I_expression_intermediate_m -->
<g id="edge74" class="edge"><title>A&#45;&gt;I_expression_intermediate_m</title>
<path fill="none" stroke="black" d="M1062.93,-84.9648C1080.81,-68.7875 1104.47,-47.3862 1105.93,-46.0644"/>
</g>
<!-- R_expression -->
<g id="node7" class="node"><title>R_expression</title>
<polygon fill="none" stroke="black" points="104,-199 90,-199 90,-185 104,-185 104,-199"/>
</g>
<!-- R_expression_intermediate_p -->
<g id="node10" class="node"><title>R_expression_intermediate_p</title>
<ellipse fill="black" stroke="black" cx="141" cy="-174" rx="0.036" ry="0.036"/>
</g>
<!-- R_expression&#45;&gt;R_expression_intermediate_p -->
<g id="edge4" class="edge"><title>R_expression&#45;&gt;R_expression_intermediate_p</title>
<path fill="none" stroke="black" d="M104.266,-189.028C116.372,-184.075 139.497,-174.615 140.93,-174.029"/>
</g>
<!-- R_expression&#45;&gt;R_expression_intermediate_m -->
<g id="edge8" class="edge"><title>R_expression&#45;&gt;R_expression_intermediate_m</title>
<path fill="none" stroke="black" d="M115.739,-197.341C137.141,-202.961 173.297,-211 205,-211 205,-211 205,-211 953,-211 1022.77,-211 1103.44,-167.395 1105.94,-166.033"/>
<polygon fill="none" stroke="black" points="115.57,-197.294 108.723,-199.556 104.001,-194.106 110.848,-191.844 115.57,-197.294"/>
</g>
<!-- R_expression_empty -->
<g id="node8" class="node"><title>R_expression_empty</title>
<text text-anchor="middle" x="27" y="-187.5" font-family="Times Roman,serif" font-size="15.00" fill="blue">Ø</text>
</g>
<!-- R_expression_empty&#45;&gt;R_expression -->
<g id="edge2" class="edge"><title>R_expression_empty&#45;&gt;R_expression</title>
<path fill="none" stroke="black" d="M54.2643,-192C67.1627,-192 81.5367,-192 89.8947,-192"/>
</g>
<!-- R_expression_intermediate_p&#45;&gt;R -->
<g id="edge6" class="edge"><title>R_expression_intermediate_p&#45;&gt;R</title>
<path fill="none" stroke="black" d="M141.046,-173.993C141.893,-173.874 154.209,-172.143 167.809,-170.23"/>
<polygon fill="black" stroke="black" points="168.379,-173.684 177.794,-168.826 167.404,-166.753 168.379,-173.684"/>
</g>
<!-- R_degradation -->
<g id="node16" class="node"><title>R_degradation</title>
<polygon fill="none" stroke="black" points="372,-172 358,-172 358,-158 372,-158 372,-172"/>
</g>
<!-- R_degradation_empty -->
<g id="node20" class="node"><title>R_degradation_empty</title>
<text text-anchor="middle" x="435" y="-160.5" font-family="Times Roman,serif" font-size="15.00" fill="blue">Ø</text>
</g>
<!-- R_degradation&#45;&gt;R_degradation_empty -->
<g id="edge16" class="edge"><title>R_degradation&#45;&gt;R_degradation_empty</title>
<path fill="none" stroke="black" d="M372.228,-165C378.45,-165 387.94,-165 397.672,-165"/>
<polygon fill="black" stroke="black" points="397.773,-168.5 407.773,-165 397.773,-161.5 397.773,-168.5"/>
</g>
<!-- R_degradation_intermediate_r&#45;&gt;R_degradation -->
<g id="edge12" class="edge"><title>R_degradation_intermediate_r&#45;&gt;R_degradation</title>
<path fill="none" stroke="black" d="M295.051,-165C296.748,-165 340.582,-165 357.98,-165"/>
</g>
<!-- R_L_binding -->
<g id="node22" class="node"><title>R_L_binding</title>
<polygon fill="none" stroke="black" points="372,-126 358,-126 358,-112 372,-112 372,-126"/>
</g>
<!-- R_L_binding_intermediate_p -->
<g id="node27" class="node"><title>R_L_binding_intermediate_p</title>
<ellipse fill="black" stroke="black" cx="435" cy="-119" rx="0.036" ry="0.036"/>
</g>
<!-- R_L_binding&#45;&gt;R_L_binding_intermediate_p -->
<g id="edge24" class="edge"><title>R_L_binding&#45;&gt;R_L_binding_intermediate_p</title>
<path fill="none" stroke="black" d="M372.228,-119C389.554,-119 432.221,-119 434.871,-119"/>
</g>
<!-- R_L_binding_intermediate_r&#45;&gt;R_L_binding -->
<g id="edge18" class="edge"><title>R_L_binding_intermediate_r&#45;&gt;R_L_binding</title>
<path fill="none" stroke="black" d="M295.051,-119C296.748,-119 340.582,-119 357.98,-119"/>
</g>
<!-- R_L_binding_intermediate_p&#45;&gt;C -->
<g id="edge26" class="edge"><title>R_L_binding_intermediate_p&#45;&gt;C</title>
<path fill="none" stroke="black" d="M435.065,-119C436.759,-119 471.076,-119 496.818,-119"/>
<polygon fill="black" stroke="black" points="496.862,-122.5 506.862,-119 496.862,-115.5 496.862,-122.5"/>
</g>
<!-- C_degradation -->
<g id="node30" class="node"><title>C_degradation</title>
<polygon fill="none" stroke="black" points="640,-167 626,-167 626,-153 640,-153 640,-167"/>
</g>
<!-- C_degradation_empty -->
<g id="node34" class="node"><title>C_degradation_empty</title>
<text text-anchor="middle" x="703" y="-160.5" font-family="Times Roman,serif" font-size="15.00" fill="blue">Ø</text>
</g>
<!-- C_degradation&#45;&gt;C_degradation_empty -->
<g id="edge32" class="edge"><title>C_degradation&#45;&gt;C_degradation_empty</title>
<path fill="none" stroke="black" d="M640.228,-160.516C646.45,-160.961 655.94,-161.639 665.672,-162.334"/>
<polygon fill="black" stroke="black" points="665.549,-165.834 675.773,-163.055 666.048,-158.852 665.549,-165.834"/>
</g>
<!-- C_degradation_intermediate_r&#45;&gt;C_degradation -->
<g id="edge28" class="edge"><title>C_degradation_intermediate_r&#45;&gt;C_degradation</title>
<path fill="none" stroke="black" d="M589.126,-154.017C591.022,-154.276 613.795,-157.381 625.759,-159.013"/>
</g>
<!-- C_I_binding -->
<g id="node36" class="node"><title>C_I_binding</title>
<polygon fill="none" stroke="black" points="640,-91 626,-91 626,-77 640,-77 640,-91"/>
</g>
<!-- C_I_binding_intermediate_p -->
<g id="node41" class="node"><title>C_I_binding_intermediate_p</title>
<ellipse fill="black" stroke="black" cx="703" cy="-86" rx="0.036" ry="0.036"/>
</g>
<!-- C_I_binding&#45;&gt;C_I_binding_intermediate_p -->
<g id="edge40" class="edge"><title>C_I_binding&#45;&gt;C_I_binding_intermediate_p</title>
<path fill="none" stroke="black" d="M640.228,-84.2065C657.554,-84.7015 700.221,-85.9206 702.871,-85.9963"/>
</g>
<!-- C_I_binding_intermediate_r&#45;&gt;C_I_binding -->
<g id="edge34" class="edge"><title>C_I_binding_intermediate_r&#45;&gt;C_I_binding</title>
<path fill="none" stroke="black" d="M589.126,-84C591.022,-84 613.795,-84 625.759,-84"/>
</g>
<!-- C_I_binding_intermediate_p&#45;&gt;X -->
<g id="edge42" class="edge"><title>C_I_binding_intermediate_p&#45;&gt;X</title>
<path fill="none" stroke="black" d="M703.059,-85.9906C704.529,-85.7546 733.334,-81.1315 756.167,-77.467"/>
<polygon fill="black" stroke="black" points="756.799,-80.9105 766.118,-75.87 755.689,-73.999 756.799,-80.9105"/>
</g>
<!-- I_activation -->
<g id="node44" class="node"><title>I_activation</title>
<polygon fill="none" stroke="black" points="890,-91 876,-91 876,-77 890,-77 890,-91"/>
</g>
<!-- I_activation_intermediate_p -->
<g id="node48" class="node"><title>I_activation_intermediate_p</title>
<ellipse fill="black" stroke="black" cx="953" cy="-103" rx="0.036" ry="0.036"/>
</g>
<!-- I_activation&#45;&gt;I_activation_intermediate_p -->
<g id="edge48" class="edge"><title>I_activation&#45;&gt;I_activation_intermediate_p</title>
<path fill="none" stroke="black" d="M890.228,-85.9618C907.554,-90.6645 950.221,-102.246 952.871,-102.965"/>
</g>
<!-- I_activation_intermediate_r&#45;&gt;I_activation -->
<g id="edge44" class="edge"><title>I_activation_intermediate_r&#45;&gt;I_activation</title>
<path fill="none" stroke="black" d="M839.126,-78.0172C841.022,-78.2757 863.795,-81.3811 875.759,-83.0126"/>
</g>
<!-- I_activation_intermediate_p&#45;&gt;C -->
<g id="edge50" class="edge"><title>I_activation_intermediate_p&#45;&gt;C</title>
<path fill="none" stroke="black" d="M952.954,-103.012C951.039,-103.496 889.364,-119 839,-119 633,-119 633,-119 633,-119 606.053,-119 575.323,-119 553.552,-119"/>
<polygon fill="black" stroke="black" points="553.345,-115.5 543.345,-119 553.345,-122.5 553.345,-115.5"/>
</g>
<!-- I_activation_intermediate_p&#45;&gt;A -->
<g id="edge52" class="edge"><title>I_activation_intermediate_p&#45;&gt;A</title>
<path fill="none" stroke="black" d="M953.065,-103C954.565,-103 981.648,-103 1005.7,-103"/>
<polygon fill="black" stroke="black" points="1005.75,-106.5 1015.75,-103 1005.75,-99.5001 1005.75,-106.5"/>
</g>
<!-- X_degradation -->
<g id="node52" class="node"><title>X_degradation</title>
<polygon fill="none" stroke="black" points="890,-59 876,-59 876,-45 890,-45 890,-59"/>
</g>
<!-- X_degradation_empty -->
<g id="node56" class="node"><title>X_degradation_empty</title>
<text text-anchor="middle" x="953" y="-47.5" font-family="Times Roman,serif" font-size="15.00" fill="blue">Ø</text>
</g>
<!-- X_degradation&#45;&gt;X_degradation_empty -->
<g id="edge58" class="edge"><title>X_degradation&#45;&gt;X_degradation_empty</title>
<path fill="none" stroke="black" d="M890.228,-52C896.45,-52 905.94,-52 915.672,-52"/>
<polygon fill="black" stroke="black" points="915.773,-55.5001 925.773,-52 915.773,-48.5001 915.773,-55.5001"/>
</g>
<!-- X_degradation_intermediate_r&#45;&gt;X_degradation -->
<g id="edge54" class="edge"><title>X_degradation_intermediate_r&#45;&gt;X_degradation</title>
<path fill="none" stroke="black" d="M839.126,-58.9799C841.022,-58.6784 863.795,-55.0554 875.759,-53.152"/>
</g>
<!-- A_degradation -->
<g id="node58" class="node"><title>A_degradation</title>
<polygon fill="none" stroke="black" points="1156,-110 1142,-110 1142,-96 1156,-96 1156,-110"/>
</g>
<!-- A_degradation_empty -->
<g id="node62" class="node"><title>A_degradation_empty</title>
<text text-anchor="middle" x="1219" y="-98.5" font-family="Times Roman,serif" font-size="15.00" fill="blue">Ø</text>
</g>
<!-- A_degradation&#45;&gt;A_degradation_empty -->
<g id="edge64" class="edge"><title>A_degradation&#45;&gt;A_degradation_empty</title>
<path fill="none" stroke="black" d="M1156.23,-103C1162.45,-103 1171.94,-103 1181.67,-103"/>
<polygon fill="black" stroke="black" points="1181.77,-106.5 1191.77,-103 1181.77,-99.5001 1181.77,-106.5"/>
</g>
<!-- A_degradation_intermediate_r&#45;&gt;A_degradation -->
<g id="edge60" class="edge"><title>A_degradation_intermediate_r&#45;&gt;A_degradation</title>
<path fill="none" stroke="black" d="M1106.12,-103C1107.98,-103 1130.23,-103 1141.92,-103"/>
</g>
<!-- I_expression -->
<g id="node64" class="node"><title>I_expression</title>
<polygon fill="none" stroke="black" points="372,-25 358,-25 358,-11 372,-11 372,-25"/>
</g>
<!-- I_expression_intermediate_p -->
<g id="node67" class="node"><title>I_expression_intermediate_p</title>
<ellipse fill="black" stroke="black" cx="435" cy="-41" rx="0.036" ry="0.036"/>
</g>
<!-- I_expression&#45;&gt;I_expression_intermediate_p -->
<g id="edge68" class="edge"><title>I_expression&#45;&gt;I_expression_intermediate_p</title>
<path fill="none" stroke="black" d="M372.228,-20.3748C389.554,-26.0676 432.221,-40.0869 434.871,-40.9575"/>
</g>
<!-- I_expression&#45;&gt;I_expression_intermediate_m -->
<g id="edge72" class="edge"><title>I_expression&#45;&gt;I_expression_intermediate_m</title>
<path fill="none" stroke="black" d="M384.564,-15.1795C414.669,-11.0906 474.199,-4 525,-4 525,-4 525,-4 953,-4 1022.41,-4 1103.43,-44.6978 1105.94,-45.9696"/>
<polygon fill="none" stroke="black" points="384.199,-15.2307 378.815,-20.0271 372.316,-16.9014 377.701,-12.105 384.199,-15.2307"/>
</g>
<!-- I_expression_empty -->
<g id="node65" class="node"><title>I_expression_empty</title>
<text text-anchor="middle" x="295" y="-13.5" font-family="Times Roman,serif" font-size="15.00" fill="blue">Ø</text>
</g>
<!-- I_expression_empty&#45;&gt;I_expression -->
<g id="edge66" class="edge"><title>I_expression_empty&#45;&gt;I_expression</title>
<path fill="none" stroke="black" d="M322.264,-18C335.163,-18 349.537,-18 357.895,-18"/>
</g>
<!-- I_expression_intermediate_p&#45;&gt;I -->
<g id="edge70" class="edge"><title>I_expression_intermediate_p&#45;&gt;I</title>
<path fill="none" stroke="black" d="M435.065,-41.0065C436.565,-41.1565 463.648,-43.8648 487.704,-46.2704"/>
<polygon fill="black" stroke="black" points="487.446,-49.762 497.745,-47.2745 488.143,-42.7968 487.446,-49.762"/>
</g>
<!-- I_degradation -->
<g id="node73" class="node"><title>I_degradation</title>
<polygon fill="none" stroke="black" points="640,-57 626,-57 626,-43 640,-43 640,-57"/>
</g>
<!-- I_degradation_empty -->
<g id="node77" class="node"><title>I_degradation_empty</title>
<text text-anchor="middle" x="703" y="-45.5" font-family="Times Roman,serif" font-size="15.00" fill="blue">Ø</text>
</g>
<!-- I_degradation&#45;&gt;I_degradation_empty -->
<g id="edge80" class="edge"><title>I_degradation&#45;&gt;I_degradation_empty</title>
<path fill="none" stroke="black" d="M640.228,-50C646.45,-50 655.94,-50 665.672,-50"/>
<polygon fill="black" stroke="black" points="665.773,-53.5001 675.773,-50 665.773,-46.5001 665.773,-53.5001"/>
</g>
<!-- I_degradation_intermediate_r&#45;&gt;I_degradation -->
<g id="edge76" class="edge"><title>I_degradation_intermediate_r&#45;&gt;I_degradation</title>
<path fill="none" stroke="black" d="M589.126,-50C591.022,-50 613.795,-50 625.759,-50"/>
</g>
</g>
</svg>
