<?xml version="1.0" encoding="utf-8"?>
<!-- Generator: Adobe Illustrator 14.0.0, SVG Export Plug-In . SVG Version: 6.00 Build 43363)  -->
<!DOCTYPE svg PUBLIC "-//W3C//DTD SVG 1.1//EN" "http://www.w3.org/Graphics/SVG/1.1/DTD/svg11.dtd">
<svg version="1.1" id="Layer_1" xmlns="http://www.w3.org/2000/svg" xmlns:xlink="http://www.w3.org/1999/xlink" x="0px" y="0px"
	 width="580px" height="263px" viewBox="0 0 580 263" enable-background="new 0 0 580 263" xml:space="preserve">
<g>
	<g id="IL6">
		<circle id="IL6_path1" fill="#FFF67C" stroke="#000000" cx="418.275" cy="142" r="12"/>
		<g>
			<path fill="#272525" d="M411.297,137.438v8.084h-1.043v-8.084H411.297z"/>
			<path fill="#272525" d="M413.121,137.438h1.045v7.209h3.453v0.875h-4.498V137.438L413.121,137.438z"/>
			<path fill="#272525" d="M420.693,141.889v0.778h-2.963v-0.778H420.693z"/>
			<path fill="#272525" d="M426.043,138.469c-0.215-0.012-0.492,0-0.791,0.049c-1.654,0.275-2.531,1.486-2.711,2.771h0.037
				c0.371-0.492,1.02-0.899,1.883-0.899c1.379,0,2.35,0.996,2.35,2.52c0,1.427-0.971,2.746-2.59,2.746
				c-1.668,0-2.758-1.295-2.758-3.321c0-1.535,0.551-2.746,1.318-3.515c0.647-0.635,1.512-1.031,2.494-1.15
				c0.312-0.048,0.575-0.061,0.768-0.061V138.469z M424.232,144.838c0.899,0,1.512-0.755,1.512-1.871
				c0-1.115-0.637-1.787-1.607-1.787c-0.637,0-1.223,0.396-1.512,0.959c-0.072,0.12-0.119,0.276-0.119,0.469
				c0.023,1.283,0.611,2.23,1.715,2.23H424.232z"/>
		</g>
	</g>
	<g>
		<path fill="#92BB8F" d="M480.101,247.169c0,2.75-2.25,5-5,5h-76.76c-2.75,0-5-2.25-5-5v-27.793c0-2.75,2.25-5,5-5h76.76
			c2.75,0,5,2.25,5,5V247.169z"/>
		<path fill="none" stroke="#000000" d="M480.101,247.169c0,2.75-2.25,5-5,5h-76.76c-2.75,0-5-2.25-5-5v-27.793c0-2.75,2.25-5,5-5
			h76.76c2.75,0,5,2.25,5,5V247.169z"/>
	</g>
	<g id="Z">
		<path fill="#92BB8F" d="M570.236,144.918c0,2.75-2.25,5-5,5h-76.761c-2.75,0-5-2.25-5-5v-27.792c0-2.75,2.25-5,5-5h76.761
			c2.75,0,5,2.25,5,5V144.918z"/>
		<path id="Z_path1" fill="none" stroke="#000000" d="M570.236,144.918c0,2.75-2.25,5-5,5h-76.761c-2.75,0-5-2.25-5-5v-27.792
			c0-2.75,2.25-5,5-5h76.761c2.75,0,5,2.25,5,5V144.918z"/>
	</g>
	<g>
		<path fill="#92BB8F" d="M390.967,144.918c0,2.75-2.25,5-5,5h-76.76c-2.75,0-5-2.25-5-5v-27.792c0-2.75,2.25-5,5-5h76.76
			c2.75,0,5,2.25,5,5V144.918z"/>
		<path fill="none" stroke="#000000" d="M390.967,144.918c0,2.75-2.25,5-5,5h-76.76c-2.75,0-5-2.25-5-5v-27.792c0-2.75,2.25-5,5-5
			h76.76c2.75,0,5,2.25,5,5V144.918z"/>
	</g>
	<g>
		<path d="M411.828,228.323c0.468,0.288,1.15,0.528,1.871,0.528c1.066,0,1.69-0.563,1.69-1.379c0-0.756-0.432-1.188-1.522-1.607
			c-1.319-0.469-2.135-1.151-2.135-2.291c0-1.26,1.043-2.195,2.613-2.195c0.827,0,1.428,0.191,1.787,0.396l-0.288,0.852
			c-0.264-0.145-0.803-0.384-1.535-0.384c-1.104,0-1.522,0.659-1.522,1.211c0,0.755,0.492,1.127,1.606,1.56
			c1.367,0.527,2.063,1.188,2.063,2.375c0,1.246-0.923,2.338-2.83,2.338c-0.779,0-1.631-0.24-2.062-0.528L411.828,228.323z"/>
		<path d="M418.511,226.884c0.023,1.427,0.937,2.015,1.99,2.015c0.756,0,1.212-0.131,1.607-0.299l0.18,0.756
			c-0.371,0.168-1.007,0.371-1.931,0.371c-1.787,0-2.854-1.187-2.854-2.938s1.031-3.13,2.723-3.13c1.896,0,2.398,1.667,2.398,2.733
			c0,0.217-0.023,0.385-0.035,0.492L418.511,226.884L418.511,226.884z M421.605,226.128c0.012-0.671-0.275-1.715-1.464-1.715
			c-1.066,0-1.534,0.983-1.618,1.715H421.605z"/>
		<path d="M423.935,225.361c0-0.601-0.012-1.092-0.047-1.571h0.937l0.059,0.959h0.025c0.287-0.552,0.959-1.091,1.918-1.091
			c0.804,0,2.051,0.479,2.051,2.47v3.466h-1.055v-3.346c0-0.936-0.349-1.715-1.345-1.715c-0.694,0-1.234,0.492-1.414,1.078
			c-0.049,0.133-0.071,0.312-0.071,0.492v3.49h-1.058V225.361L423.935,225.361z"/>
		<path d="M431.183,226.884c0.023,1.427,0.937,2.015,1.99,2.015c0.756,0,1.212-0.131,1.607-0.299l0.18,0.756
			c-0.371,0.168-1.007,0.371-1.931,0.371c-1.787,0-2.854-1.187-2.854-2.938s1.031-3.13,2.724-3.13c1.895,0,2.397,1.667,2.397,2.733
			c0,0.217-0.022,0.385-0.035,0.492L431.183,226.884L431.183,226.884z M434.277,226.128c0.012-0.671-0.275-1.715-1.463-1.715
			c-1.067,0-1.535,0.983-1.619,1.715H434.277z"/>
		<path d="M436.463,228.516c0.313,0.203,0.864,0.42,1.394,0.42c0.768,0,1.127-0.385,1.127-0.863c0-0.504-0.302-0.78-1.08-1.067
			c-1.043-0.372-1.535-0.948-1.535-1.644c0-0.936,0.756-1.703,2.004-1.703c0.587,0,1.104,0.167,1.427,0.359l-0.265,0.768
			c-0.228-0.145-0.646-0.335-1.188-0.335c-0.624,0-0.972,0.36-0.972,0.792c0,0.479,0.348,0.695,1.104,0.982
			c1.008,0.385,1.522,0.889,1.522,1.752c0,1.02-0.792,1.75-2.172,1.75c-0.635,0-1.223-0.168-1.631-0.408L436.463,228.516z"/>
		<path d="M445.497,229.379c-0.276,0.145-0.888,0.348-1.667,0.348c-1.751,0-2.891-1.199-2.891-2.974
			c0-1.787,1.224-3.083,3.118-3.083c0.623,0,1.176,0.156,1.464,0.301l-0.24,0.814c-0.252-0.145-0.647-0.276-1.224-0.276
			c-1.332,0-2.052,0.984-2.052,2.195c0,1.343,0.864,2.171,2.016,2.171c0.6,0,0.995-0.156,1.296-0.288L445.497,229.379z"/>
		<path d="M447.252,226.884c0.023,1.427,0.937,2.015,1.99,2.015c0.756,0,1.211-0.131,1.606-0.299l0.181,0.756
			c-0.372,0.168-1.008,0.371-1.933,0.371c-1.787,0-2.854-1.187-2.854-2.938s1.031-3.13,2.723-3.13c1.896,0,2.398,1.667,2.398,2.733
			c0,0.217-0.024,0.385-0.036,0.492L447.252,226.884L447.252,226.884z M450.345,226.128c0.013-0.671-0.274-1.715-1.463-1.715
			c-1.067,0-1.535,0.983-1.619,1.715H450.345z"/>
		<path d="M452.676,225.361c0-0.601-0.012-1.092-0.048-1.571h0.937l0.06,0.959h0.024c0.287-0.552,0.96-1.091,1.919-1.091
			c0.803,0,2.051,0.479,2.051,2.47v3.466h-1.057v-3.346c0-0.936-0.348-1.715-1.343-1.715c-0.694,0-1.235,0.492-1.416,1.078
			c-0.047,0.133-0.07,0.312-0.07,0.492v3.49h-1.057V225.361z"/>
		<path d="M460.558,222.398v1.392h1.513v0.803h-1.513v3.13c0,0.721,0.204,1.127,0.792,1.127c0.288,0,0.456-0.023,0.612-0.072
			l0.047,0.793c-0.203,0.084-0.526,0.156-0.936,0.156c-0.491,0-0.888-0.168-1.14-0.457c-0.301-0.312-0.407-0.828-0.407-1.511v-3.167
			h-0.899v-0.803h0.899v-1.066L460.558,222.398z"/>
		<path d="M417.572,241.044c0,2.146-1.486,3.082-2.891,3.082c-1.57,0-2.781-1.151-2.781-2.985c0-1.943,1.271-3.082,2.878-3.082
			C416.445,238.059,417.572,239.27,417.572,241.044z M412.967,241.104c0,1.271,0.732,2.231,1.765,2.231
			c1.008,0,1.764-0.946,1.764-2.255c0-0.982-0.492-2.23-1.74-2.23C413.508,238.85,412.967,240.001,412.967,241.104z"/>
		<path d="M418.763,242.915c0.313,0.204,0.863,0.42,1.393,0.42c0.768,0,1.127-0.384,1.127-0.862c0-0.505-0.3-0.781-1.079-1.068
			c-1.043-0.372-1.535-0.947-1.535-1.644c0-0.935,0.756-1.702,2.003-1.702c0.587,0,1.104,0.166,1.427,0.358l-0.264,0.769
			c-0.228-0.145-0.647-0.336-1.188-0.336c-0.623,0-0.972,0.36-0.972,0.793c0,0.479,0.349,0.694,1.104,0.982
			c1.007,0.384,1.521,0.889,1.521,1.751c0,1.021-0.792,1.751-2.171,1.751c-0.635,0-1.223-0.168-1.631-0.408L418.763,242.915z"/>
		<path d="M424.931,236.798v1.392h1.512v0.804h-1.512v3.13c0,0.72,0.203,1.127,0.791,1.127c0.287,0,0.455-0.023,0.611-0.072
			l0.049,0.792c-0.205,0.085-0.527,0.156-0.936,0.156c-0.492,0-0.89-0.168-1.142-0.456c-0.299-0.312-0.406-0.828-0.406-1.511v-3.167
			H423v-0.803h0.899v-1.067L424.931,236.798z"/>
		<path d="M428.147,241.284c0.023,1.427,0.935,2.015,1.99,2.015c0.755,0,1.211-0.132,1.606-0.3l0.181,0.756
			c-0.373,0.168-1.008,0.372-1.932,0.372c-1.787,0-2.854-1.188-2.854-2.938s1.032-3.131,2.724-3.131
			c1.896,0,2.398,1.668,2.398,2.734c0,0.216-0.024,0.384-0.037,0.492L428.147,241.284L428.147,241.284z M431.242,240.527
			c0.012-0.67-0.276-1.715-1.464-1.715c-1.067,0-1.535,0.983-1.619,1.715H431.242z"/>
		<path d="M438.824,241.044c0,2.146-1.486,3.082-2.891,3.082c-1.57,0-2.781-1.151-2.781-2.985c0-1.943,1.271-3.082,2.878-3.082
			C437.697,238.059,438.824,239.27,438.824,241.044z M434.219,241.104c0,1.271,0.732,2.231,1.765,2.231
			c1.008,0,1.764-0.946,1.764-2.255c0-0.982-0.492-2.23-1.74-2.23C434.76,238.85,434.219,240.001,434.219,241.104z"/>
		<path d="M444.297,243.779c-0.274,0.144-0.887,0.348-1.666,0.348c-1.752,0-2.891-1.199-2.891-2.975
			c0-1.786,1.223-3.082,3.118-3.082c0.624,0,1.175,0.156,1.463,0.3l-0.239,0.815c-0.252-0.145-0.648-0.275-1.224-0.275
			c-1.331,0-2.053,0.982-2.053,2.193c0,1.344,0.864,2.172,2.017,2.172c0.6,0,0.996-0.156,1.295-0.288L444.297,243.779z"/>
		<path d="M445.535,235.479h1.057v8.516h-1.057V235.479z"/>
		<path d="M452.445,242.604c0,0.504,0.022,0.996,0.096,1.392h-0.959l-0.084-0.731h-0.037c-0.323,0.456-0.947,0.863-1.773,0.863
			c-1.176,0-1.774-0.828-1.774-1.667c0-1.403,1.246-2.171,3.489-2.159v-0.119c0-0.479-0.132-1.344-1.319-1.344
			c-0.539,0-1.104,0.168-1.511,0.432l-0.24-0.694c0.479-0.312,1.175-0.517,1.907-0.517c1.774,0,2.207,1.211,2.207,2.375
			L452.445,242.604L452.445,242.604z M451.426,241.032c-1.151-0.024-2.459,0.18-2.459,1.307c0,0.685,0.456,1.009,0.996,1.009
			c0.755,0,1.234-0.48,1.402-0.973c0.036-0.107,0.061-0.229,0.061-0.336V241.032z"/>
		<path d="M454.008,242.915c0.312,0.204,0.863,0.42,1.392,0.42c0.768,0,1.127-0.384,1.127-0.862c0-0.505-0.3-0.781-1.078-1.068
			c-1.044-0.372-1.535-0.947-1.535-1.644c0-0.935,0.755-1.702,2.002-1.702c0.588,0,1.104,0.166,1.428,0.358l-0.264,0.769
			c-0.229-0.145-0.648-0.336-1.188-0.336c-0.624,0-0.972,0.36-0.972,0.793c0,0.479,0.348,0.694,1.104,0.982
			c1.007,0.384,1.521,0.889,1.521,1.751c0,1.021-0.791,1.751-2.17,1.751c-0.636,0-1.224-0.168-1.631-0.408L454.008,242.915z"/>
		<path d="M460.175,236.798v1.392h1.511v0.804h-1.511v3.13c0,0.72,0.204,1.127,0.792,1.127c0.287,0,0.455-0.023,0.611-0.072
			l0.048,0.792c-0.204,0.085-0.528,0.156-0.936,0.156c-0.491,0-0.889-0.168-1.141-0.456c-0.3-0.312-0.408-0.828-0.408-1.511v-3.167
			h-0.897v-0.803h0.897v-1.067L460.175,236.798z"/>
	</g>
	<g>
		<path d="M315.217,126.558c0.504-0.084,1.163-0.156,2.003-0.156c1.031,0,1.787,0.24,2.268,0.672
			c0.442,0.384,0.707,0.971,0.707,1.691c0,0.731-0.216,1.307-0.623,1.727c-0.553,0.587-1.451,0.888-2.472,0.888
			c-0.312,0-0.6-0.012-0.84-0.072v3.238h-1.043V126.558z M316.26,130.456c0.229,0.06,0.517,0.084,0.863,0.084
			c1.26,0,2.027-0.612,2.027-1.727c0-1.067-0.757-1.583-1.906-1.583c-0.457,0-0.805,0.036-0.984,0.084V130.456z"/>
		<path d="M321.373,130.552c0-0.684-0.013-1.271-0.049-1.811h0.924l0.036,1.139h0.048c0.264-0.779,0.899-1.271,1.607-1.271
			c0.118,0,0.202,0.012,0.3,0.036v0.996c-0.108-0.024-0.216-0.036-0.36-0.036c-0.743,0-1.271,0.564-1.415,1.355
			c-0.023,0.144-0.048,0.312-0.048,0.492v3.094h-1.043V130.552z"/>
		<path d="M325.764,131.835c0.024,1.427,0.937,2.015,1.991,2.015c0.755,0,1.211-0.132,1.606-0.3l0.181,0.757
			c-0.373,0.168-1.008,0.371-1.932,0.371c-1.787,0-2.854-1.188-2.854-2.938s1.032-3.13,2.724-3.13c1.896,0,2.398,1.667,2.398,2.734
			c0,0.216-0.025,0.384-0.037,0.492L325.764,131.835L325.764,131.835z M328.859,131.079c0.012-0.671-0.276-1.715-1.465-1.715
			c-1.066,0-1.534,0.983-1.618,1.715H328.859z"/>
		<path d="M336.441,131.595c0,2.146-1.486,3.082-2.892,3.082c-1.569,0-2.782-1.151-2.782-2.986c0-1.943,1.271-3.082,2.879-3.082
			C335.314,128.609,336.441,129.82,336.441,131.595z M331.836,131.655c0,1.271,0.732,2.23,1.764,2.23
			c1.008,0,1.764-0.946,1.764-2.255c0-0.983-0.491-2.23-1.739-2.23C332.376,129.4,331.836,130.552,331.836,131.655z"/>
		<path d="M337.633,133.466c0.313,0.204,0.863,0.42,1.393,0.42c0.768,0,1.127-0.384,1.127-0.862c0-0.504-0.301-0.78-1.079-1.068
			c-1.043-0.372-1.535-0.947-1.535-1.643c0-0.935,0.756-1.703,2.003-1.703c0.587,0,1.104,0.167,1.427,0.359l-0.264,0.768
			c-0.229-0.144-0.647-0.335-1.188-0.335c-0.623,0-0.971,0.36-0.971,0.792c0,0.479,0.348,0.695,1.104,0.983
			c1.007,0.384,1.521,0.889,1.521,1.751c0,1.021-0.792,1.751-2.171,1.751c-0.635,0-1.223-0.168-1.631-0.408L337.633,133.466z"/>
		<path d="M343.801,127.349v1.392h1.511v0.803h-1.511v3.13c0,0.721,0.203,1.127,0.791,1.127c0.287,0,0.455-0.023,0.611-0.072
			l0.049,0.793c-0.205,0.084-0.528,0.155-0.936,0.155c-0.492,0-0.89-0.168-1.142-0.456c-0.299-0.312-0.407-0.828-0.407-1.511v-3.167
			h-0.898v-0.803h0.898v-1.067L343.801,127.349z"/>
		<path d="M347.016,131.835c0.024,1.427,0.937,2.015,1.991,2.015c0.755,0,1.211-0.132,1.606-0.3l0.181,0.757
			c-0.373,0.168-1.008,0.371-1.932,0.371c-1.787,0-2.854-1.188-2.854-2.938s1.032-3.13,2.724-3.13c1.896,0,2.398,1.667,2.398,2.734
			c0,0.216-0.025,0.384-0.037,0.492L347.016,131.835L347.016,131.835z M350.111,131.079c0.012-0.671-0.276-1.715-1.464-1.715
			c-1.067,0-1.535,0.983-1.619,1.715H350.111z"/>
		<path d="M357.693,131.595c0,2.146-1.486,3.082-2.892,3.082c-1.569,0-2.782-1.151-2.782-2.986c0-1.943,1.271-3.082,2.879-3.082
			C356.566,128.609,357.693,129.82,357.693,131.595z M353.088,131.655c0,1.271,0.732,2.23,1.764,2.23
			c1.008,0,1.764-0.946,1.764-2.255c0-0.983-0.491-2.23-1.739-2.23C353.628,129.4,353.088,130.552,353.088,131.655z"/>
		<path d="M363.166,134.33c-0.275,0.145-0.888,0.348-1.667,0.348c-1.751,0-2.891-1.199-2.891-2.974c0-1.787,1.224-3.083,3.117-3.083
			c0.624,0,1.177,0.156,1.464,0.3l-0.239,0.815c-0.252-0.144-0.647-0.275-1.225-0.275c-1.331,0-2.051,0.983-2.051,2.194
			c0,1.343,0.863,2.171,2.017,2.171c0.6,0,0.994-0.156,1.295-0.288L363.166,134.33z"/>
		<path d="M364.404,126.03h1.056v8.515h-1.056V126.03z"/>
		<path d="M371.314,133.154c0,0.503,0.022,0.994,0.096,1.391h-0.959l-0.084-0.73h-0.037c-0.323,0.455-0.947,0.862-1.774,0.862
			c-1.175,0-1.773-0.827-1.773-1.667c0-1.403,1.246-2.171,3.489-2.159v-0.12c0-0.479-0.133-1.343-1.319-1.343
			c-0.539,0-1.104,0.168-1.511,0.432l-0.24-0.695c0.479-0.312,1.176-0.516,1.907-0.516c1.774,0,2.207,1.211,2.207,2.375
			L371.314,133.154L371.314,133.154z M370.295,131.583c-1.151-0.024-2.459,0.18-2.459,1.308c0,0.684,0.456,1.008,0.996,1.008
			c0.755,0,1.234-0.48,1.402-0.973c0.035-0.107,0.061-0.228,0.061-0.336V131.583z"/>
		<path d="M372.876,133.466c0.312,0.204,0.864,0.42,1.392,0.42c0.769,0,1.127-0.384,1.127-0.862c0-0.504-0.3-0.78-1.078-1.068
			c-1.044-0.372-1.535-0.947-1.535-1.643c0-0.935,0.755-1.703,2.003-1.703c0.588,0,1.104,0.167,1.428,0.359l-0.265,0.768
			c-0.229-0.144-0.647-0.335-1.188-0.335c-0.625,0-0.973,0.36-0.973,0.792c0,0.479,0.348,0.695,1.104,0.983
			c1.009,0.384,1.523,0.889,1.523,1.751c0,1.021-0.791,1.751-2.171,1.751c-0.636,0-1.225-0.168-1.631-0.408L372.876,133.466z"/>
		<path d="M379.043,127.349v1.392h1.512v0.803h-1.512v3.13c0,0.721,0.204,1.127,0.792,1.127c0.288,0,0.456-0.023,0.611-0.072
			l0.048,0.793c-0.203,0.084-0.527,0.155-0.937,0.155c-0.49,0-0.887-0.168-1.139-0.456c-0.301-0.312-0.408-0.828-0.408-1.511v-3.167
			h-0.898v-0.803h0.898v-1.067L379.043,127.349z"/>
	</g>
	<g>
		<path d="M508.559,130.417c0,2.783-1.69,4.258-3.754,4.258c-2.135,0-3.634-1.655-3.634-4.102c0-2.567,1.595-4.246,3.754-4.246
			C507.133,126.328,508.559,128.019,508.559,130.417z M502.287,130.55c0,1.728,0.936,3.274,2.578,3.274
			c1.654,0,2.591-1.523,2.591-3.358c0-1.607-0.839-3.286-2.579-3.286C503.15,127.18,502.287,128.774,502.287,130.55z"/>
		<path d="M509.739,133.464c0.312,0.204,0.864,0.42,1.392,0.42c0.769,0,1.127-0.384,1.127-0.862c0-0.504-0.3-0.78-1.079-1.068
			c-1.044-0.372-1.535-0.947-1.535-1.643c0-0.935,0.756-1.703,2.003-1.703c0.589,0,1.104,0.167,1.429,0.359l-0.266,0.768
			c-0.228-0.144-0.646-0.335-1.187-0.335c-0.625,0-0.973,0.36-0.973,0.792c0,0.479,0.348,0.695,1.104,0.983
			c1.008,0.384,1.523,0.889,1.523,1.751c0,1.021-0.791,1.751-2.172,1.751c-0.636,0-1.224-0.168-1.631-0.408L509.739,133.464z"/>
		<path d="M515.906,127.347v1.392h1.512v0.803h-1.512v3.13c0,0.721,0.204,1.127,0.792,1.127c0.288,0,0.456-0.023,0.611-0.072
			l0.048,0.793c-0.203,0.084-0.527,0.155-0.937,0.155c-0.491,0-0.887-0.168-1.139-0.456c-0.301-0.312-0.408-0.828-0.408-1.511
			v-3.167h-0.899v-0.803h0.899v-1.067L515.906,127.347z"/>
		<path d="M519.123,131.833c0.023,1.427,0.936,2.015,1.99,2.015c0.756,0,1.212-0.132,1.606-0.3l0.181,0.756
			c-0.371,0.169-1.008,0.372-1.932,0.372c-1.787,0-2.854-1.188-2.854-2.938c0-1.75,1.03-3.13,2.723-3.13
			c1.896,0,2.398,1.667,2.398,2.734c0,0.216-0.023,0.384-0.035,0.492L519.123,131.833L519.123,131.833z M522.217,131.077
			c0.012-0.671-0.274-1.715-1.463-1.715c-1.067,0-1.535,0.983-1.619,1.715H522.217z"/>
		<path d="M529.8,131.593c0,2.146-1.487,3.082-2.89,3.082c-1.572,0-2.783-1.151-2.783-2.986c0-1.943,1.271-3.082,2.879-3.082
			C528.673,128.607,529.8,129.818,529.8,131.593z M525.194,131.653c0,1.271,0.73,2.231,1.763,2.231c1.008,0,1.764-0.946,1.764-2.255
			c0-0.983-0.492-2.23-1.738-2.23C525.735,129.399,525.194,130.55,525.194,131.653z"/>
		<path d="M535.271,134.328c-0.275,0.145-0.888,0.348-1.666,0.348c-1.752,0-2.892-1.199-2.892-2.974
			c0-1.787,1.224-3.083,3.119-3.083c0.623,0,1.175,0.156,1.463,0.3l-0.24,0.815c-0.252-0.144-0.646-0.275-1.223-0.275
			c-1.332,0-2.052,0.983-2.052,2.194c0,1.343,0.863,2.171,2.015,2.171c0.601,0,0.996-0.156,1.296-0.288L535.271,134.328z"/>
		<path d="M536.51,126.028h1.057v8.515h-1.057V126.028z"/>
		<path d="M543.42,133.152c0,0.503,0.024,0.994,0.097,1.391h-0.96l-0.084-0.73h-0.035c-0.323,0.455-0.946,0.862-1.774,0.862
			c-1.176,0-1.775-0.827-1.775-1.667c0-1.403,1.248-2.171,3.49-2.159v-0.12c0-0.479-0.132-1.343-1.318-1.343
			c-0.541,0-1.104,0.168-1.512,0.432l-0.24-0.695c0.48-0.312,1.177-0.516,1.907-0.516c1.774,0,2.206,1.211,2.206,2.375
			L543.42,133.152L543.42,133.152z M542.4,131.581c-1.15-0.024-2.458,0.18-2.458,1.308c0,0.684,0.456,1.008,0.995,1.008
			c0.756,0,1.235-0.48,1.403-0.973c0.035-0.107,0.06-0.229,0.06-0.336V131.581z"/>
		<path d="M544.982,133.464c0.312,0.204,0.863,0.42,1.393,0.42c0.768,0,1.127-0.384,1.127-0.862c0-0.504-0.301-0.78-1.08-1.068
			c-1.043-0.372-1.535-0.947-1.535-1.643c0-0.935,0.756-1.703,2.004-1.703c0.588,0,1.104,0.167,1.428,0.359l-0.266,0.768
			c-0.227-0.144-0.646-0.335-1.187-0.335c-0.624,0-0.972,0.36-0.972,0.792c0,0.479,0.348,0.695,1.104,0.983
			c1.008,0.384,1.523,0.889,1.523,1.751c0,1.021-0.792,1.751-2.173,1.751c-0.635,0-1.223-0.168-1.631-0.408L544.982,133.464z"/>
		<path d="M551.15,127.347v1.392h1.512v0.803h-1.512v3.13c0,0.721,0.203,1.127,0.791,1.127c0.288,0,0.456-0.023,0.61-0.072
			l0.05,0.793c-0.204,0.084-0.527,0.155-0.937,0.155c-0.492,0-0.888-0.168-1.14-0.456c-0.301-0.312-0.407-0.828-0.407-1.511v-3.167
			h-0.9v-0.803h0.9v-1.067L551.15,127.347z"/>
	</g>
	<g>
		<g>
			<line fill="none" stroke="#000000" x1="391.359" y1="129.999" x2="477.859" y2="129.999"/>
			<polygon points="475.051,133.702 476.623,129.999 475.051,126.295 483.828,129.999 			"/>
		</g>
	</g>
	<g>
		<g>
			<line fill="none" stroke="#000000" x1="497.359" y1="149.999" x2="465.859" y2="208.999"/>
			<polygon points="463.915,204.777 466.441,207.909 470.449,208.266 463.048,214.266 			"/>
		</g>
	</g>
	<g>
		<path d="M460.31,113.88v3.292h3.166v0.84h-3.166v3.32h-0.896v-3.32h-3.166v-0.84h3.166v-3.292H460.31z"/>
	</g>
</g>
<circle id="IL6_path2" fill="#FFF67C" stroke="#000000" cx="120.25" cy="142" r="12"/>
<circle id="P_path2" fill="#A3BADB" stroke="#000000" cx="120.25" cy="117.5" r="12"/>
<g>
	<path fill="#C1B1D4" d="M182.242,247.169c0,2.75-2.25,5-5,5h-76.76c-2.75,0-5-2.25-5-5v-27.792c0-2.75,2.25-5,5-5h76.76
		c2.75,0,5,2.25,5,5V247.169z"/>
	<path fill="none" stroke="#000000" d="M182.242,247.169c0,2.75-2.25,5-5,5h-76.76c-2.75,0-5-2.25-5-5v-27.792c0-2.75,2.25-5,5-5
		h76.76c2.75,0,5,2.25,5,5V247.169z"/>
</g>
<g id="X">
	<path fill="#C1B1D4" d="M272.377,144.919c0,2.75-2.25,5-5,5h-76.76c-2.75,0-5-2.25-5-5v-27.792c0-2.75,2.25-5,5-5h76.76
		c2.75,0,5,2.25,5,5V144.919z"/>
	<path id="X_path1" fill="none" stroke="#000000" d="M272.377,144.919c0,2.75-2.25,5-5,5h-76.76c-2.75,0-5-2.25-5-5v-27.792
		c0-2.75,2.25-5,5-5h76.76c2.75,0,5,2.25,5,5V144.919z"/>
</g>
<g id="Y">
	<path fill="#C1B1D4" d="M93.107,144.919c0,2.75-2.25,5-5,5h-76.76c-2.75,0-5-2.25-5-5v-27.792c0-2.75,2.25-5,5-5h76.76
		c2.75,0,5,2.25,5,5V144.919z"/>
	<path id="Y_path1" fill="none" stroke="#000000" d="M93.107,144.919c0,2.75-2.25,5-5,5h-76.76c-2.75,0-5-2.25-5-5v-27.792
		c0-2.75,2.25-5,5-5h76.76c2.75,0,5,2.25,5,5V144.919z"/>
</g>
<g>
	<path fill="#C1B1D4" d="M182.242,42.669c0,2.75-2.25,5-5,5h-76.76c-2.75,0-5-2.25-5-5V14.877c0-2.75,2.25-5,5-5h76.76
		c2.75,0,5,2.25,5,5V42.669z"/>
	<path fill="none" stroke="#000000" d="M182.242,42.669c0,2.75-2.25,5-5,5h-76.76c-2.75,0-5-2.25-5-5V14.877c0-2.75,2.25-5,5-5
		h76.76c2.75,0,5,2.25,5,5V42.669z"/>
</g>
<g>
	<path d="M34.931,64.365c0.527-0.108,1.282-0.168,2.003-0.168c1.114,0,1.835,0.204,2.338,0.66c0.408,0.36,0.636,0.912,0.636,1.535
		c0,1.067-0.671,1.775-1.523,2.063v0.036c0.624,0.216,0.995,0.792,1.188,1.631c0.264,1.127,0.456,1.907,0.624,2.219h-1.08
		c-0.132-0.24-0.312-0.923-0.54-1.931c-0.24-1.115-0.672-1.535-1.619-1.571h-0.982v3.502h-1.043V64.365z M35.975,68.047h1.066
		c1.115,0,1.823-0.612,1.823-1.535c0-1.043-0.755-1.5-1.859-1.511c-0.504,0-0.862,0.048-1.03,0.096V68.047z"/>
	<path d="M45.572,70.949c0,0.503,0.024,0.995,0.096,1.391h-0.959l-0.084-0.731h-0.036c-0.323,0.456-0.946,0.863-1.774,0.863
		c-1.175,0-1.774-0.828-1.774-1.667c0-1.403,1.247-2.171,3.49-2.159v-0.12c0-0.479-0.132-1.343-1.319-1.343
		c-0.54,0-1.104,0.168-1.512,0.432L41.46,66.92c0.479-0.312,1.175-0.516,1.906-0.516c1.775,0,2.207,1.211,2.207,2.375L45.572,70.949
		L45.572,70.949z M44.553,69.378c-1.151-0.024-2.458,0.18-2.458,1.307c0,0.684,0.454,1.008,0.994,1.008
		c0.757,0,1.235-0.48,1.403-0.972c0.036-0.108,0.061-0.228,0.061-0.336V69.378z"/>
	<path d="M48.502,65.145v1.391h1.513v0.803h-1.513v3.13c0,0.72,0.204,1.127,0.792,1.127c0.288,0,0.456-0.024,0.611-0.072
		l0.048,0.792c-0.203,0.084-0.527,0.156-0.936,0.156c-0.491,0-0.888-0.168-1.14-0.456c-0.3-0.312-0.407-0.828-0.407-1.511v-3.167
		h-0.899v-0.803h0.899v-1.067L48.502,65.145z"/>
	<path d="M51.718,69.63c0.024,1.427,0.937,2.015,1.991,2.015c0.756,0,1.211-0.132,1.607-0.3l0.18,0.756
		c-0.372,0.168-1.008,0.372-1.931,0.372c-1.787,0-2.854-1.187-2.854-2.938s1.031-3.13,2.724-3.13c1.895,0,2.397,1.667,2.397,2.734
		c0,0.216-0.023,0.384-0.036,0.492L51.718,69.63L51.718,69.63z M54.813,68.874c0.012-0.671-0.276-1.715-1.463-1.715
		c-1.067,0-1.535,0.983-1.619,1.715H54.813z"/>
	<path d="M61.642,65.528h-0.023l-1.354,0.731l-0.204-0.804l1.703-0.912h0.898v7.796h-1.02V65.528z"/>
</g>
<g>
	<path d="M142.447,115.218c0.528-0.108,1.283-0.168,2.003-0.168c1.116,0,1.835,0.204,2.339,0.66c0.408,0.36,0.636,0.912,0.636,1.535
		c0,1.067-0.672,1.775-1.522,2.063v0.036c0.624,0.216,0.996,0.792,1.188,1.631c0.265,1.127,0.456,1.907,0.624,2.219h-1.078
		c-0.134-0.24-0.313-0.923-0.54-1.931c-0.24-1.115-0.673-1.535-1.619-1.571h-0.983v3.502h-1.044v-7.976H142.447z M143.491,118.9
		h1.067c1.114,0,1.822-0.612,1.822-1.535c0-1.043-0.756-1.5-1.858-1.511c-0.504,0-0.863,0.048-1.031,0.096V118.9z"/>
	<path d="M153.089,121.803c0,0.503,0.024,0.995,0.097,1.391h-0.959l-0.084-0.731h-0.036c-0.324,0.456-0.947,0.863-1.775,0.863
		c-1.175,0-1.773-0.828-1.773-1.667c0-1.403,1.247-2.171,3.489-2.159v-0.12c0-0.479-0.132-1.343-1.318-1.343
		c-0.54,0-1.104,0.168-1.513,0.432l-0.238-0.695c0.479-0.312,1.175-0.516,1.905-0.516c1.775,0,2.207,1.211,2.207,2.375
		L153.089,121.803L153.089,121.803z M152.069,120.231c-1.151-0.024-2.458,0.18-2.458,1.307c0,0.684,0.455,1.008,0.995,1.008
		c0.756,0,1.234-0.48,1.402-0.972c0.036-0.108,0.061-0.228,0.061-0.336V120.231z"/>
	<path d="M156.019,115.998v1.391h1.512v0.803h-1.512v3.13c0,0.72,0.204,1.127,0.792,1.127c0.288,0,0.456-0.024,0.61-0.072
		l0.049,0.792c-0.203,0.084-0.527,0.156-0.937,0.156c-0.491,0-0.887-0.168-1.139-0.456c-0.3-0.312-0.408-0.828-0.408-1.511v-3.167
		h-0.899v-0.803h0.899v-1.067L156.019,115.998z"/>
	<path d="M159.234,120.483c0.023,1.427,0.936,2.015,1.991,2.015c0.756,0,1.211-0.132,1.606-0.3l0.181,0.756
		c-0.372,0.168-1.009,0.372-1.932,0.372c-1.787,0-2.854-1.187-2.854-2.938c0-1.751,1.03-3.13,2.723-3.13
		c1.896,0,2.398,1.667,2.398,2.734c0,0.216-0.024,0.384-0.036,0.492L159.234,120.483L159.234,120.483z M162.329,119.728
		c0.012-0.671-0.275-1.715-1.463-1.715c-1.067,0-1.535,0.983-1.619,1.715H162.329z"/>
	<path d="M166.868,123.194v-0.647l0.827-0.804c1.991-1.895,2.891-2.902,2.902-4.078c0-0.792-0.385-1.523-1.548-1.523
		c-0.708,0-1.296,0.36-1.654,0.66l-0.336-0.744c0.54-0.456,1.308-0.792,2.207-0.792c1.679,0,2.387,1.151,2.387,2.267
		c0,1.439-1.044,2.603-2.688,4.186l-0.624,0.576v0.024h3.502v0.875H166.868z"/>
</g>
<g>
	<path d="M185.101,193.77c0.527-0.107,1.282-0.168,2.003-0.168c1.115,0,1.835,0.205,2.338,0.66c0.408,0.36,0.636,0.912,0.636,1.535
		c0,1.067-0.671,1.775-1.522,2.062v0.037c0.624,0.215,0.994,0.791,1.187,1.631c0.264,1.127,0.456,1.906,0.624,2.219h-1.08
		c-0.132-0.24-0.312-0.923-0.54-1.932c-0.24-1.114-0.672-1.534-1.619-1.57h-0.982v3.502h-1.043V193.77z M186.145,197.452h1.066
		c1.115,0,1.823-0.612,1.823-1.535c0-1.043-0.755-1.5-1.859-1.511c-0.504,0-0.862,0.048-1.03,0.096V197.452z"/>
	<path d="M195.742,200.354c0,0.504,0.024,0.996,0.096,1.392h-0.959l-0.084-0.731h-0.036c-0.323,0.456-0.946,0.863-1.774,0.863
		c-1.175,0-1.775-0.828-1.775-1.667c0-1.403,1.247-2.171,3.49-2.159v-0.119c0-0.479-0.132-1.344-1.319-1.344
		c-0.54,0-1.104,0.168-1.511,0.432l-0.24-0.694c0.48-0.312,1.176-0.517,1.907-0.517c1.775,0,2.207,1.211,2.207,2.375
		L195.742,200.354L195.742,200.354z M194.723,198.783c-1.151-0.024-2.458,0.18-2.458,1.307c0,0.684,0.456,1.008,0.996,1.008
		c0.755,0,1.234-0.479,1.402-0.972c0.036-0.108,0.061-0.228,0.061-0.336L194.723,198.783L194.723,198.783z"/>
	<path d="M198.672,194.549v1.393h1.512v0.803h-1.512v3.13c0,0.72,0.204,1.127,0.792,1.127c0.288,0,0.456-0.024,0.611-0.072
		l0.048,0.792c-0.203,0.084-0.526,0.156-0.935,0.156c-0.492,0-0.889-0.168-1.141-0.456c-0.3-0.312-0.407-0.828-0.407-1.511v-3.167
		h-0.899v-0.804h0.899v-1.066L198.672,194.549z"/>
	<path d="M201.888,199.035c0.023,1.427,0.936,2.015,1.99,2.015c0.756,0,1.211-0.132,1.607-0.3l0.18,0.756
		c-0.372,0.168-1.008,0.372-1.931,0.372c-1.787,0-2.854-1.188-2.854-2.938s1.031-3.129,2.724-3.129c1.895,0,2.397,1.666,2.397,2.733
		c0,0.216-0.023,0.384-0.036,0.492L201.888,199.035L201.888,199.035z M204.982,198.279c0.012-0.672-0.276-1.715-1.463-1.715
		c-1.067,0-1.535,0.982-1.619,1.715H204.982z"/>
	<path d="M209.773,200.534c0.3,0.192,0.995,0.491,1.727,0.491c1.355,0,1.775-0.862,1.764-1.51c-0.013-1.092-0.995-1.56-2.016-1.56
		h-0.588v-0.792h0.588c0.769,0,1.739-0.396,1.739-1.319c0-0.624-0.396-1.175-1.367-1.175c-0.624,0-1.224,0.275-1.56,0.516
		l-0.275-0.768c0.407-0.3,1.199-0.6,2.039-0.6c1.535,0,2.23,0.912,2.23,1.858c0,0.804-0.479,1.487-1.439,1.835v0.024
		c0.96,0.192,1.739,0.911,1.739,2.002c0,1.248-0.973,2.339-2.843,2.339c-0.875,0-1.644-0.275-2.026-0.527L209.773,200.534z"/>
</g>
<g>
	<path d="M105.767,17.107c0.503-0.084,1.163-0.156,2.003-0.156c1.03,0,1.787,0.24,2.267,0.672c0.444,0.384,0.708,0.971,0.708,1.691
		c0,0.731-0.216,1.307-0.624,1.727c-0.552,0.587-1.451,0.888-2.471,0.888c-0.312,0-0.601-0.012-0.839-0.072v3.238h-1.043
		L105.767,17.107L105.767,17.107z M106.81,21.005c0.228,0.06,0.516,0.084,0.862,0.084c1.26,0,2.027-0.612,2.027-1.727
		c0-1.067-0.755-1.583-1.907-1.583c-0.456,0-0.804,0.036-0.982,0.084V21.005z"/>
	<path d="M111.922,21.101c0-0.684-0.012-1.271-0.048-1.811h0.923l0.036,1.139h0.048c0.265-0.779,0.899-1.271,1.607-1.271
		c0.12,0,0.204,0.012,0.3,0.036v0.996c-0.107-0.024-0.216-0.036-0.359-0.036c-0.744,0-1.271,0.564-1.416,1.355
		c-0.024,0.144-0.049,0.312-0.049,0.492v3.094h-1.043L111.922,21.101L111.922,21.101z"/>
	<path d="M116.314,22.384c0.023,1.427,0.936,2.015,1.991,2.015c0.755,0,1.211-0.132,1.606-0.3l0.18,0.756
		c-0.371,0.168-1.007,0.372-1.931,0.372c-1.787,0-2.854-1.188-2.854-2.938s1.031-3.13,2.723-3.13c1.895,0,2.399,1.667,2.399,2.734
		c0,0.216-0.024,0.384-0.036,0.492L116.314,22.384L116.314,22.384z M119.409,21.628c0.012-0.671-0.276-1.715-1.463-1.715
		c-1.067,0-1.535,0.983-1.619,1.715H119.409z"/>
	<path d="M126.991,22.145c0,2.146-1.487,3.082-2.89,3.082c-1.571,0-2.783-1.151-2.783-2.986c0-1.943,1.271-3.082,2.878-3.082
		C125.864,19.158,126.991,20.369,126.991,22.145z M122.386,22.204c0,1.271,0.731,2.231,1.763,2.231c1.007,0,1.763-0.947,1.763-2.255
		c0-0.983-0.492-2.23-1.739-2.23S122.386,21.101,122.386,22.204z"/>
	<path d="M128.183,24.015c0.312,0.204,0.863,0.42,1.392,0.42c0.768,0,1.127-0.384,1.127-0.863c0-0.504-0.3-0.78-1.079-1.068
		c-1.043-0.372-1.535-0.947-1.535-1.643c0-0.935,0.755-1.703,2.003-1.703c0.588,0,1.104,0.167,1.428,0.359l-0.265,0.768
		c-0.228-0.144-0.646-0.335-1.187-0.335c-0.624,0-0.972,0.36-0.972,0.792c0,0.479,0.348,0.695,1.104,0.983
		c1.007,0.384,1.523,0.888,1.523,1.751c0,1.02-0.792,1.751-2.172,1.751c-0.635,0-1.223-0.168-1.631-0.408L128.183,24.015z"/>
	<path d="M134.35,17.898v1.392h1.511v0.803h-1.511v3.13c0,0.72,0.204,1.127,0.792,1.127c0.288,0,0.456-0.024,0.61-0.072l0.048,0.792
		c-0.203,0.084-0.527,0.156-0.936,0.156c-0.492,0-0.888-0.168-1.14-0.456c-0.301-0.312-0.408-0.828-0.408-1.511v-3.167h-0.899V19.29
		h0.899v-1.067L134.35,17.898z"/>
	<path d="M137.566,22.384c0.023,1.427,0.936,2.015,1.991,2.015c0.755,0,1.211-0.132,1.606-0.3l0.18,0.756
		c-0.371,0.168-1.007,0.372-1.931,0.372c-1.787,0-2.854-1.188-2.854-2.938s1.031-3.13,2.723-3.13c1.895,0,2.399,1.667,2.399,2.734
		c0,0.216-0.024,0.384-0.036,0.492L137.566,22.384L137.566,22.384z M140.661,21.628c0.012-0.671-0.276-1.715-1.463-1.715
		c-1.067,0-1.535,0.983-1.619,1.715H140.661z"/>
	<path d="M148.243,22.145c0,2.146-1.487,3.082-2.89,3.082c-1.571,0-2.783-1.151-2.783-2.986c0-1.943,1.271-3.082,2.878-3.082
		C147.116,19.158,148.243,20.369,148.243,22.145z M143.638,22.204c0,1.271,0.731,2.231,1.763,2.231c1.007,0,1.763-0.947,1.763-2.255
		c0-0.983-0.492-2.23-1.739-2.23C144.178,19.95,143.638,21.101,143.638,22.204z"/>
	<path d="M149.578,16.58h1.043v3.646h0.024c0.372-0.648,1.043-1.067,1.979-1.067c1.439,0,2.458,1.199,2.447,2.962
		c0,2.075-1.308,3.106-2.604,3.106c-0.84,0-1.511-0.324-1.942-1.091h-0.036l-0.048,0.959h-0.912
		c0.024-0.396,0.048-0.983,0.048-1.499L149.578,16.58L149.578,16.58z M150.622,22.768c0,0.132,0.024,0.264,0.048,0.384
		c0.204,0.731,0.816,1.235,1.583,1.235c1.104,0,1.764-0.899,1.764-2.231c0-1.163-0.601-2.159-1.728-2.159
		c-0.72,0-1.391,0.492-1.606,1.295c-0.024,0.12-0.061,0.264-0.061,0.432V22.768z"/>
	<path d="M156.406,16.58h1.056v8.515h-1.056V16.58z"/>
	<path d="M163.315,23.704c0,0.503,0.023,0.995,0.096,1.391h-0.959l-0.084-0.73h-0.036c-0.324,0.456-0.947,0.863-1.774,0.863
		c-1.176,0-1.775-0.828-1.775-1.667c0-1.403,1.247-2.171,3.49-2.159v-0.12c0-0.479-0.132-1.343-1.319-1.343
		c-0.54,0-1.104,0.168-1.511,0.432l-0.24-0.695c0.48-0.312,1.175-0.516,1.907-0.516c1.774,0,2.207,1.211,2.207,2.375L163.315,23.704
		L163.315,23.704z M162.296,22.132c-1.15-0.024-2.458,0.18-2.458,1.307c0,0.684,0.456,1.008,0.996,1.008
		c0.755,0,1.235-0.48,1.403-0.972c0.036-0.108,0.06-0.228,0.06-0.336L162.296,22.132L162.296,22.132z"/>
	<path d="M164.878,24.015c0.312,0.204,0.864,0.42,1.393,0.42c0.768,0,1.127-0.384,1.127-0.863c0-0.504-0.3-0.78-1.079-1.068
		c-1.043-0.372-1.535-0.947-1.535-1.643c0-0.935,0.755-1.703,2.003-1.703c0.587,0,1.104,0.167,1.427,0.359l-0.264,0.768
		c-0.228-0.144-0.647-0.335-1.187-0.335c-0.624,0-0.973,0.36-0.973,0.792c0,0.479,0.349,0.695,1.104,0.983
		c1.007,0.384,1.522,0.888,1.522,1.751c0,1.02-0.792,1.751-2.171,1.751c-0.635,0-1.223-0.168-1.631-0.408L164.878,24.015z"/>
	<path d="M171.045,17.898v1.392h1.512v0.803h-1.512v3.13c0,0.72,0.204,1.127,0.792,1.127c0.288,0,0.456-0.024,0.611-0.072
		l0.048,0.792c-0.204,0.084-0.528,0.156-0.936,0.156c-0.492,0-0.889-0.168-1.141-0.456c-0.3-0.312-0.407-0.828-0.407-1.511v-3.167
		h-0.899V19.29h0.899v-1.067L171.045,17.898z"/>
	<path d="M115.829,35.585c0-0.744-0.023-1.343-0.048-1.895h0.947l0.048,0.995h0.023c0.433-0.708,1.115-1.127,2.063-1.127
		c1.403,0,2.459,1.187,2.459,2.95c0,2.087-1.271,3.118-2.639,3.118c-0.769,0-1.439-0.336-1.787-0.912h-0.024v3.154h-1.043V35.585z
		 M116.872,37.132c0,0.156,0.024,0.3,0.048,0.432c0.192,0.732,0.828,1.235,1.583,1.235c1.116,0,1.764-0.911,1.764-2.243
		c0-1.163-0.612-2.159-1.728-2.159c-0.72,0-1.391,0.516-1.595,1.307c-0.036,0.132-0.072,0.288-0.072,0.432V37.132z"/>
	<path d="M122.656,35.501c0-0.684-0.012-1.271-0.048-1.811h0.923l0.036,1.139h0.048c0.264-0.779,0.899-1.271,1.607-1.271
		c0.119,0,0.203,0.012,0.3,0.036v0.996c-0.108-0.024-0.216-0.036-0.359-0.036c-0.744,0-1.271,0.564-1.416,1.355
		c-0.023,0.144-0.048,0.312-0.048,0.492v3.094h-1.043V35.501z"/>
	<path d="M127.048,36.784c0.024,1.427,0.936,2.015,1.991,2.015c0.755,0,1.211-0.132,1.607-0.3l0.18,0.756
		c-0.372,0.168-1.007,0.372-1.931,0.372c-1.787,0-2.854-1.187-2.854-2.938s1.032-3.13,2.724-3.13c1.895,0,2.398,1.667,2.398,2.734
		c0,0.216-0.023,0.384-0.036,0.492L127.048,36.784L127.048,36.784z M130.143,36.028c0.012-0.671-0.276-1.715-1.463-1.715
		c-1.067,0-1.535,0.983-1.619,1.715H130.143z"/>
	<path d="M136.61,39.279c-0.276,0.144-0.887,0.348-1.667,0.348c-1.751,0-2.892-1.199-2.892-2.974c0-1.787,1.225-3.083,3.119-3.083
		c0.624,0,1.176,0.156,1.463,0.3l-0.239,0.815c-0.252-0.144-0.647-0.276-1.224-0.276c-1.332,0-2.051,0.984-2.051,2.195
		c0,1.343,0.864,2.171,2.015,2.171c0.601,0,0.996-0.156,1.296-0.288L136.61,39.279z"/>
	<path d="M142.706,37.912c0,0.6,0.012,1.127,0.048,1.583h-0.936l-0.061-0.947h-0.023c-0.276,0.467-0.887,1.079-1.919,1.079
		c-0.911,0-2.003-0.503-2.003-2.542V33.69h1.056v3.214c0,1.103,0.336,1.847,1.295,1.847c0.708,0,1.199-0.492,1.392-0.959
		c0.06-0.156,0.096-0.348,0.096-0.54V33.69h1.056V37.912L142.706,37.912z"/>
	<path d="M144.46,35.501c0-0.684-0.012-1.271-0.048-1.811h0.923l0.036,1.139h0.048c0.265-0.779,0.899-1.271,1.607-1.271
		c0.12,0,0.204,0.012,0.3,0.036v0.996c-0.108-0.024-0.216-0.036-0.36-0.036c-0.743,0-1.271,0.564-1.416,1.355
		c-0.023,0.144-0.048,0.312-0.048,0.492v3.094h-1.043L144.46,35.501L144.46,35.501z"/>
	<path d="M148.24,38.415c0.312,0.204,0.864,0.42,1.392,0.42c0.769,0,1.127-0.384,1.127-0.863c0-0.504-0.3-0.78-1.078-1.067
		c-1.043-0.372-1.535-0.948-1.535-1.645c0-0.935,0.755-1.703,2.003-1.703c0.587,0,1.104,0.167,1.427,0.359l-0.264,0.768
		c-0.229-0.144-0.647-0.335-1.188-0.335c-0.624,0-0.972,0.36-0.972,0.792c0,0.479,0.348,0.695,1.104,0.983
		c1.008,0.384,1.523,0.888,1.523,1.751c0,1.02-0.792,1.751-2.171,1.751c-0.635,0-1.224-0.168-1.631-0.408L148.24,38.415z"/>
	<path d="M158.389,36.544c0,2.146-1.487,3.082-2.891,3.082c-1.57,0-2.783-1.151-2.783-2.986c0-1.943,1.271-3.082,2.879-3.082
		C157.262,33.558,158.389,34.769,158.389,36.544z M153.784,36.604c0,1.271,0.732,2.231,1.763,2.231c1.008,0,1.764-0.947,1.764-2.255
		c0-0.983-0.492-2.23-1.739-2.23S153.784,35.501,153.784,36.604z"/>
	<path d="M159.724,35.501c0-0.684-0.013-1.271-0.049-1.811h0.924l0.035,1.139h0.049c0.264-0.779,0.898-1.271,1.606-1.271
		c0.12,0,0.204,0.012,0.3,0.036v0.996c-0.107-0.024-0.216-0.036-0.359-0.036c-0.744,0-1.271,0.564-1.416,1.355
		c-0.024,0.144-0.048,0.312-0.048,0.492v3.094h-1.043L159.724,35.501L159.724,35.501z"/>
</g>
<g>
	<path d="M121.345,232.67c0,2.783-1.691,4.258-3.755,4.258c-2.135,0-3.634-1.654-3.634-4.102c0-2.567,1.595-4.246,3.754-4.246
		C119.917,228.581,121.345,230.271,121.345,232.67z M115.072,232.802c0,1.728,0.935,3.274,2.578,3.274
		c1.655,0,2.591-1.523,2.591-3.358c0-1.606-0.839-3.286-2.579-3.286C115.936,229.432,115.072,231.027,115.072,232.802z"/>
	<path d="M122.524,235.716c0.312,0.204,0.864,0.42,1.392,0.42c0.769,0,1.127-0.384,1.127-0.862c0-0.504-0.3-0.78-1.079-1.068
		c-1.043-0.372-1.534-0.947-1.534-1.643c0-0.936,0.755-1.703,2.003-1.703c0.587,0,1.104,0.166,1.427,0.358l-0.264,0.769
		c-0.229-0.145-0.647-0.336-1.188-0.336c-0.624,0-0.972,0.36-0.972,0.793c0,0.479,0.348,0.695,1.104,0.982
		c1.007,0.385,1.523,0.889,1.523,1.751c0,1.021-0.792,1.751-2.171,1.751c-0.636,0-1.224-0.168-1.631-0.408L122.524,235.716z"/>
	<path d="M128.692,229.6v1.393h1.511v0.803h-1.511v3.13c0,0.72,0.204,1.127,0.792,1.127c0.288,0,0.456-0.024,0.611-0.071
		l0.048,0.791c-0.204,0.084-0.528,0.156-0.937,0.156c-0.492,0-0.888-0.168-1.14-0.455c-0.3-0.312-0.408-0.828-0.408-1.512v-3.167
		h-0.899v-0.803h0.899v-1.067L128.692,229.6z"/>
	<path d="M131.908,234.085c0.024,1.427,0.937,2.015,1.991,2.015c0.755,0,1.211-0.132,1.606-0.3l0.181,0.757
		c-0.372,0.168-1.007,0.371-1.932,0.371c-1.787,0-2.854-1.188-2.854-2.938s1.032-3.131,2.723-3.131c1.896,0,2.399,1.668,2.399,2.734
		c0,0.217-0.024,0.385-0.036,0.492L131.908,234.085L131.908,234.085z M135.002,233.33c0.013-0.671-0.275-1.715-1.463-1.715
		c-1.066,0-1.535,0.982-1.619,1.715H135.002z"/>
	<path d="M142.585,233.846c0,2.146-1.486,3.082-2.89,3.082c-1.571,0-2.783-1.15-2.783-2.986c0-1.942,1.271-3.082,2.878-3.082
		C141.458,230.859,142.585,232.07,142.585,233.846z M137.979,233.905c0,1.271,0.731,2.23,1.763,2.23
		c1.007,0,1.763-0.946,1.763-2.255c0-0.982-0.491-2.23-1.738-2.23C138.52,231.65,137.979,232.802,137.979,233.905z"/>
	<path d="M148.058,236.58c-0.276,0.145-0.889,0.348-1.667,0.348c-1.751,0-2.892-1.199-2.892-2.974c0-1.787,1.225-3.083,3.119-3.083
		c0.624,0,1.175,0.156,1.463,0.3l-0.24,0.815c-0.252-0.145-0.646-0.275-1.223-0.275c-1.332,0-2.051,0.982-2.051,2.194
		c0,1.343,0.864,2.171,2.015,2.171c0.601,0,0.996-0.156,1.295-0.288L148.058,236.58z"/>
	<path d="M149.896,230.991l1.271,3.43c0.132,0.384,0.276,0.839,0.372,1.187h0.024c0.107-0.348,0.228-0.791,0.372-1.211l1.15-3.405
		h1.115l-1.583,4.138c-0.756,1.991-1.271,3.01-1.991,3.635c-0.516,0.455-1.03,0.635-1.295,0.684l-0.264-0.887
		c0.264-0.084,0.612-0.252,0.924-0.517c0.288-0.228,0.647-0.635,0.887-1.175c0.048-0.108,0.084-0.192,0.084-0.251
		c0-0.06-0.023-0.144-0.071-0.276l-2.147-5.349h1.152V230.991z"/>
	<path d="M156.436,229.6v1.393h1.511v0.803h-1.511v3.13c0,0.72,0.204,1.127,0.792,1.127c0.288,0,0.456-0.024,0.611-0.071
		l0.049,0.791c-0.204,0.084-0.528,0.156-0.937,0.156c-0.492,0-0.888-0.168-1.14-0.455c-0.3-0.312-0.408-0.828-0.408-1.512v-3.167
		h-0.899v-0.803h0.899v-1.067L156.436,229.6z"/>
	<path d="M159.652,234.085c0.023,1.427,0.935,2.015,1.991,2.015c0.755,0,1.211-0.132,1.606-0.3l0.181,0.757
		c-0.372,0.168-1.008,0.371-1.932,0.371c-1.787,0-2.854-1.188-2.854-2.938s1.031-3.131,2.723-3.131c1.896,0,2.399,1.668,2.399,2.734
		c0,0.217-0.024,0.385-0.036,0.492L159.652,234.085L159.652,234.085z M162.746,233.33c0.012-0.671-0.275-1.715-1.463-1.715
		c-1.067,0-1.535,0.982-1.619,1.715H162.746z"/>
</g>
<g id="P">
	<circle id="P_path1" fill="#A3BADB" stroke="#000000" cx="88.663" cy="62.77" r="12"/>
	<g>
		<path d="M79.492,58.296c0.503-0.084,1.164-0.155,2.002-0.155c1.032,0.001,1.787,0.242,2.267,0.674
			c0.443,0.385,0.706,0.972,0.706,1.692c0,0.731-0.217,1.307-0.625,1.727c-0.551,0.587-1.451,0.886-2.471,0.885
			c-0.312,0-0.601-0.013-0.839-0.073l-0.003,3.238l-1.043-0.001L79.492,58.296z M80.532,62.195c0.228,0.06,0.516,0.084,0.863,0.084
			c1.26,0.001,2.027-0.61,2.028-1.725c0.001-1.067-0.754-1.584-1.905-1.585c-0.456,0-0.805,0.036-0.983,0.083L80.532,62.195z"/>
		<path d="M87.409,59.095l-2.458-0.002l0.001-0.888l5.984,0.005l-0.001,0.888l-2.472-0.002l-0.006,7.196l-1.056-0.001L87.409,59.095
			L87.409,59.095z"/>
		<path d="M92.883,58.211l-0.003,3.382l3.91,0.003l0.003-3.382l1.056,0.001l-0.007,8.083l-1.056-0.001l0.003-3.79l-3.91-0.003
			l-0.003,3.79l-1.044,0l0.007-8.083L92.883,58.211z"/>
	</g>
</g>
<g>
	<g>
		<line fill="none" stroke="#000000" x1="110.5" y1="47.5" x2="79" y2="106.5"/>
		<polygon points="77.056,102.279 79.582,105.41 83.59,105.768 76.188,111.766 		"/>
	</g>
</g>
<g>
	<path d="M16.631,126.558c0.503-0.084,1.163-0.156,2.003-0.156c1.031,0,1.787,0.24,2.268,0.672c0.444,0.384,0.708,0.971,0.708,1.691
		c0,0.731-0.216,1.307-0.624,1.727c-0.552,0.587-1.451,0.888-2.471,0.888c-0.312,0-0.601-0.012-0.84-0.072v3.238h-1.043
		L16.631,126.558L16.631,126.558z M17.674,130.456c0.229,0.06,0.517,0.084,0.863,0.084c1.259,0,2.027-0.612,2.027-1.727
		c0-1.067-0.755-1.583-1.907-1.583c-0.456,0-0.804,0.036-0.983,0.084V130.456z"/>
	<path d="M22.787,130.552c0-0.684-0.012-1.271-0.048-1.811h0.923l0.036,1.139h0.048c0.264-0.779,0.899-1.271,1.607-1.271
		c0.12,0,0.204,0.012,0.3,0.036v0.996c-0.108-0.024-0.216-0.036-0.359-0.036c-0.744,0-1.271,0.564-1.416,1.355
		c-0.023,0.144-0.048,0.312-0.048,0.492v3.094h-1.043V130.552z"/>
	<path d="M27.179,131.835c0.023,1.427,0.935,2.015,1.99,2.015c0.755,0,1.211-0.132,1.607-0.3l0.18,0.757
		c-0.372,0.168-1.007,0.371-1.931,0.371c-1.787,0-2.854-1.188-2.854-2.938s1.032-3.13,2.724-3.13c1.895,0,2.398,1.667,2.398,2.734
		c0,0.216-0.023,0.384-0.036,0.492L27.179,131.835L27.179,131.835z M30.273,131.08c0.012-0.671-0.276-1.715-1.463-1.715
		c-1.067,0-1.535,0.983-1.619,1.715H30.273z"/>
	<path d="M37.855,131.596c0,2.146-1.487,3.082-2.891,3.082c-1.57,0-2.782-1.15-2.782-2.986c0-1.943,1.271-3.082,2.878-3.082
		C36.729,128.609,37.855,129.82,37.855,131.596z M33.25,131.655c0,1.271,0.732,2.23,1.764,2.23c1.007,0,1.763-0.946,1.763-2.255
		c0-0.983-0.492-2.23-1.739-2.23S33.25,130.552,33.25,131.655z"/>
	<path d="M39.046,133.466c0.312,0.204,0.864,0.42,1.393,0.42c0.768,0,1.127-0.384,1.127-0.862c0-0.504-0.3-0.78-1.079-1.068
		c-1.043-0.372-1.535-0.947-1.535-1.643c0-0.935,0.755-1.703,2.003-1.703c0.587,0,1.104,0.167,1.427,0.359l-0.264,0.768
		c-0.228-0.144-0.646-0.335-1.187-0.335c-0.624,0-0.973,0.36-0.973,0.792c0,0.479,0.349,0.695,1.104,0.983
		c1.007,0.384,1.522,0.889,1.522,1.751c0,1.021-0.792,1.751-2.171,1.751c-0.635,0-1.223-0.168-1.631-0.408L39.046,133.466z"/>
	<path d="M45.214,127.35v1.392h1.512v0.803h-1.512v3.13c0,0.72,0.204,1.127,0.792,1.127c0.288,0,0.456-0.024,0.611-0.071
		l0.048,0.791c-0.204,0.084-0.527,0.156-0.936,0.156c-0.492,0-0.889-0.168-1.141-0.455c-0.3-0.312-0.407-0.828-0.407-1.512v-3.167
		h-0.899v-0.803h0.899v-1.067L45.214,127.35z"/>
	<path d="M48.431,131.835c0.023,1.427,0.935,2.015,1.99,2.015c0.755,0,1.211-0.132,1.607-0.3l0.18,0.757
		c-0.372,0.168-1.007,0.371-1.931,0.371c-1.787,0-2.854-1.188-2.854-2.938s1.032-3.13,2.724-3.13c1.895,0,2.398,1.667,2.398,2.734
		c0,0.216-0.023,0.384-0.036,0.492L48.431,131.835L48.431,131.835z M51.525,131.08c0.012-0.671-0.276-1.715-1.463-1.715
		c-1.067,0-1.535,0.983-1.619,1.715H51.525z"/>
	<path d="M59.107,131.596c0,2.146-1.487,3.082-2.891,3.082c-1.57,0-2.782-1.15-2.782-2.986c0-1.943,1.271-3.082,2.878-3.082
		C57.98,128.609,59.107,129.82,59.107,131.596z M54.502,131.655c0,1.271,0.732,2.23,1.764,2.23c1.007,0,1.763-0.946,1.763-2.255
		c0-0.983-0.492-2.23-1.739-2.23S54.502,130.552,54.502,131.655z"/>
	<path d="M60.442,126.031h1.043v3.646h0.023c0.372-0.648,1.043-1.067,1.979-1.067c1.438,0,2.458,1.199,2.447,2.962
		c0,2.074-1.309,3.105-2.604,3.105c-0.84,0-1.511-0.324-1.942-1.091h-0.036l-0.048,0.959h-0.912
		c0.023-0.396,0.048-0.983,0.048-1.499L60.442,126.031L60.442,126.031z M61.486,132.219c0,0.133,0.023,0.264,0.048,0.385
		c0.204,0.73,0.815,1.234,1.583,1.234c1.104,0,1.763-0.898,1.763-2.231c0-1.163-0.6-2.159-1.727-2.159
		c-0.72,0-1.391,0.492-1.607,1.295c-0.023,0.12-0.06,0.264-0.06,0.432V132.219z"/>
	<path d="M67.271,126.031h1.056v8.515h-1.056V126.031z"/>
	<path d="M74.18,133.155c0,0.503,0.023,0.995,0.096,1.391h-0.959l-0.084-0.731h-0.036c-0.324,0.457-0.947,0.863-1.775,0.863
		c-1.175,0-1.774-0.828-1.774-1.667c0-1.403,1.247-2.171,3.49-2.159v-0.12c0-0.479-0.133-1.343-1.319-1.343
		c-0.54,0-1.104,0.168-1.511,0.432l-0.24-0.695c0.479-0.312,1.176-0.516,1.907-0.516c1.774,0,2.207,1.211,2.207,2.375L74.18,133.155
		L74.18,133.155z M73.161,131.583c-1.151-0.024-2.459,0.18-2.459,1.308c0,0.684,0.456,1.008,0.996,1.008
		c0.755,0,1.235-0.48,1.403-0.973c0.036-0.107,0.06-0.228,0.06-0.336V131.583z"/>
	<path d="M75.742,133.466c0.312,0.204,0.864,0.42,1.392,0.42c0.769,0,1.128-0.384,1.128-0.862c0-0.504-0.301-0.78-1.079-1.068
		c-1.043-0.372-1.535-0.947-1.535-1.643c0-0.935,0.755-1.703,2.003-1.703c0.587,0,1.103,0.167,1.427,0.359l-0.264,0.768
		c-0.229-0.144-0.647-0.335-1.188-0.335c-0.624,0-0.972,0.36-0.972,0.792c0,0.479,0.348,0.695,1.104,0.983
		c1.008,0.384,1.523,0.889,1.523,1.751c0,1.021-0.792,1.751-2.171,1.751c-0.635,0-1.223-0.168-1.631-0.408L75.742,133.466z"/>
	<path d="M81.91,127.35v1.392h1.511v0.803H81.91v3.13c0,0.72,0.204,1.127,0.792,1.127c0.288,0,0.456-0.024,0.612-0.071l0.048,0.791
		c-0.204,0.084-0.528,0.156-0.937,0.156c-0.491,0-0.888-0.168-1.14-0.455c-0.3-0.312-0.408-0.828-0.408-1.512v-3.167h-0.898v-0.803
		h0.898v-1.067L81.91,127.35z"/>
</g>
<g>
	<path d="M209.974,130.418c0,2.783-1.691,4.258-3.754,4.258c-2.136,0-3.635-1.654-3.635-4.102c0-2.567,1.596-4.246,3.754-4.246
		C208.546,126.329,209.974,128.02,209.974,130.418z M203.701,130.55c0,1.728,0.936,3.274,2.578,3.274
		c1.655,0,2.591-1.523,2.591-3.358c0-1.607-0.839-3.286-2.579-3.286C204.564,127.18,203.701,128.775,203.701,130.55z"/>
	<path d="M211.153,133.464c0.312,0.204,0.864,0.42,1.392,0.42c0.769,0,1.127-0.384,1.127-0.862c0-0.504-0.3-0.78-1.079-1.068
		c-1.043-0.372-1.534-0.947-1.534-1.643c0-0.935,0.755-1.703,2.003-1.703c0.587,0,1.104,0.167,1.427,0.359l-0.264,0.768
		c-0.229-0.144-0.647-0.335-1.188-0.335c-0.624,0-0.972,0.36-0.972,0.792c0,0.479,0.348,0.695,1.104,0.983
		c1.007,0.384,1.523,0.889,1.523,1.751c0,1.021-0.792,1.751-2.171,1.751c-0.635,0-1.224-0.168-1.631-0.408L211.153,133.464z"/>
	<path d="M217.321,127.348v1.392h1.511v0.803h-1.511v3.13c0,0.72,0.204,1.127,0.792,1.127c0.288,0,0.456-0.024,0.611-0.071
		l0.048,0.791c-0.204,0.084-0.528,0.156-0.937,0.156c-0.492,0-0.888-0.168-1.14-0.455c-0.3-0.312-0.408-0.828-0.408-1.512v-3.167
		h-0.898v-0.803h0.898v-1.067L217.321,127.348z"/>
	<path d="M220.537,131.833c0.024,1.427,0.937,2.015,1.991,2.015c0.755,0,1.211-0.132,1.606-0.3l0.181,0.756
		c-0.372,0.169-1.007,0.372-1.932,0.372c-1.786,0-2.854-1.188-2.854-2.938c0-1.75,1.032-3.13,2.723-3.13
		c1.896,0,2.399,1.667,2.399,2.734c0,0.216-0.024,0.384-0.036,0.492L220.537,131.833L220.537,131.833z M223.631,131.078
		c0.013-0.671-0.275-1.715-1.463-1.715c-1.066,0-1.535,0.983-1.619,1.715H223.631z"/>
	<path d="M231.214,131.594c0,2.146-1.486,3.082-2.89,3.082c-1.571,0-2.783-1.15-2.783-2.986c0-1.943,1.271-3.082,2.878-3.082
		C230.087,128.607,231.214,129.818,231.214,131.594z M226.608,131.653c0,1.271,0.731,2.231,1.763,2.231
		c1.007,0,1.763-0.946,1.763-2.255c0-0.983-0.491-2.23-1.738-2.23S226.608,130.55,226.608,131.653z"/>
	<path d="M232.549,126.029h1.043v3.646h0.024c0.372-0.648,1.043-1.067,1.979-1.067c1.438,0,2.458,1.199,2.446,2.962
		c0,2.075-1.308,3.106-2.603,3.106c-0.84,0-1.511-0.324-1.943-1.091h-0.036l-0.048,0.959H232.5c0.024-0.396,0.048-0.983,0.048-1.499
		L232.549,126.029L232.549,126.029z M233.592,132.217c0,0.133,0.024,0.264,0.049,0.385c0.203,0.73,0.815,1.234,1.583,1.234
		c1.103,0,1.763-0.898,1.763-2.231c0-1.163-0.601-2.159-1.728-2.159c-0.72,0-1.391,0.492-1.606,1.295
		c-0.024,0.12-0.061,0.264-0.061,0.432V132.217z"/>
	<path d="M239.377,126.029h1.057v8.515h-1.057V126.029z"/>
	<path d="M246.286,133.152c0,0.504,0.024,0.996,0.096,1.392h-0.959l-0.084-0.731h-0.035c-0.324,0.457-0.947,0.863-1.775,0.863
		c-1.175,0-1.775-0.828-1.775-1.667c0-1.403,1.247-2.171,3.49-2.159v-0.12c0-0.479-0.132-1.343-1.319-1.343
		c-0.54,0-1.104,0.168-1.511,0.432l-0.24-0.695c0.48-0.312,1.176-0.516,1.907-0.516c1.775,0,2.207,1.211,2.207,2.375
		L246.286,133.152L246.286,133.152z M245.267,131.582c-1.151-0.024-2.458,0.18-2.458,1.307c0,0.685,0.456,1.008,0.996,1.008
		c0.755,0,1.234-0.479,1.402-0.972c0.036-0.108,0.061-0.228,0.061-0.336L245.267,131.582L245.267,131.582z"/>
	<path d="M247.849,133.464c0.312,0.204,0.863,0.42,1.392,0.42c0.768,0,1.127-0.384,1.127-0.862c0-0.504-0.3-0.78-1.079-1.068
		c-1.043-0.372-1.535-0.947-1.535-1.643c0-0.935,0.755-1.703,2.003-1.703c0.588,0,1.104,0.167,1.428,0.359l-0.265,0.768
		c-0.228-0.144-0.646-0.335-1.187-0.335c-0.624,0-0.972,0.36-0.972,0.792c0,0.479,0.348,0.695,1.104,0.983
		c1.007,0.384,1.523,0.889,1.523,1.751c0,1.021-0.792,1.751-2.172,1.751c-0.635,0-1.223-0.168-1.631-0.408L247.849,133.464z"/>
	<path d="M254.016,127.348v1.392h1.511v0.803h-1.511v3.13c0,0.72,0.204,1.127,0.792,1.127c0.288,0,0.456-0.024,0.61-0.071
		l0.048,0.791c-0.203,0.084-0.527,0.156-0.936,0.156c-0.492,0-0.888-0.168-1.14-0.455c-0.301-0.312-0.408-0.828-0.408-1.512v-3.167
		h-0.899v-0.803h0.899v-1.067L254.016,127.348z"/>
</g>
<g>
	<g>
		<line fill="none" stroke="#000000" x1="93.5" y1="130" x2="180" y2="130"/>
		<polygon points="177.191,133.703 178.764,130 177.191,126.296 185.969,130 		"/>
	</g>
</g>
<g>
	<g>
		<line fill="none" stroke="#000000" x1="199.5" y1="150" x2="168" y2="209"/>
		<polygon points="166.056,204.779 168.582,207.91 172.59,208.268 165.188,214.266 		"/>
	</g>
</g>
<g>
	<path d="M111.076,113.034c0.503-0.084,1.164-0.156,2.002-0.156c1.032,0,1.787,0.24,2.269,0.672
		c0.442,0.384,0.707,0.971,0.707,1.691c0,0.731-0.217,1.307-0.624,1.727c-0.552,0.587-1.451,0.887-2.471,0.887
		c-0.312,0-0.601-0.012-0.84-0.072v3.238h-1.043V113.034z M112.119,116.932c0.229,0.06,0.516,0.084,0.863,0.084
		c1.26,0,2.026-0.612,2.026-1.727c0-1.067-0.756-1.583-1.906-1.583c-0.456,0-0.805,0.036-0.983,0.084V116.932z"/>
	<path d="M118.994,113.826h-2.458v-0.888h5.984v0.888h-2.472v7.196h-1.056L118.994,113.826L118.994,113.826z"/>
	<path d="M124.467,112.938v3.382h3.91v-3.382h1.056v8.083h-1.056v-3.79h-3.91v3.79h-1.044v-8.083H124.467z"/>
</g>
<g>
	<path d="M113.271,137.438v8.084h-1.044v-8.084H113.271z"/>
	<path d="M115.096,137.438h1.044v7.209h3.454v0.875h-4.498V137.438z"/>
	<path d="M122.667,141.889v0.778h-2.963v-0.778H122.667z"/>
	<path d="M128.018,138.47c-0.217-0.012-0.492,0-0.792,0.048c-1.654,0.276-2.53,1.487-2.71,2.771h0.036
		c0.37-0.492,1.02-0.898,1.883-0.898c1.379,0,2.351,0.995,2.351,2.519c0,1.427-0.972,2.747-2.591,2.747
		c-1.667,0-2.758-1.295-2.758-3.322c0-1.535,0.551-2.746,1.317-3.514c0.648-0.637,1.513-1.032,2.495-1.151
		c0.312-0.048,0.575-0.06,0.769-0.06V138.47z M126.207,144.838c0.899,0,1.511-0.755,1.511-1.871c0-1.115-0.636-1.787-1.606-1.787
		c-0.636,0-1.223,0.396-1.511,0.959c-0.072,0.12-0.12,0.276-0.12,0.469c0.023,1.283,0.61,2.23,1.715,2.23H126.207z"/>
</g>
<g>
	<path d="M75.451,80.215v3.292h3.166v0.84h-3.166v3.32h-0.896v-3.32h-3.166v-0.84h3.166v-3.292H75.451z"/>
</g>
<g>
	<path d="M158.837,138.384v0.7h-7.004v-0.7H158.837z"/>
</g>
</svg>
