<?xml version="1.0" encoding="utf-8"?>
<!-- Generator: Adobe Illustrator 14.0.0, SVG Export Plug-In . SVG Version: 6.00 Build 43363)  -->
<!DOCTYPE svg PUBLIC "-//W3C//DTD SVG 1.1//EN" "http://www.w3.org/Graphics/SVG/1.1/DTD/svg11.dtd">
<svg version="1.1" id="Layer_1" xmlns="http://www.w3.org/2000/svg" xmlns:xlink="http://www.w3.org/1999/xlink" x="0px" y="0px"
	 width="322px" height="332px" viewBox="0 0 322 332" enable-background="new 0 0 322 332" xml:space="preserve">
<g>
	<g>
		<line fill="none" stroke="#010101" x1="278.5" y1="259.182" x2="226.918" y2="259.182"/>
		<polygon fill="#010101" points="275.691,262.886 277.264,259.182 275.691,255.479 284.469,259.182 		"/>
	</g>
</g>
<path id="path4101" sodipodi:cy="567.10571" sodipodi:rx="95.158508" sodipodi:type="arc" sodipodi:ry="70.471161" sodipodi:cx="663.41638" fill="#C2DCF3" stroke="#2A8FCE" stroke-width="5.128" d="
	M300.667,122.461c0,42.503-62.146,76.959-138.81,76.959c-76.662,0-138.809-34.456-138.809-76.959l0,0
	c0-42.504,62.147-76.96,138.809-76.96C238.521,45.501,300.667,79.957,300.667,122.461z"/>
<g>
	<g>
		<line fill="#F6EB16" x1="79.567" y1="103.35" x2="79.567" y2="30.183"/>
		<polygon fill="#F6EB16" points="75.863,100.541 79.567,102.113 83.271,100.541 79.567,109.318 		"/>
	</g>
	<g>
		<line fill="none" stroke="#EEE92E" x1="79.567" y1="103.35" x2="79.567" y2="30.183"/>
		<polygon fill="#EEE92E" points="75.863,100.541 79.567,102.113 83.271,100.541 79.567,109.318 		"/>
	</g>
</g>
<line fill="none" stroke="#ED2224" x1="120.375" y1="121.225" x2="173.25" y2="121.225"/>
<path id="path33139_2_" fill="none" stroke="#010101" d="M120.445,119.032l0.064,4.52"/>
<g>
	<g>
		<line fill="none" stroke="#010101" x1="82.911" y1="306.184" x2="82.911" y2="130.767"/>
		<polygon fill="#010101" points="79.207,303.375 82.911,304.947 86.614,303.375 82.911,312.152 		"/>
	</g>
</g>
<g id="g4153" transform="translate(-109.3141,-31.23255)">
	<g id="g4155" transform="matrix(1.147869,0.000000,0.000000,1.063231,146.8529,324.9538)">
		
			<radialGradient id="path4157_1_" cx="-138.7521" cy="-925.0818" r="16.1855" gradientTransform="matrix(2.3862 0 0 0.6961 368.8749 481.778)" gradientUnits="userSpaceOnUse">
			<stop  offset="0" style="stop-color:#ADD252"/>
			<stop  offset="0.4082" style="stop-color:#ACD152"/>
			<stop  offset="0.5552" style="stop-color:#A7D053"/>
			<stop  offset="0.66" style="stop-color:#A0CD52"/>
			<stop  offset="0.7448" style="stop-color:#94C951"/>
			<stop  offset="0.8174" style="stop-color:#85C551"/>
			<stop  offset="0.8817" style="stop-color:#75C151"/>
			<stop  offset="0.9398" style="stop-color:#65BD53"/>
			<stop  offset="0.9915" style="stop-color:#59BA53"/>
			<stop  offset="1" style="stop-color:#57BA53"/>
		</radialGradient>
		<path id="path4157" fill="url(#path4157_1_)" stroke="#010101" d="M70.814-162.173c0,5.959-14.793,10.789-33.03,10.789
			c-18.241,0-33.028-4.828-33.028-10.789c0-5.959,14.787-10.787,33.028-10.787C56.021-172.958,70.814-168.13,70.814-162.173z"/>
	</g>
	<text transform="matrix(1 0 0 1 156.2565 155.9572)" fill="#010101" font-family="'Myriad-Roman'" font-size="10">PER transcription</text>
</g>
<g>
	<g>
		<line fill="none" stroke="#010101" x1="168" y1="259.182" x2="105.918" y2="259.182"/>
		<polygon fill="#010101" points="165.191,262.885 166.764,259.182 165.191,255.478 173.969,259.182 		"/>
	</g>
</g>
<g id="X">
	<g id="g4103_2_" transform="matrix(1.147869,0.000000,0.000000,1.063231,146.8529,324.9538)">
		
			<radialGradient id="X_path1_1_" cx="-290.2043" cy="-779.1111" r="16.1863" gradientTransform="matrix(1.8289 0 0 0.676 474.6864 465.5307)" gradientUnits="userSpaceOnUse">
			<stop  offset="0" style="stop-color:#ADD252"/>
			<stop  offset="0.4082" style="stop-color:#ACD152"/>
			<stop  offset="0.5552" style="stop-color:#A7D053"/>
			<stop  offset="0.66" style="stop-color:#A0CD52"/>
			<stop  offset="0.7448" style="stop-color:#94C951"/>
			<stop  offset="0.8174" style="stop-color:#85C551"/>
			<stop  offset="0.8817" style="stop-color:#75C151"/>
			<stop  offset="0.9398" style="stop-color:#65BD53"/>
			<stop  offset="0.9915" style="stop-color:#59BA53"/>
			<stop  offset="1" style="stop-color:#57BA53"/>
		</radialGradient>
		<path id="X_path1" fill="url(#X_path1_1_)" stroke="#010101" d="M-30.754-61.15c0,5.786-11.337,10.478-25.315,10.478
			c-13.981,0-25.315-4.69-25.315-10.478c0-5.788,11.334-10.476,25.315-10.476C-42.092-71.624-30.754-66.936-30.754-61.15z"/>
	</g>
	<text transform="matrix(1 0 0 1 79.7276 262.873)" fill="#010101" font-family="'Myriad-Roman'" font-size="10">X</text>
</g>
<text transform="matrix(1 0 0 1 68.8316 25.125)" fill="#010101" font-family="'Myriad-Roman'" font-size="10">Light</text>
<text transform="matrix(1 0 0 1 90.3023 226.668)" font-family="'MyriadPro-Regular'" font-size="12">k</text>
<text transform="matrix(0.7 0 0 0.7 95.9302 230.6641)" font-family="'MyriadPro-Regular'" font-size="12">1</text>
<text transform="matrix(1 0 0 1 131.9908 277.834)" font-family="'MyriadPro-Regular'" font-size="12">k</text>
<text transform="matrix(0.7 0 0 0.7 137.6187 281.8301)" font-family="'MyriadPro-Regular'" font-size="12">2</text>
<text transform="matrix(1 0 0 1 186.9688 226.668)" font-family="'MyriadPro-Regular'" font-size="12">k</text>
<text transform="matrix(0.7 0 0 0.7 192.5977 230.6641)" font-family="'MyriadPro-Regular'" font-size="12">3</text>
<text transform="matrix(1 0 0 1 90.3023 294.1406)" font-family="'MyriadPro-Regular'" font-size="12">k</text>
<text transform="matrix(0.7 0 0 0.7 95.9302 298.1367)" font-family="'MyriadPro-Regular'" font-size="12">4</text>
<g>
	<g>
		<line fill="none" stroke="#010101" x1="203.372" y1="270.799" x2="203.372" y2="138.667"/>
		<polygon fill="#010101" points="207.075,141.476 203.372,139.903 199.668,141.476 203.372,132.698 		"/>
	</g>
</g>
<g id="Y">
	<g id="g4103_1_" transform="matrix(1.147869,0.000000,0.000000,1.063231,146.8529,324.9538)">
		
			<radialGradient id="Y_path1_1_" cx="-232.6244" cy="-779.1111" r="16.1865" gradientTransform="matrix(1.8289 0 0 0.676 474.6864 465.5307)" gradientUnits="userSpaceOnUse">
			<stop  offset="0" style="stop-color:#ADD252"/>
			<stop  offset="0.4082" style="stop-color:#ACD152"/>
			<stop  offset="0.5552" style="stop-color:#A7D053"/>
			<stop  offset="0.66" style="stop-color:#A0CD52"/>
			<stop  offset="0.7448" style="stop-color:#94C951"/>
			<stop  offset="0.8174" style="stop-color:#85C551"/>
			<stop  offset="0.8817" style="stop-color:#75C151"/>
			<stop  offset="0.9398" style="stop-color:#65BD53"/>
			<stop  offset="0.9915" style="stop-color:#59BA53"/>
			<stop  offset="1" style="stop-color:#57BA53"/>
		</radialGradient>
		<path id="Y_path1" fill="url(#Y_path1_1_)" stroke="#010101" d="M74.554-61.15c0,5.786-11.337,10.478-25.315,10.478
			c-13.981,0-25.315-4.69-25.315-10.478c0-5.788,11.334-10.476,25.315-10.476C63.216-71.624,74.554-66.936,74.554-61.15z"/>
	</g>
	<text transform="matrix(1 0 0 1 200.6075 262.8721)" fill="#010101" font-family="'Myriad-Roman'" font-size="10">Y</text>
</g>
<g>
	<g>
		<line fill="none" stroke="#010101" x1="278.5" y1="121.295" x2="226.918" y2="121.295"/>
		<polygon fill="#010101" points="275.691,124.998 277.264,121.295 275.691,117.591 284.469,121.295 		"/>
	</g>
</g>
<g id="Z">
	<g id="Z_path1" transform="matrix(1.147869,0.000000,0.000000,1.063231,146.8529,324.9538)">
		
			<radialGradient id="path4105_1_" cx="-232.6244" cy="-972.0078" r="16.1865" gradientTransform="matrix(1.8289 0 0 0.676 474.6864 465.5307)" gradientUnits="userSpaceOnUse">
			<stop  offset="0" style="stop-color:#ADD252"/>
			<stop  offset="0.4082" style="stop-color:#ACD152"/>
			<stop  offset="0.5552" style="stop-color:#A7D053"/>
			<stop  offset="0.66" style="stop-color:#A0CD52"/>
			<stop  offset="0.7448" style="stop-color:#94C951"/>
			<stop  offset="0.8174" style="stop-color:#85C551"/>
			<stop  offset="0.8817" style="stop-color:#75C151"/>
			<stop  offset="0.9398" style="stop-color:#65BD53"/>
			<stop  offset="0.9915" style="stop-color:#59BA53"/>
			<stop  offset="1" style="stop-color:#57BA53"/>
		</radialGradient>
		<path id="path4105" fill="url(#path4105_1_)" stroke="#010101" d="M74.554-191.548c0,5.786-11.337,10.478-25.315,10.478
			c-13.981,0-25.315-4.69-25.315-10.478s11.334-10.476,25.315-10.476C63.216-202.022,74.554-197.335,74.554-191.548z"/>
	</g>
	<text transform="matrix(1 0 0 1 200.6075 124.2295)" fill="#010101" font-family="'Myriad-Roman'" font-size="10">Z</text>
</g>
<text transform="matrix(1 0 0 1 247.7403 277.834)" font-family="'MyriadPro-Regular'" font-size="12">k</text>
<text transform="matrix(0.7 0 0 0.7 253.3692 281.8301)" font-family="'MyriadPro-Regular'" font-size="12">5</text>
<text transform="matrix(1 0 0 1 247.7403 137.6675)" font-family="'MyriadPro-Regular'" font-size="12">k</text>
<text transform="matrix(0.7 0 0 0.7 253.3692 141.6636)" font-family="'MyriadPro-Regular'" font-size="12">6</text>
</svg>
