<?xml version="1.0" encoding="utf-8"?>
<!-- Generator: Adobe Illustrator 14.0.0, SVG Export Plug-In . SVG Version: 6.00 Build 43363)  -->
<!DOCTYPE svg PUBLIC "-//W3C//DTD SVG 1.1//EN" "http://www.w3.org/Graphics/SVG/1.1/DTD/svg11.dtd">
<svg version="1.1" id="Layer_1" xmlns="http://www.w3.org/2000/svg" xmlns:xlink="http://www.w3.org/1999/xlink" x="0px" y="0px"
	 width="461.333px" height="298.667px" viewBox="0 0 461.333 298.667" enable-background="new 0 0 461.333 298.667"
	 xml:space="preserve">
<g>
	<g>
		<line fill="none" stroke="#000000" x1="43.351" y1="273.833" x2="43.351" y2="217.645"/>
		<polygon points="39.648,271.024 43.351,272.597 47.055,271.024 43.351,279.802 		"/>
	</g>
</g>
<path id="path11218" sodipodi:cx="663.41638" sodipodi:ry="70.471161" sodipodi:type="arc" sodipodi:rx="95.158508" sodipodi:cy="567.10571" fill="#BFDDFF" stroke="#0092DF" stroke-width="4.6459" d="
	M412.511,95.47c0,42.504-51.012,76.959-113.936,76.959c-62.925,0-113.936-34.455-113.936-76.959l0,0
	c0-42.504,51.011-76.96,113.936-76.96C361.5,18.51,412.511,52.966,412.511,95.47z"/>
<text transform="matrix(1 0 0 1 194.3315 95.7314)" font-family="'Myriad-Roman'" font-size="10">per transcription</text>
<g id="PER0" transform="translate(17.17704,243.1136)">
	
		<radialGradient id="PER0_path1_1_" cx="-73.6609" cy="-425.2479" r="16.1855" gradientTransform="matrix(0.9269 0 0 0.6352 224.1156 244.155)" gradientUnits="userSpaceOnUse">
		<stop  offset="0" style="stop-color:#A2FF5F"/>
		<stop  offset="0.4082" style="stop-color:#A0FF5F"/>
		<stop  offset="0.5552" style="stop-color:#99FD5F"/>
		<stop  offset="0.66" style="stop-color:#8EFB5E"/>
		<stop  offset="0.7448" style="stop-color:#7DF85E"/>
		<stop  offset="0.8174" style="stop-color:#67F35D"/>
		<stop  offset="0.8817" style="stop-color:#4BEE5C"/>
		<stop  offset="0.9398" style="stop-color:#2BE85B"/>
		<stop  offset="0.9915" style="stop-color:#07E05A"/>
		<stop  offset="1" style="stop-color:#00DF5A"/>
	</radialGradient>
	<path id="PER0_path1" fill="url(#PER0_path1_1_)" stroke="#000000" d="M170.567-25.963c0,5.78-6.596,10.467-14.727,10.467
		c-8.134,0-14.728-4.685-14.728-10.467s6.594-10.466,14.728-10.466C163.971-36.428,170.567-31.744,170.567-25.963z"/>
	<text transform="matrix(1 0 0 1 146.0241 -22.5276)" font-family="'Myriad-Roman'" font-size="10">PER</text>
	<text transform="matrix(0.583 0 0 0.583 161.6438 -19.1976)" font-family="'Myriad-Roman'" font-size="10">0</text>
</g>
<g id="PER1" transform="translate(115.3315,243.1136)">
	
		<radialGradient id="PER1_path1_1_" cx="-171.8139" cy="-425.2479" r="16.1858" gradientTransform="matrix(0.9269 0 0 0.6352 315.0953 244.155)" gradientUnits="userSpaceOnUse">
		<stop  offset="0" style="stop-color:#A2FF5F"/>
		<stop  offset="0.4082" style="stop-color:#A0FF5F"/>
		<stop  offset="0.5552" style="stop-color:#99FD5F"/>
		<stop  offset="0.66" style="stop-color:#8EFB5E"/>
		<stop  offset="0.7448" style="stop-color:#7DF85E"/>
		<stop  offset="0.8174" style="stop-color:#67F35D"/>
		<stop  offset="0.8817" style="stop-color:#4BEE5C"/>
		<stop  offset="0.9398" style="stop-color:#2BE85B"/>
		<stop  offset="0.9915" style="stop-color:#07E05A"/>
		<stop  offset="1" style="stop-color:#00DF5A"/>
	</radialGradient>
	<path id="PER1_path1" fill="url(#PER1_path1_1_)" stroke="#000000" d="M170.568-25.963c0,5.78-6.596,10.467-14.729,10.467
		s-14.727-4.685-14.727-10.467s6.594-10.466,14.727-10.466C163.973-36.428,170.568-31.744,170.568-25.963z"/>
	<text transform="matrix(1 0 0 1 146.0245 -22.5276)" font-family="'Myriad-Roman'" font-size="10">PER</text>
	<text transform="matrix(0.583 0 0 0.583 161.6446 -19.1976)" font-family="'Myriad-Roman'" font-size="10">1</text>
</g>
<g id="PER2" transform="translate(213.4860,243.1136)">
	
		<radialGradient id="PER2_path1_1_" cx="-273.2057" cy="-425.2479" r="16.1855" gradientTransform="matrix(0.9269 0 0 0.6352 406.075 244.155)" gradientUnits="userSpaceOnUse">
		<stop  offset="0" style="stop-color:#A2FF5F"/>
		<stop  offset="0.4082" style="stop-color:#A0FF5F"/>
		<stop  offset="0.5552" style="stop-color:#99FD5F"/>
		<stop  offset="0.66" style="stop-color:#8EFB5E"/>
		<stop  offset="0.7448" style="stop-color:#7DF85E"/>
		<stop  offset="0.8174" style="stop-color:#67F35D"/>
		<stop  offset="0.8817" style="stop-color:#4BEE5C"/>
		<stop  offset="0.9398" style="stop-color:#2BE85B"/>
		<stop  offset="0.9915" style="stop-color:#07E05A"/>
		<stop  offset="1" style="stop-color:#00DF5A"/>
	</radialGradient>
	<path id="PER2_path1" fill="url(#PER2_path1_1_)" stroke="#000000" d="M167.568-25.963c0,5.78-6.596,10.467-14.729,10.467
		s-14.727-4.685-14.727-10.467s6.594-10.466,14.727-10.466C160.973-36.428,167.568-31.744,167.568-25.963z"/>
	<text transform="matrix(1 0 0 1 143.0243 -22.5276)" font-family="'Myriad-Roman'" font-size="10">PER</text>
	<text transform="matrix(0.583 0 0 0.583 158.6444 -19.1976)" font-family="'Myriad-Roman'" font-size="10">2</text>
</g>
<path id="path3270" sodipodi:nodetypes="cc" d="M257.533,215.11"/>
<path id="path3276" sodipodi:nodetypes="cc" d="M184.652,194.305"/>
<g>
	<g>
		<g>
			<path fill="none" stroke="#000000" d="M364.765,227.196c-22.877,29.042-61.215,31.351-86.986,4.942"/>
			<polygon points="282.391,231.562 278.642,233.023 277.089,236.735 273.61,227.866 			"/>
		</g>
	</g>
	<g>
		<g>
			<path fill="none" stroke="#000000" d="M273.734,206.942c23.238-27.796,61.521-30.348,86.959-4.659"/>
			<polygon points="356.085,202.894 359.824,201.405 361.349,197.682 364.893,206.524 			"/>
		</g>
	</g>
</g>
<g>
	<g>
		<g>
			<path fill="none" stroke="#000000" d="M267.611,227.196c-22.877,29.042-61.216,31.351-86.987,4.942"/>
			<polygon points="185.236,231.562 181.487,233.023 179.934,236.735 176.455,227.866 			"/>
		</g>
	</g>
	<g>
		<g>
			<path fill="none" stroke="#000000" d="M176.579,206.942c23.238-27.796,61.522-30.348,86.96-4.659"/>
			<polygon points="258.931,202.894 262.669,201.405 264.195,197.682 267.739,206.524 			"/>
		</g>
	</g>
</g>
<g>
	<g>
		<line fill="none" stroke="#000000" x1="432.013" y1="217.025" x2="384.013" y2="217.025"/>
		<polygon points="429.205,220.729 430.777,217.025 429.205,213.321 437.982,217.025 		"/>
	</g>
</g>
<g>
	<g>
		<line fill="none" stroke="#000000" x1="152.04" y1="217.508" x2="70" y2="217.508"/>
		<polygon points="149.231,221.211 150.804,217.508 149.231,213.804 158.009,217.508 		"/>
	</g>
</g>
<g id="permRNA" transform="translate(17.66781,-104.7056)">
	
		<radialGradient id="permRNA_path1_1_" cx="-52.6483" cy="-76.561" r="16.186" gradientTransform="matrix(1.5933 0 0 0.6358 110.2779 370.891)" gradientUnits="userSpaceOnUse">
		<stop  offset="0" style="stop-color:#A2FF5F"/>
		<stop  offset="0.4082" style="stop-color:#A0FF5F"/>
		<stop  offset="0.5552" style="stop-color:#99FD5F"/>
		<stop  offset="0.66" style="stop-color:#8EFB5E"/>
		<stop  offset="0.7448" style="stop-color:#7DF85E"/>
		<stop  offset="0.8174" style="stop-color:#67F35D"/>
		<stop  offset="0.8817" style="stop-color:#4BEE5C"/>
		<stop  offset="0.9398" style="stop-color:#2BE85B"/>
		<stop  offset="0.9915" style="stop-color:#07E05A"/>
		<stop  offset="1" style="stop-color:#00DF5A"/>
	</radialGradient>
	<path id="permRNA_path1" fill="url(#permRNA_path1_1_)" stroke="#000000" d="M51.709,322.212c0,5.786-11.338,10.478-25.316,10.478
		c-13.981,0-25.315-4.689-25.315-10.478s11.334-10.476,25.315-10.476C40.37,311.738,51.709,316.425,51.709,322.212z"/>
	<text transform="matrix(1 0 0 1 5.946 325.2964)" font-family="'Myriad-Roman'" font-size="10">per mRNA</text>
</g>
<g id="nuclearPER">
	
		<radialGradient id="nuclearPER_path1_1_" cx="247.1324" cy="-432.2207" r="18.2635" gradientTransform="matrix(1.5933 0 0 0.6358 -26.2484 367.6019)" gradientUnits="userSpaceOnUse">
		<stop  offset="0" style="stop-color:#A2FF5F"/>
		<stop  offset="0.4082" style="stop-color:#A0FF5F"/>
		<stop  offset="0.5552" style="stop-color:#99FD5F"/>
		<stop  offset="0.66" style="stop-color:#8EFB5E"/>
		<stop  offset="0.7448" style="stop-color:#7DF85E"/>
		<stop  offset="0.8174" style="stop-color:#67F35D"/>
		<stop  offset="0.8817" style="stop-color:#4BEE5C"/>
		<stop  offset="0.9398" style="stop-color:#2BE85B"/>
		<stop  offset="0.9915" style="stop-color:#07E05A"/>
		<stop  offset="1" style="stop-color:#00DF5A"/>
	</radialGradient>
	<path id="nuclearPER_path1" fill="url(#nuclearPER_path1_1_)" stroke="#000000" d="M396.072,92.795
		c0,6.529-12.793,11.823-28.566,11.823c-15.775,0-28.564-5.292-28.564-11.823s12.789-11.82,28.564-11.82
		C383.279,80.976,396.072,86.265,396.072,92.795z"/>
	<text transform="matrix(1 0 0 1 343.146 95.731)" font-family="'Myriad-Roman'" font-size="10">nuclear PER</text>
</g>
<g>
	<g>
		<line fill="none" stroke="#000000" x1="368.667" y1="200.5" x2="368.667" y2="111.114"/>
		<polygon points="372.37,113.923 368.667,112.35 364.962,113.923 368.667,105.145 		"/>
		<polygon points="364.963,197.691 368.667,199.265 372.371,197.691 368.667,206.47 		"/>
	</g>
</g>
<text transform="matrix(1 0 0 1 277.9693 40.7559)" font-family="'Myriad-Roman'" font-size="10">Nucleus</text>
<text transform="matrix(1 0 0 1 101.4995 40.7559)" font-family="'Myriad-Roman'" font-size="10">Cytoplasm</text>
<path d="M190,92.5"/>
<g>
	<g>
		<g>
			<line fill="none" stroke="#000000" x1="43.429" y1="201" x2="43.429" y2="92.5"/>
			<polygon points="39.726,198.191 43.429,199.765 47.133,198.191 43.429,206.97 			"/>
		</g>
	</g>
	<g>
		<g>
			<line fill="none" stroke="#000000" x1="43.063" y1="92.5" x2="192.001" y2="92.5"/>
		</g>
	</g>
</g>
<line fill="#FF0000" stroke="#FF0000" x1="266.5" y1="92.578" x2="336" y2="92.578"/>
<path id="path33139_1_" fill="none" stroke="#000000" d="M266.397,94.839l0.024-4.521"/>
</svg>
