<?xml version="1.0" encoding="UTF-8" standalone="no"?>
<!-- Created with Inkscape (http://www.inkscape.org/) -->
<svg
   xmlns:dc="http://purl.org/dc/elements/1.1/"
   xmlns:cc="http://web.resource.org/cc/"
   xmlns:rdf="http://www.w3.org/1999/02/22-rdf-syntax-ns#"
   xmlns:svg="http://www.w3.org/2000/svg"
   xmlns="http://www.w3.org/2000/svg"
   xmlns:sodipodi="http://sodipodi.sourceforge.net/DTD/sodipodi-0.dtd"
   xmlns:inkscape="http://www.inkscape.org/namespaces/inkscape"
   width="210mm"
   height="297mm"
   id="svg3774"
   sodipodi:version="0.32"
   inkscape:version="0.44"
   sodipodi:docbase="/automount/bluearc2_volume001/lenovere/compneur/work/viji/biomodels/singh06/glucosemodel"
   sodipodi:docname="BIOMD0000000222_manual.svg">
  <defs
     id="defs3">
    <title
       id="title8405">IE-&gt;UbE_Reaction</title>
    <title
       id="title8291">UbEB-&gt;UbE_Reaction</title>
    <title
       id="title2242">Wee1_Reaction-&gt;Wee1</title>
    <title
       id="title2252">G1K_Creation_empty</title>
    <title
       id="title2262">G1K_Creation_empty</title>
    <title
       id="title7219">UbEB-&gt;UbE_Reaction</title>
    <title
       id="title7641">Wee1_Reaction-&gt;Wee1</title>
    <title
       id="title8299">UbEB-&gt;UbE_Reaction</title>
    <title
       id="title8283">Wee1_Reaction-&gt;Wee1</title>
    <title
       id="title9677">G1K_Creation_empty</title>
    <title
       id="title9829">G1K_Creation_empty</title>
    <title
       id="title2282">Wee1_Reaction-&gt;Wee1</title>
  </defs>
  <sodipodi:namedview
     inkscape:document-units="mm"
     id="base"
     pagecolor="#ffffff"
     bordercolor="#666666"
     borderopacity="1.0"
     inkscape:pageopacity="0.0"
     inkscape:pageshadow="2"
     inkscape:zoom="1.4"
     inkscape:cx="412.93345"
     inkscape:cy="738.21468"
     inkscape:current-layer="layer1"
     inkscape:window-width="1272"
     inkscape:window-height="941"
     inkscape:window-x="0"
     inkscape:window-y="0"
     showguides="true"
     inkscape:guide-bbox="true" />
  <metadata
     id="metadata4">
    <rdf:RDF>
      <cc:Work
         rdf:about="">
        <dc:format>image/svg+xml</dc:format>
        <dc:type
           rdf:resource="http://purl.org/dc/dcmitype/StillImage" />
      </cc:Work>
    </rdf:RDF>
  </metadata>
  <g
     inkscape:label="Layer 1"
     inkscape:groupmode="layer"
     id="layer1">
    <path
       sodipodi:type="arc"
       style="fill:red;fill-opacity:0;stroke:black;stroke-opacity:0"
       id="path3416"
       sodipodi:cx="316.78571"
       sodipodi:cy="179.86218"
       sodipodi:rx="49.642857"
       sodipodi:ry="136.07143"
       d="M 366.41704,176.93089 A 49.642857,136.07143 0 0 1 360.21663,245.77006 L 316.78571,179.86218 z"
       sodipodi:start="6.2616413"
       sodipodi:end="6.7888195"
       transform="translate(0,14)" />
    <g
       id="g21109"
       transform="translate(-349.6912,-433.9746)">
      <path
         sodipodi:type="arc"
         style="fill:white;fill-opacity:1;fill-rule:nonzero;stroke:black;stroke-width:2.2705822;stroke-linecap:round;stroke-miterlimit:4;stroke-dasharray:none;stroke-dashoffset:0;stroke-opacity:1"
         id="path7331"
         sodipodi:cx="394.28571"
         sodipodi:cy="289.09448"
         sodipodi:rx="396.34982"
         sodipodi:ry="387.88306"
         d="M 790.63553,289.09448 A 396.34982,387.88306 0 1 1 790.63018,287.07889"
         transform="matrix(0.342859,0.276431,-0.276431,0.342859,704.8153,488.2255)"
         sodipodi:start="0"
         sodipodi:end="6.2779889"
         sodipodi:open="true" />
    </g>
    <path
       id="path4922"
       d="M 377.15639,93.16826 L 357.62064,135.20437"
       style="fill:none;fill-opacity:0.75;fill-rule:evenodd;stroke:black;stroke-width:1.48444068;stroke-linecap:butt;stroke-linejoin:miter;stroke-miterlimit:4;stroke-dasharray:none;stroke-dashoffset:0;stroke-opacity:1"
       sodipodi:nodetypes="cc" />
    <path
       id="path4926"
       d="M 428.54192,91.281479 L 455.22053,130.46045"
       style="fill:none;fill-opacity:0.75;fill-rule:evenodd;stroke:black;stroke-width:1.48444068;stroke-linecap:butt;stroke-linejoin:miter;stroke-miterlimit:4;stroke-dasharray:none;stroke-dashoffset:0;stroke-opacity:1"
       sodipodi:nodetypes="cc" />
    <polygon
       points="97.5001,-937.831 101,-947.831 104.5,-937.831 97.5001,-937.831 "
       id="polygon4928"
       style="fill:black;stroke:black"
       transform="matrix(1.103685,0.586837,0.561708,-1.056422,780.4197,-928.9651)" />
    <polygon
       points="97.5001,-937.831 101,-947.831 104.5,-937.831 97.5001,-937.831 "
       id="polygon4930"
       style="fill:black;stroke:black"
       transform="matrix(1.03873,-0.695369,-0.66559,-0.994248,-280.0398,-740.5558)" />
    <polygon
       points="97.5001,-937.831 101,-947.831 104.5,-937.831 97.5001,-937.831 "
       id="polygon4932"
       style="fill:black;stroke:black"
       transform="matrix(-0.625,-1.082531,1.036173,-0.598235,1359.473,-341.0576)" />
    <polygon
       points="97.5001,-937.831 101,-947.831 104.5,-937.831 97.5001,-937.831 "
       id="polygon4946"
       style="fill:black;stroke:black"
       transform="matrix(-0.624999,1.082532,-1.036174,-0.598236,-416.2032,-557.2727)" />
    <rect
       transform="matrix(5.428153e-3,0.999985,-0.999985,5.428154e-3,0,0)"
       style="fill:white;fill-opacity:1;fill-rule:nonzero;stroke:black;stroke-width:1.03897429;stroke-miterlimit:4;stroke-dasharray:none;stroke-dashoffset:0;stroke-opacity:1"
       id="rect4948"
       width="12.931527"
       height="12.38297"
       x="86.648209"
       y="-410.2247" />
    <polygon
       points="97.5001,-937.831 101,-947.831 104.5,-937.831 97.5001,-937.831 "
       id="polygon4950"
       style="fill:black;stroke:black"
       transform="matrix(-1.158979,-0.468258,0.448206,-1.109348,790.262,-807.1474)" />
    <polygon
       points="97.5001,-937.831 101,-947.831 104.5,-937.831 97.5001,-937.831 "
       id="polygon4964"
       style="fill:black;stroke:black"
       transform="matrix(-1.123492,0.547965,-0.524499,-1.075381,185.8345,-877.0108)" />
    <path
       sodipodi:type="arc"
       style="fill:red;fill-opacity:0;stroke:black;stroke-opacity:0"
       id="path4966"
       sodipodi:cx="365.71429"
       sodipodi:cy="212.36218"
       sodipodi:rx="16.428572"
       sodipodi:ry="2.1428571"
       d="M 382.14287,212.36218 A 16.428572,2.1428571 0 1 1 382.14104,212.33022 L 365.71429,212.36218 z"
       sodipodi:start="0"
       sodipodi:end="6.268268"
       transform="translate(-99.736,127.2249)" />
    <polygon
       points="97.5001,-937.831 101,-947.831 104.5,-937.831 97.5001,-937.831 "
       id="polygon4968"
       style="fill:black;stroke:black"
       transform="matrix(-1.19538,0.365463,-0.349814,-1.14419,31.32204,-820.7131)" />
    <polygon
       points="97.5001,-937.831 101,-947.831 104.5,-937.831 97.5001,-937.831 "
       id="polygon4982"
       style="fill:black;stroke:black"
       transform="matrix(-1.207407,-0.323523,0.309668,-1.155702,994.903,-758.1019)" />
    <polygon
       points="97.5001,-937.831 101,-947.831 104.5,-937.831 97.5001,-937.831 "
       id="polygon4998"
       style="fill:black;stroke:black"
       transform="matrix(-0.182602,-1.236588,1.183634,-0.174784,1583.041,391.3658)" />
    <polygon
       points="97.5001,-937.831 101,-947.831 104.5,-937.831 97.5001,-937.831 "
       id="polygon5000"
       style="fill:black;stroke:black"
       transform="matrix(0.567488,-1.113756,1.066062,0.543186,1286.917,1042.359)" />
    <polygon
       points="97.5001,-937.831 101,-947.831 104.5,-937.831 97.5001,-937.831 "
       id="polygon5002"
       style="fill:black;stroke:black"
       transform="matrix(1.048338,-0.680796,0.651644,1.003444,771.1089,1362.683)" />
    <polygon
       points="97.5001,-937.831 101,-947.831 104.5,-937.831 97.5001,-937.831 "
       id="polygon5004"
       style="fill:black;stroke:black"
       transform="matrix(1.036296,0.69899,-0.669058,0.991916,-457.2433,1013.655)" />
    <polygon
       points="97.5001,-937.831 101,-947.831 104.5,-937.831 97.5001,-937.831 "
       id="polygon5006"
       style="fill:black;stroke:black"
       transform="matrix(1.246952,8.719705e-2,-8.346365e-2,1.193553,33.18894,1361.38)" />
    <polygon
       points="97.5001,-937.831 101,-947.831 104.5,-937.831 97.5001,-937.831 "
       id="polygon5008"
       style="fill:black;stroke:black"
       transform="matrix(0.985013,-0.769574,0.736617,0.94283,1135.02,1117.765)" />
    <polygon
       points="97.5001,-937.831 101,-947.831 104.5,-937.831 97.5001,-937.831 "
       id="polygon5010"
       style="fill:black;stroke:black"
       transform="matrix(1.245241,-0.108943,0.104277,1.191914,555.3479,1381.206)" />
    <polygon
       points="97.5001,-937.831 101,-947.831 104.5,-937.831 97.5001,-937.831 "
       id="polygon5012"
       style="fill:black;stroke:black"
       transform="matrix(1.103683,0.586839,-0.561709,1.056417,-79.822,1287.851)" />
    <polygon
       points="97.5001,-937.831 101,-947.831 104.5,-937.831 97.5001,-937.831 "
       id="polygon5016"
       style="fill:black;stroke:black"
       transform="matrix(-0.195541,1.23461,-1.181739,-0.187169,-701.2062,131.3918)" />
    <polygon
       points="97.5001,-937.831 101,-947.831 104.5,-937.831 97.5001,-937.831 "
       id="polygon5018"
       style="fill:black;stroke:black"
       transform="matrix(-0.943387,0.820072,-0.784953,-0.902987,-350.3638,-546.8464)" />
    <rect
       transform="matrix(0.45882,0.888529,-0.888529,0.45882,0,0)"
       style="fill:white;fill-opacity:1;fill-rule:nonzero;stroke:black;stroke-width:1.03903222;stroke-miterlimit:4;stroke-dasharray:none;stroke-dashoffset:0;stroke-opacity:1"
       id="rect5020"
       width="12.932449"
       height="12.383656"
       x="401.35239"
       y="-422.47394" />
    <rect
       transform="matrix(5.427883e-3,0.999985,-0.999985,5.427884e-3,0,0)"
       style="fill:white;fill-opacity:1;fill-rule:nonzero;stroke:black;stroke-width:1.03903866;stroke-miterlimit:4;stroke-dasharray:none;stroke-dashoffset:0;stroke-opacity:1"
       id="rect5022"
       width="12.932555"
       height="12.383734"
       x="270.05951"
       y="-588.41223" />
    <rect
       transform="matrix(0.633529,0.773719,-0.773719,0.633529,0,0)"
       style="fill:white;fill-opacity:1;fill-rule:nonzero;stroke:black;stroke-width:1.03903806;stroke-miterlimit:4;stroke-dasharray:none;stroke-dashoffset:0;stroke-opacity:1"
       id="rect5024"
       width="12.932542"
       height="12.383725"
       x="631.4082"
       y="-155.97012" />
    <rect
       transform="matrix(0.979262,0.2026,-0.2026,0.979262,0,0)"
       style="fill:white;fill-opacity:1;fill-rule:nonzero;stroke:black;stroke-width:1.03903711;stroke-miterlimit:4;stroke-dasharray:none;stroke-dashoffset:0;stroke-opacity:1"
       id="rect5026"
       width="12.932528"
       height="12.383711"
       x="437.37683"
       y="338.24606" />
    <rect
       transform="matrix(0.592168,0.805815,-0.805815,0.592168,0,0)"
       style="fill:white;fill-opacity:1;fill-rule:nonzero;stroke:black;stroke-width:1.03903651;stroke-miterlimit:4;stroke-dasharray:none;stroke-dashoffset:0;stroke-opacity:1"
       id="rect5028"
       width="12.932518"
       height="12.383706"
       x="451.57416"
       y="-10.328383" />
    <rect
       transform="matrix(0.109925,0.99394,-0.99394,0.109925,0,0)"
       style="fill:white;fill-opacity:1;fill-rule:nonzero;stroke:black;stroke-width:1.03903437;stroke-miterlimit:4;stroke-dasharray:none;stroke-dashoffset:0;stroke-opacity:1"
       id="rect5030"
       width="12.932485"
       height="12.383682"
       x="290.24747"
       y="-212.68237" />
    <rect
       transform="matrix(0.893457,0.449149,-0.449149,0.893457,0,0)"
       style="fill:white;fill-opacity:1;fill-rule:nonzero;stroke:black;stroke-width:1.0390321;stroke-miterlimit:4;stroke-dasharray:none;stroke-dashoffset:0;stroke-opacity:1"
       id="rect5032"
       width="12.932445"
       height="12.383654"
       x="303.30103"
       y="27.00275" />
    <path
       id="path4917"
       d="M 458.15341,221.48131 L 548.40344,220.87377"
       style="fill:none;fill-opacity:0.75;fill-rule:evenodd;stroke:black;stroke-width:1.48444068;stroke-linecap:butt;stroke-linejoin:miter;stroke-miterlimit:4;stroke-dasharray:none;stroke-dashoffset:0;stroke-opacity:1"
       sodipodi:nodetypes="cc" />
    <path
       id="path4909"
       d="M 497.65297,221.7871 L 329.77559,384.79442"
       style="fill:none;fill-opacity:0.75;fill-rule:evenodd;stroke:black;stroke-width:1.48444068;stroke-linecap:butt;stroke-linejoin:miter;stroke-miterlimit:4;stroke-dasharray:none;stroke-dashoffset:0;stroke-opacity:1"
       sodipodi:nodetypes="cc" />
    <rect
       transform="matrix(5.427882e-3,0.999985,-0.999985,5.427883e-3,0,0)"
       style="fill:white;fill-opacity:1;fill-rule:nonzero;stroke:black;stroke-width:1.0390389;stroke-miterlimit:4;stroke-dasharray:none;stroke-dashoffset:0;stroke-opacity:1"
       id="rect4965"
       width="12.932559"
       height="12.383737"
       x="217.74406"
       y="-521.55054" />
    <polygon
       points="97.5001,-937.831 101,-947.831 104.5,-937.831 97.5001,-937.831 "
       id="polygon5040"
       style="fill:black;stroke:black"
       transform="matrix(0,1.249999,-1.19647,0,-579.4283,94.4226)" />
    <polygon
       points="97.5001,-937.831 101,-947.831 104.5,-937.831 97.5001,-937.831 "
       id="polygon5042"
       style="fill:black;stroke:black"
       transform="matrix(0,-1.249999,1.19647,0,1588.95,347.8279)" />
    <polygon
       points="97.5001,-937.831 101,-947.831 104.5,-937.831 97.5001,-937.831 "
       id="polygon5044"
       style="fill:black;stroke:black"
       transform="matrix(-0.868322,-0.899175,0.860668,-0.831137,1233.829,-312.8577)" />
    <path
       id="path5054"
       d="M 407.05359,219.73738 L 271.08926,219.84413"
       style="fill:none;fill-opacity:0.75;fill-rule:evenodd;stroke:black;stroke-width:1.48444068;stroke-linecap:butt;stroke-linejoin:miter;stroke-miterlimit:4;stroke-dasharray:none;stroke-dashoffset:0;stroke-opacity:1"
       sodipodi:nodetypes="cc" />
    <path
       id="path4907"
       d="M 369.05359,218.59452 L 359.51784,170.12984"
       style="fill:none;fill-opacity:0.75;fill-rule:evenodd;stroke:black;stroke-width:1.48444068;stroke-linecap:butt;stroke-linejoin:miter;stroke-miterlimit:4;stroke-dasharray:none;stroke-dashoffset:0;stroke-opacity:1"
       sodipodi:nodetypes="cc" />
    <path
       id="path4919"
       d="M 458.44078,169.67635 C 452.84914,178.28095 438.24294,178.49353 415.23642,185.29478 C 371.71822,198.15975 311.99938,207.4612 309.28854,219.68121"
       style="fill:none;fill-opacity:0.75;fill-rule:evenodd;stroke:black;stroke-width:1.48444068;stroke-linecap:butt;stroke-linejoin:miter;stroke-miterlimit:4;stroke-dasharray:none;stroke-dashoffset:0;stroke-opacity:1"
       sodipodi:nodetypes="csc" />
    <polygon
       points="97.5001,-937.831 101,-947.831 104.5,-937.831 97.5001,-937.831 "
       id="polygon4923"
       style="fill:black;stroke:black"
       transform="matrix(1.212869,-0.302399,0.28945,1.160931,511.796,1305.05)" />
    <polygon
       points="97.5001,-937.831 101,-947.831 104.5,-937.831 97.5001,-937.831 "
       id="polygon4927"
       style="fill:black;stroke:black"
       transform="matrix(0.643795,1.071455,-1.025576,0.616228,-581.8102,648.1495)" />
    <polygon
       points="97.5001,-937.831 101,-947.831 104.5,-937.831 97.5001,-937.831 "
       id="polygon5056"
       style="fill:black;stroke:black"
       transform="matrix(0,-1.249999,1.19647,0,1399.64,346.3264)" />
    <polygon
       points="97.5001,-937.831 101,-947.831 104.5,-937.831 97.5001,-937.831 "
       id="polygon5058"
       style="fill:black;stroke:black"
       transform="matrix(0,1.249999,-1.19647,0,-723.7833,93.6836)" />
    <rect
       transform="matrix(5.427893e-3,0.999985,-0.999985,5.427894e-3,0,0)"
       style="fill:white;fill-opacity:1;fill-rule:nonzero;stroke:black;stroke-width:1.03903627;stroke-miterlimit:4;stroke-dasharray:none;stroke-dashoffset:0;stroke-opacity:1"
       id="rect5060"
       width="12.932516"
       height="12.383705"
       x="215.87239"
       y="-343.56027" />
    <polygon
       points="97.5001,-937.831 101,-947.831 104.5,-937.831 97.5001,-937.831 "
       id="polygon5062"
       style="fill:black;stroke:black"
       transform="matrix(-1.25,0,0,-1.19647,709.8693,-711.6055)" />
    <path
       id="path5064"
       d="M 583.27691,411.95129 L 582.98215,347.96221"
       style="fill:none;fill-opacity:0.75;fill-rule:evenodd;stroke:black;stroke-width:1.37263846;stroke-linecap:butt;stroke-linejoin:miter;stroke-miterlimit:4;stroke-dasharray:none;stroke-dashoffset:0;stroke-opacity:1"
       sodipodi:nodetypes="cc" />
    <polygon
       points="97.5001,-937.831 101,-947.831 104.5,-937.831 97.5001,-937.831 "
       id="polygon5066"
       style="fill:black;stroke:black"
       transform="matrix(-1.25,0,0,1.19647,709.4409,1481.473)" />
    <rect
       transform="matrix(5.428239e-3,0.999985,-0.999985,5.42824e-3,0,0)"
       style="fill:white;fill-opacity:1;fill-rule:nonzero;stroke:black;stroke-width:1.03895378;stroke-miterlimit:4;stroke-dasharray:none;stroke-dashoffset:0;stroke-opacity:1"
       id="rect5068"
       width="12.9312"
       height="12.382724"
       x="381.05481"
       y="-587.09369" />
    <rect
       style="fill:white;fill-opacity:1;fill-rule:nonzero;stroke:black;stroke-width:0.68247491;stroke-miterlimit:4;stroke-dasharray:none;stroke-opacity:1"
       id="rect5070"
       width="49.768925"
       height="29.983255"
       x="561.69189"
       y="422.70663"
       ry="4.3246512"
       rx="3.8938177"
       transform="matrix(0.999997,2.606856e-3,-2.606856e-3,0.999997,0,0)" />
    <text
       xml:space="preserve"
       style="font-size:2.46783972px;font-style:normal;font-weight:normal;fill:black;fill-opacity:1;stroke:none;stroke-width:1px;stroke-linecap:butt;stroke-linejoin:miter;stroke-opacity:1;font-family:Bitstream Vera Sans"
       x="550.5069"
       y="457.59561"
       id="text5072"
       transform="matrix(1.009308,-1.657377e-2,1.626512e-2,0.990511,0,0)"><tspan
         sodipodi:role="line"
         id="tspan5074"
         x="550.5069"
         y="457.59561"
         style="font-size:13.16220093px">biosyn</tspan></text>
    <path
       transform="matrix(0.514553,0,0,0.530334,73.28217,327.1051)"
       d="M 509.99999 143.79076 A 38.57143 38.57143 0 1 1  432.85713,143.79076 A 38.57143 38.57143 0 1 1  509.99999 143.79076 z"
       sodipodi:ry="38.57143"
       sodipodi:rx="38.57143"
       sodipodi:cy="143.79076"
       sodipodi:cx="471.42856"
       id="path2537"
       style="fill:white;fill-opacity:1;fill-rule:nonzero;stroke:black;stroke-width:1.87877297;stroke-miterlimit:4;stroke-dasharray:none;stroke-opacity:1"
       sodipodi:type="arc" />
    <path
       transform="matrix(0.514553,0,0,0.530334,9.425,245.8194)"
       d="M 509.99999 143.79076 A 38.57143 38.57143 0 1 1  432.85713,143.79076 A 38.57143 38.57143 0 1 1  509.99999 143.79076 z"
       sodipodi:ry="38.57143"
       sodipodi:rx="38.57143"
       sodipodi:cy="143.79076"
       sodipodi:cx="471.42856"
       id="path2531"
       style="fill:white;fill-opacity:1;fill-rule:nonzero;stroke:black;stroke-width:1.87877297;stroke-miterlimit:4;stroke-dasharray:none;stroke-opacity:1"
       sodipodi:type="arc" />
    <text
       xml:space="preserve"
       style="font-size:2.46782136px;font-style:normal;font-weight:normal;fill:black;fill-opacity:1;stroke:none;stroke-width:1px;stroke-linecap:butt;stroke-linejoin:miter;stroke-opacity:1;font-family:Bitstream Vera Sans"
       x="294.84875"
       y="415.78317"
       id="text4994"
       transform="matrix(1.009308,-1.657377e-2,1.626512e-2,0.990511,0,0)"><tspan
         sodipodi:role="line"
         id="tspan4996"
         x="294.84875"
         y="415.78317"
         style="font-size:13.16205406px">suc</tspan></text>
    <text
       xml:space="preserve"
       style="font-size:2.4679749px;font-style:normal;font-weight:normal;fill:black;fill-opacity:1;stroke:none;stroke-width:1px;stroke-linecap:butt;stroke-linejoin:miter;stroke-opacity:1;font-family:Bitstream Vera Sans"
       x="222.12279"
       y="334.27823"
       id="text4972"
       transform="matrix(1.009308,-1.657377e-2,1.626512e-2,0.990511,0,0)"><tspan
         sodipodi:role="line"
         id="tspan4974"
         x="222.12279"
         y="334.27823"
         style="font-size:13.16328239px">    fa</tspan></text>
    <path
       transform="matrix(0.514553,0,0,0.530334,0.4436,141.9622)"
       d="M 509.99999 143.79076 A 38.57143 38.57143 0 1 1  432.85713,143.79076 A 38.57143 38.57143 0 1 1  509.99999 143.79076 z"
       sodipodi:ry="38.57143"
       sodipodi:rx="38.57143"
       sodipodi:cy="143.79076"
       sodipodi:cx="471.42856"
       id="path2545"
       style="fill:white;fill-opacity:1;fill-rule:nonzero;stroke:black;stroke-width:1.87877297;stroke-miterlimit:4;stroke-dasharray:none;stroke-opacity:1"
       sodipodi:type="arc" />
    <path
       sodipodi:type="arc"
       style="fill:red;fill-opacity:0;stroke:black;stroke-opacity:0"
       id="path2551"
       sodipodi:cx="365.71429"
       sodipodi:cy="212.36218"
       sodipodi:rx="16.428572"
       sodipodi:ry="2.1428571"
       d="M 382.14287,212.36218 A 16.428572,2.1428571 0 1 1 382.14104,212.33022 L 365.71429,212.36218 z"
       sodipodi:start="0"
       sodipodi:end="6.268268"
       transform="translate(-56.5745,-59.6323)" />
    <path
       transform="matrix(0.514553,0,0,0.530334,56.5865,56.9622)"
       d="M 509.99999 143.79076 A 38.57143 38.57143 0 1 1  432.85713,143.79076 A 38.57143 38.57143 0 1 1  509.99999 143.79076 z"
       sodipodi:ry="38.57143"
       sodipodi:rx="38.57143"
       sodipodi:cy="143.79076"
       sodipodi:cx="471.42856"
       id="path2553"
       style="fill:white;fill-opacity:1;fill-rule:nonzero;stroke:black;stroke-width:1.87877297;stroke-miterlimit:4;stroke-dasharray:none;stroke-opacity:1"
       sodipodi:type="arc" />
    <path
       sodipodi:type="arc"
       style="fill:red;fill-opacity:0;stroke:black;stroke-opacity:0"
       id="path2559"
       sodipodi:cx="365.71429"
       sodipodi:cy="212.36218"
       sodipodi:rx="16.428572"
       sodipodi:ry="2.1428571"
       d="M 382.14287,212.36218 A 16.428572,2.1428571 0 1 1 382.14104,212.33022 L 365.71429,212.36218 z"
       sodipodi:start="0"
       sodipodi:end="6.268268"
       transform="translate(215.8541,140.0819)" />
    <path
       transform="matrix(0.514553,0,0,0.530334,331.0151,250.6764)"
       d="M 509.99999 143.79076 A 38.57143 38.57143 0 1 1  432.85713,143.79076 A 38.57143 38.57143 0 1 1  509.99999 143.79076 z"
       sodipodi:ry="38.57143"
       sodipodi:rx="38.57143"
       sodipodi:cy="143.79076"
       sodipodi:cx="471.42856"
       id="path2561"
       style="fill:white;fill-opacity:1;fill-rule:nonzero;stroke:black;stroke-width:1.87877297;stroke-miterlimit:4;stroke-dasharray:none;stroke-opacity:1"
       sodipodi:type="arc" />
    <text
       xml:space="preserve"
       style="font-size:2.46794176px;font-style:normal;font-weight:normal;fill:black;fill-opacity:1;stroke:none;stroke-width:1px;stroke-linecap:butt;stroke-linejoin:miter;stroke-opacity:1;font-family:Bitstream Vera Sans"
       x="213.80162"
       y="228.04196"
       id="text4954"
       transform="matrix(1.009308,-1.657377e-2,1.626512e-2,0.990511,0,0)"><tspan
         sodipodi:role="line"
         id="tspan4956"
         x="213.80162"
         y="228.04196"
         style="font-size:13.16301727px">   mal</tspan></text>
    <text
       xml:space="preserve"
       style="font-size:2.46791863px;font-style:normal;font-weight:normal;fill:black;fill-opacity:1;stroke:none;stroke-width:1px;stroke-linecap:butt;stroke-linejoin:miter;stroke-opacity:1;font-family:Bitstream Vera Sans"
       x="269.95309"
       y="143.08916"
       id="text4936"
       transform="matrix(1.009308,-1.657377e-2,1.626512e-2,0.990511,0,0)"><tspan
         sodipodi:role="line"
         id="tspan4938"
         x="269.95309"
         y="143.08916"
         style="font-size:13.16283226px">   oaa</tspan></text>
    <path
       transform="matrix(0.514553,0,0,0.530334,333.9965,143.105)"
       d="M 509.99999 143.79076 A 38.57143 38.57143 0 1 1  432.85713,143.79076 A 38.57143 38.57143 0 1 1  509.99999 143.79076 z"
       sodipodi:ry="38.57143"
       sodipodi:rx="38.57143"
       sodipodi:cy="143.79076"
       sodipodi:cx="471.42856"
       id="path2567"
       style="fill:white;fill-opacity:1;fill-rule:nonzero;stroke:black;stroke-width:1.87877297;stroke-miterlimit:4;stroke-dasharray:none;stroke-opacity:1"
       sodipodi:type="arc" />
    <path
       transform="matrix(0.514553,0,0,0.530334,218.7107,76.10506)"
       d="M 509.99999 143.79076 A 38.57143 38.57143 0 1 1  432.85713,143.79076 A 38.57143 38.57143 0 1 1  509.99999 143.79076 z"
       sodipodi:ry="38.57143"
       sodipodi:rx="38.57143"
       sodipodi:cy="143.79076"
       sodipodi:cx="471.42856"
       id="path2569"
       style="fill:white;fill-opacity:1;fill-rule:nonzero;stroke:black;stroke-width:1.87877297;stroke-miterlimit:4;stroke-dasharray:none;stroke-opacity:1"
       sodipodi:type="arc" />
    <path
       transform="matrix(0.514553,0,0,0.530334,179.2822,356.9622)"
       d="M 509.99999 143.79076 A 38.57143 38.57143 0 1 1  432.85713,143.79076 A 38.57143 38.57143 0 1 1  509.99999 143.79076 z"
       sodipodi:ry="38.57143"
       sodipodi:rx="38.57143"
       sodipodi:cy="143.79076"
       sodipodi:cx="471.42856"
       id="path2571"
       style="fill:white;fill-opacity:1;fill-rule:nonzero;stroke:black;stroke-width:1.87877297;stroke-miterlimit:4;stroke-dasharray:none;stroke-opacity:1"
       sodipodi:type="arc" />
    <text
       xml:space="preserve"
       style="font-size:2.46783924px;font-style:normal;font-weight:normal;fill:black;fill-opacity:1;stroke:none;stroke-width:1px;stroke-linecap:butt;stroke-linejoin:miter;stroke-opacity:1;font-family:Bitstream Vera Sans"
       x="399.7717"
       y="448.55295"
       id="text4986"
       transform="matrix(1.009308,-1.657377e-2,1.626512e-2,0.990511,0,0)"><tspan
         sodipodi:role="line"
         id="tspan4988"
         x="399.7717"
         y="448.55295"
         style="font-size:13.16219711px">sca</tspan></text>
    <text
       xml:space="preserve"
       style="font-size:2.46798539px;font-style:normal;font-weight:normal;fill:black;fill-opacity:1;stroke:none;stroke-width:1px;stroke-linecap:butt;stroke-linejoin:miter;stroke-opacity:1;font-family:Bitstream Vera Sans"
       x="538.77325"
       y="343.12415"
       id="text4978"
       transform="matrix(1.009308,-1.657377e-2,1.626512e-2,0.990511,0,0)"><tspan
         sodipodi:role="line"
         id="tspan4980"
         x="538.77325"
         y="343.12415"
         style="font-size:13.16336632px">   akg</tspan></text>
    <text
       xml:space="preserve"
       style="font-size:2.46794796px;font-style:normal;font-weight:normal;fill:black;fill-opacity:1;stroke:none;stroke-width:1px;stroke-linecap:butt;stroke-linejoin:miter;stroke-opacity:1;font-family:Bitstream Vera Sans"
       x="541.78735"
       y="235.63844"
       id="text4960"
       transform="matrix(1.009308,-1.657377e-2,1.626512e-2,0.990511,0,0)"><tspan
         sodipodi:role="line"
         id="tspan4962"
         x="541.78735"
         y="235.63844"
         style="font-size:13.16306686px">    iso</tspan></text>
    <path
       transform="matrix(0.514553,0,0,0.530334,113.1393,76.67651)"
       d="M 509.99999 143.79076 A 38.57143 38.57143 0 1 1  432.85713,143.79076 A 38.57143 38.57143 0 1 1  509.99999 143.79076 z"
       sodipodi:ry="38.57143"
       sodipodi:rx="38.57143"
       sodipodi:cy="143.79076"
       sodipodi:cx="471.42856"
       id="path2573"
       style="fill:white;fill-opacity:1;fill-rule:nonzero;stroke:black;stroke-width:1.87877297;stroke-miterlimit:4;stroke-dasharray:none;stroke-opacity:1"
       sodipodi:type="arc" />
    <path
       transform="matrix(0.514553,0,0,0.530334,190.2821,145.2479)"
       d="M 509.99999 143.79076 A 38.57143 38.57143 0 1 1  432.85713,143.79076 A 38.57143 38.57143 0 1 1  509.99999 143.79076 z"
       sodipodi:ry="38.57143"
       sodipodi:rx="38.57143"
       sodipodi:cy="143.79076"
       sodipodi:cx="471.42856"
       id="path2575"
       style="fill:white;fill-opacity:1;fill-rule:nonzero;stroke:black;stroke-width:1.87877297;stroke-miterlimit:4;stroke-dasharray:none;stroke-opacity:1"
       sodipodi:type="arc" />
    <path
       transform="matrix(0.514553,0,0,0.530334,276.9965,56.67649)"
       d="M 509.99999 143.79076 A 38.57143 38.57143 0 1 1  432.85713,143.79076 A 38.57143 38.57143 0 1 1  509.99999 143.79076 z"
       sodipodi:ry="38.57143"
       sodipodi:rx="38.57143"
       sodipodi:cy="143.79076"
       sodipodi:cx="471.42856"
       id="path2577"
       style="fill:white;fill-opacity:1;fill-rule:nonzero;stroke:black;stroke-width:1.87877297;stroke-miterlimit:4;stroke-dasharray:none;stroke-opacity:1"
       sodipodi:type="arc" />
    <text
       xml:space="preserve"
       style="font-size:2.46792436px;font-style:normal;font-weight:normal;fill:black;fill-opacity:1;stroke:none;stroke-width:1px;stroke-linecap:butt;stroke-linejoin:miter;stroke-opacity:1;font-family:Bitstream Vera Sans"
       x="487.02374"
       y="147.3884"
       id="text4942"
       transform="matrix(1.009308,-1.657377e-2,1.626512e-2,0.990511,0,0)"><tspan
         sodipodi:role="line"
         id="tspan4944"
         x="487.02374"
         y="147.3884"
         style="font-size:13.16287804px">    cit</tspan></text>
    <text
       xml:space="preserve"
       style="font-size:2.46779132px;font-style:normal;font-weight:normal;fill:black;fill-opacity:1;stroke:none;stroke-width:1px;stroke-linecap:butt;stroke-linejoin:miter;stroke-opacity:1;font-family:Bitstream Vera Sans"
       x="442.95261"
       y="163.43224"
       id="text5050"
       transform="matrix(1.009308,-1.657377e-2,1.626512e-2,0.990511,0,0)"><tspan
         sodipodi:role="line"
         id="tspan5052"
         x="442.95261"
         y="163.43224"
         style="font-size:13.16181374px">coa</tspan></text>
    <text
       xml:space="preserve"
       style="font-size:2.46778941px;font-style:normal;font-weight:normal;fill:black;fill-opacity:1;stroke:none;stroke-width:1px;stroke-linecap:butt;stroke-linejoin:miter;stroke-opacity:1;font-family:Bitstream Vera Sans"
       x="337.25391"
       y="162.42415"
       id="text5046"
       transform="matrix(1.009308,-1.657377e-2,1.626512e-2,0.990511,0,0)"><tspan
         sodipodi:role="line"
         id="tspan5048"
         x="337.25391"
         y="162.42415"
         style="font-size:13.16179848px">aca</tspan></text>
    <text
       xml:space="preserve"
       style="font-size:2.46779013px;font-style:normal;font-weight:normal;fill:black;fill-opacity:1;stroke:none;stroke-width:1px;stroke-linecap:butt;stroke-linejoin:miter;stroke-opacity:1;font-family:Bitstream Vera Sans"
       x="415.40027"
       y="233.61757"
       id="text5036"
       transform="matrix(1.009308,-1.657377e-2,1.626512e-2,0.990511,0,0)"><tspan
         sodipodi:role="line"
         id="tspan5038"
         x="415.40027"
         y="233.61757"
         style="font-size:13.1618042px">gly</tspan></text>
  </g>
</svg>
