<?xml version="1.0" encoding="UTF-8" standalone="no"?>
<!DOCTYPE svg PUBLIC "-//W3C//DTD SVG 1.1//EN"
 "http://www.w3.org/Graphics/SVG/1.1/DTD/svg11.dtd">
<!-- Generated by graphviz version 2.30.1 (20140821.0912)
 -->
<!-- Title: G Pages: 1 -->
<svg width="930pt" height="446pt"
 viewBox="0.00 0.00 930.00 446.00" xmlns="http://www.w3.org/2000/svg" xmlns:xlink="http://www.w3.org/1999/xlink">
<g id="graph0" class="graph" transform="scale(1 1) rotate(0) translate(4 442)">
<title>G</title>
<polygon fill="white" stroke="white" points="-4,5 -4,-442 927,-442 927,5 -4,5"/>
<!-- Sulphate__PAPS -->
<g id="Sulphate__PAPS [CHEBI:17980]" class="node"><title>Sulphate__PAPS</title>
<ellipse fill="none" stroke="black" cx="233" cy="-53" rx="47.8641" ry="18"/>
<text text-anchor="middle" x="233" y="-50.5" font-family="Times,serif" font-size="10.00">Sulphate_PAPS</text>
</g>
<!-- R8_intermediate_r -->
<g id="node34" class="node"><title>R8_intermediate_r</title>
<ellipse fill="black" stroke="black" cx="353" cy="-105" rx="0.036" ry="0.036"/>
</g>
<!-- Sulphate__PAPS&#45;&gt;R8_intermediate_r -->
<g id="edge41" class="edge"><title>Sulphate__PAPS&#45;&gt;R8_intermediate_r</title>
<path fill="none" stroke="black" d="M264.695,-66.5266C298.565,-81.4525 348.746,-103.566 351.849,-104.933"/>
</g>
<!-- R8_intermediate_m -->
<g id="node36" class="node"><title>R8_intermediate_m</title>
<ellipse fill="black" stroke="black" cx="493" cy="-133" rx="0.036" ry="0.036"/>
</g>
<!-- Sulphate__PAPS&#45;&gt;R8_intermediate_m -->
<g id="edge45" class="edge"><title>Sulphate__PAPS&#45;&gt;R8_intermediate_m</title>
<path fill="none" stroke="black" d="M280.811,-54.0031C322.14,-56.6047 382.963,-64.7218 430,-89 449.83,-99.2351 447.002,-112.293 466,-124 476.085,-130.215 491.031,-132.835 491.955,-132.992"/>
</g>
<!-- R9_intermediate_r -->
<g id="node38" class="node"><title>R9_intermediate_r</title>
<ellipse fill="black" stroke="black" cx="353" cy="-39" rx="0.036" ry="0.036"/>
</g>
<!-- Sulphate__PAPS&#45;&gt;R9_intermediate_r -->
<g id="edge47" class="edge"><title>Sulphate__PAPS&#45;&gt;R9_intermediate_r</title>
<path fill="none" stroke="black" d="M278.611,-47.7072C310.982,-43.8665 349.508,-39.2957 351.884,-39.0137"/>
</g>
<!-- R9_intermediate_m -->
<g id="node40" class="node"><title>R9_intermediate_m</title>
<ellipse fill="black" stroke="black" cx="493" cy="-0" rx="0.036" ry="0.036"/>
</g>
<!-- Sulphate__PAPS&#45;&gt;R9_intermediate_m -->
<g id="edge50" class="edge"><title>Sulphate__PAPS&#45;&gt;R9_intermediate_m</title>
<path fill="none" stroke="black" d="M272.363,-42.8066C288.819,-38.5908 308.295,-33.8086 326,-30 398.151,-14.4793 489.108,-0.445153 491.933,-0.010376"/>
</g>
<!-- GSH -->
<g id="GSH [CHEBI:16856]" class="node"><title>GSH</title>
<ellipse fill="none" stroke="black" cx="583" cy="-186" rx="18" ry="18"/>
<text text-anchor="middle" x="583" y="-183.5" font-family="Times,serif" font-size="10.00">GSH</text>
</g>
<!-- R5_intermediate_r -->
<g id="node23" class="node"><title>R5_intermediate_r</title>
<ellipse fill="black" stroke="black" cx="647" cy="-225" rx="0.036" ry="0.036"/>
</g>
<!-- GSH&#45;&gt;R5_intermediate_r -->
<g id="edge26" class="edge"><title>GSH&#45;&gt;R5_intermediate_r</title>
<path fill="none" stroke="black" d="M598.693,-195.242C616.454,-206.415 644.2,-223.867 645.916,-224.947"/>
</g>
<!-- R5_intermediate_m -->
<g id="node25" class="node"><title>R5_intermediate_m</title>
<ellipse fill="black" stroke="black" cx="761" cy="-242" rx="0.036" ry="0.036"/>
</g>
<!-- GSH&#45;&gt;R5_intermediate_m -->
<g id="edge30" class="edge"><title>GSH&#45;&gt;R5_intermediate_m</title>
<path fill="none" stroke="black" d="M601.216,-187.381C624.078,-189.678 665.368,-195.451 698,-209 715.76,-216.374 716.775,-224.452 734,-233 744.269,-238.096 758.135,-241.547 759.828,-241.959"/>
</g>
<!-- R6_intermediate_r -->
<g id="node27" class="node"><title>R6_intermediate_r</title>
<ellipse fill="black" stroke="black" cx="647" cy="-121" rx="0.036" ry="0.036"/>
</g>
<!-- GSH&#45;&gt;R6_intermediate_r -->
<g id="edge32" class="edge"><title>GSH&#45;&gt;R6_intermediate_r</title>
<path fill="none" stroke="black" d="M595.954,-173.467C613.408,-155.169 644.012,-123.084 645.908,-121.097"/>
</g>
<!-- R6_intermediate_m -->
<g id="node29" class="node"><title>R6_intermediate_m</title>
<ellipse fill="black" stroke="black" cx="761" cy="-152" rx="0.036" ry="0.036"/>
</g>
<!-- GSH&#45;&gt;R6_intermediate_m -->
<g id="edge35" class="edge"><title>GSH&#45;&gt;R6_intermediate_m</title>
<path fill="none" stroke="black" d="M600.876,-182.74C644.239,-174.363 756.421,-152.691 759.916,-152.016"/>
</g>
<!-- NAPQI -->
<g id="NAPQI" class="node"><title>NAPQI</title>
<path fill="none" stroke="black" d="M598,-351C598,-351 568,-351 568,-351 562,-351 556,-345 556,-339 556,-339 556,-327 556,-327 556,-321 562,-315 568,-315 568,-315 598,-315 598,-315 604,-315 610,-321 610,-327 610,-327 610,-339 610,-339 610,-345 604,-351 598,-351"/>
<text text-anchor="middle" x="583" y="-330.5" font-family="Times,serif" font-size="10.00">NAPQI</text>
</g>
<!-- R2_intermediate_r -->
<g id="node11" class="node"><title>R2_intermediate_r</title>
<ellipse fill="black" stroke="black" cx="647" cy="-400" rx="0.036" ry="0.036"/>
</g>
<!-- NAPQI&#45;&gt;R2_intermediate_r -->
<g id="edge8" class="edge"><title>NAPQI&#45;&gt;R2_intermediate_r</title>
<path fill="none" stroke="black" d="M600.942,-351.308C618.725,-370.526 644.339,-398.205 645.923,-399.917"/>
</g>
<!-- R2_intermediate_m -->
<g id="node13" class="node"><title>R2_intermediate_m</title>
<ellipse fill="black" stroke="black" cx="761" cy="-385" rx="0.036" ry="0.036"/>
</g>
<!-- NAPQI&#45;&gt;R2_intermediate_m -->
<g id="edge12" class="edge"><title>NAPQI&#45;&gt;R2_intermediate_m</title>
<path fill="none" stroke="black" d="M610.349,-340.785C658.68,-355.065 756.87,-384.075 759.927,-384.978"/>
</g>
<!-- R4_intermediate_r -->
<g id="node19" class="node"><title>R4_intermediate_r</title>
<ellipse fill="black" stroke="black" cx="647" cy="-333" rx="0.036" ry="0.036"/>
</g>
<!-- NAPQI&#45;&gt;R4_intermediate_r -->
<g id="edge19" class="edge"><title>NAPQI&#45;&gt;R4_intermediate_r</title>
<path fill="none" stroke="black" d="M610.294,-333C626.664,-333 644.826,-333 645.946,-333"/>
</g>
<!-- R4_intermediate_m -->
<g id="node21" class="node"><title>R4_intermediate_m</title>
<ellipse fill="black" stroke="black" cx="761" cy="-306" rx="0.036" ry="0.036"/>
</g>
<!-- NAPQI&#45;&gt;R4_intermediate_m -->
<g id="edge23" class="edge"><title>NAPQI&#45;&gt;R4_intermediate_m</title>
<path fill="none" stroke="black" d="M610.302,-328.682C630.459,-325.399 658.971,-320.813 684,-317 716.686,-312.02 757.367,-306.366 759.878,-306.017"/>
</g>
<!-- NAPQI&#45;&gt;R5_intermediate_r -->
<g id="edge25" class="edge"><title>NAPQI&#45;&gt;R5_intermediate_r</title>
<path fill="none" stroke="black" d="M594.517,-314.679C611.654,-284.829 643.904,-228.652 645.903,-225.17"/>
</g>
<!-- NAPQI&#45;&gt;R5_intermediate_m -->
<g id="edge29" class="edge"><title>NAPQI&#45;&gt;R5_intermediate_m</title>
<path fill="none" stroke="black" d="M610.349,-319.376C658.68,-294.387 756.87,-243.618 759.927,-242.038"/>
</g>
<!-- Paracetamol_APAP -->
<g id="Paracetamol_APAP" class="node"><title>Paracetamol_APAP</title>
<ellipse fill="none" stroke="black" cx="233" cy="-267" rx="57.2008" ry="18"/>
<text text-anchor="middle" x="233" y="-264.5" font-family="Times,serif" font-size="10.00">Paracetamol_APAP</text>
</g>
<!-- reaction_1_intermediate_r -->
<g id="node7" class="node"><title>reaction_1_intermediate_r</title>
<ellipse fill="black" stroke="black" cx="353" cy="-334" rx="0.036" ry="0.036"/>
</g>
<!-- Paracetamol_APAP&#45;&gt;reaction_1_intermediate_r -->
<g id="edge2" class="edge"><title>Paracetamol_APAP&#45;&gt;reaction_1_intermediate_r</title>
<path fill="none" stroke="black" d="M261.666,-282.709C295.453,-301.893 348.554,-332.043 351.84,-333.909"/>
</g>
<!-- reaction_1_intermediate_m -->
<g id="node9" class="node"><title>reaction_1_intermediate_m</title>
<ellipse fill="black" stroke="black" cx="493" cy="-311" rx="0.036" ry="0.036"/>
</g>
<!-- Paracetamol_APAP&#45;&gt;reaction_1_intermediate_m -->
<g id="edge6" class="edge"><title>Paracetamol_APAP&#45;&gt;reaction_1_intermediate_m</title>
<path fill="none" stroke="black" d="M283.745,-275.484C357.545,-288.07 487.849,-310.292 491.903,-310.983"/>
</g>
<!-- R3_intermediate_r -->
<g id="node15" class="node"><title>R3_intermediate_r</title>
<ellipse fill="black" stroke="black" cx="353" cy="-267" rx="0.036" ry="0.036"/>
</g>
<!-- Paracetamol_APAP&#45;&gt;R3_intermediate_r -->
<g id="edge14" class="edge"><title>Paracetamol_APAP&#45;&gt;R3_intermediate_r</title>
<path fill="none" stroke="black" d="M290.235,-267C319.678,-267 350.04,-267 351.909,-267"/>
</g>
<!-- R3_intermediate_m -->
<g id="node17" class="node"><title>R3_intermediate_m</title>
<ellipse fill="black" stroke="black" cx="493" cy="-232" rx="0.036" ry="0.036"/>
</g>
<!-- Paracetamol_APAP&#45;&gt;R3_intermediate_m -->
<g id="edge17" class="edge"><title>Paracetamol_APAP&#45;&gt;R3_intermediate_m</title>
<path fill="none" stroke="black" d="M285.9,-259.959C360.063,-249.898 487.927,-232.553 491.905,-232.013"/>
</g>
<!-- Paracetamol_APAP&#45;&gt;R8_intermediate_r -->
<g id="edge40" class="edge"><title>Paracetamol_APAP&#45;&gt;R8_intermediate_r</title>
<path fill="none" stroke="black" d="M243.182,-249.284C258.192,-221.288 289.945,-165.906 326,-126 335.647,-115.323 351.003,-105.625 351.954,-105.029"/>
</g>
<!-- Paracetamol_APAP&#45;&gt;R8_intermediate_m -->
<g id="edge44" class="edge"><title>Paracetamol_APAP&#45;&gt;R8_intermediate_m</title>
<path fill="none" stroke="black" d="M243.763,-248.995C258.209,-224.263 287.743,-180.414 326,-159 390.145,-123.095 488.858,-132.684 491.927,-132.993"/>
</g>
<!-- Protein_adducts -->
<g id="Protein_adducts [CHEBI:36080]" class="node"><title>Protein_adducts</title>
<ellipse fill="none" stroke="black" cx="873" cy="-333" rx="48.7185" ry="18"/>
<text text-anchor="middle" x="873" y="-330.5" font-family="Times,serif" font-size="10.00">Protein_adducts</text>
</g>
<!-- reaction_1 -->
<g id="node6" class="node"><title>reaction_1</title>
<polygon fill="none" stroke="black" points="430,-344 416,-344 416,-330 430,-330 430,-344"/>
</g>
<!-- reaction_1_intermediate_p -->
<g id="node8" class="node"><title>reaction_1_intermediate_p</title>
<ellipse fill="black" stroke="black" cx="493" cy="-335" rx="0.036" ry="0.036"/>
</g>
<!-- reaction_1&#45;&gt;reaction_1_intermediate_p -->
<g id="edge3" class="edge"><title>reaction_1&#45;&gt;reaction_1_intermediate_p</title>
<path fill="none" stroke="black" d="M430.275,-336.815C446.583,-336.336 489.222,-335.082 491.871,-335.004"/>
</g>
<!-- reaction_1&#45;&gt;reaction_1_intermediate_m -->
<g id="edge5" class="edge"><title>reaction_1&#45;&gt;reaction_1_intermediate_m</title>
<path fill="none" stroke="black" d="M430.275,-334.601C446.583,-328.365 489.222,-312.062 491.871,-311.049"/>
</g>
<!-- reaction_1_intermediate_r&#45;&gt;reaction_1 -->
<g id="edge1" class="edge"><title>reaction_1_intermediate_r&#45;&gt;reaction_1</title>
<path fill="none" stroke="black" d="M354.049,-334.002C355.722,-334.076 399.535,-336.009 415.906,-336.731"/>
</g>
<!-- reaction_1_intermediate_p&#45;&gt;NAPQI -->
<g id="edge4" class="edge"><title>reaction_1_intermediate_p&#45;&gt;NAPQI</title>
<path fill="none" stroke="black" d="M494.064,-334.999C495.533,-334.965 522.103,-334.361 545.654,-333.826"/>
<polygon fill="black" stroke="black" points="545.903,-337.321 555.82,-333.595 545.744,-330.323 545.903,-337.321"/>
</g>
<!-- R2 -->
<g id="node10" class="node"><title>R2</title>
<polygon fill="none" stroke="black" points="698,-410 684,-410 684,-396 698,-396 698,-410"/>
</g>
<!-- R2_intermediate_p -->
<g id="node12" class="node"><title>R2_intermediate_p</title>
<ellipse fill="black" stroke="black" cx="761" cy="-420" rx="0.036" ry="0.036"/>
</g>
<!-- R2&#45;&gt;R2_intermediate_p -->
<g id="edge9" class="edge"><title>R2&#45;&gt;R2_intermediate_p</title>
<path fill="none" stroke="black" d="M698.275,-404.569C714.583,-408.646 757.222,-419.305 759.871,-419.968"/>
</g>
<!-- R2&#45;&gt;R2_intermediate_m -->
<g id="edge11" class="edge"><title>R2&#45;&gt;R2_intermediate_m</title>
<path fill="none" stroke="black" d="M698.275,-401.339C714.583,-397.022 757.222,-385.735 759.871,-385.034"/>
</g>
<!-- R2_intermediate_r&#45;&gt;R2 -->
<g id="edge7" class="edge"><title>R2_intermediate_r&#45;&gt;R2</title>
<path fill="none" stroke="black" d="M648.12,-400.009C649.968,-400.141 672.602,-401.757 683.803,-402.557"/>
</g>
<!-- R2_intermediate_p&#45;&gt;Paracetamol_APAP -->
<g id="edge10" class="edge"><title>R2_intermediate_p&#45;&gt;Paracetamol_APAP</title>
<path fill="none" stroke="black" d="M759.955,-420.013C758.078,-420.558 697.629,-438 648,-438 422,-438 422,-438 422,-438 337.412,-438 274.08,-342.094 247.608,-293.93"/>
<polygon fill="black" stroke="black" points="250.618,-292.138 242.809,-284.977 244.448,-295.444 250.618,-292.138"/>
</g>
<!-- R3 -->
<g id="node14" class="node"><title>R3</title>
<polygon fill="none" stroke="black" points="430,-274 416,-274 416,-260 430,-260 430,-274"/>
</g>
<!-- R3_empty -->
<g id="node16" class="node"><title>R3_empty</title>
<text text-anchor="middle" x="493" y="-264.5" font-family="Times,serif" font-size="15.00" fill="blue">Ø</text>
</g>
<!-- R3&#45;&gt;R3_empty -->
<g id="edge15" class="edge"><title>R3&#45;&gt;R3_empty</title>
<path fill="none" stroke="black" d="M430.275,-267.092C436.278,-267.181 445.849,-267.321 455.68,-267.466"/>
<polygon fill="black" stroke="black" points="455.829,-270.968 465.88,-267.616 455.932,-263.969 455.829,-270.968"/>
</g>
<!-- R3&#45;&gt;R3_intermediate_m -->
<g id="edge16" class="edge"><title>R3&#45;&gt;R3_intermediate_m</title>
<path fill="none" stroke="black" d="M430.019,-262.678C437.964,-257.116 452.524,-247.407 466,-241 476.354,-236.078 490.146,-232.475 491.829,-232.043"/>
</g>
<!-- R3_intermediate_r&#45;&gt;R3 -->
<g id="edge13" class="edge"><title>R3_intermediate_r&#45;&gt;R3</title>
<path fill="none" stroke="black" d="M354.049,-267C355.722,-267 399.535,-267 415.906,-267"/>
</g>
<!-- R4 -->
<g id="node18" class="node"><title>R4</title>
<polygon fill="none" stroke="black" points="698,-340 684,-340 684,-326 698,-326 698,-340"/>
</g>
<!-- R4_intermediate_p -->
<g id="node20" class="node"><title>R4_intermediate_p</title>
<ellipse fill="black" stroke="black" cx="761" cy="-333" rx="0.036" ry="0.036"/>
</g>
<!-- R4&#45;&gt;R4_intermediate_p -->
<g id="edge20" class="edge"><title>R4&#45;&gt;R4_intermediate_p</title>
<path fill="none" stroke="black" d="M698.275,-333C714.583,-333 757.222,-333 759.871,-333"/>
</g>
<!-- R4&#45;&gt;R4_intermediate_m -->
<g id="edge22" class="edge"><title>R4&#45;&gt;R4_intermediate_m</title>
<path fill="none" stroke="black" d="M698.275,-330.508C714.583,-324.033 757.222,-307.103 759.871,-306.051"/>
</g>
<!-- R4_intermediate_r&#45;&gt;R4 -->
<g id="edge18" class="edge"><title>R4_intermediate_r&#45;&gt;R4</title>
<path fill="none" stroke="black" d="M648.12,-333C649.968,-333 672.602,-333 683.803,-333"/>
</g>
<!-- R4_intermediate_p&#45;&gt;Protein_adducts -->
<g id="edge21" class="edge"><title>R4_intermediate_p&#45;&gt;Protein_adducts</title>
<path fill="none" stroke="black" d="M762.08,-333C763.653,-333 788.275,-333 813.815,-333"/>
<polygon fill="black" stroke="black" points="813.982,-336.5 823.982,-333 813.982,-329.5 813.982,-336.5"/>
</g>
<!-- R5 -->
<g id="node22" class="node"><title>R5</title>
<polygon fill="none" stroke="black" points="698,-232 684,-232 684,-218 698,-218 698,-232"/>
</g>
<!-- R5_empty -->
<g id="node24" class="node"><title>R5_empty</title>
<text text-anchor="middle" x="761" y="-202.5" font-family="Times,serif" font-size="15.00" fill="blue">Ø</text>
</g>
<!-- R5&#45;&gt;R5_empty -->
<g id="edge27" class="edge"><title>R5&#45;&gt;R5_empty</title>
<path fill="none" stroke="black" d="M698.275,-223.247C704.342,-221.552 714.051,-218.839 723.99,-216.062"/>
<polygon fill="black" stroke="black" points="725.19,-219.36 733.88,-213.298 723.307,-212.619 725.19,-219.36"/>
</g>
<!-- R5&#45;&gt;R5_intermediate_m -->
<g id="edge28" class="edge"><title>R5&#45;&gt;R5_intermediate_m</title>
<path fill="none" stroke="black" d="M698.275,-226.569C714.583,-230.646 757.222,-241.305 759.871,-241.968"/>
</g>
<!-- R5_intermediate_r&#45;&gt;R5 -->
<g id="edge24" class="edge"><title>R5_intermediate_r&#45;&gt;R5</title>
<path fill="none" stroke="black" d="M648.12,-225C649.968,-225 672.602,-225 683.803,-225"/>
</g>
<!-- R6 -->
<g id="node26" class="node"><title>R6</title>
<polygon fill="none" stroke="black" points="698,-124 684,-124 684,-110 698,-110 698,-124"/>
</g>
<!-- R6_empty -->
<g id="node28" class="node"><title>R6_empty</title>
<text text-anchor="middle" x="761" y="-112.5" font-family="Times,serif" font-size="15.00" fill="blue">Ø</text>
</g>
<!-- R6&#45;&gt;R6_empty -->
<g id="edge33" class="edge"><title>R6&#45;&gt;R6_empty</title>
<path fill="none" stroke="black" d="M698.275,-116.908C704.278,-116.819 713.849,-116.679 723.68,-116.534"/>
<polygon fill="black" stroke="black" points="723.932,-120.031 733.88,-116.384 723.829,-113.032 723.932,-120.031"/>
</g>
<!-- R6&#45;&gt;R6_intermediate_m -->
<g id="edge34" class="edge"><title>R6&#45;&gt;R6_intermediate_m</title>
<path fill="none" stroke="black" d="M698.019,-121.322C705.964,-126.884 720.524,-136.593 734,-143 744.354,-147.922 758.146,-151.525 759.829,-151.957"/>
</g>
<!-- R6_intermediate_r&#45;&gt;R6 -->
<g id="edge31" class="edge"><title>R6_intermediate_r&#45;&gt;R6</title>
<path fill="none" stroke="black" d="M648.12,-120.989C649.968,-120.813 672.602,-118.657 683.803,-117.59"/>
</g>
<!-- R7 -->
<g id="node30" class="node"><title>R7</title>
<polygon fill="none" stroke="black" points="430,-193 416,-193 416,-179 430,-179 430,-193"/>
</g>
<!-- R7_intermediate_p -->
<g id="node32" class="node"><title>R7_intermediate_p</title>
<ellipse fill="black" stroke="black" cx="493" cy="-186" rx="0.036" ry="0.036"/>
</g>
<!-- R7&#45;&gt;R7_intermediate_p -->
<g id="edge37" class="edge"><title>R7&#45;&gt;R7_intermediate_p</title>
<path fill="none" stroke="black" d="M430.275,-186C446.583,-186 489.222,-186 491.871,-186"/>
</g>
<!-- R7_empty -->
<g id="node31" class="node"><title>R7_empty</title>
<text text-anchor="middle" x="353" y="-182.5" font-family="Times,serif" font-size="15.00" fill="blue">Ø</text>
</g>
<!-- R7_empty&#45;&gt;R7 -->
<g id="edge36" class="edge"><title>R7_empty&#45;&gt;R7</title>
<path fill="none" stroke="black" d="M380.096,-186C393.13,-186 407.805,-186 415.868,-186"/>
</g>
<!-- R7_intermediate_p&#45;&gt;GSH -->
<g id="edge38" class="edge"><title>R7_intermediate_p&#45;&gt;GSH</title>
<path fill="none" stroke="black" d="M494.064,-186C495.721,-186 529.346,-186 554.524,-186"/>
<polygon fill="black" stroke="black" points="554.68,-189.5 564.68,-186 554.68,-182.5 554.68,-189.5"/>
</g>
<!-- R8 -->
<g id="node33" class="node"><title>R8</title>
<polygon fill="none" stroke="black" points="430,-112 416,-112 416,-98 430,-98 430,-112"/>
</g>
<!-- R8_empty -->
<g id="node35" class="node"><title>R8_empty</title>
<text text-anchor="middle" x="493" y="-93.5" font-family="Times,serif" font-size="15.00" fill="blue">Ø</text>
</g>
<!-- R8&#45;&gt;R8_empty -->
<g id="edge42" class="edge"><title>R8&#45;&gt;R8_empty</title>
<path fill="none" stroke="black" d="M430.275,-104.262C436.278,-103.555 445.849,-102.43 455.68,-101.273"/>
<polygon fill="black" stroke="black" points="456.357,-104.718 465.88,-100.073 455.539,-97.7655 456.357,-104.718"/>
</g>
<!-- R8&#45;&gt;R8_intermediate_m -->
<g id="edge43" class="edge"><title>R8&#45;&gt;R8_intermediate_m</title>
<path fill="none" stroke="black" d="M430.185,-108.013C438.309,-111.921 453.063,-118.847 466,-124 476.65,-128.242 490.183,-132.44 491.833,-132.949"/>
</g>
<!-- R8_intermediate_r&#45;&gt;R8 -->
<g id="edge39" class="edge"><title>R8_intermediate_r&#45;&gt;R8</title>
<path fill="none" stroke="black" d="M354.049,-105C355.722,-105 399.535,-105 415.906,-105"/>
</g>
<!-- R9 -->
<g id="node37" class="node"><title>R9</title>
<polygon fill="none" stroke="black" points="430,-42 416,-42 416,-28 430,-28 430,-42"/>
</g>
<!-- R9_empty -->
<g id="node39" class="node"><title>R9_empty</title>
<text text-anchor="middle" x="493" y="-32.5" font-family="Times,serif" font-size="15.00" fill="blue">Ø</text>
</g>
<!-- R9&#45;&gt;R9_empty -->
<g id="edge48" class="edge"><title>R9&#45;&gt;R9_empty</title>
<path fill="none" stroke="black" d="M430.275,-35.0923C436.278,-35.1806 445.849,-35.3213 455.68,-35.4659"/>
<polygon fill="black" stroke="black" points="455.829,-38.9684 465.88,-35.6159 455.932,-31.9691 455.829,-38.9684"/>
</g>
<!-- R9&#45;&gt;R9_intermediate_m -->
<g id="edge49" class="edge"><title>R9&#45;&gt;R9_intermediate_m</title>
<path fill="none" stroke="black" d="M430.019,-30.6781C437.964,-25.1157 452.524,-15.4067 466,-9 476.354,-4.0779 490.146,-0.474581 491.829,-0.0433933"/>
</g>
<!-- R9_intermediate_r&#45;&gt;R9 -->
<g id="edge46" class="edge"><title>R9_intermediate_r&#45;&gt;R9</title>
<path fill="none" stroke="black" d="M354.049,-38.9971C355.722,-38.8987 399.535,-36.3215 415.906,-35.3585"/>
</g>
<!-- R10 -->
<g id="node41" class="node"><title>R10</title>
<polygon fill="none" stroke="black" points="104,-60 90,-60 90,-46 104,-46 104,-60"/>
</g>
<!-- R10_intermediate_p -->
<g id="node43" class="node"><title>R10_intermediate_p</title>
<ellipse fill="black" stroke="black" cx="140" cy="-53" rx="0.036" ry="0.036"/>
</g>
<!-- R10&#45;&gt;R10_intermediate_p -->
<g id="edge52" class="edge"><title>R10&#45;&gt;R10_intermediate_p</title>
<path fill="none" stroke="black" d="M104.05,-53C115.098,-53 137.54,-53 138.932,-53"/>
</g>
<!-- R10_empty -->
<g id="node42" class="node"><title>R10_empty</title>
<text text-anchor="middle" x="27" y="-49.5" font-family="Times,serif" font-size="15.00" fill="blue">Ø</text>
</g>
<!-- R10_empty&#45;&gt;R10 -->
<g id="edge51" class="edge"><title>R10_empty&#45;&gt;R10</title>
<path fill="none" stroke="black" d="M54.0961,-53C67.13,-53 81.8045,-53 89.8681,-53"/>
</g>
<!-- R10_intermediate_p&#45;&gt;Sulphate__PAPS -->
<g id="edge53" class="edge"><title>R10_intermediate_p&#45;&gt;Sulphate__PAPS</title>
<path fill="none" stroke="black" d="M141.066,-53C142.188,-53 157.462,-53 175.183,-53"/>
<polygon fill="black" stroke="black" points="175.205,-56.5001 185.205,-53 175.205,-49.5001 175.205,-56.5001"/>
</g>
</g>
</svg>
