<?xml version="1.0" encoding="utf-8"?>
<!-- Generator: Adobe Illustrator 14.0.0, SVG Export Plug-In . SVG Version: 6.00 Build 43363)  -->
<!DOCTYPE svg PUBLIC "-//W3C//DTD SVG 1.1//EN" "http://www.w3.org/Graphics/SVG/1.1/DTD/svg11.dtd">
<svg version="1.1" id="Layer_1" xmlns="http://www.w3.org/2000/svg" xmlns:xlink="http://www.w3.org/1999/xlink" x="0px" y="0px"
	 width="312px" height="525px" viewBox="0 0 312 525" enable-background="new 0 0 312 525" xml:space="preserve">
<g id="Guides_For_Artboard">
</g>
<g id="Layer_1_1_">
	<g>
		<g>
			<polyline fill="#4A6ED6" points="203.237,47.562 203.554,47.969 203.806,48.286 204.019,48.62 204.228,48.961 204.448,49.216 
				204.734,49.492 205.137,49.815 205.589,50.102 206.069,50.344 206.385,50.493 206.788,50.602 207.275,50.738 207.793,50.79 
				208.229,50.828 208.626,50.828 209.045,50.773 209.354,50.662 209.599,50.499 209.784,50.201 209.854,49.795 209.884,49.318 
				209.822,48.91 209.751,48.528 209.733,48.126 209.592,47.714 209.409,47.364 209.165,47.011 208.838,46.713 208.522,46.458 
				208.199,46.201 207.868,45.862 207.659,45.544 207.227,45.294 206.955,45.065 206.569,44.854 206.253,44.607 			"/>
			<path fill="none" stroke="#000000" d="M180.454,54.749c0.453,1.959,1.997,3.921,3.047,4.879"/>
			<path fill="#FFFFFF" stroke="#000000" d="M185.052,56.125c-1.889-0.093-4.9,0.834-6.506,1.731
				c-0.973,0.54-5.674,2.523-4.185,4.171c0.812,0.897,2.041-0.647,2.603-1.167c0.989-0.918,1.772-1.253,3.102-1.605
				c2.315-0.607,4.389-0.616,6.772-0.691"/>
			<path fill="none" stroke="#000000" d="M163.753,57.634c0.328-0.949,0.594-1.989,0.359-2.991c-0.772,0.55-0.589,1.79-0.983,2.56
				c-0.446,0.876-1.54,1.512-2.431,1.836c-1.849,0.671-4.504-0.192-3.967-2.597c0.531-2.377,3.06-3.45,4.48-5.234
				c1.653-2.074,2.655-4.67,3.462-7.174c1.205-3.743,1.559-8.872-2.348-11.192c-1.932-1.147-3.77-0.311-5.667,0.448
				c-2.389,0.956-4.675,0.598-7.171,0.703"/>
			<path fill="none" stroke="#000000" d="M191.423,24.168c-3.401-0.262-6.727-0.365-10.136-0.271
				c-2.825,0.076-6.784,1.138-8.846,3.112c-1.822,1.755-5.354,4.605-4.354,7.471c0.221,0.633,1.265,0.863,1.842,0.505
				c0.723-0.447,1.18-1.109,1.692-1.768c0.992-1.291,1.995-2.526,3.427-3.388c4.188-2.502,9.94-2.939,14.674-1.934
				c2.441,0.521,4.563,1.481,6.743,2.645c2.177,1.156,4.5,1.872,6.368,3.503"/>
			<path fill="none" stroke="#000000" d="M220.726,40.889c-2.09,2.299-5.233,3.377-8.418,3.508
				c-3.344,0.126-5.979-2.555-8.414-4.415c-0.903-0.694-2.081-3.01-3.44-2.014c-0.739,0.537-0.357,0.923,0.261,1.371
				c0.648,0.465,1.164,1.18,1.725,1.743c1.929,1.959,4.565,4.733,7.455,5.328c2.24,0.458,4.65,0.636,6.938,0.351
				c1.031-0.131,1.957-1.03,2.783-1.569c0.979-0.62,1.98-1.189,2.938-1.805"/>
			<path fill="#C44D3E" stroke="#000000" d="M201.116,37.703c-3.214-5.135-10.248-8.662-16.396-8.649
				c-1.512,0-3.174,0.026-4.641,0.375c-1.637,0.397-3.02,1.219-4.446,2.081c-1.099,0.667-2.491,2.559-2.491,4.013
				c0,1.811-0.017,2.05,0.958,3.551c2.423,3.75,8.515,3.26,12.425,3.563c2.199,0.167,4.121,0.65,6.226,1.228
				c2.105,0.569,4.426,0.321,6.539-0.107"/>
			<path fill="none" stroke="#000000" d="M180.841,51.723c0.365,0.896,0.577,1.712,0.11,2.608c-0.322,0.614-1.7,1.533-2.379,1.752
				c-1.718,0.521-3.911-0.897-5.042-2.023"/>
			<path fill="#FFFFFF" stroke="#000000" d="M183.778,33.615c-1.576-0.071-3.295,0.203-3.955,1.779
				c-0.587,1.403,2.085,2.341,3.079,2.309c1.128-0.035,3.986-0.041,4.091-1.672C187.115,34.349,185.303,33.683,183.778,33.615z"/>
			<path fill="none" stroke="#000000" d="M208.823,50.816c0.263,0.429,0.396,1.096,0.386,1.596c-0.012,0.312-0.069,0.562-0.18,0.843
				c-0.152,0.397-0.119,0.387,0.18,0.429c0.33,0.052,0.646,0.346,0.717,0.533c0.132,0.322,0.068,0.406,0.197,0.739
				c0.181,0.438,0.166,1.127,0.113,1.606c-0.313,2.669-2.458,3.578-4.576,4.923"/>
			<path fill="none" stroke="#000000" d="M250.562,90.912c2.521,0.688,5.775,1.534,7.983,2.94"/>
			<path fill="none" stroke="#000000" d="M251.302,85.552c1.305,0.167,2.764,0.23,4.047,0.564c1.283,0.323,3.146,1.168,4.352,1.689"
				/>
			<path fill="none" stroke="#000000" d="M259.069,85.541c-2.438-1.617-5.438-2.428-8.359-2.742"/>
			<path fill="none" stroke="#000000" d="M257.297,81.714c-1.862-1.48-4.354-2.271-6.734-2.377"/>
			<path fill="none" stroke="#000000" d="M248.786,76.354c1.424-0.082,5.691,0.688,6.799,1.721"/>
			<path fill="none" stroke="#000000" d="M247.98,73.394c1.667,0,3.36-0.105,5.211,0.438"/>
			<path fill="none" stroke="#000000" d="M251.224,71.058c-1.385-0.49-2.446-0.564-3.907-0.417"/>
			<path fill="none" stroke="#000000" d="M247.95,66.678c-0.915,0-2.241-0.262-3.036,0.25"/>
			<path fill="none" stroke="#000000" d="M249.58,69.055c-0.935-0.219-2.392-0.271-3.295,0.104"/>
			<path fill="none" stroke="#000000" d="M259.028,91.956c-2.068-1.565-4.431-2.275-6.87-2.983"/>
			<g>
				<path fill="none" stroke="#000000" d="M179.067,9.724c3.019,1.121,5.968,2.315,8.944,3.524c1.573,0.643,3.005,1.596,4.575,2.207
					c1.544,0.609,3.253,1.026,4.853,1.511c3.06,0.924,6.226,2.486,8.947,4.114c1.447,0.875,2.811,1.829,4.148,2.847
					c1.17,0.88,2.824,1.737,3.773,2.808c2.144,2.435,4.022,5.176,4.719,8.361c0.6,2.759,1.699,7.396-2.219,8.229
					c-3.537,0.75-6.615,0.238-9.732-1.575c-1.171-0.683-2.09-2.577-2.605-3.753c-0.594-1.359-0.884-2.959-1.764-4.184
					c-1.893-2.633-4.572-5.016-7.045-7.158c-2.421-2.086-5.767-2.993-8.685-4.307c-1.522-0.688-3.02-1.274-4.435-2.149
					c-0.687-0.422-1.305-0.949-1.939-1.438c-0.606-0.468-1.504-0.699-2.209-1c-2.831-1.215-5.975-2.368-9.072-2.734
					c-3.438-0.405-6.761-0.595-10.204-0.15c-3.188,0.406-6.442,2.074-8.782,4.139c-1.065,0.945-2.11,2.296-2.215,3.724
					c-0.103,1.424-0.332,3.316,0.623,4.547c0.928,1.199,1.828,2.551,3.301,3.138c1.562,0.625,3.087,1.018,4.806,1.018
					c3.339,0,6.953-0.048,8.395,3.33c0.284,0.651,0.689,1.274,1.039,1.895c0.354,0.64,1.415,0.734,1.979,1.088
					c1.129,0.703,2.207,2.748,1.168,3.932c-0.395,0.448-1.413,0.688-1.982,0.754c-1.016,0.111-1.354,0.049-1.674,1.023
					c-0.506,1.556-1.115,3.092-1.688,4.626c-0.549,1.475-1.343,2.73-2.422,3.905c-0.312,0.334-1.283,1.24-0.209,1.168
					c0.582-0.055,1.586-0.97,2.022-1.315c0.647-0.521,1.421-1.188,1.753-1.946c0.168-0.375,0.658-0.283,0.658,0.126
					c0,0.434-0.033,0.886-0.136,1.318c-0.203,0.855-0.681,2.087-0.42,2.941c0.284,0.96-0.125,1.855-0.555,2.69
					c1-0.959,2.146-2.409,3.399-3.044c1.453-0.731,3.146-0.438,4.636-1.021c1.502-0.563,2.966-1.294,4.232-2.259
					c1.122-0.844,2.166-2.237,3.688-2.357c3.148-0.238,6.345,0.131,9.511,0.131c3.365,0,6.821,1.542,8.927,4.068
					c0.49,0.583,0.721,1.292,1.122,1.939c0.439,0.709,0.945,1.336,1.332,2.085c0.759,1.449,1.09,3.025,1.427,4.608
					c0.625,2.941,0.728,6.111,0.728,9.114c0,6.601-0.493,13.067-1.206,19.628c-0.479,4.451-1.397,8.863-2.112,13.284
					c-0.68,4.192-2.208,8.299-1.946,12.598"/>
				<path fill="none" stroke="#000000" d="M190.98,115.647c0.01-2.662-0.809-5.286-1.571-7.807
					c-0.806-2.664-1.427-5.381-2.059-8.091c-0.675-2.893-3.519-9.631,0.858-11.13c-0.727-0.09-1.687-0.331-2.421-0.193
					c-0.211,0.04-0.425-0.038-0.249,0.143c0.441,0.45,2.154,0.168,2.67,0.05c-4.804-0.589-8.491-4.785-10.333-9.011
					c-1.733-3.978-3.087-9.04-1.904-13.342c0.706-2.571,2.552-4.698,4.946-5.852c1.349-0.65,2.798-0.859,4.284-0.75
					c0.941,0.069,2.949,0.983,3.729,0.183c-0.842-0.661-1.875-1.046-2.609-1.845c-1.457-1.465-1.734-3.141-2.57-4.816
					c-1.113-1.955-3.896-1.675-5.846-1.117c-3.62,0.558-6.125,3.071-9.745,3.91c-1.113,0.279-1.949,1.116-2.834,2.071"/>
				<path fill="none" stroke="#000000" d="M203.948,102.854c-1.502-0.051-0.378,5.025-0.355,6.017
					c0.047,2.295,0.026,4.548-0.255,6.832"/>
				<path fill="none" stroke="#000000" d="M193.028,32.552c1.296,1.094,2.688,1.986,3.812,3.264c1.132,1.292,1.902,2.8,2.525,4.374
					c0.358,0.902-0.007,1.132-0.239,1.919c-0.257,0.838,0.146,1.951,0.745,2.519c0.419,0.412,1.584,0.125,2.148,0.376
					c0.887,0.395,1.519,0.713,2.034,1.517c-1.301-0.834-2.535-1.743-4.23-1.143c-1.737,0.611-2.45,1.892-1.757,3.619
					c0.255,0.656,0.804,1.058,1.222,1.616c0.568,0.767,1.061,1.548,1.558,2.353c0.81,1.323,1.486,2.785,2.105,4.202
					c1.295,2.981,1.109,5.892,1.436,9.05c0.327,3.182,1.547,6.331,3.22,9.095c0.567,0.937,1.312,1.929,2.308,2.49
					c0.627,0.345,1.226,0.668,1.9,0.929c0.563,0.23,1.206,0.271,1.659,0.71c-0.456,0.354-1.603,0.417-2.188,0.604
					c-0.625,0.198-1.363,0.917-1.712,1.458c-0.85,1.295-2.056,2.558-2.576,3.997c-0.579,1.625-1.009,3.201-1.25,4.91
					c-0.207,1.451-0.664,2.881-0.871,4.307c-0.229,1.637-0.493,3.266-0.787,4.891c-0.126,0.69-0.277,1.397-0.235,2.085
					c0.04,0.711,0.174,2.026,0.864,0.898c0.678-1.105,0.916-3.003,1.042-4.254c0.161-1.625,0.438-3.233,0.629-4.859
					c0.252-2.106,0.234-4.13,1.072-6.132c0.895-2.147,1.971-4.046,3.905-5.463c-0.803,1.073-2.115,2.316-2.257,3.691
					c-0.033,0.271,0.064,0.543,0.017,0.813c-0.042,0.239-0.586,0.417-0.807,0.604c-0.373,0.314-0.989,1.272-1.108,1.732
					c-0.157,0.615,0.142,1.271,0.055,1.857c-0.118,0.875-0.5,1.313-0.022,2.158c0.313,0.554,0.783,1.408,1.464,1.511
					c0.741,0.126,1.582,0.25,1.391-0.751c0.019,1.461,2.051,0.365,2.483-0.229c0.689-0.959,0.439-1.887,0.119-2.898
					c1.209,0.259,1.246-1.19,1.474-2.045c0.263-1.041,0.309-1.898-0.199-2.836c0.334,0.409,0.539,0.938,1.157,0.687
					c0.15-0.06,0.175-0.417,0.341-0.52c0.259-0.167,0.53-0.335,0.781-0.513c0.968-0.636,1.514-1.239,2.099-2.198
					c-0.173,0.812-0.37,1.252-1.065,1.792c-0.399,0.334-1.436,0.762-1.674,1.211c-0.394,0.751-0.903,1.208-1.164,2.086
					c-0.283,0.945,0.532,0.572,1.076,0.426c0.131-0.032,0.684-0.606,0.716-0.052c0.014,0.199-0.673,0.396-0.802,0.46
					c-0.316,0.167-0.722,0.111-1.026,0.333c-0.366,0.271-0.238,0.477-0.438,0.854c-0.206,0.374-0.953,1.334-0.206,1.647
					c0.73,0.312,1.213,0,1.919-0.062c-0.119,0.457-0.717,0.583-1.188,0.624c-0.783,0.083-0.723,0.126-1.194,0.71
					c-0.319,0.396-0.724,0.708-0.98,1.148c-0.303,0.531,0.506,0.667,0.594,1.084c-0.961-0.022-2.044-0.897-1.108,0.625
					c0.516,0.854,0.703,2.315,1.907,2.438c0.861,0.084,0.916,0.127,0.721,0.94c-0.113,0.5,0.195,1.126,0.751,1.354
					c1.621,0.647,1.771-1.251,2.883-1.271c0.086,0.449-0.4,0.625-0.523,1.145c-0.118,0.525,0.109,1.024,0.361,1.462
					c0.196,0.346,1.164,0.187,1.513,0.167c0.403-0.043,1.022,0.616,1.393,0.814c0.619,0.311,2.677,0.112,2.96-0.667
					c0.349-0.941-1.177-1.784-0.989-2.503c1.415,0.5,1.316-2.565,1.206-3.265c-0.217-1.438-1.206-2.408-2.654-2.574
					c0.022-0.043,0.042-0.105,0.065-0.158c1.699,0.574,0.838-2.292,1.717-2.555c0.221,0.989-0.672,1.961-0.086,2.932
					c0.523,0.865,1.045,2.45,2.35,1.802c0.023,0.105,0.046,0.21,0.066,0.314c-1.336-0.022-0.708,1.169-0.979,1.825
					c-0.369,0.929-0.849,1.783-0.567,2.804c0.22,0.751,1.297,1.668,2.111,1.804c1.384,0.219,1.646-0.457,1.646-1.656
					c0.086,0.958,0.055,1.688,1.281,1.25c1.054-0.377,1.906-0.584,2.449-1.565c0.479-0.834,0.532-1.708,0.532-2.649
					c0-0.854-1.73-1.053-1.131-1.813c0.522-0.667,0.664-1.647,0.293-2.44c-0.172-0.376-0.271-0.636-0.718-0.636
					c-0.739,0-0.088-0.51,0.065-0.845c0.414-0.98,0.021-1.814-0.523-2.648c-0.608-0.939-1.305-0.898-2.143-1.397
					c0.358-0.262,0.674-0.271,0.77-0.731c0.068-0.291-0.235-0.918-0.303-1.188c-0.194-0.647-0.326-1.751-0.085-2.376
					c0.388,0.104,0.403,1.478,0.563,1.919c0.09,0.208,0.394,0.488,0.373,0.686c-0.048,0.347-0.091,0.708-0.048,1.064
					c0.058,0.458,0.567,1.586,1.168,1.586c0.586,0,0.746-1.418,0.835-1.794c0.394,0.302-0.237,1.543,0.762,1.053
					c-0.4,0.312-0.937,0.333-1.11,0.793c-0.139,0.365,0.058,0.927,0.144,1.303c0.25,1.042,0.448,2.233,1.859,1.939
					c-1.437,0.667-0.261,1.576-0.521,2.629c-0.131,0.541-0.077,1.125,0.217,1.625c0.282,0.448,0.957,0.48,0.86,1.001
					c-0.034,0.146-0.795,0.21-0.707,0.878c0.062,0.529,0.188,1.167,0.804,1.394c0.46,0.159,1.109,0.46,1.61,0.23
					c0.716-0.343,0.608-0.667,0.894-1.335c0.457,0.23,1.089,0.48,1.609,0.313c0.557-0.166,0.892-0.865,1.481-0.98
					c0.926-0.167,2.914-0.772,2.37-1.909c-0.064-0.157-0.524-0.575-0.524-0.657c-0.02-0.271,0.274-0.562,0.396-0.188
					c0.172,0.627,0.688,1.084,1.372,1.084c0.606,0,1.119-0.437,1.585-0.791c0.741-0.574,0.414-1.024-0.085-1.699
					c0.696,0.551,1.521,1.073,2.152,0.093c0.285-0.417,0.294-0.918,0.608-1.335c0.239-0.333,0.655-0.479,0.852-0.855
					c0.446-0.791,0.607-1.731-0.312-2.292c-1.319-0.793-1.361,0.843-2.189,0.937c0-1.187-0.262-1.878-1.611-1.648
					c-0.251,0.043-0.346,0.271-0.631,0.271c-0.436,0-0.01-0.394-0.368-0.542c-0.439-0.188-1.001,0.188-1.438,0.207
					c-0.021-1.001-1.113-3.544-2.548-2.271c0.566-1.656-2.046-0.886-2.991-1.751c0.643-0.302,1.229,0.386,1.939,0.271
					c0.803-0.145,0.989-0.896,1.664-1.125c-0.046,0.667-0.471,1.616,0.389,2.023c1.045,0.499,1.025-1.149,1.764-0.648
					c-1.108,1.815,1.611,3.619,2.612,1.649c0.151,0.802,0.173,1.085,0.936,1.522c0.663,0.365,0.999,0.126,1.557-0.251
					c0.117,0.46,0.781,0.616,1.222,0.647c0.074,0,0.51-0.093,0.661-0.103c0.238-0.021,0.478,0.083,0.716,0.039
					c0.948-0.103,1.69-1.292,1.277-2.188c-0.144-0.303-1.036-0.668-0.665-0.855c0.542-0.25,0.728-0.521,0.905-1.053
					c0.105-0.326,0.234-0.929,0.041-1.232c-0.359-0.572-0.797-0.365-1.223-0.822c0.655-0.397,0.625-1.501,0.525-2.149
					c-0.163-1.001-0.968-1.053-1.904-1.001c-0.882,0.032-1.724,0.187-2.535-0.125c-0.946-0.375-1.413,0.063-2.155,0.615
					c-0.162,0.115-0.142,0.887-0.601,0.532c-0.452-0.333-0.726-0.345-1.312-0.406c-0.914-0.094-1.665,0.259-2.536,0.406
					c-0.852,0.148-1.818,0.104-2.664,0.116c-0.413,0.011-0.817-0.136-1.188,0.073c-0.323,0.187-0.148,0.562-0.479,0.665
					c-0.063-1.009-0.325-0.77-1.149-1.062c0.696,0,0.706-0.583,0.759-1.106c0.85,0.345,1.311,1.001,2.375,1.001
					c0.911,0,2.698,0.292,3.229-0.592c0.295-0.493,0.543-0.032,0.991,0.114c0.499,0.167,1.086,0.105,1.609,0.105
					s1.195-0.127,1.436-0.679c0.154-0.374,0.163-0.971,0.457-1.229c0.478,1.334,3.07,1.302,4.257,1.031
					c0.77-0.167,1.228-1.125,1.002-1.837c-0.319-0.978-1.199-1.125-2.101-1.001c0.821-0.374,1.062-0.625,1.132-1.522
					c0.053-0.667-0.311-1.292-1.006-1.49c-0.648-0.188-1.346,0.198-1.954,0.448c-0.711,0.271-1.566-0.114-2.222,0.228
					c-0.619,0.326-0.72,0.918-1.458,1.148c-0.411,0.145-0.674,0.125-1.091,0.187c-0.148,0.022-1.019,0.376-1.054,0.356
					c-0.751-0.106-0.966-0.782-1.881-0.73c-0.764,0.031-1.645,0.04-2.386,0.207c0.317-0.311,0.309-0.708,0.558-1.062
					c0.234,1.208,2.785,0.354,3.439-0.055c0.062,0.972,1.408,0.972,2.163,0.7c0.883-0.291,1.926-1.085,2.427-1.868
					c0.196,1.025,2.044,0.377,2.636,0.096c0.191-0.096,0.519-0.98,0.519-1.21c0-0.605-0.335-0.875-0.88-1.062
					c0.74,0.041,0.664-0.711,0.381-1.169c-0.398-0.647-0.936-0.52-1.612-0.417c-0.585,0.083-1.191,0.104-1.783,0.146
					c-0.871,0.061-0.63-0.167-1.261-0.626c0.502,0.104,0.807,0.417,1.307,0.417c0.497,0,0.957-0.135,1.455-0.188
					c1.534-0.186,0.929-1.063,0.101-1.855c-0.608-0.583,0.425-2.181-1.145-2.307c-0.911-0.073-2.043,0.388-3.045,0.365
					c1.152-0.373,3.021-1.084,1.446-2.335c-0.793-0.625-2.501-1.585-3.058-0.156c-0.262,0.635-0.938,0.219-1.296,0.668
					c-0.444,0.543-0.444,1.096-0.553,1.721c-0.049,0.26-0.566,0.178-0.829,0.209c-0.303,0.02-0.587,0.353-0.826,0.529
					c-0.534,0.396-0.183,1.222-0.033,1.7c-1.145,0.21-1.62,0.439-2.492,1.23c-0.652,0.584-0.413,1.648-0.173,2.336
					c-0.849,0.127-1.36-0.564-2.284-0.082c-1.196,0.614-0.186,1.064-0.588,1.833c-1.092-0.729-1.938,0.636-2.274,1.439
					c-0.433,1.033-0.706,1.994-1.603,2.752c0.396-0.667,1.874-2.73,0.887-3.23c-1.112-0.563-2.93,0.938-3.604,1.584
					c0.402-0.833,0.684-1.21,1.543-1.584c0.85-0.377,1.752-0.305,2.566-0.71c0.852-0.428,1.264-0.917,1.418-1.835
					c0.172-1.189-1.023-0.875-1.816-0.804c0.729-0.281,0.555-0.814,0.555-1.429c0.695,1.274,2.219,1.646,3.602,1.055
					c1.609-0.69,1.678-2.275-0.273-2.441c0.567,0.094,0.567-0.323,1.079,0c0.391,0.26,1.011-0.136,1.372-0.282
					c0.814-0.344,1.574-1.793,0.37-2.106c0.803,0.157,1.772,0.271,2.164-0.688c0.457-1.179-0.675-1.596-1.611-1.596
					c0.35-0.115,0.611-0.303,0.337-0.584c1.558,1.242,3.339-0.176,4.819-0.958c1-0.533,1.12-1.565,0.503-2.452
					c-0.253-0.376-0.97-0.468-1.392-0.468c-0.482,0-0.655,0.563-1.222,0.479c0.304-0.386,1.351-0.78,1.108-1.281
					c-0.335-0.709-0.759-1.211-1.499-1.564c-0.811-0.377-0.992-0.209-1.437,0.52c-0.107,0.188-1.015,1.565-1.221,1.212
					c-0.196-0.325,0.891-1.481,1.055-1.752c0.205-0.325,0.532-0.273,0.341-0.751c-0.086-0.166-0.636-0.417-0.816-0.531
					c-0.513-0.345-1.131-0.513-1.578,0.009c-0.328,0.388-0.578,1.545-0.989,1.545c-0.034-0.354-0.012-1.002,0.236-1.253
					c0.264-0.249,1.012-0.802,0.557-1.167c-0.818-0.627-1.828-1.784-2.459-0.397c-0.197,0.46-0.109,1.021-0.393,1.438
					c-0.11,0.167-0.03,0.513-0.216,0.544c-0.242,0.019-0.654,0.019-0.775,0.229c-0.598,1.063-0.271,1.928,0.167,2.98
					c-1.22-0.29-1.646,2.944-0.505,3.194c-0.271,0.227-0.89,2.23-1.043,1.168c-0.098-0.813,0.445-1.545,0.153-2.442
					c-0.069-0.25-0.591-0.811-0.395-1c0.308-0.292,0.687-0.645,0.83-1.022c0.193-0.521,0.279-0.874,0.175-1.438
					c-0.068-0.438-0.46-1.002-0.224-1.482c0.285-0.541,0.396-0.135,0.832-0.437c0.529-0.376,0.626-0.626,0.838-1.251
					c0.228-0.711,0.51-1.691-0.123-2.306c-2.479-2.378-1.28,1.784-2.874,2.19c0.474-1.073,0.809-2.388,0.225-3.499
					c-0.311-0.601-0.699-1.121-1.419-0.89c-0.324,0.099-0.436,1.392-0.521,1.731c-0.151-0.882-0.151-2.134-1.196-2.466
					c-1.264-0.402-1.479,0.139-1.457,1.303c-0.534-0.705-0.766-1.081-1.721-1.005c-0.762,0.051-2.179,0.27-1.437,1.244
					c0.501,0.663,1.001,1.319,1.262,2.092c0.261,0.729,1.112,1.554,1.112,2.293c-0.437-0.687-1.479-1.335-1.611-2.126
					c-0.185-1.023-0.501-1.882-1.459-2.467c-0.719-0.438-1.873-0.531-2.61-0.079c-1.091,0.664,0.238,1.407,0.808,2.169
					c-1.003-0.875-1.612-1.887-2.749-0.708c-1.144,1.189-0.479,1.585,0.732,2.408c1.065,0.731,1.265,1.618,2.731,1.795
					c0.383,0.051,0.305,1.176,0.479,1.47c0.285,0.5,0.652,1.104,1.307,1.144c-0.772,0.358-0.096,1.669,0.197,2.213
					c0.237,0.438,2.021,1.398,2.021,1.564c0,0.311-0.564,0.585-0.564,0.979c0,0.409,0.09,0.94-0.175,1.294
					c-0.617,0.823-0.043,1.793,0.12,2.649c0.032,0.125,0.293,0.271,0.285,0.375c-0.046,0.261-0.316,0.179-0.395,0.325
					c-0.229,0.446-0.324,0.405-0.444,0.947c-0.099,0.522,0,0.555-0.395,0.917c-0.443,0.417-0.912,0.449-0.478-0.228
					c0.5-0.75,0.619-1.66,0.739-2.525c0.173-1.124-0.652-1.272-1.134-1.978c0.61-0.147,0.829-0.043,1.274-0.524
					c0.359-0.374,0.37-1.084,0.141-1.542c-0.563-1.084-1.512-1.939-2.696-2.335c0.608-0.25,0.739-1.044,0.653-1.605
					c-0.142-0.93-0.578-0.941-1.479-1.001c0.131-0.303,0.436-0.814,0.358-1.128c-0.12-0.521-0.479-0.374-0.912-0.625
					c-0.829-0.481-1.081-0.751-1.667-1.481c-0.65-0.814-1.625-0.961-2.605-0.961c-1.051,0-1.178,1.608-0.326,2.025
					c-0.313,0.335-0.844,0.208-1.25,0.521c-0.378,0.27-0.312,0.981-0.307,1.375c0.01,0.492,0,1.064,0.283,1.493
					c0.294,0.469,0.81,0.615,1.021,1.136c0.331,0.834,0.602,2.428,1.552,2.877c0.712,0.355,2.317,0.312,2.351,1.294
					c-0.426-0.46-0.642-0.667-1.297-0.731c-0.715-0.062-0.857,0.565-1.076,1.084c-0.266,0.647-0.336,1.053,0.045,1.628
					c0.303,0.457,1.088,0.614,1,1.261c-0.277-0.428-0.684-0.72-1.049-1.063c-0.44-0.428-0.757-0.198-1.217-0.365
					c0.842-0.562,0.885-1.312,0.885-2.231c0-0.951-0.834-1.241-1.002-2.105c-0.146-0.752-0.403-1.963-1.433-2.046
					c-1.221-0.104-1.276,0.489-1.276,1.492c-0.497-0.407-0.556-0.501-1.176-0.26c-0.594,0.25-0.658,0.397-0.763,0.981
					c-0.189,1.083,0.326,1.866,0.326,2.939c0,0.897,0.116,1.771,0.181,2.669c0.087,1.232,0.151,1.69,1.432,1.793
					c-0.284,0.357-0.893,0.116-0.893,0.606c0,0.417-0.062,1.126,0.128,1.502c0.262,0.5,0.562,0.978,0.885,1.438
					c0.554,0.804,0.877,0.125,1.375,0.605c-1.62,0.626,0.137,1.604,0,2.482c-1.027-0.583-0.893-1.461-1.337-2.356
					c-0.274-0.563-0.899-2.336-1.548-2.359c0.322-0.583,0.441-2.773-0.609-2.555c0.545-0.312,0.277-1.125,0.277-1.647
					c0-0.72-0.32-0.803-0.993-0.948c0.609-0.698,1.015-2.796-0.332-2.962c-1.312-0.167-1.133,2.399-1.165,3.066
					c-0.241-1.668-0.29-3.463,0.684-4.922c1.036-1.586,2.818-2.733,1.978-4.797c-0.302-0.729-0.887-1.335-1.226-2.044
					c-0.389-0.833-0.545-1.626-0.826-2.501c-0.653-1.971-2.365-1.978-4.212-2.097c1.96-0.234,0.828-2.289-0.059-2.967
					c1.312-0.396,2.217,1.643,2.897,2.404c0.859,0.959,2.334,1.554,3.64,1.627c0.657,0.043,1.384,0.043,1.661-0.568
					c0.252-0.527,0.017-1.449-0.045-2.013c-0.16-1.45-1.425-1.742-2.226-2.779"/>
				<path fill="none" stroke="#000000" d="M199.012,115.702c-0.159-3.016,0.337-6.394,1.398-9.229
					c0.576-1.565,0.753-3.193,1.028-4.819c0.112-0.686,0.62-1.334,1.061-1.855c0.517-0.639,0.5-1.211,0.5-1.981
					c0-0.689,0.349-1.233,0.409-1.909c0.081-0.928,0.146-1.847,0.146-2.785c0-1.492,0.388-3.317,0.974-4.694
					c0.538-1.272,0.763-3.108,0.882-4.482c0.042-0.606,0.393-1.784,0.217-2.336c-0.341-1.063-0.249-1.148,0.919-1.44
					c1.6-0.386,3.358-0.438,4.991-0.25"/>
				<path fill="none" stroke="#000000" d="M204.109,102.956c-0.28,0.616-0.336,1.252-0.224,1.908
					c0.143,0.795,0.785,1.107,0.839,1.95c0.112,1.826,1.021,2.951,2.376,4.183c2.603,2.354,6.417,0.509,9.313,0
					c0.678-0.115,1.524,0.063,2.212,0.084c0.794,0.02,1.619-0.063,2.402,0c1.667,0.165,3.354,0.396,5.006,0.333
					c0.827-0.021,1.309-0.208,2.112-0.06c0.762,0.124,1.521-0.035,2.195-0.377c0.599-0.313,1.429,0.062,2.112-0.127
					c0.664-0.186,1.979-0.371,2.458-0.832c0.633-0.605,1.155-0.605,2.025-0.772c0.761-0.146,1.412-0.751,2.164-0.961
					c1.534-0.438,3.146-0.561,4.667-1.021c0.695-0.218,1.241-0.803,1.873-0.98c0.783-0.25,1.599-0.448,2.338-0.803
					c1.58-0.759,3.123-1.521,4.604-2.428c2.523-1.565,4.479-4.882,5.516-7.488c0.559-1.398,0.752-3.045,1.229-4.494
					c0.521-1.64,0.63-2.932,0.013-4.547c-0.46-1.188-0.622-2.774-1.32-3.817c-0.303-0.469-0.89-1.011-0.89-1.565
					c0-0.637-0.459-1.407-0.727-1.992c-0.299-0.624-0.863-1.041-1.134-1.68c-0.296-0.667-0.622-1.312-0.946-1.97
					c-0.307-0.593-0.695-1.145-1.135-1.668c-0.478-0.562-0.748-1.253-1.215-1.836c-0.884-1.085-1.776-2.126-2.64-3.252
					c-0.455-0.626-0.89-1.241-1.312-1.878c-0.415-0.604-1.091-1.021-1.646-1.521c-0.521-0.458-0.958-0.803-1.677-0.917
					c-0.175-0.023-0.54-1.419-0.759-1.66c-0.979-1.093-2.535-1.459-3.832-2.011"/>
				<path fill="none" stroke="#000000" d="M205.705,99.214c2.479,0.187,4.465-0.469,6.316-2.064"/>
				<path fill="none" stroke="#000000" d="M204.55,102.802c2.962,0.333,8.199,0.06,10.168-2.547"/>
				<path fill="none" stroke="#000000" d="M204.734,106.493c4.937,0.595,10.222-0.731,12.856-5.132"/>
				<path fill="none" stroke="#000000" d="M208.474,109.203c4.092-0.291,8.271-2.126,10.501-5.558"/>
				<path fill="none" stroke="#000000" d="M213.913,110.808c2.327-0.999,3.982-2.209,5.701-4.024"/>
				<path fill="none" stroke="#000000" d="M216.19,111.027c1.705-0.958,3.531-2.366,4.709-3.898
					c1.065-1.419,2.828-3.107,2.828-4.975"/>
				<path fill="none" stroke="#000000" d="M222.649,111.246c1.97-1.667,3.06-4.253,3.06-6.755"/>
				<path fill="none" stroke="#000000" d="M227.929,102.259c0.604,2.188,1.62,7.256-0.404,9.021"/>
				<path fill="none" stroke="#000000" d="M230.517,110.925c2.284-2.868,1.723-6.435,0.11-9.459"/>
				<path fill="none" stroke="#000000" d="M233.173,110.643c0.184-1.564,0.174-3.118-0.11-4.671"/>
				<path fill="none" stroke="#000000" d="M233.282,101.736c1.063,2.106,2.884,5.714,1.782,8.157"/>
				<path fill="none" stroke="#000000" d="M238.568,108.412c0.373-2.19-0.062-3.817-1.139-5.609"/>
				<path fill="none" stroke="#000000" d="M240.406,101.153c0.973,1.668,1.964,4.267,1.387,6.507"/>
				<path fill="none" stroke="#000000" d="M243.269,98.483c1.024,1.958,2.212,5.348,1.979,7.945"/>
				<path fill="none" stroke="#000000" d="M246.285,98.483c0.665,1.481,1.14,2.921,1.252,4.525"/>
				<path fill="none" stroke="#000000" d="M247.471,97.212c1.762,1.562,2.852,4.327,3.102,6.945"/>
				<path fill="none" stroke="#000000" d="M248.569,95.377c2.068,1.478,4.449,4.107,5.431,6.484"/>
				<path fill="none" stroke="#000000" d="M249.388,93.394c2.762,1.084,5.275,3.15,6.907,5.571"/>
				<path fill="none" stroke="#000000" d="M253.061,93.601c1.266,0.525,3.495,1.566,4.717,2.484"/>
				<path fill="none" stroke="#000000" d="M205.221,66.115c0.587,3.044,1.222,6.443,3.382,8.863
					c1.021,1.137,1.947,2.606,3.701,2.606c0.744,0,1.031-0.938,0.723-1.53c-0.467-0.909-0.619-1.45-0.404-2.432
					c0.435-1.908-1.907-1.794-2.025-3.44c-0.064-0.803,0.175-1.251-0.071-2.086c-0.077-0.249-0.506-0.5-0.729-0.647
					c-0.467-0.292-0.348-0.667-0.257-1.167c0.125-0.647,0.519-1.522,0.257-2.182c-0.157-0.385-0.333-0.718-0.333-1.134
					c0-0.188,0.754-0.125,0.966-0.188c-0.021,0.009,0.658-0.762,0.569-0.146c-0.072,0.48,0.16,0.489,0.315,0.938
					c0.326,0.949-0.3,1.378-0.3,2.274c0,0.584,0.157,1.033,0.342,1.605c0.22,0.656,0.82,0.23,1.283,0.291
					c1.17,0.128,0.758,1.461,1.065,2.336c0.359,1.053,2.492,0.647,2.796-0.29c0.394-1.188,0.415-1.983-0.129-3.108
					c-0.196-0.396-0.499-0.626-0.675-1.044c-0.219-0.583,0.804-0.521,1.077-0.791c0.991-0.992-0.101-2.065-0.884-2.65
					c-0.911-0.667-1.623-0.813-1.826-2.065c-0.104-0.667,0.146-0.759,0.272-1.376c0.119-0.563-0.188-1.074,0.073-1.627
					c0.449,0.011,0.591,0.241,0.829,0.553c0.184,0.249,0.719,0.03,0.949,0.281c0.356,0.417-0.166,0.667,0.453,1.002
					c0.272,0.146,0.205,0.793,0.251,1.095c0.088,0.99,3.438,2.324,2.47,3.577c-0.293,0.376-1.557,0-1.229,1.021
					c0.28,0.877,0.63,1.648,0.696,2.576c0.02,0.366-0.088,0.647-0.188,0.99c-0.074,0.293-0.542,0.377-0.642,0.659
					c-0.262,0.779-0.545,1.625-0.01,2.365c0.942,1.294,3.253-0.084,3.678-1.304c0.313-0.906,0.793-0.927,1.467-1.574
					c0.589-0.563,0.436-1.481,0.436-2.189c0-0.667-0.683-0.96-0.412-1.775c0.239-0.77,0.675-1.625,0.718-2.419
					c0.043-0.739,0.1-1.375-0.764-1.708c-0.901-0.365-1.456-0.887-1.456-1.867c0-1.406-1.851-0.989-1.851-2.097
					c0-0.521,0.045-1.26-0.487-1.604c-0.513-0.314-1.273-0.041-1.359-0.772c0.303-0.103,0.663-0.271,0.879-0.5
					c-0.031,0.039,0.143-1.085,0.428-0.545c0.364,0.72,0.684,1.481,1.174,2.141c0.586,0.811,2.72,3.283,3.504,1.303
					c0.563-1.417-2.089-3.161-1.402-4.14c0.66-0.949,0.793,0.542,1.097,0.97c0.687,0.907,0.979,0.239,1.784-0.043
					c0.341-0.124,0.666,0.125,0.548,0.521c-0.197,0.666-0.481,0.083-0.918,0.438c-0.51,0.396-0.185,1.71-0.086,2.209
					c0.174,0.939,0.653,0.961,1.534,0.782c0.324-0.071,0.4,0.597,0.444,0.795c0.087,0.415-0.651,0.592-0.87,0.802
					c-0.598,0.584-0.562,1.251-0.206,1.939c0.447,0.854,0.22,1.386-0.208,2.22c-0.217,0.407-0.402,0.636-0.356,1.097
					c0.056,0.394,0.306,0.477,0.402,0.833c0.264,0.875-0.098,1.458,1.1,1.647c1.948,0.313,2.034-1.585,3.1-2.627
					c1.23-1.169,1.592-2.065,0.393-3.485c1.384-0.54,1.632-1.417,1.109-2.68c0.512,0,1.003-0.01,1.525-0.053
					c0.563-0.061,0.127,0.751,0.304,0.962c0.869,1.082,1.457,0.237,2.589-0.065c-0.194,2.106,1.479,1.179,2.895,1.491
					c-0.107,0.909-0.958,0.805-1.632,1.056c-1.064,0.417-1.457-0.449-2.437-0.493c-0.793-0.031-1.544,0.565-1.86,1.161
					c-0.514,1.001,0.249,1.041,0.663,1.77c0.698,1.21-0.827,0.522-1.317,1.253c-0.443,0.666,0.815,1.625-0.631,1.625
					c-0.469,0-0.794,0.043-1.253,0.179c-0.335,0.094-0.467,0.521-0.781,0.678c-0.85,0.426-1.741-0.209-2.425,0.625
					c-0.222,0.271-0.24,0.751-0.556,0.909c-0.469,0.219-0.806,0.334-1.318,0.426c-0.839,0.146-0.943,1.323-0.793,1.919
					c0.205,0.793-0.349,1.084-0.881,1.71c-0.6,0.697-1.012,1.334-1.446,2.127c-0.47,0.864,0.411,1.354,1,1.71
					c0.76,0.479,1.446-0.98,1.871-0.741c0.84,0.481-0.521,1.117-0.458,1.636c0.089,0.69,0.151,1.752,1.241,1.629
					c1.057-0.126,2.034-0.354,2.765-1.18c0.216-0.25,0.443-0.489,0.673-0.739c0.133-0.147-0.129-0.377-0.109-0.544
					c0.048-0.28-0.16-0.572,0.195-0.572c0.31,0,0.61-0.157,0.906-0.262c0.968-0.333,1.49-1.375,1.49-2.313
					c0-0.918,0.085-0.44,0.663-0.396c0.75,0.041,0.89-0.083,1.556-0.501c0.411-0.271,0.555-0.793,0.771-1.211
					c0.098-0.207,0.034-1.375,0.338-1.479c0.481-0.146,0.6,0.791,0.87,0.918c0.284,0.135,1.254-0.055,1.479-0.209
					c0.958-0.647,0.305-2.023,0.305-2.869c0-0.927,0.653-2.22,1.11-3.075c0.063,0.438-0.304,0.896-0.184,1.251
					c0.161,0.564,0.664,0.354,0.792,1.042c0.175,1.023,1.906-0.021,2.784,0.042c-0.846,0.25-1.241,0.407-1.848,1.002
					c-0.597,0.562,0.479,1.334-0.283,1.981c-0.947,0.771,0.438,1.25,0.989,1.355c0.896,0.167,1.536,0.073,2.396-0.167
					c0.03,0.103,0.054,0.187,0.075,0.291c-0.851-0.125-0.586,1.127-1.34,1.127c-0.793,0-1.511-0.437-2.362-0.491
					c-0.246-0.021-0.671,0.054-0.801,0.261c-0.285,0.46-0.468,0.417-1.027,0.501c-0.236,0.043-0.387-0.365-0.629-0.438
					c-0.544-0.178-0.837-0.251-1.413-0.21c-1.155,0.083-2.918,1.899-3.07,3.004c-0.108,0.793,0.545,1.365,1.327,1.441
					c0.438,0.04,0.81-0.023,1.242-0.084c0.326-0.051,0.763,0.355,1.056,0.479c1.575,0.719,3.102-0.021,4.658-0.394
					c0.855-0.21,1.394-0.023,2.175-0.564c0.469-0.313,1.491-1.095,2.034-1.095c1.588,0-0.653,0.949-0.086,1.553
					c0.759,0.814,1.324,0.576,2.403,0.73c0.228,0.043,0.749,0.461,0.382,0.583c-0.284,0.084-0.62,0.043-0.916,0.043
					c-0.911,0-1.521,0.041-2.264-0.563c-0.457-0.354-1.01-0.898-1.662-0.438c-0.449,0.311-0.567,1.792-1.438,1.604
					c-0.858-0.178-1.428-0.396-2.316-0.396c-0.325,0-0.556,0.396-0.891,0.438c-0.49,0.063-0.979,0.126-1.481,0.189
					c-0.892,0.104-1.382-0.063-1.938-0.73c-0.554-0.667-1.477-0.711-2.294-0.877c-0.729-0.167-0.721,1.211-0.688,1.584
					c0.088,0.877-0.695,1.481-0.555,2.192c0.098,0.52,0.882,1.146,1.274,1.625c0.608,0.731,1.272,0.834,2.199,0.46
					c0.562-0.23,1.142-1.167,1.805-0.96c0.879,0.293,1.369,0.604,2.325,0.604c0.721,0,1.269-0.311,1.895-0.364
					c0.514-0.053,2.112,0.094,2.374-0.364c0.871-1.502,2.544-1.001,4.114-1.147c0.347-0.021,0.815-0.021,0.631,0.458
					c-0.133,0.376-0.521,0.24-0.805,0.292c-0.34,0.04-0.722-0.02-1.035,0.063c-0.424,0.123-0.686,0.417-1.143,0.458
					c-0.567,0.062-1.513,0.281-1.524,0.96c0,0.501,1.055,1.688,1.524,1.73c0.825,0.095,1.445-0.103,2.238-0.103
					c0.317,0,0.764,0.376,0.525,0.709c-0.111,0.167-0.391,0.271-0.35,0.458c0.046,0.25,0.076,0.428-0.177,0.604
					c-0.148,0.106-0.761-0.041-0.957,0c-0.576,0.106-0.37,0.472-0.968,0.146c-0.251-0.146-0.119-0.624-0.313-0.896
					c-0.313-0.417-0.481-0.583-1.078-0.521c-0.237,0.021-0.686,0.396-0.883,0.21c-0.35-0.333-0.38-0.417-0.435-0.898
					c-0.107-0.949-1.292-0.845-1.792-0.365c-0.535,0.512-0.821-0.552-1.43-0.761c-0.508-0.157-1.697-0.146-2.109,0.25
					c-0.327,0.313-1.392,0.022-1.959,0.147c-1.021,0.23-1.588,0.52-1.588,1.574c0,0.844,0.867,1.074,1.588,1.158
					c0.293,0.02,0.758-0.126,0.956,0.063c0.284,0.27,0,0.771,0.327,1.094c0.676,0.636,1.198,0.678,2.125,0.773
					c0.356,0.029,0.226,0.49-0.088,0.405c-0.449-0.134-0.959-0.314-1.429-0.324c-2.651-0.052-1.195,2.952-0.088,2.284
					c0.696-0.396,1.385-0.895,1.739,0.032c0.263,0.636,1.203,1.075,1.742,0.595c0.524-0.437,1.327-1.419,1.463-0.25
					c0.04,0.271,2.055,0.584,2.39,0.647c0.413,0.062,0.327,0.583,0.196,0.834c-0.142,0.251-0.672,0.251-0.956,0.271
					c-0.588,0.041-0.632,0.091-1.021,0.52c-0.265,0.294-0.589-0.406-0.744-0.54c-0.585-0.566-1.172-1.064-1.849-0.418
					c-0.247,0.228,0.165,0.783-0.226,0.875c-0.524,0.126-0.927,0.021-1.36,0.365c-0.35,0.283,0.192,2.138-0.309,2.138
					c-1.066,0-1.205-0.501-1.205-1.398c0-0.667,0.139-1.562-0.37-2.064c-0.771-0.74-1.251,0.542-1.565,1.105
					c-0.206,0.385-0.196,1.503-0.886,1.418c-0.956-0.104-0.443-1.033-0.172-1.604c0.25-0.5,0.869-0.878,1.066-1.419
					c0.131-0.356,0.174-1.544-0.438-1.544c-1.086,0-0.648-0.583-1.02-1.157c-0.438-0.667-0.83-0.826-1.045-1.617
					c-0.327-1.178-0.373-3.836-2.524-2.752c-0.088-0.825,0.196-2.546-1.11-2.546c-0.872,0-2.742,0.21-2.817,1.251
					c-0.086,1.169,0.921,2.129,0.575,3.235c-0.192,0.626-0.76,0.437-0.837,1.262c-0.054,0.656,0.771,0.866,1.237,1.052
					c0.566,0.208,0.894,0.272,0.885,0.98c0,0.479-0.592,0.938,0.215,1.25c0.698,0.292,0.241,0.637,0.241,1.169
					c0,0.907,0.217,0.707,0.694,1.396c0.437,0.626,0.622,0.69,0.263,1.357c-0.382,0.686-0.661,0.592-0.718,1.438
					c-0.065,1.105,1.674,1.648,1.087,2.733c-0.609-0.167-0.903-0.814-1.435-1.127c-0.48-0.27-1.438,0.104-1.816,0.5
					c-0.303,0.293-0.621,1.605-1.145,1.513c-0.545-0.105,0.49-1.577,0.696-1.91c0.457-0.688,2.101-2.669,1.427-3.503
					c-0.5-0.626-0.512-1.189-1.068-1.772c-0.436-0.469-1.557,0.166-1.686,0.636c-0.957-0.593,0.914-2.555,0.401-3.62
					c-0.186-0.394-0.687-1.752-1.218-1.752c-0.687,0-1.523,0.146-1.883,0.784c-0.348,0.595-0.307,1.354-0.742,1.826
					c-0.587,0.645-1.413,0.385-1.915,1.145c-0.325,0.48-0.356,1.418-0.184,1.974c0.314,1.021,0.815,0.759,1.59,1.207
					c0.38,0.219,1.379,0.93,0.771,1.376c-0.35,0.253-0.5-0.073-0.85,0.325c-0.313,0.334-0.313,0.585-0.389,1.054
					c-0.133,0.739,0.348,1.032,0.606,1.71c0.12,0.323,0.414,0.656,0.044,0.843c-0.283,0.136-0.771-0.249-0.936-0.417
					c-0.22-0.186-0.673-0.219-0.839-0.437c-0.215-0.281,0.033-0.762-0.078-1.063c-0.105-0.292-0.541-0.469-0.608-0.792
					c-0.062-0.376-0.128-0.709-0.128-1.085c0-1-0.633-1.105-1.545-1.23c-1.012-0.126-0.349,1.188-1.045,1.418
					c-0.174-0.438-0.154-0.699-0.622-0.751c-0.249-0.021-0.87-0.125-0.839-0.429c0.102-0.98-0.119-1.449,0.72-2.094
					c0.239-0.19,0.796-0.108,1.089-0.116c0.392-0.031,0.5-0.345,0.738-0.636c0.372-0.48,0.675-1.564,0.395-2.149
					c-0.349-0.73-1.099-0.625-0.315-1.533c0.597-0.708,1.022-1.323,0.248-2.066c-0.738-0.698,2.438-2.637,2.593-3.221
					c0.468-1.982-0.938-3.036-2.634-1.772c-0.285,0.187-1.416,1.367-1.457,1.063c-0.088-0.897-0.079-1.584-1.201-1.48
					c-0.959,0.072-0.521,1.23-1.102,1.708c-0.633,0.501-0.951,1.108-0.812,1.898c0.143,0.815,0.174,1.545,0.174,2.379
					c0,0.208-1.774-0.126-1.948,0.561c-0.242,0.91,0.149,2.086,0.27,3.026c0.201,1.523-0.881-0.084-1.454,0.041
					c-0.139,0.021-1.08,0.417-1.146,0.397c-0.542-0.178-0.278-1.074-0.075-1.348c0.275-0.385,0.631-0.405,0.739-0.886
					c0.104-0.437,0.084-0.885,0.275-1.293c0.378-0.804,1.709-1.105,1.423-2.147c-0.202-0.731-0.586-0.418-0.063-1.168
					c0.293-0.417,0.657-0.814,0.99-1.21c0.537-0.635,1.438-1.125,1.438-2.002c0-0.75-1.84-0.541-2.014,0.126"/>
			</g>
			<line fill="none" stroke="#000000" x1="163.753" y1="57.634" x2="165.326" y2="58.049"/>
		</g>
	</g>
	<g>
		<g>
			<line fill="none" stroke="#000000" x1="212.5" y1="180.015" x2="212.5" y2="119.667"/>
			<polygon points="208.797,177.206 212.5,178.779 216.204,177.206 212.5,185.984 			"/>
		</g>
	</g>
	<g>
		<g>
			<line fill="none" stroke="#000000" x1="212.017" y1="321.79" x2="212.017" y2="251"/>
			<polygon points="208.313,318.98 212.017,320.554 215.721,318.98 212.017,327.759 			"/>
		</g>
	</g>
	<g>
		<g>
			<path fill="none" stroke="#000000" d="M168.908,397c-42.267-15.333-84.104-56.539-84.525-86.669
				c-0.432-30.896,11.298-69.673,60.283-84.543"/>
			<polygon points="143.055,230.147 143.484,226.147 140.903,223.06 150.378,224.054 			"/>
		</g>
	</g>
	<g>
		<g>
			<path fill="none" stroke="#000000" d="M117.195,365.188C63.184,316.203,52.333,230,55.667,184
				C58.979,138.299,81.333,86.461,138,50.828"/>
			<polygon points="137.594,55.458 136.954,51.485 133.65,49.187 143.053,47.65 			"/>
		</g>
	</g>
	<g>
		<g>
			<line fill="none" stroke="#000000" x1="211.232" y1="511.334" x2="211.232" y2="449.404"/>
			<polygon points="207.529,508.525 211.232,510.098 214.937,508.525 211.232,517.303 			"/>
		</g>
	</g>
	<g>
		<path id="path19818_1_" fill="#FFFF3C" stroke="#000000" d="M117.195,53.999c0,3.603-2.925,6.524-6.529,6.524
			s-6.526-2.921-6.526-6.524c0-3.602,2.922-6.523,6.526-6.523C114.271,47.476,117.195,50.397,117.195,53.999z"/>
		<g>
			<path fill="#CB2228" d="M112.503,53.068v0.587h-5.997v-0.587H112.503z"/>
		</g>
	</g>
	<g>
		<path id="path19818_2_" fill="#FFFF3C" stroke="#000000" d="M117.549,224.666c0,3.603-2.925,6.524-6.528,6.524
			c-3.605,0-6.527-2.921-6.527-6.524c0-3.602,2.922-6.523,6.527-6.523C114.625,218.143,117.549,221.064,117.549,224.666z"/>
		<g>
			<path fill="#CB2228" d="M112.857,223.736v0.587h-5.997v-0.587H112.857z"/>
		</g>
	</g>
	<g>
		<path fill="#F9F26C" stroke="#000000" d="M209.086,241.776c-10.184,2.49-22.704,1.955-33.346-0.324
			c-8.149-1.702-11.801-5.288-14.292-11.606c-1.578-4.048-0.907-12.546,1.585-16.211c7.318-10.674,20.938-10.447,31.735-13.166
			c10.97-2.662,25.978-11.073,29.728-20.424"/>
		<polygon fill="#B4F367" points="224.285,181.292 228.445,183.792 231.208,185.427 234.418,187.61 233.726,190.945 
			233.058,194.384 232.649,196.562 232.409,198.665 232.55,201.097 233.111,203.416 234.418,206.154 236.267,208.881 
			238.528,211.459 240.695,214.108 242.787,216.448 244.317,219.088 245.816,222.445 246.167,225.711 246.215,227.28 
			246.167,230.399 245.414,233.823 243.407,237.089 240.695,239.352 237.528,241.539 233.267,243.173 229.219,244.266 
			223.969,244.893 219.438,245.192 214.56,244.979 211.399,243.8 210.079,242.553 208.978,240.377 208.531,237.878 208.768,235.691 
			209.121,232.423 209.568,229.065 209.568,225.562 209.627,221.739 209.948,217.758 210.296,214.64 210.808,210.275 
			212.149,206.705 213.732,203.112 215.735,198.899 217.448,196.022 219.438,191.896 221.735,187.059 223.38,183.792 		"/>
		<path fill="none" stroke="#000000" d="M235.65,184.753c1.562,6.674-5.384,12.936-3.068,19.197
			c6.945,8.348,16.204,16.696,13.891,27.131c-4.631,12.522-23.148,18.783-34.725,12.522c-2.314-2.087-4.63-6.261-4.63-8.349
			c2.314-18.783,4.63-37.566,17.432-55.24"/>
	</g>
	<g>
		<g>
			<path fill="#FAF767" stroke="#000000" d="M179.317,378.452c-5.471,1.668-13.574,5.646-9.124,12.307
				c0.585,0.874,2.125,1.365,3.148,1.591c1.718,0.381,1.913,1.057,3.167,2.26c2.567,2.466,4.561,3.942,8.165,4.457
				c3.422,0.488,4.668,0.867,6.556,4.006c1.921,3.193,3.483,3.986,3.689,7.893c0.167,3.163,0.898,5.846,2.08,8.789
				c0.427,1.066,1.918,2.066,2.001,3.049c0.147,1.767,0.35,3.513,0.569,5.271c0.831,6.637,6.668,9.052,11.49,11.992
				c3.021,1.844,3.819,3.744,5.289,6.678c1.297,2.586,3.916,3.407,6.371,1.938c4.647-2.781,4.875-13.105,6.598-17.833
				c0.89-2.438,0.928-5.529,1.176-8.125c0.303-3.168,2.084-5.721,2.921-8.785c1.619-5.92,3.103-10.793,2.823-17.185
				c-0.277-6.378,0.949-12.757,0.949-19.161c0-12.48,2.557-24.646-3.543-36.209c-2.954-5.599-6.812-9.585-13.596-7.47
				c-5.403,1.685-9.999,7.758-12.013,12.873c-0.786,1.996-0.186,6.298-2.132,7.593c-2.287,1.521-5.722,4.479-8.239,5.251
				c-5.296,1.626-10.162,8.543-11.869,13.652C184.903,375.949,181.938,377.652,179.317,378.452z"/>
			<path fill="none" stroke="#000000" d="M211.922,387.285c3.77-2.227,5.271-4.154,6.392-8.342
				c0.929-3.479-0.441-7.082,0.303-10.616c0.512-2.429,0.85-3.981,0.5-6.423c-0.252-1.754-2.012-2.402-2.012-4.346
				c0-4.066,1.264-7.61,2.592-11.42"/>
		</g>
		<path fill="none" stroke="#000000" d="M205.225,398.236c1.021,2.277,8.854,7.506,8.854,2.738c0-4.679,0.374-10.154,1.079-14.803"
			/>
	</g>
	<g id="x2">
		
			<radialGradient id="x2_path1_1_" cx="204.5632" cy="749.6113" r="16.1868" gradientTransform="matrix(1.0228 0 0 -0.5093 34.0434 661.3981)" gradientUnits="userSpaceOnUse">
			<stop  offset="0" style="stop-color:#FDFBDE"/>
			<stop  offset="0.1203" style="stop-color:#FDFAD9"/>
			<stop  offset="0.2662" style="stop-color:#FCF8CB"/>
			<stop  offset="0.4255" style="stop-color:#FBF5B3"/>
			<stop  offset="0.5943" style="stop-color:#FAEF93"/>
			<stop  offset="0.7706" style="stop-color:#F8E86E"/>
			<stop  offset="0.9506" style="stop-color:#F6E046"/>
			<stop  offset="1" style="stop-color:#F5DE3D"/>
		</radialGradient>
		<path id="x2_path1" fill="url(#x2_path1_1_)" stroke="#000000" d="M259.52,279.621c0,4.634-7.279,8.393-16.252,8.393
			c-8.976,0-16.25-3.757-16.25-8.393c0-4.637,7.275-8.393,16.25-8.393C252.241,271.23,259.52,274.984,259.52,279.621z"/>
		<g>
			<path d="M233.797,281.102l-0.725,2.192h-0.933l2.383-6.973h1.078l2.383,6.973h-0.963l-0.746-2.192H233.797z M236.098,280.396
				l-0.694-2.006c-0.155-0.457-0.259-0.869-0.362-1.272h-0.021c-0.104,0.403-0.207,0.838-0.353,1.262l-0.684,2.019h2.113V280.396z"
				/>
			<path d="M243.726,283.077c-0.321,0.165-0.995,0.331-1.845,0.331c-1.968,0-3.438-1.242-3.438-3.539
				c0-2.192,1.48-3.662,3.646-3.662c0.86,0,1.419,0.188,1.658,0.311l-0.228,0.734c-0.332-0.165-0.818-0.289-1.398-0.289
				c-1.637,0-2.725,1.045-2.725,2.876c0,1.718,0.983,2.804,2.673,2.804c0.56,0,1.119-0.113,1.482-0.289L243.726,283.077z"/>
			<path d="M246.484,277.087h-2.124v-0.766h5.17v0.766h-2.134v6.207h-0.912V277.087z"/>
			<path d="M251.21,276.321v2.917h3.377v-2.917h0.912v6.973h-0.912v-3.271h-3.377v3.271h-0.912v-6.973H251.21z"/>
		</g>
	</g>
	<g id="x3">
		
			<radialGradient id="x3_path1_1_" cx="68.3499" cy="762.4648" r="12.5805" gradientTransform="matrix(1.5933 0 0 -0.6358 -70.2265 762.7289)" gradientUnits="userSpaceOnUse">
			<stop  offset="0" style="stop-color:#A2FF5F"/>
			<stop  offset="0.4082" style="stop-color:#A0FF5F"/>
			<stop  offset="0.5552" style="stop-color:#99FD5F"/>
			<stop  offset="0.66" style="stop-color:#8EFB5E"/>
			<stop  offset="0.7448" style="stop-color:#7DF85E"/>
			<stop  offset="0.8174" style="stop-color:#67F35D"/>
			<stop  offset="0.8817" style="stop-color:#4BEE5C"/>
			<stop  offset="0.9398" style="stop-color:#2BE85B"/>
			<stop  offset="0.9915" style="stop-color:#07E05A"/>
			<stop  offset="1" style="stop-color:#00DF5A"/>
		</radialGradient>
		<path id="x3_path1" fill="url(#x3_path1_1_)" stroke="#000000" d="M58.351,277.953c0,4.497-8.812,8.145-19.677,8.145
			c-10.865,0-19.675-3.646-19.675-8.145s8.81-8.143,19.675-8.143C49.539,269.812,58.351,273.456,58.351,277.953z"/>
		<g>
			<path d="M28.172,280.533c-0.214,0.103-0.689,0.261-1.296,0.261c-1.36,0-2.247-0.923-2.247-2.303c0-1.39,0.951-2.405,2.425-2.405
				c0.484,0,0.913,0.121,1.137,0.242l-0.187,0.625c-0.195-0.104-0.504-0.214-0.95-0.214c-1.035,0-1.595,0.773-1.595,1.706
				c0,1.044,0.671,1.688,1.566,1.688c0.466,0,0.772-0.111,1.007-0.214L28.172,280.533z"/>
			<path d="M33.161,278.398c0,1.668-1.166,2.396-2.247,2.396c-1.212,0-2.163-0.896-2.163-2.321c0-1.5,0.998-2.387,2.237-2.387
				C32.285,276.086,33.161,277.027,33.161,278.398z M29.59,278.445c0,0.988,0.561,1.734,1.361,1.734c0.783,0,1.37-0.738,1.37-1.754
				c0-0.764-0.382-1.725-1.352-1.725C30.01,276.702,29.59,277.598,29.59,278.445z"/>
			<path d="M34.198,277.587c0-0.532-0.009-0.987-0.038-1.407h0.718l0.037,0.895h0.028c0.205-0.606,0.708-0.988,1.259-0.988
				c0.084,0,0.149,0.009,0.224,0.02v0.773c-0.084-0.02-0.167-0.02-0.279-0.02c-0.578,0-0.988,0.43-1.101,1.045
				c-0.019,0.111-0.027,0.252-0.027,0.382v2.405h-0.82V277.587z"/>
			<path d="M38.46,275.098v1.082h1.175v0.625H38.46v2.434c0,0.56,0.158,0.876,0.615,0.876c0.224,0,0.354-0.02,0.476-0.056
				l0.037,0.625c-0.157,0.056-0.409,0.111-0.727,0.111c-0.382,0-0.69-0.13-0.886-0.345c-0.225-0.252-0.317-0.653-0.317-1.185v-2.461
				h-0.699v-0.625h0.699v-0.839L38.46,275.098z"/>
			<path d="M41.472,274.912c0,0.279-0.196,0.503-0.522,0.503c-0.298,0-0.494-0.224-0.494-0.503s0.205-0.514,0.514-0.514
				C41.267,274.398,41.472,274.623,41.472,274.912z M40.559,280.691v-4.512h0.819v4.512H40.559z"/>
			<path d="M42.629,279.861c0.251,0.149,0.682,0.317,1.092,0.317c0.587,0,0.866-0.288,0.866-0.671c0-0.392-0.232-0.597-0.83-0.82
				c-0.819-0.297-1.202-0.736-1.202-1.276c0-0.728,0.597-1.324,1.557-1.324c0.457,0,0.856,0.121,1.1,0.28l-0.195,0.597
				c-0.178-0.112-0.503-0.271-0.924-0.271c-0.483,0-0.745,0.279-0.745,0.615c0,0.372,0.261,0.541,0.848,0.773
				c0.773,0.289,1.184,0.681,1.184,1.352c0,0.803-0.625,1.361-1.678,1.361c-0.494,0-0.951-0.13-1.268-0.316L42.629,279.861z"/>
			<path d="M50.518,278.398c0,1.668-1.166,2.396-2.247,2.396c-1.212,0-2.163-0.896-2.163-2.321c0-1.5,0.998-2.387,2.237-2.387
				C49.641,276.086,50.518,277.027,50.518,278.398z M46.947,278.445c0,0.988,0.56,1.734,1.361,1.734c0.782,0,1.37-0.738,1.37-1.754
				c0-0.764-0.383-1.725-1.353-1.725C47.366,276.702,46.947,277.598,46.947,278.445z"/>
			<path d="M51.554,274.072h0.819v6.619h-0.819V274.072z"/>
		</g>
	</g>
	<g>
		
			<radialGradient id="path16609_1_" cx="194.5037" cy="462.0557" r="12.5802" gradientTransform="matrix(1.5933 0 0 -0.6358 -70.2265 762.7289)" gradientUnits="userSpaceOnUse">
			<stop  offset="0" style="stop-color:#A2FF5F"/>
			<stop  offset="0.4082" style="stop-color:#A0FF5F"/>
			<stop  offset="0.5552" style="stop-color:#99FD5F"/>
			<stop  offset="0.66" style="stop-color:#8EFB5E"/>
			<stop  offset="0.7448" style="stop-color:#7DF85E"/>
			<stop  offset="0.8174" style="stop-color:#67F35D"/>
			<stop  offset="0.8817" style="stop-color:#4BEE5C"/>
			<stop  offset="0.9398" style="stop-color:#2BE85B"/>
			<stop  offset="0.9915" style="stop-color:#07E05A"/>
			<stop  offset="1" style="stop-color:#00DF5A"/>
		</radialGradient>
		<path id="path16609_3_" fill="url(#path16609_1_)" stroke="#000000" d="M259.351,468.953c0,4.497-8.812,8.144-19.677,8.144
			c-10.865,0-19.675-3.645-19.675-8.144c0-4.498,8.81-8.143,19.675-8.143C250.539,460.812,259.351,464.455,259.351,468.953z"/>
		<g>
			<path d="M229.172,471.533c-0.214,0.103-0.689,0.262-1.296,0.262c-1.36,0-2.247-0.924-2.247-2.303
				c0-1.391,0.951-2.406,2.425-2.406c0.484,0,0.913,0.121,1.137,0.242l-0.187,0.625c-0.195-0.104-0.504-0.215-0.951-0.215
				c-1.034,0-1.594,0.773-1.594,1.707c0,1.044,0.671,1.688,1.566,1.688c0.466,0,0.772-0.112,1.007-0.215L229.172,471.533z"/>
			<path d="M234.161,469.398c0,1.669-1.166,2.396-2.247,2.396c-1.212,0-2.163-0.896-2.163-2.322c0-1.5,0.998-2.387,2.237-2.387
				C233.285,467.086,234.161,468.027,234.161,469.398z M230.59,469.445c0,0.987,0.561,1.733,1.361,1.733
				c0.783,0,1.37-0.736,1.37-1.754c0-0.764-0.382-1.725-1.353-1.725C231.01,467.701,230.59,468.597,230.59,469.445z"/>
			<path d="M235.198,468.588c0-0.532-0.009-0.988-0.038-1.408h0.718l0.037,0.896h0.028c0.205-0.605,0.708-0.988,1.259-0.988
				c0.084,0,0.149,0.01,0.224,0.021v0.772c-0.084-0.02-0.167-0.02-0.279-0.02c-0.578,0-0.988,0.43-1.101,1.045
				c-0.019,0.11-0.027,0.252-0.027,0.383v2.404h-0.82V468.588z"/>
			<path d="M239.46,466.098v1.082h1.175v0.625h-1.175v2.434c0,0.56,0.158,0.876,0.615,0.876c0.224,0,0.354-0.019,0.476-0.056
				l0.037,0.624c-0.157,0.057-0.409,0.112-0.727,0.112c-0.382,0-0.69-0.131-0.886-0.346c-0.225-0.252-0.317-0.652-0.317-1.185
				v-2.461h-0.699v-0.625h0.699v-0.84L239.46,466.098z"/>
			<path d="M242.472,465.912c0,0.279-0.196,0.503-0.522,0.503c-0.298,0-0.494-0.224-0.494-0.503c0-0.28,0.205-0.514,0.513-0.514
				C242.267,465.398,242.472,465.623,242.472,465.912z M241.559,471.691v-4.513h0.819v4.513H241.559z"/>
			<path d="M243.629,470.862c0.251,0.148,0.682,0.316,1.092,0.316c0.587,0,0.866-0.289,0.866-0.672c0-0.392-0.232-0.597-0.83-0.82
				c-0.819-0.299-1.202-0.735-1.202-1.276c0-0.728,0.597-1.324,1.557-1.324c0.457,0,0.856,0.121,1.1,0.28l-0.195,0.597
				c-0.178-0.112-0.503-0.271-0.924-0.271c-0.483,0-0.745,0.279-0.745,0.614c0,0.373,0.261,0.54,0.848,0.774
				c0.773,0.289,1.184,0.68,1.184,1.352c0,0.802-0.625,1.361-1.678,1.361c-0.494,0-0.951-0.131-1.268-0.317L243.629,470.862z"/>
			<path d="M251.518,469.398c0,1.669-1.166,2.396-2.247,2.396c-1.212,0-2.163-0.896-2.163-2.322c0-1.5,0.998-2.387,2.237-2.387
				C250.641,467.086,251.518,468.027,251.518,469.398z M247.947,469.445c0,0.987,0.56,1.733,1.361,1.733
				c0.782,0,1.37-0.736,1.37-1.754c0-0.764-0.383-1.725-1.353-1.725C248.366,467.701,247.947,468.597,247.947,469.445z"/>
			<path d="M252.554,465.072h0.819v6.619h-0.819V465.072z"/>
		</g>
	</g>
	<g>
		<path d="M111.955,97.917v3.382h3.91v-3.382h1.056V106h-1.056v-3.79h-3.91V106h-1.056v-8.083H111.955z"/>
		<path d="M119.191,100.195l1.259,3.43c0.145,0.384,0.288,0.839,0.384,1.187h0.024c0.107-0.348,0.228-0.792,0.372-1.211l1.15-3.406
			h1.115l-1.583,4.138c-0.756,1.991-1.271,2.998-1.991,3.634c-0.526,0.444-1.03,0.624-1.295,0.672l-0.264-0.875
			c0.264-0.084,0.612-0.252,0.924-0.516c0.288-0.228,0.635-0.635,0.887-1.175c0.049-0.108,0.084-0.192,0.084-0.251
			c0-0.06-0.023-0.145-0.084-0.276l-2.135-5.349h1.152V100.195z"/>
		<path d="M124.459,102.09c0-0.744-0.023-1.343-0.048-1.895h0.937l0.06,0.995h0.024c0.419-0.708,1.114-1.115,2.062-1.115
			c1.416,0,2.471,1.188,2.471,2.938c0,2.087-1.282,3.118-2.649,3.118c-0.769,0-1.439-0.336-1.787-0.912h-0.024v3.154h-1.043
			L124.459,102.09L124.459,102.09z M125.502,103.637c0,0.156,0.013,0.3,0.048,0.432c0.192,0.732,0.828,1.235,1.583,1.235
			c1.115,0,1.764-0.911,1.764-2.243c0-1.151-0.611-2.146-1.728-2.146c-0.72,0-1.402,0.503-1.595,1.295
			c-0.036,0.132-0.072,0.288-0.072,0.42V103.637z"/>
		<path d="M136.54,103.05c0,2.146-1.499,3.082-2.89,3.082c-1.56,0-2.783-1.151-2.783-2.986c0-1.931,1.284-3.07,2.878-3.07
			C135.413,100.075,136.54,101.287,136.54,103.05z M131.946,103.109c0,1.271,0.72,2.231,1.751,2.231
			c1.007,0,1.763-0.947,1.763-2.255c0-0.983-0.492-2.219-1.738-2.219C132.486,100.867,131.946,102.018,131.946,103.109z"/>
		<path d="M139.146,98.804v1.392h1.511v0.803h-1.511v3.13c0,0.72,0.204,1.127,0.792,1.127c0.288,0,0.456-0.024,0.61-0.072
			l0.049,0.803c-0.204,0.072-0.528,0.144-0.937,0.144c-0.492,0-0.888-0.168-1.14-0.444c-0.288-0.324-0.408-0.839-0.408-1.523v-3.167
			h-0.899v-0.803h0.899v-1.08L139.146,98.804z"/>
		<path d="M141.847,97.485h1.056v3.634h0.023c0.169-0.3,0.433-0.576,0.756-0.755c0.312-0.18,0.684-0.288,1.08-0.288
			c0.778,0,2.026,0.48,2.026,2.471V106h-1.056v-3.334c0-0.936-0.349-1.715-1.343-1.715c-0.685,0-1.211,0.48-1.415,1.043
			c-0.061,0.156-0.072,0.312-0.072,0.504V106h-1.056V97.485z"/>
		<path d="M152.584,104.609c0,0.503,0.024,0.995,0.084,1.391h-0.946l-0.084-0.731h-0.036c-0.324,0.456-0.947,0.863-1.775,0.863
			c-1.175,0-1.775-0.828-1.775-1.667c0-1.403,1.247-2.171,3.49-2.159v-0.12c0-0.468-0.132-1.343-1.318-1.331
			c-0.552,0-1.115,0.156-1.523,0.432l-0.24-0.708c0.479-0.3,1.188-0.504,1.919-0.504c1.775,0,2.207,1.211,2.207,2.363
			L152.584,104.609L152.584,104.609z M151.565,103.038c-1.151-0.024-2.459,0.18-2.459,1.307c0,0.696,0.456,1.008,0.982,1.008
			c0.769,0,1.26-0.48,1.428-0.972c0.035-0.12,0.048-0.24,0.048-0.336L151.565,103.038L151.565,103.038z"/>
		<path d="M154.291,97.485h1.057V106h-1.057V97.485z"/>
		<path d="M161.201,104.609c0,0.503,0.024,0.995,0.084,1.391h-0.947l-0.084-0.731h-0.036c-0.323,0.456-0.946,0.863-1.774,0.863
			c-1.175,0-1.775-0.828-1.775-1.667c0-1.403,1.247-2.171,3.49-2.159v-0.12c0-0.468-0.132-1.343-1.319-1.331
			c-0.551,0-1.114,0.156-1.522,0.432l-0.24-0.708c0.479-0.3,1.188-0.504,1.919-0.504c1.775,0,2.207,1.211,2.207,2.363
			L161.201,104.609L161.201,104.609z M160.182,103.038c-1.151-0.024-2.459,0.18-2.459,1.307c0,0.696,0.456,1.008,0.982,1.008
			c0.769,0,1.259-0.48,1.427-0.972c0.036-0.12,0.049-0.24,0.049-0.336L160.182,103.038L160.182,103.038z"/>
		<path d="M162.907,101.766c0-0.611-0.024-1.091-0.048-1.571h0.923l0.048,0.947h0.036c0.324-0.552,0.864-1.067,1.835-1.067
			c0.78,0,1.379,0.48,1.631,1.164h0.024c0.18-0.336,0.419-0.576,0.66-0.756c0.348-0.264,0.719-0.408,1.271-0.408
			c0.78,0,1.919,0.504,1.919,2.519V106h-1.031v-3.274c0-1.127-0.42-1.787-1.259-1.787c-0.611,0-1.066,0.443-1.259,0.947
			c-0.048,0.156-0.084,0.336-0.084,0.528V106h-1.032v-3.478c0-0.923-0.408-1.583-1.211-1.583c-0.647,0-1.14,0.527-1.308,1.055
			c-0.061,0.144-0.084,0.336-0.084,0.516V106h-1.031V101.766z"/>
		<path d="M177.772,104.405c0,0.612,0.012,1.14,0.048,1.595h-0.937l-0.06-0.947H176.8c-0.264,0.468-0.887,1.079-1.919,1.079
			c-0.91,0-2.003-0.516-2.003-2.542v-3.394h1.057v3.202c0,1.104,0.348,1.859,1.295,1.859c0.708,0,1.199-0.492,1.391-0.971
			c0.061-0.144,0.096-0.336,0.096-0.54v-3.55h1.057V104.405L177.772,104.405z"/>
		<path d="M179.383,104.933c0.324,0.192,0.875,0.408,1.403,0.408c0.756,0,1.115-0.372,1.115-0.863c0-0.504-0.3-0.768-1.067-1.056
			c-1.055-0.384-1.547-0.947-1.547-1.643c0-0.936,0.769-1.703,2.003-1.703c0.587,0,1.104,0.156,1.415,0.36l-0.252,0.768
			c-0.228-0.144-0.646-0.348-1.187-0.348c-0.624,0-0.959,0.36-0.959,0.792c0,0.479,0.335,0.695,1.091,0.995
			c0.996,0.372,1.522,0.876,1.522,1.739c0,1.031-0.803,1.751-2.158,1.751c-0.637,0-1.224-0.168-1.632-0.408L179.383,104.933z"/>
	</g>
	<g>
		<path d="M140.912,187.012c0.503-0.084,1.163-0.156,2.003-0.156c1.031,0,1.787,0.24,2.268,0.672
			c0.432,0.384,0.708,0.971,0.708,1.691c0,0.731-0.217,1.307-0.624,1.727c-0.564,0.587-1.451,0.888-2.472,0.888
			c-0.312,0-0.6-0.012-0.839-0.072V195h-1.043L140.912,187.012L140.912,187.012z M141.955,190.91
			c0.229,0.06,0.517,0.084,0.863,0.084c1.259,0,2.027-0.624,2.027-1.715c0-1.08-0.769-1.595-1.907-1.595
			c-0.456,0-0.805,0.036-0.983,0.084V190.91z"/>
		<path d="M148.243,187.564c0,0.36-0.252,0.648-0.671,0.648c-0.384,0-0.636-0.288-0.636-0.648s0.264-0.66,0.66-0.66
			C147.979,186.904,148.243,187.192,148.243,187.564z M147.067,195v-5.805h1.056V195H147.067z"/>
		<path d="M151.147,187.804v1.392h1.511v0.803h-1.511v3.13c0,0.72,0.204,1.127,0.792,1.127c0.288,0,0.456-0.024,0.61-0.072
			l0.049,0.803c-0.204,0.072-0.528,0.144-0.937,0.144c-0.492,0-0.888-0.168-1.14-0.444c-0.288-0.324-0.408-0.839-0.408-1.523v-3.167
			h-0.899v-0.803h0.899v-1.08L151.147,187.804z"/>
		<path d="M158.705,193.405c0,0.612,0.012,1.14,0.048,1.595h-0.936l-0.061-0.947h-0.023c-0.265,0.468-0.887,1.079-1.919,1.079
			c-0.911,0-2.003-0.516-2.003-2.542v-3.394h1.056v3.202c0,1.104,0.348,1.859,1.295,1.859c0.708,0,1.199-0.492,1.392-0.971
			c0.06-0.144,0.096-0.336,0.096-0.54v-3.55h1.056V193.405L158.705,193.405z"/>
		<path d="M161.635,187.564c0,0.36-0.252,0.648-0.671,0.648c-0.384,0-0.636-0.288-0.636-0.648s0.264-0.66,0.66-0.66
			C161.371,186.904,161.635,187.192,161.635,187.564z M160.459,195v-5.805h1.057V195H160.459z"/>
		<path d="M164.539,187.804v1.392h1.511v0.803h-1.511v3.13c0,0.72,0.204,1.127,0.792,1.127c0.288,0,0.456-0.024,0.612-0.072
			l0.048,0.803c-0.204,0.072-0.528,0.144-0.936,0.144c-0.492,0-0.889-0.168-1.141-0.444c-0.288-0.324-0.408-0.839-0.408-1.523
			v-3.167h-0.898v-0.803h0.898v-1.08L164.539,187.804z"/>
		<path d="M171.317,193.609c0,0.503,0.023,0.995,0.084,1.391h-0.947l-0.084-0.731h-0.036c-0.324,0.456-0.946,0.863-1.774,0.863
			c-1.176,0-1.775-0.828-1.775-1.667c0-1.403,1.247-2.171,3.49-2.159v-0.12c0-0.468-0.132-1.343-1.319-1.331
			c-0.551,0-1.115,0.156-1.522,0.432l-0.24-0.708c0.479-0.3,1.188-0.504,1.919-0.504c1.775,0,2.207,1.211,2.207,2.363
			L171.317,193.609L171.317,193.609z M170.298,192.038c-1.15-0.024-2.459,0.18-2.459,1.307c0,0.696,0.456,1.008,0.983,1.008
			c0.768,0,1.259-0.48,1.427-0.972c0.036-0.12,0.048-0.24,0.048-0.336L170.298,192.038L170.298,192.038z"/>
		<path d="M173.023,191.006c0-0.684-0.012-1.271-0.048-1.811h0.923l0.048,1.151h0.036c0.264-0.78,0.912-1.271,1.619-1.271
			c0.107,0,0.191,0.012,0.288,0.024v0.996c-0.108-0.024-0.217-0.024-0.359-0.024c-0.744,0-1.271,0.552-1.416,1.343
			c-0.024,0.144-0.036,0.324-0.036,0.492V195h-1.056L173.023,191.006L173.023,191.006z"/>
		<path d="M177.631,189.195l1.26,3.43c0.144,0.384,0.288,0.839,0.384,1.187h0.023c0.108-0.348,0.229-0.792,0.372-1.211l1.151-3.406
			h1.115l-1.583,4.138c-0.756,1.991-1.271,2.998-1.991,3.634c-0.527,0.444-1.031,0.624-1.295,0.672l-0.264-0.875
			c0.264-0.084,0.611-0.252,0.924-0.516c0.288-0.228,0.635-0.635,0.887-1.175c0.048-0.108,0.084-0.192,0.084-0.251
			c0-0.06-0.024-0.144-0.084-0.276l-2.135-5.349h1.151V189.195z"/>
	</g>
	<g>
		<path d="M158.219,348.458l-0.84,2.542h-1.08l2.759-8.083h1.248l2.758,8.083h-1.115l-0.864-2.542H158.219z M160.881,347.643
			l-0.804-2.328c-0.18-0.526-0.3-1.006-0.419-1.475h-0.024c-0.119,0.469-0.239,0.973-0.407,1.463l-0.792,2.338h2.446V347.643z"/>
		<path d="M169.077,342.484v7.017c0,0.517,0.024,1.103,0.048,1.499h-0.936l-0.048-1.007h-0.036
			c-0.312,0.647-1.007,1.139-1.955,1.139c-1.403,0-2.495-1.188-2.495-2.95c-0.012-1.931,1.2-3.105,2.603-3.105
			c0.9,0,1.487,0.42,1.751,0.875h0.024v-3.467H169.077z M168.033,347.559c0-0.133-0.012-0.312-0.048-0.444
			c-0.156-0.66-0.731-1.212-1.523-1.212c-1.091,0-1.738,0.959-1.738,2.231c0,1.175,0.588,2.146,1.715,2.146
			c0.708,0,1.354-0.479,1.547-1.258c0.036-0.145,0.048-0.289,0.048-0.457V347.559z"/>
		<path d="M170.843,347.006c0-0.684-0.012-1.271-0.048-1.811h0.923l0.049,1.15h0.035c0.265-0.779,0.912-1.271,1.619-1.271
			c0.108,0,0.192,0.012,0.288,0.024v0.996c-0.107-0.025-0.216-0.025-0.359-0.025c-0.744,0-1.271,0.553-1.416,1.344
			c-0.024,0.145-0.036,0.324-0.036,0.492V351h-1.057v-3.994H170.843z"/>
		<path d="M175.235,348.29c0.023,1.427,0.923,2.015,1.991,2.015c0.755,0,1.223-0.132,1.606-0.3l0.192,0.757
			c-0.372,0.168-1.02,0.371-1.943,0.371c-1.787,0-2.854-1.188-2.854-2.938s1.031-3.118,2.723-3.118c1.907,0,2.399,1.655,2.399,2.723
			c0,0.216-0.013,0.372-0.036,0.492h-4.079V348.29z M178.33,347.534c0.012-0.66-0.275-1.703-1.463-1.703
			c-1.079,0-1.535,0.971-1.619,1.703H178.33z"/>
		<path d="M180.659,346.766c0-0.611-0.012-1.091-0.048-1.57h0.936l0.061,0.959h0.023c0.288-0.541,0.959-1.08,1.919-1.08
			c0.804,0,2.052,0.48,2.052,2.471V351h-1.057v-3.346c0-0.937-0.348-1.715-1.343-1.715c-0.684,0-1.223,0.492-1.415,1.078
			c-0.048,0.133-0.072,0.312-0.072,0.492V351h-1.056V346.766z"/>
		<path d="M191.396,349.609c0,0.502,0.023,0.994,0.084,1.391h-0.947l-0.084-0.73h-0.036c-0.324,0.455-0.947,0.862-1.774,0.862
			c-1.176,0-1.775-0.827-1.775-1.667c0-1.402,1.247-2.171,3.49-2.158v-0.121c0-0.467-0.132-1.342-1.319-1.33
			c-0.552,0-1.116,0.156-1.522,0.432l-0.24-0.708c0.479-0.3,1.187-0.504,1.919-0.504c1.774,0,2.207,1.211,2.207,2.362
			L191.396,349.609L191.396,349.609z M190.377,348.038c-1.15-0.024-2.458,0.18-2.458,1.308c0,0.695,0.456,1.008,0.983,1.008
			c0.768,0,1.259-0.48,1.427-0.973c0.036-0.119,0.048-0.24,0.048-0.336V348.038L190.377,348.038z"/>
		<path d="M193.103,342.484h1.056V351h-1.056V342.484z"/>
		<path d="M163.076,365.04c-0.468,0.181-1.403,0.444-2.495,0.444c-1.223,0-2.23-0.312-3.021-1.067
			c-0.696-0.672-1.127-1.751-1.127-3.01c0-2.411,1.667-4.175,4.378-4.175c0.935,0,1.679,0.205,2.026,0.373l-0.264,0.852
			c-0.432-0.204-0.971-0.348-1.787-0.348c-1.967,0-3.25,1.223-3.25,3.25c0,2.051,1.223,3.262,3.118,3.262
			c0.684,0,1.151-0.096,1.392-0.217v-2.41h-1.631v-0.84h2.663v3.886H163.076z"/>
		<path d="M164.627,356.885h1.057v8.516h-1.057V356.885z"/>
		<path d="M171.537,364.009c0,0.503,0.024,0.995,0.084,1.392h-0.947l-0.084-0.731h-0.035c-0.324,0.456-0.947,0.863-1.775,0.863
			c-1.175,0-1.775-0.828-1.775-1.667c0-1.403,1.247-2.172,3.49-2.159v-0.12c0-0.468-0.132-1.343-1.319-1.331
			c-0.552,0-1.115,0.156-1.522,0.433l-0.24-0.709c0.479-0.299,1.188-0.504,1.919-0.504c1.775,0,2.207,1.211,2.207,2.363
			L171.537,364.009L171.537,364.009z M170.518,362.438c-1.151-0.023-2.458,0.181-2.458,1.308c0,0.696,0.456,1.008,0.982,1.008
			c0.769,0,1.26-0.479,1.428-0.972c0.035-0.12,0.048-0.24,0.048-0.336V362.438L170.518,362.438z"/>
		<path d="M173.244,361.166c0-0.611-0.012-1.091-0.048-1.571h0.936l0.061,0.96h0.023c0.288-0.541,0.959-1.08,1.919-1.08
			c0.804,0,2.052,0.479,2.052,2.471v3.453h-1.057v-3.346c0-0.936-0.348-1.715-1.343-1.715c-0.684,0-1.223,0.492-1.415,1.079
			c-0.048,0.132-0.072,0.312-0.072,0.492v3.489h-1.056V361.166z"/>
		<path d="M184.905,356.885v7.016c0,0.517,0.024,1.104,0.048,1.5h-0.936l-0.049-1.008h-0.035c-0.312,0.647-1.008,1.14-1.955,1.14
			c-1.403,0-2.495-1.187-2.495-2.95c-0.012-1.932,1.2-3.105,2.603-3.105c0.9,0,1.487,0.42,1.751,0.875h0.024v-3.467H184.905z
			 M183.862,361.958c0-0.132-0.012-0.312-0.048-0.444c-0.156-0.66-0.731-1.211-1.523-1.211c-1.091,0-1.739,0.959-1.739,2.231
			c0,1.175,0.589,2.146,1.716,2.146c0.708,0,1.354-0.479,1.547-1.259c0.036-0.144,0.048-0.288,0.048-0.456V361.958z"/>
	</g>
	<g id="x1">
		
			<radialGradient id="x1_path1_1_" cx="197.3894" cy="971.9736" r="12.5802" gradientTransform="matrix(1.5933 0 0 -0.6358 -70.2265 762.7289)" gradientUnits="userSpaceOnUse">
			<stop  offset="0" style="stop-color:#A2FF5F"/>
			<stop  offset="0.4082" style="stop-color:#A0FF5F"/>
			<stop  offset="0.5552" style="stop-color:#99FD5F"/>
			<stop  offset="0.66" style="stop-color:#8EFB5E"/>
			<stop  offset="0.7448" style="stop-color:#7DF85E"/>
			<stop  offset="0.8174" style="stop-color:#67F35D"/>
			<stop  offset="0.8817" style="stop-color:#4BEE5C"/>
			<stop  offset="0.9398" style="stop-color:#2BE85B"/>
			<stop  offset="0.9915" style="stop-color:#07E05A"/>
			<stop  offset="1" style="stop-color:#00DF5A"/>
		</radialGradient>
		<path id="x1_path1" fill="url(#x1_path1_1_)" stroke="#000000" d="M263.949,144.747c0,4.497-8.812,8.144-19.676,8.144
			c-10.866,0-19.675-3.645-19.675-8.144s8.809-8.142,19.675-8.142C255.137,136.606,263.949,140.249,263.949,144.747z"/>
		<text transform="matrix(1 0 0 1 233.6541 148.2695)" font-family="'MyriadPro-Regular'" font-size="12">CRH</text>
	</g>
</g>
</svg>
