<?xml version="1.0" encoding="UTF-8" standalone="no"?>
<!DOCTYPE svg PUBLIC "-//W3C//DTD SVG 1.1//EN"
 "http://www.w3.org/Graphics/SVG/1.1/DTD/svg11.dtd">
<!-- Generated by graphviz version 2.30.1 (20140821.0912)
 -->
<!-- Title: G Pages: 1 -->
<svg width="432pt" height="112pt"
 viewBox="0.00 0.00 432.00 112.00" xmlns="http://www.w3.org/2000/svg" xmlns:xlink="http://www.w3.org/1999/xlink">
<g id="graph0" class="graph" transform="scale(1 1) rotate(0) translate(4 108)">
<title>G</title>
<polygon fill="white" stroke="white" points="-4,5 -4,-108 429,-108 429,5 -4,5"/>
<!-- f -->
<g id="f" class="node"><title>f</title>
<path fill="none" stroke="black" d="M235.5,-67C235.5,-67 188.5,-67 188.5,-67 182.5,-67 176.5,-61 176.5,-55 176.5,-55 176.5,-43 176.5,-43 176.5,-37 182.5,-31 188.5,-31 188.5,-31 235.5,-31 235.5,-31 241.5,-31 247.5,-37 247.5,-43 247.5,-43 247.5,-55 247.5,-55 247.5,-61 241.5,-67 235.5,-67"/>
<text text-anchor="middle" x="212" y="-46.5" font-family="Times,serif" font-size="10.00">fibril fraction</text>
</g>
<!-- R3_intermediate_r -->
<g id="node9" class="node"><title>R3_intermediate_r</title>
<ellipse fill="black" stroke="black" cx="284" cy="-65" rx="0.036" ry="0.036"/>
</g>
<!-- f&#45;&gt;R3_intermediate_r -->
<g id="edge8" class="edge"><title>f&#45;&gt;R3_intermediate_r</title>
<path fill="none" stroke="black" d="M247.59,-56.9063C264.674,-60.8113 281.889,-64.7461 282.948,-64.9882"/>
</g>
<!-- R4_intermediate_r -->
<g id="node12" class="node"><title>R4_intermediate_r</title>
<ellipse fill="black" stroke="black" cx="284" cy="-40" rx="0.036" ry="0.036"/>
</g>
<!-- f&#45;&gt;R4_intermediate_r -->
<g id="edge11" class="edge"><title>f&#45;&gt;R4_intermediate_r</title>
<path fill="none" stroke="black" d="M247.59,-44.5527C264.674,-42.3562 281.889,-40.1428 282.948,-40.0066"/>
</g>
<!-- R1 -->
<g id="node2" class="node"><title>R1</title>
<polygon fill="none" stroke="black" points="104,-73 90,-73 90,-59 104,-59 104,-73"/>
</g>
<!-- R1_intermediate_p -->
<g id="node4" class="node"><title>R1_intermediate_p</title>
<ellipse fill="black" stroke="black" cx="140" cy="-61" rx="0.036" ry="0.036"/>
</g>
<!-- R1&#45;&gt;R1_intermediate_p -->
<g id="edge2" class="edge"><title>R1&#45;&gt;R1_intermediate_p</title>
<path fill="none" stroke="black" d="M104.05,-65.2622C115.098,-63.9149 137.54,-61.178 138.932,-61.0083"/>
</g>
<!-- R1_empty -->
<g id="node3" class="node"><title>R1_empty</title>
<text text-anchor="middle" x="27" y="-68.5" font-family="Times,serif" font-size="15.00" fill="blue">Ø</text>
</g>
<!-- R1_empty&#45;&gt;R1 -->
<g id="edge1" class="edge"><title>R1_empty&#45;&gt;R1</title>
<path fill="none" stroke="black" d="M54.0961,-69.6974C67.13,-68.5474 81.8045,-67.2525 89.8681,-66.5411"/>
</g>
<!-- R1_intermediate_p&#45;&gt;f -->
<g id="edge3" class="edge"><title>R1_intermediate_p&#45;&gt;f</title>
<path fill="none" stroke="black" d="M141.051,-60.9913C141.897,-60.8462 153.215,-58.9061 166.509,-56.6271"/>
<polygon fill="black" stroke="black" points="167.152,-60.068 176.417,-54.9286 165.969,-53.1686 167.152,-60.068"/>
</g>
<!-- R2 -->
<g id="node5" class="node"><title>R2</title>
<polygon fill="none" stroke="black" points="104,-36 90,-36 90,-22 104,-22 104,-36"/>
</g>
<!-- R2_intermediate_p -->
<g id="node7" class="node"><title>R2_intermediate_p</title>
<ellipse fill="black" stroke="black" cx="140" cy="-38" rx="0.036" ry="0.036"/>
</g>
<!-- R2&#45;&gt;R2_intermediate_p -->
<g id="edge5" class="edge"><title>R2&#45;&gt;R2_intermediate_p</title>
<path fill="none" stroke="black" d="M104.05,-30.328C115.098,-32.7532 137.54,-37.6796 138.932,-37.9851"/>
</g>
<!-- R2_empty -->
<g id="node6" class="node"><title>R2_empty</title>
<text text-anchor="middle" x="27" y="-14.5" font-family="Times,serif" font-size="15.00" fill="blue">Ø</text>
</g>
<!-- R2_empty&#45;&gt;R2 -->
<g id="edge4" class="edge"><title>R2_empty&#45;&gt;R2</title>
<path fill="none" stroke="black" d="M54.0961,-22.2214C67.13,-24.3299 81.8045,-26.7037 89.8681,-28.0081"/>
</g>
<!-- R2_intermediate_p&#45;&gt;f -->
<g id="edge6" class="edge"><title>R2_intermediate_p&#45;&gt;f</title>
<path fill="none" stroke="black" d="M141.051,-38.008C141.897,-38.1409 153.215,-39.9195 166.509,-42.0085"/>
<polygon fill="black" stroke="black" points="165.994,-45.4706 176.417,-43.5655 167.081,-38.5554 165.994,-45.4706"/>
</g>
<!-- R3 -->
<g id="node8" class="node"><title>R3</title>
<polygon fill="none" stroke="black" points="334,-87 320,-87 320,-73 334,-73 334,-87"/>
</g>
<!-- R3_empty -->
<g id="node10" class="node"><title>R3_empty</title>
<text text-anchor="middle" x="397" y="-82.5" font-family="Times,serif" font-size="15.00" fill="blue">Ø</text>
</g>
<!-- R3&#45;&gt;R3_empty -->
<g id="edge9" class="edge"><title>R3&#45;&gt;R3_empty</title>
<path fill="none" stroke="black" d="M334.275,-80.5537C340.278,-81.0834 349.849,-81.9279 359.68,-82.7953"/>
<polygon fill="black" stroke="black" points="359.611,-86.3027 369.88,-83.6953 360.226,-79.3298 359.611,-86.3027"/>
</g>
<!-- R3_intermediate_r&#45;&gt;R3 -->
<g id="edge7" class="edge"><title>R3_intermediate_r&#45;&gt;R3</title>
<path fill="none" stroke="black" d="M285.118,-65.043C286.921,-65.7029 309.016,-73.7863 319.95,-77.7867"/>
</g>
<!-- R4 -->
<g id="node11" class="node"><title>R4</title>
<polygon fill="none" stroke="black" points="334,-44 320,-44 320,-30 334,-30 334,-44"/>
</g>
<!-- R4_empty -->
<g id="node13" class="node"><title>R4_empty</title>
<text text-anchor="middle" x="397" y="-28.5" font-family="Times,serif" font-size="15.00" fill="blue">Ø</text>
</g>
<!-- R4&#45;&gt;R4_empty -->
<g id="edge12" class="edge"><title>R4&#45;&gt;R4_empty</title>
<path fill="none" stroke="black" d="M334.275,-36.5386C340.278,-36.0972 349.849,-35.3935 359.68,-34.6706"/>
<polygon fill="black" stroke="black" points="360.163,-38.1446 369.88,-33.9206 359.65,-31.1634 360.163,-38.1446"/>
</g>
<!-- R4_intermediate_r&#45;&gt;R4 -->
<g id="edge10" class="edge"><title>R4_intermediate_r&#45;&gt;R4</title>
<path fill="none" stroke="black" d="M285.118,-39.9914C286.921,-39.8594 309.016,-38.2427 319.95,-37.4427"/>
</g>
</g>
</svg>
