<?xml version="1.0" encoding="UTF-8" standalone="no"?>
<!DOCTYPE svg PUBLIC "-//W3C//DTD SVG 1.1//EN"
 "http://www.w3.org/Graphics/SVG/1.1/DTD/svg11.dtd">
<!-- Generated by graphviz version 2.24.0 (20090616.2323)
 -->
<!-- Title: G Pages: 1 -->
<svg width="1928pt" height="622pt"
 viewBox="0.00 0.00 1928.00 622.00" xmlns="http://www.w3.org/2000/svg" xmlns:xlink="http://www.w3.org/1999/xlink">
<g id="graph1" class="graph" transform="scale(1 1) rotate(0) translate(4 618)">
<title>G</title>
<polygon fill="white" stroke="white" points="-4,5 -4,-618 1925,-618 1925,5 -4,5"/>
<!-- s21 -->
<g id="node1" class="node"><title>s21</title>
<polyline fill="none" stroke="black" points="528,-347 498,-347 "/>
<path fill="none" stroke="black" d="M498,-347C492,-347 486,-341 486,-335"/>
<polyline fill="none" stroke="black" points="486,-335 486,-323 "/>
<path fill="none" stroke="black" d="M486,-323C486,-317 492,-311 498,-311"/>
<polyline fill="none" stroke="black" points="498,-311 528,-311 "/>
<path fill="none" stroke="black" d="M528,-311C534,-311 540,-317 540,-323"/>
<polyline fill="none" stroke="black" points="540,-323 540,-335 "/>
<path fill="none" stroke="black" d="M540,-335C540,-341 534,-347 528,-347"/>
<text text-anchor="middle" x="513" y="-326.5" font-family="Times Roman,serif" font-size="10.00">Akt</text>
</g>
<!-- r7_intermediate_r -->
<g id="node96" class="node"><title>r7_intermediate_r</title>
<ellipse fill="black" stroke="black" cx="585" cy="-329" rx="0.036" ry="0.036"/>
</g>
<!-- s21&#45;&gt;r7_intermediate_r -->
<g id="edge92" class="edge"><title>s21&#45;&gt;r7_intermediate_r</title>
<path fill="none" stroke="black" d="M550.606,-329C567.401,-329 583.729,-329 584.929,-329"/>
<polygon fill="black" stroke="black" points="550.22,-325.5 540.22,-329 550.22,-332.5 550.22,-325.5"/>
</g>
<!-- s22 -->
<g id="node2" class="node"><title>s22</title>
<polyline fill="none" stroke="black" points="979,-414 949,-414 "/>
<path fill="none" stroke="black" d="M949,-414C943,-414 937,-408 937,-402"/>
<polyline fill="none" stroke="black" points="937,-402 937,-390 "/>
<path fill="none" stroke="black" d="M937,-390C937,-384 943,-378 949,-378"/>
<polyline fill="none" stroke="black" points="949,-378 979,-378 "/>
<path fill="none" stroke="black" d="M979,-378C985,-378 991,-384 991,-390"/>
<polyline fill="none" stroke="black" points="991,-390 991,-402 "/>
<path fill="none" stroke="black" d="M991,-402C991,-408 985,-414 979,-414"/>
<text text-anchor="middle" x="964" y="-393.5" font-family="Times Roman,serif" font-size="10.00">Akt</text>
</g>
<!-- r8_intermediate_m -->
<g id="node31" class="node"><title>r8_intermediate_m</title>
<ellipse fill="black" stroke="black" cx="1060" cy="-477" rx="0.036" ry="0.036"/>
</g>
<!-- s22&#45;&gt;r8_intermediate_m -->
<g id="edge12" class="edge"><title>s22&#45;&gt;r8_intermediate_m</title>
<path fill="none" stroke="black" d="M991.233,-404.523C1002.21,-408.863 1014.5,-414.952 1024,-423 1045.32,-441.062 1059.12,-474.807 1059.96,-476.898"/>
</g>
<!-- s25 -->
<g id="node3" class="node"><title>s25</title>
<polyline fill="none" stroke="black" points="997,-160 931,-160 "/>
<path fill="none" stroke="black" d="M931,-160C925,-160 919,-154 919,-148"/>
<polyline fill="none" stroke="black" points="919,-148 919,-136 "/>
<path fill="none" stroke="black" d="M919,-136C919,-130 925,-124 931,-124"/>
<polyline fill="none" stroke="black" points="931,-124 997,-124 "/>
<path fill="none" stroke="black" d="M997,-124C1003,-124 1009,-130 1009,-136"/>
<polyline fill="none" stroke="black" points="1009,-136 1009,-148 "/>
<path fill="none" stroke="black" d="M1009,-148C1009,-154 1003,-160 997,-160"/>
<text text-anchor="middle" x="964" y="-139.5" font-family="Times Roman,serif" font-size="10.00">MEK1_minus_2</text>
</g>
<!-- r9_intermediate_r -->
<g id="node39" class="node"><title>r9_intermediate_r</title>
<ellipse fill="black" stroke="black" cx="1060" cy="-206" rx="0.036" ry="0.036"/>
</g>
<!-- s25&#45;&gt;r9_intermediate_r -->
<g id="edge24" class="edge"><title>s25&#45;&gt;r9_intermediate_r</title>
<path fill="none" stroke="black" d="M1010.01,-165.077C1014.83,-167.925 1019.58,-170.922 1024,-174 1041.02,-185.851 1058.85,-204.772 1059.95,-205.943"/>
<polygon fill="black" stroke="black" points="1011.73,-162.029 1001.3,-160.128 1008.27,-168.114 1011.73,-162.029"/>
</g>
<!-- s26 -->
<g id="node4" class="node"><title>s26</title>
<polyline fill="none" stroke="black" points="1356,-321 1290,-321 "/>
<path fill="none" stroke="black" d="M1290,-321C1284,-321 1278,-315 1278,-309"/>
<polyline fill="none" stroke="black" points="1278,-309 1278,-297 "/>
<path fill="none" stroke="black" d="M1278,-297C1278,-291 1284,-285 1290,-285"/>
<polyline fill="none" stroke="black" points="1290,-285 1356,-285 "/>
<path fill="none" stroke="black" d="M1356,-285C1362,-285 1368,-291 1368,-297"/>
<polyline fill="none" stroke="black" points="1368,-297 1368,-309 "/>
<path fill="none" stroke="black" d="M1368,-309C1368,-315 1362,-321 1356,-321"/>
<text text-anchor="middle" x="1323" y="-300.5" font-family="Times Roman,serif" font-size="10.00">MEK1_minus_2</text>
</g>
<!-- r14_intermediate_m -->
<g id="node65" class="node"><title>r14_intermediate_m</title>
<ellipse fill="black" stroke="black" cx="1404" cy="-290" rx="0.036" ry="0.036"/>
</g>
<!-- s26&#45;&gt;r14_intermediate_m -->
<g id="edge56" class="edge"><title>s26&#45;&gt;r14_intermediate_m</title>
<path fill="none" stroke="black" d="M1368.24,-295.74C1386.21,-292.855 1402.92,-290.173 1403.95,-290.008"/>
</g>
<!-- s27 -->
<g id="node5" class="node"><title>s27</title>
<ellipse fill="none" stroke="black" cx="1151" cy="-260" rx="54.7872" ry="18"/>
<text text-anchor="middle" x="1151" y="-257.5" font-family="Times Roman,serif" font-size="10.00">ERK1_minus_2</text>
</g>
<!-- r14_intermediate_r -->
<g id="node59" class="node"><title>r14_intermediate_r</title>
<ellipse fill="black" stroke="black" cx="1242" cy="-260" rx="0.036" ry="0.036"/>
</g>
<!-- s27&#45;&gt;r14_intermediate_r -->
<g id="edge48" class="edge"><title>s27&#45;&gt;r14_intermediate_r</title>
<path fill="none" stroke="black" d="M1216.16,-260C1230.19,-260 1241.14,-260 1241.95,-260"/>
<polygon fill="black" stroke="black" points="1216.03,-256.5 1206.03,-260 1216.03,-263.5 1216.03,-256.5"/>
</g>
<!-- s28 -->
<g id="node6" class="node"><title>s28</title>
<ellipse fill="none" stroke="black" cx="1495" cy="-260" rx="54.7872" ry="18"/>
<text text-anchor="middle" x="1495" y="-257.5" font-family="Times Roman,serif" font-size="10.00">ERK1_minus_2</text>
</g>
<!-- r15_intermediate_r -->
<g id="node69" class="node"><title>r15_intermediate_r</title>
<ellipse fill="black" stroke="black" cx="1586" cy="-260" rx="0.036" ry="0.036"/>
</g>
<!-- s28&#45;&gt;r15_intermediate_r -->
<g id="edge60" class="edge"><title>s28&#45;&gt;r15_intermediate_r</title>
<path fill="none" stroke="black" d="M1560.16,-260C1574.19,-260 1585.14,-260 1585.95,-260"/>
<polygon fill="black" stroke="black" points="1560.03,-256.5 1550.03,-260 1560.03,-263.5 1560.03,-256.5"/>
</g>
<!-- s29 -->
<g id="node7" class="node"><title>s29</title>
<polyline fill="none" stroke="black" points="343,-498 313,-498 "/>
<path fill="none" stroke="black" d="M313,-498C307,-498 301,-492 301,-486"/>
<polyline fill="none" stroke="black" points="301,-486 301,-474 "/>
<path fill="none" stroke="black" d="M301,-474C301,-468 307,-462 313,-462"/>
<polyline fill="none" stroke="black" points="313,-462 343,-462 "/>
<path fill="none" stroke="black" d="M343,-462C349,-462 355,-468 355,-474"/>
<polyline fill="none" stroke="black" points="355,-474 355,-486 "/>
<path fill="none" stroke="black" d="M355,-486C355,-492 349,-498 343,-498"/>
<text text-anchor="middle" x="328" y="-477.5" font-family="Times Roman,serif" font-size="10.00">RKIP</text>
</g>
<!-- s29&#45;&gt;r8_intermediate_m -->
<g id="edge14" class="edge"><title>s29&#45;&gt;r8_intermediate_m</title>
<path fill="none" stroke="black" d="M355.3,-497.483C390.359,-518.217 453.763,-550 513,-550 513,-550 513,-550 867,-550 937.287,-550 964.138,-567.835 1024,-531 1047.8,-516.356 1059.27,-479.407 1059.97,-477.112"/>
</g>
<!-- r11_intermediate_r -->
<g id="node49" class="node"><title>r11_intermediate_r</title>
<ellipse fill="black" stroke="black" cx="441" cy="-342" rx="0.036" ry="0.036"/>
</g>
<!-- s29&#45;&gt;r11_intermediate_r -->
<g id="edge36" class="edge"><title>s29&#45;&gt;r11_intermediate_r</title>
<path fill="none" stroke="black" d="M349.224,-454.08C381.404,-414.781 439.033,-344.402 440.951,-342.06"/>
<polygon fill="black" stroke="black" points="346.4,-452.004 342.773,-461.959 351.816,-456.439 346.4,-452.004"/>
</g>
<!-- s30 -->
<g id="node8" class="node"><title>s30</title>
<polyline fill="none" stroke="black" points="741,-291 711,-291 "/>
<path fill="none" stroke="black" d="M711,-291C705,-291 699,-285 699,-279"/>
<polyline fill="none" stroke="black" points="699,-279 699,-267 "/>
<path fill="none" stroke="black" d="M699,-267C699,-261 705,-255 711,-255"/>
<polyline fill="none" stroke="black" points="711,-255 741,-255 "/>
<path fill="none" stroke="black" d="M741,-255C747,-255 753,-261 753,-267"/>
<polyline fill="none" stroke="black" points="753,-267 753,-279 "/>
<path fill="none" stroke="black" d="M753,-279C753,-285 747,-291 741,-291"/>
<text text-anchor="middle" x="726" y="-270.5" font-family="Times Roman,serif" font-size="10.00">RKIP</text>
</g>
<!-- s31 -->
<g id="node9" class="node"><title>s31</title>
<polyline fill="none" stroke="black" points="979,-522 949,-522 "/>
<path fill="none" stroke="black" d="M949,-522C943,-522 937,-516 937,-510"/>
<polyline fill="none" stroke="black" points="937,-510 937,-498 "/>
<path fill="none" stroke="black" d="M937,-498C937,-492 943,-486 949,-486"/>
<polyline fill="none" stroke="black" points="949,-486 979,-486 "/>
<path fill="none" stroke="black" d="M979,-486C985,-486 991,-492 991,-498"/>
<polyline fill="none" stroke="black" points="991,-498 991,-510 "/>
<path fill="none" stroke="black" d="M991,-510C991,-516 985,-522 979,-522"/>
<text text-anchor="middle" x="964" y="-501.5" font-family="Times Roman,serif" font-size="10.00">PP2A</text>
</g>
<!-- s31&#45;&gt;r8_intermediate_m -->
<g id="edge20" class="edge"><title>s31&#45;&gt;r8_intermediate_m</title>
<path fill="none" stroke="black" d="M991.253,-496.335C1018.75,-488.602 1057.49,-477.706 1059.88,-477.033"/>
</g>
<!-- s33 -->
<g id="node10" class="node"><title>s33</title>
<polyline fill="none" stroke="black" points="1012,-468 916,-468 "/>
<path fill="none" stroke="black" d="M916,-468C910,-468 904,-462 904,-456"/>
<polyline fill="none" stroke="black" points="904,-456 904,-444 "/>
<path fill="none" stroke="black" d="M904,-444C904,-438 910,-432 916,-432"/>
<polyline fill="none" stroke="black" points="916,-432 1012,-432 "/>
<path fill="none" stroke="black" d="M1012,-432C1018,-432 1024,-438 1024,-444"/>
<polyline fill="none" stroke="black" points="1024,-444 1024,-456 "/>
<path fill="none" stroke="black" d="M1024,-456C1024,-462 1018,-468 1012,-468"/>
<text text-anchor="middle" x="964" y="-447.5" font-family="Times Roman,serif" font-size="10.00">14_minus_3_minus_3</text>
</g>
<!-- s33&#45;&gt;r8_intermediate_m -->
<g id="edge18" class="edge"><title>s33&#45;&gt;r8_intermediate_m</title>
<path fill="none" stroke="black" d="M1024.25,-466.946C1042.94,-472.201 1058.97,-476.71 1059.95,-476.987"/>
</g>
<!-- s34 -->
<g id="node11" class="node"><title>s34</title>
<ellipse fill="none" stroke="black" cx="1814" cy="-260" rx="104.766" ry="18"/>
<text text-anchor="middle" x="1814" y="-257.5" font-family="Times Roman,serif" font-size="10.00">Mitogenesis_br_Differentiation</text>
</g>
<!-- s23 -->
<g id="node12" class="node"><title>s23</title>
<polyline fill="none" stroke="black" points="753,-614 699,-614 "/>
<path fill="none" stroke="black" d="M699,-614C693,-614 687,-608 687,-602"/>
<polyline fill="none" stroke="black" points="687,-602 687,-590 "/>
<path fill="none" stroke="black" d="M687,-590C687,-584 693,-578 699,-578"/>
<polyline fill="none" stroke="black" points="699,-578 753,-578 "/>
<path fill="none" stroke="black" d="M753,-578C759,-578 765,-584 765,-590"/>
<polyline fill="none" stroke="black" points="765,-590 765,-602 "/>
<path fill="none" stroke="black" d="M765,-602C765,-608 759,-614 753,-614"/>
<text text-anchor="middle" x="726" y="-593.5" font-family="Times Roman,serif" font-size="10.00">Raf_minus_1</text>
</g>
<!-- r8_intermediate_r -->
<g id="node25" class="node"><title>r8_intermediate_r</title>
<ellipse fill="black" stroke="black" cx="867" cy="-590" rx="0.036" ry="0.036"/>
</g>
<!-- s23&#45;&gt;r8_intermediate_r -->
<g id="edge4" class="edge"><title>s23&#45;&gt;r8_intermediate_r</title>
<path fill="none" stroke="black" d="M775.81,-593.88C815.7,-592.183 865.286,-590.073 866.957,-590.002"/>
<polygon fill="black" stroke="black" points="775.494,-590.391 765.652,-594.313 775.791,-597.384 775.494,-590.391"/>
</g>
<!-- s24 -->
<g id="node13" class="node"><title>s24</title>
<polyline fill="none" stroke="black" points="1178,-433 1124,-433 "/>
<path fill="none" stroke="black" d="M1124,-433C1118,-433 1112,-427 1112,-421"/>
<polyline fill="none" stroke="black" points="1112,-421 1112,-409 "/>
<path fill="none" stroke="black" d="M1112,-409C1112,-403 1118,-397 1124,-397"/>
<polyline fill="none" stroke="black" points="1124,-397 1178,-397 "/>
<path fill="none" stroke="black" d="M1178,-397C1184,-397 1190,-403 1190,-409"/>
<polyline fill="none" stroke="black" points="1190,-409 1190,-421 "/>
<path fill="none" stroke="black" d="M1190,-421C1190,-427 1184,-433 1178,-433"/>
<text text-anchor="middle" x="1151" y="-412.5" font-family="Times Roman,serif" font-size="10.00">Raf_minus_1</text>
</g>
<!-- r9_intermediate_m -->
<g id="node45" class="node"><title>r9_intermediate_m</title>
<ellipse fill="black" stroke="black" cx="1242" cy="-368" rx="0.036" ry="0.036"/>
</g>
<!-- s24&#45;&gt;r9_intermediate_m -->
<g id="edge32" class="edge"><title>s24&#45;&gt;r9_intermediate_m</title>
<path fill="none" stroke="black" d="M1185.92,-396.963C1210.78,-384.123 1240.1,-368.979 1241.91,-368.045"/>
</g>
<!-- s3 -->
<g id="node14" class="node"><title>s3</title>
<polyline fill="none" stroke="black" points="168,-63 138,-63 "/>
<path fill="none" stroke="black" d="M138,-63C132,-63 126,-57 126,-51"/>
<polyline fill="none" stroke="black" points="126,-51 126,-39 "/>
<path fill="none" stroke="black" d="M126,-39C126,-33 132,-27 138,-27"/>
<polyline fill="none" stroke="black" points="138,-27 168,-27 "/>
<path fill="none" stroke="black" d="M168,-27C174,-27 180,-33 180,-39"/>
<polyline fill="none" stroke="black" points="180,-39 180,-51 "/>
<path fill="none" stroke="black" d="M180,-51C180,-57 174,-63 168,-63"/>
<text text-anchor="middle" x="153" y="-42.5" font-family="Times Roman,serif" font-size="10.00">EGF</text>
</g>
<!-- r17_intermediate_m -->
<g id="node82" class="node"><title>r17_intermediate_m</title>
<ellipse fill="black" stroke="black" cx="216" cy="-57" rx="0.036" ry="0.036"/>
</g>
<!-- s3&#45;&gt;r17_intermediate_m -->
<g id="edge76" class="edge"><title>s3&#45;&gt;r17_intermediate_m</title>
<path fill="none" stroke="black" d="M180.083,-50.1587C196.625,-53.3095 214.824,-56.776 215.945,-56.9896"/>
</g>
<!-- s123 -->
<g id="node15" class="node"><title>s123</title>
<polyline fill="none" stroke="black" points="42,-106 12,-106 "/>
<path fill="none" stroke="black" d="M12,-106C6,-106 2.07242e-14,-100 1.65793e-14,-94"/>
<polyline fill="none" stroke="black" points="1.65793e-14,-94 8.28967e-15,-82 "/>
<path fill="none" stroke="black" d="M8.28967e-15,-82C4.14483e-15,-76 6,-70 12,-70"/>
<polyline fill="none" stroke="black" points="12,-70 42,-70 "/>
<path fill="none" stroke="black" d="M42,-70C48,-70 54,-76 54,-82"/>
<polyline fill="none" stroke="black" points="54,-82 54,-94 "/>
<path fill="none" stroke="black" d="M54,-94C54,-100 48,-106 42,-106"/>
<text text-anchor="middle" x="27" y="-85.5" font-family="Times Roman,serif" font-size="10.00">EGFR</text>
</g>
<!-- r17_intermediate_r -->
<g id="node76" class="node"><title>r17_intermediate_r</title>
<ellipse fill="black" stroke="black" cx="90" cy="-88" rx="0.036" ry="0.036"/>
</g>
<!-- s123&#45;&gt;r17_intermediate_r -->
<g id="edge68" class="edge"><title>s123&#45;&gt;r17_intermediate_r</title>
<path fill="none" stroke="black" d="M64.2115,-88C77.3137,-88 89.0519,-88 89.9454,-88"/>
<polygon fill="black" stroke="black" points="64.0833,-84.5001 54.0833,-88 64.0833,-91.5001 64.0833,-84.5001"/>
</g>
<!-- s124 -->
<g id="node16" class="node"><title>s124</title>
<polyline fill="none" stroke="black" points="979,-360 949,-360 "/>
<path fill="none" stroke="black" d="M949,-360C943,-360 937,-354 937,-348"/>
<polyline fill="none" stroke="black" points="937,-348 937,-336 "/>
<path fill="none" stroke="black" d="M937,-336C937,-330 943,-324 949,-324"/>
<polyline fill="none" stroke="black" points="949,-324 979,-324 "/>
<path fill="none" stroke="black" d="M979,-324C985,-324 991,-330 991,-336"/>
<polyline fill="none" stroke="black" points="991,-336 991,-348 "/>
<path fill="none" stroke="black" d="M991,-348C991,-354 985,-360 979,-360"/>
<text text-anchor="middle" x="964" y="-339.5" font-family="Times Roman,serif" font-size="10.00">Ras</text>
</g>
<!-- s124&#45;&gt;r8_intermediate_m -->
<g id="edge16" class="edge"><title>s124&#45;&gt;r8_intermediate_m</title>
<path fill="none" stroke="black" d="M991.148,-348.898C1002.64,-353.04 1015.35,-359.423 1024,-369 1057.39,-405.953 1059.93,-474.806 1060,-476.949"/>
</g>
<!-- r4_intermediate_r -->
<g id="node106" class="node"><title>r4_intermediate_r</title>
<ellipse fill="black" stroke="black" cx="1060" cy="-288" rx="0.036" ry="0.036"/>
</g>
<!-- s124&#45;&gt;r4_intermediate_r -->
<g id="edge104" class="edge"><title>s124&#45;&gt;r4_intermediate_r</title>
<path fill="none" stroke="black" d="M1000.36,-327.193C1008.31,-323.526 1016.58,-319.382 1024,-315 1040.69,-305.152 1058.83,-289.046 1059.95,-288.049"/>
<polygon fill="black" stroke="black" points="998.928,-323.997 991.218,-331.263 1001.78,-330.391 998.928,-323.997"/>
</g>
<!-- s125 -->
<g id="node17" class="node"><title>s125</title>
<ellipse fill="none" stroke="black" cx="964" cy="-288" rx="18" ry="18"/>
<text text-anchor="middle" x="964" y="-285.5" font-family="Times Roman,serif" font-size="10.00">GDP</text>
</g>
<!-- s125&#45;&gt;r4_intermediate_r -->
<g id="edge106" class="edge"><title>s125&#45;&gt;r4_intermediate_r</title>
<path fill="none" stroke="black" d="M992.285,-288C1019.6,-288 1057.24,-288 1059.86,-288"/>
<polygon fill="black" stroke="black" points="992.057,-284.5 982.057,-288 992.057,-291.5 992.057,-284.5"/>
</g>
<!-- s126 -->
<g id="node18" class="node"><title>s126</title>
<ellipse fill="none" stroke="black" cx="964" cy="-234" rx="18" ry="18"/>
<text text-anchor="middle" x="964" y="-231.5" font-family="Times Roman,serif" font-size="10.00">GTP</text>
</g>
<!-- s127 -->
<g id="node19" class="node"><title>s127</title>
<polyline fill="none" stroke="black" points="528,-142 498,-142 "/>
<path fill="none" stroke="black" d="M498,-142C492,-142 486,-136 486,-130"/>
<polyline fill="none" stroke="black" points="486,-130 486,-118 "/>
<path fill="none" stroke="black" d="M486,-118C486,-112 492,-106 498,-106"/>
<polyline fill="none" stroke="black" points="498,-106 528,-106 "/>
<path fill="none" stroke="black" d="M528,-106C534,-106 540,-112 540,-118"/>
<polyline fill="none" stroke="black" points="540,-118 540,-130 "/>
<path fill="none" stroke="black" d="M540,-130C540,-136 534,-142 528,-142"/>
<text text-anchor="middle" x="513" y="-121.5" font-family="Times Roman,serif" font-size="10.00">PKC</text>
</g>
<!-- r11_intermediate_m -->
<g id="node55" class="node"><title>r11_intermediate_m</title>
<ellipse fill="black" stroke="black" cx="585" cy="-202" rx="0.036" ry="0.036"/>
</g>
<!-- s127&#45;&gt;r11_intermediate_m -->
<g id="edge44" class="edge"><title>s127&#45;&gt;r11_intermediate_m</title>
<path fill="none" stroke="black" d="M529.699,-142.091C550.304,-164.413 582.886,-199.709 584.902,-201.894"/>
</g>
<!-- r6_intermediate_r -->
<g id="node86" class="node"><title>r6_intermediate_r</title>
<ellipse fill="black" stroke="black" cx="585" cy="-124" rx="0.036" ry="0.036"/>
</g>
<!-- s127&#45;&gt;r6_intermediate_r -->
<g id="edge80" class="edge"><title>s127&#45;&gt;r6_intermediate_r</title>
<path fill="none" stroke="black" d="M550.606,-124C567.401,-124 583.729,-124 584.929,-124"/>
<polygon fill="black" stroke="black" points="550.22,-120.5 540.22,-124 550.22,-127.5 550.22,-120.5"/>
</g>
<!-- s129 -->
<g id="node20" class="node"><title>s129</title>
<polyline fill="none" stroke="black" points="343,-106 313,-106 "/>
<path fill="none" stroke="black" d="M313,-106C307,-106 301,-100 301,-94"/>
<polyline fill="none" stroke="black" points="301,-94 301,-82 "/>
<path fill="none" stroke="black" d="M301,-82C301,-76 307,-70 313,-70"/>
<polyline fill="none" stroke="black" points="313,-70 343,-70 "/>
<path fill="none" stroke="black" d="M343,-70C349,-70 355,-76 355,-82"/>
<polyline fill="none" stroke="black" points="355,-82 355,-94 "/>
<path fill="none" stroke="black" d="M355,-94C355,-100 349,-106 343,-106"/>
<text text-anchor="middle" x="328" y="-85.5" font-family="Times Roman,serif" font-size="10.00">EGFR</text>
</g>
<!-- re11_intermediate_r -->
<g id="node118" class="node"><title>re11_intermediate_r</title>
<ellipse fill="black" stroke="black" cx="441" cy="-61" rx="0.036" ry="0.036"/>
</g>
<!-- s129&#45;&gt;re11_intermediate_r -->
<g id="edge120" class="edge"><title>s129&#45;&gt;re11_intermediate_r</title>
<path fill="none" stroke="black" d="M355.066,-81.5328C387.452,-73.7947 437.737,-61.7796 440.848,-61.0362"/>
</g>
<!-- s142 -->
<g id="node21" class="node"><title>s142</title>
<ellipse fill="none" stroke="black" cx="513" cy="-18" rx="35.0885" ry="18"/>
<text text-anchor="middle" x="513" y="-15.5" font-family="Times Roman,serif" font-size="10.00">erlotinib</text>
</g>
<!-- re11_intermediate_m -->
<g id="node125" class="node"><title>re11_intermediate_m</title>
<ellipse fill="black" stroke="black" cx="585" cy="-30" rx="0.036" ry="0.036"/>
</g>
<!-- s142&#45;&gt;re11_intermediate_m -->
<g id="edge130" class="edge"><title>s142&#45;&gt;re11_intermediate_m</title>
<path fill="none" stroke="black" d="M546.471,-23.5784C564.685,-26.6142 583.768,-29.7947 584.943,-29.9905"/>
</g>
<!-- s144 -->
<g id="node22" class="node"><title>s144</title>
<ellipse fill="none" stroke="black" cx="726" cy="-167" rx="104.034" ry="18"/>
<text text-anchor="middle" x="726" y="-164.5" font-family="Times Roman,serif" font-size="10.00">Complex_br_(EGFR/../_br_GAP)</text>
</g>
<!-- r6_intermediate_m -->
<g id="node92" class="node"><title>r6_intermediate_m</title>
<ellipse fill="black" stroke="black" cx="867" cy="-130" rx="0.036" ry="0.036"/>
</g>
<!-- s144&#45;&gt;r6_intermediate_m -->
<g id="edge88" class="edge"><title>s144&#45;&gt;r6_intermediate_m</title>
<path fill="none" stroke="black" d="M784.059,-152.036C799.035,-148.146 815.124,-143.941 830,-140 845.952,-135.774 865.721,-130.351 866.941,-130.016"/>
</g>
<!-- r7_intermediate_m -->
<g id="node102" class="node"><title>r7_intermediate_m</title>
<ellipse fill="black" stroke="black" cx="867" cy="-303" rx="0.036" ry="0.036"/>
</g>
<!-- s144&#45;&gt;r7_intermediate_m -->
<g id="edge100" class="edge"><title>s144&#45;&gt;r7_intermediate_m</title>
<path fill="none" stroke="black" d="M805.595,-178.642C814.548,-182.459 822.963,-187.46 830,-194 848.445,-211.141 866.429,-300.156 866.987,-302.934"/>
</g>
<!-- r4_intermediate_m -->
<g id="node114" class="node"><title>r4_intermediate_m</title>
<ellipse fill="black" stroke="black" cx="867" cy="-160" rx="0.036" ry="0.036"/>
</g>
<!-- s144&#45;&gt;r4_intermediate_m -->
<g id="edge116" class="edge"><title>s144&#45;&gt;r4_intermediate_m</title>
<path fill="none" stroke="black" d="M826.217,-162.025C848.466,-160.92 865.881,-160.056 866.948,-160.003"/>
</g>
<!-- s147 -->
<g id="node23" class="node"><title>s147</title>
<ellipse fill="none" stroke="black" cx="328" cy="-34" rx="75.2158" ry="18"/>
<text text-anchor="middle" x="328" y="-31.5" font-family="Times Roman,serif" font-size="10.00">Complex(Grb2/../PLC)</text>
</g>
<!-- s147&#45;&gt;re11_intermediate_r -->
<g id="edge122" class="edge"><title>s147&#45;&gt;re11_intermediate_r</title>
<path fill="none" stroke="black" d="M381.522,-46.7884C409.816,-53.549 439.109,-60.5482 440.912,-60.979"/>
</g>
<!-- r8 -->
<g id="node24" class="node"><title>r8</title>
<polygon fill="none" stroke="black" points="971,-592 957,-592 957,-578 971,-578 971,-592"/>
</g>
<!-- r8_intermediate_p -->
<g id="node28" class="node"><title>r8_intermediate_p</title>
<ellipse fill="black" stroke="black" cx="1060" cy="-553" rx="0.036" ry="0.036"/>
</g>
<!-- r8&#45;&gt;r8_intermediate_p -->
<g id="edge6" class="edge"><title>r8&#45;&gt;r8_intermediate_p</title>
<path fill="none" stroke="black" d="M971.216,-582.595C993.193,-575.269 1057.93,-553.689 1059.95,-553.016"/>
</g>
<!-- r8&#45;&gt;r8_intermediate_m -->
<g id="edge10" class="edge"><title>r8&#45;&gt;r8_intermediate_m</title>
<path fill="none" stroke="black" d="M983.421,-582.402C996.349,-579.755 1012.93,-574.47 1024,-564 1053.45,-536.144 1059.63,-480.612 1059.98,-477.168"/>
<polygon fill="none" stroke="black" points="983.108,-582.452 977.82,-587.355 971.261,-584.36 976.548,-579.457 983.108,-582.452"/>
</g>
<!-- r8_intermediate_r&#45;&gt;r8 -->
<g id="edge2" class="edge"><title>r8_intermediate_r&#45;&gt;r8</title>
<path fill="none" stroke="black" d="M867.07,-589.996C869.514,-589.87 934.993,-586.495 956.921,-585.365"/>
</g>
<!-- r8_intermediate_p&#45;&gt;s24 -->
<g id="edge8" class="edge"><title>r8_intermediate_p&#45;&gt;s24</title>
<path fill="none" stroke="black" d="M1060.07,-552.9C1062.03,-549.923 1107.35,-481.198 1133.25,-441.916"/>
<polygon fill="black" stroke="black" points="1136.49,-443.361 1139.07,-433.085 1130.65,-439.507 1136.49,-443.361"/>
</g>
<!-- r9 -->
<g id="node38" class="node"><title>r9</title>
<polygon fill="none" stroke="black" points="1158,-310 1144,-310 1144,-296 1158,-296 1158,-310"/>
</g>
<!-- r9_intermediate_p -->
<g id="node42" class="node"><title>r9_intermediate_p</title>
<ellipse fill="black" stroke="black" cx="1242" cy="-303" rx="0.036" ry="0.036"/>
</g>
<!-- r9&#45;&gt;r9_intermediate_p -->
<g id="edge26" class="edge"><title>r9&#45;&gt;r9_intermediate_p</title>
<path fill="none" stroke="black" d="M1158.14,-303C1179.26,-303 1240.06,-303 1241.95,-303"/>
</g>
<!-- r9&#45;&gt;r9_intermediate_m -->
<g id="edge30" class="edge"><title>r9&#45;&gt;r9_intermediate_m</title>
<path fill="none" stroke="black" d="M1168.07,-315.196C1193.95,-333.682 1240.3,-366.789 1241.95,-367.968"/>
<polygon fill="none" stroke="black" points="1167.91,-315.075 1160.7,-314.843 1158.14,-308.1 1165.35,-308.333 1167.91,-315.075"/>
</g>
<!-- r9_intermediate_r&#45;&gt;r9 -->
<g id="edge22" class="edge"><title>r9_intermediate_r&#45;&gt;r9</title>
<path fill="none" stroke="black" d="M1060.02,-206.159C1060.42,-209.414 1067.25,-261.897 1096,-287 1109.78,-299.035 1132.17,-302.036 1143.67,-302.771"/>
</g>
<!-- r9_intermediate_p&#45;&gt;s26 -->
<g id="edge28" class="edge"><title>r9_intermediate_p&#45;&gt;s26</title>
<path fill="none" stroke="black" d="M1242.06,-303C1242.95,-303 1253.96,-303 1267.58,-303"/>
<polygon fill="black" stroke="black" points="1267.85,-306.5 1277.85,-303 1267.85,-299.5 1267.85,-306.5"/>
</g>
<!-- r11 -->
<g id="node48" class="node"><title>r11</title>
<polygon fill="none" stroke="black" points="520,-280 506,-280 506,-266 520,-266 520,-280"/>
</g>
<!-- r11_intermediate_p -->
<g id="node52" class="node"><title>r11_intermediate_p</title>
<ellipse fill="black" stroke="black" cx="585" cy="-273" rx="0.036" ry="0.036"/>
</g>
<!-- r11&#45;&gt;r11_intermediate_p -->
<g id="edge38" class="edge"><title>r11&#45;&gt;r11_intermediate_p</title>
<path fill="none" stroke="black" d="M520.167,-273C537.809,-273 582.114,-273 584.866,-273"/>
</g>
<!-- r11&#45;&gt;r11_intermediate_m -->
<g id="edge42" class="edge"><title>r11&#45;&gt;r11_intermediate_m</title>
<path fill="none" stroke="black" d="M528.724,-257.495C549.147,-237.355 582.49,-204.475 584.866,-202.132"/>
<polygon fill="none" stroke="black" points="528.711,-257.507 527.248,-264.568 520.167,-265.933 521.63,-258.872 528.711,-257.507"/>
</g>
<!-- r11_intermediate_r&#45;&gt;r11 -->
<g id="edge34" class="edge"><title>r11_intermediate_r&#45;&gt;r11</title>
<path fill="none" stroke="black" d="M441.056,-341.933C442.212,-340.547 460.965,-318.131 478,-302 487.168,-293.319 498.548,-284.161 505.794,-278.513"/>
</g>
<!-- r11_intermediate_p&#45;&gt;s30 -->
<g id="edge40" class="edge"><title>r11_intermediate_p&#45;&gt;s30</title>
<path fill="none" stroke="black" d="M585.102,-273C587.91,-273 647.955,-273 688.744,-273"/>
<polygon fill="black" stroke="black" points="688.908,-276.5 698.908,-273 688.908,-269.5 688.908,-276.5"/>
</g>
<!-- r14 -->
<g id="node58" class="node"><title>r14</title>
<polygon fill="none" stroke="black" points="1330,-267 1316,-267 1316,-253 1330,-253 1330,-267"/>
</g>
<!-- r14_intermediate_p -->
<g id="node62" class="node"><title>r14_intermediate_p</title>
<ellipse fill="black" stroke="black" cx="1404" cy="-260" rx="0.036" ry="0.036"/>
</g>
<!-- r14&#45;&gt;r14_intermediate_p -->
<g id="edge50" class="edge"><title>r14&#45;&gt;r14_intermediate_p</title>
<path fill="none" stroke="black" d="M1330.19,-260C1349.39,-260 1400.66,-260 1403.84,-260"/>
</g>
<!-- r14&#45;&gt;r14_intermediate_m -->
<g id="edge54" class="edge"><title>r14&#45;&gt;r14_intermediate_m</title>
<path fill="none" stroke="black" d="M1341.54,-266.454C1349.68,-269.323 1359.33,-272.775 1368,-276 1383.59,-281.8 1402.76,-289.501 1403.94,-289.977"/>
<polygon fill="none" stroke="black" points="1341.37,-266.394 1334.38,-268.188 1330.04,-262.431 1337.02,-260.637 1341.37,-266.394"/>
</g>
<!-- r14_intermediate_r&#45;&gt;r14 -->
<g id="edge46" class="edge"><title>r14_intermediate_r&#45;&gt;r14</title>
<path fill="none" stroke="black" d="M1242.06,-260C1244.05,-260 1296.24,-260 1315.74,-260"/>
</g>
<!-- r14_intermediate_p&#45;&gt;s28 -->
<g id="edge52" class="edge"><title>r14_intermediate_p&#45;&gt;s28</title>
<path fill="none" stroke="black" d="M1404.07,-260C1405.01,-260 1415.89,-260 1429.82,-260"/>
<polygon fill="black" stroke="black" points="1429.87,-263.5 1439.87,-260 1429.87,-256.5 1429.87,-263.5"/>
</g>
<!-- r15 -->
<g id="node68" class="node"><title>r15</title>
<polygon fill="none" stroke="black" points="1636,-267 1622,-267 1622,-253 1636,-253 1636,-267"/>
</g>
<!-- r15_intermediate_p -->
<g id="node72" class="node"><title>r15_intermediate_p</title>
<ellipse fill="black" stroke="black" cx="1672" cy="-260" rx="0.036" ry="0.036"/>
</g>
<!-- r15&#45;&gt;r15_intermediate_p -->
<g id="edge62" class="edge"><title>r15&#45;&gt;r15_intermediate_p</title>
<path fill="none" stroke="black" d="M1636.1,-260C1647.93,-260 1670.53,-260 1671.93,-260"/>
</g>
<!-- r15_intermediate_r&#45;&gt;r15 -->
<g id="edge58" class="edge"><title>r15_intermediate_r&#45;&gt;r15</title>
<path fill="none" stroke="black" d="M1586.12,-260C1587.98,-260 1610.23,-260 1621.92,-260"/>
</g>
<!-- r15_intermediate_p&#45;&gt;s34 -->
<g id="edge64" class="edge"><title>r15_intermediate_p&#45;&gt;s34</title>
<path fill="none" stroke="black" d="M1672.1,-260C1673.23,-260 1683.57,-260 1698.19,-260"/>
<polygon fill="black" stroke="black" points="1698.36,-263.5 1708.36,-260 1698.36,-256.5 1698.36,-263.5"/>
</g>
<!-- r17 -->
<g id="node75" class="node"><title>r17</title>
<polygon fill="none" stroke="black" points="160,-95 146,-95 146,-81 160,-81 160,-95"/>
</g>
<!-- r17_intermediate_p -->
<g id="node79" class="node"><title>r17_intermediate_p</title>
<ellipse fill="black" stroke="black" cx="216" cy="-88" rx="0.036" ry="0.036"/>
</g>
<!-- r17&#45;&gt;r17_intermediate_p -->
<g id="edge70" class="edge"><title>r17&#45;&gt;r17_intermediate_p</title>
<path fill="none" stroke="black" d="M160.227,-88C176.258,-88 213.571,-88 215.887,-88"/>
</g>
<!-- r17&#45;&gt;r17_intermediate_m -->
<g id="edge74" class="edge"><title>r17&#45;&gt;r17_intermediate_m</title>
<path fill="none" stroke="black" d="M171.118,-79.0848C189.02,-70.276 214.005,-57.9817 215.887,-57.0556"/>
<polygon fill="none" stroke="black" points="170.994,-79.1458 167.377,-85.3839 160.227,-84.4439 163.844,-78.2058 170.994,-79.1458"/>
</g>
<!-- r17_intermediate_r&#45;&gt;r17 -->
<g id="edge66" class="edge"><title>r17_intermediate_r&#45;&gt;r17</title>
<path fill="none" stroke="black" d="M90.0457,-88C91.551,-88 129.877,-88 145.979,-88"/>
</g>
<!-- r17_intermediate_p&#45;&gt;s129 -->
<g id="edge72" class="edge"><title>r17_intermediate_p&#45;&gt;s129</title>
<path fill="none" stroke="black" d="M216.081,-88C218.134,-88 258.72,-88 290.431,-88"/>
<polygon fill="black" stroke="black" points="290.776,-91.5001 300.776,-88 290.776,-84.5001 290.776,-91.5001"/>
</g>
<!-- r6 -->
<g id="node85" class="node"><title>r6</title>
<polygon fill="none" stroke="black" points="733,-131 719,-131 719,-117 733,-117 733,-131"/>
</g>
<!-- r6_intermediate_p -->
<g id="node89" class="node"><title>r6_intermediate_p</title>
<ellipse fill="black" stroke="black" cx="867" cy="-97" rx="0.036" ry="0.036"/>
</g>
<!-- r6&#45;&gt;r6_intermediate_p -->
<g id="edge82" class="edge"><title>r6&#45;&gt;r6_intermediate_p</title>
<path fill="none" stroke="black" d="M733.186,-122.624C761.47,-117.208 863.735,-97.6252 866.924,-97.0146"/>
</g>
<!-- r6&#45;&gt;r6_intermediate_m -->
<g id="edge86" class="edge"><title>r6&#45;&gt;r6_intermediate_m</title>
<path fill="none" stroke="black" d="M745.395,-124.825C783.368,-126.441 864.096,-129.876 866.924,-129.997"/>
<polygon fill="none" stroke="black" points="745.175,-124.816 739.011,-128.557 733.186,-124.306 739.351,-120.565 745.175,-124.816"/>
</g>
<!-- r6_intermediate_r&#45;&gt;r6 -->
<g id="edge78" class="edge"><title>r6_intermediate_r&#45;&gt;r6</title>
<path fill="none" stroke="black" d="M585.102,-124C588.771,-124 690.191,-124 718.642,-124"/>
</g>
<!-- r6_intermediate_p&#45;&gt;s127 -->
<g id="edge84" class="edge"><title>r6_intermediate_p&#45;&gt;s127</title>
<path fill="none" stroke="black" d="M866.901,-97.0005C862.741,-97.022 728.809,-97.7894 622,-108 598.057,-110.289 571.335,-114.19 550.341,-117.567"/>
<polygon fill="black" stroke="black" points="549.535,-114.152 540.232,-119.223 550.667,-121.06 549.535,-114.152"/>
</g>
<!-- r7 -->
<g id="node95" class="node"><title>r7</title>
<polygon fill="none" stroke="black" points="733,-336 719,-336 719,-322 733,-322 733,-336"/>
</g>
<!-- r7_intermediate_p -->
<g id="node99" class="node"><title>r7_intermediate_p</title>
<ellipse fill="black" stroke="black" cx="867" cy="-370" rx="0.036" ry="0.036"/>
</g>
<!-- r7&#45;&gt;r7_intermediate_p -->
<g id="edge94" class="edge"><title>r7&#45;&gt;r7_intermediate_p</title>
<path fill="none" stroke="black" d="M733.186,-331.09C761.47,-339.314 863.735,-369.051 866.924,-369.978"/>
</g>
<!-- r7&#45;&gt;r7_intermediate_m -->
<g id="edge98" class="edge"><title>r7&#45;&gt;r7_intermediate_m</title>
<path fill="none" stroke="black" d="M745.144,-325.47C783.012,-318.487 864.09,-303.537 866.924,-303.014"/>
<polygon fill="none" stroke="black" points="744.987,-325.499 739.812,-330.521 733.186,-327.675 738.361,-322.653 744.987,-325.499"/>
</g>
<!-- r7_intermediate_r&#45;&gt;r7 -->
<g id="edge90" class="edge"><title>r7_intermediate_r&#45;&gt;r7</title>
<path fill="none" stroke="black" d="M585.102,-329C588.771,-329 690.191,-329 718.642,-329"/>
</g>
<!-- r7_intermediate_p&#45;&gt;s22 -->
<g id="edge96" class="edge"><title>r7_intermediate_p&#45;&gt;s22</title>
<path fill="none" stroke="black" d="M867.07,-370.019C868.754,-370.47 900.36,-378.942 927.029,-386.09"/>
<polygon fill="black" stroke="black" points="926.371,-389.537 936.936,-388.746 928.183,-382.776 926.371,-389.537"/>
</g>
<!-- r4 -->
<g id="node105" class="node"><title>r4</title>
<polygon fill="none" stroke="black" points="733,-217 719,-217 719,-203 733,-203 733,-217"/>
</g>
<!-- r4_intermediate_p -->
<g id="node110" class="node"><title>r4_intermediate_p</title>
<ellipse fill="black" stroke="black" cx="867" cy="-234" rx="0.036" ry="0.036"/>
</g>
<!-- r4&#45;&gt;r4_intermediate_p -->
<g id="edge108" class="edge"><title>r4&#45;&gt;r4_intermediate_p</title>
<path fill="none" stroke="black" d="M733.186,-211.223C761.47,-216.037 863.735,-233.444 866.924,-233.987"/>
</g>
<!-- r4&#45;&gt;r4_intermediate_m -->
<g id="edge114" class="edge"><title>r4&#45;&gt;r4_intermediate_m</title>
<path fill="none" stroke="black" d="M745.495,-210.326C767.168,-209.953 802.711,-207.112 830,-194 849.501,-184.63 865.942,-161.506 866.951,-160.07"/>
<polygon fill="none" stroke="black" points="745.229,-210.325 739.218,-214.308 733.229,-210.292 739.24,-206.308 745.229,-210.325"/>
</g>
<!-- r4_intermediate_r&#45;&gt;r4 -->
<g id="edge102" class="edge"><title>r4_intermediate_r&#45;&gt;r4</title>
<path fill="none" stroke="black" d="M1060,-287.957C1059.9,-286.149 1056.52,-228.132 1024,-207 974.11,-174.578 773.324,-202.836 733.053,-208.91"/>
</g>
<!-- r4_intermediate_p&#45;&gt;s124 -->
<g id="edge110" class="edge"><title>r4_intermediate_p&#45;&gt;s124</title>
<path fill="none" stroke="black" d="M867.026,-234.153C867.577,-237.294 876.812,-287.965 904,-315 910.532,-321.496 918.904,-326.578 927.307,-330.494"/>
<polygon fill="black" stroke="black" points="926.136,-333.798 936.712,-334.431 928.839,-327.341 926.136,-333.798"/>
</g>
<!-- r4_intermediate_p&#45;&gt;s126 -->
<g id="edge112" class="edge"><title>r4_intermediate_p&#45;&gt;s126</title>
<path fill="none" stroke="black" d="M867.07,-234C868.942,-234 907.8,-234 935.739,-234"/>
<polygon fill="black" stroke="black" points="935.812,-237.5 945.812,-234 935.812,-230.5 935.812,-237.5"/>
</g>
<!-- re11 -->
<g id="node117" class="node"><title>re11</title>
<polygon fill="none" stroke="black" points="520,-68 506,-68 506,-54 520,-54 520,-68"/>
</g>
<!-- re11_intermediate_p -->
<g id="node122" class="node"><title>re11_intermediate_p</title>
<ellipse fill="black" stroke="black" cx="585" cy="-61" rx="0.036" ry="0.036"/>
</g>
<!-- re11&#45;&gt;re11_intermediate_p -->
<g id="edge124" class="edge"><title>re11&#45;&gt;re11_intermediate_p</title>
<path fill="none" stroke="black" d="M520.167,-61C537.809,-61 582.114,-61 584.866,-61"/>
</g>
<!-- re11&#45;&gt;re11_intermediate_m -->
<g id="edge128" class="edge"><title>re11&#45;&gt;re11_intermediate_m</title>
<path fill="none" stroke="black" d="M531.28,-53.1293C551.811,-44.2895 582.587,-31.039 584.866,-30.0578"/>
<polygon fill="none" stroke="black" points="531.189,-53.1687 527.26,-59.2154 520.167,-57.9143 524.096,-51.8675 531.189,-53.1687"/>
</g>
<!-- re11_intermediate_r&#45;&gt;re11 -->
<g id="edge118" class="edge"><title>re11_intermediate_r&#45;&gt;re11</title>
<path fill="none" stroke="black" d="M441.052,-61C442.798,-61 487.884,-61 505.779,-61"/>
</g>
<!-- re11_intermediate_p&#45;&gt;s144 -->
<g id="edge126" class="edge"><title>re11_intermediate_p&#45;&gt;s144</title>
<path fill="none" stroke="black" d="M585.022,-61.1563C585.471,-64.36 593.114,-115.994 622,-140 627.037,-144.186 632.648,-147.732 638.582,-150.734"/>
<polygon fill="black" stroke="black" points="637.579,-154.12 648.136,-155.018 640.443,-147.733 637.579,-154.12"/>
</g>
</g>
</svg>
