<?xml version="1.0" encoding="UTF-8" standalone="no"?>
<!DOCTYPE svg PUBLIC "-//W3C//DTD SVG 1.1//EN"
 "http://www.w3.org/Graphics/SVG/1.1/DTD/svg11.dtd">
<!-- Generated by graphviz version 2.30.1 (20140821.0912)
 -->
<!-- Title: G Pages: 1 -->
<svg width="1462pt" height="1020pt"
 viewBox="0.00 0.00 1462.00 1019.72" xmlns="http://www.w3.org/2000/svg" xmlns:xlink="http://www.w3.org/1999/xlink">
<g id="graph0" class="graph" transform="scale(1 1) rotate(0) translate(4 1015.72)">
<title>G</title>
<polygon fill="white" stroke="white" points="-4,5 -4,-1015.72 1459,-1015.72 1459,5 -4,5"/>
<!-- PII -->
<g id="PII" class="node"><title>PII</title>
<path fill="none" stroke="black" d="M42,-502C42,-502 12,-502 12,-502 6,-502 0,-496 0,-490 0,-490 0,-478 0,-478 0,-472 6,-466 12,-466 12,-466 42,-466 42,-466 48,-466 54,-472 54,-478 54,-478 54,-490 54,-490 54,-496 48,-502 42,-502"/>
<text text-anchor="middle" x="27" y="-481.5" font-family="Times,serif" font-size="10.00">PII</text>
</g>
<!-- vut1_intermediate_r -->
<g id="node24" class="node"><title>vut1_intermediate_r</title>
<ellipse fill="black" stroke="black" cx="91" cy="-770" rx="0.036" ry="0.036"/>
</g>
<!-- PII&#45;&gt;vut1_intermediate_r -->
<g id="edge2" class="edge"><title>PII&#45;&gt;vut1_intermediate_r</title>
<path fill="none" stroke="black" d="M31.9727,-502.326C45.4429,-564.463 88.6218,-763.642 89.9678,-769.852"/>
</g>
<!-- vut2_intermediate_m -->
<g id="node34" class="node"><title>vut2_intermediate_m</title>
<ellipse fill="black" stroke="black" cx="791" cy="-636" rx="0.036" ry="0.036"/>
</g>
<!-- PII&#45;&gt;vut2_intermediate_m -->
<g id="edge28" class="edge"><title>PII&#45;&gt;vut2_intermediate_m</title>
<path fill="none" stroke="black" d="M37.6476,-502.317C53.6633,-529.923 88.5299,-579 134,-579 134,-579 134,-579 358,-579 550.151,-579 786.279,-635.113 789.956,-635.99"/>
</g>
<!-- vut3_intermediate_m -->
<g id="node42" class="node"><title>vut3_intermediate_m</title>
<ellipse fill="black" stroke="black" cx="791" cy="-527" rx="0.036" ry="0.036"/>
</g>
<!-- PII&#45;&gt;vut3_intermediate_m -->
<g id="edge46" class="edge"><title>PII&#45;&gt;vut3_intermediate_m</title>
<path fill="none" stroke="black" d="M54.3386,-491.4C75.6452,-496.735 106.517,-503 134,-503 134,-503 134,-503 652,-503 713.281,-503 787.636,-526.256 789.945,-526.983"/>
</g>
<!-- vad_intermediate_m -->
<g id="node50" class="node"><title>vad_intermediate_m</title>
<ellipse fill="black" stroke="black" cx="791" cy="-283" rx="0.036" ry="0.036"/>
</g>
<!-- PII&#45;&gt;vad_intermediate_m -->
<g id="edge62" class="edge"><title>PII&#45;&gt;vad_intermediate_m</title>
<path fill="none" stroke="black" d="M31.8831,-465.73C41.5248,-425.942 70.5077,-335 134,-335 134,-335 134,-335 652,-335 699.01,-335 711.229,-326.51 754,-307 770.949,-299.269 788.844,-283.993 789.946,-283.046"/>
</g>
<!-- vdead_intermediate_m -->
<g id="node54" class="node"><title>vdead_intermediate_m</title>
<ellipse fill="black" stroke="black" cx="791" cy="-301" rx="0.036" ry="0.036"/>
</g>
<!-- PII&#45;&gt;vdead_intermediate_m -->
<g id="edge70" class="edge"><title>PII&#45;&gt;vdead_intermediate_m</title>
<path fill="none" stroke="black" d="M35.4084,-465.671C49.5056,-434.143 83.372,-373 134,-373 134,-373 134,-373 652,-373 698.571,-373 715.024,-374.491 754,-349 775.62,-334.86 789.136,-303.069 789.96,-301.096"/>
</g>
<!-- UTP -->
<g id="UTP [CHEBI:15713]" class="node"><title>UTP</title>
<ellipse fill="none" stroke="black" cx="27" cy="-909" rx="18" ry="18"/>
<text text-anchor="middle" x="27" y="-906.5" font-family="Times,serif" font-size="10.00">UTP</text>
</g>
<!-- UTP&#45;&gt;vut1_intermediate_r -->
<g id="edge3" class="edge"><title>UTP&#45;&gt;vut1_intermediate_r</title>
<path fill="none" stroke="black" d="M35.2335,-892.783C51.3329,-856.689 88.805,-772.679 89.9721,-770.063"/>
</g>
<!-- vut2_intermediate_r -->
<g id="node32" class="node"><title>vut2_intermediate_r</title>
<ellipse fill="black" stroke="black" cx="313" cy="-840" rx="0.036" ry="0.036"/>
</g>
<!-- UTP&#45;&gt;vut2_intermediate_r -->
<g id="edge22" class="edge"><title>UTP&#45;&gt;vut2_intermediate_r</title>
<path fill="none" stroke="black" d="M45.2584,-909C66.2368,-909 102.715,-909 134,-909 134,-909 134,-909 180,-909 245.164,-909 309.944,-842.139 311.952,-840.05"/>
</g>
<!-- vut3_intermediate_r -->
<g id="node40" class="node"><title>vut3_intermediate_r</title>
<ellipse fill="black" stroke="black" cx="541" cy="-811" rx="0.036" ry="0.036"/>
</g>
<!-- UTP&#45;&gt;vut3_intermediate_r -->
<g id="edge40" class="edge"><title>UTP&#45;&gt;vut3_intermediate_r</title>
<path fill="none" stroke="black" d="M38.2709,-923.295C55.4067,-945.31 92.1084,-985 134,-985 134,-985 134,-985 314,-985 376.408,-985 350.977,-912.619 400,-874 452.761,-832.436 537.308,-811.655 539.937,-811.015"/>
</g>
<!-- PIIUMP -->
<g id="PIIUMP" class="node"><title>PIIUMP</title>
<ellipse fill="none" stroke="black" cx="246" cy="-707" rx="29.3664" ry="18"/>
<text text-anchor="middle" x="246" y="-704.5" font-family="Times,serif" font-size="10.00">PIIUMP</text>
</g>
<!-- vur1_intermediate_r -->
<g id="node28" class="node"><title>vur1_intermediate_r</title>
<ellipse fill="black" stroke="black" cx="313" cy="-707" rx="0.036" ry="0.036"/>
</g>
<!-- PIIUMP&#45;&gt;vur1_intermediate_r -->
<g id="edge12" class="edge"><title>PIIUMP&#45;&gt;vur1_intermediate_r</title>
<path fill="none" stroke="black" d="M275.699,-707C292.568,-707 310.821,-707 311.945,-707"/>
</g>
<!-- PIIUMP&#45;&gt;vut2_intermediate_r -->
<g id="edge21" class="edge"><title>PIIUMP&#45;&gt;vut2_intermediate_r</title>
<path fill="none" stroke="black" d="M255.365,-724.115C272.646,-759.475 310.784,-837.512 311.972,-839.942"/>
</g>
<!-- PIIUMP&#45;&gt;vut3_intermediate_m -->
<g id="edge47" class="edge"><title>PIIUMP&#45;&gt;vut3_intermediate_m</title>
<path fill="none" stroke="black" d="M258.777,-690.588C270.543,-675.418 290.008,-653.405 312,-641 500.741,-534.538 785.51,-527.111 789.947,-527.001"/>
</g>
<!-- vur3_intermediate_m -->
<g id="node46" class="node"><title>vur3_intermediate_m</title>
<ellipse fill="black" stroke="black" cx="919" cy="-693" rx="0.036" ry="0.036"/>
</g>
<!-- PIIUMP&#45;&gt;vur3_intermediate_m -->
<g id="edge55" class="edge"><title>PIIUMP&#45;&gt;vur3_intermediate_m</title>
<path fill="none" stroke="black" d="M264.298,-692.791C284.841,-677.395 320.776,-655 356,-655 356,-655 356,-655 472,-655 552.894,-655 569.106,-693 650,-693 650,-693 650,-693 792,-693 847.125,-693 915.816,-693 917.949,-693"/>
</g>
<!-- PPi -->
<g id="PPi [CHEBI:18361]" class="node"><title>PPi</title>
<ellipse fill="none" stroke="black" cx="721" cy="-777" rx="18" ry="18"/>
<text text-anchor="middle" x="721" y="-774.5" font-family="Times,serif" font-size="10.00">PPi</text>
</g>
<!-- GLN -->
<g id="GLN [CHEBI:30011]" class="node"><title>GLN</title>
<ellipse fill="none" stroke="black" cx="721" cy="-457" rx="18" ry="18"/>
<text text-anchor="middle" x="721" y="-454.5" font-family="Times,serif" font-size="10.00">GLN</text>
</g>
<!-- vut1_intermediate_m -->
<g id="node26" class="node"><title>vut1_intermediate_m</title>
<ellipse fill="black" stroke="black" cx="791" cy="-920" rx="0.036" ry="0.036"/>
</g>
<!-- GLN&#45;&gt;vut1_intermediate_m -->
<g id="edge8" class="edge"><title>GLN&#45;&gt;vut1_intermediate_m</title>
<path fill="none" stroke="black" d="M724.624,-474.866C737.023,-559.29 789.176,-914.391 789.99,-919.934"/>
</g>
<!-- vur1_intermediate_m -->
<g id="node30" class="node"><title>vur1_intermediate_m</title>
<ellipse fill="black" stroke="black" cx="791" cy="-777" rx="0.036" ry="0.036"/>
</g>
<!-- GLN&#45;&gt;vur1_intermediate_m -->
<g id="edge17" class="edge"><title>GLN&#45;&gt;vur1_intermediate_m</title>
<path fill="none" stroke="black" d="M725.753,-474.66C739.897,-541.221 789.221,-773.334 789.991,-776.957"/>
</g>
<!-- GLN&#45;&gt;vut2_intermediate_m -->
<g id="edge27" class="edge"><title>GLN&#45;&gt;vut2_intermediate_m</title>
<path fill="none" stroke="black" d="M728.275,-473.519C744.846,-517.14 788.604,-632.325 789.967,-635.914"/>
</g>
<!-- vur2_intermediate_m -->
<g id="node38" class="node"><title>vur2_intermediate_m</title>
<ellipse fill="black" stroke="black" cx="791" cy="-860" rx="0.036" ry="0.036"/>
</g>
<!-- GLN&#45;&gt;vur2_intermediate_m -->
<g id="edge36" class="edge"><title>GLN&#45;&gt;vur2_intermediate_m</title>
<path fill="none" stroke="black" d="M724.966,-474.576C737.951,-551.535 789.191,-855.204 789.991,-859.944"/>
</g>
<!-- GLN&#45;&gt;vut3_intermediate_m -->
<g id="edge45" class="edge"><title>GLN&#45;&gt;vut3_intermediate_m</title>
<path fill="none" stroke="black" d="M734.54,-469.384C740.477,-475.286 747.643,-482.469 754,-489 769.72,-505.15 788.768,-525.671 789.943,-526.938"/>
</g>
<!-- GLN&#45;&gt;vur3_intermediate_m -->
<g id="edge54" class="edge"><title>GLN&#45;&gt;vur3_intermediate_m</title>
<path fill="none" stroke="black" d="M735.725,-467.401C750.474,-478.921 774.194,-498.46 792,-518 855.545,-587.732 916.079,-689.753 917.955,-692.924"/>
</g>
<!-- GLN&#45;&gt;vad_intermediate_m -->
<g id="edge61" class="edge"><title>GLN&#45;&gt;vad_intermediate_m</title>
<path fill="none" stroke="black" d="M728.52,-440.316C745.274,-397.446 788.617,-286.538 789.968,-283.083"/>
</g>
<!-- GLN&#45;&gt;vdead_intermediate_m -->
<g id="edge69" class="edge"><title>GLN&#45;&gt;vdead_intermediate_m</title>
<path fill="none" stroke="black" d="M729.52,-440.941C736.101,-426.795 745.855,-405.606 754,-387 770.097,-350.228 788.791,-303.993 789.944,-301.139"/>
</g>
<!-- vgog_intermediate_r -->
<g id="node59" class="node"><title>vgog_intermediate_r</title>
<ellipse fill="black" stroke="black" cx="791" cy="-219" rx="0.036" ry="0.036"/>
</g>
<!-- GLN&#45;&gt;vgog_intermediate_r -->
<g id="edge81" class="edge"><title>GLN&#45;&gt;vgog_intermediate_r</title>
<path fill="none" stroke="black" d="M726.89,-439.884C742.239,-386.165 788.523,-224.17 789.965,-219.121"/>
</g>
<!-- vglndem_intermediate_r -->
<g id="node73" class="node"><title>vglndem_intermediate_r</title>
<ellipse fill="black" stroke="black" cx="791" cy="-379" rx="0.036" ry="0.036"/>
</g>
<!-- GLN&#45;&gt;vglndem_intermediate_r -->
<g id="edge108" class="edge"><title>GLN&#45;&gt;vglndem_intermediate_r</title>
<path fill="none" stroke="black" d="M733.535,-443.768C752.33,-422.21 787.701,-381.637 789.893,-379.123"/>
</g>
<!-- PIIUMP2 -->
<g id="PIIUMP2" class="node"><title>PIIUMP2</title>
<ellipse fill="none" stroke="black" cx="471" cy="-929" rx="32.2534" ry="18"/>
<text text-anchor="middle" x="471" y="-926.5" font-family="Times,serif" font-size="10.00">PIIUMP2</text>
</g>
<!-- PIIUMP2&#45;&gt;vut1_intermediate_m -->
<g id="edge9" class="edge"><title>PIIUMP2&#45;&gt;vut1_intermediate_m</title>
<path fill="none" stroke="black" d="M503.55,-929.621C539.497,-930.184 599.996,-930.694 652,-929 712.471,-927.03 787.611,-920.217 789.944,-920.005"/>
</g>
<!-- PIIUMP2&#45;&gt;vur1_intermediate_m -->
<g id="edge18" class="edge"><title>PIIUMP2&#45;&gt;vur1_intermediate_m</title>
<path fill="none" stroke="black" d="M496.388,-917.784C509.272,-911.975 525.4,-904.886 540,-899 589.164,-879.18 603.575,-879.562 652,-858 698.859,-837.135 710.683,-831.472 754,-804 770.362,-793.623 788.808,-778.013 789.945,-777.047"/>
</g>
<!-- vur2_intermediate_r -->
<g id="node36" class="node"><title>vur2_intermediate_r</title>
<ellipse fill="black" stroke="black" cx="541" cy="-908" rx="0.036" ry="0.036"/>
</g>
<!-- PIIUMP2&#45;&gt;vur2_intermediate_r -->
<g id="edge31" class="edge"><title>PIIUMP2&#45;&gt;vur2_intermediate_r</title>
<path fill="none" stroke="black" d="M499.658,-920.458C517.896,-914.826 538.658,-908.414 539.938,-908.019"/>
</g>
<!-- PIIUMP2&#45;&gt;vut3_intermediate_r -->
<g id="edge39" class="edge"><title>PIIUMP2&#45;&gt;vut3_intermediate_r</title>
<path fill="none" stroke="black" d="M481.888,-911.842C500.453,-879.626 538.778,-813.12 539.971,-811.049"/>
</g>
<!-- PIIUMP3 -->
<g id="PIIUMP3" class="node"><title>PIIUMP3</title>
<ellipse fill="none" stroke="black" cx="721" cy="-869" rx="32.2534" ry="18"/>
<text text-anchor="middle" x="721" y="-866.5" font-family="Times,serif" font-size="10.00">PIIUMP3</text>
</g>
<!-- PIIUMP3&#45;&gt;vut1_intermediate_m -->
<g id="edge10" class="edge"><title>PIIUMP3&#45;&gt;vut1_intermediate_m</title>
<path fill="none" stroke="black" d="M740.942,-883.206C760.434,-897.825 788.2,-918.65 789.916,-919.937"/>
</g>
<!-- PIIUMP3&#45;&gt;vur1_intermediate_m -->
<g id="edge19" class="edge"><title>PIIUMP3&#45;&gt;vur1_intermediate_m</title>
<path fill="none" stroke="black" d="M738.765,-853.768C743.933,-848.682 749.455,-842.821 754,-837 772.54,-813.254 788.944,-779.207 789.951,-777.103"/>
</g>
<!-- PIIUMP3&#45;&gt;vut2_intermediate_m -->
<g id="edge29" class="edge"><title>PIIUMP3&#45;&gt;vut2_intermediate_m</title>
<path fill="none" stroke="black" d="M731.899,-851.848C738.935,-839.026 748.14,-820.872 754,-804 778.662,-732.992 789.654,-638.99 789.992,-636.07"/>
</g>
<!-- PIIUMP3&#45;&gt;vur2_intermediate_m -->
<g id="edge37" class="edge"><title>PIIUMP3&#45;&gt;vur2_intermediate_m</title>
<path fill="none" stroke="black" d="M752.817,-864.921C770.246,-862.614 788.802,-860.159 789.944,-860.007"/>
</g>
<!-- vur3_intermediate_r -->
<g id="node44" class="node"><title>vur3_intermediate_r</title>
<ellipse fill="black" stroke="black" cx="791" cy="-878" rx="0.036" ry="0.036"/>
</g>
<!-- PIIUMP3&#45;&gt;vur3_intermediate_r -->
<g id="edge49" class="edge"><title>PIIUMP3&#45;&gt;vur3_intermediate_r</title>
<path fill="none" stroke="black" d="M752.817,-873.079C770.246,-875.386 788.802,-877.841 789.944,-877.993"/>
</g>
<!-- PIIUMP3&#45;&gt;vdead_intermediate_m -->
<g id="edge71" class="edge"><title>PIIUMP3&#45;&gt;vdead_intermediate_m</title>
<path fill="none" stroke="black" d="M732.608,-852.067C739.996,-839.353 749.331,-821.24 754,-804 783.063,-696.677 789.894,-307.152 789.999,-301.072"/>
</g>
<!-- UMP -->
<g id="UMP [CHEBI:16695]" class="node"><title>UMP</title>
<ellipse fill="none" stroke="black" cx="986" cy="-921" rx="18" ry="18"/>
<text text-anchor="middle" x="986" y="-918.5" font-family="Times,serif" font-size="10.00">UMP</text>
</g>
<!-- GS -->
<g id="GS" class="node"><title>GS</title>
<path fill="none" stroke="black" d="M870,-64C870,-64 840,-64 840,-64 834,-64 828,-58 828,-52 828,-52 828,-40 828,-40 828,-34 834,-28 840,-28 840,-28 870,-28 870,-28 876,-28 882,-34 882,-40 882,-40 882,-52 882,-52 882,-58 876,-64 870,-64"/>
<text text-anchor="middle" x="855" y="-43.5" font-family="Times,serif" font-size="10.00">GS</text>
</g>
<!-- vad_intermediate_r -->
<g id="node48" class="node"><title>vad_intermediate_r</title>
<ellipse fill="black" stroke="black" cx="919" cy="-14" rx="0.036" ry="0.036"/>
</g>
<!-- GS&#45;&gt;vad_intermediate_r -->
<g id="edge57" class="edge"><title>GS&#45;&gt;vad_intermediate_r</title>
<path fill="none" stroke="black" d="M882.294,-32.4291C898.664,-23.9801 916.826,-14.6058 917.946,-14.0281"/>
</g>
<!-- AMP -->
<g id="AMP [CHEBI:16027]" class="node"><title>AMP</title>
<ellipse fill="none" stroke="black" cx="596" cy="-158" rx="18" ry="18"/>
<text text-anchor="middle" x="596" y="-155.5" font-family="Times,serif" font-size="10.00">AMP</text>
</g>
<!-- vdead_intermediate_r -->
<g id="node52" class="node"><title>vdead_intermediate_r</title>
<ellipse fill="black" stroke="black" cx="651" cy="-210" rx="0.036" ry="0.036"/>
</g>
<!-- AMP&#45;&gt;vdead_intermediate_r -->
<g id="edge65" class="edge"><title>AMP&#45;&gt;vdead_intermediate_r</title>
<path fill="none" stroke="black" d="M609.56,-170.323C624.743,-185.22 648.461,-208.49 649.928,-209.93"/>
</g>
<!-- vgs_intermediate_m -->
<g id="node65" class="node"><title>vgs_intermediate_m</title>
<ellipse fill="black" stroke="black" cx="1141" cy="-196" rx="0.036" ry="0.036"/>
</g>
<!-- AMP&#45;&gt;vgs_intermediate_m -->
<g id="edge98" class="edge"><title>AMP&#45;&gt;vgs_intermediate_m</title>
<path fill="none" stroke="black" d="M608.212,-144.352C623.882,-126.475 654.229,-95.9978 688,-84 715.641,-74.18 724.959,-79.8719 754,-84 928.09,-108.746 1133.47,-193.301 1139.85,-195.937"/>
</g>
<!-- NH4 -->
<g id="NH4 [CHEBI:28938]" class="node"><title>NH4</title>
<ellipse fill="none" stroke="black" cx="721" cy="-111" rx="18" ry="18"/>
<text text-anchor="middle" x="721" y="-108.5" font-family="Times,serif" font-size="10.00">NH4</text>
</g>
<!-- vgdh_intermediate_r -->
<g id="node56" class="node"><title>vgdh_intermediate_r</title>
<ellipse fill="black" stroke="black" cx="791" cy="-165" rx="0.036" ry="0.036"/>
</g>
<!-- NH4&#45;&gt;vgdh_intermediate_r -->
<g id="edge74" class="edge"><title>NH4&#45;&gt;vgdh_intermediate_r</title>
<path fill="none" stroke="black" d="M735.761,-121.928C755.01,-137.214 787.866,-163.305 789.901,-164.921"/>
</g>
<!-- vgs_intermediate_r -->
<g id="node63" class="node"><title>vgs_intermediate_r</title>
<ellipse fill="black" stroke="black" cx="1053" cy="-130" rx="0.036" ry="0.036"/>
</g>
<!-- NH4&#45;&gt;vgs_intermediate_r -->
<g id="edge92" class="edge"><title>NH4&#45;&gt;vgs_intermediate_r</title>
<path fill="none" stroke="black" d="M738.975,-115.029C763.997,-120.607 812.325,-130 854,-130 854,-130 854,-130 920,-130 977.75,-130 1049.71,-130 1051.95,-130"/>
</g>
<!-- KG -->
<g id="KG" class="node"><title>KG</title>
<path fill="none" stroke="black" d="M736,-237C736,-237 706,-237 706,-237 700,-237 694,-231 694,-225 694,-225 694,-213 694,-213 694,-207 700,-201 706,-201 706,-201 736,-201 736,-201 742,-201 748,-207 748,-213 748,-213 748,-225 748,-225 748,-231 742,-237 736,-237"/>
<text text-anchor="middle" x="721" y="-216.5" font-family="Times,serif" font-size="10.00">KG</text>
</g>
<!-- KG&#45;&gt;vad_intermediate_m -->
<g id="edge63" class="edge"><title>KG&#45;&gt;vad_intermediate_m</title>
<path fill="none" stroke="black" d="M743.939,-237.018C747.356,-239.965 750.809,-243.027 754,-246 770.264,-261.15 788.802,-281.671 789.944,-282.938"/>
</g>
<!-- KG&#45;&gt;vdead_intermediate_m -->
<g id="edge72" class="edge"><title>KG&#45;&gt;vdead_intermediate_m</title>
<path fill="none" stroke="black" d="M745.135,-237.109C748.252,-239.946 751.301,-242.953 754,-246 772.763,-267.189 788.958,-298.941 789.952,-300.904"/>
</g>
<!-- KG&#45;&gt;vgdh_intermediate_r -->
<g id="edge75" class="edge"><title>KG&#45;&gt;vgdh_intermediate_r</title>
<path fill="none" stroke="black" d="M745.022,-200.718C764.133,-185.542 788.427,-166.249 789.927,-165.058"/>
</g>
<!-- KG&#45;&gt;vgog_intermediate_r -->
<g id="edge83" class="edge"><title>KG&#45;&gt;vgog_intermediate_r</title>
<path fill="none" stroke="black" d="M748.096,-219C766.673,-219 788.583,-219 789.934,-219"/>
</g>
<!-- NADPH -->
<g id="NADPH [CHEBI:16474]" class="node"><title>NADPH</title>
<ellipse fill="none" stroke="black" cx="721" cy="-165" rx="18" ry="18"/>
<text text-anchor="middle" x="721" y="-162.5" font-family="Times,serif" font-size="10.00">NADPH</text>
</g>
<!-- NADPH&#45;&gt;vgdh_intermediate_r -->
<g id="edge76" class="edge"><title>NADPH&#45;&gt;vgdh_intermediate_r</title>
<path fill="none" stroke="black" d="M739.159,-165C758.674,-165 788.092,-165 789.911,-165"/>
</g>
<!-- NADPH&#45;&gt;vgog_intermediate_r -->
<g id="edge82" class="edge"><title>NADPH&#45;&gt;vgog_intermediate_r</title>
<path fill="none" stroke="black" d="M735.761,-175.928C755.01,-191.214 787.866,-217.305 789.901,-218.921"/>
</g>
<!-- GLU -->
<g id="GLU [CHEBI:16015]" class="node"><title>GLU</title>
<ellipse fill="none" stroke="black" cx="986" cy="-84" rx="18" ry="18"/>
<text text-anchor="middle" x="986" y="-81.5" font-family="Times,serif" font-size="10.00">GLU</text>
</g>
<!-- GLU&#45;&gt;vgs_intermediate_r -->
<g id="edge90" class="edge"><title>GLU&#45;&gt;vgs_intermediate_r</title>
<path fill="none" stroke="black" d="M1001.1,-93.9813C1019.62,-107.088 1050.03,-128.603 1051.91,-129.935"/>
</g>
<!-- vgludem_intermediate_r -->
<g id="node67" class="node"><title>vgludem_intermediate_r</title>
<ellipse fill="black" stroke="black" cx="1053" cy="-87" rx="0.036" ry="0.036"/>
</g>
<!-- GLU&#45;&gt;vgludem_intermediate_r -->
<g id="edge100" class="edge"><title>GLU&#45;&gt;vgludem_intermediate_r</title>
<path fill="none" stroke="black" d="M1004.08,-84.7882C1022.73,-85.6493 1050.22,-86.9177 1051.92,-86.9962"/>
</g>
<!-- NADP -->
<g id="NADP [CHEBI:18009]" class="node"><title>NADP</title>
<ellipse fill="none" stroke="black" cx="986" cy="-30" rx="18" ry="18"/>
<text text-anchor="middle" x="986" y="-27.5" font-family="Times,serif" font-size="10.00">NADP</text>
</g>
<!-- AZGLU -->
<g id="AZGLU" class="node"><title>AZGLU</title>
<ellipse fill="none" stroke="black" cx="1208" cy="-230" rx="30.0436" ry="18"/>
<text text-anchor="middle" x="1208" y="-227.5" font-family="Times,serif" font-size="10.00">AZGLU</text>
</g>
<!-- vgog_intermediate_m -->
<g id="node61" class="node"><title>vgog_intermediate_m</title>
<ellipse fill="black" stroke="black" cx="1275" cy="-289" rx="0.036" ry="0.036"/>
</g>
<!-- AZGLU&#45;&gt;vgog_intermediate_m -->
<g id="edge88" class="edge"><title>AZGLU&#45;&gt;vgog_intermediate_m</title>
<path fill="none" stroke="black" d="M1225.4,-244.888C1244.06,-261.82 1272.18,-287.344 1273.92,-288.923"/>
</g>
<!-- vazgludem_intermediate_r -->
<g id="node70" class="node"><title>vazgludem_intermediate_r</title>
<ellipse fill="black" stroke="black" cx="1275" cy="-230" rx="0.036" ry="0.036"/>
</g>
<!-- AZGLU&#45;&gt;vazgludem_intermediate_r -->
<g id="edge104" class="edge"><title>AZGLU&#45;&gt;vazgludem_intermediate_r</title>
<path fill="none" stroke="black" d="M1238.08,-230C1254.84,-230 1272.84,-230 1273.95,-230"/>
</g>
<!-- ATP -->
<g id="ATP [CHEBI:15422]" class="node"><title>ATP</title>
<ellipse fill="none" stroke="black" cx="1427" cy="-139" rx="18" ry="18"/>
<text text-anchor="middle" x="1427" y="-136.5" font-family="Times,serif" font-size="10.00">ATP</text>
</g>
<!-- ATP&#45;&gt;vgs_intermediate_r -->
<g id="edge91" class="edge"><title>ATP&#45;&gt;vgs_intermediate_r</title>
<path fill="none" stroke="black" d="M1409.15,-136.682C1388.27,-134.016 1351.58,-130 1320,-130 1140,-130 1140,-130 1140,-130 1102.97,-130 1056.98,-130 1054.14,-130"/>
</g>
<!-- ADP -->
<g id="ADP [CHEBI:16761]" class="node"><title>ADP</title>
<ellipse fill="none" stroke="black" cx="1208" cy="-176" rx="18" ry="18"/>
<text text-anchor="middle" x="1208" y="-173.5" font-family="Times,serif" font-size="10.00">ADP</text>
</g>
<!-- vatpase_intermediate_r -->
<g id="node79" class="node"><title>vatpase_intermediate_r</title>
<ellipse fill="black" stroke="black" cx="1275" cy="-171" rx="0.036" ry="0.036"/>
</g>
<!-- ADP&#45;&gt;vatpase_intermediate_r -->
<g id="edge116" class="edge"><title>ADP&#45;&gt;vatpase_intermediate_r</title>
<path fill="none" stroke="black" d="M1226.08,-174.686C1244.73,-173.251 1272.22,-171.137 1273.92,-171.006"/>
</g>
<!-- AZglu -->
<g id="AZglu" class="node"><title>AZglu</title>
<ellipse fill="none" stroke="black" cx="1427" cy="-230" rx="27" ry="18"/>
<text text-anchor="middle" x="1427" y="-227.5" font-family="Times,serif" font-size="10.00">AZglu</text>
</g>
<!-- AZGLN -->
<g id="AZGLN" class="node"><title>AZGLN</title>
<ellipse fill="none" stroke="black" cx="986" cy="-376" rx="30.0436" ry="18"/>
<text text-anchor="middle" x="986" y="-373.5" font-family="Times,serif" font-size="10.00">AZGLN</text>
</g>
<!-- vazglndem_intermediate_r -->
<g id="node76" class="node"><title>vazglndem_intermediate_r</title>
<ellipse fill="black" stroke="black" cx="1053" cy="-376" rx="0.036" ry="0.036"/>
</g>
<!-- AZGLN&#45;&gt;vazglndem_intermediate_r -->
<g id="edge112" class="edge"><title>AZGLN&#45;&gt;vazglndem_intermediate_r</title>
<path fill="none" stroke="black" d="M1016.08,-376C1032.84,-376 1050.84,-376 1051.95,-376"/>
</g>
<!-- AZgln -->
<g id="AZgln" class="node"><title>AZgln</title>
<ellipse fill="none" stroke="black" cx="1208" cy="-376" rx="27" ry="18"/>
<text text-anchor="middle" x="1208" y="-373.5" font-family="Times,serif" font-size="10.00">AZgln</text>
</g>
<!-- P_i -->
<g id="P_i [CHEBI:43474]" class="node"><title>P_i</title>
<ellipse fill="none" stroke="black" cx="1208" cy="-284" rx="18" ry="18"/>
<text text-anchor="middle" x="1208" y="-281.5" font-family="Times,serif" font-size="10.00">P_i</text>
</g>
<!-- vut1 -->
<g id="node23" class="node"><title>vut1</title>
<polygon fill="none" stroke="black" points="142,-777 128,-777 128,-763 142,-763 142,-777"/>
</g>
<!-- vut1_intermediate_p -->
<g id="node25" class="node"><title>vut1_intermediate_p</title>
<ellipse fill="black" stroke="black" cx="179" cy="-753" rx="0.036" ry="0.036"/>
</g>
<!-- vut1&#45;&gt;vut1_intermediate_p -->
<g id="edge4" class="edge"><title>vut1&#45;&gt;vut1_intermediate_p</title>
<path fill="none" stroke="black" d="M142.197,-767.492C153.515,-762.911 176.505,-753.605 177.93,-753.028"/>
</g>
<!-- vut1&#45;&gt;vut1_intermediate_m -->
<g id="edge7" class="edge"><title>vut1&#45;&gt;vut1_intermediate_m</title>
<path fill="none" stroke="black" d="M142.353,-776.108C172.452,-804.649 304.796,-925.722 438,-979 526.526,-1014.41 561.245,-1023.22 652,-994 717.21,-973.002 787.759,-921.638 789.948,-920.038"/>
</g>
<!-- vut1_intermediate_r&#45;&gt;vut1 -->
<g id="edge1" class="edge"><title>vut1_intermediate_r&#45;&gt;vut1</title>
<path fill="none" stroke="black" d="M92.1205,-770C93.9681,-770 116.602,-770 127.803,-770"/>
</g>
<!-- vut1_intermediate_p&#45;&gt;PIIUMP -->
<g id="edge5" class="edge"><title>vut1_intermediate_p&#45;&gt;PIIUMP</title>
<path fill="none" stroke="black" d="M180.047,-752.967C181.124,-752.204 200.47,-738.514 217.769,-726.271"/>
<polygon fill="black" stroke="black" points="219.867,-729.074 226.008,-720.44 215.824,-723.36 219.867,-729.074"/>
</g>
<!-- vut1_intermediate_p&#45;&gt;PPi -->
<g id="edge6" class="edge"><title>vut1_intermediate_p&#45;&gt;PPi</title>
<path fill="none" stroke="black" d="M180.053,-753C182.288,-753 254.25,-753 312,-753 312,-753 312,-753 358,-753 483.408,-753 632.72,-767.518 692.891,-773.971"/>
<polygon fill="black" stroke="black" points="692.744,-777.475 703.064,-775.077 693.5,-770.516 692.744,-777.475"/>
</g>
<!-- vur1 -->
<g id="node27" class="node"><title>vur1</title>
<polygon fill="none" stroke="black" points="364,-714 350,-714 350,-700 364,-700 364,-714"/>
</g>
<!-- vur1_intermediate_p -->
<g id="node29" class="node"><title>vur1_intermediate_p</title>
<ellipse fill="black" stroke="black" cx="401" cy="-465" rx="0.036" ry="0.036"/>
</g>
<!-- vur1&#45;&gt;vur1_intermediate_p -->
<g id="edge13" class="edge"><title>vur1&#45;&gt;vur1_intermediate_p</title>
<path fill="none" stroke="black" d="M359.257,-699.757C366.136,-660.121 398.952,-471.04 399.976,-465.141"/>
</g>
<!-- vur1&#45;&gt;vur1_intermediate_m -->
<g id="edge16" class="edge"><title>vur1&#45;&gt;vur1_intermediate_m</title>
<path fill="none" stroke="black" d="M364.095,-706.492C401.666,-703.589 605.082,-691.239 754,-750 772.023,-757.112 788.912,-775.783 789.95,-776.943"/>
</g>
<!-- vur1_intermediate_r&#45;&gt;vur1 -->
<g id="edge11" class="edge"><title>vur1_intermediate_r&#45;&gt;vur1</title>
<path fill="none" stroke="black" d="M314.12,-707C315.968,-707 338.602,-707 349.803,-707"/>
</g>
<!-- vur1_intermediate_p&#45;&gt;PII -->
<g id="edge14" class="edge"><title>vur1_intermediate_p&#45;&gt;PII</title>
<path fill="none" stroke="black" d="M399.862,-465C397.023,-465 351.028,-465 314,-465 134,-465 134,-465 134,-465 110.489,-465 84.4983,-469.585 64.1373,-474.25"/>
<polygon fill="black" stroke="black" points="63.2467,-470.864 54.3386,-476.6 64.8791,-477.671 63.2467,-470.864"/>
</g>
<!-- vur1_intermediate_p&#45;&gt;UMP -->
<g id="edge15" class="edge"><title>vur1_intermediate_p&#45;&gt;UMP</title>
<path fill="none" stroke="black" d="M402.053,-464.961C404.253,-463.326 475.167,-411 540,-411 540,-411 540,-411 856,-411 956.218,-411 979.412,-785.811 983.991,-892.799"/>
<polygon fill="black" stroke="black" points="980.496,-892.999 984.4,-902.849 987.491,-892.715 980.496,-892.999"/>
</g>
<!-- vut2 -->
<g id="node31" class="node"><title>vut2</title>
<polygon fill="none" stroke="black" points="364,-847 350,-847 350,-833 364,-833 364,-847"/>
</g>
<!-- vut2_intermediate_p -->
<g id="node33" class="node"><title>vut2_intermediate_p</title>
<ellipse fill="black" stroke="black" cx="401" cy="-883" rx="0.036" ry="0.036"/>
</g>
<!-- vut2&#45;&gt;vut2_intermediate_p -->
<g id="edge23" class="edge"><title>vut2&#45;&gt;vut2_intermediate_p</title>
<path fill="none" stroke="black" d="M364.197,-846.345C375.515,-857.932 398.505,-881.469 399.93,-882.929"/>
</g>
<!-- vut2&#45;&gt;vut2_intermediate_m -->
<g id="edge26" class="edge"><title>vut2&#45;&gt;vut2_intermediate_m</title>
<path fill="none" stroke="black" d="M364.231,-836.801C397.293,-819.858 555.674,-739.117 688,-679 731.392,-659.287 786.437,-637.413 789.835,-636.066"/>
</g>
<!-- vut2_intermediate_r&#45;&gt;vut2 -->
<g id="edge20" class="edge"><title>vut2_intermediate_r&#45;&gt;vut2</title>
<path fill="none" stroke="black" d="M314.12,-840C315.968,-840 338.602,-840 349.803,-840"/>
</g>
<!-- vut2_intermediate_p&#45;&gt;PIIUMP2 -->
<g id="edge24" class="edge"><title>vut2_intermediate_p&#45;&gt;PIIUMP2</title>
<path fill="none" stroke="black" d="M402.049,-883.033C403.169,-883.791 423.167,-897.319 441.179,-909.503"/>
<polygon fill="black" stroke="black" points="439.526,-912.611 449.77,-915.315 443.449,-906.813 439.526,-912.611"/>
</g>
<!-- vut2_intermediate_p&#45;&gt;PPi -->
<g id="edge25" class="edge"><title>vut2_intermediate_p&#45;&gt;PPi</title>
<path fill="none" stroke="black" d="M402.166,-882.968C405.57,-882.319 460.715,-871.724 504,-859 574.776,-838.195 655.341,-804.961 695.101,-787.895"/>
<polygon fill="black" stroke="black" points="696.507,-791.1 704.299,-783.922 693.731,-784.674 696.507,-791.1"/>
</g>
<!-- vur2 -->
<g id="node35" class="node"><title>vur2</title>
<polygon fill="none" stroke="black" points="603,-919 589,-919 589,-905 603,-905 603,-919"/>
</g>
<!-- vur2_intermediate_p -->
<g id="node37" class="node"><title>vur2_intermediate_p</title>
<ellipse fill="black" stroke="black" cx="651" cy="-985" rx="0.036" ry="0.036"/>
</g>
<!-- vur2&#45;&gt;vur2_intermediate_p -->
<g id="edge32" class="edge"><title>vur2&#45;&gt;vur2_intermediate_p</title>
<path fill="none" stroke="black" d="M602.276,-919.266C615.262,-937.154 647.876,-982.074 649.901,-984.864"/>
</g>
<!-- vur2&#45;&gt;vur2_intermediate_m -->
<g id="edge35" class="edge"><title>vur2&#45;&gt;vur2_intermediate_m</title>
<path fill="none" stroke="black" d="M603.082,-912.775C624.83,-915.269 700.297,-921.511 754,-896 773.8,-886.594 789.023,-861.627 789.955,-860.076"/>
</g>
<!-- vur2_intermediate_r&#45;&gt;vur2 -->
<g id="edge30" class="edge"><title>vur2_intermediate_r&#45;&gt;vur2</title>
<path fill="none" stroke="black" d="M542.152,-908.011C544.581,-908.195 575.47,-910.526 588.868,-911.537"/>
</g>
<!-- vur2_intermediate_p&#45;&gt;PIIUMP -->
<g id="edge33" class="edge"><title>vur2_intermediate_p&#45;&gt;PIIUMP</title>
<path fill="none" stroke="black" d="M649.909,-985.007C646.098,-985.294 523.478,-994.171 438,-956 370.917,-926.043 356.346,-907.575 312,-849 285.063,-813.421 265.895,-764.893 255.64,-734.774"/>
<polygon fill="black" stroke="black" points="258.851,-733.335 252.387,-724.94 252.205,-735.534 258.851,-733.335"/>
</g>
<!-- vur2_intermediate_p&#45;&gt;UMP -->
<g id="edge34" class="edge"><title>vur2_intermediate_p&#45;&gt;UMP</title>
<path fill="none" stroke="black" d="M652.056,-985.004C654.39,-985.186 729.568,-991 790,-991 790,-991 790,-991 856,-991 898.851,-991 941.072,-960.792 964.999,-940.064"/>
<polygon fill="black" stroke="black" points="967.556,-942.472 972.67,-933.193 962.886,-937.258 967.556,-942.472"/>
</g>
<!-- vut3 -->
<g id="node39" class="node"><title>vut3</title>
<polygon fill="none" stroke="black" points="603,-811 589,-811 589,-797 603,-797 603,-811"/>
</g>
<!-- vut3_intermediate_p -->
<g id="node41" class="node"><title>vut3_intermediate_p</title>
<ellipse fill="black" stroke="black" cx="651" cy="-849" rx="0.036" ry="0.036"/>
</g>
<!-- vut3&#45;&gt;vut3_intermediate_p -->
<g id="edge41" class="edge"><title>vut3&#45;&gt;vut3_intermediate_p</title>
<path fill="none" stroke="black" d="M603.08,-809.162C616.566,-820.613 647.956,-847.265 649.905,-848.919"/>
</g>
<!-- vut3&#45;&gt;vut3_intermediate_m -->
<g id="edge44" class="edge"><title>vut3&#45;&gt;vut3_intermediate_m</title>
<path fill="none" stroke="black" d="M601.965,-796.874C631.702,-754.195 785.099,-534.034 789.885,-527.164"/>
</g>
<!-- vut3_intermediate_r&#45;&gt;vut3 -->
<g id="edge38" class="edge"><title>vut3_intermediate_r&#45;&gt;vut3</title>
<path fill="none" stroke="black" d="M542.152,-810.98C544.581,-810.659 575.47,-806.579 588.868,-804.81"/>
</g>
<!-- vut3_intermediate_p&#45;&gt;PIIUMP3 -->
<g id="edge42" class="edge"><title>vut3_intermediate_p&#45;&gt;PIIUMP3</title>
<path fill="none" stroke="black" d="M652.049,-849.014C652.98,-849.288 666.94,-853.394 681.967,-857.814"/>
<polygon fill="black" stroke="black" points="681.288,-861.262 691.869,-860.726 683.263,-854.547 681.288,-861.262"/>
</g>
<!-- vut3_intermediate_p&#45;&gt;PPi -->
<g id="edge43" class="edge"><title>vut3_intermediate_p&#45;&gt;PPi</title>
<path fill="none" stroke="black" d="M652.057,-848.934C653.218,-847.59 672.053,-825.809 688,-809 691.921,-804.868 696.187,-800.509 700.289,-796.385"/>
<polygon fill="black" stroke="black" points="702.773,-798.85 707.385,-789.311 697.831,-793.892 702.773,-798.85"/>
</g>
<!-- vur3 -->
<g id="node43" class="node"><title>vur3</title>
<polygon fill="none" stroke="black" points="862,-885 848,-885 848,-871 862,-871 862,-885"/>
</g>
<!-- vur3_intermediate_p -->
<g id="node45" class="node"><title>vur3_intermediate_p</title>
<ellipse fill="black" stroke="black" cx="919" cy="-921" rx="0.036" ry="0.036"/>
</g>
<!-- vur3&#45;&gt;vur3_intermediate_p -->
<g id="edge50" class="edge"><title>vur3&#45;&gt;vur3_intermediate_p</title>
<path fill="none" stroke="black" d="M862.171,-882.28C877.364,-892.817 915.515,-919.276 917.884,-920.92"/>
</g>
<!-- vur3&#45;&gt;vur3_intermediate_m -->
<g id="edge53" class="edge"><title>vur3&#45;&gt;vur3_intermediate_m</title>
<path fill="none" stroke="black" d="M858.355,-870.974C869.503,-837.709 916.499,-697.479 917.965,-693.105"/>
</g>
<!-- vur3_intermediate_r&#45;&gt;vur3 -->
<g id="edge48" class="edge"><title>vur3_intermediate_r&#45;&gt;vur3</title>
<path fill="none" stroke="black" d="M792.045,-878C793.541,-878 831.995,-878 847.555,-878"/>
</g>
<!-- vur3_intermediate_p&#45;&gt;PIIUMP2 -->
<g id="edge51" class="edge"><title>vur3_intermediate_p&#45;&gt;PIIUMP2</title>
<path fill="none" stroke="black" d="M917.938,-921.045C915.35,-922.943 831.928,-983.805 754,-1002 662.203,-1023.43 554.58,-974.953 502.844,-947.007"/>
<polygon fill="black" stroke="black" points="504.298,-943.812 493.851,-942.049 500.919,-949.942 504.298,-943.812"/>
</g>
<!-- vur3_intermediate_p&#45;&gt;UMP -->
<g id="edge52" class="edge"><title>vur3_intermediate_p&#45;&gt;UMP</title>
<path fill="none" stroke="black" d="M920.047,-921C921.117,-921 940.207,-921 957.416,-921"/>
<polygon fill="black" stroke="black" points="957.709,-924.5 967.709,-921 957.709,-917.5 957.709,-924.5"/>
</g>
<!-- vad -->
<g id="node47" class="node"><title>vad</title>
<polygon fill="none" stroke="black" points="478,-165 464,-165 464,-151 478,-151 478,-165"/>
</g>
<!-- vad_intermediate_p -->
<g id="node49" class="node"><title>vad_intermediate_p</title>
<ellipse fill="black" stroke="black" cx="541" cy="-158" rx="0.036" ry="0.036"/>
</g>
<!-- vad&#45;&gt;vad_intermediate_p -->
<g id="edge58" class="edge"><title>vad&#45;&gt;vad_intermediate_p</title>
<path fill="none" stroke="black" d="M478.275,-158C494.583,-158 537.222,-158 539.871,-158"/>
</g>
<!-- vad&#45;&gt;vad_intermediate_m -->
<g id="edge60" class="edge"><title>vad&#45;&gt;vad_intermediate_m</title>
<path fill="none" stroke="black" d="M474.275,-165.084C483.861,-193.41 523.786,-297 595,-297 595,-297 595,-297 652,-297 712.685,-297 787.618,-283.434 789.944,-283.01"/>
</g>
<!-- vad_intermediate_r&#45;&gt;vad -->
<g id="edge56" class="edge"><title>vad_intermediate_r&#45;&gt;vad</title>
<path fill="none" stroke="black" d="M917.949,-13.9899C915.827,-13.5659 847.464,-0 792,-0 595,-0 595,-0 595,-0 517.479,-0 481.681,-119.891 473.74,-150.801"/>
</g>
<!-- vad_intermediate_p&#45;&gt;AMP -->
<g id="edge59" class="edge"><title>vad_intermediate_p&#45;&gt;AMP</title>
<path fill="none" stroke="black" d="M542.152,-158C543.632,-158 555.681,-158 567.9,-158"/>
<polygon fill="black" stroke="black" points="567.975,-161.5 577.975,-158 567.975,-154.5 567.975,-161.5"/>
</g>
<!-- vdead -->
<g id="node51" class="node"><title>vdead</title>
<polygon fill="none" stroke="black" points="728,-269 714,-269 714,-255 728,-255 728,-269"/>
</g>
<!-- vdead_intermediate_p -->
<g id="node53" class="node"><title>vdead_intermediate_p</title>
<ellipse fill="black" stroke="black" cx="791" cy="-192" rx="0.036" ry="0.036"/>
</g>
<!-- vdead&#45;&gt;vdead_intermediate_p -->
<g id="edge66" class="edge"><title>vdead&#45;&gt;vdead_intermediate_p</title>
<path fill="none" stroke="black" d="M728.469,-259.898C735.378,-257.412 746.363,-252.741 754,-246 774.948,-227.507 789.094,-194.166 789.958,-192.101"/>
</g>
<!-- vdead&#45;&gt;vdead_intermediate_m -->
<g id="edge68" class="edge"><title>vdead&#45;&gt;vdead_intermediate_m</title>
<path fill="none" stroke="black" d="M728.275,-265.599C744.583,-274.952 787.222,-299.407 789.871,-300.926"/>
</g>
<!-- vdead_intermediate_r&#45;&gt;vdead -->
<g id="edge64" class="edge"><title>vdead_intermediate_r&#45;&gt;vdead</title>
<path fill="none" stroke="black" d="M652.051,-210.066C653.103,-211.414 670.217,-233.183 688,-246 696.264,-251.956 707.072,-256.847 713.774,-259.594"/>
</g>
<!-- vdead_intermediate_p&#45;&gt;GS -->
<g id="edge67" class="edge"><title>vdead_intermediate_p&#45;&gt;GS</title>
<path fill="none" stroke="black" d="M792.045,-191.894C793.393,-188.721 824.731,-114.924 842.308,-73.5327"/>
<polygon fill="black" stroke="black" points="845.56,-74.8281 846.248,-64.2556 839.117,-72.092 845.56,-74.8281"/>
</g>
<!-- vgdh -->
<g id="node55" class="node"><title>vgdh</title>
<polygon fill="none" stroke="black" points="862,-172 848,-172 848,-158 862,-158 862,-172"/>
</g>
<!-- vgdh_intermediate_p -->
<g id="node57" class="node"><title>vgdh_intermediate_p</title>
<ellipse fill="black" stroke="black" cx="919" cy="-46" rx="0.036" ry="0.036"/>
</g>
<!-- vgdh&#45;&gt;vgdh_intermediate_p -->
<g id="edge77" class="edge"><title>vgdh&#45;&gt;vgdh_intermediate_p</title>
<path fill="none" stroke="black" d="M859.693,-157.912C872.832,-132.694 916.603,-48.6819 917.967,-46.0626"/>
</g>
<!-- vgdh_intermediate_r&#45;&gt;vgdh -->
<g id="edge73" class="edge"><title>vgdh_intermediate_r&#45;&gt;vgdh</title>
<path fill="none" stroke="black" d="M792.045,-165C793.541,-165 831.995,-165 847.555,-165"/>
</g>
<!-- vgdh_intermediate_p&#45;&gt;GLU -->
<g id="edge78" class="edge"><title>vgdh_intermediate_p&#45;&gt;GLU</title>
<path fill="none" stroke="black" d="M920.047,-46.0275C921.193,-46.6974 943.015,-59.455 961.053,-70.0002"/>
<polygon fill="black" stroke="black" points="959.612,-73.2118 970.011,-75.2373 963.145,-67.1687 959.612,-73.2118"/>
</g>
<!-- vgdh_intermediate_p&#45;&gt;NADP -->
<g id="edge79" class="edge"><title>vgdh_intermediate_p&#45;&gt;NADP</title>
<path fill="none" stroke="black" d="M920.047,-45.9884C921.14,-45.7195 941.035,-40.8222 958.52,-36.5181"/>
<polygon fill="black" stroke="black" points="959.503,-39.8807 968.377,-34.0918 957.83,-33.0835 959.503,-39.8807"/>
</g>
<!-- vgog -->
<g id="node58" class="node"><title>vgog</title>
<polygon fill="none" stroke="black" points="862,-226 848,-226 848,-212 862,-212 862,-226"/>
</g>
<!-- vgog_intermediate_p -->
<g id="node60" class="node"><title>vgog_intermediate_p</title>
<ellipse fill="black" stroke="black" cx="919" cy="-64" rx="0.036" ry="0.036"/>
</g>
<!-- vgog&#45;&gt;vgog_intermediate_p -->
<g id="edge84" class="edge"><title>vgog&#45;&gt;vgog_intermediate_p</title>
<path fill="none" stroke="black" d="M861.883,-211.837C867.678,-204.484 876.445,-192.521 882,-181 905.26,-132.759 917.611,-66.1202 917.991,-64.0495"/>
</g>
<!-- vgog&#45;&gt;vgog_intermediate_m -->
<g id="edge87" class="edge"><title>vgog&#45;&gt;vgog_intermediate_m</title>
<path fill="none" stroke="black" d="M859.79,-226.283C873.22,-250.978 921.182,-330 985,-330 985,-330 985,-330 1142,-330 1185.49,-330 1197.48,-326.808 1238,-311 1254.92,-304.398 1272.84,-289.941 1273.95,-289.044"/>
</g>
<!-- vgog_intermediate_r&#45;&gt;vgog -->
<g id="edge80" class="edge"><title>vgog_intermediate_r&#45;&gt;vgog</title>
<path fill="none" stroke="black" d="M792.045,-219C793.541,-219 831.995,-219 847.555,-219"/>
</g>
<!-- vgog_intermediate_p&#45;&gt;GLU -->
<g id="edge85" class="edge"><title>vgog_intermediate_p&#45;&gt;GLU</title>
<path fill="none" stroke="black" d="M920.047,-64.0145C921.146,-64.3527 941.269,-70.5444 958.829,-75.9473"/>
<polygon fill="black" stroke="black" points="958.121,-79.3913 968.708,-78.987 960.179,-72.7009 958.121,-79.3913"/>
</g>
<!-- vgog_intermediate_p&#45;&gt;NADP -->
<g id="edge86" class="edge"><title>vgog_intermediate_p&#45;&gt;NADP</title>
<path fill="none" stroke="black" d="M920.047,-63.9754C921.186,-63.3795 942.766,-52.0914 960.743,-42.6881"/>
<polygon fill="black" stroke="black" points="962.45,-45.7455 969.688,-38.0091 959.205,-39.5428 962.45,-45.7455"/>
</g>
<!-- vgs -->
<g id="node62" class="node"><title>vgs</title>
<polygon fill="none" stroke="black" points="1104,-210 1090,-210 1090,-196 1104,-196 1104,-210"/>
</g>
<!-- vgs_intermediate_p -->
<g id="node64" class="node"><title>vgs_intermediate_p</title>
<ellipse fill="black" stroke="black" cx="1141" cy="-244" rx="0.036" ry="0.036"/>
</g>
<!-- vgs&#45;&gt;vgs_intermediate_p -->
<g id="edge93" class="edge"><title>vgs&#45;&gt;vgs_intermediate_p</title>
<path fill="none" stroke="black" d="M1104.2,-209.05C1115.52,-220.098 1138.5,-242.54 1139.93,-243.932"/>
</g>
<!-- vgs&#45;&gt;vgs_intermediate_m -->
<g id="edge97" class="edge"><title>vgs&#45;&gt;vgs_intermediate_m</title>
<path fill="none" stroke="black" d="M1104.2,-201.967C1115.52,-200.081 1138.5,-196.249 1139.93,-196.012"/>
</g>
<!-- vgs_intermediate_r&#45;&gt;vgs -->
<g id="edge89" class="edge"><title>vgs_intermediate_r&#45;&gt;vgs</title>
<path fill="none" stroke="black" d="M1054.03,-130.053C1055.05,-131.832 1081.61,-177.983 1091.94,-195.942"/>
</g>
<!-- vgs_intermediate_p&#45;&gt;P_i -->
<g id="edge94" class="edge"><title>vgs_intermediate_p&#45;&gt;P_i</title>
<path fill="none" stroke="black" d="M1142.05,-244.029C1143.2,-244.738 1165.27,-258.317 1183.36,-269.453"/>
<polygon fill="black" stroke="black" points="1181.98,-272.713 1192.33,-274.973 1185.65,-266.752 1181.98,-272.713"/>
</g>
<!-- vgs_intermediate_p&#45;&gt;GLN -->
<g id="edge95" class="edge"><title>vgs_intermediate_p&#45;&gt;GLN</title>
<path fill="none" stroke="black" d="M1139.88,-244.138C1137.36,-246.953 1096.4,-292 1054,-292 985,-292 985,-292 985,-292 891.657,-292 864.65,-313.962 790,-370 767.235,-387.089 748.002,-413.623 735.862,-432.896"/>
<polygon fill="black" stroke="black" points="732.869,-431.082 730.642,-441.44 738.842,-434.731 732.869,-431.082"/>
</g>
<!-- vgs_intermediate_p&#45;&gt;ADP -->
<g id="edge96" class="edge"><title>vgs_intermediate_p&#45;&gt;ADP</title>
<path fill="none" stroke="black" d="M1142.06,-243.932C1143.19,-242.531 1161.63,-219.852 1178,-203 1180.7,-200.221 1183.61,-197.358 1186.52,-194.583"/>
<polygon fill="black" stroke="black" points="1189.12,-196.945 1194.03,-187.559 1184.34,-191.832 1189.12,-196.945"/>
</g>
<!-- vgludem -->
<g id="node66" class="node"><title>vgludem</title>
<polygon fill="none" stroke="black" points="1104,-99 1090,-99 1090,-85 1104,-85 1104,-99"/>
</g>
<!-- vgludem_intermediate_p -->
<g id="node68" class="node"><title>vgludem_intermediate_p</title>
<ellipse fill="black" stroke="black" cx="1141" cy="-165" rx="0.036" ry="0.036"/>
</g>
<!-- vgludem&#45;&gt;vgludem_intermediate_p -->
<g id="edge101" class="edge"><title>vgludem&#45;&gt;vgludem_intermediate_p</title>
<path fill="none" stroke="black" d="M1102.18,-99.2664C1112.47,-117.154 1138.32,-162.074 1139.92,-164.864"/>
</g>
<!-- vgludem_intermediate_r&#45;&gt;vgludem -->
<g id="edge99" class="edge"><title>vgludem_intermediate_r&#45;&gt;vgludem</title>
<path fill="none" stroke="black" d="M1054.12,-87.0143C1055.97,-87.2343 1078.6,-89.9288 1089.8,-91.2622"/>
</g>
<!-- vgludem_intermediate_p&#45;&gt;AZGLU -->
<g id="edge102" class="edge"><title>vgludem_intermediate_p&#45;&gt;AZGLU</title>
<path fill="none" stroke="black" d="M1142.06,-165.063C1143.21,-166.346 1161.99,-187.133 1178,-203 1179.63,-204.613 1181.32,-206.264 1183.04,-207.915"/>
<polygon fill="black" stroke="black" points="1180.9,-210.711 1190.57,-215.04 1185.71,-205.625 1180.9,-210.711"/>
</g>
<!-- vazgludem -->
<g id="node69" class="node"><title>vazgludem</title>
<polygon fill="none" stroke="black" points="1326,-237 1312,-237 1312,-223 1326,-223 1326,-237"/>
</g>
<!-- vazgludem_intermediate_p -->
<g id="node71" class="node"><title>vazgludem_intermediate_p</title>
<ellipse fill="black" stroke="black" cx="1363" cy="-230" rx="0.036" ry="0.036"/>
</g>
<!-- vazgludem&#45;&gt;vazgludem_intermediate_p -->
<g id="edge105" class="edge"><title>vazgludem&#45;&gt;vazgludem_intermediate_p</title>
<path fill="none" stroke="black" d="M1326.2,-230C1337.52,-230 1360.5,-230 1361.93,-230"/>
</g>
<!-- vazgludem_intermediate_r&#45;&gt;vazgludem -->
<g id="edge103" class="edge"><title>vazgludem_intermediate_r&#45;&gt;vazgludem</title>
<path fill="none" stroke="black" d="M1276.12,-230C1277.97,-230 1300.6,-230 1311.8,-230"/>
</g>
<!-- vazgludem_intermediate_p&#45;&gt;AZglu -->
<g id="edge106" class="edge"><title>vazgludem_intermediate_p&#45;&gt;AZglu</title>
<path fill="none" stroke="black" d="M1364.04,-230C1364.86,-230 1376.73,-230 1389.87,-230"/>
<polygon fill="black" stroke="black" points="1390,-233.5 1400,-230 1390,-226.5 1390,-233.5"/>
</g>
<!-- vglndem -->
<g id="node72" class="node"><title>vglndem</title>
<polygon fill="none" stroke="black" points="862,-383 848,-383 848,-369 862,-369 862,-383"/>
</g>
<!-- vglndem_intermediate_p -->
<g id="node74" class="node"><title>vglndem_intermediate_p</title>
<ellipse fill="black" stroke="black" cx="919" cy="-376" rx="0.036" ry="0.036"/>
</g>
<!-- vglndem&#45;&gt;vglndem_intermediate_p -->
<g id="edge109" class="edge"><title>vglndem&#45;&gt;vglndem_intermediate_p</title>
<path fill="none" stroke="black" d="M862.171,-376C877.364,-376 915.515,-376 917.884,-376"/>
</g>
<!-- vglndem_intermediate_r&#45;&gt;vglndem -->
<g id="edge107" class="edge"><title>vglndem_intermediate_r&#45;&gt;vglndem</title>
<path fill="none" stroke="black" d="M792.045,-378.998C793.541,-378.925 831.995,-377.065 847.555,-376.312"/>
</g>
<!-- vglndem_intermediate_p&#45;&gt;AZGLN -->
<g id="edge110" class="edge"><title>vglndem_intermediate_p&#45;&gt;AZGLN</title>
<path fill="none" stroke="black" d="M920.047,-376C920.874,-376 932.476,-376 945.651,-376"/>
<polygon fill="black" stroke="black" points="945.881,-379.5 955.881,-376 945.881,-372.5 945.881,-379.5"/>
</g>
<!-- vazglndem -->
<g id="node75" class="node"><title>vazglndem</title>
<polygon fill="none" stroke="black" points="1104,-383 1090,-383 1090,-369 1104,-369 1104,-383"/>
</g>
<!-- vazglndem_intermediate_p -->
<g id="node77" class="node"><title>vazglndem_intermediate_p</title>
<ellipse fill="black" stroke="black" cx="1141" cy="-376" rx="0.036" ry="0.036"/>
</g>
<!-- vazglndem&#45;&gt;vazglndem_intermediate_p -->
<g id="edge113" class="edge"><title>vazglndem&#45;&gt;vazglndem_intermediate_p</title>
<path fill="none" stroke="black" d="M1104.2,-376C1115.52,-376 1138.5,-376 1139.93,-376"/>
</g>
<!-- vazglndem_intermediate_r&#45;&gt;vazglndem -->
<g id="edge111" class="edge"><title>vazglndem_intermediate_r&#45;&gt;vazglndem</title>
<path fill="none" stroke="black" d="M1054.12,-376C1055.97,-376 1078.6,-376 1089.8,-376"/>
</g>
<!-- vazglndem_intermediate_p&#45;&gt;AZgln -->
<g id="edge114" class="edge"><title>vazglndem_intermediate_p&#45;&gt;AZgln</title>
<path fill="none" stroke="black" d="M1142.05,-376C1142.94,-376 1156.4,-376 1170.84,-376"/>
<polygon fill="black" stroke="black" points="1170.85,-379.5 1180.85,-376 1170.85,-372.5 1170.85,-379.5"/>
</g>
<!-- vatpase -->
<g id="node78" class="node"><title>vatpase</title>
<polygon fill="none" stroke="black" points="1326,-175 1312,-175 1312,-161 1326,-161 1326,-175"/>
</g>
<!-- vatpase_intermediate_p -->
<g id="node80" class="node"><title>vatpase_intermediate_p</title>
<ellipse fill="black" stroke="black" cx="1363" cy="-162" rx="0.036" ry="0.036"/>
</g>
<!-- vatpase&#45;&gt;vatpase_intermediate_p -->
<g id="edge117" class="edge"><title>vatpase&#45;&gt;vatpase_intermediate_p</title>
<path fill="none" stroke="black" d="M1326.2,-167.115C1337.52,-165.498 1360.5,-162.214 1361.93,-162.01"/>
</g>
<!-- vatpase_intermediate_r&#45;&gt;vatpase -->
<g id="edge115" class="edge"><title>vatpase_intermediate_r&#45;&gt;vatpase</title>
<path fill="none" stroke="black" d="M1276.12,-170.991C1277.97,-170.859 1300.6,-169.243 1311.8,-168.443"/>
</g>
<!-- vatpase_intermediate_p&#45;&gt;ATP -->
<g id="edge118" class="edge"><title>vatpase_intermediate_p&#45;&gt;ATP</title>
<path fill="none" stroke="black" d="M1364.04,-161.983C1365.08,-161.599 1383.84,-154.64 1400.45,-148.479"/>
<polygon fill="black" stroke="black" points="1401.67,-151.759 1409.83,-145 1399.23,-145.196 1401.67,-151.759"/>
</g>
</g>
</svg>
