<?xml version="1.0" encoding="UTF-8" standalone="no"?>
<!DOCTYPE svg PUBLIC "-//W3C//DTD SVG 1.1//EN"
 "http://www.w3.org/Graphics/SVG/1.1/DTD/svg11.dtd">
<!-- Generated by graphviz version 2.30.1 (20140821.0912)
 -->
<!-- Title: G Pages: 1 -->
<svg width="2532pt" height="626pt"
 viewBox="0.00 0.00 2532.00 626.00" xmlns="http://www.w3.org/2000/svg" xmlns:xlink="http://www.w3.org/1999/xlink">
<g id="graph0" class="graph" transform="scale(1 1) rotate(0) translate(4 622)">
<title>G</title>
<polygon fill="white" stroke="white" points="-4,5 -4,-622 2529,-622 2529,5 -4,5"/>
<!-- GLCi -->
<g id="GLCi [CHEBI:4167]" class="node"><title>GLCi</title>
<ellipse fill="none" stroke="black" cx="212" cy="-80" rx="18" ry="18"/>
<text text-anchor="middle" x="212" y="-77.5" font-family="Times,serif" font-size="10.00">GLCi</text>
</g>
<!-- HXK_intermediate_r -->
<g id="node30" class="node"><title>HXK_intermediate_r</title>
<ellipse fill="black" stroke="black" cx="266" cy="-80" rx="0.036" ry="0.036"/>
</g>
<!-- GLCi&#45;&gt;HXK_intermediate_r -->
<g id="edge6" class="edge"><title>GLCi&#45;&gt;HXK_intermediate_r</title>
<path fill="none" stroke="black" d="M230.027,-80C244.718,-80 263.767,-80 264.943,-80"/>
</g>
<!-- ATP -->
<g id="ATP [CHEBI:15422]" class="node"><title>ATP</title>
<ellipse fill="none" stroke="black" cx="1626" cy="-242" rx="18" ry="18"/>
<text text-anchor="middle" x="1626" y="-239.5" font-family="Times,serif" font-size="10.00">ATP</text>
</g>
<!-- ATP&#45;&gt;HXK_intermediate_r -->
<g id="edge7" class="edge"><title>ATP&#45;&gt;HXK_intermediate_r</title>
<path fill="none" stroke="black" d="M1624.68,-223.896C1622.75,-173.97 1609.96,-38 1528,-38 352,-38 352,-38 352,-38 311.179,-38 269.678,-77.416 267.124,-79.8795"/>
</g>
<!-- PFK_intermediate_r -->
<g id="node36" class="node"><title>PFK_intermediate_r</title>
<ellipse fill="black" stroke="black" cx="661" cy="-122" rx="0.036" ry="0.036"/>
</g>
<!-- ATP&#45;&gt;PFK_intermediate_r -->
<g id="edge16" class="edge"><title>ATP&#45;&gt;PFK_intermediate_r</title>
<path fill="none" stroke="black" d="M1619.67,-224.86C1605.3,-182.448 1561.52,-76 1484,-76 748,-76 748,-76 748,-76 706.008,-76 664.667,-119.17 662.124,-121.868"/>
</g>
<!-- ATPase_intermediate_r -->
<g id="node67" class="node"><title>ATPase_intermediate_r</title>
<ellipse fill="black" stroke="black" cx="1681" cy="-256" rx="0.036" ry="0.036"/>
</g>
<!-- ATP&#45;&gt;ATPase_intermediate_r -->
<g id="edge71" class="edge"><title>ATP&#45;&gt;ATPase_intermediate_r</title>
<path fill="none" stroke="black" d="M1643.48,-246.353C1658.55,-250.334 1678.7,-255.655 1679.94,-255.984"/>
</g>
<!-- glycogen_branch_intermediate_r -->
<g id="node76" class="node"><title>glycogen_branch_intermediate_r</title>
<ellipse fill="black" stroke="black" cx="1681" cy="-472" rx="0.036" ry="0.036"/>
</g>
<!-- ATP&#45;&gt;glycogen_branch_intermediate_r -->
<g id="edge86" class="edge"><title>ATP&#45;&gt;glycogen_branch_intermediate_r</title>
<path fill="none" stroke="black" d="M1631.07,-259.666C1643.29,-312.682 1678.86,-467.073 1679.97,-471.885"/>
</g>
<!-- trehalose_synth_intermediate_r -->
<g id="node79" class="node"><title>trehalose_synth_intermediate_r</title>
<ellipse fill="black" stroke="black" cx="1681" cy="-149" rx="0.036" ry="0.036"/>
</g>
<!-- ATP&#45;&gt;trehalose_synth_intermediate_r -->
<g id="edge92" class="edge"><title>ATP&#45;&gt;trehalose_synth_intermediate_r</title>
<path fill="none" stroke="black" d="M1635.75,-226.643C1650.33,-201.054 1678.19,-152.178 1679.92,-149.148"/>
</g>
<!-- G6P -->
<g id="G6P [CHEBI:17665]" class="node"><title>G6P</title>
<ellipse fill="none" stroke="black" cx="408" cy="-122" rx="18" ry="18"/>
<text text-anchor="middle" x="408" y="-119.5" font-family="Times,serif" font-size="10.00">G6P</text>
</g>
<!-- PGI_intermediate_r -->
<g id="node33" class="node"><title>PGI_intermediate_r</title>
<ellipse fill="black" stroke="black" cx="463" cy="-122" rx="0.036" ry="0.036"/>
</g>
<!-- G6P&#45;&gt;PGI_intermediate_r -->
<g id="edge12" class="edge"><title>G6P&#45;&gt;PGI_intermediate_r</title>
<path fill="none" stroke="black" d="M426.061,-122C441.071,-122 460.727,-122 461.941,-122"/>
</g>
<!-- G6P&#45;&gt;glycogen_branch_intermediate_r -->
<g id="edge87" class="edge"><title>G6P&#45;&gt;glycogen_branch_intermediate_r</title>
<path fill="none" stroke="black" d="M409.239,-140.047C410.78,-220.438 422.184,-542 506,-542 506,-542 506,-542 607,-542 678.19,-542 676.81,-618 748,-618 748,-618 748,-618 1484,-618 1590.93,-618 1677.26,-476.527 1679.94,-472.106"/>
</g>
<!-- G6P&#45;&gt;trehalose_synth_intermediate_r -->
<g id="edge93" class="edge"><title>G6P&#45;&gt;trehalose_synth_intermediate_r</title>
<path fill="none" stroke="black" d="M422.499,-110.865C440.413,-97.2509 473.57,-76 506,-76 506,-76 506,-76 607,-76 678.19,-76 676.81,-7.10543e-15 748,-0 748,-0 748,-0 1572,-0 1652.51,-0 1679.17,-144.38 1679.98,-148.892"/>
</g>
<!-- ADP -->
<g id="ADP [CHEBI:16761]" class="node"><title>ADP</title>
<ellipse fill="none" stroke="black" cx="804" cy="-393" rx="18" ry="18"/>
<text text-anchor="middle" x="804" y="-390.5" font-family="Times,serif" font-size="10.00">ADP</text>
</g>
<!-- PGK_intermediate_r -->
<g id="node49" class="node"><title>PGK_intermediate_r</title>
<ellipse fill="black" stroke="black" cx="859" cy="-570" rx="0.036" ry="0.036"/>
</g>
<!-- ADP&#45;&gt;PGK_intermediate_r -->
<g id="edge40" class="edge"><title>ADP&#45;&gt;PGK_intermediate_r</title>
<path fill="none" stroke="black" d="M810.082,-409.972C823.14,-453.581 856.922,-566.401 857.975,-569.916"/>
</g>
<!-- PYK_intermediate_r -->
<g id="node58" class="node"><title>PYK_intermediate_r</title>
<ellipse fill="black" stroke="black" cx="1483" cy="-452" rx="0.036" ry="0.036"/>
</g>
<!-- ADP&#45;&gt;PYK_intermediate_r -->
<g id="edge54" class="edge"><title>ADP&#45;&gt;PYK_intermediate_r</title>
<path fill="none" stroke="black" d="M821.286,-398.192C840.405,-403.817 873.171,-412 902,-412 902,-412 902,-412 1330,-412 1398.76,-412 1479.44,-450.76 1481.94,-451.971"/>
</g>
<!-- AK_intermediate_r -->
<g id="node70" class="node"><title>AK_intermediate_r</title>
<ellipse fill="black" stroke="black" cx="859" cy="-327" rx="0.036" ry="0.036"/>
</g>
<!-- ADP&#45;&gt;AK_intermediate_r -->
<g id="edge75" class="edge"><title>ADP&#45;&gt;AK_intermediate_r</title>
<path fill="none" stroke="black" d="M815.982,-379.325C831.021,-360.597 856.355,-329.049 857.924,-327.095"/>
</g>
<!-- F6P -->
<g id="F6P [CHEBI:16084]" class="node"><title>F6P</title>
<ellipse fill="none" stroke="black" cx="606" cy="-122" rx="18" ry="18"/>
<text text-anchor="middle" x="606" y="-119.5" font-family="Times,serif" font-size="10.00">F6P</text>
</g>
<!-- F6P&#45;&gt;PFK_intermediate_r -->
<g id="edge17" class="edge"><title>F6P&#45;&gt;PFK_intermediate_r</title>
<path fill="none" stroke="black" d="M624.061,-122C639.071,-122 658.727,-122 659.941,-122"/>
</g>
<!-- F16bP -->
<g id="F16bP [CHEBI:28013]" class="node"><title>F16bP</title>
<ellipse fill="none" stroke="black" cx="804" cy="-141" rx="18" ry="18"/>
<text text-anchor="middle" x="804" y="-138.5" font-family="Times,serif" font-size="10.00">F16bP</text>
</g>
<!-- FBA_intermediate_r -->
<g id="node40" class="node"><title>FBA_intermediate_r</title>
<ellipse fill="black" stroke="black" cx="1911" cy="-142" rx="0.036" ry="0.036"/>
</g>
<!-- F16bP&#45;&gt;FBA_intermediate_r -->
<g id="edge25" class="edge"><title>F16bP&#45;&gt;FBA_intermediate_r</title>
<path fill="none" stroke="black" d="M820.758,-133.764C839.647,-125.767 872.458,-114 902,-114 902,-114 902,-114 1770,-114 1832.46,-114 1907.61,-141.132 1909.94,-141.98"/>
</g>
<!-- F26bP -->
<g id="F26bP [CHEBI:28602]" class="node"><title>F26bP</title>
<ellipse fill="none" stroke="black" cx="1017" cy="-328" rx="32.9303" ry="18"/>
<text text-anchor="middle" x="1017" y="-325.5" font-family="Times,serif" font-size="10.00">Fru2,6&#45;P2</text>
</g>
<!-- PFK_intermediate_m -->
<g id="node38" class="node"><title>PFK_intermediate_m</title>
<ellipse fill="black" stroke="black" cx="1087" cy="-274" rx="0.036" ry="0.036"/>
</g>
<!-- F26bP&#45;&gt;PFK_intermediate_m -->
<g id="edge23" class="edge"><title>F26bP&#45;&gt;PFK_intermediate_m</title>
<path fill="none" stroke="black" d="M1036.58,-313.244C1056.09,-297.755 1084.18,-275.446 1085.92,-274.067"/>
</g>
<!-- AMP -->
<g id="AMP [CHEBI:16027]" class="node"><title>AMP</title>
<ellipse fill="none" stroke="black" cx="1017" cy="-274" rx="18" ry="18"/>
<text text-anchor="middle" x="1017" y="-271.5" font-family="Times,serif" font-size="10.00">AMP</text>
</g>
<!-- AMP&#45;&gt;PFK_intermediate_m -->
<g id="edge22" class="edge"><title>AMP&#45;&gt;PFK_intermediate_m</title>
<path fill="none" stroke="black" d="M1035.16,-274C1054.67,-274 1084.09,-274 1085.91,-274"/>
</g>
<!-- DHAP -->
<g id="DHAP [CHEBI:16108]" class="node"><title>DHAP</title>
<ellipse fill="none" stroke="black" cx="2069" cy="-296" rx="18" ry="18"/>
<text text-anchor="middle" x="2069" y="-293.5" font-family="Times,serif" font-size="10.00">DHAP</text>
</g>
<!-- TPI_intermediate_r -->
<g id="node43" class="node"><title>TPI_intermediate_r</title>
<ellipse fill="black" stroke="black" cx="2139" cy="-296" rx="0.036" ry="0.036"/>
</g>
<!-- DHAP&#45;&gt;TPI_intermediate_r -->
<g id="edge30" class="edge"><title>DHAP&#45;&gt;TPI_intermediate_r</title>
<path fill="none" stroke="black" d="M2087.16,-296C2106.67,-296 2136.09,-296 2137.91,-296"/>
</g>
<!-- G3PDH_intermediate_r -->
<g id="node73" class="node"><title>G3PDH_intermediate_r</title>
<ellipse fill="black" stroke="black" cx="2139" cy="-390" rx="0.036" ry="0.036"/>
</g>
<!-- DHAP&#45;&gt;G3PDH_intermediate_r -->
<g id="edge80" class="edge"><title>DHAP&#45;&gt;G3PDH_intermediate_r</title>
<path fill="none" stroke="black" d="M2080.33,-310.277C2098.76,-335.751 2135.6,-386.687 2137.89,-389.846"/>
</g>
<!-- GAP -->
<g id="GAP [CHEBI:29052]" class="node"><title>GAP</title>
<ellipse fill="none" stroke="black" cx="2295" cy="-292" rx="18" ry="18"/>
<text text-anchor="middle" x="2295" y="-289.5" font-family="Times,serif" font-size="10.00">GAP</text>
</g>
<!-- TDH_intermediate_r -->
<g id="node46" class="node"><title>TDH_intermediate_r</title>
<ellipse fill="black" stroke="black" cx="2363" cy="-346" rx="0.036" ry="0.036"/>
</g>
<!-- GAP&#45;&gt;TDH_intermediate_r -->
<g id="edge34" class="edge"><title>GAP&#45;&gt;TDH_intermediate_r</title>
<path fill="none" stroke="black" d="M2309.36,-302.928C2328.04,-318.214 2359.93,-344.305 2361.9,-345.921"/>
</g>
<!-- NAD -->
<g id="NAD [CHEBI:15846]" class="node"><title>NAD</title>
<ellipse fill="none" stroke="black" cx="2295" cy="-346" rx="18" ry="18"/>
<text text-anchor="middle" x="2295" y="-343.5" font-family="Times,serif" font-size="10.00">NAD</text>
</g>
<!-- NAD&#45;&gt;TDH_intermediate_r -->
<g id="edge35" class="edge"><title>NAD&#45;&gt;TDH_intermediate_r</title>
<path fill="none" stroke="black" d="M2313.34,-346C2332.28,-346 2360.19,-346 2361.92,-346"/>
</g>
<!-- ADH_intermediate_r -->
<g id="node64" class="node"><title>ADH_intermediate_r</title>
<ellipse fill="black" stroke="black" cx="2363" cy="-492" rx="0.036" ry="0.036"/>
</g>
<!-- NAD&#45;&gt;ADH_intermediate_r -->
<g id="edge65" class="edge"><title>NAD&#45;&gt;ADH_intermediate_r</title>
<path fill="none" stroke="black" d="M2310.11,-355.98C2315.75,-360.594 2321.87,-366.494 2326,-373 2355.16,-418.914 2361.8,-489.745 2362,-491.947"/>
</g>
<!-- succinate_syn_intermediate_r -->
<g id="node82" class="node"><title>succinate_syn_intermediate_r</title>
<ellipse fill="black" stroke="black" cx="1911" cy="-419" rx="0.036" ry="0.036"/>
</g>
<!-- NAD&#45;&gt;succinate_syn_intermediate_r -->
<g id="edge98" class="edge"><title>NAD&#45;&gt;succinate_syn_intermediate_r</title>
<path fill="none" stroke="black" d="M2276.85,-346C2255.21,-346 2216.85,-346 2184,-346 1998,-346 1998,-346 1998,-346 1948.65,-346 1913.12,-416.737 1912.03,-418.947"/>
</g>
<!-- BPG -->
<g id="BPG [CHEBI:16001]" class="node"><title>BPG</title>
<ellipse fill="none" stroke="black" cx="2506" cy="-532" rx="18" ry="18"/>
<text text-anchor="middle" x="2506" y="-529.5" font-family="Times,serif" font-size="10.00">BPG</text>
</g>
<!-- BPG&#45;&gt;PGK_intermediate_r -->
<g id="edge41" class="edge"><title>BPG&#45;&gt;PGK_intermediate_r</title>
<path fill="none" stroke="black" d="M2496.6,-547.774C2482.1,-572.601 2449.86,-618 2408,-618 1625,-618 1625,-618 1625,-618 1560.1,-618 1548.9,-580 1484,-580 946,-580 946,-580 946,-580 908.723,-580 862.961,-570.615 860.137,-570.029"/>
</g>
<!-- NADH -->
<g id="NADH [CHEBI:16908]" class="node"><title>NADH</title>
<ellipse fill="none" stroke="black" cx="2069" cy="-446" rx="18" ry="18"/>
<text text-anchor="middle" x="2069" y="-443.5" font-family="Times,serif" font-size="10.00">NADH</text>
</g>
<!-- NADH&#45;&gt;G3PDH_intermediate_r -->
<g id="edge81" class="edge"><title>NADH&#45;&gt;G3PDH_intermediate_r</title>
<path fill="none" stroke="black" d="M2083.43,-434.936C2102.63,-419.126 2135.84,-391.776 2137.9,-390.083"/>
</g>
<!-- P3G -->
<g id="P3G [CHEBI:17794]" class="node"><title>P3G</title>
<ellipse fill="none" stroke="black" cx="1017" cy="-496" rx="18" ry="18"/>
<text text-anchor="middle" x="1017" y="-493.5" font-family="Times,serif" font-size="10.00">P3G</text>
</g>
<!-- GPM_intermediate_r -->
<g id="node52" class="node"><title>GPM_intermediate_r</title>
<ellipse fill="black" stroke="black" cx="1087" cy="-496" rx="0.036" ry="0.036"/>
</g>
<!-- P3G&#45;&gt;GPM_intermediate_r -->
<g id="edge46" class="edge"><title>P3G&#45;&gt;GPM_intermediate_r</title>
<path fill="none" stroke="black" d="M1035.16,-496C1054.67,-496 1084.09,-496 1085.91,-496"/>
</g>
<!-- P2G -->
<g id="P2G [CHEBI:17835]" class="node"><title>P2G</title>
<ellipse fill="none" stroke="black" cx="1230" cy="-496" rx="18" ry="18"/>
<text text-anchor="middle" x="1230" y="-493.5" font-family="Times,serif" font-size="10.00">P2G</text>
</g>
<!-- ENO_intermediate_r -->
<g id="node55" class="node"><title>ENO_intermediate_r</title>
<ellipse fill="black" stroke="black" cx="1285" cy="-496" rx="0.036" ry="0.036"/>
</g>
<!-- P2G&#45;&gt;ENO_intermediate_r -->
<g id="edge50" class="edge"><title>P2G&#45;&gt;ENO_intermediate_r</title>
<path fill="none" stroke="black" d="M1248.06,-496C1263.07,-496 1282.73,-496 1283.94,-496"/>
</g>
<!-- PEP -->
<g id="PEP [CHEBI:18021]" class="node"><title>PEP</title>
<ellipse fill="none" stroke="black" cx="1428" cy="-496" rx="18" ry="18"/>
<text text-anchor="middle" x="1428" y="-493.5" font-family="Times,serif" font-size="10.00">PEP</text>
</g>
<!-- PEP&#45;&gt;PYK_intermediate_r -->
<g id="edge55" class="edge"><title>PEP&#45;&gt;PYK_intermediate_r</title>
<path fill="none" stroke="black" d="M1442.37,-484.897C1457.58,-472.27 1480.51,-453.235 1481.93,-452.057"/>
</g>
<!-- PYR -->
<g id="PYR [CHEBI:15361]" class="node"><title>PYR</title>
<ellipse fill="none" stroke="black" cx="1626" cy="-454" rx="18" ry="18"/>
<text text-anchor="middle" x="1626" y="-451.5" font-family="Times,serif" font-size="10.00">PYR</text>
</g>
<!-- PDC_intermediate_r -->
<g id="node61" class="node"><title>PDC_intermediate_r</title>
<ellipse fill="black" stroke="black" cx="1681" cy="-498" rx="0.036" ry="0.036"/>
</g>
<!-- PYR&#45;&gt;PDC_intermediate_r -->
<g id="edge60" class="edge"><title>PYR&#45;&gt;PDC_intermediate_r</title>
<path fill="none" stroke="black" d="M1640.37,-465.103C1655.58,-477.73 1678.51,-496.765 1679.93,-497.943"/>
</g>
<!-- AcAld -->
<g id="AcAld [CHEBI:15343]" class="node"><title>AcAld</title>
<ellipse fill="none" stroke="black" cx="1840" cy="-572" rx="18" ry="18"/>
<text text-anchor="middle" x="1840" y="-569.5" font-family="Times,serif" font-size="10.00">AcAld</text>
</g>
<!-- AcAld&#45;&gt;succinate_syn_intermediate_r -->
<g id="edge99" class="edge"><title>AcAld&#45;&gt;succinate_syn_intermediate_r</title>
<path fill="none" stroke="black" d="M1855.92,-562.802C1862.31,-558.176 1869.36,-552.051 1874,-545 1905.5,-497.098 1909.87,-421.41 1910,-419.056"/>
</g>
<!-- GLCo -->
<g id="GLCo [CHEBI:4167]" class="node"><title>GLCo</title>
<ellipse fill="none" stroke="black" cx="18" cy="-80" rx="18" ry="18"/>
<text text-anchor="middle" x="18" y="-77.5" font-family="Times,serif" font-size="10.00">GLCo</text>
</g>
<!-- HXT_intermediate_r -->
<g id="node27" class="node"><title>HXT_intermediate_r</title>
<ellipse fill="black" stroke="black" cx="72" cy="-80" rx="0.036" ry="0.036"/>
</g>
<!-- GLCo&#45;&gt;HXT_intermediate_r -->
<g id="edge2" class="edge"><title>GLCo&#45;&gt;HXT_intermediate_r</title>
<path fill="none" stroke="black" d="M36.0267,-80C50.7182,-80 69.7665,-80 70.9427,-80"/>
</g>
<!-- CO2 -->
<g id="CO2 [CHEBI:16526]" class="node"><title>CO2</title>
<ellipse fill="none" stroke="black" cx="1840" cy="-518" rx="18" ry="18"/>
<text text-anchor="middle" x="1840" y="-515.5" font-family="Times,serif" font-size="10.00">CO2</text>
</g>
<!-- EtOH -->
<g id="EtOH [CHEBI:16236]" class="node"><title>EtOH</title>
<ellipse fill="none" stroke="black" cx="2295" cy="-492" rx="18" ry="18"/>
<text text-anchor="middle" x="2295" y="-489.5" font-family="Times,serif" font-size="10.00">EtOH</text>
</g>
<!-- EtOH&#45;&gt;ADH_intermediate_r -->
<g id="edge66" class="edge"><title>EtOH&#45;&gt;ADH_intermediate_r</title>
<path fill="none" stroke="black" d="M2313.34,-492C2332.28,-492 2360.19,-492 2361.92,-492"/>
</g>
<!-- Glycerol -->
<g id="Glycerol [CHEBI:17754]" class="node"><title>Glycerol</title>
<ellipse fill="none" stroke="black" cx="2295" cy="-400" rx="31.3996" ry="18"/>
<text text-anchor="middle" x="2295" y="-397.5" font-family="Times,serif" font-size="10.00">Glycerol</text>
</g>
<!-- Glycogen -->
<g id="Glycogen [CHEBI:28087]" class="node"><title>Glycogen</title>
<ellipse fill="none" stroke="black" cx="1840" cy="-464" rx="33.6077" ry="18"/>
<text text-anchor="middle" x="1840" y="-461.5" font-family="Times,serif" font-size="10.00">Glycogen</text>
</g>
<!-- Trehalose -->
<g id="Trehalose [CHEBI:16551]" class="node"><title>Trehalose</title>
<ellipse fill="none" stroke="black" cx="1840" cy="-172" rx="32.9303" ry="18"/>
<text text-anchor="middle" x="1840" y="-169.5" font-family="Times,serif" font-size="10.00">Trehalose</text>
</g>
<!-- Succinate -->
<g id="Succinate [CHEBI:30031]" class="node"><title>Succinate</title>
<ellipse fill="none" stroke="black" cx="2069" cy="-392" rx="32.9303" ry="18"/>
<text text-anchor="middle" x="2069" y="-389.5" font-family="Times,serif" font-size="10.00">Succinate</text>
</g>
<!-- HXT -->
<g id="node26" class="node"><title>HXT</title>
<polygon fill="none" stroke="black" points="122,-87 108,-87 108,-73 122,-73 122,-87"/>
</g>
<!-- HXT_intermediate_p -->
<g id="node28" class="node"><title>HXT_intermediate_p</title>
<ellipse fill="black" stroke="black" cx="158" cy="-80" rx="0.036" ry="0.036"/>
</g>
<!-- HXT&#45;&gt;HXT_intermediate_p -->
<g id="edge3" class="edge"><title>HXT&#45;&gt;HXT_intermediate_p</title>
<path fill="none" stroke="black" d="M122.05,-80C133.098,-80 155.54,-80 156.932,-80"/>
</g>
<!-- HXT_intermediate_r&#45;&gt;HXT -->
<g id="edge1" class="edge"><title>HXT_intermediate_r&#45;&gt;HXT</title>
<path fill="none" stroke="black" d="M73.1176,-80C74.9212,-80 97.0158,-80 107.95,-80"/>
</g>
<!-- HXT_intermediate_p&#45;&gt;GLCi -->
<g id="edge4" class="edge"><title>HXT_intermediate_p&#45;&gt;GLCi</title>
<path fill="none" stroke="black" d="M159.149,-80C160.568,-80 171.891,-80 183.595,-80"/>
<polygon fill="black" stroke="black" points="183.739,-83.5001 193.739,-80 183.739,-76.5001 183.739,-83.5001"/>
</g>
<!-- HXK -->
<g id="node29" class="node"><title>HXK</title>
<polygon fill="none" stroke="black" points="316,-108 302,-108 302,-94 316,-94 316,-108"/>
</g>
<!-- HXK_intermediate_p -->
<g id="node31" class="node"><title>HXK_intermediate_p</title>
<ellipse fill="black" stroke="black" cx="353" cy="-122" rx="0.036" ry="0.036"/>
</g>
<!-- HXK&#45;&gt;HXK_intermediate_p -->
<g id="edge8" class="edge"><title>HXK&#45;&gt;HXK_intermediate_p</title>
<path fill="none" stroke="black" d="M316.197,-104.099C327.515,-109.758 350.505,-121.252 351.93,-121.965"/>
</g>
<!-- HXK_intermediate_r&#45;&gt;HXK -->
<g id="edge5" class="edge"><title>HXK_intermediate_r&#45;&gt;HXK</title>
<path fill="none" stroke="black" d="M267.118,-80.0602C268.921,-80.9841 291.016,-92.3008 301.95,-97.9014"/>
</g>
<!-- HXK_intermediate_p&#45;&gt;G6P -->
<g id="edge9" class="edge"><title>HXK_intermediate_p&#45;&gt;G6P</title>
<path fill="none" stroke="black" d="M354.152,-122C355.632,-122 367.681,-122 379.9,-122"/>
<polygon fill="black" stroke="black" points="379.975,-125.5 389.975,-122 379.975,-118.5 379.975,-125.5"/>
</g>
<!-- HXK_intermediate_p&#45;&gt;ADP -->
<g id="edge10" class="edge"><title>HXK_intermediate_p&#45;&gt;ADP</title>
<path fill="none" stroke="black" d="M354.001,-122.083C354.06,-129.128 358.248,-580 462,-580 462,-580 462,-580 706,-580 776.679,-580 795.925,-473.434 801.113,-421.195"/>
<polygon fill="black" stroke="black" points="804.626,-421.2 802.02,-410.93 797.653,-420.583 804.626,-421.2"/>
</g>
<!-- PGI -->
<g id="node32" class="node"><title>PGI</title>
<polygon fill="none" stroke="black" points="514,-129 500,-129 500,-115 514,-115 514,-129"/>
</g>
<!-- PGI_intermediate_p -->
<g id="node34" class="node"><title>PGI_intermediate_p</title>
<ellipse fill="black" stroke="black" cx="551" cy="-122" rx="0.036" ry="0.036"/>
</g>
<!-- PGI&#45;&gt;PGI_intermediate_p -->
<g id="edge13" class="edge"><title>PGI&#45;&gt;PGI_intermediate_p</title>
<path fill="none" stroke="black" d="M514.197,-122C525.515,-122 548.505,-122 549.93,-122"/>
</g>
<!-- PGI_intermediate_r&#45;&gt;PGI -->
<g id="edge11" class="edge"><title>PGI_intermediate_r&#45;&gt;PGI</title>
<path fill="none" stroke="black" d="M464.12,-122C465.968,-122 488.602,-122 499.803,-122"/>
</g>
<!-- PGI_intermediate_p&#45;&gt;F6P -->
<g id="edge14" class="edge"><title>PGI_intermediate_p&#45;&gt;F6P</title>
<path fill="none" stroke="black" d="M552.152,-122C553.632,-122 565.681,-122 577.9,-122"/>
<polygon fill="black" stroke="black" points="577.975,-125.5 587.975,-122 577.975,-118.5 577.975,-125.5"/>
</g>
<!-- PFK -->
<g id="node35" class="node"><title>PFK</title>
<polygon fill="none" stroke="black" points="712,-187 698,-187 698,-173 712,-173 712,-187"/>
</g>
<!-- PFK_intermediate_p -->
<g id="node37" class="node"><title>PFK_intermediate_p</title>
<ellipse fill="black" stroke="black" cx="749" cy="-180" rx="0.036" ry="0.036"/>
</g>
<!-- PFK&#45;&gt;PFK_intermediate_p -->
<g id="edge18" class="edge"><title>PFK&#45;&gt;PFK_intermediate_p</title>
<path fill="none" stroke="black" d="M712.197,-180C723.515,-180 746.505,-180 747.93,-180"/>
</g>
<!-- PFK&#45;&gt;PFK_intermediate_m -->
<g id="edge21" class="edge"><title>PFK&#45;&gt;PFK_intermediate_m</title>
<path fill="none" stroke="black" d="M712.331,-183.786C727.447,-192.454 767.068,-213 803,-213 803,-213 803,-213 860,-213 945.786,-213 971.334,-212.782 1050,-247 1067.77,-254.728 1084.9,-272.822 1085.95,-273.945"/>
</g>
<!-- PFK_intermediate_r&#45;&gt;PFK -->
<g id="edge15" class="edge"><title>PFK_intermediate_r&#45;&gt;PFK</title>
<path fill="none" stroke="black" d="M662.12,-122.166C664.026,-124.798 688.036,-157.955 698.818,-172.844"/>
</g>
<!-- PFK_intermediate_p&#45;&gt;ADP -->
<g id="edge19" class="edge"><title>PFK_intermediate_p&#45;&gt;ADP</title>
<path fill="none" stroke="black" d="M750.038,-180.154C751.278,-185.137 782.206,-309.432 796.215,-365.733"/>
<polygon fill="black" stroke="black" points="792.89,-366.863 798.701,-375.722 799.682,-365.172 792.89,-366.863"/>
</g>
<!-- PFK_intermediate_p&#45;&gt;F16bP -->
<g id="edge20" class="edge"><title>PFK_intermediate_p&#45;&gt;F16bP</title>
<path fill="none" stroke="black" d="M750.152,-179.888C751.831,-178.652 767.119,-167.403 780.823,-157.319"/>
<polygon fill="black" stroke="black" points="783.034,-160.037 789.014,-151.291 778.885,-154.399 783.034,-160.037"/>
</g>
<!-- FBA -->
<g id="node39" class="node"><title>FBA</title>
<polygon fill="none" stroke="black" points="1962,-221 1948,-221 1948,-207 1962,-207 1962,-221"/>
</g>
<!-- FBA_intermediate_p -->
<g id="node41" class="node"><title>FBA_intermediate_p</title>
<ellipse fill="black" stroke="black" cx="1999" cy="-250" rx="0.036" ry="0.036"/>
</g>
<!-- FBA&#45;&gt;FBA_intermediate_p -->
<g id="edge26" class="edge"><title>FBA&#45;&gt;FBA_intermediate_p</title>
<path fill="none" stroke="black" d="M1962.2,-219.312C1973.52,-229.013 1996.5,-248.718 1997.93,-249.94"/>
</g>
<!-- FBA_intermediate_r&#45;&gt;FBA -->
<g id="edge24" class="edge"><title>FBA_intermediate_r&#45;&gt;FBA</title>
<path fill="none" stroke="black" d="M1912.03,-142.052C1913.05,-143.798 1939.35,-188.884 1949.79,-206.779"/>
</g>
<!-- FBA_intermediate_p&#45;&gt;DHAP -->
<g id="edge27" class="edge"><title>FBA_intermediate_p&#45;&gt;DHAP</title>
<path fill="none" stroke="black" d="M2000.05,-250.033C2001.3,-250.878 2026.02,-267.599 2045.28,-280.632"/>
<polygon fill="black" stroke="black" points="2043.4,-283.586 2053.65,-286.29 2047.32,-277.788 2043.4,-283.586"/>
</g>
<!-- FBA_intermediate_p&#45;&gt;GAP -->
<g id="edge28" class="edge"><title>FBA_intermediate_p&#45;&gt;GAP</title>
<path fill="none" stroke="black" d="M2000.06,-250C2002.39,-250 2077.62,-250 2138,-250 2138,-250 2138,-250 2184,-250 2215.52,-250 2248.97,-265.235 2270.6,-277.354"/>
<polygon fill="black" stroke="black" points="2268.97,-280.459 2279.38,-282.47 2272.5,-274.411 2268.97,-280.459"/>
</g>
<!-- TPI -->
<g id="node42" class="node"><title>TPI</title>
<polygon fill="none" stroke="black" points="2190,-301 2176,-301 2176,-287 2190,-287 2190,-301"/>
</g>
<!-- TPI_intermediate_p -->
<g id="node44" class="node"><title>TPI_intermediate_p</title>
<ellipse fill="black" stroke="black" cx="2227" cy="-293" rx="0.036" ry="0.036"/>
</g>
<!-- TPI&#45;&gt;TPI_intermediate_p -->
<g id="edge31" class="edge"><title>TPI&#45;&gt;TPI_intermediate_p</title>
<path fill="none" stroke="black" d="M2190.2,-293.852C2201.52,-293.583 2224.5,-293.036 2225.93,-293.002"/>
</g>
<!-- TPI_intermediate_r&#45;&gt;TPI -->
<g id="edge29" class="edge"><title>TPI_intermediate_r&#45;&gt;TPI</title>
<path fill="none" stroke="black" d="M2140.12,-295.994C2141.97,-295.906 2164.6,-294.828 2175.8,-294.295"/>
</g>
<!-- TPI_intermediate_p&#45;&gt;GAP -->
<g id="edge32" class="edge"><title>TPI_intermediate_p&#45;&gt;GAP</title>
<path fill="none" stroke="black" d="M2228.05,-292.999C2229.14,-292.983 2248.75,-292.686 2266.3,-292.42"/>
<polygon fill="black" stroke="black" points="2266.84,-295.912 2276.78,-292.261 2266.73,-288.913 2266.84,-295.912"/>
</g>
<!-- TDH -->
<g id="node45" class="node"><title>TDH</title>
<polygon fill="none" stroke="black" points="2414,-386 2400,-386 2400,-372 2414,-372 2414,-386"/>
</g>
<!-- TDH_intermediate_p -->
<g id="node47" class="node"><title>TDH_intermediate_p</title>
<ellipse fill="black" stroke="black" cx="2451" cy="-446" rx="0.036" ry="0.036"/>
</g>
<!-- TDH&#45;&gt;TDH_intermediate_p -->
<g id="edge36" class="edge"><title>TDH&#45;&gt;TDH_intermediate_p</title>
<path fill="none" stroke="black" d="M2412.49,-386.17C2422.99,-402.914 2448.35,-443.366 2449.92,-445.877"/>
</g>
<!-- TDH_intermediate_r&#45;&gt;TDH -->
<g id="edge33" class="edge"><title>TDH_intermediate_r&#45;&gt;TDH</title>
<path fill="none" stroke="black" d="M2364.12,-346.095C2365.97,-347.546 2388.6,-365.33 2399.8,-374.131"/>
</g>
<!-- TDH_intermediate_p&#45;&gt;BPG -->
<g id="edge37" class="edge"><title>TDH_intermediate_p&#45;&gt;BPG</title>
<path fill="none" stroke="black" d="M2452.04,-446.062C2453.08,-447.757 2475.18,-483.619 2490.5,-508.475"/>
<polygon fill="black" stroke="black" points="2487.56,-510.374 2495.79,-517.051 2493.52,-506.701 2487.56,-510.374"/>
</g>
<!-- TDH_intermediate_p&#45;&gt;NADH -->
<g id="edge38" class="edge"><title>TDH_intermediate_p&#45;&gt;NADH</title>
<path fill="none" stroke="black" d="M2449.86,-446C2447.02,-446 2401.03,-446 2364,-446 2182,-446 2182,-446 2182,-446 2153.09,-446 2119.99,-446 2097.31,-446"/>
<polygon fill="black" stroke="black" points="2097.08,-442.5 2087.08,-446 2097.08,-449.5 2097.08,-442.5"/>
</g>
<!-- PGK -->
<g id="node48" class="node"><title>PGK</title>
<polygon fill="none" stroke="black" points="910,-509 896,-509 896,-495 910,-495 910,-509"/>
</g>
<!-- PGK_intermediate_p -->
<g id="node50" class="node"><title>PGK_intermediate_p</title>
<ellipse fill="black" stroke="black" cx="947" cy="-496" rx="0.036" ry="0.036"/>
</g>
<!-- PGK&#45;&gt;PGK_intermediate_p -->
<g id="edge42" class="edge"><title>PGK&#45;&gt;PGK_intermediate_p</title>
<path fill="none" stroke="black" d="M910.197,-501.115C921.515,-499.498 944.505,-496.214 945.93,-496.01"/>
</g>
<!-- PGK_intermediate_r&#45;&gt;PGK -->
<g id="edge39" class="edge"><title>PGK_intermediate_r&#45;&gt;PGK</title>
<path fill="none" stroke="black" d="M860.03,-569.951C861.044,-568.31 887.093,-526.135 897.634,-509.069"/>
</g>
<!-- PGK_intermediate_p&#45;&gt;ATP -->
<g id="edge43" class="edge"><title>PGK_intermediate_p&#45;&gt;ATP</title>
<path fill="none" stroke="black" d="M948.051,-495.945C949.106,-494.826 966.261,-476.791 984,-469 1026.22,-450.457 1039.89,-450 1086,-450 1086,-450 1086,-450 1330,-450 1457.33,-450 1568.38,-318.967 1608.77,-264.904"/>
<polygon fill="black" stroke="black" points="1611.75,-266.757 1614.85,-256.626 1606.11,-262.613 1611.75,-266.757"/>
</g>
<!-- PGK_intermediate_p&#45;&gt;P3G -->
<g id="edge44" class="edge"><title>PGK_intermediate_p&#45;&gt;P3G</title>
<path fill="none" stroke="black" d="M948.049,-496C949.204,-496 970.448,-496 988.878,-496"/>
<polygon fill="black" stroke="black" points="988.956,-499.5 998.956,-496 988.956,-492.5 988.956,-499.5"/>
</g>
<!-- GPM -->
<g id="node51" class="node"><title>GPM</title>
<polygon fill="none" stroke="black" points="1138,-503 1124,-503 1124,-489 1138,-489 1138,-503"/>
</g>
<!-- GPM_intermediate_p -->
<g id="node53" class="node"><title>GPM_intermediate_p</title>
<ellipse fill="black" stroke="black" cx="1175" cy="-496" rx="0.036" ry="0.036"/>
</g>
<!-- GPM&#45;&gt;GPM_intermediate_p -->
<g id="edge47" class="edge"><title>GPM&#45;&gt;GPM_intermediate_p</title>
<path fill="none" stroke="black" d="M1138.2,-496C1149.52,-496 1172.5,-496 1173.93,-496"/>
</g>
<!-- GPM_intermediate_r&#45;&gt;GPM -->
<g id="edge45" class="edge"><title>GPM_intermediate_r&#45;&gt;GPM</title>
<path fill="none" stroke="black" d="M1088.12,-496C1089.97,-496 1112.6,-496 1123.8,-496"/>
</g>
<!-- GPM_intermediate_p&#45;&gt;P2G -->
<g id="edge48" class="edge"><title>GPM_intermediate_p&#45;&gt;P2G</title>
<path fill="none" stroke="black" d="M1176.15,-496C1177.63,-496 1189.68,-496 1201.9,-496"/>
<polygon fill="black" stroke="black" points="1201.98,-499.5 1211.98,-496 1201.98,-492.5 1201.98,-499.5"/>
</g>
<!-- ENO -->
<g id="node54" class="node"><title>ENO</title>
<polygon fill="none" stroke="black" points="1336,-503 1322,-503 1322,-489 1336,-489 1336,-503"/>
</g>
<!-- ENO_intermediate_p -->
<g id="node56" class="node"><title>ENO_intermediate_p</title>
<ellipse fill="black" stroke="black" cx="1373" cy="-496" rx="0.036" ry="0.036"/>
</g>
<!-- ENO&#45;&gt;ENO_intermediate_p -->
<g id="edge51" class="edge"><title>ENO&#45;&gt;ENO_intermediate_p</title>
<path fill="none" stroke="black" d="M1336.2,-496C1347.52,-496 1370.5,-496 1371.93,-496"/>
</g>
<!-- ENO_intermediate_r&#45;&gt;ENO -->
<g id="edge49" class="edge"><title>ENO_intermediate_r&#45;&gt;ENO</title>
<path fill="none" stroke="black" d="M1286.12,-496C1287.97,-496 1310.6,-496 1321.8,-496"/>
</g>
<!-- ENO_intermediate_p&#45;&gt;PEP -->
<g id="edge52" class="edge"><title>ENO_intermediate_p&#45;&gt;PEP</title>
<path fill="none" stroke="black" d="M1374.15,-496C1375.63,-496 1387.68,-496 1399.9,-496"/>
<polygon fill="black" stroke="black" points="1399.98,-499.5 1409.98,-496 1399.98,-492.5 1399.98,-499.5"/>
</g>
<!-- PYK -->
<g id="node57" class="node"><title>PYK</title>
<polygon fill="none" stroke="black" points="1534,-459 1520,-459 1520,-445 1534,-445 1534,-459"/>
</g>
<!-- PYK_intermediate_p -->
<g id="node59" class="node"><title>PYK_intermediate_p</title>
<ellipse fill="black" stroke="black" cx="1571" cy="-452" rx="0.036" ry="0.036"/>
</g>
<!-- PYK&#45;&gt;PYK_intermediate_p -->
<g id="edge56" class="edge"><title>PYK&#45;&gt;PYK_intermediate_p</title>
<path fill="none" stroke="black" d="M1534.2,-452C1545.52,-452 1568.5,-452 1569.93,-452"/>
</g>
<!-- PYK_intermediate_r&#45;&gt;PYK -->
<g id="edge53" class="edge"><title>PYK_intermediate_r&#45;&gt;PYK</title>
<path fill="none" stroke="black" d="M1484.12,-452C1485.97,-452 1508.6,-452 1519.8,-452"/>
</g>
<!-- PYK_intermediate_p&#45;&gt;ATP -->
<g id="edge57" class="edge"><title>PYK_intermediate_p&#45;&gt;ATP</title>
<path fill="none" stroke="black" d="M1572.04,-451.848C1573.28,-446.947 1604.06,-324.973 1618.12,-269.279"/>
<polygon fill="black" stroke="black" points="1621.56,-269.939 1620.61,-259.386 1614.77,-268.226 1621.56,-269.939"/>
</g>
<!-- PYK_intermediate_p&#45;&gt;PYR -->
<g id="edge58" class="edge"><title>PYK_intermediate_p&#45;&gt;PYR</title>
<path fill="none" stroke="black" d="M1572.15,-452.006C1573.63,-452.062 1585.68,-452.516 1597.9,-452.977"/>
<polygon fill="black" stroke="black" points="1597.85,-456.478 1607.98,-453.358 1598.11,-449.483 1597.85,-456.478"/>
</g>
<!-- PDC -->
<g id="node60" class="node"><title>PDC</title>
<polygon fill="none" stroke="black" points="1732,-584 1718,-584 1718,-570 1732,-570 1732,-584"/>
</g>
<!-- PDC_intermediate_p -->
<g id="node62" class="node"><title>PDC_intermediate_p</title>
<ellipse fill="black" stroke="black" cx="1769" cy="-572" rx="0.036" ry="0.036"/>
</g>
<!-- PDC&#45;&gt;PDC_intermediate_p -->
<g id="edge61" class="edge"><title>PDC&#45;&gt;PDC_intermediate_p</title>
<path fill="none" stroke="black" d="M1732.2,-576.262C1743.52,-574.915 1766.5,-572.178 1767.93,-572.008"/>
</g>
<!-- PDC_intermediate_r&#45;&gt;PDC -->
<g id="edge59" class="edge"><title>PDC_intermediate_r&#45;&gt;PDC</title>
<path fill="none" stroke="black" d="M1682.03,-498.057C1683.06,-500.001 1710.12,-550.901 1720.24,-569.92"/>
</g>
<!-- PDC_intermediate_p&#45;&gt;AcAld -->
<g id="edge62" class="edge"><title>PDC_intermediate_p&#45;&gt;AcAld</title>
<path fill="none" stroke="black" d="M1770.05,-572C1771.22,-572 1792.78,-572 1811.48,-572"/>
<polygon fill="black" stroke="black" points="1811.71,-575.5 1821.71,-572 1811.71,-568.5 1811.71,-575.5"/>
</g>
<!-- PDC_intermediate_p&#45;&gt;CO2 -->
<g id="edge63" class="edge"><title>PDC_intermediate_p&#45;&gt;CO2</title>
<path fill="none" stroke="black" d="M1770.05,-571.961C1771.35,-570.944 1797.71,-550.311 1817.46,-534.86"/>
<polygon fill="black" stroke="black" points="1819.7,-537.548 1825.42,-528.628 1815.39,-532.035 1819.7,-537.548"/>
</g>
<!-- ADH -->
<g id="node63" class="node"><title>ADH</title>
<polygon fill="none" stroke="black" points="2414,-505 2400,-505 2400,-491 2414,-491 2414,-505"/>
</g>
<!-- ADH_intermediate_p -->
<g id="node65" class="node"><title>ADH_intermediate_p</title>
<ellipse fill="black" stroke="black" cx="2451" cy="-538" rx="0.036" ry="0.036"/>
</g>
<!-- ADH&#45;&gt;ADH_intermediate_p -->
<g id="edge67" class="edge"><title>ADH&#45;&gt;ADH_intermediate_p</title>
<path fill="none" stroke="black" d="M2414.2,-503.902C2425.52,-514.681 2448.5,-536.576 2449.93,-537.934"/>
</g>
<!-- ADH_intermediate_r&#45;&gt;ADH -->
<g id="edge64" class="edge"><title>ADH_intermediate_r&#45;&gt;ADH</title>
<path fill="none" stroke="black" d="M2364.12,-492.017C2365.97,-492.281 2388.6,-495.515 2399.8,-497.115"/>
</g>
<!-- ADH_intermediate_p&#45;&gt;NADH -->
<g id="edge68" class="edge"><title>ADH_intermediate_p&#45;&gt;NADH</title>
<path fill="none" stroke="black" d="M2449.86,-538C2447.02,-538 2401.03,-538 2364,-538 2182,-538 2182,-538 2182,-538 2139.05,-538 2103.58,-497.094 2084.71,-469.834"/>
<polygon fill="black" stroke="black" points="2087.41,-467.58 2078.96,-461.192 2081.59,-471.457 2087.41,-467.58"/>
</g>
<!-- ADH_intermediate_p&#45;&gt;AcAld -->
<g id="edge69" class="edge"><title>ADH_intermediate_p&#45;&gt;AcAld</title>
<path fill="none" stroke="black" d="M2449.87,-538.109C2447.24,-540.338 2404.48,-576 2364,-576 1954,-576 1954,-576 1954,-576 1924.68,-576 1891.11,-574.639 1868.23,-573.504"/>
<polygon fill="black" stroke="black" points="1868.39,-570.008 1858.22,-572.989 1868.03,-576.999 1868.39,-570.008"/>
</g>
<!-- ATPase -->
<g id="node66" class="node"><title>ATPase</title>
<polygon fill="none" stroke="black" points="1732,-291 1718,-291 1718,-277 1732,-277 1732,-291"/>
</g>
<!-- ATPase_intermediate_p -->
<g id="node68" class="node"><title>ATPase_intermediate_p</title>
<ellipse fill="black" stroke="black" cx="1769" cy="-329" rx="0.036" ry="0.036"/>
</g>
<!-- ATPase&#45;&gt;ATPase_intermediate_p -->
<g id="edge72" class="edge"><title>ATPase&#45;&gt;ATPase_intermediate_p</title>
<path fill="none" stroke="black" d="M1732.2,-290.64C1743.52,-302.766 1766.5,-327.398 1767.93,-328.925"/>
</g>
<!-- ATPase_intermediate_r&#45;&gt;ATPase -->
<g id="edge70" class="edge"><title>ATPase_intermediate_r&#45;&gt;ATPase</title>
<path fill="none" stroke="black" d="M1682.12,-256.08C1683.97,-257.312 1706.6,-272.401 1717.8,-279.869"/>
</g>
<!-- ATPase_intermediate_p&#45;&gt;ADP -->
<g id="edge73" class="edge"><title>ATPase_intermediate_p&#45;&gt;ADP</title>
<path fill="none" stroke="black" d="M1767.88,-329.129C1765.32,-331.769 1723.79,-374 1682,-374 902,-374 902,-374 902,-374 877.563,-374 850.297,-379.879 830.912,-385.097"/>
<polygon fill="black" stroke="black" points="829.963,-381.728 821.286,-387.808 831.86,-388.466 829.963,-381.728"/>
</g>
<!-- AK -->
<g id="node69" class="node"><title>AK</title>
<polygon fill="none" stroke="black" points="910,-307 896,-307 896,-293 910,-293 910,-307"/>
</g>
<!-- AK_intermediate_p -->
<g id="node71" class="node"><title>AK_intermediate_p</title>
<ellipse fill="black" stroke="black" cx="947" cy="-274" rx="0.036" ry="0.036"/>
</g>
<!-- AK&#45;&gt;AK_intermediate_p -->
<g id="edge76" class="edge"><title>AK&#45;&gt;AK_intermediate_p</title>
<path fill="none" stroke="black" d="M910.197,-296.164C921.515,-289.157 944.505,-274.926 945.93,-274.043"/>
</g>
<!-- AK_intermediate_r&#45;&gt;AK -->
<g id="edge74" class="edge"><title>AK_intermediate_r&#45;&gt;AK</title>
<path fill="none" stroke="black" d="M860.12,-326.923C861.968,-325.735 884.602,-311.185 895.803,-303.984"/>
</g>
<!-- AK_intermediate_p&#45;&gt;ATP -->
<g id="edge77" class="edge"><title>AK_intermediate_p&#45;&gt;ATP</title>
<path fill="none" stroke="black" d="M948.048,-273.939C950.07,-271.396 1015.32,-190 1086,-190 1086,-190 1086,-190 1132,-190 1310.83,-190 1524.14,-224.256 1598.15,-237.16"/>
<polygon fill="black" stroke="black" points="1597.58,-240.614 1608.04,-238.903 1598.8,-233.721 1597.58,-240.614"/>
</g>
<!-- AK_intermediate_p&#45;&gt;AMP -->
<g id="edge78" class="edge"><title>AK_intermediate_p&#45;&gt;AMP</title>
<path fill="none" stroke="black" d="M948.049,-274C949.204,-274 970.448,-274 988.878,-274"/>
<polygon fill="black" stroke="black" points="988.956,-277.5 998.956,-274 988.956,-270.5 988.956,-277.5"/>
</g>
<!-- G3PDH -->
<g id="node72" class="node"><title>G3PDH</title>
<polygon fill="none" stroke="black" points="2190,-397 2176,-397 2176,-383 2190,-383 2190,-397"/>
</g>
<!-- G3PDH_intermediate_p -->
<g id="node74" class="node"><title>G3PDH_intermediate_p</title>
<ellipse fill="black" stroke="black" cx="2227" cy="-390" rx="0.036" ry="0.036"/>
</g>
<!-- G3PDH&#45;&gt;G3PDH_intermediate_p -->
<g id="edge82" class="edge"><title>G3PDH&#45;&gt;G3PDH_intermediate_p</title>
<path fill="none" stroke="black" d="M2190.2,-390C2201.52,-390 2224.5,-390 2225.93,-390"/>
</g>
<!-- G3PDH_intermediate_r&#45;&gt;G3PDH -->
<g id="edge79" class="edge"><title>G3PDH_intermediate_r&#45;&gt;G3PDH</title>
<path fill="none" stroke="black" d="M2140.12,-390C2141.97,-390 2164.6,-390 2175.8,-390"/>
</g>
<!-- G3PDH_intermediate_p&#45;&gt;NAD -->
<g id="edge83" class="edge"><title>G3PDH_intermediate_p&#45;&gt;NAD</title>
<path fill="none" stroke="black" d="M2228.05,-389.968C2229.24,-389.173 2252.51,-373.663 2271.07,-361.287"/>
<polygon fill="black" stroke="black" points="2273.05,-364.173 2279.43,-355.714 2269.17,-358.349 2273.05,-364.173"/>
</g>
<!-- G3PDH_intermediate_p&#45;&gt;Glycerol -->
<g id="edge84" class="edge"><title>G3PDH_intermediate_p&#45;&gt;Glycerol</title>
<path fill="none" stroke="black" d="M2228.05,-390.007C2228.9,-390.136 2240.9,-391.955 2254.44,-394.006"/>
<polygon fill="black" stroke="black" points="2254.02,-397.482 2264.43,-395.52 2255.07,-390.561 2254.02,-397.482"/>
</g>
<!-- glycogen_branch -->
<g id="node75" class="node"><title>glycogen_branch</title>
<polygon fill="none" stroke="black" points="1732,-479 1718,-479 1718,-465 1732,-465 1732,-479"/>
</g>
<!-- glycogen_branch_intermediate_p -->
<g id="node77" class="node"><title>glycogen_branch_intermediate_p</title>
<ellipse fill="black" stroke="black" cx="1769" cy="-472" rx="0.036" ry="0.036"/>
</g>
<!-- glycogen_branch&#45;&gt;glycogen_branch_intermediate_p -->
<g id="edge88" class="edge"><title>glycogen_branch&#45;&gt;glycogen_branch_intermediate_p</title>
<path fill="none" stroke="black" d="M1732.2,-472C1743.52,-472 1766.5,-472 1767.93,-472"/>
</g>
<!-- glycogen_branch_intermediate_r&#45;&gt;glycogen_branch -->
<g id="edge85" class="edge"><title>glycogen_branch_intermediate_r&#45;&gt;glycogen_branch</title>
<path fill="none" stroke="black" d="M1682.12,-472C1683.97,-472 1706.6,-472 1717.8,-472"/>
</g>
<!-- glycogen_branch_intermediate_p&#45;&gt;ADP -->
<g id="edge89" class="edge"><title>glycogen_branch_intermediate_p&#45;&gt;ADP</title>
<path fill="none" stroke="black" d="M1767.97,-472.051C1766.85,-474.17 1730.51,-542 1682,-542 902,-542 902,-542 902,-542 844.684,-542 819.481,-463.606 809.961,-420.545"/>
<polygon fill="black" stroke="black" points="813.373,-419.759 807.917,-410.677 806.518,-421.179 813.373,-419.759"/>
</g>
<!-- glycogen_branch_intermediate_p&#45;&gt;Glycogen -->
<g id="edge90" class="edge"><title>glycogen_branch_intermediate_p&#45;&gt;Glycogen</title>
<path fill="none" stroke="black" d="M1770.05,-471.994C1770.92,-471.894 1782.93,-470.5 1796.7,-468.904"/>
<polygon fill="black" stroke="black" points="1797.37,-472.35 1806.9,-467.722 1796.56,-465.397 1797.37,-472.35"/>
</g>
<!-- trehalose_synth -->
<g id="node78" class="node"><title>trehalose_synth</title>
<polygon fill="none" stroke="black" points="1732,-156 1718,-156 1718,-142 1732,-142 1732,-156"/>
</g>
<!-- trehalose_synth_intermediate_p -->
<g id="node80" class="node"><title>trehalose_synth_intermediate_p</title>
<ellipse fill="black" stroke="black" cx="1769" cy="-172" rx="0.036" ry="0.036"/>
</g>
<!-- trehalose_synth&#45;&gt;trehalose_synth_intermediate_p -->
<g id="edge94" class="edge"><title>trehalose_synth&#45;&gt;trehalose_synth_intermediate_p</title>
<path fill="none" stroke="black" d="M1732.2,-152.394C1743.52,-158.592 1766.5,-171.181 1767.93,-171.962"/>
</g>
<!-- trehalose_synth_intermediate_r&#45;&gt;trehalose_synth -->
<g id="edge91" class="edge"><title>trehalose_synth_intermediate_r&#45;&gt;trehalose_synth</title>
<path fill="none" stroke="black" d="M1682.12,-149C1683.97,-149 1706.6,-149 1717.8,-149"/>
</g>
<!-- trehalose_synth_intermediate_p&#45;&gt;ADP -->
<g id="edge95" class="edge"><title>trehalose_synth_intermediate_p&#45;&gt;ADP</title>
<path fill="none" stroke="black" d="M1767.9,-171.986C1763.85,-171.38 1633.36,-152 1528,-152 1086,-152 1086,-152 1086,-152 954.228,-152 853.283,-306.589 818.311,-368.145"/>
<polygon fill="black" stroke="black" points="815.082,-366.749 813.27,-377.187 821.196,-370.157 815.082,-366.749"/>
</g>
<!-- trehalose_synth_intermediate_p&#45;&gt;Trehalose -->
<g id="edge96" class="edge"><title>trehalose_synth_intermediate_p&#45;&gt;Trehalose</title>
<path fill="none" stroke="black" d="M1770.05,-172C1770.92,-172 1782.93,-172 1796.7,-172"/>
<polygon fill="black" stroke="black" points="1796.9,-175.5 1806.9,-172 1796.9,-168.5 1796.9,-175.5"/>
</g>
<!-- succinate_syn -->
<g id="node81" class="node"><title>succinate_syn</title>
<polygon fill="none" stroke="black" points="1962,-426 1948,-426 1948,-412 1962,-412 1962,-426"/>
</g>
<!-- succinate_syn_intermediate_p -->
<g id="node83" class="node"><title>succinate_syn_intermediate_p</title>
<ellipse fill="black" stroke="black" cx="1999" cy="-419" rx="0.036" ry="0.036"/>
</g>
<!-- succinate_syn&#45;&gt;succinate_syn_intermediate_p -->
<g id="edge100" class="edge"><title>succinate_syn&#45;&gt;succinate_syn_intermediate_p</title>
<path fill="none" stroke="black" d="M1962.2,-419C1973.52,-419 1996.5,-419 1997.93,-419"/>
</g>
<!-- succinate_syn_intermediate_r&#45;&gt;succinate_syn -->
<g id="edge97" class="edge"><title>succinate_syn_intermediate_r&#45;&gt;succinate_syn</title>
<path fill="none" stroke="black" d="M1912.12,-419C1913.97,-419 1936.6,-419 1947.8,-419"/>
</g>
<!-- succinate_syn_intermediate_p&#45;&gt;NADH -->
<g id="edge101" class="edge"><title>succinate_syn_intermediate_p&#45;&gt;NADH</title>
<path fill="none" stroke="black" d="M2000.05,-419.02C2001.24,-419.493 2023.82,-428.457 2042.62,-435.924"/>
<polygon fill="black" stroke="black" points="2041.4,-439.202 2051.98,-439.64 2043.98,-432.696 2041.4,-439.202"/>
</g>
<!-- succinate_syn_intermediate_p&#45;&gt;Succinate -->
<g id="edge102" class="edge"><title>succinate_syn_intermediate_p&#45;&gt;Succinate</title>
<path fill="none" stroke="black" d="M2000.05,-418.98C2001.03,-418.591 2016.52,-412.44 2032.46,-406.11"/>
<polygon fill="black" stroke="black" points="2033.79,-409.348 2041.79,-402.405 2031.21,-402.843 2033.79,-409.348"/>
</g>
</g>
</svg>
