<?xml version="1.0" encoding="UTF-8" standalone="no"?>
<!DOCTYPE svg PUBLIC "-//W3C//DTD SVG 1.1//EN"
 "http://www.w3.org/Graphics/SVG/1.1/DTD/svg11.dtd">
<!-- Generated by graphviz version 2.24.0 (20090616.2323)
 -->
<!-- Title: G Pages: 1 -->
<svg width="1028pt" height="322pt"
 viewBox="0.00 0.00 1028.00 321.56" xmlns="http://www.w3.org/2000/svg" xmlns:xlink="http://www.w3.org/1999/xlink">
<g id="graph1" class="graph" transform="scale(1 1) rotate(0) translate(4 317.563)">
<title>G</title>
<polygon fill="white" stroke="white" points="-4,5 -4,-317.563 1025,-317.563 1025,5 -4,5"/>
<!-- Glu -->
<g id="node1" class="node"><title>Glu</title>
<ellipse fill="none" stroke="black" cx="18" cy="-157" rx="18" ry="18"/>
<text text-anchor="middle" x="18" y="-154.5" font-family="Times Roman,serif" font-size="10.00">Glu</text>
</g>
<!-- _J1_intermediate_r -->
<g id="node13" class="node"><title>_J1_intermediate_r</title>
<ellipse fill="black" stroke="black" cx="73" cy="-209" rx="0.036" ry="0.036"/>
</g>
<!-- Glu&#45;&gt;_J1_intermediate_r -->
<g id="edge4" class="edge"><title>Glu&#45;&gt;_J1_intermediate_r</title>
<path fill="none" stroke="black" d="M31.314,-169.588C47.0827,-184.496 71.4209,-207.507 72.9266,-208.931"/>
</g>
<!-- _J3_intermediate_r -->
<g id="node27" class="node"><title>_J3_intermediate_r</title>
<ellipse fill="black" stroke="black" cx="73" cy="-141" rx="0.036" ry="0.036"/>
</g>
<!-- Glu&#45;&gt;_J3_intermediate_r -->
<g id="edge20" class="edge"><title>Glu&#45;&gt;_J3_intermediate_r</title>
<path fill="none" stroke="black" d="M35.4023,-151.938C51.0121,-147.396 71.6625,-141.389 72.9379,-141.018"/>
</g>
<!-- _J7_intermediate_r -->
<g id="node58" class="node"><title>_J7_intermediate_r</title>
<ellipse fill="black" stroke="black" cx="73" cy="-98" rx="0.036" ry="0.036"/>
</g>
<!-- Glu&#45;&gt;_J7_intermediate_r -->
<g id="edge60" class="edge"><title>Glu&#45;&gt;_J7_intermediate_r</title>
<path fill="none" stroke="black" d="M30.4804,-143.612C46.2006,-126.748 71.3666,-99.7522 72.9241,-98.0814"/>
</g>
<!-- Fru -->
<g id="node2" class="node"><title>Fru</title>
<ellipse fill="none" stroke="black" cx="233" cy="-241" rx="18" ry="18"/>
<text text-anchor="middle" x="233" y="-238.5" font-family="Times Roman,serif" font-size="10.00">Fru</text>
</g>
<!-- _J2_intermediate_r -->
<g id="node20" class="node"><title>_J2_intermediate_r</title>
<ellipse fill="black" stroke="black" cx="305" cy="-216" rx="0.036" ry="0.036"/>
</g>
<!-- Fru&#45;&gt;_J2_intermediate_r -->
<g id="edge12" class="edge"><title>Fru&#45;&gt;_J2_intermediate_r</title>
<path fill="none" stroke="black" d="M250.063,-235.075C270.689,-227.914 302.909,-216.726 304.903,-216.034"/>
</g>
<!-- _J4_intermediate_r -->
<g id="node35" class="node"><title>_J4_intermediate_r</title>
<ellipse fill="black" stroke="black" cx="305" cy="-241" rx="0.036" ry="0.036"/>
</g>
<!-- Fru&#45;&gt;_J4_intermediate_r -->
<g id="edge30" class="edge"><title>Fru&#45;&gt;_J4_intermediate_r</title>
<path fill="none" stroke="black" d="M251.169,-241C271.832,-241 302.98,-241 304.906,-241"/>
</g>
<!-- _J5_intermediate_r -->
<g id="node43" class="node"><title>_J5_intermediate_r</title>
<ellipse fill="black" stroke="black" cx="305" cy="-266" rx="0.036" ry="0.036"/>
</g>
<!-- Fru&#45;&gt;_J5_intermediate_r -->
<g id="edge40" class="edge"><title>Fru&#45;&gt;_J5_intermediate_r</title>
<path fill="none" stroke="black" d="M250.063,-246.925C270.689,-254.086 302.909,-265.274 304.903,-265.966"/>
</g>
<!-- _J10_intermediate_r -->
<g id="node81" class="node"><title>_J10_intermediate_r</title>
<ellipse fill="black" stroke="black" cx="559" cy="-100" rx="0.036" ry="0.036"/>
</g>
<!-- Fru&#45;&gt;_J10_intermediate_r -->
<g id="edge88" class="edge"><title>Fru&#45;&gt;_J10_intermediate_r</title>
<path fill="none" stroke="black" d="M245.536,-254.237C265.451,-273.763 306.44,-308 349,-308 349,-308 349,-308 393,-308 450.952,-308 480.069,-329.002 522,-289 552.482,-259.92 558.805,-104.951 558.996,-100.116"/>
</g>
<!-- Formic_acid -->
<g id="node3" class="node"><title>Formic_acid</title>
<ellipse fill="none" stroke="black" cx="476" cy="-154" rx="46.169" ry="18"/>
<text text-anchor="middle" x="476" y="-151.5" font-family="Times Roman,serif" font-size="10.00">Formic_acid</text>
</g>
<!-- Triose -->
<g id="node4" class="node"><title>Triose</title>
<ellipse fill="none" stroke="black" cx="476" cy="-262" rx="27.1978" ry="18"/>
<text text-anchor="middle" x="476" y="-259.5" font-family="Times Roman,serif" font-size="10.00">Triose</text>
</g>
<!-- _J6_intermediate_r -->
<g id="node50" class="node"><title>_J6_intermediate_r</title>
<ellipse fill="black" stroke="black" cx="559" cy="-201" rx="0.036" ry="0.036"/>
</g>
<!-- Triose&#45;&gt;_J6_intermediate_r -->
<g id="edge48" class="edge"><title>Triose&#45;&gt;_J6_intermediate_r</title>
<path fill="none" stroke="black" d="M497.668,-250.542C505.562,-246.045 514.407,-240.618 522,-235 539.393,-222.132 557.811,-202.288 558.945,-201.06"/>
</g>
<!-- Acetic_acid -->
<g id="node5" class="node"><title>Acetic_acid</title>
<ellipse fill="none" stroke="black" cx="730" cy="-73" rx="46.169" ry="18"/>
<text text-anchor="middle" x="730" y="-70.5" font-family="Times Roman,serif" font-size="10.00">Acetic_acid</text>
</g>
<!-- Cn -->
<g id="node6" class="node"><title>Cn</title>
<ellipse fill="none" stroke="black" cx="730" cy="-128" rx="27" ry="18"/>
<text text-anchor="middle" x="730" y="-125.5" font-family="Times Roman,serif" font-size="10.00">Cn</text>
</g>
<!-- Amadori -->
<g id="node7" class="node"><title>Amadori</title>
<ellipse fill="none" stroke="black" cx="233" cy="-52" rx="35.0885" ry="18"/>
<text text-anchor="middle" x="233" y="-49.5" font-family="Times Roman,serif" font-size="10.00">Amadori</text>
</g>
<!-- _J8_intermediate_r -->
<g id="node66" class="node"><title>_J8_intermediate_r</title>
<ellipse fill="black" stroke="black" cx="305" cy="-53" rx="0.036" ry="0.036"/>
</g>
<!-- Amadori&#45;&gt;_J8_intermediate_r -->
<g id="edge68" class="edge"><title>Amadori&#45;&gt;_J8_intermediate_r</title>
<path fill="none" stroke="black" d="M268.156,-52.4883C285.862,-52.7342 303.84,-52.9839 304.946,-52.9993"/>
</g>
<!-- _J9_intermediate_r -->
<g id="node74" class="node"><title>_J9_intermediate_r</title>
<ellipse fill="black" stroke="black" cx="305" cy="-28" rx="0.036" ry="0.036"/>
</g>
<!-- Amadori&#45;&gt;_J9_intermediate_r -->
<g id="edge78" class="edge"><title>Amadori&#45;&gt;_J9_intermediate_r</title>
<path fill="none" stroke="black" d="M262.701,-42.0997C281.914,-35.6952 303.598,-28.4672 304.935,-28.0217"/>
</g>
<!-- AMP -->
<g id="node8" class="node"><title>AMP</title>
<ellipse fill="none" stroke="black" cx="730" cy="-18" rx="27" ry="18"/>
<text text-anchor="middle" x="730" y="-15.5" font-family="Times Roman,serif" font-size="10.00">AMP</text>
</g>
<!-- _J11_intermediate_r -->
<g id="node89" class="node"><title>_J11_intermediate_r</title>
<ellipse fill="black" stroke="black" cx="812" cy="-18" rx="0.036" ry="0.036"/>
</g>
<!-- AMP&#45;&gt;_J11_intermediate_r -->
<g id="edge96" class="edge"><title>AMP&#45;&gt;_J11_intermediate_r</title>
<path fill="none" stroke="black" d="M757.305,-18C780.413,-18 810.079,-18 811.911,-18"/>
</g>
<!-- C5 -->
<g id="node9" class="node"><title>C5</title>
<ellipse fill="none" stroke="black" cx="476" cy="-208" rx="27" ry="18"/>
<text text-anchor="middle" x="476" y="-205.5" font-family="Times Roman,serif" font-size="10.00">C5</text>
</g>
<!-- lys_R -->
<g id="node10" class="node"><title>lys_R</title>
<ellipse fill="none" stroke="black" cx="476" cy="-100" rx="18" ry="18"/>
<text text-anchor="middle" x="476" y="-97.5" font-family="Times Roman,serif" font-size="10.00">lys_R</text>
</g>
<!-- lys_R&#45;&gt;_J7_intermediate_r -->
<g id="edge58" class="edge"><title>lys_R&#45;&gt;_J7_intermediate_r</title>
<path fill="none" stroke="black" d="M457.915,-99.5361C433.284,-98.9453 387.81,-98 349,-98 161,-98 161,-98 161,-98 123.111,-98 76.046,-98 73.1414,-98"/>
</g>
<!-- lys_R&#45;&gt;_J10_intermediate_r -->
<g id="edge86" class="edge"><title>lys_R&#45;&gt;_J10_intermediate_r</title>
<path fill="none" stroke="black" d="M494.01,-100C517.658,-100 556.48,-100 558.883,-100"/>
</g>
<!-- Melanoidin -->
<g id="node11" class="node"><title>Melanoidin</title>
<ellipse fill="none" stroke="black" cx="977" cy="-18" rx="41.9758" ry="18"/>
<text text-anchor="middle" x="977" y="-15.5" font-family="Times Roman,serif" font-size="10.00">Melanoidin</text>
</g>
<!-- _J1 -->
<g id="node12" class="node"><title>_J1</title>
<polygon fill="none" stroke="black" points="124,-224 110,-224 110,-210 124,-210 124,-224"/>
</g>
<!-- _J1_intermediate_p -->
<g id="node16" class="node"><title>_J1_intermediate_p</title>
<ellipse fill="black" stroke="black" cx="161" cy="-233" rx="0.036" ry="0.036"/>
</g>
<!-- _J1&#45;&gt;_J1_intermediate_p -->
<g id="edge6" class="edge"><title>_J1&#45;&gt;_J1_intermediate_p</title>
<path fill="none" stroke="black" d="M124.266,-219.642C136.372,-224.045 159.497,-232.453 160.93,-232.975"/>
</g>
<!-- _J1_intermediate_r&#45;&gt;_J1 -->
<g id="edge2" class="edge"><title>_J1_intermediate_r&#45;&gt;_J1</title>
<path fill="none" stroke="black" d="M73.1262,-209.023C75.0215,-209.368 97.7945,-213.508 109.759,-215.683"/>
</g>
<!-- _J1_intermediate_p&#45;&gt;Fru -->
<g id="edge8" class="edge"><title>_J1_intermediate_p&#45;&gt;Fru</title>
<path fill="none" stroke="black" d="M161.052,-233.006C162.287,-233.143 185.189,-235.688 204.826,-237.87"/>
<polygon fill="black" stroke="black" points="204.628,-241.369 214.953,-238.995 205.401,-234.412 204.628,-241.369"/>
</g>
<!-- _J2 -->
<g id="node19" class="node"><title>_J2</title>
<polygon fill="none" stroke="black" points="356,-216 342,-216 342,-202 356,-202 356,-216"/>
</g>
<!-- _J2_intermediate_p -->
<g id="node23" class="node"><title>_J2_intermediate_p</title>
<ellipse fill="black" stroke="black" cx="393" cy="-182" rx="0.036" ry="0.036"/>
</g>
<!-- _J2&#45;&gt;_J2_intermediate_p -->
<g id="edge14" class="edge"><title>_J2&#45;&gt;_J2_intermediate_p</title>
<path fill="none" stroke="black" d="M356.266,-204.541C368.372,-197.112 391.497,-182.923 392.93,-182.043"/>
</g>
<!-- _J2_intermediate_r&#45;&gt;_J2 -->
<g id="edge10" class="edge"><title>_J2_intermediate_r&#45;&gt;_J2</title>
<path fill="none" stroke="black" d="M305.126,-215.98C307.022,-215.678 329.795,-212.055 341.759,-210.152"/>
</g>
<!-- _J2_intermediate_p&#45;&gt;Glu -->
<g id="edge16" class="edge"><title>_J2_intermediate_p&#45;&gt;Glu</title>
<path fill="none" stroke="black" d="M392.859,-181.977C389.964,-181.508 343.045,-174 305,-174 117,-174 117,-174 117,-174 92.4613,-174 64.9885,-168.864 45.2206,-164.238"/>
<polygon fill="black" stroke="black" points="45.9162,-160.805 35.3707,-161.826 44.2513,-167.604 45.9162,-160.805"/>
</g>
<!-- _J3 -->
<g id="node26" class="node"><title>_J3</title>
<polygon fill="none" stroke="black" points="356,-145 342,-145 342,-131 356,-131 356,-145"/>
</g>
<!-- _J3_intermediate_p -->
<g id="node30" class="node"><title>_J3_intermediate_p</title>
<ellipse fill="black" stroke="black" cx="393" cy="-154" rx="0.036" ry="0.036"/>
</g>
<!-- _J3&#45;&gt;_J3_intermediate_p -->
<g id="edge22" class="edge"><title>_J3&#45;&gt;_J3_intermediate_p</title>
<path fill="none" stroke="black" d="M356.266,-140.642C368.372,-145.045 391.497,-153.453 392.93,-153.975"/>
</g>
<!-- _J3_intermediate_r&#45;&gt;_J3 -->
<g id="edge18" class="edge"><title>_J3_intermediate_r&#45;&gt;_J3</title>
<path fill="none" stroke="black" d="M73.1413,-140.986C76.0422,-140.692 123.05,-136 161,-136 161,-136 161,-136 233,-136 274.291,-136 323.837,-137.283 341.939,-137.793"/>
</g>
<!-- _J3_intermediate_p&#45;&gt;Formic_acid -->
<g id="edge26" class="edge"><title>_J3_intermediate_p&#45;&gt;Formic_acid</title>
<path fill="none" stroke="black" d="M393.06,-154C393.985,-154 405.472,-154 419.617,-154"/>
<polygon fill="black" stroke="black" points="419.737,-157.5 429.737,-154 419.737,-150.5 419.737,-157.5"/>
</g>
<!-- _J3_intermediate_p&#45;&gt;C5 -->
<g id="edge24" class="edge"><title>_J3_intermediate_p&#45;&gt;C5</title>
<path fill="none" stroke="black" d="M393.058,-154.046C394.246,-154.985 413.51,-170.183 430,-181 435.159,-184.384 440.748,-187.836 446.194,-191.09"/>
<polygon fill="black" stroke="black" points="444.728,-194.288 455.124,-196.334 448.273,-188.252 444.728,-194.288"/>
</g>
<!-- _J4 -->
<g id="node34" class="node"><title>_J4</title>
<polygon fill="none" stroke="black" points="356,-248 342,-248 342,-234 356,-234 356,-248"/>
</g>
<!-- _J4_intermediate_p -->
<g id="node38" class="node"><title>_J4_intermediate_p</title>
<ellipse fill="black" stroke="black" cx="393" cy="-208" rx="0.036" ry="0.036"/>
</g>
<!-- _J4&#45;&gt;_J4_intermediate_p -->
<g id="edge32" class="edge"><title>_J4&#45;&gt;_J4_intermediate_p</title>
<path fill="none" stroke="black" d="M356.266,-235.551C368.372,-226.471 391.497,-209.128 392.93,-208.052"/>
</g>
<!-- _J4_intermediate_r&#45;&gt;_J4 -->
<g id="edge28" class="edge"><title>_J4_intermediate_r&#45;&gt;_J4</title>
<path fill="none" stroke="black" d="M305.126,-241C307.022,-241 329.795,-241 341.759,-241"/>
</g>
<!-- _J4_intermediate_p&#45;&gt;Formic_acid -->
<g id="edge36" class="edge"><title>_J4_intermediate_p&#45;&gt;Formic_acid</title>
<path fill="none" stroke="black" d="M393.058,-207.954C394.246,-207.015 413.51,-191.817 430,-181 433.484,-178.714 437.165,-176.398 440.865,-174.132"/>
<polygon fill="black" stroke="black" points="442.681,-177.125 449.452,-168.976 439.077,-171.123 442.681,-177.125"/>
</g>
<!-- _J4_intermediate_p&#45;&gt;C5 -->
<g id="edge34" class="edge"><title>_J4_intermediate_p&#45;&gt;C5</title>
<path fill="none" stroke="black" d="M393.06,-208C394.376,-208 417.06,-208 438.37,-208"/>
<polygon fill="black" stroke="black" points="438.621,-211.5 448.621,-208 438.621,-204.5 438.621,-211.5"/>
</g>
<!-- _J5 -->
<g id="node42" class="node"><title>_J5</title>
<polygon fill="none" stroke="black" points="356,-280 342,-280 342,-266 356,-266 356,-280"/>
</g>
<!-- _J5_intermediate_p -->
<g id="node46" class="node"><title>_J5_intermediate_p</title>
<ellipse fill="black" stroke="black" cx="393" cy="-267" rx="0.036" ry="0.036"/>
</g>
<!-- _J5&#45;&gt;_J5_intermediate_p -->
<g id="edge42" class="edge"><title>_J5&#45;&gt;_J5_intermediate_p</title>
<path fill="none" stroke="black" d="M356.266,-272.009C368.372,-270.358 391.497,-267.205 392.93,-267.01"/>
</g>
<!-- _J5_intermediate_r&#45;&gt;_J5 -->
<g id="edge38" class="edge"><title>_J5_intermediate_r&#45;&gt;_J5</title>
<path fill="none" stroke="black" d="M305.126,-266.02C307.022,-266.322 329.795,-269.945 341.759,-271.848"/>
</g>
<!-- _J5_intermediate_p&#45;&gt;Triose -->
<g id="edge44" class="edge"><title>_J5_intermediate_p&#45;&gt;Triose</title>
<path fill="none" stroke="black" d="M393.06,-266.996C394.368,-266.918 416.77,-265.568 437.96,-264.292"/>
<polygon fill="black" stroke="black" points="438.396,-267.772 448.167,-263.677 437.975,-260.784 438.396,-267.772"/>
</g>
<!-- _J6 -->
<g id="node49" class="node"><title>_J6</title>
<polygon fill="none" stroke="black" points="610,-139 596,-139 596,-125 610,-125 610,-139"/>
</g>
<!-- _J6_intermediate_p -->
<g id="node53" class="node"><title>_J6_intermediate_p</title>
<ellipse fill="black" stroke="black" cx="647" cy="-128" rx="0.036" ry="0.036"/>
</g>
<!-- _J6&#45;&gt;_J6_intermediate_p -->
<g id="edge50" class="edge"><title>_J6&#45;&gt;_J6_intermediate_p</title>
<path fill="none" stroke="black" d="M610.266,-131.339C622.372,-130.239 645.497,-128.137 646.93,-128.006"/>
</g>
<!-- _J6_intermediate_r&#45;&gt;_J6 -->
<g id="edge46" class="edge"><title>_J6_intermediate_r&#45;&gt;_J6</title>
<path fill="none" stroke="black" d="M559.032,-200.95C560.094,-199.285 587.383,-156.49 598.426,-139.173"/>
</g>
<!-- _J6_intermediate_p&#45;&gt;Acetic_acid -->
<g id="edge54" class="edge"><title>_J6_intermediate_p&#45;&gt;Acetic_acid</title>
<path fill="none" stroke="black" d="M647.058,-127.955C648.251,-127.023 667.598,-111.949 684,-101 687.776,-98.4793 691.775,-95.9074 695.776,-93.3943"/>
<polygon fill="black" stroke="black" points="697.788,-96.2653 704.453,-88.0297 694.107,-90.3113 697.788,-96.2653"/>
</g>
<!-- _J6_intermediate_p&#45;&gt;Cn -->
<g id="edge52" class="edge"><title>_J6_intermediate_p&#45;&gt;Cn</title>
<path fill="none" stroke="black" d="M647.06,-128C648.376,-128 671.06,-128 692.37,-128"/>
<polygon fill="black" stroke="black" points="692.621,-131.5 702.621,-128 692.621,-124.5 692.621,-131.5"/>
</g>
<!-- _J7 -->
<g id="node57" class="node"><title>_J7</title>
<polygon fill="none" stroke="black" points="124,-67 110,-67 110,-53 124,-53 124,-67"/>
</g>
<!-- _J7_intermediate_p -->
<g id="node62" class="node"><title>_J7_intermediate_p</title>
<ellipse fill="black" stroke="black" cx="161" cy="-55" rx="0.036" ry="0.036"/>
</g>
<!-- _J7&#45;&gt;_J7_intermediate_p -->
<g id="edge62" class="edge"><title>_J7&#45;&gt;_J7_intermediate_p</title>
<path fill="none" stroke="black" d="M124.266,-59.1744C136.372,-57.7986 159.497,-55.1708 160.93,-55.0079"/>
</g>
<!-- _J7_intermediate_r&#45;&gt;_J7 -->
<g id="edge56" class="edge"><title>_J7_intermediate_r&#45;&gt;_J7</title>
<path fill="none" stroke="black" d="M73.1262,-97.891C75.0215,-96.2542 97.7945,-76.5866 109.759,-66.2536"/>
</g>
<!-- _J7_intermediate_p&#45;&gt;Amadori -->
<g id="edge64" class="edge"><title>_J7_intermediate_p&#45;&gt;Amadori</title>
<path fill="none" stroke="black" d="M161.052,-54.9978C161.929,-54.9613 173.748,-54.4688 187.561,-53.8933"/>
<polygon fill="black" stroke="black" points="187.998,-57.3782 197.844,-53.4648 187.707,-50.3843 187.998,-57.3782"/>
</g>
<!-- _J8 -->
<g id="node65" class="node"><title>_J8</title>
<polygon fill="none" stroke="black" points="356,-61 342,-61 342,-47 356,-47 356,-61"/>
</g>
<!-- _J8_intermediate_p -->
<g id="node69" class="node"><title>_J8_intermediate_p</title>
<ellipse fill="black" stroke="black" cx="393" cy="-54" rx="0.036" ry="0.036"/>
</g>
<!-- _J8&#45;&gt;_J8_intermediate_p -->
<g id="edge70" class="edge"><title>_J8&#45;&gt;_J8_intermediate_p</title>
<path fill="none" stroke="black" d="M356.266,-54C368.372,-54 391.497,-54 392.93,-54"/>
</g>
<!-- _J8_intermediate_r&#45;&gt;_J8 -->
<g id="edge66" class="edge"><title>_J8_intermediate_r&#45;&gt;_J8</title>
<path fill="none" stroke="black" d="M305.126,-53.0029C307.022,-53.0459 329.795,-53.5635 341.759,-53.8354"/>
</g>
<!-- _J8_intermediate_p&#45;&gt;Acetic_acid -->
<g id="edge72" class="edge"><title>_J8_intermediate_p&#45;&gt;Acetic_acid</title>
<path fill="none" stroke="black" d="M393.067,-54C395.877,-54 486.375,-54 559,-54 559,-54 559,-54 603,-54 628.635,-54 656.863,-57.8331 680.183,-62.056"/>
<polygon fill="black" stroke="black" points="679.713,-65.5291 690.189,-63.9452 681.012,-58.6506 679.713,-65.5291"/>
</g>
<!-- _J8_intermediate_p&#45;&gt;lys_R -->
<g id="edge74" class="edge"><title>_J8_intermediate_p&#45;&gt;lys_R</title>
<path fill="none" stroke="black" d="M393.06,-54.0333C394.646,-54.9124 427.262,-72.9883 451.111,-86.2061"/>
<polygon fill="black" stroke="black" points="449.609,-89.3751 460.052,-91.1614 453.002,-83.2525 449.609,-89.3751"/>
</g>
<!-- _J9 -->
<g id="node73" class="node"><title>_J9</title>
<polygon fill="none" stroke="black" points="356,-26 342,-26 342,-12 356,-12 356,-26"/>
</g>
<!-- _J9_intermediate_p -->
<g id="node77" class="node"><title>_J9_intermediate_p</title>
<ellipse fill="black" stroke="black" cx="559" cy="-16" rx="0.036" ry="0.036"/>
</g>
<!-- _J9&#45;&gt;_J9_intermediate_p -->
<g id="edge80" class="edge"><title>_J9&#45;&gt;_J9_intermediate_p</title>
<path fill="none" stroke="black" d="M356.229,-18.8967C392.578,-18.3775 553.849,-16.0736 558.88,-16.0017"/>
</g>
<!-- _J9_intermediate_r&#45;&gt;_J9 -->
<g id="edge76" class="edge"><title>_J9_intermediate_r&#45;&gt;_J9</title>
<path fill="none" stroke="black" d="M305.126,-27.9742C307.022,-27.5865 329.795,-22.9284 341.759,-20.4811"/>
</g>
<!-- _J9_intermediate_p&#45;&gt;AMP -->
<g id="edge82" class="edge"><title>_J9_intermediate_p&#45;&gt;AMP</title>
<path fill="none" stroke="black" d="M559.124,-16.0014C562.714,-16.0434 643.454,-16.9878 692.646,-17.5631"/>
<polygon fill="black" stroke="black" points="692.882,-21.066 702.922,-17.6833 692.964,-14.0665 692.882,-21.066"/>
</g>
<!-- _J10 -->
<g id="node80" class="node"><title>_J10</title>
<polygon fill="none" stroke="black" points="610,-106 596,-106 596,-92 610,-92 610,-106"/>
</g>
<!-- _J10_intermediate_p -->
<g id="node85" class="node"><title>_J10_intermediate_p</title>
<ellipse fill="black" stroke="black" cx="647" cy="-86" rx="0.036" ry="0.036"/>
</g>
<!-- _J10&#45;&gt;_J10_intermediate_p -->
<g id="edge90" class="edge"><title>_J10&#45;&gt;_J10_intermediate_p</title>
<path fill="none" stroke="black" d="M610.266,-96.8533C622.372,-93.2763 645.497,-86.4442 646.93,-86.0207"/>
</g>
<!-- _J10_intermediate_r&#45;&gt;_J10 -->
<g id="edge84" class="edge"><title>_J10_intermediate_r&#45;&gt;_J10</title>
<path fill="none" stroke="black" d="M559.126,-99.9971C561.022,-99.9541 583.795,-99.4365 595.759,-99.1646"/>
</g>
<!-- _J10_intermediate_p&#45;&gt;AMP -->
<g id="edge92" class="edge"><title>_J10_intermediate_p&#45;&gt;AMP</title>
<path fill="none" stroke="black" d="M647.053,-85.9288C648.141,-84.4674 665.84,-60.853 684,-46 688.822,-42.0564 694.249,-38.269 699.641,-34.8235"/>
<polygon fill="black" stroke="black" points="701.851,-37.5751 708.567,-29.3808 698.207,-31.5985 701.851,-37.5751"/>
</g>
<!-- _J11 -->
<g id="node88" class="node"><title>_J11</title>
<polygon fill="none" stroke="black" points="862,-25 848,-25 848,-11 862,-11 862,-25"/>
</g>
<!-- _J11_intermediate_p -->
<g id="node92" class="node"><title>_J11_intermediate_p</title>
<ellipse fill="black" stroke="black" cx="898" cy="-18" rx="0.036" ry="0.036"/>
</g>
<!-- _J11&#45;&gt;_J11_intermediate_p -->
<g id="edge98" class="edge"><title>_J11&#45;&gt;_J11_intermediate_p</title>
<path fill="none" stroke="black" d="M862.101,-18C873.932,-18 896.531,-18 897.932,-18"/>
</g>
<!-- _J11_intermediate_r&#45;&gt;_J11 -->
<g id="edge94" class="edge"><title>_J11_intermediate_r&#45;&gt;_J11</title>
<path fill="none" stroke="black" d="M812.123,-18C813.976,-18 836.231,-18 847.924,-18"/>
</g>
<!-- _J11_intermediate_p&#45;&gt;Melanoidin -->
<g id="edge100" class="edge"><title>_J11_intermediate_p&#45;&gt;Melanoidin</title>
<path fill="none" stroke="black" d="M898.057,-18C898.952,-18 910.223,-18 923.982,-18"/>
<polygon fill="black" stroke="black" points="924.328,-21.5001 934.328,-18 924.328,-14.5001 924.328,-21.5001"/>
</g>
</g>
</svg>
