<?xml version="1.0" encoding="UTF-8" standalone="no"?>
<!DOCTYPE svg PUBLIC "-//W3C//DTD SVG 1.1//EN"
 "http://www.w3.org/Graphics/SVG/1.1/DTD/svg11.dtd">
<!-- Generated by graphviz version 2.30.1 (20140821.0912)
 -->
<!-- Title: G Pages: 1 -->
<svg width="1608pt" height="1295pt"
 viewBox="0.00 0.00 1608.00 1295.00" xmlns="http://www.w3.org/2000/svg" xmlns:xlink="http://www.w3.org/1999/xlink">
<g id="graph0" class="graph" transform="scale(1 1) rotate(0) translate(4 1291)">
<title>G</title>
<polygon fill="white" stroke="white" points="-4,5 -4,-1291 1605,-1291 1605,5 -4,5"/>
<!-- E4P -->
<g id="E4P [CHEBI:16897]" class="node"><title>E4P</title>
<ellipse fill="none" stroke="black" cx="1071" cy="-1040" rx="18" ry="18"/>
<text text-anchor="middle" x="1071" y="-1037.5" font-family="Times,serif" font-size="10.00">E4P</text>
</g>
<!-- TAL_intermediate_m -->
<g id="node41" class="node"><title>TAL_intermediate_m</title>
<ellipse fill="black" stroke="black" cx="1600" cy="-1095" rx="0.036" ry="0.036"/>
</g>
<!-- E4P&#45;&gt;TAL_intermediate_m -->
<g id="edge56" class="edge"><title>E4P&#45;&gt;TAL_intermediate_m</title>
<path fill="none" stroke="black" d="M1075.3,-1057.48C1084.08,-1098.02 1111.98,-1195 1178,-1195 1178,-1195 1178,-1195 1474,-1195 1514.88,-1195 1532.35,-1201.88 1564,-1176 1593.41,-1151.95 1598.68,-1098.48 1598.99,-1095.16"/>
</g>
<!-- TKL_E4P_intermediate_r -->
<g id="node43" class="node"><title>TKL_E4P_intermediate_r</title>
<ellipse fill="black" stroke="black" cx="1135" cy="-611" rx="0.036" ry="0.036"/>
</g>
<!-- E4P&#45;&gt;TKL_E4P_intermediate_r -->
<g id="edge60" class="edge"><title>E4P&#45;&gt;TKL_E4P_intermediate_r</title>
<path fill="none" stroke="black" d="M1074.59,-1022.11C1086.23,-941.555 1133.26,-616.14 1133.99,-611.06"/>
</g>
<!-- TKL_E4P_intermediate_m -->
<g id="node45" class="node"><title>TKL_E4P_intermediate_m</title>
<ellipse fill="black" stroke="black" cx="1600" cy="-534" rx="0.036" ry="0.036"/>
</g>
<!-- E4P&#45;&gt;TKL_E4P_intermediate_m -->
<g id="edge70" class="edge"><title>E4P&#45;&gt;TKL_E4P_intermediate_m</title>
<path fill="none" stroke="black" d="M1075.09,-1022.24C1090.92,-931.452 1162.52,-523.208 1172,-514 1307.22,-382.671 1594.47,-531.637 1598.95,-533.972"/>
</g>
<!-- TKL_R5P_intermediate_m -->
<g id="node49" class="node"><title>TKL_R5P_intermediate_m</title>
<ellipse fill="black" stroke="black" cx="1600" cy="-787" rx="0.036" ry="0.036"/>
</g>
<!-- E4P&#45;&gt;TKL_R5P_intermediate_m -->
<g id="edge83" class="edge"><title>E4P&#45;&gt;TKL_R5P_intermediate_m</title>
<path fill="none" stroke="black" d="M1088.16,-1033.78C1108.95,-1031 1146.16,-1031 1178,-1031 1178,-1031 1178,-1031 1386,-1031 1487.2,-1031 1506.74,-972.442 1564,-889 1592.35,-847.682 1598.62,-782.247 1598.98,-786.38"/>
</g>
<!-- E4P&#45;&gt;TKL_R5P_intermediate_m -->
<g id="edge90" class="edge"><title>E4P&#45;&gt;TKL_R5P_intermediate_m</title>
<path fill="none" stroke="black" d="M1088.16,-1046.22C1108.95,-1049 1146.16,-1049 1178,-1049 1178,-1049 1178,-1049 1386,-1049 1487.2,-1049 1506.74,-990.442 1564,-907 1593.04,-864.683 1598.91,-797.066 1599,-787.222"/>
</g>
<!-- E4P_sink_intermediate_r -->
<g id="node59" class="node"><title>E4P_sink_intermediate_r</title>
<ellipse fill="black" stroke="black" cx="1135" cy="-1264" rx="0.036" ry="0.036"/>
</g>
<!-- E4P&#45;&gt;E4P_sink_intermediate_r -->
<g id="edge112" class="edge"><title>E4P&#45;&gt;E4P_sink_intermediate_r</title>
<path fill="none" stroke="black" d="M1076.76,-1057.2C1091.05,-1108.84 1132.67,-1259.2 1133.97,-1263.89"/>
</g>
<!-- E4P_sink_intermediate_m -->
<g id="node61" class="node"><title>E4P_sink_intermediate_m</title>
<ellipse fill="black" stroke="black" cx="1249" cy="-1233" rx="0.036" ry="0.036"/>
</g>
<!-- E4P&#45;&gt;E4P_sink_intermediate_m -->
<g id="edge115" class="edge"><title>E4P&#45;&gt;E4P_sink_intermediate_m</title>
<path fill="none" stroke="black" d="M1073.08,-1057.96C1076.19,-1092.73 1088.15,-1169.33 1134,-1209 1172.54,-1242.35 1245.67,-1233.3 1247.95,-1233.01"/>
</g>
<!-- G6L -->
<g id="G6L [CHEBI:57955]" class="node"><title>G6L</title>
<ellipse fill="none" stroke="black" cx="423" cy="-110" rx="18" ry="18"/>
<text text-anchor="middle" x="423" y="-107.5" font-family="Times,serif" font-size="10.00">G6L</text>
</g>
<!-- SOL_intermediate_r -->
<g id="node35" class="node"><title>SOL_intermediate_r</title>
<ellipse fill="black" stroke="black" cx="487" cy="-110" rx="0.036" ry="0.036"/>
</g>
<!-- G6L&#45;&gt;SOL_intermediate_r -->
<g id="edge35" class="edge"><title>G6L&#45;&gt;SOL_intermediate_r</title>
<path fill="none" stroke="black" d="M441.27,-110C459.042,-110 484.359,-110 485.924,-110"/>
</g>
<!-- SOL_intermediate_m -->
<g id="node37" class="node"><title>SOL_intermediate_m</title>
<ellipse fill="black" stroke="black" cx="703" cy="-148" rx="0.036" ry="0.036"/>
</g>
<!-- G6L&#45;&gt;SOL_intermediate_m -->
<g id="edge41" class="edge"><title>G6L&#45;&gt;SOL_intermediate_m</title>
<path fill="none" stroke="black" d="M435.982,-122.758C458.6,-146.257 507.341,-194 530,-194 530,-194 530,-194 576,-194 616.882,-194 628.768,-191.885 666,-175 683.645,-166.998 700.888,-149.161 701.948,-148.054"/>
</g>
<!-- ZWF_intermediate_m -->
<g id="node53" class="node"><title>ZWF_intermediate_m</title>
<ellipse fill="black" stroke="black" cx="487" cy="-270" rx="0.036" ry="0.036"/>
</g>
<!-- G6L&#45;&gt;ZWF_intermediate_m -->
<g id="edge103" class="edge"><title>G6L&#45;&gt;ZWF_intermediate_m</title>
<path fill="none" stroke="black" d="M430.402,-126.52C445.995,-166.761 484.763,-266.809 485.971,-269.925"/>
</g>
<!-- NADPH -->
<g id="NADPH [CHEBI:57783]" class="node"><title>NADPH</title>
<ellipse fill="none" stroke="black" cx="18" cy="-343" rx="18" ry="18"/>
<text text-anchor="middle" x="18" y="-340.5" font-family="Times,serif" font-size="10.00">NADPH</text>
</g>
<!-- GND_intermediate_m -->
<g id="node25" class="node"><title>GND_intermediate_m</title>
<ellipse fill="black" stroke="black" cx="919" cy="-283" rx="0.036" ry="0.036"/>
</g>
<!-- NADPH&#45;&gt;GND_intermediate_m -->
<g id="edge14" class="edge"><title>NADPH&#45;&gt;GND_intermediate_m</title>
<path fill="none" stroke="black" d="M30.8444,-355.65C47.9177,-372.443 81.232,-400 116,-400 116,-400 116,-400 360,-400 596.388,-400 655.747,-366.474 882,-298 898.072,-293.136 916.79,-283.619 917.944,-283.029"/>
</g>
<!-- NADPH&#45;&gt;ZWF_intermediate_m -->
<g id="edge104" class="edge"><title>NADPH&#45;&gt;ZWF_intermediate_m</title>
<path fill="none" stroke="black" d="M35.2859,-348.192C54.4054,-353.817 87.1707,-362 116,-362 116,-362 116,-362 360,-362 400.882,-362 417.713,-368.077 450,-343 477.678,-321.504 485.515,-273.148 485.978,-270.146"/>
</g>
<!-- NADPH_oxidase_intermediate_r -->
<g id="node55" class="node"><title>NADPH_oxidase_intermediate_r</title>
<ellipse fill="black" stroke="black" cx="73" cy="-293" rx="0.036" ry="0.036"/>
</g>
<!-- NADPH&#45;&gt;NADPH_oxidase_intermediate_r -->
<g id="edge106" class="edge"><title>NADPH&#45;&gt;NADPH_oxidase_intermediate_r</title>
<path fill="none" stroke="black" d="M31.5603,-331.151C46.7433,-316.827 70.4609,-294.452 71.9285,-293.067"/>
</g>
<!-- NADPH_oxidase_intermediate_m -->
<g id="node57" class="node"><title>NADPH_oxidase_intermediate_m</title>
<ellipse fill="black" stroke="black" cx="161" cy="-307" rx="0.036" ry="0.036"/>
</g>
<!-- NADPH&#45;&gt;NADPH_oxidase_intermediate_m -->
<g id="edge110" class="edge"><title>NADPH&#45;&gt;NADPH_oxidase_intermediate_m</title>
<path fill="none" stroke="black" d="M35.7282,-338.729C72.4941,-329.342 157.296,-307.69 159.937,-307.016"/>
</g>
<!-- P6G -->
<g id="P6G [CHEBI:58759]" class="node"><title>P6G</title>
<ellipse fill="none" stroke="black" cx="639" cy="-240" rx="18" ry="18"/>
<text text-anchor="middle" x="639" y="-237.5" font-family="Times,serif" font-size="10.00">P6G</text>
</g>
<!-- GND_intermediate_r -->
<g id="node23" class="node"><title>GND_intermediate_r</title>
<ellipse fill="black" stroke="black" cx="703" cy="-284" rx="0.036" ry="0.036"/>
</g>
<!-- P6G&#45;&gt;GND_intermediate_r -->
<g id="edge2" class="edge"><title>P6G&#45;&gt;GND_intermediate_r</title>
<path fill="none" stroke="black" d="M654.069,-249.984C671.79,-262.56 700.159,-282.693 701.914,-283.939"/>
</g>
<!-- P6G&#45;&gt;GND_intermediate_m -->
<g id="edge11" class="edge"><title>P6G&#45;&gt;GND_intermediate_m</title>
<path fill="none" stroke="black" d="M657.254,-240.788C678.228,-241.677 714.703,-243 746,-243 746,-243 746,-243 792,-243 849.836,-243 915.901,-281.76 917.951,-282.971"/>
</g>
<!-- P6G&#45;&gt;SOL_intermediate_m -->
<g id="edge42" class="edge"><title>P6G&#45;&gt;SOL_intermediate_m</title>
<path fill="none" stroke="black" d="M651.573,-226.628C656.242,-221.015 661.563,-214.33 666,-208 683.292,-183.33 700.866,-150.15 701.947,-148.1"/>
</g>
<!-- R5P -->
<g id="R5P [CHEBI:18189]" class="node"><title>R5P</title>
<ellipse fill="none" stroke="black" cx="1071" cy="-565" rx="18" ry="18"/>
<text text-anchor="middle" x="1071" y="-562.5" font-family="Times,serif" font-size="10.00">R5P</text>
</g>
<!-- RKI_intermediate_m -->
<g id="node29" class="node"><title>RKI_intermediate_m</title>
<ellipse fill="black" stroke="black" cx="1135" cy="-667" rx="0.036" ry="0.036"/>
</g>
<!-- R5P&#45;&gt;RKI_intermediate_m -->
<g id="edge24" class="edge"><title>R5P&#45;&gt;RKI_intermediate_m</title>
<path fill="none" stroke="black" d="M1082.49,-579.167C1087.38,-585.959 1093.17,-594.28 1098,-602 1114.97,-629.119 1132.85,-664.696 1133.95,-666.893"/>
</g>
<!-- R5P&#45;&gt;TKL_E4P_intermediate_m -->
<g id="edge66" class="edge"><title>R5P&#45;&gt;TKL_E4P_intermediate_m</title>
<path fill="none" stroke="black" d="M1077.26,-548.012C1093.24,-504.257 1142.3,-393 1178,-393 1178,-393 1178,-393 1474,-393 1516.6,-393 1534.05,-395.7 1564,-426 1596.55,-458.932 1598.96,-523.974 1599,-533.779"/>
</g>
<!-- R5P&#45;&gt;TKL_E4P_intermediate_m -->
<g id="edge73" class="edge"><title>R5P&#45;&gt;TKL_E4P_intermediate_m</title>
<path fill="none" stroke="black" d="M1080.29,-549.426C1098.76,-509.99 1144.33,-411 1178,-411 1178,-411 1178,-411 1474,-411 1516.6,-411 1534.05,-413.7 1564,-444 1595.78,-476.154 1598.83,-538.919 1598.99,-534.628"/>
</g>
<!-- TKL_R5P_intermediate_r -->
<g id="node47" class="node"><title>TKL_R5P_intermediate_r</title>
<ellipse fill="black" stroke="black" cx="1135" cy="-593" rx="0.036" ry="0.036"/>
</g>
<!-- R5P&#45;&gt;TKL_R5P_intermediate_r -->
<g id="edge77" class="edge"><title>R5P&#45;&gt;TKL_R5P_intermediate_r</title>
<path fill="none" stroke="black" d="M1087.65,-572.066C1105.44,-580.101 1132.26,-592.214 1133.92,-592.963"/>
</g>
<!-- R5P&#45;&gt;TKL_R5P_intermediate_m -->
<g id="edge87" class="edge"><title>R5P&#45;&gt;TKL_R5P_intermediate_m</title>
<path fill="none" stroke="black" d="M1083.87,-577.626C1101.58,-595.881 1136.67,-629.775 1172,-651 1341.4,-752.764 1595,-786.473 1598.95,-786.994"/>
</g>
<!-- R5P_sink_intermediate_r -->
<g id="node63" class="node"><title>R5P_sink_intermediate_r</title>
<ellipse fill="black" stroke="black" cx="1135" cy="-534" rx="0.036" ry="0.036"/>
</g>
<!-- R5P&#45;&gt;R5P_sink_intermediate_r -->
<g id="edge117" class="edge"><title>R5P&#45;&gt;R5P_sink_intermediate_r</title>
<path fill="none" stroke="black" d="M1087.33,-557.337C1105.11,-548.444 1132.24,-534.88 1133.92,-534.041"/>
</g>
<!-- R5P_sink_intermediate_m -->
<g id="node65" class="node"><title>R5P_sink_intermediate_m</title>
<ellipse fill="black" stroke="black" cx="1249" cy="-569" rx="0.036" ry="0.036"/>
</g>
<!-- R5P&#45;&gt;R5P_sink_intermediate_m -->
<g id="edge120" class="edge"><title>R5P&#45;&gt;R5P_sink_intermediate_m</title>
<path fill="none" stroke="black" d="M1089.2,-565.391C1132.79,-566.382 1244.44,-568.919 1247.92,-568.998"/>
</g>
<!-- Ru5P -->
<g id="Ru5P [CHEBI:58121]" class="node"><title>Ru5P</title>
<ellipse fill="none" stroke="black" cx="855" cy="-441" rx="18" ry="18"/>
<text text-anchor="middle" x="855" y="-438.5" font-family="Times,serif" font-size="10.00">Ru5P</text>
</g>
<!-- Ru5P&#45;&gt;GND_intermediate_m -->
<g id="edge13" class="edge"><title>Ru5P&#45;&gt;GND_intermediate_m</title>
<path fill="none" stroke="black" d="M869.342,-429.706C873.923,-425.227 878.717,-419.769 882,-414 911.397,-362.341 917.802,-285.447 917.995,-283.057"/>
</g>
<!-- RKI_intermediate_r -->
<g id="node27" class="node"><title>RKI_intermediate_r</title>
<ellipse fill="black" stroke="black" cx="919" cy="-511" rx="0.036" ry="0.036"/>
</g>
<!-- Ru5P&#45;&gt;RKI_intermediate_r -->
<g id="edge17" class="edge"><title>Ru5P&#45;&gt;RKI_intermediate_r</title>
<path fill="none" stroke="black" d="M867.662,-454.166C885.06,-473.81 915.99,-508.731 917.907,-510.895"/>
</g>
<!-- Ru5P&#45;&gt;RKI_intermediate_m -->
<g id="edge23" class="edge"><title>Ru5P&#45;&gt;RKI_intermediate_m</title>
<path fill="none" stroke="black" d="M858.984,-458.65C869.596,-518.495 907.788,-710 962,-710 962,-710 962,-710 1008,-710 1048.88,-710 1060.31,-706.846 1098,-691 1115.17,-683.779 1132.86,-668.025 1133.95,-667.048"/>
</g>
<!-- RPE_intermediate_r -->
<g id="node31" class="node"><title>RPE_intermediate_r</title>
<ellipse fill="black" stroke="black" cx="919" cy="-441" rx="0.036" ry="0.036"/>
</g>
<!-- Ru5P&#45;&gt;RPE_intermediate_r -->
<g id="edge26" class="edge"><title>Ru5P&#45;&gt;RPE_intermediate_r</title>
<path fill="none" stroke="black" d="M873.27,-441C891.042,-441 916.359,-441 917.924,-441"/>
</g>
<!-- RPE_intermediate_m -->
<g id="node33" class="node"><title>RPE_intermediate_m</title>
<ellipse fill="black" stroke="black" cx="1135" cy="-327" rx="0.036" ry="0.036"/>
</g>
<!-- Ru5P&#45;&gt;RPE_intermediate_m -->
<g id="edge32" class="edge"><title>Ru5P&#45;&gt;RPE_intermediate_m</title>
<path fill="none" stroke="black" d="M868.453,-428.622C872.842,-424.117 877.741,-418.92 882,-414 919.934,-370.173 904.036,-311 962,-311 962,-311 962,-311 1008,-311 1063.57,-311 1131.83,-326.504 1133.95,-326.988"/>
</g>
<!-- S7P -->
<g id="S7P [CHEBI:57483]" class="node"><title>S7P</title>
<ellipse fill="none" stroke="black" cx="1330" cy="-663" rx="18" ry="18"/>
<text text-anchor="middle" x="1330" y="-660.5" font-family="Times,serif" font-size="10.00">S7P</text>
</g>
<!-- TAL_intermediate_r -->
<g id="node39" class="node"><title>TAL_intermediate_r</title>
<ellipse fill="black" stroke="black" cx="1385" cy="-880" rx="0.036" ry="0.036"/>
</g>
<!-- S7P&#45;&gt;TAL_intermediate_r -->
<g id="edge45" class="edge"><title>S7P&#45;&gt;TAL_intermediate_r</title>
<path fill="none" stroke="black" d="M1335.25,-680.391C1347.63,-731.08 1382.88,-875.395 1383.97,-879.892"/>
</g>
<!-- S7P&#45;&gt;TAL_intermediate_m -->
<g id="edge54" class="edge"><title>S7P&#45;&gt;TAL_intermediate_m</title>
<path fill="none" stroke="black" d="M1335.17,-680.333C1348.25,-733.631 1389.5,-894.027 1422,-936 1468.04,-995.461 1513.37,-972.4 1564,-1028 1585.91,-1052.06 1598.22,-1092.38 1598.96,-1094.88"/>
</g>
<!-- S7P&#45;&gt;TKL_E4P_intermediate_m -->
<g id="edge67" class="edge"><title>S7P&#45;&gt;TKL_E4P_intermediate_m</title>
<path fill="none" stroke="black" d="M1343.72,-650.682C1372.62,-629.279 1445.71,-586.995 1510,-558 1547.86,-540.927 1597.42,-525.49 1598.96,-533.596"/>
</g>
<!-- S7P&#45;&gt;TKL_E4P_intermediate_m -->
<g id="edge74" class="edge"><title>S7P&#45;&gt;TKL_E4P_intermediate_m</title>
<path fill="none" stroke="black" d="M1347.88,-658.193C1379.18,-643.5 1448.6,-603.69 1510,-576 1547.86,-558.927 1597.42,-543.49 1598.96,-534.427"/>
</g>
<!-- S7P&#45;&gt;TKL_R5P_intermediate_m -->
<g id="edge89" class="edge"><title>S7P&#45;&gt;TKL_R5P_intermediate_m</title>
<path fill="none" stroke="black" d="M1346.97,-669.448C1357.99,-673.954 1372.96,-680.183 1386,-686 1480.19,-728 1595.34,-785.181 1598.91,-786.958"/>
</g>
<!-- X5P -->
<g id="X5P [CHEBI:57737]" class="node"><title>X5P</title>
<ellipse fill="none" stroke="black" cx="1071" cy="-449" rx="18" ry="18"/>
<text text-anchor="middle" x="1071" y="-446.5" font-family="Times,serif" font-size="10.00">X5P</text>
</g>
<!-- X5P&#45;&gt;RPE_intermediate_m -->
<g id="edge33" class="edge"><title>X5P&#45;&gt;RPE_intermediate_m</title>
<path fill="none" stroke="black" d="M1085.05,-437.532C1089.6,-433.034 1094.45,-427.608 1098,-422 1121.4,-385.042 1133.25,-330.535 1133.97,-327.164"/>
</g>
<!-- X5P&#45;&gt;TKL_E4P_intermediate_r -->
<g id="edge59" class="edge"><title>X5P&#45;&gt;TKL_E4P_intermediate_r</title>
<path fill="none" stroke="black" d="M1078.4,-465.727C1093.99,-506.471 1132.76,-607.769 1133.97,-610.925"/>
</g>
<!-- X5P&#45;&gt;TKL_E4P_intermediate_m -->
<g id="edge69" class="edge"><title>X5P&#45;&gt;TKL_E4P_intermediate_m</title>
<path fill="none" stroke="black" d="M1084.37,-436.323C1109.65,-410.665 1165.89,-355 1178,-355 1178,-355 1178,-355 1474,-355 1518.92,-355 1535.83,-366.008 1564,-401 1601.73,-447.868 1599.09,-531.341 1599,-533.938"/>
</g>
<!-- X5P&#45;&gt;TKL_R5P_intermediate_r -->
<g id="edge76" class="edge"><title>X5P&#45;&gt;TKL_R5P_intermediate_r</title>
<path fill="none" stroke="black" d="M1078.99,-465.239C1094.95,-502.31 1132.79,-590.197 1133.97,-592.935"/>
</g>
<!-- X5P&#45;&gt;TKL_R5P_intermediate_m -->
<g id="edge86" class="edge"><title>X5P&#45;&gt;TKL_R5P_intermediate_m</title>
<path fill="none" stroke="black" d="M1089.26,-449C1110.24,-449 1146.72,-449 1178,-449 1178,-449 1178,-449 1331,-449 1451.96,-449 1422.56,-570.431 1510,-654 1532.18,-675.197 1545.81,-672.294 1564,-697 1588.65,-730.482 1598.39,-783.556 1598.97,-786.84"/>
</g>
<!-- NADP -->
<g id="NADP [CHEBI:58349]" class="node"><title>NADP</title>
<ellipse fill="none" stroke="black" cx="216" cy="-194" rx="18" ry="18"/>
<text text-anchor="middle" x="216" y="-191.5" font-family="Times,serif" font-size="10.00">NADP</text>
</g>
<!-- NADP&#45;&gt;GND_intermediate_r -->
<g id="edge3" class="edge"><title>NADP&#45;&gt;GND_intermediate_r</title>
<path fill="none" stroke="black" d="M231.429,-184.411C249.798,-173.154 282.891,-156 314,-156 314,-156 314,-156 360,-156 482.384,-156 495.111,-230.74 612,-267 649.665,-278.684 698.817,-283.684 701.852,-283.985"/>
</g>
<!-- NADP&#45;&gt;GND_intermediate_m -->
<g id="edge12" class="edge"><title>NADP&#45;&gt;GND_intermediate_m</title>
<path fill="none" stroke="black" d="M221.168,-176.737C230.849,-141.374 258.384,-64 314,-64 314,-64 314,-64 792,-64 902.539,-64 917.548,-276.21 917.99,-282.841"/>
</g>
<!-- ZWF_intermediate_r -->
<g id="node51" class="node"><title>ZWF_intermediate_r</title>
<ellipse fill="black" stroke="black" cx="271" cy="-231" rx="0.036" ry="0.036"/>
</g>
<!-- NADP&#45;&gt;ZWF_intermediate_r -->
<g id="edge94" class="edge"><title>NADP&#45;&gt;ZWF_intermediate_r</title>
<path fill="none" stroke="black" d="M231.203,-203.915C246.412,-214.533 268.564,-229.997 269.933,-230.953"/>
</g>
<!-- NADP&#45;&gt;ZWF_intermediate_m -->
<g id="edge102" class="edge"><title>NADP&#45;&gt;ZWF_intermediate_m</title>
<path fill="none" stroke="black" d="M234.172,-194C253.559,-194 286.045,-194 314,-194 314,-194 314,-194 360,-194 424.376,-194 484.105,-267.644 485.956,-269.945"/>
</g>
<!-- G6P -->
<g id="G6P [CHEBI:14314]" class="node"><title>G6P</title>
<ellipse fill="none" stroke="black" cx="216" cy="-259" rx="18" ry="18"/>
<text text-anchor="middle" x="216" y="-256.5" font-family="Times,serif" font-size="10.00">G6P</text>
</g>
<!-- G6P&#45;&gt;ZWF_intermediate_r -->
<g id="edge93" class="edge"><title>G6P&#45;&gt;ZWF_intermediate_r</title>
<path fill="none" stroke="black" d="M232.33,-250.901C247.494,-242.89 268.63,-231.724 269.936,-231.034"/>
</g>
<!-- G6P&#45;&gt;ZWF_intermediate_m -->
<g id="edge101" class="edge"><title>G6P&#45;&gt;ZWF_intermediate_m</title>
<path fill="none" stroke="black" d="M233.757,-262.064C253.042,-265.319 285.696,-270 314,-270 314,-270 314,-270 360,-270 415.125,-270 483.816,-270 485.949,-270"/>
</g>
<!-- F6P -->
<g id="F6P [CHEBI:57579]" class="node"><title>F6P</title>
<ellipse fill="none" stroke="black" cx="1537" cy="-871" rx="18" ry="18"/>
<text text-anchor="middle" x="1537" y="-868.5" font-family="Times,serif" font-size="10.00">F6P</text>
</g>
<!-- F6P&#45;&gt;TAL_intermediate_m -->
<g id="edge55" class="edge"><title>F6P&#45;&gt;TAL_intermediate_m</title>
<path fill="none" stroke="black" d="M1550.51,-883.373C1555.44,-888.933 1560.71,-895.847 1564,-903 1599.7,-980.565 1599.03,-1091.47 1599,-1094.92"/>
</g>
<!-- F6P&#45;&gt;TKL_E4P_intermediate_m -->
<g id="edge72" class="edge"><title>F6P&#45;&gt;TKL_E4P_intermediate_m</title>
<path fill="none" stroke="black" d="M1541.19,-853.356C1553.65,-784.557 1598.29,-537.895 1598.99,-534.046"/>
</g>
<!-- F6P&#45;&gt;TKL_R5P_intermediate_m -->
<g id="edge84" class="edge"><title>F6P&#45;&gt;TKL_R5P_intermediate_m</title>
<path fill="none" stroke="black" d="M1545.28,-855.01C1550.61,-847.121 1557.95,-838.169 1564,-830 1580.32,-807.961 1598.42,-778.924 1598.99,-786.606"/>
</g>
<!-- F6P&#45;&gt;TKL_R5P_intermediate_m -->
<g id="edge91" class="edge"><title>F6P&#45;&gt;TKL_R5P_intermediate_m</title>
<path fill="none" stroke="black" d="M1552.87,-861.988C1556.58,-857.696 1560.51,-852.717 1564,-848 1580.32,-825.961 1598.42,-796.924 1598.99,-787.437"/>
</g>
<!-- GAP -->
<g id="GAP [CHEBI:58027]" class="node"><title>GAP</title>
<ellipse fill="none" stroke="black" cx="1330" cy="-860" rx="18" ry="18"/>
<text text-anchor="middle" x="1330" y="-857.5" font-family="Times,serif" font-size="10.00">GAP</text>
</g>
<!-- GAP&#45;&gt;TAL_intermediate_r -->
<g id="edge44" class="edge"><title>GAP&#45;&gt;TAL_intermediate_r</title>
<path fill="none" stroke="black" d="M1347.19,-866.109C1362.29,-871.807 1382.68,-879.502 1383.94,-879.977"/>
</g>
<!-- GAP&#45;&gt;TAL_intermediate_m -->
<g id="edge53" class="edge"><title>GAP&#45;&gt;TAL_intermediate_m</title>
<path fill="none" stroke="black" d="M1341.13,-874.458C1356.89,-896.38 1388.93,-938.681 1422,-969 1478.71,-1020.99 1501.97,-1022.49 1564,-1068 1579.35,-1079.26 1597.81,-1094.04 1598.94,-1094.96"/>
</g>
<!-- GAP&#45;&gt;TKL_E4P_intermediate_m -->
<g id="edge71" class="edge"><title>GAP&#45;&gt;TKL_E4P_intermediate_m</title>
<path fill="none" stroke="black" d="M1338.79,-844.273C1360.8,-801.033 1427.24,-678.38 1510,-600 1530.42,-580.66 1541.65,-584.073 1564,-567 1580.46,-554.428 1597.88,-535.245 1598.95,-534.058"/>
</g>
<!-- GAP&#45;&gt;TKL_R5P_intermediate_m -->
<g id="edge88" class="edge"><title>GAP&#45;&gt;TKL_R5P_intermediate_m</title>
<path fill="none" stroke="black" d="M1347.89,-856.53C1386.58,-848.404 1484.43,-826.862 1564,-801 1579.44,-795.983 1597.81,-787.548 1598.94,-787.025"/>
</g>
<!-- GND1 -->
<g id="GND1" class="node"><title>GND1</title>
<path fill="none" stroke="black" d="M870,-36C870,-36 840,-36 840,-36 834,-36 828,-30 828,-24 828,-24 828,-12 828,-12 828,-6 834,-0 840,-0 840,-0 870,-0 870,-0 876,-0 882,-6 882,-12 882,-12 882,-24 882,-24 882,-30 876,-36 870,-36"/>
<text text-anchor="middle" x="855" y="-15.5" font-family="Times,serif" font-size="10.00">GND1</text>
</g>
<!-- GND1&#45;&gt;GND_intermediate_m -->
<g id="edge8" class="edge"><title>GND1&#45;&gt;GND_intermediate_m</title>
<path fill="none" stroke="black" d="M879.64,-36.3477C880.508,-37.8728 881.303,-39.4298 882,-41 924.185,-136.023 918.099,-271.858 918.001,-282.766"/>
</g>
<!-- GND1&#45;&gt;GND_intermediate_m -->
<g id="edge10" class="edge"><title>GND1&#45;&gt;GND_intermediate_m</title>
<path fill="none" stroke="black" d="M866.737,-36.2563C872.186,-43.126 878.398,-50.8874 882,-59 923.188,-151.778 918.359,-283.464 918.017,-283.421"/>
</g>
<!-- GND2 -->
<g id="GND2" class="node"><title>GND2</title>
<path fill="none" stroke="black" d="M870,-405C870,-405 840,-405 840,-405 834,-405 828,-399 828,-393 828,-393 828,-381 828,-381 828,-375 834,-369 840,-369 840,-369 870,-369 870,-369 876,-369 882,-375 882,-381 882,-381 882,-393 882,-393 882,-399 876,-405 870,-405"/>
<text text-anchor="middle" x="855" y="-384.5" font-family="Times,serif" font-size="10.00">GND2</text>
</g>
<!-- GND2&#45;&gt;GND_intermediate_m -->
<g id="edge9" class="edge"><title>GND2&#45;&gt;GND_intermediate_m</title>
<path fill="none" stroke="black" d="M865.274,-368.899C870.533,-361.699 877.033,-353.699 882,-346 900.79,-316.876 916.96,-276.609 917.952,-282.304"/>
</g>
<!-- GND2&#45;&gt;GND_intermediate_m -->
<g id="edge15" class="edge"><title>GND2&#45;&gt;GND_intermediate_m</title>
<path fill="none" stroke="black" d="M878.807,-368.701C879.919,-367.14 880.991,-365.564 882,-364 901.093,-334.407 917.48,-293.308 917.988,-283.446"/>
</g>
<!-- NQM1 -->
<g id="NQM1" class="node"><title>NQM1</title>
<path fill="none" stroke="black" d="M1552,-1167C1552,-1167 1522,-1167 1522,-1167 1516,-1167 1510,-1161 1510,-1155 1510,-1155 1510,-1143 1510,-1143 1510,-1137 1516,-1131 1522,-1131 1522,-1131 1552,-1131 1552,-1131 1558,-1131 1564,-1137 1564,-1143 1564,-1143 1564,-1155 1564,-1155 1564,-1161 1558,-1167 1552,-1167"/>
<text text-anchor="middle" x="1537" y="-1146.5" font-family="Times,serif" font-size="10.00">NQM1</text>
</g>
<!-- NQM1&#45;&gt;TAL_intermediate_m -->
<g id="edge51" class="edge"><title>NQM1&#45;&gt;TAL_intermediate_m</title>
<path fill="none" stroke="black" d="M1551.84,-1130.99C1569.28,-1113.24 1597.19,-1090.27 1598.92,-1094.5"/>
</g>
<!-- NQM1&#45;&gt;TAL_intermediate_m -->
<g id="edge57" class="edge"><title>NQM1&#45;&gt;TAL_intermediate_m</title>
<path fill="none" stroke="black" d="M1564.22,-1132.48C1580.5,-1118.52 1598.43,-1100.5 1598.99,-1095.24"/>
</g>
<!-- RKI1 -->
<g id="RKI1" class="node"><title>RKI1</title>
<path fill="none" stroke="black" d="M1086,-682C1086,-682 1056,-682 1056,-682 1050,-682 1044,-676 1044,-670 1044,-670 1044,-658 1044,-658 1044,-652 1050,-646 1056,-646 1056,-646 1086,-646 1086,-646 1092,-646 1098,-652 1098,-658 1098,-658 1098,-670 1098,-670 1098,-676 1092,-682 1086,-682"/>
<text text-anchor="middle" x="1071" y="-661.5" font-family="Times,serif" font-size="10.00">RKI1</text>
</g>
<!-- RKI1&#45;&gt;RKI_intermediate_m -->
<g id="edge21" class="edge"><title>RKI1&#45;&gt;RKI_intermediate_m</title>
<path fill="none" stroke="black" d="M1098.29,-658.592C1114.66,-658.896 1132.83,-661.85 1133.95,-666.541"/>
</g>
<!-- RKI1&#45;&gt;RKI_intermediate_m -->
<g id="edge22" class="edge"><title>RKI1&#45;&gt;RKI_intermediate_m</title>
<path fill="none" stroke="black" d="M1098.29,-671.953C1114.66,-673.232 1132.83,-672.037 1133.95,-667.454"/>
</g>
<!-- RPE1 -->
<g id="RPE1" class="node"><title>RPE1</title>
<path fill="none" stroke="black" d="M1086,-413C1086,-413 1056,-413 1056,-413 1050,-413 1044,-407 1044,-401 1044,-401 1044,-389 1044,-389 1044,-383 1050,-377 1056,-377 1056,-377 1086,-377 1086,-377 1092,-377 1098,-383 1098,-389 1098,-389 1098,-401 1098,-401 1098,-407 1092,-413 1086,-413"/>
<text text-anchor="middle" x="1071" y="-392.5" font-family="Times,serif" font-size="10.00">RPE1</text>
</g>
<!-- RPE1&#45;&gt;RPE_intermediate_m -->
<g id="edge30" class="edge"><title>RPE1&#45;&gt;RPE_intermediate_m</title>
<path fill="none" stroke="black" d="M1083.66,-376.798C1101.06,-354.91 1131.99,-322.592 1133.91,-326.507"/>
</g>
<!-- RPE1&#45;&gt;RPE_intermediate_m -->
<g id="edge31" class="edge"><title>RPE1&#45;&gt;RPE_intermediate_m</title>
<path fill="none" stroke="black" d="M1094.38,-376.963C1111.87,-358.776 1133.32,-333.159 1133.98,-327.266"/>
</g>
<!-- SOL3 -->
<g id="SOL3" class="node"><title>SOL3</title>
<path fill="none" stroke="black" d="M654,-166C654,-166 624,-166 624,-166 618,-166 612,-160 612,-154 612,-154 612,-142 612,-142 612,-136 618,-130 624,-130 624,-130 654,-130 654,-130 660,-130 666,-136 666,-142 666,-142 666,-154 666,-154 666,-160 660,-166 654,-166"/>
<text text-anchor="middle" x="639" y="-145.5" font-family="Times,serif" font-size="10.00">SOL3</text>
</g>
<!-- SOL3&#45;&gt;SOL_intermediate_m -->
<g id="edge39" class="edge"><title>SOL3&#45;&gt;SOL_intermediate_m</title>
<path fill="none" stroke="black" d="M666.294,-141.32C682.664,-140.832 700.826,-142.906 701.946,-147.543"/>
</g>
<!-- SOL3&#45;&gt;SOL_intermediate_m -->
<g id="edge40" class="edge"><title>SOL3&#45;&gt;SOL_intermediate_m</title>
<path fill="none" stroke="black" d="M666.294,-154.68C682.664,-155.168 700.826,-153.094 701.946,-148.457"/>
</g>
<!-- TAL1 -->
<g id="TAL1" class="node"><title>TAL1</title>
<path fill="none" stroke="black" d="M1552,-1113C1552,-1113 1522,-1113 1522,-1113 1516,-1113 1510,-1107 1510,-1101 1510,-1101 1510,-1089 1510,-1089 1510,-1083 1516,-1077 1522,-1077 1522,-1077 1552,-1077 1552,-1077 1558,-1077 1564,-1083 1564,-1089 1564,-1089 1564,-1101 1564,-1101 1564,-1107 1558,-1113 1552,-1113"/>
<text text-anchor="middle" x="1537" y="-1092.5" font-family="Times,serif" font-size="10.00">TAL1</text>
</g>
<!-- TAL1&#45;&gt;TAL_intermediate_m -->
<g id="edge50" class="edge"><title>TAL1&#45;&gt;TAL_intermediate_m</title>
<path fill="none" stroke="black" d="M1564.22,-1088.31C1580.24,-1087.86 1597.86,-1089.94 1598.95,-1094.55"/>
</g>
<!-- TAL1&#45;&gt;TAL_intermediate_m -->
<g id="edge52" class="edge"><title>TAL1&#45;&gt;TAL_intermediate_m</title>
<path fill="none" stroke="black" d="M1564.22,-1101.69C1580.24,-1102.14 1597.86,-1100.06 1598.95,-1095.45"/>
</g>
<!-- TKL1 -->
<g id="TKL1" class="node"><title>TKL1</title>
<path fill="none" stroke="black" d="M1552,-645C1552,-645 1522,-645 1522,-645 1516,-645 1510,-639 1510,-633 1510,-633 1510,-621 1510,-621 1510,-615 1516,-609 1522,-609 1522,-609 1552,-609 1552,-609 1558,-609 1564,-615 1564,-621 1564,-621 1564,-633 1564,-633 1564,-639 1558,-645 1552,-645"/>
<text text-anchor="middle" x="1537" y="-624.5" font-family="Times,serif" font-size="10.00">TKL1</text>
</g>
<!-- TKL1&#45;&gt;TKL_E4P_intermediate_m -->
<g id="edge65" class="edge"><title>TKL1&#45;&gt;TKL_E4P_intermediate_m</title>
<path fill="none" stroke="black" d="M1547.11,-608.79C1552.31,-601.554 1558.81,-593.554 1564,-586 1581.14,-561.036 1597.92,-527.193 1598.95,-533.284"/>
</g>
<!-- TKL1&#45;&gt;TKL_E4P_intermediate_m -->
<g id="edge68" class="edge"><title>TKL1&#45;&gt;TKL_E4P_intermediate_m</title>
<path fill="none" stroke="black" d="M1560.44,-608.985C1561.67,-607.326 1562.87,-605.652 1564,-604 1581.41,-578.634 1598.46,-544.099 1598.99,-534.441"/>
</g>
<!-- TKL1&#45;&gt;TKL_R5P_intermediate_m -->
<g id="edge82" class="edge"><title>TKL1&#45;&gt;TKL_R5P_intermediate_m</title>
<path fill="none" stroke="black" d="M1561.19,-645.078C1562.2,-646.695 1563.15,-648.345 1564,-650 1590.74,-702.049 1598.87,-776.821 1599,-786.777"/>
</g>
<!-- TKL1&#45;&gt;TKL_R5P_intermediate_m -->
<g id="edge85" class="edge"><title>TKL1&#45;&gt;TKL_R5P_intermediate_m</title>
<path fill="none" stroke="black" d="M1548.12,-645.096C1553.52,-652.1 1559.88,-659.978 1564,-668 1590.11,-718.819 1598.48,-791.301 1598.98,-787.599"/>
</g>
<!-- ZWF1 -->
<g id="ZWF1" class="node"><title>ZWF1</title>
<path fill="none" stroke="black" d="M438,-334C438,-334 408,-334 408,-334 402,-334 396,-328 396,-322 396,-322 396,-310 396,-310 396,-304 402,-298 408,-298 408,-298 438,-298 438,-298 444,-298 450,-304 450,-310 450,-310 450,-322 450,-322 450,-328 444,-334 438,-334"/>
<text text-anchor="middle" x="423" y="-313.5" font-family="Times,serif" font-size="10.00">ZWF1</text>
</g>
<!-- ZWF1&#45;&gt;ZWF_intermediate_m -->
<g id="edge99" class="edge"><title>ZWF1&#45;&gt;ZWF_intermediate_m</title>
<path fill="none" stroke="black" d="M440.29,-297.891C458.085,-282.788 484.3,-265.163 485.921,-269.51"/>
</g>
<!-- ZWF1&#45;&gt;ZWF_intermediate_m -->
<g id="edge100" class="edge"><title>ZWF1&#45;&gt;ZWF_intermediate_m</title>
<path fill="none" stroke="black" d="M450.294,-303.172C466.928,-291.326 485.413,-275.462 485.986,-270.241"/>
</g>
<!-- GND -->
<g id="node22" class="node"><title>GND</title>
<polygon fill="none" stroke="black" points="754,-291 740,-291 740,-277 754,-277 754,-291"/>
</g>
<!-- GND_intermediate_p -->
<g id="node24" class="node"><title>GND_intermediate_p</title>
<ellipse fill="black" stroke="black" cx="791" cy="-438" rx="0.036" ry="0.036"/>
</g>
<!-- GND&#45;&gt;GND_intermediate_p -->
<g id="edge4" class="edge"><title>GND&#45;&gt;GND_intermediate_p</title>
<path fill="none" stroke="black" d="M749.914,-291.017C758.002,-320.673 789.01,-434.369 789.977,-437.915"/>
</g>
<!-- GND&#45;&gt;GND_intermediate_m -->
<g id="edge7" class="edge"><title>GND&#45;&gt;GND_intermediate_m</title>
<path fill="none" stroke="black" d="M754.05,-283.964C783.861,-283.789 913.848,-283.024 917.903,-283.001"/>
</g>
<!-- GND_intermediate_r&#45;&gt;GND -->
<g id="edge1" class="edge"><title>GND_intermediate_r&#45;&gt;GND</title>
<path fill="none" stroke="black" d="M704.12,-284C705.968,-284 728.602,-284 739.803,-284"/>
</g>
<!-- GND_intermediate_p&#45;&gt;Ru5P -->
<g id="edge5" class="edge"><title>GND_intermediate_p&#45;&gt;Ru5P</title>
<path fill="none" stroke="black" d="M792.045,-438.002C793.044,-438.05 810.509,-438.896 826.641,-439.676"/>
<polygon fill="black" stroke="black" points="826.706,-443.183 836.863,-440.171 827.044,-436.191 826.706,-443.183"/>
</g>
<!-- GND_intermediate_p&#45;&gt;NADPH -->
<g id="edge6" class="edge"><title>GND_intermediate_p&#45;&gt;NADPH</title>
<path fill="none" stroke="black" d="M789.862,-438C787.023,-438 741.028,-438 704,-438 116,-438 116,-438 116,-438 75.9745,-438 46.37,-396.203 30.972,-368.057"/>
<polygon fill="black" stroke="black" points="34.0331,-366.358 26.3001,-359.115 27.8289,-369.599 34.0331,-366.358"/>
</g>
<!-- RKI -->
<g id="node26" class="node"><title>RKI</title>
<polygon fill="none" stroke="black" points="970,-572 956,-572 956,-558 970,-558 970,-572"/>
</g>
<!-- RKI_intermediate_p -->
<g id="node28" class="node"><title>RKI_intermediate_p</title>
<ellipse fill="black" stroke="black" cx="1007" cy="-565" rx="0.036" ry="0.036"/>
</g>
<!-- RKI&#45;&gt;RKI_intermediate_p -->
<g id="edge18" class="edge"><title>RKI&#45;&gt;RKI_intermediate_p</title>
<path fill="none" stroke="black" d="M970.197,-565C981.515,-565 1004.5,-565 1005.93,-565"/>
</g>
<!-- RKI&#45;&gt;RKI_intermediate_m -->
<g id="edge20" class="edge"><title>RKI&#45;&gt;RKI_intermediate_m</title>
<path fill="none" stroke="black" d="M970.126,-567.747C989.574,-576.581 1051.38,-605.522 1098,-637 1114.72,-648.291 1132.83,-665.86 1133.95,-666.947"/>
</g>
<!-- RKI_intermediate_r&#45;&gt;RKI -->
<g id="edge16" class="edge"><title>RKI_intermediate_r&#45;&gt;RKI</title>
<path fill="none" stroke="black" d="M920.12,-511.155C922.007,-513.58 945.554,-543.855 956.488,-557.913"/>
</g>
<!-- RKI_intermediate_p&#45;&gt;R5P -->
<g id="edge19" class="edge"><title>RKI_intermediate_p&#45;&gt;R5P</title>
<path fill="none" stroke="black" d="M1008.04,-565C1009.04,-565 1026.51,-565 1042.64,-565"/>
<polygon fill="black" stroke="black" points="1042.86,-568.5 1052.86,-565 1042.86,-561.5 1042.86,-568.5"/>
</g>
<!-- RPE -->
<g id="node30" class="node"><title>RPE</title>
<polygon fill="none" stroke="black" points="970,-448 956,-448 956,-434 970,-434 970,-448"/>
</g>
<!-- RPE_intermediate_p -->
<g id="node32" class="node"><title>RPE_intermediate_p</title>
<ellipse fill="black" stroke="black" cx="1007" cy="-442" rx="0.036" ry="0.036"/>
</g>
<!-- RPE&#45;&gt;RPE_intermediate_p -->
<g id="edge27" class="edge"><title>RPE&#45;&gt;RPE_intermediate_p</title>
<path fill="none" stroke="black" d="M970.197,-441.148C981.515,-441.417 1004.5,-441.964 1005.93,-441.998"/>
</g>
<!-- RPE&#45;&gt;RPE_intermediate_m -->
<g id="edge29" class="edge"><title>RPE&#45;&gt;RPE_intermediate_m</title>
<path fill="none" stroke="black" d="M970.056,-434.196C982.69,-420.31 1013.25,-388.306 1044,-368 1079.53,-344.537 1130.68,-328.056 1133.85,-327.049"/>
</g>
<!-- RPE_intermediate_r&#45;&gt;RPE -->
<g id="edge25" class="edge"><title>RPE_intermediate_r&#45;&gt;RPE</title>
<path fill="none" stroke="black" d="M920.12,-441C921.968,-441 944.602,-441 955.803,-441"/>
</g>
<!-- RPE_intermediate_p&#45;&gt;X5P -->
<g id="edge28" class="edge"><title>RPE_intermediate_p&#45;&gt;X5P</title>
<path fill="none" stroke="black" d="M1008.04,-442.005C1009.04,-442.118 1026.51,-444.09 1042.64,-445.911"/>
<polygon fill="black" stroke="black" points="1042.53,-449.421 1052.86,-447.065 1043.32,-442.465 1042.53,-449.421"/>
</g>
<!-- SOL -->
<g id="node34" class="node"><title>SOL</title>
<polygon fill="none" stroke="black" points="538,-117 524,-117 524,-103 538,-103 538,-117"/>
</g>
<!-- SOL_intermediate_p -->
<g id="node36" class="node"><title>SOL_intermediate_p</title>
<ellipse fill="black" stroke="black" cx="575" cy="-148" rx="0.036" ry="0.036"/>
</g>
<!-- SOL&#45;&gt;SOL_intermediate_p -->
<g id="edge36" class="edge"><title>SOL&#45;&gt;SOL_intermediate_p</title>
<path fill="none" stroke="black" d="M538.197,-115.607C549.515,-125.847 572.505,-146.647 573.93,-147.937"/>
</g>
<!-- SOL&#45;&gt;SOL_intermediate_m -->
<g id="edge38" class="edge"><title>SOL&#45;&gt;SOL_intermediate_m</title>
<path fill="none" stroke="black" d="M538.137,-109.334C557.619,-107.459 619.516,-103.36 666,-121 684.114,-127.874 700.917,-146.769 701.95,-147.943"/>
</g>
<!-- SOL_intermediate_r&#45;&gt;SOL -->
<g id="edge34" class="edge"><title>SOL_intermediate_r&#45;&gt;SOL</title>
<path fill="none" stroke="black" d="M488.12,-110C489.968,-110 512.602,-110 523.803,-110"/>
</g>
<!-- SOL_intermediate_p&#45;&gt;P6G -->
<g id="edge37" class="edge"><title>SOL_intermediate_p&#45;&gt;P6G</title>
<path fill="none" stroke="black" d="M576.045,-148.067C577.297,-149.924 604.427,-190.181 622.366,-216.802"/>
<polygon fill="black" stroke="black" points="619.556,-218.895 628.047,-225.231 625.361,-214.983 619.556,-218.895"/>
</g>
<!-- TAL -->
<g id="node38" class="node"><title>TAL</title>
<polygon fill="none" stroke="black" points="1436,-927 1422,-927 1422,-913 1436,-913 1436,-927"/>
</g>
<!-- TAL_intermediate_p -->
<g id="node40" class="node"><title>TAL_intermediate_p</title>
<ellipse fill="black" stroke="black" cx="1473" cy="-885" rx="0.036" ry="0.036"/>
</g>
<!-- TAL&#45;&gt;TAL_intermediate_p -->
<g id="edge46" class="edge"><title>TAL&#45;&gt;TAL_intermediate_p</title>
<path fill="none" stroke="black" d="M1436.2,-914.836C1447.52,-905.404 1470.5,-886.246 1471.93,-885.058"/>
</g>
<!-- TAL&#45;&gt;TAL_intermediate_m -->
<g id="edge49" class="edge"><title>TAL&#45;&gt;TAL_intermediate_m</title>
<path fill="none" stroke="black" d="M1436.13,-921.748C1457.23,-928.084 1527.62,-951.885 1564,-997 1592.58,-1032.44 1598.81,-1093.07 1599,-1094.95"/>
</g>
<!-- TAL_intermediate_r&#45;&gt;TAL -->
<g id="edge43" class="edge"><title>TAL_intermediate_r&#45;&gt;TAL</title>
<path fill="none" stroke="black" d="M1386.12,-880.115C1387.97,-881.874 1410.6,-903.43 1421.8,-914.098"/>
</g>
<!-- TAL_intermediate_p&#45;&gt;F6P -->
<g id="edge47" class="edge"><title>TAL_intermediate_p&#45;&gt;F6P</title>
<path fill="none" stroke="black" d="M1474.04,-884.99C1475.06,-884.761 1493.06,-880.696 1509.4,-877.007"/>
<polygon fill="black" stroke="black" points="1510.2,-880.413 1519.19,-874.797 1508.66,-873.585 1510.2,-880.413"/>
</g>
<!-- TAL_intermediate_p&#45;&gt;E4P -->
<g id="edge48" class="edge"><title>TAL_intermediate_p&#45;&gt;E4P</title>
<path fill="none" stroke="black" d="M1471.92,-885.022C1470.19,-885.485 1442.26,-893.054 1422,-904 1378.04,-927.747 1380.96,-970 1331,-970 1178,-970 1178,-970 1178,-970 1142.21,-970 1109.21,-998.125 1089.83,-1018.72"/>
<polygon fill="black" stroke="black" points="1087.21,-1016.4 1083.1,-1026.17 1092.4,-1021.1 1087.21,-1016.4"/>
</g>
<!-- TKL_E4P -->
<g id="node42" class="node"><title>TKL_E4P</title>
<polygon fill="none" stroke="black" points="1186,-642 1172,-642 1172,-628 1186,-628 1186,-642"/>
</g>
<!-- TKL_E4P_intermediate_p -->
<g id="node44" class="node"><title>TKL_E4P_intermediate_p</title>
<ellipse fill="black" stroke="black" cx="1249" cy="-814" rx="0.036" ry="0.036"/>
</g>
<!-- TKL_E4P&#45;&gt;TKL_E4P_intermediate_p -->
<g id="edge61" class="edge"><title>TKL_E4P&#45;&gt;TKL_E4P_intermediate_p</title>
<path fill="none" stroke="black" d="M1182.75,-642.239C1195.27,-675.204 1246.37,-809.705 1247.96,-813.9"/>
</g>
<!-- TKL_E4P&#45;&gt;TKL_E4P_intermediate_m -->
<g id="edge64" class="edge"><title>TKL_E4P&#45;&gt;TKL_E4P_intermediate_m</title>
<path fill="none" stroke="black" d="M1186.19,-632.788C1219.04,-621.147 1376.53,-566.586 1510,-542 1547.84,-535.03 1595.89,-534.057 1598.86,-534.003"/>
</g>
<!-- TKL_E4P_intermediate_r&#45;&gt;TKL_E4P -->
<g id="edge58" class="edge"><title>TKL_E4P_intermediate_r&#45;&gt;TKL_E4P</title>
<path fill="none" stroke="black" d="M1136.12,-611.069C1137.97,-612.125 1160.6,-625.058 1171.8,-631.459"/>
</g>
<!-- TKL_E4P_intermediate_p&#45;&gt;GAP -->
<g id="edge62" class="edge"><title>TKL_E4P_intermediate_p&#45;&gt;GAP</title>
<path fill="none" stroke="black" d="M1250.06,-814.033C1251.57,-814.913 1282.67,-833.025 1305.38,-846.246"/>
<polygon fill="black" stroke="black" points="1303.78,-849.367 1314.19,-851.375 1307.31,-843.318 1303.78,-849.367"/>
</g>
<!-- TKL_E4P_intermediate_p&#45;&gt;F6P -->
<g id="edge63" class="edge"><title>TKL_E4P_intermediate_p&#45;&gt;F6P</title>
<path fill="none" stroke="black" d="M1250.06,-814.009C1252.36,-814.377 1326.73,-826.257 1386,-838 1429.33,-846.585 1479.39,-857.878 1509.33,-864.779"/>
<polygon fill="black" stroke="black" points="1508.87,-868.264 1519.4,-867.11 1510.45,-861.445 1508.87,-868.264"/>
</g>
<!-- TKL_R5P -->
<g id="node46" class="node"><title>TKL_R5P</title>
<polygon fill="none" stroke="black" points="1186,-607 1172,-607 1172,-593 1186,-593 1186,-607"/>
</g>
<!-- TKL_R5P_intermediate_p -->
<g id="node48" class="node"><title>TKL_R5P_intermediate_p</title>
<ellipse fill="black" stroke="black" cx="1249" cy="-663" rx="0.036" ry="0.036"/>
</g>
<!-- TKL_R5P&#45;&gt;TKL_R5P_intermediate_p -->
<g id="edge78" class="edge"><title>TKL_R5P&#45;&gt;TKL_R5P_intermediate_p</title>
<path fill="none" stroke="black" d="M1186.28,-605.814C1202.58,-620.923 1245.22,-660.426 1247.87,-662.88"/>
</g>
<!-- TKL_R5P&#45;&gt;TKL_R5P_intermediate_m -->
<g id="edge81" class="edge"><title>TKL_R5P&#45;&gt;TKL_R5P_intermediate_m</title>
<path fill="none" stroke="black" d="M1186.25,-600.792C1208.63,-603.744 1286.76,-615.031 1348,-636 1448.8,-670.517 1481.81,-672.202 1564,-740 1583.46,-756.055 1598.06,-785.112 1598.96,-786.912"/>
</g>
<!-- TKL_R5P_intermediate_r&#45;&gt;TKL_R5P -->
<g id="edge75" class="edge"><title>TKL_R5P_intermediate_r&#45;&gt;TKL_R5P</title>
<path fill="none" stroke="black" d="M1136.12,-593.02C1137.97,-593.328 1160.6,-597.1 1171.8,-598.967"/>
</g>
<!-- TKL_R5P_intermediate_p&#45;&gt;GAP -->
<g id="edge79" class="edge"><title>TKL_R5P_intermediate_p&#45;&gt;GAP</title>
<path fill="none" stroke="black" d="M1250.06,-663.143C1251.9,-667.729 1297.57,-781.62 1318.59,-834.035"/>
<polygon fill="black" stroke="black" points="1315.36,-835.379 1322.33,-843.358 1321.85,-832.774 1315.36,-835.379"/>
</g>
<!-- TKL_R5P_intermediate_p&#45;&gt;S7P -->
<g id="edge80" class="edge"><title>TKL_R5P_intermediate_p&#45;&gt;S7P</title>
<path fill="none" stroke="black" d="M1250.06,-663C1251.49,-663 1279.65,-663 1301.93,-663"/>
<polygon fill="black" stroke="black" points="1301.94,-666.5 1311.94,-663 1301.94,-659.5 1301.94,-666.5"/>
</g>
<!-- ZWF -->
<g id="node50" class="node"><title>ZWF</title>
<polygon fill="none" stroke="black" points="322,-238 308,-238 308,-224 322,-224 322,-238"/>
</g>
<!-- ZWF_intermediate_p -->
<g id="node52" class="node"><title>ZWF_intermediate_p</title>
<ellipse fill="black" stroke="black" cx="359" cy="-110" rx="0.036" ry="0.036"/>
</g>
<!-- ZWF&#45;&gt;ZWF_intermediate_p -->
<g id="edge95" class="edge"><title>ZWF&#45;&gt;ZWF_intermediate_p</title>
<path fill="none" stroke="black" d="M318.502,-223.793C327.402,-198.151 357.053,-112.727 357.978,-110.064"/>
</g>
<!-- ZWF&#45;&gt;ZWF_intermediate_m -->
<g id="edge98" class="edge"><title>ZWF&#45;&gt;ZWF_intermediate_m</title>
<path fill="none" stroke="black" d="M322.239,-231.743C341.518,-234.128 401.751,-242.248 450,-256 465.994,-260.559 484.785,-269.424 485.944,-269.973"/>
</g>
<!-- ZWF_intermediate_r&#45;&gt;ZWF -->
<g id="edge92" class="edge"><title>ZWF_intermediate_r&#45;&gt;ZWF</title>
<path fill="none" stroke="black" d="M272.12,-231C273.968,-231 296.602,-231 307.803,-231"/>
</g>
<!-- ZWF_intermediate_p&#45;&gt;G6L -->
<g id="edge96" class="edge"><title>ZWF_intermediate_p&#45;&gt;G6L</title>
<path fill="none" stroke="black" d="M360.045,-110C361.044,-110 378.509,-110 394.641,-110"/>
<polygon fill="black" stroke="black" points="394.863,-113.5 404.863,-110 394.863,-106.5 394.863,-113.5"/>
</g>
<!-- ZWF_intermediate_p&#45;&gt;NADPH -->
<g id="edge97" class="edge"><title>ZWF_intermediate_p&#45;&gt;NADPH</title>
<path fill="none" stroke="black" d="M357.976,-109.939C356.977,-107.396 324.595,-26 272,-26 116,-26 116,-26 116,-26 55.8098,-26 29.2225,-237.614 21.5084,-315.049"/>
<polygon fill="black" stroke="black" points="18.0202,-314.759 20.5437,-325.048 24.9879,-315.431 18.0202,-314.759"/>
</g>
<!-- NADPH_oxidase -->
<g id="node54" class="node"><title>NADPH_oxidase</title>
<polygon fill="none" stroke="black" points="124,-296 110,-296 110,-282 124,-282 124,-296"/>
</g>
<!-- NADPH_oxidase_intermediate_p -->
<g id="node56" class="node"><title>NADPH_oxidase_intermediate_p</title>
<ellipse fill="black" stroke="black" cx="161" cy="-241" rx="0.036" ry="0.036"/>
</g>
<!-- NADPH_oxidase&#45;&gt;NADPH_oxidase_intermediate_p -->
<g id="edge107" class="edge"><title>NADPH_oxidase&#45;&gt;NADPH_oxidase_intermediate_p</title>
<path fill="none" stroke="black" d="M124.197,-281.917C135.515,-268.983 158.505,-242.709 159.93,-241.079"/>
</g>
<!-- NADPH_oxidase&#45;&gt;NADPH_oxidase_intermediate_m -->
<g id="edge109" class="edge"><title>NADPH_oxidase&#45;&gt;NADPH_oxidase_intermediate_m</title>
<path fill="none" stroke="black" d="M124.197,-291.656C135.515,-296.506 158.505,-306.359 159.93,-306.97"/>
</g>
<!-- NADPH_oxidase_intermediate_r&#45;&gt;NADPH_oxidase -->
<g id="edge105" class="edge"><title>NADPH_oxidase_intermediate_r&#45;&gt;NADPH_oxidase</title>
<path fill="none" stroke="black" d="M74.1205,-292.989C75.9681,-292.813 98.6015,-290.657 109.803,-289.59"/>
</g>
<!-- NADPH_oxidase_intermediate_p&#45;&gt;NADP -->
<g id="edge108" class="edge"><title>NADPH_oxidase_intermediate_p&#45;&gt;NADP</title>
<path fill="none" stroke="black" d="M162.152,-240.865C163.904,-239.311 180.468,-224.623 194.591,-212.098"/>
<polygon fill="black" stroke="black" points="196.917,-214.713 202.077,-205.46 192.273,-209.476 196.917,-214.713"/>
</g>
<!-- E4P_sink -->
<g id="node58" class="node"><title>E4P_sink</title>
<polygon fill="none" stroke="black" points="1186,-1275 1172,-1275 1172,-1261 1186,-1261 1186,-1275"/>
</g>
<!-- E4P_sink_empty -->
<g id="node60" class="node"><title>E4P_sink_empty</title>
<text text-anchor="middle" x="1249" y="-1265.5" font-family="Times,serif" font-size="15.00" fill="blue">Ø</text>
</g>
<!-- E4P_sink&#45;&gt;E4P_sink_empty -->
<g id="edge113" class="edge"><title>E4P_sink&#45;&gt;E4P_sink_empty</title>
<path fill="none" stroke="black" d="M1186.28,-1268.09C1192.28,-1268.18 1201.85,-1268.32 1211.68,-1268.47"/>
<polygon fill="black" stroke="black" points="1211.83,-1271.97 1221.88,-1268.62 1211.93,-1264.97 1211.83,-1271.97"/>
</g>
<!-- E4P_sink&#45;&gt;E4P_sink_intermediate_m -->
<g id="edge114" class="edge"><title>E4P_sink&#45;&gt;E4P_sink_intermediate_m</title>
<path fill="none" stroke="black" d="M1186.02,-1263.68C1193.96,-1258.12 1208.52,-1248.41 1222,-1242 1232.35,-1237.08 1246.15,-1233.47 1247.83,-1233.04"/>
</g>
<!-- E4P_sink_intermediate_r&#45;&gt;E4P_sink -->
<g id="edge111" class="edge"><title>E4P_sink_intermediate_r&#45;&gt;E4P_sink</title>
<path fill="none" stroke="black" d="M1136.12,-1264.01C1137.97,-1264.19 1160.6,-1266.34 1171.8,-1267.41"/>
</g>
<!-- R5P_sink -->
<g id="node62" class="node"><title>R5P_sink</title>
<polygon fill="none" stroke="black" points="1186,-537 1172,-537 1172,-523 1186,-523 1186,-537"/>
</g>
<!-- R5P_sink_empty -->
<g id="node64" class="node"><title>R5P_sink_empty</title>
<text text-anchor="middle" x="1249" y="-529.5" font-family="Times,serif" font-size="15.00" fill="blue">Ø</text>
</g>
<!-- R5P_sink&#45;&gt;R5P_sink_empty -->
<g id="edge118" class="edge"><title>R5P_sink&#45;&gt;R5P_sink_empty</title>
<path fill="none" stroke="black" d="M1186.28,-530.277C1192.28,-530.542 1201.85,-530.964 1211.68,-531.398"/>
<polygon fill="black" stroke="black" points="1211.74,-534.903 1221.88,-531.848 1212.04,-527.91 1211.74,-534.903"/>
</g>
<!-- R5P_sink&#45;&gt;R5P_sink_intermediate_m -->
<g id="edge119" class="edge"><title>R5P_sink&#45;&gt;R5P_sink_intermediate_m</title>
<path fill="none" stroke="black" d="M1186.18,-535.286C1194.05,-541.816 1208.31,-552.927 1222,-560 1232.19,-565.261 1246.12,-568.568 1247.83,-568.961"/>
</g>
<!-- R5P_sink_intermediate_r&#45;&gt;R5P_sink -->
<g id="edge116" class="edge"><title>R5P_sink_intermediate_r&#45;&gt;R5P_sink</title>
<path fill="none" stroke="black" d="M1136.12,-533.989C1137.97,-533.813 1160.6,-531.657 1171.8,-530.59"/>
</g>
</g>
</svg>
