<?xml version="1.0" encoding="UTF-8" standalone="no"?>
<!DOCTYPE svg PUBLIC "-//W3C//DTD SVG 1.1//EN"
 "http://www.w3.org/Graphics/SVG/1.1/DTD/svg11.dtd">
<!-- Generated by graphviz version 2.24.0 (20090616.2323)
 -->
<!-- Title: G Pages: 1 -->
<svg width="1344pt" height="398pt"
 viewBox="0.00 0.00 1344.00 398.00" xmlns="http://www.w3.org/2000/svg" xmlns:xlink="http://www.w3.org/1999/xlink">
<g id="graph1" class="graph" transform="scale(1 1) rotate(0) translate(4 394)">
<title>G</title>
<polygon fill="white" stroke="white" points="-4,5 -4,-394 1341,-394 1341,5 -4,5"/>
<!-- s1 -->
<g id="node1" class="node"><title>s1</title>
<ellipse fill="none" stroke="black" cx="43" cy="-224" rx="41.9758" ry="18"/>
<text text-anchor="middle" x="43" y="-221.5" font-family="Times Roman,serif" font-size="10.00">Ptet&#45;LasR</text>
</g>
<!-- re1_intermediate_r -->
<g id="node68" class="node"><title>re1_intermediate_r</title>
<ellipse fill="black" stroke="black" cx="123" cy="-241" rx="0.036" ry="0.036"/>
</g>
<!-- s1&#45;&gt;re1_intermediate_r -->
<g id="edge76" class="edge"><title>s1&#45;&gt;re1_intermediate_r</title>
<path fill="none" stroke="black" d="M81.1256,-232.102C101.087,-236.343 121.671,-240.718 122.938,-240.987"/>
</g>
<!-- re1_intermediate_m -->
<g id="node74" class="node"><title>re1_intermediate_m</title>
<ellipse fill="black" stroke="black" cx="383" cy="-246" rx="0.036" ry="0.036"/>
</g>
<!-- s1&#45;&gt;re1_intermediate_m -->
<g id="edge84" class="edge"><title>s1&#45;&gt;re1_intermediate_m</title>
<path fill="none" stroke="black" d="M81.6513,-216.422C106.032,-212.286 138.239,-208 167,-208 167,-208 167,-208 211,-208 288.065,-208 380.075,-244.822 382.932,-245.972"/>
</g>
<!-- s19 -->
<g id="node2" class="node"><title>s19</title>
<polyline fill="none" stroke="black" points="564,-336 534,-336 "/>
<path fill="none" stroke="black" d="M534,-336C528,-336 522,-330 522,-324"/>
<polyline fill="none" stroke="black" points="522,-324 522,-312 "/>
<path fill="none" stroke="black" d="M522,-312C522,-306 528,-300 534,-300"/>
<polyline fill="none" stroke="black" points="534,-300 564,-300 "/>
<path fill="none" stroke="black" d="M564,-300C570,-300 576,-306 576,-312"/>
<polyline fill="none" stroke="black" points="576,-312 576,-324 "/>
<path fill="none" stroke="black" d="M576,-324C576,-330 570,-336 564,-336"/>
<text text-anchor="middle" x="549" y="-315.5" font-family="Times Roman,serif" font-size="10.00">LasR</text>
</g>
<!-- re3_intermediate_r -->
<g id="node12" class="node"><title>re3_intermediate_r</title>
<ellipse fill="black" stroke="black" cx="629" cy="-368" rx="0.036" ry="0.036"/>
</g>
<!-- s19&#45;&gt;re3_intermediate_r -->
<g id="edge4" class="edge"><title>s19&#45;&gt;re3_intermediate_r</title>
<path fill="none" stroke="black" d="M576.084,-334.928C598.568,-348.98 627.15,-366.844 628.914,-367.946"/>
</g>
<!-- re3_intermediate_m -->
<g id="node18" class="node"><title>re3_intermediate_m</title>
<ellipse fill="black" stroke="black" cx="717" cy="-345" rx="0.036" ry="0.036"/>
</g>
<!-- s19&#45;&gt;re3_intermediate_m -->
<g id="edge12" class="edge"><title>s19&#45;&gt;re3_intermediate_m</title>
<path fill="none" stroke="black" d="M576.366,-322.398C623.227,-329.929 714.104,-344.535 716.932,-344.989"/>
</g>
<!-- re4_intermediate_r -->
<g id="node32" class="node"><title>re4_intermediate_r</title>
<ellipse fill="black" stroke="black" cx="629" cy="-251" rx="0.036" ry="0.036"/>
</g>
<!-- s19&#45;&gt;re4_intermediate_r -->
<g id="edge28" class="edge"><title>s19&#45;&gt;re4_intermediate_r</title>
<path fill="none" stroke="black" d="M570.86,-299.692C593.807,-280.474 626.857,-252.795 628.9,-251.083"/>
</g>
<!-- re4_intermediate_m -->
<g id="node39" class="node"><title>re4_intermediate_m</title>
<ellipse fill="black" stroke="black" cx="897" cy="-237" rx="0.036" ry="0.036"/>
</g>
<!-- s19&#45;&gt;re4_intermediate_m -->
<g id="edge38" class="edge"><title>s19&#45;&gt;re4_intermediate_m</title>
<path fill="none" stroke="black" d="M576.396,-311.355C601.4,-305.876 639.46,-299 673,-299 673,-299 673,-299 717,-299 800.291,-299 894.022,-238.922 896.931,-237.045"/>
</g>
<!-- s3 -->
<g id="node3" class="node"><title>s3</title>
<ellipse fill="none" stroke="black" cx="807" cy="-372" rx="52.9405" ry="18"/>
<text text-anchor="middle" x="807" y="-369.5" font-family="Times Roman,serif" font-size="10.00">sa3_degraded</text>
</g>
<!-- s4 -->
<g id="node4" class="node"><title>s4</title>
<ellipse fill="none" stroke="black" cx="549" cy="-188" rx="41.9758" ry="18"/>
<text text-anchor="middle" x="549" y="-185.5" font-family="Times Roman,serif" font-size="10.00">3OC12HSL</text>
</g>
<!-- s4&#45;&gt;re4_intermediate_r -->
<g id="edge30" class="edge"><title>s4&#45;&gt;re4_intermediate_r</title>
<path fill="none" stroke="black" d="M569.187,-203.898C592.146,-221.978 626.755,-249.232 628.896,-250.918"/>
</g>
<!-- s4&#45;&gt;re4_intermediate_m -->
<g id="edge40" class="edge"><title>s4&#45;&gt;re4_intermediate_m</title>
<path fill="none" stroke="black" d="M589.601,-193.717C679.965,-206.441 890.293,-236.056 896.843,-236.978"/>
</g>
<!-- re8_intermediate_r -->
<g id="node58" class="node"><title>re8_intermediate_r</title>
<ellipse fill="black" stroke="black" cx="629" cy="-174" rx="0.036" ry="0.036"/>
</g>
<!-- s4&#45;&gt;re8_intermediate_r -->
<g id="edge64" class="edge"><title>s4&#45;&gt;re8_intermediate_r</title>
<path fill="none" stroke="black" d="M588.531,-181.082C608.056,-177.665 627.731,-174.222 628.941,-174.01"/>
</g>
<!-- re8_intermediate_m -->
<g id="node64" class="node"><title>re8_intermediate_m</title>
<ellipse fill="black" stroke="black" cx="717" cy="-139" rx="0.036" ry="0.036"/>
</g>
<!-- s4&#45;&gt;re8_intermediate_m -->
<g id="edge72" class="edge"><title>s4&#45;&gt;re8_intermediate_m</title>
<path fill="none" stroke="black" d="M584.218,-177.728C632.712,-163.584 714.398,-139.759 716.939,-139.018"/>
</g>
<!-- s16 -->
<g id="node5" class="node"><title>s16</title>
<ellipse fill="none" stroke="black" cx="807" cy="-60" rx="29.0474" ry="18"/>
<text text-anchor="middle" x="807" y="-57.5" font-family="Times Roman,serif" font-size="10.00">pLuxR</text>
</g>
<!-- re5_intermediate_r -->
<g id="node45" class="node"><title>re5_intermediate_r</title>
<ellipse fill="black" stroke="black" cx="897" cy="-109" rx="0.036" ry="0.036"/>
</g>
<!-- s16&#45;&gt;re5_intermediate_r -->
<g id="edge48" class="edge"><title>s16&#45;&gt;re5_intermediate_r</title>
<path fill="none" stroke="black" d="M830.129,-71.3714C839.477,-76.0738 850.323,-81.6658 860,-87 876.231,-95.9474 895.738,-108.206 896.941,-108.963"/>
</g>
<!-- re5_intermediate_m -->
<g id="node52" class="node"><title>re5_intermediate_m</title>
<ellipse fill="black" stroke="black" cx="1121" cy="-92" rx="0.036" ry="0.036"/>
</g>
<!-- s16&#45;&gt;re5_intermediate_m -->
<g id="edge56" class="edge"><title>s16&#45;&gt;re5_intermediate_m</title>
<path fill="none" stroke="black" d="M836.533,-61.3878C863.679,-62.5431 905.041,-64 941,-64 941,-64 941,-64 985,-64 1045.75,-64 1118.68,-91.1318 1120.95,-91.9797"/>
</g>
<!-- s17 -->
<g id="node6" class="node"><title>s17</title>
<ellipse fill="none" stroke="black" cx="1053" cy="-18" rx="30.7794" ry="18"/>
<text text-anchor="middle" x="1053" y="-15.5" font-family="Times Roman,serif" font-size="10.00">A pLux</text>
</g>
<!-- s17&#45;&gt;re5_intermediate_m -->
<g id="edge60" class="edge"><title>s17&#45;&gt;re5_intermediate_m</title>
<path fill="none" stroke="black" d="M1068.6,-33.8093C1073.58,-38.9265 1079.07,-44.6595 1084,-50 1100.35,-67.7013 1119.75,-90.5223 1120.94,-91.9314"/>
</g>
<!-- re14_intermediate_r -->
<g id="node79" class="node"><title>re14_intermediate_r</title>
<ellipse fill="black" stroke="black" cx="1121" cy="-37" rx="0.036" ry="0.036"/>
</g>
<!-- s17&#45;&gt;re14_intermediate_r -->
<g id="edge90" class="edge"><title>s17&#45;&gt;re14_intermediate_r</title>
<path fill="none" stroke="black" d="M1081.05,-25.8377C1099.2,-30.9079 1119.68,-36.6301 1120.94,-36.9828"/>
</g>
<!-- re14_intermediate_m -->
<g id="node85" class="node"><title>re14_intermediate_m</title>
<ellipse fill="black" stroke="black" cx="1336" cy="-42" rx="0.036" ry="0.036"/>
</g>
<!-- s17&#45;&gt;re14_intermediate_m -->
<g id="edge98" class="edge"><title>s17&#45;&gt;re14_intermediate_m</title>
<path fill="none" stroke="black" d="M1082.82,-12.2248C1105.31,-8.36838 1136.98,-4 1165,-4 1165,-4 1165,-4 1209,-4 1267,-4 1333.87,-40.8218 1335.95,-41.9725"/>
</g>
<!-- s5 -->
<g id="node7" class="node"><title>s5</title>
<ellipse fill="none" stroke="black" cx="807" cy="-114" rx="52.9405" ry="18"/>
<text text-anchor="middle" x="807" y="-111.5" font-family="Times Roman,serif" font-size="10.00">sa6_degraded</text>
</g>
<!-- s42 -->
<g id="node8" class="node"><title>s42</title>
<ellipse fill="none" stroke="black" cx="807" cy="-168" rx="38.8989" ry="18"/>
<text text-anchor="middle" x="807" y="-165.5" font-family="Times Roman,serif" font-size="10.00">LasR/AHL</text>
</g>
<!-- s42&#45;&gt;re4_intermediate_m -->
<g id="edge42" class="edge"><title>s42&#45;&gt;re4_intermediate_m</title>
<path fill="none" stroke="black" d="M832.629,-181.784C841.599,-187.041 851.537,-193.374 860,-200 877.738,-213.889 895.832,-235.592 896.946,-236.935"/>
</g>
<!-- s42&#45;&gt;re5_intermediate_r -->
<g id="edge46" class="edge"><title>s42&#45;&gt;re5_intermediate_r</title>
<path fill="none" stroke="black" d="M835.226,-155.208C843.448,-151.064 852.288,-146.187 860,-141 877.477,-129.245 895.816,-110.234 896.945,-109.057"/>
</g>
<!-- s42&#45;&gt;re5_intermediate_m -->
<g id="edge58" class="edge"><title>s42&#45;&gt;re5_intermediate_m</title>
<path fill="none" stroke="black" d="M845.965,-164.889C872.689,-163.019 908.969,-161 941,-161 941,-161 941,-161 985,-161 1051.72,-161 1118.87,-94.1394 1120.95,-92.05"/>
</g>
<!-- s2 -->
<g id="node9" class="node"><title>s2</title>
<ellipse fill="none" stroke="black" cx="297" cy="-292" rx="49.247" ry="18"/>
<text text-anchor="middle" x="297" y="-289.5" font-family="Times Roman,serif" font-size="10.00">mRNA(LasR)</text>
</g>
<!-- re2_intermediate_r -->
<g id="node22" class="node"><title>re2_intermediate_r</title>
<ellipse fill="black" stroke="black" cx="383" cy="-315" rx="0.036" ry="0.036"/>
</g>
<!-- s2&#45;&gt;re2_intermediate_r -->
<g id="edge16" class="edge"><title>s2&#45;&gt;re2_intermediate_r</title>
<path fill="none" stroke="black" d="M336.727,-302.625C358.557,-308.463 381.517,-314.604 382.931,-314.982"/>
</g>
<!-- re2_intermediate_m -->
<g id="node28" class="node"><title>re2_intermediate_m</title>
<ellipse fill="black" stroke="black" cx="470" cy="-292" rx="0.036" ry="0.036"/>
</g>
<!-- s2&#45;&gt;re2_intermediate_m -->
<g id="edge24" class="edge"><title>s2&#45;&gt;re2_intermediate_m</title>
<path fill="none" stroke="black" d="M346.112,-292C396.459,-292 467.732,-292 469.947,-292"/>
</g>
<!-- s2&#45;&gt;re1_intermediate_m -->
<g id="edge86" class="edge"><title>s2&#45;&gt;re1_intermediate_m</title>
<path fill="none" stroke="black" d="M325.16,-276.938C349.457,-263.942 380.96,-247.091 382.905,-246.051"/>
</g>
<!-- s45 -->
<g id="node10" class="node"><title>s45</title>
<polyline fill="none" stroke="black" points="1288,-106 1258,-106 "/>
<path fill="none" stroke="black" d="M1258,-106C1252,-106 1246,-100 1246,-94"/>
<polyline fill="none" stroke="black" points="1246,-94 1246,-82 "/>
<path fill="none" stroke="black" d="M1246,-82C1246,-76 1252,-70 1258,-70"/>
<polyline fill="none" stroke="black" points="1258,-70 1288,-70 "/>
<path fill="none" stroke="black" d="M1288,-70C1294,-70 1300,-76 1300,-82"/>
<polyline fill="none" stroke="black" points="1300,-82 1300,-94 "/>
<path fill="none" stroke="black" d="M1300,-94C1300,-100 1294,-106 1288,-106"/>
<text text-anchor="middle" x="1273" y="-85.5" font-family="Times Roman,serif" font-size="10.00">GFP</text>
</g>
<!-- s45&#45;&gt;re14_intermediate_m -->
<g id="edge100" class="edge"><title>s45&#45;&gt;re14_intermediate_m</title>
<path fill="none" stroke="black" d="M1297.9,-69.8196C1314.96,-57.3636 1334.72,-42.9331 1335.94,-42.0433"/>
</g>
<!-- re3 -->
<g id="node11" class="node"><title>re3</title>
<polygon fill="none" stroke="black" points="680,-379 666,-379 666,-365 680,-365 680,-379"/>
</g>
<!-- re3_intermediate_p -->
<g id="node15" class="node"><title>re3_intermediate_p</title>
<ellipse fill="black" stroke="black" cx="717" cy="-372" rx="0.036" ry="0.036"/>
</g>
<!-- re3&#45;&gt;re3_intermediate_p -->
<g id="edge6" class="edge"><title>re3&#45;&gt;re3_intermediate_p</title>
<path fill="none" stroke="black" d="M680.266,-372C692.372,-372 715.497,-372 716.93,-372"/>
</g>
<!-- re3&#45;&gt;re3_intermediate_m -->
<g id="edge10" class="edge"><title>re3&#45;&gt;re3_intermediate_m</title>
<path fill="none" stroke="black" d="M690.536,-361.239C702.301,-354.02 715.844,-345.709 716.93,-345.043"/>
<polygon fill="none" stroke="black" points="690.494,-361.265 687.472,-367.813 680.266,-367.541 683.288,-360.994 690.494,-361.265"/>
</g>
<!-- re3_intermediate_r&#45;&gt;re3 -->
<g id="edge2" class="edge"><title>re3_intermediate_r&#45;&gt;re3</title>
<path fill="none" stroke="black" d="M629.126,-368.011C631.022,-368.184 653.795,-370.254 665.759,-371.342"/>
</g>
<!-- re3_intermediate_p&#45;&gt;s3 -->
<g id="edge8" class="edge"><title>re3_intermediate_p&#45;&gt;s3</title>
<path fill="none" stroke="black" d="M717.065,-372C718.017,-372 729.266,-372 743.506,-372"/>
<polygon fill="black" stroke="black" points="743.753,-375.5 753.752,-372 743.752,-368.5 743.753,-375.5"/>
</g>
<!-- re2 -->
<g id="node21" class="node"><title>re2</title>
<polygon fill="none" stroke="black" points="434,-325 420,-325 420,-311 434,-311 434,-325"/>
</g>
<!-- re2_intermediate_p -->
<g id="node25" class="node"><title>re2_intermediate_p</title>
<ellipse fill="black" stroke="black" cx="470" cy="-318" rx="0.036" ry="0.036"/>
</g>
<!-- re2&#45;&gt;re2_intermediate_p -->
<g id="edge18" class="edge"><title>re2&#45;&gt;re2_intermediate_p</title>
<path fill="none" stroke="black" d="M434.101,-318C445.932,-318 468.531,-318 469.932,-318"/>
</g>
<!-- re2&#45;&gt;re2_intermediate_m -->
<g id="edge22" class="edge"><title>re2&#45;&gt;re2_intermediate_m</title>
<path fill="none" stroke="black" d="M444.494,-307.422C455.907,-300.522 468.881,-292.677 469.932,-292.041"/>
<polygon fill="none" stroke="black" points="444.369,-307.498 441.305,-314.025 434.101,-313.707 437.165,-307.179 444.369,-307.498"/>
</g>
<!-- re2_intermediate_r&#45;&gt;re2 -->
<g id="edge14" class="edge"><title>re2_intermediate_r&#45;&gt;re2</title>
<path fill="none" stroke="black" d="M383.126,-315.009C385.022,-315.138 407.795,-316.691 419.759,-317.506"/>
</g>
<!-- re2_intermediate_p&#45;&gt;s19 -->
<g id="edge20" class="edge"><title>re2_intermediate_p&#45;&gt;s19</title>
<path fill="none" stroke="black" d="M470.057,-318C471.275,-318 491.701,-318 511.468,-318"/>
<polygon fill="black" stroke="black" points="511.64,-321.5 521.64,-318 511.64,-314.5 511.64,-321.5"/>
</g>
<!-- re4 -->
<g id="node31" class="node"><title>re4</title>
<polygon fill="none" stroke="black" points="680,-258 666,-258 666,-244 680,-244 680,-258"/>
</g>
<!-- re4_intermediate_p -->
<g id="node36" class="node"><title>re4_intermediate_p</title>
<ellipse fill="black" stroke="black" cx="717" cy="-233" rx="0.036" ry="0.036"/>
</g>
<!-- re4&#45;&gt;re4_intermediate_p -->
<g id="edge32" class="edge"><title>re4&#45;&gt;re4_intermediate_p</title>
<path fill="none" stroke="black" d="M680.266,-248.028C692.372,-243.075 715.497,-233.615 716.93,-233.029"/>
</g>
<!-- re4&#45;&gt;re4_intermediate_m -->
<g id="edge36" class="edge"><title>re4&#45;&gt;re4_intermediate_m</title>
<path fill="none" stroke="black" d="M692.76,-249.765C746.552,-246.403 891.934,-237.317 896.871,-237.008"/>
<polygon fill="none" stroke="black" points="692.43,-249.786 686.691,-254.152 680.453,-250.534 686.192,-246.168 692.43,-249.786"/>
</g>
<!-- re4_intermediate_r&#45;&gt;re4 -->
<g id="edge26" class="edge"><title>re4_intermediate_r&#45;&gt;re4</title>
<path fill="none" stroke="black" d="M629.126,-251C631.022,-251 653.795,-251 665.759,-251"/>
</g>
<!-- re4_intermediate_p&#45;&gt;s42 -->
<g id="edge34" class="edge"><title>re4_intermediate_p&#45;&gt;s42</title>
<path fill="none" stroke="black" d="M717.065,-232.953C718.729,-231.751 751.898,-207.796 777.474,-189.325"/>
<polygon fill="black" stroke="black" points="779.742,-192.004 785.799,-183.312 775.643,-186.329 779.742,-192.004"/>
</g>
<!-- re5 -->
<g id="node44" class="node"><title>re5</title>
<polygon fill="none" stroke="black" points="948,-116 934,-116 934,-102 948,-102 948,-116"/>
</g>
<!-- re5_intermediate_p -->
<g id="node49" class="node"><title>re5_intermediate_p</title>
<ellipse fill="black" stroke="black" cx="985" cy="-92" rx="0.036" ry="0.036"/>
</g>
<!-- re5&#45;&gt;re5_intermediate_p -->
<g id="edge50" class="edge"><title>re5&#45;&gt;re5_intermediate_p</title>
<path fill="none" stroke="black" d="M948.266,-106.193C960.372,-101.515 983.497,-92.5808 984.93,-92.027"/>
</g>
<!-- re5&#45;&gt;re5_intermediate_m -->
<g id="edge54" class="edge"><title>re5&#45;&gt;re5_intermediate_m</title>
<path fill="none" stroke="black" d="M960.398,-107.168C1006.12,-102.85 1117.08,-92.3698 1120.9,-92.0095"/>
<polygon fill="none" stroke="black" points="960.226,-107.184 954.629,-111.731 948.279,-108.313 953.876,-103.766 960.226,-107.184"/>
</g>
<!-- re5_intermediate_r&#45;&gt;re5 -->
<g id="edge44" class="edge"><title>re5_intermediate_r&#45;&gt;re5</title>
<path fill="none" stroke="black" d="M897.126,-109C899.022,-109 921.795,-109 933.759,-109"/>
</g>
<!-- re5_intermediate_p&#45;&gt;s17 -->
<g id="edge52" class="edge"><title>re5_intermediate_p&#45;&gt;s17</title>
<path fill="none" stroke="black" d="M985.049,-91.9464C986.324,-90.5587 1012.08,-62.5323 1031.5,-41.392"/>
<polygon fill="black" stroke="black" points="1034.13,-43.7087 1038.32,-33.9772 1028.97,-38.9723 1034.13,-43.7087"/>
</g>
<!-- re8 -->
<g id="node57" class="node"><title>re8</title>
<polygon fill="none" stroke="black" points="680,-177 666,-177 666,-163 680,-163 680,-177"/>
</g>
<!-- re8_intermediate_p -->
<g id="node61" class="node"><title>re8_intermediate_p</title>
<ellipse fill="black" stroke="black" cx="717" cy="-165" rx="0.036" ry="0.036"/>
</g>
<!-- re8&#45;&gt;re8_intermediate_p -->
<g id="edge66" class="edge"><title>re8&#45;&gt;re8_intermediate_p</title>
<path fill="none" stroke="black" d="M680.266,-169.174C692.372,-167.799 715.497,-165.171 716.93,-165.008"/>
</g>
<!-- re8&#45;&gt;re8_intermediate_m -->
<g id="edge70" class="edge"><title>re8&#45;&gt;re8_intermediate_m</title>
<path fill="none" stroke="black" d="M690.173,-157.901C702.02,-149.554 715.833,-139.822 716.93,-139.049"/>
<polygon fill="none" stroke="black" points="690.076,-157.969 687.474,-164.695 680.266,-164.881 682.867,-158.155 690.076,-157.969"/>
</g>
<!-- re8_intermediate_r&#45;&gt;re8 -->
<g id="edge62" class="edge"><title>re8_intermediate_r&#45;&gt;re8</title>
<path fill="none" stroke="black" d="M629.126,-173.989C631.022,-173.816 653.795,-171.746 665.759,-170.658"/>
</g>
<!-- re8_intermediate_p&#45;&gt;s5 -->
<g id="edge68" class="edge"><title>re8_intermediate_p&#45;&gt;s5</title>
<path fill="none" stroke="black" d="M717.058,-164.959C718.248,-164.117 737.553,-150.489 754,-141 758.249,-138.549 762.745,-136.078 767.252,-133.678"/>
<polygon fill="black" stroke="black" points="769.193,-136.613 776.439,-128.884 765.954,-130.407 769.193,-136.613"/>
</g>
<!-- re1 -->
<g id="node67" class="node"><title>re1</title>
<polygon fill="none" stroke="black" points="174,-253 160,-253 160,-239 174,-239 174,-253"/>
</g>
<!-- re1_intermediate_p -->
<g id="node71" class="node"><title>re1_intermediate_p</title>
<ellipse fill="black" stroke="black" cx="211" cy="-283" rx="0.036" ry="0.036"/>
</g>
<!-- re1&#45;&gt;re1_intermediate_p -->
<g id="edge78" class="edge"><title>re1&#45;&gt;re1_intermediate_p</title>
<path fill="none" stroke="black" d="M174.266,-252.11C186.372,-262.29 209.497,-281.736 210.93,-282.941"/>
</g>
<!-- re1&#45;&gt;re1_intermediate_m -->
<g id="edge82" class="edge"><title>re1&#45;&gt;re1_intermediate_m</title>
<path fill="none" stroke="black" d="M186.387,-246C238.522,-246 378.125,-246 382.876,-246"/>
<polygon fill="none" stroke="black" points="186.187,-246 180.187,-250 174.187,-246 180.187,-242 186.187,-246"/>
</g>
<!-- re1_intermediate_r&#45;&gt;re1 -->
<g id="edge74" class="edge"><title>re1_intermediate_r&#45;&gt;re1</title>
<path fill="none" stroke="black" d="M123.126,-241.014C125.022,-241.23 147.795,-243.818 159.759,-245.177"/>
</g>
<!-- re1_intermediate_p&#45;&gt;s2 -->
<g id="edge80" class="edge"><title>re1_intermediate_p&#45;&gt;s2</title>
<path fill="none" stroke="black" d="M211.062,-283.007C212.039,-283.109 224.362,-284.398 239.387,-285.971"/>
<polygon fill="black" stroke="black" points="239.248,-289.475 249.559,-287.035 239.977,-282.513 239.248,-289.475"/>
</g>
<!-- re14 -->
<g id="node78" class="node"><title>re14</title>
<polygon fill="none" stroke="black" points="1172,-49 1158,-49 1158,-35 1172,-35 1172,-49"/>
</g>
<!-- re14_intermediate_p -->
<g id="node82" class="node"><title>re14_intermediate_p</title>
<ellipse fill="black" stroke="black" cx="1209" cy="-79" rx="0.036" ry="0.036"/>
</g>
<!-- re14&#45;&gt;re14_intermediate_p -->
<g id="edge92" class="edge"><title>re14&#45;&gt;re14_intermediate_p</title>
<path fill="none" stroke="black" d="M1172.27,-48.1098C1184.37,-58.2904 1207.5,-77.7358 1208.93,-78.9412"/>
</g>
<!-- re14&#45;&gt;re14_intermediate_m -->
<g id="edge96" class="edge"><title>re14&#45;&gt;re14_intermediate_m</title>
<path fill="none" stroke="black" d="M1184.59,-42C1228.72,-42 1332.33,-42 1335.9,-42"/>
<polygon fill="none" stroke="black" points="1184.35,-42.0001 1178.35,-46 1172.35,-42 1178.35,-38 1184.35,-42.0001"/>
</g>
<!-- re14_intermediate_r&#45;&gt;re14 -->
<g id="edge88" class="edge"><title>re14_intermediate_r&#45;&gt;re14</title>
<path fill="none" stroke="black" d="M1121.13,-37.0143C1123.02,-37.2297 1145.79,-39.8176 1157.76,-41.1772"/>
</g>
<!-- re14_intermediate_p&#45;&gt;s45 -->
<g id="edge94" class="edge"><title>re14_intermediate_p&#45;&gt;s45</title>
<path fill="none" stroke="black" d="M1209.05,-79.0065C1209.89,-79.1256 1222.21,-80.8575 1235.81,-82.7701"/>
<polygon fill="black" stroke="black" points="1235.4,-86.2475 1245.79,-84.1742 1236.38,-79.3157 1235.4,-86.2475"/>
</g>
</g>
</svg>
