<?xml version="1.0" encoding="utf-8"?>
<!-- Generator: Adobe Illustrator 14.0.0, SVG Export Plug-In . SVG Version: 6.00 Build 43363)  -->
<!DOCTYPE svg PUBLIC "-//W3C//DTD SVG 1.1//EN" "http://www.w3.org/Graphics/SVG/1.1/DTD/svg11.dtd">
<svg version="1.1" id="Layer_1" xmlns="http://www.w3.org/2000/svg" xmlns:xlink="http://www.w3.org/1999/xlink" x="0px" y="0px"
	 width="532px" height="338px" viewBox="0 0 532 338" enable-background="new 0 0 532 338" xml:space="preserve">
<g>
	<g>
		
			<radialGradient id="path11134_7_" cx="335.7632" cy="-267.6016" r="22.1563" gradientTransform="matrix(0.3664 0 0 0.3664 98.335 336.361)" gradientUnits="userSpaceOnUse">
			<stop  offset="0" style="stop-color:#FFFBDE"/>
			<stop  offset="0.1203" style="stop-color:#FFFAD8"/>
			<stop  offset="0.2662" style="stop-color:#FFF8C9"/>
			<stop  offset="0.4255" style="stop-color:#FFF5AF"/>
			<stop  offset="0.5943" style="stop-color:#FFEF8A"/>
			<stop  offset="0.7706" style="stop-color:#FFEA58"/>
			<stop  offset="0.9506" style="stop-color:#FFE200"/>
			<stop  offset="1" style="stop-color:#FFE000"/>
		</radialGradient>
		<path id="path11134_1_" fill="url(#path11134_7_)" stroke="#000000" stroke-width="0.9921" d="M229.477,238.313
			c0,4.482-3.635,8.117-8.117,8.117c-4.484,0-8.119-3.635-8.119-8.117s3.633-8.119,8.119-8.119
			C225.842,230.193,229.477,233.83,229.477,238.313z"/>
		<text transform="matrix(1 0 0 1 219.1914 240.6592)" font-family="'Myriad-Roman'" font-size="8">B</text>
	</g>
	<g>
		
			<radialGradient id="path16609_8_" cx="196.6323" cy="-189.2207" r="16.1855" gradientTransform="matrix(1.5933 0 0 0.6358 -121.968 358.6177)" gradientUnits="userSpaceOnUse">
			<stop  offset="0" style="stop-color:#9FFF5F"/>
			<stop  offset="0.4082" style="stop-color:#9DFF5F"/>
			<stop  offset="0.5552" style="stop-color:#96FB60"/>
			<stop  offset="0.66" style="stop-color:#8DF95F"/>
			<stop  offset="0.7448" style="stop-color:#7CF65E"/>
			<stop  offset="0.8174" style="stop-color:#66F15D"/>
			<stop  offset="0.8817" style="stop-color:#4AEC5D"/>
			<stop  offset="0.9398" style="stop-color:#29E65B"/>
			<stop  offset="0.9915" style="stop-color:#0ADE5A"/>
			<stop  offset="1" style="stop-color:#02DD5A"/>
		</radialGradient>
		<path id="path16609_1_" fill="url(#path16609_8_)" stroke="#000000" d="M216.641,238.311c0,5.786-11.338,10.478-25.314,10.478
			c-13.98,0-25.314-4.689-25.314-10.478s11.334-10.476,25.314-10.476C205.303,227.836,216.641,232.523,216.641,238.311z"/>
		<text transform="matrix(1 0 0 1 186.2866 241.833)" font-family="'MyriadPro-Regular'" font-size="12">X’</text>
	</g>
</g>
<g>
	<g>
		
			<radialGradient id="path11134_8_" cx="-80.2778" cy="-68.3076" r="22.1565" gradientTransform="matrix(0.3664 0 0 0.3664 98.335 336.361)" gradientUnits="userSpaceOnUse">
			<stop  offset="0" style="stop-color:#FFFBDE"/>
			<stop  offset="0.1203" style="stop-color:#FFFAD8"/>
			<stop  offset="0.2662" style="stop-color:#FFF8C9"/>
			<stop  offset="0.4255" style="stop-color:#FFF5AF"/>
			<stop  offset="0.5943" style="stop-color:#FFEF8A"/>
			<stop  offset="0.7706" style="stop-color:#FFEA58"/>
			<stop  offset="0.9506" style="stop-color:#FFE200"/>
			<stop  offset="1" style="stop-color:#FFE000"/>
		</radialGradient>
		<path id="path11134_2_" fill="url(#path11134_8_)" stroke="#000000" stroke-width="0.9921" d="M77.039,311.334
			c0,4.482-3.635,8.117-8.117,8.117c-4.484,0-8.119-3.635-8.119-8.117s3.633-8.119,8.119-8.119
			C73.404,303.215,77.039,306.852,77.039,311.334z"/>
		<text transform="matrix(1 0 0 1 66.6016 313.6807)" font-family="'Myriad-Roman'" font-size="8">C</text>
	</g>
	<g>
		
			<radialGradient id="path16609_9_" cx="100.9585" cy="-74.3711" r="16.1853" gradientTransform="matrix(1.5933 0 0 0.6358 -121.968 358.6177)" gradientUnits="userSpaceOnUse">
			<stop  offset="0" style="stop-color:#9FFF5F"/>
			<stop  offset="0.4082" style="stop-color:#9DFF5F"/>
			<stop  offset="0.5552" style="stop-color:#96FB60"/>
			<stop  offset="0.66" style="stop-color:#8DF95F"/>
			<stop  offset="0.7448" style="stop-color:#7CF65E"/>
			<stop  offset="0.8174" style="stop-color:#66F15D"/>
			<stop  offset="0.8817" style="stop-color:#4AEC5D"/>
			<stop  offset="0.9398" style="stop-color:#29E65B"/>
			<stop  offset="0.9915" style="stop-color:#0ADE5A"/>
			<stop  offset="1" style="stop-color:#02DD5A"/>
		</radialGradient>
		<path id="path16609_2_" fill="url(#path16609_9_)" stroke="#000000" d="M64.203,311.332c0,5.786-11.338,10.478-25.314,10.478
			c-13.98,0-25.314-4.689-25.314-10.478s11.334-10.476,25.314-10.476C52.865,300.857,64.203,305.545,64.203,311.332z"/>
		<text transform="matrix(1 0 0 1 33.8491 314.8545)" font-family="'MyriadPro-Regular'" font-size="12">X’</text>
	</g>
</g>
<g>
	<g>
		
			<radialGradient id="path11134_9_" cx="184.7075" cy="-858.5957" r="22.1567" gradientTransform="matrix(0.3664 0 0 0.3664 98.335 336.361)" gradientUnits="userSpaceOnUse">
			<stop  offset="0" style="stop-color:#FFFBDE"/>
			<stop  offset="0.1203" style="stop-color:#FFFAD8"/>
			<stop  offset="0.2662" style="stop-color:#FFF8C9"/>
			<stop  offset="0.4255" style="stop-color:#FFF5AF"/>
			<stop  offset="0.5943" style="stop-color:#FFEF8A"/>
			<stop  offset="0.7706" style="stop-color:#FFEA58"/>
			<stop  offset="0.9506" style="stop-color:#FFE200"/>
			<stop  offset="1" style="stop-color:#FFE000"/>
		</radialGradient>
		<path id="path11134_3_" fill="url(#path11134_9_)" stroke="#000000" stroke-width="0.9921" d="M174.13,21.772
			c0,4.482-3.635,8.117-8.117,8.117c-4.484,0-8.119-3.635-8.119-8.117s3.633-8.119,8.119-8.119
			C170.495,13.653,174.13,17.29,174.13,21.772z"/>
		<text transform="matrix(1 0 0 1 163.5645 24.1191)" font-family="'Myriad-Roman'" font-size="8">A</text>
	</g>
	<g>
		
			<radialGradient id="path16609_10_" cx="161.895" cy="-529.7998" r="16.1858" gradientTransform="matrix(1.5933 0 0 0.6358 -121.968 358.6177)" gradientUnits="userSpaceOnUse">
			<stop  offset="0" style="stop-color:#9FFF5F"/>
			<stop  offset="0.4082" style="stop-color:#9DFF5F"/>
			<stop  offset="0.5552" style="stop-color:#96FB60"/>
			<stop  offset="0.66" style="stop-color:#8DF95F"/>
			<stop  offset="0.7448" style="stop-color:#7CF65E"/>
			<stop  offset="0.8174" style="stop-color:#66F15D"/>
			<stop  offset="0.8817" style="stop-color:#4AEC5D"/>
			<stop  offset="0.9398" style="stop-color:#29E65B"/>
			<stop  offset="0.9915" style="stop-color:#0ADE5A"/>
			<stop  offset="1" style="stop-color:#02DD5A"/>
		</radialGradient>
		<path id="path16609_3_" fill="url(#path16609_10_)" stroke="#000000" d="M161.294,21.771c0,5.786-11.338,10.478-25.314,10.478
			c-13.98,0-25.314-4.689-25.314-10.478s11.334-10.476,25.314-10.476C149.956,11.296,161.294,15.983,161.294,21.771z"/>
		<text transform="matrix(1 0 0 1 130.9399 25.293)" font-family="'MyriadPro-Regular'" font-size="12">X’</text>
	</g>
</g>
<g>
	
		<radialGradient id="path16609_12_" cx="343.7319" cy="-344.2803" r="16.1853" gradientTransform="matrix(1.5933 0 0 0.6358 -121.968 358.6177)" gradientUnits="userSpaceOnUse">
		<stop  offset="0" style="stop-color:#9FFF5F"/>
		<stop  offset="0.4082" style="stop-color:#9DFF5F"/>
		<stop  offset="0.5552" style="stop-color:#96FB60"/>
		<stop  offset="0.66" style="stop-color:#8DF95F"/>
		<stop  offset="0.7448" style="stop-color:#7CF65E"/>
		<stop  offset="0.8174" style="stop-color:#66F15D"/>
		<stop  offset="0.8817" style="stop-color:#4AEC5D"/>
		<stop  offset="0.9398" style="stop-color:#29E65B"/>
		<stop  offset="0.9915" style="stop-color:#0ADE5A"/>
		<stop  offset="1" style="stop-color:#02DD5A"/>
	</radialGradient>
	<path id="path16609_7_" fill="url(#path16609_12_)" stroke="#000000" d="M451.014,139.724c0,5.786-11.338,10.478-25.314,10.478
		c-13.98,0-25.314-4.689-25.314-10.478s11.334-10.476,25.314-10.476C439.676,129.249,451.014,133.937,451.014,139.724z"/>
	<text transform="matrix(1 0 0 1 419.4185 143.2461)" font-family="'MyriadPro-Regular'" font-size="12">X’’</text>
</g>
<g>
	<g>
		
			<radialGradient id="path11134_10_" cx="1128.4507" cy="-267.6016" r="22.1567" gradientTransform="matrix(0.3664 0 0 0.3664 98.335 336.361)" gradientUnits="userSpaceOnUse">
			<stop  offset="0" style="stop-color:#FFFBDE"/>
			<stop  offset="0.1203" style="stop-color:#FFFAD8"/>
			<stop  offset="0.2662" style="stop-color:#FFF8C9"/>
			<stop  offset="0.4255" style="stop-color:#FFF5AF"/>
			<stop  offset="0.5943" style="stop-color:#FFEF8A"/>
			<stop  offset="0.7706" style="stop-color:#FFEA58"/>
			<stop  offset="0.9506" style="stop-color:#FFE200"/>
			<stop  offset="1" style="stop-color:#FFE000"/>
		</radialGradient>
		<path id="path11134_6_" fill="url(#path11134_10_)" stroke="#000000" stroke-width="0.9921" d="M519.917,238.313
			c0,4.482-3.635,8.117-8.117,8.117c-4.484,0-8.119-3.635-8.119-8.117s3.633-8.119,8.119-8.119
			C516.283,230.193,519.917,233.83,519.917,238.313z"/>
		<text transform="matrix(1 0 0 1 509.6323 240.6592)" font-family="'Myriad-Roman'" font-size="8">B</text>
	</g>
	<g>
		
			<radialGradient id="path16609_13_" cx="378.9214" cy="-189.2207" r="16.1853" gradientTransform="matrix(1.5933 0 0 0.6358 -121.968 358.6177)" gradientUnits="userSpaceOnUse">
			<stop  offset="0" style="stop-color:#9FFF5F"/>
			<stop  offset="0.4082" style="stop-color:#9DFF5F"/>
			<stop  offset="0.5552" style="stop-color:#96FB60"/>
			<stop  offset="0.66" style="stop-color:#8DF95F"/>
			<stop  offset="0.7448" style="stop-color:#7CF65E"/>
			<stop  offset="0.8174" style="stop-color:#66F15D"/>
			<stop  offset="0.8817" style="stop-color:#4AEC5D"/>
			<stop  offset="0.9398" style="stop-color:#29E65B"/>
			<stop  offset="0.9915" style="stop-color:#0ADE5A"/>
			<stop  offset="1" style="stop-color:#02DD5A"/>
		</radialGradient>
		<path id="path16609_6_" fill="url(#path16609_13_)" stroke="#000000" d="M507.082,238.311c0,5.786-11.338,10.478-25.314,10.478
			c-13.98,0-25.314-4.689-25.314-10.478s11.334-10.476,25.314-10.476C495.744,227.836,507.082,232.523,507.082,238.311z"/>
		<text transform="matrix(1 0 0 1 475.4858 241.833)" font-family="'MyriadPro-Regular'" font-size="12">X’’</text>
	</g>
</g>
<g>
	<g>
		
			<radialGradient id="path11134_11_" cx="711.5952" cy="-68.3076" r="22.1565" gradientTransform="matrix(0.3664 0 0 0.3664 98.335 336.361)" gradientUnits="userSpaceOnUse">
			<stop  offset="0" style="stop-color:#FFFBDE"/>
			<stop  offset="0.1203" style="stop-color:#FFFAD8"/>
			<stop  offset="0.2662" style="stop-color:#FFF8C9"/>
			<stop  offset="0.4255" style="stop-color:#FFF5AF"/>
			<stop  offset="0.5943" style="stop-color:#FFEF8A"/>
			<stop  offset="0.7706" style="stop-color:#FFEA58"/>
			<stop  offset="0.9506" style="stop-color:#FFE200"/>
			<stop  offset="1" style="stop-color:#FFE000"/>
		</radialGradient>
		<path id="path11134_5_" fill="url(#path11134_11_)" stroke="#000000" stroke-width="0.9921" d="M367.181,311.334
			c0,4.482-3.635,8.117-8.117,8.117c-4.484,0-8.119-3.635-8.119-8.117s3.633-8.119,8.119-8.119
			C363.546,303.215,367.181,306.852,367.181,311.334z"/>
		<text transform="matrix(1 0 0 1 356.7437 313.6807)" font-family="'Myriad-Roman'" font-size="8">C</text>
	</g>
	<g>
		
			<radialGradient id="path16609_14_" cx="283.0596" cy="-74.3711" r="16.1855" gradientTransform="matrix(1.5933 0 0 0.6358 -121.968 358.6177)" gradientUnits="userSpaceOnUse">
			<stop  offset="0" style="stop-color:#9FFF5F"/>
			<stop  offset="0.4082" style="stop-color:#9DFF5F"/>
			<stop  offset="0.5552" style="stop-color:#96FB60"/>
			<stop  offset="0.66" style="stop-color:#8DF95F"/>
			<stop  offset="0.7448" style="stop-color:#7CF65E"/>
			<stop  offset="0.8174" style="stop-color:#66F15D"/>
			<stop  offset="0.8817" style="stop-color:#4AEC5D"/>
			<stop  offset="0.9398" style="stop-color:#29E65B"/>
			<stop  offset="0.9915" style="stop-color:#0ADE5A"/>
			<stop  offset="1" style="stop-color:#02DD5A"/>
		</radialGradient>
		<path id="path16609_5_" fill="url(#path16609_14_)" stroke="#000000" d="M354.345,311.332c0,5.786-11.338,10.478-25.314,10.478
			c-13.98,0-25.314-4.689-25.314-10.478s11.334-10.476,25.314-10.476C343.007,300.857,354.345,305.545,354.345,311.332z"/>
		<text transform="matrix(1 0 0 1 322.7495 314.8545)" font-family="'MyriadPro-Regular'" font-size="12">X’’</text>
	</g>
</g>
<g>
	<g>
		
			<radialGradient id="path11134_12_" cx="975.4292" cy="-858.5957" r="22.1565" gradientTransform="matrix(0.3664 0 0 0.3664 98.335 336.361)" gradientUnits="userSpaceOnUse">
			<stop  offset="0" style="stop-color:#FFFBDE"/>
			<stop  offset="0.1203" style="stop-color:#FFFAD8"/>
			<stop  offset="0.2662" style="stop-color:#FFF8C9"/>
			<stop  offset="0.4255" style="stop-color:#FFF5AF"/>
			<stop  offset="0.5943" style="stop-color:#FFEF8A"/>
			<stop  offset="0.7706" style="stop-color:#FFEA58"/>
			<stop  offset="0.9506" style="stop-color:#FFE200"/>
			<stop  offset="1" style="stop-color:#FFE000"/>
		</radialGradient>
		<path id="path11134_4_" fill="url(#path11134_12_)" stroke="#000000" stroke-width="0.9921" d="M463.85,21.772
			c0,4.482-3.635,8.117-8.117,8.117c-4.484,0-8.119-3.635-8.119-8.117s3.633-8.119,8.119-8.119
			C460.215,13.653,463.85,17.29,463.85,21.772z"/>
		<text transform="matrix(1 0 0 1 453.2847 24.1191)" font-family="'Myriad-Roman'" font-size="8">A</text>
	</g>
	<g>
		
			<radialGradient id="path16609_15_" cx="343.7319" cy="-529.7998" r="16.1856" gradientTransform="matrix(1.5933 0 0 0.6358 -121.968 358.6177)" gradientUnits="userSpaceOnUse">
			<stop  offset="0" style="stop-color:#9FFF5F"/>
			<stop  offset="0.4082" style="stop-color:#9DFF5F"/>
			<stop  offset="0.5552" style="stop-color:#96FB60"/>
			<stop  offset="0.66" style="stop-color:#8DF95F"/>
			<stop  offset="0.7448" style="stop-color:#7CF65E"/>
			<stop  offset="0.8174" style="stop-color:#66F15D"/>
			<stop  offset="0.8817" style="stop-color:#4AEC5D"/>
			<stop  offset="0.9398" style="stop-color:#29E65B"/>
			<stop  offset="0.9915" style="stop-color:#0ADE5A"/>
			<stop  offset="1" style="stop-color:#02DD5A"/>
		</radialGradient>
		<path id="path16609_4_" fill="url(#path16609_15_)" stroke="#000000" d="M451.014,21.771c0,5.786-11.338,10.478-25.314,10.478
			c-13.98,0-25.314-4.689-25.314-10.478s11.334-10.476,25.314-10.476C439.676,11.296,451.014,15.983,451.014,21.771z"/>
		<text transform="matrix(1 0 0 1 419.4185 25.293)" font-family="'MyriadPro-Regular'" font-size="12">X’’</text>
	</g>
</g>
<g>
	
		<radialGradient id="path16609_16_" cx="161.895" cy="-344.2803" r="16.1855" gradientTransform="matrix(1.5933 0 0 0.6358 -121.968 358.6177)" gradientUnits="userSpaceOnUse">
		<stop  offset="0" style="stop-color:#9FFF5F"/>
		<stop  offset="0.4082" style="stop-color:#9DFF5F"/>
		<stop  offset="0.5552" style="stop-color:#96FB60"/>
		<stop  offset="0.66" style="stop-color:#8DF95F"/>
		<stop  offset="0.7448" style="stop-color:#7CF65E"/>
		<stop  offset="0.8174" style="stop-color:#66F15D"/>
		<stop  offset="0.8817" style="stop-color:#4AEC5D"/>
		<stop  offset="0.9398" style="stop-color:#29E65B"/>
		<stop  offset="0.9915" style="stop-color:#0ADE5A"/>
		<stop  offset="1" style="stop-color:#02DD5A"/>
	</radialGradient>
	<path id="path16609_11_" fill="url(#path16609_16_)" stroke="#000000" d="M161.294,139.724c0,5.786-11.338,10.478-25.314,10.478
		c-13.98,0-25.314-4.689-25.314-10.478s11.334-10.476,25.314-10.476C149.956,129.249,161.294,133.937,161.294,139.724z"/>
	<text transform="matrix(1 0 0 1 130.9399 143.2461)" font-family="'MyriadPro-Regular'" font-size="12">X’</text>
</g>
<g>
	<g>
		<line fill="none" stroke="#000000" x1="135.979" y1="38" x2="135.979" y2="123.333"/>
		<polygon points="132.276,120.524 135.979,122.097 139.684,120.524 135.979,129.302 		"/>
		<polygon points="139.683,40.808 135.979,39.235 132.275,40.808 135.979,32.03 		"/>
	</g>
</g>
<g>
	<g>
		<line fill="none" stroke="#000000" x1="425.701" y1="38.119" x2="425.701" y2="123.453"/>
		<polygon points="421.998,120.645 425.701,122.218 429.405,120.645 425.701,129.423 		"/>
		<polygon points="429.404,40.928 425.701,39.355 421.997,40.928 425.701,32.15 		"/>
	</g>
</g>
<g>
	<g>
		<line fill="none" stroke="#000000" x1="394.333" y1="21.771" x2="180.692" y2="21.771"/>
		<polygon points="183.5,18.068 181.928,21.771 183.5,25.476 174.723,21.771 		"/>
		<polygon points="391.525,25.475 393.097,21.771 391.525,18.067 400.302,21.771 		"/>
	</g>
</g>
<g>
	<g>
		<line fill="none" stroke="#000000" x1="449.765" y1="238.312" x2="236.124" y2="238.312"/>
		<polygon points="238.933,234.608 237.36,238.312 238.933,242.016 230.155,238.312 		"/>
		<polygon points="446.957,242.015 448.529,238.312 446.957,234.607 455.734,238.312 		"/>
	</g>
</g>
<g>
	<g>
		<line fill="none" stroke="#000000" x1="297.147" y1="311.333" x2="83.505" y2="311.333"/>
		<polygon points="86.314,307.63 84.741,311.333 86.314,315.037 77.536,311.333 		"/>
		<polygon points="294.338,315.036 295.911,311.333 294.338,307.629 303.116,311.333 		"/>
	</g>
</g>
<g>
	<g>
		<line fill="none" stroke="#000000" x1="121.833" y1="154.833" x2="48.583" y2="296.083"/>
		<polygon points="46.589,291.885 49.152,294.986 53.165,295.295 45.835,301.382 		"/>
		<polygon points="123.828,159.031 121.265,155.93 117.252,155.621 124.582,149.534 		"/>
	</g>
</g>
<g>
	<g>
		<line fill="none" stroke="#000000" x1="412.195" y1="154.833" x2="338.945" y2="296.083"/>
		<polygon points="336.951,291.885 339.514,294.986 343.526,295.295 336.197,301.382 		"/>
		<polygon points="414.189,159.031 411.625,155.93 407.614,155.621 414.943,149.534 		"/>
	</g>
</g>
<g>
	<g>
		<line fill="none" stroke="#000000" x1="150.643" y1="154.201" x2="186.387" y2="221.576"/>
		<polygon points="181.799,220.831 185.808,220.484 188.343,217.359 189.184,226.85 		"/>
		<polygon points="155.23,154.946 151.222,155.293 148.687,158.418 147.846,148.928 		"/>
	</g>
</g>
<g>
	<g>
		<line fill="none" stroke="#000000" x1="441.643" y1="154.201" x2="477.386" y2="221.576"/>
		<polygon points="472.798,220.831 476.807,220.484 479.342,217.359 480.184,226.85 		"/>
		<polygon points="446.231,154.946 442.222,155.293 439.687,158.418 438.845,148.928 		"/>
	</g>
</g>
<text transform="matrix(1 0 0 1 282.2964 35.1191)" font-family="'MyriadPro-Regular'" font-size="12">P</text>
<text transform="matrix(0.7 0 0 0.7 288.6802 39.1152)" font-family="'MyriadPro-Regular'" font-size="12">a</text>
<text transform="matrix(1 0 0 1 122.334 82.1904)" font-family="'MyriadPro-Regular'" font-size="12">K</text>
<text transform="matrix(0.7 0 0 0.7 128.8379 86.1865)" font-family="'MyriadPro-Regular'" font-size="12">a</text>
<text transform="matrix(1 0 0 1 176.6919 189.4131)" font-family="'MyriadPro-Regular'" font-size="12">K</text>
<text transform="matrix(0.7 0 0 0.7 183.1958 193.4092)" font-family="'MyriadPro-Regular'" font-size="12">b</text>
<text transform="matrix(1 0 0 1 66.8027 226.9824)" font-family="'MyriadPro-Regular'" font-size="12">K</text>
<text transform="matrix(0.7 0 0 0.7 73.3066 230.9785)" font-family="'MyriadPro-Regular'" font-size="12">c</text>
<text transform="matrix(1 0 0 1 299.3628 228.7881)" font-family="'MyriadPro-Regular'" font-size="12">P</text>
<text transform="matrix(0.7 0 0 0.7 305.7466 232.7842)" font-family="'MyriadPro-Regular'" font-size="12">b</text>
<text transform="matrix(1 0 0 1 185.2529 302.999)" font-family="'MyriadPro-Regular'" font-size="12">P</text>
<text transform="matrix(0.7 0 0 0.7 191.6367 306.9951)" font-family="'MyriadPro-Regular'" font-size="12">c</text>
<text transform="matrix(1 0 0 1 412.7808 81.0132)" font-family="'MyriadPro-Regular'" font-size="12">K</text>
<text transform="matrix(0.7 0 0 0.7 419.2847 85.0093)" font-family="'MyriadPro-Regular'" font-size="12">a</text>
<text transform="matrix(1 0 0 1 467.1392 188.2354)" font-family="'MyriadPro-Regular'" font-size="12">K</text>
<text transform="matrix(0.7 0 0 0.7 473.6431 192.2314)" font-family="'MyriadPro-Regular'" font-size="12">b</text>
<text transform="matrix(1 0 0 1 376.2495 190.2354)" font-family="'MyriadPro-Regular'" font-size="12">K</text>
<text transform="matrix(0.7 0 0 0.7 382.7534 194.2314)" font-family="'MyriadPro-Regular'" font-size="12">c</text>
</svg>
