<?xml version="1.0" encoding="utf-8"?>
<!-- Generator: Adobe Illustrator 14.0.0, SVG Export Plug-In . SVG Version: 6.00 Build 43363)  -->
<!DOCTYPE svg PUBLIC "-//W3C//DTD SVG 1.1//EN" "http://www.w3.org/Graphics/SVG/1.1/DTD/svg11.dtd">
<svg version="1.1" id="Layer_1" xmlns="http://www.w3.org/2000/svg" xmlns:xlink="http://www.w3.org/1999/xlink" x="0px" y="0px"
	 width="434.667px" height="472px" viewBox="0 0 434.667 472" enable-background="new 0 0 434.667 472" xml:space="preserve">
<g>
	
		<radialGradient id="path11134_1_" cx="283.4688" cy="-552.8672" r="22.1562" gradientTransform="matrix(0.3664 0 0 0.3664 23.5698 425.4877)" gradientUnits="userSpaceOnUse">
		<stop  offset="0" style="stop-color:#FFFCE1"/>
		<stop  offset="0.1203" style="stop-color:#FFFCDC"/>
		<stop  offset="0.2662" style="stop-color:#FFF9CC"/>
		<stop  offset="0.4255" style="stop-color:#FFF7B1"/>
		<stop  offset="0.5943" style="stop-color:#FFF18E"/>
		<stop  offset="0.7706" style="stop-color:#FFEA5B"/>
		<stop  offset="0.9506" style="stop-color:#FFE100"/>
		<stop  offset="1" style="stop-color:#FFDF00"/>
	</radialGradient>
	<path id="path11134_24_" fill="url(#path11134_1_)" stroke="#010101" stroke-width="0.9921" d="M135.551,222.918
		c0,4.482-3.635,8.117-8.117,8.117c-4.484,0-8.119-3.635-8.119-8.117s3.635-8.119,8.119-8.119
		C131.916,214.799,135.551,218.436,135.551,222.918z"/>
	<g>
		<path fill="#010101" d="M121.82,226.229v-5.389h0.768l1.72,2.727c0.392,0.631,0.711,1.191,0.959,1.751l0.024-0.009
			c-0.064-0.719-0.08-1.375-0.08-2.206v-2.263h0.655v5.389h-0.703l-1.712-2.734c-0.375-0.6-0.735-1.216-0.999-1.799l-0.024,0.008
			c0.04,0.68,0.049,1.327,0.049,2.223v2.303H121.82z"/>
		<path fill="#010101" d="M129.771,225.301c0,0.336,0.016,0.664,0.056,0.928h-0.632l-0.063-0.487h-0.024
			c-0.208,0.304-0.632,0.575-1.184,0.575c-0.783,0-1.183-0.552-1.183-1.111c0-0.936,0.831-1.447,2.326-1.439v-0.08
			c0-0.319-0.088-0.903-0.88-0.896c-0.367,0-0.743,0.104-1.015,0.288l-0.16-0.472c0.319-0.2,0.792-0.336,1.279-0.336
			c1.191,0,1.479,0.808,1.479,1.583V225.301z M129.083,224.254c-0.768-0.017-1.64,0.119-1.64,0.871c0,0.464,0.304,0.672,0.655,0.672
			c0.512,0,0.84-0.32,0.952-0.647c0.023-0.072,0.032-0.152,0.032-0.225V224.254z"/>
		<path fill="#010101" d="M132.165,220.585v1.316h1.266v0.336h-1.266v1.327h-0.358v-1.327h-1.266v-0.336h1.266v-1.316H132.165z"/>
	</g>
</g>
<g>
	
		<radialGradient id="path11134_2_" cx="193.2383" cy="-552.8672" r="22.1562" gradientTransform="matrix(0.3664 0 0 0.3664 23.5698 425.4877)" gradientUnits="userSpaceOnUse">
		<stop  offset="0" style="stop-color:#FFFCE1"/>
		<stop  offset="0.1203" style="stop-color:#FFFCDC"/>
		<stop  offset="0.2662" style="stop-color:#FFF9CC"/>
		<stop  offset="0.4255" style="stop-color:#FFF7B1"/>
		<stop  offset="0.5943" style="stop-color:#FFF18E"/>
		<stop  offset="0.7706" style="stop-color:#FFEA5B"/>
		<stop  offset="0.9506" style="stop-color:#FFE100"/>
		<stop  offset="1" style="stop-color:#FFDF00"/>
	</radialGradient>
	<path id="path11134_23_" fill="url(#path11134_2_)" stroke="#010101" stroke-width="0.9921" d="M102.49,222.918
		c0,4.482-3.635,8.117-8.117,8.117c-4.484,0-8.119-3.635-8.119-8.117s3.633-8.119,8.119-8.119
		C98.855,214.799,102.49,218.436,102.49,222.918z"/>
	<g>
		<path fill="#010101" d="M88.758,226.228v-5.389h0.768l1.72,2.727c0.392,0.631,0.711,1.191,0.959,1.751l0.024-0.009
			c-0.064-0.719-0.08-1.375-0.08-2.206v-2.263h0.655v5.389h-0.703l-1.712-2.734c-0.375-0.6-0.735-1.216-0.999-1.799l-0.024,0.008
			c0.04,0.68,0.049,1.327,0.049,2.223v2.303H88.758z"/>
		<path fill="#010101" d="M96.709,225.3c0,0.336,0.016,0.664,0.056,0.928h-0.632l-0.063-0.487h-0.024
			c-0.208,0.304-0.632,0.575-1.184,0.575c-0.783,0-1.183-0.552-1.183-1.111c0-0.936,0.831-1.447,2.326-1.439v-0.08
			c0-0.319-0.088-0.903-0.88-0.896c-0.367,0-0.743,0.104-1.015,0.288l-0.16-0.472c0.319-0.2,0.792-0.336,1.279-0.336
			c1.191,0,1.479,0.808,1.479,1.583V225.3z M96.022,224.253c-0.768-0.017-1.64,0.119-1.64,0.871c0,0.464,0.304,0.672,0.655,0.672
			c0.512,0,0.84-0.32,0.952-0.647c0.023-0.072,0.032-0.152,0.032-0.225V224.253z"/>
		<path fill="#010101" d="M99.103,220.584v1.316h1.266v0.336h-1.266v1.327h-0.358v-1.327h-1.266V221.9h1.266v-1.316H99.103z"/>
	</g>
</g>
<g>
	
		<radialGradient id="path16609_1_" cx="102.0073" cy="-269.9204" r="16.1855" gradientTransform="matrix(1.5933 0 0 0.6358 -51.9581 409.8486)" gradientUnits="userSpaceOnUse">
		<stop  offset="0" style="stop-color:#ACD152"/>
		<stop  offset="0.4082" style="stop-color:#ABD152"/>
		<stop  offset="0.5552" style="stop-color:#A6CF54"/>
		<stop  offset="0.66" style="stop-color:#A0CD53"/>
		<stop  offset="0.7448" style="stop-color:#93C951"/>
		<stop  offset="0.8174" style="stop-color:#84C551"/>
		<stop  offset="0.8817" style="stop-color:#74C054"/>
		<stop  offset="0.9398" style="stop-color:#63BC54"/>
		<stop  offset="0.9915" style="stop-color:#59BA53"/>
		<stop  offset="1" style="stop-color:#57BA53"/>
	</radialGradient>
	<path id="path16609_24_" fill="url(#path16609_1_)" stroke="#010101" d="M135.885,238.232c0,5.786-11.338,10.478-25.314,10.478
		c-13.98,0-25.314-4.689-25.314-10.478s11.334-10.476,25.314-10.476C124.547,227.758,135.885,232.445,135.885,238.232z"/>
	<g>
		<path fill="#010101" d="M112.42,241.503c-0.372,0.192-1.151,0.384-2.135,0.384c-2.279,0-3.982-1.439-3.982-4.102
			c0-2.543,1.715-4.246,4.222-4.246c0.996,0,1.643,0.216,1.919,0.36l-0.264,0.852c-0.384-0.192-0.948-0.336-1.619-0.336
			c-1.895,0-3.154,1.211-3.154,3.334c0,1.991,1.139,3.25,3.094,3.25c0.648,0,1.295-0.132,1.715-0.336L112.42,241.503z"/>
		<path fill="#010101" d="M115.255,233.455c-0.276,1.008-0.792,2.303-1.115,2.854l-0.672,0.072c0.252-0.708,0.576-1.943,0.708-2.807
			L115.255,233.455z"/>
	</g>
</g>
<g>
	
		<radialGradient id="path16609_2_" cx="246.3857" cy="-579.2202" r="16.1858" gradientTransform="matrix(1.5933 0 0 0.6358 -51.9581 409.8486)" gradientUnits="userSpaceOnUse">
		<stop  offset="0" style="stop-color:#ACD152"/>
		<stop  offset="0.4082" style="stop-color:#ABD152"/>
		<stop  offset="0.5552" style="stop-color:#A6CF54"/>
		<stop  offset="0.66" style="stop-color:#A0CD53"/>
		<stop  offset="0.7448" style="stop-color:#93C951"/>
		<stop  offset="0.8174" style="stop-color:#84C551"/>
		<stop  offset="0.8817" style="stop-color:#74C054"/>
		<stop  offset="0.9398" style="stop-color:#63BC54"/>
		<stop  offset="0.9915" style="stop-color:#59BA53"/>
		<stop  offset="1" style="stop-color:#57BA53"/>
	</radialGradient>
	<path id="path16609_23_" fill="url(#path16609_2_)" stroke="#010101" d="M365.923,41.58c0,5.786-11.338,10.478-25.316,10.478
		c-13.98,0-25.314-4.689-25.314-10.478c0-5.788,11.334-10.476,25.314-10.476C354.585,31.105,365.923,35.792,365.923,41.58z"/>
	<g>
		<path fill="#010101" d="M341.563,44.851c-0.371,0.192-1.15,0.384-2.135,0.384c-2.278,0-3.981-1.439-3.981-4.102
			c0-2.543,1.716-4.246,4.222-4.246c0.996,0,1.643,0.216,1.919,0.36l-0.264,0.852c-0.384-0.192-0.948-0.336-1.619-0.336
			c-1.896,0-3.154,1.211-3.154,3.334c0,1.991,1.14,3.25,3.095,3.25c0.647,0,1.295-0.132,1.715-0.336L341.563,44.851z"/>
		<path fill="#010101" d="M344.398,36.803c-0.276,1.008-0.792,2.303-1.115,2.854l-0.672,0.072c0.252-0.708,0.575-1.943,0.708-2.807
			L344.398,36.803z"/>
		<path fill="#010101" d="M346.187,36.803c-0.276,1.008-0.792,2.303-1.115,2.854l-0.672,0.072c0.252-0.708,0.575-1.943,0.707-2.807
			L346.187,36.803z"/>
	</g>
</g>
<g>
	
		<radialGradient id="path16609_3_" cx="64.3057" cy="-183.623" r="16.1855" gradientTransform="matrix(1.5933 0 0 0.6358 -51.9581 409.8486)" gradientUnits="userSpaceOnUse">
		<stop  offset="0" style="stop-color:#FFFCE1"/>
		<stop  offset="0.1203" style="stop-color:#FFFCDC"/>
		<stop  offset="0.2662" style="stop-color:#FFF9CC"/>
		<stop  offset="0.4255" style="stop-color:#FFF7B1"/>
		<stop  offset="0.5943" style="stop-color:#FFF18E"/>
		<stop  offset="0.7706" style="stop-color:#FFEA5B"/>
		<stop  offset="0.9506" style="stop-color:#FFE100"/>
		<stop  offset="1" style="stop-color:#FFDF00"/>
	</radialGradient>
	<path id="path16609_22_" fill="url(#path16609_3_)" stroke="#010101" d="M75.815,293.1c0,5.787-11.338,10.478-25.315,10.478
		c-13.981,0-25.315-4.688-25.315-10.478c0-5.787,11.334-10.475,25.315-10.475C64.478,282.625,75.815,287.312,75.815,293.1z"/>
	<g>
		<path fill="#010101" d="M47.668,295.352c0.467,0.299,1.139,0.527,1.859,0.527c1.067,0,1.691-0.563,1.691-1.379
			c0-0.744-0.432-1.188-1.523-1.596c-1.319-0.479-2.135-1.175-2.135-2.303c0-1.259,1.043-2.194,2.614-2.194
			c0.815,0,1.427,0.192,1.775,0.396l-0.288,0.852c-0.252-0.156-0.792-0.384-1.523-0.384c-1.103,0-1.523,0.659-1.523,1.212
			c0,0.755,0.492,1.127,1.607,1.559c1.367,0.527,2.051,1.188,2.051,2.375c0,1.247-0.912,2.338-2.819,2.338
			c-0.779,0-1.631-0.239-2.062-0.527L47.668,295.352z"/>
		<path fill="#010101" d="M54.855,288.323c-0.276,1.007-0.792,2.303-1.115,2.854l-0.672,0.072c0.252-0.708,0.576-1.943,0.708-2.807
			L54.855,288.323z"/>
	</g>
</g>
<g>
	
		<radialGradient id="path16609_4_" cx="102.0073" cy="-579.2202" r="16.1855" gradientTransform="matrix(1.5933 0 0 0.6358 -51.9581 409.8486)" gradientUnits="userSpaceOnUse">
		<stop  offset="0" style="stop-color:#ACD152"/>
		<stop  offset="0.4082" style="stop-color:#ABD152"/>
		<stop  offset="0.5552" style="stop-color:#A6CF54"/>
		<stop  offset="0.66" style="stop-color:#A0CD53"/>
		<stop  offset="0.7448" style="stop-color:#93C951"/>
		<stop  offset="0.8174" style="stop-color:#84C551"/>
		<stop  offset="0.8817" style="stop-color:#74C054"/>
		<stop  offset="0.9398" style="stop-color:#63BC54"/>
		<stop  offset="0.9915" style="stop-color:#59BA53"/>
		<stop  offset="1" style="stop-color:#57BA53"/>
	</radialGradient>
	<path id="path16609_21_" fill="url(#path16609_4_)" stroke="#010101" d="M135.885,41.58c0,5.786-11.337,10.478-25.314,10.478
		c-13.98,0-25.314-4.689-25.314-10.478c0-5.788,11.334-10.476,25.314-10.476C124.548,31.105,135.885,35.792,135.885,41.58z"/>
	<g>
		<path fill="#010101" d="M112.421,44.852c-0.372,0.192-1.151,0.384-2.135,0.384c-2.279,0-3.982-1.439-3.982-4.102
			c0-2.543,1.715-4.246,4.222-4.246c0.996,0,1.643,0.216,1.919,0.36l-0.264,0.852c-0.384-0.192-0.948-0.336-1.619-0.336
			c-1.895,0-3.154,1.211-3.154,3.334c0,1.991,1.139,3.25,3.094,3.25c0.648,0,1.295-0.132,1.715-0.336L112.421,44.852z"/>
		<path fill="#010101" d="M115.255,36.804c-0.276,1.008-0.792,2.303-1.115,2.854l-0.672,0.072c0.252-0.708,0.576-1.943,0.708-2.807
			L115.255,36.804z"/>
	</g>
</g>
<g>
	<g>
		
			<radialGradient id="path11134_3_" cx="910.249" cy="-552.8672" r="22.1567" gradientTransform="matrix(0.3664 0 0 0.3664 23.5698 425.4877)" gradientUnits="userSpaceOnUse">
			<stop  offset="0" style="stop-color:#FFFCE1"/>
			<stop  offset="0.1203" style="stop-color:#FFFCDC"/>
			<stop  offset="0.2662" style="stop-color:#FFF9CC"/>
			<stop  offset="0.4255" style="stop-color:#FFF7B1"/>
			<stop  offset="0.5943" style="stop-color:#FFF18E"/>
			<stop  offset="0.7706" style="stop-color:#FFEA5B"/>
			<stop  offset="0.9506" style="stop-color:#FFE100"/>
			<stop  offset="1" style="stop-color:#FFDF00"/>
		</radialGradient>
		<path id="path11134_22_" fill="url(#path11134_3_)" stroke="#010101" stroke-width="0.9921" d="M365.203,222.918
			c0,4.482-3.635,8.117-8.117,8.117c-4.484,0-8.119-3.635-8.119-8.117s3.633-8.119,8.119-8.119
			C361.568,214.799,365.203,218.436,365.203,222.918z"/>
		<g>
			<path fill="#010101" d="M351.471,226.228v-5.389h0.768l1.72,2.727c0.392,0.631,0.711,1.191,0.959,1.751l0.024-0.009
				c-0.064-0.719-0.08-1.375-0.08-2.206v-2.263h0.655v5.389h-0.703l-1.712-2.734c-0.375-0.6-0.735-1.216-0.999-1.799l-0.024,0.008
				c0.04,0.68,0.049,1.327,0.049,2.223v2.303H351.471z"/>
			<path fill="#010101" d="M359.422,225.3c0,0.336,0.016,0.664,0.056,0.928h-0.632l-0.063-0.487h-0.024
				c-0.208,0.304-0.632,0.575-1.184,0.575c-0.783,0-1.183-0.552-1.183-1.111c0-0.936,0.831-1.447,2.326-1.439v-0.08
				c0-0.319-0.088-0.903-0.88-0.896c-0.367,0-0.743,0.104-1.015,0.288l-0.16-0.472c0.319-0.2,0.792-0.336,1.279-0.336
				c1.191,0,1.479,0.808,1.479,1.583V225.3z M358.734,224.253c-0.768-0.017-1.64,0.119-1.64,0.871c0,0.464,0.304,0.672,0.655,0.672
				c0.512,0,0.84-0.32,0.952-0.647c0.023-0.072,0.032-0.152,0.032-0.225V224.253z"/>
			<path fill="#010101" d="M361.815,220.584v1.316h1.266v0.336h-1.266v1.327h-0.358v-1.327h-1.266V221.9h1.266v-1.316H361.815z"/>
		</g>
	</g>
	<g>
		
			<radialGradient id="path11134_4_" cx="821.3613" cy="-552.8672" r="22.1562" gradientTransform="matrix(0.3664 0 0 0.3664 23.5698 425.4877)" gradientUnits="userSpaceOnUse">
			<stop  offset="0" style="stop-color:#FFFCE1"/>
			<stop  offset="0.1203" style="stop-color:#FFFCDC"/>
			<stop  offset="0.2662" style="stop-color:#FFF9CC"/>
			<stop  offset="0.4255" style="stop-color:#FFF7B1"/>
			<stop  offset="0.5943" style="stop-color:#FFF18E"/>
			<stop  offset="0.7706" style="stop-color:#FFEA5B"/>
			<stop  offset="0.9506" style="stop-color:#FFE100"/>
			<stop  offset="1" style="stop-color:#FFDF00"/>
		</radialGradient>
		<path id="path11134_21_" fill="url(#path11134_4_)" stroke="#010101" stroke-width="0.9921" d="M332.635,222.918
			c0,4.482-3.635,8.117-8.117,8.117c-4.484,0-8.119-3.635-8.119-8.117s3.633-8.119,8.119-8.119
			C329,214.799,332.635,218.436,332.635,222.918z"/>
		<g>
			<path fill="#010101" d="M318.903,226.228v-5.389h0.768l1.72,2.727c0.392,0.631,0.711,1.191,0.959,1.751l0.024-0.009
				c-0.064-0.719-0.08-1.375-0.08-2.206v-2.263h0.655v5.389h-0.703l-1.712-2.734c-0.375-0.6-0.735-1.216-0.999-1.799l-0.024,0.008
				c0.04,0.68,0.049,1.327,0.049,2.223v2.303H318.903z"/>
			<path fill="#010101" d="M326.854,225.3c0,0.336,0.016,0.664,0.056,0.928h-0.632l-0.063-0.487h-0.024
				c-0.208,0.304-0.632,0.575-1.184,0.575c-0.783,0-1.183-0.552-1.183-1.111c0-0.936,0.831-1.447,2.326-1.439v-0.08
				c0-0.319-0.088-0.903-0.88-0.896c-0.367,0-0.743,0.104-1.015,0.288l-0.16-0.472c0.319-0.2,0.792-0.336,1.279-0.336
				c1.191,0,1.479,0.808,1.479,1.583V225.3z M326.167,224.253c-0.768-0.017-1.64,0.119-1.64,0.871c0,0.464,0.304,0.672,0.655,0.672
				c0.512,0,0.84-0.32,0.952-0.647c0.023-0.072,0.032-0.152,0.032-0.225V224.253z"/>
			<path fill="#010101" d="M329.248,220.584v1.316h1.266v0.336h-1.266v1.327h-0.358v-1.327h-1.266V221.9h1.266v-1.316H329.248z"/>
		</g>
	</g>
	<g>
		
			<radialGradient id="path16609_5_" cx="246.4521" cy="-269.9204" r="16.1858" gradientTransform="matrix(1.5933 0 0 0.6358 -51.9581 409.8486)" gradientUnits="userSpaceOnUse">
			<stop  offset="0" style="stop-color:#ACD152"/>
			<stop  offset="0.4082" style="stop-color:#ABD152"/>
			<stop  offset="0.5552" style="stop-color:#A6CF54"/>
			<stop  offset="0.66" style="stop-color:#A0CD53"/>
			<stop  offset="0.7448" style="stop-color:#93C951"/>
			<stop  offset="0.8174" style="stop-color:#84C551"/>
			<stop  offset="0.8817" style="stop-color:#74C054"/>
			<stop  offset="0.9398" style="stop-color:#63BC54"/>
			<stop  offset="0.9915" style="stop-color:#59BA53"/>
			<stop  offset="1" style="stop-color:#57BA53"/>
		</radialGradient>
		<path id="path16609_20_" fill="url(#path16609_5_)" stroke="#010101" d="M366.029,238.232c0,5.786-11.338,10.478-25.314,10.478
			c-13.98,0-25.314-4.689-25.314-10.478s11.334-10.476,25.314-10.476C354.691,227.758,366.029,232.445,366.029,238.232z"/>
		<g>
			<path fill="#010101" d="M342.565,241.503c-0.371,0.192-1.151,0.384-2.135,0.384c-2.279,0-3.982-1.439-3.982-4.102
				c0-2.543,1.716-4.246,4.223-4.246c0.995,0,1.643,0.216,1.918,0.36l-0.264,0.852c-0.383-0.192-0.947-0.336-1.619-0.336
				c-1.895,0-3.154,1.211-3.154,3.334c0,1.991,1.14,3.25,3.095,3.25c0.647,0,1.296-0.132,1.716-0.336L342.565,241.503z"/>
			<path fill="#010101" d="M345.399,233.455c-0.275,1.008-0.791,2.303-1.115,2.854l-0.672,0.072
				c0.252-0.708,0.576-1.943,0.708-2.807L345.399,233.455z"/>
			<path fill="#010101" d="M349.396,233.455c-0.275,1.008-0.791,2.303-1.115,2.854l-0.672,0.072
				c0.252-0.708,0.576-1.943,0.707-2.807L349.396,233.455z"/>
		</g>
	</g>
</g>
<g>
	<g>
		
			<radialGradient id="path16609_8_" cx="246.4521" cy="63.1138" r="10.9373" gradientTransform="matrix(1.5933 0 0 0.6358 -51.9581 409.8486)" gradientUnits="userSpaceOnUse">
			<stop  offset="0" style="stop-color:#FFFCE1"/>
			<stop  offset="0.1203" style="stop-color:#FFFCDC"/>
			<stop  offset="0.2662" style="stop-color:#FFF9CC"/>
			<stop  offset="0.4255" style="stop-color:#FFF7B1"/>
			<stop  offset="0.5943" style="stop-color:#FFF18E"/>
			<stop  offset="0.7706" style="stop-color:#FFEA5B"/>
			<stop  offset="0.9506" style="stop-color:#FFE100"/>
			<stop  offset="1" style="stop-color:#FFDF00"/>
		</radialGradient>
		<path id="path16609_19_" fill="url(#path16609_8_)" stroke="#010101" d="M357.822,449.976c0,3.91-7.662,7.08-17.107,7.08
			c-9.449,0-17.107-3.168-17.107-7.08c0-3.911,7.658-7.078,17.107-7.078C350.16,442.897,357.822,446.065,357.822,449.976z"/>
		<g>
			<path fill="#010101" d="M339.243,451.498c0.315,0.202,0.77,0.355,1.256,0.355c0.721,0,1.142-0.381,1.142-0.932
				c0-0.502-0.292-0.802-1.028-1.077c-0.892-0.324-1.443-0.794-1.443-1.556c0-0.851,0.705-1.482,1.768-1.482
				c0.551,0,0.963,0.129,1.199,0.268l-0.195,0.574c-0.17-0.105-0.535-0.259-1.029-0.259c-0.745,0-1.029,0.446-1.029,0.818
				c0,0.511,0.333,0.762,1.086,1.054c0.924,0.355,1.387,0.802,1.387,1.604c0,0.843-0.617,1.58-1.904,1.58
				c-0.527,0-1.103-0.162-1.395-0.356L339.243,451.498z"/>
		</g>
	</g>
	<g>
		<g>
			
				<radialGradient id="path11134_5_" cx="910.2461" cy="-17.9297" r="22.1562" gradientTransform="matrix(0.3664 0 0 0.3664 23.5698 425.4877)" gradientUnits="userSpaceOnUse">
				<stop  offset="0" style="stop-color:#FFFCE1"/>
				<stop  offset="0.1203" style="stop-color:#FFFCDC"/>
				<stop  offset="0.2662" style="stop-color:#FFF9CC"/>
				<stop  offset="0.4255" style="stop-color:#FFF7B1"/>
				<stop  offset="0.5943" style="stop-color:#FFF18E"/>
				<stop  offset="0.7706" style="stop-color:#FFEA5B"/>
				<stop  offset="0.9506" style="stop-color:#FFE100"/>
				<stop  offset="1" style="stop-color:#FFDF00"/>
			</radialGradient>
			<path id="path11134_20_" fill="url(#path11134_5_)" stroke="#010101" stroke-width="0.9921" d="M365.202,418.919
				c0,4.482-3.635,8.117-8.117,8.117c-4.484,0-8.119-3.635-8.119-8.117s3.633-8.119,8.119-8.119
				C361.567,410.8,365.202,414.437,365.202,418.919z"/>
			<g>
				<path fill="#010101" d="M351.471,422.229v-5.389h0.768l1.72,2.727c0.392,0.631,0.711,1.191,0.959,1.751l0.024-0.009
					c-0.064-0.719-0.08-1.375-0.08-2.206v-2.263h0.655v5.389h-0.703l-1.712-2.734c-0.375-0.6-0.735-1.216-0.999-1.799l-0.024,0.008
					c0.04,0.68,0.049,1.327,0.049,2.223v2.303H351.471z"/>
				<path fill="#010101" d="M359.422,421.302c0,0.336,0.016,0.664,0.056,0.928h-0.632l-0.063-0.487h-0.024
					c-0.208,0.304-0.632,0.575-1.184,0.575c-0.783,0-1.183-0.552-1.183-1.111c0-0.936,0.831-1.447,2.326-1.439v-0.08
					c0-0.319-0.088-0.903-0.88-0.896c-0.367,0-0.743,0.104-1.015,0.288l-0.16-0.472c0.319-0.2,0.792-0.336,1.279-0.336
					c1.191,0,1.479,0.808,1.479,1.583V421.302z M358.734,420.255c-0.768-0.017-1.64,0.119-1.64,0.871
					c0,0.464,0.304,0.672,0.655,0.672c0.512,0,0.84-0.32,0.952-0.647c0.023-0.072,0.032-0.152,0.032-0.225V420.255z"/>
				<path fill="#010101" d="M361.815,416.586v1.316h1.266v0.336h-1.266v1.327h-0.358v-1.327h-1.266v-0.336h1.266v-1.316H361.815z"/>
			</g>
		</g>
		<g>
			
				<radialGradient id="path11134_6_" cx="821.3643" cy="-17.9297" r="22.1567" gradientTransform="matrix(0.3664 0 0 0.3664 23.5698 425.4877)" gradientUnits="userSpaceOnUse">
				<stop  offset="0" style="stop-color:#FFFCE1"/>
				<stop  offset="0.1203" style="stop-color:#FFFCDC"/>
				<stop  offset="0.2662" style="stop-color:#FFF9CC"/>
				<stop  offset="0.4255" style="stop-color:#FFF7B1"/>
				<stop  offset="0.5943" style="stop-color:#FFF18E"/>
				<stop  offset="0.7706" style="stop-color:#FFEA5B"/>
				<stop  offset="0.9506" style="stop-color:#FFE100"/>
				<stop  offset="1" style="stop-color:#FFDF00"/>
			</radialGradient>
			<path id="path11134_19_" fill="url(#path11134_6_)" stroke="#010101" stroke-width="0.9921" d="M332.636,418.919
				c0,4.482-3.635,8.117-8.117,8.117c-4.484,0-8.119-3.635-8.119-8.117s3.633-8.119,8.119-8.119
				C329.001,410.8,332.636,414.437,332.636,418.919z"/>
			<g>
				<path fill="#010101" d="M318.903,422.229v-5.389h0.768l1.72,2.727c0.392,0.631,0.711,1.191,0.959,1.751l0.024-0.009
					c-0.064-0.719-0.08-1.375-0.08-2.206v-2.263h0.655v5.389h-0.703l-1.712-2.734c-0.375-0.6-0.735-1.216-0.999-1.799l-0.024,0.008
					c0.04,0.68,0.049,1.327,0.049,2.223v2.303H318.903z"/>
				<path fill="#010101" d="M326.854,421.302c0,0.336,0.016,0.664,0.056,0.928h-0.632l-0.063-0.487h-0.024
					c-0.208,0.304-0.632,0.575-1.184,0.575c-0.783,0-1.183-0.552-1.183-1.111c0-0.936,0.831-1.447,2.326-1.439v-0.08
					c0-0.319-0.088-0.903-0.88-0.896c-0.367,0-0.743,0.104-1.015,0.288l-0.16-0.472c0.319-0.2,0.792-0.336,1.279-0.336
					c1.191,0,1.479,0.808,1.479,1.583V421.302z M326.167,420.255c-0.768-0.017-1.64,0.119-1.64,0.871
					c0,0.464,0.304,0.672,0.655,0.672c0.512,0,0.84-0.32,0.952-0.647c0.023-0.072,0.032-0.152,0.032-0.225V420.255z"/>
				<path fill="#010101" d="M329.248,416.586v1.316h1.266v0.336h-1.266v1.327h-0.358v-1.327h-1.266v-0.336h1.266v-1.316H329.248z"/>
			</g>
		</g>
		<g>
			
				<radialGradient id="path16609_9_" cx="246.4531" cy="38.3525" r="16.186" gradientTransform="matrix(1.5933 0 0 0.6358 -51.9581 409.8486)" gradientUnits="userSpaceOnUse">
				<stop  offset="0" style="stop-color:#ACD152"/>
				<stop  offset="0.4082" style="stop-color:#ABD152"/>
				<stop  offset="0.5552" style="stop-color:#A6CF54"/>
				<stop  offset="0.66" style="stop-color:#A0CD53"/>
				<stop  offset="0.7448" style="stop-color:#93C951"/>
				<stop  offset="0.8174" style="stop-color:#84C551"/>
				<stop  offset="0.8817" style="stop-color:#74C054"/>
				<stop  offset="0.9398" style="stop-color:#63BC54"/>
				<stop  offset="0.9915" style="stop-color:#59BA53"/>
				<stop  offset="1" style="stop-color:#57BA53"/>
			</radialGradient>
			<path id="path16609_18_" fill="url(#path16609_9_)" stroke="#010101" d="M366.03,434.233c0,5.785-11.338,10.477-25.314,10.477
				c-13.982,0-25.316-4.689-25.316-10.477c0-5.789,11.334-10.477,25.316-10.477C354.692,423.759,366.03,428.446,366.03,434.233z"/>
			<g>
				<path fill="#010101" d="M342.565,437.505c-0.371,0.192-1.151,0.384-2.135,0.384c-2.279,0-3.982-1.439-3.982-4.102
					c0-2.543,1.716-4.246,4.223-4.246c0.995,0,1.643,0.216,1.918,0.36l-0.264,0.852c-0.383-0.192-0.947-0.336-1.619-0.336
					c-1.895,0-3.154,1.211-3.154,3.334c0,1.991,1.14,3.25,3.095,3.25c0.647,0,1.296-0.132,1.716-0.336L342.565,437.505z"/>
				<path fill="#010101" d="M345.399,429.457c-0.275,1.008-0.791,2.303-1.115,2.854l-0.672,0.072
					c0.252-0.708,0.576-1.943,0.708-2.807L345.399,429.457z"/>
				<path fill="#010101" d="M349.396,429.457c-0.275,1.008-0.791,2.303-1.115,2.854l-0.672,0.072
					c0.252-0.708,0.576-1.943,0.707-2.807L349.396,429.457z"/>
			</g>
		</g>
	</g>
</g>
<g>
	<g>
		
			<radialGradient id="path16609_10_" cx="102.0068" cy="63.1138" r="10.9373" gradientTransform="matrix(1.5933 0 0 0.6358 -51.9581 409.8486)" gradientUnits="userSpaceOnUse">
			<stop  offset="0" style="stop-color:#FFFCE1"/>
			<stop  offset="0.1203" style="stop-color:#FFFCDC"/>
			<stop  offset="0.2662" style="stop-color:#FFF9CC"/>
			<stop  offset="0.4255" style="stop-color:#FFF7B1"/>
			<stop  offset="0.5943" style="stop-color:#FFF18E"/>
			<stop  offset="0.7706" style="stop-color:#FFEA5B"/>
			<stop  offset="0.9506" style="stop-color:#FFE100"/>
			<stop  offset="1" style="stop-color:#FFDF00"/>
		</radialGradient>
		<path id="path16609_17_" fill="url(#path16609_10_)" stroke="#010101" d="M127.677,449.976c0,3.91-7.662,7.08-17.107,7.08
			c-9.449,0-17.107-3.168-17.107-7.08c0-3.911,7.658-7.078,17.107-7.078C120.015,442.897,127.677,446.065,127.677,449.976z"/>
		<g>
			<path fill="#010101" d="M109.098,451.496c0.316,0.203,0.77,0.357,1.256,0.357c0.721,0,1.142-0.381,1.142-0.932
				c0-0.503-0.292-0.803-1.029-1.078c-0.891-0.324-1.442-0.794-1.442-1.556c0-0.851,0.705-1.483,1.767-1.483
				c0.551,0,0.964,0.131,1.199,0.268l-0.195,0.576c-0.17-0.105-0.535-0.26-1.029-0.26c-0.746,0-1.029,0.445-1.029,0.818
				c0,0.51,0.333,0.762,1.086,1.053c0.924,0.357,1.386,0.803,1.386,1.605c0,0.842-0.616,1.58-1.904,1.58
				c-0.527,0-1.102-0.162-1.394-0.357L109.098,451.496z"/>
		</g>
	</g>
	<g>
		<g>
			
				<radialGradient id="path11134_7_" cx="282.123" cy="-17.9297" r="22.1562" gradientTransform="matrix(0.3664 0 0 0.3664 23.5698 425.4877)" gradientUnits="userSpaceOnUse">
				<stop  offset="0" style="stop-color:#FFFCE1"/>
				<stop  offset="0.1203" style="stop-color:#FFFCDC"/>
				<stop  offset="0.2662" style="stop-color:#FFF9CC"/>
				<stop  offset="0.4255" style="stop-color:#FFF7B1"/>
				<stop  offset="0.5943" style="stop-color:#FFF18E"/>
				<stop  offset="0.7706" style="stop-color:#FFEA5B"/>
				<stop  offset="0.9506" style="stop-color:#FFE100"/>
				<stop  offset="1" style="stop-color:#FFDF00"/>
			</radialGradient>
			<path id="path11134_18_" fill="url(#path11134_7_)" stroke="#010101" stroke-width="0.9921" d="M135.058,418.919
				c0,4.482-3.635,8.117-8.117,8.117c-4.484,0-8.119-3.635-8.119-8.117s3.633-8.119,8.119-8.119
				C131.423,410.8,135.058,414.437,135.058,418.919z"/>
			<g>
				<path fill="#010101" d="M121.326,422.229v-5.389h0.768l1.72,2.727c0.392,0.631,0.711,1.191,0.959,1.751l0.024-0.009
					c-0.064-0.719-0.08-1.375-0.08-2.206v-2.263h0.655v5.389h-0.703l-1.712-2.734c-0.375-0.6-0.735-1.216-0.999-1.799l-0.024,0.008
					c0.04,0.68,0.049,1.327,0.049,2.223v2.303H121.326z"/>
				<path fill="#010101" d="M129.277,421.301c0,0.336,0.016,0.664,0.056,0.928h-0.632l-0.063-0.487h-0.024
					c-0.208,0.304-0.632,0.575-1.184,0.575c-0.783,0-1.183-0.552-1.183-1.111c0-0.936,0.831-1.447,2.326-1.439v-0.08
					c0-0.319-0.088-0.903-0.88-0.896c-0.367,0-0.743,0.104-1.015,0.288l-0.16-0.472c0.319-0.2,0.792-0.336,1.279-0.336
					c1.191,0,1.479,0.808,1.479,1.583V421.301z M128.589,420.254c-0.768-0.017-1.64,0.119-1.64,0.871
					c0,0.464,0.304,0.672,0.655,0.672c0.512,0,0.84-0.32,0.952-0.647c0.023-0.072,0.032-0.152,0.032-0.225V420.254z"/>
				<path fill="#010101" d="M131.67,416.585v1.316h1.266v0.336h-1.266v1.327h-0.358v-1.327h-1.266v-0.336h1.266v-1.316H131.67z"/>
			</g>
		</g>
		<g>
			
				<radialGradient id="path11134_8_" cx="193.2402" cy="-17.9297" r="22.1562" gradientTransform="matrix(0.3664 0 0 0.3664 23.5698 425.4877)" gradientUnits="userSpaceOnUse">
				<stop  offset="0" style="stop-color:#FFFCE1"/>
				<stop  offset="0.1203" style="stop-color:#FFFCDC"/>
				<stop  offset="0.2662" style="stop-color:#FFF9CC"/>
				<stop  offset="0.4255" style="stop-color:#FFF7B1"/>
				<stop  offset="0.5943" style="stop-color:#FFF18E"/>
				<stop  offset="0.7706" style="stop-color:#FFEA5B"/>
				<stop  offset="0.9506" style="stop-color:#FFE100"/>
				<stop  offset="1" style="stop-color:#FFDF00"/>
			</radialGradient>
			<path id="path11134_17_" fill="url(#path11134_8_)" stroke="#010101" stroke-width="0.9921" d="M102.491,418.919
				c0,4.482-3.635,8.117-8.117,8.117c-4.484,0-8.119-3.635-8.119-8.117s3.633-8.119,8.119-8.119
				C98.856,410.8,102.491,414.437,102.491,418.919z"/>
			<g>
				<path fill="#010101" d="M88.758,422.229v-5.389h0.768l1.72,2.727c0.392,0.631,0.711,1.191,0.959,1.751l0.024-0.009
					c-0.064-0.719-0.08-1.375-0.08-2.206v-2.263h0.655v5.389h-0.703l-1.712-2.734c-0.375-0.6-0.735-1.216-0.999-1.799l-0.024,0.008
					c0.04,0.68,0.049,1.327,0.049,2.223v2.303H88.758z"/>
				<path fill="#010101" d="M96.709,421.301c0,0.336,0.016,0.664,0.056,0.928h-0.632l-0.063-0.487h-0.024
					c-0.208,0.304-0.632,0.575-1.184,0.575c-0.783,0-1.183-0.552-1.183-1.111c0-0.936,0.831-1.447,2.326-1.439v-0.08
					c0-0.319-0.088-0.903-0.88-0.896c-0.367,0-0.743,0.104-1.015,0.288l-0.16-0.472c0.319-0.2,0.792-0.336,1.279-0.336
					c1.191,0,1.479,0.808,1.479,1.583V421.301z M96.022,420.254c-0.768-0.017-1.64,0.119-1.64,0.871
					c0,0.464,0.304,0.672,0.655,0.672c0.512,0,0.84-0.32,0.952-0.647c0.023-0.072,0.032-0.152,0.032-0.225V420.254z"/>
				<path fill="#010101" d="M99.103,416.585v1.316h1.266v0.336h-1.266v1.327h-0.358v-1.327h-1.266v-0.336h1.266v-1.316H99.103z"/>
			</g>
		</g>
		<g>
			
				<radialGradient id="path16609_11_" cx="102.0078" cy="38.3525" r="16.186" gradientTransform="matrix(1.5933 0 0 0.6358 -51.9581 409.8486)" gradientUnits="userSpaceOnUse">
				<stop  offset="0" style="stop-color:#ACD152"/>
				<stop  offset="0.4082" style="stop-color:#ABD152"/>
				<stop  offset="0.5552" style="stop-color:#A6CF54"/>
				<stop  offset="0.66" style="stop-color:#A0CD53"/>
				<stop  offset="0.7448" style="stop-color:#93C951"/>
				<stop  offset="0.8174" style="stop-color:#84C551"/>
				<stop  offset="0.8817" style="stop-color:#74C054"/>
				<stop  offset="0.9398" style="stop-color:#63BC54"/>
				<stop  offset="0.9915" style="stop-color:#59BA53"/>
				<stop  offset="1" style="stop-color:#57BA53"/>
			</radialGradient>
			<path id="path16609_16_" fill="url(#path16609_11_)" stroke="#010101" d="M135.886,434.233c0,5.785-11.338,10.477-25.314,10.477
				c-13.982,0-25.316-4.689-25.316-10.477c0-5.789,11.334-10.477,25.316-10.477C124.548,423.759,135.886,428.446,135.886,434.233z"
				/>
			<g>
				<path fill="#010101" d="M112.42,437.504c-0.372,0.192-1.151,0.384-2.135,0.384c-2.279,0-3.982-1.439-3.982-4.102
					c0-2.543,1.715-4.246,4.222-4.246c0.996,0,1.643,0.216,1.919,0.36l-0.264,0.852c-0.384-0.192-0.948-0.336-1.619-0.336
					c-1.895,0-3.154,1.211-3.154,3.334c0,1.991,1.139,3.25,3.094,3.25c0.648,0,1.295-0.132,1.715-0.336L112.42,437.504z"/>
				<path fill="#010101" d="M115.255,429.456c-0.276,1.008-0.792,2.303-1.115,2.854l-0.672,0.072
					c0.252-0.708,0.576-1.943,0.708-2.807L115.255,429.456z"/>
			</g>
		</g>
	</g>
</g>
<g>
	
		<radialGradient id="path16609_13_" cx="285.5449" cy="-178.9048" r="16.1853" gradientTransform="matrix(1.5933 0 0 0.6358 -51.9581 409.8486)" gradientUnits="userSpaceOnUse">
		<stop  offset="0" style="stop-color:#FFFCE1"/>
		<stop  offset="0.1203" style="stop-color:#FFFCDC"/>
		<stop  offset="0.2662" style="stop-color:#FFF9CC"/>
		<stop  offset="0.4255" style="stop-color:#FFF7B1"/>
		<stop  offset="0.5943" style="stop-color:#FFF18E"/>
		<stop  offset="0.7706" style="stop-color:#FFEA5B"/>
		<stop  offset="0.9506" style="stop-color:#FFE100"/>
		<stop  offset="1" style="stop-color:#FFDF00"/>
	</radialGradient>
	<path id="path16609_12_" fill="url(#path16609_13_)" stroke="#010101" d="M428.315,296.1c0,5.787-11.338,10.478-25.315,10.478
		c-13.981,0-25.315-4.688-25.315-10.478c0-5.787,11.334-10.475,25.315-10.475C416.978,285.625,428.315,290.312,428.315,296.1z"/>
	<g>
		<path fill="#010101" d="M398.17,298.352c0.468,0.299,1.14,0.527,1.858,0.527c1.068,0,1.691-0.563,1.691-1.379
			c0-0.744-0.432-1.188-1.523-1.596c-1.318-0.479-2.135-1.175-2.135-2.303c0-1.259,1.043-2.194,2.615-2.194
			c0.814,0,1.427,0.192,1.774,0.396l-0.288,0.852c-0.252-0.156-0.791-0.384-1.523-0.384c-1.103,0-1.522,0.659-1.522,1.212
			c0,0.755,0.491,1.127,1.606,1.559c1.367,0.527,2.052,1.188,2.052,2.375c0,1.247-0.911,2.338-2.819,2.338
			c-0.779,0-1.631-0.239-2.062-0.527L398.17,298.352z"/>
		<path fill="#010101" d="M405.356,291.323c-0.275,1.007-0.791,2.303-1.115,2.854l-0.672,0.072c0.252-0.708,0.576-1.943,0.708-2.807
			L405.356,291.323z"/>
		<path fill="#010101" d="M409.353,291.323c-0.275,1.007-0.791,2.303-1.115,2.854l-0.672,0.072c0.252-0.708,0.576-1.943,0.707-2.807
			L409.353,291.323z"/>
	</g>
</g>
<g>
	<g>
		<path fill="#010101" d="M72.292,91.094v-0.529l0.676-0.657c1.626-1.547,2.371-2.371,2.371-3.331c0-0.646-0.304-1.244-1.254-1.244
			c-0.578,0-1.058,0.294-1.352,0.539l-0.274-0.607c0.431-0.363,1.068-0.646,1.792-0.646c1.372,0,1.95,0.94,1.95,1.851
			c0,1.176-0.853,2.126-2.194,3.419l-0.5,0.47v0.02h2.851v0.715H72.292z"/>
	</g>
	<g>
		
			<radialGradient id="path11134_9_" cx="93.9775" cy="-895.3994" r="33.5996" gradientTransform="matrix(0.3664 0 0 0.3664 23.5698 425.4877)" gradientUnits="userSpaceOnUse">
			<stop  offset="0" style="stop-color:#FFFCE1"/>
			<stop  offset="0.1203" style="stop-color:#FFFCDC"/>
			<stop  offset="0.2662" style="stop-color:#FFF9CC"/>
			<stop  offset="0.4255" style="stop-color:#FFF7B1"/>
			<stop  offset="0.5943" style="stop-color:#FFF18E"/>
			<stop  offset="0.7706" style="stop-color:#FFEA5B"/>
			<stop  offset="0.9506" style="stop-color:#FFE100"/>
			<stop  offset="1" style="stop-color:#FFDF00"/>
		</radialGradient>
		<path id="path11134_16_" fill="url(#path11134_9_)" stroke="#010101" stroke-width="0.9921" d="M70.313,97.415
			c0,6.797-5.512,12.31-12.31,12.31c-6.801,0-12.312-5.513-12.312-12.31c0-6.797,5.511-12.312,12.312-12.312
			C64.802,85.102,70.313,90.617,70.313,97.415z"/>
		<g>
			<path fill="#010101" d="M50.071,102.013v-6.736h0.959l2.148,3.408c0.49,0.789,0.89,1.489,1.2,2.188l0.03-0.01
				c-0.08-0.899-0.1-1.719-0.1-2.759v-2.828h0.82v6.736h-0.879l-2.139-3.418c-0.47-0.75-0.919-1.52-1.249-2.249l-0.03,0.01
				c0.05,0.85,0.06,1.659,0.06,2.779v2.878H50.071z"/>
			<path fill="#010101" d="M60.01,100.854c0,0.42,0.02,0.829,0.07,1.159h-0.79l-0.08-0.609h-0.03c-0.26,0.38-0.79,0.72-1.479,0.72
				c-0.979,0-1.479-0.69-1.479-1.39c0-1.169,1.04-1.809,2.909-1.799v-0.101c0-0.399-0.11-1.129-1.1-1.119
				c-0.459,0-0.929,0.13-1.269,0.36l-0.2-0.59c0.4-0.25,0.99-0.42,1.599-0.42c1.489,0,1.849,1.01,1.849,1.979V100.854z
				 M59.15,99.544c-0.959-0.02-2.049,0.15-2.049,1.09c0,0.579,0.379,0.839,0.819,0.839c0.64,0,1.049-0.399,1.189-0.81
				c0.03-0.09,0.04-0.189,0.04-0.279V99.544z"/>
			<path fill="#010101" d="M63.003,94.957v1.646h1.583v0.42h-1.583v1.66h-0.448v-1.66h-1.583v-0.42h1.583v-1.646H63.003z"/>
			<path fill="#010101" d="M66.693,95.097c-0.23,0.839-0.66,1.919-0.93,2.379l-0.56,0.06c0.21-0.59,0.479-1.619,0.59-2.339
				L66.693,95.097z"/>
		</g>
	</g>
</g>
<g>
	<g>
		<line fill="none" stroke="#010101" x1="114.387" y1="58.251" x2="114.387" y2="227.757"/>
		<polygon fill="#010101" points="118.09,61.06 114.387,59.487 110.683,61.06 114.387,52.282 		"/>
	</g>
</g>
<g>
	<g>
		<path fill="none" stroke="#010101" d="M151.499,104.848c-29.472,12.086-36.839,36.047-36.839,52.162"/>
		<polygon fill="#010101" points="150.306,109.34 150.355,105.316 147.495,102.486 157.021,102.583 		"/>
	</g>
</g>
<g>
	<g>
		<line fill="none" stroke="#010101" x1="105.57" y1="54.039" x2="105.57" y2="222.364"/>
		<polygon fill="#010101" points="101.867,219.556 105.57,221.128 109.274,219.556 105.57,228.333 		"/>
	</g>
</g>
<g>
	<g>
		<path fill="none" stroke="#010101" d="M68.458,105.349c29.472,12.086,36.839,36.047,36.839,52.162"/>
	</g>
</g>
<g>
	<g>
		<path fill="#010101" d="M182.451,91.844v-0.529l0.676-0.657c1.626-1.547,2.371-2.371,2.371-3.331c0-0.646-0.304-1.244-1.254-1.244
			c-0.578,0-1.058,0.294-1.352,0.539l-0.274-0.607c0.431-0.363,1.068-0.646,1.792-0.646c1.372,0,1.95,0.94,1.95,1.851
			c0,1.176-0.853,2.126-2.194,3.419l-0.5,0.47v0.02h2.851v0.715H182.451z"/>
	</g>
	<g>
		
			<radialGradient id="path11134_12_" cx="394.6299" cy="-893.3525" r="33.5996" gradientTransform="matrix(0.3664 0 0 0.3664 23.5698 425.4877)" gradientUnits="userSpaceOnUse">
			<stop  offset="0" style="stop-color:#FFFCE1"/>
			<stop  offset="0.1203" style="stop-color:#FFFCDC"/>
			<stop  offset="0.2662" style="stop-color:#FFF9CC"/>
			<stop  offset="0.4255" style="stop-color:#FFF7B1"/>
			<stop  offset="0.5943" style="stop-color:#FFF18E"/>
			<stop  offset="0.7706" style="stop-color:#FFEA5B"/>
			<stop  offset="0.9506" style="stop-color:#FFE100"/>
			<stop  offset="1" style="stop-color:#FFDF00"/>
		</radialGradient>
		<path id="path11134_15_" fill="url(#path11134_12_)" stroke="#010101" stroke-width="0.9921" d="M180.473,98.165
			c0,6.797-5.512,12.31-12.31,12.31c-6.801,0-12.312-5.513-12.312-12.31c0-6.797,5.511-12.312,12.312-12.312
			C174.961,85.852,180.473,91.367,180.473,98.165z"/>
		<g>
			<path fill="#010101" d="M160.23,102.763v-6.736h0.959l2.148,3.408c0.49,0.789,0.89,1.489,1.2,2.188l0.03-0.01
				c-0.08-0.899-0.1-1.719-0.1-2.759v-2.828h0.82v6.736h-0.879l-2.139-3.418c-0.47-0.75-0.919-1.52-1.249-2.249l-0.03,0.01
				c0.05,0.85,0.06,1.659,0.06,2.779v2.878H160.23z"/>
			<path fill="#010101" d="M170.169,101.604c0,0.42,0.02,0.829,0.07,1.159h-0.79l-0.08-0.609h-0.03c-0.26,0.38-0.79,0.72-1.479,0.72
				c-0.979,0-1.479-0.69-1.479-1.39c0-1.169,1.04-1.809,2.909-1.799v-0.101c0-0.399-0.11-1.129-1.1-1.119
				c-0.459,0-0.929,0.13-1.269,0.36l-0.2-0.59c0.4-0.25,0.99-0.42,1.599-0.42c1.489,0,1.849,1.01,1.849,1.979V101.604z
				 M169.31,100.294c-0.959-0.02-2.049,0.15-2.049,1.09c0,0.579,0.379,0.839,0.819,0.839c0.64,0,1.049-0.399,1.189-0.81
				c0.03-0.09,0.04-0.189,0.04-0.279V100.294z"/>
			<path fill="#010101" d="M173.162,95.707v1.646h1.583v0.42h-1.583v1.66h-0.448v-1.66h-1.583v-0.42h1.583v-1.646H173.162z"/>
			<path fill="#010101" d="M176.852,95.847c-0.23,0.839-0.66,1.919-0.93,2.379l-0.56,0.06c0.21-0.59,0.479-1.619,0.59-2.339
				L176.852,95.847z"/>
		</g>
	</g>
</g>
<g>
	<g>
		<path fill="#010101" d="M294.792,90.41v-0.529l0.676-0.657c1.626-1.547,2.371-2.371,2.371-3.331c0-0.646-0.305-1.244-1.254-1.244
			c-0.578,0-1.059,0.294-1.352,0.539l-0.275-0.607c0.432-0.363,1.068-0.646,1.793-0.646c1.371,0,1.949,0.94,1.949,1.851
			c0,1.176-0.852,2.126-2.193,3.419l-0.5,0.47v0.02h2.851v0.715H294.792z"/>
	</g>
	<g>
		
			<radialGradient id="path11134_13_" cx="701.2373" cy="-897.2637" r="33.5991" gradientTransform="matrix(0.3664 0 0 0.3664 23.5698 425.4877)" gradientUnits="userSpaceOnUse">
			<stop  offset="0" style="stop-color:#FFFCE1"/>
			<stop  offset="0.1203" style="stop-color:#FFFCDC"/>
			<stop  offset="0.2662" style="stop-color:#FFF9CC"/>
			<stop  offset="0.4255" style="stop-color:#FFF7B1"/>
			<stop  offset="0.5943" style="stop-color:#FFF18E"/>
			<stop  offset="0.7706" style="stop-color:#FFEA5B"/>
			<stop  offset="0.9506" style="stop-color:#FFE100"/>
			<stop  offset="1" style="stop-color:#FFDF00"/>
		</radialGradient>
		<path id="path11134_11_" fill="url(#path11134_13_)" stroke="#010101" stroke-width="0.9921" d="M292.813,96.731
			c0,6.797-5.512,12.31-12.31,12.31c-6.801,0-12.312-5.513-12.312-12.31c0-6.797,5.511-12.312,12.312-12.312
			C287.302,84.419,292.813,89.934,292.813,96.731z"/>
		<g>
			<path fill="#010101" d="M272.571,101.33v-6.736h0.959l2.148,3.408c0.49,0.789,0.891,1.489,1.2,2.188l0.03-0.01
				c-0.08-0.899-0.101-1.719-0.101-2.759v-2.828h0.819v6.736h-0.879l-2.139-3.418c-0.471-0.75-0.92-1.52-1.25-2.249l-0.029,0.01
				c0.05,0.85,0.06,1.659,0.06,2.779v2.878H272.571z"/>
			<path fill="#010101" d="M282.51,100.171c0,0.42,0.021,0.829,0.069,1.159h-0.789l-0.08-0.609h-0.029
				c-0.26,0.38-0.79,0.72-1.479,0.72c-0.979,0-1.479-0.69-1.479-1.39c0-1.169,1.039-1.809,2.908-1.799v-0.101
				c0-0.399-0.109-1.129-1.1-1.119c-0.459,0-0.929,0.13-1.269,0.36l-0.2-0.59c0.4-0.25,0.99-0.42,1.6-0.42
				c1.488,0,1.849,1.01,1.849,1.979V100.171z M281.65,98.861c-0.96-0.02-2.049,0.15-2.049,1.09c0,0.579,0.38,0.839,0.819,0.839
				c0.64,0,1.049-0.399,1.189-0.81c0.029-0.09,0.04-0.189,0.04-0.279V98.861z"/>
			<path fill="#010101" d="M285.503,94.274v1.646h1.583v0.42h-1.583V98h-0.448v-1.66h-1.583v-0.42h1.583v-1.646H285.503z"/>
			<path fill="#010101" d="M289.192,94.414c-0.229,0.839-0.659,1.919-0.93,2.379l-0.559,0.06c0.209-0.59,0.479-1.619,0.59-2.339
				L289.192,94.414z"/>
		</g>
	</g>
</g>
<g>
	<g>
		<path fill="none" stroke="#010101" d="M297.958,104.165c29.472,12.086,36.839,36.047,36.839,52.162"/>
		<polygon fill="#010101" points="301.962,101.804 299.102,104.633 299.151,108.657 292.436,101.9 		"/>
	</g>
</g>
<g>
	<g>
		<g>
			<line fill="none" stroke="#010101" x1="335.07" y1="58.397" x2="335.07" y2="227.074"/>
			<polygon fill="#010101" points="338.773,61.206 335.07,59.633 331.366,61.206 335.07,52.428 			"/>
		</g>
	</g>
	<g>
		<g>
			<line fill="none" stroke="#010101" x1="343.887" y1="54.207" x2="343.887" y2="221.708"/>
			<polygon fill="#010101" points="340.184,218.899 343.887,220.472 347.591,218.899 343.887,227.677 			"/>
		</g>
	</g>
</g>
<g>
	<g>
		<path fill="none" stroke="#010101" d="M380.999,104.666c-29.472,12.086-36.839,36.047-36.839,52.162"/>
	</g>
</g>
<g>
	<g>
		<path fill="#010101" d="M404.951,91.16v-0.529l0.676-0.657c1.626-1.547,2.37-2.371,2.37-3.331c0-0.646-0.303-1.244-1.254-1.244
			c-0.577,0-1.058,0.294-1.352,0.539l-0.273-0.607c0.431-0.363,1.067-0.646,1.792-0.646c1.372,0,1.95,0.94,1.95,1.851
			c0,1.176-0.854,2.126-2.195,3.419l-0.499,0.47v0.02h2.851v0.715H404.951z"/>
	</g>
	<g>
		
			<radialGradient id="path11134_14_" cx="1001.8896" cy="-895.2168" r="33.5991" gradientTransform="matrix(0.3664 0 0 0.3664 23.5698 425.4877)" gradientUnits="userSpaceOnUse">
			<stop  offset="0" style="stop-color:#FFFCE1"/>
			<stop  offset="0.1203" style="stop-color:#FFFCDC"/>
			<stop  offset="0.2662" style="stop-color:#FFF9CC"/>
			<stop  offset="0.4255" style="stop-color:#FFF7B1"/>
			<stop  offset="0.5943" style="stop-color:#FFF18E"/>
			<stop  offset="0.7706" style="stop-color:#FFEA5B"/>
			<stop  offset="0.9506" style="stop-color:#FFE100"/>
			<stop  offset="1" style="stop-color:#FFDF00"/>
		</radialGradient>
		<path id="path11134_10_" fill="url(#path11134_14_)" stroke="#010101" stroke-width="0.9921" d="M402.973,97.481
			c0,6.797-5.512,12.31-12.31,12.31c-6.801,0-12.312-5.513-12.312-12.31c0-6.797,5.511-12.312,12.312-12.312
			C397.461,85.169,402.973,90.684,402.973,97.481z"/>
		<g>
			<path fill="#010101" d="M382.73,102.08v-6.736h0.96l2.148,3.408c0.489,0.789,0.889,1.489,1.199,2.188l0.029-0.01
				c-0.08-0.899-0.1-1.719-0.1-2.759v-2.828h0.82v6.736h-0.88l-2.14-3.418c-0.469-0.75-0.919-1.52-1.248-2.249l-0.031,0.01
				c0.051,0.85,0.061,1.659,0.061,2.779v2.878H382.73z"/>
			<path fill="#010101" d="M392.669,100.921c0,0.42,0.02,0.829,0.07,1.159h-0.79l-0.079-0.609h-0.031
				c-0.26,0.38-0.789,0.72-1.479,0.72c-0.979,0-1.479-0.69-1.479-1.39c0-1.169,1.04-1.809,2.909-1.799v-0.101
				c0-0.399-0.11-1.129-1.1-1.119c-0.46,0-0.93,0.13-1.27,0.36l-0.2-0.59c0.399-0.25,0.989-0.42,1.599-0.42
				c1.49,0,1.85,1.01,1.85,1.979V100.921z M391.81,99.611c-0.959-0.02-2.049,0.15-2.049,1.09c0,0.579,0.379,0.839,0.819,0.839
				c0.64,0,1.05-0.399,1.189-0.81c0.03-0.09,0.04-0.189,0.04-0.279V99.611z"/>
			<path fill="#010101" d="M395.662,95.024v1.646h1.583v0.42h-1.583v1.66h-0.448v-1.66h-1.582v-0.42h1.582v-1.646H395.662z"/>
			<path fill="#010101" d="M399.353,95.164c-0.23,0.839-0.66,1.919-0.93,2.379l-0.561,0.06c0.211-0.59,0.48-1.619,0.59-2.339
				L399.353,95.164z"/>
		</g>
	</g>
</g>
<g>
	<g>
		<line fill="none" stroke="#010101" x1="114.978" y1="253.717" x2="114.978" y2="423.224"/>
		<polygon fill="#010101" points="118.681,256.525 114.978,254.953 111.273,256.525 114.978,247.748 		"/>
	</g>
</g>
<g>
	<g>
		<path fill="none" stroke="#010101" d="M152.09,300.314c-29.472,12.086-36.839,36.047-36.839,52.161"/>
		<polygon fill="#010101" points="150.896,304.806 150.946,300.783 148.086,297.952 157.613,298.049 		"/>
	</g>
</g>
<g>
	<g>
		<line fill="none" stroke="#010101" x1="106.161" y1="249.506" x2="106.161" y2="417.831"/>
		<polygon fill="#010101" points="102.458,415.022 106.161,416.595 109.865,415.022 106.161,423.8 		"/>
	</g>
</g>
<g>
	<g>
		<path fill="none" stroke="#010101" d="M69.049,300.814c29.472,12.087,36.839,36.048,36.839,52.162"/>
	</g>
</g>
<g>
	<g>
		<line fill="none" stroke="#010101" x1="335.199" y1="254.021" x2="335.199" y2="423.526"/>
		<polygon fill="#010101" points="338.902,256.83 335.199,255.257 331.495,256.83 335.199,248.052 		"/>
	</g>
</g>
<g>
	<g>
		<path fill="none" stroke="#010101" d="M298.087,300.617c29.472,12.087,36.839,36.047,36.839,52.162"/>
		<polygon fill="#010101" points="302.091,298.258 299.23,301.087 299.28,305.11 292.564,298.354 		"/>
	</g>
</g>
<g>
	<g>
		<line fill="none" stroke="#010101" x1="344.016" y1="249.809" x2="344.016" y2="418.134"/>
		<polygon fill="#010101" points="340.312,415.325 344.016,416.898 347.72,415.325 344.016,424.103 		"/>
	</g>
</g>
<g>
	<g>
		<path fill="none" stroke="#010101" d="M381.128,301.118c-29.472,12.087-36.839,36.048-36.839,52.162"/>
	</g>
</g>
<g>
	
		<radialGradient id="path16609_14_" cx="147.7632" cy="-178.9058" r="16.186" gradientTransform="matrix(1.5933 0 0 0.6358 -51.9581 409.8486)" gradientUnits="userSpaceOnUse">
		<stop  offset="0" style="stop-color:#FFFCE1"/>
		<stop  offset="0.1203" style="stop-color:#FFFCDC"/>
		<stop  offset="0.2662" style="stop-color:#FFF9CC"/>
		<stop  offset="0.4255" style="stop-color:#FFF7B1"/>
		<stop  offset="0.5943" style="stop-color:#FFF18E"/>
		<stop  offset="0.7706" style="stop-color:#FFEA5B"/>
		<stop  offset="0.9506" style="stop-color:#FFE100"/>
		<stop  offset="1" style="stop-color:#FFDF00"/>
	</radialGradient>
	<path id="path16609_7_" fill="url(#path16609_14_)" stroke="#010101" d="M208.788,296.1c0,5.786-11.338,10.478-25.315,10.478
		c-13.981,0-25.315-4.689-25.315-10.478s11.334-10.476,25.315-10.476C197.45,285.625,208.788,290.312,208.788,296.1z"/>
	<g>
		<path fill="#010101" d="M180.641,298.352c0.467,0.299,1.139,0.527,1.859,0.527c1.067,0,1.691-0.563,1.691-1.379
			c0-0.744-0.432-1.188-1.523-1.596c-1.319-0.479-2.135-1.175-2.135-2.303c0-1.259,1.043-2.194,2.614-2.194
			c0.815,0,1.427,0.192,1.775,0.396l-0.288,0.852c-0.252-0.156-0.792-0.384-1.523-0.384c-1.103,0-1.523,0.659-1.523,1.212
			c0,0.755,0.492,1.127,1.607,1.559c1.367,0.527,2.051,1.188,2.051,2.375c0,1.247-0.912,2.338-2.819,2.338
			c-0.779,0-1.631-0.239-2.062-0.527L180.641,298.352z"/>
		<path fill="#010101" d="M187.828,291.323c-0.276,1.007-0.792,2.303-1.115,2.854l-0.672,0.072c0.252-0.708,0.576-1.943,0.708-2.807
			L187.828,291.323z"/>
	</g>
</g>
<g>
	
		<radialGradient id="path16609_15_" cx="202.8184" cy="-184.3735" r="16.1858" gradientTransform="matrix(1.5933 0 0 0.6358 -51.9581 409.8486)" gradientUnits="userSpaceOnUse">
		<stop  offset="0" style="stop-color:#FFFCE1"/>
		<stop  offset="0.1203" style="stop-color:#FFFCDC"/>
		<stop  offset="0.2662" style="stop-color:#FFF9CC"/>
		<stop  offset="0.4255" style="stop-color:#FFF7B1"/>
		<stop  offset="0.5943" style="stop-color:#FFF18E"/>
		<stop  offset="0.7706" style="stop-color:#FFEA5B"/>
		<stop  offset="0.9506" style="stop-color:#FFE100"/>
		<stop  offset="1" style="stop-color:#FFDF00"/>
	</radialGradient>
	<path id="path16609_6_" fill="url(#path16609_15_)" stroke="#010101" d="M296.508,292.623c0,5.786-11.338,10.478-25.315,10.478
		c-13.981,0-25.315-4.689-25.315-10.478s11.334-10.476,25.315-10.476C285.17,282.148,296.508,286.836,296.508,292.623z"/>
	<g>
		<path fill="#010101" d="M266.362,294.875c0.467,0.299,1.139,0.527,1.859,0.527c1.066,0,1.69-0.563,1.69-1.379
			c0-0.744-0.432-1.188-1.522-1.596c-1.32-0.479-2.135-1.175-2.135-2.303c0-1.259,1.043-2.194,2.613-2.194
			c0.816,0,1.428,0.192,1.775,0.396l-0.287,0.852c-0.252-0.156-0.792-0.384-1.523-0.384c-1.104,0-1.523,0.659-1.523,1.212
			c0,0.755,0.492,1.127,1.607,1.559c1.367,0.527,2.051,1.188,2.051,2.375c0,1.247-0.912,2.338-2.818,2.338
			c-0.779,0-1.631-0.239-2.062-0.527L266.362,294.875z"/>
		<path fill="#010101" d="M273.55,287.847c-0.276,1.007-0.792,2.303-1.115,2.854l-0.672,0.072c0.252-0.708,0.575-1.943,0.707-2.807
			L273.55,287.847z"/>
		<path fill="#010101" d="M277.545,287.847c-0.276,1.007-0.792,2.303-1.115,2.854l-0.672,0.072c0.252-0.708,0.575-1.943,0.708-2.807
			L277.545,287.847z"/>
	</g>
</g>
<g>
	<path fill="#010101" d="M336.752,16.806v8.083h-1.056v-8.083H336.752z"/>
	<path fill="#010101" d="M338.576,24.89v-8.083h1.151l2.579,4.09c0.588,0.947,1.067,1.799,1.439,2.626l0.035-0.012
		c-0.096-1.079-0.119-2.062-0.119-3.322v-3.382h0.983v8.083h-1.056l-2.566-4.102c-0.563-0.9-1.104-1.823-1.499-2.699l-0.036,0.012
		c0.06,1.019,0.071,1.991,0.071,3.334v3.454H338.576z"/>
</g>
<g>
	<path fill="#010101" d="M106.411,20.764c0,2.771-1.69,4.258-3.754,4.258c-2.146,0-3.634-1.667-3.634-4.114
		c0-2.566,1.583-4.246,3.742-4.246C104.984,16.662,106.411,18.353,106.411,20.764z M100.127,20.884c0,1.739,0.936,3.286,2.591,3.286
		s2.59-1.523,2.59-3.358c0-1.619-0.839-3.298-2.578-3.298S100.127,19.121,100.127,20.884z"/>
	<path fill="#010101" d="M108.814,16.806v4.797c0,1.799,0.804,2.566,1.883,2.566c1.188,0,1.967-0.792,1.967-2.566v-4.797h1.056
		v4.725c0,2.483-1.308,3.49-3.059,3.49c-1.655,0-2.902-0.936-2.902-3.454v-4.761H108.814z"/>
	<path fill="#010101" d="M117.07,17.693h-2.458v-0.887h5.984v0.887h-2.471v7.196h-1.056V17.693z"/>
</g>
<g>
	<g>
		<g>
			<line fill="none" stroke="#010101" x1="311.846" y1="37.581" x2="138.897" y2="37.581"/>
			<polygon fill="#010101" points="141.706,33.877 140.133,37.581 141.706,41.285 132.928,37.581 			"/>
		</g>
	</g>
	<g>
		<g>
			<line fill="none" stroke="#010101" x1="132.949" y1="45.104" x2="305.897" y2="45.104"/>
			<polygon fill="#010101" points="303.089,48.807 304.662,45.104 303.089,41.399 311.867,45.104 			"/>
		</g>
	</g>
</g>
<g>
	<g>
		<g>
			<line fill="none" stroke="#010101" x1="314.781" y1="234.581" x2="141.833" y2="234.581"/>
			<polygon fill="#010101" points="144.642,230.877 143.068,234.581 144.642,238.284 135.863,234.581 			"/>
		</g>
	</g>
	<g>
		<g>
			<line fill="none" stroke="#010101" x1="135.885" y1="242.104" x2="308.833" y2="242.104"/>
			<polygon fill="#010101" points="306.024,245.807 307.598,242.104 306.024,238.399 314.803,242.104 			"/>
		</g>
	</g>
</g>
<g>
	<g>
		<line fill="none" stroke="#010101" x1="314.781" y1="430.581" x2="141.833" y2="430.581"/>
		<polygon fill="#010101" points="144.642,426.878 143.068,430.581 144.642,434.285 135.863,430.581 		"/>
	</g>
</g>
<g>
	<g>
		<line fill="none" stroke="#010101" x1="135.885" y1="438.104" x2="308.833" y2="438.104"/>
		<polygon fill="#010101" points="306.024,441.807 307.598,438.104 306.024,434.399 314.803,438.104 		"/>
	</g>
</g>
<g>
	<path fill="#010101" d="M190.736,20.69c0.3,0.18,0.983,0.479,1.727,0.479c1.344,0,1.775-0.852,1.763-1.511
		c-0.012-1.091-0.995-1.559-2.015-1.559h-0.588v-0.792h0.588c0.768,0,1.739-0.396,1.739-1.319c0-0.624-0.396-1.175-1.367-1.175
		c-0.624,0-1.224,0.276-1.56,0.516l-0.287-0.768c0.419-0.3,1.211-0.6,2.051-0.6c1.535,0,2.23,0.912,2.23,1.859
		c0,0.816-0.492,1.5-1.439,1.847v0.024c0.96,0.18,1.728,0.899,1.739,1.991c0,1.248-0.983,2.339-2.843,2.339
		c-0.875,0-1.643-0.276-2.026-0.528L190.736,20.69z"/>
	<path fill="#010101" d="M200.106,19.179c0.024,1.427,0.924,2.015,1.991,2.015c0.756,0,1.224-0.132,1.607-0.3l0.191,0.756
		c-0.372,0.168-1.02,0.372-1.942,0.372c-1.787,0-2.854-1.188-2.854-2.938s1.031-3.118,2.723-3.118c1.906,0,2.398,1.655,2.398,2.723
		c0,0.216-0.013,0.372-0.036,0.492H200.106z M203.201,18.423c0.012-0.66-0.276-1.703-1.463-1.703c-1.08,0-1.535,0.971-1.619,1.703
		H203.201z"/>
	<path fill="#010101" d="M205.987,16.085l0.827,1.247c0.229,0.324,0.408,0.612,0.601,0.936h0.023
		c0.192-0.336,0.384-0.636,0.588-0.947l0.804-1.235h1.151l-1.979,2.806l2.027,2.999h-1.188l-0.863-1.307
		c-0.229-0.336-0.42-0.66-0.624-1.008h-0.023c-0.192,0.348-0.384,0.66-0.612,1.008l-0.839,1.307h-1.164l2.063-2.962l-1.968-2.842
		H205.987z"/>
	<path fill="#010101" d="M211.052,17.98c0-0.744-0.024-1.343-0.049-1.895h0.936l0.061,0.995h0.023
		c0.42-0.708,1.115-1.115,2.063-1.115c1.415,0,2.471,1.188,2.471,2.938c0,2.087-1.283,3.118-2.651,3.118
		c-0.768,0-1.438-0.336-1.786-0.912h-0.024v3.154h-1.043V17.98z M212.095,19.527c0,0.156,0.012,0.3,0.048,0.432
		c0.192,0.732,0.828,1.235,1.583,1.235c1.115,0,1.764-0.911,1.764-2.243c0-1.151-0.612-2.146-1.728-2.146
		c-0.72,0-1.403,0.503-1.595,1.295c-0.036,0.132-0.072,0.288-0.072,0.42V19.527z"/>
	<path fill="#010101" d="M222.702,13.566c-0.876,1.187-1.499,2.734-1.499,4.917c0,2.135,0.659,3.658,1.499,4.857h-0.815
		c-0.756-0.996-1.571-2.531-1.571-4.869c0.012-2.351,0.815-3.898,1.571-4.905H222.702z"/>
	<path fill="#010101" d="M226.278,18.268v0.768h-2.963v-0.768H226.278z"/>
	<path fill="#010101" d="M232.372,17.908c0,2.651-0.995,4.114-2.71,4.114c-1.523,0-2.566-1.427-2.591-4.006
		c0-2.626,1.14-4.054,2.723-4.054C231.425,13.962,232.372,15.425,232.372,17.908z M228.139,18.028c0,2.027,0.624,3.178,1.583,3.178
		c1.067,0,1.583-1.259,1.583-3.25c0-1.919-0.479-3.179-1.583-3.179C228.811,14.777,228.139,15.905,228.139,18.028z"/>
	<path fill="#010101" d="M233.42,21.266c0-0.432,0.3-0.756,0.72-0.756c0.419,0,0.707,0.312,0.707,0.756
		c0,0.432-0.288,0.755-0.731,0.755C233.707,22.021,233.42,21.698,233.42,21.266z"/>
	<path fill="#010101" d="M240.88,14.094v0.696l-3.394,7.1h-1.092l3.382-6.896v-0.024h-3.813v-0.875H240.88z"/>
	<path fill="#010101" d="M242.311,17.656c0-0.611-0.024-1.091-0.049-1.571h0.924l0.048,0.947h0.036
		c0.324-0.552,0.863-1.067,1.835-1.067c0.779,0,1.379,0.48,1.631,1.164h0.024c0.18-0.336,0.42-0.576,0.659-0.756
		c0.348-0.264,0.72-0.408,1.271-0.408c0.779,0,1.919,0.504,1.919,2.519v3.406h-1.031v-3.274c0-1.127-0.42-1.787-1.26-1.787
		c-0.611,0-1.067,0.443-1.259,0.947c-0.048,0.156-0.084,0.336-0.084,0.528v3.586h-1.031v-3.478c0-0.923-0.408-1.583-1.212-1.583
		c-0.647,0-1.139,0.527-1.307,1.055c-0.061,0.144-0.084,0.336-0.084,0.516v3.49h-1.031V17.656z"/>
	<path fill="#010101" d="M251.684,23.341c0.839-1.188,1.499-2.734,1.499-4.893c0-2.159-0.647-3.682-1.499-4.881h0.815
		c0.755,0.983,1.571,2.53,1.571,4.881c-0.013,2.351-0.816,3.886-1.571,4.893H251.684z"/>
</g>
<g>
	<path fill="#010101" d="M186.422,61.669c0.3,0.18,0.983,0.479,1.727,0.479c1.344,0,1.775-0.852,1.763-1.511
		c-0.012-1.091-0.995-1.559-2.015-1.559h-0.588v-0.792h0.588c0.768,0,1.739-0.396,1.739-1.319c0-0.624-0.396-1.175-1.367-1.175
		c-0.624,0-1.224,0.276-1.56,0.516l-0.287-0.768c0.419-0.3,1.211-0.6,2.051-0.6c1.535,0,2.23,0.912,2.23,1.859
		c0,0.816-0.492,1.5-1.439,1.847v0.024c0.96,0.18,1.728,0.899,1.739,1.991c0,1.248-0.983,2.339-2.843,2.339
		c-0.875,0-1.643-0.276-2.026-0.528L186.422,61.669z"/>
	<path fill="#010101" d="M196.979,55.96h-2.975l-0.3,2.003c0.18-0.024,0.348-0.036,0.636-0.036c0.611,0,1.199,0.12,1.679,0.42
		c0.612,0.336,1.115,1.02,1.115,1.991c0,1.523-1.211,2.663-2.902,2.663c-0.852,0-1.559-0.24-1.942-0.479l0.264-0.804
		c0.324,0.192,0.959,0.432,1.679,0.432c0.983,0,1.848-0.647,1.835-1.691c0-1.007-0.684-1.715-2.23-1.715
		c-0.456,0-0.804,0.036-1.092,0.072l0.504-3.742h3.73V55.96z"/>
	<path fill="#010101" d="M203.674,58.886c0,2.651-0.995,4.114-2.71,4.114c-1.523,0-2.566-1.427-2.591-4.006
		c0-2.626,1.14-4.054,2.723-4.054C202.727,54.94,203.674,56.404,203.674,58.886z M199.44,59.006c0,2.027,0.624,3.178,1.583,3.178
		c1.067,0,1.583-1.259,1.583-3.25c0-1.919-0.479-3.179-1.583-3.179C200.112,55.756,199.44,56.883,199.44,59.006z"/>
	<path fill="#010101" d="M208.104,60.158c0.024,1.427,0.924,2.015,1.991,2.015c0.756,0,1.224-0.132,1.607-0.3l0.191,0.756
		c-0.372,0.168-1.02,0.372-1.942,0.372c-1.787,0-2.854-1.188-2.854-2.938s1.031-3.118,2.723-3.118c1.906,0,2.398,1.655,2.398,2.723
		c0,0.216-0.013,0.372-0.036,0.492H208.104z M211.199,59.402c0.012-0.66-0.276-1.703-1.463-1.703c-1.08,0-1.535,0.971-1.619,1.703
		H211.199z"/>
	<path fill="#010101" d="M213.984,57.063l0.827,1.247c0.229,0.324,0.408,0.612,0.601,0.936h0.023
		c0.192-0.336,0.384-0.636,0.588-0.947l0.804-1.235h1.151l-1.979,2.806l2.027,2.999h-1.188l-0.863-1.307
		c-0.229-0.336-0.42-0.66-0.624-1.008h-0.023c-0.192,0.348-0.384,0.66-0.612,1.008l-0.839,1.307h-1.164l2.063-2.962l-1.967-2.842
		H213.984z"/>
	<path fill="#010101" d="M219.049,58.958c0-0.744-0.024-1.343-0.049-1.895h0.936l0.061,0.995h0.023
		c0.42-0.708,1.115-1.115,2.063-1.115c1.415,0,2.471,1.188,2.471,2.938c0,2.087-1.283,3.118-2.651,3.118
		c-0.768,0-1.438-0.336-1.786-0.912h-0.024v3.154h-1.043V58.958z M220.092,60.505c0,0.156,0.012,0.3,0.048,0.432
		c0.192,0.732,0.828,1.235,1.583,1.235c1.115,0,1.764-0.911,1.764-2.243c0-1.151-0.612-2.146-1.728-2.146
		c-0.72,0-1.403,0.503-1.595,1.295c-0.036,0.132-0.072,0.288-0.072,0.42V60.505z"/>
	<path fill="#010101" d="M230.699,54.545c-0.876,1.187-1.499,2.734-1.499,4.917c0,2.135,0.659,3.658,1.499,4.857h-0.815
		c-0.756-0.996-1.571-2.531-1.571-4.869c0.012-2.351,0.815-3.898,1.571-4.905H230.699z"/>
	<path fill="#010101" d="M236.686,58.886c0,2.651-0.995,4.114-2.71,4.114c-1.523,0-2.566-1.427-2.591-4.006
		c0-2.626,1.14-4.054,2.723-4.054C235.738,54.94,236.686,56.404,236.686,58.886z M232.452,59.006c0,2.027,0.624,3.178,1.583,3.178
		c1.067,0,1.583-1.259,1.583-3.25c0-1.919-0.479-3.179-1.583-3.179C233.124,55.756,232.452,56.883,232.452,59.006z"/>
	<path fill="#010101" d="M237.732,62.245c0-0.432,0.3-0.756,0.72-0.756c0.419,0,0.707,0.312,0.707,0.756
		c0,0.432-0.288,0.755-0.731,0.755C238.02,63,237.732,62.676,237.732,62.245z"/>
	<path fill="#010101" d="M245.193,55.072v0.696l-3.394,7.1h-1.092l3.382-6.896v-0.024h-3.813v-0.875H245.193z"/>
	<path fill="#010101" d="M246.624,58.634c0-0.611-0.024-1.091-0.049-1.571h0.924l0.048,0.947h0.036
		c0.324-0.552,0.863-1.067,1.835-1.067c0.779,0,1.379,0.48,1.631,1.164h0.024c0.18-0.336,0.42-0.576,0.659-0.756
		c0.349-0.264,0.72-0.408,1.271-0.408c0.779,0,1.919,0.504,1.919,2.519v3.406h-1.031v-3.274c0-1.127-0.42-1.787-1.26-1.787
		c-0.611,0-1.067,0.443-1.259,0.947c-0.048,0.156-0.084,0.336-0.084,0.528v3.586h-1.031V59.39c0-0.923-0.408-1.583-1.212-1.583
		c-0.647,0-1.139,0.527-1.307,1.055c-0.061,0.144-0.084,0.336-0.084,0.516v3.49h-1.031V58.634z"/>
	<path fill="#010101" d="M255.997,64.319c0.839-1.188,1.499-2.734,1.499-4.893c0-2.159-0.647-3.682-1.499-4.881h0.815
		c0.755,0.983,1.571,2.53,1.571,4.881c-0.013,2.351-0.816,3.886-1.571,4.893H255.997z"/>
</g>
<g>
	<path fill="#010101" d="M220.958,223.049c-1.523,0-2.566-1.427-2.592-4.006c0-2.626,1.141-4.054,2.723-4.054
		c1.631,0,2.578,1.463,2.578,3.946c0,2.651-0.994,4.114-2.697,4.114H220.958z M221.005,222.233c1.068,0,1.584-1.259,1.584-3.25
		c0-1.919-0.48-3.179-1.584-3.179c-0.959,0-1.582,1.224-1.582,3.179c-0.025,2.027,0.6,3.25,1.57,3.25H221.005z"/>
	<path fill="#010101" d="M225.411,223.049c-0.408,0-0.695-0.324-0.695-0.755c0-0.432,0.299-0.756,0.719-0.756
		s0.707,0.312,0.707,0.756c0,0.432-0.287,0.755-0.719,0.755H225.411z"/>
	<path fill="#010101" d="M227.366,221.718c0.301,0.18,0.984,0.479,1.727,0.479c1.344,0,1.775-0.852,1.764-1.511
		c-0.012-1.091-0.996-1.559-2.016-1.559h-0.588v-0.792h0.588c0.768,0,1.74-0.396,1.74-1.319c0-0.624-0.396-1.175-1.367-1.175
		c-0.625,0-1.225,0.276-1.561,0.516l-0.287-0.768c0.42-0.3,1.211-0.6,2.051-0.6c1.535,0,2.23,0.912,2.23,1.859
		c0,0.816-0.492,1.5-1.439,1.847v0.024c0.961,0.18,1.74,0.899,1.74,1.991c0,1.248-0.984,2.339-2.844,2.339
		c-0.875,0-1.643-0.276-2.025-0.528L227.366,221.718z"/>
</g>
<g>
	<path fill="#010101" d="M206.708,260.658c0.228,0.012,0.492,0,0.852-0.049c0.611-0.071,1.188-0.323,1.631-0.755
		c0.516-0.468,0.888-1.151,1.031-2.075h-0.035c-0.433,0.527-1.056,0.84-1.848,0.84c-1.403,0-2.303-1.055-2.303-2.398
		c0-1.463,1.08-2.759,2.675-2.759s2.578,1.283,2.578,3.286c0,1.715-0.575,2.914-1.343,3.67c-0.6,0.576-1.428,0.947-2.267,1.043
		c-0.384,0.049-0.731,0.072-0.972,0.061V260.658z M208.616,254.266c-0.888,0-1.523,0.791-1.523,1.895
		c0,0.972,0.588,1.655,1.499,1.655c0.708,0,1.26-0.348,1.547-0.815c0.049-0.096,0.084-0.216,0.084-0.384
		c0.013-1.343-0.491-2.351-1.595-2.351H208.616z"/>
	<path fill="#010101" d="M213.033,261.521c-0.408,0-0.695-0.324-0.695-0.756s0.3-0.756,0.72-0.756c0.419,0,0.707,0.312,0.707,0.756
		c0,0.432-0.288,0.756-0.72,0.756H213.033z"/>
	<path fill="#010101" d="M217.027,254.577h-0.023l-1.355,0.731l-0.204-0.803l1.703-0.912h0.899v7.796h-1.019V254.577z"/>
	<path fill="#010101" d="M221.72,255.585l0.828,1.235c0.217,0.336,0.396,0.623,0.588,0.947h0.035
		c0.193-0.336,0.385-0.636,0.588-0.947l0.805-1.235h1.15l-1.979,2.806l2.027,2.999h-1.199l-0.852-1.308
		c-0.229-0.336-0.42-0.659-0.625-1.008h-0.023c-0.191,0.349-0.396,0.66-0.611,1.008l-0.84,1.308h-1.164l2.064-2.962l-1.967-2.843
		H221.72z"/>
	<path fill="#010101" d="M228.739,254.577h-0.023l-1.355,0.731l-0.205-0.803l1.703-0.912h0.9v7.796h-1.02V254.577z"/>
	<path fill="#010101" d="M235.087,261.521c-1.523,0-2.566-1.428-2.592-4.006c0-2.627,1.141-4.054,2.723-4.054
		c1.631,0,2.578,1.464,2.578,3.946c0,2.65-0.994,4.113-2.697,4.113H235.087z M235.134,260.706c1.068,0,1.584-1.259,1.584-3.25
		c0-1.919-0.48-3.179-1.584-3.179c-0.959,0-1.582,1.224-1.582,3.179c-0.025,2.026,0.6,3.25,1.57,3.25H235.134z"/>
	<path fill="#010101" d="M240.55,254.854v0.538h-2.078v-0.538H240.55z"/>
	<path fill="#010101" d="M243.464,257.394v-1.488h-2.539v-0.479l2.439-3.497h0.799v3.405h0.764v0.571h-0.764v1.488H243.464z
		 M243.464,255.334v-1.833c0-0.286,0.01-0.571,0.025-0.858h-0.025c-0.168,0.32-0.303,0.556-0.453,0.816l-1.338,1.857v0.018H243.464z
		"/>
</g>
<g>
	<path fill="#010101" d="M224.37,448.392h-2.975l-0.299,1.979c0.18-0.024,0.348-0.049,0.635-0.049c0.611,0,1.199,0.133,1.68,0.42
		c0.611,0.336,1.115,1.02,1.115,2.027c0,1.523-1.211,2.662-2.902,2.662c-0.852,0-1.559-0.24-1.943-0.479l0.264-0.804
		c0.324,0.191,0.959,0.432,1.68,0.432c0.982,0,1.848-0.647,1.834-1.703c0-1.031-0.684-1.738-2.23-1.738
		c-0.455,0-0.803,0.035-1.092,0.084l0.504-3.719h3.73V448.392z"/>
	<path fill="#010101" d="M228.356,455.432c-1.523,0-2.566-1.428-2.592-4.006c0-2.627,1.141-4.054,2.723-4.054
		c1.631,0,2.578,1.464,2.578,3.946c0,2.65-0.994,4.113-2.697,4.113H228.356z M228.403,454.616c1.068,0,1.584-1.259,1.584-3.25
		c0-1.919-0.48-3.179-1.584-3.179c-0.959,0-1.582,1.224-1.582,3.179c-0.025,2.026,0.6,3.25,1.57,3.25H228.403z"/>
</g>
<g>
	<path fill="#010101" d="M224.37,416.892h-2.975l-0.299,1.979c0.18-0.024,0.348-0.049,0.635-0.049c0.611,0,1.199,0.133,1.68,0.42
		c0.611,0.336,1.115,1.02,1.115,2.027c0,1.523-1.211,2.662-2.902,2.662c-0.852,0-1.559-0.24-1.943-0.479l0.264-0.804
		c0.324,0.191,0.959,0.432,1.68,0.432c0.982,0,1.848-0.647,1.834-1.703c0-1.031-0.684-1.738-2.23-1.738
		c-0.455,0-0.803,0.035-1.092,0.084l0.504-3.719h3.73V416.892z"/>
	<path fill="#010101" d="M228.356,423.932c-1.523,0-2.566-1.428-2.592-4.006c0-2.627,1.141-4.054,2.723-4.054
		c1.631,0,2.578,1.464,2.578,3.946c0,2.65-0.994,4.113-2.697,4.113H228.356z M228.403,423.116c1.068,0,1.584-1.259,1.584-3.25
		c0-1.919-0.48-3.179-1.584-3.179c-0.959,0-1.582,1.224-1.582,3.179c-0.025,2.026,0.6,3.25,1.57,3.25H228.403z"/>
</g>
<g>
	<path fill="#010101" d="M8.341,173.06c-0.875-0.408-1.247-1.08-1.247-1.751c0-1.235,1.044-2.075,2.423-2.075
		c1.511,0,2.278,0.936,2.278,1.919c0,0.66-0.335,1.379-1.295,1.823v0.036c0.972,0.384,1.571,1.08,1.571,2.015
		c0,1.367-1.163,2.267-2.65,2.267c-1.632,0-2.615-0.959-2.615-2.099c0-0.983,0.588-1.691,1.548-2.099L8.341,173.06z M11.004,175.134
		c0-0.936-0.66-1.403-1.715-1.703c-0.912,0.264-1.403,0.875-1.403,1.619c-0.036,0.78,0.563,1.475,1.559,1.475
		C10.393,176.525,11.004,175.938,11.004,175.134z M8.102,171.236c-0.012,0.78,0.588,1.199,1.487,1.439
		c0.671-0.228,1.187-0.708,1.187-1.416c0-0.624-0.371-1.271-1.318-1.271C8.581,169.989,8.102,170.565,8.102,171.236z"/>
	<path fill="#010101" d="M18.251,173.179c0,2.651-0.995,4.114-2.71,4.114c-1.523,0-2.566-1.427-2.591-4.006
		c0-2.626,1.14-4.054,2.723-4.054C17.304,169.233,18.251,170.697,18.251,173.179z M14.018,173.299c0,2.027,0.624,3.178,1.583,3.178
		c1.067,0,1.583-1.259,1.583-3.25c0-1.919-0.479-3.179-1.583-3.179C14.689,170.049,14.018,171.176,14.018,173.299z"/>
	<path fill="#010101" d="M24.406,173.179c0,2.651-0.995,4.114-2.71,4.114c-1.523,0-2.566-1.427-2.591-4.006
		c0-2.626,1.14-4.054,2.723-4.054C23.459,169.233,24.406,170.697,24.406,173.179z M20.173,173.299c0,2.027,0.624,3.178,1.583,3.178
		c1.067,0,1.583-1.259,1.583-3.25c0-1.919-0.479-3.179-1.583-3.179C20.845,170.049,20.173,171.176,20.173,173.299z"/>
	<path fill="#010101" d="M30.562,173.179c0,2.651-0.995,4.114-2.71,4.114c-1.523,0-2.566-1.427-2.591-4.006
		c0-2.626,1.14-4.054,2.723-4.054C29.615,169.233,30.562,170.697,30.562,173.179z M26.329,173.299c0,2.027,0.624,3.178,1.583,3.178
		c1.067,0,1.583-1.259,1.583-3.25c0-1.919-0.479-3.179-1.583-3.179C27.001,170.049,26.329,171.176,26.329,173.299z"/>
	<path fill="#010101" d="M36.718,173.179c0,2.651-0.995,4.114-2.71,4.114c-1.523,0-2.566-1.427-2.591-4.006
		c0-2.626,1.14-4.054,2.723-4.054C35.771,169.233,36.718,170.697,36.718,173.179z M32.484,173.299c0,2.027,0.624,3.178,1.583,3.178
		c1.067,0,1.583-1.259,1.583-3.25c0-1.919-0.479-3.179-1.583-3.179C33.156,170.049,32.484,171.176,32.484,173.299z"/>
	<path fill="#010101" d="M41.148,174.451c0.024,1.427,0.924,2.015,1.991,2.015c0.756,0,1.224-0.132,1.607-0.3l0.191,0.756
		c-0.372,0.168-1.02,0.372-1.942,0.372c-1.787,0-2.854-1.188-2.854-2.938s1.031-3.118,2.723-3.118c1.906,0,2.398,1.655,2.398,2.723
		c0,0.216-0.013,0.372-0.036,0.492H41.148z M44.243,173.695c0.012-0.66-0.276-1.703-1.463-1.703c-1.08,0-1.535,0.971-1.619,1.703
		H44.243z"/>
	<path fill="#010101" d="M47.028,171.356l0.827,1.247c0.229,0.324,0.408,0.612,0.601,0.936h0.023
		c0.192-0.336,0.384-0.636,0.588-0.947l0.804-1.235h1.151l-1.979,2.806l2.027,2.999h-1.188l-0.863-1.307
		c-0.229-0.336-0.42-0.66-0.624-1.008h-0.023c-0.192,0.348-0.384,0.66-0.612,1.008l-0.839,1.307h-1.164l2.063-2.962l-1.967-2.842
		H47.028z"/>
	<path fill="#010101" d="M52.093,173.251c0-0.744-0.024-1.343-0.049-1.895h0.936l0.061,0.995h0.023
		c0.42-0.708,1.115-1.115,2.063-1.115c1.415,0,2.471,1.188,2.471,2.938c0,2.087-1.283,3.118-2.651,3.118
		c-0.768,0-1.438-0.336-1.786-0.912h-0.024v3.154h-1.043V173.251z M53.136,174.798c0,0.156,0.012,0.3,0.048,0.432
		c0.192,0.732,0.828,1.235,1.583,1.235c1.115,0,1.764-0.911,1.764-2.243c0-1.151-0.612-2.146-1.728-2.146
		c-0.72,0-1.403,0.503-1.595,1.295c-0.036,0.132-0.072,0.288-0.072,0.42V174.798z"/>
	<path fill="#010101" d="M63.743,168.838c-0.876,1.187-1.499,2.734-1.499,4.917c0,2.135,0.659,3.658,1.499,4.857h-0.815
		c-0.756-0.996-1.571-2.531-1.571-4.869c0.012-2.351,0.815-3.898,1.571-4.905H63.743z"/>
	<path fill="#010101" d="M67.319,173.539v0.768h-2.963v-0.768H67.319z"/>
	<path fill="#010101" d="M73.413,173.179c0,2.651-0.995,4.114-2.71,4.114c-1.523,0-2.566-1.427-2.591-4.006
		c0-2.626,1.14-4.054,2.723-4.054C72.466,169.233,73.413,170.697,73.413,173.179z M69.18,173.299c0,2.027,0.624,3.178,1.583,3.178
		c1.067,0,1.583-1.259,1.583-3.25c0-1.919-0.479-3.179-1.583-3.179C69.852,170.049,69.18,171.176,69.18,173.299z"/>
	<path fill="#010101" d="M74.461,176.538c0-0.432,0.3-0.756,0.719-0.756c0.42,0,0.708,0.312,0.708,0.756
		c0,0.432-0.288,0.755-0.731,0.755C74.748,177.293,74.461,176.969,74.461,176.538z"/>
	<path fill="#010101" d="M77.112,175.962c0.3,0.18,0.983,0.479,1.727,0.479c1.344,0,1.775-0.852,1.763-1.511
		c-0.012-1.091-0.995-1.559-2.015-1.559h-0.588v-0.792h0.588c0.768,0,1.739-0.396,1.739-1.319c0-0.624-0.396-1.175-1.367-1.175
		c-0.624,0-1.224,0.276-1.56,0.516l-0.287-0.768c0.419-0.3,1.211-0.6,2.051-0.6c1.535,0,2.23,0.912,2.23,1.859
		c0,0.816-0.492,1.5-1.439,1.847v0.024c0.96,0.18,1.728,0.899,1.739,1.991c0,1.248-0.983,2.339-2.843,2.339
		c-0.875,0-1.643-0.276-2.026-0.528L77.112,175.962z"/>
	<path fill="#010101" d="M83.353,172.927c0-0.611-0.024-1.091-0.049-1.571h0.924l0.048,0.947h0.036
		c0.324-0.552,0.863-1.067,1.835-1.067c0.779,0,1.379,0.48,1.631,1.164h0.024c0.18-0.336,0.42-0.576,0.659-0.756
		c0.348-0.264,0.72-0.408,1.271-0.408c0.779,0,1.919,0.504,1.919,2.519v3.406H90.62v-3.274c0-1.127-0.42-1.787-1.26-1.787
		c-0.611,0-1.067,0.443-1.259,0.947c-0.048,0.156-0.084,0.336-0.084,0.528v3.586h-1.031v-3.478c0-0.923-0.408-1.583-1.212-1.583
		c-0.647,0-1.139,0.527-1.307,1.055c-0.061,0.144-0.084,0.336-0.084,0.516v3.49h-1.031V172.927z"/>
	<path fill="#010101" d="M92.725,178.612c0.839-1.188,1.499-2.734,1.499-4.893c0-2.159-0.647-3.682-1.499-4.881h0.815
		c0.755,0.983,1.571,2.53,1.571,4.881c-0.013,2.351-0.816,3.886-1.571,4.893H92.725z"/>
	<path fill="#010101" d="M35.839,187.327c0-0.611-0.024-1.091-0.049-1.571h0.924l0.048,0.947h0.036
		c0.324-0.552,0.863-1.067,1.835-1.067c0.779,0,1.379,0.48,1.631,1.164h0.024c0.18-0.336,0.42-0.576,0.659-0.756
		c0.348-0.264,0.72-0.408,1.271-0.408c0.779,0,1.919,0.504,1.919,2.519v3.406h-1.031v-3.274c0-1.127-0.42-1.787-1.26-1.787
		c-0.611,0-1.067,0.443-1.259,0.947c-0.048,0.156-0.084,0.336-0.084,0.528v3.586h-1.031v-3.478c0-0.923-0.408-1.583-1.212-1.583
		c-0.647,0-1.139,0.527-1.307,1.055c-0.061,0.144-0.084,0.336-0.084,0.516v3.49h-1.031V187.327z"/>
	<path fill="#010101" d="M51.1,188.611c0,2.146-1.499,3.082-2.891,3.082c-1.56,0-2.782-1.151-2.782-2.986
		c0-1.931,1.283-3.07,2.878-3.07C49.972,185.636,51.1,186.848,51.1,188.611z M46.506,188.67c0,1.271,0.72,2.231,1.751,2.231
		c1.008,0,1.763-0.947,1.763-2.255c0-0.983-0.491-2.219-1.738-2.219C47.046,186.428,46.506,187.579,46.506,188.67z"/>
	<path fill="#010101" d="M52.435,183.046h1.055v8.515h-1.055V183.046z"/>
	<path fill="#010101" d="M55.854,188.851c0.024,1.427,0.924,2.015,1.991,2.015c0.756,0,1.224-0.132,1.607-0.3l0.191,0.756
		c-0.372,0.168-1.02,0.372-1.942,0.372c-1.787,0-2.854-1.187-2.854-2.938c0-1.751,1.031-3.118,2.723-3.118
		c1.906,0,2.398,1.655,2.398,2.723c0,0.216-0.013,0.372-0.036,0.492H55.854z M58.948,188.095c0.012-0.659-0.276-1.703-1.463-1.703
		c-1.08,0-1.535,0.971-1.619,1.703H58.948z"/>
	<path fill="#010101" d="M62.731,185.026v0.538h-2.077v-0.538H62.731z"/>
	<path fill="#010101" d="M63.359,187.565v-0.454l0.58-0.563c1.396-1.329,2.035-2.035,2.035-2.859c0-0.555-0.261-1.068-1.076-1.068
		c-0.496,0-0.908,0.252-1.16,0.462l-0.235-0.521c0.37-0.311,0.916-0.555,1.538-0.555c1.178,0,1.674,0.807,1.674,1.589
		c0,1.009-0.731,1.824-1.884,2.934l-0.429,0.404v0.017h2.446v0.614H63.359z"/>
</g>
<g>
	<path fill="#010101" d="M127.19,170.753h-2.975l-0.3,2.003c0.18-0.024,0.348-0.036,0.636-0.036c0.611,0,1.199,0.12,1.679,0.42
		c0.612,0.336,1.115,1.02,1.115,1.991c0,1.523-1.211,2.663-2.902,2.663c-0.852,0-1.559-0.24-1.942-0.479l0.264-0.804
		c0.324,0.192,0.959,0.432,1.679,0.432c0.983,0,1.848-0.647,1.835-1.691c0-1.007-0.684-1.715-2.23-1.715
		c-0.456,0-0.804,0.036-1.092,0.072l0.504-3.742h3.73V170.753z"/>
	<path fill="#010101" d="M133.886,173.679c0,2.651-0.995,4.114-2.71,4.114c-1.523,0-2.566-1.427-2.591-4.006
		c0-2.626,1.14-4.054,2.723-4.054C132.938,169.733,133.886,171.197,133.886,173.679z M129.652,173.799
		c0,2.027,0.624,3.178,1.583,3.178c1.067,0,1.583-1.259,1.583-3.25c0-1.919-0.479-3.179-1.583-3.179
		C130.324,170.549,129.652,171.676,129.652,173.799z"/>
	<path fill="#010101" d="M140.041,173.679c0,2.651-0.995,4.114-2.71,4.114c-1.523,0-2.566-1.427-2.591-4.006
		c0-2.626,1.14-4.054,2.723-4.054C139.094,169.733,140.041,171.197,140.041,173.679z M135.808,173.799
		c0,2.027,0.624,3.178,1.583,3.178c1.067,0,1.583-1.259,1.583-3.25c0-1.919-0.479-3.179-1.583-3.179
		C136.479,170.549,135.808,171.676,135.808,173.799z"/>
	<path fill="#010101" d="M144.472,174.951c0.024,1.427,0.924,2.015,1.991,2.015c0.756,0,1.224-0.132,1.607-0.3l0.191,0.756
		c-0.372,0.168-1.02,0.372-1.942,0.372c-1.787,0-2.854-1.188-2.854-2.938s1.031-3.118,2.723-3.118c1.906,0,2.398,1.655,2.398,2.723
		c0,0.216-0.013,0.372-0.036,0.492H144.472z M147.566,174.195c0.012-0.66-0.276-1.703-1.463-1.703c-1.08,0-1.535,0.971-1.619,1.703
		H147.566z"/>
	<path fill="#010101" d="M150.352,171.856l0.827,1.247c0.229,0.324,0.408,0.612,0.601,0.936h0.023
		c0.192-0.336,0.384-0.636,0.588-0.947l0.804-1.235h1.151l-1.979,2.806l2.027,2.999h-1.188l-0.863-1.307
		c-0.229-0.336-0.42-0.66-0.624-1.008h-0.023c-0.192,0.348-0.384,0.66-0.612,1.008l-0.839,1.307h-1.164l2.063-2.962l-1.967-2.842
		H150.352z"/>
	<path fill="#010101" d="M155.416,173.751c0-0.744-0.024-1.343-0.049-1.895h0.936l0.061,0.995h0.023
		c0.42-0.708,1.115-1.115,2.063-1.115c1.415,0,2.471,1.188,2.471,2.938c0,2.087-1.283,3.118-2.651,3.118
		c-0.768,0-1.438-0.336-1.786-0.912h-0.024v3.154h-1.043V173.751z M156.459,175.298c0,0.156,0.012,0.3,0.048,0.432
		c0.192,0.732,0.828,1.235,1.583,1.235c1.115,0,1.764-0.911,1.764-2.243c0-1.151-0.612-2.146-1.728-2.146
		c-0.72,0-1.403,0.503-1.595,1.295c-0.036,0.132-0.072,0.288-0.072,0.42V175.298z"/>
	<path fill="#010101" d="M167.066,169.338c-0.876,1.187-1.499,2.734-1.499,4.917c0,2.135,0.659,3.658,1.499,4.857h-0.815
		c-0.756-0.996-1.571-2.531-1.571-4.869c0.012-2.351,0.815-3.898,1.571-4.905H167.066z"/>
	<path fill="#010101" d="M173.053,173.679c0,2.651-0.995,4.114-2.71,4.114c-1.523,0-2.566-1.427-2.591-4.006
		c0-2.626,1.14-4.054,2.723-4.054C172.105,169.733,173.053,171.197,173.053,173.679z M168.819,173.799
		c0,2.027,0.624,3.178,1.583,3.178c1.067,0,1.583-1.259,1.583-3.25c0-1.919-0.479-3.179-1.583-3.179
		C169.491,170.549,168.819,171.676,168.819,173.799z"/>
	<path fill="#010101" d="M174.1,177.038c0-0.432,0.3-0.756,0.72-0.756c0.419,0,0.707,0.312,0.707,0.756
		c0,0.432-0.288,0.755-0.731,0.755C174.387,177.793,174.1,177.469,174.1,177.038z"/>
	<path fill="#010101" d="M176.752,176.462c0.3,0.18,0.983,0.479,1.727,0.479c1.344,0,1.775-0.852,1.763-1.511
		c-0.012-1.091-0.995-1.559-2.015-1.559h-0.588v-0.792h0.588c0.768,0,1.739-0.396,1.739-1.319c0-0.624-0.396-1.175-1.367-1.175
		c-0.624,0-1.224,0.276-1.56,0.516l-0.287-0.768c0.419-0.3,1.211-0.6,2.051-0.6c1.535,0,2.23,0.912,2.23,1.859
		c0,0.816-0.492,1.5-1.439,1.847v0.024c0.96,0.18,1.728,0.899,1.739,1.991c0,1.248-0.983,2.339-2.843,2.339
		c-0.875,0-1.643-0.276-2.026-0.528L176.752,176.462z"/>
	<path fill="#010101" d="M182.991,173.427c0-0.611-0.024-1.091-0.049-1.571h0.924l0.048,0.947h0.036
		c0.324-0.552,0.863-1.067,1.835-1.067c0.779,0,1.379,0.48,1.631,1.164h0.024c0.18-0.336,0.42-0.576,0.659-0.756
		c0.349-0.264,0.72-0.408,1.271-0.408c0.779,0,1.919,0.504,1.919,2.519v3.406h-1.031v-3.274c0-1.127-0.42-1.787-1.26-1.787
		c-0.611,0-1.067,0.443-1.259,0.947c-0.048,0.156-0.084,0.336-0.084,0.528v3.586h-1.031v-3.478c0-0.923-0.408-1.583-1.212-1.583
		c-0.647,0-1.139,0.527-1.307,1.055c-0.061,0.144-0.084,0.336-0.084,0.516v3.49h-1.031V173.427z"/>
	<path fill="#010101" d="M192.364,179.112c0.839-1.188,1.499-2.734,1.499-4.893c0-2.159-0.647-3.682-1.499-4.881h0.815
		c0.755,0.983,1.571,2.53,1.571,4.881c-0.013,2.351-0.816,3.886-1.571,4.893H192.364z"/>
</g>
<g>
	<path fill="#010101" d="M319.174,170.348h-0.023l-1.355,0.732l-0.204-0.804l1.703-0.912h0.899v7.796h-1.02V170.348z"/>
	<path fill="#010101" d="M328.232,173.178c0,2.651-0.995,4.114-2.71,4.114c-1.523,0-2.566-1.427-2.591-4.006
		c0-2.626,1.14-4.054,2.723-4.054C327.285,169.232,328.232,170.696,328.232,173.178z M323.999,173.298
		c0,2.027,0.624,3.178,1.583,3.178c1.067,0,1.583-1.259,1.583-3.25c0-1.919-0.479-3.179-1.583-3.179
		C324.671,170.048,323.999,171.175,323.999,173.298z"/>
</g>
<g>
	<path fill="#010101" d="M349.406,177.161v-2.135h-3.622v-0.684l3.479-4.978h1.14v4.846h1.091v0.815h-1.091v2.135H349.406z
		 M349.406,174.211v-2.603c0-0.408,0.012-0.816,0.036-1.224h-0.036c-0.239,0.456-0.432,0.792-0.647,1.151l-1.907,2.65v0.024H349.406
		z"/>
	<path fill="#010101" d="M356.954,170.253h-2.975l-0.3,2.003c0.18-0.024,0.348-0.036,0.636-0.036c0.611,0,1.199,0.12,1.679,0.42
		c0.612,0.336,1.115,1.02,1.115,1.991c0,1.523-1.211,2.663-2.902,2.663c-0.852,0-1.559-0.24-1.942-0.479l0.264-0.804
		c0.324,0.192,0.96,0.432,1.679,0.432c0.983,0,1.848-0.647,1.835-1.691c0-1.007-0.684-1.715-2.23-1.715
		c-0.456,0-0.804,0.036-1.091,0.072l0.503-3.742h3.73V170.253z"/>
	<path fill="#010101" d="M363.648,173.179c0,2.651-0.995,4.114-2.71,4.114c-1.523,0-2.566-1.427-2.591-4.006
		c0-2.626,1.14-4.054,2.723-4.054C362.701,169.233,363.648,170.697,363.648,173.179z M359.415,173.299
		c0,2.027,0.624,3.178,1.583,3.178c1.067,0,1.583-1.259,1.583-3.25c0-1.919-0.479-3.179-1.583-3.179
		C360.087,170.049,359.415,171.176,359.415,173.299z"/>
	<path fill="#010101" d="M369.805,173.179c0,2.651-0.995,4.114-2.71,4.114c-1.523,0-2.566-1.427-2.591-4.006
		c0-2.626,1.14-4.054,2.723-4.054C368.857,169.233,369.805,170.697,369.805,173.179z M365.571,173.299
		c0,2.027,0.624,3.178,1.583,3.178c1.067,0,1.583-1.259,1.583-3.25c0-1.919-0.479-3.179-1.583-3.179
		C366.243,170.049,365.571,171.176,365.571,173.299z"/>
	<path fill="#010101" d="M373.647,172.927c0-0.611-0.024-1.091-0.049-1.571h0.924l0.048,0.947h0.036
		c0.324-0.552,0.863-1.067,1.835-1.067c0.779,0,1.379,0.48,1.631,1.164h0.024c0.18-0.336,0.42-0.576,0.659-0.756
		c0.348-0.264,0.72-0.408,1.271-0.408c0.779,0,1.919,0.504,1.919,2.519v3.406h-1.031v-3.274c0-1.127-0.42-1.787-1.26-1.787
		c-0.611,0-1.067,0.443-1.259,0.947c-0.048,0.156-0.084,0.336-0.084,0.528v3.586h-1.031v-3.478c0-0.923-0.408-1.583-1.212-1.583
		c-0.647,0-1.139,0.527-1.307,1.055c-0.061,0.144-0.084,0.336-0.084,0.516v3.49h-1.031V172.927z"/>
	<path fill="#010101" d="M388.908,174.211c0,2.146-1.499,3.082-2.891,3.082c-1.56,0-2.782-1.151-2.782-2.986
		c0-1.931,1.283-3.07,2.878-3.07C387.78,171.236,388.908,172.448,388.908,174.211z M384.314,174.271c0,1.271,0.72,2.231,1.751,2.231
		c1.008,0,1.763-0.947,1.763-2.255c0-0.983-0.491-2.219-1.738-2.219C384.854,172.028,384.314,173.179,384.314,174.271z"/>
	<path fill="#010101" d="M390.243,168.646h1.055v8.515h-1.055V168.646z"/>
	<path fill="#010101" d="M393.662,174.451c0.024,1.427,0.924,2.015,1.991,2.015c0.756,0,1.224-0.132,1.607-0.3l0.191,0.756
		c-0.372,0.168-1.02,0.372-1.942,0.372c-1.787,0-2.854-1.188-2.854-2.938s1.031-3.118,2.723-3.118c1.906,0,2.398,1.655,2.398,2.723
		c0,0.216-0.013,0.372-0.036,0.492H393.662z M396.757,173.695c0.012-0.66-0.276-1.703-1.463-1.703c-1.08,0-1.535,0.971-1.619,1.703
		H396.757z"/>
	<path fill="#010101" d="M400.54,170.626v0.538h-2.077v-0.538H400.54z"/>
	<path fill="#010101" d="M401.168,173.165v-0.454l0.58-0.563c1.396-1.329,2.035-2.035,2.035-2.859c0-0.555-0.261-1.068-1.076-1.068
		c-0.496,0-0.908,0.252-1.16,0.462l-0.235-0.521c0.37-0.311,0.916-0.555,1.538-0.555c1.178,0,1.674,0.807,1.674,1.589
		c0,1.009-0.731,1.824-1.884,2.934l-0.429,0.404v0.017h2.446v0.614H401.168z"/>
</g>
<g>
	<path fill="#010101" d="M47.23,365.815h-0.023l-1.355,0.731l-0.204-0.803l1.703-0.912h0.899v7.796h-1.02V365.815z"/>
	<path fill="#010101" d="M56.289,368.646c0,2.65-0.995,4.113-2.71,4.113c-1.523,0-2.566-1.428-2.591-4.006
		c0-2.627,1.14-4.054,2.723-4.054C55.342,364.7,56.289,366.164,56.289,368.646z M52.056,368.766c0,2.027,0.624,3.179,1.583,3.179
		c1.067,0,1.583-1.259,1.583-3.25c0-1.919-0.479-3.179-1.583-3.179C52.728,365.516,52.056,366.643,52.056,368.766z"/>
	<path fill="#010101" d="M60.353,363.789h-2.085l-0.211,1.404c0.127-0.018,0.244-0.025,0.446-0.025c0.429,0,0.841,0.084,1.177,0.295
		c0.429,0.234,0.782,0.714,0.782,1.395c0,1.068-0.85,1.867-2.035,1.867c-0.597,0-1.093-0.168-1.361-0.336l0.185-0.564
		c0.227,0.135,0.673,0.303,1.177,0.303c0.689,0,1.295-0.453,1.287-1.186c0-0.705-0.479-1.201-1.564-1.201
		c-0.319,0-0.563,0.024-0.765,0.05l0.353-2.623h2.615V363.789z"/>
	<path fill="#010101" d="M64.441,368.395c0-0.611-0.024-1.092-0.049-1.571h0.924l0.048,0.947H65.4
		c0.324-0.552,0.863-1.067,1.835-1.067c0.779,0,1.379,0.48,1.631,1.164h0.024c0.18-0.336,0.42-0.576,0.659-0.756
		c0.349-0.264,0.72-0.408,1.271-0.408c0.779,0,1.919,0.504,1.919,2.519v3.406h-1.031v-3.274c0-1.127-0.42-1.787-1.26-1.787
		c-0.611,0-1.067,0.443-1.259,0.947c-0.048,0.156-0.084,0.336-0.084,0.528v3.586h-1.031v-3.478c0-0.924-0.408-1.584-1.212-1.584
		c-0.647,0-1.139,0.527-1.307,1.056c-0.061,0.144-0.084,0.336-0.084,0.516v3.49h-1.031V368.395z"/>
	<path fill="#010101" d="M79.702,369.678c0,2.146-1.499,3.082-2.891,3.082c-1.56,0-2.782-1.151-2.782-2.986
		c0-1.931,1.283-3.07,2.878-3.07C78.574,366.703,79.702,367.914,79.702,369.678z M75.108,369.737c0,1.271,0.72,2.231,1.751,2.231
		c1.008,0,1.763-0.947,1.763-2.256c0-0.982-0.491-2.219-1.738-2.219C75.648,367.494,75.108,368.646,75.108,369.737z"/>
	<path fill="#010101" d="M81.037,364.113h1.055v8.515h-1.055V364.113z"/>
	<path fill="#010101" d="M84.456,369.918c0.024,1.427,0.924,2.014,1.991,2.014c0.756,0,1.224-0.131,1.607-0.299l0.191,0.756
		c-0.372,0.168-1.02,0.371-1.942,0.371c-1.787,0-2.854-1.188-2.854-2.938s1.031-3.118,2.723-3.118c1.906,0,2.398,1.655,2.398,2.723
		c0,0.216-0.012,0.371-0.036,0.492H84.456z M87.551,369.162c0.012-0.66-0.276-1.703-1.463-1.703c-1.08,0-1.535,0.971-1.619,1.703
		H87.551z"/>
	<path fill="#010101" d="M91.334,366.093v0.538h-2.077v-0.538H91.334z"/>
	<path fill="#010101" d="M93.567,363.856h-0.017l-0.95,0.513l-0.144-0.563l1.194-0.639h0.631v5.465h-0.715V363.856z"/>
</g>
<g>
	<path fill="#010101" d="M122.537,372.628v-0.647l0.827-0.804c1.991-1.896,2.902-2.902,2.902-4.077c0-0.792-0.372-1.523-1.535-1.523
		c-0.707,0-1.295,0.359-1.655,0.659l-0.336-0.743c0.528-0.444,1.308-0.792,2.195-0.792c1.679,0,2.387,1.151,2.387,2.267
		c0,1.439-1.044,2.604-2.687,4.186l-0.611,0.576v0.023h3.489v0.876H122.537z"/>
	<path fill="#010101" d="M133.886,368.646c0,2.65-0.995,4.113-2.71,4.113c-1.523,0-2.566-1.428-2.591-4.006
		c0-2.627,1.14-4.054,2.723-4.054C132.938,364.7,133.886,366.164,133.886,368.646z M129.652,368.766
		c0,2.027,0.624,3.179,1.583,3.179c1.067,0,1.583-1.259,1.583-3.25c0-1.919-0.479-3.179-1.583-3.179
		C130.324,365.516,129.652,366.643,129.652,368.766z"/>
</g>
<g>
	<path fill="#010101" d="M312.166,368.526c-0.875-0.408-1.247-1.079-1.247-1.751c0-1.235,1.044-2.075,2.423-2.075
		c1.511,0,2.278,0.936,2.278,1.919c0,0.66-0.335,1.379-1.295,1.823v0.036c0.972,0.383,1.571,1.079,1.571,2.015
		c0,1.367-1.163,2.267-2.65,2.267c-1.632,0-2.615-0.959-2.615-2.099c0-0.983,0.588-1.691,1.548-2.099L312.166,368.526z
		 M314.829,370.602c0-0.936-0.66-1.404-1.715-1.703c-0.912,0.264-1.403,0.875-1.403,1.619c-0.036,0.779,0.563,1.475,1.559,1.475
		C314.218,371.992,314.829,371.404,314.829,370.602z M311.927,366.703c-0.012,0.779,0.588,1.199,1.487,1.439
		c0.671-0.229,1.187-0.708,1.187-1.416c0-0.623-0.371-1.271-1.318-1.271C312.406,365.456,311.927,366.031,311.927,366.703z"/>
	<path fill="#010101" d="M322.076,368.646c0,2.65-0.995,4.113-2.71,4.113c-1.523,0-2.566-1.428-2.591-4.006
		c0-2.627,1.14-4.054,2.723-4.054C321.129,364.7,322.076,366.164,322.076,368.646z M317.843,368.766
		c0,2.027,0.624,3.179,1.583,3.179c1.067,0,1.583-1.259,1.583-3.25c0-1.919-0.479-3.179-1.583-3.179
		C318.515,365.516,317.843,366.643,317.843,368.766z"/>
	<path fill="#010101" d="M328.231,368.646c0,2.65-0.995,4.113-2.71,4.113c-1.523,0-2.566-1.428-2.591-4.006
		c0-2.627,1.14-4.054,2.723-4.054C327.284,364.7,328.231,366.164,328.231,368.646z M323.998,368.766
		c0,2.027,0.624,3.179,1.583,3.179c1.067,0,1.583-1.259,1.583-3.25c0-1.919-0.479-3.179-1.583-3.179
		C324.67,365.516,323.998,366.643,323.998,368.766z"/>
</g>
<g>
	<path fill="#010101" d="M355.91,365.815h-0.023l-1.355,0.731l-0.204-0.803l1.703-0.912h0.899v7.796h-1.02V365.815z"/>
	<path fill="#010101" d="M359.776,372.628v-0.647l0.827-0.804c1.991-1.896,2.902-2.902,2.902-4.077c0-0.792-0.372-1.523-1.535-1.523
		c-0.707,0-1.295,0.359-1.655,0.659l-0.336-0.743c0.528-0.444,1.308-0.792,2.195-0.792c1.679,0,2.387,1.151,2.387,2.267
		c0,1.439-1.044,2.604-2.687,4.186l-0.611,0.576v0.023h3.489v0.876H359.776z"/>
	<path fill="#010101" d="M368.222,365.815h-0.023l-1.355,0.731l-0.204-0.803l1.703-0.912h0.899v7.796h-1.02V365.815z"/>
	<path fill="#010101" d="M372.699,371.885c0.228,0.023,0.492,0,0.852-0.037c0.611-0.083,1.188-0.323,1.631-0.755
		c0.516-0.468,0.888-1.151,1.031-2.063h-0.035c-0.433,0.528-1.056,0.828-1.848,0.828c-1.391,0-2.29-1.055-2.29-2.387
		c0-1.475,1.067-2.771,2.662-2.771s2.578,1.283,2.578,3.298c0,1.703-0.575,2.902-1.343,3.646c-0.6,0.588-1.428,0.947-2.267,1.043
		c-0.384,0.061-0.72,0.072-0.972,0.061V371.885z M373.083,367.41c0,0.973,0.588,1.656,1.499,1.656c0.708,0,1.26-0.348,1.535-0.816
		c0.061-0.107,0.096-0.215,0.096-0.396c0-1.331-0.491-2.351-1.606-2.351C373.719,365.504,373.083,366.295,373.083,367.41z"/>
	<path fill="#010101" d="M383.436,368.646c0,2.65-0.995,4.113-2.71,4.113c-1.523,0-2.566-1.428-2.591-4.006
		c0-2.627,1.14-4.054,2.723-4.054C382.488,364.7,383.436,366.164,383.436,368.646z M379.202,368.766
		c0,2.027,0.624,3.179,1.583,3.179c1.067,0,1.583-1.259,1.583-3.25c0-1.919-0.479-3.179-1.583-3.179
		C379.874,365.516,379.202,366.643,379.202,368.766z"/>
	<path fill="#010101" d="M387.279,368.395c0-0.611-0.024-1.092-0.049-1.571h0.924l0.048,0.947h0.036
		c0.324-0.552,0.863-1.067,1.835-1.067c0.779,0,1.379,0.48,1.631,1.164h0.024c0.18-0.336,0.42-0.576,0.659-0.756
		c0.348-0.264,0.72-0.408,1.271-0.408c0.779,0,1.919,0.504,1.919,2.519v3.406h-1.031v-3.274c0-1.127-0.42-1.787-1.26-1.787
		c-0.611,0-1.067,0.443-1.259,0.947c-0.048,0.156-0.084,0.336-0.084,0.528v3.586h-1.031v-3.478c0-0.924-0.408-1.584-1.212-1.584
		c-0.647,0-1.139,0.527-1.307,1.056c-0.061,0.144-0.084,0.336-0.084,0.516v3.49h-1.031V368.395z"/>
	<path fill="#010101" d="M402.54,369.678c0,2.146-1.499,3.082-2.891,3.082c-1.56,0-2.782-1.151-2.782-2.986
		c0-1.931,1.283-3.07,2.878-3.07C401.412,366.703,402.54,367.914,402.54,369.678z M397.946,369.737c0,1.271,0.72,2.231,1.751,2.231
		c1.008,0,1.763-0.947,1.763-2.256c0-0.982-0.491-2.219-1.738-2.219C398.486,367.494,397.946,368.646,397.946,369.737z"/>
	<path fill="#010101" d="M403.875,364.113h1.055v8.515h-1.055V364.113z"/>
	<path fill="#010101" d="M407.294,369.918c0.024,1.427,0.924,2.014,1.991,2.014c0.756,0,1.224-0.131,1.607-0.299l0.191,0.756
		c-0.372,0.168-1.02,0.371-1.942,0.371c-1.787,0-2.854-1.188-2.854-2.938s1.031-3.118,2.723-3.118c1.906,0,2.398,1.655,2.398,2.723
		c0,0.216-0.013,0.371-0.036,0.492H407.294z M410.389,369.162c0.012-0.66-0.276-1.703-1.463-1.703c-1.08,0-1.535,0.971-1.619,1.703
		H410.389z"/>
	<path fill="#010101" d="M414.172,366.093v0.538h-2.077v-0.538H414.172z"/>
	<path fill="#010101" d="M416.406,363.856h-0.017l-0.95,0.513l-0.144-0.563l1.194-0.639h0.631v5.465h-0.715V363.856z"/>
</g>
</svg>
