<?xml version="1.0" encoding="utf-8"?>
<!-- Generator: Adobe Illustrator 14.0.0, SVG Export Plug-In . SVG Version: 6.00 Build 43363)  -->
<!DOCTYPE svg PUBLIC "-//W3C//DTD SVG 1.1//EN" "http://www.w3.org/Graphics/SVG/1.1/DTD/svg11.dtd">
<svg version="1.1" id="Layer_1" xmlns="http://www.w3.org/2000/svg" xmlns:xlink="http://www.w3.org/1999/xlink" x="0px" y="0px"
	 width="289px" height="369px" viewBox="0 0 289 369" enable-background="new 0 0 289 369" xml:space="preserve">
<g id="G6P_F6P">
	
		<radialGradient id="G6P_F6P_path1_1_" cx="18.7529" cy="-471.8149" r="16.1858" gradientTransform="matrix(1.5933 0 0 0.6358 102.498 389.0895)" gradientUnits="userSpaceOnUse">
		<stop  offset="0" style="stop-color:#FCFAE0"/>
		<stop  offset="0.1203" style="stop-color:#FDFADB"/>
		<stop  offset="0.2662" style="stop-color:#FFF8CB"/>
		<stop  offset="0.4255" style="stop-color:#FDF6B2"/>
		<stop  offset="0.5943" style="stop-color:#FDEF90"/>
		<stop  offset="0.7706" style="stop-color:#FFE963"/>
		<stop  offset="0.9506" style="stop-color:#FFE22C"/>
		<stop  offset="1" style="stop-color:#FFDF18"/>
	</radialGradient>
	<path id="G6P_F6P_path1" fill="url(#G6P_F6P_path1_1_)" stroke="#000000" d="M157.691,89.108c0,5.786-11.338,10.478-25.316,10.478
		c-13.98,0-25.314-4.689-25.314-10.478s11.334-10.476,25.314-10.476C146.354,78.634,157.691,83.321,157.691,89.108z"/>
	<text transform="matrix(1 0 0 1 124.3965 92.6318)" font-family="'MyriadPro-Regular'" font-size="12">G6P</text>
</g>
<g id="FBP">
	
		<radialGradient id="FBP_path1_1_" cx="18.7529" cy="-226.4546" r="16.1858" gradientTransform="matrix(1.5933 0 0 0.6358 102.498 389.0895)" gradientUnits="userSpaceOnUse">
		<stop  offset="0" style="stop-color:#FCFAE0"/>
		<stop  offset="0.1203" style="stop-color:#FDFADB"/>
		<stop  offset="0.2662" style="stop-color:#FFF8CB"/>
		<stop  offset="0.4255" style="stop-color:#FDF6B2"/>
		<stop  offset="0.5943" style="stop-color:#FDEF90"/>
		<stop  offset="0.7706" style="stop-color:#FFE963"/>
		<stop  offset="0.9506" style="stop-color:#FFE22C"/>
		<stop  offset="1" style="stop-color:#FFDF18"/>
	</radialGradient>
	<path id="FBP_path1" fill="url(#FBP_path1_1_)" stroke="#000000" d="M157.691,245.108c0,5.786-11.338,10.478-25.316,10.478
		c-13.98,0-25.314-4.689-25.314-10.478s11.334-10.476,25.314-10.476C146.354,234.634,157.691,239.321,157.691,245.108z"/>
	<text transform="matrix(1 0 0 1 124.3965 248.6318)" font-family="'MyriadPro-Regular'" font-size="12">FBP</text>
</g>
<g id="DHAP">
	
		<radialGradient id="DHAP_path1_1_" cx="-41.0586" cy="-117.1807" r="16.186" gradientTransform="matrix(1.5933 0 0 0.6358 102.498 389.0895)" gradientUnits="userSpaceOnUse">
		<stop  offset="0" style="stop-color:#FCFAE0"/>
		<stop  offset="0.1203" style="stop-color:#FDFADB"/>
		<stop  offset="0.2662" style="stop-color:#FFF8CB"/>
		<stop  offset="0.4255" style="stop-color:#FDF6B2"/>
		<stop  offset="0.5943" style="stop-color:#FDEF90"/>
		<stop  offset="0.7706" style="stop-color:#FFE963"/>
		<stop  offset="0.9506" style="stop-color:#FFE22C"/>
		<stop  offset="1" style="stop-color:#FFDF18"/>
	</radialGradient>
	<path id="DHAP_path1" fill="url(#DHAP_path1_1_)" stroke="#000000" d="M62.394,314.585c0,5.786-11.338,10.478-25.316,10.478
		c-13.98,0-25.314-4.689-25.314-10.478s11.334-10.476,25.314-10.476C51.056,304.11,62.394,308.798,62.394,314.585z"/>
	<text transform="matrix(1 0 0 1 22.3066 318.1084)" font-family="'MyriadPro-Regular'" font-size="12">DHAP</text>
</g>
<g>
	<g>
		<line fill="none" stroke="#000000" x1="195.755" y1="314.586" x2="69" y2="314.586"/>
		<polygon points="71.809,310.883 70.236,314.586 71.809,318.29 63.031,314.586 		"/>
		<polygon points="192.946,318.289 194.52,314.586 192.946,310.882 201.725,314.586 		"/>
	</g>
</g>
<g>
	<g>
		<line fill="none" stroke="#000000" x1="62.394" y1="303.845" x2="133.181" y2="273.419"/>
		<polygon points="63.512,299.333 63.529,303.356 66.437,306.139 56.909,306.202 		"/>
	</g>
</g>
<line fill="none" stroke="#000000" x1="132.376" y1="255.586" x2="132.376" y2="273.545"/>
<g>
	<g>
		<line fill="none" stroke="#000000" x1="203.431" y1="303.844" x2="132.644" y2="273.418"/>
		<polygon points="199.388,306.137 202.295,303.355 202.312,299.332 208.915,306.201 		"/>
	</g>
</g>
<g>
	<g>
		<line fill="none" stroke="#000000" x1="132.376" y1="228.5" x2="132.376" y2="180.5"/>
		<polygon points="128.673,225.691 132.376,227.264 136.08,225.691 132.376,234.469 		"/>
	</g>
</g>
<g>
	<g>
		<line fill="none" stroke="#000000" x1="132.342" y1="154.108" x2="132.41" y2="106.108"/>
		<polygon points="136.109,108.922 132.408,107.344 128.702,108.911 132.419,100.139 		"/>
		<polygon points="128.643,151.294 132.344,152.872 136.05,151.305 132.333,160.077 		"/>
	</g>
</g>
<g>
	<g>
		<line fill="none" stroke="#000000" x1="228.023" y1="356.064" x2="228.023" y2="308.064"/>
		<polygon points="224.32,353.256 228.023,354.829 231.728,353.256 228.023,362.034 		"/>
	</g>
</g>
<g id="G3P">
	
		<radialGradient id="G3P_path1_1_" cx="78.7842" cy="-117.1807" r="16.186" gradientTransform="matrix(1.5933 0 0 0.6358 102.498 389.0895)" gradientUnits="userSpaceOnUse">
		<stop  offset="0" style="stop-color:#FCFAE0"/>
		<stop  offset="0.1203" style="stop-color:#FDFADB"/>
		<stop  offset="0.2662" style="stop-color:#FFF8CB"/>
		<stop  offset="0.4255" style="stop-color:#FDF6B2"/>
		<stop  offset="0.5943" style="stop-color:#FDEF90"/>
		<stop  offset="0.7706" style="stop-color:#FFE963"/>
		<stop  offset="0.9506" style="stop-color:#FFE22C"/>
		<stop  offset="1" style="stop-color:#FFDF18"/>
	</radialGradient>
	<path id="G3P_path1" fill="url(#G3P_path1_1_)" stroke="#000000" d="M253.339,314.585c0,5.786-11.338,10.478-25.316,10.478
		c-13.98,0-25.314-4.689-25.314-10.478s11.334-10.476,25.314-10.476C242.001,304.11,253.339,308.798,253.339,314.585z"/>
	<text transform="matrix(1 0 0 1 220.043 318.1084)" font-family="'MyriadPro-Regular'" font-size="12">G3P</text>
</g>
<g>
	<g>
		<line fill="none" stroke="#000000" x1="132.376" y1="74.083" x2="132.376" y2="26.083"/>
		<polygon points="128.673,71.274 132.376,72.847 136.08,71.274 132.376,80.052 		"/>
	</g>
</g>
<g id="Glc">
	
		<radialGradient id="Glc_path1_1_" cx="18.7529" cy="-581.2012" r="16.186" gradientTransform="matrix(1.5933 0 0 0.6358 102.498 389.0895)" gradientUnits="userSpaceOnUse">
		<stop  offset="0" style="stop-color:#FCFAE0"/>
		<stop  offset="0.1203" style="stop-color:#FDFADB"/>
		<stop  offset="0.2662" style="stop-color:#FFF8CB"/>
		<stop  offset="0.4255" style="stop-color:#FDF6B2"/>
		<stop  offset="0.5943" style="stop-color:#FDEF90"/>
		<stop  offset="0.7706" style="stop-color:#FFE963"/>
		<stop  offset="0.9506" style="stop-color:#FFE22C"/>
		<stop  offset="1" style="stop-color:#FFDF18"/>
	</radialGradient>
	<path id="Glc_path1" fill="url(#Glc_path1_1_)" stroke="#000000" d="M157.691,19.561c0,5.786-11.338,10.478-25.316,10.478
		c-13.98,0-25.314-4.689-25.314-10.478s11.334-10.476,25.314-10.476C146.354,9.086,157.691,13.773,157.691,19.561z"/>
	<text transform="matrix(1 0 0 1 124.3965 23.084)" font-family="'MyriadPro-Regular'" font-size="12">Glc</text>
</g>
<g id="F6P">
	
		<radialGradient id="F6P_path1_1_" cx="18.7529" cy="-341.3442" r="16.1858" gradientTransform="matrix(1.5933 0 0 0.6358 102.498 389.0895)" gradientUnits="userSpaceOnUse">
		<stop  offset="0" style="stop-color:#FCFAE0"/>
		<stop  offset="0.1203" style="stop-color:#FDFADB"/>
		<stop  offset="0.2662" style="stop-color:#FFF8CB"/>
		<stop  offset="0.4255" style="stop-color:#FDF6B2"/>
		<stop  offset="0.5943" style="stop-color:#FDEF90"/>
		<stop  offset="0.7706" style="stop-color:#FFE963"/>
		<stop  offset="0.9506" style="stop-color:#FFE22C"/>
		<stop  offset="1" style="stop-color:#FFDF18"/>
	</radialGradient>
	<path id="F6P_path1" fill="url(#F6P_path1_1_)" stroke="#000000" d="M157.691,172.062c0,5.786-11.338,10.477-25.316,10.477
		c-13.98,0-25.314-4.689-25.314-10.477s11.334-10.476,25.314-10.476C146.354,161.587,157.691,166.275,157.691,172.062z"/>
	<text transform="matrix(1 0 0 1 124.3965 175.5854)" font-family="'MyriadPro-Regular'" font-size="12">F6P</text>
</g>
<text transform="matrix(1 0 0 1 153.5527 60)" font-family="'MyriadPro-Regular'" font-size="12">vGK</text>
<text transform="matrix(1 0 0 1 152.2383 137.478)" font-family="'MyriadPro-Regular'" font-size="12">vGPI</text>
<text transform="matrix(1 0 0 1 151.3145 211.9561)" font-family="'MyriadPro-Regular'" font-size="12">vPFK</text>
<text transform="matrix(1 0 0 1 150.8945 273.418)" font-family="'MyriadPro-Regular'" font-size="12">vFBA</text>
<text transform="matrix(1 0 0 1 122.0625 336.9561)" font-family="'MyriadPro-Regular'" font-size="12">vTPI</text>
<text transform="matrix(1 0 0 1 240.3359 343.4785)" font-family="'MyriadPro-Regular'" font-size="12">vGAPD</text>
</svg>
