<?xml version="1.0" encoding="UTF-8" standalone="no"?>
<!DOCTYPE svg PUBLIC "-//W3C//DTD SVG 1.1//EN"
 "http://www.w3.org/Graphics/SVG/1.1/DTD/svg11.dtd">
<!-- Generated by graphviz version 2.24.0 (20090616.2323)
 -->
<!-- Title: G Pages: 1 -->
<svg width="658pt" height="224pt"
 viewBox="0.00 0.00 658.00 224.00" xmlns="http://www.w3.org/2000/svg" xmlns:xlink="http://www.w3.org/1999/xlink">
<g id="graph1" class="graph" transform="scale(1 1) rotate(0) translate(4 220)">
<title>G</title>
<polygon fill="white" stroke="white" points="-4,5 -4,-220 655,-220 655,5 -4,5"/>
<!-- M -->
<g id="node1" class="node"><title>M</title>
<polyline fill="none" stroke="black" points="42,-85 12,-85 "/>
<path fill="none" stroke="black" d="M12,-85C6,-85 2.07242e-14,-79 1.65793e-14,-73"/>
<polyline fill="none" stroke="black" points="1.65793e-14,-73 8.28967e-15,-61 "/>
<path fill="none" stroke="black" d="M8.28967e-15,-61C4.14483e-15,-55 6,-49 12,-49"/>
<polyline fill="none" stroke="black" points="12,-49 42,-49 "/>
<path fill="none" stroke="black" d="M42,-49C48,-49 54,-55 54,-61"/>
<polyline fill="none" stroke="black" points="54,-61 54,-73 "/>
<path fill="none" stroke="black" d="M54,-73C54,-79 48,-85 42,-85"/>
<text text-anchor="middle" x="27" y="-64.5" font-family="Times Roman,serif" font-size="10.00">M</text>
</g>
<!-- v1_intermediate_r -->
<g id="node7" class="node"><title>v1_intermediate_r</title>
<ellipse fill="black" stroke="black" cx="91" cy="-97" rx="0.036" ry="0.036"/>
</g>
<!-- M&#45;&gt;v1_intermediate_r -->
<g id="edge4" class="edge"><title>M&#45;&gt;v1_intermediate_r</title>
<path fill="none" stroke="black" d="M54.1418,-79.7227C71.0399,-87.6437 89.7885,-96.4321 90.9438,-96.9736"/>
</g>
<!-- v2_intermediate_m -->
<g id="node23" class="node"><title>v2_intermediate_m</title>
<ellipse fill="black" stroke="black" cx="435" cy="-76" rx="0.036" ry="0.036"/>
</g>
<!-- M&#45;&gt;v2_intermediate_m -->
<g id="edge26" class="edge"><title>M&#45;&gt;v2_intermediate_m</title>
<path fill="none" stroke="black" d="M54.0636,-57.1819C79.699,-48.7688 119.455,-38 155,-38 155,-38 155,-38 347,-38 388.27,-38 432.165,-73.6621 434.868,-75.891"/>
</g>
<!-- v3_intermediate_m -->
<g id="node34" class="node"><title>v3_intermediate_m</title>
<ellipse fill="black" stroke="black" cx="650" cy="-68" rx="0.036" ry="0.036"/>
</g>
<!-- M&#45;&gt;v3_intermediate_m -->
<g id="edge40" class="edge"><title>M&#45;&gt;v3_intermediate_m</title>
<path fill="none" stroke="black" d="M47.0388,-48.692C70.9048,-28.8545 112.861,-0 155,-0 155,-0 155,-0 563,-0 611.31,-0 648.812,-65.8916 649.972,-67.9507"/>
</g>
<!-- Mp -->
<g id="node2" class="node"><title>Mp</title>
<polyline fill="none" stroke="black" points="298,-149 268,-149 "/>
<path fill="none" stroke="black" d="M268,-149C262,-149 256,-143 256,-137"/>
<polyline fill="none" stroke="black" points="256,-137 256,-125 "/>
<path fill="none" stroke="black" d="M256,-125C256,-119 262,-113 268,-113"/>
<polyline fill="none" stroke="black" points="268,-113 298,-113 "/>
<path fill="none" stroke="black" d="M298,-113C304,-113 310,-119 310,-125"/>
<polyline fill="none" stroke="black" points="310,-125 310,-137 "/>
<path fill="none" stroke="black" d="M310,-137C310,-143 304,-149 298,-149"/>
<text text-anchor="middle" x="283" y="-128.5" font-family="Times Roman,serif" font-size="10.00">Mp</text>
</g>
<!-- v2_intermediate_r -->
<g id="node17" class="node"><title>v2_intermediate_r</title>
<ellipse fill="black" stroke="black" cx="347" cy="-115" rx="0.036" ry="0.036"/>
</g>
<!-- Mp&#45;&gt;v2_intermediate_r -->
<g id="edge16" class="edge"><title>Mp&#45;&gt;v2_intermediate_r</title>
<path fill="none" stroke="black" d="M310.142,-124.215C327.04,-119.99 345.788,-115.303 346.944,-115.014"/>
</g>
<!-- v4_intermediate_r -->
<g id="node39" class="node"><title>v4_intermediate_r</title>
<ellipse fill="black" stroke="black" cx="347" cy="-137" rx="0.036" ry="0.036"/>
</g>
<!-- Mp&#45;&gt;v4_intermediate_r -->
<g id="edge44" class="edge"><title>Mp&#45;&gt;v4_intermediate_r</title>
<path fill="none" stroke="black" d="M310.142,-133.545C327.04,-135.129 345.788,-136.886 346.944,-136.995"/>
</g>
<!-- Mpp -->
<g id="node3" class="node"><title>Mpp</title>
<polyline fill="none" stroke="black" points="514,-178 484,-178 "/>
<path fill="none" stroke="black" d="M484,-178C478,-178 472,-172 472,-166"/>
<polyline fill="none" stroke="black" points="472,-166 472,-154 "/>
<path fill="none" stroke="black" d="M472,-154C472,-148 478,-142 484,-142"/>
<polyline fill="none" stroke="black" points="484,-142 514,-142 "/>
<path fill="none" stroke="black" d="M514,-142C520,-142 526,-148 526,-154"/>
<polyline fill="none" stroke="black" points="526,-154 526,-166 "/>
<path fill="none" stroke="black" d="M526,-166C526,-172 520,-178 514,-178"/>
<text text-anchor="middle" x="499" y="-157.5" font-family="Times Roman,serif" font-size="10.00">Mpp</text>
</g>
<!-- v3_intermediate_r -->
<g id="node28" class="node"><title>v3_intermediate_r</title>
<ellipse fill="black" stroke="black" cx="563" cy="-160" rx="0.036" ry="0.036"/>
</g>
<!-- Mpp&#45;&gt;v3_intermediate_r -->
<g id="edge30" class="edge"><title>Mpp&#45;&gt;v3_intermediate_r</title>
<path fill="none" stroke="black" d="M526.142,-160C543.04,-160 561.788,-160 562.944,-160"/>
</g>
<!-- v4_intermediate_m -->
<g id="node45" class="node"><title>v4_intermediate_m</title>
<ellipse fill="black" stroke="black" cx="563" cy="-114" rx="0.036" ry="0.036"/>
</g>
<!-- Mpp&#45;&gt;v4_intermediate_m -->
<g id="edge54" class="edge"><title>Mpp&#45;&gt;v4_intermediate_m</title>
<path fill="none" stroke="black" d="M524.294,-141.82C541.625,-129.364 561.702,-114.933 562.94,-114.043"/>
</g>
<!-- MAPKK -->
<g id="node4" class="node"><title>MAPKK</title>
<polyline fill="none" stroke="black" points="170,-102 140,-102 "/>
<path fill="none" stroke="black" d="M140,-102C134,-102 128,-96 128,-90"/>
<polyline fill="none" stroke="black" points="128,-90 128,-78 "/>
<path fill="none" stroke="black" d="M128,-78C128,-72 134,-66 140,-66"/>
<polyline fill="none" stroke="black" points="140,-66 170,-66 "/>
<path fill="none" stroke="black" d="M170,-66C176,-66 182,-72 182,-78"/>
<polyline fill="none" stroke="black" points="182,-78 182,-90 "/>
<path fill="none" stroke="black" d="M182,-90C182,-96 176,-102 170,-102"/>
<text text-anchor="middle" x="155" y="-81.5" font-family="Times Roman,serif" font-size="10.00">MAPKK</text>
</g>
<!-- v1_intermediate_m -->
<g id="node13" class="node"><title>v1_intermediate_m</title>
<ellipse fill="black" stroke="black" cx="219" cy="-106" rx="0.036" ry="0.036"/>
</g>
<!-- MAPKK&#45;&gt;v1_intermediate_m -->
<g id="edge12" class="edge"><title>MAPKK&#45;&gt;v1_intermediate_m</title>
<path fill="none" stroke="black" d="M182.142,-93.33C199.04,-99.1387 217.788,-105.584 218.944,-105.981"/>
</g>
<!-- MAPKK&#45;&gt;v2_intermediate_m -->
<g id="edge24" class="edge"><title>MAPKK&#45;&gt;v2_intermediate_m</title>
<path fill="none" stroke="black" d="M182.435,-81.2916C208.333,-78.9707 248.266,-76 283,-76 283,-76 283,-76 347,-76 384.889,-76 431.954,-76 434.859,-76"/>
</g>
<!-- MKP3 -->
<g id="node5" class="node"><title>MKP3</title>
<polyline fill="none" stroke="black" points="514,-86 484,-86 "/>
<path fill="none" stroke="black" d="M484,-86C478,-86 472,-80 472,-74"/>
<polyline fill="none" stroke="black" points="472,-74 472,-62 "/>
<path fill="none" stroke="black" d="M472,-62C472,-56 478,-50 484,-50"/>
<polyline fill="none" stroke="black" points="484,-50 514,-50 "/>
<path fill="none" stroke="black" d="M514,-50C520,-50 526,-56 526,-62"/>
<polyline fill="none" stroke="black" points="526,-62 526,-74 "/>
<path fill="none" stroke="black" d="M526,-74C526,-80 520,-86 514,-86"/>
<text text-anchor="middle" x="499" y="-65.5" font-family="Times Roman,serif" font-size="10.00">MKP3</text>
</g>
<!-- MKP3&#45;&gt;v3_intermediate_m -->
<g id="edge38" class="edge"><title>MKP3&#45;&gt;v3_intermediate_m</title>
<path fill="none" stroke="black" d="M526.345,-68C569.179,-68 647.505,-68 649.942,-68"/>
</g>
<!-- MKP3&#45;&gt;v4_intermediate_m -->
<g id="edge52" class="edge"><title>MKP3&#45;&gt;v4_intermediate_m</title>
<path fill="none" stroke="black" d="M524.294,-86.1804C541.625,-98.6364 561.702,-113.067 562.94,-113.957"/>
</g>
<!-- v1 -->
<g id="node6" class="node"><title>v1</title>
<polygon fill="none" stroke="black" points="162,-134 148,-134 148,-120 162,-120 162,-134"/>
</g>
<!-- v1_intermediate_p -->
<g id="node10" class="node"><title>v1_intermediate_p</title>
<ellipse fill="black" stroke="black" cx="219" cy="-129" rx="0.036" ry="0.036"/>
</g>
<!-- v1&#45;&gt;v1_intermediate_p -->
<g id="edge6" class="edge"><title>v1&#45;&gt;v1_intermediate_p</title>
<path fill="none" stroke="black" d="M162.342,-127.229C178.627,-127.738 216.532,-128.923 218.885,-128.996"/>
</g>
<!-- v1&#45;&gt;v1_intermediate_m -->
<g id="edge10" class="edge"><title>v1&#45;&gt;v1_intermediate_m</title>
<path fill="none" stroke="black" d="M173.932,-120.788C192.077,-114.834 216.992,-106.659 218.885,-106.038"/>
<polygon fill="none" stroke="black" points="173.744,-120.85 169.29,-126.521 162.342,-124.591 166.795,-118.92 173.744,-120.85"/>
</g>
<!-- v1_intermediate_r&#45;&gt;v1 -->
<g id="edge2" class="edge"><title>v1_intermediate_r&#45;&gt;v1</title>
<path fill="none" stroke="black" d="M91.0464,-97.0217C92.5756,-97.7386 131.51,-115.989 147.868,-123.657"/>
</g>
<!-- v1_intermediate_p&#45;&gt;Mp -->
<g id="edge8" class="edge"><title>v1_intermediate_p&#45;&gt;Mp</title>
<path fill="none" stroke="black" d="M219.046,-129.001C219.885,-129.028 231.971,-129.405 245.414,-129.825"/>
<polygon fill="black" stroke="black" points="245.69,-133.336 255.794,-130.15 245.909,-126.339 245.69,-133.336"/>
</g>
<!-- v2 -->
<g id="node16" class="node"><title>v2</title>
<polygon fill="none" stroke="black" points="398,-118 384,-118 384,-104 398,-104 398,-118"/>
</g>
<!-- v2_intermediate_p -->
<g id="node20" class="node"><title>v2_intermediate_p</title>
<ellipse fill="black" stroke="black" cx="435" cy="-146" rx="0.036" ry="0.036"/>
</g>
<!-- v2&#45;&gt;v2_intermediate_p -->
<g id="edge18" class="edge"><title>v2&#45;&gt;v2_intermediate_p</title>
<path fill="none" stroke="black" d="M398.266,-116.78C410.372,-126.41 433.497,-144.804 434.93,-145.944"/>
</g>
<!-- v2&#45;&gt;v2_intermediate_m -->
<g id="edge22" class="edge"><title>v2&#45;&gt;v2_intermediate_m</title>
<path fill="none" stroke="black" d="M407.811,-97.6279C419.737,-88.1409 433.821,-76.9375 434.93,-76.0556"/>
<polygon fill="none" stroke="black" points="407.657,-97.7501 405.451,-104.616 398.266,-105.22 400.471,-98.3549 407.657,-97.7501"/>
</g>
<!-- v2_intermediate_r&#45;&gt;v2 -->
<g id="edge14" class="edge"><title>v2_intermediate_r&#45;&gt;v2</title>
<path fill="none" stroke="black" d="M347.126,-114.989C349.022,-114.816 371.795,-112.746 383.759,-111.658"/>
</g>
<!-- v2_intermediate_p&#45;&gt;Mpp -->
<g id="edge20" class="edge"><title>v2_intermediate_p&#45;&gt;Mpp</title>
<path fill="none" stroke="black" d="M435.046,-146.01C435.893,-146.195 448.209,-148.889 461.809,-151.865"/>
<polygon fill="black" stroke="black" points="461.277,-155.331 471.794,-154.049 462.773,-148.493 461.277,-155.331"/>
</g>
<!-- v3 -->
<g id="node27" class="node"><title>v3</title>
<polygon fill="none" stroke="black" points="614,-167 600,-167 600,-153 614,-153 614,-167"/>
</g>
<!-- v3_intermediate_p -->
<g id="node31" class="node"><title>v3_intermediate_p</title>
<ellipse fill="black" stroke="black" cx="650" cy="-188" rx="0.036" ry="0.036"/>
</g>
<!-- v3&#45;&gt;v3_intermediate_p -->
<g id="edge32" class="edge"><title>v3&#45;&gt;v3_intermediate_p</title>
<path fill="none" stroke="black" d="M614.101,-164.624C625.932,-172.328 648.531,-187.043 649.932,-187.956"/>
</g>
<!-- v3&#45;&gt;v3_intermediate_m -->
<g id="edge36" class="edge"><title>v3&#45;&gt;v3_intermediate_m</title>
<path fill="none" stroke="black" d="M615.567,-141.671C627.883,-115.321 649.209,-69.6921 649.979,-68.0458"/>
<polygon fill="none" stroke="black" points="615.455,-141.91 616.538,-149.039 610.374,-152.781 609.291,-145.652 615.455,-141.91"/>
</g>
<!-- v3_intermediate_r&#45;&gt;v3 -->
<g id="edge28" class="edge"><title>v3_intermediate_r&#45;&gt;v3</title>
<path fill="none" stroke="black" d="M563.126,-160C565.022,-160 587.795,-160 599.759,-160"/>
</g>
<!-- v3_intermediate_p&#45;&gt;Mp -->
<g id="edge34" class="edge"><title>v3_intermediate_p&#45;&gt;Mp</title>
<path fill="none" stroke="black" d="M649.866,-188.08C647.107,-189.723 602.351,-216 563,-216 391,-216 391,-216 391,-216 352.581,-216 319.766,-182.374 300.704,-157.421"/>
<polygon fill="black" stroke="black" points="303.284,-155.021 294.548,-149.026 297.639,-159.16 303.284,-155.021"/>
</g>
<!-- v4 -->
<g id="node38" class="node"><title>v4</title>
<polygon fill="none" stroke="black" points="398,-150 384,-150 384,-136 398,-136 398,-150"/>
</g>
<!-- v4_intermediate_p -->
<g id="node42" class="node"><title>v4_intermediate_p</title>
<ellipse fill="black" stroke="black" cx="435" cy="-173" rx="0.036" ry="0.036"/>
</g>
<!-- v4&#45;&gt;v4_intermediate_p -->
<g id="edge46" class="edge"><title>v4&#45;&gt;v4_intermediate_p</title>
<path fill="none" stroke="black" d="M398.266,-147.954C410.372,-156.208 433.497,-171.975 434.93,-172.952"/>
</g>
<!-- v4&#45;&gt;v4_intermediate_m -->
<g id="edge50" class="edge"><title>v4&#45;&gt;v4_intermediate_m</title>
<path fill="none" stroke="black" d="M410.418,-139.726C454.636,-132.271 559.299,-114.624 562.904,-114.016"/>
<polygon fill="none" stroke="black" points="410.224,-139.759 404.972,-144.701 398.391,-141.754 403.642,-136.812 410.224,-139.759"/>
</g>
<!-- v4_intermediate_r&#45;&gt;v4 -->
<g id="edge42" class="edge"><title>v4_intermediate_r&#45;&gt;v4</title>
<path fill="none" stroke="black" d="M347.126,-137.017C349.022,-137.276 371.795,-140.381 383.759,-142.013"/>
</g>
<!-- v4_intermediate_p&#45;&gt;M -->
<g id="edge48" class="edge"><title>v4_intermediate_p&#45;&gt;M</title>
<path fill="none" stroke="black" d="M434.859,-173.014C431.958,-173.308 384.95,-178 347,-178 155,-178 155,-178 155,-178 103.916,-178 63.2333,-126.914 42.35,-94.056"/>
<polygon fill="black" stroke="black" points="45.2073,-92.0205 36.9926,-85.3294 39.2417,-95.6828 45.2073,-92.0205"/>
</g>
</g>
</svg>
