<?xml version="1.0" encoding="utf-8"?>
<!-- Generator: Adobe Illustrator 13.0.0, SVG Export Plug-In . SVG Version: 6.00 Build 14948)  -->
<!DOCTYPE svg PUBLIC "-//W3C//DTD SVG 1.1//EN" "http://www.w3.org/Graphics/SVG/1.1/DTD/svg11.dtd">
<svg version="1.1" id="Layer_1" xmlns="http://www.w3.org/2000/svg" xmlns:xlink="http://www.w3.org/1999/xlink" x="0px" y="0px"
	 width="327.149px" height="426.145px" viewBox="0 0 327.149 426.145" enable-background="new 0 0 327.149 426.145"
	 xml:space="preserve">
<g>
	<circle fill="#231F20" stroke="#231F20" cx="23.22" cy="48.031" r="5.114"/>
	<circle fill="none" stroke="#231F20" cx="34.158" cy="48.031" r="5.114"/>
</g>
<path fill="none" stroke="#000000" stroke-width="2" d="M74.314,20.125c4.718,0,8.542,3.824,8.542,8.542s-3.824,8.542-8.542,8.542
	V75.25"/>
<path fill="none" stroke="#000000" stroke-width="2" d="M149.522,20.125c-4.718,0-8.542,3.824-8.542,8.542s3.824,8.542,8.542,8.542
	V75.25"/>
<g>
	<circle fill="#231F20" stroke="#231F20" cx="151.72" cy="28.698" r="5.114"/>
	<circle fill="none" stroke="#231F20" cx="162.658" cy="28.698" r="5.114"/>
</g>
<g>
	<polyline fill="none" stroke="#231F20" points="91.064,44.375 127.501,44.375 119.939,36.813 	"/>
	<polyline fill="none" stroke="#231F20" points="128.626,49.313 92.189,49.313 99.751,56.875 	"/>
</g>
<g>
	<path fill="none" stroke="#000000" stroke-width="2" d="M26.7,201.99c-4.718,0-8.542,3.824-8.542,8.542s3.824,8.542,8.542,8.542
		v38.042"/>
	<g>
		<circle fill="#231F20" stroke="#231F20" cx="28.897" cy="210.563" r="5.114"/>
		<circle fill="none" stroke="#231F20" cx="39.835" cy="210.563" r="5.114"/>
	</g>
</g>
<path fill="none" stroke="#000000" stroke-width="2" d="M78.314,201.99c4.718,0,8.542,3.824,8.542,8.542s-3.824,8.542-8.542,8.542
	v38.042"/>
<g>
	<path fill="none" stroke="#000000" stroke-width="2" d="M248.2,201.49c-4.719,0-8.543,3.824-8.543,8.542s3.824,8.542,8.543,8.542
		v38.042"/>
	<g>
		<circle fill="#231F20" stroke="#231F20" cx="287.397" cy="210.063" r="5.114"/>
		<circle fill="none" stroke="#231F20" cx="298.336" cy="210.063" r="5.114"/>
	</g>
</g>
<path fill="none" stroke="#000000" stroke-width="2" d="M299.813,201.49c4.719,0,8.543,3.824,8.543,8.542s-3.824,8.542-8.543,8.542
	v38.042"/>
<g>
	<g>
		<circle fill="#231F20" stroke="#231F20" cx="23.397" cy="365.563" r="5.114"/>
		<circle fill="none" stroke="#231F20" cx="34.335" cy="365.563" r="5.114"/>
	</g>
	<path fill="none" stroke="#000000" stroke-width="2" d="M35.814,356.99c4.718,0,8.542,3.823,8.542,8.542
		c0,4.717-3.824,8.541-8.542,8.541v38.042"/>
</g>
<path fill="none" stroke="#000000" stroke-width="2" d="M113.814,356.49c4.718,0,8.542,3.823,8.542,8.542
	c0,4.717-3.824,8.541-8.542,8.541v38.042"/>
<g>
	<circle fill="#231F20" stroke="#231F20" cx="154.897" cy="386.313" r="5.114"/>
	<circle fill="none" stroke="#231F20" cx="165.835" cy="386.313" r="5.114"/>
</g>
<g>
	<polyline fill="none" stroke="#231F20" points="100.314,228.625 136.751,228.625 129.189,221.063 	"/>
	<polyline fill="none" stroke="#231F20" points="137.876,233.563 101.439,233.563 109.001,241.125 	"/>
</g>
<g>
	<path d="M53.318,40.294v5.641h5.424v1.44h-5.424v5.688h-1.536v-5.688h-5.425v-1.44h5.425v-5.641H53.318z"/>
</g>
<g>
	<path d="M55.568,222.544v5.641h5.424v1.44h-5.424v5.688h-1.536v-5.688h-5.425v-1.44h5.425v-5.641H55.568z"/>
</g>
<g>
	<path d="M267.318,222.544v5.641h5.425v1.44h-5.425v5.688h-1.536v-5.688h-5.425v-1.44h5.425v-5.641H267.318z"/>
</g>
<g>
	<path d="M134.568,380.043v5.641h5.424v1.44h-5.424v5.688h-1.536v-5.688h-5.425v-1.44h5.425v-5.641H134.568z"/>
</g>
<g>
	<g>
		<line fill="none" stroke="#231F20" x1="72.022" y1="108.188" x2="72.022" y2="158.438"/>
		<polygon fill="#231F20" points="75.726,110.997 72.022,109.424 68.318,110.997 72.022,102.219 		"/>
	</g>
</g>
<g>
	<g>
		<line fill="none" stroke="#231F20" x1="121.772" y1="126.188" x2="147.311" y2="100.697"/>
		<polygon fill="#231F20" points="121.144,121.583 122.647,125.315 126.377,126.826 117.548,130.405 		"/>
	</g>
</g>
<g>
	<g>
		<line fill="none" stroke="#231F20" x1="81.022" y1="105.938" x2="133.022" y2="157.813"/>
		<polygon fill="#231F20" points="85.626,105.3 81.897,106.811 80.395,110.544 76.796,101.722 		"/>
	</g>
</g>
<g>
	<g>
		<line fill="none" stroke="#231F20" x1="137.398" y1="153.44" x2="85.398" y2="101.565"/>
		<polygon fill="#231F20" points="132.794,154.078 136.523,152.567 138.025,148.834 141.624,157.656 		"/>
	</g>
</g>
<g>
	<g>
		<line fill="none" stroke="#231F20" x1="167.022" y1="307.188" x2="167.022" y2="282.563"/>
		<polygon fill="#231F20" points="163.319,304.379 167.022,305.952 170.727,304.379 167.022,313.157 		"/>
	</g>
</g>
<g>
	<g>
		<line fill="none" stroke="#231F20" x1="224.647" y1="230.876" x2="195.459" y2="230.876"/>
		<polygon fill="#231F20" points="221.839,234.58 223.411,230.876 221.839,227.172 230.616,230.876 		"/>
	</g>
</g>
<g>
	<g>
		<line fill="none" stroke="#231F20" x1="84.397" y1="386.126" x2="55.209" y2="386.126"/>
		<polygon fill="#231F20" points="81.589,389.83 83.161,386.126 81.589,382.422 90.366,386.126 		"/>
	</g>
</g>
<g>
	<path d="M49.919,173.469c0.364,0.238,1.009,0.49,1.625,0.49c0.896,0,1.316-0.448,1.316-1.008c0-0.588-0.35-0.911-1.261-1.247
		c-1.219-0.434-1.793-1.106-1.793-1.919c0-1.092,0.883-1.989,2.34-1.989c0.686,0,1.288,0.196,1.667,0.42l-0.309,0.896
		c-0.267-0.168-0.757-0.392-1.387-0.392c-0.729,0-1.135,0.42-1.135,0.924c0,0.561,0.406,0.813,1.289,1.149
		c1.177,0.448,1.778,1.037,1.778,2.045c0,1.191-0.924,2.045-2.535,2.045c-0.742,0-1.429-0.196-1.905-0.477L49.919,173.469z"/>
	<path d="M56.079,167.95l1.485,4.006c0.153,0.448,0.321,0.98,0.434,1.387h0.028c0.126-0.406,0.266-0.924,0.435-1.415l1.345-3.979
		h1.303l-1.85,4.833c-0.883,2.326-1.484,3.516-2.325,4.245c-0.603,0.532-1.204,0.742-1.513,0.798l-0.309-1.037
		c0.309-0.098,0.715-0.294,1.079-0.603c0.336-0.266,0.756-0.742,1.036-1.373c0.057-0.126,0.099-0.224,0.099-0.294
		c0-0.07-0.028-0.168-0.084-0.322l-2.508-6.248H56.079z"/>
	<path d="M62.225,169.785c0-0.7-0.014-1.274-0.056-1.835h1.093l0.069,1.121h0.028c0.336-0.644,1.12-1.274,2.241-1.274
		c0.938,0,2.396,0.56,2.396,2.885v4.048h-1.233v-3.908c0-1.092-0.406-2.003-1.568-2.003c-0.813,0-1.442,0.574-1.653,1.261
		c-0.056,0.154-0.084,0.364-0.084,0.574v4.076h-1.232V169.785z"/>
	<path d="M71.424,166.325v1.625h1.765v0.938h-1.765v3.656c0,0.84,0.237,1.316,0.924,1.316c0.336,0,0.532-0.028,0.715-0.084
		l0.056,0.925c-0.238,0.098-0.616,0.182-1.093,0.182c-0.574,0-1.036-0.196-1.33-0.533c-0.351-0.364-0.477-0.966-0.477-1.765v-3.698
		h-1.051v-0.938h1.051v-1.247L71.424,166.325z"/>
	<path d="M74.572,164.784h1.232v4.23h0.028c0.196-0.35,0.504-0.658,0.883-0.868c0.364-0.21,0.798-0.35,1.261-0.35
		c0.91,0,2.367,0.56,2.367,2.899v4.034H79.11v-3.894c0-1.093-0.406-2.017-1.568-2.017c-0.799,0-1.429,0.56-1.653,1.232
		c-0.069,0.168-0.084,0.351-0.084,0.588v4.09h-1.232V164.784z"/>
	<path d="M83.029,171.564c0.028,1.667,1.093,2.353,2.325,2.353c0.883,0,1.415-0.154,1.877-0.35l0.21,0.882
		c-0.434,0.196-1.177,0.435-2.255,0.435c-2.087,0-3.334-1.387-3.334-3.432s1.205-3.656,3.18-3.656c2.213,0,2.802,1.947,2.802,3.193
		c0,0.252-0.028,0.448-0.042,0.575H83.029z M86.644,170.681c0.014-0.784-0.322-2.003-1.709-2.003c-1.247,0-1.793,1.148-1.892,2.003
		H86.644z"/>
	<path d="M89.188,173.469c0.364,0.238,1.009,0.49,1.625,0.49c0.896,0,1.316-0.448,1.316-1.008c0-0.588-0.35-0.911-1.261-1.247
		c-1.219-0.434-1.793-1.106-1.793-1.919c0-1.092,0.883-1.989,2.34-1.989c0.686,0,1.288,0.196,1.667,0.42l-0.309,0.896
		c-0.267-0.168-0.757-0.392-1.387-0.392c-0.729,0-1.135,0.42-1.135,0.924c0,0.561,0.406,0.813,1.289,1.149
		c1.177,0.448,1.778,1.037,1.778,2.045c0,1.191-0.924,2.045-2.535,2.045c-0.742,0-1.429-0.196-1.905-0.477L89.188,173.469z"/>
	<path d="M96.273,166.045c0.014,0.42-0.294,0.756-0.784,0.756c-0.435,0-0.743-0.336-0.743-0.756c0-0.435,0.322-0.771,0.771-0.771
		C95.979,165.274,96.273,165.61,96.273,166.045z M94.9,174.729v-6.78h1.232v6.78H94.9z"/>
	<path d="M98.008,173.469c0.364,0.238,1.009,0.49,1.625,0.49c0.896,0,1.316-0.448,1.316-1.008c0-0.588-0.35-0.911-1.261-1.247
		c-1.219-0.434-1.793-1.106-1.793-1.919c0-1.092,0.883-1.989,2.34-1.989c0.686,0,1.288,0.196,1.667,0.42l-0.309,0.896
		c-0.267-0.168-0.757-0.392-1.387-0.392c-0.729,0-1.135,0.42-1.135,0.924c0,0.561,0.406,0.813,1.289,1.149
		c1.177,0.448,1.778,1.037,1.778,2.045c0,1.191-0.924,2.045-2.535,2.045c-0.742,0-1.429-0.196-1.905-0.477L98.008,173.469z"/>
</g>
<g>
	<path d="M202.275,164.618v8.194c0,0.603,0.014,1.289,0.056,1.751h-1.106l-0.056-1.177h-0.028c-0.378,0.756-1.205,1.331-2.312,1.331
		c-1.639,0-2.899-1.387-2.899-3.446c-0.014-2.255,1.387-3.642,3.04-3.642c1.036,0,1.736,0.49,2.045,1.037h0.028v-4.048H202.275z
		 M201.043,170.543c0-0.154-0.015-0.364-0.057-0.519c-0.182-0.784-0.854-1.429-1.778-1.429c-1.275,0-2.031,1.121-2.031,2.62
		c0,1.373,0.672,2.507,2.003,2.507c0.826,0,1.583-0.546,1.807-1.471c0.042-0.168,0.057-0.336,0.057-0.533V170.543z"/>
	<path d="M205.002,171.397c0.028,1.667,1.093,2.353,2.325,2.353c0.883,0,1.415-0.154,1.877-0.35l0.21,0.882
		c-0.434,0.196-1.177,0.435-2.255,0.435c-2.087,0-3.334-1.387-3.334-3.432c0-2.045,1.205-3.656,3.18-3.656
		c2.213,0,2.802,1.947,2.802,3.193c0,0.252-0.028,0.448-0.042,0.575H205.002z M208.616,170.515c0.014-0.784-0.322-2.003-1.709-2.003
		c-1.247,0-1.793,1.148-1.892,2.003H208.616z"/>
	<path d="M217.115,173.583c0,1.555-0.308,2.507-0.967,3.096c-0.658,0.616-1.61,0.813-2.465,0.813c-0.813,0-1.709-0.196-2.255-0.561
		l0.308-0.938c0.448,0.28,1.148,0.532,1.989,0.532c1.261,0,2.186-0.658,2.186-2.367V173.4h-0.028
		c-0.378,0.63-1.106,1.135-2.157,1.135c-1.681,0-2.886-1.429-2.886-3.306c0-2.297,1.499-3.6,3.054-3.6
		c1.177,0,1.821,0.616,2.115,1.176h0.028l0.056-1.022h1.078c-0.027,0.49-0.056,1.037-0.056,1.863V173.583z M215.896,170.459
		c0-0.21-0.014-0.393-0.07-0.561c-0.224-0.714-0.826-1.303-1.723-1.303c-1.177,0-2.017,0.995-2.017,2.563
		c0,1.331,0.672,2.438,2.003,2.438c0.756,0,1.442-0.477,1.709-1.261c0.069-0.21,0.098-0.448,0.098-0.659V170.459z"/>
	<path d="M219.071,169.898c0-0.798-0.014-1.485-0.056-2.115h1.078l0.042,1.331h0.057c0.308-0.911,1.05-1.485,1.877-1.485
		c0.14,0,0.238,0.014,0.35,0.042v1.163c-0.126-0.028-0.252-0.042-0.42-0.042c-0.868,0-1.484,0.658-1.653,1.583
		c-0.027,0.168-0.056,0.364-0.056,0.575v3.614h-1.219V169.898z"/>
	<path d="M228.343,172.938c0,0.588,0.028,1.163,0.112,1.625h-1.121l-0.098-0.854h-0.042c-0.379,0.532-1.106,1.009-2.073,1.009
		c-1.373,0-2.073-0.967-2.073-1.947c0-1.639,1.457-2.535,4.076-2.521v-0.14c0-0.56-0.154-1.569-1.541-1.569
		c-0.63,0-1.288,0.196-1.765,0.504l-0.28-0.813c0.561-0.364,1.373-0.602,2.228-0.602c2.073,0,2.577,1.415,2.577,2.773V172.938z
		 M227.152,171.103c-1.345-0.028-2.872,0.21-2.872,1.527c0,0.798,0.532,1.177,1.163,1.177c0.882,0,1.442-0.561,1.639-1.135
		c0.042-0.126,0.07-0.266,0.07-0.392V171.103z"/>
	<path d="M236.184,164.618v8.194c0,0.603,0.014,1.289,0.056,1.751h-1.106l-0.056-1.177h-0.028c-0.378,0.756-1.205,1.331-2.312,1.331
		c-1.639,0-2.899-1.387-2.899-3.446c-0.014-2.255,1.387-3.642,3.04-3.642c1.036,0,1.736,0.49,2.045,1.037h0.028v-4.048H236.184z
		 M234.951,170.543c0-0.154-0.015-0.364-0.057-0.519c-0.182-0.784-0.854-1.429-1.778-1.429c-1.275,0-2.031,1.121-2.031,2.62
		c0,1.373,0.672,2.507,2.003,2.507c0.826,0,1.583-0.546,1.807-1.471c0.042-0.168,0.057-0.336,0.057-0.533V170.543z"/>
	<path d="M238.91,171.397c0.028,1.667,1.093,2.353,2.325,2.353c0.883,0,1.415-0.154,1.877-0.35l0.21,0.882
		c-0.434,0.196-1.177,0.435-2.255,0.435c-2.087,0-3.334-1.387-3.334-3.432c0-2.045,1.205-3.656,3.18-3.656
		c2.213,0,2.802,1.947,2.802,3.193c0,0.252-0.028,0.448-0.042,0.575H238.91z M242.524,170.515c0.014-0.784-0.322-2.003-1.709-2.003
		c-1.247,0-1.793,1.148-1.892,2.003H242.524z"/>
	<path d="M251.093,164.618v8.194c0,0.603,0.014,1.289,0.056,1.751h-1.106l-0.056-1.177h-0.028c-0.378,0.756-1.205,1.331-2.312,1.331
		c-1.639,0-2.899-1.387-2.899-3.446c-0.014-2.255,1.387-3.642,3.04-3.642c1.036,0,1.736,0.49,2.045,1.037h0.028v-4.048H251.093z
		 M249.86,170.543c0-0.154-0.015-0.364-0.057-0.519c-0.182-0.784-0.854-1.429-1.779-1.429c-1.274,0-2.03,1.121-2.03,2.62
		c0,1.373,0.672,2.507,2.003,2.507c0.826,0,1.583-0.546,1.807-1.471c0.042-0.168,0.057-0.336,0.057-0.533V170.543z"/>
</g>
<g>
	<path d="M87.793,320.878c0.014,0.42-0.294,0.757-0.784,0.757c-0.435,0-0.743-0.337-0.743-0.757c0-0.435,0.322-0.771,0.771-0.771
		C87.499,320.108,87.793,320.444,87.793,320.878z M86.42,329.563v-6.779h1.232v6.779H86.42z"/>
	<path d="M89.696,324.618c0-0.699-0.014-1.273-0.056-1.834h1.093l0.069,1.12h0.028c0.336-0.644,1.12-1.274,2.241-1.274
		c0.938,0,2.396,0.561,2.396,2.885v4.049h-1.233v-3.908c0-1.092-0.405-2.003-1.568-2.003c-0.813,0-1.442,0.574-1.653,1.261
		c-0.056,0.154-0.084,0.364-0.084,0.574v4.076h-1.232V324.618z"/>
	<path d="M98.896,321.159v1.625h1.765v0.938h-1.765v3.656c0,0.841,0.237,1.316,0.924,1.316c0.336,0,0.532-0.027,0.715-0.084
		l0.056,0.926c-0.238,0.098-0.616,0.182-1.093,0.182c-0.574,0-1.036-0.196-1.33-0.533c-0.351-0.363-0.477-0.966-0.477-1.764v-3.699
		H96.64v-0.938h1.051v-1.247L98.896,321.159z"/>
	<path d="M102.646,326.397c0.028,1.667,1.093,2.354,2.325,2.354c0.883,0,1.415-0.154,1.877-0.35l0.21,0.882
		c-0.434,0.196-1.177,0.435-2.255,0.435c-2.087,0-3.334-1.387-3.334-3.432s1.205-3.656,3.18-3.656c2.213,0,2.802,1.947,2.802,3.193
		c0,0.252-0.028,0.448-0.042,0.574H102.646z M106.261,325.514c0.014-0.783-0.322-2.002-1.709-2.002
		c-1.247,0-1.793,1.148-1.892,2.002H106.261z"/>
	<path d="M108.974,324.899c0-0.799-0.014-1.485-0.056-2.115h1.078l0.042,1.33h0.057c0.308-0.91,1.05-1.484,1.877-1.484
		c0.14,0,0.238,0.014,0.35,0.042v1.163c-0.126-0.029-0.252-0.043-0.42-0.043c-0.868,0-1.484,0.658-1.653,1.583
		c-0.027,0.169-0.056,0.364-0.056,0.575v3.613h-1.219V324.899z"/>
	<path d="M113.607,324.618c0-0.699-0.014-1.273-0.056-1.834h1.093l0.069,1.12h0.028c0.336-0.644,1.12-1.274,2.241-1.274
		c0.938,0,2.396,0.561,2.396,2.885v4.049h-1.233v-3.908c0-1.092-0.406-2.003-1.568-2.003c-0.813,0-1.442,0.574-1.653,1.261
		c-0.056,0.154-0.084,0.364-0.084,0.574v4.076h-1.232V324.618z"/>
	<path d="M126.14,327.938c0,0.588,0.028,1.162,0.112,1.625h-1.121l-0.098-0.854h-0.042c-0.379,0.532-1.106,1.009-2.073,1.009
		c-1.373,0-2.073-0.967-2.073-1.947c0-1.639,1.457-2.535,4.076-2.521v-0.141c0-0.56-0.154-1.568-1.541-1.568
		c-0.63,0-1.288,0.196-1.765,0.504l-0.28-0.813c0.561-0.363,1.373-0.602,2.228-0.602c2.073,0,2.577,1.414,2.577,2.773V327.938z
		 M124.949,326.103c-1.345-0.028-2.872,0.21-2.872,1.526c0,0.799,0.532,1.178,1.163,1.178c0.882,0,1.442-0.561,1.639-1.135
		c0.042-0.127,0.07-0.267,0.07-0.393V326.103z"/>
	<path d="M128.125,319.618h1.232v9.945h-1.232V319.618z"/>
	<path d="M132.803,320.878c0.014,0.42-0.294,0.757-0.784,0.757c-0.435,0-0.743-0.337-0.743-0.757c0-0.435,0.322-0.771,0.771-0.771
		C132.509,320.108,132.803,320.444,132.803,320.878z M131.43,329.563v-6.779h1.232v6.779H131.43z"/>
	<path d="M133.935,328.848l3.067-3.992c0.295-0.363,0.575-0.686,0.883-1.051v-0.027h-3.67v-0.994h5.169l-0.014,0.77l-3.026,3.937
		c-0.28,0.378-0.56,0.714-0.868,1.064v0.028h3.964v0.98h-5.505V328.848z"/>
	<path d="M141.286,326.397c0.028,1.667,1.093,2.354,2.325,2.354c0.883,0,1.415-0.154,1.877-0.35l0.21,0.882
		c-0.434,0.196-1.177,0.435-2.255,0.435c-2.087,0-3.334-1.387-3.334-3.432s1.205-3.656,3.18-3.656c2.213,0,2.802,1.947,2.802,3.193
		c0,0.252-0.028,0.448-0.042,0.574H141.286z M144.9,325.514c0.014-0.783-0.322-2.002-1.709-2.002c-1.247,0-1.793,1.148-1.892,2.002
		H144.9z"/>
	<path d="M153.469,319.618v8.194c0,0.603,0.014,1.288,0.056,1.751h-1.106l-0.056-1.177h-0.028c-0.378,0.757-1.205,1.331-2.312,1.331
		c-1.639,0-2.899-1.387-2.899-3.446c-0.014-2.255,1.387-3.642,3.04-3.642c1.036,0,1.736,0.49,2.045,1.037h0.028v-4.049H153.469z
		 M152.236,325.543c0-0.154-0.015-0.365-0.057-0.52c-0.182-0.783-0.854-1.428-1.778-1.428c-1.275,0-2.031,1.12-2.031,2.619
		c0,1.373,0.672,2.508,2.003,2.508c0.826,0,1.583-0.547,1.807-1.471c0.042-0.169,0.057-0.337,0.057-0.533V325.543z"/>
	<path d="M163.239,327.938c0,0.588,0.028,1.162,0.112,1.625h-1.121l-0.098-0.854h-0.042c-0.379,0.532-1.106,1.009-2.073,1.009
		c-1.373,0-2.073-0.967-2.073-1.947c0-1.639,1.457-2.535,4.076-2.521v-0.141c0-0.56-0.154-1.568-1.541-1.568
		c-0.63,0-1.288,0.196-1.765,0.504l-0.28-0.813c0.561-0.363,1.373-0.602,2.228-0.602c2.073,0,2.577,1.414,2.577,2.773V327.938z
		 M162.049,326.103c-1.345-0.028-2.872,0.21-2.872,1.526c0,0.799,0.532,1.178,1.163,1.178c0.882,0,1.442-0.561,1.639-1.135
		c0.042-0.127,0.07-0.267,0.07-0.393V326.103z"/>
	<path d="M165.225,324.618c0-0.699-0.014-1.273-0.056-1.834h1.093l0.069,1.12h0.028c0.336-0.644,1.12-1.274,2.241-1.274
		c0.938,0,2.396,0.561,2.396,2.885v4.049h-1.233v-3.908c0-1.092-0.406-2.003-1.568-2.003c-0.813,0-1.442,0.574-1.653,1.261
		c-0.056,0.154-0.084,0.364-0.084,0.574v4.076h-1.232V324.618z"/>
	<path d="M178.851,319.618v8.194c0,0.603,0.014,1.288,0.056,1.751H177.8l-0.056-1.177h-0.028c-0.378,0.757-1.205,1.331-2.312,1.331
		c-1.639,0-2.899-1.387-2.899-3.446c-0.014-2.255,1.387-3.642,3.04-3.642c1.036,0,1.736,0.49,2.045,1.037h0.028v-4.049H178.851z
		 M177.618,325.543c0-0.154-0.015-0.365-0.057-0.52c-0.182-0.783-0.854-1.428-1.779-1.428c-1.274,0-2.03,1.12-2.03,2.619
		c0,1.373,0.672,2.508,2.003,2.508c0.826,0,1.583-0.547,1.807-1.471c0.042-0.169,0.057-0.337,0.057-0.533V325.543z"/>
	<path d="M189.714,319.618v8.194c0,0.603,0.014,1.288,0.056,1.751h-1.106l-0.056-1.177h-0.028c-0.378,0.757-1.205,1.331-2.312,1.331
		c-1.639,0-2.899-1.387-2.899-3.446c-0.014-2.255,1.387-3.642,3.04-3.642c1.036,0,1.736,0.49,2.045,1.037h0.028v-4.049H189.714z
		 M188.481,325.543c0-0.154-0.015-0.365-0.057-0.52c-0.182-0.783-0.854-1.428-1.779-1.428c-1.274,0-2.03,1.12-2.03,2.619
		c0,1.373,0.672,2.508,2.003,2.508c0.826,0,1.583-0.547,1.807-1.471c0.042-0.169,0.057-0.337,0.057-0.533V325.543z"/>
	<path d="M192.441,326.397c0.028,1.667,1.093,2.354,2.325,2.354c0.883,0,1.415-0.154,1.877-0.35l0.21,0.882
		c-0.434,0.196-1.177,0.435-2.255,0.435c-2.087,0-3.334-1.387-3.334-3.432s1.205-3.656,3.18-3.656c2.213,0,2.802,1.947,2.802,3.193
		c0,0.252-0.028,0.448-0.042,0.574H192.441z M196.056,325.514c0.014-0.783-0.322-2.002-1.709-2.002
		c-1.247,0-1.793,1.148-1.892,2.002H196.056z"/>
	<path d="M204.554,328.583c0,1.555-0.309,2.508-0.967,3.096c-0.658,0.616-1.61,0.813-2.465,0.813c-0.813,0-1.709-0.196-2.256-0.561
		l0.309-0.938c0.448,0.28,1.148,0.532,1.989,0.532c1.261,0,2.185-0.658,2.185-2.367v-0.756h-0.027
		c-0.378,0.63-1.106,1.135-2.157,1.135c-1.681,0-2.886-1.43-2.886-3.307c0-2.297,1.499-3.6,3.054-3.6
		c1.177,0,1.821,0.616,2.115,1.176h0.028l0.056-1.021h1.078c-0.027,0.49-0.056,1.036-0.056,1.863V328.583z M203.335,325.459
		c0-0.211-0.014-0.393-0.07-0.561c-0.224-0.715-0.826-1.303-1.723-1.303c-1.177,0-2.017,0.994-2.017,2.563
		c0,1.331,0.672,2.438,2.003,2.438c0.756,0,1.442-0.477,1.709-1.26c0.069-0.211,0.098-0.449,0.098-0.659V325.459z"/>
	<path d="M206.51,324.899c0-0.799-0.014-1.485-0.056-2.115h1.078l0.042,1.33h0.057c0.308-0.91,1.05-1.484,1.877-1.484
		c0.14,0,0.237,0.014,0.35,0.042v1.163c-0.126-0.029-0.252-0.043-0.42-0.043c-0.868,0-1.485,0.658-1.653,1.583
		c-0.027,0.169-0.056,0.364-0.056,0.575v3.613h-1.219V324.899z"/>
	<path d="M215.781,327.938c0,0.588,0.028,1.162,0.112,1.625h-1.121l-0.098-0.854h-0.042c-0.378,0.532-1.106,1.009-2.073,1.009
		c-1.373,0-2.073-0.967-2.073-1.947c0-1.639,1.457-2.535,4.076-2.521v-0.141c0-0.56-0.154-1.568-1.541-1.568
		c-0.63,0-1.288,0.196-1.765,0.504l-0.28-0.813c0.561-0.363,1.373-0.602,2.228-0.602c2.073,0,2.577,1.414,2.577,2.773V327.938z
		 M214.591,326.103c-1.345-0.028-2.872,0.21-2.872,1.526c0,0.799,0.532,1.178,1.163,1.178c0.882,0,1.442-0.561,1.639-1.135
		c0.042-0.127,0.07-0.267,0.07-0.393V326.103z"/>
	<path d="M223.622,319.618v8.194c0,0.603,0.014,1.288,0.056,1.751h-1.106l-0.056-1.177h-0.028c-0.378,0.757-1.205,1.331-2.312,1.331
		c-1.639,0-2.899-1.387-2.899-3.446c-0.014-2.255,1.387-3.642,3.04-3.642c1.036,0,1.736,0.49,2.045,1.037h0.028v-4.049H223.622z
		 M222.39,325.543c0-0.154-0.015-0.365-0.057-0.52c-0.182-0.783-0.854-1.428-1.779-1.428c-1.274,0-2.03,1.12-2.03,2.619
		c0,1.373,0.672,2.508,2.003,2.508c0.826,0,1.583-0.547,1.807-1.471c0.042-0.169,0.057-0.337,0.057-0.533V325.543z"/>
	<path d="M226.349,326.397c0.028,1.667,1.093,2.354,2.325,2.354c0.883,0,1.415-0.154,1.877-0.35l0.21,0.882
		c-0.434,0.196-1.177,0.435-2.255,0.435c-2.087,0-3.334-1.387-3.334-3.432s1.205-3.656,3.18-3.656c2.213,0,2.802,1.947,2.802,3.193
		c0,0.252-0.028,0.448-0.042,0.574H226.349z M229.963,325.514c0.014-0.783-0.322-2.002-1.709-2.002
		c-1.247,0-1.793,1.148-1.892,2.002H229.963z"/>
	<path d="M238.531,319.618v8.194c0,0.603,0.014,1.288,0.056,1.751h-1.106l-0.056-1.177h-0.028c-0.378,0.757-1.205,1.331-2.312,1.331
		c-1.639,0-2.899-1.387-2.899-3.446c-0.014-2.255,1.387-3.642,3.04-3.642c1.036,0,1.736,0.49,2.045,1.037h0.028v-4.049H238.531z
		 M237.299,325.543c0-0.154-0.015-0.365-0.057-0.52c-0.182-0.783-0.854-1.428-1.778-1.428c-1.275,0-2.031,1.12-2.031,2.619
		c0,1.373,0.672,2.508,2.003,2.508c0.826,0,1.583-0.547,1.807-1.471c0.042-0.169,0.057-0.337,0.057-0.533V325.543z"/>
</g>
<g>
	<path d="M103.023,31.813l1.877-9.945h1.163l-1.19,6.233h0.028c0.21-0.238,0.462-0.49,0.63-0.687l2.396-2.381h1.429l-2.956,2.788
		l2.031,3.992h-1.289l-1.625-3.348l-0.854,0.771l-0.49,2.577H103.023z"/>
	<path d="M109.392,36.475l0.774-4.095h-0.627l0.118-0.646h0.637l0.049-0.245c0.107-0.666,0.343-1.273,0.774-1.655
		c0.293-0.274,0.715-0.421,1.126-0.421c0.323,0,0.539,0.059,0.646,0.127l-0.176,0.646c-0.127-0.059-0.294-0.088-0.48-0.088
		c-0.647,0-0.96,0.627-1.097,1.411l-0.04,0.226h1.058l-0.127,0.646h-1.048l-0.784,4.095H109.392z"/>
	<path d="M114.605,30.931h-0.02l-1.087,0.548l-0.088-0.646l1.45-0.725h0.686l-1.205,6.368h-0.793L114.605,30.931z"/>
</g>
<g>
	<path d="M102.852,68.229l1.877-9.945h1.163l-1.19,6.233h0.028c0.21-0.238,0.462-0.49,0.63-0.687l2.396-2.381h1.429l-2.956,2.788
		l2.031,3.992h-1.289l-1.625-3.348l-0.854,0.771L104,68.229H102.852z"/>
	<path d="M109.104,72.891l0.578-3.057c0.118-0.617,0.196-1.244,0.245-1.685h0.715c-0.04,0.333-0.079,0.666-0.127,1.028h0.029
		c0.304-0.646,0.813-1.136,1.45-1.136c0.069,0,0.167,0.01,0.226,0.02l-0.157,0.803c-0.049-0.01-0.127-0.02-0.216-0.02
		c-0.705,0-1.332,0.853-1.538,1.959l-0.392,2.086H109.104z"/>
	<path d="M114.777,67.347h-0.02l-1.087,0.548l-0.088-0.646l1.45-0.725h0.686l-1.205,6.368h-0.793L114.777,67.347z"/>
</g>
<g>
	<path d="M28.448,68.372h1.163L28,76.804h3.81l-0.196,1.009h-4.959L28.448,68.372z"/>
</g>
<g>
	<path d="M72.282,84.595c0.574-0.126,1.359-0.21,2.06-0.21c0.938,0,1.751,0.224,2.255,0.687c0.435,0.378,0.7,0.924,0.7,1.569
		c0,1.373-1.05,2.395-2.241,2.731l-0.014,0.028c0.658,0.224,0.98,0.925,1.051,1.905c0.098,1.316,0.168,2.213,0.294,2.591h-1.205
		c-0.056-0.196-0.153-1.19-0.224-2.283c-0.07-1.289-0.546-1.835-1.484-1.835h-1.037l-0.771,4.118h-1.162L72.282,84.595z
		 M72.619,88.881h1.036c1.471,0,2.423-0.967,2.423-2.101c0-1.009-0.756-1.457-1.82-1.457c-0.463,0-0.771,0.042-0.98,0.098
		L72.619,88.881z"/>
</g>
<g>
	<path d="M151.808,93.588c-0.532,0.238-1.387,0.462-2.451,0.462c-2.382,0-3.824-1.513-3.824-3.922c0-1.779,0.714-3.474,2.017-4.552
		c0.967-0.827,2.172-1.275,3.559-1.275c1.05,0,1.793,0.266,2.045,0.462l-0.378,0.938c-0.351-0.21-1.023-0.392-1.863-0.392
		c-0.98,0-1.976,0.378-2.703,1.064c-0.883,0.826-1.443,2.157-1.443,3.586c0,1.695,0.771,3.082,2.872,3.082
		c0.714,0,1.498-0.14,2.017-0.406L151.808,93.588z"/>
</g>
<g>
	<path d="M55.468,137.896l-1.176-9.441h1.19l0.687,6.051c0.111,0.966,0.168,1.513,0.182,2.129h0.042
		c0.238-0.588,0.519-1.289,1.037-2.283l2.997-5.897h1.289l-4.973,9.441H55.468z"/>
	<path d="M60.989,141.736c0.226,0.137,0.637,0.294,1.019,0.294c0.549,0,0.901-0.353,0.901-0.774c0-0.373-0.166-0.598-0.656-0.872
		c-0.549-0.304-0.853-0.725-0.853-1.205c0-0.833,0.716-1.469,1.715-1.469c0.431,0,0.813,0.118,0.989,0.235l-0.226,0.617
		c-0.166-0.098-0.47-0.216-0.822-0.216c-0.49,0-0.843,0.304-0.843,0.715c0,0.343,0.226,0.558,0.646,0.793
		c0.529,0.304,0.892,0.715,0.892,1.244c0,0.999-0.813,1.567-1.813,1.567c-0.51-0.01-0.96-0.167-1.176-0.333L60.989,141.736z"/>
</g>
<g>
	<path d="M85.458,138.563l1.877-9.945h1.163l-1.191,6.233h0.028c0.21-0.238,0.462-0.49,0.631-0.687l2.395-2.381h1.429l-2.955,2.788
		l2.031,3.992h-1.289l-1.625-3.348l-0.854,0.77l-0.49,2.578H85.458z"/>
	<path d="M91.71,143.225l0.578-3.056c0.117-0.617,0.195-1.244,0.244-1.685h0.716c-0.039,0.333-0.078,0.666-0.128,1.028h0.029
		c0.304-0.646,0.813-1.136,1.45-1.136c0.068,0,0.167,0.01,0.226,0.02l-0.157,0.803c-0.049-0.01-0.127-0.02-0.215-0.02
		c-0.706,0-1.333,0.853-1.538,1.959l-0.393,2.086H91.71z"/>
	<path d="M98.187,142.95c-0.353,0.206-0.931,0.382-1.567,0.382c-1.254,0-1.803-0.862-1.803-1.91c0-1.431,1.058-3.047,2.586-3.047
		c0.901,0,1.392,0.539,1.392,1.215c0,1.244-1.401,1.577-3.154,1.548c-0.039,0.206-0.01,0.646,0.098,0.901
		c0.187,0.421,0.568,0.637,1.058,0.637c0.559,0,0.979-0.177,1.273-0.333L98.187,142.95z M98.01,139.61
		c0-0.382-0.294-0.598-0.725-0.598c-0.774,0-1.352,0.754-1.548,1.499c1.273,0.01,2.272-0.157,2.272-0.892V139.61z"/>
	<path d="M102.469,143.039c-0.245,0.118-0.734,0.294-1.371,0.294c-1.225,0-1.822-0.833-1.822-1.842c0-1.616,1.195-3.105,2.899-3.105
		c0.441,0,0.843,0.127,0.99,0.206l-0.235,0.647c-0.187-0.088-0.451-0.177-0.804-0.177c-1.234,0-2.008,1.215-2.008,2.332
		c0,0.764,0.401,1.264,1.176,1.264c0.479,0,0.852-0.147,1.097-0.264L102.469,143.039z"/>
</g>
<g>
	<path d="M129.412,137.897l1.877-9.945h1.163l-1.191,6.233h0.028c0.21-0.238,0.462-0.49,0.631-0.687l2.395-2.381h1.429l-2.955,2.788
		l2.031,3.992h-1.289l-1.625-3.348l-0.854,0.771l-0.49,2.577H129.412z"/>
	<path d="M137.76,136.681l-0.216,1.137h1.137l-0.128,0.637h-1.137l-0.44,2.302c-0.049,0.265-0.088,0.51-0.088,0.754
		c0,0.284,0.137,0.46,0.45,0.46c0.138,0,0.274-0.01,0.382-0.039l-0.039,0.646c-0.146,0.049-0.392,0.088-0.627,0.088
		c-0.725,0-0.999-0.441-0.999-0.921c0-0.274,0.029-0.549,0.098-0.892l0.471-2.4h-0.686l0.127-0.637h0.676l0.167-0.872
		L137.76,136.681z"/>
</g>
<g>
	<path d="M136.494,165.263c0.574-0.126,1.359-0.21,2.06-0.21c0.938,0,1.751,0.224,2.255,0.687c0.435,0.378,0.7,0.924,0.7,1.569
		c0,1.373-1.05,2.395-2.241,2.731l-0.014,0.028c0.658,0.224,0.98,0.925,1.051,1.905c0.098,1.316,0.168,2.213,0.294,2.591h-1.205
		c-0.056-0.196-0.153-1.19-0.224-2.283c-0.07-1.289-0.546-1.835-1.484-1.835h-1.037l-0.771,4.118h-1.162L136.494,165.263z
		 M136.831,169.549h1.036c1.471,0,2.423-0.967,2.423-2.101c0-1.009-0.756-1.457-1.82-1.457c-0.463,0-0.771,0.042-0.98,0.098
		L136.831,169.549z"/>
	<path d="M141.878,179.226l0.911-4.741h0.813l-0.911,4.741H141.878z M143.396,173.672c-0.274,0-0.461-0.216-0.461-0.51
		c0.01-0.313,0.245-0.548,0.539-0.548s0.479,0.215,0.479,0.509c-0.01,0.323-0.234,0.549-0.548,0.549H143.396z"/>
</g>
<g>
	<path d="M156.919,156.896l1.877-9.945h1.163l-1.191,6.233h0.028c0.21-0.238,0.462-0.49,0.631-0.687l2.395-2.381h1.429l-2.955,2.788
		l2.031,3.992h-1.289l-1.625-3.348l-0.854,0.77l-0.49,2.578H156.919z"/>
	<path d="M168.216,154.604l-1.038,5.456c-0.099,0.49-0.177,1.039-0.206,1.499h-0.744l0.127-0.94h-0.02
		c-0.431,0.676-1.028,1.048-1.704,1.048c-0.921,0-1.421-0.754-1.421-1.724c0-1.685,1.254-3.233,2.929-3.233
		c0.304,0,0.637,0.068,0.843,0.167l0.421-2.272H168.216z M166.854,157.562c-0.167-0.108-0.441-0.196-0.784-0.196
		c-1.136,0-2.018,1.205-2.018,2.469c0,0.568,0.195,1.166,0.892,1.166c0.627,0,1.381-0.715,1.587-1.783L166.854,157.562z"/>
	<path d="M171.735,161.284c-0.353,0.206-0.931,0.382-1.567,0.382c-1.254,0-1.803-0.862-1.803-1.91c0-1.431,1.058-3.047,2.586-3.047
		c0.901,0,1.392,0.539,1.392,1.215c0,1.244-1.401,1.577-3.154,1.548c-0.039,0.206-0.01,0.646,0.098,0.901
		c0.187,0.421,0.568,0.637,1.058,0.637c0.559,0,0.979-0.177,1.273-0.333L171.735,161.284z M171.559,157.944
		c0-0.382-0.294-0.598-0.725-0.598c-0.774,0-1.352,0.754-1.548,1.499c1.273,0.01,2.272-0.157,2.272-0.892V157.944z"/>
	<path d="M172.804,162.636c0.284,0.176,0.754,0.313,1.254,0.313c0.794,0,1.421-0.412,1.704-1.695l0.157-0.705h-0.029
		c-0.411,0.676-0.989,1.009-1.646,1.009c-0.95,0-1.44-0.803-1.44-1.646c-0.01-1.606,1.176-3.203,3.008-3.203
		c0.548,0,1.146,0.157,1.518,0.333l-0.725,3.918c-0.195,1-0.46,1.695-0.96,2.116c-0.47,0.411-1.106,0.529-1.655,0.529
		c-0.578,0-1.117-0.137-1.421-0.333L172.804,162.636z M176.438,157.522c-0.147-0.068-0.441-0.157-0.784-0.157
		c-1.186,0-1.998,1.234-2.008,2.41c0,0.519,0.186,1.136,0.911,1.136c0.695,0,1.41-0.882,1.577-1.813L176.438,157.522z"/>
</g>
<g>
	<path d="M111.04,215.23l1.877-9.945h1.163l-1.191,6.233h0.028c0.21-0.238,0.462-0.49,0.63-0.687l2.396-2.381h1.429l-2.955,2.788
		l2.031,3.992h-1.289l-1.625-3.348l-0.854,0.77l-0.49,2.578H111.04z"/>
	<path d="M118.517,215.151l0.46,1.038c0.128,0.304,0.226,0.539,0.313,0.754h0.029c0.187-0.265,0.284-0.431,0.52-0.715l0.872-1.078
		h0.94l-1.999,2.312l1.117,2.429h-0.882l-0.479-1.068c-0.157-0.353-0.226-0.539-0.343-0.842h-0.021
		c-0.146,0.225-0.283,0.441-0.489,0.725l-0.96,1.186h-0.94l2.076-2.439l-1.097-2.302H118.517z"/>
	<path d="M121.34,219.893l0.098-0.539l0.95-0.794c1.705-1.44,2.704-2.429,2.704-3.478c0-0.46-0.255-0.97-0.989-0.97
		c-0.568,0-1.019,0.255-1.313,0.46l-0.206-0.588c0.44-0.333,1.097-0.568,1.685-0.568c1.205,0,1.666,0.793,1.666,1.558
		c0,1.352-1.234,2.527-2.753,3.781l-0.539,0.421v0.02h2.675l-0.138,0.695H121.34z"/>
</g>
<g>
	<path d="M113.202,253.23l1.877-9.945h1.163l-1.19,6.233h0.028c0.21-0.238,0.462-0.49,0.63-0.687l2.396-2.381h1.429l-2.956,2.788
		l2.031,3.992h-1.289l-1.625-3.348l-0.854,0.77l-0.49,2.578H113.202z"/>
	<path d="M121.991,254.924l-0.118,0.637h-2.351l0.127-0.637H121.991z"/>
	<path d="M123.688,253.151l0.46,1.038c0.127,0.304,0.226,0.539,0.313,0.754h0.03c0.186-0.265,0.284-0.431,0.519-0.715l0.872-1.078
		h0.94l-1.999,2.312l1.117,2.429h-0.882l-0.48-1.068c-0.157-0.353-0.225-0.539-0.343-0.842h-0.02
		c-0.147,0.225-0.284,0.441-0.49,0.725l-0.96,1.186h-0.94l2.077-2.439l-1.097-2.302H123.688z"/>
	<path d="M126.51,257.893l0.098-0.539l0.95-0.794c1.705-1.44,2.704-2.429,2.704-3.478c0-0.46-0.255-0.97-0.989-0.97
		c-0.568,0-1.019,0.255-1.313,0.46l-0.206-0.588c0.441-0.333,1.097-0.568,1.685-0.568c1.205,0,1.665,0.793,1.665,1.558
		c0,1.352-1.234,2.527-2.752,3.781l-0.539,0.421v0.02h2.674l-0.137,0.695H126.51z"/>
</g>
<g>
	<path d="M202.203,215.897l1.877-9.945h1.163l-1.19,6.233h0.028c0.21-0.238,0.462-0.49,0.63-0.687l2.396-2.381h1.428l-2.955,2.788
		l2.031,3.992h-1.289l-1.625-3.348l-0.854,0.771l-0.49,2.577H202.203z"/>
	<path d="M210.992,217.591l-0.117,0.637h-2.352l0.128-0.637H210.992z"/>
	<path d="M212.688,215.818l0.46,1.038c0.128,0.304,0.226,0.539,0.313,0.754h0.029c0.187-0.264,0.284-0.431,0.52-0.715l0.872-1.078
		h0.94l-1.999,2.312l1.117,2.43h-0.882l-0.479-1.068c-0.157-0.353-0.226-0.539-0.343-0.842h-0.021
		c-0.146,0.225-0.283,0.441-0.489,0.725l-0.96,1.186h-0.94l2.076-2.439l-1.097-2.302H212.688z"/>
	<path d="M218.342,215.015h-0.02l-1.087,0.548l-0.089-0.646l1.45-0.725h0.686l-1.205,6.368h-0.793L218.342,215.015z"/>
</g>
<g>
	<path d="M165.081,266.914c0.715-0.126,1.513-0.196,2.34-0.196c1.583,0,2.773,0.448,3.474,1.261
		c0.504,0.532,0.883,1.373,0.896,2.563c0,1.708-0.687,3.404-1.905,4.441c-1.093,0.91-2.465,1.316-4.272,1.316
		c-0.826,0-1.681-0.057-2.297-0.127L165.081,266.914z M164.661,275.262c0.42,0.057,0.868,0.07,1.219,0.07
		c1.499,0,2.592-0.448,3.376-1.261c0.84-0.868,1.288-2.144,1.288-3.474c0-1.681-0.826-2.928-3.18-2.928
		c-0.42,0-0.938,0.028-1.288,0.098L164.661,275.262z"/>
</g>
<g>
	<path d="M148.392,296.23l1.877-9.945h1.163l-1.19,6.233h0.028c0.21-0.238,0.462-0.49,0.63-0.687l2.396-2.382h1.429l-2.956,2.788
		l2.031,3.992h-1.289l-1.625-3.348l-0.854,0.771l-0.49,2.577H148.392z"/>
	<path d="M158.063,300.618c-0.353,0.206-0.931,0.383-1.567,0.383c-1.254,0-1.803-0.863-1.803-1.911c0-1.431,1.058-3.046,2.586-3.046
		c0.901,0,1.391,0.538,1.391,1.215c0,1.244-1.401,1.576-3.154,1.547c-0.039,0.206-0.01,0.646,0.098,0.901
		c0.186,0.421,0.568,0.637,1.058,0.637c0.558,0,0.979-0.177,1.273-0.333L158.063,300.618z M157.886,297.278
		c0-0.383-0.293-0.598-0.725-0.598c-0.774,0-1.352,0.754-1.548,1.498c1.273,0.01,2.272-0.156,2.272-0.891V297.278z"/>
</g>
<g>
	<path d="M60.279,366.174c-1.022,1.373-1.765,3.194-1.765,5.729c0,2.493,0.771,4.286,1.765,5.688h-0.966
		c-0.882-1.163-1.835-2.956-1.835-5.688c0.014-2.76,0.953-4.553,1.835-5.729H60.279z"/>
	<path d="M61.706,375.896v-5.841h-0.952v-0.938h0.952v-0.322c0-0.953,0.21-1.821,0.785-2.367c0.462-0.448,1.079-0.631,1.653-0.631
		c0.434,0,0.813,0.099,1.051,0.196l-0.168,0.952c-0.182-0.084-0.434-0.153-0.784-0.153c-1.051,0-1.317,0.924-1.317,1.961v0.364
		h1.639v0.938h-1.639v5.841H61.706z"/>
	<path d="M70.43,374.271c0,0.589,0.028,1.163,0.112,1.625h-1.121l-0.098-0.854h-0.042c-0.378,0.532-1.107,1.009-2.073,1.009
		c-1.373,0-2.073-0.967-2.073-1.947c0-1.639,1.457-2.535,4.076-2.521v-0.14c0-0.561-0.154-1.569-1.541-1.569
		c-0.63,0-1.289,0.196-1.765,0.505l-0.28-0.813c0.561-0.364,1.373-0.603,2.227-0.603c2.073,0,2.578,1.415,2.578,2.773V374.271z
		 M69.24,372.436c-1.345-0.028-2.872,0.21-2.872,1.527c0,0.798,0.532,1.176,1.163,1.176c0.882,0,1.442-0.56,1.639-1.134
		c0.042-0.127,0.07-0.267,0.07-0.393V372.436z"/>
	<path d="M72.248,374.635c0.364,0.238,1.008,0.49,1.625,0.49c0.896,0,1.316-0.448,1.316-1.009c0-0.588-0.35-0.91-1.261-1.246
		c-1.218-0.435-1.793-1.106-1.793-1.919c0-1.093,0.883-1.989,2.339-1.989c0.687,0,1.289,0.196,1.667,0.42l-0.308,0.896
		c-0.266-0.168-0.756-0.392-1.387-0.392c-0.729,0-1.135,0.42-1.135,0.924c0,0.561,0.406,0.813,1.289,1.148
		c1.177,0.448,1.779,1.037,1.779,2.046c0,1.19-0.925,2.045-2.536,2.045c-0.742,0-1.429-0.196-1.905-0.477L72.248,374.635z"/>
	<path d="M79.444,367.492v1.625h1.765v0.938h-1.765v3.655c0,0.841,0.238,1.317,0.924,1.317c0.336,0,0.533-0.028,0.715-0.084
		l0.056,0.924c-0.238,0.099-0.616,0.183-1.092,0.183c-0.575,0-1.037-0.196-1.331-0.532c-0.35-0.364-0.476-0.967-0.476-1.766v-3.697
		h-1.051v-0.938h1.051v-1.247L79.444,367.492z"/>
	<path d="M81.851,377.591c0.995-1.387,1.765-3.208,1.765-5.729c0-2.508-0.756-4.301-1.765-5.688h0.952
		c0.896,1.149,1.835,2.942,1.835,5.701c0,2.746-0.939,4.524-1.835,5.716H81.851z"/>
</g>
<g>
	<path d="M182.253,245.298l-1.71,2.251v0.036l2.719-0.36v1.225l-2.719-0.324v0.036l1.729,2.16l-1.134,0.648l-1.081-2.521h-0.036
		l-1.17,2.539l-1.026-0.648l1.71-2.196v-0.036l-2.665,0.342v-1.225l2.647,0.342v-0.036l-1.692-2.197l1.098-0.63l1.116,2.502h0.036
		l1.098-2.521L182.253,245.298z"/>
</g>
<g>
	<path d="M153.606,245.297l-1.71,2.251v0.036l2.719-0.36v1.225l-2.719-0.324v0.036l1.729,2.16l-1.134,0.648l-1.081-2.521h-0.036
		l-1.17,2.539l-1.026-0.648l1.71-2.196v-0.036l-2.665,0.342v-1.225l2.647,0.342v-0.036l-1.692-2.197l1.098-0.63l1.116,2.502h0.036
		l1.098-2.521L153.606,245.297z"/>
</g>
<g>
	<g>
		<g>
			<path fill="none" stroke="#000000" stroke-width="2" d="M158.95,201.99c-4.718,0-8.542,3.824-8.542,8.542
				s3.824,8.542,8.542,8.542v38.042"/>
			<g>
				<circle fill="#231F20" stroke="#231F20" cx="161.147" cy="210.563" r="5.114"/>
				<circle fill="none" stroke="#231F20" cx="172.085" cy="210.563" r="5.114"/>
			</g>
		</g>
		<path fill="none" stroke="#000000" stroke-width="2" d="M173.564,201.99c4.718,0,8.542,3.824,8.542,8.542
			s-3.824,8.542-8.542,8.542v38.042"/>
	</g>
	<line fill="none" stroke="#231F20" x1="159.314" y1="231.396" x2="164.564" y2="231.396"/>
	<line fill="none" stroke="#231F20" x1="168.064" y1="231.313" x2="173.314" y2="231.313"/>
</g>
<g>
	<g>
		<line fill="none" stroke="#231F20" x1="181.647" y1="170.126" x2="152.46" y2="170.126"/>
		<polygon fill="#231F20" points="178.839,173.83 180.411,170.126 178.839,166.422 187.616,170.126 		"/>
	</g>
</g>
</svg>
