<?xml version="1.0" encoding="UTF-8" standalone="no"?>
<!DOCTYPE svg PUBLIC "-//W3C//DTD SVG 1.1//EN"
 "http://www.w3.org/Graphics/SVG/1.1/DTD/svg11.dtd">
<!-- Generated by graphviz version 2.24.0 (20090616.2323)
 -->
<!-- Title: G Pages: 1 -->
<svg width="402pt" height="296pt"
 viewBox="0.00 0.00 402.00 296.00" xmlns="http://www.w3.org/2000/svg" xmlns:xlink="http://www.w3.org/1999/xlink">
<g id="graph1" class="graph" transform="scale(1 1) rotate(0) translate(4 292)">
<title>G</title>
<polygon fill="white" stroke="white" points="-4,5 -4,-292 399,-292 399,5 -4,5"/>
<!-- X -->
<g id="node1" class="node"><title>X</title>
<ellipse fill="none" stroke="black" cx="27" cy="-196" rx="27" ry="18"/>
<text text-anchor="middle" x="27" y="-193.5" font-family="Times Roman,serif" font-size="10.00">X</text>
</g>
<!-- Reaction1_intermediate_m -->
<g id="node10" class="node"><title>Reaction1_intermediate_m</title>
<ellipse fill="black" stroke="black" cx="394" cy="-270" rx="0.036" ry="0.036"/>
</g>
<!-- X&#45;&gt;Reaction1_intermediate_m -->
<g id="edge12" class="edge"><title>X&#45;&gt;Reaction1_intermediate_m</title>
<path fill="none" stroke="black" d="M48.1028,-207.8C68.0243,-225.221 99.9971,-252 135,-252 135,-252 135,-252 307,-252 345.365,-252 393.245,-252 393.991,-269.581"/>
</g>
<!-- X&#45;&gt;Reaction1_intermediate_m -->
<g id="edge14" class="edge"><title>X&#45;&gt;Reaction1_intermediate_m</title>
<path fill="none" stroke="black" d="M39.3921,-212.057C57.7234,-233.821 94.3148,-270 135,-270 135,-270 135,-270 307,-270 344.458,-270 390.989,-270 393.86,-270"/>
</g>
<!-- X&#45;&gt;Reaction1_intermediate_m -->
<g id="edge16" class="edge"><title>X&#45;&gt;Reaction1_intermediate_m</title>
<path fill="none" stroke="black" d="M33.2603,-213.646C48.3876,-241.926 89.0871,-288 135,-288 135,-288 135,-288 307,-288 345.365,-288 393.245,-288 393.991,-270.419"/>
</g>
<!-- Reaction2_intermediate_r -->
<g id="node16" class="node"><title>Reaction2_intermediate_r</title>
<ellipse fill="black" stroke="black" cx="91" cy="-147" rx="0.036" ry="0.036"/>
</g>
<!-- X&#45;&gt;Reaction2_intermediate_r -->
<g id="edge20" class="edge"><title>X&#45;&gt;Reaction2_intermediate_r</title>
<path fill="none" stroke="black" d="M44.8276,-182.351C63.1729,-168.305 89.3059,-148.297 90.9213,-147.06"/>
</g>
<!-- Reaction2_intermediate_m -->
<g id="node22" class="node"><title>Reaction2_intermediate_m</title>
<ellipse fill="black" stroke="black" cx="179" cy="-196" rx="0.036" ry="0.036"/>
</g>
<!-- X&#45;&gt;Reaction2_intermediate_m -->
<g id="edge28" class="edge"><title>X&#45;&gt;Reaction2_intermediate_m</title>
<path fill="none" stroke="black" d="M49.7559,-186.035C91.8276,-179.127 177.646,-182.343 178.984,-195.683"/>
</g>
<!-- X&#45;&gt;Reaction2_intermediate_m -->
<g id="edge30" class="edge"><title>X&#45;&gt;Reaction2_intermediate_m</title>
<path fill="none" stroke="black" d="M54.1746,-196C97.212,-196 176.475,-196 178.941,-196"/>
</g>
<!-- X&#45;&gt;Reaction2_intermediate_m -->
<g id="edge32" class="edge"><title>X&#45;&gt;Reaction2_intermediate_m</title>
<path fill="none" stroke="black" d="M49.7559,-205.965C91.8276,-212.873 177.646,-209.657 178.984,-196.317"/>
</g>
<!-- Reaction7_intermediate_r -->
<g id="node35" class="node"><title>Reaction7_intermediate_r</title>
<ellipse fill="black" stroke="black" cx="91" cy="-119" rx="0.036" ry="0.036"/>
</g>
<!-- X&#45;&gt;Reaction7_intermediate_r -->
<g id="edge44" class="edge"><title>X&#45;&gt;Reaction7_intermediate_r</title>
<path fill="none" stroke="black" d="M40.2608,-180.046C58.421,-158.197 89.0134,-121.39 90.9077,-119.111"/>
</g>
<!-- Reaction7_intermediate_m -->
<g id="node41" class="node"><title>Reaction7_intermediate_m</title>
<ellipse fill="black" stroke="black" cx="179" cy="-84" rx="0.036" ry="0.036"/>
</g>
<!-- X&#45;&gt;Reaction7_intermediate_m -->
<g id="edge52" class="edge"><title>X&#45;&gt;Reaction7_intermediate_m</title>
<path fill="none" stroke="black" d="M35.6765,-178.891C46.1763,-159.727 65.5306,-128.883 90,-110 121.604,-85.6103 175.5,-84.0753 178.837,-84.0031"/>
</g>
<!-- ES -->
<g id="node2" class="node"><title>ES</title>
<ellipse fill="none" stroke="black" cx="243" cy="-111" rx="27" ry="18"/>
<text text-anchor="middle" x="243" y="-108.5" font-family="Times Roman,serif" font-size="10.00">ES</text>
</g>
<!-- Reaction1_intermediate_r -->
<g id="node4" class="node"><title>Reaction1_intermediate_r</title>
<ellipse fill="black" stroke="black" cx="307" cy="-111" rx="0.036" ry="0.036"/>
</g>
<!-- ES&#45;&gt;Reaction1_intermediate_r -->
<g id="edge4" class="edge"><title>ES&#45;&gt;Reaction1_intermediate_r</title>
<path fill="none" stroke="black" d="M270.142,-111C287.04,-111 305.788,-111 306.944,-111"/>
</g>
<!-- Reaction6_intermediate_r -->
<g id="node28" class="node"><title>Reaction6_intermediate_r</title>
<ellipse fill="black" stroke="black" cx="307" cy="-83" rx="0.036" ry="0.036"/>
</g>
<!-- ES&#45;&gt;Reaction6_intermediate_r -->
<g id="edge36" class="edge"><title>ES&#45;&gt;Reaction6_intermediate_r</title>
<path fill="none" stroke="black" d="M265.744,-101.049C283.565,-93.2529 305.576,-83.6232 306.934,-83.0289"/>
</g>
<!-- Reaction1 -->
<g id="node3" class="node"><title>Reaction1</title>
<polygon fill="none" stroke="black" points="358,-118 344,-118 344,-104 358,-104 358,-118"/>
</g>
<!-- Reaction1_intermediate_p -->
<g id="node7" class="node"><title>Reaction1_intermediate_p</title>
<ellipse fill="black" stroke="black" cx="394" cy="-71" rx="0.036" ry="0.036"/>
</g>
<!-- Reaction1&#45;&gt;Reaction1_intermediate_p -->
<g id="edge6" class="edge"><title>Reaction1&#45;&gt;Reaction1_intermediate_p</title>
<path fill="none" stroke="black" d="M358.101,-104.395C369.932,-93.3887 392.531,-72.3667 393.932,-71.0636"/>
</g>
<!-- Reaction1&#45;&gt;Reaction1_intermediate_m -->
<g id="edge10" class="edge"><title>Reaction1&#45;&gt;Reaction1_intermediate_m</title>
<path fill="none" stroke="black" d="M356.152,-130.049C367.371,-171.535 393.087,-266.623 393.976,-269.912"/>
<polygon fill="none" stroke="black" points="356.092,-129.829 350.664,-125.081 352.959,-118.245 358.387,-122.993 356.092,-129.829"/>
</g>
<!-- Reaction1_intermediate_r&#45;&gt;Reaction1 -->
<g id="edge2" class="edge"><title>Reaction1_intermediate_r&#45;&gt;Reaction1</title>
<path fill="none" stroke="black" d="M307.126,-111C309.022,-111 331.795,-111 343.759,-111"/>
</g>
<!-- Reaction1_intermediate_p&#45;&gt;X -->
<g id="edge8" class="edge"><title>Reaction1_intermediate_p&#45;&gt;X</title>
<path fill="none" stroke="black" d="M393.868,-70.9053C391.151,-68.9697 347.062,-38 307,-38 135,-38 135,-38 135,-38 72.7328,-38 43.7544,-122.67 32.6953,-168.046"/>
<polygon fill="black" stroke="black" points="29.2651,-167.345 30.4299,-177.875 36.0863,-168.917 29.2651,-167.345"/>
</g>
<!-- Reaction2 -->
<g id="node15" class="node"><title>Reaction2</title>
<polygon fill="none" stroke="black" points="142,-150 128,-150 128,-136 142,-136 142,-150"/>
</g>
<!-- Reaction2_intermediate_p -->
<g id="node19" class="node"><title>Reaction2_intermediate_p</title>
<ellipse fill="black" stroke="black" cx="179" cy="-136" rx="0.036" ry="0.036"/>
</g>
<!-- Reaction2&#45;&gt;Reaction2_intermediate_p -->
<g id="edge22" class="edge"><title>Reaction2&#45;&gt;Reaction2_intermediate_p</title>
<path fill="none" stroke="black" d="M142.266,-141.844C154.372,-139.918 177.497,-136.239 178.93,-136.011"/>
</g>
<!-- Reaction2&#45;&gt;Reaction2_intermediate_m -->
<g id="edge26" class="edge"><title>Reaction2&#45;&gt;Reaction2_intermediate_m</title>
<path fill="none" stroke="black" d="M148.826,-159.654C161.234,-174.6 177.687,-194.419 178.926,-195.91"/>
<polygon fill="none" stroke="black" points="148.783,-159.602 141.873,-157.541 141.118,-150.369 148.028,-152.431 148.783,-159.602"/>
</g>
<!-- Reaction2_intermediate_r&#45;&gt;Reaction2 -->
<g id="edge18" class="edge"><title>Reaction2_intermediate_r&#45;&gt;Reaction2</title>
<path fill="none" stroke="black" d="M91.1262,-146.989C93.0215,-146.816 115.795,-144.746 127.759,-143.658"/>
</g>
<!-- Reaction2_intermediate_p&#45;&gt;ES -->
<g id="edge24" class="edge"><title>Reaction2_intermediate_p&#45;&gt;ES</title>
<path fill="none" stroke="black" d="M179.046,-135.982C179.98,-135.617 194.872,-129.8 210.049,-123.872"/>
<polygon fill="black" stroke="black" points="211.372,-127.112 219.413,-120.214 208.825,-120.592 211.372,-127.112"/>
</g>
<!-- Reaction6 -->
<g id="node27" class="node"><title>Reaction6</title>
<polygon fill="none" stroke="black" points="358,-83 344,-83 344,-69 358,-69 358,-83"/>
</g>
<!-- Reaction6_intermediate_p -->
<g id="node31" class="node"><title>Reaction6_intermediate_p</title>
<ellipse fill="black" stroke="black" cx="394" cy="-43" rx="0.036" ry="0.036"/>
</g>
<!-- Reaction6&#45;&gt;Reaction6_intermediate_p -->
<g id="edge38" class="edge"><title>Reaction6&#45;&gt;Reaction6_intermediate_p</title>
<path fill="none" stroke="black" d="M358.101,-70.5507C369.932,-61.4707 392.531,-44.1275 393.932,-43.0524"/>
</g>
<!-- Reaction6_intermediate_r&#45;&gt;Reaction6 -->
<g id="edge34" class="edge"><title>Reaction6_intermediate_r&#45;&gt;Reaction6</title>
<path fill="none" stroke="black" d="M307.126,-82.9799C309.022,-82.6784 331.795,-79.0554 343.759,-77.152"/>
</g>
<!-- Reaction6_intermediate_p&#45;&gt;X -->
<g id="edge40" class="edge"><title>Reaction6_intermediate_p&#45;&gt;X</title>
<path fill="none" stroke="black" d="M393.873,-42.8766C391.259,-40.3545 348.784,-0 307,-0 135,-0 135,-0 135,-0 59.2392,-0 36.232,-113.722 29.5691,-167.918"/>
<polygon fill="black" stroke="black" points="26.0848,-167.583 28.4437,-177.912 33.0408,-168.367 26.0848,-167.583"/>
</g>
<!-- Reaction7 -->
<g id="node34" class="node"><title>Reaction7</title>
<polygon fill="none" stroke="black" points="142,-118 128,-118 128,-104 142,-104 142,-118"/>
</g>
<!-- Reaction7_intermediate_p -->
<g id="node38" class="node"><title>Reaction7_intermediate_p</title>
<ellipse fill="black" stroke="black" cx="179" cy="-111" rx="0.036" ry="0.036"/>
</g>
<!-- Reaction7&#45;&gt;Reaction7_intermediate_p -->
<g id="edge46" class="edge"><title>Reaction7&#45;&gt;Reaction7_intermediate_p</title>
<path fill="none" stroke="black" d="M142.266,-111C154.372,-111 177.497,-111 178.93,-111"/>
</g>
<!-- Reaction7&#45;&gt;Reaction7_intermediate_m -->
<g id="edge50" class="edge"><title>Reaction7&#45;&gt;Reaction7_intermediate_m</title>
<path fill="none" stroke="black" d="M152.536,-100.239C164.301,-93.0199 177.844,-84.7095 178.93,-84.0429"/>
<polygon fill="none" stroke="black" points="152.494,-100.265 149.472,-106.813 142.266,-106.541 145.288,-99.9941 152.494,-100.265"/>
</g>
<!-- Reaction7_intermediate_r&#45;&gt;Reaction7 -->
<g id="edge42" class="edge"><title>Reaction7_intermediate_r&#45;&gt;Reaction7</title>
<path fill="none" stroke="black" d="M91.1262,-118.977C93.0215,-118.632 115.795,-114.492 127.759,-112.317"/>
</g>
<!-- Reaction7_intermediate_p&#45;&gt;ES -->
<g id="edge48" class="edge"><title>Reaction7_intermediate_p&#45;&gt;ES</title>
<path fill="none" stroke="black" d="M179.046,-111C179.885,-111 191.971,-111 205.414,-111"/>
<polygon fill="black" stroke="black" points="205.794,-114.5 215.794,-111 205.794,-107.5 205.794,-114.5"/>
</g>
</g>
</svg>
