<?xml version="1.0" encoding="UTF-8" standalone="no"?>
<!DOCTYPE svg PUBLIC "-//W3C//DTD SVG 1.1//EN"
 "http://www.w3.org/Graphics/SVG/1.1/DTD/svg11.dtd">
<!-- Generated by graphviz version 2.30.1 (20140821.0912)
 -->
<!-- Title: G Pages: 1 -->
<svg width="1872pt" height="322pt"
 viewBox="0.00 0.00 1872.00 322.00" xmlns="http://www.w3.org/2000/svg" xmlns:xlink="http://www.w3.org/1999/xlink">
<g id="graph0" class="graph" transform="scale(1 1) rotate(0) translate(4 318)">
<title>G</title>
<polygon fill="white" stroke="white" points="-4,5 -4,-318 1869,-318 1869,5 -4,5"/>
<!-- Glci -->
<g id="Glci [CHEBI:17234]" class="node"><title>Glci</title>
<ellipse fill="none" stroke="black" cx="361" cy="-267" rx="64.5068" ry="18"/>
<text text-anchor="middle" x="361" y="-264.5" font-family="Times,serif" font-size="10.00">Glucose inside the cell</text>
</g>
<!-- Vhk_intermediate_r -->
<g id="node15" class="node"><title>Vhk_intermediate_r</title>
<ellipse fill="black" stroke="black" cx="463" cy="-267" rx="0.036" ry="0.036"/>
</g>
<!-- Glci&#45;&gt;Vhk_intermediate_r -->
<g id="edge9" class="edge"><title>Glci&#45;&gt;Vhk_intermediate_r</title>
<path fill="none" stroke="black" d="M425.898,-267C444.884,-267 460.965,-267 461.952,-267"/>
</g>
<!-- ATP -->
<g id="ATP [CHEBI:15422]" class="node"><title>ATP</title>
<ellipse fill="none" stroke="black" cx="1485" cy="-230" rx="18" ry="18"/>
<text text-anchor="middle" x="1485" y="-227.5" font-family="Times,serif" font-size="10.00">ATP</text>
</g>
<!-- ATP&#45;&gt;Vhk_intermediate_r -->
<g id="edge8" class="edge"><title>ATP&#45;&gt;Vhk_intermediate_r</title>
<path fill="none" stroke="black" d="M1474.37,-245.018C1457.57,-269.179 1420.42,-314 1376,-314 550,-314 550,-314 550,-314 507.803,-314 466.654,-269.892 464.123,-267.135"/>
</g>
<!-- Vpol_intermediate_r -->
<g id="node18" class="node"><title>Vpol_intermediate_r</title>
<ellipse fill="black" stroke="black" cx="1550" cy="-271" rx="0.036" ry="0.036"/>
</g>
<!-- ATP&#45;&gt;Vpol_intermediate_r -->
<g id="edge13" class="edge"><title>ATP&#45;&gt;Vpol_intermediate_r</title>
<path fill="none" stroke="black" d="M1500.61,-239.509C1518.64,-251.243 1547.15,-269.796 1548.91,-270.944"/>
</g>
<!-- Vpfk_intermediate_r -->
<g id="node21" class="node"><title>Vpfk_intermediate_r</title>
<ellipse fill="black" stroke="black" cx="747" cy="-239" rx="0.036" ry="0.036"/>
</g>
<!-- ATP&#45;&gt;Vpfk_intermediate_r -->
<g id="edge18" class="edge"><title>ATP&#45;&gt;Vpfk_intermediate_r</title>
<path fill="none" stroke="black" d="M1466.82,-232.06C1445.54,-234.431 1408.15,-238 1376,-238 834,-238 834,-238 834,-238 796.97,-238 750.977,-238.938 748.138,-238.997"/>
</g>
<!-- Vgol_intermediate_m -->
<g id="node33" class="node"><title>Vgol_intermediate_m</title>
<ellipse fill="black" stroke="black" cx="1550" cy="-130" rx="0.036" ry="0.036"/>
</g>
<!-- ATP&#45;&gt;Vgol_intermediate_m -->
<g id="edge40" class="edge"><title>ATP&#45;&gt;Vgol_intermediate_m</title>
<path fill="none" stroke="black" d="M1499.54,-218.77C1504.5,-214.218 1509.89,-208.694 1514,-203 1534.4,-174.739 1548.12,-132.725 1548.96,-130.127"/>
</g>
<!-- Vatpase_intermediate_r -->
<g id="node35" class="node"><title>Vatpase_intermediate_r</title>
<ellipse fill="black" stroke="black" cx="1550" cy="-230" rx="0.036" ry="0.036"/>
</g>
<!-- ATP&#45;&gt;Vatpase_intermediate_r -->
<g id="edge42" class="edge"><title>ATP&#45;&gt;Vatpase_intermediate_r</title>
<path fill="none" stroke="black" d="M1503.22,-230C1521.29,-230 1547.31,-230 1548.92,-230"/>
</g>
<!-- G6P -->
<g id="G6P [CHEBI:17665]" class="node"><title>G6P</title>
<ellipse fill="none" stroke="black" cx="649" cy="-267" rx="60.7649" ry="18"/>
<text text-anchor="middle" x="649" y="-264.5" font-family="Times,serif" font-size="10.00">Glucose 6&#45;phosphate</text>
</g>
<!-- Vin_intermediate_m -->
<g id="node13" class="node"><title>Vin_intermediate_m</title>
<ellipse fill="black" stroke="black" cx="747" cy="-221" rx="0.036" ry="0.036"/>
</g>
<!-- G6P&#45;&gt;Vin_intermediate_m -->
<g id="edge6" class="edge"><title>G6P&#45;&gt;Vin_intermediate_m</title>
<path fill="none" stroke="black" d="M681.7,-251.81C708.789,-238.83 743.737,-222.084 745.895,-221.05"/>
</g>
<!-- G6P&#45;&gt;Vpol_intermediate_r -->
<g id="edge14" class="edge"><title>G6P&#45;&gt;Vpol_intermediate_r</title>
<path fill="none" stroke="black" d="M707.163,-272.339C732.515,-274.277 762.722,-276 790,-276 790,-276 790,-276 1420,-276 1476.48,-276 1546.77,-271.155 1548.95,-271.004"/>
</g>
<!-- G6P&#45;&gt;Vpfk_intermediate_r -->
<g id="edge19" class="edge"><title>G6P&#45;&gt;Vpfk_intermediate_r</title>
<path fill="none" stroke="black" d="M692.946,-254.474C717.708,-247.252 744.284,-239.501 745.92,-239.023"/>
</g>
<!-- FDP -->
<g id="FDP [CHEBI:16905]" class="node"><title>FDP</title>
<ellipse fill="none" stroke="black" cx="938" cy="-107" rx="65.1836" ry="18"/>
<text text-anchor="middle" x="938" y="-104.5" font-family="Times,serif" font-size="10.00">Fructose 1,6&#45;phosphate</text>
</g>
<!-- Vgapd_intermediate_r -->
<g id="node24" class="node"><title>Vgapd_intermediate_r</title>
<ellipse fill="black" stroke="black" cx="1041" cy="-129" rx="0.036" ry="0.036"/>
</g>
<!-- FDP&#45;&gt;Vgapd_intermediate_r -->
<g id="edge23" class="edge"><title>FDP&#45;&gt;Vgapd_intermediate_r</title>
<path fill="none" stroke="black" d="M989.796,-118.064C1014.16,-123.372 1038.43,-128.659 1039.93,-128.984"/>
</g>
<!-- Vpk_intermediate_m -->
<g id="node29" class="node"><title>Vpk_intermediate_m</title>
<ellipse fill="black" stroke="black" cx="1419" cy="-97" rx="0.036" ry="0.036"/>
</g>
<!-- FDP&#45;&gt;Vpk_intermediate_m -->
<g id="edge33" class="edge"><title>FDP&#45;&gt;Vpk_intermediate_m</title>
<path fill="none" stroke="black" d="M995.672,-98.4049C1022.4,-95.0533 1054.77,-92 1084,-92 1084,-92 1084,-92 1332,-92 1369.09,-92 1415.03,-96.6924 1417.86,-96.9857"/>
</g>
<!-- Vgol_intermediate_r -->
<g id="node31" class="node"><title>Vgol_intermediate_r</title>
<ellipse fill="black" stroke="black" cx="1041" cy="-55" rx="0.036" ry="0.036"/>
</g>
<!-- FDP&#45;&gt;Vgol_intermediate_r -->
<g id="edge35" class="edge"><title>FDP&#45;&gt;Vgol_intermediate_r</title>
<path fill="none" stroke="black" d="M969.852,-91.1157C998.626,-76.3014 1037.48,-56.2961 1039.88,-55.0602"/>
</g>
<!-- PEP -->
<g id="PEP [CHEBI:18021]" class="node"><title>PEP</title>
<ellipse fill="none" stroke="black" cx="1230" cy="-146" rx="63.6513" ry="18"/>
<text text-anchor="middle" x="1230" y="-143.5" font-family="Times,serif" font-size="10.00">Phosphoenol pyruvate</text>
</g>
<!-- Vpk_intermediate_r -->
<g id="node27" class="node"><title>Vpk_intermediate_r</title>
<ellipse fill="black" stroke="black" cx="1331" cy="-161" rx="0.036" ry="0.036"/>
</g>
<!-- PEP&#45;&gt;Vpk_intermediate_r -->
<g id="edge28" class="edge"><title>PEP&#45;&gt;Vpk_intermediate_r</title>
<path fill="none" stroke="black" d="M1286.29,-154.377C1308.26,-157.706 1328.68,-160.801 1329.94,-160.991"/>
</g>
<!-- PEP&#45;&gt;Vgol_intermediate_m -->
<g id="edge39" class="edge"><title>PEP&#45;&gt;Vgol_intermediate_m</title>
<path fill="none" stroke="black" d="M1285.5,-137.018C1312.11,-133.371 1344.65,-130 1374,-130 1374,-130 1374,-130 1420,-130 1476.44,-130 1546.76,-130 1548.95,-130"/>
</g>
<!-- Gly -->
<g id="Gly [CHEBI:17754]" class="node"><title>Gly</title>
<ellipse fill="none" stroke="black" cx="1230" cy="-46" rx="31.3996" ry="18"/>
<text text-anchor="middle" x="1230" y="-43.5" font-family="Times,serif" font-size="10.00">Glycerol</text>
</g>
<!-- EtOH -->
<g id="EtOH [CHEBI:16236]" class="node"><title>EtOH</title>
<ellipse fill="none" stroke="black" cx="1485" cy="-176" rx="28.6898" ry="18"/>
<text text-anchor="middle" x="1485" y="-173.5" font-family="Times,serif" font-size="10.00">Ethanol</text>
</g>
<!-- Carbo -->
<g id="Carbo [CHEBI:28087] [CHEBI:27082] [CHEBI:28087]" class="node"><title>Carbo</title>
<ellipse fill="none" stroke="black" cx="1795" cy="-271" rx="68.0705" ry="18"/>
<text text-anchor="middle" x="1795" y="-268.5" font-family="Times,serif" font-size="10.00">Glycogen and Trehalose</text>
</g>
<!-- Glco -->
<g id="Glco [CHEBI:17234]" class="node"><title>Glco</title>
<ellipse fill="none" stroke="black" cx="68" cy="-239" rx="67.893" ry="18"/>
<text text-anchor="middle" x="68" y="-236.5" font-family="Times,serif" font-size="10.00">Glucose outside the cell</text>
</g>
<!-- Vin_intermediate_r -->
<g id="node11" class="node"><title>Vin_intermediate_r</title>
<ellipse fill="black" stroke="black" cx="172" cy="-239" rx="0.036" ry="0.036"/>
</g>
<!-- Glco&#45;&gt;Vin_intermediate_r -->
<g id="edge2" class="edge"><title>Glco&#45;&gt;Vin_intermediate_r</title>
<path fill="none" stroke="black" d="M135.897,-239C154.522,-239 170.004,-239 170.954,-239"/>
</g>
<!-- Vin -->
<g id="node10" class="node"><title>Vin</title>
<polygon fill="none" stroke="black" points="222,-246 208,-246 208,-232 222,-232 222,-246"/>
</g>
<!-- Vin_intermediate_p -->
<g id="node12" class="node"><title>Vin_intermediate_p</title>
<ellipse fill="black" stroke="black" cx="259" cy="-258" rx="0.036" ry="0.036"/>
</g>
<!-- Vin&#45;&gt;Vin_intermediate_p -->
<g id="edge3" class="edge"><title>Vin&#45;&gt;Vin_intermediate_p</title>
<path fill="none" stroke="black" d="M222.197,-241.804C233.515,-246.924 256.505,-257.324 257.93,-257.969"/>
</g>
<!-- Vin&#45;&gt;Vin_intermediate_m -->
<g id="edge5" class="edge"><title>Vin&#45;&gt;Vin_intermediate_m</title>
<path fill="none" stroke="black" d="M222.002,-237.705C241.683,-233.578 306.084,-221 360,-221 360,-221 360,-221 552,-221 636.875,-221 742.637,-221 745.922,-221"/>
</g>
<!-- Vin_intermediate_r&#45;&gt;Vin -->
<g id="edge1" class="edge"><title>Vin_intermediate_r&#45;&gt;Vin</title>
<path fill="none" stroke="black" d="M173.118,-239C174.921,-239 197.016,-239 207.95,-239"/>
</g>
<!-- Vin_intermediate_p&#45;&gt;Glci -->
<g id="edge4" class="edge"><title>Vin_intermediate_p&#45;&gt;Glci</title>
<path fill="none" stroke="black" d="M260.072,-258.007C261.121,-258.101 273.415,-259.207 289.045,-260.614"/>
<polygon fill="black" stroke="black" points="288.864,-264.112 299.137,-261.522 289.491,-257.14 288.864,-264.112"/>
</g>
<!-- Vhk -->
<g id="node14" class="node"><title>Vhk</title>
<polygon fill="none" stroke="black" points="514,-274 500,-274 500,-260 514,-260 514,-274"/>
</g>
<!-- Vhk_intermediate_p -->
<g id="node16" class="node"><title>Vhk_intermediate_p</title>
<ellipse fill="black" stroke="black" cx="551" cy="-267" rx="0.036" ry="0.036"/>
</g>
<!-- Vhk&#45;&gt;Vhk_intermediate_p -->
<g id="edge10" class="edge"><title>Vhk&#45;&gt;Vhk_intermediate_p</title>
<path fill="none" stroke="black" d="M514.197,-267C525.515,-267 548.505,-267 549.93,-267"/>
</g>
<!-- Vhk_intermediate_r&#45;&gt;Vhk -->
<g id="edge7" class="edge"><title>Vhk_intermediate_r&#45;&gt;Vhk</title>
<path fill="none" stroke="black" d="M464.12,-267C465.968,-267 488.602,-267 499.803,-267"/>
</g>
<!-- Vhk_intermediate_p&#45;&gt;G6P -->
<g id="edge11" class="edge"><title>Vhk_intermediate_p&#45;&gt;G6P</title>
<path fill="none" stroke="black" d="M552.07,-267C553.034,-267 563.911,-267 578.019,-267"/>
<polygon fill="black" stroke="black" points="578.221,-270.5 588.221,-267 578.221,-263.5 578.221,-270.5"/>
</g>
<!-- Vpol -->
<g id="node17" class="node"><title>Vpol</title>
<polygon fill="none" stroke="black" points="1600,-278 1586,-278 1586,-264 1600,-264 1600,-278"/>
</g>
<!-- Vpol_intermediate_p -->
<g id="node19" class="node"><title>Vpol_intermediate_p</title>
<ellipse fill="black" stroke="black" cx="1663" cy="-271" rx="0.036" ry="0.036"/>
</g>
<!-- Vpol&#45;&gt;Vpol_intermediate_p -->
<g id="edge15" class="edge"><title>Vpol&#45;&gt;Vpol_intermediate_p</title>
<path fill="none" stroke="black" d="M1600.28,-271C1616.58,-271 1659.22,-271 1661.87,-271"/>
</g>
<!-- Vpol_intermediate_r&#45;&gt;Vpol -->
<g id="edge12" class="edge"><title>Vpol_intermediate_r&#45;&gt;Vpol</title>
<path fill="none" stroke="black" d="M1551.12,-271C1552.92,-271 1575.02,-271 1585.95,-271"/>
</g>
<!-- Vpol_intermediate_p&#45;&gt;Carbo -->
<g id="edge16" class="edge"><title>Vpol_intermediate_p&#45;&gt;Carbo</title>
<path fill="none" stroke="black" d="M1664.09,-271C1665.76,-271 1689.41,-271 1716.07,-271"/>
<polygon fill="black" stroke="black" points="1716.4,-274.5 1726.4,-271 1716.4,-267.5 1716.4,-274.5"/>
</g>
<!-- Vpfk -->
<g id="node20" class="node"><title>Vpfk</title>
<polygon fill="none" stroke="black" points="798,-186 784,-186 784,-172 798,-172 798,-186"/>
</g>
<!-- Vpfk_intermediate_p -->
<g id="node22" class="node"><title>Vpfk_intermediate_p</title>
<ellipse fill="black" stroke="black" cx="835" cy="-131" rx="0.036" ry="0.036"/>
</g>
<!-- Vpfk&#45;&gt;Vpfk_intermediate_p -->
<g id="edge20" class="edge"><title>Vpfk&#45;&gt;Vpfk_intermediate_p</title>
<path fill="none" stroke="black" d="M798.197,-171.917C809.515,-158.983 832.505,-132.709 833.93,-131.079"/>
</g>
<!-- Vpfk_intermediate_r&#45;&gt;Vpfk -->
<g id="edge17" class="edge"><title>Vpfk_intermediate_r&#45;&gt;Vpfk</title>
<path fill="none" stroke="black" d="M748.03,-238.957C749.024,-237.537 774.081,-201.741 784.996,-186.148"/>
</g>
<!-- Vpfk_intermediate_p&#45;&gt;FDP -->
<g id="edge21" class="edge"><title>Vpfk_intermediate_p&#45;&gt;FDP</title>
<path fill="none" stroke="black" d="M836.073,-130.983C837.404,-130.666 856.7,-126.081 878.068,-121.004"/>
<polygon fill="black" stroke="black" points="879.055,-124.367 887.975,-118.65 877.436,-117.556 879.055,-124.367"/>
</g>
<!-- Vgapd -->
<g id="node23" class="node"><title>Vgapd</title>
<polygon fill="none" stroke="black" points="1092,-144 1078,-144 1078,-130 1092,-130 1092,-144"/>
</g>
<!-- Vgapd_intermediate_p -->
<g id="node25" class="node"><title>Vgapd_intermediate_p</title>
<ellipse fill="black" stroke="black" cx="1129" cy="-146" rx="0.036" ry="0.036"/>
</g>
<!-- Vgapd&#45;&gt;Vgapd_intermediate_p -->
<g id="edge24" class="edge"><title>Vgapd&#45;&gt;Vgapd_intermediate_p</title>
<path fill="none" stroke="black" d="M1092.2,-138.328C1103.52,-140.753 1126.5,-145.68 1127.93,-145.985"/>
</g>
<!-- Vgapd_intermediate_r&#45;&gt;Vgapd -->
<g id="edge22" class="edge"><title>Vgapd_intermediate_r&#45;&gt;Vgapd</title>
<path fill="none" stroke="black" d="M1042.12,-129.023C1043.97,-129.375 1066.6,-133.686 1077.8,-135.82"/>
</g>
<!-- Vgapd_intermediate_p&#45;&gt;ATP -->
<g id="edge25" class="edge"><title>Vgapd_intermediate_p&#45;&gt;ATP</title>
<path fill="none" stroke="black" d="M1130.05,-146.055C1131.1,-147.186 1148.18,-165.396 1166,-173 1233.94,-201.993 1256.13,-200 1330,-200 1330,-200 1330,-200 1376,-200 1405.23,-200 1437.34,-210.329 1458.89,-218.865"/>
<polygon fill="black" stroke="black" points="1457.7,-222.16 1468.28,-222.738 1460.37,-215.689 1457.7,-222.16"/>
</g>
<!-- Vgapd_intermediate_p&#45;&gt;PEP -->
<g id="edge26" class="edge"><title>Vgapd_intermediate_p&#45;&gt;PEP</title>
<path fill="none" stroke="black" d="M1130.07,-146C1131.05,-146 1141.86,-146 1156,-146"/>
<polygon fill="black" stroke="black" points="1156.24,-149.5 1166.24,-146 1156.24,-142.5 1156.24,-149.5"/>
</g>
<!-- Vpk -->
<g id="node26" class="node"><title>Vpk</title>
<polygon fill="none" stroke="black" points="1382,-172 1368,-172 1368,-158 1382,-158 1382,-172"/>
</g>
<!-- Vpk_intermediate_p -->
<g id="node28" class="node"><title>Vpk_intermediate_p</title>
<ellipse fill="black" stroke="black" cx="1419" cy="-172" rx="0.036" ry="0.036"/>
</g>
<!-- Vpk&#45;&gt;Vpk_intermediate_p -->
<g id="edge29" class="edge"><title>Vpk&#45;&gt;Vpk_intermediate_p</title>
<path fill="none" stroke="black" d="M1382.2,-166.033C1393.52,-167.919 1416.5,-171.751 1417.93,-171.988"/>
</g>
<!-- Vpk&#45;&gt;Vpk_intermediate_m -->
<g id="edge32" class="edge"><title>Vpk&#45;&gt;Vpk_intermediate_m</title>
<path fill="none" stroke="black" d="M1380.34,-157.979C1390.73,-141.148 1416.33,-99.6997 1417.92,-97.1256"/>
</g>
<!-- Vpk_intermediate_r&#45;&gt;Vpk -->
<g id="edge27" class="edge"><title>Vpk_intermediate_r&#45;&gt;Vpk</title>
<path fill="none" stroke="black" d="M1332.12,-161.011C1333.97,-161.187 1356.6,-163.343 1367.8,-164.41"/>
</g>
<!-- Vpk_intermediate_p&#45;&gt;ATP -->
<g id="edge30" class="edge"><title>Vpk_intermediate_p&#45;&gt;ATP</title>
<path fill="none" stroke="black" d="M1420.05,-172.042C1421.23,-173.119 1445.01,-194.663 1463.22,-211.172"/>
<polygon fill="black" stroke="black" points="1461.34,-214.189 1471.1,-218.311 1466.04,-209.002 1461.34,-214.189"/>
</g>
<!-- Vpk_intermediate_p&#45;&gt;EtOH -->
<g id="edge31" class="edge"><title>Vpk_intermediate_p&#45;&gt;EtOH</title>
<path fill="none" stroke="black" d="M1420.05,-172.003C1420.87,-172.055 1432.63,-172.789 1445.83,-173.615"/>
<polygon fill="black" stroke="black" points="1445.86,-177.123 1456.06,-174.254 1446.3,-170.137 1445.86,-177.123"/>
</g>
<!-- Vgol -->
<g id="node30" class="node"><title>Vgol</title>
<polygon fill="none" stroke="black" points="1092,-53 1078,-53 1078,-39 1092,-39 1092,-53"/>
</g>
<!-- Vgol_intermediate_p -->
<g id="node32" class="node"><title>Vgol_intermediate_p</title>
<ellipse fill="black" stroke="black" cx="1129" cy="-46" rx="0.036" ry="0.036"/>
</g>
<!-- Vgol&#45;&gt;Vgol_intermediate_p -->
<g id="edge36" class="edge"><title>Vgol&#45;&gt;Vgol_intermediate_p</title>
<path fill="none" stroke="black" d="M1092.2,-46C1103.52,-46 1126.5,-46 1127.93,-46"/>
</g>
<!-- Vgol&#45;&gt;Vgol_intermediate_m -->
<g id="edge38" class="edge"><title>Vgol&#45;&gt;Vgol_intermediate_m</title>
<path fill="none" stroke="black" d="M1092.05,-42.5425C1111.34,-31.8447 1173.45,-0 1229,-0 1229,-0 1229,-0 1420,-0 1500.12,-0 1547.5,-125.969 1548.97,-129.906"/>
</g>
<!-- Vgol_intermediate_r&#45;&gt;Vgol -->
<g id="edge34" class="edge"><title>Vgol_intermediate_r&#45;&gt;Vgol</title>
<path fill="none" stroke="black" d="M1042.12,-54.9742C1043.97,-54.5783 1066.6,-49.7282 1077.8,-47.328"/>
</g>
<!-- Vgol_intermediate_p&#45;&gt;Gly -->
<g id="edge37" class="edge"><title>Vgol_intermediate_p&#45;&gt;Gly</title>
<path fill="none" stroke="black" d="M1130.07,-46C1131.73,-46 1161.86,-46 1188.43,-46"/>
<polygon fill="black" stroke="black" points="1188.75,-49.5001 1198.75,-46 1188.75,-42.5001 1188.75,-49.5001"/>
</g>
<!-- Vatpase -->
<g id="node34" class="node"><title>Vatpase</title>
<polygon fill="none" stroke="black" points="1600,-237 1586,-237 1586,-223 1600,-223 1600,-237"/>
</g>
<!-- Vatpase_empty -->
<g id="node36" class="node"><title>Vatpase_empty</title>
<text text-anchor="middle" x="1663" y="-226.5" font-family="Times,serif" font-size="15.00" fill="blue">Ø</text>
</g>
<!-- Vatpase&#45;&gt;Vatpase_empty -->
<g id="edge43" class="edge"><title>Vatpase&#45;&gt;Vatpase_empty</title>
<path fill="none" stroke="black" d="M1600.28,-230C1606.28,-230 1615.85,-230 1625.68,-230"/>
<polygon fill="black" stroke="black" points="1625.88,-233.5 1635.88,-230 1625.88,-226.5 1625.88,-233.5"/>
</g>
<!-- Vatpase_intermediate_r&#45;&gt;Vatpase -->
<g id="edge41" class="edge"><title>Vatpase_intermediate_r&#45;&gt;Vatpase</title>
<path fill="none" stroke="black" d="M1551.12,-230C1552.92,-230 1575.02,-230 1585.95,-230"/>
</g>
</g>
</svg>
