<?xml version="1.0" encoding="UTF-8" standalone="no"?>
<!DOCTYPE svg PUBLIC "-//W3C//DTD SVG 1.1//EN"
 "http://www.w3.org/Graphics/SVG/1.1/DTD/svg11.dtd">
<!-- Generated by graphviz version 2.30.1 (20140821.0912)
 -->
<!-- Title: G Pages: 1 -->
<svg width="882pt" height="456pt"
 viewBox="0.00 0.00 882.00 456.00" xmlns="http://www.w3.org/2000/svg" xmlns:xlink="http://www.w3.org/1999/xlink">
<g id="graph0" class="graph" transform="scale(1 1) rotate(0) translate(4 452)">
<title>G</title>
<polygon fill="white" stroke="white" points="-4,5 -4,-452 879,-452 879,5 -4,5"/>
<!-- As -->
<g id="As" class="node"><title>As</title>
<path fill="none" stroke="black" d="M272,-300C272,-300 242,-300 242,-300 236,-300 230,-294 230,-288 230,-288 230,-276 230,-276 230,-270 236,-264 242,-264 242,-264 272,-264 272,-264 278,-264 284,-270 284,-276 284,-276 284,-288 284,-288 284,-294 278,-300 272,-300"/>
<text text-anchor="middle" x="257" y="-279.5" font-family="Times,serif" font-size="10.00">As</text>
</g>
<!-- R2_intermediate_r -->
<g id="node9" class="node"><title>R2_intermediate_r</title>
<ellipse fill="black" stroke="black" cx="347" cy="-226" rx="0.036" ry="0.036"/>
</g>
<!-- As&#45;&gt;R2_intermediate_r -->
<g id="edge5" class="edge"><title>As&#45;&gt;R2_intermediate_r</title>
<path fill="none" stroke="black" d="M284.403,-265.198C309.514,-249.218 343.78,-227.413 345.897,-226.066"/>
</g>
<!-- R3_intermediate_r -->
<g id="node12" class="node"><title>R3_intermediate_r</title>
<ellipse fill="black" stroke="black" cx="347" cy="-304" rx="0.036" ry="0.036"/>
</g>
<!-- As&#45;&gt;R3_intermediate_r -->
<g id="edge8" class="edge"><title>As&#45;&gt;R3_intermediate_r</title>
<path fill="none" stroke="black" d="M284.403,-288.601C309.514,-294.878 343.78,-303.445 345.897,-303.974"/>
</g>
<!-- R4_intermediate_r -->
<g id="node16" class="node"><title>R4_intermediate_r</title>
<ellipse fill="black" stroke="black" cx="347" cy="-262" rx="0.036" ry="0.036"/>
</g>
<!-- As&#45;&gt;R4_intermediate_r -->
<g id="edge13" class="edge"><title>As&#45;&gt;R4_intermediate_r</title>
<path fill="none" stroke="black" d="M284.403,-275.999C309.514,-270.292 343.78,-262.505 345.897,-262.023"/>
</g>
<!-- R5_intermediate_r -->
<g id="node19" class="node"><title>R5_intermediate_r</title>
<ellipse fill="black" stroke="black" cx="347" cy="-283" rx="0.036" ry="0.036"/>
</g>
<!-- As&#45;&gt;R5_intermediate_r -->
<g id="edge16" class="edge"><title>As&#45;&gt;R5_intermediate_r</title>
<path fill="none" stroke="black" d="M284.403,-282.3C309.514,-282.585 343.78,-282.975 345.897,-282.999"/>
</g>
<!-- R7_intermediate_m -->
<g id="node27" class="node"><title>R7_intermediate_m</title>
<ellipse fill="black" stroke="black" cx="347" cy="-374" rx="0.036" ry="0.036"/>
</g>
<!-- As&#45;&gt;R7_intermediate_m -->
<g id="edge25" class="edge"><title>As&#45;&gt;R7_intermediate_m</title>
<path fill="none" stroke="black" d="M276.237,-300.29C278.904,-303.149 281.568,-306.113 284,-309 301.411,-329.667 300.125,-339.691 320,-358 329.667,-366.906 345.005,-373.572 345.954,-373.98"/>
</g>
<!-- R8_intermediate_m -->
<g id="node31" class="node"><title>R8_intermediate_m</title>
<ellipse fill="black" stroke="black" cx="347" cy="-324" rx="0.036" ry="0.036"/>
</g>
<!-- As&#45;&gt;R8_intermediate_m -->
<g id="edge30" class="edge"><title>As&#45;&gt;R8_intermediate_m</title>
<path fill="none" stroke="black" d="M284.068,-295.494C295.079,-301.073 308.087,-307.509 320,-313 330.683,-317.924 344.187,-323.284 345.833,-323.934"/>
</g>
<!-- R10_intermediate_m -->
<g id="node38" class="node"><title>R10_intermediate_m</title>
<ellipse fill="black" stroke="black" cx="347" cy="-195" rx="0.036" ry="0.036"/>
</g>
<!-- As&#45;&gt;R10_intermediate_m -->
<g id="edge38" class="edge"><title>As&#45;&gt;R10_intermediate_m</title>
<path fill="none" stroke="black" d="M274.346,-263.845C286.569,-250.524 303.882,-232.186 320,-217 330.329,-207.268 344.143,-196.448 345.829,-195.133"/>
</g>
<!-- Bs -->
<g id="Bs" class="node"><title>Bs</title>
<path fill="none" stroke="black" d="M452,-420C452,-420 422,-420 422,-420 416,-420 410,-414 410,-408 410,-408 410,-396 410,-396 410,-390 416,-384 422,-384 422,-384 452,-384 452,-384 458,-384 464,-390 464,-396 464,-396 464,-408 464,-408 464,-414 458,-420 452,-420"/>
<text text-anchor="middle" x="437" y="-399.5" font-family="Times,serif" font-size="10.00">Bs</text>
</g>
<!-- R3_intermediate_m -->
<g id="node14" class="node"><title>R3_intermediate_m</title>
<ellipse fill="black" stroke="black" cx="527" cy="-399" rx="0.036" ry="0.036"/>
</g>
<!-- Bs&#45;&gt;R3_intermediate_m -->
<g id="edge11" class="edge"><title>Bs&#45;&gt;R3_intermediate_m</title>
<path fill="none" stroke="black" d="M464.403,-401.1C489.514,-400.244 523.78,-399.076 525.897,-399.004"/>
</g>
<!-- R9_intermediate_r -->
<g id="node33" class="node"><title>R9_intermediate_r</title>
<ellipse fill="black" stroke="black" cx="527" cy="-417" rx="0.036" ry="0.036"/>
</g>
<!-- Bs&#45;&gt;R9_intermediate_r -->
<g id="edge32" class="edge"><title>Bs&#45;&gt;R9_intermediate_r</title>
<path fill="none" stroke="black" d="M464.403,-406.5C489.514,-410.781 523.78,-416.622 525.897,-416.982"/>
</g>
<!-- Asyn -->
<g id="Asyn" class="node"><title>Asyn</title>
<path fill="none" stroke="black" d="M452,-165C452,-165 422,-165 422,-165 416,-165 410,-159 410,-153 410,-153 410,-141 410,-141 410,-135 416,-129 422,-129 422,-129 452,-129 452,-129 458,-129 464,-135 464,-141 464,-141 464,-153 464,-153 464,-159 458,-165 452,-165"/>
<text text-anchor="middle" x="437" y="-144.5" font-family="Times,serif" font-size="10.00">Asyn</text>
</g>
<!-- R11_intermediate_r -->
<g id="node40" class="node"><title>R11_intermediate_r</title>
<ellipse fill="black" stroke="black" cx="527" cy="-129" rx="0.036" ry="0.036"/>
</g>
<!-- Asyn&#45;&gt;R11_intermediate_r -->
<g id="edge40" class="edge"><title>Asyn&#45;&gt;R11_intermediate_r</title>
<path fill="none" stroke="black" d="M464.403,-141.599C489.514,-136.463 523.78,-129.454 525.897,-129.021"/>
</g>
<!-- R12_intermediate_r -->
<g id="node43" class="node"><title>R12_intermediate_r</title>
<ellipse fill="black" stroke="black" cx="527" cy="-147" rx="0.036" ry="0.036"/>
</g>
<!-- Asyn&#45;&gt;R12_intermediate_r -->
<g id="edge43" class="edge"><title>Asyn&#45;&gt;R12_intermediate_r</title>
<path fill="none" stroke="black" d="M464.403,-147C489.514,-147 523.78,-147 525.897,-147"/>
</g>
<!-- R13_intermediate_r -->
<g id="node47" class="node"><title>R13_intermediate_r</title>
<ellipse fill="black" stroke="black" cx="527" cy="-165" rx="0.036" ry="0.036"/>
</g>
<!-- Asyn&#45;&gt;R13_intermediate_r -->
<g id="edge48" class="edge"><title>Asyn&#45;&gt;R13_intermediate_r</title>
<path fill="none" stroke="black" d="M464.403,-152.401C489.514,-157.537 523.78,-164.546 525.897,-164.979"/>
</g>
<!-- R15_intermediate_m -->
<g id="node55" class="node"><title>R15_intermediate_m</title>
<ellipse fill="black" stroke="black" cx="527" cy="-111" rx="0.036" ry="0.036"/>
</g>
<!-- Asyn&#45;&gt;R15_intermediate_m -->
<g id="edge57" class="edge"><title>Asyn&#45;&gt;R15_intermediate_m</title>
<path fill="none" stroke="black" d="M464.059,-135.117C475.069,-130.236 488.078,-124.651 500,-120 510.68,-115.833 524.187,-111.569 525.833,-111.052"/>
</g>
<!-- R16_intermediate_m -->
<g id="node59" class="node"><title>R16_intermediate_m</title>
<ellipse fill="black" stroke="black" cx="527" cy="-93" rx="0.036" ry="0.036"/>
</g>
<!-- Asyn&#45;&gt;R16_intermediate_m -->
<g id="edge62" class="edge"><title>Asyn&#45;&gt;R16_intermediate_m</title>
<path fill="none" stroke="black" d="M459.635,-128.863C471.098,-119.899 485.729,-109.439 500,-102 510.166,-96.7007 524.122,-93.4274 525.827,-93.039"/>
</g>
<!-- Bsyn -->
<g id="Bsyn" class="node"><title>Bsyn</title>
<path fill="none" stroke="black" d="M632,-75C632,-75 602,-75 602,-75 596,-75 590,-69 590,-63 590,-63 590,-51 590,-51 590,-45 596,-39 602,-39 602,-39 632,-39 632,-39 638,-39 644,-45 644,-51 644,-51 644,-63 644,-63 644,-69 638,-75 632,-75"/>
<text text-anchor="middle" x="617" y="-54.5" font-family="Times,serif" font-size="10.00">Bsyn</text>
</g>
<!-- R12_intermediate_m -->
<g id="node45" class="node"><title>R12_intermediate_m</title>
<ellipse fill="black" stroke="black" cx="707" cy="-120" rx="0.036" ry="0.036"/>
</g>
<!-- Bsyn&#45;&gt;R12_intermediate_m -->
<g id="edge46" class="edge"><title>Bsyn&#45;&gt;R12_intermediate_m</title>
<path fill="none" stroke="black" d="M635.024,-75.0594C646.752,-86.6396 663.201,-101.272 680,-111 690.251,-116.936 705.041,-119.817 705.955,-119.992"/>
</g>
<!-- R17_intermediate_r -->
<g id="node61" class="node"><title>R17_intermediate_r</title>
<ellipse fill="black" stroke="black" cx="707" cy="-48" rx="0.036" ry="0.036"/>
</g>
<!-- Bsyn&#45;&gt;R17_intermediate_r -->
<g id="edge64" class="edge"><title>Bsyn&#45;&gt;R17_intermediate_r</title>
<path fill="none" stroke="black" d="M644.403,-54.2997C669.514,-51.7315 703.78,-48.2271 705.897,-48.0105"/>
</g>
<!-- R1 -->
<g id="node5" class="node"><title>R1</title>
<polygon fill="none" stroke="black" points="104,-289 90,-289 90,-275 104,-275 104,-289"/>
</g>
<!-- R1_intermediate_p -->
<g id="node7" class="node"><title>R1_intermediate_p</title>
<ellipse fill="black" stroke="black" cx="167" cy="-282" rx="0.036" ry="0.036"/>
</g>
<!-- R1&#45;&gt;R1_intermediate_p -->
<g id="edge2" class="edge"><title>R1&#45;&gt;R1_intermediate_p</title>
<path fill="none" stroke="black" d="M104.275,-282C120.583,-282 163.222,-282 165.871,-282"/>
</g>
<!-- R1_empty -->
<g id="node6" class="node"><title>R1_empty</title>
<text text-anchor="middle" x="27" y="-278.5" font-family="Times,serif" font-size="15.00" fill="blue">Ø</text>
</g>
<!-- R1_empty&#45;&gt;R1 -->
<g id="edge1" class="edge"><title>R1_empty&#45;&gt;R1</title>
<path fill="none" stroke="black" d="M54.0961,-282C67.13,-282 81.8045,-282 89.8681,-282"/>
</g>
<!-- R1_intermediate_p&#45;&gt;As -->
<g id="edge3" class="edge"><title>R1_intermediate_p&#45;&gt;As</title>
<path fill="none" stroke="black" d="M168.064,-282C169.533,-282 196.103,-282 219.654,-282"/>
<polygon fill="black" stroke="black" points="219.821,-285.5 229.82,-282 219.82,-278.5 219.821,-285.5"/>
</g>
<!-- R2 -->
<g id="node8" class="node"><title>R2</title>
<polygon fill="none" stroke="black" points="444,-220 430,-220 430,-206 444,-206 444,-220"/>
</g>
<!-- R2_empty -->
<g id="node10" class="node"><title>R2_empty</title>
<text text-anchor="middle" x="527" y="-197.5" font-family="Times,serif" font-size="15.00" fill="blue">Ø</text>
</g>
<!-- R2&#45;&gt;R2_empty -->
<g id="edge6" class="edge"><title>R2&#45;&gt;R2_empty</title>
<path fill="none" stroke="black" d="M444.049,-212.175C453.527,-210.883 472.594,-208.283 489.953,-205.915"/>
<polygon fill="black" stroke="black" points="490.456,-209.379 499.891,-204.56 489.51,-202.444 490.456,-209.379"/>
</g>
<!-- R2_intermediate_r&#45;&gt;R2 -->
<g id="edge4" class="edge"><title>R2_intermediate_r&#45;&gt;R2</title>
<path fill="none" stroke="black" d="M348.064,-225.991C350.291,-225.662 410.244,-216.805 429.856,-213.908"/>
</g>
<!-- R3 -->
<g id="node11" class="node"><title>R3</title>
<polygon fill="none" stroke="black" points="444,-366 430,-366 430,-352 444,-352 444,-366"/>
</g>
<!-- R3_empty -->
<g id="node13" class="node"><title>R3_empty</title>
<text text-anchor="middle" x="527" y="-359.5" font-family="Times,serif" font-size="15.00" fill="blue">Ø</text>
</g>
<!-- R3&#45;&gt;R3_empty -->
<g id="edge9" class="edge"><title>R3&#45;&gt;R3_empty</title>
<path fill="none" stroke="black" d="M444.049,-359.275C453.439,-359.702 472.239,-360.556 489.466,-361.339"/>
<polygon fill="black" stroke="black" points="489.742,-364.855 499.891,-361.813 490.06,-357.863 489.742,-364.855"/>
</g>
<!-- R3&#45;&gt;R3_intermediate_m -->
<g id="edge10" class="edge"><title>R3&#45;&gt;R3_intermediate_m</title>
<path fill="none" stroke="black" d="M444.036,-362.35C454.981,-368.35 478.926,-381.129 500,-390 510.566,-394.448 524.172,-398.466 525.832,-398.951"/>
</g>
<!-- R3_intermediate_r&#45;&gt;R3 -->
<g id="edge7" class="edge"><title>R3_intermediate_r&#45;&gt;R3</title>
<path fill="none" stroke="black" d="M348.172,-304.056C349.864,-304.616 363.727,-309.271 374,-315 395.672,-327.086 418.95,-345.15 429.788,-353.894"/>
</g>
<!-- R4 -->
<g id="node15" class="node"><title>R4</title>
<polygon fill="none" stroke="black" points="444,-264 430,-264 430,-250 444,-250 444,-264"/>
</g>
<!-- R4_empty -->
<g id="node17" class="node"><title>R4_empty</title>
<text text-anchor="middle" x="527" y="-251.5" font-family="Times,serif" font-size="15.00" fill="blue">Ø</text>
</g>
<!-- R4&#45;&gt;R4_empty -->
<g id="edge14" class="edge"><title>R4&#45;&gt;R4_empty</title>
<path fill="none" stroke="black" d="M444.049,-256.863C453.439,-256.649 472.239,-256.222 489.466,-255.83"/>
<polygon fill="black" stroke="black" points="489.973,-259.32 499.891,-255.593 489.814,-252.322 489.973,-259.32"/>
</g>
<!-- R4_intermediate_r&#45;&gt;R4 -->
<g id="edge12" class="edge"><title>R4_intermediate_r&#45;&gt;R4</title>
<path fill="none" stroke="black" d="M348.064,-261.996C350.291,-261.87 410.244,-258.463 429.856,-257.349"/>
</g>
<!-- R5 -->
<g id="node18" class="node"><title>R5</title>
<polygon fill="none" stroke="black" points="444,-306 430,-306 430,-292 444,-292 444,-306"/>
</g>
<!-- R5_empty -->
<g id="node20" class="node"><title>R5_empty</title>
<text text-anchor="middle" x="527" y="-305.5" font-family="Times,serif" font-size="15.00" fill="blue">Ø</text>
</g>
<!-- R5&#45;&gt;R5_empty -->
<g id="edge17" class="edge"><title>R5&#45;&gt;R5_empty</title>
<path fill="none" stroke="black" d="M444.049,-299.687C453.527,-300.764 472.594,-302.931 489.953,-304.904"/>
<polygon fill="black" stroke="black" points="489.56,-308.382 499.891,-306.033 490.35,-301.426 489.56,-308.382"/>
</g>
<!-- R5_intermediate_r&#45;&gt;R5 -->
<g id="edge15" class="edge"><title>R5_intermediate_r&#45;&gt;R5</title>
<path fill="none" stroke="black" d="M348.064,-283.012C350.291,-283.417 410.244,-294.317 429.856,-297.883"/>
</g>
<!-- R6 -->
<g id="node21" class="node"><title>R6</title>
<polygon fill="none" stroke="black" points="264,-434 250,-434 250,-420 264,-420 264,-434"/>
</g>
<!-- R6_intermediate_p -->
<g id="node23" class="node"><title>R6_intermediate_p</title>
<ellipse fill="black" stroke="black" cx="347" cy="-417" rx="0.036" ry="0.036"/>
</g>
<!-- R6&#45;&gt;R6_intermediate_p -->
<g id="edge19" class="edge"><title>R6&#45;&gt;R6_intermediate_p</title>
<path fill="none" stroke="black" d="M264.049,-426.313C283.62,-424.089 344.071,-417.219 345.955,-417.005"/>
</g>
<!-- R6_empty -->
<g id="node22" class="node"><title>R6_empty</title>
<text text-anchor="middle" x="167" y="-426.5" font-family="Times,serif" font-size="15.00" fill="blue">Ø</text>
</g>
<!-- R6_empty&#45;&gt;R6 -->
<g id="edge18" class="edge"><title>R6_empty&#45;&gt;R6</title>
<path fill="none" stroke="black" d="M194.403,-429.1C213.641,-428.444 238.253,-427.605 249.665,-427.216"/>
</g>
<!-- R6_intermediate_p&#45;&gt;Bs -->
<g id="edge20" class="edge"><title>R6_intermediate_p&#45;&gt;Bs</title>
<path fill="none" stroke="black" d="M348.064,-416.989C349.533,-416.739 376.103,-412.21 399.654,-408.195"/>
<polygon fill="black" stroke="black" points="400.551,-411.593 409.82,-406.462 399.375,-404.693 400.551,-411.593"/>
</g>
<!-- R7 -->
<g id="node24" class="node"><title>R7</title>
<polygon fill="none" stroke="black" points="264,-383 250,-383 250,-369 264,-369 264,-383"/>
</g>
<!-- R7_intermediate_p -->
<g id="node26" class="node"><title>R7_intermediate_p</title>
<ellipse fill="black" stroke="black" cx="347" cy="-397" rx="0.036" ry="0.036"/>
</g>
<!-- R7&#45;&gt;R7_intermediate_p -->
<g id="edge22" class="edge"><title>R7&#45;&gt;R7_intermediate_p</title>
<path fill="none" stroke="black" d="M264.049,-377.443C283.62,-382.114 344.071,-396.54 345.955,-396.989"/>
</g>
<!-- R7&#45;&gt;R7_intermediate_m -->
<g id="edge24" class="edge"><title>R7&#45;&gt;R7_intermediate_m</title>
<path fill="none" stroke="black" d="M264.049,-375.863C283.62,-375.418 344.071,-374.044 345.955,-374.001"/>
</g>
<!-- R7_empty -->
<g id="node25" class="node"><title>R7_empty</title>
<text text-anchor="middle" x="167" y="-372.5" font-family="Times,serif" font-size="15.00" fill="blue">Ø</text>
</g>
<!-- R7_empty&#45;&gt;R7 -->
<g id="edge21" class="edge"><title>R7_empty&#45;&gt;R7</title>
<path fill="none" stroke="black" d="M194.403,-376C213.641,-376 238.253,-376 249.665,-376"/>
</g>
<!-- R7_intermediate_p&#45;&gt;Bs -->
<g id="edge23" class="edge"><title>R7_intermediate_p&#45;&gt;Bs</title>
<path fill="none" stroke="black" d="M348.064,-397.004C349.533,-397.087 376.103,-398.597 399.654,-399.935"/>
<polygon fill="black" stroke="black" points="399.638,-403.44 409.82,-400.513 400.035,-396.451 399.638,-403.44"/>
</g>
<!-- R8 -->
<g id="node28" class="node"><title>R8</title>
<polygon fill="none" stroke="black" points="264,-332 250,-332 250,-318 264,-318 264,-332"/>
</g>
<!-- R8_intermediate_p -->
<g id="node30" class="node"><title>R8_intermediate_p</title>
<ellipse fill="black" stroke="black" cx="347" cy="-349" rx="0.036" ry="0.036"/>
</g>
<!-- R8&#45;&gt;R8_intermediate_p -->
<g id="edge27" class="edge"><title>R8&#45;&gt;R8_intermediate_p</title>
<path fill="none" stroke="black" d="M264.049,-326.65C283.62,-331.987 344.071,-348.474 345.955,-348.988"/>
</g>
<!-- R8&#45;&gt;R8_intermediate_m -->
<g id="edge29" class="edge"><title>R8&#45;&gt;R8_intermediate_m</title>
<path fill="none" stroke="black" d="M264.049,-324.931C283.62,-324.709 344.071,-324.022 345.955,-324.001"/>
</g>
<!-- R8_empty -->
<g id="node29" class="node"><title>R8_empty</title>
<text text-anchor="middle" x="167" y="-318.5" font-family="Times,serif" font-size="15.00" fill="blue">Ø</text>
</g>
<!-- R8_empty&#45;&gt;R8 -->
<g id="edge26" class="edge"><title>R8_empty&#45;&gt;R8</title>
<path fill="none" stroke="black" d="M194.403,-322.9C213.641,-323.556 238.253,-324.395 249.665,-324.784"/>
</g>
<!-- R8_intermediate_p&#45;&gt;Bs -->
<g id="edge28" class="edge"><title>R8_intermediate_p&#45;&gt;Bs</title>
<path fill="none" stroke="black" d="M348.064,-349.038C349.566,-349.943 377.307,-366.651 401.234,-381.061"/>
<polygon fill="black" stroke="black" points="399.448,-384.072 409.82,-386.233 403.06,-378.075 399.448,-384.072"/>
</g>
<!-- R9 -->
<g id="node32" class="node"><title>R9</title>
<polygon fill="none" stroke="black" points="624,-424 610,-424 610,-410 624,-410 624,-424"/>
</g>
<!-- R9_empty -->
<g id="node34" class="node"><title>R9_empty</title>
<text text-anchor="middle" x="707" y="-413.5" font-family="Times,serif" font-size="15.00" fill="blue">Ø</text>
</g>
<!-- R9&#45;&gt;R9_empty -->
<g id="edge33" class="edge"><title>R9&#45;&gt;R9_empty</title>
<path fill="none" stroke="black" d="M624.049,-417C633.439,-417 652.239,-417 669.466,-417"/>
<polygon fill="black" stroke="black" points="669.891,-420.5 679.891,-417 669.891,-413.5 669.891,-420.5"/>
</g>
<!-- R9_intermediate_r&#45;&gt;R9 -->
<g id="edge31" class="edge"><title>R9_intermediate_r&#45;&gt;R9</title>
<path fill="none" stroke="black" d="M528.064,-417C530.291,-417 590.244,-417 609.856,-417"/>
</g>
<!-- R10 -->
<g id="node35" class="node"><title>R10</title>
<polygon fill="none" stroke="black" points="264,-188 250,-188 250,-174 264,-174 264,-188"/>
</g>
<!-- R10_intermediate_p -->
<g id="node37" class="node"><title>R10_intermediate_p</title>
<ellipse fill="black" stroke="black" cx="347" cy="-167" rx="0.036" ry="0.036"/>
</g>
<!-- R10&#45;&gt;R10_intermediate_p -->
<g id="edge35" class="edge"><title>R10&#45;&gt;R10_intermediate_p</title>
<path fill="none" stroke="black" d="M264.049,-180.038C283.62,-176.924 344.071,-167.307 345.955,-167.007"/>
</g>
<!-- R10&#45;&gt;R10_intermediate_m -->
<g id="edge37" class="edge"><title>R10&#45;&gt;R10_intermediate_m</title>
<path fill="none" stroke="black" d="M264.049,-181.962C283.62,-185.076 344.071,-194.693 345.955,-194.993"/>
</g>
<!-- R10_empty -->
<g id="node36" class="node"><title>R10_empty</title>
<text text-anchor="middle" x="167" y="-177.5" font-family="Times,serif" font-size="15.00" fill="blue">Ø</text>
</g>
<!-- R10_empty&#45;&gt;R10 -->
<g id="edge34" class="edge"><title>R10_empty&#45;&gt;R10</title>
<path fill="none" stroke="black" d="M194.403,-181C213.641,-181 238.253,-181 249.665,-181"/>
</g>
<!-- R10_intermediate_p&#45;&gt;Asyn -->
<g id="edge36" class="edge"><title>R10_intermediate_p&#45;&gt;Asyn</title>
<path fill="none" stroke="black" d="M348.064,-166.986C349.539,-166.65 376.342,-160.559 399.971,-155.188"/>
<polygon fill="black" stroke="black" points="400.845,-158.579 409.82,-152.95 399.293,-151.753 400.845,-158.579"/>
</g>
<!-- R11 -->
<g id="node39" class="node"><title>R11</title>
<polygon fill="none" stroke="black" points="624,-115 610,-115 610,-101 624,-101 624,-115"/>
</g>
<!-- R11_empty -->
<g id="node41" class="node"><title>R11_empty</title>
<text text-anchor="middle" x="707" y="-80.5" font-family="Times,serif" font-size="15.00" fill="blue">Ø</text>
</g>
<!-- R11&#45;&gt;R11_empty -->
<g id="edge41" class="edge"><title>R11&#45;&gt;R11_empty</title>
<path fill="none" stroke="black" d="M624.049,-106.35C633.527,-103.765 652.594,-98.5652 669.953,-93.8309"/>
<polygon fill="black" stroke="black" points="671.164,-97.1285 679.891,-91.1206 669.323,-90.3752 671.164,-97.1285"/>
</g>
<!-- R11_intermediate_r&#45;&gt;R11 -->
<g id="edge39" class="edge"><title>R11_intermediate_r&#45;&gt;R11</title>
<path fill="none" stroke="black" d="M528.064,-128.985C530.291,-128.453 590.244,-114.146 609.856,-109.466"/>
</g>
<!-- R12 -->
<g id="node42" class="node"><title>R12</title>
<polygon fill="none" stroke="black" points="624,-154 610,-154 610,-140 624,-140 624,-154"/>
</g>
<!-- R12_empty -->
<g id="node44" class="node"><title>R12_empty</title>
<text text-anchor="middle" x="707" y="-152.5" font-family="Times,serif" font-size="15.00" fill="blue">Ø</text>
</g>
<!-- R12&#45;&gt;R12_empty -->
<g id="edge44" class="edge"><title>R12&#45;&gt;R12_empty</title>
<path fill="none" stroke="black" d="M624.049,-147.619C633.439,-148.579 652.239,-150.502 669.466,-152.264"/>
<polygon fill="black" stroke="black" points="669.587,-155.794 679.891,-153.33 670.299,-148.83 669.587,-155.794"/>
</g>
<!-- R12&#45;&gt;R12_intermediate_m -->
<g id="edge45" class="edge"><title>R12&#45;&gt;R12_intermediate_m</title>
<path fill="none" stroke="black" d="M624.049,-145.144C643.62,-139.139 704.071,-120.592 705.955,-120.014"/>
</g>
<!-- R12_intermediate_r&#45;&gt;R12 -->
<g id="edge42" class="edge"><title>R12_intermediate_r&#45;&gt;R12</title>
<path fill="none" stroke="black" d="M528.064,-147C530.291,-147 590.244,-147 609.856,-147"/>
</g>
<!-- R13 -->
<g id="node46" class="node"><title>R13</title>
<polygon fill="none" stroke="black" points="624,-197 610,-197 610,-183 624,-183 624,-197"/>
</g>
<!-- R13_empty -->
<g id="node48" class="node"><title>R13_empty</title>
<text text-anchor="middle" x="707" y="-206.5" font-family="Times,serif" font-size="15.00" fill="blue">Ø</text>
</g>
<!-- R13&#45;&gt;R13_empty -->
<g id="edge49" class="edge"><title>R13&#45;&gt;R13_empty</title>
<path fill="none" stroke="black" d="M624.049,-191.375C633.527,-193.529 652.594,-197.862 669.953,-201.808"/>
<polygon fill="black" stroke="black" points="669.364,-205.263 679.891,-204.066 670.915,-198.437 669.364,-205.263"/>
</g>
<!-- R13_intermediate_r&#45;&gt;R13 -->
<g id="edge47" class="edge"><title>R13_intermediate_r&#45;&gt;R13</title>
<path fill="none" stroke="black" d="M528.064,-165.018C530.291,-165.651 590.244,-182.683 609.856,-188.254"/>
</g>
<!-- R14 -->
<g id="node49" class="node"><title>R14</title>
<polygon fill="none" stroke="black" points="444,-31 430,-31 430,-17 444,-17 444,-31"/>
</g>
<!-- R14_intermediate_p -->
<g id="node51" class="node"><title>R14_intermediate_p</title>
<ellipse fill="black" stroke="black" cx="527" cy="-34" rx="0.036" ry="0.036"/>
</g>
<!-- R14&#45;&gt;R14_intermediate_p -->
<g id="edge51" class="edge"><title>R14&#45;&gt;R14_intermediate_p</title>
<path fill="none" stroke="black" d="M444.049,-24.6873C463.62,-26.9113 524.071,-33.7808 525.955,-33.9949"/>
</g>
<!-- R14_empty -->
<g id="node50" class="node"><title>R14_empty</title>
<text text-anchor="middle" x="347" y="-14.5" font-family="Times,serif" font-size="15.00" fill="blue">Ø</text>
</g>
<!-- R14_empty&#45;&gt;R14 -->
<g id="edge50" class="edge"><title>R14_empty&#45;&gt;R14</title>
<path fill="none" stroke="black" d="M374.403,-19.8002C393.641,-21.1119 418.253,-22.79 429.665,-23.568"/>
</g>
<!-- R14_intermediate_p&#45;&gt;Bsyn -->
<g id="edge52" class="edge"><title>R14_intermediate_p&#45;&gt;Bsyn</title>
<path fill="none" stroke="black" d="M528.064,-34.0167C529.539,-34.4023 556.342,-41.4075 579.971,-47.5833"/>
<polygon fill="black" stroke="black" points="579.26,-51.0151 589.82,-50.1576 581.031,-44.2426 579.26,-51.0151"/>
</g>
<!-- R15 -->
<g id="node52" class="node"><title>R15</title>
<polygon fill="none" stroke="black" points="444,-111 430,-111 430,-97 444,-97 444,-111"/>
</g>
<!-- R15_intermediate_p -->
<g id="node54" class="node"><title>R15_intermediate_p</title>
<ellipse fill="black" stroke="black" cx="527" cy="-75" rx="0.036" ry="0.036"/>
</g>
<!-- R15&#45;&gt;R15_intermediate_p -->
<g id="edge54" class="edge"><title>R15&#45;&gt;R15_intermediate_p</title>
<path fill="none" stroke="black" d="M444.049,-102.007C463.62,-95.5572 524.071,-75.6358 525.955,-75.0149"/>
</g>
<!-- R15&#45;&gt;R15_intermediate_m -->
<g id="edge56" class="edge"><title>R15&#45;&gt;R15_intermediate_m</title>
<path fill="none" stroke="black" d="M444.049,-104.481C463.62,-106.038 524.071,-110.847 525.955,-110.996"/>
</g>
<!-- R15_empty -->
<g id="node53" class="node"><title>R15_empty</title>
<text text-anchor="middle" x="347" y="-122.5" font-family="Times,serif" font-size="15.00" fill="blue">Ø</text>
</g>
<!-- R15_empty&#45;&gt;R15 -->
<g id="edge53" class="edge"><title>R15_empty&#45;&gt;R15</title>
<path fill="none" stroke="black" d="M374.403,-119.399C393.641,-114.59 418.253,-108.437 429.665,-105.584"/>
</g>
<!-- R15_intermediate_p&#45;&gt;Bsyn -->
<g id="edge55" class="edge"><title>R15_intermediate_p&#45;&gt;Bsyn</title>
<path fill="none" stroke="black" d="M528.064,-74.987C529.539,-74.6851 556.342,-69.2028 579.971,-64.3696"/>
<polygon fill="black" stroke="black" points="580.725,-67.7879 589.82,-62.3549 579.322,-60.9299 580.725,-67.7879"/>
</g>
<!-- R16 -->
<g id="node56" class="node"><title>R16</title>
<polygon fill="none" stroke="black" points="444,-79 430,-79 430,-65 444,-65 444,-79"/>
</g>
<!-- R16_intermediate_p -->
<g id="node58" class="node"><title>R16_intermediate_p</title>
<ellipse fill="black" stroke="black" cx="527" cy="-57" rx="0.036" ry="0.036"/>
</g>
<!-- R16&#45;&gt;R16_intermediate_p -->
<g id="edge59" class="edge"><title>R16&#45;&gt;R16_intermediate_p</title>
<path fill="none" stroke="black" d="M444.049,-70.969C463.62,-67.633 524.071,-57.3289 525.955,-57.0077"/>
</g>
<!-- R16&#45;&gt;R16_intermediate_m -->
<g id="edge61" class="edge"><title>R16&#45;&gt;R16_intermediate_m</title>
<path fill="none" stroke="black" d="M444.049,-73.4434C463.62,-78.1138 524.071,-92.5396 525.955,-92.9892"/>
</g>
<!-- R16_empty -->
<g id="node57" class="node"><title>R16_empty</title>
<text text-anchor="middle" x="347" y="-68.5" font-family="Times,serif" font-size="15.00" fill="blue">Ø</text>
</g>
<!-- R16_empty&#45;&gt;R16 -->
<g id="edge58" class="edge"><title>R16_empty&#45;&gt;R16</title>
<path fill="none" stroke="black" d="M374.403,-72C393.641,-72 418.253,-72 429.665,-72"/>
</g>
<!-- R16_intermediate_p&#45;&gt;Bsyn -->
<g id="edge60" class="edge"><title>R16_intermediate_p&#45;&gt;Bsyn</title>
<path fill="none" stroke="black" d="M528.064,-57C529.533,-57 556.103,-57 579.654,-57"/>
<polygon fill="black" stroke="black" points="579.821,-60.5001 589.82,-57 579.82,-53.5001 579.821,-60.5001"/>
</g>
<!-- R17 -->
<g id="node60" class="node"><title>R17</title>
<polygon fill="none" stroke="black" points="784,-55 770,-55 770,-41 784,-41 784,-55"/>
</g>
<!-- R17_empty -->
<g id="node62" class="node"><title>R17_empty</title>
<text text-anchor="middle" x="847" y="-44.5" font-family="Times,serif" font-size="15.00" fill="blue">Ø</text>
</g>
<!-- R17&#45;&gt;R17_empty -->
<g id="edge65" class="edge"><title>R17&#45;&gt;R17_empty</title>
<path fill="none" stroke="black" d="M784.275,-48C790.278,-48 799.849,-48 809.68,-48"/>
<polygon fill="black" stroke="black" points="809.88,-51.5001 819.88,-48 809.88,-44.5001 809.88,-51.5001"/>
</g>
<!-- R17_intermediate_r&#45;&gt;R17 -->
<g id="edge63" class="edge"><title>R17_intermediate_r&#45;&gt;R17</title>
<path fill="none" stroke="black" d="M708.049,-48C709.722,-48 753.535,-48 769.906,-48"/>
</g>
</g>
</svg>
