<?xml version="1.0" encoding="UTF-8" standalone="no"?>
<!DOCTYPE svg PUBLIC "-//W3C//DTD SVG 1.1//EN"
 "http://www.w3.org/Graphics/SVG/1.1/DTD/svg11.dtd">
<!-- Generated by graphviz version 2.30.1 (20140821.0912)
 -->
<!-- Title: G Pages: 1 -->
<svg width="3836pt" height="577pt"
 viewBox="0.00 0.00 3836.00 577.30" xmlns="http://www.w3.org/2000/svg" xmlns:xlink="http://www.w3.org/1999/xlink">
<g id="graph0" class="graph" transform="scale(1 1) rotate(0) translate(4 573.302)">
<title>G</title>
<polygon fill="white" stroke="white" points="-4,5 -4,-573.302 3833,-573.302 3833,5 -4,5"/>
<!-- GLCi -->
<g id="GLCi [CHEBI:17234]" class="node"><title>GLCi</title>
<ellipse fill="none" stroke="black" cx="338" cy="-399.302" rx="55.8461" ry="18"/>
<text text-anchor="middle" x="338" y="-396.802" font-family="Times,serif" font-size="10.00">Glucose in Cytosol</text>
</g>
<!-- vGLK_intermediate_r -->
<g id="node28" class="node"><title>vGLK_intermediate_r</title>
<ellipse fill="black" stroke="black" cx="430" cy="-399.302" rx="0.036" ry="0.036"/>
</g>
<!-- GLCi&#45;&gt;vGLK_intermediate_r -->
<g id="edge2" class="edge"><title>GLCi&#45;&gt;vGLK_intermediate_r</title>
<path fill="none" stroke="black" d="M393.946,-399.302C412.098,-399.302 427.978,-399.302 428.953,-399.302"/>
</g>
<!-- G6P -->
<g id="G6P [CHEBI:17665]" class="node"><title>G6P</title>
<ellipse fill="none" stroke="black" cx="614" cy="-515.302" rx="60.0873" ry="18"/>
<text text-anchor="middle" x="614" y="-512.802" font-family="Times,serif" font-size="10.00">Glucose 6 Phosphate</text>
</g>
<!-- vPGI_intermediate_r -->
<g id="node32" class="node"><title>vPGI_intermediate_r</title>
<ellipse fill="black" stroke="black" cx="711" cy="-500.302" rx="0.036" ry="0.036"/>
</g>
<!-- G6P&#45;&gt;vPGI_intermediate_r -->
<g id="edge10" class="edge"><title>G6P&#45;&gt;vPGI_intermediate_r</title>
<path fill="none" stroke="black" d="M667.502,-507.012C688.786,-503.651 708.716,-500.505 709.94,-500.311"/>
</g>
<!-- vGLYCO_intermediate_r -->
<g id="node35" class="node"><title>vGLYCO_intermediate_r</title>
<ellipse fill="black" stroke="black" cx="3111" cy="-539.302" rx="0.036" ry="0.036"/>
</g>
<!-- G6P&#45;&gt;vGLYCO_intermediate_r -->
<g id="edge14" class="edge"><title>G6P&#45;&gt;vGLYCO_intermediate_r</title>
<path fill="none" stroke="black" d="M640.496,-531.797C667.537,-547.677 712.06,-569.302 754,-569.302 754,-569.302 754,-569.302 2900,-569.302 2992.81,-569.302 3106.39,-540.232 3109.92,-539.324"/>
</g>
<!-- vTreha_intermediate_r -->
<g id="node38" class="node"><title>vTreha_intermediate_r</title>
<ellipse fill="black" stroke="black" cx="3111" cy="-419.302" rx="0.036" ry="0.036"/>
</g>
<!-- G6P&#45;&gt;vTreha_intermediate_r -->
<g id="edge19" class="edge"><title>G6P&#45;&gt;vTreha_intermediate_r</title>
<path fill="none" stroke="black" d="M666.654,-524.098C692.756,-527.815 724.972,-531.302 754,-531.302 754,-531.302 754,-531.302 2856,-531.302 2977.45,-531.302 3105.92,-422.775 3109.9,-419.383"/>
</g>
<!-- F6P -->
<g id="F6P [CHEBI:15946]" class="node"><title>F6P</title>
<ellipse fill="none" stroke="black" cx="897" cy="-485.302" rx="60.7649" ry="18"/>
<text text-anchor="middle" x="897" y="-482.802" font-family="Times,serif" font-size="10.00">Fructose 6 Phosphate</text>
</g>
<!-- vPFK_intermediate_r -->
<g id="node41" class="node"><title>vPFK_intermediate_r</title>
<ellipse fill="black" stroke="black" cx="995" cy="-485.302" rx="0.036" ry="0.036"/>
</g>
<!-- F6P&#45;&gt;vPFK_intermediate_r -->
<g id="edge24" class="edge"><title>F6P&#45;&gt;vPFK_intermediate_r</title>
<path fill="none" stroke="black" d="M957.707,-485.302C976.619,-485.302 992.949,-485.302 993.951,-485.302"/>
</g>
<!-- F16P -->
<g id="F16P [CHEBI:16905]" class="node"><title>F16P</title>
<ellipse fill="none" stroke="black" cx="1193" cy="-317.302" rx="72.3112" ry="18"/>
<text text-anchor="middle" x="1193" y="-314.802" font-family="Times,serif" font-size="10.00">Fructose&#45;1,6 bisphosphate</text>
</g>
<!-- vALD_intermediate_r -->
<g id="node45" class="node"><title>vALD_intermediate_r</title>
<ellipse fill="black" stroke="black" cx="1303" cy="-317.302" rx="0.036" ry="0.036"/>
</g>
<!-- F16P&#45;&gt;vALD_intermediate_r -->
<g id="edge33" class="edge"><title>F16P&#45;&gt;vALD_intermediate_r</title>
<path fill="none" stroke="black" d="M1265.44,-317.302C1284.89,-317.302 1300.97,-317.302 1301.95,-317.302"/>
</g>
<!-- TRIO -->
<g id="TRIO [CHEBI:16108] [CHEBI:29052] [CHEBI:29052]" class="node"><title>TRIO</title>
<ellipse fill="none" stroke="black" cx="1479" cy="-317.302" rx="51.4282" ry="18"/>
<text text-anchor="middle" x="1479" y="-314.802" font-family="Times,serif" font-size="10.00">Triose&#45;phosphate</text>
</g>
<!-- vGAPDH_intermediate_r -->
<g id="node48" class="node"><title>vGAPDH_intermediate_r</title>
<ellipse fill="black" stroke="black" cx="1567" cy="-324.302" rx="0.036" ry="0.036"/>
</g>
<!-- TRIO&#45;&gt;vGAPDH_intermediate_r -->
<g id="edge37" class="edge"><title>TRIO&#45;&gt;vGAPDH_intermediate_r</title>
<path fill="none" stroke="black" d="M1529.03,-321.293C1547.74,-322.815 1564.89,-324.212 1565.95,-324.298"/>
</g>
<!-- vG3PDH_intermediate_r -->
<g id="node77" class="node"><title>vG3PDH_intermediate_r</title>
<ellipse fill="black" stroke="black" cx="3641" cy="-173.302" rx="0.036" ry="0.036"/>
</g>
<!-- TRIO&#45;&gt;vG3PDH_intermediate_r -->
<g id="edge89" class="edge"><title>TRIO&#45;&gt;vG3PDH_intermediate_r</title>
<path fill="none" stroke="black" d="M1497.13,-300.449C1551.31,-248.324 1725.84,-89.1 1904,-20.3019 1966.69,3.90564 1986.8,-1.30188 2054,-1.30188 2054,-1.30188 2054,-1.30188 3502,-1.30188 3598.48,-1.30188 3638.74,-167.969 3639.97,-173.177"/>
</g>
<!-- BPG -->
<g id="BPG [CHEBI:16001]" class="node"><title>BPG</title>
<ellipse fill="none" stroke="black" cx="1761" cy="-348.302" rx="68.7474" ry="18"/>
<text text-anchor="middle" x="1761" y="-345.802" font-family="Times,serif" font-size="10.00">1,3&#45;bisphosphoglycerate</text>
</g>
<!-- vPGK_intermediate_r -->
<g id="node51" class="node"><title>vPGK_intermediate_r</title>
<ellipse fill="black" stroke="black" cx="1867" cy="-360.302" rx="0.036" ry="0.036"/>
</g>
<!-- BPG&#45;&gt;vPGK_intermediate_r -->
<g id="edge43" class="edge"><title>BPG&#45;&gt;vPGK_intermediate_r</title>
<path fill="none" stroke="black" d="M1824.3,-355.49C1845.76,-357.966 1864.78,-360.161 1865.94,-360.295"/>
</g>
<!-- P3G -->
<g id="P3G [CHEBI:17794]" class="node"><title>P3G</title>
<ellipse fill="none" stroke="black" cx="2150" cy="-333.302" rx="57.8786" ry="18"/>
<text text-anchor="middle" x="2150" y="-330.802" font-family="Times,serif" font-size="10.00">3&#45;phosphoglycerate</text>
</g>
<!-- vPGM_intermediate_r -->
<g id="node55" class="node"><title>vPGM_intermediate_r</title>
<ellipse fill="black" stroke="black" cx="2245" cy="-333.302" rx="0.036" ry="0.036"/>
</g>
<!-- P3G&#45;&gt;vPGM_intermediate_r -->
<g id="edge51" class="edge"><title>P3G&#45;&gt;vPGM_intermediate_r</title>
<path fill="none" stroke="black" d="M2207.78,-333.302C2226.53,-333.302 2242.94,-333.302 2243.95,-333.302"/>
</g>
<!-- P2G -->
<g id="P2G [CHEBI:17835]" class="node"><title>P2G</title>
<ellipse fill="none" stroke="black" cx="2428" cy="-333.302" rx="57.8786" ry="18"/>
<text text-anchor="middle" x="2428" y="-330.802" font-family="Times,serif" font-size="10.00">2&#45;phosphoglycerate</text>
</g>
<!-- vENO_intermediate_r -->
<g id="node58" class="node"><title>vENO_intermediate_r</title>
<ellipse fill="black" stroke="black" cx="2523" cy="-333.302" rx="0.036" ry="0.036"/>
</g>
<!-- P2G&#45;&gt;vENO_intermediate_r -->
<g id="edge55" class="edge"><title>P2G&#45;&gt;vENO_intermediate_r</title>
<path fill="none" stroke="black" d="M2485.78,-333.302C2504.53,-333.302 2520.94,-333.302 2521.95,-333.302"/>
</g>
<!-- PEP -->
<g id="PEP [CHEBI:18021] [CHEBI:18021]" class="node"><title>PEP</title>
<ellipse fill="none" stroke="black" cx="2711" cy="-333.302" rx="62.2967" ry="18"/>
<text text-anchor="middle" x="2711" y="-330.802" font-family="Times,serif" font-size="10.00">Phosphoenolpyruvate</text>
</g>
<!-- vPYK_intermediate_r -->
<g id="node61" class="node"><title>vPYK_intermediate_r</title>
<ellipse fill="black" stroke="black" cx="2811" cy="-330.302" rx="0.036" ry="0.036"/>
</g>
<!-- PEP&#45;&gt;vPYK_intermediate_r -->
<g id="edge59" class="edge"><title>PEP&#45;&gt;vPYK_intermediate_r</title>
<path fill="none" stroke="black" d="M2773.23,-331.428C2792.42,-330.84 2808.94,-330.334 2809.95,-330.303"/>
</g>
<!-- PYR -->
<g id="PYR [CHEBI:15361] [CHEBI:32816]" class="node"><title>PYR</title>
<ellipse fill="none" stroke="black" cx="3005" cy="-219.302" rx="31.3996" ry="18"/>
<text text-anchor="middle" x="3005" y="-216.802" font-family="Times,serif" font-size="10.00">Pyruvate</text>
</g>
<!-- vPDC_intermediate_r -->
<g id="node65" class="node"><title>vPDC_intermediate_r</title>
<ellipse fill="black" stroke="black" cx="3111" cy="-219.302" rx="0.036" ry="0.036"/>
</g>
<!-- PYR&#45;&gt;vPDC_intermediate_r -->
<g id="edge67" class="edge"><title>PYR&#45;&gt;vPDC_intermediate_r</title>
<path fill="none" stroke="black" d="M3036.36,-219.302C3066.1,-219.302 3107.33,-219.302 3109.88,-219.302"/>
</g>
<!-- ACE -->
<g id="ACE [CHEBI:15343]" class="node"><title>ACE</title>
<ellipse fill="none" stroke="black" cx="3332" cy="-219.302" rx="43.6222" ry="18"/>
<text text-anchor="middle" x="3332" y="-216.802" font-family="Times,serif" font-size="10.00">Acetaldehyde</text>
</g>
<!-- vSUC_intermediate_r -->
<g id="node68" class="node"><title>vSUC_intermediate_r</title>
<ellipse fill="black" stroke="black" cx="3413" cy="-288.302" rx="0.036" ry="0.036"/>
</g>
<!-- ACE&#45;&gt;vSUC_intermediate_r -->
<g id="edge72" class="edge"><title>ACE&#45;&gt;vSUC_intermediate_r</title>
<path fill="none" stroke="black" d="M3358.9,-233.799C3364.77,-237.553 3370.79,-241.813 3376,-246.302 3394.04,-261.852 3410.91,-286.69 3411.95,-288.227"/>
</g>
<!-- vADH_intermediate_r -->
<g id="node74" class="node"><title>vADH_intermediate_r</title>
<ellipse fill="black" stroke="black" cx="3641" cy="-219.302" rx="0.036" ry="0.036"/>
</g>
<!-- ACE&#45;&gt;vADH_intermediate_r -->
<g id="edge83" class="edge"><title>ACE&#45;&gt;vADH_intermediate_r</title>
<path fill="none" stroke="black" d="M3375.69,-219.302C3399.36,-219.302 3429.31,-219.302 3456,-219.302 3456,-219.302 3456,-219.302 3502,-219.302 3562.38,-219.302 3637.61,-219.302 3639.94,-219.302"/>
</g>
<!-- P -->
<g id="P [CHEBI:16761] [CHEBI:16761] [CHEBI:15422]" class="node"><title>P</title>
<ellipse fill="none" stroke="black" cx="3005" cy="-380.302" rx="68.0705" ry="18"/>
<text text-anchor="middle" x="3005" y="-377.802" font-family="Times,serif" font-size="10.00">High energy phosphates</text>
</g>
<!-- P&#45;&gt;vGLK_intermediate_r -->
<g id="edge3" class="edge"><title>P&#45;&gt;vGLK_intermediate_r</title>
<path fill="none" stroke="black" d="M2966.32,-395.138C2936.78,-405.432 2894.4,-417.302 2856,-417.302 516,-417.302 516,-417.302 516,-417.302 478.591,-417.302 433.891,-400.409 431.134,-399.354"/>
</g>
<!-- P&#45;&gt;vGLYCO_intermediate_r -->
<g id="edge15" class="edge"><title>P&#45;&gt;vGLYCO_intermediate_r</title>
<path fill="none" stroke="black" d="M3017.73,-398.232C3044.5,-439.165 3107.98,-536.207 3109.95,-539.23"/>
</g>
<!-- P&#45;&gt;vTreha_intermediate_r -->
<g id="edge20" class="edge"><title>P&#45;&gt;vTreha_intermediate_r</title>
<path fill="none" stroke="black" d="M3045.02,-394.935C3073.61,-405.656 3107.79,-418.473 3109.9,-419.263"/>
</g>
<!-- P&#45;&gt;vPFK_intermediate_r -->
<g id="edge25" class="edge"><title>P&#45;&gt;vPFK_intermediate_r</title>
<path fill="none" stroke="black" d="M2966.34,-395.155C2956.09,-399.95 2945.27,-405.746 2936,-412.302 2894.69,-441.525 2906.6,-493.302 2856,-493.302 1082,-493.302 1082,-493.302 1082,-493.302 1044.81,-493.302 998.967,-485.794 996.138,-485.325"/>
</g>
<!-- P&#45;&gt;vSUC_intermediate_r -->
<g id="edge74" class="edge"><title>P&#45;&gt;vSUC_intermediate_r</title>
<path fill="none" stroke="black" d="M3030.14,-363.472C3058.46,-345.416 3107.45,-319.302 3154,-319.302 3154,-319.302 3154,-319.302 3226,-319.302 3293.2,-319.302 3310.48,-315.221 3376,-300.302 3391.93,-296.675 3410.78,-288.813 3411.94,-288.326"/>
</g>
<!-- vATP_intermediate_r -->
<g id="node80" class="node"><title>vATP_intermediate_r</title>
<ellipse fill="black" stroke="black" cx="3111" cy="-380.302" rx="0.036" ry="0.036"/>
</g>
<!-- P&#45;&gt;vATP_intermediate_r -->
<g id="edge95" class="edge"><title>P&#45;&gt;vATP_intermediate_r</title>
<path fill="none" stroke="black" d="M3073.33,-380.302C3092.7,-380.302 3108.95,-380.302 3109.95,-380.302"/>
</g>
<!-- NAD -->
<g id="NAD [CHEBI:15846]" class="node"><title>NAD</title>
<ellipse fill="none" stroke="black" cx="3797" cy="-304.302" rx="18" ry="18"/>
<text text-anchor="middle" x="3797" y="-301.802" font-family="Times,serif" font-size="10.00">NAD</text>
</g>
<!-- NAD&#45;&gt;vGAPDH_intermediate_r -->
<g id="edge38" class="edge"><title>NAD&#45;&gt;vGAPDH_intermediate_r</title>
<path fill="none" stroke="black" d="M3792.61,-322.036C3783.5,-363.694 3754.43,-464.302 3686,-464.302 3110,-464.302 3110,-464.302 3110,-464.302 2997.04,-464.302 2968.96,-455.302 2856,-455.302 1654,-455.302 1654,-455.302 1654,-455.302 1585.44,-455.302 1568.52,-328.364 1568.01,-324.397"/>
</g>
<!-- NAD&#45;&gt;vSUC_intermediate_r -->
<g id="edge73" class="edge"><title>NAD&#45;&gt;vSUC_intermediate_r</title>
<path fill="none" stroke="black" d="M3778.87,-306.068C3757.26,-308.142 3718.91,-311.302 3686,-311.302 3500,-311.302 3500,-311.302 3500,-311.302 3461.67,-311.302 3416.9,-289.717 3414.13,-288.368"/>
</g>
<!-- NADH -->
<g id="NADH [CHEBI:16908]" class="node"><title>NADH</title>
<ellipse fill="none" stroke="black" cx="3571" cy="-173.302" rx="18" ry="18"/>
<text text-anchor="middle" x="3571" y="-170.802" font-family="Times,serif" font-size="10.00">NADH</text>
</g>
<!-- NADH&#45;&gt;vADH_intermediate_r -->
<g id="edge84" class="edge"><title>NADH&#45;&gt;vADH_intermediate_r</title>
<path fill="none" stroke="black" d="M3586.42,-183.057C3605.76,-196.138 3637.91,-217.89 3639.9,-219.236"/>
</g>
<!-- NADH&#45;&gt;vG3PDH_intermediate_r -->
<g id="edge90" class="edge"><title>NADH&#45;&gt;vG3PDH_intermediate_r</title>
<path fill="none" stroke="black" d="M3589.16,-173.302C3608.67,-173.302 3638.09,-173.302 3639.91,-173.302"/>
</g>
<!-- Glyc -->
<g id="Glyc [CHEBI:28087]" class="node"><title>Glyc</title>
<ellipse fill="none" stroke="black" cx="3332" cy="-539.302" rx="33.6077" ry="18"/>
<text text-anchor="middle" x="3332" y="-536.802" font-family="Times,serif" font-size="10.00">Glycogen</text>
</g>
<!-- Trh -->
<g id="Trh [CHEBI:27082]" class="node"><title>Trh</title>
<ellipse fill="none" stroke="black" cx="3332" cy="-418.302" rx="32.9303" ry="18"/>
<text text-anchor="middle" x="3332" y="-415.802" font-family="Times,serif" font-size="10.00">Trehalose</text>
</g>
<!-- CO2 -->
<g id="CO2 [CHEBI:16526]" class="node"><title>CO2</title>
<ellipse fill="none" stroke="black" cx="3332" cy="-273.302" rx="18" ry="18"/>
<text text-anchor="middle" x="3332" y="-270.802" font-family="Times,serif" font-size="10.00">CO2</text>
</g>
<!-- SUCC -->
<g id="SUCC [CHEBI:30031]" class="node"><title>SUCC</title>
<ellipse fill="none" stroke="black" cx="3571" cy="-265.302" rx="32.9303" ry="18"/>
<text text-anchor="middle" x="3571" y="-262.802" font-family="Times,serif" font-size="10.00">Succinate</text>
</g>
<!-- GLCo -->
<g id="GLCo [CHEBI:17234]" class="node"><title>GLCo</title>
<ellipse fill="none" stroke="black" cx="62" cy="-399.302" rx="61.6198" ry="18"/>
<text text-anchor="middle" x="62" y="-396.802" font-family="Times,serif" font-size="10.00">Extracellular Glucose</text>
</g>
<!-- vGLT_intermediate_r -->
<g id="node71" class="node"><title>vGLT_intermediate_r</title>
<ellipse fill="black" stroke="black" cx="160" cy="-399.302" rx="0.036" ry="0.036"/>
</g>
<!-- GLCo&#45;&gt;vGLT_intermediate_r -->
<g id="edge79" class="edge"><title>GLCo&#45;&gt;vGLT_intermediate_r</title>
<path fill="none" stroke="black" d="M124.07,-399.302C142.412,-399.302 157.997,-399.302 158.954,-399.302"/>
</g>
<!-- ETOH -->
<g id="ETOH [CHEBI:16236]" class="node"><title>ETOH</title>
<ellipse fill="none" stroke="black" cx="3797" cy="-248.302" rx="28.6898" ry="18"/>
<text text-anchor="middle" x="3797" y="-245.802" font-family="Times,serif" font-size="10.00">Ethanol</text>
</g>
<!-- GLY -->
<g id="GLY [CHEBI:17754]" class="node"><title>GLY</title>
<ellipse fill="none" stroke="black" cx="3797" cy="-190.302" rx="31.3996" ry="18"/>
<text text-anchor="middle" x="3797" y="-187.802" font-family="Times,serif" font-size="10.00">Glycerol</text>
</g>
<!-- ATP -->
<g id="ATP [CHEBI:15422]" class="node"><title>ATP</title>
<ellipse fill="none" stroke="black" cx="1961" cy="-231.302" rx="55.1691" ry="18"/>
<text text-anchor="middle" x="1961" y="-228.802" font-family="Times,serif" font-size="10.00">ATP concentration</text>
</g>
<!-- vGLK_intermediate_m -->
<g id="node30" class="node"><title>vGLK_intermediate_m</title>
<ellipse fill="black" stroke="black" cx="2055" cy="-277.302" rx="0.036" ry="0.036"/>
</g>
<!-- ATP&#45;&gt;vGLK_intermediate_m -->
<g id="edge7" class="edge"><title>ATP&#45;&gt;vGLK_intermediate_m</title>
<path fill="none" stroke="black" d="M1992.12,-246.364C2018.12,-259.36 2051.82,-276.211 2053.9,-277.251"/>
</g>
<!-- vPFK_intermediate_m -->
<g id="node43" class="node"><title>vPFK_intermediate_m</title>
<ellipse fill="black" stroke="black" cx="2055" cy="-123.302" rx="0.036" ry="0.036"/>
</g>
<!-- ATP&#45;&gt;vPFK_intermediate_m -->
<g id="edge30" class="edge"><title>ATP&#45;&gt;vPFK_intermediate_m</title>
<path fill="none" stroke="black" d="M1976.78,-213.95C2002.38,-183.898 2052.41,-125.173 2053.96,-123.346"/>
</g>
<!-- vPGK_intermediate_m -->
<g id="node53" class="node"><title>vPGK_intermediate_m</title>
<ellipse fill="black" stroke="black" cx="2055" cy="-333.302" rx="0.036" ry="0.036"/>
</g>
<!-- ATP&#45;&gt;vPGK_intermediate_m -->
<g id="edge48" class="edge"><title>ATP&#45;&gt;vPGK_intermediate_m</title>
<path fill="none" stroke="black" d="M1977.61,-248.605C2003.03,-276.796 2050.89,-329.853 2053.86,-333.142"/>
</g>
<!-- vPYK_intermediate_m -->
<g id="node63" class="node"><title>vPYK_intermediate_m</title>
<ellipse fill="black" stroke="black" cx="2899" cy="-287.302" rx="0.036" ry="0.036"/>
</g>
<!-- ATP&#45;&gt;vPYK_intermediate_m -->
<g id="edge64" class="edge"><title>ATP&#45;&gt;vPYK_intermediate_m</title>
<path fill="none" stroke="black" d="M2011.48,-238.675C2049.11,-243.646 2102.2,-249.302 2149,-249.302 2149,-249.302 2149,-249.302 2812,-249.302 2852.48,-249.302 2895.24,-284.964 2897.87,-287.193"/>
</g>
<!-- vATP_intermediate_m -->
<g id="node82" class="node"><title>vATP_intermediate_m</title>
<ellipse fill="black" stroke="black" cx="3225" cy="-347.302" rx="0.036" ry="0.036"/>
</g>
<!-- ATP&#45;&gt;vATP_intermediate_m -->
<g id="edge98" class="edge"><title>ATP&#45;&gt;vATP_intermediate_m</title>
<path fill="none" stroke="black" d="M2010.67,-223.225C2048.32,-217.674 2101.82,-211.302 2149,-211.302 2149,-211.302 2149,-211.302 2812,-211.302 2835.92,-211.302 3217.96,-345.185 3223.93,-347.277"/>
</g>
<!-- ADP -->
<g id="ADP [CHEBI:16761]" class="node"><title>ADP</title>
<ellipse fill="none" stroke="black" cx="1961" cy="-323.302" rx="55.8461" ry="18"/>
<text text-anchor="middle" x="1961" y="-320.802" font-family="Times,serif" font-size="10.00">ADP concentration</text>
</g>
<!-- ADP&#45;&gt;vGLK_intermediate_m -->
<g id="edge8" class="edge"><title>ADP&#45;&gt;vGLK_intermediate_m</title>
<path fill="none" stroke="black" d="M1992.12,-308.24C2018.12,-295.243 2051.82,-278.393 2053.9,-277.353"/>
</g>
<!-- ADP&#45;&gt;vPGK_intermediate_m -->
<g id="edge49" class="edge"><title>ADP&#45;&gt;vPGK_intermediate_m</title>
<path fill="none" stroke="black" d="M2014.18,-328.974C2034.3,-331.16 2052.81,-333.172 2053.94,-333.296"/>
</g>
<!-- ADP&#45;&gt;vPYK_intermediate_m -->
<g id="edge65" class="edge"><title>ADP&#45;&gt;vPYK_intermediate_m</title>
<path fill="none" stroke="black" d="M2008.67,-313.655C2064.41,-302.991 2160.59,-287.302 2244,-287.302 2244,-287.302 2244,-287.302 2812,-287.302 2849.03,-287.302 2895.02,-287.302 2897.86,-287.302"/>
</g>
<!-- AMP -->
<g id="AMP [CHEBI:16027]" class="node"><title>AMP</title>
<ellipse fill="none" stroke="black" cx="1961" cy="-101.302" rx="57.2008" ry="18"/>
<text text-anchor="middle" x="1961" y="-98.8019" font-family="Times,serif" font-size="10.00">AMP concentration</text>
</g>
<!-- AMP&#45;&gt;vPFK_intermediate_m -->
<g id="edge29" class="edge"><title>AMP&#45;&gt;vPFK_intermediate_m</title>
<path fill="none" stroke="black" d="M2006.92,-112.044C2029.55,-117.454 2052.52,-122.947 2053.93,-123.285"/>
</g>
<!-- SUM_P -->
<g id="SUM_P [CHEBI:15422] [CHEBI:16761] [CHEBI:16027] [CHEBI:15422]" class="node"><title>SUM_P</title>
<ellipse fill="none" stroke="black" cx="62" cy="-453.302" rx="51.6054" ry="18"/>
<text text-anchor="middle" x="62" y="-450.802" font-family="Times,serif" font-size="10.00">sum of AXP conc</text>
</g>
<!-- F26BP -->
<g id="F26BP [CHEBI:28602]" class="node"><title>F26BP</title>
<ellipse fill="none" stroke="black" cx="1961" cy="-47.3019" rx="18" ry="18"/>
<text text-anchor="middle" x="1961" y="-44.8019" font-family="Times,serif" font-size="10.00">F2,6P</text>
</g>
<!-- F26BP&#45;&gt;vPFK_intermediate_m -->
<g id="edge31" class="edge"><title>F26BP&#45;&gt;vPFK_intermediate_m</title>
<path fill="none" stroke="black" d="M1978.41,-52.7695C1990.27,-57.272 2006.21,-64.5081 2018,-74.3019 2038.14,-91.0306 2053.04,-121.333 2053.96,-123.21"/>
</g>
<!-- vGLK -->
<g id="node27" class="node"><title>vGLK</title>
<polygon fill="none" stroke="black" points="480,-389.302 466,-389.302 466,-375.302 480,-375.302 480,-389.302"/>
</g>
<!-- vGLK_intermediate_p -->
<g id="node29" class="node"><title>vGLK_intermediate_p</title>
<ellipse fill="black" stroke="black" cx="517" cy="-465.302" rx="0.036" ry="0.036"/>
</g>
<!-- vGLK&#45;&gt;vGLK_intermediate_p -->
<g id="edge4" class="edge"><title>vGLK&#45;&gt;vGLK_intermediate_p</title>
<path fill="none" stroke="black" d="M477.581,-389.378C487.42,-408.823 514.251,-461.846 515.919,-465.141"/>
</g>
<!-- vGLK&#45;&gt;vGLK_intermediate_m -->
<g id="edge6" class="edge"><title>vGLK&#45;&gt;vGLK_intermediate_m</title>
<path fill="none" stroke="black" d="M475.289,-375.291C482.181,-340.197 517.983,-185.302 613,-185.302 613,-185.302 613,-185.302 1568,-185.302 1720.82,-185.302 1753.38,-232.453 1904,-258.302 1969.2,-269.491 2051.39,-277.062 2053.94,-277.296"/>
</g>
<!-- vGLK_intermediate_r&#45;&gt;vGLK -->
<g id="edge1" class="edge"><title>vGLK_intermediate_r&#45;&gt;vGLK</title>
<path fill="none" stroke="black" d="M431.118,-399.253C432.921,-398.505 455.016,-389.344 465.95,-384.81"/>
</g>
<!-- vGLK_intermediate_p&#45;&gt;G6P -->
<g id="edge5" class="edge"><title>vGLK_intermediate_p&#45;&gt;G6P</title>
<path fill="none" stroke="black" d="M518.069,-465.338C519.672,-466.182 548.976,-481.605 574.605,-495.094"/>
<polygon fill="black" stroke="black" points="572.987,-498.197 583.466,-499.758 576.247,-492.003 572.987,-498.197"/>
</g>
<!-- vPGI -->
<g id="node31" class="node"><title>vPGI</title>
<polygon fill="none" stroke="black" points="762,-498.302 748,-498.302 748,-484.302 762,-484.302 762,-498.302"/>
</g>
<!-- vPGI_intermediate_p -->
<g id="node33" class="node"><title>vPGI_intermediate_p</title>
<ellipse fill="black" stroke="black" cx="799" cy="-487.302" rx="0.036" ry="0.036"/>
</g>
<!-- vPGI&#45;&gt;vPGI_intermediate_p -->
<g id="edge11" class="edge"><title>vPGI&#45;&gt;vPGI_intermediate_p</title>
<path fill="none" stroke="black" d="M762.197,-490.712C773.515,-489.634 796.505,-487.444 797.93,-487.309"/>
</g>
<!-- vPGI_intermediate_r&#45;&gt;vPGI -->
<g id="edge9" class="edge"><title>vPGI_intermediate_r&#45;&gt;vPGI</title>
<path fill="none" stroke="black" d="M712.12,-500.276C713.968,-499.88 736.602,-495.03 747.803,-492.63"/>
</g>
<!-- vPGI_intermediate_p&#45;&gt;F6P -->
<g id="edge12" class="edge"><title>vPGI_intermediate_p&#45;&gt;F6P</title>
<path fill="none" stroke="black" d="M800.07,-487.3C801.038,-487.28 812.015,-487.052 826.222,-486.756"/>
<polygon fill="black" stroke="black" points="826.565,-490.249 836.49,-486.542 826.42,-483.251 826.565,-490.249"/>
</g>
<!-- vGLYCO -->
<g id="node34" class="node"><title>vGLYCO</title>
<polygon fill="none" stroke="black" points="3162,-546.302 3148,-546.302 3148,-532.302 3162,-532.302 3162,-546.302"/>
</g>
<!-- vGLYCO_intermediate_p -->
<g id="node36" class="node"><title>vGLYCO_intermediate_p</title>
<ellipse fill="black" stroke="black" cx="3225" cy="-539.302" rx="0.036" ry="0.036"/>
</g>
<!-- vGLYCO&#45;&gt;vGLYCO_intermediate_p -->
<g id="edge16" class="edge"><title>vGLYCO&#45;&gt;vGLYCO_intermediate_p</title>
<path fill="none" stroke="black" d="M3162.28,-539.302C3178.58,-539.302 3221.22,-539.302 3223.87,-539.302"/>
</g>
<!-- vGLYCO_intermediate_r&#45;&gt;vGLYCO -->
<g id="edge13" class="edge"><title>vGLYCO_intermediate_r&#45;&gt;vGLYCO</title>
<path fill="none" stroke="black" d="M3112.12,-539.302C3113.97,-539.302 3136.6,-539.302 3147.8,-539.302"/>
</g>
<!-- vGLYCO_intermediate_p&#45;&gt;Glyc -->
<g id="edge17" class="edge"><title>vGLYCO_intermediate_p&#45;&gt;Glyc</title>
<path fill="none" stroke="black" d="M3226.08,-539.302C3227.84,-539.302 3259.95,-539.302 3288.19,-539.302"/>
<polygon fill="black" stroke="black" points="3288.36,-542.802 3298.36,-539.302 3288.36,-535.802 3288.36,-542.802"/>
</g>
<!-- vTreha -->
<g id="node37" class="node"><title>vTreha</title>
<polygon fill="none" stroke="black" points="3162,-426.302 3148,-426.302 3148,-412.302 3162,-412.302 3162,-426.302"/>
</g>
<!-- vTreha_intermediate_p -->
<g id="node39" class="node"><title>vTreha_intermediate_p</title>
<ellipse fill="black" stroke="black" cx="3225" cy="-419.302" rx="0.036" ry="0.036"/>
</g>
<!-- vTreha&#45;&gt;vTreha_intermediate_p -->
<g id="edge21" class="edge"><title>vTreha&#45;&gt;vTreha_intermediate_p</title>
<path fill="none" stroke="black" d="M3162.28,-419.302C3178.58,-419.302 3221.22,-419.302 3223.87,-419.302"/>
</g>
<!-- vTreha_intermediate_r&#45;&gt;vTreha -->
<g id="edge18" class="edge"><title>vTreha_intermediate_r&#45;&gt;vTreha</title>
<path fill="none" stroke="black" d="M3112.12,-419.302C3113.97,-419.302 3136.6,-419.302 3147.8,-419.302"/>
</g>
<!-- vTreha_intermediate_p&#45;&gt;Trh -->
<g id="edge22" class="edge"><title>vTreha_intermediate_p&#45;&gt;Trh</title>
<path fill="none" stroke="black" d="M3226.08,-419.301C3227.85,-419.284 3260.36,-418.975 3288.72,-418.705"/>
<polygon fill="black" stroke="black" points="3288.96,-422.203 3298.92,-418.607 3288.89,-415.203 3288.96,-422.203"/>
</g>
<!-- vPFK -->
<g id="node40" class="node"><title>vPFK</title>
<polygon fill="none" stroke="black" points="1046,-324.302 1032,-324.302 1032,-310.302 1046,-310.302 1046,-324.302"/>
</g>
<!-- vPFK_intermediate_p -->
<g id="node42" class="node"><title>vPFK_intermediate_p</title>
<ellipse fill="black" stroke="black" cx="1083" cy="-317.302" rx="0.036" ry="0.036"/>
</g>
<!-- vPFK&#45;&gt;vPFK_intermediate_p -->
<g id="edge26" class="edge"><title>vPFK&#45;&gt;vPFK_intermediate_p</title>
<path fill="none" stroke="black" d="M1046.2,-317.302C1057.52,-317.302 1080.5,-317.302 1081.93,-317.302"/>
</g>
<!-- vPFK&#45;&gt;vPFK_intermediate_m -->
<g id="edge28" class="edge"><title>vPFK&#45;&gt;vPFK_intermediate_m</title>
<path fill="none" stroke="black" d="M1045.83,-310.237C1064.57,-288.376 1125.91,-223.302 1192,-223.302 1192,-223.302 1192,-223.302 1348,-223.302 1450.61,-223.302 1463.39,-147.302 1566,-147.302 1566,-147.302 1566,-147.302 1868,-147.302 1950.05,-147.302 2050.8,-124.046 2053.93,-123.319"/>
</g>
<!-- vPFK_intermediate_r&#45;&gt;vPFK -->
<g id="edge23" class="edge"><title>vPFK_intermediate_r&#45;&gt;vPFK</title>
<path fill="none" stroke="black" d="M996.03,-485.18C997.143,-480.729 1028.44,-355.536 1036.25,-324.307"/>
</g>
<!-- vPFK_intermediate_p&#45;&gt;F16P -->
<g id="edge27" class="edge"><title>vPFK_intermediate_p&#45;&gt;F16P</title>
<path fill="none" stroke="black" d="M1084.08,-317.302C1085.1,-317.302 1096.02,-317.302 1110.55,-317.302"/>
<polygon fill="black" stroke="black" points="1110.55,-320.802 1120.55,-317.302 1110.55,-313.802 1110.55,-320.802"/>
</g>
<!-- vALD -->
<g id="node44" class="node"><title>vALD</title>
<polygon fill="none" stroke="black" points="1354,-324.302 1340,-324.302 1340,-310.302 1354,-310.302 1354,-324.302"/>
</g>
<!-- vALD_intermediate_p -->
<g id="node46" class="node"><title>vALD_intermediate_p</title>
<ellipse fill="black" stroke="black" cx="1391" cy="-317.302" rx="0.036" ry="0.036"/>
</g>
<!-- vALD&#45;&gt;vALD_intermediate_p -->
<g id="edge34" class="edge"><title>vALD&#45;&gt;vALD_intermediate_p</title>
<path fill="none" stroke="black" d="M1354.2,-317.302C1365.52,-317.302 1388.5,-317.302 1389.93,-317.302"/>
</g>
<!-- vALD_intermediate_r&#45;&gt;vALD -->
<g id="edge32" class="edge"><title>vALD_intermediate_r&#45;&gt;vALD</title>
<path fill="none" stroke="black" d="M1304.12,-317.302C1305.97,-317.302 1328.6,-317.302 1339.8,-317.302"/>
</g>
<!-- vALD_intermediate_p&#45;&gt;TRIO -->
<g id="edge35" class="edge"><title>vALD_intermediate_p&#45;&gt;TRIO</title>
<path fill="none" stroke="black" d="M1392.06,-317.302C1392.97,-317.302 1403.71,-317.302 1417.3,-317.302"/>
<polygon fill="black" stroke="black" points="1417.61,-320.802 1427.61,-317.302 1417.61,-313.802 1417.61,-320.802"/>
</g>
<!-- vGAPDH -->
<g id="node47" class="node"><title>vGAPDH</title>
<polygon fill="none" stroke="black" points="1618,-331.302 1604,-331.302 1604,-317.302 1618,-317.302 1618,-331.302"/>
</g>
<!-- vGAPDH_intermediate_p -->
<g id="node49" class="node"><title>vGAPDH_intermediate_p</title>
<ellipse fill="black" stroke="black" cx="1655" cy="-324.302" rx="0.036" ry="0.036"/>
</g>
<!-- vGAPDH&#45;&gt;vGAPDH_intermediate_p -->
<g id="edge39" class="edge"><title>vGAPDH&#45;&gt;vGAPDH_intermediate_p</title>
<path fill="none" stroke="black" d="M1618.2,-324.302C1629.52,-324.302 1652.5,-324.302 1653.93,-324.302"/>
</g>
<!-- vGAPDH_intermediate_r&#45;&gt;vGAPDH -->
<g id="edge36" class="edge"><title>vGAPDH_intermediate_r&#45;&gt;vGAPDH</title>
<path fill="none" stroke="black" d="M1568.12,-324.302C1569.97,-324.302 1592.6,-324.302 1603.8,-324.302"/>
</g>
<!-- vGAPDH_intermediate_p&#45;&gt;BPG -->
<g id="edge40" class="edge"><title>vGAPDH_intermediate_p&#45;&gt;BPG</title>
<path fill="none" stroke="black" d="M1656.08,-324.319C1657.44,-324.635 1677.18,-329.19 1699.1,-334.248"/>
<polygon fill="black" stroke="black" points="1698.39,-337.676 1708.92,-336.514 1699.96,-330.855 1698.39,-337.676"/>
</g>
<!-- vGAPDH_intermediate_p&#45;&gt;NADH -->
<g id="edge41" class="edge"><title>vGAPDH_intermediate_p&#45;&gt;NADH</title>
<path fill="none" stroke="black" d="M1656.1,-324.24C1660.08,-321.652 1788.44,-238.568 1904,-204.302 2009.23,-173.099 2039.24,-173.302 2149,-173.302 2149,-173.302 2149,-173.302 3458,-173.302 3486.91,-173.302 3520.01,-173.302 3542.69,-173.302"/>
<polygon fill="black" stroke="black" points="3542.92,-176.802 3552.92,-173.302 3542.92,-169.802 3542.92,-176.802"/>
</g>
<!-- vPGK -->
<g id="node50" class="node"><title>vPGK</title>
<polygon fill="none" stroke="black" points="1968,-373.302 1954,-373.302 1954,-359.302 1968,-359.302 1968,-373.302"/>
</g>
<!-- vPGK_intermediate_p -->
<g id="node52" class="node"><title>vPGK_intermediate_p</title>
<ellipse fill="black" stroke="black" cx="2055" cy="-366.302" rx="0.036" ry="0.036"/>
</g>
<!-- vPGK&#45;&gt;vPGK_intermediate_p -->
<g id="edge44" class="edge"><title>vPGK&#45;&gt;vPGK_intermediate_p</title>
<path fill="none" stroke="black" d="M1968.04,-366.302C1988.18,-366.302 2051.96,-366.302 2053.95,-366.302"/>
</g>
<!-- vPGK&#45;&gt;vPGK_intermediate_m -->
<g id="edge47" class="edge"><title>vPGK&#45;&gt;vPGK_intermediate_m</title>
<path fill="none" stroke="black" d="M1968.32,-364.852C1978.81,-362.369 2000.4,-356.922 2018,-350.302 2034.04,-344.268 2052.79,-333.971 2053.94,-333.333"/>
</g>
<!-- vPGK_intermediate_r&#45;&gt;vPGK -->
<g id="edge42" class="edge"><title>vPGK_intermediate_r&#45;&gt;vPGK</title>
<path fill="none" stroke="black" d="M1868.07,-360.306C1870.41,-360.459 1933.66,-364.584 1953.86,-365.902"/>
</g>
<!-- vPGK_intermediate_p&#45;&gt;P3G -->
<g id="edge45" class="edge"><title>vPGK_intermediate_p&#45;&gt;P3G</title>
<path fill="none" stroke="black" d="M2056.07,-366.278C2057.44,-365.791 2079.52,-357.956 2101.81,-350.046"/>
<polygon fill="black" stroke="black" points="2103.07,-353.315 2111.32,-346.672 2100.73,-346.718 2103.07,-353.315"/>
</g>
<!-- vPGK_intermediate_p&#45;&gt;P -->
<g id="edge46" class="edge"><title>vPGK_intermediate_p&#45;&gt;P</title>
<path fill="none" stroke="black" d="M2056.08,-366.311C2059.25,-366.705 2161.55,-379.302 2244,-379.302 2244,-379.302 2244,-379.302 2856,-379.302 2878.84,-379.302 2903.66,-379.422 2926.33,-379.58"/>
<polygon fill="black" stroke="black" points="2926.56,-383.081 2936.59,-379.654 2926.61,-376.082 2926.56,-383.081"/>
</g>
<!-- vPGM -->
<g id="node54" class="node"><title>vPGM</title>
<polygon fill="none" stroke="black" points="2296,-340.302 2282,-340.302 2282,-326.302 2296,-326.302 2296,-340.302"/>
</g>
<!-- vPGM_intermediate_p -->
<g id="node56" class="node"><title>vPGM_intermediate_p</title>
<ellipse fill="black" stroke="black" cx="2333" cy="-333.302" rx="0.036" ry="0.036"/>
</g>
<!-- vPGM&#45;&gt;vPGM_intermediate_p -->
<g id="edge52" class="edge"><title>vPGM&#45;&gt;vPGM_intermediate_p</title>
<path fill="none" stroke="black" d="M2296.2,-333.302C2307.52,-333.302 2330.5,-333.302 2331.93,-333.302"/>
</g>
<!-- vPGM_intermediate_r&#45;&gt;vPGM -->
<g id="edge50" class="edge"><title>vPGM_intermediate_r&#45;&gt;vPGM</title>
<path fill="none" stroke="black" d="M2246.12,-333.302C2247.97,-333.302 2270.6,-333.302 2281.8,-333.302"/>
</g>
<!-- vPGM_intermediate_p&#45;&gt;P2G -->
<g id="edge53" class="edge"><title>vPGM_intermediate_p&#45;&gt;P2G</title>
<path fill="none" stroke="black" d="M2334.07,-333.302C2335.02,-333.302 2345.95,-333.302 2359.99,-333.302"/>
<polygon fill="black" stroke="black" points="2360.14,-336.802 2370.14,-333.302 2360.14,-329.802 2360.14,-336.802"/>
</g>
<!-- vENO -->
<g id="node57" class="node"><title>vENO</title>
<polygon fill="none" stroke="black" points="2574,-340.302 2560,-340.302 2560,-326.302 2574,-326.302 2574,-340.302"/>
</g>
<!-- vENO_intermediate_p -->
<g id="node59" class="node"><title>vENO_intermediate_p</title>
<ellipse fill="black" stroke="black" cx="2611" cy="-333.302" rx="0.036" ry="0.036"/>
</g>
<!-- vENO&#45;&gt;vENO_intermediate_p -->
<g id="edge56" class="edge"><title>vENO&#45;&gt;vENO_intermediate_p</title>
<path fill="none" stroke="black" d="M2574.2,-333.302C2585.52,-333.302 2608.5,-333.302 2609.93,-333.302"/>
</g>
<!-- vENO_intermediate_r&#45;&gt;vENO -->
<g id="edge54" class="edge"><title>vENO_intermediate_r&#45;&gt;vENO</title>
<path fill="none" stroke="black" d="M2524.12,-333.302C2525.97,-333.302 2548.6,-333.302 2559.8,-333.302"/>
</g>
<!-- vENO_intermediate_p&#45;&gt;PEP -->
<g id="edge57" class="edge"><title>vENO_intermediate_p&#45;&gt;PEP</title>
<path fill="none" stroke="black" d="M2612.07,-333.302C2613.05,-333.302 2623.95,-333.302 2638.15,-333.302"/>
<polygon fill="black" stroke="black" points="2638.43,-336.802 2648.43,-333.302 2638.43,-329.802 2638.43,-336.802"/>
</g>
<!-- vPYK -->
<g id="node60" class="node"><title>vPYK</title>
<polygon fill="none" stroke="black" points="2862,-332.302 2848,-332.302 2848,-318.302 2862,-318.302 2862,-332.302"/>
</g>
<!-- vPYK_intermediate_p -->
<g id="node62" class="node"><title>vPYK_intermediate_p</title>
<ellipse fill="black" stroke="black" cx="2899" cy="-325.302" rx="0.036" ry="0.036"/>
</g>
<!-- vPYK&#45;&gt;vPYK_intermediate_p -->
<g id="edge60" class="edge"><title>vPYK&#45;&gt;vPYK_intermediate_p</title>
<path fill="none" stroke="black" d="M2862.2,-325.302C2873.52,-325.302 2896.5,-325.302 2897.93,-325.302"/>
</g>
<!-- vPYK&#45;&gt;vPYK_intermediate_m -->
<g id="edge63" class="edge"><title>vPYK&#45;&gt;vPYK_intermediate_m</title>
<path fill="none" stroke="black" d="M2862.2,-319.695C2873.52,-309.455 2896.5,-288.655 2897.93,-287.365"/>
</g>
<!-- vPYK_intermediate_r&#45;&gt;vPYK -->
<g id="edge58" class="edge"><title>vPYK_intermediate_r&#45;&gt;vPYK</title>
<path fill="none" stroke="black" d="M2812.12,-330.288C2813.97,-330.068 2836.6,-327.373 2847.8,-326.04"/>
</g>
<!-- vPYK_intermediate_p&#45;&gt;PYR -->
<g id="edge61" class="edge"><title>vPYK_intermediate_p&#45;&gt;PYR</title>
<path fill="none" stroke="black" d="M2900.08,-325.225C2902.26,-322.994 2951.61,-272.7 2981.51,-242.228"/>
<polygon fill="black" stroke="black" points="2984.14,-244.539 2988.65,-234.95 2979.15,-239.637 2984.14,-244.539"/>
</g>
<!-- vPYK_intermediate_p&#45;&gt;P -->
<g id="edge62" class="edge"><title>vPYK_intermediate_p&#45;&gt;P</title>
<path fill="none" stroke="black" d="M2900.08,-325.342C2901.88,-326.299 2935.92,-344.298 2964.55,-359.441"/>
<polygon fill="black" stroke="black" points="2963.14,-362.651 2973.61,-364.232 2966.41,-356.463 2963.14,-362.651"/>
</g>
<!-- vPDC -->
<g id="node64" class="node"><title>vPDC</title>
<polygon fill="none" stroke="black" points="3162,-226.302 3148,-226.302 3148,-212.302 3162,-212.302 3162,-226.302"/>
</g>
<!-- vPDC_intermediate_p -->
<g id="node66" class="node"><title>vPDC_intermediate_p</title>
<ellipse fill="black" stroke="black" cx="3225" cy="-219.302" rx="0.036" ry="0.036"/>
</g>
<!-- vPDC&#45;&gt;vPDC_intermediate_p -->
<g id="edge68" class="edge"><title>vPDC&#45;&gt;vPDC_intermediate_p</title>
<path fill="none" stroke="black" d="M3162.28,-219.302C3178.58,-219.302 3221.22,-219.302 3223.87,-219.302"/>
</g>
<!-- vPDC_intermediate_r&#45;&gt;vPDC -->
<g id="edge66" class="edge"><title>vPDC_intermediate_r&#45;&gt;vPDC</title>
<path fill="none" stroke="black" d="M3112.12,-219.302C3113.97,-219.302 3136.6,-219.302 3147.8,-219.302"/>
</g>
<!-- vPDC_intermediate_p&#45;&gt;ACE -->
<g id="edge69" class="edge"><title>vPDC_intermediate_p&#45;&gt;ACE</title>
<path fill="none" stroke="black" d="M3226.08,-219.302C3227.63,-219.302 3252.83,-219.302 3278.13,-219.302"/>
<polygon fill="black" stroke="black" points="3278.16,-222.802 3288.16,-219.302 3278.16,-215.802 3278.16,-222.802"/>
</g>
<!-- vPDC_intermediate_p&#45;&gt;CO2 -->
<g id="edge70" class="edge"><title>vPDC_intermediate_p&#45;&gt;CO2</title>
<path fill="none" stroke="black" d="M3226.08,-219.341C3228.24,-220.453 3276.02,-245.025 3306.35,-260.623"/>
<polygon fill="black" stroke="black" points="3305.01,-263.869 3315.5,-265.33 3308.21,-257.644 3305.01,-263.869"/>
</g>
<!-- vSUC -->
<g id="node67" class="node"><title>vSUC</title>
<polygon fill="none" stroke="black" points="3464,-278.302 3450,-278.302 3450,-264.302 3464,-264.302 3464,-278.302"/>
</g>
<!-- vSUC_intermediate_p -->
<g id="node69" class="node"><title>vSUC_intermediate_p</title>
<ellipse fill="black" stroke="black" cx="3501" cy="-265.302" rx="0.036" ry="0.036"/>
</g>
<!-- vSUC&#45;&gt;vSUC_intermediate_p -->
<g id="edge75" class="edge"><title>vSUC&#45;&gt;vSUC_intermediate_p</title>
<path fill="none" stroke="black" d="M3464.2,-270.417C3475.52,-268.8 3498.5,-265.515 3499.93,-265.312"/>
</g>
<!-- vSUC_intermediate_r&#45;&gt;vSUC -->
<g id="edge71" class="edge"><title>vSUC_intermediate_r&#45;&gt;vSUC</title>
<path fill="none" stroke="black" d="M3414.12,-288.253C3415.97,-287.505 3438.6,-278.344 3449.8,-273.81"/>
</g>
<!-- vSUC_intermediate_p&#45;&gt;NADH -->
<g id="edge76" class="edge"><title>vSUC_intermediate_p&#45;&gt;NADH</title>
<path fill="none" stroke="black" d="M3502.05,-265.235C3503.44,-263.36 3533.75,-222.341 3553.42,-195.735"/>
<polygon fill="black" stroke="black" points="3556.25,-197.793 3559.38,-187.671 3550.62,-193.632 3556.25,-197.793"/>
</g>
<!-- vSUC_intermediate_p&#45;&gt;SUCC -->
<g id="edge77" class="edge"><title>vSUC_intermediate_p&#45;&gt;SUCC</title>
<path fill="none" stroke="black" d="M3502.05,-265.302C3502.89,-265.302 3514.34,-265.302 3527.61,-265.302"/>
<polygon fill="black" stroke="black" points="3527.97,-268.802 3537.97,-265.302 3527.97,-261.802 3527.97,-268.802"/>
</g>
<!-- vGLT -->
<g id="node70" class="node"><title>vGLT</title>
<polygon fill="none" stroke="black" points="210,-406.302 196,-406.302 196,-392.302 210,-392.302 210,-406.302"/>
</g>
<!-- vGLT_intermediate_p -->
<g id="node72" class="node"><title>vGLT_intermediate_p</title>
<ellipse fill="black" stroke="black" cx="246" cy="-399.302" rx="0.036" ry="0.036"/>
</g>
<!-- vGLT&#45;&gt;vGLT_intermediate_p -->
<g id="edge80" class="edge"><title>vGLT&#45;&gt;vGLT_intermediate_p</title>
<path fill="none" stroke="black" d="M210.05,-399.302C221.098,-399.302 243.54,-399.302 244.932,-399.302"/>
</g>
<!-- vGLT_intermediate_r&#45;&gt;vGLT -->
<g id="edge78" class="edge"><title>vGLT_intermediate_r&#45;&gt;vGLT</title>
<path fill="none" stroke="black" d="M161.118,-399.302C162.921,-399.302 185.016,-399.302 195.95,-399.302"/>
</g>
<!-- vGLT_intermediate_p&#45;&gt;GLCi -->
<g id="edge81" class="edge"><title>vGLT_intermediate_p&#45;&gt;GLCi</title>
<path fill="none" stroke="black" d="M247.065,-399.302C247.978,-399.302 258.358,-399.302 271.764,-399.302"/>
<polygon fill="black" stroke="black" points="271.969,-402.802 281.969,-399.302 271.969,-395.802 271.969,-402.802"/>
</g>
<!-- vADH -->
<g id="node73" class="node"><title>vADH</title>
<polygon fill="none" stroke="black" points="3692,-237.302 3678,-237.302 3678,-223.302 3692,-223.302 3692,-237.302"/>
</g>
<!-- vADH_intermediate_p -->
<g id="node75" class="node"><title>vADH_intermediate_p</title>
<ellipse fill="black" stroke="black" cx="3729" cy="-248.302" rx="0.036" ry="0.036"/>
</g>
<!-- vADH&#45;&gt;vADH_intermediate_p -->
<g id="edge85" class="edge"><title>vADH&#45;&gt;vADH_intermediate_p</title>
<path fill="none" stroke="black" d="M3692.2,-232.958C3703.52,-237.808 3726.5,-247.661 3727.93,-248.272"/>
</g>
<!-- vADH_intermediate_r&#45;&gt;vADH -->
<g id="edge82" class="edge"><title>vADH_intermediate_r&#45;&gt;vADH</title>
<path fill="none" stroke="black" d="M3642.12,-219.333C3643.97,-219.817 3666.6,-225.745 3677.8,-228.679"/>
</g>
<!-- vADH_intermediate_p&#45;&gt;NAD -->
<g id="edge86" class="edge"><title>vADH_intermediate_p&#45;&gt;NAD</title>
<path fill="none" stroke="black" d="M3730.05,-248.342C3731.28,-249.387 3756.01,-270.371 3774.83,-286.338"/>
<polygon fill="black" stroke="black" points="3772.81,-289.215 3782.7,-293.016 3777.34,-283.877 3772.81,-289.215"/>
</g>
<!-- vADH_intermediate_p&#45;&gt;ETOH -->
<g id="edge87" class="edge"><title>vADH_intermediate_p&#45;&gt;ETOH</title>
<path fill="none" stroke="black" d="M3730.05,-248.302C3730.92,-248.302 3743.62,-248.302 3757.65,-248.302"/>
<polygon fill="black" stroke="black" points="3757.94,-251.802 3767.94,-248.302 3757.94,-244.802 3757.94,-251.802"/>
</g>
<!-- vG3PDH -->
<g id="node76" class="node"><title>vG3PDH</title>
<polygon fill="none" stroke="black" points="3692,-182.302 3678,-182.302 3678,-168.302 3692,-168.302 3692,-182.302"/>
</g>
<!-- vG3PDH_intermediate_p -->
<g id="node78" class="node"><title>vG3PDH_intermediate_p</title>
<ellipse fill="black" stroke="black" cx="3729" cy="-190.302" rx="0.036" ry="0.036"/>
</g>
<!-- vG3PDH&#45;&gt;vG3PDH_intermediate_p -->
<g id="edge91" class="edge"><title>vG3PDH&#45;&gt;vG3PDH_intermediate_p</title>
<path fill="none" stroke="black" d="M3692.2,-177.515C3703.52,-181.557 3726.5,-189.768 3727.93,-190.277"/>
</g>
<!-- vG3PDH_intermediate_r&#45;&gt;vG3PDH -->
<g id="edge88" class="edge"><title>vG3PDH_intermediate_r&#45;&gt;vG3PDH</title>
<path fill="none" stroke="black" d="M3642.12,-173.308C3643.97,-173.396 3666.6,-174.473 3677.8,-175.007"/>
</g>
<!-- vG3PDH_intermediate_p&#45;&gt;NAD -->
<g id="edge92" class="edge"><title>vG3PDH_intermediate_p&#45;&gt;NAD</title>
<path fill="none" stroke="black" d="M3730.04,-190.45C3730.81,-193.483 3743.51,-242.533 3766,-275.302 3768.65,-279.169 3771.88,-282.935 3775.23,-286.404"/>
<polygon fill="black" stroke="black" points="3772.92,-289.042 3782.56,-293.447 3777.77,-283.994 3772.92,-289.042"/>
</g>
<!-- vG3PDH_intermediate_p&#45;&gt;GLY -->
<g id="edge93" class="edge"><title>vG3PDH_intermediate_p&#45;&gt;GLY</title>
<path fill="none" stroke="black" d="M3730.05,-190.302C3730.88,-190.302 3742.32,-190.302 3755.45,-190.302"/>
<polygon fill="black" stroke="black" points="3755.67,-193.802 3765.67,-190.302 3755.67,-186.802 3755.67,-193.802"/>
</g>
<!-- vATP -->
<g id="node79" class="node"><title>vATP</title>
<polygon fill="none" stroke="black" points="3162,-387.302 3148,-387.302 3148,-373.302 3162,-373.302 3162,-387.302"/>
</g>
<!-- vATP_empty -->
<g id="node81" class="node"><title>vATP_empty</title>
<text text-anchor="middle" x="3225" y="-379.802" font-family="Times,serif" font-size="15.00" fill="blue">Ø</text>
</g>
<!-- vATP&#45;&gt;vATP_empty -->
<g id="edge96" class="edge"><title>vATP&#45;&gt;vATP_empty</title>
<path fill="none" stroke="black" d="M3162.28,-380.579C3168.28,-380.844 3177.85,-381.266 3187.68,-381.7"/>
<polygon fill="black" stroke="black" points="3187.74,-385.205 3197.88,-382.15 3188.04,-378.212 3187.74,-385.205"/>
</g>
<!-- vATP&#45;&gt;vATP_intermediate_m -->
<g id="edge97" class="edge"><title>vATP&#45;&gt;vATP_intermediate_m</title>
<path fill="none" stroke="black" d="M3162.07,-376.352C3170.07,-371.259 3184.69,-362.343 3198,-356.302 3208.44,-351.563 3222.16,-347.799 3223.83,-347.347"/>
</g>
<!-- vATP_intermediate_r&#45;&gt;vATP -->
<g id="edge94" class="edge"><title>vATP_intermediate_r&#45;&gt;vATP</title>
<path fill="none" stroke="black" d="M3112.12,-380.302C3113.97,-380.302 3136.6,-380.302 3147.8,-380.302"/>
</g>
</g>
</svg>
