<?xml version="1.0" encoding="utf-8"?>
<!-- Generator: Adobe Illustrator 14.0.0, SVG Export Plug-In . SVG Version: 6.00 Build 43363)  -->
<!DOCTYPE svg PUBLIC "-//W3C//DTD SVG 1.1//EN" "http://www.w3.org/Graphics/SVG/1.1/DTD/svg11.dtd">
<svg version="1.1" id="Layer_1" xmlns="http://www.w3.org/2000/svg" xmlns:xlink="http://www.w3.org/1999/xlink" x="0px" y="0px"
	 width="781.28px" height="355px" viewBox="0 0 781.28 355" enable-background="new 0 0 781.28 355" xml:space="preserve">
<line fill="none" stroke="#231F20" x1="15.281" y1="45.653" x2="47.332" y2="45.653"/>
<rect x="47.853" y="36.262" fill="#FFFFFF" stroke="#020202" width="41.154" height="22.519"/>
<text transform="matrix(1 0 0 1 60.1963 51.0435)" fill="#010101" font-family="'MyriadPro-Regular'" font-size="12">C C</text>
<g>
	<line fill="none" stroke="#231F20" x1="89.978" y1="45.653" x2="101.794" y2="45.653"/>
	<line fill="none" stroke="#231F20" x1="101.794" y1="45.653" x2="106.339" y2="37.671"/>
	<line fill="none" stroke="#231F20" x1="106.339" y1="37.671" x2="114.519" y2="58.421"/>
	<line fill="none" stroke="#231F20" x1="122.698" y1="37.512" x2="114.519" y2="58.262"/>
	<line fill="none" stroke="#231F20" x1="155.419" y1="45.732" x2="143.604" y2="45.732"/>
	<line fill="none" stroke="#231F20" x1="143.604" y1="45.732" x2="139.06" y2="37.751"/>
	<line fill="none" stroke="#231F20" x1="139.06" y1="37.751" x2="130.88" y2="58.501"/>
	<line fill="none" stroke="#231F20" x1="122.698" y1="37.592" x2="130.88" y2="58.341"/>
</g>
<text transform="matrix(1 0 0 1 119.1943 18.5161)" fill="#010101" font-family="'MyriadPro-Regular'" font-size="12">SEE</text>
<text transform="matrix(1 0 0 1 435 35.6484)" fill="#010101" font-family="'MyriadPro-Regular'" font-size="12">Force [F</text>
<text transform="matrix(1 0 0 1 474.5396 39.6445)" fill="#010101" font-family="'MyriadPro-Regular'" font-size="6.996">CE </text>
<text transform="matrix(1 0 0 1 483.4941 35.6484)" fill="#010101" font-family="'MyriadPro-Regular'" font-size="12">]</text>
<line fill="none" stroke="#010101" x1="203" y1="255.214" x2="756.184" y2="255.214"/>
<g>
	<g>
		<line fill="none" stroke="#010101" x1="461" y1="255.214" x2="461" y2="48.049"/>
		<polygon fill="#010101" points="464.704,50.857 461,49.285 457.296,50.857 461,42.079 		"/>
	</g>
</g>
<text transform="matrix(1 0 0 1 48.2983 333.4785)" fill="#010101" font-family="'MyriadPro-Regular'" font-size="12">A two component model of muscle with contractile element defined by hill characteristic equation for concentric contraction</text>
<path fill="none" stroke="#010101" d="M691,255.214c-143.435,0-229.496-42.309-229.496-113.704"/>
<path fill="none" stroke="#010101" d="M231.505,37.928C374.939,37.928,461,80.236,461,151.632"/>
<line stroke="#010101" x1="451.488" y1="146.51" x2="470.976" y2="146.51"/>
<text transform="matrix(1 0 0 1 235 277)" font-family="'MyriadPro-Regular'" font-size="12">Eccentric Phase</text>
<text transform="matrix(1 0 0 1 623 277)" font-family="'MyriadPro-Regular'" font-size="12">Concentric Phase</text>
</svg>
