<?xml version="1.0" encoding="UTF-8" standalone="no"?>
<!DOCTYPE svg PUBLIC "-//W3C//DTD SVG 1.1//EN"
 "http://www.w3.org/Graphics/SVG/1.1/DTD/svg11.dtd">
<!-- Generated by graphviz version 2.24.0 (20090616.2323)
 -->
<!-- Title: G Pages: 1 -->
<svg width="1008pt" height="228pt"
 viewBox="0.00 0.00 1008.00 228.00" xmlns="http://www.w3.org/2000/svg" xmlns:xlink="http://www.w3.org/1999/xlink">
<g id="graph1" class="graph" transform="scale(1 1) rotate(0) translate(4 224)">
<title>G</title>
<polygon fill="white" stroke="white" points="-4,5 -4,-224 1005,-224 1005,5 -4,5"/>
<!-- species_1 -->
<g id="node1" class="node"><title>species_1</title>
<ellipse fill="none" stroke="black" cx="18" cy="-73" rx="18" ry="18"/>
<text text-anchor="middle" x="18" y="-70.5" font-family="Times Roman,serif" font-size="10.00">x</text>
</g>
<!-- reaction_1_intermediate_r -->
<g id="node6" class="node"><title>reaction_1_intermediate_r</title>
<ellipse fill="black" stroke="black" cx="73" cy="-140" rx="0.036" ry="0.036"/>
</g>
<!-- species_1&#45;&gt;reaction_1_intermediate_r -->
<g id="edge4" class="edge"><title>species_1&#45;&gt;reaction_1_intermediate_r</title>
<path fill="none" stroke="black" d="M29.6641,-87.209C45.3043,-106.262 71.3113,-137.943 72.9215,-139.904"/>
</g>
<!-- reaction_8_intermediate_r -->
<g id="node54" class="node"><title>reaction_8_intermediate_r</title>
<ellipse fill="black" stroke="black" cx="73" cy="-73" rx="0.036" ry="0.036"/>
</g>
<!-- species_1&#45;&gt;reaction_8_intermediate_r -->
<g id="edge58" class="edge"><title>species_1&#45;&gt;reaction_8_intermediate_r</title>
<path fill="none" stroke="black" d="M36.0091,-73C51.5481,-73 71.6954,-73 72.9394,-73"/>
</g>
<!-- species_2 -->
<g id="node2" class="node"><title>species_2</title>
<ellipse fill="none" stroke="black" cx="536" cy="-141" rx="18" ry="18"/>
<text text-anchor="middle" x="536" y="-138.5" font-family="Times Roman,serif" font-size="10.00">y</text>
</g>
<!-- reaction_2_intermediate_r -->
<g id="node12" class="node"><title>reaction_2_intermediate_r</title>
<ellipse fill="black" stroke="black" cx="591" cy="-95" rx="0.036" ry="0.036"/>
</g>
<!-- species_2&#45;&gt;reaction_2_intermediate_r -->
<g id="edge10" class="edge"><title>species_2&#45;&gt;reaction_2_intermediate_r</title>
<path fill="none" stroke="black" d="M549.879,-129.392C565.663,-116.191 589.457,-96.2909 590.928,-95.06"/>
</g>
<!-- reaction_7_intermediate_r -->
<g id="node46" class="node"><title>reaction_7_intermediate_r</title>
<ellipse fill="black" stroke="black" cx="591" cy="-124" rx="0.036" ry="0.036"/>
</g>
<!-- species_2&#45;&gt;reaction_7_intermediate_r -->
<g id="edge48" class="edge"><title>species_2&#45;&gt;reaction_7_intermediate_r</title>
<path fill="none" stroke="black" d="M553.402,-135.621C569.012,-130.796 589.662,-124.413 590.938,-124.019"/>
</g>
<!-- species_3 -->
<g id="node3" class="node"><title>species_3</title>
<ellipse fill="none" stroke="black" cx="795" cy="-103" rx="27" ry="18"/>
<text text-anchor="middle" x="795" y="-100.5" font-family="Times Roman,serif" font-size="10.00">u</text>
</g>
<!-- reaction_3_intermediate_r -->
<g id="node18" class="node"><title>reaction_3_intermediate_r</title>
<ellipse fill="black" stroke="black" cx="859" cy="-120" rx="0.036" ry="0.036"/>
</g>
<!-- species_3&#45;&gt;reaction_3_intermediate_r -->
<g id="edge16" class="edge"><title>species_3&#45;&gt;reaction_3_intermediate_r</title>
<path fill="none" stroke="black" d="M820.294,-109.719C837.625,-114.322 857.702,-119.655 858.94,-119.984"/>
</g>
<!-- reaction_5_intermediate_r -->
<g id="node30" class="node"><title>reaction_5_intermediate_r</title>
<ellipse fill="black" stroke="black" cx="859" cy="-57" rx="0.036" ry="0.036"/>
</g>
<!-- species_3&#45;&gt;reaction_5_intermediate_r -->
<g id="edge28" class="edge"><title>species_3&#45;&gt;reaction_5_intermediate_r</title>
<path fill="none" stroke="black" d="M813.511,-89.6949C831.822,-76.5339 857.346,-58.1889 858.923,-57.0552"/>
</g>
<!-- species_4 -->
<g id="node4" class="node"><title>species_4</title>
<ellipse fill="none" stroke="black" cx="277" cy="-130" rx="27" ry="18"/>
<text text-anchor="middle" x="277" y="-127.5" font-family="Times Roman,serif" font-size="10.00">v</text>
</g>
<!-- reaction_4_intermediate_r -->
<g id="node24" class="node"><title>reaction_4_intermediate_r</title>
<ellipse fill="black" stroke="black" cx="341" cy="-136" rx="0.036" ry="0.036"/>
</g>
<!-- species_4&#45;&gt;reaction_4_intermediate_r -->
<g id="edge22" class="edge"><title>species_4&#45;&gt;reaction_4_intermediate_r</title>
<path fill="none" stroke="black" d="M303.771,-132.51C320.761,-134.103 339.771,-135.885 340.943,-135.995"/>
</g>
<!-- reaction_6_intermediate_r -->
<g id="node38" class="node"><title>reaction_6_intermediate_r</title>
<ellipse fill="black" stroke="black" cx="341" cy="-209" rx="0.036" ry="0.036"/>
</g>
<!-- species_4&#45;&gt;reaction_6_intermediate_r -->
<g id="edge38" class="edge"><title>species_4&#45;&gt;reaction_6_intermediate_r</title>
<path fill="none" stroke="black" d="M289.951,-145.987C308.068,-168.349 338.992,-206.521 340.907,-208.885"/>
</g>
<!-- reaction_9_intermediate_r -->
<g id="node62" class="node"><title>reaction_9_intermediate_r</title>
<ellipse fill="black" stroke="black" cx="341" cy="-114" rx="0.036" ry="0.036"/>
</g>
<!-- species_4&#45;&gt;reaction_9_intermediate_r -->
<g id="edge68" class="edge"><title>species_4&#45;&gt;reaction_9_intermediate_r</title>
<path fill="none" stroke="black" d="M302.294,-123.676C319.625,-119.344 339.702,-114.325 340.94,-114.015"/>
</g>
<!-- reaction_1 -->
<g id="node5" class="node"><title>reaction_1</title>
<polygon fill="none" stroke="black" points="124,-151 110,-151 110,-137 124,-137 124,-151"/>
</g>
<!-- reaction_1_empty -->
<g id="node9" class="node"><title>reaction_1_empty</title>
<text text-anchor="middle" x="187" y="-139.5" font-family="Times Roman,serif" font-size="15.00" fill="blue">Ø</text>
</g>
<!-- reaction_1&#45;&gt;reaction_1_empty -->
<g id="edge6" class="edge"><title>reaction_1&#45;&gt;reaction_1_empty</title>
<path fill="none" stroke="black" d="M124.228,-144C130.45,-144 139.94,-144 149.672,-144"/>
<polygon fill="black" stroke="black" points="149.773,-147.5 159.773,-144 149.773,-140.5 149.773,-147.5"/>
</g>
<!-- reaction_1_intermediate_r&#45;&gt;reaction_1 -->
<g id="edge2" class="edge"><title>reaction_1_intermediate_r&#45;&gt;reaction_1</title>
<path fill="none" stroke="black" d="M73.1262,-140.011C75.0215,-140.184 97.7945,-142.254 109.759,-143.342"/>
</g>
<!-- reaction_2 -->
<g id="node11" class="node"><title>reaction_2</title>
<polygon fill="none" stroke="black" points="642,-94 628,-94 628,-80 642,-80 642,-94"/>
</g>
<!-- reaction_2_empty -->
<g id="node15" class="node"><title>reaction_2_empty</title>
<text text-anchor="middle" x="705" y="-81.5" font-family="Times Roman,serif" font-size="15.00" fill="blue">Ø</text>
</g>
<!-- reaction_2&#45;&gt;reaction_2_empty -->
<g id="edge12" class="edge"><title>reaction_2&#45;&gt;reaction_2_empty</title>
<path fill="none" stroke="black" d="M642.228,-86.8967C648.45,-86.8079 657.94,-86.6723 667.672,-86.5333"/>
<polygon fill="black" stroke="black" points="667.824,-90.0315 677.773,-86.389 667.724,-83.0322 667.824,-90.0315"/>
</g>
<!-- reaction_2_intermediate_r&#45;&gt;reaction_2 -->
<g id="edge8" class="edge"><title>reaction_2_intermediate_r&#45;&gt;reaction_2</title>
<path fill="none" stroke="black" d="M591.126,-94.9771C593.022,-94.6325 615.795,-90.4919 627.759,-88.3166"/>
</g>
<!-- reaction_3 -->
<g id="node17" class="node"><title>reaction_3</title>
<polygon fill="none" stroke="black" points="910,-131 896,-131 896,-117 910,-117 910,-131"/>
</g>
<!-- reaction_3_empty -->
<g id="node21" class="node"><title>reaction_3_empty</title>
<text text-anchor="middle" x="973" y="-119.5" font-family="Times Roman,serif" font-size="15.00" fill="blue">Ø</text>
</g>
<!-- reaction_3&#45;&gt;reaction_3_empty -->
<g id="edge18" class="edge"><title>reaction_3&#45;&gt;reaction_3_empty</title>
<path fill="none" stroke="black" d="M910.228,-124C916.45,-124 925.94,-124 935.672,-124"/>
<polygon fill="black" stroke="black" points="935.773,-127.5 945.773,-124 935.773,-120.5 935.773,-127.5"/>
</g>
<!-- reaction_3_intermediate_r&#45;&gt;reaction_3 -->
<g id="edge14" class="edge"><title>reaction_3_intermediate_r&#45;&gt;reaction_3</title>
<path fill="none" stroke="black" d="M859.126,-120.011C861.022,-120.184 883.795,-122.254 895.759,-123.342"/>
</g>
<!-- reaction_4 -->
<g id="node23" class="node"><title>reaction_4</title>
<polygon fill="none" stroke="black" points="392,-150 378,-150 378,-136 392,-136 392,-150"/>
</g>
<!-- reaction_4_empty -->
<g id="node27" class="node"><title>reaction_4_empty</title>
<text text-anchor="middle" x="455" y="-137.5" font-family="Times Roman,serif" font-size="15.00" fill="blue">Ø</text>
</g>
<!-- reaction_4&#45;&gt;reaction_4_empty -->
<g id="edge24" class="edge"><title>reaction_4&#45;&gt;reaction_4_empty</title>
<path fill="none" stroke="black" d="M392.228,-142.897C398.45,-142.808 407.94,-142.672 417.672,-142.533"/>
<polygon fill="black" stroke="black" points="417.824,-146.032 427.773,-142.389 417.724,-139.032 417.824,-146.032"/>
</g>
<!-- reaction_4_intermediate_r&#45;&gt;reaction_4 -->
<g id="edge20" class="edge"><title>reaction_4_intermediate_r&#45;&gt;reaction_4</title>
<path fill="none" stroke="black" d="M341.126,-136.02C343.022,-136.322 365.795,-139.945 377.759,-141.848"/>
</g>
<!-- reaction_5 -->
<g id="node29" class="node"><title>reaction_5</title>
<polygon fill="none" stroke="black" points="910,-61 896,-61 896,-47 910,-47 910,-61"/>
</g>
<!-- reaction_5_intermediate_p -->
<g id="node33" class="node"><title>reaction_5_intermediate_p</title>
<ellipse fill="black" stroke="black" cx="973" cy="-54" rx="0.036" ry="0.036"/>
</g>
<!-- reaction_5&#45;&gt;reaction_5_intermediate_p -->
<g id="edge30" class="edge"><title>reaction_5&#45;&gt;reaction_5_intermediate_p</title>
<path fill="none" stroke="black" d="M910.228,-54C927.554,-54 970.221,-54 972.871,-54"/>
</g>
<!-- reaction_5_intermediate_r&#45;&gt;reaction_5 -->
<g id="edge26" class="edge"><title>reaction_5_intermediate_r&#45;&gt;reaction_5</title>
<path fill="none" stroke="black" d="M859.126,-56.9914C861.022,-56.8622 883.795,-55.3095 895.759,-54.4937"/>
</g>
<!-- reaction_5_intermediate_p&#45;&gt;species_1 -->
<g id="edge34" class="edge"><title>reaction_5_intermediate_p&#45;&gt;species_1</title>
<path fill="none" stroke="black" d="M972.832,-53.8451C969.381,-50.6777 913.311,-0 859,-0 117,-0 117,-0 117,-0 82.6887,-0 52.4493,-28.7556 34.6862,-50.1714"/>
<polygon fill="black" stroke="black" points="31.7674,-48.2189 28.2916,-58.2274 37.2501,-52.5709 31.7674,-48.2189"/>
</g>
<!-- reaction_5_intermediate_p&#45;&gt;species_3 -->
<g id="edge32" class="edge"><title>reaction_5_intermediate_p&#45;&gt;species_3</title>
<path fill="none" stroke="black" d="M972.925,-54.0208C969.973,-54.8334 881.081,-79.3036 830.085,-93.3417"/>
<polygon fill="black" stroke="black" points="828.838,-90.0548 820.126,-96.0834 830.696,-96.8037 828.838,-90.0548"/>
</g>
<!-- reaction_6 -->
<g id="node37" class="node"><title>reaction_6</title>
<polygon fill="none" stroke="black" points="392,-220 378,-220 378,-206 392,-206 392,-220"/>
</g>
<!-- reaction_6_intermediate_p -->
<g id="node41" class="node"><title>reaction_6_intermediate_p</title>
<ellipse fill="black" stroke="black" cx="455" cy="-178" rx="0.036" ry="0.036"/>
</g>
<!-- reaction_6&#45;&gt;reaction_6_intermediate_p -->
<g id="edge40" class="edge"><title>reaction_6&#45;&gt;reaction_6_intermediate_p</title>
<path fill="none" stroke="black" d="M392.228,-209.386C409.554,-200.723 452.221,-179.39 454.871,-178.065"/>
</g>
<!-- reaction_6_intermediate_r&#45;&gt;reaction_6 -->
<g id="edge36" class="edge"><title>reaction_6_intermediate_r&#45;&gt;reaction_6</title>
<path fill="none" stroke="black" d="M341.126,-209.011C343.022,-209.184 365.795,-211.254 377.759,-212.342"/>
</g>
<!-- reaction_6_intermediate_p&#45;&gt;species_2 -->
<g id="edge44" class="edge"><title>reaction_6_intermediate_p&#45;&gt;species_2</title>
<path fill="none" stroke="black" d="M455.044,-177.988C455.956,-177.745 470.714,-173.772 482,-169 491.818,-164.849 502.288,-159.618 511.371,-154.804"/>
<polygon fill="black" stroke="black" points="513.118,-157.839 520.248,-150.002 509.787,-151.682 513.118,-157.839"/>
</g>
<!-- reaction_6_intermediate_p&#45;&gt;species_4 -->
<g id="edge42" class="edge"><title>reaction_6_intermediate_p&#45;&gt;species_4</title>
<path fill="none" stroke="black" d="M454.876,-177.971C452.325,-177.381 410.993,-167.804 378,-159 355.785,-153.072 330.964,-145.952 311.487,-140.251"/>
<polygon fill="black" stroke="black" points="312.413,-136.875 301.832,-137.412 310.438,-143.591 312.413,-136.875"/>
</g>
<!-- reaction_7 -->
<g id="node45" class="node"><title>reaction_7</title>
<polygon fill="none" stroke="black" points="642,-128 628,-128 628,-114 642,-114 642,-128"/>
</g>
<!-- reaction_7_intermediate_p -->
<g id="node49" class="node"><title>reaction_7_intermediate_p</title>
<ellipse fill="black" stroke="black" cx="705" cy="-122" rx="0.036" ry="0.036"/>
</g>
<!-- reaction_7&#45;&gt;reaction_7_intermediate_p -->
<g id="edge50" class="edge"><title>reaction_7&#45;&gt;reaction_7_intermediate_p</title>
<path fill="none" stroke="black" d="M642.228,-121.103C659.554,-121.351 702.221,-121.96 704.871,-121.998"/>
</g>
<!-- reaction_7_intermediate_r&#45;&gt;reaction_7 -->
<g id="edge46" class="edge"><title>reaction_7_intermediate_r&#45;&gt;reaction_7</title>
<path fill="none" stroke="black" d="M591.126,-123.991C593.022,-123.862 615.795,-122.309 627.759,-121.494"/>
</g>
<!-- reaction_7_intermediate_p&#45;&gt;species_2 -->
<g id="edge52" class="edge"><title>reaction_7_intermediate_p&#45;&gt;species_2</title>
<path fill="none" stroke="black" d="M704.9,-122.032C702.851,-122.687 669.627,-133.227 642,-137 615.776,-140.581 585.589,-141.402 564.152,-141.433"/>
<polygon fill="black" stroke="black" points="564.113,-137.933 554.098,-141.391 564.083,-144.933 564.113,-137.933"/>
</g>
<!-- reaction_7_intermediate_p&#45;&gt;species_3 -->
<g id="edge54" class="edge"><title>reaction_7_intermediate_p&#45;&gt;species_3</title>
<path fill="none" stroke="black" d="M705.065,-121.986C706.6,-121.662 734.918,-115.684 759.372,-110.521"/>
<polygon fill="black" stroke="black" points="760.118,-113.941 769.179,-108.451 758.672,-107.092 760.118,-113.941"/>
</g>
<!-- reaction_8 -->
<g id="node53" class="node"><title>reaction_8</title>
<polygon fill="none" stroke="black" points="124,-80 110,-80 110,-66 124,-66 124,-80"/>
</g>
<!-- reaction_8_intermediate_p -->
<g id="node57" class="node"><title>reaction_8_intermediate_p</title>
<ellipse fill="black" stroke="black" cx="187" cy="-108" rx="0.036" ry="0.036"/>
</g>
<!-- reaction_8&#45;&gt;reaction_8_intermediate_p -->
<g id="edge60" class="edge"><title>reaction_8&#45;&gt;reaction_8_intermediate_p</title>
<path fill="none" stroke="black" d="M124.228,-76.6138C141.554,-85.2768 184.221,-106.61 186.871,-107.935"/>
</g>
<!-- reaction_8_intermediate_r&#45;&gt;reaction_8 -->
<g id="edge56" class="edge"><title>reaction_8_intermediate_r&#45;&gt;reaction_8</title>
<path fill="none" stroke="black" d="M73.1262,-73C75.0215,-73 97.7945,-73 109.759,-73"/>
</g>
<!-- reaction_8_intermediate_p&#45;&gt;species_1 -->
<g id="edge62" class="edge"><title>reaction_8_intermediate_p&#45;&gt;species_1</title>
<path fill="none" stroke="black" d="M186.922,-107.984C183.876,-107.353 92.764,-88.4837 45.6453,-78.7254"/>
<polygon fill="black" stroke="black" points="46.2686,-75.2802 35.7665,-76.6795 44.8489,-82.1348 46.2686,-75.2802"/>
</g>
<!-- reaction_8_intermediate_p&#45;&gt;species_4 -->
<g id="edge64" class="edge"><title>reaction_8_intermediate_p&#45;&gt;species_4</title>
<path fill="none" stroke="black" d="M187.065,-108.016C188.6,-108.391 216.918,-115.313 241.372,-121.291"/>
<polygon fill="black" stroke="black" points="240.634,-124.714 251.179,-123.688 242.297,-117.914 240.634,-124.714"/>
</g>
<!-- reaction_9 -->
<g id="node61" class="node"><title>reaction_9</title>
<polygon fill="none" stroke="black" points="392,-118 378,-118 378,-104 392,-104 392,-118"/>
</g>
<!-- reaction_9_intermediate_p -->
<g id="node65" class="node"><title>reaction_9_intermediate_p</title>
<ellipse fill="black" stroke="black" cx="455" cy="-76" rx="0.036" ry="0.036"/>
</g>
<!-- reaction_9&#45;&gt;reaction_9_intermediate_p -->
<g id="edge70" class="edge"><title>reaction_9&#45;&gt;reaction_9_intermediate_p</title>
<path fill="none" stroke="black" d="M392.228,-107.386C409.554,-98.7232 452.221,-77.3896 454.871,-76.0647"/>
</g>
<!-- reaction_9_intermediate_r&#45;&gt;reaction_9 -->
<g id="edge66" class="edge"><title>reaction_9_intermediate_r&#45;&gt;reaction_9</title>
<path fill="none" stroke="black" d="M341.126,-113.991C343.022,-113.862 365.795,-112.309 377.759,-111.494"/>
</g>
<!-- reaction_9_intermediate_p&#45;&gt;species_1 -->
<g id="edge74" class="edge"><title>reaction_9_intermediate_p&#45;&gt;species_1</title>
<path fill="none" stroke="black" d="M454.956,-75.9725C453.108,-74.8218 393.573,-38 341,-38 117,-38 117,-38 117,-38 90.4882,-38 62.149,-49.2952 42.6145,-59.0524"/>
<polygon fill="black" stroke="black" points="40.7614,-56.0715 33.5187,-63.8042 44.0028,-62.2759 40.7614,-56.0715"/>
</g>
<!-- reaction_9_intermediate_p&#45;&gt;species_4 -->
<g id="edge72" class="edge"><title>reaction_9_intermediate_p&#45;&gt;species_4</title>
<path fill="none" stroke="black" d="M454.953,-76.0092C452.975,-76.3929 389.293,-88.7989 340,-105 329.855,-108.334 318.986,-112.446 309.181,-116.365"/>
<polygon fill="black" stroke="black" points="307.74,-113.173 299.797,-120.185 310.378,-119.657 307.74,-113.173"/>
</g>
</g>
</svg>
