<?xml version="1.0" encoding="UTF-8" standalone="no"?>
<!DOCTYPE svg PUBLIC "-//W3C//DTD SVG 1.1//EN"
 "http://www.w3.org/Graphics/SVG/1.1/DTD/svg11.dtd">
<!-- Generated by graphviz version 2.24.0 (20090616.2323)
 -->
<!-- Title: G Pages: 1 -->
<svg width="1270pt" height="206pt"
 viewBox="0.00 0.00 1270.00 206.00" xmlns="http://www.w3.org/2000/svg" xmlns:xlink="http://www.w3.org/1999/xlink">
<g id="graph1" class="graph" transform="scale(1 1) rotate(0) translate(4 202)">
<title>G</title>
<polygon fill="white" stroke="white" points="-4,5 -4,-202 1267,-202 1267,5 -4,5"/>
<!-- VIIa_TF -->
<g id="node1" class="node"><title>VIIa_TF</title>
<polyline fill="none" stroke="black" points="42,-166 12,-166 "/>
<path fill="none" stroke="black" d="M12,-166C6,-166 2.07242e-14,-160 1.65793e-14,-154"/>
<polyline fill="none" stroke="black" points="1.65793e-14,-154 8.28967e-15,-142 "/>
<path fill="none" stroke="black" d="M8.28967e-15,-142C4.14483e-15,-136 6,-130 12,-130"/>
<polyline fill="none" stroke="black" points="12,-130 42,-130 "/>
<path fill="none" stroke="black" d="M42,-130C48,-130 54,-136 54,-142"/>
<polyline fill="none" stroke="black" points="54,-142 54,-154 "/>
<path fill="none" stroke="black" d="M54,-154C54,-160 48,-166 42,-166"/>
<text text-anchor="middle" x="27" y="-145.5" font-family="Times Roman,serif" font-size="10.00">VIIa_TF</text>
</g>
<!-- reaction_1_intermediate_r -->
<g id="node11" class="node"><title>reaction_1_intermediate_r</title>
<ellipse fill="black" stroke="black" cx="91" cy="-85" rx="0.036" ry="0.036"/>
</g>
<!-- VIIa_TF&#45;&gt;reaction_1_intermediate_r -->
<g id="edge6" class="edge"><title>VIIa_TF&#45;&gt;reaction_1_intermediate_r</title>
<path fill="none" stroke="black" d="M52.6553,-122.746C69.8291,-105.84 89.543,-86.4342 90.9232,-85.0756"/>
<polygon fill="black" stroke="black" points="50.1827,-120.268 45.5115,-129.778 55.0933,-125.257 50.1827,-120.268"/>
</g>
<!-- reaction_5_intermediate_r -->
<g id="node42" class="node"><title>reaction_5_intermediate_r</title>
<ellipse fill="black" stroke="black" cx="1039" cy="-113" rx="0.036" ry="0.036"/>
</g>
<!-- VIIa_TF&#45;&gt;reaction_5_intermediate_r -->
<g id="edge42" class="edge"><title>VIIa_TF&#45;&gt;reaction_5_intermediate_r</title>
<path fill="none" stroke="black" d="M58.806,-171.536C79.4425,-184.504 107.52,-198 135,-198 135,-198 135,-198 903,-198 973.165,-198 1036.98,-115.635 1038.95,-113.062"/>
<polygon fill="black" stroke="black" points="60.7226,-168.607 50.4408,-166.051 56.8844,-174.461 60.7226,-168.607"/>
</g>
<!-- X -->
<g id="node2" class="node"><title>X</title>
<polyline fill="none" stroke="black" points="42,-103 12,-103 "/>
<path fill="none" stroke="black" d="M12,-103C6,-103 2.07242e-14,-97 1.65793e-14,-91"/>
<polyline fill="none" stroke="black" points="1.65793e-14,-91 8.28967e-15,-79 "/>
<path fill="none" stroke="black" d="M8.28967e-15,-79C4.14483e-15,-73 6,-67 12,-67"/>
<polyline fill="none" stroke="black" points="12,-67 42,-67 "/>
<path fill="none" stroke="black" d="M42,-67C48,-67 54,-73 54,-79"/>
<polyline fill="none" stroke="black" points="54,-79 54,-91 "/>
<path fill="none" stroke="black" d="M54,-91C54,-97 48,-103 42,-103"/>
<text text-anchor="middle" x="27" y="-82.5" font-family="Times Roman,serif" font-size="10.00">X</text>
</g>
<!-- X&#45;&gt;reaction_1_intermediate_r -->
<g id="edge4" class="edge"><title>X&#45;&gt;reaction_1_intermediate_r</title>
<path fill="none" stroke="black" d="M64.5051,-85C77.9306,-85 90.0232,-85 90.9438,-85"/>
<polygon fill="black" stroke="black" points="64.1418,-81.5001 54.1418,-85 64.1417,-88.5001 64.1418,-81.5001"/>
</g>
<!-- VIIa_TF_X -->
<g id="node3" class="node"><title>VIIa_TF_X</title>
<polyline fill="none" stroke="black" points="268,-94 228,-94 "/>
<path fill="none" stroke="black" d="M228,-94C222,-94 216,-88 216,-82"/>
<polyline fill="none" stroke="black" points="216,-82 216,-70 "/>
<path fill="none" stroke="black" d="M216,-70C216,-64 222,-58 228,-58"/>
<polyline fill="none" stroke="black" points="228,-58 268,-58 "/>
<path fill="none" stroke="black" d="M268,-58C274,-58 280,-64 280,-70"/>
<polyline fill="none" stroke="black" points="280,-70 280,-82 "/>
<path fill="none" stroke="black" d="M280,-82C280,-88 274,-94 268,-94"/>
<text text-anchor="middle" x="248" y="-73.5" font-family="Times Roman,serif" font-size="10.00">VIIa_TF_X</text>
</g>
<!-- reaction_2_intermediate_r -->
<g id="node19" class="node"><title>reaction_2_intermediate_r</title>
<ellipse fill="black" stroke="black" cx="317" cy="-76" rx="0.036" ry="0.036"/>
</g>
<!-- VIIa_TF_X&#45;&gt;reaction_2_intermediate_r -->
<g id="edge14" class="edge"><title>VIIa_TF_X&#45;&gt;reaction_2_intermediate_r</title>
<path fill="none" stroke="black" d="M280.076,-76C297.532,-76 315.819,-76 316.945,-76"/>
</g>
<!-- VIIa_TF_Xa -->
<g id="node4" class="node"><title>VIIa_TF_Xa</title>
<polyline fill="none" stroke="black" points="500,-94 454,-94 "/>
<path fill="none" stroke="black" d="M454,-94C448,-94 442,-88 442,-82"/>
<polyline fill="none" stroke="black" points="442,-82 442,-70 "/>
<path fill="none" stroke="black" d="M442,-70C442,-64 448,-58 454,-58"/>
<polyline fill="none" stroke="black" points="454,-58 500,-58 "/>
<path fill="none" stroke="black" d="M500,-58C506,-58 512,-64 512,-70"/>
<polyline fill="none" stroke="black" points="512,-70 512,-82 "/>
<path fill="none" stroke="black" d="M512,-82C512,-88 506,-94 500,-94"/>
<text text-anchor="middle" x="477" y="-73.5" font-family="Times Roman,serif" font-size="10.00">VIIa_TF_Xa</text>
</g>
<!-- reaction_3_intermediate_r -->
<g id="node26" class="node"><title>reaction_3_intermediate_r</title>
<ellipse fill="black" stroke="black" cx="549" cy="-82" rx="0.036" ry="0.036"/>
</g>
<!-- VIIa_TF_Xa&#45;&gt;reaction_3_intermediate_r -->
<g id="edge22" class="edge"><title>VIIa_TF_Xa&#45;&gt;reaction_3_intermediate_r</title>
<path fill="none" stroke="black" d="M522.434,-79.7862C536.241,-80.9367 548.056,-81.9213 548.946,-81.9955"/>
<polygon fill="black" stroke="black" points="522.412,-76.2723 512.156,-78.9297 521.831,-83.2481 522.412,-76.2723"/>
</g>
<!-- reaction_6_intermediate_r -->
<g id="node50" class="node"><title>reaction_6_intermediate_r</title>
<ellipse fill="black" stroke="black" cx="549" cy="-55" rx="0.036" ry="0.036"/>
</g>
<!-- VIIa_TF_Xa&#45;&gt;reaction_6_intermediate_r -->
<g id="edge52" class="edge"><title>VIIa_TF_Xa&#45;&gt;reaction_6_intermediate_r</title>
<path fill="none" stroke="black" d="M522.031,-62.8658C536.011,-58.7886 548.047,-55.2779 548.946,-55.0157"/>
<polygon fill="black" stroke="black" points="520.776,-59.586 512.156,-65.7461 522.736,-66.306 520.776,-59.586"/>
</g>
<!-- Xa -->
<g id="node5" class="node"><title>Xa</title>
<polyline fill="none" stroke="black" points="738,-132 708,-132 "/>
<path fill="none" stroke="black" d="M708,-132C702,-132 696,-126 696,-120"/>
<polyline fill="none" stroke="black" points="696,-120 696,-108 "/>
<path fill="none" stroke="black" d="M696,-108C696,-102 702,-96 708,-96"/>
<polyline fill="none" stroke="black" points="708,-96 738,-96 "/>
<path fill="none" stroke="black" d="M738,-96C744,-96 750,-102 750,-108"/>
<polyline fill="none" stroke="black" points="750,-108 750,-120 "/>
<path fill="none" stroke="black" d="M750,-120C750,-126 744,-132 738,-132"/>
<text text-anchor="middle" x="723" y="-111.5" font-family="Times Roman,serif" font-size="10.00">Xa</text>
</g>
<!-- reaction_4_intermediate_r -->
<g id="node34" class="node"><title>reaction_4_intermediate_r</title>
<ellipse fill="black" stroke="black" cx="809" cy="-91" rx="0.036" ry="0.036"/>
</g>
<!-- Xa&#45;&gt;reaction_4_intermediate_r -->
<g id="edge32" class="edge"><title>Xa&#45;&gt;reaction_4_intermediate_r</title>
<path fill="none" stroke="black" d="M759.961,-104.115C782.44,-98.1032 807.166,-91.4906 808.903,-91.026"/>
<polygon fill="black" stroke="black" points="758.967,-100.758 750.211,-106.723 760.776,-107.52 758.967,-100.758"/>
</g>
<!-- TFPI -->
<g id="node6" class="node"><title>TFPI</title>
<polyline fill="none" stroke="black" points="492,-36 462,-36 "/>
<path fill="none" stroke="black" d="M462,-36C456,-36 450,-30 450,-24"/>
<polyline fill="none" stroke="black" points="450,-24 450,-12 "/>
<path fill="none" stroke="black" d="M450,-12C450,-6 456,-1.61846e-14 462,-1.46056e-14"/>
<polyline fill="none" stroke="black" points="462,-1.46056e-14 492,-6.71068e-15 "/>
<path fill="none" stroke="black" d="M492,-6.71068e-15C498,-5.1317e-15 504,-6 504,-12"/>
<polyline fill="none" stroke="black" points="504,-12 504,-24 "/>
<path fill="none" stroke="black" d="M504,-24C504,-30 498,-36 492,-36"/>
<text text-anchor="middle" x="477" y="-15.5" font-family="Times Roman,serif" font-size="10.00">TFPI</text>
</g>
<!-- TFPI&#45;&gt;reaction_4_intermediate_r -->
<g id="edge34" class="edge"><title>TFPI&#45;&gt;reaction_4_intermediate_r</title>
<path fill="none" stroke="black" d="M514.417,-16.0552C537.138,-15.0371 566.732,-14 593,-14 593,-14 593,-14 637,-14 697.591,-14 721.034,-0.232241 772,-33 796.916,-49.0189 808.281,-88.4328 808.967,-90.8805"/>
<polygon fill="black" stroke="black" points="514.005,-12.5705 504.179,-16.5333 514.331,-19.5629 514.005,-12.5705"/>
</g>
<!-- TFPI&#45;&gt;reaction_6_intermediate_r -->
<g id="edge54" class="edge"><title>TFPI&#45;&gt;reaction_6_intermediate_r</title>
<path fill="none" stroke="black" d="M513.18,-36.5924C530.465,-45.475 547.695,-54.3292 548.929,-54.9637"/>
<polygon fill="black" stroke="black" points="514.714,-33.4458 504.22,-31.9881 511.515,-39.6719 514.714,-33.4458"/>
</g>
<!-- Xa_TFPI -->
<g id="node7" class="node"><title>Xa_TFPI</title>
<polyline fill="none" stroke="black" points="990,-131 958,-131 "/>
<path fill="none" stroke="black" d="M958,-131C952,-131 946,-125 946,-119"/>
<polyline fill="none" stroke="black" points="946,-119 946,-107 "/>
<path fill="none" stroke="black" d="M946,-107C946,-101 952,-95 958,-95"/>
<polyline fill="none" stroke="black" points="958,-95 990,-95 "/>
<path fill="none" stroke="black" d="M990,-95C996,-95 1002,-101 1002,-107"/>
<polyline fill="none" stroke="black" points="1002,-107 1002,-119 "/>
<path fill="none" stroke="black" d="M1002,-119C1002,-125 996,-131 990,-131"/>
<text text-anchor="middle" x="974" y="-110.5" font-family="Times Roman,serif" font-size="10.00">Xa_TFPI</text>
</g>
<!-- Xa_TFPI&#45;&gt;reaction_5_intermediate_r -->
<g id="edge44" class="edge"><title>Xa_TFPI&#45;&gt;reaction_5_intermediate_r</title>
<path fill="none" stroke="black" d="M1012.69,-113C1026.09,-113 1038.04,-113 1038.94,-113"/>
<polygon fill="black" stroke="black" points="1012.32,-109.5 1002.32,-113 1012.32,-116.5 1012.32,-109.5"/>
</g>
<!-- Xa_TFPI_VIIa_TF -->
<g id="node8" class="node"><title>Xa_TFPI_VIIa_TF</title>
<polyline fill="none" stroke="black" points="1249,-108 1177,-108 "/>
<path fill="none" stroke="black" d="M1177,-108C1171,-108 1165,-102 1165,-96"/>
<polyline fill="none" stroke="black" points="1165,-96 1165,-84 "/>
<path fill="none" stroke="black" d="M1165,-84C1165,-78 1171,-72 1177,-72"/>
<polyline fill="none" stroke="black" points="1177,-72 1249,-72 "/>
<path fill="none" stroke="black" d="M1249,-72C1255,-72 1261,-78 1261,-84"/>
<polyline fill="none" stroke="black" points="1261,-84 1261,-96 "/>
<path fill="none" stroke="black" d="M1261,-96C1261,-102 1255,-108 1249,-108"/>
<text text-anchor="middle" x="1213" y="-87.5" font-family="Times Roman,serif" font-size="10.00">Xa_TFPI_VIIa_TF</text>
</g>
<!-- VIIa_TF_Xa_TFPI -->
<g id="node9" class="node"><title>VIIa_TF_Xa_TFPI</title>
<polyline fill="none" stroke="black" points="759,-78 687,-78 "/>
<path fill="none" stroke="black" d="M687,-78C681,-78 675,-72 675,-66"/>
<polyline fill="none" stroke="black" points="675,-66 675,-54 "/>
<path fill="none" stroke="black" d="M675,-54C675,-48 681,-42 687,-42"/>
<polyline fill="none" stroke="black" points="687,-42 759,-42 "/>
<path fill="none" stroke="black" d="M759,-42C765,-42 771,-48 771,-54"/>
<polyline fill="none" stroke="black" points="771,-54 771,-66 "/>
<path fill="none" stroke="black" d="M771,-66C771,-72 765,-78 759,-78"/>
<text text-anchor="middle" x="723" y="-57.5" font-family="Times Roman,serif" font-size="10.00">VIIa_TF_Xa_TFPI</text>
</g>
<!-- reaction_7_intermediate_r -->
<g id="node58" class="node"><title>reaction_7_intermediate_r</title>
<ellipse fill="black" stroke="black" cx="809" cy="-116" rx="0.036" ry="0.036"/>
</g>
<!-- VIIa_TF_Xa_TFPI&#45;&gt;reaction_7_intermediate_r -->
<g id="edge62" class="edge"><title>VIIa_TF_Xa_TFPI&#45;&gt;reaction_7_intermediate_r</title>
<path fill="none" stroke="black" d="M766.214,-83.2986C768.186,-84.5225 770.124,-85.7595 772,-87 788.884,-98.1634 807.779,-114.914 808.943,-115.95"/>
<polygon fill="black" stroke="black" points="767.802,-80.1704 757.422,-78.0451 764.211,-86.1793 767.802,-80.1704"/>
</g>
<!-- reaction_8_intermediate_r -->
<g id="node66" class="node"><title>reaction_8_intermediate_r</title>
<ellipse fill="black" stroke="black" cx="853" cy="-66" rx="0.036" ry="0.036"/>
</g>
<!-- VIIa_TF_Xa_TFPI&#45;&gt;reaction_8_intermediate_r -->
<g id="edge72" class="edge"><title>VIIa_TF_Xa_TFPI&#45;&gt;reaction_8_intermediate_r</title>
<path fill="none" stroke="black" d="M781.973,-62.7218C815.171,-64.254 850.483,-65.8838 852.872,-65.9941"/>
<polygon fill="black" stroke="black" points="781.928,-59.2161 771.777,-62.2512 781.605,-66.2087 781.928,-59.2161"/>
</g>
<!-- reaction_1 -->
<g id="node10" class="node"><title>reaction_1</title>
<polygon fill="none" stroke="black" points="142,-89 128,-89 128,-75 142,-75 142,-89"/>
</g>
<!-- reaction_1_intermediate_p -->
<g id="node15" class="node"><title>reaction_1_intermediate_p</title>
<ellipse fill="black" stroke="black" cx="179" cy="-79" rx="0.036" ry="0.036"/>
</g>
<!-- reaction_1&#45;&gt;reaction_1_intermediate_p -->
<g id="edge8" class="edge"><title>reaction_1&#45;&gt;reaction_1_intermediate_p</title>
<path fill="none" stroke="black" d="M142.266,-81.5046C154.372,-80.6792 177.497,-79.1025 178.93,-79.0048"/>
</g>
<!-- reaction_1_intermediate_r&#45;&gt;reaction_1 -->
<g id="edge2" class="edge"><title>reaction_1_intermediate_r&#45;&gt;reaction_1</title>
<path fill="none" stroke="black" d="M91.1262,-84.9914C93.0215,-84.8622 115.795,-83.3095 127.759,-82.4937"/>
</g>
<!-- reaction_1_intermediate_p&#45;&gt;VIIa_TF_X -->
<g id="edge10" class="edge"><title>reaction_1_intermediate_p&#45;&gt;VIIa_TF_X</title>
<path fill="none" stroke="black" d="M179.05,-78.9978C179.917,-78.9601 191.935,-78.4376 205.701,-77.8391"/>
<polygon fill="black" stroke="black" points="206.06,-81.3269 215.899,-77.3957 205.756,-74.3335 206.06,-81.3269"/>
</g>
<!-- reaction_2 -->
<g id="node18" class="node"><title>reaction_2</title>
<polygon fill="none" stroke="black" points="368,-83 354,-83 354,-69 368,-69 368,-83"/>
</g>
<!-- reaction_2_intermediate_p -->
<g id="node22" class="node"><title>reaction_2_intermediate_p</title>
<ellipse fill="black" stroke="black" cx="405" cy="-76" rx="0.036" ry="0.036"/>
</g>
<!-- reaction_2&#45;&gt;reaction_2_intermediate_p -->
<g id="edge16" class="edge"><title>reaction_2&#45;&gt;reaction_2_intermediate_p</title>
<path fill="none" stroke="black" d="M368.266,-76C380.372,-76 403.497,-76 404.93,-76"/>
</g>
<!-- reaction_2_intermediate_r&#45;&gt;reaction_2 -->
<g id="edge12" class="edge"><title>reaction_2_intermediate_r&#45;&gt;reaction_2</title>
<path fill="none" stroke="black" d="M317.126,-76C319.022,-76 341.795,-76 353.759,-76"/>
</g>
<!-- reaction_2_intermediate_p&#45;&gt;VIIa_TF_Xa -->
<g id="edge18" class="edge"><title>reaction_2_intermediate_p&#45;&gt;VIIa_TF_Xa</title>
<path fill="none" stroke="black" d="M405.052,-76C405.929,-76 417.748,-76 431.561,-76"/>
<polygon fill="black" stroke="black" points="431.844,-79.5001 441.844,-76 431.844,-72.5001 431.844,-79.5001"/>
</g>
<!-- reaction_3 -->
<g id="node25" class="node"><title>reaction_3</title>
<polygon fill="none" stroke="black" points="600,-94 586,-94 586,-80 600,-80 600,-94"/>
</g>
<!-- reaction_3_intermediate_p -->
<g id="node29" class="node"><title>reaction_3_intermediate_p</title>
<ellipse fill="black" stroke="black" cx="637" cy="-114" rx="0.036" ry="0.036"/>
</g>
<!-- reaction_3&#45;&gt;reaction_3_intermediate_p -->
<g id="edge24" class="edge"><title>reaction_3&#45;&gt;reaction_3_intermediate_p</title>
<path fill="none" stroke="black" d="M600.266,-91.4585C612.372,-98.8876 635.497,-113.077 636.93,-113.957"/>
</g>
<!-- reaction_3_intermediate_r&#45;&gt;reaction_3 -->
<g id="edge20" class="edge"><title>reaction_3_intermediate_r&#45;&gt;reaction_3</title>
<path fill="none" stroke="black" d="M549.126,-82.0143C551.022,-82.2297 573.795,-84.8176 585.759,-86.1772"/>
</g>
<!-- reaction_3_intermediate_p&#45;&gt;VIIa_TF -->
<g id="edge28" class="edge"><title>reaction_3_intermediate_p&#45;&gt;VIIa_TF</title>
<path fill="none" stroke="black" d="M636.859,-114.023C633.964,-114.492 587.045,-122 549,-122 135,-122 135,-122 135,-122 110.802,-122 84.3813,-128.245 63.7286,-134.614"/>
<polygon fill="black" stroke="black" points="62.531,-131.323 54.0884,-137.724 64.68,-137.985 62.531,-131.323"/>
</g>
<!-- reaction_3_intermediate_p&#45;&gt;Xa -->
<g id="edge26" class="edge"><title>reaction_3_intermediate_p&#45;&gt;Xa</title>
<path fill="none" stroke="black" d="M637.062,-114C638.456,-114 662.975,-114 685.467,-114"/>
<polygon fill="black" stroke="black" points="685.567,-117.5 695.567,-114 685.567,-110.5 685.567,-117.5"/>
</g>
<!-- reaction_4 -->
<g id="node33" class="node"><title>reaction_4</title>
<polygon fill="none" stroke="black" points="860,-98 846,-98 846,-84 860,-84 860,-98"/>
</g>
<!-- reaction_4_intermediate_p -->
<g id="node38" class="node"><title>reaction_4_intermediate_p</title>
<ellipse fill="black" stroke="black" cx="903" cy="-101" rx="0.036" ry="0.036"/>
</g>
<!-- reaction_4&#45;&gt;reaction_4_intermediate_p -->
<g id="edge36" class="edge"><title>reaction_4&#45;&gt;reaction_4_intermediate_p</title>
<path fill="none" stroke="black" d="M860.378,-92.4755C873.851,-95.1703 901.22,-100.644 902.917,-100.983"/>
</g>
<!-- reaction_4_intermediate_r&#45;&gt;reaction_4 -->
<g id="edge30" class="edge"><title>reaction_4_intermediate_r&#45;&gt;reaction_4</title>
<path fill="none" stroke="black" d="M809.126,-91C811.022,-91 833.795,-91 845.759,-91"/>
</g>
<!-- reaction_4_intermediate_p&#45;&gt;Xa_TFPI -->
<g id="edge38" class="edge"><title>reaction_4_intermediate_p&#45;&gt;Xa_TFPI</title>
<path fill="none" stroke="black" d="M903.051,-101.009C904.053,-101.178 919.516,-103.792 935.751,-106.535"/>
<polygon fill="black" stroke="black" points="935.393,-110.025 945.837,-108.24 936.56,-103.122 935.393,-110.025"/>
</g>
<!-- reaction_5 -->
<g id="node41" class="node"><title>reaction_5</title>
<polygon fill="none" stroke="black" points="1090,-117 1076,-117 1076,-103 1090,-103 1090,-117"/>
</g>
<!-- reaction_5_intermediate_p -->
<g id="node46" class="node"><title>reaction_5_intermediate_p</title>
<ellipse fill="black" stroke="black" cx="1127" cy="-106" rx="0.036" ry="0.036"/>
</g>
<!-- reaction_5&#45;&gt;reaction_5_intermediate_p -->
<g id="edge46" class="edge"><title>reaction_5&#45;&gt;reaction_5_intermediate_p</title>
<path fill="none" stroke="black" d="M1090.27,-109.339C1102.37,-108.239 1125.5,-106.137 1126.93,-106.006"/>
</g>
<!-- reaction_5_intermediate_r&#45;&gt;reaction_5 -->
<g id="edge40" class="edge"><title>reaction_5_intermediate_r&#45;&gt;reaction_5</title>
<path fill="none" stroke="black" d="M1039.13,-112.991C1041.02,-112.862 1063.79,-111.309 1075.76,-110.494"/>
</g>
<!-- reaction_5_intermediate_p&#45;&gt;Xa_TFPI_VIIa_TF -->
<g id="edge48" class="edge"><title>reaction_5_intermediate_p&#45;&gt;Xa_TFPI_VIIa_TF</title>
<path fill="none" stroke="black" d="M1127.06,-105.988C1128.01,-105.811 1139.74,-103.63 1154.24,-100.933"/>
<polygon fill="black" stroke="black" points="1154.89,-104.371 1164.08,-99.1014 1153.61,-97.4896 1154.89,-104.371"/>
</g>
<!-- reaction_6 -->
<g id="node49" class="node"><title>reaction_6</title>
<polygon fill="none" stroke="black" points="600,-62 586,-62 586,-48 600,-48 600,-62"/>
</g>
<!-- reaction_6_intermediate_p -->
<g id="node54" class="node"><title>reaction_6_intermediate_p</title>
<ellipse fill="black" stroke="black" cx="637" cy="-57" rx="0.036" ry="0.036"/>
</g>
<!-- reaction_6&#45;&gt;reaction_6_intermediate_p -->
<g id="edge56" class="edge"><title>reaction_6&#45;&gt;reaction_6_intermediate_p</title>
<path fill="none" stroke="black" d="M600.266,-55.3303C612.372,-55.8806 635.497,-56.9317 636.93,-56.9968"/>
</g>
<!-- reaction_6_intermediate_r&#45;&gt;reaction_6 -->
<g id="edge50" class="edge"><title>reaction_6_intermediate_r&#45;&gt;reaction_6</title>
<path fill="none" stroke="black" d="M549.126,-55C551.022,-55 573.795,-55 585.759,-55"/>
</g>
<!-- reaction_6_intermediate_p&#45;&gt;VIIa_TF_Xa_TFPI -->
<g id="edge58" class="edge"><title>reaction_6_intermediate_p&#45;&gt;VIIa_TF_Xa_TFPI</title>
<path fill="none" stroke="black" d="M637.062,-57.0022C638.005,-57.035 649.515,-57.4366 663.823,-57.9357"/>
<polygon fill="black" stroke="black" points="663.964,-61.4426 674.08,-58.2935 664.208,-54.4469 663.964,-61.4426"/>
</g>
<!-- reaction_7 -->
<g id="node57" class="node"><title>reaction_7</title>
<polygon fill="none" stroke="black" points="860,-130 846,-130 846,-116 860,-116 860,-130"/>
</g>
<!-- reaction_7_intermediate_p -->
<g id="node61" class="node"><title>reaction_7_intermediate_p</title>
<ellipse fill="black" stroke="black" cx="903" cy="-123" rx="0.036" ry="0.036"/>
</g>
<!-- reaction_7&#45;&gt;reaction_7_intermediate_p -->
<g id="edge64" class="edge"><title>reaction_7&#45;&gt;reaction_7_intermediate_p</title>
<path fill="none" stroke="black" d="M860.378,-123C873.851,-123 901.22,-123 902.917,-123"/>
</g>
<!-- reaction_7_intermediate_r&#45;&gt;reaction_7 -->
<g id="edge60" class="edge"><title>reaction_7_intermediate_r&#45;&gt;reaction_7</title>
<path fill="none" stroke="black" d="M809.126,-116.02C811.022,-116.322 833.795,-119.945 845.759,-121.848"/>
</g>
<!-- reaction_7_intermediate_p&#45;&gt;VIIa_TF -->
<g id="edge66" class="edge"><title>reaction_7_intermediate_p&#45;&gt;VIIa_TF</title>
<path fill="none" stroke="black" d="M902.858,-123.106C899.935,-125.276 852.495,-160 809,-160 135,-160 135,-160 135,-160 111.437,-160 85.1591,-157.144 64.4236,-154.218"/>
<polygon fill="black" stroke="black" points="64.8322,-150.741 54.4283,-152.743 63.81,-157.665 64.8322,-150.741"/>
</g>
<!-- reaction_7_intermediate_p&#45;&gt;Xa_TFPI -->
<g id="edge68" class="edge"><title>reaction_7_intermediate_p&#45;&gt;Xa_TFPI</title>
<path fill="none" stroke="black" d="M903.051,-122.993C904.053,-122.852 919.516,-120.674 935.751,-118.387"/>
<polygon fill="black" stroke="black" points="936.423,-121.827 945.837,-116.967 935.447,-114.896 936.423,-121.827"/>
</g>
<!-- reaction_8 -->
<g id="node65" class="node"><title>reaction_8</title>
<polygon fill="none" stroke="black" points="910,-76 896,-76 896,-62 910,-62 910,-76"/>
</g>
<!-- reaction_8_intermediate_p -->
<g id="node69" class="node"><title>reaction_8_intermediate_p</title>
<ellipse fill="black" stroke="black" cx="974" cy="-72" rx="0.036" ry="0.036"/>
</g>
<!-- reaction_8&#45;&gt;reaction_8_intermediate_p -->
<g id="edge74" class="edge"><title>reaction_8&#45;&gt;reaction_8_intermediate_p</title>
<path fill="none" stroke="black" d="M910.067,-69.2986C927.465,-70.0337 971.154,-71.8797 973.868,-71.9944"/>
</g>
<!-- reaction_8_intermediate_r&#45;&gt;reaction_8 -->
<g id="edge70" class="edge"><title>reaction_8_intermediate_r&#45;&gt;reaction_8</title>
<path fill="none" stroke="black" d="M853.143,-66.0086C855.343,-66.1406 882.288,-67.7573 895.622,-68.5573"/>
</g>
<!-- reaction_8_intermediate_p&#45;&gt;Xa_TFPI_VIIa_TF -->
<g id="edge76" class="edge"><title>reaction_8_intermediate_p&#45;&gt;Xa_TFPI_VIIa_TF</title>
<path fill="none" stroke="black" d="M974.044,-72.0033C976.524,-72.1901 1084.47,-80.3202 1154.42,-85.5879"/>
<polygon fill="black" stroke="black" points="1154.21,-89.082 1164.44,-86.343 1154.73,-82.1018 1154.21,-89.082"/>
</g>
</g>
</svg>
