<?xml version="1.0" encoding="UTF-8" standalone="no"?>
<!DOCTYPE svg PUBLIC "-//W3C//DTD SVG 1.1//EN"
 "http://www.w3.org/Graphics/SVG/1.1/DTD/svg11.dtd">
<!-- Generated by graphviz version 2.30.1 (20140821.0912)
 -->
<!-- Title: G Pages: 1 -->
<svg width="2214pt" height="198pt"
 viewBox="0.00 0.00 2214.00 198.00" xmlns="http://www.w3.org/2000/svg" xmlns:xlink="http://www.w3.org/1999/xlink">
<g id="graph0" class="graph" transform="scale(1 1) rotate(0) translate(4 194)">
<title>G</title>
<polygon fill="white" stroke="white" points="-4,5 -4,-194 2211,-194 2211,5 -4,5"/>
<!-- EI -->
<g id="EI" class="node"><title>EI</title>
<path fill="none" stroke="black" d="M42,-49C42,-49 12,-49 12,-49 6,-49 0,-43 0,-37 0,-37 0,-25 0,-25 0,-19 6,-13 12,-13 12,-13 42,-13 42,-13 48,-13 54,-19 54,-25 54,-25 54,-37 54,-37 54,-43 48,-49 42,-49"/>
<text text-anchor="middle" x="27" y="-28.5" font-family="Times,serif" font-size="10.00">EI</text>
</g>
<!-- v1_intermediate_r -->
<g id="node19" class="node"><title>v1_intermediate_r</title>
<ellipse fill="black" stroke="black" cx="91" cy="-81" rx="0.036" ry="0.036"/>
</g>
<!-- EI&#45;&gt;v1_intermediate_r -->
<g id="edge3" class="edge"><title>EI&#45;&gt;v1_intermediate_r</title>
<path fill="none" stroke="black" d="M50.3834,-49.0511C67.5876,-62.9255 88.6379,-79.9015 89.9368,-80.949"/>
</g>
<!-- PyrPI -->
<g id="PyrPI [CHEBI:18021] [CHEBI:18021]" class="node"><title>PyrPI</title>
<ellipse fill="none" stroke="black" cx="234" cy="-81" rx="18" ry="18"/>
<text text-anchor="middle" x="234" y="-78.5" font-family="Times,serif" font-size="10.00">PyrPI</text>
</g>
<!-- v2_intermediate_r -->
<g id="node22" class="node"><title>v2_intermediate_r</title>
<ellipse fill="black" stroke="black" cx="289" cy="-81" rx="0.036" ry="0.036"/>
</g>
<!-- PyrPI&#45;&gt;v2_intermediate_r -->
<g id="edge7" class="edge"><title>PyrPI&#45;&gt;v2_intermediate_r</title>
<path fill="none" stroke="black" d="M252.061,-81C267.071,-81 286.727,-81 287.941,-81"/>
</g>
<!-- EIP -->
<g id="EIP" class="node"><title>EIP</title>
<path fill="none" stroke="black" d="M456,-97C456,-97 426,-97 426,-97 420,-97 414,-91 414,-85 414,-85 414,-73 414,-73 414,-67 420,-61 426,-61 426,-61 456,-61 456,-61 462,-61 468,-67 468,-73 468,-73 468,-85 468,-85 468,-91 462,-97 456,-97"/>
<text text-anchor="middle" x="441" y="-76.5" font-family="Times,serif" font-size="10.00">EIP</text>
</g>
<!-- v3_intermediate_r -->
<g id="node25" class="node"><title>v3_intermediate_r</title>
<ellipse fill="black" stroke="black" cx="505" cy="-79" rx="0.036" ry="0.036"/>
</g>
<!-- EIP&#45;&gt;v3_intermediate_r -->
<g id="edge13" class="edge"><title>EIP&#45;&gt;v3_intermediate_r</title>
<path fill="none" stroke="black" d="M468.294,-79C484.664,-79 502.826,-79 503.946,-79"/>
</g>
<!-- HPr -->
<g id="HPr" class="node"><title>HPr</title>
<path fill="none" stroke="black" d="M1302,-141C1302,-141 1272,-141 1272,-141 1266,-141 1260,-135 1260,-129 1260,-129 1260,-117 1260,-117 1260,-111 1266,-105 1272,-105 1272,-105 1302,-105 1302,-105 1308,-105 1314,-111 1314,-117 1314,-117 1314,-129 1314,-129 1314,-135 1308,-141 1302,-141"/>
<text text-anchor="middle" x="1287" y="-120.5" font-family="Times,serif" font-size="10.00">HPr</text>
</g>
<!-- HPr&#45;&gt;v3_intermediate_r -->
<g id="edge12" class="edge"><title>HPr&#45;&gt;v3_intermediate_r</title>
<path fill="none" stroke="black" d="M1259.86,-123C1238.41,-123 1207.24,-123 1180,-123 592,-123 592,-123 592,-123 550.407,-123 508.691,-81.707 506.125,-79.1262"/>
</g>
<!-- EIPHPr -->
<g id="EIPHPr" class="node"><title>EIPHPr</title>
<path fill="none" stroke="black" d="M672,-95C672,-95 642,-95 642,-95 636,-95 630,-89 630,-83 630,-83 630,-71 630,-71 630,-65 636,-59 642,-59 642,-59 672,-59 672,-59 678,-59 684,-65 684,-71 684,-71 684,-83 684,-83 684,-89 678,-95 672,-95"/>
<text text-anchor="middle" x="657" y="-74.5" font-family="Times,serif" font-size="10.00">EIPHPr</text>
</g>
<!-- v4_intermediate_r -->
<g id="node28" class="node"><title>v4_intermediate_r</title>
<ellipse fill="black" stroke="black" cx="721" cy="-74" rx="0.036" ry="0.036"/>
</g>
<!-- EIPHPr&#45;&gt;v4_intermediate_r -->
<g id="edge17" class="edge"><title>EIPHPr&#45;&gt;v4_intermediate_r</title>
<path fill="none" stroke="black" d="M684.294,-75.7277C700.664,-74.9356 718.826,-74.0568 719.946,-74.0026"/>
</g>
<!-- HPrP -->
<g id="HPrP" class="node"><title>HPrP</title>
<ellipse fill="none" stroke="black" cx="864" cy="-47" rx="18" ry="18"/>
<text text-anchor="middle" x="864" y="-44.5" font-family="Times,serif" font-size="10.00">HPrP</text>
</g>
<!-- v5_intermediate_r -->
<g id="node31" class="node"><title>v5_intermediate_r</title>
<ellipse fill="black" stroke="black" cx="919" cy="-47" rx="0.036" ry="0.036"/>
</g>
<!-- HPrP&#45;&gt;v5_intermediate_r -->
<g id="edge22" class="edge"><title>HPrP&#45;&gt;v5_intermediate_r</title>
<path fill="none" stroke="black" d="M882.061,-47C897.071,-47 916.727,-47 917.941,-47"/>
</g>
<!-- EIIA -->
<g id="EIIA" class="node"><title>EIIA</title>
<path fill="none" stroke="black" d="M1742,-36C1742,-36 1712,-36 1712,-36 1706,-36 1700,-30 1700,-24 1700,-24 1700,-12 1700,-12 1700,-6 1706,-0 1712,-0 1712,-0 1742,-0 1742,-0 1748,-0 1754,-6 1754,-12 1754,-12 1754,-24 1754,-24 1754,-30 1748,-36 1742,-36"/>
<text text-anchor="middle" x="1727" y="-15.5" font-family="Times,serif" font-size="10.00">EIIA</text>
</g>
<!-- EIIA&#45;&gt;v5_intermediate_r -->
<g id="edge23" class="edge"><title>EIIA&#45;&gt;v5_intermediate_r</title>
<path fill="none" stroke="black" d="M1699.86,-18.3838C1678.41,-18.6658 1647.24,-19 1620,-19 1006,-19 1006,-19 1006,-19 967.059,-19 922.857,-45.2773 920.133,-46.9197"/>
</g>
<!-- HPrPIIA -->
<g id="HPrPIIA" class="node"><title>HPrPIIA</title>
<path fill="none" stroke="black" d="M1086,-87C1086,-87 1056,-87 1056,-87 1050,-87 1044,-81 1044,-75 1044,-75 1044,-63 1044,-63 1044,-57 1050,-51 1056,-51 1056,-51 1086,-51 1086,-51 1092,-51 1098,-57 1098,-63 1098,-63 1098,-75 1098,-75 1098,-81 1092,-87 1086,-87"/>
<text text-anchor="middle" x="1071" y="-66.5" font-family="Times,serif" font-size="10.00">HPrPIIA</text>
</g>
<!-- v6_intermediate_r -->
<g id="node34" class="node"><title>v6_intermediate_r</title>
<ellipse fill="black" stroke="black" cx="1135" cy="-69" rx="0.036" ry="0.036"/>
</g>
<!-- HPrPIIA&#45;&gt;v6_intermediate_r -->
<g id="edge27" class="edge"><title>HPrPIIA&#45;&gt;v6_intermediate_r</title>
<path fill="none" stroke="black" d="M1098.29,-69C1114.66,-69 1132.83,-69 1133.95,-69"/>
</g>
<!-- EIIAP -->
<g id="EIIAP" class="node"><title>EIIAP</title>
<path fill="none" stroke="black" d="M1302,-87C1302,-87 1272,-87 1272,-87 1266,-87 1260,-81 1260,-75 1260,-75 1260,-63 1260,-63 1260,-57 1266,-51 1272,-51 1272,-51 1302,-51 1302,-51 1308,-51 1314,-57 1314,-63 1314,-63 1314,-75 1314,-75 1314,-81 1308,-87 1302,-87"/>
<text text-anchor="middle" x="1287" y="-66.5" font-family="Times,serif" font-size="10.00">EIIAP</text>
</g>
<!-- v7_intermediate_r -->
<g id="node37" class="node"><title>v7_intermediate_r</title>
<ellipse fill="black" stroke="black" cx="1351" cy="-70" rx="0.036" ry="0.036"/>
</g>
<!-- EIIAP&#45;&gt;v7_intermediate_r -->
<g id="edge33" class="edge"><title>EIIAP&#45;&gt;v7_intermediate_r</title>
<path fill="none" stroke="black" d="M1314.29,-69.4241C1330.66,-69.6881 1348.83,-69.9811 1349.95,-69.9991"/>
</g>
<!-- EIICB -->
<g id="EIICB" class="node"><title>EIICB</title>
<path fill="none" stroke="black" d="M2194,-190C2194,-190 2164,-190 2164,-190 2158,-190 2152,-184 2152,-178 2152,-178 2152,-166 2152,-166 2152,-160 2158,-154 2164,-154 2164,-154 2194,-154 2194,-154 2200,-154 2206,-160 2206,-166 2206,-166 2206,-178 2206,-178 2206,-184 2200,-190 2194,-190"/>
<text text-anchor="middle" x="2179" y="-169.5" font-family="Times,serif" font-size="10.00">EIICB</text>
</g>
<!-- EIICB&#45;&gt;v7_intermediate_r -->
<g id="edge32" class="edge"><title>EIICB&#45;&gt;v7_intermediate_r</title>
<path fill="none" stroke="black" d="M2151.86,-172C2130.41,-172 2099.24,-172 2072,-172 1438,-172 1438,-172 1438,-172 1379.63,-172 1352.84,-73.1626 1352.02,-70.0739"/>
</g>
<!-- EIIAPIICB -->
<g id="EIIAPIICB" class="node"><title>EIIAPIICB</title>
<path fill="none" stroke="black" d="M1525.5,-88C1525.5,-88 1488.5,-88 1488.5,-88 1482.5,-88 1476.5,-82 1476.5,-76 1476.5,-76 1476.5,-64 1476.5,-64 1476.5,-58 1482.5,-52 1488.5,-52 1488.5,-52 1525.5,-52 1525.5,-52 1531.5,-52 1537.5,-58 1537.5,-64 1537.5,-64 1537.5,-76 1537.5,-76 1537.5,-82 1531.5,-88 1525.5,-88"/>
<text text-anchor="middle" x="1507" y="-67.5" font-family="Times,serif" font-size="10.00">EIIAPIICB</text>
</g>
<!-- v8_intermediate_r -->
<g id="node40" class="node"><title>v8_intermediate_r</title>
<ellipse fill="black" stroke="black" cx="1575" cy="-70" rx="0.036" ry="0.036"/>
</g>
<!-- EIIAPIICB&#45;&gt;v8_intermediate_r -->
<g id="edge37" class="edge"><title>EIIAPIICB&#45;&gt;v8_intermediate_r</title>
<path fill="none" stroke="black" d="M1537.53,-70C1554.55,-70 1572.82,-70 1573.95,-70"/>
</g>
<!-- EIICBP -->
<g id="EIICBP" class="node"><title>EIICBP</title>
<path fill="none" stroke="black" d="M1742,-90C1742,-90 1712,-90 1712,-90 1706,-90 1700,-84 1700,-78 1700,-78 1700,-66 1700,-66 1700,-60 1706,-54 1712,-54 1712,-54 1742,-54 1742,-54 1748,-54 1754,-60 1754,-66 1754,-66 1754,-78 1754,-78 1754,-84 1748,-90 1742,-90"/>
<text text-anchor="middle" x="1727" y="-69.5" font-family="Times,serif" font-size="10.00">EIICBP</text>
</g>
<!-- v9_intermediate_r -->
<g id="node43" class="node"><title>v9_intermediate_r</title>
<ellipse fill="black" stroke="black" cx="1791" cy="-122" rx="0.036" ry="0.036"/>
</g>
<!-- EIICBP&#45;&gt;v9_intermediate_r -->
<g id="edge42" class="edge"><title>EIICBP&#45;&gt;v9_intermediate_r</title>
<path fill="none" stroke="black" d="M1750.38,-90.0511C1767.59,-103.925 1788.64,-120.902 1789.94,-121.949"/>
</g>
<!-- EIICBPGlc -->
<g id="EIICBPGlc [CHEBI:17234]" class="node"><title>EIICBPGlc</title>
<ellipse fill="none" stroke="black" cx="1953" cy="-122" rx="36.4942" ry="18"/>
<text text-anchor="middle" x="1953" y="-119.5" font-family="Times,serif" font-size="10.00">EIICBPGlc</text>
</g>
<!-- v10_intermediate_r -->
<g id="node46" class="node"><title>v10_intermediate_r</title>
<ellipse fill="black" stroke="black" cx="2027" cy="-122" rx="0.036" ry="0.036"/>
</g>
<!-- EIICBPGlc&#45;&gt;v10_intermediate_r -->
<g id="edge47" class="edge"><title>EIICBPGlc&#45;&gt;v10_intermediate_r</title>
<path fill="none" stroke="black" d="M1989.58,-122C2007.15,-122 2024.86,-122 2025.95,-122"/>
</g>
<!-- PEP -->
<g id="PEP [CHEBI:18021]" class="node"><title>PEP</title>
<ellipse fill="none" stroke="black" cx="27" cy="-85" rx="18" ry="18"/>
<text text-anchor="middle" x="27" y="-82.5" font-family="Times,serif" font-size="10.00">PEP</text>
</g>
<!-- PEP&#45;&gt;v1_intermediate_r -->
<g id="edge2" class="edge"><title>PEP&#45;&gt;v1_intermediate_r</title>
<path fill="none" stroke="black" d="M45.2705,-83.8858C63.0425,-82.7392 88.3588,-81.1059 89.9238,-81.0049"/>
</g>
<!-- Pyr -->
<g id="Pyr [CHEBI:15361]" class="node"><title>Pyr</title>
<ellipse fill="none" stroke="black" cx="441" cy="-133" rx="18" ry="18"/>
<text text-anchor="middle" x="441" y="-130.5" font-family="Times,serif" font-size="10.00">Pyr</text>
</g>
<!-- GlcP -->
<g id="GlcP [CHEBI:14314]" class="node"><title>GlcP</title>
<ellipse fill="none" stroke="black" cx="2179" cy="-118" rx="18" ry="18"/>
<text text-anchor="middle" x="2179" y="-115.5" font-family="Times,serif" font-size="10.00">GlcP</text>
</g>
<!-- Glc -->
<g id="Glc [CHEBI:17234]" class="node"><title>Glc</title>
<ellipse fill="none" stroke="black" cx="1727" cy="-126" rx="18" ry="18"/>
<text text-anchor="middle" x="1727" y="-123.5" font-family="Times,serif" font-size="10.00">Glc</text>
</g>
<!-- Glc&#45;&gt;v9_intermediate_r -->
<g id="edge43" class="edge"><title>Glc&#45;&gt;v9_intermediate_r</title>
<path fill="none" stroke="black" d="M1745.27,-124.886C1763.04,-123.739 1788.36,-122.106 1789.92,-122.005"/>
</g>
<!-- v1 -->
<g id="node18" class="node"><title>v1</title>
<polygon fill="none" stroke="black" points="142,-88 128,-88 128,-74 142,-74 142,-88"/>
</g>
<!-- v1_intermediate_p -->
<g id="node20" class="node"><title>v1_intermediate_p</title>
<ellipse fill="black" stroke="black" cx="179" cy="-81" rx="0.036" ry="0.036"/>
</g>
<!-- v1&#45;&gt;v1_intermediate_p -->
<g id="edge4" class="edge"><title>v1&#45;&gt;v1_intermediate_p</title>
<path fill="none" stroke="black" d="M142.197,-81C153.515,-81 176.505,-81 177.93,-81"/>
</g>
<!-- v1_intermediate_r&#45;&gt;v1 -->
<g id="edge1" class="edge"><title>v1_intermediate_r&#45;&gt;v1</title>
<path fill="none" stroke="black" d="M92.1205,-81C93.9681,-81 116.602,-81 127.803,-81"/>
</g>
<!-- v1_intermediate_p&#45;&gt;PyrPI -->
<g id="edge5" class="edge"><title>v1_intermediate_p&#45;&gt;PyrPI</title>
<path fill="none" stroke="black" d="M180.152,-81C181.632,-81 193.681,-81 205.9,-81"/>
<polygon fill="black" stroke="black" points="205.975,-84.5001 215.975,-81 205.975,-77.5001 205.975,-84.5001"/>
</g>
<!-- v2 -->
<g id="node21" class="node"><title>v2</title>
<polygon fill="none" stroke="black" points="340,-88 326,-88 326,-74 340,-74 340,-88"/>
</g>
<!-- v2_intermediate_p -->
<g id="node23" class="node"><title>v2_intermediate_p</title>
<ellipse fill="black" stroke="black" cx="377" cy="-81" rx="0.036" ry="0.036"/>
</g>
<!-- v2&#45;&gt;v2_intermediate_p -->
<g id="edge8" class="edge"><title>v2&#45;&gt;v2_intermediate_p</title>
<path fill="none" stroke="black" d="M340.197,-81C351.515,-81 374.505,-81 375.93,-81"/>
</g>
<!-- v2_intermediate_r&#45;&gt;v2 -->
<g id="edge6" class="edge"><title>v2_intermediate_r&#45;&gt;v2</title>
<path fill="none" stroke="black" d="M290.12,-81C291.968,-81 314.602,-81 325.803,-81"/>
</g>
<!-- v2_intermediate_p&#45;&gt;EIP -->
<g id="edge9" class="edge"><title>v2_intermediate_p&#45;&gt;EIP</title>
<path fill="none" stroke="black" d="M378.045,-80.9986C378.863,-80.9722 390.734,-80.5892 403.87,-80.1655"/>
<polygon fill="black" stroke="black" points="404.116,-83.6595 413.998,-79.8388 403.891,-76.6631 404.116,-83.6595"/>
</g>
<!-- v2_intermediate_p&#45;&gt;Pyr -->
<g id="edge10" class="edge"><title>v2_intermediate_p&#45;&gt;Pyr</title>
<path fill="none" stroke="black" d="M378.045,-81.0377C379.167,-81.9786 401.069,-100.348 418.517,-114.982"/>
<polygon fill="black" stroke="black" points="416.703,-118.028 426.614,-121.773 421.201,-112.665 416.703,-118.028"/>
</g>
<!-- v3 -->
<g id="node24" class="node"><title>v3</title>
<polygon fill="none" stroke="black" points="556,-85 542,-85 542,-71 556,-71 556,-85"/>
</g>
<!-- v3_intermediate_p -->
<g id="node26" class="node"><title>v3_intermediate_p</title>
<ellipse fill="black" stroke="black" cx="593" cy="-77" rx="0.036" ry="0.036"/>
</g>
<!-- v3&#45;&gt;v3_intermediate_p -->
<g id="edge14" class="edge"><title>v3&#45;&gt;v3_intermediate_p</title>
<path fill="none" stroke="black" d="M556.197,-77.8524C567.515,-77.583 590.505,-77.0356 591.93,-77.0017"/>
</g>
<!-- v3_intermediate_r&#45;&gt;v3 -->
<g id="edge11" class="edge"><title>v3_intermediate_r&#45;&gt;v3</title>
<path fill="none" stroke="black" d="M506.12,-78.9971C507.968,-78.9531 530.602,-78.4142 541.803,-78.1476"/>
</g>
<!-- v3_intermediate_p&#45;&gt;EIPHPr -->
<g id="edge15" class="edge"><title>v3_intermediate_p&#45;&gt;EIPHPr</title>
<path fill="none" stroke="black" d="M594.045,-77C594.863,-77 606.734,-77 619.87,-77"/>
<polygon fill="black" stroke="black" points="619.998,-80.5001 629.998,-77 619.998,-73.5001 619.998,-80.5001"/>
</g>
<!-- v4 -->
<g id="node27" class="node"><title>v4</title>
<polygon fill="none" stroke="black" points="772,-76 758,-76 758,-62 772,-62 772,-76"/>
</g>
<!-- v4_intermediate_p -->
<g id="node29" class="node"><title>v4_intermediate_p</title>
<ellipse fill="black" stroke="black" cx="809" cy="-47" rx="0.036" ry="0.036"/>
</g>
<!-- v4&#45;&gt;v4_intermediate_p -->
<g id="edge18" class="edge"><title>v4&#45;&gt;v4_intermediate_p</title>
<path fill="none" stroke="black" d="M772.197,-65.7538C783.515,-59.8254 806.505,-47.7833 807.93,-47.0364"/>
</g>
<!-- v4_intermediate_r&#45;&gt;v4 -->
<g id="edge16" class="edge"><title>v4_intermediate_r&#45;&gt;v4</title>
<path fill="none" stroke="black" d="M722.12,-73.9857C723.968,-73.7657 746.602,-71.0712 757.803,-69.7378"/>
</g>
<!-- v4_intermediate_p&#45;&gt;HPrP -->
<g id="edge19" class="edge"><title>v4_intermediate_p&#45;&gt;HPrP</title>
<path fill="none" stroke="black" d="M810.152,-47C811.632,-47 823.681,-47 835.9,-47"/>
<polygon fill="black" stroke="black" points="835.975,-50.5001 845.975,-47 835.975,-43.5001 835.975,-50.5001"/>
</g>
<!-- v4_intermediate_p&#45;&gt;EI -->
<g id="edge20" class="edge"><title>v4_intermediate_p&#45;&gt;EI</title>
<path fill="none" stroke="black" d="M807.864,-46.9541C805.063,-46.0156 759.663,-31 722,-31 134,-31 134,-31 134,-31 110.807,-31 84.7589,-31 64.2885,-31"/>
<polygon fill="black" stroke="black" points="64.1369,-27.5001 54.1369,-31 64.1369,-34.5001 64.1369,-27.5001"/>
</g>
<!-- v5 -->
<g id="node30" class="node"><title>v5</title>
<polygon fill="none" stroke="black" points="970,-68 956,-68 956,-54 970,-54 970,-68"/>
</g>
<!-- v5_intermediate_p -->
<g id="node32" class="node"><title>v5_intermediate_p</title>
<ellipse fill="black" stroke="black" cx="1007" cy="-64" rx="0.036" ry="0.036"/>
</g>
<!-- v5&#45;&gt;v5_intermediate_p -->
<g id="edge24" class="edge"><title>v5&#45;&gt;v5_intermediate_p</title>
<path fill="none" stroke="black" d="M970.197,-61.4427C981.515,-62.2511 1004.5,-63.8932 1005.93,-63.995"/>
</g>
<!-- v5_intermediate_r&#45;&gt;v5 -->
<g id="edge21" class="edge"><title>v5_intermediate_r&#45;&gt;v5</title>
<path fill="none" stroke="black" d="M920.12,-47.0402C921.968,-47.656 944.602,-55.2005 955.803,-58.9343"/>
</g>
<!-- v5_intermediate_p&#45;&gt;HPrPIIA -->
<g id="edge25" class="edge"><title>v5_intermediate_p&#45;&gt;HPrPIIA</title>
<path fill="none" stroke="black" d="M1008.04,-64.0036C1008.86,-64.0696 1020.73,-65.027 1033.87,-66.0863"/>
<polygon fill="black" stroke="black" points="1033.75,-69.5878 1044,-66.9031 1034.31,-62.6105 1033.75,-69.5878"/>
</g>
<!-- v6 -->
<g id="node33" class="node"><title>v6</title>
<polygon fill="none" stroke="black" points="1186,-76 1172,-76 1172,-62 1186,-62 1186,-76"/>
</g>
<!-- v6_intermediate_p -->
<g id="node35" class="node"><title>v6_intermediate_p</title>
<ellipse fill="black" stroke="black" cx="1223" cy="-69" rx="0.036" ry="0.036"/>
</g>
<!-- v6&#45;&gt;v6_intermediate_p -->
<g id="edge28" class="edge"><title>v6&#45;&gt;v6_intermediate_p</title>
<path fill="none" stroke="black" d="M1186.2,-69C1197.52,-69 1220.5,-69 1221.93,-69"/>
</g>
<!-- v6_intermediate_r&#45;&gt;v6 -->
<g id="edge26" class="edge"><title>v6_intermediate_r&#45;&gt;v6</title>
<path fill="none" stroke="black" d="M1136.12,-69C1137.97,-69 1160.6,-69 1171.8,-69"/>
</g>
<!-- v6_intermediate_p&#45;&gt;EIIAP -->
<g id="edge29" class="edge"><title>v6_intermediate_p&#45;&gt;EIIAP</title>
<path fill="none" stroke="black" d="M1224.04,-69C1224.86,-69 1236.73,-69 1249.87,-69"/>
<polygon fill="black" stroke="black" points="1250,-72.5001 1260,-69 1250,-65.5001 1250,-72.5001"/>
</g>
<!-- v6_intermediate_p&#45;&gt;HPr -->
<g id="edge30" class="edge"><title>v6_intermediate_p&#45;&gt;HPr</title>
<path fill="none" stroke="black" d="M1224.04,-69.0391C1225.02,-69.89 1241.76,-84.4646 1257.58,-98.2511"/>
<polygon fill="black" stroke="black" points="1255.37,-100.964 1265.21,-104.892 1259.97,-95.6849 1255.37,-100.964"/>
</g>
<!-- v7 -->
<g id="node36" class="node"><title>v7</title>
<polygon fill="none" stroke="black" points="1402,-77 1388,-77 1388,-63 1402,-63 1402,-77"/>
</g>
<!-- v7_intermediate_p -->
<g id="node38" class="node"><title>v7_intermediate_p</title>
<ellipse fill="black" stroke="black" cx="1439" cy="-70" rx="0.036" ry="0.036"/>
</g>
<!-- v7&#45;&gt;v7_intermediate_p -->
<g id="edge34" class="edge"><title>v7&#45;&gt;v7_intermediate_p</title>
<path fill="none" stroke="black" d="M1402.2,-70C1413.52,-70 1436.5,-70 1437.93,-70"/>
</g>
<!-- v7_intermediate_r&#45;&gt;v7 -->
<g id="edge31" class="edge"><title>v7_intermediate_r&#45;&gt;v7</title>
<path fill="none" stroke="black" d="M1352.12,-70C1353.97,-70 1376.6,-70 1387.8,-70"/>
</g>
<!-- v7_intermediate_p&#45;&gt;EIIAPIICB -->
<g id="edge35" class="edge"><title>v7_intermediate_p&#45;&gt;EIIAPIICB</title>
<path fill="none" stroke="black" d="M1440.05,-70C1440.89,-70 1452.67,-70 1466.05,-70"/>
<polygon fill="black" stroke="black" points="1466.43,-73.5001 1476.43,-70 1466.43,-66.5001 1466.43,-73.5001"/>
</g>
<!-- v8 -->
<g id="node39" class="node"><title>v8</title>
<polygon fill="none" stroke="black" points="1626,-77 1612,-77 1612,-63 1626,-63 1626,-77"/>
</g>
<!-- v8_intermediate_p -->
<g id="node41" class="node"><title>v8_intermediate_p</title>
<ellipse fill="black" stroke="black" cx="1663" cy="-70" rx="0.036" ry="0.036"/>
</g>
<!-- v8&#45;&gt;v8_intermediate_p -->
<g id="edge38" class="edge"><title>v8&#45;&gt;v8_intermediate_p</title>
<path fill="none" stroke="black" d="M1626.2,-70C1637.52,-70 1660.5,-70 1661.93,-70"/>
</g>
<!-- v8_intermediate_r&#45;&gt;v8 -->
<g id="edge36" class="edge"><title>v8_intermediate_r&#45;&gt;v8</title>
<path fill="none" stroke="black" d="M1576.12,-70C1577.97,-70 1600.6,-70 1611.8,-70"/>
</g>
<!-- v8_intermediate_p&#45;&gt;EIICBP -->
<g id="edge39" class="edge"><title>v8_intermediate_p&#45;&gt;EIICBP</title>
<path fill="none" stroke="black" d="M1664.04,-70.0014C1664.86,-70.0278 1676.73,-70.4108 1689.87,-70.8345"/>
<polygon fill="black" stroke="black" points="1689.89,-74.3369 1700,-71.1612 1690.12,-67.3405 1689.89,-74.3369"/>
</g>
<!-- v8_intermediate_p&#45;&gt;EIIA -->
<g id="edge40" class="edge"><title>v8_intermediate_p&#45;&gt;EIIA</title>
<path fill="none" stroke="black" d="M1664.04,-69.9623C1665,-69.1609 1681.03,-55.7159 1696.54,-42.7046"/>
<polygon fill="black" stroke="black" points="1699.11,-45.1171 1704.53,-36.0092 1694.62,-39.7537 1699.11,-45.1171"/>
</g>
<!-- v9 -->
<g id="node42" class="node"><title>v9</title>
<polygon fill="none" stroke="black" points="1842,-129 1828,-129 1828,-115 1842,-115 1842,-129"/>
</g>
<!-- v9_intermediate_p -->
<g id="node44" class="node"><title>v9_intermediate_p</title>
<ellipse fill="black" stroke="black" cx="1879" cy="-122" rx="0.036" ry="0.036"/>
</g>
<!-- v9&#45;&gt;v9_intermediate_p -->
<g id="edge44" class="edge"><title>v9&#45;&gt;v9_intermediate_p</title>
<path fill="none" stroke="black" d="M1842.2,-122C1853.52,-122 1876.5,-122 1877.93,-122"/>
</g>
<!-- v9_intermediate_r&#45;&gt;v9 -->
<g id="edge41" class="edge"><title>v9_intermediate_r&#45;&gt;v9</title>
<path fill="none" stroke="black" d="M1792.12,-122C1793.97,-122 1816.6,-122 1827.8,-122"/>
</g>
<!-- v9_intermediate_p&#45;&gt;EIICBPGlc -->
<g id="edge45" class="edge"><title>v9_intermediate_p&#45;&gt;EIICBPGlc</title>
<path fill="none" stroke="black" d="M1880.05,-122C1880.92,-122 1892.56,-122 1906.24,-122"/>
<polygon fill="black" stroke="black" points="1906.43,-125.5 1916.43,-122 1906.43,-118.5 1906.43,-125.5"/>
</g>
<!-- v10 -->
<g id="node45" class="node"><title>v10</title>
<polygon fill="none" stroke="black" points="2078,-129 2064,-129 2064,-115 2078,-115 2078,-129"/>
</g>
<!-- v10_intermediate_p -->
<g id="node47" class="node"><title>v10_intermediate_p</title>
<ellipse fill="black" stroke="black" cx="2115" cy="-122" rx="0.036" ry="0.036"/>
</g>
<!-- v10&#45;&gt;v10_intermediate_p -->
<g id="edge48" class="edge"><title>v10&#45;&gt;v10_intermediate_p</title>
<path fill="none" stroke="black" d="M2078.2,-122C2089.52,-122 2112.5,-122 2113.93,-122"/>
</g>
<!-- v10_intermediate_r&#45;&gt;v10 -->
<g id="edge46" class="edge"><title>v10_intermediate_r&#45;&gt;v10</title>
<path fill="none" stroke="black" d="M2028.12,-122C2029.97,-122 2052.6,-122 2063.8,-122"/>
</g>
<!-- v10_intermediate_p&#45;&gt;EIICB -->
<g id="edge49" class="edge"><title>v10_intermediate_p&#45;&gt;EIICB</title>
<path fill="none" stroke="black" d="M2116.04,-122.036C2116.98,-122.792 2132.41,-135.232 2147.63,-147.509"/>
<polygon fill="black" stroke="black" points="2145.51,-150.299 2155.5,-153.852 2149.91,-144.85 2145.51,-150.299"/>
</g>
<!-- v10_intermediate_p&#45;&gt;GlcP -->
<g id="edge50" class="edge"><title>v10_intermediate_p&#45;&gt;GlcP</title>
<path fill="none" stroke="black" d="M2116.04,-121.997C2117.04,-121.933 2134.51,-120.806 2150.64,-119.765"/>
<polygon fill="black" stroke="black" points="2151.11,-123.242 2160.86,-119.106 2150.66,-116.257 2151.11,-123.242"/>
</g>
</g>
</svg>
