<?xml version="1.0" encoding="UTF-8" standalone="no"?>
<!DOCTYPE svg PUBLIC "-//W3C//DTD SVG 1.1//EN"
 "http://www.w3.org/Graphics/SVG/1.1/DTD/svg11.dtd">
<!-- Generated by graphviz version 2.30.1 (20140821.0912)
 -->
<!-- Title: G Pages: 1 -->
<svg width="1152pt" height="684pt"
 viewBox="0.00 0.00 1152.00 684.00" xmlns="http://www.w3.org/2000/svg" xmlns:xlink="http://www.w3.org/1999/xlink">
<g id="graph0" class="graph" transform="scale(1 1) rotate(0) translate(4 680)">
<title>G</title>
<polygon fill="white" stroke="white" points="-4,5 -4,-680 1149,-680 1149,5 -4,5"/>
<!-- CaI -->
<g id="CaI [CHEBI:29108]" class="node"><title>CaI</title>
<ellipse fill="none" stroke="black" cx="248" cy="-378" rx="18" ry="18"/>
<text text-anchor="middle" x="248" y="-375.5" font-family="Times,serif" font-size="10.00">CaI</text>
</g>
<!-- kPLC_intermediate_m -->
<g id="node13" class="node"><title>kPLC_intermediate_m</title>
<ellipse fill="black" stroke="black" cx="689" cy="-458" rx="0.036" ry="0.036"/>
</g>
<!-- CaI&#45;&gt;kPLC_intermediate_m -->
<g id="edge5" class="edge"><title>CaI&#45;&gt;kPLC_intermediate_m</title>
<path fill="none" stroke="black" d="M259.574,-392.208C269.268,-404.176 284.711,-420.78 302,-430 348.454,-454.775 365.353,-454 418,-454 418,-454 418,-454 510,-454 587.895,-454 684.915,-457.876 687.928,-457.997"/>
</g>
<!-- JPump_intermediate_r -->
<g id="node15" class="node"><title>JPump_intermediate_r</title>
<ellipse fill="black" stroke="black" cx="329" cy="-252" rx="0.036" ry="0.036"/>
</g>
<!-- CaI&#45;&gt;JPump_intermediate_r -->
<g id="edge7" class="edge"><title>CaI&#45;&gt;JPump_intermediate_r</title>
<path fill="none" stroke="black" d="M252.398,-360.338C258.188,-334.902 272.341,-288.046 302,-261 310.753,-253.018 326.947,-252.055 327.951,-252.002"/>
</g>
<!-- inhibition_parameter1_intermediate_m -->
<g id="node28" class="node"><title>inhibition_parameter1_intermediate_m</title>
<ellipse fill="black" stroke="black" cx="689" cy="-588" rx="0.036" ry="0.036"/>
</g>
<!-- CaI&#45;&gt;inhibition_parameter1_intermediate_m -->
<g id="edge26" class="edge"><title>CaI&#45;&gt;inhibition_parameter1_intermediate_m</title>
<path fill="none" stroke="black" d="M252.717,-395.567C259.049,-422.107 274.042,-472.938 302,-507 341.26,-554.831 356.12,-584 418,-584 418,-584 418,-584 510,-584 587.895,-584 684.915,-587.876 687.928,-587.997"/>
</g>
<!-- mw530793e3_76b2_4483_be11_e94364306712_intermediate_r -->
<g id="node37" class="node"><title>mw530793e3_76b2_4483_be11_e94364306712_intermediate_r</title>
<ellipse fill="black" stroke="black" cx="329" cy="-341" rx="0.036" ry="0.036"/>
</g>
<!-- CaI&#45;&gt;mw530793e3_76b2_4483_be11_e94364306712_intermediate_r -->
<g id="edge37" class="edge"><title>CaI&#45;&gt;mw530793e3_76b2_4483_be11_e94364306712_intermediate_r</title>
<path fill="none" stroke="black" d="M264.608,-370.69C286.911,-360.244 325.494,-342.174 327.883,-341.055"/>
</g>
<!-- mw5658298a_d96a_4b97_9a4f_6f06dad35824_intermediate_m -->
<g id="node43" class="node"><title>mw5658298a_d96a_4b97_9a4f_6f06dad35824_intermediate_m</title>
<ellipse fill="black" stroke="black" cx="329" cy="-128" rx="0.036" ry="0.036"/>
</g>
<!-- CaI&#45;&gt;mw5658298a_d96a_4b97_9a4f_6f06dad35824_intermediate_m -->
<g id="edge45" class="edge"><title>CaI&#45;&gt;mw5658298a_d96a_4b97_9a4f_6f06dad35824_intermediate_m</title>
<path fill="none" stroke="black" d="M252.456,-360.413C259.611,-325.387 277.45,-244.713 302,-180 310.879,-156.596 326.955,-129.736 327.951,-128.081"/>
</g>
<!-- mw8021d532_dd9b_4e34_a865_c2bb1689b0b5_intermediate_m -->
<g id="node54" class="node"><title>mw8021d532_dd9b_4e34_a865_c2bb1689b0b5_intermediate_m</title>
<ellipse fill="black" stroke="black" cx="689" cy="-340" rx="0.036" ry="0.036"/>
</g>
<!-- CaI&#45;&gt;mw8021d532_dd9b_4e34_a865_c2bb1689b0b5_intermediate_m -->
<g id="edge59" class="edge"><title>CaI&#45;&gt;mw8021d532_dd9b_4e34_a865_c2bb1689b0b5_intermediate_m</title>
<path fill="none" stroke="black" d="M266.273,-378C296.859,-378 362.547,-378 418,-378 418,-378 418,-378 510,-378 589.63,-378 684.969,-341.178 687.929,-340.028"/>
</g>
<!-- mwa61047ec_49c1_47b2_b78e_4d84a33d432a_intermediate_r -->
<g id="node62" class="node"><title>mwa61047ec_49c1_47b2_b78e_4d84a33d432a_intermediate_r</title>
<ellipse fill="black" stroke="black" cx="329" cy="-498" rx="0.036" ry="0.036"/>
</g>
<!-- CaI&#45;&gt;mwa61047ec_49c1_47b2_b78e_4d84a33d432a_intermediate_r -->
<g id="edge67" class="edge"><title>CaI&#45;&gt;mwa61047ec_49c1_47b2_b78e_4d84a33d432a_intermediate_r</title>
<path fill="none" stroke="black" d="M257.18,-393.824C266.952,-412.233 284.222,-443.262 302,-468 311.975,-481.88 327.024,-497.022 327.955,-497.955"/>
</g>
<!-- ERtoMito_intermediate_m -->
<g id="node67" class="node"><title>ERtoMito_intermediate_m</title>
<ellipse fill="black" stroke="black" cx="869" cy="-430" rx="0.036" ry="0.036"/>
</g>
<!-- CaI&#45;&gt;ERtoMito_intermediate_m -->
<g id="edge77" class="edge"><title>CaI&#45;&gt;ERtoMito_intermediate_m</title>
<path fill="none" stroke="black" d="M265.044,-384.105C294.757,-394.847 360.561,-416 418,-416 418,-416 418,-416 690,-416 768.115,-416 864.922,-429.566 867.928,-429.99"/>
</g>
<!-- IP3 -->
<g id="IP3 [CHEBI:16595]" class="node"><title>IP3</title>
<ellipse fill="none" stroke="black" cx="779" cy="-462" rx="18" ry="18"/>
<text text-anchor="middle" x="779" y="-459.5" font-family="Times,serif" font-size="10.00">IP3</text>
</g>
<!-- JChannel_intermediate_m -->
<g id="node21" class="node"><title>JChannel_intermediate_m</title>
<ellipse fill="black" stroke="black" cx="869" cy="-480" rx="0.036" ry="0.036"/>
</g>
<!-- IP3&#45;&gt;JChannel_intermediate_m -->
<g id="edge18" class="edge"><title>IP3&#45;&gt;JChannel_intermediate_m</title>
<path fill="none" stroke="black" d="M796.967,-465.471C821.74,-470.538 865.178,-479.423 867.869,-479.973"/>
</g>
<!-- kPhosphatase_intermediate_r -->
<g id="node23" class="node"><title>kPhosphatase_intermediate_r</title>
<ellipse fill="black" stroke="black" cx="869" cy="-462" rx="0.036" ry="0.036"/>
</g>
<!-- IP3&#45;&gt;kPhosphatase_intermediate_r -->
<g id="edge20" class="edge"><title>IP3&#45;&gt;kPhosphatase_intermediate_r</title>
<path fill="none" stroke="black" d="M797.386,-462C822.23,-462 865.208,-462 867.87,-462"/>
</g>
<!-- IP3&#45;&gt;ERtoMito_intermediate_m -->
<g id="edge76" class="edge"><title>IP3&#45;&gt;ERtoMito_intermediate_m</title>
<path fill="none" stroke="black" d="M796.141,-456.131C820.752,-447.181 865.117,-431.048 867.866,-430.049"/>
</g>
<!-- g -->
<g id="g" class="node"><title>g</title>
<ellipse fill="none" stroke="black" cx="779" cy="-516" rx="27" ry="18"/>
<text text-anchor="middle" x="779" y="-513.5" font-family="Times,serif" font-size="10.00">g</text>
</g>
<!-- g&#45;&gt;JChannel_intermediate_m -->
<g id="edge17" class="edge"><title>g&#45;&gt;JChannel_intermediate_m</title>
<path fill="none" stroke="black" d="M802.662,-506.729C827.921,-496.396 865.559,-480.999 867.887,-480.046"/>
</g>
<!-- inhibition_parameter2_intermediate_r -->
<g id="node30" class="node"><title>inhibition_parameter2_intermediate_r</title>
<ellipse fill="black" stroke="black" cx="869" cy="-516" rx="0.036" ry="0.036"/>
</g>
<!-- g&#45;&gt;inhibition_parameter2_intermediate_r -->
<g id="edge28" class="edge"><title>g&#45;&gt;inhibition_parameter2_intermediate_r</title>
<path fill="none" stroke="black" d="M806.403,-516C831.514,-516 865.78,-516 867.897,-516"/>
</g>
<!-- g&#45;&gt;ERtoMito_intermediate_m -->
<g id="edge75" class="edge"><title>g&#45;&gt;ERtoMito_intermediate_m</title>
<path fill="none" stroke="black" d="M794.45,-501.08C809.713,-485.365 832.813,-461.711 842,-453 852.496,-443.048 866.164,-431.541 867.831,-430.142"/>
</g>
<!-- mwaf195932_a72c_4552_8cf2_b349b15d39c4 -->
<g id="mwaf195932_a72c_4552_8cf2_b349b15d39c4" class="node"><title>mwaf195932_a72c_4552_8cf2_b349b15d39c4</title>
<path fill="none" stroke="black" d="M434,-128C434,-128 404,-128 404,-128 398,-128 392,-122 392,-116 392,-116 392,-104 392,-104 392,-98 398,-92 404,-92 404,-92 434,-92 434,-92 440,-92 446,-98 446,-104 446,-104 446,-116 446,-116 446,-122 440,-128 434,-128"/>
<text text-anchor="middle" x="419" y="-107.5" font-family="Times,serif" font-size="10.00">PMCA</text>
</g>
<!-- mw530793e3_76b2_4483_be11_e94364306712_intermediate_m -->
<g id="node39" class="node"><title>mw530793e3_76b2_4483_be11_e94364306712_intermediate_m</title>
<ellipse fill="black" stroke="black" cx="509" cy="-222" rx="0.036" ry="0.036"/>
</g>
<!-- mwaf195932_a72c_4552_8cf2_b349b15d39c4&#45;&gt;mw530793e3_76b2_4483_be11_e94364306712_intermediate_m -->
<g id="edge40" class="edge"><title>mwaf195932_a72c_4552_8cf2_b349b15d39c4&#45;&gt;mw530793e3_76b2_4483_be11_e94364306712_intermediate_m</title>
<path fill="none" stroke="black" d="M434.531,-128.495C459.135,-159.809 506.491,-220.079 507.965,-221.955"/>
</g>
<!-- mw700bd02b_9fc4_47e7_864a_967c03874dd6_intermediate_r -->
<g id="node45" class="node"><title>mw700bd02b_9fc4_47e7_864a_967c03874dd6_intermediate_r</title>
<ellipse fill="black" stroke="black" cx="509" cy="-110" rx="0.036" ry="0.036"/>
</g>
<!-- mwaf195932_a72c_4552_8cf2_b349b15d39c4&#45;&gt;mw700bd02b_9fc4_47e7_864a_967c03874dd6_intermediate_r -->
<g id="edge47" class="edge"><title>mwaf195932_a72c_4552_8cf2_b349b15d39c4&#45;&gt;mw700bd02b_9fc4_47e7_864a_967c03874dd6_intermediate_r</title>
<path fill="none" stroke="black" d="M446.403,-110C471.514,-110 505.78,-110 507.897,-110"/>
</g>
<!-- mw0ebc76ad_49d7_4845_8f88_04d443fbe7f3 -->
<g id="mw0ebc76ad_49d7_4845_8f88_04d443fbe7f3" class="node"><title>mw0ebc76ad_49d7_4845_8f88_04d443fbe7f3</title>
<path fill="none" stroke="black" d="M434,-36C434,-36 404,-36 404,-36 398,-36 392,-30 392,-24 392,-24 392,-12 392,-12 392,-6 398,-0 404,-0 404,-0 434,-0 434,-0 440,-0 446,-6 446,-12 446,-12 446,-24 446,-24 446,-30 440,-36 434,-36"/>
<text text-anchor="middle" x="419" y="-15.5" font-family="Times,serif" font-size="10.00">SERCA</text>
</g>
<!-- JPump_intermediate_m -->
<g id="node17" class="node"><title>JPump_intermediate_m</title>
<ellipse fill="black" stroke="black" cx="509" cy="-36" rx="0.036" ry="0.036"/>
</g>
<!-- mw0ebc76ad_49d7_4845_8f88_04d443fbe7f3&#45;&gt;JPump_intermediate_m -->
<g id="edge11" class="edge"><title>mw0ebc76ad_49d7_4845_8f88_04d443fbe7f3&#45;&gt;JPump_intermediate_m</title>
<path fill="none" stroke="black" d="M446.403,-23.4006C471.514,-28.5369 505.78,-35.5459 507.897,-35.9789"/>
</g>
<!-- mw89d547e1_8d48_4cd2_ba3d_e4390294089d_intermediate_r -->
<g id="node59" class="node"><title>mw89d547e1_8d48_4cd2_ba3d_e4390294089d_intermediate_r</title>
<ellipse fill="black" stroke="black" cx="509" cy="-18" rx="0.036" ry="0.036"/>
</g>
<!-- mw0ebc76ad_49d7_4845_8f88_04d443fbe7f3&#45;&gt;mw89d547e1_8d48_4cd2_ba3d_e4390294089d_intermediate_r -->
<g id="edge64" class="edge"><title>mw0ebc76ad_49d7_4845_8f88_04d443fbe7f3&#45;&gt;mw89d547e1_8d48_4cd2_ba3d_e4390294089d_intermediate_r</title>
<path fill="none" stroke="black" d="M446.403,-18C471.514,-18 505.78,-18 507.897,-18"/>
</g>
<!-- mw7cb2644a_384a_4bbb_93fd_fd686e01d7cb -->
<g id="mw7cb2644a_384a_4bbb_93fd_fd686e01d7cb" class="node"><title>mw7cb2644a_384a_4bbb_93fd_fd686e01d7cb</title>
<path fill="none" stroke="black" d="M614,-258C614,-258 584,-258 584,-258 578,-258 572,-252 572,-246 572,-246 572,-234 572,-234 572,-228 578,-222 584,-222 584,-222 614,-222 614,-222 620,-222 626,-228 626,-234 626,-234 626,-246 626,-246 626,-252 620,-258 614,-258"/>
<text text-anchor="middle" x="599" y="-237.5" font-family="Times,serif" font-size="10.00">STIM</text>
</g>
<!-- mwbdcd6a40_1ae7_4c86_a99f_1fba0b8beaf7_intermediate_m -->
<g id="node35" class="node"><title>mwbdcd6a40_1ae7_4c86_a99f_1fba0b8beaf7_intermediate_m</title>
<ellipse fill="black" stroke="black" cx="689" cy="-240" rx="0.036" ry="0.036"/>
</g>
<!-- mw7cb2644a_384a_4bbb_93fd_fd686e01d7cb&#45;&gt;mwbdcd6a40_1ae7_4c86_a99f_1fba0b8beaf7_intermediate_m -->
<g id="edge34" class="edge"><title>mw7cb2644a_384a_4bbb_93fd_fd686e01d7cb&#45;&gt;mwbdcd6a40_1ae7_4c86_a99f_1fba0b8beaf7_intermediate_m</title>
<path fill="none" stroke="black" d="M626.403,-240C651.514,-240 685.78,-240 687.897,-240"/>
</g>
<!-- mw1f122e51_99cb_4a32_a12e_4c2921920a17_intermediate_r -->
<g id="node56" class="node"><title>mw1f122e51_99cb_4a32_a12e_4c2921920a17_intermediate_r</title>
<ellipse fill="black" stroke="black" cx="689" cy="-222" rx="0.036" ry="0.036"/>
</g>
<!-- mw7cb2644a_384a_4bbb_93fd_fd686e01d7cb&#45;&gt;mw1f122e51_99cb_4a32_a12e_4c2921920a17_intermediate_r -->
<g id="edge61" class="edge"><title>mw7cb2644a_384a_4bbb_93fd_fd686e01d7cb&#45;&gt;mw1f122e51_99cb_4a32_a12e_4c2921920a17_intermediate_r</title>
<path fill="none" stroke="black" d="M626.403,-234.599C651.514,-229.463 685.78,-222.454 687.897,-222.021"/>
</g>
<!-- mwd6b792d8_c983_42c1_b3bc_2494d6a3363e -->
<g id="mwd6b792d8_c983_42c1_b3bc_2494d6a3363e [CHEBI:29108]" class="node"><title>mwd6b792d8_c983_42c1_b3bc_2494d6a3363e</title>
<ellipse fill="none" stroke="black" cx="27" cy="-272" rx="18" ry="18"/>
<text text-anchor="middle" x="27" y="-269.5" font-family="Times,serif" font-size="10.00">CaO</text>
</g>
<!-- mw013a7c64_a9ec_483c_b3b8_ed658337ee95 -->
<g id="mw013a7c64_a9ec_483c_b3b8_ed658337ee95 [CHEBI:29108]" class="node"><title>mw013a7c64_a9ec_483c_b3b8_ed658337ee95</title>
<ellipse fill="none" stroke="black" cx="950" cy="-419" rx="18" ry="18"/>
<text text-anchor="middle" x="950" y="-416.5" font-family="Times,serif" font-size="10.00">CaM</text>
</g>
<!-- mw1c50c3d1_dab9_423a_8373_6a4c75479b54_intermediate_r -->
<g id="node69" class="node"><title>mw1c50c3d1_dab9_423a_8373_6a4c75479b54_intermediate_r</title>
<ellipse fill="black" stroke="black" cx="1031" cy="-423" rx="0.036" ry="0.036"/>
</g>
<!-- mw013a7c64_a9ec_483c_b3b8_ed658337ee95&#45;&gt;mw1c50c3d1_dab9_423a_8373_6a4c75479b54_intermediate_r -->
<g id="edge79" class="edge"><title>mw013a7c64_a9ec_483c_b3b8_ed658337ee95&#45;&gt;mw1c50c3d1_dab9_423a_8373_6a4c75479b54_intermediate_r</title>
<path fill="none" stroke="black" d="M968.142,-419.868C990.65,-421.008 1027.6,-422.879 1029.89,-422.994"/>
</g>
<!-- CaS -->
<g id="CaS [CHEBI:29108]" class="node"><title>CaS</title>
<ellipse fill="none" stroke="black" cx="599" cy="-294" rx="18" ry="18"/>
<text text-anchor="middle" x="599" y="-291.5" font-family="Times,serif" font-size="10.00">CaS</text>
</g>
<!-- JChannel_intermediate_r -->
<g id="node19" class="node"><title>JChannel_intermediate_r</title>
<ellipse fill="black" stroke="black" cx="689" cy="-319" rx="0.036" ry="0.036"/>
</g>
<!-- CaS&#45;&gt;JChannel_intermediate_r -->
<g id="edge13" class="edge"><title>CaS&#45;&gt;JChannel_intermediate_r</title>
<path fill="none" stroke="black" d="M616.552,-298.702C641.247,-305.718 685.148,-318.19 687.867,-318.962"/>
</g>
<!-- CaS&#45;&gt;mwbdcd6a40_1ae7_4c86_a99f_1fba0b8beaf7_intermediate_m -->
<g id="edge35" class="edge"><title>CaS&#45;&gt;mwbdcd6a40_1ae7_4c86_a99f_1fba0b8beaf7_intermediate_m</title>
<path fill="none" stroke="black" d="M614.928,-284.84C639.25,-269.915 685.024,-241.826 687.862,-240.085"/>
</g>
<!-- mw06f8fde4_d97b_4d5f_b71e_d93aa53e9932_intermediate_m -->
<g id="node50" class="node"><title>mw06f8fde4_d97b_4d5f_b71e_d93aa53e9932_intermediate_m</title>
<ellipse fill="black" stroke="black" cx="689" cy="-69" rx="0.036" ry="0.036"/>
</g>
<!-- CaS&#45;&gt;mw06f8fde4_d97b_4d5f_b71e_d93aa53e9932_intermediate_m -->
<g id="edge53" class="edge"><title>CaS&#45;&gt;mw06f8fde4_d97b_4d5f_b71e_d93aa53e9932_intermediate_m</title>
<path fill="none" stroke="black" d="M613.58,-282.835C618.186,-278.37 622.936,-272.888 626,-267 664.47,-193.083 612.569,-150.084 662,-83 669.542,-72.7644 686.872,-69.2216 687.948,-69.0102"/>
</g>
<!-- CaS&#45;&gt;mw8021d532_dd9b_4e34_a865_c2bb1689b0b5_intermediate_m -->
<g id="edge58" class="edge"><title>CaS&#45;&gt;mw8021d532_dd9b_4e34_a865_c2bb1689b0b5_intermediate_m</title>
<path fill="none" stroke="black" d="M614.88,-302.538C627.344,-309.598 645.667,-319.765 662,-328 672.654,-333.372 686.183,-339.218 687.833,-339.928"/>
</g>
<!-- ERtoMito_intermediate_r -->
<g id="node65" class="node"><title>ERtoMito_intermediate_r</title>
<ellipse fill="black" stroke="black" cx="689" cy="-296" rx="0.036" ry="0.036"/>
</g>
<!-- CaS&#45;&gt;ERtoMito_intermediate_r -->
<g id="edge71" class="edge"><title>CaS&#45;&gt;ERtoMito_intermediate_r</title>
<path fill="none" stroke="black" d="M617.386,-294.395C642.23,-294.96 685.208,-295.937 687.87,-295.997"/>
</g>
<!-- kPLC -->
<g id="node10" class="node"><title>kPLC</title>
<polygon fill="none" stroke="black" points="606,-496 592,-496 592,-482 606,-482 606,-496"/>
</g>
<!-- kPLC_intermediate_p -->
<g id="node12" class="node"><title>kPLC_intermediate_p</title>
<ellipse fill="black" stroke="black" cx="689" cy="-481" rx="0.036" ry="0.036"/>
</g>
<!-- kPLC&#45;&gt;kPLC_intermediate_p -->
<g id="edge2" class="edge"><title>kPLC&#45;&gt;kPLC_intermediate_p</title>
<path fill="none" stroke="black" d="M606.049,-488.45C625.62,-486.671 686.071,-481.175 687.955,-481.004"/>
</g>
<!-- kPLC&#45;&gt;kPLC_intermediate_m -->
<g id="edge4" class="edge"><title>kPLC&#45;&gt;kPLC_intermediate_m</title>
<path fill="none" stroke="black" d="M606.049,-486.869C625.62,-479.975 686.071,-458.68 687.955,-458.016"/>
</g>
<!-- kPLC_empty -->
<g id="node11" class="node"><title>kPLC_empty</title>
<text text-anchor="middle" x="509" y="-496.5" font-family="Times,serif" font-size="15.00" fill="blue">Ø</text>
</g>
<!-- kPLC_empty&#45;&gt;kPLC -->
<g id="edge1" class="edge"><title>kPLC_empty&#45;&gt;kPLC</title>
<path fill="none" stroke="black" d="M536.403,-496.7C555.641,-494.295 580.253,-491.218 591.665,-489.792"/>
</g>
<!-- kPLC_intermediate_p&#45;&gt;IP3 -->
<g id="edge3" class="edge"><title>kPLC_intermediate_p&#45;&gt;IP3</title>
<path fill="none" stroke="black" d="M690.064,-480.986C691.738,-480.625 726.02,-473.223 751.275,-467.77"/>
<polygon fill="black" stroke="black" points="752.055,-471.182 761.091,-465.651 750.578,-464.34 752.055,-471.182"/>
</g>
<!-- JPump -->
<g id="node14" class="node"><title>JPump</title>
<polygon fill="none" stroke="black" points="426,-259 412,-259 412,-245 426,-245 426,-259"/>
</g>
<!-- JPump_intermediate_p -->
<g id="node16" class="node"><title>JPump_intermediate_p</title>
<ellipse fill="black" stroke="black" cx="509" cy="-258" rx="0.036" ry="0.036"/>
</g>
<!-- JPump&#45;&gt;JPump_intermediate_p -->
<g id="edge8" class="edge"><title>JPump&#45;&gt;JPump_intermediate_p</title>
<path fill="none" stroke="black" d="M426.049,-252.412C445.62,-253.747 506.071,-257.868 507.955,-257.997"/>
</g>
<!-- JPump&#45;&gt;JPump_intermediate_m -->
<g id="edge10" class="edge"><title>JPump&#45;&gt;JPump_intermediate_m</title>
<path fill="none" stroke="black" d="M422.928,-244.813C437.959,-207.92 505.832,-41.3215 507.949,-36.1243"/>
</g>
<!-- JPump_intermediate_r&#45;&gt;JPump -->
<g id="edge6" class="edge"><title>JPump_intermediate_r&#45;&gt;JPump</title>
<path fill="none" stroke="black" d="M330.064,-252C332.291,-252 392.244,-252 411.856,-252"/>
</g>
<!-- JPump_intermediate_p&#45;&gt;CaS -->
<g id="edge9" class="edge"><title>JPump_intermediate_p&#45;&gt;CaS</title>
<path fill="none" stroke="black" d="M510.064,-258.026C511.764,-258.722 547.085,-273.171 572.437,-283.543"/>
<polygon fill="black" stroke="black" points="571.324,-286.868 581.904,-287.415 573.974,-280.39 571.324,-286.868"/>
</g>
<!-- JChannel -->
<g id="node18" class="node"><title>JChannel</title>
<polygon fill="none" stroke="black" points="786,-388 772,-388 772,-374 786,-374 786,-388"/>
</g>
<!-- JChannel_intermediate_p -->
<g id="node20" class="node"><title>JChannel_intermediate_p</title>
<ellipse fill="black" stroke="black" cx="869" cy="-278" rx="0.036" ry="0.036"/>
</g>
<!-- JChannel&#45;&gt;JChannel_intermediate_p -->
<g id="edge14" class="edge"><title>JChannel&#45;&gt;JChannel_intermediate_p</title>
<path fill="none" stroke="black" d="M786.037,-378.168C791.626,-375.352 799.96,-370.646 806,-365 839.604,-333.591 866.286,-281.389 867.921,-278.158"/>
</g>
<!-- JChannel&#45;&gt;JChannel_intermediate_m -->
<g id="edge16" class="edge"><title>JChannel&#45;&gt;JChannel_intermediate_m</title>
<path fill="none" stroke="black" d="M783.041,-388.226C790.53,-405.174 811.498,-447.793 842,-471 851.428,-478.173 866.99,-479.895 867.953,-479.995"/>
</g>
<!-- JChannel_intermediate_r&#45;&gt;JChannel -->
<g id="edge12" class="edge"><title>JChannel_intermediate_r&#45;&gt;JChannel</title>
<path fill="none" stroke="black" d="M690.045,-319.014C690.961,-319.307 705.787,-324.093 716,-331 734.23,-343.329 734.537,-351.607 752,-365 758.393,-369.903 766.36,-374.624 771.779,-377.651"/>
</g>
<!-- JChannel_intermediate_p&#45;&gt;CaI -->
<g id="edge15" class="edge"><title>JChannel_intermediate_p&#45;&gt;CaI</title>
<path fill="none" stroke="black" d="M867.934,-277.939C865.172,-275.396 776.111,-194 690,-194 418,-194 418,-194 418,-194 362.034,-194 341.065,-202.923 302,-243 273.042,-272.708 259.405,-320.097 253.363,-350.102"/>
<polygon fill="black" stroke="black" points="249.853,-349.834 251.466,-360.305 256.735,-351.113 249.853,-349.834"/>
</g>
<!-- kPhosphatase -->
<g id="node22" class="node"><title>kPhosphatase</title>
<polygon fill="none" stroke="black" points="957,-469 943,-469 943,-455 957,-455 957,-469"/>
</g>
<!-- kPhosphatase_empty -->
<g id="node24" class="node"><title>kPhosphatase_empty</title>
<text text-anchor="middle" x="1031" y="-458.5" font-family="Times,serif" font-size="15.00" fill="blue">Ø</text>
</g>
<!-- kPhosphatase&#45;&gt;kPhosphatase_empty -->
<g id="edge21" class="edge"><title>kPhosphatase&#45;&gt;kPhosphatase_empty</title>
<path fill="none" stroke="black" d="M957.199,-462C965.219,-462 979.832,-462 993.873,-462"/>
<polygon fill="black" stroke="black" points="993.893,-465.5 1003.89,-462 993.893,-458.5 993.893,-465.5"/>
</g>
<!-- kPhosphatase_intermediate_r&#45;&gt;kPhosphatase -->
<g id="edge19" class="edge"><title>kPhosphatase_intermediate_r&#45;&gt;kPhosphatase</title>
<path fill="none" stroke="black" d="M870.057,-462C872.038,-462 924.876,-462 942.981,-462"/>
</g>
<!-- inhibition_parameter1 -->
<g id="node25" class="node"><title>inhibition_parameter1</title>
<polygon fill="none" stroke="black" points="606,-626 592,-626 592,-612 606,-612 606,-626"/>
</g>
<!-- inhibition_parameter1_intermediate_p -->
<g id="node27" class="node"><title>inhibition_parameter1_intermediate_p</title>
<ellipse fill="black" stroke="black" cx="689" cy="-611" rx="0.036" ry="0.036"/>
</g>
<!-- inhibition_parameter1&#45;&gt;inhibition_parameter1_intermediate_p -->
<g id="edge23" class="edge"><title>inhibition_parameter1&#45;&gt;inhibition_parameter1_intermediate_p</title>
<path fill="none" stroke="black" d="M606.049,-618.45C625.62,-616.671 686.071,-611.175 687.955,-611.004"/>
</g>
<!-- inhibition_parameter1&#45;&gt;inhibition_parameter1_intermediate_m -->
<g id="edge25" class="edge"><title>inhibition_parameter1&#45;&gt;inhibition_parameter1_intermediate_m</title>
<path fill="none" stroke="black" d="M606.049,-616.869C625.62,-609.975 686.071,-588.68 687.955,-588.016"/>
</g>
<!-- inhibition_parameter1_empty -->
<g id="node26" class="node"><title>inhibition_parameter1_empty</title>
<text text-anchor="middle" x="509" y="-626.5" font-family="Times,serif" font-size="15.00" fill="blue">Ø</text>
</g>
<!-- inhibition_parameter1_empty&#45;&gt;inhibition_parameter1 -->
<g id="edge22" class="edge"><title>inhibition_parameter1_empty&#45;&gt;inhibition_parameter1</title>
<path fill="none" stroke="black" d="M536.403,-626.7C555.641,-624.295 580.253,-621.218 591.665,-619.792"/>
</g>
<!-- inhibition_parameter1_intermediate_p&#45;&gt;g -->
<g id="edge24" class="edge"><title>inhibition_parameter1_intermediate_p&#45;&gt;g</title>
<path fill="none" stroke="black" d="M690.047,-610.985C691.012,-610.674 706.597,-605.558 716,-597 737.332,-577.585 733.924,-565.478 752,-543 753.254,-541.441 754.582,-539.866 755.948,-538.303"/>
<polygon fill="black" stroke="black" points="758.743,-540.434 762.928,-530.701 753.587,-535.699 758.743,-540.434"/>
</g>
<!-- inhibition_parameter2 -->
<g id="node29" class="node"><title>inhibition_parameter2</title>
<polygon fill="none" stroke="black" points="957,-523 943,-523 943,-509 957,-509 957,-523"/>
</g>
<!-- inhibition_parameter2_empty -->
<g id="node31" class="node"><title>inhibition_parameter2_empty</title>
<text text-anchor="middle" x="1031" y="-512.5" font-family="Times,serif" font-size="15.00" fill="blue">Ø</text>
</g>
<!-- inhibition_parameter2&#45;&gt;inhibition_parameter2_empty -->
<g id="edge29" class="edge"><title>inhibition_parameter2&#45;&gt;inhibition_parameter2_empty</title>
<path fill="none" stroke="black" d="M957.199,-516C965.219,-516 979.832,-516 993.873,-516"/>
<polygon fill="black" stroke="black" points="993.893,-519.5 1003.89,-516 993.893,-512.5 993.893,-519.5"/>
</g>
<!-- inhibition_parameter2_intermediate_r&#45;&gt;inhibition_parameter2 -->
<g id="edge27" class="edge"><title>inhibition_parameter2_intermediate_r&#45;&gt;inhibition_parameter2</title>
<path fill="none" stroke="black" d="M870.057,-516C872.038,-516 924.876,-516 942.981,-516"/>
</g>
<!-- mwbdcd6a40_1ae7_4c86_a99f_1fba0b8beaf7 -->
<g id="node32" class="node"><title>mwbdcd6a40_1ae7_4c86_a99f_1fba0b8beaf7</title>
<polygon fill="none" stroke="black" points="104,-225 90,-225 90,-211 104,-211 104,-225"/>
</g>
<!-- mwbdcd6a40_1ae7_4c86_a99f_1fba0b8beaf7_intermediate_p -->
<g id="node34" class="node"><title>mwbdcd6a40_1ae7_4c86_a99f_1fba0b8beaf7_intermediate_p</title>
<ellipse fill="black" stroke="black" cx="167" cy="-281" rx="0.036" ry="0.036"/>
</g>
<!-- mwbdcd6a40_1ae7_4c86_a99f_1fba0b8beaf7&#45;&gt;mwbdcd6a40_1ae7_4c86_a99f_1fba0b8beaf7_intermediate_p -->
<g id="edge31" class="edge"><title>mwbdcd6a40_1ae7_4c86_a99f_1fba0b8beaf7&#45;&gt;mwbdcd6a40_1ae7_4c86_a99f_1fba0b8beaf7_intermediate_p</title>
<path fill="none" stroke="black" d="M104.275,-223.814C120.583,-238.923 163.222,-278.426 165.871,-280.88"/>
</g>
<!-- mwbdcd6a40_1ae7_4c86_a99f_1fba0b8beaf7&#45;&gt;mwbdcd6a40_1ae7_4c86_a99f_1fba0b8beaf7_intermediate_m -->
<g id="edge33" class="edge"><title>mwbdcd6a40_1ae7_4c86_a99f_1fba0b8beaf7&#45;&gt;mwbdcd6a40_1ae7_4c86_a99f_1fba0b8beaf7_intermediate_m</title>
<path fill="none" stroke="black" d="M104.148,-213.34C123.803,-198.921 187.321,-156 247,-156 247,-156 247,-156 510,-156 567.443,-156 574.532,-187.488 626,-213 642.028,-220.945 645.513,-224.059 662,-231 672.566,-235.448 686.172,-239.466 687.832,-239.951"/>
</g>
<!-- mwbdcd6a40_1ae7_4c86_a99f_1fba0b8beaf7_empty -->
<g id="node33" class="node"><title>mwbdcd6a40_1ae7_4c86_a99f_1fba0b8beaf7_empty</title>
<text text-anchor="middle" x="27" y="-214.5" font-family="Times,serif" font-size="15.00" fill="blue">Ø</text>
</g>
<!-- mwbdcd6a40_1ae7_4c86_a99f_1fba0b8beaf7_empty&#45;&gt;mwbdcd6a40_1ae7_4c86_a99f_1fba0b8beaf7 -->
<g id="edge30" class="edge"><title>mwbdcd6a40_1ae7_4c86_a99f_1fba0b8beaf7_empty&#45;&gt;mwbdcd6a40_1ae7_4c86_a99f_1fba0b8beaf7</title>
<path fill="none" stroke="black" d="M54.0961,-218C67.13,-218 81.8045,-218 89.8681,-218"/>
</g>
<!-- mwbdcd6a40_1ae7_4c86_a99f_1fba0b8beaf7_intermediate_p&#45;&gt;CaI -->
<g id="edge32" class="edge"><title>mwbdcd6a40_1ae7_4c86_a99f_1fba0b8beaf7_intermediate_p&#45;&gt;CaI</title>
<path fill="none" stroke="black" d="M168.057,-281.07C169.709,-283.098 206.698,-328.516 229.451,-356.452"/>
<polygon fill="black" stroke="black" points="226.971,-358.95 236,-364.493 232.399,-354.529 226.971,-358.95"/>
</g>
<!-- mw530793e3_76b2_4483_be11_e94364306712 -->
<g id="node36" class="node"><title>mw530793e3_76b2_4483_be11_e94364306712</title>
<polygon fill="none" stroke="black" points="426,-339 412,-339 412,-325 426,-325 426,-339"/>
</g>
<!-- mw530793e3_76b2_4483_be11_e94364306712_empty -->
<g id="node38" class="node"><title>mw530793e3_76b2_4483_be11_e94364306712_empty</title>
<text text-anchor="middle" x="509" y="-328.5" font-family="Times,serif" font-size="15.00" fill="blue">Ø</text>
</g>
<!-- mw530793e3_76b2_4483_be11_e94364306712&#45;&gt;mw530793e3_76b2_4483_be11_e94364306712_empty -->
<g id="edge38" class="edge"><title>mw530793e3_76b2_4483_be11_e94364306712&#45;&gt;mw530793e3_76b2_4483_be11_e94364306712_empty</title>
<path fill="none" stroke="black" d="M426.049,-332C435.439,-332 454.239,-332 471.466,-332"/>
<polygon fill="black" stroke="black" points="471.891,-335.5 481.891,-332 471.891,-328.5 471.891,-335.5"/>
</g>
<!-- mw530793e3_76b2_4483_be11_e94364306712&#45;&gt;mw530793e3_76b2_4483_be11_e94364306712_intermediate_m -->
<g id="edge39" class="edge"><title>mw530793e3_76b2_4483_be11_e94364306712&#45;&gt;mw530793e3_76b2_4483_be11_e94364306712_intermediate_m</title>
<path fill="none" stroke="black" d="M426.057,-325.928C431.66,-320.112 440.003,-310.924 446,-302 465.733,-272.634 455.34,-254.26 482,-231 490.926,-223.212 506.958,-222.067 507.952,-222.003"/>
</g>
<!-- mw530793e3_76b2_4483_be11_e94364306712_intermediate_r&#45;&gt;mw530793e3_76b2_4483_be11_e94364306712 -->
<g id="edge36" class="edge"><title>mw530793e3_76b2_4483_be11_e94364306712_intermediate_r&#45;&gt;mw530793e3_76b2_4483_be11_e94364306712</title>
<path fill="none" stroke="black" d="M330.064,-340.993C332.291,-340.766 392.244,-334.634 411.856,-332.628"/>
</g>
<!-- mw5658298a_d96a_4b97_9a4f_6f06dad35824 -->
<g id="node40" class="node"><title>mw5658298a_d96a_4b97_9a4f_6f06dad35824</title>
<polygon fill="none" stroke="black" points="255,-117 241,-117 241,-103 255,-103 255,-117"/>
</g>
<!-- mw5658298a_d96a_4b97_9a4f_6f06dad35824_intermediate_p -->
<g id="node42" class="node"><title>mw5658298a_d96a_4b97_9a4f_6f06dad35824_intermediate_p</title>
<ellipse fill="black" stroke="black" cx="329" cy="-110" rx="0.036" ry="0.036"/>
</g>
<!-- mw5658298a_d96a_4b97_9a4f_6f06dad35824&#45;&gt;mw5658298a_d96a_4b97_9a4f_6f06dad35824_intermediate_p -->
<g id="edge42" class="edge"><title>mw5658298a_d96a_4b97_9a4f_6f06dad35824&#45;&gt;mw5658298a_d96a_4b97_9a4f_6f06dad35824_intermediate_p</title>
<path fill="none" stroke="black" d="M255.199,-110C273.241,-110 324.649,-110 327.844,-110"/>
</g>
<!-- mw5658298a_d96a_4b97_9a4f_6f06dad35824&#45;&gt;mw5658298a_d96a_4b97_9a4f_6f06dad35824_intermediate_m -->
<g id="edge44" class="edge"><title>mw5658298a_d96a_4b97_9a4f_6f06dad35824&#45;&gt;mw5658298a_d96a_4b97_9a4f_6f06dad35824_intermediate_m</title>
<path fill="none" stroke="black" d="M255.199,-111.412C273.241,-115.523 324.649,-127.236 327.844,-127.964"/>
</g>
<!-- mw5658298a_d96a_4b97_9a4f_6f06dad35824_empty -->
<g id="node41" class="node"><title>mw5658298a_d96a_4b97_9a4f_6f06dad35824_empty</title>
<text text-anchor="middle" x="167" y="-106.5" font-family="Times,serif" font-size="15.00" fill="blue">Ø</text>
</g>
<!-- mw5658298a_d96a_4b97_9a4f_6f06dad35824_empty&#45;&gt;mw5658298a_d96a_4b97_9a4f_6f06dad35824 -->
<g id="edge41" class="edge"><title>mw5658298a_d96a_4b97_9a4f_6f06dad35824_empty&#45;&gt;mw5658298a_d96a_4b97_9a4f_6f06dad35824</title>
<path fill="none" stroke="black" d="M194.306,-110C210.824,-110 230.819,-110 240.76,-110"/>
</g>
<!-- mw5658298a_d96a_4b97_9a4f_6f06dad35824_intermediate_p&#45;&gt;mwaf195932_a72c_4552_8cf2_b349b15d39c4 -->
<g id="edge43" class="edge"><title>mw5658298a_d96a_4b97_9a4f_6f06dad35824_intermediate_p&#45;&gt;mwaf195932_a72c_4552_8cf2_b349b15d39c4</title>
<path fill="none" stroke="black" d="M330.064,-110C331.533,-110 358.103,-110 381.654,-110"/>
<polygon fill="black" stroke="black" points="381.821,-113.5 391.82,-110 381.82,-106.5 381.821,-113.5"/>
</g>
<!-- mw700bd02b_9fc4_47e7_864a_967c03874dd6 -->
<g id="node44" class="node"><title>mw700bd02b_9fc4_47e7_864a_967c03874dd6</title>
<polygon fill="none" stroke="black" points="606,-117 592,-117 592,-103 606,-103 606,-117"/>
</g>
<!-- mw700bd02b_9fc4_47e7_864a_967c03874dd6_empty -->
<g id="node46" class="node"><title>mw700bd02b_9fc4_47e7_864a_967c03874dd6_empty</title>
<text text-anchor="middle" x="689" y="-106.5" font-family="Times,serif" font-size="15.00" fill="blue">Ø</text>
</g>
<!-- mw700bd02b_9fc4_47e7_864a_967c03874dd6&#45;&gt;mw700bd02b_9fc4_47e7_864a_967c03874dd6_empty -->
<g id="edge48" class="edge"><title>mw700bd02b_9fc4_47e7_864a_967c03874dd6&#45;&gt;mw700bd02b_9fc4_47e7_864a_967c03874dd6_empty</title>
<path fill="none" stroke="black" d="M606.049,-110C615.439,-110 634.239,-110 651.466,-110"/>
<polygon fill="black" stroke="black" points="651.891,-113.5 661.891,-110 651.891,-106.5 651.891,-113.5"/>
</g>
<!-- mw700bd02b_9fc4_47e7_864a_967c03874dd6_intermediate_r&#45;&gt;mw700bd02b_9fc4_47e7_864a_967c03874dd6 -->
<g id="edge46" class="edge"><title>mw700bd02b_9fc4_47e7_864a_967c03874dd6_intermediate_r&#45;&gt;mw700bd02b_9fc4_47e7_864a_967c03874dd6</title>
<path fill="none" stroke="black" d="M510.064,-110C512.291,-110 572.244,-110 591.856,-110"/>
</g>
<!-- mw06f8fde4_d97b_4d5f_b71e_d93aa53e9932 -->
<g id="node47" class="node"><title>mw06f8fde4_d97b_4d5f_b71e_d93aa53e9932</title>
<polygon fill="none" stroke="black" points="255,-44 241,-44 241,-30 255,-30 255,-44"/>
</g>
<!-- mw06f8fde4_d97b_4d5f_b71e_d93aa53e9932_intermediate_p -->
<g id="node49" class="node"><title>mw06f8fde4_d97b_4d5f_b71e_d93aa53e9932_intermediate_p</title>
<ellipse fill="black" stroke="black" cx="329" cy="-27" rx="0.036" ry="0.036"/>
</g>
<!-- mw06f8fde4_d97b_4d5f_b71e_d93aa53e9932&#45;&gt;mw06f8fde4_d97b_4d5f_b71e_d93aa53e9932_intermediate_p -->
<g id="edge50" class="edge"><title>mw06f8fde4_d97b_4d5f_b71e_d93aa53e9932&#45;&gt;mw06f8fde4_d97b_4d5f_b71e_d93aa53e9932_intermediate_p</title>
<path fill="none" stroke="black" d="M255.199,-36.2153C273.241,-33.9316 324.649,-27.4242 327.844,-27.0197"/>
</g>
<!-- mw06f8fde4_d97b_4d5f_b71e_d93aa53e9932&#45;&gt;mw06f8fde4_d97b_4d5f_b71e_d93aa53e9932_intermediate_m -->
<g id="edge52" class="edge"><title>mw06f8fde4_d97b_4d5f_b71e_d93aa53e9932&#45;&gt;mw06f8fde4_d97b_4d5f_b71e_d93aa53e9932_intermediate_m</title>
<path fill="none" stroke="black" d="M255.083,-38.689C276.925,-44.5999 353.524,-64 418,-64 418,-64 418,-64 510,-64 587.906,-64 684.916,-68.845 687.928,-68.9964"/>
</g>
<!-- mw06f8fde4_d97b_4d5f_b71e_d93aa53e9932_empty -->
<g id="node48" class="node"><title>mw06f8fde4_d97b_4d5f_b71e_d93aa53e9932_empty</title>
<text text-anchor="middle" x="167" y="-33.5" font-family="Times,serif" font-size="15.00" fill="blue">Ø</text>
</g>
<!-- mw06f8fde4_d97b_4d5f_b71e_d93aa53e9932_empty&#45;&gt;mw06f8fde4_d97b_4d5f_b71e_d93aa53e9932 -->
<g id="edge49" class="edge"><title>mw06f8fde4_d97b_4d5f_b71e_d93aa53e9932_empty&#45;&gt;mw06f8fde4_d97b_4d5f_b71e_d93aa53e9932</title>
<path fill="none" stroke="black" d="M194.306,-37C210.824,-37 230.819,-37 240.76,-37"/>
</g>
<!-- mw06f8fde4_d97b_4d5f_b71e_d93aa53e9932_intermediate_p&#45;&gt;mw0ebc76ad_49d7_4845_8f88_04d443fbe7f3 -->
<g id="edge51" class="edge"><title>mw06f8fde4_d97b_4d5f_b71e_d93aa53e9932_intermediate_p&#45;&gt;mw0ebc76ad_49d7_4845_8f88_04d443fbe7f3</title>
<path fill="none" stroke="black" d="M330.064,-26.9935C331.533,-26.8432 358.103,-24.1258 381.654,-21.7172"/>
<polygon fill="black" stroke="black" points="382.229,-25.1768 391.82,-20.6775 381.516,-18.2131 382.229,-25.1768"/>
</g>
<!-- mw8021d532_dd9b_4e34_a865_c2bb1689b0b5 -->
<g id="node51" class="node"><title>mw8021d532_dd9b_4e34_a865_c2bb1689b0b5</title>
<polygon fill="none" stroke="black" points="426,-293 412,-293 412,-279 426,-279 426,-293"/>
</g>
<!-- mw8021d532_dd9b_4e34_a865_c2bb1689b0b5_intermediate_p -->
<g id="node53" class="node"><title>mw8021d532_dd9b_4e34_a865_c2bb1689b0b5_intermediate_p</title>
<ellipse fill="black" stroke="black" cx="509" cy="-240" rx="0.036" ry="0.036"/>
</g>
<!-- mw8021d532_dd9b_4e34_a865_c2bb1689b0b5&#45;&gt;mw8021d532_dd9b_4e34_a865_c2bb1689b0b5_intermediate_p -->
<g id="edge55" class="edge"><title>mw8021d532_dd9b_4e34_a865_c2bb1689b0b5&#45;&gt;mw8021d532_dd9b_4e34_a865_c2bb1689b0b5_intermediate_p</title>
<path fill="none" stroke="black" d="M426.277,-281.66C437.213,-274.237 460.635,-258.945 482,-249 492.393,-244.162 506.151,-240.485 507.83,-240.044"/>
</g>
<!-- mw8021d532_dd9b_4e34_a865_c2bb1689b0b5&#45;&gt;mw8021d532_dd9b_4e34_a865_c2bb1689b0b5_intermediate_m -->
<g id="edge57" class="edge"><title>mw8021d532_dd9b_4e34_a865_c2bb1689b0b5&#45;&gt;mw8021d532_dd9b_4e34_a865_c2bb1689b0b5_intermediate_m</title>
<path fill="none" stroke="black" d="M426.416,-286.472C444.17,-287.901 495.329,-292.85 536,-305 552.777,-310.012 555.223,-315.988 572,-321 621.275,-335.72 685.943,-339.871 687.952,-339.997"/>
</g>
<!-- mw8021d532_dd9b_4e34_a865_c2bb1689b0b5_empty -->
<g id="node52" class="node"><title>mw8021d532_dd9b_4e34_a865_c2bb1689b0b5_empty</title>
<text text-anchor="middle" x="329" y="-284.5" font-family="Times,serif" font-size="15.00" fill="blue">Ø</text>
</g>
<!-- mw8021d532_dd9b_4e34_a865_c2bb1689b0b5_empty&#45;&gt;mw8021d532_dd9b_4e34_a865_c2bb1689b0b5 -->
<g id="edge54" class="edge"><title>mw8021d532_dd9b_4e34_a865_c2bb1689b0b5_empty&#45;&gt;mw8021d532_dd9b_4e34_a865_c2bb1689b0b5</title>
<path fill="none" stroke="black" d="M356.403,-287.4C375.641,-286.963 400.253,-286.403 411.665,-286.144"/>
</g>
<!-- mw8021d532_dd9b_4e34_a865_c2bb1689b0b5_intermediate_p&#45;&gt;mw7cb2644a_384a_4bbb_93fd_fd686e01d7cb -->
<g id="edge56" class="edge"><title>mw8021d532_dd9b_4e34_a865_c2bb1689b0b5_intermediate_p&#45;&gt;mw7cb2644a_384a_4bbb_93fd_fd686e01d7cb</title>
<path fill="none" stroke="black" d="M510.064,-240C511.533,-240 538.103,-240 561.654,-240"/>
<polygon fill="black" stroke="black" points="561.821,-243.5 571.82,-240 561.82,-236.5 561.821,-243.5"/>
</g>
<!-- mw1f122e51_99cb_4a32_a12e_4c2921920a17 -->
<g id="node55" class="node"><title>mw1f122e51_99cb_4a32_a12e_4c2921920a17</title>
<polygon fill="none" stroke="black" points="786,-166 772,-166 772,-152 786,-152 786,-166"/>
</g>
<!-- mw1f122e51_99cb_4a32_a12e_4c2921920a17_empty -->
<g id="node57" class="node"><title>mw1f122e51_99cb_4a32_a12e_4c2921920a17_empty</title>
<text text-anchor="middle" x="869" y="-155.5" font-family="Times,serif" font-size="15.00" fill="blue">Ø</text>
</g>
<!-- mw1f122e51_99cb_4a32_a12e_4c2921920a17&#45;&gt;mw1f122e51_99cb_4a32_a12e_4c2921920a17_empty -->
<g id="edge62" class="edge"><title>mw1f122e51_99cb_4a32_a12e_4c2921920a17&#45;&gt;mw1f122e51_99cb_4a32_a12e_4c2921920a17_empty</title>
<path fill="none" stroke="black" d="M786.049,-159C795.439,-159 814.239,-159 831.466,-159"/>
<polygon fill="black" stroke="black" points="831.891,-162.5 841.891,-159 831.891,-155.5 831.891,-162.5"/>
</g>
<!-- mw1f122e51_99cb_4a32_a12e_4c2921920a17_intermediate_r&#45;&gt;mw1f122e51_99cb_4a32_a12e_4c2921920a17 -->
<g id="edge60" class="edge"><title>mw1f122e51_99cb_4a32_a12e_4c2921920a17_intermediate_r&#45;&gt;mw1f122e51_99cb_4a32_a12e_4c2921920a17</title>
<path fill="none" stroke="black" d="M690.064,-221.954C692.291,-220.36 752.244,-177.439 771.856,-163.399"/>
</g>
<!-- mw89d547e1_8d48_4cd2_ba3d_e4390294089d -->
<g id="node58" class="node"><title>mw89d547e1_8d48_4cd2_ba3d_e4390294089d</title>
<polygon fill="none" stroke="black" points="606,-25 592,-25 592,-11 606,-11 606,-25"/>
</g>
<!-- mw89d547e1_8d48_4cd2_ba3d_e4390294089d_empty -->
<g id="node60" class="node"><title>mw89d547e1_8d48_4cd2_ba3d_e4390294089d_empty</title>
<text text-anchor="middle" x="689" y="-14.5" font-family="Times,serif" font-size="15.00" fill="blue">Ø</text>
</g>
<!-- mw89d547e1_8d48_4cd2_ba3d_e4390294089d&#45;&gt;mw89d547e1_8d48_4cd2_ba3d_e4390294089d_empty -->
<g id="edge65" class="edge"><title>mw89d547e1_8d48_4cd2_ba3d_e4390294089d&#45;&gt;mw89d547e1_8d48_4cd2_ba3d_e4390294089d_empty</title>
<path fill="none" stroke="black" d="M606.049,-18C615.439,-18 634.239,-18 651.466,-18"/>
<polygon fill="black" stroke="black" points="651.891,-21.5001 661.891,-18 651.891,-14.5001 651.891,-21.5001"/>
</g>
<!-- mw89d547e1_8d48_4cd2_ba3d_e4390294089d_intermediate_r&#45;&gt;mw89d547e1_8d48_4cd2_ba3d_e4390294089d -->
<g id="edge63" class="edge"><title>mw89d547e1_8d48_4cd2_ba3d_e4390294089d_intermediate_r&#45;&gt;mw89d547e1_8d48_4cd2_ba3d_e4390294089d</title>
<path fill="none" stroke="black" d="M510.064,-18C512.291,-18 572.244,-18 591.856,-18"/>
</g>
<!-- mwa61047ec_49c1_47b2_b78e_4d84a33d432a -->
<g id="node61" class="node"><title>mwa61047ec_49c1_47b2_b78e_4d84a33d432a</title>
<polygon fill="none" stroke="black" points="426,-537 412,-537 412,-523 426,-523 426,-537"/>
</g>
<!-- mwa61047ec_49c1_47b2_b78e_4d84a33d432a_intermediate_p -->
<g id="node63" class="node"><title>mwa61047ec_49c1_47b2_b78e_4d84a33d432a_intermediate_p</title>
<ellipse fill="black" stroke="black" cx="779" cy="-552" rx="0.036" ry="0.036"/>
</g>
<!-- mwa61047ec_49c1_47b2_b78e_4d84a33d432a&#45;&gt;mwa61047ec_49c1_47b2_b78e_4d84a33d432a_intermediate_p -->
<g id="edge68" class="edge"><title>mwa61047ec_49c1_47b2_b78e_4d84a33d432a&#45;&gt;mwa61047ec_49c1_47b2_b78e_4d84a33d432a_intermediate_p</title>
<path fill="none" stroke="black" d="M426.214,-530.382C473.381,-533.28 773.262,-551.709 777.945,-551.997"/>
</g>
<!-- mwa61047ec_49c1_47b2_b78e_4d84a33d432a_intermediate_r&#45;&gt;mwa61047ec_49c1_47b2_b78e_4d84a33d432a -->
<g id="edge66" class="edge"><title>mwa61047ec_49c1_47b2_b78e_4d84a33d432a_intermediate_r&#45;&gt;mwa61047ec_49c1_47b2_b78e_4d84a33d432a</title>
<path fill="none" stroke="black" d="M330.064,-498.023C332.291,-498.833 392.244,-520.634 411.856,-527.766"/>
</g>
<!-- mwa61047ec_49c1_47b2_b78e_4d84a33d432a_intermediate_p&#45;&gt;mw013a7c64_a9ec_483c_b3b8_ed658337ee95 -->
<g id="edge69" class="edge"><title>mwa61047ec_49c1_47b2_b78e_4d84a33d432a_intermediate_p&#45;&gt;mw013a7c64_a9ec_483c_b3b8_ed658337ee95</title>
<path fill="none" stroke="black" d="M780.055,-552.005C782.337,-552.194 855.679,-558.005 896,-525 925.858,-500.56 913.679,-479.958 932,-446 932.621,-444.848 933.273,-443.679 933.944,-442.506"/>
<polygon fill="black" stroke="black" points="937.121,-444.013 939.282,-433.641 931.125,-440.402 937.121,-444.013"/>
</g>
<!-- ERtoMito -->
<g id="node64" class="node"><title>ERtoMito</title>
<polygon fill="none" stroke="black" points="786,-356 772,-356 772,-342 786,-342 786,-356"/>
</g>
<!-- ERtoMito_intermediate_p -->
<g id="node66" class="node"><title>ERtoMito_intermediate_p</title>
<ellipse fill="black" stroke="black" cx="869" cy="-388" rx="0.036" ry="0.036"/>
</g>
<!-- ERtoMito&#45;&gt;ERtoMito_intermediate_p -->
<g id="edge72" class="edge"><title>ERtoMito&#45;&gt;ERtoMito_intermediate_p</title>
<path fill="none" stroke="black" d="M786.049,-351.681C805.62,-360.354 866.071,-387.145 867.955,-387.98"/>
</g>
<!-- ERtoMito&#45;&gt;ERtoMito_intermediate_m -->
<g id="edge74" class="edge"><title>ERtoMito&#45;&gt;ERtoMito_intermediate_m</title>
<path fill="none" stroke="black" d="M786.286,-352.267C791.746,-355.242 799.737,-359.932 806,-365 836.065,-389.329 866.065,-427.522 867.91,-429.885"/>
</g>
<!-- ERtoMito_intermediate_r&#45;&gt;ERtoMito -->
<g id="edge70" class="edge"><title>ERtoMito_intermediate_r&#45;&gt;ERtoMito</title>
<path fill="none" stroke="black" d="M690.167,-296.085C691.82,-296.921 705.37,-303.804 716,-310 736.874,-322.167 760.915,-337.756 771.924,-344.986"/>
</g>
<!-- ERtoMito_intermediate_p&#45;&gt;mw013a7c64_a9ec_483c_b3b8_ed658337ee95 -->
<g id="edge73" class="edge"><title>ERtoMito_intermediate_p&#45;&gt;mw013a7c64_a9ec_483c_b3b8_ed658337ee95</title>
<path fill="none" stroke="black" d="M870.057,-388.022C871.531,-388.601 901.134,-400.217 923.658,-409.056"/>
<polygon fill="black" stroke="black" points="922.491,-412.358 933.079,-412.752 925.048,-405.841 922.491,-412.358"/>
</g>
<!-- mw1c50c3d1_dab9_423a_8373_6a4c75479b54 -->
<g id="node68" class="node"><title>mw1c50c3d1_dab9_423a_8373_6a4c75479b54</title>
<polygon fill="none" stroke="black" points="1108,-539 1094,-539 1094,-525 1108,-525 1108,-539"/>
</g>
<!-- mw1c50c3d1_dab9_423a_8373_6a4c75479b54_intermediate_p -->
<g id="node70" class="node"><title>mw1c50c3d1_dab9_423a_8373_6a4c75479b54_intermediate_p</title>
<ellipse fill="black" stroke="black" cx="1144" cy="-604" rx="0.036" ry="0.036"/>
</g>
<!-- mw1c50c3d1_dab9_423a_8373_6a4c75479b54&#45;&gt;mw1c50c3d1_dab9_423a_8373_6a4c75479b54_intermediate_p -->
<g id="edge80" class="edge"><title>mw1c50c3d1_dab9_423a_8373_6a4c75479b54&#45;&gt;mw1c50c3d1_dab9_423a_8373_6a4c75479b54_intermediate_p</title>
<path fill="none" stroke="black" d="M1106.08,-539.167C1116.13,-556.809 1141.36,-601.114 1142.92,-603.866"/>
</g>
<!-- mw1c50c3d1_dab9_423a_8373_6a4c75479b54_intermediate_r&#45;&gt;mw1c50c3d1_dab9_423a_8373_6a4c75479b54 -->
<g id="edge78" class="edge"><title>mw1c50c3d1_dab9_423a_8373_6a4c75479b54_intermediate_r&#45;&gt;mw1c50c3d1_dab9_423a_8373_6a4c75479b54</title>
<path fill="none" stroke="black" d="M1032.05,-423.009C1033.06,-423.187 1049.39,-426.179 1058,-435 1084.15,-461.784 1095.3,-507.477 1098.74,-524.935"/>
</g>
<!-- mw1c50c3d1_dab9_423a_8373_6a4c75479b54_intermediate_p&#45;&gt;CaI -->
<g id="edge81" class="edge"><title>mw1c50c3d1_dab9_423a_8373_6a4c75479b54_intermediate_p&#45;&gt;CaI</title>
<path fill="none" stroke="black" d="M1142.96,-604.052C1141.37,-606.232 1089.88,-676 1032,-676 418,-676 418,-676 418,-676 294.702,-676 260.272,-480.586 251.635,-406.245"/>
<polygon fill="black" stroke="black" points="255.102,-405.755 250.54,-396.193 248.143,-406.513 255.102,-405.755"/>
</g>
</g>
</svg>
