<?xml version="1.0" encoding="UTF-8" standalone="no"?>
<!DOCTYPE svg PUBLIC "-//W3C//DTD SVG 1.1//EN"
 "http://www.w3.org/Graphics/SVG/1.1/DTD/svg11.dtd">
<!-- Generated by graphviz version 2.24.0 (20090616.2323)
 -->
<!-- Title: G Pages: 1 -->
<svg width="740pt" height="353pt"
 viewBox="0.00 0.00 740.00 353.00" xmlns="http://www.w3.org/2000/svg" xmlns:xlink="http://www.w3.org/1999/xlink">
<g id="graph1" class="graph" transform="scale(1 1) rotate(0) translate(4 349)">
<title>G</title>
<polygon fill="white" stroke="white" points="-4,5 -4,-349 737,-349 737,5 -4,5"/>
<!-- A -->
<g id="node1" class="node"><title>A</title>
<ellipse fill="none" stroke="black" cx="347" cy="-221" rx="27" ry="18"/>
<text text-anchor="middle" x="347" y="-218.5" font-family="Times Roman,serif" font-size="10.00">A</text>
</g>
<!-- r3_intermediate_m -->
<g id="node37" class="node"><title>r3_intermediate_m</title>
<ellipse fill="black" stroke="black" cx="411" cy="-275" rx="0.036" ry="0.036"/>
</g>
<!-- A&#45;&gt;r3_intermediate_m -->
<g id="edge38" class="edge"><title>A&#45;&gt;r3_intermediate_m</title>
<path fill="none" stroke="black" d="M363.815,-235.188C382.185,-250.687 409.245,-273.519 410.918,-274.931"/>
</g>
<!-- r4_intermediate_m -->
<g id="node46" class="node"><title>r4_intermediate_m</title>
<ellipse fill="black" stroke="black" cx="411" cy="-257" rx="0.036" ry="0.036"/>
</g>
<!-- A&#45;&gt;r4_intermediate_m -->
<g id="edge48" class="edge"><title>A&#45;&gt;r4_intermediate_m</title>
<path fill="none" stroke="black" d="M367.956,-232.788C386.038,-242.959 409.482,-256.146 410.929,-256.96"/>
</g>
<!-- r5_intermediate_m -->
<g id="node56" class="node"><title>r5_intermediate_m</title>
<ellipse fill="black" stroke="black" cx="411" cy="-139" rx="0.036" ry="0.036"/>
</g>
<!-- A&#45;&gt;r5_intermediate_m -->
<g id="edge60" class="edge"><title>A&#45;&gt;r5_intermediate_m</title>
<path fill="none" stroke="black" d="M359.644,-204.799C377.713,-181.649 408.97,-141.601 410.906,-139.121"/>
</g>
<!-- r6_intermediate_r -->
<g id="node60" class="node"><title>r6_intermediate_r</title>
<ellipse fill="black" stroke="black" cx="411" cy="-221" rx="0.036" ry="0.036"/>
</g>
<!-- A&#45;&gt;r6_intermediate_r -->
<g id="edge64" class="edge"><title>A&#45;&gt;r6_intermediate_r</title>
<path fill="none" stroke="black" d="M374.142,-221C391.04,-221 409.788,-221 410.944,-221"/>
</g>
<!-- r10_intermediate_r -->
<g id="node84" class="node"><title>r10_intermediate_r</title>
<ellipse fill="black" stroke="black" cx="411" cy="-203" rx="0.036" ry="0.036"/>
</g>
<!-- A&#45;&gt;r10_intermediate_r -->
<g id="edge88" class="edge"><title>A&#45;&gt;r10_intermediate_r</title>
<path fill="none" stroke="black" d="M371.927,-213.989C389.336,-209.093 409.684,-203.37 410.939,-203.017"/>
</g>
<!-- r11_intermediate_r -->
<g id="node90" class="node"><title>r11_intermediate_r</title>
<ellipse fill="black" stroke="black" cx="411" cy="-239" rx="0.036" ry="0.036"/>
</g>
<!-- A&#45;&gt;r11_intermediate_r -->
<g id="edge94" class="edge"><title>A&#45;&gt;r11_intermediate_r</title>
<path fill="none" stroke="black" d="M371.927,-228.011C389.336,-232.907 409.684,-238.63 410.939,-238.983"/>
</g>
<!-- R -->
<g id="node2" class="node"><title>R</title>
<ellipse fill="none" stroke="black" cx="475" cy="-311" rx="27" ry="18"/>
<text text-anchor="middle" x="475" y="-308.5" font-family="Times Roman,serif" font-size="10.00">R</text>
</g>
<!-- r7_intermediate_r -->
<g id="node66" class="node"><title>r7_intermediate_r</title>
<ellipse fill="black" stroke="black" cx="565" cy="-327" rx="0.036" ry="0.036"/>
</g>
<!-- R&#45;&gt;r7_intermediate_r -->
<g id="edge70" class="edge"><title>R&#45;&gt;r7_intermediate_r</title>
<path fill="none" stroke="black" d="M501.516,-315.714C527.234,-320.286 562.702,-326.591 564.893,-326.981"/>
</g>
<!-- r11_intermediate_m -->
<g id="node95" class="node"><title>r11_intermediate_m</title>
<ellipse fill="black" stroke="black" cx="565" cy="-309" rx="0.036" ry="0.036"/>
</g>
<!-- R&#45;&gt;r11_intermediate_m -->
<g id="edge100" class="edge"><title>R&#45;&gt;r11_intermediate_m</title>
<path fill="none" stroke="black" d="M502.003,-310.4C527.685,-309.829 562.729,-309.05 564.895,-309.002"/>
</g>
<!-- E -->
<g id="node3" class="node"><title>E</title>
<ellipse fill="none" stroke="black" cx="347" cy="-90" rx="27" ry="18"/>
<text text-anchor="middle" x="347" y="-87.5" font-family="Times Roman,serif" font-size="10.00">E</text>
</g>
<!-- r2_intermediate_m -->
<g id="node28" class="node"><title>r2_intermediate_m</title>
<ellipse fill="black" stroke="black" cx="411" cy="-69" rx="0.036" ry="0.036"/>
</g>
<!-- E&#45;&gt;r2_intermediate_m -->
<g id="edge28" class="edge"><title>E&#45;&gt;r2_intermediate_m</title>
<path fill="none" stroke="black" d="M371.561,-81.9409C389.045,-76.2039 409.666,-69.4376 410.938,-69.0203"/>
</g>
<!-- E&#45;&gt;r4_intermediate_m -->
<g id="edge50" class="edge"><title>E&#45;&gt;r4_intermediate_m</title>
<path fill="none" stroke="black" d="M353.728,-107.556C369.903,-149.763 409.73,-253.685 410.97,-256.923"/>
</g>
<!-- r8_intermediate_r -->
<g id="node72" class="node"><title>r8_intermediate_r</title>
<ellipse fill="black" stroke="black" cx="411" cy="-90" rx="0.036" ry="0.036"/>
</g>
<!-- E&#45;&gt;r8_intermediate_r -->
<g id="edge76" class="edge"><title>E&#45;&gt;r8_intermediate_r</title>
<path fill="none" stroke="black" d="M374.142,-90C391.04,-90 409.788,-90 410.944,-90"/>
</g>
<!-- G -->
<g id="node4" class="node"><title>G</title>
<ellipse fill="none" stroke="black" cx="475" cy="-47" rx="18" ry="18"/>
<text text-anchor="middle" x="475" y="-44.5" font-family="Times Roman,serif" font-size="10.00">G</text>
</g>
<!-- r1a_intermediate_r -->
<g id="node7" class="node"><title>r1a_intermediate_r</title>
<ellipse fill="black" stroke="black" cx="565" cy="-51" rx="0.036" ry="0.036"/>
</g>
<!-- G&#45;&gt;r1a_intermediate_r -->
<g id="edge4" class="edge"><title>G&#45;&gt;r1a_intermediate_r</title>
<path fill="none" stroke="black" d="M493.213,-47.8095C518.689,-48.9417 562.176,-50.8745 564.869,-50.9942"/>
</g>
<!-- r1b_intermediate_m -->
<g id="node19" class="node"><title>r1b_intermediate_m</title>
<ellipse fill="black" stroke="black" cx="565" cy="-128" rx="0.036" ry="0.036"/>
</g>
<!-- G&#45;&gt;r1b_intermediate_m -->
<g id="edge18" class="edge"><title>G&#45;&gt;r1b_intermediate_m</title>
<path fill="none" stroke="black" d="M488.147,-59.6829C492.629,-64.1279 497.614,-69.2078 502,-74 518.829,-92.3857 517.865,-102.309 538,-117 548.141,-124.399 563.973,-127.786 564.952,-127.99"/>
</g>
<!-- r9_intermediate_r -->
<g id="node78" class="node"><title>r9_intermediate_r</title>
<ellipse fill="black" stroke="black" cx="565" cy="-26" rx="0.036" ry="0.036"/>
</g>
<!-- G&#45;&gt;r9_intermediate_r -->
<g id="edge82" class="edge"><title>G&#45;&gt;r9_intermediate_r</title>
<path fill="none" stroke="black" d="M492.781,-42.8511C518.19,-36.9223 562.145,-26.6662 564.867,-26.031"/>
</g>
<!-- A_im -->
<g id="node5" class="node"><title>A_im</title>
<ellipse fill="none" stroke="black" cx="27" cy="-194" rx="27" ry="18"/>
<text text-anchor="middle" x="27" y="-191.5" font-family="Times Roman,serif" font-size="10.00">A_im</text>
</g>
<!-- r1b_intermediate_r -->
<g id="node13" class="node"><title>r1b_intermediate_r</title>
<ellipse fill="black" stroke="black" cx="117" cy="-194" rx="0.036" ry="0.036"/>
</g>
<!-- A_im&#45;&gt;r1b_intermediate_r -->
<g id="edge10" class="edge"><title>A_im&#45;&gt;r1b_intermediate_r</title>
<path fill="none" stroke="black" d="M54.003,-194C79.6846,-194 114.729,-194 116.895,-194"/>
</g>
<!-- r1a -->
<g id="node6" class="node"><title>r1a</title>
<polygon fill="none" stroke="black" points="642,-73 628,-73 628,-59 642,-59 642,-73"/>
</g>
<!-- r1a_empty -->
<g id="node10" class="node"><title>r1a_empty</title>
<text text-anchor="middle" x="705" y="-67.5" font-family="Times Roman,serif" font-size="15.00" fill="blue">Ø</text>
</g>
<!-- r1a&#45;&gt;r1a_empty -->
<g id="edge6" class="edge"><title>r1a&#45;&gt;r1a_empty</title>
<path fill="none" stroke="black" d="M642.228,-66.6195C648.45,-67.1528 657.94,-67.9663 667.672,-68.8004"/>
<polygon fill="black" stroke="black" points="667.511,-72.2994 677.773,-69.6663 668.109,-65.325 667.511,-72.2994"/>
</g>
<!-- r1a_intermediate_r&#45;&gt;r1a -->
<g id="edge2" class="edge"><title>r1a_intermediate_r&#45;&gt;r1a</title>
<path fill="none" stroke="black" d="M565.051,-51.0109C566.748,-51.3746 610.582,-60.7676 627.98,-64.4957"/>
</g>
<!-- r1b -->
<g id="node12" class="node"><title>r1b</title>
<polygon fill="none" stroke="black" points="194,-201 180,-201 180,-187 194,-187 194,-201"/>
</g>
<!-- r1b_intermediate_p -->
<g id="node16" class="node"><title>r1b_intermediate_p</title>
<ellipse fill="black" stroke="black" cx="257" cy="-215" rx="0.036" ry="0.036"/>
</g>
<!-- r1b&#45;&gt;r1b_intermediate_p -->
<g id="edge12" class="edge"><title>r1b&#45;&gt;r1b_intermediate_p</title>
<path fill="none" stroke="black" d="M194.228,-196.168C211.554,-201.366 254.221,-214.166 256.871,-214.961"/>
</g>
<!-- r1b&#45;&gt;r1b_intermediate_m -->
<g id="edge16" class="edge"><title>r1b&#45;&gt;r1b_intermediate_m</title>
<path fill="none" stroke="black" d="M206.388,-190.615C282.951,-177.247 560.336,-128.814 564.942,-128.01"/>
<polygon fill="none" stroke="black" points="206.035,-190.676 200.812,-195.649 194.214,-192.74 199.436,-187.768 206.035,-190.676"/>
</g>
<!-- r1b_intermediate_r&#45;&gt;r1b -->
<g id="edge8" class="edge"><title>r1b_intermediate_r&#45;&gt;r1b</title>
<path fill="none" stroke="black" d="M117.051,-194C118.748,-194 162.582,-194 179.98,-194"/>
</g>
<!-- r1b_intermediate_p&#45;&gt;A -->
<g id="edge14" class="edge"><title>r1b_intermediate_p&#45;&gt;A</title>
<path fill="none" stroke="black" d="M257.065,-215.004C258.565,-215.104 285.648,-216.91 309.704,-218.514"/>
<polygon fill="black" stroke="black" points="309.534,-222.01 319.745,-219.183 310,-215.025 309.534,-222.01"/>
</g>
<!-- r2 -->
<g id="node22" class="node"><title>r2</title>
<polygon fill="none" stroke="black" points="354,-54 340,-54 340,-40 354,-40 354,-54"/>
</g>
<!-- r2_intermediate_p -->
<g id="node25" class="node"><title>r2_intermediate_p</title>
<ellipse fill="black" stroke="black" cx="411" cy="-47" rx="0.036" ry="0.036"/>
</g>
<!-- r2&#45;&gt;r2_intermediate_p -->
<g id="edge22" class="edge"><title>r2&#45;&gt;r2_intermediate_p</title>
<path fill="none" stroke="black" d="M354.342,-47C370.627,-47 408.532,-47 410.885,-47"/>
</g>
<!-- r2&#45;&gt;r2_intermediate_m -->
<g id="edge26" class="edge"><title>r2&#45;&gt;r2_intermediate_m</title>
<path fill="none" stroke="black" d="M365.932,-53.5079C384.077,-59.7454 408.992,-68.3096 410.885,-68.9605"/>
<polygon fill="none" stroke="black" points="365.69,-53.4247 358.715,-55.2569 354.342,-49.5237 361.316,-47.6914 365.69,-53.4247"/>
</g>
<!-- r2_empty -->
<g id="node23" class="node"><title>r2_empty</title>
<text text-anchor="middle" x="257" y="-42.5" font-family="Times Roman,serif" font-size="15.00" fill="blue">Ø</text>
</g>
<!-- r2_empty&#45;&gt;r2 -->
<g id="edge20" class="edge"><title>r2_empty&#45;&gt;r2</title>
<path fill="none" stroke="black" d="M284.003,-47C303.264,-47 327.792,-47 339.766,-47"/>
</g>
<!-- r2_intermediate_p&#45;&gt;G -->
<g id="edge24" class="edge"><title>r2_intermediate_p&#45;&gt;G</title>
<path fill="none" stroke="black" d="M411.046,-47C412.081,-47 430.231,-47 446.931,-47"/>
<polygon fill="black" stroke="black" points="446.975,-50.5001 456.975,-47 446.975,-43.5001 446.975,-50.5001"/>
</g>
<!-- r3 -->
<g id="node31" class="node"><title>r3</title>
<polygon fill="none" stroke="black" points="354,-318 340,-318 340,-304 354,-304 354,-318"/>
</g>
<!-- r3_intermediate_p -->
<g id="node34" class="node"><title>r3_intermediate_p</title>
<ellipse fill="black" stroke="black" cx="411" cy="-311" rx="0.036" ry="0.036"/>
</g>
<!-- r3&#45;&gt;r3_intermediate_p -->
<g id="edge32" class="edge"><title>r3&#45;&gt;r3_intermediate_p</title>
<path fill="none" stroke="black" d="M354.342,-311C370.627,-311 408.532,-311 410.885,-311"/>
</g>
<!-- r3&#45;&gt;r3_intermediate_m -->
<g id="edge36" class="edge"><title>r3&#45;&gt;r3_intermediate_m</title>
<path fill="none" stroke="black" d="M364.883,-300.941C383.101,-290.693 408.955,-276.15 410.885,-275.065"/>
<polygon fill="none" stroke="black" points="364.801,-300.987 361.532,-307.415 354.342,-306.87 357.61,-300.442 364.801,-300.987"/>
</g>
<!-- r3_empty -->
<g id="node32" class="node"><title>r3_empty</title>
<text text-anchor="middle" x="257" y="-309.5" font-family="Times Roman,serif" font-size="15.00" fill="blue">Ø</text>
</g>
<!-- r3_empty&#45;&gt;r3 -->
<g id="edge30" class="edge"><title>r3_empty&#45;&gt;r3</title>
<path fill="none" stroke="black" d="M284.003,-313.1C303.264,-312.458 327.792,-311.64 339.766,-311.241"/>
</g>
<!-- r3_intermediate_p&#45;&gt;R -->
<g id="edge34" class="edge"><title>r3_intermediate_p&#45;&gt;R</title>
<path fill="none" stroke="black" d="M411.046,-311C411.885,-311 423.971,-311 437.414,-311"/>
<polygon fill="black" stroke="black" points="437.794,-314.5 447.794,-311 437.794,-307.5 437.794,-314.5"/>
</g>
<!-- r4 -->
<g id="node40" class="node"><title>r4</title>
<polygon fill="none" stroke="black" points="354,-271 340,-271 340,-257 354,-257 354,-271"/>
</g>
<!-- r4_intermediate_p -->
<g id="node43" class="node"><title>r4_intermediate_p</title>
<ellipse fill="black" stroke="black" cx="411" cy="-293" rx="0.036" ry="0.036"/>
</g>
<!-- r4&#45;&gt;r4_intermediate_p -->
<g id="edge42" class="edge"><title>r4&#45;&gt;r4_intermediate_p</title>
<path fill="none" stroke="black" d="M354.342,-267.327C370.627,-274.706 408.532,-291.882 410.885,-292.948"/>
</g>
<!-- r4&#45;&gt;r4_intermediate_m -->
<g id="edge46" class="edge"><title>r4&#45;&gt;r4_intermediate_m</title>
<path fill="none" stroke="black" d="M366.462,-261.871C384.559,-259.892 409.01,-257.218 410.885,-257.013"/>
<polygon fill="none" stroke="black" points="366.27,-261.892 360.741,-266.521 354.342,-263.197 359.871,-258.568 366.27,-261.892"/>
</g>
<!-- r4_empty -->
<g id="node41" class="node"><title>r4_empty</title>
<text text-anchor="middle" x="257" y="-255.5" font-family="Times Roman,serif" font-size="15.00" fill="blue">Ø</text>
</g>
<!-- r4_empty&#45;&gt;r4 -->
<g id="edge40" class="edge"><title>r4_empty&#45;&gt;r4</title>
<path fill="none" stroke="black" d="M284.003,-261.2C303.264,-262.056 327.792,-263.146 339.766,-263.678"/>
</g>
<!-- r4_intermediate_p&#45;&gt;R -->
<g id="edge44" class="edge"><title>r4_intermediate_p&#45;&gt;R</title>
<path fill="none" stroke="black" d="M411.046,-293.013C411.938,-293.264 425.554,-297.093 439.993,-301.154"/>
<polygon fill="black" stroke="black" points="439.401,-304.624 449.975,-303.962 441.296,-297.885 439.401,-304.624"/>
</g>
<!-- r5 -->
<g id="node50" class="node"><title>r5</title>
<polygon fill="none" stroke="black" points="194,-125 180,-125 180,-111 194,-111 194,-125"/>
</g>
<!-- r5_intermediate_p -->
<g id="node53" class="node"><title>r5_intermediate_p</title>
<ellipse fill="black" stroke="black" cx="257" cy="-99" rx="0.036" ry="0.036"/>
</g>
<!-- r5&#45;&gt;r5_intermediate_p -->
<g id="edge54" class="edge"><title>r5&#45;&gt;r5_intermediate_p</title>
<path fill="none" stroke="black" d="M194.228,-116.038C211.554,-111.335 254.221,-99.7543 256.871,-99.0351"/>
</g>
<!-- r5&#45;&gt;r5_intermediate_m -->
<g id="edge58" class="edge"><title>r5&#45;&gt;r5_intermediate_m</title>
<path fill="none" stroke="black" d="M206.417,-119.82C259.932,-124.837 405.924,-138.524 410.871,-138.988"/>
<polygon fill="none" stroke="black" points="206.4,-119.819 200.053,-123.241 194.453,-118.699 200.8,-115.276 206.4,-119.819"/>
</g>
<!-- r5_empty -->
<g id="node51" class="node"><title>r5_empty</title>
<text text-anchor="middle" x="117" y="-113.5" font-family="Times Roman,serif" font-size="15.00" fill="blue">Ø</text>
</g>
<!-- r5_empty&#45;&gt;r5 -->
<g id="edge52" class="edge"><title>r5_empty&#45;&gt;r5</title>
<path fill="none" stroke="black" d="M144.264,-118C157.163,-118 171.537,-118 179.895,-118"/>
</g>
<!-- r5_intermediate_p&#45;&gt;E -->
<g id="edge56" class="edge"><title>r5_intermediate_p&#45;&gt;E</title>
<path fill="none" stroke="black" d="M257.065,-98.9935C258.574,-98.8426 285.986,-96.1014 310.152,-93.6848"/>
<polygon fill="black" stroke="black" points="310.623,-97.1552 320.225,-92.6775 309.927,-90.1899 310.623,-97.1552"/>
</g>
<!-- r6 -->
<g id="node59" class="node"><title>r6</title>
<polygon fill="none" stroke="black" points="482,-242 468,-242 468,-228 482,-228 482,-242"/>
</g>
<!-- r6_empty -->
<g id="node63" class="node"><title>r6_empty</title>
<text text-anchor="middle" x="565" y="-214.5" font-family="Times Roman,serif" font-size="15.00" fill="blue">Ø</text>
</g>
<!-- r6&#45;&gt;r6_empty -->
<g id="edge66" class="edge"><title>r6&#45;&gt;r6_empty</title>
<path fill="none" stroke="black" d="M482.062,-233.745C491.877,-232 510.359,-228.714 527.389,-225.686"/>
<polygon fill="black" stroke="black" points="528.482,-229.047 537.715,-223.851 527.256,-222.155 528.482,-229.047"/>
</g>
<!-- r6_intermediate_r&#45;&gt;r6 -->
<g id="edge62" class="edge"><title>r6_intermediate_r&#45;&gt;r6</title>
<path fill="none" stroke="black" d="M411.046,-221.01C412.576,-221.345 451.51,-229.862 467.868,-233.44"/>
</g>
<!-- r7 -->
<g id="node65" class="node"><title>r7</title>
<polygon fill="none" stroke="black" points="642,-334 628,-334 628,-320 642,-320 642,-334"/>
</g>
<!-- r7_empty -->
<g id="node69" class="node"><title>r7_empty</title>
<text text-anchor="middle" x="705" y="-322.5" font-family="Times Roman,serif" font-size="15.00" fill="blue">Ø</text>
</g>
<!-- r7&#45;&gt;r7_empty -->
<g id="edge72" class="edge"><title>r7&#45;&gt;r7_empty</title>
<path fill="none" stroke="black" d="M642.228,-327C648.45,-327 657.94,-327 667.672,-327"/>
<polygon fill="black" stroke="black" points="667.773,-330.5 677.773,-327 667.773,-323.5 667.773,-330.5"/>
</g>
<!-- r7_intermediate_r&#45;&gt;r7 -->
<g id="edge68" class="edge"><title>r7_intermediate_r&#45;&gt;r7</title>
<path fill="none" stroke="black" d="M565.051,-327C566.748,-327 610.582,-327 627.98,-327"/>
</g>
<!-- r8 -->
<g id="node71" class="node"><title>r8</title>
<polygon fill="none" stroke="black" points="482,-97 468,-97 468,-83 482,-83 482,-97"/>
</g>
<!-- r8_empty -->
<g id="node75" class="node"><title>r8_empty</title>
<text text-anchor="middle" x="565" y="-85.5" font-family="Times Roman,serif" font-size="15.00" fill="blue">Ø</text>
</g>
<!-- r8&#45;&gt;r8_empty -->
<g id="edge78" class="edge"><title>r8&#45;&gt;r8_empty</title>
<path fill="none" stroke="black" d="M482.062,-90C491.877,-90 510.359,-90 527.389,-90"/>
<polygon fill="black" stroke="black" points="527.715,-93.5001 537.715,-90 527.715,-86.5001 527.715,-93.5001"/>
</g>
<!-- r8_intermediate_r&#45;&gt;r8 -->
<g id="edge74" class="edge"><title>r8_intermediate_r&#45;&gt;r8</title>
<path fill="none" stroke="black" d="M411.046,-90C412.576,-90 451.51,-90 467.868,-90"/>
</g>
<!-- r9 -->
<g id="node77" class="node"><title>r9</title>
<polygon fill="none" stroke="black" points="642,-30 628,-30 628,-16 642,-16 642,-30"/>
</g>
<!-- r9_empty -->
<g id="node81" class="node"><title>r9_empty</title>
<text text-anchor="middle" x="705" y="-13.5" font-family="Times Roman,serif" font-size="15.00" fill="blue">Ø</text>
</g>
<!-- r9&#45;&gt;r9_empty -->
<g id="edge84" class="edge"><title>r9&#45;&gt;r9_empty</title>
<path fill="none" stroke="black" d="M642.228,-22.4837C648.45,-22.0393 657.94,-21.3614 667.672,-20.6663"/>
<polygon fill="black" stroke="black" points="668.048,-24.1484 677.773,-19.9448 667.549,-17.1662 668.048,-24.1484"/>
</g>
<!-- r9_intermediate_r&#45;&gt;r9 -->
<g id="edge80" class="edge"><title>r9_intermediate_r&#45;&gt;r9</title>
<path fill="none" stroke="black" d="M565.051,-25.9978C566.748,-25.9251 610.582,-24.0465 627.98,-23.3009"/>
</g>
<!-- r10 -->
<g id="node83" class="node"><title>r10</title>
<polygon fill="none" stroke="black" points="482,-210 468,-210 468,-196 482,-196 482,-210"/>
</g>
<!-- r10_empty -->
<g id="node87" class="node"><title>r10_empty</title>
<text text-anchor="middle" x="565" y="-160.5" font-family="Times Roman,serif" font-size="15.00" fill="blue">Ø</text>
</g>
<!-- r10&#45;&gt;r10_empty -->
<g id="edge90" class="edge"><title>r10&#45;&gt;r10_empty</title>
<path fill="none" stroke="black" d="M482.062,-200.018C492.062,-195.796 511.059,-187.775 528.351,-180.474"/>
<polygon fill="black" stroke="black" points="529.864,-183.635 537.715,-176.521 527.141,-177.186 529.864,-183.635"/>
</g>
<!-- r10_intermediate_r&#45;&gt;r10 -->
<g id="edge86" class="edge"><title>r10_intermediate_r&#45;&gt;r10</title>
<path fill="none" stroke="black" d="M411.046,-203C412.576,-203 451.51,-203 467.868,-203"/>
</g>
<!-- r11 -->
<g id="node89" class="node"><title>r11</title>
<polygon fill="none" stroke="black" points="482,-275 468,-275 468,-261 482,-261 482,-275"/>
</g>
<!-- r11_empty -->
<g id="node93" class="node"><title>r11_empty</title>
<text text-anchor="middle" x="565" y="-268.5" font-family="Times Roman,serif" font-size="15.00" fill="blue">Ø</text>
</g>
<!-- r11&#45;&gt;r11_empty -->
<g id="edge96" class="edge"><title>r11&#45;&gt;r11_empty</title>
<path fill="none" stroke="black" d="M482.062,-268.392C491.877,-268.938 510.359,-269.964 527.389,-270.91"/>
<polygon fill="black" stroke="black" points="527.536,-274.424 537.715,-271.484 527.924,-267.435 527.536,-274.424"/>
</g>
<!-- r11&#45;&gt;r11_intermediate_m -->
<g id="edge98" class="edge"><title>r11&#45;&gt;r11_intermediate_m</title>
<path fill="none" stroke="black" d="M492.86,-277.968C505.293,-284.683 522.38,-293.472 538,-300 549.306,-304.725 564.046,-308.742 564.956,-308.988"/>
<polygon fill="none" stroke="black" points="492.718,-277.89 485.533,-278.502 482.205,-272.104 489.39,-271.493 492.718,-277.89"/>
</g>
<!-- r11_intermediate_r&#45;&gt;r11 -->
<g id="edge92" class="edge"><title>r11_intermediate_r&#45;&gt;r11</title>
<path fill="none" stroke="black" d="M411.046,-239.021C412.576,-239.714 451.51,-257.356 467.868,-264.768"/>
</g>
</g>
</svg>
