<?xml version="1.0" encoding="UTF-8" standalone="no"?>
<!DOCTYPE svg PUBLIC "-//W3C//DTD SVG 1.1//EN"
 "http://www.w3.org/Graphics/SVG/1.1/DTD/svg11.dtd">
<!-- Generated by graphviz version 2.24.0 (20090616.2323)
 -->
<!-- Title: G Pages: 1 -->
<svg width="474pt" height="98pt"
 viewBox="0.00 0.00 474.00 98.00" xmlns="http://www.w3.org/2000/svg" xmlns:xlink="http://www.w3.org/1999/xlink">
<g id="graph1" class="graph" transform="scale(1 1) rotate(0) translate(4 94)">
<title>G</title>
<polygon fill="white" stroke="white" points="-4,5 -4,-94 471,-94 471,5 -4,5"/>
<!-- X -->
<g id="node1" class="node"><title>X</title>
<ellipse fill="none" stroke="black" cx="18" cy="-52" rx="18" ry="18"/>
<text text-anchor="middle" x="18" y="-49.5" font-family="Times Roman,serif" font-size="10.00">X</text>
</g>
<!-- r1_intermediate_r -->
<g id="node6" class="node"><title>r1_intermediate_r</title>
<ellipse fill="black" stroke="black" cx="72" cy="-52" rx="0.036" ry="0.036"/>
</g>
<!-- X&#45;&gt;r1_intermediate_r -->
<g id="edge4" class="edge"><title>X&#45;&gt;r1_intermediate_r</title>
<path fill="none" stroke="black" d="M46.5997,-52C59.0326,-52 71.0115,-52 71.942,-52"/>
<polygon fill="black" stroke="black" points="46.282,-48.5001 36.2819,-52 46.2819,-55.5001 46.282,-48.5001"/>
</g>
<!-- E -->
<g id="node2" class="node"><title>E</title>
<polyline fill="none" stroke="black" points="454,-90 424,-90 "/>
<path fill="none" stroke="black" d="M424,-90C418,-90 412,-84 412,-78"/>
<polyline fill="none" stroke="black" points="412,-78 412,-66 "/>
<path fill="none" stroke="black" d="M412,-66C412,-60 418,-54 424,-54"/>
<polyline fill="none" stroke="black" points="424,-54 454,-54 "/>
<path fill="none" stroke="black" d="M454,-54C460,-54 466,-60 466,-66"/>
<polyline fill="none" stroke="black" points="466,-66 466,-78 "/>
<path fill="none" stroke="black" d="M466,-78C466,-84 460,-90 454,-90"/>
<text text-anchor="middle" x="439" y="-69.5" font-family="Times Roman,serif" font-size="10.00">E</text>
</g>
<!-- E&#45;&gt;r1_intermediate_r -->
<g id="edge6" class="edge"><title>E&#45;&gt;r1_intermediate_r</title>
<path fill="none" stroke="black" d="M401.889,-72C381.053,-72 354.579,-72 331,-72 159,-72 159,-72 159,-72 120.565,-72 74.9503,-53.2305 72.137,-52.0574"/>
<polygon fill="black" stroke="black" points="401.926,-75.5001 411.926,-72 401.925,-68.5001 401.926,-75.5001"/>
</g>
<!-- P -->
<g id="node3" class="node"><title>P</title>
<polyline fill="none" stroke="black" points="238,-44 208,-44 "/>
<path fill="none" stroke="black" d="M208,-44C202,-44 196,-38 196,-32"/>
<polyline fill="none" stroke="black" points="196,-32 196,-20 "/>
<path fill="none" stroke="black" d="M196,-20C196,-14 202,-8 208,-8"/>
<polyline fill="none" stroke="black" points="208,-8 238,-8 "/>
<path fill="none" stroke="black" d="M238,-8C244,-8 250,-14 250,-20"/>
<polyline fill="none" stroke="black" points="250,-20 250,-32 "/>
<path fill="none" stroke="black" d="M250,-32C250,-38 244,-44 238,-44"/>
<text text-anchor="middle" x="223" y="-23.5" font-family="Times Roman,serif" font-size="10.00">P</text>
</g>
<!-- r2_intermediate_r -->
<g id="node14" class="node"><title>r2_intermediate_r</title>
<ellipse fill="black" stroke="black" cx="287" cy="-26" rx="0.036" ry="0.036"/>
</g>
<!-- P&#45;&gt;r2_intermediate_r -->
<g id="edge14" class="edge"><title>P&#45;&gt;r2_intermediate_r</title>
<path fill="none" stroke="black" d="M250.142,-26C267.04,-26 285.788,-26 286.944,-26"/>
</g>
<!-- Q -->
<g id="node4" class="node"><title>Q</title>
<ellipse fill="none" stroke="black" cx="439" cy="-18" rx="18" ry="18"/>
<text text-anchor="middle" x="439" y="-15.5" font-family="Times Roman,serif" font-size="10.00">Q</text>
</g>
<!-- r1 -->
<g id="node5" class="node"><title>r1</title>
<polygon fill="none" stroke="black" points="122,-39 108,-39 108,-25 122,-25 122,-39"/>
</g>
<!-- r1_intermediate_p -->
<g id="node10" class="node"><title>r1_intermediate_p</title>
<ellipse fill="black" stroke="black" cx="159" cy="-29" rx="0.036" ry="0.036"/>
</g>
<!-- r1&#45;&gt;r1_intermediate_p -->
<g id="edge8" class="edge"><title>r1&#45;&gt;r1_intermediate_p</title>
<path fill="none" stroke="black" d="M122.266,-31.5046C134.372,-30.6792 157.497,-29.1025 158.93,-29.0048"/>
</g>
<!-- r1_intermediate_r&#45;&gt;r1 -->
<g id="edge2" class="edge"><title>r1_intermediate_r&#45;&gt;r1</title>
<path fill="none" stroke="black" d="M72.1234,-51.9426C73.9756,-51.0811 96.231,-40.7298 107.924,-35.2914"/>
</g>
<!-- r1_intermediate_p&#45;&gt;P -->
<g id="edge10" class="edge"><title>r1_intermediate_p&#45;&gt;P</title>
<path fill="none" stroke="black" d="M159.046,-28.9978C159.885,-28.9585 171.971,-28.392 185.414,-27.7619"/>
<polygon fill="black" stroke="black" points="185.969,-31.2397 195.794,-27.2753 185.641,-24.2474 185.969,-31.2397"/>
</g>
<!-- r2 -->
<g id="node13" class="node"><title>r2</title>
<polygon fill="none" stroke="black" points="338,-33 324,-33 324,-19 338,-19 338,-33"/>
</g>
<!-- r2_intermediate_p -->
<g id="node17" class="node"><title>r2_intermediate_p</title>
<ellipse fill="black" stroke="black" cx="375" cy="-26" rx="0.036" ry="0.036"/>
</g>
<!-- r2&#45;&gt;r2_intermediate_p -->
<g id="edge16" class="edge"><title>r2&#45;&gt;r2_intermediate_p</title>
<path fill="none" stroke="black" d="M338.266,-26C350.372,-26 373.497,-26 374.93,-26"/>
</g>
<!-- r2_intermediate_r&#45;&gt;r2 -->
<g id="edge12" class="edge"><title>r2_intermediate_r&#45;&gt;r2</title>
<path fill="none" stroke="black" d="M287.126,-26C289.022,-26 311.795,-26 323.759,-26"/>
</g>
<!-- r2_intermediate_p&#45;&gt;E -->
<g id="edge18" class="edge"><title>r2_intermediate_p&#45;&gt;E</title>
<path fill="none" stroke="black" d="M375.046,-26.0333C375.966,-26.6944 390.419,-37.0822 405.351,-47.815"/>
<polygon fill="black" stroke="black" points="403.451,-50.7592 413.614,-53.7535 407.536,-45.0751 403.451,-50.7592"/>
</g>
<!-- r2_intermediate_p&#45;&gt;Q -->
<g id="edge20" class="edge"><title>r2_intermediate_p&#45;&gt;Q</title>
<path fill="none" stroke="black" d="M375.046,-25.9942C376.081,-25.8649 394.231,-23.5961 410.931,-21.5087"/>
<polygon fill="black" stroke="black" points="411.487,-24.9665 420.975,-20.2531 410.619,-18.0205 411.487,-24.9665"/>
</g>
</g>
</svg>
