<?xml version="1.0" encoding="UTF-8" standalone="no"?>
<!DOCTYPE svg PUBLIC "-//W3C//DTD SVG 1.1//EN"
 "http://www.w3.org/Graphics/SVG/1.1/DTD/svg11.dtd">
<!-- Generated by graphviz version 2.24.0 (20090616.2323)
 -->
<!-- Title: G Pages: 1 -->
<svg width="928pt" height="328pt"
 viewBox="0.00 0.00 928.00 328.00" xmlns="http://www.w3.org/2000/svg" xmlns:xlink="http://www.w3.org/1999/xlink">
<g id="graph1" class="graph" transform="scale(1 1) rotate(0) translate(4 324)">
<title>G</title>
<polygon fill="white" stroke="white" points="-4,5 -4,-324 925,-324 925,5 -4,5"/>
<!-- E -->
<g id="node1" class="node"><title>E</title>
<ellipse fill="none" stroke="black" cx="27" cy="-171" rx="27" ry="18"/>
<text text-anchor="middle" x="27" y="-168.5" font-family="Times Roman,serif" font-size="10.00">E</text>
</g>
<!-- r1_intermediate_r -->
<g id="node11" class="node"><title>r1_intermediate_r</title>
<ellipse fill="black" stroke="black" cx="91" cy="-36" rx="0.036" ry="0.036"/>
</g>
<!-- E&#45;&gt;r1_intermediate_r -->
<g id="edge4" class="edge"><title>E&#45;&gt;r1_intermediate_r</title>
<path fill="none" stroke="black" d="M39.7726,-144.665C44.2901,-135.309 49.3926,-124.695 54,-115 70.1216,-81.0762 89.7312,-38.7401 90.9411,-36.1272"/>
<polygon fill="black" stroke="black" points="36.5249,-143.341 35.3218,-153.868 42.8266,-146.389 36.5249,-143.341"/>
</g>
<!-- r5_intermediate_r -->
<g id="node27" class="node"><title>r5_intermediate_r</title>
<ellipse fill="black" stroke="black" cx="527" cy="-102" rx="0.036" ry="0.036"/>
</g>
<!-- E&#45;&gt;r5_intermediate_r -->
<g id="edge24" class="edge"><title>E&#45;&gt;r5_intermediate_r</title>
<path fill="none" stroke="black" d="M47.6507,-147.664C67.7523,-127.643 100.276,-102 135,-102 135,-102 135,-102 399,-102 455,-102 524.781,-102 526.948,-102"/>
<polygon fill="black" stroke="black" points="45.0006,-145.37 40.5762,-154.997 50.0383,-150.23 45.0006,-145.37"/>
</g>
<!-- r8_intermediate_r -->
<g id="node43" class="node"><title>r8_intermediate_r</title>
<ellipse fill="black" stroke="black" cx="91" cy="-148" rx="0.036" ry="0.036"/>
</g>
<!-- E&#45;&gt;r8_intermediate_r -->
<g id="edge44" class="edge"><title>E&#45;&gt;r8_intermediate_r</title>
<path fill="none" stroke="black" d="M60.541,-158.946C75.4259,-153.597 89.8651,-148.408 90.9364,-148.023"/>
<polygon fill="black" stroke="black" points="59.0583,-155.76 50.8312,-162.436 61.4257,-162.347 59.0583,-155.76"/>
</g>
<!-- r12_intermediate_r -->
<g id="node59" class="node"><title>r12_intermediate_r</title>
<ellipse fill="black" stroke="black" cx="527" cy="-255" rx="0.036" ry="0.036"/>
</g>
<!-- E&#45;&gt;r12_intermediate_r -->
<g id="edge64" class="edge"><title>E&#45;&gt;r12_intermediate_r</title>
<path fill="none" stroke="black" d="M38.789,-197.961C55.1966,-230.815 88.2591,-282 135,-282 135,-282 135,-282 399,-282 456.232,-282 524.82,-255.837 526.949,-255.02"/>
<polygon fill="black" stroke="black" points="41.8947,-196.342 34.4198,-188.834 35.5809,-199.365 41.8947,-196.342"/>
</g>
<!-- E_P_1 -->
<g id="node2" class="node"><title>E_P_1</title>
<ellipse fill="none" stroke="black" cx="245" cy="-18" rx="27.8202" ry="18"/>
<text text-anchor="middle" x="245" y="-15.5" font-family="Times Roman,serif" font-size="10.00">E_P_1</text>
</g>
<!-- r2_intermediate_r -->
<g id="node19" class="node"><title>r2_intermediate_r</title>
<ellipse fill="black" stroke="black" cx="311" cy="-21" rx="0.036" ry="0.036"/>
</g>
<!-- E_P_1&#45;&gt;r2_intermediate_r -->
<g id="edge14" class="edge"><title>E_P_1&#45;&gt;r2_intermediate_r</title>
<path fill="none" stroke="black" d="M273.757,-19.3071C290.986,-20.0903 309.786,-20.9448 310.944,-20.9974"/>
</g>
<!-- P -->
<g id="node3" class="node"><title>P</title>
<ellipse fill="none" stroke="black" cx="27" cy="-88" rx="27" ry="18"/>
<text text-anchor="middle" x="27" y="-85.5" font-family="Times Roman,serif" font-size="10.00">P</text>
</g>
<!-- P&#45;&gt;r1_intermediate_r -->
<g id="edge6" class="edge"><title>P&#45;&gt;r1_intermediate_r</title>
<path fill="none" stroke="black" d="M52.3029,-67.4414C69.543,-53.4338 89.4981,-37.2203 90.9194,-36.0655"/>
<polygon fill="black" stroke="black" points="49.7049,-65.0426 44.1508,-74.065 54.1191,-70.4754 49.7049,-65.0426"/>
</g>
<!-- P&#45;&gt;r8_intermediate_r -->
<g id="edge46" class="edge"><title>P&#45;&gt;r8_intermediate_r</title>
<path fill="none" stroke="black" d="M50.5617,-110.089C68.1551,-126.583 89.4134,-146.513 90.9156,-147.921"/>
<polygon fill="black" stroke="black" points="52.5094,-107.118 42.8202,-102.831 47.7218,-112.224 52.5094,-107.118"/>
</g>
<!-- M -->
<g id="node4" class="node"><title>M</title>
<ellipse fill="none" stroke="black" cx="463" cy="-56" rx="27" ry="18"/>
<text text-anchor="middle" x="463" y="-53.5" font-family="Times Roman,serif" font-size="10.00">M</text>
</g>
<!-- M&#45;&gt;r5_intermediate_r -->
<g id="edge26" class="edge"><title>M&#45;&gt;r5_intermediate_r</title>
<path fill="none" stroke="black" d="M490.04,-75.4353C506.872,-87.533 525.58,-100.979 526.923,-101.945"/>
<polygon fill="black" stroke="black" points="491.674,-72.2994 481.511,-69.3051 487.589,-77.9836 491.674,-72.2994"/>
</g>
<!-- E_M -->
<g id="node5" class="node"><title>E_M</title>
<ellipse fill="none" stroke="black" cx="679" cy="-139" rx="27" ry="18"/>
<text text-anchor="middle" x="679" y="-136.5" font-family="Times Roman,serif" font-size="10.00">E_M</text>
</g>
<!-- r7_intermediate_r -->
<g id="node35" class="node"><title>r7_intermediate_r</title>
<ellipse fill="black" stroke="black" cx="743" cy="-143" rx="0.036" ry="0.036"/>
</g>
<!-- E_M&#45;&gt;r7_intermediate_r -->
<g id="edge34" class="edge"><title>E_M&#45;&gt;r7_intermediate_r</title>
<path fill="none" stroke="black" d="M706.142,-140.696C723.04,-141.752 741.788,-142.924 742.944,-142.996"/>
</g>
<!-- T -->
<g id="node6" class="node"><title>T</title>
<ellipse fill="none" stroke="black" cx="893" cy="-222" rx="27" ry="18"/>
<text text-anchor="middle" x="893" y="-219.5" font-family="Times Roman,serif" font-size="10.00">T</text>
</g>
<!-- E_P_2 -->
<g id="node7" class="node"><title>E_P_2</title>
<ellipse fill="none" stroke="black" cx="245" cy="-148" rx="27.8202" ry="18"/>
<text text-anchor="middle" x="245" y="-145.5" font-family="Times Roman,serif" font-size="10.00">E_P_2</text>
</g>
<!-- r9_intermediate_r -->
<g id="node51" class="node"><title>r9_intermediate_r</title>
<ellipse fill="black" stroke="black" cx="311" cy="-153" rx="0.036" ry="0.036"/>
</g>
<!-- E_P_2&#45;&gt;r9_intermediate_r -->
<g id="edge54" class="edge"><title>E_P_2&#45;&gt;r9_intermediate_r</title>
<path fill="none" stroke="black" d="M273.373,-150.149C290.702,-151.462 309.768,-152.907 310.943,-152.996"/>
</g>
<!-- P2 -->
<g id="node8" class="node"><title>P2</title>
<ellipse fill="none" stroke="black" cx="463" cy="-236" rx="27" ry="18"/>
<text text-anchor="middle" x="463" y="-233.5" font-family="Times Roman,serif" font-size="10.00">P2</text>
</g>
<!-- P2&#45;&gt;r12_intermediate_r -->
<g id="edge66" class="edge"><title>P2&#45;&gt;r12_intermediate_r</title>
<path fill="none" stroke="black" d="M497.884,-246.356C512.295,-250.635 525.919,-254.679 526.939,-254.982"/>
<polygon fill="black" stroke="black" points="498.51,-242.891 487.927,-243.4 496.518,-249.602 498.51,-242.891"/>
</g>
<!-- E_P2 -->
<g id="node9" class="node"><title>E_P2</title>
<ellipse fill="none" stroke="black" cx="679" cy="-255" rx="27" ry="18"/>
<text text-anchor="middle" x="679" y="-252.5" font-family="Times Roman,serif" font-size="10.00">E_P2</text>
</g>
<!-- r14_intermediate_r -->
<g id="node67" class="node"><title>r14_intermediate_r</title>
<ellipse fill="black" stroke="black" cx="743" cy="-255" rx="0.036" ry="0.036"/>
</g>
<!-- E_P2&#45;&gt;r14_intermediate_r -->
<g id="edge74" class="edge"><title>E_P2&#45;&gt;r14_intermediate_r</title>
<path fill="none" stroke="black" d="M706.142,-255C723.04,-255 741.788,-255 742.944,-255"/>
</g>
<!-- r1 -->
<g id="node10" class="node"><title>r1</title>
<polygon fill="none" stroke="black" points="142,-33 128,-33 128,-19 142,-19 142,-33"/>
</g>
<!-- r1_intermediate_p -->
<g id="node15" class="node"><title>r1_intermediate_p</title>
<ellipse fill="black" stroke="black" cx="179" cy="-21" rx="0.036" ry="0.036"/>
</g>
<!-- r1&#45;&gt;r1_intermediate_p -->
<g id="edge8" class="edge"><title>r1&#45;&gt;r1_intermediate_p</title>
<path fill="none" stroke="black" d="M142.266,-25.1744C154.372,-23.7986 177.497,-21.1708 178.93,-21.0079"/>
</g>
<!-- r1_intermediate_r&#45;&gt;r1 -->
<g id="edge2" class="edge"><title>r1_intermediate_r&#45;&gt;r1</title>
<path fill="none" stroke="black" d="M91.1262,-35.9713C93.0215,-35.5406 115.795,-30.3649 127.759,-27.6457"/>
</g>
<!-- r1_intermediate_p&#45;&gt;E_P_1 -->
<g id="edge10" class="edge"><title>r1_intermediate_p&#45;&gt;E_P_1</title>
<path fill="none" stroke="black" d="M179.048,-20.9978C179.915,-20.9584 192.439,-20.3891 206.345,-19.7571"/>
<polygon fill="black" stroke="black" points="206.736,-23.243 216.567,-19.2924 206.418,-16.2502 206.736,-23.243"/>
</g>
<!-- r2 -->
<g id="node18" class="node"><title>r2</title>
<polygon fill="none" stroke="black" points="362,-33 348,-33 348,-19 362,-19 362,-33"/>
</g>
<!-- r2_intermediate_p -->
<g id="node22" class="node"><title>r2_intermediate_p</title>
<ellipse fill="black" stroke="black" cx="399" cy="-56" rx="0.036" ry="0.036"/>
</g>
<!-- r2&#45;&gt;r2_intermediate_p -->
<g id="edge16" class="edge"><title>r2&#45;&gt;r2_intermediate_p</title>
<path fill="none" stroke="black" d="M362.266,-30.9539C374.372,-39.2085 397.497,-54.975 398.93,-55.9523"/>
</g>
<!-- r2_intermediate_r&#45;&gt;r2 -->
<g id="edge12" class="edge"><title>r2_intermediate_r&#45;&gt;r2</title>
<path fill="none" stroke="black" d="M311.126,-21.0143C313.022,-21.2297 335.795,-23.8176 347.759,-25.1772"/>
</g>
<!-- r2_intermediate_p&#45;&gt;E -->
<g id="edge18" class="edge"><title>r2_intermediate_p&#45;&gt;E</title>
<path fill="none" stroke="black" d="M398.859,-56.0229C395.964,-56.4922 349.045,-64 311,-64 135,-64 135,-64 135,-64 89.5528,-64 56.3826,-112.407 39.5345,-144.103"/>
<polygon fill="black" stroke="black" points="36.2541,-142.832 34.8343,-153.331 42.4916,-146.009 36.2541,-142.832"/>
</g>
<!-- r2_intermediate_p&#45;&gt;M -->
<g id="edge20" class="edge"><title>r2_intermediate_p&#45;&gt;M</title>
<path fill="none" stroke="black" d="M399.046,-56C399.885,-56 411.971,-56 425.414,-56"/>
<polygon fill="black" stroke="black" points="425.794,-59.5001 435.794,-56 425.794,-52.5001 425.794,-59.5001"/>
</g>
<!-- r5 -->
<g id="node26" class="node"><title>r5</title>
<polygon fill="none" stroke="black" points="578,-115 564,-115 564,-101 578,-101 578,-115"/>
</g>
<!-- r5_intermediate_p -->
<g id="node31" class="node"><title>r5_intermediate_p</title>
<ellipse fill="black" stroke="black" cx="615" cy="-129" rx="0.036" ry="0.036"/>
</g>
<!-- r5&#45;&gt;r5_intermediate_p -->
<g id="edge28" class="edge"><title>r5&#45;&gt;r5_intermediate_p</title>
<path fill="none" stroke="black" d="M578.266,-111.468C590.372,-117.246 613.497,-128.282 614.93,-128.967"/>
</g>
<!-- r5_intermediate_r&#45;&gt;r5 -->
<g id="edge22" class="edge"><title>r5_intermediate_r&#45;&gt;r5</title>
<path fill="none" stroke="black" d="M527.126,-102.017C529.022,-102.276 551.795,-105.381 563.759,-107.013"/>
</g>
<!-- r5_intermediate_p&#45;&gt;E_M -->
<g id="edge30" class="edge"><title>r5_intermediate_p&#45;&gt;E_M</title>
<path fill="none" stroke="black" d="M615.046,-129.007C615.905,-129.141 628.565,-131.12 642.397,-133.281"/>
<polygon fill="black" stroke="black" points="642.104,-136.777 652.524,-134.863 643.184,-129.861 642.104,-136.777"/>
</g>
<!-- r7 -->
<g id="node34" class="node"><title>r7</title>
<polygon fill="none" stroke="black" points="794,-158 780,-158 780,-144 794,-144 794,-158"/>
</g>
<!-- r7_intermediate_p -->
<g id="node38" class="node"><title>r7_intermediate_p</title>
<ellipse fill="black" stroke="black" cx="830" cy="-190" rx="0.036" ry="0.036"/>
</g>
<!-- r7&#45;&gt;r7_intermediate_p -->
<g id="edge36" class="edge"><title>r7&#45;&gt;r7_intermediate_p</title>
<path fill="none" stroke="black" d="M794.101,-157.44C805.932,-168.171 828.531,-188.667 829.932,-189.938"/>
</g>
<!-- r7_intermediate_r&#45;&gt;r7 -->
<g id="edge32" class="edge"><title>r7_intermediate_r&#45;&gt;r7</title>
<path fill="none" stroke="black" d="M743.126,-143.023C745.022,-143.368 767.795,-147.508 779.759,-149.683"/>
</g>
<!-- r7_intermediate_p&#45;&gt;E -->
<g id="edge38" class="edge"><title>r7_intermediate_p&#45;&gt;E</title>
<path fill="none" stroke="black" d="M829.86,-190C826.989,-190 780.458,-190 743,-190 527,-190 527,-190 527,-190 372.323,-190 333.677,-194 179,-194 135,-194 135,-194 135,-194 109.794,-194 81.99,-187.933 60.9062,-182.031"/>
<polygon fill="black" stroke="black" points="61.717,-178.621 51.1366,-179.174 59.7523,-185.34 61.717,-178.621"/>
</g>
<!-- r7_intermediate_p&#45;&gt;T -->
<g id="edge40" class="edge"><title>r7_intermediate_p&#45;&gt;T</title>
<path fill="none" stroke="black" d="M830.046,-190.023C830.999,-190.507 846.713,-198.489 862.201,-206.356"/>
<polygon fill="black" stroke="black" points="860.68,-209.509 871.181,-210.917 863.85,-203.268 860.68,-209.509"/>
</g>
<!-- r8 -->
<g id="node42" class="node"><title>r8</title>
<polygon fill="none" stroke="black" points="142,-155 128,-155 128,-141 142,-141 142,-155"/>
</g>
<!-- r8_intermediate_p -->
<g id="node47" class="node"><title>r8_intermediate_p</title>
<ellipse fill="black" stroke="black" cx="179" cy="-148" rx="0.036" ry="0.036"/>
</g>
<!-- r8&#45;&gt;r8_intermediate_p -->
<g id="edge48" class="edge"><title>r8&#45;&gt;r8_intermediate_p</title>
<path fill="none" stroke="black" d="M142.266,-148C154.372,-148 177.497,-148 178.93,-148"/>
</g>
<!-- r8_intermediate_r&#45;&gt;r8 -->
<g id="edge42" class="edge"><title>r8_intermediate_r&#45;&gt;r8</title>
<path fill="none" stroke="black" d="M91.1262,-148C93.0215,-148 115.795,-148 127.759,-148"/>
</g>
<!-- r8_intermediate_p&#45;&gt;E_P_2 -->
<g id="edge50" class="edge"><title>r8_intermediate_p&#45;&gt;E_P_2</title>
<path fill="none" stroke="black" d="M179.048,-148C179.908,-148 192.258,-148 206.043,-148"/>
<polygon fill="black" stroke="black" points="206.189,-151.5 216.189,-148 206.189,-144.5 206.189,-151.5"/>
</g>
<!-- r9 -->
<g id="node50" class="node"><title>r9</title>
<polygon fill="none" stroke="black" points="362,-162 348,-162 348,-148 362,-148 362,-162"/>
</g>
<!-- r9_intermediate_p -->
<g id="node54" class="node"><title>r9_intermediate_p</title>
<ellipse fill="black" stroke="black" cx="399" cy="-232" rx="0.036" ry="0.036"/>
</g>
<!-- r9&#45;&gt;r9_intermediate_p -->
<g id="edge56" class="edge"><title>r9&#45;&gt;r9_intermediate_p</title>
<path fill="none" stroke="black" d="M359.061,-162.106C369.613,-180.572 397.202,-228.854 398.916,-231.854"/>
</g>
<!-- r9_intermediate_r&#45;&gt;r9 -->
<g id="edge52" class="edge"><title>r9_intermediate_r&#45;&gt;r9</title>
<path fill="none" stroke="black" d="M311.126,-153.006C313.022,-153.092 335.795,-154.127 347.759,-154.671"/>
</g>
<!-- r9_intermediate_p&#45;&gt;E -->
<g id="edge58" class="edge"><title>r9_intermediate_p&#45;&gt;E</title>
<path fill="none" stroke="black" d="M398.859,-232C395.954,-232 348.889,-232 311,-232 135,-232 135,-232 135,-232 102.112,-232 70.0259,-210.289 49.4905,-192.772"/>
<polygon fill="black" stroke="black" points="51.751,-190.099 41.9485,-186.079 47.1046,-195.334 51.751,-190.099"/>
</g>
<!-- r9_intermediate_p&#45;&gt;P2 -->
<g id="edge60" class="edge"><title>r9_intermediate_p&#45;&gt;P2</title>
<path fill="none" stroke="black" d="M399.046,-232.003C399.893,-232.056 412.209,-232.826 425.809,-233.676"/>
<polygon fill="black" stroke="black" points="425.596,-237.169 435.794,-234.3 426.032,-230.183 425.596,-237.169"/>
</g>
<!-- r12 -->
<g id="node58" class="node"><title>r12</title>
<polygon fill="none" stroke="black" points="578,-262 564,-262 564,-248 578,-248 578,-262"/>
</g>
<!-- r12_intermediate_p -->
<g id="node63" class="node"><title>r12_intermediate_p</title>
<ellipse fill="black" stroke="black" cx="615" cy="-255" rx="0.036" ry="0.036"/>
</g>
<!-- r12&#45;&gt;r12_intermediate_p -->
<g id="edge68" class="edge"><title>r12&#45;&gt;r12_intermediate_p</title>
<path fill="none" stroke="black" d="M578.266,-255C590.372,-255 613.497,-255 614.93,-255"/>
</g>
<!-- r12_intermediate_r&#45;&gt;r12 -->
<g id="edge62" class="edge"><title>r12_intermediate_r&#45;&gt;r12</title>
<path fill="none" stroke="black" d="M527.126,-255C529.022,-255 551.795,-255 563.759,-255"/>
</g>
<!-- r12_intermediate_p&#45;&gt;E_P2 -->
<g id="edge70" class="edge"><title>r12_intermediate_p&#45;&gt;E_P2</title>
<path fill="none" stroke="black" d="M615.046,-255C615.885,-255 627.971,-255 641.414,-255"/>
<polygon fill="black" stroke="black" points="641.794,-258.5 651.794,-255 641.794,-251.5 641.794,-258.5"/>
</g>
<!-- r14 -->
<g id="node66" class="node"><title>r14</title>
<polygon fill="none" stroke="black" points="794,-262 780,-262 780,-248 794,-248 794,-262"/>
</g>
<!-- r14_intermediate_p -->
<g id="node70" class="node"><title>r14_intermediate_p</title>
<ellipse fill="black" stroke="black" cx="830" cy="-255" rx="0.036" ry="0.036"/>
</g>
<!-- r14&#45;&gt;r14_intermediate_p -->
<g id="edge76" class="edge"><title>r14&#45;&gt;r14_intermediate_p</title>
<path fill="none" stroke="black" d="M794.101,-255C805.932,-255 828.531,-255 829.932,-255"/>
</g>
<!-- r14_intermediate_r&#45;&gt;r14 -->
<g id="edge72" class="edge"><title>r14_intermediate_r&#45;&gt;r14</title>
<path fill="none" stroke="black" d="M743.126,-255C745.022,-255 767.795,-255 779.759,-255"/>
</g>
<!-- r14_intermediate_p&#45;&gt;E -->
<g id="edge78" class="edge"><title>r14_intermediate_p&#45;&gt;E</title>
<path fill="none" stroke="black" d="M829.972,-255.047C828.787,-257.015 790.513,-320 743,-320 135,-320 135,-320 135,-320 75.8222,-320 45.7401,-241.996 33.6303,-198.867"/>
<polygon fill="black" stroke="black" points="36.951,-197.735 30.9951,-188.973 30.1868,-199.537 36.951,-197.735"/>
</g>
<!-- r14_intermediate_p&#45;&gt;T -->
<g id="edge80" class="edge"><title>r14_intermediate_p&#45;&gt;T</title>
<path fill="none" stroke="black" d="M830.046,-254.976C831.005,-254.474 846.919,-246.138 862.505,-237.974"/>
<polygon fill="black" stroke="black" points="864.294,-240.988 871.528,-233.247 861.046,-234.787 864.294,-240.988"/>
</g>
</g>
</svg>
