<?xml version="1.0" encoding="UTF-8" standalone="no"?>
<!DOCTYPE svg PUBLIC "-//W3C//DTD SVG 1.1//EN"
 "http://www.w3.org/Graphics/SVG/1.1/DTD/svg11.dtd">
<!-- Generated by graphviz version 2.30.1 (20140821.0912)
 -->
<!-- Title: G Pages: 1 -->
<svg width="2836pt" height="626pt"
 viewBox="0.00 0.00 2836.00 626.00" xmlns="http://www.w3.org/2000/svg" xmlns:xlink="http://www.w3.org/1999/xlink">
<g id="graph0" class="graph" transform="scale(1 1) rotate(0) translate(4 622)">
<title>G</title>
<polygon fill="white" stroke="white" points="-4,5 -4,-622 2833,-622 2833,5 -4,5"/>
<!-- GLCo -->
<g id="GLCo [CHEBI:4167]" class="node"><title>GLCo</title>
<ellipse fill="none" stroke="black" cx="30" cy="-590" rx="29.3664" ry="18"/>
<text text-anchor="middle" x="30" y="-587.5" font-family="Times,serif" font-size="10.00">Glc(ext)</text>
</g>
<!-- HXT_intermediate_r -->
<g id="node27" class="node"><title>HXT_intermediate_r</title>
<ellipse fill="black" stroke="black" cx="96" cy="-590" rx="0.036" ry="0.036"/>
</g>
<!-- GLCo&#45;&gt;HXT_intermediate_r -->
<g id="edge2" class="edge"><title>GLCo&#45;&gt;HXT_intermediate_r</title>
<path fill="none" stroke="black" d="M59.6306,-590C76.1384,-590 93.8557,-590 94.9469,-590"/>
</g>
<!-- GLCi -->
<g id="GLCi [CHEBI:4167]" class="node"><title>GLCi</title>
<ellipse fill="none" stroke="black" cx="247" cy="-590" rx="28.6898" ry="18"/>
<text text-anchor="middle" x="247" y="-587.5" font-family="Times,serif" font-size="10.00">Glc(int)</text>
</g>
<!-- HK_intermediate_r -->
<g id="node30" class="node"><title>HK_intermediate_r</title>
<ellipse fill="black" stroke="black" cx="312" cy="-590" rx="0.036" ry="0.036"/>
</g>
<!-- GLCi&#45;&gt;HK_intermediate_r -->
<g id="edge6" class="edge"><title>GLCi&#45;&gt;HK_intermediate_r</title>
<path fill="none" stroke="black" d="M276.183,-590C292.433,-590 309.874,-590 310.948,-590"/>
</g>
<!-- ATP -->
<g id="ATP [CHEBI:15422]" class="node"><title>ATP</title>
<ellipse fill="none" stroke="black" cx="1823" cy="-391" rx="18" ry="18"/>
<text text-anchor="middle" x="1823" y="-388.5" font-family="Times,serif" font-size="10.00">ATP</text>
</g>
<!-- ATP&#45;&gt;HK_intermediate_r -->
<g id="edge7" class="edge"><title>ATP&#45;&gt;HK_intermediate_r</title>
<path fill="none" stroke="black" d="M1818.86,-408.812C1808.32,-462.325 1768.96,-618 1668,-618 398,-618 398,-618 398,-618 359.468,-618 315.821,-591.723 313.131,-590.08"/>
</g>
<!-- PFK_intermediate_r -->
<g id="node36" class="node"><title>PFK_intermediate_r</title>
<ellipse fill="black" stroke="black" cx="725" cy="-130" rx="0.036" ry="0.036"/>
</g>
<!-- ATP&#45;&gt;PFK_intermediate_r -->
<g id="edge16" class="edge"><title>ATP&#45;&gt;PFK_intermediate_r</title>
<path fill="none" stroke="black" d="M1814.62,-374.946C1785.07,-310.755 1676.41,-76 1668,-76 1180,-76 1180,-76 1180,-76 1120.82,-76 974.784,-104.166 916,-111 833.019,-120.647 729.298,-129.712 726.077,-129.993"/>
</g>
<!-- ATPase_intermediate_r -->
<g id="node67" class="node"><title>ATPase_intermediate_r</title>
<ellipse fill="black" stroke="black" cx="1891" cy="-391" rx="0.036" ry="0.036"/>
</g>
<!-- ATP&#45;&gt;ATPase_intermediate_r -->
<g id="edge71" class="edge"><title>ATP&#45;&gt;ATPase_intermediate_r</title>
<path fill="none" stroke="black" d="M1841.34,-391C1860.28,-391 1888.19,-391 1889.92,-391"/>
</g>
<!-- Glycogen_Branch_intermediate_r -->
<g id="node76" class="node"><title>Glycogen_Branch_intermediate_r</title>
<ellipse fill="black" stroke="black" cx="1891" cy="-542" rx="0.036" ry="0.036"/>
</g>
<!-- ATP&#45;&gt;Glycogen_Branch_intermediate_r -->
<g id="edge86" class="edge"><title>ATP&#45;&gt;Glycogen_Branch_intermediate_r</title>
<path fill="none" stroke="black" d="M1831.06,-407.16C1847.82,-445.505 1888.7,-539.017 1889.97,-541.93"/>
</g>
<!-- Trehalose_Branch_intermediate_r -->
<g id="node79" class="node"><title>Trehalose_Branch_intermediate_r</title>
<ellipse fill="black" stroke="black" cx="1891" cy="-216" rx="0.036" ry="0.036"/>
</g>
<!-- ATP&#45;&gt;Trehalose_Branch_intermediate_r -->
<g id="edge92" class="edge"><title>ATP&#45;&gt;Trehalose_Branch_intermediate_r</title>
<path fill="none" stroke="black" d="M1830.33,-374.22C1846.59,-331.104 1888.66,-219.558 1889.97,-216.083"/>
</g>
<!-- G6P -->
<g id="G6P [CHEBI:17665]" class="node"><title>G6P</title>
<ellipse fill="none" stroke="black" cx="454" cy="-486" rx="18" ry="18"/>
<text text-anchor="middle" x="454" y="-483.5" font-family="Times,serif" font-size="10.00">Glu6P</text>
</g>
<!-- PGI_intermediate_r -->
<g id="node33" class="node"><title>PGI_intermediate_r</title>
<ellipse fill="black" stroke="black" cx="509" cy="-303" rx="0.036" ry="0.036"/>
</g>
<!-- G6P&#45;&gt;PGI_intermediate_r -->
<g id="edge12" class="edge"><title>G6P&#45;&gt;PGI_intermediate_r</title>
<path fill="none" stroke="black" d="M459.986,-468.784C472.974,-423.94 506.917,-306.739 507.975,-303.087"/>
</g>
<!-- G6P&#45;&gt;Glycogen_Branch_intermediate_r -->
<g id="edge87" class="edge"><title>G6P&#45;&gt;Glycogen_Branch_intermediate_r</title>
<path fill="none" stroke="black" d="M471.648,-491.014C490.833,-496.34 523.397,-504 552,-504 552,-504 552,-504 726,-504 803.124,-504 804.876,-580 882,-580 882,-580 882,-580 1668,-580 1766.54,-580 1886.2,-543.178 1889.91,-542.028"/>
</g>
<!-- G6P&#45;&gt;Trehalose_Branch_intermediate_r -->
<g id="edge93" class="edge"><title>G6P&#45;&gt;Trehalose_Branch_intermediate_r</title>
<path fill="none" stroke="black" d="M454.682,-467.835C453.613,-379.606 454.668,-0 552,-0 552,-0 552,-0 1712,-0 1834.45,-0 1888.31,-209.303 1889.96,-215.843"/>
</g>
<!-- ADP -->
<g id="ADP [CHEBI:16761]" class="node"><title>ADP</title>
<ellipse fill="none" stroke="black" cx="883" cy="-376" rx="18" ry="18"/>
<text text-anchor="middle" x="883" y="-373.5" font-family="Times,serif" font-size="10.00">ADP</text>
</g>
<!-- PGK_intermediate_r -->
<g id="node49" class="node"><title>PGK_intermediate_r</title>
<ellipse fill="black" stroke="black" cx="953" cy="-405" rx="0.036" ry="0.036"/>
</g>
<!-- ADP&#45;&gt;PGK_intermediate_r -->
<g id="edge40" class="edge"><title>ADP&#45;&gt;PGK_intermediate_r</title>
<path fill="none" stroke="black" d="M899.771,-382.726C919.232,-391.025 950.003,-404.148 951.907,-404.96"/>
</g>
<!-- PYK_intermediate_r -->
<g id="node58" class="node"><title>PYK_intermediate_r</title>
<ellipse fill="black" stroke="black" cx="1667" cy="-298" rx="0.036" ry="0.036"/>
</g>
<!-- ADP&#45;&gt;PYK_intermediate_r -->
<g id="edge54" class="edge"><title>ADP&#45;&gt;PYK_intermediate_r</title>
<path fill="none" stroke="black" d="M894.657,-361.694C912.774,-339.176 951.927,-298 996,-298 996,-298 996,-298 1468,-298 1554.62,-298 1662.57,-298 1665.92,-298"/>
</g>
<!-- AK_intermediate_r -->
<g id="node70" class="node"><title>AK_intermediate_r</title>
<ellipse fill="black" stroke="black" cx="953" cy="-353" rx="0.036" ry="0.036"/>
</g>
<!-- ADP&#45;&gt;AK_intermediate_r -->
<g id="edge75" class="edge"><title>ADP&#45;&gt;AK_intermediate_r</title>
<path fill="none" stroke="black" d="M900.461,-370.432C919.957,-363.838 950.048,-353.66 951.909,-353.031"/>
</g>
<!-- F6P -->
<g id="F6P [CHEBI:16084]" class="node"><title>F6P</title>
<ellipse fill="none" stroke="black" cx="661" cy="-152" rx="27" ry="18"/>
<text text-anchor="middle" x="661" y="-149.5" font-family="Times,serif" font-size="10.00">Fru6&#45;P</text>
</g>
<!-- F6P&#45;&gt;PFK_intermediate_r -->
<g id="edge17" class="edge"><title>F6P&#45;&gt;PFK_intermediate_r</title>
<path fill="none" stroke="black" d="M685.087,-143.808C702.163,-137.749 722.673,-130.471 723.938,-130.022"/>
</g>
<!-- F16bP -->
<g id="F16bP [CHEBI:28013]" class="node"><title>F16bP</title>
<ellipse fill="none" stroke="black" cx="883" cy="-84" rx="32.9303" ry="18"/>
<text text-anchor="middle" x="883" y="-81.5" font-family="Times,serif" font-size="10.00">Fru1,6&#45;P2</text>
</g>
<!-- ALD_intermediate_r -->
<g id="node40" class="node"><title>ALD_intermediate_r</title>
<ellipse fill="black" stroke="black" cx="2137" cy="-51" rx="0.036" ry="0.036"/>
</g>
<!-- F16bP&#45;&gt;ALD_intermediate_r -->
<g id="edge25" class="edge"><title>F16bP&#45;&gt;ALD_intermediate_r</title>
<path fill="none" stroke="black" d="M913.175,-76.404C966.001,-63.3387 1081.19,-38 1180,-38 1180,-38 1180,-38 1980,-38 2048.49,-38 2133.3,-50.5969 2135.94,-50.9906"/>
</g>
<!-- AMP -->
<g id="AMP [CHEBI:16027]" class="node"><title>AMP</title>
<ellipse fill="none" stroke="black" cx="1111" cy="-252" rx="18" ry="18"/>
<text text-anchor="middle" x="1111" y="-249.5" font-family="Times,serif" font-size="10.00">AMP</text>
</g>
<!-- PFK_intermediate_m -->
<g id="node38" class="node"><title>PFK_intermediate_m</title>
<ellipse fill="black" stroke="black" cx="1181" cy="-160" rx="0.036" ry="0.036"/>
</g>
<!-- AMP&#45;&gt;PFK_intermediate_m -->
<g id="edge22" class="edge"><title>AMP&#45;&gt;PFK_intermediate_m</title>
<path fill="none" stroke="black" d="M1122.62,-237.625C1141.15,-212.559 1177.63,-163.209 1179.89,-160.149"/>
</g>
<!-- F26bP -->
<g id="F26bP [CHEBI:28602]" class="node"><title>F26bP</title>
<ellipse fill="none" stroke="black" cx="1111" cy="-160" rx="32.9303" ry="18"/>
<text text-anchor="middle" x="1111" y="-157.5" font-family="Times,serif" font-size="10.00">Fru2,6&#45;P2</text>
</g>
<!-- F26bP&#45;&gt;PFK_intermediate_m -->
<g id="edge23" class="edge"><title>F26bP&#45;&gt;PFK_intermediate_m</title>
<path fill="none" stroke="black" d="M1144.01,-160C1161.09,-160 1178.85,-160 1179.95,-160"/>
</g>
<!-- DHAP -->
<g id="DHAP [CHEBI:16108]" class="node"><title>DHAP</title>
<ellipse fill="none" stroke="black" cx="2322" cy="-122" rx="59.4099" ry="18"/>
<text text-anchor="middle" x="2322" y="-119.5" font-family="Times,serif" font-size="10.00">glycerone phosphate</text>
</g>
<!-- TPI_intermediate_r -->
<g id="node43" class="node"><title>TPI_intermediate_r</title>
<ellipse fill="black" stroke="black" cx="2419" cy="-121" rx="0.036" ry="0.036"/>
</g>
<!-- DHAP&#45;&gt;TPI_intermediate_r -->
<g id="edge30" class="edge"><title>DHAP&#45;&gt;TPI_intermediate_r</title>
<path fill="none" stroke="black" d="M2381.54,-121.384C2400.48,-121.184 2416.94,-121.011 2417.95,-121.001"/>
</g>
<!-- G3PDH_intermediate_r -->
<g id="node73" class="node"><title>G3PDH_intermediate_r</title>
<ellipse fill="black" stroke="black" cx="2419" cy="-206" rx="0.036" ry="0.036"/>
</g>
<!-- DHAP&#45;&gt;G3PDH_intermediate_r -->
<g id="edge80" class="edge"><title>DHAP&#45;&gt;G3PDH_intermediate_r</title>
<path fill="none" stroke="black" d="M2342.22,-138.999C2369.12,-162.777 2415.02,-203.364 2417.86,-205.877"/>
</g>
<!-- GAP -->
<g id="GAP [CHEBI:29052]" class="node"><title>GAP</title>
<ellipse fill="none" stroke="black" cx="2574" cy="-102" rx="18" ry="18"/>
<text text-anchor="middle" x="2574" y="-99.5" font-family="Times,serif" font-size="10.00">Gra3P</text>
</g>
<!-- GAPDH_intermediate_r -->
<g id="node46" class="node"><title>GAPDH_intermediate_r</title>
<ellipse fill="black" stroke="black" cx="2641" cy="-156" rx="0.036" ry="0.036"/>
</g>
<!-- GAP&#45;&gt;GAPDH_intermediate_r -->
<g id="edge34" class="edge"><title>GAP&#45;&gt;GAPDH_intermediate_r</title>
<path fill="none" stroke="black" d="M2588.47,-113.189C2606.91,-128.511 2637.98,-154.324 2639.91,-155.922"/>
</g>
<!-- NAD -->
<g id="NAD [CHEBI:15846]" class="node"><title>NAD</title>
<ellipse fill="none" stroke="black" cx="2574" cy="-156" rx="18" ry="18"/>
<text text-anchor="middle" x="2574" y="-153.5" font-family="Times,serif" font-size="10.00">NAD</text>
</g>
<!-- NAD&#45;&gt;GAPDH_intermediate_r -->
<g id="edge35" class="edge"><title>NAD&#45;&gt;GAPDH_intermediate_r</title>
<path fill="none" stroke="black" d="M2592.08,-156C2610.73,-156 2638.22,-156 2639.92,-156"/>
</g>
<!-- ADH_intermediate_r -->
<g id="node64" class="node"><title>ADH_intermediate_r</title>
<ellipse fill="black" stroke="black" cx="2641" cy="-264" rx="0.036" ry="0.036"/>
</g>
<!-- NAD&#45;&gt;ADH_intermediate_r -->
<g id="edge65" class="edge"><title>NAD&#45;&gt;ADH_intermediate_r</title>
<path fill="none" stroke="black" d="M2588.84,-166.832C2594.07,-171.415 2599.77,-177.064 2604,-183 2626.16,-214.069 2639.17,-260.958 2639.96,-263.859"/>
</g>
<!-- Succinate_Branch_intermediate_r -->
<g id="node82" class="node"><title>Succinate_Branch_intermediate_r</title>
<ellipse fill="black" stroke="black" cx="2137" cy="-257" rx="0.036" ry="0.036"/>
</g>
<!-- NAD&#45;&gt;Succinate_Branch_intermediate_r -->
<g id="edge98" class="edge"><title>NAD&#45;&gt;Succinate_Branch_intermediate_r</title>
<path fill="none" stroke="black" d="M2556.08,-159.28C2534.72,-163.132 2496.78,-169 2464,-169 2224,-169 2224,-169 2224,-169 2170.17,-169 2138.98,-254.271 2138.02,-256.936"/>
</g>
<!-- BPG -->
<g id="BPG [CHEBI:16001]" class="node"><title>BPG</title>
<ellipse fill="none" stroke="black" cx="2797" cy="-388" rx="31.3996" ry="18"/>
<text text-anchor="middle" x="2797" y="-385.5" font-family="Times,serif" font-size="10.00">Gri2,3P2</text>
</g>
<!-- BPG&#45;&gt;PGK_intermediate_r -->
<g id="edge41" class="edge"><title>BPG&#45;&gt;PGK_intermediate_r</title>
<path fill="none" stroke="black" d="M2783.81,-404.542C2765.4,-427.438 2728.14,-466 2686,-466 1040,-466 1040,-466 1040,-466 993.871,-466 955.225,-406.891 954.029,-405.044"/>
</g>
<!-- NADH -->
<g id="NADH [CHEBI:16908]" class="node"><title>NADH</title>
<ellipse fill="none" stroke="black" cx="2322" cy="-310" rx="18" ry="18"/>
<text text-anchor="middle" x="2322" y="-307.5" font-family="Times,serif" font-size="10.00">NADH</text>
</g>
<!-- NADH&#45;&gt;G3PDH_intermediate_r -->
<g id="edge81" class="edge"><title>NADH&#45;&gt;G3PDH_intermediate_r</title>
<path fill="none" stroke="black" d="M2339.59,-305.826C2352.53,-301.833 2370.24,-294.661 2382,-283 2407.98,-257.228 2417.41,-209.127 2417.97,-206.145"/>
</g>
<!-- P3G -->
<g id="P3G [CHEBI:17794]" class="node"><title>P3G</title>
<ellipse fill="none" stroke="black" cx="1111" cy="-382" rx="18" ry="18"/>
<text text-anchor="middle" x="1111" y="-379.5" font-family="Times,serif" font-size="10.00">Gri3P</text>
</g>
<!-- PGM_intermediate_r -->
<g id="node52" class="node"><title>PGM_intermediate_r</title>
<ellipse fill="black" stroke="black" cx="1181" cy="-382" rx="0.036" ry="0.036"/>
</g>
<!-- P3G&#45;&gt;PGM_intermediate_r -->
<g id="edge46" class="edge"><title>P3G&#45;&gt;PGM_intermediate_r</title>
<path fill="none" stroke="black" d="M1129.16,-382C1148.67,-382 1178.09,-382 1179.91,-382"/>
</g>
<!-- P2G -->
<g id="P2G [CHEBI:17835]" class="node"><title>P2G</title>
<ellipse fill="none" stroke="black" cx="1324" cy="-382" rx="18" ry="18"/>
<text text-anchor="middle" x="1324" y="-379.5" font-family="Times,serif" font-size="10.00">Gri2P</text>
</g>
<!-- ENO_intermediate_r -->
<g id="node55" class="node"><title>ENO_intermediate_r</title>
<ellipse fill="black" stroke="black" cx="1379" cy="-381" rx="0.036" ry="0.036"/>
</g>
<!-- P2G&#45;&gt;ENO_intermediate_r -->
<g id="edge50" class="edge"><title>P2G&#45;&gt;ENO_intermediate_r</title>
<path fill="none" stroke="black" d="M1342.06,-381.678C1357.07,-381.395 1376.73,-381.024 1377.94,-381.001"/>
</g>
<!-- PEP -->
<g id="PEP [CHEBI:18021]" class="node"><title>PEP</title>
<ellipse fill="none" stroke="black" cx="1567" cy="-344" rx="62.2967" ry="18"/>
<text text-anchor="middle" x="1567" y="-341.5" font-family="Times,serif" font-size="10.00">phosphoenolpyruvate</text>
</g>
<!-- PEP&#45;&gt;PYK_intermediate_r -->
<g id="edge55" class="edge"><title>PEP&#45;&gt;PYK_intermediate_r</title>
<path fill="none" stroke="black" d="M1600.63,-328.683C1628.25,-315.719 1663.7,-299.077 1665.89,-298.05"/>
</g>
<!-- PYR -->
<g id="PYR [CHEBI:15361]" class="node"><title>PYR</title>
<ellipse fill="none" stroke="black" cx="1823" cy="-262" rx="31.3996" ry="18"/>
<text text-anchor="middle" x="1823" y="-259.5" font-family="Times,serif" font-size="10.00">pyruvate</text>
</g>
<!-- PDC_intermediate_r -->
<g id="node61" class="node"><title>PDC_intermediate_r</title>
<ellipse fill="black" stroke="black" cx="1891" cy="-262" rx="0.036" ry="0.036"/>
</g>
<!-- PYR&#45;&gt;PDC_intermediate_r -->
<g id="edge60" class="edge"><title>PYR&#45;&gt;PDC_intermediate_r</title>
<path fill="none" stroke="black" d="M1854.3,-262C1871.1,-262 1888.85,-262 1889.95,-262"/>
</g>
<!-- AcAld -->
<g id="AcAld [CHEBI:15343]" class="node"><title>AcAld</title>
<ellipse fill="none" stroke="black" cx="2058" cy="-262" rx="41.5911" ry="18"/>
<text text-anchor="middle" x="2058" y="-259.5" font-family="Times,serif" font-size="10.00">acetaldehyde</text>
</g>
<!-- AcAld&#45;&gt;Succinate_Branch_intermediate_r -->
<g id="edge99" class="edge"><title>AcAld&#45;&gt;Succinate_Branch_intermediate_r</title>
<path fill="none" stroke="black" d="M2099.75,-259.354C2117.65,-258.192 2134.89,-257.072 2135.95,-257.003"/>
</g>
<!-- CO2 -->
<g id="CO2 [CHEBI:16526]" class="node"><title>CO2</title>
<ellipse fill="none" stroke="black" cx="2058" cy="-316" rx="18" ry="18"/>
<text text-anchor="middle" x="2058" y="-313.5" font-family="Times,serif" font-size="10.00">CO2</text>
</g>
<!-- EtOH -->
<g id="EtOH [CHEBI:16236]" class="node"><title>EtOH</title>
<ellipse fill="none" stroke="black" cx="2574" cy="-264" rx="27.8353" ry="18"/>
<text text-anchor="middle" x="2574" y="-261.5" font-family="Times,serif" font-size="10.00">ethanol</text>
</g>
<!-- EtOH&#45;&gt;ADH_intermediate_r -->
<g id="edge66" class="edge"><title>EtOH&#45;&gt;ADH_intermediate_r</title>
<path fill="none" stroke="black" d="M2601.81,-264C2619.16,-264 2638.73,-264 2639.94,-264"/>
</g>
<!-- Glycerol -->
<g id="Glycerol [CHEBI:17754]" class="node"><title>Glycerol</title>
<ellipse fill="none" stroke="black" cx="2574" cy="-210" rx="29.3664" ry="18"/>
<text text-anchor="middle" x="2574" y="-207.5" font-family="Times,serif" font-size="10.00">glycerol</text>
</g>
<!-- Glycogen -->
<g id="Glycogen [CHEBI:28087]" class="node"><title>Glycogen</title>
<ellipse fill="none" stroke="black" cx="2058" cy="-561" rx="32.2534" ry="18"/>
<text text-anchor="middle" x="2058" y="-558.5" font-family="Times,serif" font-size="10.00">glycogen</text>
</g>
<!-- Trehalose -->
<g id="Trehalose [CHEBI:16551]" class="node"><title>Trehalose</title>
<ellipse fill="none" stroke="black" cx="2058" cy="-193" rx="31.3996" ry="18"/>
<text text-anchor="middle" x="2058" y="-190.5" font-family="Times,serif" font-size="10.00">trehalose</text>
</g>
<!-- Succinate -->
<g id="Succinate [CHEBI:30031]" class="node"><title>Succinate</title>
<ellipse fill="none" stroke="black" cx="2322" cy="-256" rx="32.2534" ry="18"/>
<text text-anchor="middle" x="2322" y="-253.5" font-family="Times,serif" font-size="10.00">succinate</text>
</g>
<!-- HXT -->
<g id="node26" class="node"><title>HXT</title>
<polygon fill="none" stroke="black" points="146,-597 132,-597 132,-583 146,-583 146,-597"/>
</g>
<!-- HXT_intermediate_p -->
<g id="node28" class="node"><title>HXT_intermediate_p</title>
<ellipse fill="black" stroke="black" cx="182" cy="-590" rx="0.036" ry="0.036"/>
</g>
<!-- HXT&#45;&gt;HXT_intermediate_p -->
<g id="edge3" class="edge"><title>HXT&#45;&gt;HXT_intermediate_p</title>
<path fill="none" stroke="black" d="M146.05,-590C157.098,-590 179.54,-590 180.932,-590"/>
</g>
<!-- HXT_intermediate_r&#45;&gt;HXT -->
<g id="edge1" class="edge"><title>HXT_intermediate_r&#45;&gt;HXT</title>
<path fill="none" stroke="black" d="M97.1176,-590C98.9212,-590 121.016,-590 131.95,-590"/>
</g>
<!-- HXT_intermediate_p&#45;&gt;GLCi -->
<g id="edge4" class="edge"><title>HXT_intermediate_p&#45;&gt;GLCi</title>
<path fill="none" stroke="black" d="M183.046,-590C183.845,-590 195.037,-590 207.768,-590"/>
<polygon fill="black" stroke="black" points="208.138,-593.5 218.138,-590 208.138,-586.5 208.138,-593.5"/>
</g>
<!-- HK -->
<g id="node29" class="node"><title>HK</title>
<polygon fill="none" stroke="black" points="362,-570 348,-570 348,-556 362,-556 362,-570"/>
</g>
<!-- HK_intermediate_p -->
<g id="node31" class="node"><title>HK_intermediate_p</title>
<ellipse fill="black" stroke="black" cx="399" cy="-542" rx="0.036" ry="0.036"/>
</g>
<!-- HK&#45;&gt;HK_intermediate_p -->
<g id="edge8" class="edge"><title>HK&#45;&gt;HK_intermediate_p</title>
<path fill="none" stroke="black" d="M362.197,-559.901C373.515,-554.242 396.505,-542.748 397.93,-542.035"/>
</g>
<!-- HK_intermediate_r&#45;&gt;HK -->
<g id="edge5" class="edge"><title>HK_intermediate_r&#45;&gt;HK</title>
<path fill="none" stroke="black" d="M313.118,-589.923C314.921,-588.735 337.016,-574.185 347.95,-566.984"/>
</g>
<!-- HK_intermediate_p&#45;&gt;G6P -->
<g id="edge9" class="edge"><title>HK_intermediate_p&#45;&gt;G6P</title>
<path fill="none" stroke="black" d="M400.152,-541.839C401.951,-539.938 419.372,-521.531 433.728,-506.363"/>
<polygon fill="black" stroke="black" points="436.526,-508.499 440.857,-498.83 431.441,-503.687 436.526,-508.499"/>
</g>
<!-- HK_intermediate_p&#45;&gt;ADP -->
<g id="edge10" class="edge"><title>HK_intermediate_p&#45;&gt;ADP</title>
<path fill="none" stroke="black" d="M400.044,-542C401.872,-542 460.75,-542 508,-542 508,-542 508,-542 770,-542 835.935,-542 865.646,-450.891 876.617,-403.668"/>
<polygon fill="black" stroke="black" points="880.066,-404.283 878.793,-393.765 873.229,-402.781 880.066,-404.283"/>
</g>
<!-- PGI -->
<g id="node32" class="node"><title>PGI</title>
<polygon fill="none" stroke="black" points="560,-288 546,-288 546,-274 560,-274 560,-288"/>
</g>
<!-- PGI_intermediate_p -->
<g id="node34" class="node"><title>PGI_intermediate_p</title>
<ellipse fill="black" stroke="black" cx="597" cy="-195" rx="0.036" ry="0.036"/>
</g>
<!-- PGI&#45;&gt;PGI_intermediate_p -->
<g id="edge13" class="edge"><title>PGI&#45;&gt;PGI_intermediate_p</title>
<path fill="none" stroke="black" d="M557.437,-273.962C567.154,-254.065 594.235,-198.614 595.918,-195.168"/>
</g>
<!-- PGI_intermediate_r&#45;&gt;PGI -->
<g id="edge11" class="edge"><title>PGI_intermediate_r&#45;&gt;PGI</title>
<path fill="none" stroke="black" d="M510.12,-302.937C511.968,-301.969 534.602,-290.113 545.803,-284.246"/>
</g>
<!-- PGI_intermediate_p&#45;&gt;F6P -->
<g id="edge14" class="edge"><title>PGI_intermediate_p&#45;&gt;F6P</title>
<path fill="none" stroke="black" d="M598.045,-194.969C599.057,-194.267 616.969,-181.844 633.274,-170.536"/>
<polygon fill="black" stroke="black" points="635.333,-173.367 641.555,-164.792 631.344,-167.615 635.333,-173.367"/>
</g>
<!-- PFK -->
<g id="node35" class="node"><title>PFK</title>
<polygon fill="none" stroke="black" points="776,-96 762,-96 762,-82 776,-82 776,-96"/>
</g>
<!-- PFK_intermediate_p -->
<g id="node37" class="node"><title>PFK_intermediate_p</title>
<ellipse fill="black" stroke="black" cx="813" cy="-89" rx="0.036" ry="0.036"/>
</g>
<!-- PFK&#45;&gt;PFK_intermediate_p -->
<g id="edge18" class="edge"><title>PFK&#45;&gt;PFK_intermediate_p</title>
<path fill="none" stroke="black" d="M776.197,-89C787.515,-89 810.505,-89 811.93,-89"/>
</g>
<!-- PFK&#45;&gt;PFK_intermediate_m -->
<g id="edge21" class="edge"><title>PFK&#45;&gt;PFK_intermediate_m</title>
<path fill="none" stroke="black" d="M776.112,-83.9235C792.285,-71.0236 837.987,-38 882,-38 882,-38 882,-38 998,-38 1093.86,-38 1177.35,-156.217 1179.94,-159.912"/>
</g>
<!-- PFK_intermediate_r&#45;&gt;PFK -->
<g id="edge15" class="edge"><title>PFK_intermediate_r&#45;&gt;PFK</title>
<path fill="none" stroke="black" d="M726.12,-129.882C727.968,-128.079 750.602,-105.984 761.803,-95.0497"/>
</g>
<!-- PFK_intermediate_p&#45;&gt;ADP -->
<g id="edge19" class="edge"><title>PFK_intermediate_p&#45;&gt;ADP</title>
<path fill="none" stroke="black" d="M814.012,-89.0523C814.856,-92.6116 858.536,-276.966 875.428,-348.264"/>
<polygon fill="black" stroke="black" points="872.098,-349.387 877.809,-358.311 878.909,-347.773 872.098,-349.387"/>
</g>
<!-- PFK_intermediate_p&#45;&gt;F16bP -->
<g id="edge20" class="edge"><title>PFK_intermediate_p&#45;&gt;F16bP</title>
<path fill="none" stroke="black" d="M814.049,-88.9964C814.889,-88.9346 826.343,-88.0924 839.615,-87.1166"/>
<polygon fill="black" stroke="black" points="840.256,-90.5789 849.973,-86.355 839.743,-83.5978 840.256,-90.5789"/>
</g>
<!-- ALD -->
<g id="node39" class="node"><title>ALD</title>
<polygon fill="none" stroke="black" points="2188,-78 2174,-78 2174,-64 2188,-64 2188,-78"/>
</g>
<!-- ALD_intermediate_p -->
<g id="node41" class="node"><title>ALD_intermediate_p</title>
<ellipse fill="black" stroke="black" cx="2225" cy="-76" rx="0.036" ry="0.036"/>
</g>
<!-- ALD&#45;&gt;ALD_intermediate_p -->
<g id="edge26" class="edge"><title>ALD&#45;&gt;ALD_intermediate_p</title>
<path fill="none" stroke="black" d="M2188.2,-71.7378C2199.52,-73.0851 2222.5,-75.822 2223.93,-75.9917"/>
</g>
<!-- ALD_intermediate_r&#45;&gt;ALD -->
<g id="edge24" class="edge"><title>ALD_intermediate_r&#45;&gt;ALD</title>
<path fill="none" stroke="black" d="M2138.12,-51.0574C2139.97,-51.9372 2162.6,-62.715 2173.8,-68.0489"/>
</g>
<!-- ALD_intermediate_p&#45;&gt;DHAP -->
<g id="edge27" class="edge"><title>ALD_intermediate_p&#45;&gt;DHAP</title>
<path fill="none" stroke="black" d="M2226.07,-76.0333C2227.63,-76.7893 2255.46,-90.2642 2280.58,-102.43"/>
<polygon fill="black" stroke="black" points="2279.14,-105.618 2289.66,-106.826 2282.19,-99.3181 2279.14,-105.618"/>
</g>
<!-- ALD_intermediate_p&#45;&gt;GAP -->
<g id="edge28" class="edge"><title>ALD_intermediate_p&#45;&gt;GAP</title>
<path fill="none" stroke="black" d="M2226.08,-76C2229.33,-76 2334,-76 2418,-76 2418,-76 2418,-76 2464,-76 2493.22,-76 2525.68,-84.9515 2547.51,-92.3497"/>
<polygon fill="black" stroke="black" points="2546.44,-95.6817 2557.03,-95.7061 2548.77,-89.08 2546.44,-95.6817"/>
</g>
<!-- TPI -->
<g id="node42" class="node"><title>TPI</title>
<polygon fill="none" stroke="black" points="2470,-123 2456,-123 2456,-109 2470,-109 2470,-123"/>
</g>
<!-- TPI_intermediate_p -->
<g id="node44" class="node"><title>TPI_intermediate_p</title>
<ellipse fill="black" stroke="black" cx="2507" cy="-115" rx="0.036" ry="0.036"/>
</g>
<!-- TPI&#45;&gt;TPI_intermediate_p -->
<g id="edge31" class="edge"><title>TPI&#45;&gt;TPI_intermediate_p</title>
<path fill="none" stroke="black" d="M2470.2,-115.852C2481.52,-115.583 2504.5,-115.036 2505.93,-115.002"/>
</g>
<!-- TPI_intermediate_r&#45;&gt;TPI -->
<g id="edge29" class="edge"><title>TPI_intermediate_r&#45;&gt;TPI</title>
<path fill="none" stroke="black" d="M2420.12,-120.986C2421.97,-120.766 2444.6,-118.071 2455.8,-116.738"/>
</g>
<!-- TPI_intermediate_p&#45;&gt;GAP -->
<g id="edge32" class="edge"><title>TPI_intermediate_p&#45;&gt;GAP</title>
<path fill="none" stroke="black" d="M2508.05,-114.991C2509.13,-114.773 2528.8,-110.84 2546.21,-107.358"/>
<polygon fill="black" stroke="black" points="2546.92,-110.784 2556.04,-105.391 2545.55,-103.92 2546.92,-110.784"/>
</g>
<!-- GAPDH -->
<g id="node45" class="node"><title>GAPDH</title>
<polygon fill="none" stroke="black" points="2692,-223 2678,-223 2678,-209 2692,-209 2692,-223"/>
</g>
<!-- GAPDH_intermediate_p -->
<g id="node47" class="node"><title>GAPDH_intermediate_p</title>
<ellipse fill="black" stroke="black" cx="2729" cy="-310" rx="0.036" ry="0.036"/>
</g>
<!-- GAPDH&#45;&gt;GAPDH_intermediate_p -->
<g id="edge36" class="edge"><title>GAPDH&#45;&gt;GAPDH_intermediate_p</title>
<path fill="none" stroke="black" d="M2689.16,-223.065C2698.77,-244.584 2727.1,-307.977 2727.98,-309.953"/>
</g>
<!-- GAPDH_intermediate_r&#45;&gt;GAPDH -->
<g id="edge33" class="edge"><title>GAPDH_intermediate_r&#45;&gt;GAPDH</title>
<path fill="none" stroke="black" d="M2642.03,-156.043C2643.02,-157.463 2668.08,-193.259 2679,-208.852"/>
</g>
<!-- GAPDH_intermediate_p&#45;&gt;BPG -->
<g id="edge37" class="edge"><title>GAPDH_intermediate_p&#45;&gt;BPG</title>
<path fill="none" stroke="black" d="M2730.05,-310.057C2731.3,-311.536 2756.85,-341.728 2775.77,-364.092"/>
<polygon fill="black" stroke="black" points="2773.25,-366.536 2782.38,-371.909 2778.6,-362.015 2773.25,-366.536"/>
</g>
<!-- GAPDH_intermediate_p&#45;&gt;NADH -->
<g id="edge38" class="edge"><title>GAPDH_intermediate_p&#45;&gt;NADH</title>
<path fill="none" stroke="black" d="M2727.86,-310C2725.02,-310 2679.03,-310 2642,-310 2462,-310 2462,-310 2462,-310 2423.23,-310 2378.37,-310 2350.34,-310"/>
<polygon fill="black" stroke="black" points="2350.12,-306.5 2340.12,-310 2350.12,-313.5 2350.12,-306.5"/>
</g>
<!-- PGK -->
<g id="node48" class="node"><title>PGK</title>
<polygon fill="none" stroke="black" points="1004,-412 990,-412 990,-398 1004,-398 1004,-412"/>
</g>
<!-- PGK_intermediate_p -->
<g id="node50" class="node"><title>PGK_intermediate_p</title>
<ellipse fill="black" stroke="black" cx="1041" cy="-405" rx="0.036" ry="0.036"/>
</g>
<!-- PGK&#45;&gt;PGK_intermediate_p -->
<g id="edge42" class="edge"><title>PGK&#45;&gt;PGK_intermediate_p</title>
<path fill="none" stroke="black" d="M1004.2,-405C1015.52,-405 1038.5,-405 1039.93,-405"/>
</g>
<!-- PGK_intermediate_r&#45;&gt;PGK -->
<g id="edge39" class="edge"><title>PGK_intermediate_r&#45;&gt;PGK</title>
<path fill="none" stroke="black" d="M954.12,-405C955.968,-405 978.602,-405 989.803,-405"/>
</g>
<!-- PGK_intermediate_p&#45;&gt;ATP -->
<g id="edge43" class="edge"><title>PGK_intermediate_p&#45;&gt;ATP</title>
<path fill="none" stroke="black" d="M1042.06,-405.017C1044.37,-405.713 1118.79,-428 1180,-428 1180,-428 1180,-428 1712,-428 1742.75,-428 1775.93,-414.849 1797.72,-404.227"/>
<polygon fill="black" stroke="black" points="1799.54,-407.227 1806.88,-399.582 1796.37,-400.985 1799.54,-407.227"/>
</g>
<!-- PGK_intermediate_p&#45;&gt;P3G -->
<g id="edge44" class="edge"><title>PGK_intermediate_p&#45;&gt;P3G</title>
<path fill="none" stroke="black" d="M1042.05,-404.983C1043.23,-404.584 1065.35,-397.101 1084.04,-390.78"/>
<polygon fill="black" stroke="black" points="1085.29,-394.052 1093.64,-387.533 1083.05,-387.421 1085.29,-394.052"/>
</g>
<!-- PGM -->
<g id="node51" class="node"><title>PGM</title>
<polygon fill="none" stroke="black" points="1232,-389 1218,-389 1218,-375 1232,-375 1232,-389"/>
</g>
<!-- PGM_intermediate_p -->
<g id="node53" class="node"><title>PGM_intermediate_p</title>
<ellipse fill="black" stroke="black" cx="1269" cy="-382" rx="0.036" ry="0.036"/>
</g>
<!-- PGM&#45;&gt;PGM_intermediate_p -->
<g id="edge47" class="edge"><title>PGM&#45;&gt;PGM_intermediate_p</title>
<path fill="none" stroke="black" d="M1232.2,-382C1243.52,-382 1266.5,-382 1267.93,-382"/>
</g>
<!-- PGM_intermediate_r&#45;&gt;PGM -->
<g id="edge45" class="edge"><title>PGM_intermediate_r&#45;&gt;PGM</title>
<path fill="none" stroke="black" d="M1182.12,-382C1183.97,-382 1206.6,-382 1217.8,-382"/>
</g>
<!-- PGM_intermediate_p&#45;&gt;P2G -->
<g id="edge48" class="edge"><title>PGM_intermediate_p&#45;&gt;P2G</title>
<path fill="none" stroke="black" d="M1270.15,-382C1271.63,-382 1283.68,-382 1295.9,-382"/>
<polygon fill="black" stroke="black" points="1295.98,-385.5 1305.98,-382 1295.98,-378.5 1295.98,-385.5"/>
</g>
<!-- ENO -->
<g id="node54" class="node"><title>ENO</title>
<polygon fill="none" stroke="black" points="1430,-383 1416,-383 1416,-369 1430,-369 1430,-383"/>
</g>
<!-- ENO_intermediate_p -->
<g id="node56" class="node"><title>ENO_intermediate_p</title>
<ellipse fill="black" stroke="black" cx="1467" cy="-374" rx="0.036" ry="0.036"/>
</g>
<!-- ENO&#45;&gt;ENO_intermediate_p -->
<g id="edge51" class="edge"><title>ENO&#45;&gt;ENO_intermediate_p</title>
<path fill="none" stroke="black" d="M1430.2,-375.705C1441.52,-375.166 1464.5,-374.071 1465.93,-374.003"/>
</g>
<!-- ENO_intermediate_r&#45;&gt;ENO -->
<g id="edge49" class="edge"><title>ENO_intermediate_r&#45;&gt;ENO</title>
<path fill="none" stroke="black" d="M1380.12,-380.986C1381.97,-380.766 1404.6,-378.071 1415.8,-376.738"/>
</g>
<!-- ENO_intermediate_p&#45;&gt;PEP -->
<g id="edge52" class="edge"><title>ENO_intermediate_p&#45;&gt;PEP</title>
<path fill="none" stroke="black" d="M1468.07,-373.978C1469.47,-373.551 1491.18,-366.904 1513.81,-359.978"/>
<polygon fill="black" stroke="black" points="1514.96,-363.284 1523.5,-357.01 1512.91,-356.59 1514.96,-363.284"/>
</g>
<!-- PYK -->
<g id="node57" class="node"><title>PYK</title>
<polygon fill="none" stroke="black" points="1718,-266 1704,-266 1704,-252 1718,-252 1718,-266"/>
</g>
<!-- PYK_intermediate_p -->
<g id="node59" class="node"><title>PYK_intermediate_p</title>
<ellipse fill="black" stroke="black" cx="1755" cy="-233" rx="0.036" ry="0.036"/>
</g>
<!-- PYK&#45;&gt;PYK_intermediate_p -->
<g id="edge56" class="edge"><title>PYK&#45;&gt;PYK_intermediate_p</title>
<path fill="none" stroke="black" d="M1718.2,-255.164C1729.52,-248.157 1752.5,-233.926 1753.93,-233.043"/>
</g>
<!-- PYK_intermediate_r&#45;&gt;PYK -->
<g id="edge53" class="edge"><title>PYK_intermediate_r&#45;&gt;PYK</title>
<path fill="none" stroke="black" d="M1668.12,-297.888C1669.97,-296.172 1692.6,-275.156 1703.8,-264.755"/>
</g>
<!-- PYK_intermediate_p&#45;&gt;ATP -->
<g id="edge57" class="edge"><title>PYK_intermediate_p&#45;&gt;ATP</title>
<path fill="none" stroke="black" d="M1756.05,-233.115C1757.53,-236.652 1792.86,-321.251 1811.19,-365.122"/>
<polygon fill="black" stroke="black" points="1808.06,-366.697 1815.14,-374.575 1814.51,-363.999 1808.06,-366.697"/>
</g>
<!-- PYK_intermediate_p&#45;&gt;PYR -->
<g id="edge58" class="edge"><title>PYK_intermediate_p&#45;&gt;PYR</title>
<path fill="none" stroke="black" d="M1756.05,-233.021C1757.02,-233.448 1772.66,-240.32 1788.46,-247.264"/>
<polygon fill="black" stroke="black" points="1787.11,-250.494 1797.68,-251.312 1789.93,-244.085 1787.11,-250.494"/>
</g>
<!-- PDC -->
<g id="node60" class="node"><title>PDC</title>
<polygon fill="none" stroke="black" points="1942,-269 1928,-269 1928,-255 1942,-255 1942,-269"/>
</g>
<!-- PDC_intermediate_p -->
<g id="node62" class="node"><title>PDC_intermediate_p</title>
<ellipse fill="black" stroke="black" cx="1979" cy="-262" rx="0.036" ry="0.036"/>
</g>
<!-- PDC&#45;&gt;PDC_intermediate_p -->
<g id="edge61" class="edge"><title>PDC&#45;&gt;PDC_intermediate_p</title>
<path fill="none" stroke="black" d="M1942.2,-262C1953.52,-262 1976.5,-262 1977.93,-262"/>
</g>
<!-- PDC_intermediate_r&#45;&gt;PDC -->
<g id="edge59" class="edge"><title>PDC_intermediate_r&#45;&gt;PDC</title>
<path fill="none" stroke="black" d="M1892.12,-262C1893.97,-262 1916.6,-262 1927.8,-262"/>
</g>
<!-- PDC_intermediate_p&#45;&gt;AcAld -->
<g id="edge62" class="edge"><title>PDC_intermediate_p&#45;&gt;AcAld</title>
<path fill="none" stroke="black" d="M1980.06,-262C1980.94,-262 1992.1,-262 2005.66,-262"/>
<polygon fill="black" stroke="black" points="2005.85,-265.5 2015.85,-262 2005.85,-258.5 2005.85,-265.5"/>
</g>
<!-- PDC_intermediate_p&#45;&gt;CO2 -->
<g id="edge63" class="edge"><title>PDC_intermediate_p&#45;&gt;CO2</title>
<path fill="none" stroke="black" d="M1980.06,-262.045C1981.22,-262.965 2000.15,-277.854 2016,-289 2021.67,-292.99 2027.88,-297.171 2033.71,-301.019"/>
<polygon fill="black" stroke="black" points="2032.15,-304.177 2042.43,-306.717 2035.98,-298.317 2032.15,-304.177"/>
</g>
<!-- ADH -->
<g id="node63" class="node"><title>ADH</title>
<polygon fill="none" stroke="black" points="2692,-352 2678,-352 2678,-338 2692,-338 2692,-352"/>
</g>
<!-- ADH_intermediate_p -->
<g id="node65" class="node"><title>ADH_intermediate_p</title>
<ellipse fill="black" stroke="black" cx="2729" cy="-380" rx="0.036" ry="0.036"/>
</g>
<!-- ADH&#45;&gt;ADH_intermediate_p -->
<g id="edge67" class="edge"><title>ADH&#45;&gt;ADH_intermediate_p</title>
<path fill="none" stroke="black" d="M2692.2,-350.164C2703.52,-359.596 2726.5,-378.754 2727.93,-379.942"/>
</g>
<!-- ADH_intermediate_r&#45;&gt;ADH -->
<g id="edge64" class="edge"><title>ADH_intermediate_r&#45;&gt;ADH</title>
<path fill="none" stroke="black" d="M2642.03,-264.059C2643.06,-266.052 2670.12,-318.24 2680.24,-337.741"/>
</g>
<!-- ADH_intermediate_p&#45;&gt;NADH -->
<g id="edge68" class="edge"><title>ADH_intermediate_p&#45;&gt;NADH</title>
<path fill="none" stroke="black" d="M2727.86,-380C2725.02,-380 2679.03,-380 2642,-380 2462,-380 2462,-380 2462,-380 2416.12,-380 2369.95,-349.202 2344.06,-328.463"/>
<polygon fill="black" stroke="black" points="2346.02,-325.547 2336.09,-321.875 2341.56,-330.943 2346.02,-325.547"/>
</g>
<!-- ADH_intermediate_p&#45;&gt;AcAld -->
<g id="edge69" class="edge"><title>ADH_intermediate_p&#45;&gt;AcAld</title>
<path fill="none" stroke="black" d="M2727.87,-380.109C2725.24,-382.338 2682.48,-418 2642,-418 2180,-418 2180,-418 2180,-418 2112.54,-418 2147.05,-337.349 2100,-289 2097.68,-286.618 2095.12,-284.335 2092.44,-282.176"/>
<polygon fill="black" stroke="black" points="2094.31,-279.205 2084.18,-276.098 2090.16,-284.843 2094.31,-279.205"/>
</g>
<!-- ATPase -->
<g id="node66" class="node"><title>ATPase</title>
<polygon fill="none" stroke="black" points="1942,-399 1928,-399 1928,-385 1942,-385 1942,-399"/>
</g>
<!-- ATPase_intermediate_p -->
<g id="node68" class="node"><title>ATPase_intermediate_p</title>
<ellipse fill="black" stroke="black" cx="1979" cy="-410" rx="0.036" ry="0.036"/>
</g>
<!-- ATPase&#45;&gt;ATPase_intermediate_p -->
<g id="edge72" class="edge"><title>ATPase&#45;&gt;ATPase_intermediate_p</title>
<path fill="none" stroke="black" d="M1942.2,-394.656C1953.52,-399.506 1976.5,-409.359 1977.93,-409.97"/>
</g>
<!-- ATPase_intermediate_r&#45;&gt;ATPase -->
<g id="edge70" class="edge"><title>ATPase_intermediate_r&#45;&gt;ATPase</title>
<path fill="none" stroke="black" d="M1892.12,-391.003C1893.97,-391.047 1916.6,-391.586 1927.8,-391.852"/>
</g>
<!-- ATPase_intermediate_p&#45;&gt;ADP -->
<g id="edge73" class="edge"><title>ATPase_intermediate_p&#45;&gt;ADP</title>
<path fill="none" stroke="black" d="M1977.95,-410.068C1975.69,-412.915 1902.93,-504 1824,-504 996,-504 996,-504 996,-504 942.559,-504 908.702,-440.025 893.448,-402.531"/>
<polygon fill="black" stroke="black" points="896.525,-400.786 889.639,-392.734 890.001,-403.322 896.525,-400.786"/>
</g>
<!-- AK -->
<g id="node69" class="node"><title>AK</title>
<polygon fill="none" stroke="black" points="1004,-349 990,-349 990,-335 1004,-335 1004,-349"/>
</g>
<!-- AK_intermediate_p -->
<g id="node71" class="node"><title>AK_intermediate_p</title>
<ellipse fill="black" stroke="black" cx="1041" cy="-336" rx="0.036" ry="0.036"/>
</g>
<!-- AK&#45;&gt;AK_intermediate_p -->
<g id="edge76" class="edge"><title>AK&#45;&gt;AK_intermediate_p</title>
<path fill="none" stroke="black" d="M1004.2,-341.115C1015.52,-339.498 1038.5,-336.214 1039.93,-336.01"/>
</g>
<!-- AK_intermediate_r&#45;&gt;AK -->
<g id="edge74" class="edge"><title>AK_intermediate_r&#45;&gt;AK</title>
<path fill="none" stroke="black" d="M954.12,-352.968C955.968,-352.485 978.602,-346.557 989.803,-343.623"/>
</g>
<!-- AK_intermediate_p&#45;&gt;ATP -->
<g id="edge77" class="edge"><title>AK_intermediate_p&#45;&gt;ATP</title>
<path fill="none" stroke="black" d="M1042.06,-336C1044.39,-336 1119.62,-336 1180,-336 1180,-336 1180,-336 1270,-336 1447.63,-336 1488.37,-390 1666,-390 1666,-390 1666,-390 1712,-390 1740.23,-390 1772.53,-390.333 1794.79,-390.615"/>
<polygon fill="black" stroke="black" points="1794.81,-394.116 1804.85,-390.748 1794.9,-387.116 1794.81,-394.116"/>
</g>
<!-- AK_intermediate_p&#45;&gt;AMP -->
<g id="edge78" class="edge"><title>AK_intermediate_p&#45;&gt;AMP</title>
<path fill="none" stroke="black" d="M1042.05,-335.939C1043.41,-334.259 1072.61,-298.188 1092.28,-273.884"/>
<polygon fill="black" stroke="black" points="1095.21,-275.828 1098.79,-265.853 1089.77,-271.424 1095.21,-275.828"/>
</g>
<!-- G3PDH -->
<g id="node72" class="node"><title>G3PDH</title>
<polygon fill="none" stroke="black" points="2470,-213 2456,-213 2456,-199 2470,-199 2470,-213"/>
</g>
<!-- G3PDH_intermediate_p -->
<g id="node74" class="node"><title>G3PDH_intermediate_p</title>
<ellipse fill="black" stroke="black" cx="2507" cy="-206" rx="0.036" ry="0.036"/>
</g>
<!-- G3PDH&#45;&gt;G3PDH_intermediate_p -->
<g id="edge82" class="edge"><title>G3PDH&#45;&gt;G3PDH_intermediate_p</title>
<path fill="none" stroke="black" d="M2470.2,-206C2481.52,-206 2504.5,-206 2505.93,-206"/>
</g>
<!-- G3PDH_intermediate_r&#45;&gt;G3PDH -->
<g id="edge79" class="edge"><title>G3PDH_intermediate_r&#45;&gt;G3PDH</title>
<path fill="none" stroke="black" d="M2420.12,-206C2421.97,-206 2444.6,-206 2455.8,-206"/>
</g>
<!-- G3PDH_intermediate_p&#45;&gt;NAD -->
<g id="edge83" class="edge"><title>G3PDH_intermediate_p&#45;&gt;NAD</title>
<path fill="none" stroke="black" d="M2508.05,-205.964C2509.24,-205.046 2532.87,-186.871 2551.28,-172.705"/>
<polygon fill="black" stroke="black" points="2553.49,-175.425 2559.28,-166.554 2549.22,-169.877 2553.49,-175.425"/>
</g>
<!-- G3PDH_intermediate_p&#45;&gt;Glycerol -->
<g id="edge84" class="edge"><title>G3PDH_intermediate_p&#45;&gt;Glycerol</title>
<path fill="none" stroke="black" d="M2508.05,-206.003C2508.89,-206.055 2521.06,-206.804 2534.63,-207.639"/>
<polygon fill="black" stroke="black" points="2534.43,-211.133 2544.63,-208.254 2534.86,-204.146 2534.43,-211.133"/>
</g>
<!-- Glycogen_Branch -->
<g id="node75" class="node"><title>Glycogen_Branch</title>
<polygon fill="none" stroke="black" points="1942,-550 1928,-550 1928,-536 1942,-536 1942,-550"/>
</g>
<!-- Glycogen_Branch_intermediate_p -->
<g id="node77" class="node"><title>Glycogen_Branch_intermediate_p</title>
<ellipse fill="black" stroke="black" cx="1979" cy="-561" rx="0.036" ry="0.036"/>
</g>
<!-- Glycogen_Branch&#45;&gt;Glycogen_Branch_intermediate_p -->
<g id="edge88" class="edge"><title>Glycogen_Branch&#45;&gt;Glycogen_Branch_intermediate_p</title>
<path fill="none" stroke="black" d="M1942.2,-545.656C1953.52,-550.506 1976.5,-560.359 1977.93,-560.97"/>
</g>
<!-- Glycogen_Branch_intermediate_r&#45;&gt;Glycogen_Branch -->
<g id="edge85" class="edge"><title>Glycogen_Branch_intermediate_r&#45;&gt;Glycogen_Branch</title>
<path fill="none" stroke="black" d="M1892.12,-542.003C1893.97,-542.047 1916.6,-542.586 1927.8,-542.852"/>
</g>
<!-- Glycogen_Branch_intermediate_p&#45;&gt;ADP -->
<g id="edge89" class="edge"><title>Glycogen_Branch_intermediate_p&#45;&gt;ADP</title>
<path fill="none" stroke="black" d="M1977.92,-560.998C1976.27,-560.957 1949.51,-560.276 1928,-559 1831.87,-553.297 1808.3,-542 1712,-542 996,-542 996,-542 996,-542 930.065,-542 900.354,-450.891 889.383,-403.668"/>
<polygon fill="black" stroke="black" points="892.771,-402.781 887.207,-393.765 885.934,-404.283 892.771,-402.781"/>
</g>
<!-- Glycogen_Branch_intermediate_p&#45;&gt;Glycogen -->
<g id="edge90" class="edge"><title>Glycogen_Branch_intermediate_p&#45;&gt;Glycogen</title>
<path fill="none" stroke="black" d="M1980.06,-561C1981.14,-561 1997.76,-561 2015.28,-561"/>
<polygon fill="black" stroke="black" points="2015.58,-564.5 2025.58,-561 2015.58,-557.5 2015.58,-564.5"/>
</g>
<!-- Trehalose_Branch -->
<g id="node78" class="node"><title>Trehalose_Branch</title>
<polygon fill="none" stroke="black" points="1942,-221 1928,-221 1928,-207 1942,-207 1942,-221"/>
</g>
<!-- Trehalose_Branch_intermediate_p -->
<g id="node80" class="node"><title>Trehalose_Branch_intermediate_p</title>
<ellipse fill="black" stroke="black" cx="1979" cy="-193" rx="0.036" ry="0.036"/>
</g>
<!-- Trehalose_Branch&#45;&gt;Trehalose_Branch_intermediate_p -->
<g id="edge94" class="edge"><title>Trehalose_Branch&#45;&gt;Trehalose_Branch_intermediate_p</title>
<path fill="none" stroke="black" d="M1942.2,-210.901C1953.52,-205.242 1976.5,-193.748 1977.93,-193.035"/>
</g>
<!-- Trehalose_Branch_intermediate_r&#45;&gt;Trehalose_Branch -->
<g id="edge91" class="edge"><title>Trehalose_Branch_intermediate_r&#45;&gt;Trehalose_Branch</title>
<path fill="none" stroke="black" d="M1892.12,-215.994C1893.97,-215.906 1916.6,-214.828 1927.8,-214.295"/>
</g>
<!-- Trehalose_Branch_intermediate_p&#45;&gt;ADP -->
<g id="edge95" class="edge"><title>Trehalose_Branch_intermediate_p&#45;&gt;ADP</title>
<path fill="none" stroke="black" d="M1977.87,-192.992C1972.63,-192.659 1803.71,-182 1668,-182 1566,-182 1566,-182 1566,-182 1332.87,-182 1275.13,-206 1042,-206 996,-206 996,-206 996,-206 928.664,-206 899.521,-300.157 889.018,-348.324"/>
<polygon fill="black" stroke="black" points="885.588,-347.628 886.999,-358.128 892.444,-349.04 885.588,-347.628"/>
</g>
<!-- Trehalose_Branch_intermediate_p&#45;&gt;Trehalose -->
<g id="edge96" class="edge"><title>Trehalose_Branch_intermediate_p&#45;&gt;Trehalose</title>
<path fill="none" stroke="black" d="M1980.06,-193C1981.15,-193 1998.23,-193 2016.02,-193"/>
<polygon fill="black" stroke="black" points="2016.46,-196.5 2026.46,-193 2016.46,-189.5 2016.46,-196.5"/>
</g>
<!-- Succinate_Branch -->
<g id="node81" class="node"><title>Succinate_Branch</title>
<polygon fill="none" stroke="black" points="2188,-264 2174,-264 2174,-250 2188,-250 2188,-264"/>
</g>
<!-- Succinate_Branch_intermediate_p -->
<g id="node83" class="node"><title>Succinate_Branch_intermediate_p</title>
<ellipse fill="black" stroke="black" cx="2225" cy="-257" rx="0.036" ry="0.036"/>
</g>
<!-- Succinate_Branch&#45;&gt;Succinate_Branch_intermediate_p -->
<g id="edge100" class="edge"><title>Succinate_Branch&#45;&gt;Succinate_Branch_intermediate_p</title>
<path fill="none" stroke="black" d="M2188.2,-257C2199.52,-257 2222.5,-257 2223.93,-257"/>
</g>
<!-- Succinate_Branch_intermediate_r&#45;&gt;Succinate_Branch -->
<g id="edge97" class="edge"><title>Succinate_Branch_intermediate_r&#45;&gt;Succinate_Branch</title>
<path fill="none" stroke="black" d="M2138.12,-257C2139.97,-257 2162.6,-257 2173.8,-257"/>
</g>
<!-- Succinate_Branch_intermediate_p&#45;&gt;NADH -->
<g id="edge101" class="edge"><title>Succinate_Branch_intermediate_p&#45;&gt;NADH</title>
<path fill="none" stroke="black" d="M2226.05,-257.046C2227.18,-257.998 2245.48,-273.378 2262,-283 2272.73,-289.25 2285.16,-295.124 2295.84,-299.787"/>
<polygon fill="black" stroke="black" points="2294.48,-303.012 2305.05,-303.705 2297.22,-296.571 2294.48,-303.012"/>
</g>
<!-- Succinate_Branch_intermediate_p&#45;&gt;Succinate -->
<g id="edge102" class="edge"><title>Succinate_Branch_intermediate_p&#45;&gt;Succinate</title>
<path fill="none" stroke="black" d="M2226.07,-256.999C2227.6,-256.983 2254.56,-256.699 2279.35,-256.438"/>
<polygon fill="black" stroke="black" points="2279.44,-259.938 2289.4,-256.333 2279.37,-252.938 2279.44,-259.938"/>
</g>
</g>
</svg>
