<?xml version="1.0" encoding="UTF-8" standalone="no"?>
<!DOCTYPE svg PUBLIC "-//W3C//DTD SVG 1.1//EN"
 "http://www.w3.org/Graphics/SVG/1.1/DTD/svg11.dtd">
<!-- Generated by graphviz version 2.24.0 (20090616.2323)
 -->
<!-- Title: G Pages: 1 -->
<svg width="2214pt" height="458pt"
 viewBox="0.00 0.00 2214.00 458.00" xmlns="http://www.w3.org/2000/svg" xmlns:xlink="http://www.w3.org/1999/xlink">
<g id="graph1" class="graph" transform="scale(1 1) rotate(0) translate(4 454)">
<title>G</title>
<polygon fill="white" stroke="white" points="-4,5 -4,-454 2211,-454 2211,5 -4,5"/>
<!-- NADH -->
<g id="node1" class="node"><title>NADH</title>
<ellipse fill="none" stroke="black" cx="252" cy="-183" rx="18" ry="18"/>
<text text-anchor="middle" x="252" y="-180.5" font-family="Times Roman,serif" font-size="10.00">NADH</text>
</g>
<!-- v1_intermediate_r -->
<g id="node18" class="node"><title>v1_intermediate_r</title>
<ellipse fill="black" stroke="black" cx="307" cy="-389" rx="0.036" ry="0.036"/>
</g>
<!-- NADH&#45;&gt;v1_intermediate_r -->
<g id="edge4" class="edge"><title>NADH&#45;&gt;v1_intermediate_r</title>
<path fill="none" stroke="black" d="M256.689,-200.563C269.782,-249.602 305.849,-384.69 306.973,-388.899"/>
</g>
<!-- v14_intermediate_r -->
<g id="node132" class="node"><title>v14_intermediate_r</title>
<ellipse fill="black" stroke="black" cx="1161" cy="-160" rx="0.036" ry="0.036"/>
</g>
<!-- NADH&#45;&gt;v14_intermediate_r -->
<g id="edge148" class="edge"><title>NADH&#45;&gt;v14_intermediate_r</title>
<path fill="none" stroke="black" d="M253.339,-164.784C257.828,-118.497 276.589,-0 351,-0 351,-0 351,-0 765,-0 866.135,-0 880.17,-52.2612 974,-90 1055.05,-122.597 1157.73,-158.848 1160.92,-159.973"/>
</g>
<!-- O2 -->
<g id="node2" class="node"><title>O2</title>
<ellipse fill="none" stroke="black" cx="1765" cy="-312" rx="18" ry="18"/>
<text text-anchor="middle" x="1765" y="-309.5" font-family="Times Roman,serif" font-size="10.00">O2</text>
</g>
<!-- O2&#45;&gt;v1_intermediate_r -->
<g id="edge6" class="edge"><title>O2&#45;&gt;v1_intermediate_r</title>
<path fill="none" stroke="black" d="M1751.36,-323.864C1720.34,-350.353 1644.75,-412 1613,-412 1558,-412 1558,-412 1558,-412 1492.24,-412 1480.76,-450 1415,-450 395,-450 395,-450 395,-450 348.155,-450 308.265,-390.891 307.029,-389.044"/>
</g>
<!-- v5_intermediate_r -->
<g id="node53" class="node"><title>v5_intermediate_r</title>
<ellipse fill="black" stroke="black" cx="1415" cy="-168" rx="0.036" ry="0.036"/>
</g>
<!-- O2&#45;&gt;v5_intermediate_r -->
<g id="edge52" class="edge"><title>O2&#45;&gt;v5_intermediate_r</title>
<path fill="none" stroke="black" d="M1746.8,-312.761C1707.19,-313.705 1611.04,-312.088 1540,-279 1506.85,-263.56 1417.84,-170.959 1415.07,-168.069"/>
</g>
<!-- v11_intermediate_r -->
<g id="node103" class="node"><title>v11_intermediate_r</title>
<ellipse fill="black" stroke="black" cx="1829" cy="-347" rx="0.036" ry="0.036"/>
</g>
<!-- O2&#45;&gt;v11_intermediate_r -->
<g id="edge116" class="edge"><title>O2&#45;&gt;v11_intermediate_r</title>
<path fill="none" stroke="black" d="M1780.82,-320.652C1799.18,-330.692 1827.18,-346.006 1828.92,-346.954"/>
</g>
<!-- v132_intermediate_r -->
<g id="node125" class="node"><title>v132_intermediate_r</title>
<ellipse fill="black" stroke="black" cx="1829" cy="-281" rx="0.036" ry="0.036"/>
</g>
<!-- O2&#45;&gt;v132_intermediate_r -->
<g id="edge140" class="edge"><title>O2&#45;&gt;v132_intermediate_r</title>
<path fill="none" stroke="black" d="M1781.48,-304.017C1799.85,-295.119 1827.22,-281.86 1828.92,-281.04"/>
</g>
<!-- H2O2 -->
<g id="node3" class="node"><title>H2O2</title>
<ellipse fill="none" stroke="black" cx="450" cy="-366" rx="18" ry="18"/>
<text text-anchor="middle" x="450" y="-363.5" font-family="Times Roman,serif" font-size="10.00">H2O2</text>
</g>
<!-- v2_intermediate_r -->
<g id="node27" class="node"><title>v2_intermediate_r</title>
<ellipse fill="black" stroke="black" cx="505" cy="-282" rx="0.036" ry="0.036"/>
</g>
<!-- H2O2&#45;&gt;v2_intermediate_r -->
<g id="edge18" class="edge"><title>H2O2&#45;&gt;v2_intermediate_r</title>
<path fill="none" stroke="black" d="M460.088,-350.593C475.47,-327.101 503.198,-284.752 504.916,-282.128"/>
</g>
<!-- per3 -->
<g id="node4" class="node"><title>per3</title>
<polyline fill="none" stroke="black" points="1176,-276 1146,-276 "/>
<path fill="none" stroke="black" d="M1146,-276C1140,-276 1134,-270 1134,-264"/>
<polyline fill="none" stroke="black" points="1134,-264 1134,-252 "/>
<path fill="none" stroke="black" d="M1134,-252C1134,-246 1140,-240 1146,-240"/>
<polyline fill="none" stroke="black" points="1146,-240 1176,-240 "/>
<path fill="none" stroke="black" d="M1176,-240C1182,-240 1188,-246 1188,-252"/>
<polyline fill="none" stroke="black" points="1188,-252 1188,-264 "/>
<path fill="none" stroke="black" d="M1188,-264C1188,-270 1182,-276 1176,-276"/>
<text text-anchor="middle" x="1161" y="-255.5" font-family="Times Roman,serif" font-size="10.00">per3</text>
</g>
<!-- per3&#45;&gt;v2_intermediate_r -->
<g id="edge16" class="edge"><title>per3&#45;&gt;v2_intermediate_r</title>
<path fill="none" stroke="black" d="M1133.9,-265.66C1106.62,-272.684 1063.24,-282 1025,-282 593,-282 593,-282 593,-282 555.111,-282 508.046,-282 505.141,-282"/>
</g>
<!-- v6_intermediate_r -->
<g id="node62" class="node"><title>v6_intermediate_r</title>
<ellipse fill="black" stroke="black" cx="1613" cy="-209" rx="0.036" ry="0.036"/>
</g>
<!-- per3&#45;&gt;v6_intermediate_r -->
<g id="edge62" class="edge"><title>per3&#45;&gt;v6_intermediate_r</title>
<path fill="none" stroke="black" d="M1188.05,-263.585C1211.06,-267.85 1245.06,-273 1275,-273 1275,-273 1275,-273 1415,-273 1439.19,-273 1443.41,-262.635 1466,-254 1499,-241.389 1506.2,-235.258 1540,-225 1570.79,-215.656 1610.43,-209.4 1612.88,-209.019"/>
</g>
<!-- v10_intermediate_r -->
<g id="node94" class="node"><title>v10_intermediate_r</title>
<ellipse fill="black" stroke="black" cx="1415" cy="-235" rx="0.036" ry="0.036"/>
</g>
<!-- per3&#45;&gt;v10_intermediate_r -->
<g id="edge102" class="edge"><title>per3&#45;&gt;v10_intermediate_r</title>
<path fill="none" stroke="black" d="M1188.18,-255.539C1252.68,-249.698 1409.98,-235.454 1414.88,-235.011"/>
</g>
<!-- coI -->
<g id="node5" class="node"><title>coI</title>
<polyline fill="none" stroke="black" points="672,-115 642,-115 "/>
<path fill="none" stroke="black" d="M642,-115C636,-115 630,-109 630,-103"/>
<polyline fill="none" stroke="black" points="630,-103 630,-91 "/>
<path fill="none" stroke="black" d="M630,-91C630,-85 636,-79 642,-79"/>
<polyline fill="none" stroke="black" points="642,-79 672,-79 "/>
<path fill="none" stroke="black" d="M672,-79C678,-79 684,-85 684,-91"/>
<polyline fill="none" stroke="black" points="684,-91 684,-103 "/>
<path fill="none" stroke="black" d="M684,-103C684,-109 678,-115 672,-115"/>
<text text-anchor="middle" x="657" y="-94.5" font-family="Times Roman,serif" font-size="10.00">coI</text>
</g>
<!-- v3_intermediate_r -->
<g id="node35" class="node"><title>v3_intermediate_r</title>
<ellipse fill="black" stroke="black" cx="721" cy="-97" rx="0.036" ry="0.036"/>
</g>
<!-- coI&#45;&gt;v3_intermediate_r -->
<g id="edge28" class="edge"><title>coI&#45;&gt;v3_intermediate_r</title>
<path fill="none" stroke="black" d="M684.142,-97C701.04,-97 719.788,-97 720.944,-97"/>
</g>
<!-- ArH -->
<g id="node6" class="node"><title>ArH</title>
<ellipse fill="none" stroke="black" cx="1345" cy="-110" rx="18" ry="18"/>
<text text-anchor="middle" x="1345" y="-107.5" font-family="Times Roman,serif" font-size="10.00">ArH</text>
</g>
<!-- ArH&#45;&gt;v3_intermediate_r -->
<g id="edge26" class="edge"><title>ArH&#45;&gt;v3_intermediate_r</title>
<path fill="none" stroke="black" d="M1328.84,-101.942C1307.14,-91.8882 1267.14,-76 1231,-76 809,-76 809,-76 809,-76 770.047,-76 723.98,-95.708 721.138,-96.9398"/>
</g>
<!-- v4_intermediate_r -->
<g id="node44" class="node"><title>v4_intermediate_r</title>
<ellipse fill="black" stroke="black" cx="937" cy="-168" rx="0.036" ry="0.036"/>
</g>
<!-- ArH&#45;&gt;v4_intermediate_r -->
<g id="edge40" class="edge"><title>ArH&#45;&gt;v4_intermediate_r</title>
<path fill="none" stroke="black" d="M1326.84,-111.03C1304.35,-112.215 1264.86,-114 1231,-114 1080,-114 1080,-114 1080,-114 1013.13,-114 939.344,-166.326 937.055,-167.961"/>
</g>
<!-- coII -->
<g id="node7" class="node"><title>coII</title>
<polyline fill="none" stroke="black" points="888,-186 858,-186 "/>
<path fill="none" stroke="black" d="M858,-186C852,-186 846,-180 846,-174"/>
<polyline fill="none" stroke="black" points="846,-174 846,-162 "/>
<path fill="none" stroke="black" d="M846,-162C846,-156 852,-150 858,-150"/>
<polyline fill="none" stroke="black" points="858,-150 888,-150 "/>
<path fill="none" stroke="black" d="M888,-150C894,-150 900,-156 900,-162"/>
<polyline fill="none" stroke="black" points="900,-162 900,-174 "/>
<path fill="none" stroke="black" d="M900,-174C900,-180 894,-186 888,-186"/>
<text text-anchor="middle" x="873" y="-165.5" font-family="Times Roman,serif" font-size="10.00">coII</text>
</g>
<!-- coII&#45;&gt;v4_intermediate_r -->
<g id="edge38" class="edge"><title>coII&#45;&gt;v4_intermediate_r</title>
<path fill="none" stroke="black" d="M900.142,-168C917.04,-168 935.788,-168 936.944,-168"/>
</g>
<!-- Ar -->
<g id="node8" class="node"><title>Ar</title>
<ellipse fill="none" stroke="black" cx="1080" cy="-198" rx="18" ry="18"/>
<text text-anchor="middle" x="1080" y="-195.5" font-family="Times Roman,serif" font-size="10.00">Ar</text>
</g>
<!-- Ar&#45;&gt;v14_intermediate_r -->
<g id="edge150" class="edge"><title>Ar&#45;&gt;v14_intermediate_r</title>
<path fill="none" stroke="black" d="M1096.39,-190.31C1119.32,-179.553 1158.46,-161.192 1160.88,-160.055"/>
</g>
<!-- NADrad -->
<g id="node9" class="node"><title>NADrad</title>
<ellipse fill="none" stroke="black" cx="1345" cy="-164" rx="33.2417" ry="18"/>
<text text-anchor="middle" x="1345" y="-161.5" font-family="Times Roman,serif" font-size="10.00">NADrad</text>
</g>
<!-- NADrad&#45;&gt;v5_intermediate_r -->
<g id="edge50" class="edge"><title>NADrad&#45;&gt;v5_intermediate_r</title>
<path fill="none" stroke="black" d="M1377.95,-165.883C1395.54,-166.888 1413.82,-167.933 1414.95,-167.997"/>
</g>
<!-- v8_intermediate_r -->
<g id="node78" class="node"><title>v8_intermediate_r</title>
<ellipse fill="black" stroke="black" cx="2045" cy="-161" rx="0.036" ry="0.036"/>
</g>
<!-- NADrad&#45;&gt;v8_intermediate_r -->
<g id="edge82" class="edge"><title>NADrad&#45;&gt;v8_intermediate_r</title>
<path fill="none" stroke="black" d="M1363.73,-149.072C1395.32,-123.965 1456.05,-76 1459,-76 1459,-76 1459,-76 1503,-76 1648.87,-76 1683.13,-114 1829,-114 1829,-114 1829,-114 1917,-114 1976.66,-114 2042.9,-159.543 2044.95,-160.966"/>
</g>
<!-- v9_intermediate_r -->
<g id="node87" class="node"><title>v9_intermediate_r</title>
<ellipse fill="black" stroke="black" cx="1415" cy="-136" rx="0.036" ry="0.036"/>
</g>
<!-- NADrad&#45;&gt;v9_intermediate_r -->
<g id="edge94" class="edge"><title>NADrad&#45;&gt;v9_intermediate_r</title>
<path fill="none" stroke="black" d="M1371.86,-153.255C1390.99,-145.605 1413.54,-136.583 1414.93,-136.027"/>
</g>
<!-- NADrad&#45;&gt;v10_intermediate_r -->
<g id="edge104" class="edge"><title>NADrad&#45;&gt;v10_intermediate_r</title>
<path fill="none" stroke="black" d="M1360.88,-180.111C1380.89,-200.404 1412.92,-232.891 1414.9,-234.902"/>
</g>
<!-- super -->
<g id="node10" class="node"><title>super</title>
<ellipse fill="none" stroke="black" cx="1558" cy="-252" rx="18" ry="18"/>
<text text-anchor="middle" x="1558" y="-249.5" font-family="Times Roman,serif" font-size="10.00">super</text>
</g>
<!-- super&#45;&gt;v6_intermediate_r -->
<g id="edge64" class="edge"><title>super&#45;&gt;v6_intermediate_r</title>
<path fill="none" stroke="black" d="M1572.45,-240.702C1588.24,-228.36 1611.49,-210.179 1612.93,-209.055"/>
</g>
<!-- v7_intermediate_r -->
<g id="node70" class="node"><title>v7_intermediate_r</title>
<ellipse fill="black" stroke="black" cx="1613" cy="-252" rx="0.036" ry="0.036"/>
</g>
<!-- super&#45;&gt;v7_intermediate_r -->
<g id="edge72" class="edge"><title>super&#45;&gt;v7_intermediate_r</title>
<path fill="none" stroke="black" d="M1576.01,-252C1591.55,-252 1611.7,-252 1612.94,-252"/>
</g>
<!-- coIII -->
<g id="node11" class="node"><title>coIII</title>
<polyline fill="none" stroke="black" points="1996,-227 1966,-227 "/>
<path fill="none" stroke="black" d="M1966,-227C1960,-227 1954,-221 1954,-215"/>
<polyline fill="none" stroke="black" points="1954,-215 1954,-203 "/>
<path fill="none" stroke="black" d="M1954,-203C1954,-197 1960,-191 1966,-191"/>
<polyline fill="none" stroke="black" points="1966,-191 1996,-191 "/>
<path fill="none" stroke="black" d="M1996,-191C2002,-191 2008,-197 2008,-203"/>
<polyline fill="none" stroke="black" points="2008,-203 2008,-215 "/>
<path fill="none" stroke="black" d="M2008,-215C2008,-221 2002,-227 1996,-227"/>
<text text-anchor="middle" x="1981" y="-206.5" font-family="Times Roman,serif" font-size="10.00">coIII</text>
</g>
<!-- coIII&#45;&gt;v8_intermediate_r -->
<g id="edge84" class="edge"><title>coIII&#45;&gt;v8_intermediate_r</title>
<path fill="none" stroke="black" d="M2005.2,-190.853C2022.75,-177.685 2043.65,-162.014 2044.94,-161.047"/>
</g>
<!-- per2 -->
<g id="node12" class="node"><title>per2</title>
<polyline fill="none" stroke="black" points="1780,-384 1750,-384 "/>
<path fill="none" stroke="black" d="M1750,-384C1744,-384 1738,-378 1738,-372"/>
<polyline fill="none" stroke="black" points="1738,-372 1738,-360 "/>
<path fill="none" stroke="black" d="M1738,-360C1738,-354 1744,-348 1750,-348"/>
<polyline fill="none" stroke="black" points="1750,-348 1780,-348 "/>
<path fill="none" stroke="black" d="M1780,-348C1786,-348 1792,-354 1792,-360"/>
<polyline fill="none" stroke="black" points="1792,-360 1792,-372 "/>
<path fill="none" stroke="black" d="M1792,-372C1792,-378 1786,-384 1780,-384"/>
<text text-anchor="middle" x="1765" y="-363.5" font-family="Times Roman,serif" font-size="10.00">per2</text>
</g>
<!-- per2&#45;&gt;v11_intermediate_r -->
<g id="edge114" class="edge"><title>per2&#45;&gt;v11_intermediate_r</title>
<path fill="none" stroke="black" d="M1792.14,-357.942C1809.04,-352.926 1827.79,-347.36 1828.94,-347.017"/>
</g>
<!-- NAD2 -->
<g id="node13" class="node"><title>NAD2</title>
<ellipse fill="none" stroke="black" cx="1558" cy="-122" rx="18" ry="18"/>
<text text-anchor="middle" x="1558" y="-119.5" font-family="Times Roman,serif" font-size="10.00">NAD2</text>
</g>
<!-- NAD -->
<g id="node14" class="node"><title>NAD</title>
<ellipse fill="none" stroke="black" cx="2188" cy="-286" rx="18" ry="18"/>
<text text-anchor="middle" x="2188" y="-283.5" font-family="Times Roman,serif" font-size="10.00">NAD</text>
</g>
<!-- O2g -->
<g id="node15" class="node"><title>O2g</title>
<ellipse fill="none" stroke="black" cx="1981" cy="-266" rx="18" ry="18"/>
<text text-anchor="middle" x="1981" y="-263.5" font-family="Times Roman,serif" font-size="10.00">O2g</text>
</g>
<!-- v131_intermediate_r -->
<g id="node118" class="node"><title>v131_intermediate_r</title>
<ellipse fill="black" stroke="black" cx="2045" cy="-271" rx="0.036" ry="0.036"/>
</g>
<!-- O2g&#45;&gt;v131_intermediate_r -->
<g id="edge132" class="edge"><title>O2g&#45;&gt;v131_intermediate_r</title>
<path fill="none" stroke="black" d="M1999.17,-267.419C2017.5,-268.851 2043.33,-270.869 2044.92,-270.994"/>
</g>
<!-- NADHres -->
<g id="node16" class="node"><title>NADHres</title>
<ellipse fill="none" stroke="black" cx="38" cy="-183" rx="38.1664" ry="18"/>
<text text-anchor="middle" x="38" y="-180.5" font-family="Times Roman,serif" font-size="10.00">NADHres</text>
</g>
<!-- v12_intermediate_r -->
<g id="node111" class="node"><title>v12_intermediate_r</title>
<ellipse fill="black" stroke="black" cx="112" cy="-183" rx="0.036" ry="0.036"/>
</g>
<!-- NADHres&#45;&gt;v12_intermediate_r -->
<g id="edge124" class="edge"><title>NADHres&#45;&gt;v12_intermediate_r</title>
<path fill="none" stroke="black" d="M76.3005,-183C93.7928,-183 110.897,-183 111.949,-183"/>
</g>
<!-- v1 -->
<g id="node17" class="node"><title>v1</title>
<polygon fill="none" stroke="black" points="358,-396 344,-396 344,-382 358,-382 358,-396"/>
</g>
<!-- v1_intermediate_p -->
<g id="node22" class="node"><title>v1_intermediate_p</title>
<ellipse fill="black" stroke="black" cx="395" cy="-389" rx="0.036" ry="0.036"/>
</g>
<!-- v1&#45;&gt;v1_intermediate_p -->
<g id="edge8" class="edge"><title>v1&#45;&gt;v1_intermediate_p</title>
<path fill="none" stroke="black" d="M358.266,-389C370.372,-389 393.497,-389 394.93,-389"/>
</g>
<!-- v1_intermediate_r&#45;&gt;v1 -->
<g id="edge2" class="edge"><title>v1_intermediate_r&#45;&gt;v1</title>
<path fill="none" stroke="black" d="M307.126,-389C309.022,-389 331.795,-389 343.759,-389"/>
</g>
<!-- v1_intermediate_p&#45;&gt;H2O2 -->
<g id="edge10" class="edge"><title>v1_intermediate_p&#45;&gt;H2O2</title>
<path fill="none" stroke="black" d="M395.158,-388.934C396.77,-388.26 410.47,-382.531 423.772,-376.968"/>
<polygon fill="black" stroke="black" points="425.333,-380.109 433.209,-373.022 422.633,-373.651 425.333,-380.109"/>
</g>
<!-- v1_intermediate_p&#45;&gt;NAD -->
<g id="edge12" class="edge"><title>v1_intermediate_p&#45;&gt;NAD</title>
<path fill="none" stroke="black" d="M395.044,-389.017C396.874,-389.713 455.834,-412 505,-412 505,-412 505,-412 1415,-412 1480.76,-412 1492.24,-450 1558,-450 1558,-450 1558,-450 2089,-450 2151.79,-450 2175.81,-360.805 2184.1,-313.974"/>
<polygon fill="black" stroke="black" points="2187.59,-314.298 2185.76,-303.863 2180.68,-313.164 2187.59,-314.298"/>
</g>
<!-- v2 -->
<g id="node26" class="node"><title>v2</title>
<polygon fill="none" stroke="black" points="556,-169 542,-169 542,-155 556,-155 556,-169"/>
</g>
<!-- v2_intermediate_p -->
<g id="node31" class="node"><title>v2_intermediate_p</title>
<ellipse fill="black" stroke="black" cx="593" cy="-140" rx="0.036" ry="0.036"/>
</g>
<!-- v2&#45;&gt;v2_intermediate_p -->
<g id="edge20" class="edge"><title>v2&#45;&gt;v2_intermediate_p</title>
<path fill="none" stroke="black" d="M556.266,-158.367C568.372,-152.314 591.497,-140.752 592.93,-140.035"/>
</g>
<!-- v2_intermediate_r&#45;&gt;v2 -->
<g id="edge14" class="edge"><title>v2_intermediate_r&#45;&gt;v2</title>
<path fill="none" stroke="black" d="M505.032,-281.913C506.161,-278.833 536.968,-194.815 546.328,-169.287"/>
</g>
<!-- v2_intermediate_p&#45;&gt;coI -->
<g id="edge22" class="edge"><title>v2_intermediate_p&#45;&gt;coI</title>
<path fill="none" stroke="black" d="M593.046,-139.969C593.932,-139.374 607.374,-130.343 621.706,-120.713"/>
<polygon fill="black" stroke="black" points="623.811,-123.516 630.16,-115.033 619.907,-117.705 623.811,-123.516"/>
</g>
<!-- v3 -->
<g id="node34" class="node"><title>v3</title>
<polygon fill="none" stroke="black" points="772,-143 758,-143 758,-129 772,-129 772,-143"/>
</g>
<!-- v3_intermediate_p -->
<g id="node39" class="node"><title>v3_intermediate_p</title>
<ellipse fill="black" stroke="black" cx="809" cy="-168" rx="0.036" ry="0.036"/>
</g>
<!-- v3&#45;&gt;v3_intermediate_p -->
<g id="edge30" class="edge"><title>v3&#45;&gt;v3_intermediate_p</title>
<path fill="none" stroke="black" d="M772.266,-141.284C784.372,-150.089 807.497,-166.907 808.93,-167.949"/>
</g>
<!-- v3_intermediate_r&#45;&gt;v3 -->
<g id="edge24" class="edge"><title>v3_intermediate_r&#45;&gt;v3</title>
<path fill="none" stroke="black" d="M721.126,-97.1119C723.022,-98.7918 745.795,-118.977 757.759,-129.582"/>
</g>
<!-- v3_intermediate_p&#45;&gt;coII -->
<g id="edge34" class="edge"><title>v3_intermediate_p&#45;&gt;coII</title>
<path fill="none" stroke="black" d="M809.046,-168C809.885,-168 821.971,-168 835.414,-168"/>
<polygon fill="black" stroke="black" points="835.794,-171.5 845.794,-168 835.794,-164.5 835.794,-171.5"/>
</g>
<!-- v3_intermediate_p&#45;&gt;Ar -->
<g id="edge32" class="edge"><title>v3_intermediate_p&#45;&gt;Ar</title>
<path fill="none" stroke="black" d="M809.054,-168.052C810.172,-169.115 828.324,-186.255 846,-195 883.813,-213.707 894.813,-222 937,-222 937,-222 937,-222 981,-222 1006.15,-222 1033.91,-214.594 1053.62,-208.01"/>
<polygon fill="black" stroke="black" points="1054.85,-211.288 1063.13,-204.685 1052.54,-204.679 1054.85,-211.288"/>
</g>
<!-- v4 -->
<g id="node43" class="node"><title>v4</title>
<polygon fill="none" stroke="black" points="988,-194 974,-194 974,-180 988,-180 988,-194"/>
</g>
<!-- v4_intermediate_p -->
<g id="node48" class="node"><title>v4_intermediate_p</title>
<ellipse fill="black" stroke="black" cx="1025" cy="-194" rx="0.036" ry="0.036"/>
</g>
<!-- v4&#45;&gt;v4_intermediate_p -->
<g id="edge42" class="edge"><title>v4&#45;&gt;v4_intermediate_p</title>
<path fill="none" stroke="black" d="M988.266,-188.156C1000.37,-190.082 1023.5,-193.761 1024.93,-193.989"/>
</g>
<!-- v4_intermediate_r&#45;&gt;v4 -->
<g id="edge36" class="edge"><title>v4_intermediate_r&#45;&gt;v4</title>
<path fill="none" stroke="black" d="M937.126,-168.055C939.022,-168.873 961.795,-178.707 973.759,-183.873"/>
</g>
<!-- v4_intermediate_p&#45;&gt;per3 -->
<g id="edge44" class="edge"><title>v4_intermediate_p&#45;&gt;per3</title>
<path fill="none" stroke="black" d="M1025.05,-194.059C1026.14,-195.274 1043.86,-214.862 1062,-225 1081.3,-235.787 1104.71,-243.79 1123.91,-249.211"/>
<polygon fill="black" stroke="black" points="1123.24,-252.656 1133.81,-251.885 1125.07,-245.899 1123.24,-252.656"/>
</g>
<!-- v4_intermediate_p&#45;&gt;Ar -->
<g id="edge46" class="edge"><title>v4_intermediate_p&#45;&gt;Ar</title>
<path fill="none" stroke="black" d="M1025.16,-194.011C1026.7,-194.124 1039.29,-195.039 1052.01,-195.964"/>
<polygon fill="black" stroke="black" points="1051.81,-199.459 1062.04,-196.694 1052.32,-192.477 1051.81,-199.459"/>
</g>
<!-- v5 -->
<g id="node52" class="node"><title>v5</title>
<polygon fill="none" stroke="black" points="1466,-175 1452,-175 1452,-161 1466,-161 1466,-175"/>
</g>
<!-- v5_intermediate_p -->
<g id="node57" class="node"><title>v5_intermediate_p</title>
<ellipse fill="black" stroke="black" cx="1503" cy="-168" rx="0.036" ry="0.036"/>
</g>
<!-- v5&#45;&gt;v5_intermediate_p -->
<g id="edge54" class="edge"><title>v5&#45;&gt;v5_intermediate_p</title>
<path fill="none" stroke="black" d="M1466.27,-168C1478.37,-168 1501.5,-168 1502.93,-168"/>
</g>
<!-- v5_intermediate_r&#45;&gt;v5 -->
<g id="edge48" class="edge"><title>v5_intermediate_r&#45;&gt;v5</title>
<path fill="none" stroke="black" d="M1415.13,-168C1417.02,-168 1439.79,-168 1451.76,-168"/>
</g>
<!-- v5_intermediate_p&#45;&gt;super -->
<g id="edge58" class="edge"><title>v5_intermediate_p&#45;&gt;super</title>
<path fill="none" stroke="black" d="M1503.04,-168.061C1504.11,-169.698 1526.57,-203.999 1542.44,-228.239"/>
<polygon fill="black" stroke="black" points="1539.53,-230.187 1547.94,-236.636 1545.39,-226.352 1539.53,-230.187"/>
</g>
<!-- v5_intermediate_p&#45;&gt;NAD -->
<g id="edge56" class="edge"><title>v5_intermediate_p&#45;&gt;NAD</title>
<path fill="none" stroke="black" d="M1503.12,-167.971C1505.53,-167.368 1544.68,-157.593 1576,-149 1688.86,-118.036 1711.97,-76 1829,-76 1829,-76 1829,-76 1873,-76 1951.29,-76 1966.71,-38 2045,-38 2045,-38 2045,-38 2089,-38 2135.99,-38 2170.64,-193.504 2183.03,-258.239"/>
<polygon fill="black" stroke="black" points="2179.6,-258.98 2184.89,-268.164 2186.48,-257.691 2179.6,-258.98"/>
</g>
<!-- v6 -->
<g id="node61" class="node"><title>v6</title>
<polygon fill="none" stroke="black" points="1664,-216 1650,-216 1650,-202 1664,-202 1664,-216"/>
</g>
<!-- v6_intermediate_p -->
<g id="node66" class="node"><title>v6_intermediate_p</title>
<ellipse fill="black" stroke="black" cx="1765" cy="-209" rx="0.036" ry="0.036"/>
</g>
<!-- v6&#45;&gt;v6_intermediate_p -->
<g id="edge66" class="edge"><title>v6&#45;&gt;v6_intermediate_p</title>
<path fill="none" stroke="black" d="M1664.09,-209C1687.74,-209 1762.61,-209 1764.94,-209"/>
</g>
<!-- v6_intermediate_r&#45;&gt;v6 -->
<g id="edge60" class="edge"><title>v6_intermediate_r&#45;&gt;v6</title>
<path fill="none" stroke="black" d="M1613.13,-209C1615.02,-209 1637.79,-209 1649.76,-209"/>
</g>
<!-- v6_intermediate_p&#45;&gt;coIII -->
<g id="edge68" class="edge"><title>v6_intermediate_p&#45;&gt;coIII</title>
<path fill="none" stroke="black" d="M1765.16,-209C1769.94,-209 1883.21,-209 1943.7,-209"/>
<polygon fill="black" stroke="black" points="1943.99,-212.5 1953.99,-209 1943.99,-205.5 1943.99,-212.5"/>
</g>
<!-- v7 -->
<g id="node69" class="node"><title>v7</title>
<polygon fill="none" stroke="black" points="1664,-259 1650,-259 1650,-245 1664,-245 1664,-259"/>
</g>
<!-- v7_intermediate_p -->
<g id="node73" class="node"><title>v7_intermediate_p</title>
<ellipse fill="black" stroke="black" cx="1701" cy="-287" rx="0.036" ry="0.036"/>
</g>
<!-- v7&#45;&gt;v7_intermediate_p -->
<g id="edge74" class="edge"><title>v7&#45;&gt;v7_intermediate_p</title>
<path fill="none" stroke="black" d="M1664.27,-257.78C1676.37,-267.41 1699.5,-285.804 1700.93,-286.944"/>
</g>
<!-- v7_intermediate_r&#45;&gt;v7 -->
<g id="edge70" class="edge"><title>v7_intermediate_r&#45;&gt;v7</title>
<path fill="none" stroke="black" d="M1613.13,-252C1615.02,-252 1637.79,-252 1649.76,-252"/>
</g>
<!-- v7_intermediate_p&#45;&gt;O2 -->
<g id="edge78" class="edge"><title>v7_intermediate_p&#45;&gt;O2</title>
<path fill="none" stroke="black" d="M1701.05,-287.018C1702.11,-287.433 1721.25,-294.911 1738.32,-301.578"/>
<polygon fill="black" stroke="black" points="1737.39,-304.971 1747.98,-305.35 1739.93,-298.451 1737.39,-304.971"/>
</g>
<!-- v7_intermediate_p&#45;&gt;H2O2 -->
<g id="edge76" class="edge"><title>v7_intermediate_p&#45;&gt;H2O2</title>
<path fill="none" stroke="black" d="M1700.93,-287.063C1697.82,-289.698 1597.62,-374 1503,-374 549,-374 549,-374 549,-374 525.139,-374 498.148,-371.663 478.383,-369.515"/>
<polygon fill="black" stroke="black" points="478.543,-366.01 468.211,-368.357 477.751,-372.966 478.543,-366.01"/>
</g>
<!-- v8 -->
<g id="node77" class="node"><title>v8</title>
<polygon fill="none" stroke="black" points="2096,-168 2082,-168 2082,-154 2096,-154 2096,-168"/>
</g>
<!-- v8_intermediate_p -->
<g id="node82" class="node"><title>v8_intermediate_p</title>
<ellipse fill="black" stroke="black" cx="2133" cy="-161" rx="0.036" ry="0.036"/>
</g>
<!-- v8&#45;&gt;v8_intermediate_p -->
<g id="edge86" class="edge"><title>v8&#45;&gt;v8_intermediate_p</title>
<path fill="none" stroke="black" d="M2096.27,-161C2108.37,-161 2131.5,-161 2132.93,-161"/>
</g>
<!-- v8_intermediate_r&#45;&gt;v8 -->
<g id="edge80" class="edge"><title>v8_intermediate_r&#45;&gt;v8</title>
<path fill="none" stroke="black" d="M2045.13,-161C2047.02,-161 2069.79,-161 2081.76,-161"/>
</g>
<!-- v8_intermediate_p&#45;&gt;coI -->
<g id="edge90" class="edge"><title>v8_intermediate_p&#45;&gt;coI</title>
<path fill="none" stroke="black" d="M2132.9,-160.911C2128.87,-157.186 1998.84,-38 1873,-38 765,-38 765,-38 765,-38 734.579,-38 704.589,-56.251 683.96,-72.4513"/>
<polygon fill="black" stroke="black" points="681.51,-69.934 675.991,-78.9775 685.945,-75.3499 681.51,-69.934"/>
</g>
<!-- v8_intermediate_p&#45;&gt;NAD -->
<g id="edge88" class="edge"><title>v8_intermediate_p&#45;&gt;NAD</title>
<path fill="none" stroke="black" d="M2133.04,-161.091C2134.21,-163.746 2160.79,-224.164 2176.55,-259.983"/>
<polygon fill="black" stroke="black" points="2173.45,-261.621 2180.68,-269.365 2179.86,-258.802 2173.45,-261.621"/>
</g>
<!-- v9 -->
<g id="node86" class="node"><title>v9</title>
<polygon fill="none" stroke="black" points="1466,-136 1452,-136 1452,-122 1466,-122 1466,-136"/>
</g>
<!-- v9_intermediate_p -->
<g id="node90" class="node"><title>v9_intermediate_p</title>
<ellipse fill="black" stroke="black" cx="1503" cy="-126" rx="0.036" ry="0.036"/>
</g>
<!-- v9&#45;&gt;v9_intermediate_p -->
<g id="edge96" class="edge"><title>v9&#45;&gt;v9_intermediate_p</title>
<path fill="none" stroke="black" d="M1466.27,-128.505C1478.37,-127.679 1501.5,-126.103 1502.93,-126.005"/>
</g>
<!-- v9_intermediate_r&#45;&gt;v9 -->
<g id="edge92" class="edge"><title>v9_intermediate_r&#45;&gt;v9</title>
<path fill="none" stroke="black" d="M1415.13,-135.98C1417.02,-135.678 1439.79,-132.055 1451.76,-130.152"/>
</g>
<!-- v9_intermediate_p&#45;&gt;NAD2 -->
<g id="edge98" class="edge"><title>v9_intermediate_p&#45;&gt;NAD2</title>
<path fill="none" stroke="black" d="M1503.16,-125.989C1504.7,-125.876 1517.29,-124.961 1530.01,-124.036"/>
<polygon fill="black" stroke="black" points="1530.32,-127.523 1540.04,-123.306 1529.81,-120.541 1530.32,-127.523"/>
</g>
<!-- v10 -->
<g id="node93" class="node"><title>v10</title>
<polygon fill="none" stroke="black" points="1466,-245 1452,-245 1452,-231 1466,-231 1466,-245"/>
</g>
<!-- v10_intermediate_p -->
<g id="node98" class="node"><title>v10_intermediate_p</title>
<ellipse fill="black" stroke="black" cx="1701" cy="-417" rx="0.036" ry="0.036"/>
</g>
<!-- v10&#45;&gt;v10_intermediate_p -->
<g id="edge106" class="edge"><title>v10&#45;&gt;v10_intermediate_p</title>
<path fill="none" stroke="black" d="M1466.24,-245.363C1479.98,-259.177 1511.09,-289.604 1540,-312 1606.48,-363.498 1698.09,-415.354 1700.93,-416.962"/>
</g>
<!-- v10_intermediate_r&#45;&gt;v10 -->
<g id="edge100" class="edge"><title>v10_intermediate_r&#45;&gt;v10</title>
<path fill="none" stroke="black" d="M1415.13,-235.009C1417.02,-235.138 1439.79,-236.691 1451.76,-237.506"/>
</g>
<!-- v10_intermediate_p&#45;&gt;per2 -->
<g id="edge108" class="edge"><title>v10_intermediate_p&#45;&gt;per2</title>
<path fill="none" stroke="black" d="M1701.05,-416.963C1702.02,-416.187 1718.15,-403.333 1733.97,-390.73"/>
<polygon fill="black" stroke="black" points="1736.49,-393.197 1742.13,-384.228 1732.12,-387.723 1736.49,-393.197"/>
</g>
<!-- v10_intermediate_p&#45;&gt;NAD -->
<g id="edge110" class="edge"><title>v10_intermediate_p&#45;&gt;NAD</title>
<path fill="none" stroke="black" d="M1701.05,-416.996C1703.22,-416.845 1772.96,-412 1829,-412 1829,-412 1829,-412 2089,-412 2138.84,-412 2167.41,-350.29 2180.07,-313.243"/>
<polygon fill="black" stroke="black" points="2183.46,-314.112 2183.22,-303.52 2176.81,-311.952 2183.46,-314.112"/>
</g>
<!-- v11 -->
<g id="node102" class="node"><title>v11</title>
<polygon fill="none" stroke="black" points="1880,-354 1866,-354 1866,-340 1880,-340 1880,-354"/>
</g>
<!-- v11_intermediate_p -->
<g id="node107" class="node"><title>v11_intermediate_p</title>
<ellipse fill="black" stroke="black" cx="1917" cy="-246" rx="0.036" ry="0.036"/>
</g>
<!-- v11&#45;&gt;v11_intermediate_p -->
<g id="edge118" class="edge"><title>v11&#45;&gt;v11_intermediate_p</title>
<path fill="none" stroke="black" d="M1876.16,-339.736C1886.1,-316.94 1916.04,-248.194 1916.98,-246.051"/>
</g>
<!-- v11_intermediate_r&#45;&gt;v11 -->
<g id="edge112" class="edge"><title>v11_intermediate_r&#45;&gt;v11</title>
<path fill="none" stroke="black" d="M1829.13,-347C1831.02,-347 1853.79,-347 1865.76,-347"/>
</g>
<!-- v11_intermediate_p&#45;&gt;coIII -->
<g id="edge120" class="edge"><title>v11_intermediate_p&#45;&gt;coIII</title>
<path fill="none" stroke="black" d="M1917.05,-245.973C1917.92,-245.469 1930.94,-237.943 1945,-229.812"/>
<polygon fill="black" stroke="black" points="1946.89,-232.763 1953.79,-224.728 1943.39,-226.703 1946.89,-232.763"/>
</g>
<!-- v12 -->
<g id="node110" class="node"><title>v12</title>
<polygon fill="none" stroke="black" points="162,-190 148,-190 148,-176 162,-176 162,-190"/>
</g>
<!-- v12_intermediate_p -->
<g id="node114" class="node"><title>v12_intermediate_p</title>
<ellipse fill="black" stroke="black" cx="198" cy="-183" rx="0.036" ry="0.036"/>
</g>
<!-- v12&#45;&gt;v12_intermediate_p -->
<g id="edge126" class="edge"><title>v12&#45;&gt;v12_intermediate_p</title>
<path fill="none" stroke="black" d="M162.101,-183C173.932,-183 196.531,-183 197.932,-183"/>
</g>
<!-- v12_intermediate_r&#45;&gt;v12 -->
<g id="edge122" class="edge"><title>v12_intermediate_r&#45;&gt;v12</title>
<path fill="none" stroke="black" d="M112.123,-183C113.976,-183 136.231,-183 147.924,-183"/>
</g>
<!-- v12_intermediate_p&#45;&gt;NADH -->
<g id="edge128" class="edge"><title>v12_intermediate_p&#45;&gt;NADH</title>
<path fill="none" stroke="black" d="M198.155,-183C199.634,-183 211.471,-183 223.67,-183"/>
<polygon fill="black" stroke="black" points="223.784,-186.5 233.784,-183 223.784,-179.5 223.784,-186.5"/>
</g>
<!-- v131 -->
<g id="node117" class="node"><title>v131</title>
<polygon fill="none" stroke="black" points="2096,-281 2082,-281 2082,-267 2096,-267 2096,-281"/>
</g>
<!-- v131_intermediate_p -->
<g id="node121" class="node"><title>v131_intermediate_p</title>
<ellipse fill="black" stroke="black" cx="2133" cy="-293" rx="0.036" ry="0.036"/>
</g>
<!-- v131&#45;&gt;v131_intermediate_p -->
<g id="edge134" class="edge"><title>v131&#45;&gt;v131_intermediate_p</title>
<path fill="none" stroke="black" d="M2096.27,-277.137C2108.37,-282.365 2131.5,-292.351 2132.93,-292.97"/>
</g>
<!-- v131_intermediate_r&#45;&gt;v131 -->
<g id="edge130" class="edge"><title>v131_intermediate_r&#45;&gt;v131</title>
<path fill="none" stroke="black" d="M2045.13,-271.009C2047.02,-271.138 2069.79,-272.691 2081.76,-273.506"/>
</g>
<!-- v131_intermediate_p&#45;&gt;O2 -->
<g id="edge136" class="edge"><title>v131_intermediate_p&#45;&gt;O2</title>
<path fill="none" stroke="black" d="M2132.86,-293.055C2130.01,-294.169 2083.76,-312 2045,-312 1873,-312 1873,-312 1873,-312 1846.05,-312 1815.32,-312 1793.55,-312"/>
<polygon fill="black" stroke="black" points="1793.35,-308.5 1783.34,-312 1793.34,-315.5 1793.35,-308.5"/>
</g>
<!-- v132 -->
<g id="node124" class="node"><title>v132</title>
<polygon fill="none" stroke="black" points="1880,-279 1866,-279 1866,-265 1880,-265 1880,-279"/>
</g>
<!-- v132_intermediate_p -->
<g id="node128" class="node"><title>v132_intermediate_p</title>
<ellipse fill="black" stroke="black" cx="1917" cy="-268" rx="0.036" ry="0.036"/>
</g>
<!-- v132&#45;&gt;v132_intermediate_p -->
<g id="edge142" class="edge"><title>v132&#45;&gt;v132_intermediate_p</title>
<path fill="none" stroke="black" d="M1880.27,-271.339C1892.37,-270.239 1915.5,-268.137 1916.93,-268.006"/>
</g>
<!-- v132_intermediate_r&#45;&gt;v132 -->
<g id="edge138" class="edge"><title>v132_intermediate_r&#45;&gt;v132</title>
<path fill="none" stroke="black" d="M1829.13,-280.974C1831.02,-280.587 1853.79,-275.928 1865.76,-273.481"/>
</g>
<!-- v132_intermediate_p&#45;&gt;O2g -->
<g id="edge144" class="edge"><title>v132_intermediate_p&#45;&gt;O2g</title>
<path fill="none" stroke="black" d="M1917.05,-267.999C1918.08,-267.966 1936.23,-267.399 1952.93,-266.877"/>
<polygon fill="black" stroke="black" points="1953.09,-270.374 1962.98,-266.563 1952.87,-263.377 1953.09,-270.374"/>
</g>
<!-- v14 -->
<g id="node131" class="node"><title>v14</title>
<polygon fill="none" stroke="black" points="1238,-167 1224,-167 1224,-153 1238,-153 1238,-167"/>
</g>
<!-- v14_intermediate_p -->
<g id="node136" class="node"><title>v14_intermediate_p</title>
<ellipse fill="black" stroke="black" cx="1275" cy="-160" rx="0.036" ry="0.036"/>
</g>
<!-- v14&#45;&gt;v14_intermediate_p -->
<g id="edge152" class="edge"><title>v14&#45;&gt;v14_intermediate_p</title>
<path fill="none" stroke="black" d="M1238.27,-160C1250.37,-160 1273.5,-160 1274.93,-160"/>
</g>
<!-- v14_intermediate_r&#45;&gt;v14 -->
<g id="edge146" class="edge"><title>v14_intermediate_r&#45;&gt;v14</title>
<path fill="none" stroke="black" d="M1161.05,-160C1162.75,-160 1206.58,-160 1223.98,-160"/>
</g>
<!-- v14_intermediate_p&#45;&gt;ArH -->
<g id="edge156" class="edge"><title>v14_intermediate_p&#45;&gt;ArH</title>
<path fill="none" stroke="black" d="M1275.05,-159.964C1276.34,-159.042 1302.01,-140.707 1321.88,-126.513"/>
<polygon fill="black" stroke="black" points="1324.12,-129.215 1330.22,-120.554 1320.05,-123.518 1324.12,-129.215"/>
</g>
<!-- v14_intermediate_p&#45;&gt;NADrad -->
<g id="edge154" class="edge"><title>v14_intermediate_p&#45;&gt;NADrad</title>
<path fill="none" stroke="black" d="M1275.05,-160.003C1275.92,-160.053 1287.94,-160.739 1301.77,-161.53"/>
<polygon fill="black" stroke="black" points="1301.85,-165.04 1312.03,-162.116 1302.25,-158.051 1301.85,-165.04"/>
</g>
</g>
</svg>
