<?xml version="1.0" encoding="UTF-8" standalone="no"?>
<!DOCTYPE svg PUBLIC "-//W3C//DTD SVG 1.1//EN"
 "http://www.w3.org/Graphics/SVG/1.1/DTD/svg11.dtd">
<!-- Generated by graphviz version 2.24.0 (20090616.2323)
 -->
<!-- Title: G Pages: 1 -->
<svg width="944pt" height="467pt"
 viewBox="0.00 0.00 944.00 467.00" xmlns="http://www.w3.org/2000/svg" xmlns:xlink="http://www.w3.org/1999/xlink">
<g id="graph1" class="graph" transform="scale(1 1) rotate(0) translate(4 463)">
<title>G</title>
<polygon fill="white" stroke="white" points="-4,5 -4,-463 941,-463 941,5 -4,5"/>
<!-- Tbet_mRNA -->
<g id="node1" class="node"><title>Tbet_mRNA</title>
<polyline fill="none" stroke="black" points="687,-73 635,-73 "/>
<path fill="none" stroke="black" d="M635,-73C629,-73 623,-67 623,-61"/>
<polyline fill="none" stroke="black" points="623,-61 623,-49 "/>
<path fill="none" stroke="black" d="M623,-49C623,-43 629,-37 635,-37"/>
<polyline fill="none" stroke="black" points="635,-37 687,-37 "/>
<path fill="none" stroke="black" d="M687,-37C693,-37 699,-43 699,-49"/>
<polyline fill="none" stroke="black" points="699,-49 699,-61 "/>
<path fill="none" stroke="black" d="M699,-61C699,-67 693,-73 687,-73"/>
<text text-anchor="middle" x="661" y="-52.5" font-family="Times Roman,serif" font-size="10.00">Tbet_mRNA</text>
</g>
<!-- reaction_3_intermediate_r -->
<g id="node34" class="node"><title>reaction_3_intermediate_r</title>
<ellipse fill="black" stroke="black" cx="769" cy="-55" rx="0.036" ry="0.036"/>
</g>
<!-- Tbet_mRNA&#45;&gt;reaction_3_intermediate_r -->
<g id="edge32" class="edge"><title>Tbet_mRNA&#45;&gt;reaction_3_intermediate_r</title>
<path fill="none" stroke="black" d="M699.685,-55C729.706,-55 766.612,-55 768.889,-55"/>
</g>
<!-- reaction_9_intermediate_m -->
<g id="node75" class="node"><title>reaction_9_intermediate_m</title>
<ellipse fill="black" stroke="black" cx="769" cy="-19" rx="0.036" ry="0.036"/>
</g>
<!-- Tbet_mRNA&#45;&gt;reaction_9_intermediate_m -->
<g id="edge74" class="edge"><title>Tbet_mRNA&#45;&gt;reaction_9_intermediate_m</title>
<path fill="none" stroke="black" d="M699.685,-42.1049C729.706,-32.0978 766.612,-19.7961 768.889,-19.037"/>
</g>
<!-- Ifn_mRNA -->
<g id="node2" class="node"><title>Ifn_mRNA</title>
<polyline fill="none" stroke="black" points="284,-240 242,-240 "/>
<path fill="none" stroke="black" d="M242,-240C236,-240 230,-234 230,-228"/>
<polyline fill="none" stroke="black" points="230,-228 230,-216 "/>
<path fill="none" stroke="black" d="M230,-216C230,-210 236,-204 242,-204"/>
<polyline fill="none" stroke="black" points="242,-204 284,-204 "/>
<path fill="none" stroke="black" d="M284,-204C290,-204 296,-210 296,-216"/>
<polyline fill="none" stroke="black" points="296,-216 296,-228 "/>
<path fill="none" stroke="black" d="M296,-228C296,-234 290,-240 284,-240"/>
<text text-anchor="middle" x="263" y="-219.5" font-family="Times Roman,serif" font-size="10.00">Ifn_mRNA</text>
</g>
<!-- reaction_7_intermediate_r -->
<g id="node58" class="node"><title>reaction_7_intermediate_r</title>
<ellipse fill="black" stroke="black" cx="359" cy="-422" rx="0.036" ry="0.036"/>
</g>
<!-- Ifn_mRNA&#45;&gt;reaction_7_intermediate_r -->
<g id="edge56" class="edge"><title>Ifn_mRNA&#45;&gt;reaction_7_intermediate_r</title>
<path fill="none" stroke="black" d="M264.383,-240.031C268.221,-277.54 282.279,-364.502 332,-413 340.772,-421.556 357.887,-421.981 358.948,-421.999"/>
</g>
<!-- reaction_10_intermediate_m -->
<g id="node84" class="node"><title>reaction_10_intermediate_m</title>
<ellipse fill="black" stroke="black" cx="359" cy="-200" rx="0.036" ry="0.036"/>
</g>
<!-- Ifn_mRNA&#45;&gt;reaction_10_intermediate_m -->
<g id="edge84" class="edge"><title>Ifn_mRNA&#45;&gt;reaction_10_intermediate_m</title>
<path fill="none" stroke="black" d="M296.038,-214.429C322.939,-208.264 356.808,-200.502 358.898,-200.023"/>
</g>
<!-- Ag -->
<g id="node3" class="node"><title>Ag</title>
<ellipse fill="none" stroke="black" cx="456" cy="-169" rx="27" ry="18"/>
<text text-anchor="middle" x="456" y="-166.5" font-family="Times Roman,serif" font-size="10.00">Ag</text>
</g>
<!-- vtrnldeg_intermediate_m -->
<g id="node14" class="node"><title>vtrnldeg_intermediate_m</title>
<ellipse fill="black" stroke="black" cx="553" cy="-124" rx="0.036" ry="0.036"/>
</g>
<!-- Ag&#45;&gt;vtrnldeg_intermediate_m -->
<g id="edge10" class="edge"><title>Ag&#45;&gt;vtrnldeg_intermediate_m</title>
<path fill="none" stroke="black" d="M478.498,-158.563C506.257,-145.685 550.151,-125.322 552.868,-124.061"/>
</g>
<!-- reaction_12_intermediate_m -->
<g id="node102" class="node"><title>reaction_12_intermediate_m</title>
<ellipse fill="black" stroke="black" cx="553" cy="-232" rx="0.036" ry="0.036"/>
</g>
<!-- Ag&#45;&gt;reaction_12_intermediate_m -->
<g id="edge106" class="edge"><title>Ag&#45;&gt;reaction_12_intermediate_m</title>
<path fill="none" stroke="black" d="M473.767,-182.943C493.548,-198.43 523.138,-221.476 526,-223 536.815,-228.761 552.015,-231.806 552.954,-231.991"/>
</g>
<!-- reaction_13_intermediate_m -->
<g id="node112" class="node"><title>reaction_13_intermediate_m</title>
<ellipse fill="black" stroke="black" cx="553" cy="-264" rx="0.036" ry="0.036"/>
</g>
<!-- Ag&#45;&gt;reaction_13_intermediate_m -->
<g id="edge120" class="edge"><title>Ag&#45;&gt;reaction_13_intermediate_m</title>
<path fill="none" stroke="black" d="M474.286,-182.295C479.566,-186.453 485.194,-191.212 490,-196 508.143,-214.078 508.171,-222.612 526,-241 536.631,-251.963 552.003,-263.27 552.954,-263.966"/>
</g>
<!-- Ifn_Prot -->
<g id="node4" class="node"><title>Ifn_Prot</title>
<polyline fill="none" stroke="black" points="472,-133 440,-133 "/>
<path fill="none" stroke="black" d="M440,-133C434,-133 428,-127 428,-121"/>
<polyline fill="none" stroke="black" points="428,-121 428,-109 "/>
<path fill="none" stroke="black" d="M428,-109C428,-103 434,-97 440,-97"/>
<polyline fill="none" stroke="black" points="440,-97 472,-97 "/>
<path fill="none" stroke="black" d="M472,-97C478,-97 484,-103 484,-109"/>
<polyline fill="none" stroke="black" points="484,-109 484,-121 "/>
<path fill="none" stroke="black" d="M484,-121C484,-127 478,-133 472,-133"/>
<text text-anchor="middle" x="456" y="-112.5" font-family="Times Roman,serif" font-size="10.00">Ifn_Prot</text>
</g>
<!-- Ifn_Prot&#45;&gt;vtrnldeg_intermediate_m -->
<g id="edge12" class="edge"><title>Ifn_Prot&#45;&gt;vtrnldeg_intermediate_m</title>
<path fill="none" stroke="black" d="M484.056,-117.603C511.809,-120.178 550.493,-123.767 552.884,-123.989"/>
</g>
<!-- reaction_8_intermediate_r -->
<g id="node64" class="node"><title>reaction_8_intermediate_r</title>
<ellipse fill="black" stroke="black" cx="553" cy="-106" rx="0.036" ry="0.036"/>
</g>
<!-- Ifn_Prot&#45;&gt;reaction_8_intermediate_r -->
<g id="edge62" class="edge"><title>Ifn_Prot&#45;&gt;reaction_8_intermediate_r</title>
<path fill="none" stroke="black" d="M484.056,-112.397C511.809,-109.822 550.493,-106.233 552.884,-106.011"/>
</g>
<!-- Rec_Prot -->
<g id="node5" class="node"><title>Rec_Prot</title>
<polyline fill="none" stroke="black" points="475,-397 437,-397 "/>
<path fill="none" stroke="black" d="M437,-397C431,-397 425,-391 425,-385"/>
<polyline fill="none" stroke="black" points="425,-385 425,-373 "/>
<path fill="none" stroke="black" d="M425,-373C425,-367 431,-361 437,-361"/>
<polyline fill="none" stroke="black" points="437,-361 475,-361 "/>
<path fill="none" stroke="black" d="M475,-361C481,-361 487,-367 487,-373"/>
<polyline fill="none" stroke="black" points="487,-373 487,-385 "/>
<path fill="none" stroke="black" d="M487,-385C487,-391 481,-397 475,-397"/>
<text text-anchor="middle" x="456" y="-376.5" font-family="Times Roman,serif" font-size="10.00">Rec_Prot</text>
</g>
<!-- reaction_1_intermediate_m -->
<g id="node24" class="node"><title>reaction_1_intermediate_m</title>
<ellipse fill="black" stroke="black" cx="553" cy="-353" rx="0.036" ry="0.036"/>
</g>
<!-- Rec_Prot&#45;&gt;reaction_1_intermediate_m -->
<g id="edge22" class="edge"><title>Rec_Prot&#45;&gt;reaction_1_intermediate_m</title>
<path fill="none" stroke="black" d="M487.761,-370.487C515.167,-363.141 550.699,-353.617 552.893,-353.029"/>
</g>
<!-- reaction_6_intermediate_r -->
<g id="node52" class="node"><title>reaction_6_intermediate_r</title>
<ellipse fill="black" stroke="black" cx="553" cy="-377" rx="0.036" ry="0.036"/>
</g>
<!-- Rec_Prot&#45;&gt;reaction_6_intermediate_r -->
<g id="edge50" class="edge"><title>Rec_Prot&#45;&gt;reaction_6_intermediate_r</title>
<path fill="none" stroke="black" d="M487.761,-378.345C515.167,-377.78 550.699,-377.047 552.893,-377.002"/>
</g>
<!-- Rec_Prot&#45;&gt;reaction_13_intermediate_m -->
<g id="edge118" class="edge"><title>Rec_Prot&#45;&gt;reaction_13_intermediate_m</title>
<path fill="none" stroke="black" d="M480.598,-360.998C483.907,-358.145 487.142,-355.106 490,-352 509.531,-330.774 509.016,-321.314 526,-298 537.007,-282.891 552.027,-265.147 552.955,-264.053"/>
</g>
<!-- Tbet_Prot -->
<g id="node6" class="node"><title>Tbet_Prot</title>
<polyline fill="none" stroke="black" points="477,-241 435,-241 "/>
<path fill="none" stroke="black" d="M435,-241C429,-241 423,-235 423,-229"/>
<polyline fill="none" stroke="black" points="423,-229 423,-217 "/>
<path fill="none" stroke="black" d="M423,-217C423,-211 429,-205 435,-205"/>
<polyline fill="none" stroke="black" points="435,-205 477,-205 "/>
<path fill="none" stroke="black" d="M477,-205C483,-205 489,-211 489,-217"/>
<polyline fill="none" stroke="black" points="489,-217 489,-229 "/>
<path fill="none" stroke="black" d="M489,-229C489,-235 483,-241 477,-241"/>
<text text-anchor="middle" x="456" y="-220.5" font-family="Times Roman,serif" font-size="10.00">Tbet_Prot</text>
</g>
<!-- reaction_4_intermediate_r -->
<g id="node40" class="node"><title>reaction_4_intermediate_r</title>
<ellipse fill="black" stroke="black" cx="553" cy="-214" rx="0.036" ry="0.036"/>
</g>
<!-- Tbet_Prot&#45;&gt;reaction_4_intermediate_r -->
<g id="edge38" class="edge"><title>Tbet_Prot&#45;&gt;reaction_4_intermediate_r</title>
<path fill="none" stroke="black" d="M489.654,-219.877C516.794,-217.359 550.799,-214.204 552.898,-214.009"/>
</g>
<!-- Tbet_Prot&#45;&gt;reaction_12_intermediate_m -->
<g id="edge104" class="edge"><title>Tbet_Prot&#45;&gt;reaction_12_intermediate_m</title>
<path fill="none" stroke="black" d="M489.654,-226.123C516.794,-228.641 550.799,-231.796 552.898,-231.991"/>
</g>
<!-- Tbet_Prot&#45;&gt;reaction_13_intermediate_m -->
<g id="edge116" class="edge"><title>Tbet_Prot&#45;&gt;reaction_13_intermediate_m</title>
<path fill="none" stroke="black" d="M489.654,-237.225C516.794,-248.696 550.799,-263.07 552.898,-263.957"/>
</g>
<!-- Rec_mRNA -->
<g id="node7" class="node"><title>Rec_mRNA</title>
<ellipse fill="none" stroke="black" cx="661" cy="-311" rx="43.8243" ry="18"/>
<text text-anchor="middle" x="661" y="-308.5" font-family="Times Roman,serif" font-size="10.00">Rec_mRNA</text>
</g>
<!-- reaction_5_intermediate_r -->
<g id="node46" class="node"><title>reaction_5_intermediate_r</title>
<ellipse fill="black" stroke="black" cx="769" cy="-311" rx="0.036" ry="0.036"/>
</g>
<!-- Rec_mRNA&#45;&gt;reaction_5_intermediate_r -->
<g id="edge44" class="edge"><title>Rec_mRNA&#45;&gt;reaction_5_intermediate_r</title>
<path fill="none" stroke="black" d="M705.551,-311C734.371,-311 766.898,-311 768.902,-311"/>
</g>
<!-- reaction_11_intermediate_m -->
<g id="node93" class="node"><title>reaction_11_intermediate_m</title>
<ellipse fill="black" stroke="black" cx="769" cy="-337" rx="0.036" ry="0.036"/>
</g>
<!-- Rec_mRNA&#45;&gt;reaction_11_intermediate_m -->
<g id="edge94" class="edge"><title>Rec_mRNA&#45;&gt;reaction_11_intermediate_m</title>
<path fill="none" stroke="black" d="M699.381,-320.24C729.453,-327.479 766.596,-336.421 768.888,-336.973"/>
</g>
<!-- vtrnldeg -->
<g id="node8" class="node"><title>vtrnldeg</title>
<polygon fill="none" stroke="black" points="463,-79 449,-79 449,-65 463,-65 463,-79"/>
</g>
<!-- vtrnldeg_intermediate_p -->
<g id="node11" class="node"><title>vtrnldeg_intermediate_p</title>
<ellipse fill="black" stroke="black" cx="553" cy="-69" rx="0.036" ry="0.036"/>
</g>
<!-- vtrnldeg&#45;&gt;vtrnldeg_intermediate_p -->
<g id="edge4" class="edge"><title>vtrnldeg&#45;&gt;vtrnldeg_intermediate_p</title>
<path fill="none" stroke="black" d="M463.291,-71.7745C485.497,-71.0877 550.912,-69.0646 552.951,-69.0015"/>
</g>
<!-- vtrnldeg&#45;&gt;vtrnldeg_intermediate_m -->
<g id="edge8" class="edge"><title>vtrnldeg&#45;&gt;vtrnldeg_intermediate_m</title>
<path fill="none" stroke="black" d="M474.635,-79.9358C479.727,-82.3266 485.17,-85.0938 490,-88 507.137,-98.3114 508.284,-105.718 526,-115 536.854,-120.687 552.017,-123.802 552.954,-123.991"/>
<polygon fill="none" stroke="black" points="474.225,-79.7546 467.12,-80.9871 463.25,-74.9027 470.355,-73.6702 474.225,-79.7546"/>
</g>
<!-- vtrnldeg_empty -->
<g id="node9" class="node"><title>vtrnldeg_empty</title>
<text text-anchor="middle" x="359" y="-95.5" font-family="Times Roman,serif" font-size="15.00" fill="blue">Ø</text>
</g>
<!-- vtrnldeg_empty&#45;&gt;vtrnldeg -->
<g id="edge2" class="edge"><title>vtrnldeg_empty&#45;&gt;vtrnldeg</title>
<path fill="none" stroke="black" d="M386.02,-92.2004C407.322,-86.0514 435.552,-77.9026 448.692,-74.1096"/>
</g>
<!-- vtrnldeg_intermediate_p&#45;&gt;Tbet_mRNA -->
<g id="edge6" class="edge"><title>vtrnldeg_intermediate_p&#45;&gt;Tbet_mRNA</title>
<path fill="none" stroke="black" d="M553.078,-68.9899C554.796,-68.7671 584.493,-64.9176 612.297,-61.3133"/>
<polygon fill="black" stroke="black" points="612.933,-64.7603 622.4,-60.0037 612.033,-57.8183 612.933,-64.7603"/>
</g>
<!-- reaction_1 -->
<g id="node18" class="node"><title>reaction_1</title>
<polygon fill="none" stroke="black" points="463,-343 449,-343 449,-329 463,-329 463,-343"/>
</g>
<!-- reaction_1_intermediate_p -->
<g id="node21" class="node"><title>reaction_1_intermediate_p</title>
<ellipse fill="black" stroke="black" cx="553" cy="-329" rx="0.036" ry="0.036"/>
</g>
<!-- reaction_1&#45;&gt;reaction_1_intermediate_p -->
<g id="edge16" class="edge"><title>reaction_1&#45;&gt;reaction_1_intermediate_p</title>
<path fill="none" stroke="black" d="M463.291,-335.474C485.497,-333.871 550.912,-329.151 552.951,-329.004"/>
</g>
<!-- reaction_1&#45;&gt;reaction_1_intermediate_m -->
<g id="edge20" class="edge"><title>reaction_1&#45;&gt;reaction_1_intermediate_m</title>
<path fill="none" stroke="black" d="M475.305,-339.383C503.082,-344.251 551.207,-352.686 552.951,-352.991"/>
<polygon fill="none" stroke="black" points="475.111,-339.349 468.51,-342.254 463.291,-337.278 469.891,-334.374 475.111,-339.349"/>
</g>
<!-- reaction_1_empty -->
<g id="node19" class="node"><title>reaction_1_empty</title>
<text text-anchor="middle" x="359" y="-363.5" font-family="Times Roman,serif" font-size="15.00" fill="blue">Ø</text>
</g>
<!-- reaction_1_empty&#45;&gt;reaction_1 -->
<g id="edge14" class="edge"><title>reaction_1_empty&#45;&gt;reaction_1</title>
<path fill="none" stroke="black" d="M386.02,-359.086C407.322,-352.059 435.552,-342.746 448.692,-338.411"/>
</g>
<!-- reaction_1_intermediate_p&#45;&gt;Tbet_mRNA -->
<g id="edge18" class="edge"><title>reaction_1_intermediate_p&#45;&gt;Tbet_mRNA</title>
<path fill="none" stroke="black" d="M553.055,-328.993C554.18,-328.847 572.295,-326.349 580,-316 640.743,-234.419 564.244,-177.558 616,-90 618.038,-86.552 620.556,-83.3195 623.352,-80.3205"/>
<polygon fill="black" stroke="black" points="625.87,-82.7573 630.758,-73.3571 621.075,-77.6577 625.87,-82.7573"/>
</g>
<!-- reaction_2 -->
<g id="node27" class="node"><title>reaction_2</title>
<polygon fill="none" stroke="black" points="463,-47 449,-47 449,-33 463,-33 463,-47"/>
</g>
<!-- reaction_2_intermediate_p -->
<g id="node30" class="node"><title>reaction_2_intermediate_p</title>
<ellipse fill="black" stroke="black" cx="553" cy="-44" rx="0.036" ry="0.036"/>
</g>
<!-- reaction_2&#45;&gt;reaction_2_intermediate_p -->
<g id="edge26" class="edge"><title>reaction_2&#45;&gt;reaction_2_intermediate_p</title>
<path fill="none" stroke="black" d="M463.291,-40.3007C485.497,-41.2164 550.912,-43.9139 552.951,-43.998"/>
</g>
<!-- reaction_2_empty -->
<g id="node28" class="node"><title>reaction_2_empty</title>
<text text-anchor="middle" x="359" y="-41.5" font-family="Times Roman,serif" font-size="15.00" fill="blue">Ø</text>
</g>
<!-- reaction_2_empty&#45;&gt;reaction_2 -->
<g id="edge24" class="edge"><title>reaction_2_empty&#45;&gt;reaction_2</title>
<path fill="none" stroke="black" d="M386.02,-44.3287C407.322,-43.011 435.552,-41.2648 448.692,-40.4521"/>
</g>
<!-- reaction_2_intermediate_p&#45;&gt;Tbet_mRNA -->
<g id="edge28" class="edge"><title>reaction_2_intermediate_p&#45;&gt;Tbet_mRNA</title>
<path fill="none" stroke="black" d="M553.078,-44.008C554.796,-44.183 584.493,-47.2076 612.297,-50.0395"/>
<polygon fill="black" stroke="black" points="612.097,-53.5372 622.4,-51.0685 612.806,-46.5732 612.097,-53.5372"/>
</g>
<!-- reaction_3 -->
<g id="node33" class="node"><title>reaction_3</title>
<polygon fill="none" stroke="black" points="846,-62 832,-62 832,-48 846,-48 846,-62"/>
</g>
<!-- reaction_3_empty -->
<g id="node37" class="node"><title>reaction_3_empty</title>
<text text-anchor="middle" x="909" y="-50.5" font-family="Times Roman,serif" font-size="15.00" fill="blue">Ø</text>
</g>
<!-- reaction_3&#45;&gt;reaction_3_empty -->
<g id="edge34" class="edge"><title>reaction_3&#45;&gt;reaction_3_empty</title>
<path fill="none" stroke="black" d="M846.228,-55C852.45,-55 861.94,-55 871.672,-55"/>
<polygon fill="black" stroke="black" points="871.773,-58.5001 881.773,-55 871.773,-51.5001 871.773,-58.5001"/>
</g>
<!-- reaction_3_intermediate_r&#45;&gt;reaction_3 -->
<g id="edge30" class="edge"><title>reaction_3_intermediate_r&#45;&gt;reaction_3</title>
<path fill="none" stroke="black" d="M769.051,-55C770.748,-55 814.582,-55 831.98,-55"/>
</g>
<!-- reaction_4 -->
<g id="node39" class="node"><title>reaction_4</title>
<polygon fill="none" stroke="black" points="668,-221 654,-221 654,-207 668,-207 668,-221"/>
</g>
<!-- reaction_4_empty -->
<g id="node43" class="node"><title>reaction_4_empty</title>
<text text-anchor="middle" x="769" y="-209.5" font-family="Times Roman,serif" font-size="15.00" fill="blue">Ø</text>
</g>
<!-- reaction_4&#45;&gt;reaction_4_empty -->
<g id="edge40" class="edge"><title>reaction_4&#45;&gt;reaction_4_empty</title>
<path fill="none" stroke="black" d="M668.086,-214C680.783,-214 708.241,-214 731.314,-214"/>
<polygon fill="black" stroke="black" points="731.538,-217.5 741.538,-214 731.538,-210.5 731.538,-217.5"/>
</g>
<!-- reaction_4_intermediate_r&#45;&gt;reaction_4 -->
<g id="edge36" class="edge"><title>reaction_4_intermediate_r&#45;&gt;reaction_4</title>
<path fill="none" stroke="black" d="M553.078,-214C555.825,-214 630.079,-214 653.793,-214"/>
</g>
<!-- reaction_5 -->
<g id="node45" class="node"><title>reaction_5</title>
<polygon fill="none" stroke="black" points="846,-318 832,-318 832,-304 846,-304 846,-318"/>
</g>
<!-- reaction_5_empty -->
<g id="node49" class="node"><title>reaction_5_empty</title>
<text text-anchor="middle" x="909" y="-306.5" font-family="Times Roman,serif" font-size="15.00" fill="blue">Ø</text>
</g>
<!-- reaction_5&#45;&gt;reaction_5_empty -->
<g id="edge46" class="edge"><title>reaction_5&#45;&gt;reaction_5_empty</title>
<path fill="none" stroke="black" d="M846.228,-311C852.45,-311 861.94,-311 871.672,-311"/>
<polygon fill="black" stroke="black" points="871.773,-314.5 881.773,-311 871.773,-307.5 871.773,-314.5"/>
</g>
<!-- reaction_5_intermediate_r&#45;&gt;reaction_5 -->
<g id="edge42" class="edge"><title>reaction_5_intermediate_r&#45;&gt;reaction_5</title>
<path fill="none" stroke="black" d="M769.051,-311C770.748,-311 814.582,-311 831.98,-311"/>
</g>
<!-- reaction_6 -->
<g id="node51" class="node"><title>reaction_6</title>
<polygon fill="none" stroke="black" points="668,-384 654,-384 654,-370 668,-370 668,-384"/>
</g>
<!-- reaction_6_empty -->
<g id="node55" class="node"><title>reaction_6_empty</title>
<text text-anchor="middle" x="769" y="-372.5" font-family="Times Roman,serif" font-size="15.00" fill="blue">Ø</text>
</g>
<!-- reaction_6&#45;&gt;reaction_6_empty -->
<g id="edge52" class="edge"><title>reaction_6&#45;&gt;reaction_6_empty</title>
<path fill="none" stroke="black" d="M668.086,-377C680.783,-377 708.241,-377 731.314,-377"/>
<polygon fill="black" stroke="black" points="731.538,-380.5 741.538,-377 731.538,-373.5 731.538,-380.5"/>
</g>
<!-- reaction_6_intermediate_r&#45;&gt;reaction_6 -->
<g id="edge48" class="edge"><title>reaction_6_intermediate_r&#45;&gt;reaction_6</title>
<path fill="none" stroke="black" d="M553.078,-377C555.825,-377 630.079,-377 653.793,-377"/>
</g>
<!-- reaction_7 -->
<g id="node57" class="node"><title>reaction_7</title>
<polygon fill="none" stroke="black" points="463,-429 449,-429 449,-415 463,-415 463,-429"/>
</g>
<!-- reaction_7_empty -->
<g id="node61" class="node"><title>reaction_7_empty</title>
<text text-anchor="middle" x="553" y="-408.5" font-family="Times Roman,serif" font-size="15.00" fill="blue">Ø</text>
</g>
<!-- reaction_7&#45;&gt;reaction_7_empty -->
<g id="edge58" class="edge"><title>reaction_7&#45;&gt;reaction_7_empty</title>
<path fill="none" stroke="black" d="M463.291,-421.324C474.42,-420.291 496.404,-418.251 515.822,-416.449"/>
<polygon fill="black" stroke="black" points="516.332,-419.917 525.966,-415.508 515.685,-412.947 516.332,-419.917"/>
</g>
<!-- reaction_7_intermediate_r&#45;&gt;reaction_7 -->
<g id="edge54" class="edge"><title>reaction_7_intermediate_r&#45;&gt;reaction_7</title>
<path fill="none" stroke="black" d="M359.07,-422C361.514,-422 426.993,-422 448.921,-422"/>
</g>
<!-- reaction_8 -->
<g id="node63" class="node"><title>reaction_8</title>
<polygon fill="none" stroke="black" points="668,-113 654,-113 654,-99 668,-99 668,-113"/>
</g>
<!-- reaction_8_empty -->
<g id="node67" class="node"><title>reaction_8_empty</title>
<text text-anchor="middle" x="769" y="-101.5" font-family="Times Roman,serif" font-size="15.00" fill="blue">Ø</text>
</g>
<!-- reaction_8&#45;&gt;reaction_8_empty -->
<g id="edge64" class="edge"><title>reaction_8&#45;&gt;reaction_8_empty</title>
<path fill="none" stroke="black" d="M668.086,-106C680.783,-106 708.241,-106 731.314,-106"/>
<polygon fill="black" stroke="black" points="731.538,-109.5 741.538,-106 731.538,-102.5 731.538,-109.5"/>
</g>
<!-- reaction_8_intermediate_r&#45;&gt;reaction_8 -->
<g id="edge60" class="edge"><title>reaction_8_intermediate_r&#45;&gt;reaction_8</title>
<path fill="none" stroke="black" d="M553.078,-106C555.825,-106 630.079,-106 653.793,-106"/>
</g>
<!-- reaction_9 -->
<g id="node69" class="node"><title>reaction_9</title>
<polygon fill="none" stroke="black" points="270,-67 256,-67 256,-53 270,-53 270,-67"/>
</g>
<!-- reaction_9_intermediate_p -->
<g id="node72" class="node"><title>reaction_9_intermediate_p</title>
<ellipse fill="black" stroke="black" cx="359" cy="-140" rx="0.036" ry="0.036"/>
</g>
<!-- reaction_9&#45;&gt;reaction_9_intermediate_p -->
<g id="edge68" class="edge"><title>reaction_9&#45;&gt;reaction_9_intermediate_p</title>
<path fill="none" stroke="black" d="M268.853,-67.0266C280.046,-80.1336 305.718,-108.642 332,-127 342.578,-134.388 358,-139.662 358.954,-139.984"/>
</g>
<!-- reaction_9&#45;&gt;reaction_9_intermediate_m -->
<g id="edge72" class="edge"><title>reaction_9&#45;&gt;reaction_9_intermediate_m</title>
<path fill="none" stroke="black" d="M280.258,-47.1833C293.678,-37.8718 313.129,-25.7624 332,-19 384.486,-0.191588 400.246,-0 456,-0 456,-0 456,-0 553,-0 647.865,-0 765.267,-18.4109 768.913,-18.9862"/>
<polygon fill="none" stroke="black" points="279.92,-47.4269 277.389,-54.1795 270.183,-54.4411 272.713,-47.6885 279.92,-47.4269"/>
</g>
<!-- reaction_9_empty -->
<g id="node70" class="node"><title>reaction_9_empty</title>
<text text-anchor="middle" x="167" y="-55.5" font-family="Times Roman,serif" font-size="15.00" fill="blue">Ø</text>
</g>
<!-- reaction_9_empty&#45;&gt;reaction_9 -->
<g id="edge66" class="edge"><title>reaction_9_empty&#45;&gt;reaction_9</title>
<path fill="none" stroke="black" d="M194.253,-60C215.318,-60 242.983,-60 255.848,-60"/>
</g>
<!-- reaction_9_intermediate_p&#45;&gt;Tbet_Prot -->
<g id="edge70" class="edge"><title>reaction_9_intermediate_p&#45;&gt;Tbet_Prot</title>
<path fill="none" stroke="black" d="M359.045,-140.032C359.967,-140.688 374.891,-151.331 386,-161 402.833,-175.65 405.241,-181.265 422,-196 422.821,-196.722 423.658,-197.448 424.506,-198.177"/>
<polygon fill="black" stroke="black" points="422.416,-200.991 432.337,-204.71 426.901,-195.616 422.416,-200.991"/>
</g>
<!-- reaction_10 -->
<g id="node78" class="node"><title>reaction_10</title>
<polygon fill="none" stroke="black" points="270,-180 256,-180 256,-166 270,-166 270,-180"/>
</g>
<!-- reaction_10_intermediate_p -->
<g id="node81" class="node"><title>reaction_10_intermediate_p</title>
<ellipse fill="black" stroke="black" cx="359" cy="-170" rx="0.036" ry="0.036"/>
</g>
<!-- reaction_10&#45;&gt;reaction_10_intermediate_p -->
<g id="edge78" class="edge"><title>reaction_10&#45;&gt;reaction_10_intermediate_p</title>
<path fill="none" stroke="black" d="M270.216,-172.775C292.193,-172.088 356.934,-170.065 358.952,-170.002"/>
</g>
<!-- reaction_10&#45;&gt;reaction_10_intermediate_m -->
<g id="edge82" class="edge"><title>reaction_10&#45;&gt;reaction_10_intermediate_m</title>
<path fill="none" stroke="black" d="M282.106,-178.374C309.597,-186.105 357.226,-199.501 358.952,-199.986"/>
<polygon fill="none" stroke="black" points="281.767,-178.278 274.909,-180.505 270.216,-175.029 277.075,-172.803 281.767,-178.278"/>
</g>
<!-- reaction_10_empty -->
<g id="node79" class="node"><title>reaction_10_empty</title>
<text text-anchor="middle" x="167" y="-168.5" font-family="Times Roman,serif" font-size="15.00" fill="blue">Ø</text>
</g>
<!-- reaction_10_empty&#45;&gt;reaction_10 -->
<g id="edge76" class="edge"><title>reaction_10_empty&#45;&gt;reaction_10</title>
<path fill="none" stroke="black" d="M194.253,-173C215.318,-173 242.983,-173 255.848,-173"/>
</g>
<!-- reaction_10_intermediate_p&#45;&gt;Ifn_Prot -->
<g id="edge80" class="edge"><title>reaction_10_intermediate_p&#45;&gt;Ifn_Prot</title>
<path fill="none" stroke="black" d="M359.07,-169.96C360.756,-169.004 392.421,-151.05 419.107,-135.919"/>
<polygon fill="black" stroke="black" points="420.942,-138.902 427.915,-130.924 417.49,-132.812 420.942,-138.902"/>
</g>
<!-- reaction_11 -->
<g id="node87" class="node"><title>reaction_11</title>
<polygon fill="none" stroke="black" points="270,-438 256,-438 256,-424 270,-424 270,-438"/>
</g>
<!-- reaction_11_intermediate_p -->
<g id="node90" class="node"><title>reaction_11_intermediate_p</title>
<ellipse fill="black" stroke="black" cx="359" cy="-404" rx="0.036" ry="0.036"/>
</g>
<!-- reaction_11&#45;&gt;reaction_11_intermediate_p -->
<g id="edge88" class="edge"><title>reaction_11&#45;&gt;reaction_11_intermediate_p</title>
<path fill="none" stroke="black" d="M270.216,-428.971C292.193,-422.79 356.934,-404.581 358.952,-404.014"/>
</g>
<!-- reaction_11&#45;&gt;reaction_11_intermediate_m -->
<g id="edge92" class="edge"><title>reaction_11&#45;&gt;reaction_11_intermediate_m</title>
<path fill="none" stroke="black" d="M282.128,-435.643C316.641,-443.602 391.723,-459 456,-459 456,-459 456,-459 553,-459 627.057,-459 646.622,-437.257 706,-393 725.984,-378.105 722.329,-365.306 742,-350 752.183,-342.077 767.975,-337.305 768.952,-337.014"/>
<polygon fill="none" stroke="black" points="281.982,-435.609 275.221,-438.115 270.307,-432.837 277.069,-430.331 281.982,-435.609"/>
</g>
<!-- reaction_11_empty -->
<g id="node88" class="node"><title>reaction_11_empty</title>
<text text-anchor="middle" x="167" y="-426.5" font-family="Times Roman,serif" font-size="15.00" fill="blue">Ø</text>
</g>
<!-- reaction_11_empty&#45;&gt;reaction_11 -->
<g id="edge86" class="edge"><title>reaction_11_empty&#45;&gt;reaction_11</title>
<path fill="none" stroke="black" d="M194.253,-431C215.318,-431 242.983,-431 255.848,-431"/>
</g>
<!-- reaction_11_intermediate_p&#45;&gt;Rec_Prot -->
<g id="edge90" class="edge"><title>reaction_11_intermediate_p&#45;&gt;Rec_Prot</title>
<path fill="none" stroke="black" d="M359.07,-403.982C360.656,-403.573 388.762,-396.329 414.301,-389.747"/>
<polygon fill="black" stroke="black" points="415.458,-393.063 424.268,-387.178 413.711,-386.285 415.458,-393.063"/>
</g>
<!-- reaction_12 -->
<g id="node96" class="node"><title>reaction_12</title>
<polygon fill="none" stroke="black" points="463,-311 449,-311 449,-297 463,-297 463,-311"/>
</g>
<!-- reaction_12_intermediate_p -->
<g id="node99" class="node"><title>reaction_12_intermediate_p</title>
<ellipse fill="black" stroke="black" cx="553" cy="-307" rx="0.036" ry="0.036"/>
</g>
<!-- reaction_12&#45;&gt;reaction_12_intermediate_p -->
<g id="edge98" class="edge"><title>reaction_12&#45;&gt;reaction_12_intermediate_p</title>
<path fill="none" stroke="black" d="M463.291,-304.225C485.497,-304.912 550.912,-306.935 552.951,-306.998"/>
</g>
<!-- reaction_12&#45;&gt;reaction_12_intermediate_m -->
<g id="edge102" class="edge"><title>reaction_12&#45;&gt;reaction_12_intermediate_m</title>
<path fill="none" stroke="black" d="M473.069,-291.33C500.41,-271.036 551.159,-233.366 552.951,-232.036"/>
<polygon fill="none" stroke="black" points="472.926,-291.436 470.493,-298.224 463.291,-298.588 465.725,-291.8 472.926,-291.436"/>
</g>
<!-- reaction_12_empty -->
<g id="node97" class="node"><title>reaction_12_empty</title>
<text text-anchor="middle" x="359" y="-309.5" font-family="Times Roman,serif" font-size="15.00" fill="blue">Ø</text>
</g>
<!-- reaction_12_empty&#45;&gt;reaction_12 -->
<g id="edge96" class="edge"><title>reaction_12_empty&#45;&gt;reaction_12</title>
<path fill="none" stroke="black" d="M386.02,-311.214C407.322,-309.018 435.552,-306.108 448.692,-304.753"/>
</g>
<!-- reaction_12_intermediate_p&#45;&gt;Rec_mRNA -->
<g id="edge100" class="edge"><title>reaction_12_intermediate_p&#45;&gt;Rec_mRNA</title>
<path fill="none" stroke="black" d="M553.078,-307.003C554.674,-307.062 580.409,-308.015 606.346,-308.976"/>
<polygon fill="black" stroke="black" points="606.506,-312.484 616.629,-309.357 606.766,-305.489 606.506,-312.484"/>
</g>
<!-- reaction_13 -->
<g id="node106" class="node"><title>reaction_13</title>
<polygon fill="none" stroke="black" points="104,-256 90,-256 90,-242 104,-242 104,-256"/>
</g>
<!-- reaction_13_intermediate_p -->
<g id="node109" class="node"><title>reaction_13_intermediate_p</title>
<ellipse fill="black" stroke="black" cx="167" cy="-231" rx="0.036" ry="0.036"/>
</g>
<!-- reaction_13&#45;&gt;reaction_13_intermediate_p -->
<g id="edge110" class="edge"><title>reaction_13&#45;&gt;reaction_13_intermediate_p</title>
<path fill="none" stroke="black" d="M104.228,-247.141C121.554,-242.686 164.221,-231.715 166.871,-231.033"/>
</g>
<!-- reaction_13&#45;&gt;reaction_13_intermediate_m -->
<g id="edge114" class="edge"><title>reaction_13&#45;&gt;reaction_13_intermediate_m</title>
<path fill="none" stroke="black" d="M116.163,-249.63C202.007,-252.454 547.237,-263.81 552.929,-263.998"/>
<polygon fill="none" stroke="black" points="116.156,-249.63 110.028,-253.431 104.163,-249.236 110.291,-245.435 116.156,-249.63"/>
</g>
<!-- reaction_13_empty -->
<g id="node107" class="node"><title>reaction_13_empty</title>
<text text-anchor="middle" x="27" y="-244.5" font-family="Times Roman,serif" font-size="15.00" fill="blue">Ø</text>
</g>
<!-- reaction_13_empty&#45;&gt;reaction_13 -->
<g id="edge108" class="edge"><title>reaction_13_empty&#45;&gt;reaction_13</title>
<path fill="none" stroke="black" d="M54.2643,-249C67.1627,-249 81.5367,-249 89.8947,-249"/>
</g>
<!-- reaction_13_intermediate_p&#45;&gt;Ifn_mRNA -->
<g id="edge112" class="edge"><title>reaction_13_intermediate_p&#45;&gt;Ifn_mRNA</title>
<path fill="none" stroke="black" d="M167.07,-230.993C168.597,-230.85 194.989,-228.376 219.702,-226.059"/>
<polygon fill="black" stroke="black" points="220.123,-229.535 229.752,-225.117 219.469,-222.566 220.123,-229.535"/>
</g>
</g>
</svg>
