<?xml version="1.0" encoding="UTF-8" standalone="no"?>
<!DOCTYPE svg PUBLIC "-//W3C//DTD SVG 1.1//EN"
 "http://www.w3.org/Graphics/SVG/1.1/DTD/svg11.dtd">
<!-- Generated by graphviz version 2.24.0 (20090616.2323)
 -->
<!-- Title: G Pages: 1 -->
<svg width="874pt" height="680pt"
 viewBox="0.00 0.00 874.00 680.00" xmlns="http://www.w3.org/2000/svg" xmlns:xlink="http://www.w3.org/1999/xlink">
<g id="graph1" class="graph" transform="scale(1 1) rotate(0) translate(4 676)">
<title>G</title>
<polygon fill="white" stroke="white" points="-4,5 -4,-676 871,-676 871,5 -4,5"/>
<!-- M -->
<g id="node1" class="node"><title>M</title>
<polyline fill="none" stroke="black" points="42,-445 12,-445 "/>
<path fill="none" stroke="black" d="M12,-445C6,-445 2.07242e-14,-439 1.65793e-14,-433"/>
<polyline fill="none" stroke="black" points="1.65793e-14,-433 8.28967e-15,-421 "/>
<path fill="none" stroke="black" d="M8.28967e-15,-421C4.14483e-15,-415 6,-409 12,-409"/>
<polyline fill="none" stroke="black" points="12,-409 42,-409 "/>
<path fill="none" stroke="black" d="M42,-409C48,-409 54,-415 54,-421"/>
<polyline fill="none" stroke="black" points="54,-421 54,-433 "/>
<path fill="none" stroke="black" d="M54,-433C54,-439 48,-445 42,-445"/>
<text text-anchor="middle" x="27" y="-424.5" font-family="Times Roman,serif" font-size="10.00">ERK</text>
</g>
<!-- v1_intermediate_r -->
<g id="node8" class="node"><title>v1_intermediate_r</title>
<ellipse fill="black" stroke="black" cx="91" cy="-427" rx="0.036" ry="0.036"/>
</g>
<!-- M&#45;&gt;v1_intermediate_r -->
<g id="edge4" class="edge"><title>M&#45;&gt;v1_intermediate_r</title>
<path fill="none" stroke="black" d="M54.1418,-427C71.0399,-427 89.7885,-427 90.9438,-427"/>
</g>
<!-- v2_intermediate_m -->
<g id="node25" class="node"><title>v2_intermediate_m</title>
<ellipse fill="black" stroke="black" cx="779" cy="-409" rx="0.036" ry="0.036"/>
</g>
<!-- M&#45;&gt;v2_intermediate_m -->
<g id="edge28" class="edge"><title>M&#45;&gt;v2_intermediate_m</title>
<path fill="none" stroke="black" d="M40.4914,-445.248C59.0304,-468.018 94.7018,-504 135,-504 135,-504 135,-504 459,-504 605.039,-504 773.642,-411.946 778.875,-409.069"/>
</g>
<!-- v3_intermediate_r -->
<g id="node31" class="node"><title>v3_intermediate_r</title>
<ellipse fill="black" stroke="black" cx="91" cy="-556" rx="0.036" ry="0.036"/>
</g>
<!-- M&#45;&gt;v3_intermediate_r -->
<g id="edge34" class="edge"><title>M&#45;&gt;v3_intermediate_r</title>
<path fill="none" stroke="black" d="M36.0339,-445.209C53.3999,-480.212 89.8384,-553.659 90.9729,-555.945"/>
</g>
<!-- v4_intermediate_m -->
<g id="node48" class="node"><title>v4_intermediate_m</title>
<ellipse fill="black" stroke="black" cx="866" cy="-577" rx="0.036" ry="0.036"/>
</g>
<!-- M&#45;&gt;v4_intermediate_m -->
<g id="edge58" class="edge"><title>M&#45;&gt;v4_intermediate_m</title>
<path fill="none" stroke="black" d="M30.8386,-445.015C43.4068,-501.595 85.3783,-672 135,-672 135,-672 135,-672 779,-672 835.358,-672 865.064,-579.946 865.978,-577.069"/>
</g>
<!-- v5_intermediate_m -->
<g id="node60" class="node"><title>v5_intermediate_m</title>
<ellipse fill="black" stroke="black" cx="651" cy="-200" rx="0.036" ry="0.036"/>
</g>
<!-- M&#45;&gt;v5_intermediate_m -->
<g id="edge76" class="edge"><title>M&#45;&gt;v5_intermediate_m</title>
<path fill="none" stroke="black" d="M28.5994,-408.623C35.3813,-336.402 64.708,-76 135,-76 135,-76 135,-76 459,-76 514.386,-76 513.32,-119.189 560,-149 597.854,-173.174 647.767,-198.373 650.85,-199.925"/>
</g>
<!-- MpY -->
<g id="node2" class="node"><title>MpY</title>
<polyline fill="none" stroke="black" points="258,-356 228,-356 "/>
<path fill="none" stroke="black" d="M228,-356C222,-356 216,-350 216,-344"/>
<polyline fill="none" stroke="black" points="216,-344 216,-332 "/>
<path fill="none" stroke="black" d="M216,-332C216,-326 222,-320 228,-320"/>
<polyline fill="none" stroke="black" points="228,-320 258,-320 "/>
<path fill="none" stroke="black" d="M258,-320C264,-320 270,-326 270,-332"/>
<polyline fill="none" stroke="black" points="270,-332 270,-344 "/>
<path fill="none" stroke="black" d="M270,-344C270,-350 264,-356 258,-356"/>
<text text-anchor="middle" x="243" y="-335.5" font-family="Times Roman,serif" font-size="10.00">ERK&#45;PY</text>
</g>
<!-- v2_intermediate_r -->
<g id="node19" class="node"><title>v2_intermediate_r</title>
<ellipse fill="black" stroke="black" cx="307" cy="-338" rx="0.036" ry="0.036"/>
</g>
<!-- MpY&#45;&gt;v2_intermediate_r -->
<g id="edge18" class="edge"><title>MpY&#45;&gt;v2_intermediate_r</title>
<path fill="none" stroke="black" d="M270.142,-338C287.04,-338 305.788,-338 306.944,-338"/>
</g>
<!-- v3_intermediate_m -->
<g id="node37" class="node"><title>v3_intermediate_m</title>
<ellipse fill="black" stroke="black" cx="779" cy="-558" rx="0.036" ry="0.036"/>
</g>
<!-- MpY&#45;&gt;v3_intermediate_m -->
<g id="edge44" class="edge"><title>MpY&#45;&gt;v3_intermediate_m</title>
<path fill="none" stroke="black" d="M270.053,-351.162C352.867,-391.303 602.463,-511.124 688,-539 726.056,-551.402 775.78,-557.606 778.85,-557.982"/>
</g>
<!-- MpY&#45;&gt;v4_intermediate_m -->
<g id="edge60" class="edge"><title>MpY&#45;&gt;v4_intermediate_m</title>
<path fill="none" stroke="black" d="M257.541,-356.071C311.016,-420.337 504.623,-634 715,-634 715,-634 715,-634 779,-634 823.782,-634 863.446,-580.507 865.882,-577.164"/>
</g>
<!-- MpY&#45;&gt;v5_intermediate_m -->
<g id="edge74" class="edge"><title>MpY&#45;&gt;v5_intermediate_m</title>
<path fill="none" stroke="black" d="M270.086,-328.839C360.499,-298.258 646.484,-201.527 650.947,-200.018"/>
</g>
<!-- v6_intermediate_m -->
<g id="node72" class="node"><title>v6_intermediate_m</title>
<ellipse fill="black" stroke="black" cx="866" cy="-123" rx="0.036" ry="0.036"/>
</g>
<!-- MpY&#45;&gt;v6_intermediate_m -->
<g id="edge92" class="edge"><title>MpY&#45;&gt;v6_intermediate_m</title>
<path fill="none" stroke="black" d="M246.247,-319.669C256.879,-266.171 295.836,-114 395,-114 395,-114 395,-114 459,-114 558.242,-114 551.758,-5.32907e-15 651,-0 651,-0 651,-0 779,-0 844.913,-0 865.362,-119.186 865.985,-122.911"/>
</g>
<!-- v7_intermediate_r -->
<g id="node78" class="node"><title>v7_intermediate_r</title>
<ellipse fill="black" stroke="black" cx="307" cy="-194" rx="0.036" ry="0.036"/>
</g>
<!-- MpY&#45;&gt;v7_intermediate_r -->
<g id="edge96" class="edge"><title>MpY&#45;&gt;v7_intermediate_r</title>
<path fill="none" stroke="black" d="M251.106,-319.762C268.058,-281.619 305.797,-196.707 306.972,-194.063"/>
</g>
<!-- MpT -->
<g id="node3" class="node"><title>MpT</title>
<polyline fill="none" stroke="black" points="730,-362 700,-362 "/>
<path fill="none" stroke="black" d="M700,-362C694,-362 688,-356 688,-350"/>
<polyline fill="none" stroke="black" points="688,-350 688,-338 "/>
<path fill="none" stroke="black" d="M688,-338C688,-332 694,-326 700,-326"/>
<polyline fill="none" stroke="black" points="700,-326 730,-326 "/>
<path fill="none" stroke="black" d="M730,-326C736,-326 742,-332 742,-338"/>
<polyline fill="none" stroke="black" points="742,-338 742,-350 "/>
<path fill="none" stroke="black" d="M742,-350C742,-356 736,-362 730,-362"/>
<text text-anchor="middle" x="715" y="-341.5" font-family="Times Roman,serif" font-size="10.00">ERK&#45;PT</text>
</g>
<!-- v1_intermediate_m -->
<g id="node14" class="node"><title>v1_intermediate_m</title>
<ellipse fill="black" stroke="black" cx="779" cy="-466" rx="0.036" ry="0.036"/>
</g>
<!-- MpT&#45;&gt;v1_intermediate_m -->
<g id="edge14" class="edge"><title>MpT&#45;&gt;v1_intermediate_m</title>
<path fill="none" stroke="black" d="M724.443,-362.002C741.968,-395.408 777.856,-463.819 778.973,-465.949"/>
</g>
<!-- MpT&#45;&gt;v2_intermediate_m -->
<g id="edge30" class="edge"><title>MpT&#45;&gt;v2_intermediate_m</title>
<path fill="none" stroke="black" d="M732.828,-362.106C751.173,-380.738 777.306,-407.279 778.921,-408.92"/>
</g>
<!-- v4_intermediate_r -->
<g id="node42" class="node"><title>v4_intermediate_r</title>
<ellipse fill="black" stroke="black" cx="779" cy="-344" rx="0.036" ry="0.036"/>
</g>
<!-- MpT&#45;&gt;v4_intermediate_r -->
<g id="edge48" class="edge"><title>MpT&#45;&gt;v4_intermediate_r</title>
<path fill="none" stroke="black" d="M742.142,-344C759.04,-344 777.788,-344 778.944,-344"/>
</g>
<!-- v6_intermediate_r -->
<g id="node66" class="node"><title>v6_intermediate_r</title>
<ellipse fill="black" stroke="black" cx="779" cy="-326" rx="0.036" ry="0.036"/>
</g>
<!-- MpT&#45;&gt;v6_intermediate_r -->
<g id="edge80" class="edge"><title>MpT&#45;&gt;v6_intermediate_r</title>
<path fill="none" stroke="black" d="M742.142,-336.366C759.04,-331.614 777.788,-326.341 778.944,-326.016"/>
</g>
<!-- v7_intermediate_m -->
<g id="node84" class="node"><title>v7_intermediate_m</title>
<ellipse fill="black" stroke="black" cx="779" cy="-190" rx="0.036" ry="0.036"/>
</g>
<!-- MpT&#45;&gt;v7_intermediate_m -->
<g id="edge108" class="edge"><title>MpT&#45;&gt;v7_intermediate_m</title>
<path fill="none" stroke="black" d="M722.593,-325.729C739.281,-285.574 777.773,-192.954 778.971,-190.069"/>
</g>
<!-- Mpp -->
<g id="node4" class="node"><title>Mpp</title>
<polyline fill="none" stroke="black" points="474,-332 444,-332 "/>
<path fill="none" stroke="black" d="M444,-332C438,-332 432,-326 432,-320"/>
<polyline fill="none" stroke="black" points="432,-320 432,-308 "/>
<path fill="none" stroke="black" d="M432,-308C432,-302 438,-296 444,-296"/>
<polyline fill="none" stroke="black" points="444,-296 474,-296 "/>
<path fill="none" stroke="black" d="M474,-296C480,-296 486,-302 486,-308"/>
<polyline fill="none" stroke="black" points="486,-308 486,-320 "/>
<path fill="none" stroke="black" d="M486,-320C486,-326 480,-332 474,-332"/>
<text text-anchor="middle" x="459" y="-311.5" font-family="Times Roman,serif" font-size="10.00">ERK&#45;PP</text>
</g>
<!-- v5_intermediate_r -->
<g id="node54" class="node"><title>v5_intermediate_r</title>
<ellipse fill="black" stroke="black" cx="523" cy="-283" rx="0.036" ry="0.036"/>
</g>
<!-- Mpp&#45;&gt;v5_intermediate_r -->
<g id="edge64" class="edge"><title>Mpp&#45;&gt;v5_intermediate_r</title>
<path fill="none" stroke="black" d="M486.142,-300.853C503.04,-292.668 521.788,-283.587 522.944,-283.027"/>
</g>
<!-- Mpp&#45;&gt;v6_intermediate_m -->
<g id="edge90" class="edge"><title>Mpp&#45;&gt;v6_intermediate_m</title>
<path fill="none" stroke="black" d="M486.044,-313.935C517.554,-313.126 570.811,-309.463 614,-295 740.574,-252.612 862.142,-127.008 865.91,-123.094"/>
</g>
<!-- Mpp&#45;&gt;v7_intermediate_m -->
<g id="edge106" class="edge"><title>Mpp&#45;&gt;v7_intermediate_m</title>
<path fill="none" stroke="black" d="M484.221,-295.945C495.422,-288.471 508.994,-280.136 522,-274 628.984,-223.529 774.375,-191.027 778.892,-190.024"/>
</g>
<!-- MEK -->
<g id="node5" class="node"><title>MEK</title>
<polyline fill="none" stroke="black" points="730,-530 700,-530 "/>
<path fill="none" stroke="black" d="M700,-530C694,-530 688,-524 688,-518"/>
<polyline fill="none" stroke="black" points="688,-518 688,-506 "/>
<path fill="none" stroke="black" d="M688,-506C688,-500 694,-494 700,-494"/>
<polyline fill="none" stroke="black" points="700,-494 730,-494 "/>
<path fill="none" stroke="black" d="M730,-494C736,-494 742,-500 742,-506"/>
<polyline fill="none" stroke="black" points="742,-506 742,-518 "/>
<path fill="none" stroke="black" d="M742,-518C742,-524 736,-530 730,-530"/>
<text text-anchor="middle" x="715" y="-509.5" font-family="Times Roman,serif" font-size="10.00">MEK</text>
</g>
<!-- MEK&#45;&gt;v1_intermediate_m -->
<g id="edge12" class="edge"><title>MEK&#45;&gt;v1_intermediate_m</title>
<path fill="none" stroke="black" d="M740.294,-493.82C757.625,-481.364 777.702,-466.933 778.94,-466.043"/>
</g>
<!-- MEK&#45;&gt;v2_intermediate_m -->
<g id="edge26" class="edge"><title>MEK&#45;&gt;v2_intermediate_m</title>
<path fill="none" stroke="black" d="M726.442,-493.586C744.275,-464.885 776.881,-412.41 778.901,-409.159"/>
</g>
<!-- MEK&#45;&gt;v3_intermediate_m -->
<g id="edge42" class="edge"><title>MEK&#45;&gt;v3_intermediate_m</title>
<path fill="none" stroke="black" d="M740.294,-530.18C757.625,-542.636 777.702,-557.067 778.94,-557.957"/>
</g>
<!-- MEK&#45;&gt;v4_intermediate_m -->
<g id="edge56" class="edge"><title>MEK&#45;&gt;v4_intermediate_m</title>
<path fill="none" stroke="black" d="M742.345,-523.771C785.179,-542.21 863.505,-575.926 865.942,-576.975"/>
</g>
<!-- MKP3 -->
<g id="node6" class="node"><title>MKP3</title>
<polyline fill="none" stroke="black" points="602,-140 572,-140 "/>
<path fill="none" stroke="black" d="M572,-140C566,-140 560,-134 560,-128"/>
<polyline fill="none" stroke="black" points="560,-128 560,-116 "/>
<path fill="none" stroke="black" d="M560,-116C560,-110 566,-104 572,-104"/>
<polyline fill="none" stroke="black" points="572,-104 602,-104 "/>
<path fill="none" stroke="black" d="M602,-104C608,-104 614,-110 614,-116"/>
<polyline fill="none" stroke="black" points="614,-116 614,-128 "/>
<path fill="none" stroke="black" d="M614,-128C614,-134 608,-140 602,-140"/>
<text text-anchor="middle" x="587" y="-119.5" font-family="Times Roman,serif" font-size="10.00">MKP3</text>
</g>
<!-- MKP3&#45;&gt;v5_intermediate_m -->
<g id="edge72" class="edge"><title>MKP3&#45;&gt;v5_intermediate_m</title>
<path fill="none" stroke="black" d="M602.495,-140.214C606.279,-144.704 610.302,-149.512 614,-154 630.162,-173.617 649.734,-198.396 650.941,-199.926"/>
</g>
<!-- MKP3&#45;&gt;v6_intermediate_m -->
<g id="edge88" class="edge"><title>MKP3&#45;&gt;v6_intermediate_m</title>
<path fill="none" stroke="black" d="M614.449,-105.911C639.701,-92.6464 678.635,-76 715,-76 715,-76 715,-76 779,-76 821.575,-76 863.308,-120.108 865.875,-122.865"/>
</g>
<!-- MKP3&#45;&gt;v7_intermediate_m -->
<g id="edge104" class="edge"><title>MKP3&#45;&gt;v7_intermediate_m</title>
<path fill="none" stroke="black" d="M614.102,-131.599C666.2,-150.05 775.515,-188.766 778.919,-189.971"/>
</g>
<!-- v1 -->
<g id="node7" class="node"><title>v1</title>
<polygon fill="none" stroke="black" points="142,-434 128,-434 128,-420 142,-420 142,-434"/>
</g>
<!-- v1_intermediate_p -->
<g id="node11" class="node"><title>v1_intermediate_p</title>
<ellipse fill="black" stroke="black" cx="179" cy="-388" rx="0.036" ry="0.036"/>
</g>
<!-- v1&#45;&gt;v1_intermediate_p -->
<g id="edge6" class="edge"><title>v1&#45;&gt;v1_intermediate_p</title>
<path fill="none" stroke="black" d="M142.266,-420.56C154.372,-409.829 177.497,-389.333 178.93,-388.062"/>
</g>
<!-- v1&#45;&gt;v1_intermediate_m -->
<g id="edge10" class="edge"><title>v1&#45;&gt;v1_intermediate_m</title>
<path fill="none" stroke="black" d="M152.613,-437.642C173.433,-449.19 209.495,-466 243,-466 243,-466 243,-466 651,-466 707,-466 776.781,-466 778.948,-466"/>
<polygon fill="none" stroke="black" points="152.385,-437.51 145.187,-437.949 142.014,-431.474 149.211,-431.035 152.385,-437.51"/>
</g>
<!-- v1_intermediate_r&#45;&gt;v1 -->
<g id="edge2" class="edge"><title>v1_intermediate_r&#45;&gt;v1</title>
<path fill="none" stroke="black" d="M91.1262,-427C93.0215,-427 115.795,-427 127.759,-427"/>
</g>
<!-- v1_intermediate_p&#45;&gt;MpY -->
<g id="edge8" class="edge"><title>v1_intermediate_p&#45;&gt;MpY</title>
<path fill="none" stroke="black" d="M179.046,-387.964C180.013,-387.208 195.937,-374.768 211.652,-362.491"/>
<polygon fill="black" stroke="black" points="214.045,-365.063 219.77,-356.148 209.735,-359.547 214.045,-365.063"/>
</g>
<!-- v2 -->
<g id="node18" class="node"><title>v2</title>
<polygon fill="none" stroke="black" points="358,-345 344,-345 344,-331 358,-331 358,-345"/>
</g>
<!-- v2_intermediate_p -->
<g id="node22" class="node"><title>v2_intermediate_p</title>
<ellipse fill="black" stroke="black" cx="395" cy="-319" rx="0.036" ry="0.036"/>
</g>
<!-- v2&#45;&gt;v2_intermediate_p -->
<g id="edge20" class="edge"><title>v2&#45;&gt;v2_intermediate_p</title>
<path fill="none" stroke="black" d="M358.266,-334.863C370.372,-329.635 393.497,-319.649 394.93,-319.03"/>
</g>
<!-- v2&#45;&gt;v2_intermediate_m -->
<g id="edge24" class="edge"><title>v2&#45;&gt;v2_intermediate_m</title>
<path fill="none" stroke="black" d="M369.522,-344.964C408.93,-359.136 504.254,-390 587,-390 587,-390 587,-390 651,-390 707.614,-390 776.8,-408.411 778.949,-408.986"/>
<polygon fill="none" stroke="black" points="369.472,-344.946 362.459,-346.624 358.213,-340.796 365.226,-339.118 369.472,-344.946"/>
</g>
<!-- v2_intermediate_r&#45;&gt;v2 -->
<g id="edge16" class="edge"><title>v2_intermediate_r&#45;&gt;v2</title>
<path fill="none" stroke="black" d="M307.126,-338C309.022,-338 331.795,-338 343.759,-338"/>
</g>
<!-- v2_intermediate_p&#45;&gt;Mpp -->
<g id="edge22" class="edge"><title>v2_intermediate_p&#45;&gt;Mpp</title>
<path fill="none" stroke="black" d="M395.046,-318.996C395.893,-318.93 408.209,-317.968 421.809,-316.906"/>
<polygon fill="black" stroke="black" points="422.097,-320.394 431.794,-316.125 421.552,-313.415 422.097,-320.394"/>
</g>
<!-- v3 -->
<g id="node30" class="node"><title>v3</title>
<polygon fill="none" stroke="black" points="594,-587 580,-587 580,-573 594,-573 594,-587"/>
</g>
<!-- v3_intermediate_p -->
<g id="node34" class="node"><title>v3_intermediate_p</title>
<ellipse fill="black" stroke="black" cx="651" cy="-362" rx="0.036" ry="0.036"/>
</g>
<!-- v3&#45;&gt;v3_intermediate_p -->
<g id="edge36" class="edge"><title>v3&#45;&gt;v3_intermediate_p</title>
<path fill="none" stroke="black" d="M589.129,-572.747C600.061,-535.511 649.423,-367.371 650.963,-362.125"/>
</g>
<!-- v3&#45;&gt;v3_intermediate_m -->
<g id="edge40" class="edge"><title>v3&#45;&gt;v3_intermediate_m</title>
<path fill="none" stroke="black" d="M606.244,-580.9C635.79,-581.86 693.953,-582.073 742,-572 758.67,-568.505 777.766,-558.643 778.943,-558.03"/>
<polygon fill="none" stroke="black" points="606.198,-580.899 600.04,-584.652 594.208,-580.411 600.365,-576.658 606.198,-580.899"/>
</g>
<!-- v3_intermediate_r&#45;&gt;v3 -->
<g id="edge32" class="edge"><title>v3_intermediate_r&#45;&gt;v3</title>
<path fill="none" stroke="black" d="M91.1374,-556.069C93.9595,-557.477 139.727,-580 179,-580 179,-580 179,-580 459,-580 505,-580 560.299,-580 579.783,-580"/>
</g>
<!-- v3_intermediate_p&#45;&gt;MpT -->
<g id="edge38" class="edge"><title>v3_intermediate_p&#45;&gt;MpT</title>
<path fill="none" stroke="black" d="M651.046,-361.987C651.893,-361.749 664.209,-358.285 677.809,-354.46"/>
<polygon fill="black" stroke="black" points="679.116,-357.728 687.794,-351.652 677.22,-350.99 679.116,-357.728"/>
</g>
<!-- v4 -->
<g id="node41" class="node"><title>v4</title>
<polygon fill="none" stroke="black" points="830,-351 816,-351 816,-337 830,-337 830,-351"/>
</g>
<!-- v4_intermediate_p -->
<g id="node45" class="node"><title>v4_intermediate_p</title>
<ellipse fill="black" stroke="black" cx="866" cy="-321" rx="0.036" ry="0.036"/>
</g>
<!-- v4&#45;&gt;v4_intermediate_p -->
<g id="edge50" class="edge"><title>v4&#45;&gt;v4_intermediate_p</title>
<path fill="none" stroke="black" d="M830.101,-340.202C841.932,-333.874 864.531,-321.786 865.932,-321.037"/>
</g>
<!-- v4&#45;&gt;v4_intermediate_m -->
<g id="edge54" class="edge"><title>v4&#45;&gt;v4_intermediate_m</title>
<path fill="none" stroke="black" d="M826.526,-363.108C836.628,-417.847 865.015,-571.662 865.975,-576.865"/>
<polygon fill="none" stroke="black" points="826.512,-363.029 821.489,-357.855 824.334,-351.229 829.357,-356.403 826.512,-363.029"/>
</g>
<!-- v4_intermediate_r&#45;&gt;v4 -->
<g id="edge46" class="edge"><title>v4_intermediate_r&#45;&gt;v4</title>
<path fill="none" stroke="black" d="M779.126,-344C781.022,-344 803.795,-344 815.759,-344"/>
</g>
<!-- v4_intermediate_p&#45;&gt;Mpp -->
<g id="edge52" class="edge"><title>v4_intermediate_p&#45;&gt;Mpp</title>
<path fill="none" stroke="black" d="M865.862,-320.991C863.025,-320.808 817.058,-317.861 780,-317 739.122,-316.05 728.778,-313.986 688,-317 654.84,-319.451 647.16,-325.549 614,-328 573.222,-331.014 562.645,-332.462 522,-328 513.528,-327.07 504.528,-325.457 496.062,-323.648"/>
<polygon fill="black" stroke="black" points="496.598,-320.181 486.071,-321.378 495.047,-327.007 496.598,-320.181"/>
</g>
<!-- v5 -->
<g id="node53" class="node"><title>v5</title>
<polygon fill="none" stroke="black" points="594,-286 580,-286 580,-272 594,-272 594,-286"/>
</g>
<!-- v5_intermediate_p -->
<g id="node57" class="node"><title>v5_intermediate_p</title>
<ellipse fill="black" stroke="black" cx="651" cy="-344" rx="0.036" ry="0.036"/>
</g>
<!-- v5&#45;&gt;v5_intermediate_p -->
<g id="edge66" class="edge"><title>v5&#45;&gt;v5_intermediate_p</title>
<path fill="none" stroke="black" d="M594.094,-286.204C610.236,-302.599 648.508,-341.469 650.884,-343.882"/>
</g>
<!-- v5&#45;&gt;v5_intermediate_m -->
<g id="edge70" class="edge"><title>v5&#45;&gt;v5_intermediate_m</title>
<path fill="none" stroke="black" d="M600.408,-262.45C618.495,-240.124 648.714,-202.822 650.877,-200.152"/>
<polygon fill="none" stroke="black" points="600.233,-262.665 599.565,-269.845 592.68,-271.989 593.348,-264.809 600.233,-262.665"/>
</g>
<!-- v5_intermediate_r&#45;&gt;v5 -->
<g id="edge62" class="edge"><title>v5_intermediate_r&#45;&gt;v5</title>
<path fill="none" stroke="black" d="M523.046,-282.997C524.576,-282.902 563.51,-280.468 579.868,-279.446"/>
</g>
<!-- v5_intermediate_p&#45;&gt;MpT -->
<g id="edge68" class="edge"><title>v5_intermediate_p&#45;&gt;MpT</title>
<path fill="none" stroke="black" d="M651.046,-344C651.885,-344 663.971,-344 677.414,-344"/>
<polygon fill="black" stroke="black" points="677.794,-347.5 687.794,-344 677.794,-340.5 677.794,-347.5"/>
</g>
<!-- v6 -->
<g id="node65" class="node"><title>v6</title>
<polygon fill="none" stroke="black" points="830,-270 816,-270 816,-256 830,-256 830,-270"/>
</g>
<!-- v6_intermediate_p -->
<g id="node69" class="node"><title>v6_intermediate_p</title>
<ellipse fill="black" stroke="black" cx="866" cy="-188" rx="0.036" ry="0.036"/>
</g>
<!-- v6&#45;&gt;v6_intermediate_p -->
<g id="edge82" class="edge"><title>v6&#45;&gt;v6_intermediate_p</title>
<path fill="none" stroke="black" d="M827.123,-255.809C837.549,-237.623 864.26,-191.035 865.919,-188.141"/>
</g>
<!-- v6&#45;&gt;v6_intermediate_m -->
<g id="edge86" class="edge"><title>v6&#45;&gt;v6_intermediate_m</title>
<path fill="none" stroke="black" d="M829.308,-244.161C829.543,-243.432 829.774,-242.71 830,-242 846.477,-190.163 865.399,-125.07 865.986,-123.048"/>
<polygon fill="none" stroke="black" points="829.282,-244.238 831.195,-251.191 825.513,-255.63 823.6,-248.677 829.282,-244.238"/>
</g>
<!-- v6_intermediate_r&#45;&gt;v6 -->
<g id="edge78" class="edge"><title>v6_intermediate_r&#45;&gt;v6</title>
<path fill="none" stroke="black" d="M779.032,-325.954C780.083,-324.449 806.851,-286.123 818.097,-270.021"/>
</g>
<!-- v6_intermediate_p&#45;&gt;M -->
<g id="edge84" class="edge"><title>v6_intermediate_p&#45;&gt;M</title>
<path fill="none" stroke="black" d="M865.928,-187.891C862.918,-183.349 765.693,-38 651,-38 135,-38 135,-38 135,-38 60.1477,-38 35.0186,-308.793 28.747,-398.511"/>
<polygon fill="black" stroke="black" points="25.2368,-398.547 28.0585,-408.759 32.2211,-399.017 25.2368,-398.547"/>
</g>
<!-- v7 -->
<g id="node77" class="node"><title>v7</title>
<polygon fill="none" stroke="black" points="358,-194 344,-194 344,-180 358,-180 358,-194"/>
</g>
<!-- v7_intermediate_p -->
<g id="node81" class="node"><title>v7_intermediate_p</title>
<ellipse fill="black" stroke="black" cx="395" cy="-142" rx="0.036" ry="0.036"/>
</g>
<!-- v7&#45;&gt;v7_intermediate_p -->
<g id="edge98" class="edge"><title>v7&#45;&gt;v7_intermediate_p</title>
<path fill="none" stroke="black" d="M357.875,-179.969C369.863,-167.708 393.465,-143.57 394.929,-142.073"/>
</g>
<!-- v7&#45;&gt;v7_intermediate_m -->
<g id="edge102" class="edge"><title>v7&#45;&gt;v7_intermediate_m</title>
<path fill="none" stroke="black" d="M370.19,-183.182C403.325,-176.015 472.644,-158.458 524,-128 542.669,-116.928 539.771,-102.869 560,-95 582.367,-86.2994 590.557,-89.8572 614,-95 675.186,-108.423 690.364,-118.537 742,-154 760.322,-166.583 777.869,-188.572 778.948,-189.934"/>
<polygon fill="none" stroke="black" points="369.786,-183.266 364.717,-188.395 358.033,-185.69 363.101,-180.56 369.786,-183.266"/>
</g>
<!-- v7_intermediate_r&#45;&gt;v7 -->
<g id="edge94" class="edge"><title>v7_intermediate_r&#45;&gt;v7</title>
<path fill="none" stroke="black" d="M307.126,-193.98C309.022,-193.678 331.795,-190.055 343.759,-188.152"/>
</g>
<!-- v7_intermediate_p&#45;&gt;M -->
<g id="edge100" class="edge"><title>v7_intermediate_p&#45;&gt;M</title>
<path fill="none" stroke="black" d="M394.939,-141.99C392.374,-141.566 309.781,-128 243,-128 135,-128 135,-128 135,-128 77.792,-128 42.4152,-324.069 31.0267,-398.66"/>
<polygon fill="black" stroke="black" points="27.5359,-398.339 29.5207,-408.746 34.4592,-399.373 27.5359,-398.339"/>
</g>
</g>
</svg>
