<?xml version="1.0" encoding="UTF-8" standalone="no"?>
<!DOCTYPE svg PUBLIC "-//W3C//DTD SVG 1.1//EN"
 "http://www.w3.org/Graphics/SVG/1.1/DTD/svg11.dtd">
<!-- Generated by graphviz version 2.24.0 (20090616.2323)
 -->
<!-- Title: G Pages: 1 -->
<svg width="692pt" height="206pt"
 viewBox="0.00 0.00 692.00 206.00" xmlns="http://www.w3.org/2000/svg" xmlns:xlink="http://www.w3.org/1999/xlink">
<g id="graph1" class="graph" transform="scale(1 1) rotate(0) translate(4 202)">
<title>G</title>
<polygon fill="white" stroke="white" points="-4,5 -4,-202 689,-202 689,5 -4,5"/>
<!-- a -->
<g id="node1" class="node"><title>a</title>
<ellipse fill="none" stroke="black" cx="263" cy="-124" rx="33.2417" ry="18"/>
<text text-anchor="middle" x="263" y="-121.5" font-family="Times Roman,serif" font-size="10.00">G&#45;alpha</text>
</g>
<!-- R2_intermediate_m -->
<g id="node16" class="node"><title>R2_intermediate_m</title>
<ellipse fill="black" stroke="black" cx="332" cy="-81" rx="0.036" ry="0.036"/>
</g>
<!-- a&#45;&gt;R2_intermediate_m -->
<g id="edge16" class="edge"><title>a&#45;&gt;R2_intermediate_m</title>
<path fill="none" stroke="black" d="M284.832,-110.395C304.415,-98.1906 330.322,-82.0457 331.922,-81.0486"/>
</g>
<!-- R3_intermediate_r -->
<g id="node20" class="node"><title>R3_intermediate_r</title>
<ellipse fill="black" stroke="black" cx="332" cy="-124" rx="0.036" ry="0.036"/>
</g>
<!-- a&#45;&gt;R3_intermediate_r -->
<g id="edge20" class="edge"><title>a&#45;&gt;R3_intermediate_r</title>
<path fill="none" stroke="black" d="M296.287,-124C313.381,-124 330.871,-124 331.948,-124"/>
</g>
<!-- R4_intermediate_r -->
<g id="node29" class="node"><title>R4_intermediate_r</title>
<ellipse fill="black" stroke="black" cx="332" cy="-104" rx="0.036" ry="0.036"/>
</g>
<!-- a&#45;&gt;R4_intermediate_r -->
<g id="edge30" class="edge"><title>a&#45;&gt;R4_intermediate_r</title>
<path fill="none" stroke="black" d="M292.262,-115.518C310.48,-110.238 330.694,-104.379 331.939,-104.018"/>
</g>
<!-- R5_intermediate_m -->
<g id="node43" class="node"><title>R5_intermediate_m</title>
<ellipse fill="black" stroke="black" cx="332" cy="-146" rx="0.036" ry="0.036"/>
</g>
<!-- a&#45;&gt;R5_intermediate_m -->
<g id="edge46" class="edge"><title>a&#45;&gt;R5_intermediate_m</title>
<path fill="none" stroke="black" d="M291.862,-133.203C310.179,-139.043 330.675,-145.578 331.939,-145.98"/>
</g>
<!-- R7_intermediate_m -->
<g id="node58" class="node"><title>R7_intermediate_m</title>
<ellipse fill="black" stroke="black" cx="332" cy="-52" rx="0.036" ry="0.036"/>
</g>
<!-- a&#45;&gt;R7_intermediate_m -->
<g id="edge62" class="edge"><title>a&#45;&gt;R7_intermediate_m</title>
<path fill="none" stroke="black" d="M278.313,-108.021C298.006,-87.472 329.928,-54.1623 331.904,-52.1005"/>
</g>
<!-- b -->
<g id="node2" class="node"><title>b</title>
<ellipse fill="none" stroke="black" cx="411" cy="-168" rx="41.9758" ry="18"/>
<text text-anchor="middle" x="411" y="-165.5" font-family="Times Roman,serif" font-size="10.00">activePLC</text>
</g>
<!-- R3_intermediate_m -->
<g id="node25" class="node"><title>R3_intermediate_m</title>
<ellipse fill="black" stroke="black" cx="517" cy="-162" rx="0.036" ry="0.036"/>
</g>
<!-- b&#45;&gt;R3_intermediate_m -->
<g id="edge26" class="edge"><title>b&#45;&gt;R3_intermediate_m</title>
<path fill="none" stroke="black" d="M453.199,-165.611C481.835,-163.99 514.864,-162.121 516.901,-162.006"/>
</g>
<!-- R6_intermediate_r -->
<g id="node47" class="node"><title>R6_intermediate_r</title>
<ellipse fill="black" stroke="black" cx="517" cy="-180" rx="0.036" ry="0.036"/>
</g>
<!-- b&#45;&gt;R6_intermediate_r -->
<g id="edge50" class="edge"><title>b&#45;&gt;R6_intermediate_r</title>
<path fill="none" stroke="black" d="M452.286,-172.674C481.119,-175.938 514.821,-179.753 516.899,-179.989"/>
</g>
<!-- c -->
<g id="node3" class="node"><title>c</title>
<ellipse fill="none" stroke="black" cx="411" cy="-29" rx="33.9733" ry="18"/>
<text text-anchor="middle" x="411" y="-26.5" font-family="Times Roman,serif" font-size="10.00">Calcium</text>
</g>
<!-- R4_intermediate_m -->
<g id="node34" class="node"><title>R4_intermediate_m</title>
<ellipse fill="black" stroke="black" cx="517" cy="-36" rx="0.036" ry="0.036"/>
</g>
<!-- c&#45;&gt;R4_intermediate_m -->
<g id="edge36" class="edge"><title>c&#45;&gt;R4_intermediate_m</title>
<path fill="none" stroke="black" d="M445.415,-31.2727C475.399,-33.2528 514.47,-35.8329 516.882,-35.9922"/>
</g>
<!-- R8_intermediate_r -->
<g id="node62" class="node"><title>R8_intermediate_r</title>
<ellipse fill="black" stroke="black" cx="517" cy="-18" rx="0.036" ry="0.036"/>
</g>
<!-- c&#45;&gt;R8_intermediate_r -->
<g id="edge66" class="edge"><title>c&#45;&gt;R8_intermediate_r</title>
<path fill="none" stroke="black" d="M445.123,-25.459C475.141,-22.3438 514.454,-18.2642 516.882,-18.0123"/>
</g>
<!-- R1 -->
<g id="node4" class="node"><title>R1</title>
<polygon fill="none" stroke="black" points="104,-137 90,-137 90,-123 104,-123 104,-137"/>
</g>
<!-- R1_intermediate_p -->
<g id="node7" class="node"><title>R1_intermediate_p</title>
<ellipse fill="black" stroke="black" cx="167" cy="-129" rx="0.036" ry="0.036"/>
</g>
<!-- R1&#45;&gt;R1_intermediate_p -->
<g id="edge4" class="edge"><title>R1&#45;&gt;R1_intermediate_p</title>
<path fill="none" stroke="black" d="M104.228,-129.897C121.554,-129.649 164.221,-129.04 166.871,-129.002"/>
</g>
<!-- R1_empty -->
<g id="node5" class="node"><title>R1_empty</title>
<text text-anchor="middle" x="27" y="-126.5" font-family="Times Roman,serif" font-size="15.00" fill="blue">Ø</text>
</g>
<!-- R1_empty&#45;&gt;R1 -->
<g id="edge2" class="edge"><title>R1_empty&#45;&gt;R1</title>
<path fill="none" stroke="black" d="M54.2643,-130.611C67.1627,-130.426 81.5367,-130.221 89.8947,-130.102"/>
</g>
<!-- R1_intermediate_p&#45;&gt;a -->
<g id="edge6" class="edge"><title>R1_intermediate_p&#45;&gt;a</title>
<path fill="none" stroke="black" d="M167.07,-128.996C168.602,-128.917 195.162,-127.533 219.945,-126.242"/>
<polygon fill="black" stroke="black" points="220.212,-129.733 230.017,-125.718 219.848,-122.743 220.212,-129.733"/>
</g>
<!-- R2 -->
<g id="node10" class="node"><title>R2</title>
<polygon fill="none" stroke="black" points="104,-85 90,-85 90,-71 104,-71 104,-85"/>
</g>
<!-- R2_intermediate_p -->
<g id="node13" class="node"><title>R2_intermediate_p</title>
<ellipse fill="black" stroke="black" cx="167" cy="-109" rx="0.036" ry="0.036"/>
</g>
<!-- R2&#45;&gt;R2_intermediate_p -->
<g id="edge10" class="edge"><title>R2&#45;&gt;R2_intermediate_p</title>
<path fill="none" stroke="black" d="M104.228,-81.2008C121.554,-88.8737 164.221,-107.769 166.871,-108.943"/>
</g>
<!-- R2&#45;&gt;R2_intermediate_m -->
<g id="edge14" class="edge"><title>R2&#45;&gt;R2_intermediate_m</title>
<path fill="none" stroke="black" d="M116.257,-78.2458C171.45,-78.9504 326.604,-80.9311 331.863,-80.9983"/>
<polygon fill="none" stroke="black" points="116.032,-78.2431 109.982,-82.1661 104.033,-78.0898 110.084,-74.1667 116.032,-78.2431"/>
</g>
<!-- R2_empty -->
<g id="node11" class="node"><title>R2_empty</title>
<text text-anchor="middle" x="27" y="-72.5" font-family="Times Roman,serif" font-size="15.00" fill="blue">Ø</text>
</g>
<!-- R2_empty&#45;&gt;R2 -->
<g id="edge8" class="edge"><title>R2_empty&#45;&gt;R2</title>
<path fill="none" stroke="black" d="M54.2643,-77.3895C67.1627,-77.5738 81.5367,-77.7791 89.8947,-77.8985"/>
</g>
<!-- R2_intermediate_p&#45;&gt;a -->
<g id="edge12" class="edge"><title>R2_intermediate_p&#45;&gt;a</title>
<path fill="none" stroke="black" d="M167.07,-109.011C168.622,-109.253 195.858,-113.509 220.912,-117.424"/>
<polygon fill="black" stroke="black" points="220.65,-120.925 231.071,-119.011 221.731,-114.009 220.65,-120.925"/>
</g>
<!-- R3 -->
<g id="node19" class="node"><title>R3</title>
<polygon fill="none" stroke="black" points="418,-132 404,-132 404,-118 418,-118 418,-132"/>
</g>
<!-- R3_empty -->
<g id="node23" class="node"><title>R3_empty</title>
<text text-anchor="middle" x="517" y="-121.5" font-family="Times Roman,serif" font-size="15.00" fill="blue">Ø</text>
</g>
<!-- R3&#45;&gt;R3_empty -->
<g id="edge22" class="edge"><title>R3&#45;&gt;R3_empty</title>
<path fill="none" stroke="black" d="M418.286,-125.069C430.803,-125.187 457.205,-125.436 479.556,-125.647"/>
<polygon fill="black" stroke="black" points="479.767,-129.149 489.799,-125.743 479.833,-122.149 479.767,-129.149"/>
</g>
<!-- R3&#45;&gt;R3_intermediate_m -->
<g id="edge24" class="edge"><title>R3&#45;&gt;R3_intermediate_m</title>
<path fill="none" stroke="black" d="M429.8,-131.776C445.784,-137.51 469.359,-145.903 490,-153 501.214,-156.856 515.132,-161.392 516.828,-161.944"/>
<polygon fill="none" stroke="black" points="429.682,-131.733 422.682,-133.466 418.39,-127.672 425.39,-125.938 429.682,-131.733"/>
</g>
<!-- R3_intermediate_r&#45;&gt;R3 -->
<g id="edge18" class="edge"><title>R3_intermediate_r&#45;&gt;R3</title>
<path fill="none" stroke="black" d="M332.057,-124.001C334.001,-124.025 384.901,-124.67 403.92,-124.91"/>
</g>
<!-- R4 -->
<g id="node28" class="node"><title>R4</title>
<polygon fill="none" stroke="black" points="418,-79 404,-79 404,-65 418,-65 418,-79"/>
</g>
<!-- R4_empty -->
<g id="node32" class="node"><title>R4_empty</title>
<text text-anchor="middle" x="517" y="-67.5" font-family="Times Roman,serif" font-size="15.00" fill="blue">Ø</text>
</g>
<!-- R4&#45;&gt;R4_empty -->
<g id="edge32" class="edge"><title>R4&#45;&gt;R4_empty</title>
<path fill="none" stroke="black" d="M418.286,-72C430.803,-72 457.205,-72 479.556,-72"/>
<polygon fill="black" stroke="black" points="479.799,-75.5001 489.799,-72 479.799,-68.5001 479.799,-75.5001"/>
</g>
<!-- R4&#45;&gt;R4_intermediate_m -->
<g id="edge34" class="edge"><title>R4&#45;&gt;R4_intermediate_m</title>
<path fill="none" stroke="black" d="M429.822,-65.5226C445.819,-60.0279 469.401,-51.9533 490,-45 501.236,-41.2074 515.135,-36.6158 516.828,-36.0566"/>
<polygon fill="none" stroke="black" points="429.748,-65.5479 425.375,-71.2816 418.4,-69.45 422.773,-63.7163 429.748,-65.5479"/>
</g>
<!-- R4_intermediate_r&#45;&gt;R4 -->
<g id="edge28" class="edge"><title>R4_intermediate_r&#45;&gt;R4</title>
<path fill="none" stroke="black" d="M332.057,-103.977C334.001,-103.189 384.901,-82.5719 403.92,-74.8679"/>
</g>
<!-- R5 -->
<g id="node37" class="node"><title>R5</title>
<polygon fill="none" stroke="black" points="270,-174 256,-174 256,-160 270,-160 270,-174"/>
</g>
<!-- R5_intermediate_p -->
<g id="node40" class="node"><title>R5_intermediate_p</title>
<ellipse fill="black" stroke="black" cx="332" cy="-167" rx="0.036" ry="0.036"/>
</g>
<!-- R5&#45;&gt;R5_intermediate_p -->
<g id="edge40" class="edge"><title>R5&#45;&gt;R5_intermediate_p</title>
<path fill="none" stroke="black" d="M270.124,-167C287.203,-167 329.261,-167 331.873,-167"/>
</g>
<!-- R5&#45;&gt;R5_intermediate_m -->
<g id="edge44" class="edge"><title>R5&#45;&gt;R5_intermediate_m</title>
<path fill="none" stroke="black" d="M281.658,-161.321C301.316,-155.339 329.74,-146.688 331.873,-146.039"/>
<polygon fill="none" stroke="black" points="281.604,-161.338 277.029,-166.911 270.124,-164.832 274.7,-159.258 281.604,-161.338"/>
</g>
<!-- R5_empty -->
<g id="node38" class="node"><title>R5_empty</title>
<text text-anchor="middle" x="167" y="-162.5" font-family="Times Roman,serif" font-size="15.00" fill="blue">Ø</text>
</g>
<!-- R5_empty&#45;&gt;R5 -->
<g id="edge38" class="edge"><title>R5_empty&#45;&gt;R5</title>
<path fill="none" stroke="black" d="M194.253,-167C215.318,-167 242.983,-167 255.848,-167"/>
</g>
<!-- R5_intermediate_p&#45;&gt;b -->
<g id="edge42" class="edge"><title>R5_intermediate_p&#45;&gt;b</title>
<path fill="none" stroke="black" d="M332.057,-167.001C332.952,-167.012 344.223,-167.155 357.982,-167.329"/>
<polygon fill="black" stroke="black" points="358.284,-170.833 368.328,-167.46 358.373,-163.833 358.284,-170.833"/>
</g>
<!-- R6 -->
<g id="node46" class="node"><title>R6</title>
<polygon fill="none" stroke="black" points="594,-187 580,-187 580,-173 594,-173 594,-187"/>
</g>
<!-- R6_empty -->
<g id="node50" class="node"><title>R6_empty</title>
<text text-anchor="middle" x="657" y="-175.5" font-family="Times Roman,serif" font-size="15.00" fill="blue">Ø</text>
</g>
<!-- R6&#45;&gt;R6_empty -->
<g id="edge52" class="edge"><title>R6&#45;&gt;R6_empty</title>
<path fill="none" stroke="black" d="M594.228,-180C600.45,-180 609.94,-180 619.672,-180"/>
<polygon fill="black" stroke="black" points="619.773,-183.5 629.773,-180 619.773,-176.5 619.773,-183.5"/>
</g>
<!-- R6_intermediate_r&#45;&gt;R6 -->
<g id="edge48" class="edge"><title>R6_intermediate_r&#45;&gt;R6</title>
<path fill="none" stroke="black" d="M517.051,-180C518.748,-180 562.582,-180 579.98,-180"/>
</g>
<!-- R7 -->
<g id="node52" class="node"><title>R7</title>
<polygon fill="none" stroke="black" points="270,-37 256,-37 256,-23 270,-23 270,-37"/>
</g>
<!-- R7_intermediate_p -->
<g id="node55" class="node"><title>R7_intermediate_p</title>
<ellipse fill="black" stroke="black" cx="332" cy="-29" rx="0.036" ry="0.036"/>
</g>
<!-- R7&#45;&gt;R7_intermediate_p -->
<g id="edge56" class="edge"><title>R7&#45;&gt;R7_intermediate_p</title>
<path fill="none" stroke="black" d="M270.124,-29.8967C287.203,-29.6492 329.261,-29.0397 331.873,-29.0018"/>
</g>
<!-- R7&#45;&gt;R7_intermediate_m -->
<g id="edge60" class="edge"><title>R7&#45;&gt;R7_intermediate_m</title>
<path fill="none" stroke="black" d="M281.658,-35.9489C301.316,-42.2168 329.74,-51.2795 331.873,-51.9594"/>
<polygon fill="none" stroke="black" points="281.557,-35.9169 274.626,-37.9052 270.124,-32.2715 277.056,-30.2832 281.557,-35.9169"/>
</g>
<!-- R7_empty -->
<g id="node53" class="node"><title>R7_empty</title>
<text text-anchor="middle" x="167" y="-25.5" font-family="Times Roman,serif" font-size="15.00" fill="blue">Ø</text>
</g>
<!-- R7_empty&#45;&gt;R7 -->
<g id="edge54" class="edge"><title>R7_empty&#45;&gt;R7</title>
<path fill="none" stroke="black" d="M194.253,-30C215.318,-30 242.983,-30 255.848,-30"/>
</g>
<!-- R7_intermediate_p&#45;&gt;c -->
<g id="edge58" class="edge"><title>R7_intermediate_p&#45;&gt;c</title>
<path fill="none" stroke="black" d="M332.057,-29C333.12,-29 348.807,-29 365.921,-29"/>
<polygon fill="black" stroke="black" points="366.062,-32.5001 376.062,-29 366.062,-25.5001 366.062,-32.5001"/>
</g>
<!-- R8 -->
<g id="node61" class="node"><title>R8</title>
<polygon fill="none" stroke="black" points="594,-25 580,-25 580,-11 594,-11 594,-25"/>
</g>
<!-- R8_empty -->
<g id="node65" class="node"><title>R8_empty</title>
<text text-anchor="middle" x="657" y="-13.5" font-family="Times Roman,serif" font-size="15.00" fill="blue">Ø</text>
</g>
<!-- R8&#45;&gt;R8_empty -->
<g id="edge68" class="edge"><title>R8&#45;&gt;R8_empty</title>
<path fill="none" stroke="black" d="M594.228,-18C600.45,-18 609.94,-18 619.672,-18"/>
<polygon fill="black" stroke="black" points="619.773,-21.5001 629.773,-18 619.773,-14.5001 619.773,-21.5001"/>
</g>
<!-- R8_intermediate_r&#45;&gt;R8 -->
<g id="edge64" class="edge"><title>R8_intermediate_r&#45;&gt;R8</title>
<path fill="none" stroke="black" d="M517.051,-18C518.748,-18 562.582,-18 579.98,-18"/>
</g>
</g>
</svg>
