<?xml version="1.0" encoding="UTF-8" standalone="no"?>
<!DOCTYPE svg PUBLIC "-//W3C//DTD SVG 1.1//EN"
 "http://www.w3.org/Graphics/SVG/1.1/DTD/svg11.dtd">
<!-- Generated by graphviz version 2.30.1 (20140821.0912)
 -->
<!-- Title: G Pages: 1 -->
<svg width="1118pt" height="532pt"
 viewBox="0.00 0.00 1118.00 532.00" xmlns="http://www.w3.org/2000/svg" xmlns:xlink="http://www.w3.org/1999/xlink">
<g id="graph0" class="graph" transform="scale(1 1) rotate(0) translate(4 528)">
<title>G</title>
<polygon fill="white" stroke="white" points="-4,5 -4,-528 1115,-528 1115,5 -4,5"/>
<!-- E -->
<g id="E" class="node"><title>E</title>
<path fill="none" stroke="black" d="M42,-259C42,-259 12,-259 12,-259 6,-259 0,-253 0,-247 0,-247 0,-235 0,-235 0,-229 6,-223 12,-223 12,-223 42,-223 42,-223 48,-223 54,-229 54,-235 54,-235 54,-247 54,-247 54,-253 48,-259 42,-259"/>
<text text-anchor="middle" x="27" y="-238.5" font-family="Times,serif" font-size="10.00">E</text>
</g>
<!-- r1_intermediate_r -->
<g id="node16" class="node"><title>r1_intermediate_r</title>
<ellipse fill="black" stroke="black" cx="91" cy="-437" rx="0.036" ry="0.036"/>
</g>
<!-- E&#45;&gt;r1_intermediate_r -->
<g id="edge2" class="edge"><title>E&#45;&gt;r1_intermediate_r</title>
<path fill="none" stroke="black" d="M33.7217,-259.088C48.8305,-306.851 88.7272,-432.976 89.9703,-436.906"/>
</g>
<!-- r4_intermediate_r -->
<g id="node25" class="node"><title>r4_intermediate_r</title>
<ellipse fill="black" stroke="black" cx="733" cy="-161" rx="0.036" ry="0.036"/>
</g>
<!-- E&#45;&gt;r4_intermediate_r -->
<g id="edge16" class="edge"><title>E&#45;&gt;r4_intermediate_r</title>
<path fill="none" stroke="black" d="M47.4351,-222.965C67.5201,-206.266 100.568,-184 134,-184 134,-184 134,-184 606,-184 662.036,-184 729.844,-161.713 731.95,-161.017"/>
</g>
<!-- r5_intermediate_r -->
<g id="node28" class="node"><title>r5_intermediate_r</title>
<ellipse fill="black" stroke="black" cx="517" cy="-54" rx="0.036" ry="0.036"/>
</g>
<!-- E&#45;&gt;r5_intermediate_r -->
<g id="edge21" class="edge"><title>E&#45;&gt;r5_intermediate_r</title>
<path fill="none" stroke="black" d="M29.7131,-222.729C35.2276,-175.675 56.9377,-54 134,-54 134,-54 134,-54 402,-54 451.875,-54 514.024,-54 515.954,-54"/>
</g>
<!-- r8_intermediate_r -->
<g id="node37" class="node"><title>r8_intermediate_r</title>
<ellipse fill="black" stroke="black" cx="91" cy="-455" rx="0.036" ry="0.036"/>
</g>
<!-- E&#45;&gt;r8_intermediate_r -->
<g id="edge36" class="edge"><title>E&#45;&gt;r8_intermediate_r</title>
<path fill="none" stroke="black" d="M33.2861,-259.246C48.0451,-310.188 88.7028,-450.522 89.9697,-454.895"/>
</g>
<!-- r11_intermediate_r -->
<g id="node46" class="node"><title>r11_intermediate_r</title>
<ellipse fill="black" stroke="black" cx="733" cy="-349" rx="0.036" ry="0.036"/>
</g>
<!-- E&#45;&gt;r11_intermediate_r -->
<g id="edge50" class="edge"><title>E&#45;&gt;r11_intermediate_r</title>
<path fill="none" stroke="black" d="M47.4351,-259.035C67.5201,-275.734 100.568,-298 134,-298 134,-298 134,-298 308,-298 481.145,-298 528.415,-289.477 696,-333 712.417,-337.264 730.811,-348.282 731.945,-348.967"/>
</g>
<!-- r12_intermediate_r -->
<g id="node49" class="node"><title>r12_intermediate_r</title>
<ellipse fill="black" stroke="black" cx="517" cy="-268" rx="0.036" ry="0.036"/>
</g>
<!-- E&#45;&gt;r12_intermediate_r -->
<g id="edge55" class="edge"><title>E&#45;&gt;r12_intermediate_r</title>
<path fill="none" stroke="black" d="M54.3386,-248.4C75.6452,-253.735 106.517,-260 134,-260 134,-260 134,-260 402,-260 451.998,-260 514.028,-267.752 515.954,-267.994"/>
</g>
<!-- E_P_1 -->
<g id="E_P_1" class="node"><title>E_P_1</title>
<path fill="none" stroke="black" d="M258,-470C258,-470 228,-470 228,-470 222,-470 216,-464 216,-458 216,-458 216,-446 216,-446 216,-440 222,-434 228,-434 228,-434 258,-434 258,-434 264,-434 270,-440 270,-446 270,-446 270,-458 270,-458 270,-464 264,-470 258,-470"/>
<text text-anchor="middle" x="243" y="-449.5" font-family="Times,serif" font-size="10.00">E_P_1</text>
</g>
<!-- r2_intermediate_r -->
<g id="node19" class="node"><title>r2_intermediate_r</title>
<ellipse fill="black" stroke="black" cx="307" cy="-434" rx="0.036" ry="0.036"/>
</g>
<!-- E_P_1&#45;&gt;r2_intermediate_r -->
<g id="edge7" class="edge"><title>E_P_1&#45;&gt;r2_intermediate_r</title>
<path fill="none" stroke="black" d="M270.294,-444.366C286.664,-439.614 304.826,-434.341 305.946,-434.016"/>
</g>
<!-- r15_intermediate_r -->
<g id="node58" class="node"><title>r15_intermediate_r</title>
<ellipse fill="black" stroke="black" cx="351" cy="-466" rx="0.036" ry="0.036"/>
</g>
<!-- E_P_1&#45;&gt;r15_intermediate_r -->
<g id="edge70" class="edge"><title>E_P_1&#45;&gt;r15_intermediate_r</title>
<path fill="none" stroke="black" d="M270.202,-455.461C300.611,-459.477 346.991,-465.603 349.86,-465.982"/>
</g>
<!-- P -->
<g id="P" class="node"><title>P</title>
<path fill="none" stroke="black" d="M42,-464C42,-464 12,-464 12,-464 6,-464 0,-458 0,-452 0,-452 0,-440 0,-440 0,-434 6,-428 12,-428 12,-428 42,-428 42,-428 48,-428 54,-434 54,-440 54,-440 54,-452 54,-452 54,-458 48,-464 42,-464"/>
<text text-anchor="middle" x="27" y="-443.5" font-family="Times,serif" font-size="10.00">P</text>
</g>
<!-- P&#45;&gt;r1_intermediate_r -->
<g id="edge3" class="edge"><title>P&#45;&gt;r1_intermediate_r</title>
<path fill="none" stroke="black" d="M54.2936,-442.183C70.6636,-439.807 88.8263,-437.17 89.9455,-437.008"/>
</g>
<!-- P&#45;&gt;r8_intermediate_r -->
<g id="edge37" class="edge"><title>P&#45;&gt;r8_intermediate_r</title>
<path fill="none" stroke="black" d="M54.2936,-449.817C70.6636,-452.193 88.8263,-454.83 89.9455,-454.992"/>
</g>
<!-- M -->
<g id="M [CHEBI:9574]" class="node"><title>M</title>
<ellipse fill="none" stroke="black" cx="462" cy="-138" rx="18" ry="18"/>
<text text-anchor="middle" x="462" y="-135.5" font-family="Times,serif" font-size="10.00">M</text>
</g>
<!-- r3_intermediate_r -->
<g id="node22" class="node"><title>r3_intermediate_r</title>
<ellipse fill="black" stroke="black" cx="517" cy="-138" rx="0.036" ry="0.036"/>
</g>
<!-- M&#45;&gt;r3_intermediate_r -->
<g id="edge12" class="edge"><title>M&#45;&gt;r3_intermediate_r</title>
<path fill="none" stroke="black" d="M480.061,-138C495.071,-138 514.727,-138 515.941,-138"/>
</g>
<!-- M&#45;&gt;r5_intermediate_r -->
<g id="edge22" class="edge"><title>M&#45;&gt;r5_intermediate_r</title>
<path fill="none" stroke="black" d="M472.475,-122.982C487.244,-99.5761 514.245,-56.7811 515.918,-54.1293"/>
</g>
<!-- M1 -->
<g id="M1 [CHEBI:9574]" class="node"><title>M1</title>
<ellipse fill="none" stroke="black" cx="669" cy="-138" rx="18" ry="18"/>
<text text-anchor="middle" x="669" y="-135.5" font-family="Times,serif" font-size="10.00">M1</text>
</g>
<!-- M1&#45;&gt;r4_intermediate_r -->
<g id="edge17" class="edge"><title>M1&#45;&gt;r4_intermediate_r</title>
<path fill="none" stroke="black" d="M686.29,-144.043C704.085,-150.645 730.3,-160.369 731.921,-160.971"/>
</g>
<!-- E_M1 -->
<g id="E_M1 [CHEBI:9574]" class="node"><title>E_M1</title>
<path fill="none" stroke="black" d="M900,-179C900,-179 870,-179 870,-179 864,-179 858,-173 858,-167 858,-167 858,-155 858,-155 858,-149 864,-143 870,-143 870,-143 900,-143 900,-143 906,-143 912,-149 912,-155 912,-155 912,-167 912,-167 912,-173 906,-179 900,-179"/>
<text text-anchor="middle" x="885" y="-158.5" font-family="Times,serif" font-size="10.00">E_M1</text>
</g>
<!-- r6_intermediate_r -->
<g id="node31" class="node"><title>r6_intermediate_r</title>
<ellipse fill="black" stroke="black" cx="949" cy="-161" rx="0.036" ry="0.036"/>
</g>
<!-- E_M1&#45;&gt;r6_intermediate_r -->
<g id="edge26" class="edge"><title>E_M1&#45;&gt;r6_intermediate_r</title>
<path fill="none" stroke="black" d="M912.294,-161C928.664,-161 946.826,-161 947.946,-161"/>
</g>
<!-- E_M -->
<g id="E_M [CHEBI:9574]" class="node"><title>E_M</title>
<path fill="none" stroke="black" d="M684,-64C684,-64 654,-64 654,-64 648,-64 642,-58 642,-52 642,-52 642,-40 642,-40 642,-34 648,-28 654,-28 654,-28 684,-28 684,-28 690,-28 696,-34 696,-40 696,-40 696,-52 696,-52 696,-58 690,-64 684,-64"/>
<text text-anchor="middle" x="669" y="-43.5" font-family="Times,serif" font-size="10.00">E_M</text>
</g>
<!-- r7_intermediate_r -->
<g id="node34" class="node"><title>r7_intermediate_r</title>
<ellipse fill="black" stroke="black" cx="733" cy="-46" rx="0.036" ry="0.036"/>
</g>
<!-- E_M&#45;&gt;r7_intermediate_r -->
<g id="edge31" class="edge"><title>E_M&#45;&gt;r7_intermediate_r</title>
<path fill="none" stroke="black" d="M696.294,-46C712.664,-46 730.826,-46 731.946,-46"/>
</g>
<!-- T -->
<g id="T [CHEBI:9574]" class="node"><title>T</title>
<ellipse fill="none" stroke="black" cx="1092" cy="-320" rx="18" ry="18"/>
<text text-anchor="middle" x="1092" y="-317.5" font-family="Times,serif" font-size="10.00">T</text>
</g>
<!-- E_P_2 -->
<g id="E_P_2" class="node"><title>E_P_2</title>
<path fill="none" stroke="black" d="M258,-524C258,-524 228,-524 228,-524 222,-524 216,-518 216,-512 216,-512 216,-500 216,-500 216,-494 222,-488 228,-488 228,-488 258,-488 258,-488 264,-488 270,-494 270,-500 270,-500 270,-512 270,-512 270,-518 264,-524 258,-524"/>
<text text-anchor="middle" x="243" y="-503.5" font-family="Times,serif" font-size="10.00">E_P_2</text>
</g>
<!-- r9_intermediate_r -->
<g id="node40" class="node"><title>r9_intermediate_r</title>
<ellipse fill="black" stroke="black" cx="307" cy="-490" rx="0.036" ry="0.036"/>
</g>
<!-- E_P_2&#45;&gt;r9_intermediate_r -->
<g id="edge41" class="edge"><title>E_P_2&#45;&gt;r9_intermediate_r</title>
<path fill="none" stroke="black" d="M270.294,-499.215C286.664,-494.99 304.826,-490.303 305.946,-490.014"/>
</g>
<!-- r16_intermediate_r -->
<g id="node61" class="node"><title>r16_intermediate_r</title>
<ellipse fill="black" stroke="black" cx="307" cy="-508" rx="0.036" ry="0.036"/>
</g>
<!-- E_P_2&#45;&gt;r16_intermediate_r -->
<g id="edge74" class="edge"><title>E_P_2&#45;&gt;r16_intermediate_r</title>
<path fill="none" stroke="black" d="M270.294,-506.848C286.664,-507.376 304.826,-507.962 305.946,-507.998"/>
</g>
<!-- P2 -->
<g id="P2 [CHEBI:9574]" class="node"><title>P2</title>
<ellipse fill="none" stroke="black" cx="462" cy="-360" rx="18" ry="18"/>
<text text-anchor="middle" x="462" y="-357.5" font-family="Times,serif" font-size="10.00">P2</text>
</g>
<!-- r10_intermediate_r -->
<g id="node43" class="node"><title>r10_intermediate_r</title>
<ellipse fill="black" stroke="black" cx="517" cy="-360" rx="0.036" ry="0.036"/>
</g>
<!-- P2&#45;&gt;r10_intermediate_r -->
<g id="edge46" class="edge"><title>P2&#45;&gt;r10_intermediate_r</title>
<path fill="none" stroke="black" d="M480.061,-360C495.071,-360 514.727,-360 515.941,-360"/>
</g>
<!-- P2&#45;&gt;r12_intermediate_r -->
<g id="edge56" class="edge"><title>P2&#45;&gt;r12_intermediate_r</title>
<path fill="none" stroke="black" d="M471.752,-344.808C486.335,-319.494 514.189,-271.143 515.916,-268.146"/>
</g>
<!-- P21 -->
<g id="P21 [CHEBI:9574]" class="node"><title>P21</title>
<ellipse fill="none" stroke="black" cx="669" cy="-360" rx="18" ry="18"/>
<text text-anchor="middle" x="669" y="-357.5" font-family="Times,serif" font-size="10.00">P21</text>
</g>
<!-- P21&#45;&gt;r11_intermediate_r -->
<g id="edge51" class="edge"><title>P21&#45;&gt;r11_intermediate_r</title>
<path fill="none" stroke="black" d="M686.942,-356.994C704.725,-353.839 730.339,-349.295 731.923,-349.014"/>
</g>
<!-- E_P21 -->
<g id="E_P21 [CHEBI:9574]" class="node"><title>E_P21</title>
<path fill="none" stroke="black" d="M900,-367C900,-367 870,-367 870,-367 864,-367 858,-361 858,-355 858,-355 858,-343 858,-343 858,-337 864,-331 870,-331 870,-331 900,-331 900,-331 906,-331 912,-337 912,-343 912,-343 912,-355 912,-355 912,-361 906,-367 900,-367"/>
<text text-anchor="middle" x="885" y="-346.5" font-family="Times,serif" font-size="10.00">E_P21</text>
</g>
<!-- r13_intermediate_r -->
<g id="node52" class="node"><title>r13_intermediate_r</title>
<ellipse fill="black" stroke="black" cx="949" cy="-349" rx="0.036" ry="0.036"/>
</g>
<!-- E_P21&#45;&gt;r13_intermediate_r -->
<g id="edge60" class="edge"><title>E_P21&#45;&gt;r13_intermediate_r</title>
<path fill="none" stroke="black" d="M912.294,-349C928.664,-349 946.826,-349 947.946,-349"/>
</g>
<!-- E_P2 -->
<g id="E_P2 [CHEBI:9574]" class="node"><title>E_P2</title>
<path fill="none" stroke="black" d="M684,-286C684,-286 654,-286 654,-286 648,-286 642,-280 642,-274 642,-274 642,-262 642,-262 642,-256 648,-250 654,-250 654,-250 684,-250 684,-250 690,-250 696,-256 696,-262 696,-262 696,-274 696,-274 696,-280 690,-286 684,-286"/>
<text text-anchor="middle" x="669" y="-265.5" font-family="Times,serif" font-size="10.00">E_P2</text>
</g>
<!-- r14_intermediate_r -->
<g id="node55" class="node"><title>r14_intermediate_r</title>
<ellipse fill="black" stroke="black" cx="733" cy="-268" rx="0.036" ry="0.036"/>
</g>
<!-- E_P2&#45;&gt;r14_intermediate_r -->
<g id="edge65" class="edge"><title>E_P2&#45;&gt;r14_intermediate_r</title>
<path fill="none" stroke="black" d="M696.294,-268C712.664,-268 730.826,-268 731.946,-268"/>
</g>
<!-- E_P1 -->
<g id="E_P1" class="node"><title>E_P1</title>
<path fill="none" stroke="black" d="M42,-518C42,-518 12,-518 12,-518 6,-518 0,-512 0,-506 0,-506 0,-494 0,-494 0,-488 6,-482 12,-482 12,-482 42,-482 42,-482 48,-482 54,-488 54,-494 54,-494 54,-506 54,-506 54,-512 48,-518 42,-518"/>
<text text-anchor="middle" x="27" y="-497.5" font-family="Times,serif" font-size="10.00">E_P1</text>
</g>
<!-- r1 -->
<g id="node15" class="node"><title>r1</title>
<polygon fill="none" stroke="black" points="142,-453 128,-453 128,-439 142,-439 142,-453"/>
</g>
<!-- r1_intermediate_p -->
<g id="node17" class="node"><title>r1_intermediate_p</title>
<ellipse fill="black" stroke="black" cx="179" cy="-449" rx="0.036" ry="0.036"/>
</g>
<!-- r1&#45;&gt;r1_intermediate_p -->
<g id="edge4" class="edge"><title>r1&#45;&gt;r1_intermediate_p</title>
<path fill="none" stroke="black" d="M142.197,-446.443C153.515,-447.251 176.505,-448.893 177.93,-448.995"/>
</g>
<!-- r1_intermediate_r&#45;&gt;r1 -->
<g id="edge1" class="edge"><title>r1_intermediate_r&#45;&gt;r1</title>
<path fill="none" stroke="black" d="M92.1205,-437.026C93.9681,-437.422 116.602,-442.272 127.803,-444.672"/>
</g>
<!-- r1_intermediate_p&#45;&gt;E_P_1 -->
<g id="edge5" class="edge"><title>r1_intermediate_p&#45;&gt;E_P_1</title>
<path fill="none" stroke="black" d="M180.045,-449.002C180.863,-449.042 192.734,-449.616 205.87,-450.252"/>
<polygon fill="black" stroke="black" points="205.841,-453.754 215.998,-450.742 206.179,-446.763 205.841,-453.754"/>
</g>
<!-- r2 -->
<g id="node18" class="node"><title>r2</title>
<polygon fill="none" stroke="black" points="358,-340 344,-340 344,-326 358,-326 358,-340"/>
</g>
<!-- r2_intermediate_p -->
<g id="node20" class="node"><title>r2_intermediate_p</title>
<ellipse fill="black" stroke="black" cx="401" cy="-146" rx="0.036" ry="0.036"/>
</g>
<!-- r2&#45;&gt;r2_intermediate_p -->
<g id="edge8" class="edge"><title>r2&#45;&gt;r2_intermediate_p</title>
<path fill="none" stroke="black" d="M353.823,-325.898C362.454,-292.274 398.838,-150.527 399.973,-146.106"/>
</g>
<!-- r2_intermediate_r&#45;&gt;r2 -->
<g id="edge6" class="edge"><title>r2_intermediate_r&#45;&gt;r2</title>
<path fill="none" stroke="black" d="M308.03,-433.927C309.094,-431.37 337.707,-362.561 347.068,-340.052"/>
</g>
<!-- r2_intermediate_p&#45;&gt;E -->
<g id="edge9" class="edge"><title>r2_intermediate_p&#45;&gt;E</title>
<path fill="none" stroke="black" d="M399.852,-146C396.816,-146 347.611,-146 308,-146 134,-146 134,-146 134,-146 92.9704,-146 60.5743,-185.96 42.8714,-214.047"/>
<polygon fill="black" stroke="black" points="39.8284,-212.315 37.6476,-222.683 45.818,-215.938 39.8284,-212.315"/>
</g>
<!-- r2_intermediate_p&#45;&gt;M -->
<g id="edge10" class="edge"><title>r2_intermediate_p&#45;&gt;M</title>
<path fill="none" stroke="black" d="M402.169,-145.977C403.931,-145.738 419.154,-143.674 433.671,-141.706"/>
<polygon fill="black" stroke="black" points="434.476,-145.129 443.915,-140.317 433.535,-138.192 434.476,-145.129"/>
</g>
<!-- r3 -->
<g id="node21" class="node"><title>r3</title>
<polygon fill="none" stroke="black" points="568,-145 554,-145 554,-131 568,-131 568,-145"/>
</g>
<!-- r3_intermediate_p -->
<g id="node23" class="node"><title>r3_intermediate_p</title>
<ellipse fill="black" stroke="black" cx="605" cy="-138" rx="0.036" ry="0.036"/>
</g>
<!-- r3&#45;&gt;r3_intermediate_p -->
<g id="edge13" class="edge"><title>r3&#45;&gt;r3_intermediate_p</title>
<path fill="none" stroke="black" d="M568.197,-138C579.515,-138 602.505,-138 603.93,-138"/>
</g>
<!-- r3_intermediate_r&#45;&gt;r3 -->
<g id="edge11" class="edge"><title>r3_intermediate_r&#45;&gt;r3</title>
<path fill="none" stroke="black" d="M518.12,-138C519.968,-138 542.602,-138 553.803,-138"/>
</g>
<!-- r3_intermediate_p&#45;&gt;M1 -->
<g id="edge14" class="edge"><title>r3_intermediate_p&#45;&gt;M1</title>
<path fill="none" stroke="black" d="M606.045,-138C607.044,-138 624.509,-138 640.641,-138"/>
<polygon fill="black" stroke="black" points="640.863,-141.5 650.863,-138 640.863,-134.5 640.863,-141.5"/>
</g>
<!-- r4 -->
<g id="node24" class="node"><title>r4</title>
<polygon fill="none" stroke="black" points="784,-168 770,-168 770,-154 784,-154 784,-168"/>
</g>
<!-- r4_intermediate_p -->
<g id="node26" class="node"><title>r4_intermediate_p</title>
<ellipse fill="black" stroke="black" cx="821" cy="-161" rx="0.036" ry="0.036"/>
</g>
<!-- r4&#45;&gt;r4_intermediate_p -->
<g id="edge18" class="edge"><title>r4&#45;&gt;r4_intermediate_p</title>
<path fill="none" stroke="black" d="M784.197,-161C795.515,-161 818.505,-161 819.93,-161"/>
</g>
<!-- r4_intermediate_r&#45;&gt;r4 -->
<g id="edge15" class="edge"><title>r4_intermediate_r&#45;&gt;r4</title>
<path fill="none" stroke="black" d="M734.12,-161C735.968,-161 758.602,-161 769.803,-161"/>
</g>
<!-- r4_intermediate_p&#45;&gt;E_M1 -->
<g id="edge19" class="edge"><title>r4_intermediate_p&#45;&gt;E_M1</title>
<path fill="none" stroke="black" d="M822.045,-161C822.863,-161 834.734,-161 847.87,-161"/>
<polygon fill="black" stroke="black" points="847.998,-164.5 857.998,-161 847.998,-157.5 847.998,-164.5"/>
</g>
<!-- r5 -->
<g id="node27" class="node"><title>r5</title>
<polygon fill="none" stroke="black" points="568,-57 554,-57 554,-43 568,-43 568,-57"/>
</g>
<!-- r5_intermediate_p -->
<g id="node29" class="node"><title>r5_intermediate_p</title>
<ellipse fill="black" stroke="black" cx="605" cy="-48" rx="0.036" ry="0.036"/>
</g>
<!-- r5&#45;&gt;r5_intermediate_p -->
<g id="edge23" class="edge"><title>r5&#45;&gt;r5_intermediate_p</title>
<path fill="none" stroke="black" d="M568.197,-49.7049C579.515,-49.1659 602.505,-48.0712 603.93,-48.0033"/>
</g>
<!-- r5_intermediate_r&#45;&gt;r5 -->
<g id="edge20" class="edge"><title>r5_intermediate_r&#45;&gt;r5</title>
<path fill="none" stroke="black" d="M518.12,-53.9885C519.968,-53.8126 542.602,-51.657 553.803,-50.5902"/>
</g>
<!-- r5_intermediate_p&#45;&gt;E_M -->
<g id="edge24" class="edge"><title>r5_intermediate_p&#45;&gt;E_M</title>
<path fill="none" stroke="black" d="M606.045,-47.9986C606.863,-47.9722 618.734,-47.5892 631.87,-47.1655"/>
<polygon fill="black" stroke="black" points="632.116,-50.6595 641.998,-46.8388 631.891,-43.6631 632.116,-50.6595"/>
</g>
<!-- r6 -->
<g id="node30" class="node"><title>r6</title>
<polygon fill="none" stroke="black" points="1000,-168 986,-168 986,-154 1000,-154 1000,-168"/>
</g>
<!-- r6_intermediate_p -->
<g id="node32" class="node"><title>r6_intermediate_p</title>
<ellipse fill="black" stroke="black" cx="1037" cy="-161" rx="0.036" ry="0.036"/>
</g>
<!-- r6&#45;&gt;r6_intermediate_p -->
<g id="edge27" class="edge"><title>r6&#45;&gt;r6_intermediate_p</title>
<path fill="none" stroke="black" d="M1000.2,-161C1011.52,-161 1034.5,-161 1035.93,-161"/>
</g>
<!-- r6_intermediate_r&#45;&gt;r6 -->
<g id="edge25" class="edge"><title>r6_intermediate_r&#45;&gt;r6</title>
<path fill="none" stroke="black" d="M950.12,-161C951.968,-161 974.602,-161 985.803,-161"/>
</g>
<!-- r6_intermediate_p&#45;&gt;E -->
<g id="edge28" class="edge"><title>r6_intermediate_p&#45;&gt;E</title>
<path fill="none" stroke="black" d="M1035.97,-160.95C1034.84,-158.861 998.238,-92 950,-92 134,-92 134,-92 134,-92 75.344,-92 46.1404,-169.616 34.4297,-212.81"/>
<polygon fill="black" stroke="black" points="30.9797,-212.173 31.8831,-222.73 37.7599,-213.914 30.9797,-212.173"/>
</g>
<!-- r6_intermediate_p&#45;&gt;T -->
<g id="edge29" class="edge"><title>r6_intermediate_p&#45;&gt;T</title>
<path fill="none" stroke="black" d="M1038.04,-161.115C1039.22,-164.666 1067.46,-249.392 1082.21,-293.633"/>
<polygon fill="black" stroke="black" points="1078.91,-294.797 1085.39,-303.177 1085.55,-292.583 1078.91,-294.797"/>
</g>
<!-- r7 -->
<g id="node33" class="node"><title>r7</title>
<polygon fill="none" stroke="black" points="784,-53 770,-53 770,-39 784,-39 784,-53"/>
</g>
<!-- r7_intermediate_p -->
<g id="node35" class="node"><title>r7_intermediate_p</title>
<ellipse fill="black" stroke="black" cx="821" cy="-46" rx="0.036" ry="0.036"/>
</g>
<!-- r7&#45;&gt;r7_intermediate_p -->
<g id="edge32" class="edge"><title>r7&#45;&gt;r7_intermediate_p</title>
<path fill="none" stroke="black" d="M784.197,-46C795.515,-46 818.505,-46 819.93,-46"/>
</g>
<!-- r7_intermediate_r&#45;&gt;r7 -->
<g id="edge30" class="edge"><title>r7_intermediate_r&#45;&gt;r7</title>
<path fill="none" stroke="black" d="M734.12,-46C735.968,-46 758.602,-46 769.803,-46"/>
</g>
<!-- r7_intermediate_p&#45;&gt;E -->
<g id="edge33" class="edge"><title>r7_intermediate_p&#45;&gt;E</title>
<path fill="none" stroke="black" d="M819.876,-45.868C817.333,-43.1699 775.992,-0 734,-0 134,-0 134,-0 134,-0 41.9651,-0 29.1319,-149.09 27.8469,-212.742"/>
<polygon fill="black" stroke="black" points="24.3455,-212.845 27.7267,-222.886 31.345,-212.928 24.3455,-212.845"/>
</g>
<!-- r7_intermediate_p&#45;&gt;T -->
<g id="edge34" class="edge"><title>r7_intermediate_p&#45;&gt;T</title>
<path fill="none" stroke="black" d="M822.051,-46.0029C824.183,-46.124 892.847,-50 948,-50 948,-50 948,-50 994,-50 1045.06,-50 1076.55,-223.19 1087.07,-292.154"/>
<polygon fill="black" stroke="black" points="1083.64,-292.909 1088.58,-302.285 1090.57,-291.878 1083.64,-292.909"/>
</g>
<!-- r8 -->
<g id="node36" class="node"><title>r8</title>
<polygon fill="none" stroke="black" points="142,-499 128,-499 128,-485 142,-485 142,-499"/>
</g>
<!-- r8_intermediate_p -->
<g id="node38" class="node"><title>r8_intermediate_p</title>
<ellipse fill="black" stroke="black" cx="179" cy="-499" rx="0.036" ry="0.036"/>
</g>
<!-- r8&#45;&gt;r8_intermediate_p -->
<g id="edge38" class="edge"><title>r8&#45;&gt;r8_intermediate_p</title>
<path fill="none" stroke="black" d="M142.197,-493.033C153.515,-494.919 176.505,-498.751 177.93,-498.988"/>
</g>
<!-- r8_intermediate_r&#45;&gt;r8 -->
<g id="edge35" class="edge"><title>r8_intermediate_r&#45;&gt;r8</title>
<path fill="none" stroke="black" d="M92.1205,-455.106C93.9681,-456.734 116.602,-476.673 127.803,-486.541"/>
</g>
<!-- r8_intermediate_p&#45;&gt;E_P_2 -->
<g id="edge39" class="edge"><title>r8_intermediate_p&#45;&gt;E_P_2</title>
<path fill="none" stroke="black" d="M180.045,-499.005C180.863,-499.097 192.734,-500.438 205.87,-501.921"/>
<polygon fill="black" stroke="black" points="205.669,-505.42 215.998,-503.064 206.454,-498.464 205.669,-505.42"/>
</g>
<!-- r9 -->
<g id="node39" class="node"><title>r9</title>
<polygon fill="none" stroke="black" points="358,-448 344,-448 344,-434 358,-434 358,-448"/>
</g>
<!-- r9_intermediate_p -->
<g id="node41" class="node"><title>r9_intermediate_p</title>
<ellipse fill="black" stroke="black" cx="401" cy="-368" rx="0.036" ry="0.036"/>
</g>
<!-- r9&#45;&gt;r9_intermediate_p -->
<g id="edge42" class="edge"><title>r9&#45;&gt;r9_intermediate_p</title>
<path fill="none" stroke="black" d="M356.778,-433.734C368.54,-415.846 398.076,-370.926 399.91,-368.136"/>
</g>
<!-- r9_intermediate_r&#45;&gt;r9 -->
<g id="edge40" class="edge"><title>r9_intermediate_r&#45;&gt;r9</title>
<path fill="none" stroke="black" d="M308.12,-489.859C309.968,-487.704 332.602,-461.298 343.803,-448.23"/>
</g>
<!-- r9_intermediate_p&#45;&gt;E -->
<g id="edge43" class="edge"><title>r9_intermediate_p&#45;&gt;E</title>
<path fill="none" stroke="black" d="M399.852,-368C396.816,-368 347.611,-368 308,-368 134,-368 134,-368 134,-368 82.8099,-368 51.5167,-306.433 37.2293,-269.033"/>
<polygon fill="black" stroke="black" points="40.3579,-267.395 33.648,-259.196 33.7802,-269.79 40.3579,-267.395"/>
</g>
<!-- r9_intermediate_p&#45;&gt;P2 -->
<g id="edge44" class="edge"><title>r9_intermediate_p&#45;&gt;P2</title>
<path fill="none" stroke="black" d="M402.169,-367.977C403.931,-367.738 419.154,-365.674 433.671,-363.706"/>
<polygon fill="black" stroke="black" points="434.476,-367.129 443.915,-362.317 433.535,-360.192 434.476,-367.129"/>
</g>
<!-- r10 -->
<g id="node42" class="node"><title>r10</title>
<polygon fill="none" stroke="black" points="568,-367 554,-367 554,-353 568,-353 568,-367"/>
</g>
<!-- r10_intermediate_p -->
<g id="node44" class="node"><title>r10_intermediate_p</title>
<ellipse fill="black" stroke="black" cx="605" cy="-360" rx="0.036" ry="0.036"/>
</g>
<!-- r10&#45;&gt;r10_intermediate_p -->
<g id="edge47" class="edge"><title>r10&#45;&gt;r10_intermediate_p</title>
<path fill="none" stroke="black" d="M568.197,-360C579.515,-360 602.505,-360 603.93,-360"/>
</g>
<!-- r10_intermediate_r&#45;&gt;r10 -->
<g id="edge45" class="edge"><title>r10_intermediate_r&#45;&gt;r10</title>
<path fill="none" stroke="black" d="M518.12,-360C519.968,-360 542.602,-360 553.803,-360"/>
</g>
<!-- r10_intermediate_p&#45;&gt;P21 -->
<g id="edge48" class="edge"><title>r10_intermediate_p&#45;&gt;P21</title>
<path fill="none" stroke="black" d="M606.045,-360C607.044,-360 624.509,-360 640.641,-360"/>
<polygon fill="black" stroke="black" points="640.863,-363.5 650.863,-360 640.863,-356.5 640.863,-363.5"/>
</g>
<!-- r11 -->
<g id="node45" class="node"><title>r11</title>
<polygon fill="none" stroke="black" points="784,-356 770,-356 770,-342 784,-342 784,-356"/>
</g>
<!-- r11_intermediate_p -->
<g id="node47" class="node"><title>r11_intermediate_p</title>
<ellipse fill="black" stroke="black" cx="821" cy="-349" rx="0.036" ry="0.036"/>
</g>
<!-- r11&#45;&gt;r11_intermediate_p -->
<g id="edge52" class="edge"><title>r11&#45;&gt;r11_intermediate_p</title>
<path fill="none" stroke="black" d="M784.197,-349C795.515,-349 818.505,-349 819.93,-349"/>
</g>
<!-- r11_intermediate_r&#45;&gt;r11 -->
<g id="edge49" class="edge"><title>r11_intermediate_r&#45;&gt;r11</title>
<path fill="none" stroke="black" d="M734.12,-349C735.968,-349 758.602,-349 769.803,-349"/>
</g>
<!-- r11_intermediate_p&#45;&gt;E_P21 -->
<g id="edge53" class="edge"><title>r11_intermediate_p&#45;&gt;E_P21</title>
<path fill="none" stroke="black" d="M822.045,-349C822.863,-349 834.734,-349 847.87,-349"/>
<polygon fill="black" stroke="black" points="847.998,-352.5 857.998,-349 847.998,-345.5 847.998,-352.5"/>
</g>
<!-- r12 -->
<g id="node48" class="node"><title>r12</title>
<polygon fill="none" stroke="black" points="568,-275 554,-275 554,-261 568,-261 568,-275"/>
</g>
<!-- r12_intermediate_p -->
<g id="node50" class="node"><title>r12_intermediate_p</title>
<ellipse fill="black" stroke="black" cx="605" cy="-268" rx="0.036" ry="0.036"/>
</g>
<!-- r12&#45;&gt;r12_intermediate_p -->
<g id="edge57" class="edge"><title>r12&#45;&gt;r12_intermediate_p</title>
<path fill="none" stroke="black" d="M568.197,-268C579.515,-268 602.505,-268 603.93,-268"/>
</g>
<!-- r12_intermediate_r&#45;&gt;r12 -->
<g id="edge54" class="edge"><title>r12_intermediate_r&#45;&gt;r12</title>
<path fill="none" stroke="black" d="M518.12,-268C519.968,-268 542.602,-268 553.803,-268"/>
</g>
<!-- r12_intermediate_p&#45;&gt;E_P2 -->
<g id="edge58" class="edge"><title>r12_intermediate_p&#45;&gt;E_P2</title>
<path fill="none" stroke="black" d="M606.045,-268C606.863,-268 618.734,-268 631.87,-268"/>
<polygon fill="black" stroke="black" points="631.998,-271.5 641.998,-268 631.998,-264.5 631.998,-271.5"/>
</g>
<!-- r13 -->
<g id="node51" class="node"><title>r13</title>
<polygon fill="none" stroke="black" points="1000,-356 986,-356 986,-342 1000,-342 1000,-356"/>
</g>
<!-- r13_intermediate_p -->
<g id="node53" class="node"><title>r13_intermediate_p</title>
<ellipse fill="black" stroke="black" cx="1037" cy="-349" rx="0.036" ry="0.036"/>
</g>
<!-- r13&#45;&gt;r13_intermediate_p -->
<g id="edge61" class="edge"><title>r13&#45;&gt;r13_intermediate_p</title>
<path fill="none" stroke="black" d="M1000.2,-349C1011.52,-349 1034.5,-349 1035.93,-349"/>
</g>
<!-- r13_intermediate_r&#45;&gt;r13 -->
<g id="edge59" class="edge"><title>r13_intermediate_r&#45;&gt;r13</title>
<path fill="none" stroke="black" d="M950.12,-349C951.968,-349 974.602,-349 985.803,-349"/>
</g>
<!-- r13_intermediate_p&#45;&gt;E -->
<g id="edge62" class="edge"><title>r13_intermediate_p&#45;&gt;E</title>
<path fill="none" stroke="black" d="M1035.88,-349.164C1033.49,-352.507 994.422,-406 950,-406 134,-406 134,-406 134,-406 69.7429,-406 42.619,-316.325 32.8007,-269.195"/>
<polygon fill="black" stroke="black" points="36.2175,-268.43 30.8614,-259.288 29.3479,-269.774 36.2175,-268.43"/>
</g>
<!-- r13_intermediate_p&#45;&gt;T -->
<g id="edge63" class="edge"><title>r13_intermediate_p&#45;&gt;T</title>
<path fill="none" stroke="black" d="M1038.15,-348.917C1039.76,-348.037 1053.85,-340.328 1067.07,-333.092"/>
<polygon fill="black" stroke="black" points="1068.83,-336.118 1075.93,-328.247 1065.47,-329.977 1068.83,-336.118"/>
</g>
<!-- r14 -->
<g id="node54" class="node"><title>r14</title>
<polygon fill="none" stroke="black" points="784,-275 770,-275 770,-261 784,-261 784,-275"/>
</g>
<!-- r14_intermediate_p -->
<g id="node56" class="node"><title>r14_intermediate_p</title>
<ellipse fill="black" stroke="black" cx="821" cy="-268" rx="0.036" ry="0.036"/>
</g>
<!-- r14&#45;&gt;r14_intermediate_p -->
<g id="edge66" class="edge"><title>r14&#45;&gt;r14_intermediate_p</title>
<path fill="none" stroke="black" d="M784.197,-268C795.515,-268 818.505,-268 819.93,-268"/>
</g>
<!-- r14_intermediate_r&#45;&gt;r14 -->
<g id="edge64" class="edge"><title>r14_intermediate_r&#45;&gt;r14</title>
<path fill="none" stroke="black" d="M734.12,-268C735.968,-268 758.602,-268 769.803,-268"/>
</g>
<!-- r14_intermediate_p&#45;&gt;E -->
<g id="edge67" class="edge"><title>r14_intermediate_p&#45;&gt;E</title>
<path fill="none" stroke="black" d="M819.876,-267.868C817.333,-265.17 775.992,-222 734,-222 134,-222 134,-222 134,-222 110.489,-222 84.4983,-226.585 64.1373,-231.25"/>
<polygon fill="black" stroke="black" points="63.2467,-227.864 54.3386,-233.6 64.8791,-234.671 63.2467,-227.864"/>
</g>
<!-- r14_intermediate_p&#45;&gt;T -->
<g id="edge68" class="edge"><title>r14_intermediate_p&#45;&gt;T</title>
<path fill="none" stroke="black" d="M822.05,-268.017C824.156,-268.713 891.964,-291 948,-291 948,-291 948,-291 994,-291 1019.45,-291 1047.13,-300.274 1066.39,-308.333"/>
<polygon fill="black" stroke="black" points="1065.07,-311.575 1075.63,-312.381 1067.87,-305.163 1065.07,-311.575"/>
</g>
<!-- r15 -->
<g id="node57" class="node"><title>r15</title>
<polygon fill="none" stroke="black" points="408,-459 394,-459 394,-445 408,-445 408,-459"/>
</g>
<!-- r15_intermediate_p -->
<g id="node59" class="node"><title>r15_intermediate_p</title>
<ellipse fill="black" stroke="black" cx="885" cy="-447" rx="0.036" ry="0.036"/>
</g>
<!-- r15&#45;&gt;r15_intermediate_p -->
<g id="edge71" class="edge"><title>r15&#45;&gt;r15_intermediate_p</title>
<path fill="none" stroke="black" d="M408.175,-451.539C425.29,-450.301 474.794,-447 516,-447 516,-447 516,-447 778,-447 824.375,-447 882.163,-447 883.957,-447"/>
</g>
<!-- r15_intermediate_r&#45;&gt;r15 -->
<g id="edge69" class="edge"><title>r15_intermediate_r&#45;&gt;r15</title>
<path fill="none" stroke="black" d="M352.138,-465.96C354.293,-465.331 381.204,-457.482 393.7,-453.837"/>
</g>
<!-- r15_intermediate_p&#45;&gt;T -->
<g id="edge72" class="edge"><title>r15_intermediate_p&#45;&gt;T</title>
<path fill="none" stroke="black" d="M886.05,-446.999C888.155,-446.976 955.842,-446.022 1000,-420 1032.31,-400.957 1059.74,-366.727 1075.79,-343.687"/>
<polygon fill="black" stroke="black" points="1078.86,-345.407 1081.57,-335.166 1073.06,-341.48 1078.86,-345.407"/>
</g>
<!-- r16 -->
<g id="node60" class="node"><title>r16</title>
<polygon fill="none" stroke="black" points="358,-506 344,-506 344,-492 358,-492 358,-506"/>
</g>
<!-- r16_intermediate_p -->
<g id="node62" class="node"><title>r16_intermediate_p</title>
<ellipse fill="black" stroke="black" cx="462" cy="-489" rx="0.036" ry="0.036"/>
</g>
<!-- r16&#45;&gt;r16_intermediate_p -->
<g id="edge75" class="edge"><title>r16&#45;&gt;r16_intermediate_p</title>
<path fill="none" stroke="black" d="M358.173,-498.434C380.871,-496.351 458.521,-489.227 460.942,-489.005"/>
</g>
<!-- r16_intermediate_r&#45;&gt;r16 -->
<g id="edge73" class="edge"><title>r16_intermediate_r&#45;&gt;r16</title>
<path fill="none" stroke="black" d="M308.12,-507.974C309.968,-507.578 332.602,-502.728 343.803,-500.328"/>
</g>
<!-- r16_intermediate_p&#45;&gt;T -->
<g id="edge76" class="edge"><title>r16_intermediate_p&#45;&gt;T</title>
<path fill="none" stroke="black" d="M463.156,-488.989C466.355,-488.754 518.201,-485 560,-485 560,-485 560,-485 994,-485 1056.73,-485 1079.69,-395.261 1087.43,-348.144"/>
<polygon fill="black" stroke="black" points="1090.93,-348.383 1088.97,-337.972 1084.01,-347.335 1090.93,-348.383"/>
</g>
</g>
</svg>
