<?xml version="1.0" encoding="UTF-8" standalone="no"?>
<!DOCTYPE svg PUBLIC "-//W3C//DTD SVG 1.1//EN"
 "http://www.w3.org/Graphics/SVG/1.1/DTD/svg11.dtd">
<!-- Generated by graphviz version 2.30.1 (20140821.0912)
 -->
<!-- Title: G Pages: 1 -->
<svg width="1482pt" height="576pt"
 viewBox="0.00 0.00 1482.00 576.35" xmlns="http://www.w3.org/2000/svg" xmlns:xlink="http://www.w3.org/1999/xlink">
<g id="graph0" class="graph" transform="scale(1 1) rotate(0) translate(4 572.346)">
<title>G</title>
<polygon fill="white" stroke="white" points="-4,5 -4,-572.346 1479,-572.346 1479,5 -4,5"/>
<!-- GTPgS_C -->
<g id="GTPgS_C [CHEBI:5235]" class="node"><title>GTPgS_C</title>
<ellipse fill="none" stroke="black" cx="873" cy="-264.346" rx="34.2855" ry="18"/>
<text text-anchor="middle" x="873" y="-261.846" font-family="Times,serif" font-size="10.00">GTPgS_C</text>
</g>
<!-- GTPgSon_intermediate_r -->
<g id="node45" class="node"><title>GTPgSon_intermediate_r</title>
<ellipse fill="black" stroke="black" cx="957" cy="-219.346" rx="0.036" ry="0.036"/>
</g>
<!-- GTPgS_C&#45;&gt;GTPgSon_intermediate_r -->
<g id="edge31" class="edge"><title>GTPgS_C&#45;&gt;GTPgSon_intermediate_r</title>
<path fill="none" stroke="black" d="M897.279,-251.571C920.764,-238.683 953.855,-220.523 955.9,-219.4"/>
</g>
<!-- KCNQsites_M -->
<g id="KCNQsites_M" class="node"><title>KCNQsites_M</title>
<path fill="none" stroke="black" d="M66,-532.346C66,-532.346 12,-532.346 12,-532.346 6,-532.346 0,-526.346 0,-520.346 0,-520.346 0,-508.346 0,-508.346 0,-502.346 6,-496.346 12,-496.346 12,-496.346 66,-496.346 66,-496.346 72,-496.346 78,-502.346 78,-508.346 78,-508.346 78,-520.346 78,-520.346 78,-526.346 72,-532.346 66,-532.346"/>
<text text-anchor="middle" x="39" y="-511.846" font-family="Times,serif" font-size="10.00">KCNQsites_M</text>
</g>
<!-- PIP2binding_intermediate_r -->
<g id="node31" class="node"><title>PIP2binding_intermediate_r</title>
<ellipse fill="black" stroke="black" cx="115" cy="-514.346" rx="0.036" ry="0.036"/>
</g>
<!-- KCNQsites_M&#45;&gt;PIP2binding_intermediate_r -->
<g id="edge10" class="edge"><title>KCNQsites_M&#45;&gt;PIP2binding_intermediate_r</title>
<path fill="none" stroke="black" d="M78.3005,-514.346C95.7928,-514.346 112.897,-514.346 113.949,-514.346"/>
</g>
<!-- PIP2_M -->
<g id="PIP2_M [CHEBI:18348]" class="node"><title>PIP2_M</title>
<ellipse fill="none" stroke="black" cx="39" cy="-459.346" rx="29.3664" ry="18"/>
<text text-anchor="middle" x="39" y="-456.846" font-family="Times,serif" font-size="10.00">PIP2_M</text>
</g>
<!-- PIP2_M&#45;&gt;PIP2binding_intermediate_r -->
<g id="edge11" class="edge"><title>PIP2_M&#45;&gt;PIP2binding_intermediate_r</title>
<path fill="none" stroke="black" d="M58.5779,-472.986C64.7644,-477.541 71.6865,-482.652 78,-487.346 93.5491,-498.905 112.757,-513.407 113.942,-514.302"/>
</g>
<!-- PIP2_5Pase_intermediate_r -->
<g id="node59" class="node"><title>PIP2_5Pase_intermediate_r</title>
<ellipse fill="black" stroke="black" cx="115" cy="-419.346" rx="0.036" ry="0.036"/>
</g>
<!-- PIP2_M&#45;&gt;PIP2_5Pase_intermediate_r -->
<g id="edge54" class="edge"><title>PIP2_M&#45;&gt;PIP2_5Pase_intermediate_r</title>
<path fill="none" stroke="black" d="M61.8022,-447.561C82.9482,-436.13 112.11,-420.367 113.912,-419.393"/>
</g>
<!-- PLC_intermediate_r -->
<g id="node62" class="node"><title>PLC_intermediate_r</title>
<ellipse fill="black" stroke="black" cx="115" cy="-492.346" rx="0.036" ry="0.036"/>
</g>
<!-- PIP2_M&#45;&gt;PLC_intermediate_r -->
<g id="edge58" class="edge"><title>PIP2_M&#45;&gt;PLC_intermediate_r</title>
<path fill="none" stroke="black" d="M63.4141,-469.787C84.4163,-479.153 112.2,-491.543 113.916,-492.308"/>
</g>
<!-- GGDPbS_M -->
<g id="GGDPbS_M [CHEBI:38309]" class="node"><title>GGDPbS_M</title>
<ellipse fill="none" stroke="black" cx="1160" cy="-48.3457" rx="40.7358" ry="18"/>
<text text-anchor="middle" x="1160" y="-45.8457" font-family="Times,serif" font-size="10.00">GGDPbS_M</text>
</g>
<!-- Mg2_C -->
<g id="Mg2_C [CHEBI:25107]" class="node"><title>Mg2_C</title>
<ellipse fill="none" stroke="black" cx="1012" cy="-264.346" rx="18" ry="18"/>
<text text-anchor="middle" x="1012" y="-261.846" font-family="Times,serif" font-size="10.00">Mg2_C</text>
</g>
<!-- MgonGGTPgS_intermediate_m -->
<g id="node36" class="node"><title>MgonGGTPgS_intermediate_m</title>
<ellipse fill="black" stroke="black" cx="1340" cy="-256.346" rx="0.036" ry="0.036"/>
</g>
<!-- Mg2_C&#45;&gt;MgonGGTPgS_intermediate_m -->
<g id="edge19" class="edge"><title>Mg2_C&#45;&gt;MgonGGTPgS_intermediate_m</title>
<path fill="none" stroke="black" d="M1030.08,-264.538C1057.34,-264.829 1112.36,-265.346 1159,-265.346 1159,-265.346 1159,-265.346 1254,-265.346 1290.8,-265.346 1336.07,-256.899 1338.86,-256.371"/>
</g>
<!-- MgGTPon_intermediate_m -->
<g id="node53" class="node"><title>MgGTPon_intermediate_m</title>
<ellipse fill="black" stroke="black" cx="1067" cy="-302.346" rx="0.036" ry="0.036"/>
</g>
<!-- Mg2_C&#45;&gt;MgGTPon_intermediate_m -->
<g id="edge45" class="edge"><title>Mg2_C&#45;&gt;MgGTPon_intermediate_m</title>
<path fill="none" stroke="black" d="M1027.2,-274.529C1042.41,-285.433 1064.56,-301.316 1065.93,-302.298"/>
</g>
<!-- MgonGDPAlF4_intermediate_m -->
<g id="node73" class="node"><title>MgonGDPAlF4_intermediate_m</title>
<ellipse fill="black" stroke="black" cx="1067" cy="-237.346" rx="0.036" ry="0.036"/>
</g>
<!-- Mg2_C&#45;&gt;MgonGDPAlF4_intermediate_m -->
<g id="edge76" class="edge"><title>Mg2_C&#45;&gt;MgonGDPAlF4_intermediate_m</title>
<path fill="none" stroke="black" d="M1028.33,-256.536C1043.49,-248.811 1064.63,-238.044 1065.94,-237.378"/>
</g>
<!-- ATP_C -->
<g id="ATP_C [CHEBI:15422]" class="node"><title>ATP_C</title>
<ellipse fill="none" stroke="black" cx="39" cy="-348.346" rx="18" ry="18"/>
<text text-anchor="middle" x="39" y="-345.846" font-family="Times,serif" font-size="10.00">ATP_C</text>
</g>
<!-- PIP5kinase_intermediate_r -->
<g id="node25" class="node"><title>PIP5kinase_intermediate_r</title>
<ellipse fill="black" stroke="black" cx="447" cy="-399.346" rx="0.036" ry="0.036"/>
</g>
<!-- ATP_C&#45;&gt;PIP5kinase_intermediate_r -->
<g id="edge2" class="edge"><title>ATP_C&#45;&gt;PIP5kinase_intermediate_r</title>
<path fill="none" stroke="black" d="M57.4385,-348.346C85.8408,-348.346 143.859,-348.346 193,-348.346 193,-348.346 193,-348.346 274,-348.346 335.378,-348.346 353.686,-347.931 410,-372.346 427.776,-380.052 444.896,-398.166 445.949,-399.291"/>
</g>
<!-- PI4Kinase_intermediate_r -->
<g id="node68" class="node"><title>PI4Kinase_intermediate_r</title>
<ellipse fill="black" stroke="black" cx="115" cy="-383.346" rx="0.036" ry="0.036"/>
</g>
<!-- ATP_C&#45;&gt;PI4Kinase_intermediate_r -->
<g id="edge67" class="edge"><title>ATP_C&#45;&gt;PI4Kinase_intermediate_r</title>
<path fill="none" stroke="black" d="M55.6935,-355.768C76.7367,-365.721 111.728,-382.271 113.894,-383.296"/>
</g>
<!-- oxoM_EX -->
<g id="oxoM_EX [CHEBI:38322]" class="node"><title>oxoM_EX</title>
<ellipse fill="none" stroke="black" cx="716" cy="-145.346" rx="35.1405" ry="18"/>
<text text-anchor="middle" x="716" y="-142.846" font-family="Times,serif" font-size="10.00">oxoM_EX</text>
</g>
<!-- GDPdissoc_intermediate_m -->
<g id="node57" class="node"><title>GDPdissoc_intermediate_m</title>
<ellipse fill="black" stroke="black" cx="789" cy="-157.346" rx="0.036" ry="0.036"/>
</g>
<!-- oxoM_EX&#45;&gt;GDPdissoc_intermediate_m -->
<g id="edge52" class="edge"><title>oxoM_EX&#45;&gt;GDPdissoc_intermediate_m</title>
<path fill="none" stroke="black" d="M750.006,-150.924C767.968,-153.96 786.785,-157.14 787.944,-157.336"/>
</g>
<!-- GDPbS_C -->
<g id="GDPbS_C [CHEBI:38309]" class="node"><title>GDPbS_C</title>
<ellipse fill="none" stroke="black" cx="873" cy="-48.3457" rx="34.9638" ry="18"/>
<text text-anchor="middle" x="873" y="-45.8457" font-family="Times,serif" font-size="10.00">GDPbS_C</text>
</g>
<!-- GDPbSon_intermediate_r -->
<g id="node48" class="node"><title>GDPbSon_intermediate_r</title>
<ellipse fill="black" stroke="black" cx="957" cy="-48.3457" rx="0.036" ry="0.036"/>
</g>
<!-- GDPbS_C&#45;&gt;GDPbSon_intermediate_r -->
<g id="edge37" class="edge"><title>GDPbS_C&#45;&gt;GDPbSon_intermediate_r</title>
<path fill="none" stroke="black" d="M907.826,-48.3457C929.708,-48.3457 954.404,-48.3457 955.926,-48.3457"/>
</g>
<!-- GGTPMg_M -->
<g id="GGTPMg_M [CHEBI:18420] [CHEBI:25107] [CHEBI:15996]" class="node"><title>GGTPMg_M</title>
<ellipse fill="none" stroke="black" cx="194" cy="-176.346" rx="41.5911" ry="18"/>
<text text-anchor="middle" x="194" y="-173.846" font-family="Times,serif" font-size="10.00">GGTPMg_M</text>
</g>
<!-- GGTPase_intermediate_r -->
<g id="node38" class="node"><title>GGTPase_intermediate_r</title>
<ellipse fill="black" stroke="black" cx="273" cy="-176.346" rx="0.036" ry="0.036"/>
</g>
<!-- GGTPMg_M&#45;&gt;GGTPase_intermediate_r -->
<g id="edge21" class="edge"><title>GGTPMg_M&#45;&gt;GGTPase_intermediate_r</title>
<path fill="none" stroke="black" d="M236.205,-176.346C253.94,-176.346 270.906,-176.346 271.949,-176.346"/>
</g>
<!-- GDP_C -->
<g id="GDP_C [CHEBI:17552]" class="node"><title>GDP_C</title>
<ellipse fill="none" stroke="black" cx="873" cy="-210.346" rx="18" ry="18"/>
<text text-anchor="middle" x="873" y="-207.846" font-family="Times,serif" font-size="10.00">GDP_C</text>
</g>
<!-- GTP_C -->
<g id="GTP_C [CHEBI:15996]" class="node"><title>GTP_C</title>
<ellipse fill="none" stroke="black" cx="1012" cy="-91.3457" rx="18" ry="18"/>
<text text-anchor="middle" x="1012" y="-88.8457" font-family="Times,serif" font-size="10.00">GTP_C</text>
</g>
<!-- GTPon_intermediate_m -->
<g id="node43" class="node"><title>GTPon_intermediate_m</title>
<ellipse fill="black" stroke="black" cx="1067" cy="-98.3457" rx="0.036" ry="0.036"/>
</g>
<!-- GTP_C&#45;&gt;GTPon_intermediate_m -->
<g id="edge29" class="edge"><title>GTP_C&#45;&gt;GTPon_intermediate_m</title>
<path fill="none" stroke="black" d="M1030.06,-93.599C1045.07,-95.5814 1064.73,-98.1775 1065.94,-98.3379"/>
</g>
<!-- GGDPAlF4Mg_M -->
<g id="GGDPAlF4Mg_M [CHEBI:17552] [CHEBI:25107] [CHEBI:30111] [CHEBI:30111]" class="node"><title>GGDPAlF4Mg_M</title>
<ellipse fill="none" stroke="black" cx="1160" cy="-165.346" rx="55.1691" ry="18"/>
<text text-anchor="middle" x="1160" y="-162.846" font-family="Times,serif" font-size="10.00">GGDPAIF4Mg_M</text>
</g>
<!-- ip3_C -->
<g id="ip3_C [CHEBI:16595]" class="node"><title>ip3_C</title>
<ellipse fill="none" stroke="black" cx="360" cy="-496.346" rx="18" ry="18"/>
<text text-anchor="middle" x="360" y="-493.846" font-family="Times,serif" font-size="10.00">IP3_C</text>
</g>
<!-- IP3Phosphatase_intermediate_r -->
<g id="node28" class="node"><title>IP3Phosphatase_intermediate_r</title>
<ellipse fill="black" stroke="black" cx="447" cy="-496.346" rx="0.036" ry="0.036"/>
</g>
<!-- ip3_C&#45;&gt;IP3Phosphatase_intermediate_r -->
<g id="edge7" class="edge"><title>ip3_C&#45;&gt;IP3Phosphatase_intermediate_r</title>
<path fill="none" stroke="black" d="M378.201,-496.346C402.262,-496.346 443.333,-496.346 445.876,-496.346"/>
</g>
<!-- AlF4_C -->
<g id="AlF4_C [CHEBI:30111]" class="node"><title>AlF4_C</title>
<ellipse fill="none" stroke="black" cx="519" cy="-106.346" rx="29.3664" ry="18"/>
<text text-anchor="middle" x="519" y="-103.846" font-family="Times,serif" font-size="10.00">AIF4_C</text>
</g>
<!-- AlF4on_intermediate_r -->
<g id="node65" class="node"><title>AlF4on_intermediate_r</title>
<ellipse fill="black" stroke="black" cx="617" cy="-106.346" rx="0.036" ry="0.036"/>
</g>
<!-- AlF4_C&#45;&gt;AlF4on_intermediate_r -->
<g id="edge62" class="edge"><title>AlF4_C&#45;&gt;AlF4on_intermediate_r</title>
<path fill="none" stroke="black" d="M548.543,-106.346C575.957,-106.346 613.563,-106.346 615.887,-106.346"/>
</g>
<!-- G_M -->
<g id="G_M" class="node"><title>G_M</title>
<ellipse fill="none" stroke="black" cx="873" cy="-156.346" rx="27" ry="18"/>
<text text-anchor="middle" x="873" y="-153.846" font-family="Times,serif" font-size="10.00">G_M</text>
</g>
<!-- GTPon_intermediate_r -->
<g id="node41" class="node"><title>GTPon_intermediate_r</title>
<ellipse fill="black" stroke="black" cx="957" cy="-138.346" rx="0.036" ry="0.036"/>
</g>
<!-- G_M&#45;&gt;GTPon_intermediate_r -->
<g id="edge25" class="edge"><title>G_M&#45;&gt;GTPon_intermediate_r</title>
<path fill="none" stroke="black" d="M899.048,-150.847C922.409,-145.719 953.956,-138.794 955.905,-138.367"/>
</g>
<!-- G_M&#45;&gt;GTPgSon_intermediate_r -->
<g id="edge32" class="edge"><title>G_M&#45;&gt;GTPgSon_intermediate_r</title>
<path fill="none" stroke="black" d="M894.873,-167.109C903.013,-171.681 912.234,-177.342 920,-183.346 937.343,-196.752 954.869,-217.969 955.948,-219.282"/>
</g>
<!-- G_M&#45;&gt;GDPbSon_intermediate_r -->
<g id="edge36" class="edge"><title>G_M&#45;&gt;GDPbSon_intermediate_r</title>
<path fill="none" stroke="black" d="M896.136,-146.939C904.45,-142.553 913.461,-136.666 920,-129.346 945.426,-100.884 955.374,-51.5502 955.971,-48.4946"/>
</g>
<!-- GGTP_M -->
<g id="GGTP_M [CHEBI:15996] [CHEBI:15996]" class="node"><title>GGTP_M</title>
<ellipse fill="none" stroke="black" cx="1160" cy="-107.346" rx="33.6077" ry="18"/>
<text text-anchor="middle" x="1160" y="-104.846" font-family="Times,serif" font-size="10.00">GGTP_M</text>
</g>
<!-- MgGTPon_intermediate_r -->
<g id="node51" class="node"><title>MgGTPon_intermediate_r</title>
<ellipse fill="black" stroke="black" cx="1253" cy="-55.3457" rx="0.036" ry="0.036"/>
</g>
<!-- GGTP_M&#45;&gt;MgGTPon_intermediate_r -->
<g id="edge41" class="edge"><title>GGTP_M&#45;&gt;MgGTPon_intermediate_r</title>
<path fill="none" stroke="black" d="M1183.49,-94.4917C1209.6,-79.5742 1249.42,-56.8217 1251.88,-55.4143"/>
</g>
<!-- GGDPAlF4_M -->
<g id="GGDPAlF4_M [CHEBI:30111] [CHEBI:30111] [CHEBI:17552]" class="node"><title>GGDPAlF4_M</title>
<ellipse fill="none" stroke="black" cx="873" cy="-102.346" rx="47.1863" ry="18"/>
<text text-anchor="middle" x="873" y="-99.8457" font-family="Times,serif" font-size="10.00">GGDPAIF4_M</text>
</g>
<!-- MgonGDPAlF4_intermediate_r -->
<g id="node71" class="node"><title>MgonGDPAlF4_intermediate_r</title>
<ellipse fill="black" stroke="black" cx="957" cy="-159.346" rx="0.036" ry="0.036"/>
</g>
<!-- GGDPAlF4_M&#45;&gt;MgonGDPAlF4_intermediate_r -->
<g id="edge72" class="edge"><title>GGDPAlF4_M&#45;&gt;MgonGDPAlF4_intermediate_r</title>
<path fill="none" stroke="black" d="M900.738,-117.042C907.175,-120.851 913.94,-125.085 920,-129.346 936.506,-140.95 954.817,-158.225 955.945,-159.294"/>
</g>
<!-- GGTPgS_M -->
<g id="GGTPgS_M [CHEBI:5235] [CHEBI:43000]" class="node"><title>GGTPgS_M</title>
<ellipse fill="none" stroke="black" cx="1160" cy="-219.346" rx="40.0582" ry="18"/>
<text text-anchor="middle" x="1160" y="-216.846" font-family="Times,serif" font-size="10.00">GGTPgS_M</text>
</g>
<!-- MgonGGTPgS_intermediate_r -->
<g id="node34" class="node"><title>MgonGGTPgS_intermediate_r</title>
<ellipse fill="black" stroke="black" cx="1253" cy="-222.346" rx="0.036" ry="0.036"/>
</g>
<!-- GGTPgS_M&#45;&gt;MgonGGTPgS_intermediate_r -->
<g id="edge15" class="edge"><title>GGTPgS_M&#45;&gt;MgonGGTPgS_intermediate_r</title>
<path fill="none" stroke="black" d="M1200.12,-220.635C1224.01,-221.423 1250.3,-222.29 1251.92,-222.343"/>
</g>
<!-- PI_M -->
<g id="PI_M [CHEBI:16749]" class="node"><title>PI_M</title>
<ellipse fill="none" stroke="black" cx="39" cy="-402.346" rx="18" ry="18"/>
<text text-anchor="middle" x="39" y="-399.846" font-family="Times,serif" font-size="10.00">PI_M</text>
</g>
<!-- PI_M&#45;&gt;PI4Kinase_intermediate_r -->
<g id="edge68" class="edge"><title>PI_M&#45;&gt;PI4Kinase_intermediate_r</title>
<path fill="none" stroke="black" d="M56.7917,-398.034C77.9426,-392.604 111.802,-383.91 113.898,-383.372"/>
</g>
<!-- PIP_M -->
<g id="PIP_M [CHEBI:17526]" class="node"><title>PIP_M</title>
<ellipse fill="none" stroke="black" cx="360" cy="-399.346" rx="18" ry="18"/>
<text text-anchor="middle" x="360" y="-396.846" font-family="Times,serif" font-size="10.00">PIP_M</text>
</g>
<!-- PIP_M&#45;&gt;PIP5kinase_intermediate_r -->
<g id="edge3" class="edge"><title>PIP_M&#45;&gt;PIP5kinase_intermediate_r</title>
<path fill="none" stroke="black" d="M378.201,-399.346C402.262,-399.346 443.333,-399.346 445.876,-399.346"/>
</g>
<!-- PIP2xKCNQ_M -->
<g id="PIP2xKCNQ_M [CHEBI:18348]" class="node"><title>PIP2xKCNQ_M</title>
<ellipse fill="none" stroke="black" cx="360" cy="-550.346" rx="49.3954" ry="18"/>
<text text-anchor="middle" x="360" y="-547.846" font-family="Times,serif" font-size="10.00">PIP2xKCNQ_M</text>
</g>
<!-- GGTPgSMg_M -->
<g id="GGTPgSMg_M [CHEBI:18420] [CHEBI:5235] [CHEBI:25107]" class="node"><title>GGTPgSMg_M</title>
<ellipse fill="none" stroke="black" cx="1425" cy="-227.346" rx="48.0418" ry="18"/>
<text text-anchor="middle" x="1425" y="-224.846" font-family="Times,serif" font-size="10.00">GGTPgSMg_M</text>
</g>
<!-- GGDP_M -->
<g id="GGDP_M [CHEBI:17552] [CHEBI:17552]" class="node"><title>GGDP_M</title>
<ellipse fill="none" stroke="black" cx="519" cy="-176.346" rx="34.9638" ry="18"/>
<text text-anchor="middle" x="519" y="-173.846" font-family="Times,serif" font-size="10.00">GGDP_M</text>
</g>
<!-- GDPdissoc_intermediate_r -->
<g id="node55" class="node"><title>GDPdissoc_intermediate_r</title>
<ellipse fill="black" stroke="black" cx="617" cy="-184.346" rx="0.036" ry="0.036"/>
</g>
<!-- GGDP_M&#45;&gt;GDPdissoc_intermediate_r -->
<g id="edge47" class="edge"><title>GGDP_M&#45;&gt;GDPdissoc_intermediate_r</title>
<path fill="none" stroke="black" d="M553.576,-179.144C580.395,-181.379 613.836,-184.165 615.899,-184.337"/>
</g>
<!-- GGDP_M&#45;&gt;AlF4on_intermediate_r -->
<g id="edge63" class="edge"><title>GGDP_M&#45;&gt;AlF4on_intermediate_r</title>
<path fill="none" stroke="black" d="M539.891,-161.842C567.132,-141.979 613.02,-108.519 615.861,-106.447"/>
</g>
<!-- PIP5kinase -->
<g id="node24" class="node"><title>PIP5kinase</title>
<polygon fill="none" stroke="black" points="526,-417.346 512,-417.346 512,-403.346 526,-403.346 526,-417.346"/>
</g>
<!-- PIP5kinase_intermediate_p -->
<g id="node26" class="node"><title>PIP5kinase_intermediate_p</title>
<ellipse fill="black" stroke="black" cx="617" cy="-430.346" rx="0.036" ry="0.036"/>
</g>
<!-- PIP5kinase&#45;&gt;PIP5kinase_intermediate_p -->
<g id="edge4" class="edge"><title>PIP5kinase&#45;&gt;PIP5kinase_intermediate_p</title>
<path fill="none" stroke="black" d="M526.005,-411.597C546.694,-415.907 613.856,-429.899 615.95,-430.335"/>
</g>
<!-- PIP5kinase_intermediate_r&#45;&gt;PIP5kinase -->
<g id="edge1" class="edge"><title>PIP5kinase_intermediate_r&#45;&gt;PIP5kinase</title>
<path fill="none" stroke="black" d="M448.051,-399.354C449.773,-399.624 494.874,-406.712 511.726,-409.36"/>
</g>
<!-- PIP5kinase_intermediate_p&#45;&gt;PIP2_M -->
<g id="edge5" class="edge"><title>PIP5kinase_intermediate_p&#45;&gt;PIP2_M</title>
<path fill="none" stroke="black" d="M615.932,-430.36C613.104,-430.966 522.019,-450.346 448,-450.346 193,-450.346 193,-450.346 193,-450.346 153.965,-450.346 109.424,-453.301 78.5063,-455.825"/>
<polygon fill="black" stroke="black" points="77.8416,-452.368 68.17,-456.694 78.4281,-459.344 77.8416,-452.368"/>
</g>
<!-- IP3Phosphatase -->
<g id="node27" class="node"><title>IP3Phosphatase</title>
<polygon fill="none" stroke="black" points="526,-503.346 512,-503.346 512,-489.346 526,-489.346 526,-503.346"/>
</g>
<!-- IP3Phosphatase_empty -->
<g id="node29" class="node"><title>IP3Phosphatase_empty</title>
<text text-anchor="middle" x="617" y="-492.846" font-family="Times,serif" font-size="15.00" fill="blue">Ø</text>
</g>
<!-- IP3Phosphatase&#45;&gt;IP3Phosphatase_empty -->
<g id="edge8" class="edge"><title>IP3Phosphatase&#45;&gt;IP3Phosphatase_empty</title>
<path fill="none" stroke="black" d="M526.005,-496.346C536.632,-496.346 559.519,-496.346 579.552,-496.346"/>
<polygon fill="black" stroke="black" points="579.688,-499.846 589.688,-496.346 579.688,-492.846 579.688,-499.846"/>
</g>
<!-- IP3Phosphatase_intermediate_r&#45;&gt;IP3Phosphatase -->
<g id="edge6" class="edge"><title>IP3Phosphatase_intermediate_r&#45;&gt;IP3Phosphatase</title>
<path fill="none" stroke="black" d="M448.051,-496.346C449.773,-496.346 494.874,-496.346 511.726,-496.346"/>
</g>
<!-- PIP2binding -->
<g id="node30" class="node"><title>PIP2binding</title>
<polygon fill="none" stroke="black" points="201,-539.346 187,-539.346 187,-525.346 201,-525.346 201,-539.346"/>
</g>
<!-- PIP2binding_intermediate_p -->
<g id="node32" class="node"><title>PIP2binding_intermediate_p</title>
<ellipse fill="black" stroke="black" cx="273" cy="-545.346" rx="0.036" ry="0.036"/>
</g>
<!-- PIP2binding&#45;&gt;PIP2binding_intermediate_p -->
<g id="edge12" class="edge"><title>PIP2binding&#45;&gt;PIP2binding_intermediate_p</title>
<path fill="none" stroke="black" d="M201.042,-533.366C218.627,-536.335 268.733,-544.794 271.848,-545.32"/>
</g>
<!-- PIP2binding_intermediate_r&#45;&gt;PIP2binding -->
<g id="edge9" class="edge"><title>PIP2binding_intermediate_r&#45;&gt;PIP2binding</title>
<path fill="none" stroke="black" d="M116.056,-514.359C117.978,-514.808 169.002,-526.736 186.881,-530.915"/>
</g>
<!-- PIP2binding_intermediate_p&#45;&gt;PIP2xKCNQ_M -->
<g id="edge13" class="edge"><title>PIP2binding_intermediate_p&#45;&gt;PIP2xKCNQ_M</title>
<path fill="none" stroke="black" d="M274.062,-545.349C275.001,-545.405 286.57,-546.085 300.884,-546.927"/>
<polygon fill="black" stroke="black" points="300.947,-550.437 311.135,-547.53 301.358,-543.449 300.947,-550.437"/>
</g>
<!-- MgonGGTPgS -->
<g id="node33" class="node"><title>MgonGGTPgS</title>
<polygon fill="none" stroke="black" points="1304,-234.346 1290,-234.346 1290,-220.346 1304,-220.346 1304,-234.346"/>
</g>
<!-- MgonGGTPgS_intermediate_p -->
<g id="node35" class="node"><title>MgonGGTPgS_intermediate_p</title>
<ellipse fill="black" stroke="black" cx="1340" cy="-227.346" rx="0.036" ry="0.036"/>
</g>
<!-- MgonGGTPgS&#45;&gt;MgonGGTPgS_intermediate_p -->
<g id="edge16" class="edge"><title>MgonGGTPgS&#45;&gt;MgonGGTPgS_intermediate_p</title>
<path fill="none" stroke="black" d="M1304.05,-227.346C1315.1,-227.346 1337.54,-227.346 1338.93,-227.346"/>
</g>
<!-- MgonGGTPgS&#45;&gt;MgonGGTPgS_intermediate_m -->
<g id="edge18" class="edge"><title>MgonGGTPgS&#45;&gt;MgonGGTPgS_intermediate_m</title>
<path fill="none" stroke="black" d="M1304.05,-231.625C1315.1,-239.439 1337.54,-255.313 1338.93,-256.298"/>
</g>
<!-- MgonGGTPgS_intermediate_r&#45;&gt;MgonGGTPgS -->
<g id="edge14" class="edge"><title>MgonGGTPgS_intermediate_r&#45;&gt;MgonGGTPgS</title>
<path fill="none" stroke="black" d="M1254.12,-222.36C1255.97,-222.58 1278.6,-225.274 1289.8,-226.608"/>
</g>
<!-- MgonGGTPgS_intermediate_p&#45;&gt;GGTPgSMg_M -->
<g id="edge17" class="edge"><title>MgonGGTPgS_intermediate_p&#45;&gt;GGTPgSMg_M</title>
<path fill="none" stroke="black" d="M1341.06,-227.346C1341.95,-227.346 1352.68,-227.346 1366.13,-227.346"/>
<polygon fill="black" stroke="black" points="1366.31,-230.846 1376.31,-227.346 1366.31,-223.846 1366.31,-230.846"/>
</g>
<!-- GGTPase -->
<g id="node37" class="node"><title>GGTPase</title>
<polygon fill="none" stroke="black" points="367,-183.346 353,-183.346 353,-169.346 367,-169.346 367,-183.346"/>
</g>
<!-- GGTPase_intermediate_p -->
<g id="node39" class="node"><title>GGTPase_intermediate_p</title>
<ellipse fill="black" stroke="black" cx="447" cy="-176.346" rx="0.036" ry="0.036"/>
</g>
<!-- GGTPase&#45;&gt;GGTPase_intermediate_p -->
<g id="edge22" class="edge"><title>GGTPase&#45;&gt;GGTPase_intermediate_p</title>
<path fill="none" stroke="black" d="M367.113,-176.346C386.298,-176.346 444.154,-176.346 445.957,-176.346"/>
</g>
<!-- GGTPase_intermediate_r&#45;&gt;GGTPase -->
<g id="edge20" class="edge"><title>GGTPase_intermediate_r&#45;&gt;GGTPase</title>
<path fill="none" stroke="black" d="M274.062,-176.346C276.203,-176.346 333.582,-176.346 352.797,-176.346"/>
</g>
<!-- GGTPase_intermediate_p&#45;&gt;GGDP_M -->
<g id="edge23" class="edge"><title>GGTPase_intermediate_p&#45;&gt;GGDP_M</title>
<path fill="none" stroke="black" d="M448.051,-176.346C448.91,-176.346 460.574,-176.346 474.138,-176.346"/>
<polygon fill="black" stroke="black" points="474.224,-179.846 484.224,-176.346 474.224,-172.846 474.224,-179.846"/>
</g>
<!-- GTPon -->
<g id="node40" class="node"><title>GTPon</title>
<polygon fill="none" stroke="black" points="1019,-141.346 1005,-141.346 1005,-127.346 1019,-127.346 1019,-141.346"/>
</g>
<!-- GTPon_intermediate_p -->
<g id="node42" class="node"><title>GTPon_intermediate_p</title>
<ellipse fill="black" stroke="black" cx="1067" cy="-122.346" rx="0.036" ry="0.036"/>
</g>
<!-- GTPon&#45;&gt;GTPon_intermediate_p -->
<g id="edge26" class="edge"><title>GTPon&#45;&gt;GTPon_intermediate_p</title>
<path fill="none" stroke="black" d="M1019.08,-132.969C1032.57,-129.916 1063.96,-122.808 1065.9,-122.367"/>
</g>
<!-- GTPon&#45;&gt;GTPon_intermediate_m -->
<g id="edge28" class="edge"><title>GTPon&#45;&gt;GTPon_intermediate_m</title>
<path fill="none" stroke="black" d="M1019.08,-130.216C1032.57,-121.055 1063.96,-99.7339 1065.9,-98.4103"/>
</g>
<!-- GTPon_intermediate_r&#45;&gt;GTPon -->
<g id="edge24" class="edge"><title>GTPon_intermediate_r&#45;&gt;GTPon</title>
<path fill="none" stroke="black" d="M958.152,-138.334C960.581,-138.151 991.47,-135.82 1004.87,-134.808"/>
</g>
<!-- GTPon_intermediate_p&#45;&gt;GGTP_M -->
<g id="edge27" class="edge"><title>GTPon_intermediate_p&#45;&gt;GGTP_M</title>
<path fill="none" stroke="black" d="M1068.07,-122.335C1069.51,-122.098 1094.25,-118.019 1117.56,-114.176"/>
<polygon fill="black" stroke="black" points="1118.44,-117.579 1127.73,-112.499 1117.3,-110.672 1118.44,-117.579"/>
</g>
<!-- GTPgSon -->
<g id="node44" class="node"><title>GTPgSon</title>
<polygon fill="none" stroke="black" points="1019,-226.346 1005,-226.346 1005,-212.346 1019,-212.346 1019,-226.346"/>
</g>
<!-- GTPgSon_intermediate_p -->
<g id="node46" class="node"><title>GTPgSon_intermediate_p</title>
<ellipse fill="black" stroke="black" cx="1067" cy="-219.346" rx="0.036" ry="0.036"/>
</g>
<!-- GTPgSon&#45;&gt;GTPgSon_intermediate_p -->
<g id="edge33" class="edge"><title>GTPgSon&#45;&gt;GTPgSon_intermediate_p</title>
<path fill="none" stroke="black" d="M1019.08,-219.346C1032.57,-219.346 1063.96,-219.346 1065.9,-219.346"/>
</g>
<!-- GTPgSon_intermediate_r&#45;&gt;GTPgSon -->
<g id="edge30" class="edge"><title>GTPgSon_intermediate_r&#45;&gt;GTPgSon</title>
<path fill="none" stroke="black" d="M958.152,-219.346C960.581,-219.346 991.47,-219.346 1004.87,-219.346"/>
</g>
<!-- GTPgSon_intermediate_p&#45;&gt;GGTPgS_M -->
<g id="edge34" class="edge"><title>GTPgSon_intermediate_p&#45;&gt;GGTPgS_M</title>
<path fill="none" stroke="black" d="M1068.07,-219.346C1069.34,-219.346 1088.95,-219.346 1109.63,-219.346"/>
<polygon fill="black" stroke="black" points="1109.8,-222.846 1119.8,-219.346 1109.8,-215.846 1109.8,-222.846"/>
</g>
<!-- GDPbSon -->
<g id="node47" class="node"><title>GDPbSon</title>
<polygon fill="none" stroke="black" points="1019,-55.3457 1005,-55.3457 1005,-41.3457 1019,-41.3457 1019,-55.3457"/>
</g>
<!-- GDPbSon_intermediate_p -->
<g id="node49" class="node"><title>GDPbSon_intermediate_p</title>
<ellipse fill="black" stroke="black" cx="1067" cy="-48.3457" rx="0.036" ry="0.036"/>
</g>
<!-- GDPbSon&#45;&gt;GDPbSon_intermediate_p -->
<g id="edge38" class="edge"><title>GDPbSon&#45;&gt;GDPbSon_intermediate_p</title>
<path fill="none" stroke="black" d="M1019.08,-48.3457C1032.57,-48.3457 1063.96,-48.3457 1065.9,-48.3457"/>
</g>
<!-- GDPbSon_intermediate_r&#45;&gt;GDPbSon -->
<g id="edge35" class="edge"><title>GDPbSon_intermediate_r&#45;&gt;GDPbSon</title>
<path fill="none" stroke="black" d="M958.152,-48.3457C960.581,-48.3457 991.47,-48.3457 1004.87,-48.3457"/>
</g>
<!-- GDPbSon_intermediate_p&#45;&gt;GGDPbS_M -->
<g id="edge39" class="edge"><title>GDPbSon_intermediate_p&#45;&gt;GGDPbS_M</title>
<path fill="none" stroke="black" d="M1068.07,-48.3457C1069.33,-48.3457 1088.67,-48.3457 1109.18,-48.3457"/>
<polygon fill="black" stroke="black" points="1109.28,-51.8458 1119.28,-48.3457 1109.28,-44.8458 1109.28,-51.8458"/>
</g>
<!-- MgGTPon -->
<g id="node50" class="node"><title>MgGTPon</title>
<polygon fill="none" stroke="black" points="46,-183.346 32,-183.346 32,-169.346 46,-169.346 46,-183.346"/>
</g>
<!-- MgGTPon_intermediate_p -->
<g id="node52" class="node"><title>MgGTPon_intermediate_p</title>
<ellipse fill="black" stroke="black" cx="115" cy="-176.346" rx="0.036" ry="0.036"/>
</g>
<!-- MgGTPon&#45;&gt;MgGTPon_intermediate_p -->
<g id="edge42" class="edge"><title>MgGTPon&#45;&gt;MgGTPon_intermediate_p</title>
<path fill="none" stroke="black" d="M46.0557,-176.346C63.1768,-176.346 110.89,-176.346 113.855,-176.346"/>
</g>
<!-- MgGTPon&#45;&gt;MgGTPon_intermediate_m -->
<g id="edge44" class="edge"><title>MgGTPon&#45;&gt;MgGTPon_intermediate_m</title>
<path fill="none" stroke="black" d="M43.6174,-183.55C58.1577,-211.383 115.319,-310.346 193,-310.346 193,-310.346 193,-310.346 958,-310.346 1005.38,-310.346 1064.13,-302.594 1065.96,-302.351"/>
</g>
<!-- MgGTPon_intermediate_r&#45;&gt;MgGTPon -->
<g id="edge40" class="edge"><title>MgGTPon_intermediate_r&#45;&gt;MgGTPon</title>
<path fill="none" stroke="black" d="M1251.95,-55.2749C1250.99,-53.8242 1235.27,-30.4703 1216,-21.3457 1156.06,7.03699 1134.32,-2.34566 1068,-2.34566 193,-2.34566 193,-2.34566 193,-2.34566 102.492,-2.34566 52.8913,-136.757 42.2057,-169.309"/>
</g>
<!-- MgGTPon_intermediate_p&#45;&gt;GGTPMg_M -->
<g id="edge43" class="edge"><title>MgGTPon_intermediate_p&#45;&gt;GGTPMg_M</title>
<path fill="none" stroke="black" d="M116.056,-176.346C116.935,-176.346 128.099,-176.346 141.663,-176.346"/>
<polygon fill="black" stroke="black" points="141.851,-179.846 151.851,-176.346 141.851,-172.846 141.851,-179.846"/>
</g>
<!-- GDPdissoc -->
<g id="node54" class="node"><title>GDPdissoc</title>
<polygon fill="none" stroke="black" points="723,-195.346 709,-195.346 709,-181.346 723,-181.346 723,-195.346"/>
</g>
<!-- GDPdissoc_intermediate_p -->
<g id="node56" class="node"><title>GDPdissoc_intermediate_p</title>
<ellipse fill="black" stroke="black" cx="789" cy="-188.346" rx="0.036" ry="0.036"/>
</g>
<!-- GDPdissoc&#45;&gt;GDPdissoc_intermediate_p -->
<g id="edge48" class="edge"><title>GDPdissoc&#45;&gt;GDPdissoc_intermediate_p</title>
<path fill="none" stroke="black" d="M723.053,-188.346C739.687,-188.346 785.044,-188.346 787.862,-188.346"/>
</g>
<!-- GDPdissoc&#45;&gt;GDPdissoc_intermediate_m -->
<g id="edge51" class="edge"><title>GDPdissoc&#45;&gt;GDPdissoc_intermediate_m</title>
<path fill="none" stroke="black" d="M723.053,-185.703C739.687,-178.44 785.044,-158.636 787.862,-157.406"/>
</g>
<!-- GDPdissoc_intermediate_r&#45;&gt;GDPdissoc -->
<g id="edge46" class="edge"><title>GDPdissoc_intermediate_r&#45;&gt;GDPdissoc</title>
<path fill="none" stroke="black" d="M618.07,-184.349C620.549,-184.451 687.85,-187.226 708.822,-188.091"/>
</g>
<!-- GDPdissoc_intermediate_p&#45;&gt;GDP_C -->
<g id="edge49" class="edge"><title>GDPdissoc_intermediate_p&#45;&gt;GDP_C</title>
<path fill="none" stroke="black" d="M790.059,-188.362C791.589,-188.772 822.316,-197.016 845.696,-203.288"/>
<polygon fill="black" stroke="black" points="844.909,-206.701 855.474,-205.912 846.722,-199.94 844.909,-206.701"/>
</g>
<!-- GDPdissoc_intermediate_p&#45;&gt;G_M -->
<g id="edge50" class="edge"><title>GDPdissoc_intermediate_p&#45;&gt;G_M</title>
<path fill="none" stroke="black" d="M790.059,-188.322C791.462,-187.775 817.424,-177.644 839.753,-168.93"/>
<polygon fill="black" stroke="black" points="841.292,-172.086 849.335,-165.19 838.747,-165.565 841.292,-172.086"/>
</g>
<!-- PIP2_5Pase -->
<g id="node58" class="node"><title>PIP2_5Pase</title>
<polygon fill="none" stroke="black" points="201,-422.346 187,-422.346 187,-408.346 201,-408.346 201,-422.346"/>
</g>
<!-- PIP2_5Pase_intermediate_p -->
<g id="node60" class="node"><title>PIP2_5Pase_intermediate_p</title>
<ellipse fill="black" stroke="black" cx="273" cy="-410.346" rx="0.036" ry="0.036"/>
</g>
<!-- PIP2_5Pase&#45;&gt;PIP2_5Pase_intermediate_p -->
<g id="edge55" class="edge"><title>PIP2_5Pase&#45;&gt;PIP2_5Pase_intermediate_p</title>
<path fill="none" stroke="black" d="M201.042,-414.953C218.627,-413.811 268.733,-410.558 271.848,-410.356"/>
</g>
<!-- PIP2_5Pase_intermediate_r&#45;&gt;PIP2_5Pase -->
<g id="edge53" class="edge"><title>PIP2_5Pase_intermediate_r&#45;&gt;PIP2_5Pase</title>
<path fill="none" stroke="black" d="M116.056,-419.343C117.978,-419.243 169.002,-416.592 186.881,-415.664"/>
</g>
<!-- PIP2_5Pase_intermediate_p&#45;&gt;PIP_M -->
<g id="edge56" class="edge"><title>PIP2_5Pase_intermediate_p&#45;&gt;PIP_M</title>
<path fill="none" stroke="black" d="M274.062,-410.338C275.647,-410.133 307.498,-406.011 331.733,-402.874"/>
<polygon fill="black" stroke="black" points="332.401,-406.317 341.869,-401.563 331.503,-399.375 332.401,-406.317"/>
</g>
<!-- PLC -->
<g id="node61" class="node"><title>PLC</title>
<polygon fill="none" stroke="black" points="201,-501.346 187,-501.346 187,-487.346 201,-487.346 201,-501.346"/>
</g>
<!-- PLC_intermediate_p -->
<g id="node63" class="node"><title>PLC_intermediate_p</title>
<ellipse fill="black" stroke="black" cx="273" cy="-495.346" rx="0.036" ry="0.036"/>
</g>
<!-- PLC&#45;&gt;PLC_intermediate_p -->
<g id="edge59" class="edge"><title>PLC&#45;&gt;PLC_intermediate_p</title>
<path fill="none" stroke="black" d="M201.042,-494.424C218.627,-494.653 268.733,-495.303 271.848,-495.344"/>
</g>
<!-- PLC_intermediate_r&#45;&gt;PLC -->
<g id="edge57" class="edge"><title>PLC_intermediate_r&#45;&gt;PLC</title>
<path fill="none" stroke="black" d="M116.056,-492.347C117.978,-492.397 169.002,-493.722 186.881,-494.187"/>
</g>
<!-- PLC_intermediate_p&#45;&gt;ip3_C -->
<g id="edge60" class="edge"><title>PLC_intermediate_p&#45;&gt;ip3_C</title>
<path fill="none" stroke="black" d="M274.062,-495.346C275.647,-495.365 307.498,-495.74 331.733,-496.025"/>
<polygon fill="black" stroke="black" points="331.829,-499.526 341.869,-496.144 331.911,-492.527 331.829,-499.526"/>
</g>
<!-- AlF4on -->
<g id="node64" class="node"><title>AlF4on</title>
<polygon fill="none" stroke="black" points="723,-109.346 709,-109.346 709,-95.3457 723,-95.3457 723,-109.346"/>
</g>
<!-- AlF4on_intermediate_p -->
<g id="node66" class="node"><title>AlF4on_intermediate_p</title>
<ellipse fill="black" stroke="black" cx="789" cy="-102.346" rx="0.036" ry="0.036"/>
</g>
<!-- AlF4on&#45;&gt;AlF4on_intermediate_p -->
<g id="edge64" class="edge"><title>AlF4on&#45;&gt;AlF4on_intermediate_p</title>
<path fill="none" stroke="black" d="M723.053,-102.346C739.687,-102.346 785.044,-102.346 787.862,-102.346"/>
</g>
<!-- AlF4on_intermediate_r&#45;&gt;AlF4on -->
<g id="edge61" class="edge"><title>AlF4on_intermediate_r&#45;&gt;AlF4on</title>
<path fill="none" stroke="black" d="M618.07,-106.343C620.549,-106.241 687.85,-103.465 708.822,-102.6"/>
</g>
<!-- AlF4on_intermediate_p&#45;&gt;GGDPAlF4_M -->
<g id="edge65" class="edge"><title>AlF4on_intermediate_p&#45;&gt;GGDPAlF4_M</title>
<path fill="none" stroke="black" d="M790.059,-102.346C790.957,-102.346 801.913,-102.346 815.538,-102.346"/>
<polygon fill="black" stroke="black" points="815.825,-105.846 825.825,-102.346 815.825,-98.8458 815.825,-105.846"/>
</g>
<!-- PI4Kinase -->
<g id="node67" class="node"><title>PI4Kinase</title>
<polygon fill="none" stroke="black" points="201,-390.346 187,-390.346 187,-376.346 201,-376.346 201,-390.346"/>
</g>
<!-- PI4Kinase_intermediate_p -->
<g id="node69" class="node"><title>PI4Kinase_intermediate_p</title>
<ellipse fill="black" stroke="black" cx="273" cy="-387.346" rx="0.036" ry="0.036"/>
</g>
<!-- PI4Kinase&#45;&gt;PI4Kinase_intermediate_p -->
<g id="edge69" class="edge"><title>PI4Kinase&#45;&gt;PI4Kinase_intermediate_p</title>
<path fill="none" stroke="black" d="M201.042,-383.66C218.627,-384.573 268.733,-387.176 271.848,-387.338"/>
</g>
<!-- PI4Kinase_intermediate_r&#45;&gt;PI4Kinase -->
<g id="edge66" class="edge"><title>PI4Kinase_intermediate_r&#45;&gt;PI4Kinase</title>
<path fill="none" stroke="black" d="M116.056,-383.346C117.978,-383.346 169.002,-383.346 186.881,-383.346"/>
</g>
<!-- PI4Kinase_intermediate_p&#45;&gt;PIP_M -->
<g id="edge70" class="edge"><title>PI4Kinase_intermediate_p&#45;&gt;PIP_M</title>
<path fill="none" stroke="black" d="M274.062,-387.354C275.647,-387.578 307.498,-392.075 331.733,-395.496"/>
<polygon fill="black" stroke="black" points="331.478,-398.995 341.869,-396.927 332.457,-392.064 331.478,-398.995"/>
</g>
<!-- MgonGDPAlF4 -->
<g id="node70" class="node"><title>MgonGDPAlF4</title>
<polygon fill="none" stroke="black" points="1019,-173.346 1005,-173.346 1005,-159.346 1019,-159.346 1019,-173.346"/>
</g>
<!-- MgonGDPAlF4_intermediate_p -->
<g id="node72" class="node"><title>MgonGDPAlF4_intermediate_p</title>
<ellipse fill="black" stroke="black" cx="1067" cy="-165.346" rx="0.036" ry="0.036"/>
</g>
<!-- MgonGDPAlF4&#45;&gt;MgonGDPAlF4_intermediate_p -->
<g id="edge73" class="edge"><title>MgonGDPAlF4&#45;&gt;MgonGDPAlF4_intermediate_p</title>
<path fill="none" stroke="black" d="M1019.08,-166.231C1032.57,-165.976 1063.96,-165.384 1065.9,-165.347"/>
</g>
<!-- MgonGDPAlF4&#45;&gt;MgonGDPAlF4_intermediate_m -->
<g id="edge75" class="edge"><title>MgonGDPAlF4&#45;&gt;MgonGDPAlF4_intermediate_m</title>
<path fill="none" stroke="black" d="M1018.28,-173.413C1031.26,-190.81 1063.88,-234.5 1065.9,-237.213"/>
</g>
<!-- MgonGDPAlF4_intermediate_r&#45;&gt;MgonGDPAlF4 -->
<g id="edge71" class="edge"><title>MgonGDPAlF4_intermediate_r&#45;&gt;MgonGDPAlF4</title>
<path fill="none" stroke="black" d="M958.152,-159.366C960.581,-159.687 991.47,-163.766 1004.87,-165.536"/>
</g>
<!-- MgonGDPAlF4_intermediate_p&#45;&gt;GGDPAlF4Mg_M -->
<g id="edge74" class="edge"><title>MgonGDPAlF4_intermediate_p&#45;&gt;GGDPAlF4Mg_M</title>
<path fill="none" stroke="black" d="M1068.07,-165.346C1069.02,-165.346 1080.2,-165.346 1094.41,-165.346"/>
<polygon fill="black" stroke="black" points="1094.64,-168.846 1104.64,-165.346 1094.64,-161.846 1094.64,-168.846"/>
</g>
</g>
</svg>
