<?xml version="1.0" encoding="UTF-8" standalone="no"?>
<!DOCTYPE svg PUBLIC "-//W3C//DTD SVG 1.1//EN"
 "http://www.w3.org/Graphics/SVG/1.1/DTD/svg11.dtd">
<!-- Generated by graphviz version 2.24.0 (20090616.2323)
 -->
<!-- Title: G Pages: 1 -->
<svg width="1284pt" height="355pt"
 viewBox="0.00 0.00 1284.00 355.45" xmlns="http://www.w3.org/2000/svg" xmlns:xlink="http://www.w3.org/1999/xlink">
<g id="graph1" class="graph" transform="scale(1 1) rotate(0) translate(4 351.448)">
<title>G</title>
<polygon fill="white" stroke="white" points="-4,5 -4,-351.448 1281,-351.448 1281,5 -4,5"/>
<!-- EC -->
<g id="node1" class="node"><title>EC</title>
<ellipse fill="none" stroke="black" cx="165" cy="-329.448" rx="75.1016" ry="18"/>
<text text-anchor="middle" x="165" y="-326.948" font-family="Times Roman,serif" font-size="10.00">Extracellular Calcium</text>
</g>
<!-- vin_intermediate_r -->
<g id="node7" class="node"><title>vin_intermediate_r</title>
<ellipse fill="black" stroke="black" cx="277" cy="-294.448" rx="0.036" ry="0.036"/>
</g>
<!-- EC&#45;&gt;vin_intermediate_r -->
<g id="edge4" class="edge"><title>EC&#45;&gt;vin_intermediate_r</title>
<path fill="none" stroke="black" d="M210.878,-315.111C240.842,-305.747 274.805,-295.134 276.898,-294.479"/>
</g>
<!-- Z -->
<g id="node2" class="node"><title>Z</title>
<ellipse fill="none" stroke="black" cx="541" cy="-242.448" rx="64.1356" ry="18"/>
<text text-anchor="middle" x="541" y="-239.948" font-family="Times Roman,serif" font-size="10.00">Cytosolic Calcium</text>
</g>
<!-- R2_intermediate_r -->
<g id="node14" class="node"><title>R2_intermediate_r</title>
<ellipse fill="black" stroke="black" cx="669" cy="-242.448" rx="0.036" ry="0.036"/>
</g>
<!-- Z&#45;&gt;R2_intermediate_r -->
<g id="edge12" class="edge"><title>Z&#45;&gt;R2_intermediate_r</title>
<path fill="none" stroke="black" d="M605.75,-242.448C636.506,-242.448 667.031,-242.448 668.909,-242.448"/>
</g>
<!-- Rkz_intermediate_r -->
<g id="node38" class="node"><title>Rkz_intermediate_r</title>
<ellipse fill="black" stroke="black" cx="669" cy="-267.448" rx="0.036" ry="0.036"/>
</g>
<!-- Z&#45;&gt;Rkz_intermediate_r -->
<g id="edge40" class="edge"><title>Z&#45;&gt;Rkz_intermediate_r</title>
<path fill="none" stroke="black" d="M594.172,-252.833C628.24,-259.487 666.526,-266.964 668.885,-267.425"/>
</g>
<!-- R5_intermediate_m -->
<g id="node56" class="node"><title>R5_intermediate_m</title>
<ellipse fill="black" stroke="black" cx="669" cy="-183.448" rx="0.036" ry="0.036"/>
</g>
<!-- Z&#45;&gt;R5_intermediate_m -->
<g id="edge60" class="edge"><title>Z&#45;&gt;R5_intermediate_m</title>
<path fill="none" stroke="black" d="M574.63,-226.946C611.37,-210.012 665.49,-185.065 668.837,-183.523"/>
</g>
<!-- R7_intermediate_m -->
<g id="node71" class="node"><title>R7_intermediate_m</title>
<ellipse fill="black" stroke="black" cx="669" cy="-165.448" rx="0.036" ry="0.036"/>
</g>
<!-- Z&#45;&gt;R7_intermediate_m -->
<g id="edge76" class="edge"><title>Z&#45;&gt;R7_intermediate_m</title>
<path fill="none" stroke="black" d="M562.799,-225.215C582.571,-210.224 612.979,-188.723 642,-174.448 652.996,-169.039 668.026,-165.663 668.955,-165.458"/>
</g>
<!-- A -->
<g id="node3" class="node"><title>A</title>
<ellipse fill="none" stroke="black" cx="332" cy="-85.4476" rx="18" ry="18"/>
<text text-anchor="middle" x="332" y="-82.9476" font-family="Times Roman,serif" font-size="10.00">IP3</text>
</g>
<!-- R3_intermediate_m -->
<g id="node27" class="node"><title>R3_intermediate_m</title>
<ellipse fill="black" stroke="black" cx="1276" cy="-113.448" rx="0.036" ry="0.036"/>
</g>
<!-- A&#45;&gt;R3_intermediate_m -->
<g id="edge28" class="edge"><title>A&#45;&gt;R3_intermediate_m</title>
<path fill="none" stroke="black" d="M340.862,-69.5466C350.072,-54.6786 365.94,-33.2009 386,-22.4476 447.17,10.3427 471.595,-3.44758 541,-3.44758 541,-3.44758 541,-3.44758 1163,-3.44758 1231.99,-3.44758 1274.65,-110.037 1275.97,-113.368"/>
</g>
<!-- R5_intermediate_r -->
<g id="node51" class="node"><title>R5_intermediate_r</title>
<ellipse fill="black" stroke="black" cx="413" cy="-120.448" rx="0.036" ry="0.036"/>
</g>
<!-- A&#45;&gt;R5_intermediate_r -->
<g id="edge54" class="edge"><title>A&#45;&gt;R5_intermediate_r</title>
<path fill="none" stroke="black" d="M348.783,-92.6996C371.767,-102.631 410.486,-119.361 412.883,-120.397"/>
</g>
<!-- R6_intermediate_r -->
<g id="node60" class="node"><title>R6_intermediate_r</title>
<ellipse fill="black" stroke="black" cx="413" cy="-85.4476" rx="0.036" ry="0.036"/>
</g>
<!-- A&#45;&gt;R6_intermediate_r -->
<g id="edge64" class="edge"><title>A&#45;&gt;R6_intermediate_r</title>
<path fill="none" stroke="black" d="M350.38,-85.4476C373.532,-85.4476 410.594,-85.4476 412.888,-85.4476"/>
</g>
<!-- Y -->
<g id="node4" class="node"><title>Y</title>
<ellipse fill="none" stroke="black" cx="1022" cy="-253.448" rx="78.1796" ry="18"/>
<text text-anchor="middle" x="1022" y="-250.948" font-family="Times Roman,serif" font-size="10.00">Intravesicular Calcium</text>
</g>
<!-- R3_intermediate_r -->
<g id="node21" class="node"><title>R3_intermediate_r</title>
<ellipse fill="black" stroke="black" cx="1163" cy="-247.448" rx="0.036" ry="0.036"/>
</g>
<!-- Y&#45;&gt;R3_intermediate_r -->
<g id="edge20" class="edge"><title>Y&#45;&gt;R3_intermediate_r</title>
<path fill="none" stroke="black" d="M1099.1,-250.167C1130.99,-248.81 1161.06,-247.53 1162.91,-247.451"/>
</g>
<!-- Rkf_intermediate_r -->
<g id="node31" class="node"><title>Rkf_intermediate_r</title>
<ellipse fill="black" stroke="black" cx="1163" cy="-269.448" rx="0.036" ry="0.036"/>
</g>
<!-- Y&#45;&gt;Rkf_intermediate_r -->
<g id="edge32" class="edge"><title>Y&#45;&gt;Rkf_intermediate_r</title>
<path fill="none" stroke="black" d="M1092.09,-261.401C1126.37,-265.291 1160.78,-269.196 1162.9,-269.436"/>
</g>
<!-- GP -->
<g id="node5" class="node"><title>GP</title>
<polyline fill="none" stroke="black" points="858,-67.4476 744,-67.4476 "/>
<path fill="none" stroke="black" d="M744,-67.4476C738,-67.4476 732,-61.4476 732,-55.4476"/>
<polyline fill="none" stroke="black" points="732,-55.4476 732,-43.4476 "/>
<path fill="none" stroke="black" d="M732,-43.4476C732,-37.4476 738,-31.4476 744,-31.4476"/>
<polyline fill="none" stroke="black" points="744,-31.4476 858,-31.4476 "/>
<path fill="none" stroke="black" d="M858,-31.4476C864,-31.4476 870,-37.4476 870,-43.4476"/>
<polyline fill="none" stroke="black" points="870,-43.4476 870,-55.4476 "/>
<path fill="none" stroke="black" d="M870,-55.4476C870,-61.4476 864,-67.4476 858,-67.4476"/>
<text text-anchor="middle" x="801" y="-46.9476" font-family="Times Roman,serif" font-size="10.00">Glycogen Phosphorylase</text>
</g>
<!-- R8_intermediate_r -->
<g id="node75" class="node"><title>R8_intermediate_r</title>
<ellipse fill="black" stroke="black" cx="907" cy="-49.4476" rx="0.036" ry="0.036"/>
</g>
<!-- GP&#45;&gt;R8_intermediate_r -->
<g id="edge80" class="edge"><title>GP&#45;&gt;R8_intermediate_r</title>
<path fill="none" stroke="black" d="M870.224,-49.4476C889.708,-49.4476 905.955,-49.4476 906.952,-49.4476"/>
</g>
<!-- vin -->
<g id="node6" class="node"><title>vin</title>
<polygon fill="none" stroke="black" points="339,-284.448 325,-284.448 325,-270.448 339,-270.448 339,-284.448"/>
</g>
<!-- vin_intermediate_p -->
<g id="node10" class="node"><title>vin_intermediate_p</title>
<ellipse fill="black" stroke="black" cx="413" cy="-260.448" rx="0.036" ry="0.036"/>
</g>
<!-- vin&#45;&gt;vin_intermediate_p -->
<g id="edge6" class="edge"><title>vin&#45;&gt;vin_intermediate_p</title>
<path fill="none" stroke="black" d="M339.188,-275.939C358.392,-271.908 409.659,-261.149 412.845,-260.48"/>
</g>
<!-- vin_intermediate_r&#45;&gt;vin -->
<g id="edge2" class="edge"><title>vin_intermediate_r&#45;&gt;vin</title>
<path fill="none" stroke="black" d="M277.158,-294.399C279.628,-293.635 310.463,-284.104 324.781,-279.679"/>
</g>
<!-- vin_intermediate_p&#45;&gt;Z -->
<g id="edge8" class="edge"><title>vin_intermediate_p&#45;&gt;Z</title>
<path fill="none" stroke="black" d="M413.093,-260.435C414.922,-260.177 443.524,-256.155 473.216,-251.98"/>
<polygon fill="black" stroke="black" points="473.875,-255.422 483.29,-250.563 472.9,-248.49 473.875,-255.422"/>
</g>
<!-- R2 -->
<g id="node13" class="node"><title>R2</title>
<polygon fill="none" stroke="black" points="808,-249.448 794,-249.448 794,-235.448 808,-235.448 808,-249.448"/>
</g>
<!-- R2_intermediate_p -->
<g id="node17" class="node"><title>R2_intermediate_p</title>
<ellipse fill="black" stroke="black" cx="907" cy="-247.448" rx="0.036" ry="0.036"/>
</g>
<!-- R2&#45;&gt;R2_intermediate_p -->
<g id="edge14" class="edge"><title>R2&#45;&gt;R2_intermediate_p</title>
<path fill="none" stroke="black" d="M808.286,-242.791C831.86,-243.903 904.676,-247.338 906.946,-247.445"/>
</g>
<!-- R2_intermediate_r&#45;&gt;R2 -->
<g id="edge10" class="edge"><title>R2_intermediate_r&#45;&gt;R2</title>
<path fill="none" stroke="black" d="M669.096,-242.448C672.515,-242.448 766.615,-242.448 793.745,-242.448"/>
</g>
<!-- R2_intermediate_p&#45;&gt;Y -->
<g id="edge16" class="edge"><title>R2_intermediate_p&#45;&gt;Y</title>
<path fill="none" stroke="black" d="M907.083,-247.452C908.182,-247.509 920.019,-248.127 935.711,-248.946"/>
<polygon fill="black" stroke="black" points="935.75,-252.452 945.919,-249.478 936.115,-245.462 935.75,-252.452"/>
</g>
<!-- R3 -->
<g id="node20" class="node"><title>R3</title>
<polygon fill="none" stroke="black" points="1240,-249.448 1226,-249.448 1226,-235.448 1240,-235.448 1240,-249.448"/>
</g>
<!-- R3_intermediate_p -->
<g id="node24" class="node"><title>R3_intermediate_p</title>
<ellipse fill="black" stroke="black" cx="1276" cy="-224.448" rx="0.036" ry="0.036"/>
</g>
<!-- R3&#45;&gt;R3_intermediate_p -->
<g id="edge22" class="edge"><title>R3&#45;&gt;R3_intermediate_p</title>
<path fill="none" stroke="black" d="M1240.1,-239.475C1251.93,-234.523 1274.53,-225.063 1275.93,-224.476"/>
</g>
<!-- R3&#45;&gt;R3_intermediate_m -->
<g id="edge26" class="edge"><title>R3&#45;&gt;R3_intermediate_m</title>
<path fill="none" stroke="black" d="M1239.24,-223.733C1250.95,-188.601 1275.13,-116.057 1275.98,-113.516"/>
<polygon fill="none" stroke="black" points="1239.23,-223.758 1241.13,-230.715 1235.44,-235.142 1233.54,-228.185 1239.23,-223.758"/>
</g>
<!-- R3_intermediate_r&#45;&gt;R3 -->
<g id="edge18" class="edge"><title>R3_intermediate_r&#45;&gt;R3</title>
<path fill="none" stroke="black" d="M1163.05,-247.444C1164.75,-247.323 1208.58,-244.192 1225.98,-242.949"/>
</g>
<!-- R3_intermediate_p&#45;&gt;Z -->
<g id="edge24" class="edge"><title>R3_intermediate_p&#45;&gt;Z</title>
<path fill="none" stroke="black" d="M1275.95,-224.435C1274.06,-223.92 1212.99,-207.448 1163,-207.448 907,-207.448 907,-207.448 907,-207.448 801.989,-207.448 680.798,-221.901 607.587,-232.232"/>
<polygon fill="black" stroke="black" points="606.987,-228.782 597.582,-233.661 607.977,-235.712 606.987,-228.782"/>
</g>
<!-- Rkf -->
<g id="node30" class="node"><title>Rkf</title>
<polygon fill="none" stroke="black" points="1240,-281.448 1226,-281.448 1226,-267.448 1240,-267.448 1240,-281.448"/>
</g>
<!-- Rkf_intermediate_p -->
<g id="node34" class="node"><title>Rkf_intermediate_p</title>
<ellipse fill="black" stroke="black" cx="1276" cy="-291.448" rx="0.036" ry="0.036"/>
</g>
<!-- Rkf&#45;&gt;Rkf_intermediate_p -->
<g id="edge34" class="edge"><title>Rkf&#45;&gt;Rkf_intermediate_p</title>
<path fill="none" stroke="black" d="M1240.1,-277.255C1251.93,-281.932 1274.53,-290.867 1275.93,-291.421"/>
</g>
<!-- Rkf_intermediate_r&#45;&gt;Rkf -->
<g id="edge30" class="edge"><title>Rkf_intermediate_r&#45;&gt;Rkf</title>
<path fill="none" stroke="black" d="M1163.05,-269.451C1164.75,-269.572 1208.58,-272.703 1225.98,-273.946"/>
</g>
<!-- Rkf_intermediate_p&#45;&gt;Z -->
<g id="edge36" class="edge"><title>Rkf_intermediate_p&#45;&gt;Z</title>
<path fill="none" stroke="black" d="M1275.95,-291.461C1274.06,-292.006 1213.06,-309.448 1163,-309.448 801,-309.448 801,-309.448 801,-309.448 723.49,-309.448 636.976,-281.18 585.858,-261.367"/>
<polygon fill="black" stroke="black" points="587.014,-258.06 576.427,-257.651 584.448,-264.573 587.014,-258.06"/>
</g>
<!-- Rkz -->
<g id="node37" class="node"><title>Rkz</title>
<polygon fill="none" stroke="black" points="808,-281.448 794,-281.448 794,-267.448 808,-267.448 808,-281.448"/>
</g>
<!-- Rkz_intermediate_p -->
<g id="node41" class="node"><title>Rkz_intermediate_p</title>
<ellipse fill="black" stroke="black" cx="907" cy="-342.448" rx="0.036" ry="0.036"/>
</g>
<!-- Rkz&#45;&gt;Rkz_intermediate_p -->
<g id="edge42" class="edge"><title>Rkz&#45;&gt;Rkz_intermediate_p</title>
<path fill="none" stroke="black" d="M808.286,-279.121C831.86,-294.245 904.676,-340.957 906.946,-342.413"/>
</g>
<!-- Rkz_intermediate_r&#45;&gt;Rkz -->
<g id="edge38" class="edge"><title>Rkz_intermediate_r&#45;&gt;Rkz</title>
<path fill="none" stroke="black" d="M669.096,-267.453C672.515,-267.634 766.615,-272.624 793.745,-274.063"/>
</g>
<!-- Rkz_intermediate_p&#45;&gt;EC -->
<g id="edge44" class="edge"><title>Rkz_intermediate_p&#45;&gt;EC</title>
<path fill="none" stroke="black" d="M906.904,-342.451C902.875,-342.603 773.148,-347.448 669,-347.448 332,-347.448 332,-347.448 332,-347.448 301.089,-347.448 267.144,-344.361 237.977,-340.745"/>
<polygon fill="black" stroke="black" points="238.237,-337.25 227.872,-339.448 237.345,-344.193 238.237,-337.25"/>
</g>
<!-- R4 -->
<g id="node44" class="node"><title>R4</title>
<polygon fill="none" stroke="black" points="172,-92.4476 158,-92.4476 158,-78.4476 172,-78.4476 172,-92.4476"/>
</g>
<!-- R4_intermediate_p -->
<g id="node47" class="node"><title>R4_intermediate_p</title>
<ellipse fill="black" stroke="black" cx="277" cy="-85.4476" rx="0.036" ry="0.036"/>
</g>
<!-- R4&#45;&gt;R4_intermediate_p -->
<g id="edge48" class="edge"><title>R4&#45;&gt;R4_intermediate_p</title>
<path fill="none" stroke="black" d="M172.006,-85.4476C196.143,-85.4476 274.499,-85.4476 276.942,-85.4476"/>
</g>
<!-- R4_empty -->
<g id="node45" class="node"><title>R4_empty</title>
<text text-anchor="middle" x="27" y="-80.9476" font-family="Times Roman,serif" font-size="15.00" fill="blue">Ø</text>
</g>
<!-- R4_empty&#45;&gt;R4 -->
<g id="edge46" class="edge"><title>R4_empty&#45;&gt;R4</title>
<path fill="none" stroke="black" d="M54.2644,-85.4476C86.7839,-85.4476 139.115,-85.4476 157.956,-85.4476"/>
</g>
<!-- R4_intermediate_p&#45;&gt;A -->
<g id="edge50" class="edge"><title>R4_intermediate_p&#45;&gt;A</title>
<path fill="none" stroke="black" d="M277.158,-85.4476C278.674,-85.4476 290.878,-85.4476 303.389,-85.4476"/>
<polygon fill="black" stroke="black" points="303.743,-88.9477 313.743,-85.4476 303.743,-81.9477 303.743,-88.9477"/>
</g>
<!-- R5 -->
<g id="node50" class="node"><title>R5</title>
<polygon fill="none" stroke="black" points="548,-136.448 534,-136.448 534,-122.448 548,-122.448 548,-136.448"/>
</g>
<!-- R5_empty -->
<g id="node54" class="node"><title>R5_empty</title>
<text text-anchor="middle" x="669" y="-124.948" font-family="Times Roman,serif" font-size="15.00" fill="blue">Ø</text>
</g>
<!-- R5&#45;&gt;R5_empty -->
<g id="edge56" class="edge"><title>R5&#45;&gt;R5_empty</title>
<path fill="none" stroke="black" d="M548.249,-129.448C563.98,-129.448 602.192,-129.448 631.452,-129.448"/>
<polygon fill="black" stroke="black" points="631.769,-132.948 641.769,-129.448 631.769,-125.948 631.769,-132.948"/>
</g>
<!-- R5&#45;&gt;R5_intermediate_m -->
<g id="edge58" class="edge"><title>R5&#45;&gt;R5_intermediate_m</title>
<path fill="none" stroke="black" d="M559.078,-138.144C579.115,-147.63 612.502,-162.991 642,-174.448 653.423,-178.884 668.053,-183.171 668.956,-183.435"/>
<polygon fill="none" stroke="black" points="559.075,-138.142 551.937,-139.166 548.247,-132.97 555.385,-131.947 559.075,-138.142"/>
</g>
<!-- R5_intermediate_r&#45;&gt;R5 -->
<g id="edge52" class="edge"><title>R5_intermediate_r&#45;&gt;R5</title>
<path fill="none" stroke="black" d="M413.093,-120.454C416.409,-120.687 507.657,-127.103 533.964,-128.953"/>
</g>
<!-- R6 -->
<g id="node59" class="node"><title>R6</title>
<polygon fill="none" stroke="black" points="548,-90.4476 534,-90.4476 534,-76.4476 548,-76.4476 548,-90.4476"/>
</g>
<!-- R6_empty -->
<g id="node63" class="node"><title>R6_empty</title>
<text text-anchor="middle" x="669" y="-70.9476" font-family="Times Roman,serif" font-size="15.00" fill="blue">Ø</text>
</g>
<!-- R6&#45;&gt;R6_empty -->
<g id="edge66" class="edge"><title>R6&#45;&gt;R6_empty</title>
<path fill="none" stroke="black" d="M548.249,-82.9945C563.98,-82.0113 602.192,-79.6231 631.452,-77.7943"/>
<polygon fill="black" stroke="black" points="632.007,-81.2666 641.769,-77.1495 631.57,-74.2802 632.007,-81.2666"/>
</g>
<!-- R6_intermediate_r&#45;&gt;R6 -->
<g id="edge62" class="edge"><title>R6_intermediate_r&#45;&gt;R6</title>
<path fill="none" stroke="black" d="M413.093,-85.4461C416.409,-85.3943 507.657,-83.9686 533.964,-83.5575"/>
</g>
<!-- R7 -->
<g id="node65" class="node"><title>R7</title>
<polygon fill="none" stroke="black" points="548,-56.4476 534,-56.4476 534,-42.4476 548,-42.4476 548,-56.4476"/>
</g>
<!-- R7_intermediate_p -->
<g id="node68" class="node"><title>R7_intermediate_p</title>
<ellipse fill="black" stroke="black" cx="669" cy="-39.4476" rx="0.036" ry="0.036"/>
</g>
<!-- R7&#45;&gt;R7_intermediate_p -->
<g id="edge70" class="edge"><title>R7&#45;&gt;R7_intermediate_p</title>
<path fill="none" stroke="black" d="M548.249,-48.8813C574.903,-46.7989 666.089,-39.675 668.932,-39.4529"/>
</g>
<!-- R7&#45;&gt;R7_intermediate_m -->
<g id="edge74" class="edge"><title>R7&#45;&gt;R7_intermediate_m</title>
<path fill="none" stroke="black" d="M560.212,-50.3245C574.423,-51.9322 593.416,-56.2246 606,-67.4476 637.845,-95.8477 610.899,-127.235 642,-156.448 650.932,-164.837 667.897,-165.418 668.949,-165.446"/>
<polygon fill="none" stroke="black" points="559.98,-50.308 553.71,-53.871 548.01,-49.4543 554.28,-45.8913 559.98,-50.308"/>
</g>
<!-- R7_empty -->
<g id="node66" class="node"><title>R7_empty</title>
<text text-anchor="middle" x="413" y="-44.9476" font-family="Times Roman,serif" font-size="15.00" fill="blue">Ø</text>
</g>
<!-- R7_empty&#45;&gt;R7 -->
<g id="edge68" class="edge"><title>R7_empty&#45;&gt;R7</title>
<path fill="none" stroke="black" d="M440.146,-49.4476C470.087,-49.4476 516.353,-49.4476 533.913,-49.4476"/>
</g>
<!-- R7_intermediate_p&#45;&gt;GP -->
<g id="edge72" class="edge"><title>R7_intermediate_p&#45;&gt;GP</title>
<path fill="none" stroke="black" d="M669.096,-39.4548C670.792,-39.5834 694.811,-41.403 721.897,-43.455"/>
<polygon fill="black" stroke="black" points="721.744,-46.9533 731.98,-44.2188 722.273,-39.9733 721.744,-46.9533"/>
</g>
<!-- R8 -->
<g id="node74" class="node"><title>R8</title>
<polygon fill="none" stroke="black" points="1029,-56.4476 1015,-56.4476 1015,-42.4476 1029,-42.4476 1029,-56.4476"/>
</g>
<!-- R8_empty -->
<g id="node78" class="node"><title>R8_empty</title>
<text text-anchor="middle" x="1163" y="-44.9476" font-family="Times Roman,serif" font-size="15.00" fill="blue">Ø</text>
</g>
<!-- R8&#45;&gt;R8_empty -->
<g id="edge82" class="edge"><title>R8&#45;&gt;R8_empty</title>
<path fill="none" stroke="black" d="M1029.19,-49.4476C1046.66,-49.4476 1092.35,-49.4476 1125.49,-49.4476"/>
<polygon fill="black" stroke="black" points="1125.76,-52.9477 1135.76,-49.4476 1125.76,-45.9477 1125.76,-52.9477"/>
</g>
<!-- R8_intermediate_r&#45;&gt;R8 -->
<g id="edge78" class="edge"><title>R8_intermediate_r&#45;&gt;R8</title>
<path fill="none" stroke="black" d="M907.083,-49.4476C910.022,-49.4476 989.812,-49.4476 1014.68,-49.4476"/>
</g>
</g>
</svg>
