<?xml version="1.0" encoding="UTF-8" standalone="no"?>
<!DOCTYPE svg PUBLIC "-//W3C//DTD SVG 1.1//EN"
 "http://www.w3.org/Graphics/SVG/1.1/DTD/svg11.dtd">
<!-- Generated by graphviz version 2.24.0 (20090616.2323)
 -->
<!-- Title: G Pages: 1 -->
<svg width="512pt" height="218pt"
 viewBox="0.00 0.00 512.00 218.00" xmlns="http://www.w3.org/2000/svg" xmlns:xlink="http://www.w3.org/1999/xlink">
<g id="graph1" class="graph" transform="scale(1 1) rotate(0) translate(4 214)">
<title>G</title>
<polygon fill="white" stroke="white" points="-4,5 -4,-214 509,-214 509,5 -4,5"/>
<!-- R -->
<g id="node1" class="node"><title>R</title>
<ellipse fill="none" stroke="black" cx="286" cy="-89" rx="18" ry="18"/>
<text text-anchor="middle" x="286" y="-86.5" font-family="Times Roman,serif" font-size="10.00">R</text>
</g>
<!-- r3_intermediate_r -->
<g id="node24" class="node"><title>r3_intermediate_r</title>
<ellipse fill="black" stroke="black" cx="341" cy="-89" rx="0.036" ry="0.036"/>
</g>
<!-- R&#45;&gt;r3_intermediate_r -->
<g id="edge24" class="edge"><title>R&#45;&gt;r3_intermediate_r</title>
<path fill="none" stroke="black" d="M304.009,-89C319.548,-89 339.695,-89 340.939,-89"/>
</g>
<!-- r4_intermediate_m -->
<g id="node36" class="node"><title>r4_intermediate_m</title>
<ellipse fill="black" stroke="black" cx="341" cy="-36" rx="0.036" ry="0.036"/>
</g>
<!-- R&#45;&gt;r4_intermediate_m -->
<g id="edge38" class="edge"><title>R&#45;&gt;r4_intermediate_m</title>
<path fill="none" stroke="black" d="M299.034,-76.4397C314.79,-61.2567 339.403,-37.5391 340.926,-36.0715"/>
</g>
<!-- S -->
<g id="node2" class="node"><title>S</title>
<ellipse fill="none" stroke="black" cx="167" cy="-46" rx="27" ry="18"/>
<text text-anchor="middle" x="167" y="-43.5" font-family="Times Roman,serif" font-size="10.00">S</text>
</g>
<!-- r2_intermediate_m -->
<g id="node20" class="node"><title>r2_intermediate_m</title>
<ellipse fill="black" stroke="black" cx="231" cy="-58" rx="0.036" ry="0.036"/>
</g>
<!-- S&#45;&gt;r2_intermediate_m -->
<g id="edge20" class="edge"><title>S&#45;&gt;r2_intermediate_m</title>
<path fill="none" stroke="black" d="M193.031,-50.8809C210.196,-54.0993 229.737,-57.7632 230.941,-57.989"/>
</g>
<!-- Ep -->
<g id="node3" class="node"><title>Ep</title>
<ellipse fill="none" stroke="black" cx="167" cy="-164" rx="18" ry="18"/>
<text text-anchor="middle" x="167" y="-161.5" font-family="Times Roman,serif" font-size="10.00">Ep</text>
</g>
<!-- r1_intermediate_m -->
<g id="node11" class="node"><title>r1_intermediate_m</title>
<ellipse fill="black" stroke="black" cx="231" cy="-139" rx="0.036" ry="0.036"/>
</g>
<!-- Ep&#45;&gt;r1_intermediate_m -->
<g id="edge10" class="edge"><title>Ep&#45;&gt;r1_intermediate_m</title>
<path fill="none" stroke="black" d="M183.815,-157.432C202.185,-150.256 229.245,-139.685 230.918,-139.032"/>
</g>
<!-- r5_intermediate_r -->
<g id="node40" class="node"><title>r5_intermediate_r</title>
<ellipse fill="black" stroke="black" cx="231" cy="-164" rx="0.036" ry="0.036"/>
</g>
<!-- Ep&#45;&gt;r5_intermediate_r -->
<g id="edge42" class="edge"><title>Ep&#45;&gt;r5_intermediate_r</title>
<path fill="none" stroke="black" d="M185.169,-164C203.499,-164 229.326,-164 230.922,-164"/>
</g>
<!-- E -->
<g id="node4" class="node"><title>E</title>
<ellipse fill="none" stroke="black" cx="396" cy="-164" rx="18" ry="18"/>
<text text-anchor="middle" x="396" y="-161.5" font-family="Times Roman,serif" font-size="10.00">E</text>
</g>
<!-- r4_intermediate_r -->
<g id="node30" class="node"><title>r4_intermediate_r</title>
<ellipse fill="black" stroke="black" cx="477" cy="-187" rx="0.036" ry="0.036"/>
</g>
<!-- E&#45;&gt;r4_intermediate_r -->
<g id="edge30" class="edge"><title>E&#45;&gt;r4_intermediate_r</title>
<path fill="none" stroke="black" d="M413.576,-168.991C436.654,-175.544 474.54,-186.302 476.886,-186.968"/>
</g>
<!-- r1 -->
<g id="node5" class="node"><title>r1</title>
<polygon fill="none" stroke="black" points="174,-128 160,-128 160,-114 174,-114 174,-128"/>
</g>
<!-- r1_intermediate_p -->
<g id="node8" class="node"><title>r1_intermediate_p</title>
<ellipse fill="black" stroke="black" cx="231" cy="-114" rx="0.036" ry="0.036"/>
</g>
<!-- r1&#45;&gt;r1_intermediate_p -->
<g id="edge4" class="edge"><title>r1&#45;&gt;r1_intermediate_p</title>
<path fill="none" stroke="black" d="M174.342,-120.197C190.627,-118.416 228.532,-114.27 230.885,-114.013"/>
</g>
<!-- r1&#45;&gt;r1_intermediate_m -->
<g id="edge8" class="edge"><title>r1&#45;&gt;r1_intermediate_m</title>
<path fill="none" stroke="black" d="M185.932,-126.325C204.077,-131.428 228.992,-138.435 230.885,-138.968"/>
<polygon fill="none" stroke="black" points="185.893,-126.314 179.035,-128.54 174.342,-123.065 181.201,-120.839 185.893,-126.314"/>
</g>
<!-- r1_empty -->
<g id="node6" class="node"><title>r1_empty</title>
<text text-anchor="middle" x="77" y="-119.5" font-family="Times Roman,serif" font-size="15.00" fill="blue">Ø</text>
</g>
<!-- r1_empty&#45;&gt;r1 -->
<g id="edge2" class="edge"><title>r1_empty&#45;&gt;r1</title>
<path fill="none" stroke="black" d="M104.003,-123.1C123.264,-122.458 147.792,-121.64 159.766,-121.241"/>
</g>
<!-- r1_intermediate_p&#45;&gt;R -->
<g id="edge6" class="edge"><title>r1_intermediate_p&#45;&gt;R</title>
<path fill="none" stroke="black" d="M231.158,-113.928C232.78,-113.191 246.642,-106.89 260.023,-100.808"/>
<polygon fill="black" stroke="black" points="261.843,-103.825 269.498,-96.5008 258.946,-97.4526 261.843,-103.825"/>
</g>
<!-- r2 -->
<g id="node14" class="node"><title>r2</title>
<polygon fill="none" stroke="black" points="174,-96 160,-96 160,-82 174,-82 174,-96"/>
</g>
<!-- r2_intermediate_p -->
<g id="node17" class="node"><title>r2_intermediate_p</title>
<ellipse fill="black" stroke="black" cx="231" cy="-89" rx="0.036" ry="0.036"/>
</g>
<!-- r2&#45;&gt;r2_intermediate_p -->
<g id="edge14" class="edge"><title>r2&#45;&gt;r2_intermediate_p</title>
<path fill="none" stroke="black" d="M174.342,-89C190.627,-89 228.532,-89 230.885,-89"/>
</g>
<!-- r2&#45;&gt;r2_intermediate_m -->
<g id="edge18" class="edge"><title>r2&#45;&gt;r2_intermediate_m</title>
<path fill="none" stroke="black" d="M185.144,-80.2117C203.347,-71.3945 228.964,-58.9862 230.885,-58.0556"/>
<polygon fill="none" stroke="black" points="185.141,-80.2127 181.485,-86.4282 174.342,-85.4439 177.998,-79.2284 185.141,-80.2127"/>
</g>
<!-- r2_empty -->
<g id="node15" class="node"><title>r2_empty</title>
<text text-anchor="middle" x="77" y="-65.5" font-family="Times Roman,serif" font-size="15.00" fill="blue">Ø</text>
</g>
<!-- r2_empty&#45;&gt;r2 -->
<g id="edge12" class="edge"><title>r2_empty&#45;&gt;r2</title>
<path fill="none" stroke="black" d="M104.003,-75.7006C123.264,-79.7669 147.792,-84.945 159.766,-87.4728"/>
</g>
<!-- r2_intermediate_p&#45;&gt;R -->
<g id="edge16" class="edge"><title>r2_intermediate_p&#45;&gt;R</title>
<path fill="none" stroke="black" d="M231.158,-89C232.674,-89 244.878,-89 257.389,-89"/>
<polygon fill="black" stroke="black" points="257.743,-92.5001 267.743,-89 257.743,-85.5001 257.743,-92.5001"/>
</g>
<!-- r3 -->
<g id="node23" class="node"><title>r3</title>
<polygon fill="none" stroke="black" points="403,-96 389,-96 389,-82 403,-82 403,-96"/>
</g>
<!-- r3_empty -->
<g id="node27" class="node"><title>r3_empty</title>
<text text-anchor="middle" x="477" y="-84.5" font-family="Times Roman,serif" font-size="15.00" fill="blue">Ø</text>
</g>
<!-- r3&#45;&gt;r3_empty -->
<g id="edge26" class="edge"><title>r3&#45;&gt;r3_empty</title>
<path fill="none" stroke="black" d="M403.188,-89C411.457,-89 425.67,-89 439.429,-89"/>
<polygon fill="black" stroke="black" points="439.757,-92.5001 449.757,-89 439.757,-85.5001 439.757,-92.5001"/>
</g>
<!-- r3_intermediate_r&#45;&gt;r3 -->
<g id="edge22" class="edge"><title>r3_intermediate_r&#45;&gt;r3</title>
<path fill="none" stroke="black" d="M341.158,-89C343.628,-89 374.463,-89 388.781,-89"/>
</g>
<!-- r4 -->
<g id="node29" class="node"><title>r4</title>
<polygon fill="none" stroke="black" points="14,-171 7.10543e-15,-171 8.88178e-16,-157 14,-157 14,-171"/>
</g>
<!-- r4_intermediate_p -->
<g id="node33" class="node"><title>r4_intermediate_p</title>
<ellipse fill="black" stroke="black" cx="77" cy="-164" rx="0.036" ry="0.036"/>
</g>
<!-- r4&#45;&gt;r4_intermediate_p -->
<g id="edge32" class="edge"><title>r4&#45;&gt;r4_intermediate_p</title>
<path fill="none" stroke="black" d="M14.2276,-164C31.5536,-164 74.2209,-164 76.8707,-164"/>
</g>
<!-- r4&#45;&gt;r4_intermediate_m -->
<g id="edge36" class="edge"><title>r4&#45;&gt;r4_intermediate_m</title>
<path fill="none" stroke="black" d="M8.81772,-144.641C12.2947,-118.256 22.2182,-71.0819 50,-43 88.9632,-3.6159 111.599,-3.55271e-15 167,-0 167,-0 167,-0 231,-0 281.637,-0 339.172,-34.8838 340.957,-35.9739"/>
<polygon fill="none" stroke="black" points="8.78095,-144.978 12.1052,-151.378 7.4768,-156.907 4.15256,-150.508 8.78095,-144.978"/>
</g>
<!-- r4_intermediate_r&#45;&gt;r4 -->
<g id="edge28" class="edge"><title>r4_intermediate_r&#45;&gt;r4</title>
<path fill="none" stroke="black" d="M476.946,-187.017C474.669,-187.713 401.345,-210 341,-210 167,-210 167,-210 167,-210 105.726,-210 36.2104,-178.454 14.1246,-167.61"/>
</g>
<!-- r4_intermediate_p&#45;&gt;Ep -->
<g id="edge34" class="edge"><title>r4_intermediate_p&#45;&gt;Ep</title>
<path fill="none" stroke="black" d="M77.0652,-164C78.7588,-164 113.076,-164 138.818,-164"/>
<polygon fill="black" stroke="black" points="138.862,-167.5 148.862,-164 138.862,-160.5 138.862,-167.5"/>
</g>
<!-- r5 -->
<g id="node39" class="node"><title>r5</title>
<polygon fill="none" stroke="black" points="293,-171 279,-171 279,-157 293,-157 293,-171"/>
</g>
<!-- r5_intermediate_p -->
<g id="node43" class="node"><title>r5_intermediate_p</title>
<ellipse fill="black" stroke="black" cx="341" cy="-164" rx="0.036" ry="0.036"/>
</g>
<!-- r5&#45;&gt;r5_intermediate_p -->
<g id="edge44" class="edge"><title>r5&#45;&gt;r5_intermediate_p</title>
<path fill="none" stroke="black" d="M293.19,-164C307.633,-164 338.961,-164 340.905,-164"/>
</g>
<!-- r5_intermediate_r&#45;&gt;r5 -->
<g id="edge40" class="edge"><title>r5_intermediate_r&#45;&gt;r5</title>
<path fill="none" stroke="black" d="M231.158,-164C233.628,-164 264.463,-164 278.781,-164"/>
</g>
<!-- r5_intermediate_p&#45;&gt;E -->
<g id="edge46" class="edge"><title>r5_intermediate_p&#45;&gt;E</title>
<path fill="none" stroke="black" d="M341.158,-164C342.674,-164 354.878,-164 367.389,-164"/>
<polygon fill="black" stroke="black" points="367.743,-167.5 377.743,-164 367.743,-160.5 367.743,-167.5"/>
</g>
</g>
</svg>
