<?xml version="1.0" encoding="utf-8"?>
<!-- Generator: Adobe Illustrator 14.0.0, SVG Export Plug-In . SVG Version: 6.00 Build 43363)  -->
<!DOCTYPE svg PUBLIC "-//W3C//DTD SVG 1.1//EN" "http://www.w3.org/Graphics/SVG/1.1/DTD/svg11.dtd">
<svg version="1.1" id="Layer_1" xmlns="http://www.w3.org/2000/svg" xmlns:xlink="http://www.w3.org/1999/xlink" x="0px" y="0px"
	 width="800px" height="800px" viewBox="0 0 800 800" enable-background="new 0 0 800 800" xml:space="preserve">
<g>
	<g>
		<g>
			
				<radialGradient id="path16609_13_" cx="353.4404" cy="-247.5557" r="16.1863" gradientTransform="matrix(2.0194 0 0 0.8081 -236.1954 493.1252)" gradientUnits="userSpaceOnUse">
				<stop  offset="0" style="stop-color:#A2FF5F"/>
				<stop  offset="0.4082" style="stop-color:#A0FF5F"/>
				<stop  offset="0.5552" style="stop-color:#99FD5F"/>
				<stop  offset="0.66" style="stop-color:#8EFB5E"/>
				<stop  offset="0.7448" style="stop-color:#7DF85E"/>
				<stop  offset="0.8174" style="stop-color:#67F35D"/>
				<stop  offset="0.8817" style="stop-color:#4BEE5C"/>
				<stop  offset="0.9398" style="stop-color:#2BE85B"/>
				<stop  offset="0.9915" style="stop-color:#07E05A"/>
				<stop  offset="1" style="stop-color:#00DF5A"/>
			</radialGradient>
			<path id="path16609_5_" fill="url(#path16609_13_)" stroke="#000000" d="M509.627,293.074c0,7.355-14.369,13.318-32.086,13.318
				c-17.719,0-32.084-5.961-32.084-13.318c0-7.355,14.365-13.314,32.084-13.314C495.258,279.761,509.627,285.718,509.627,293.074z"
				/>
			<text transform="matrix(1 0 0 1 463.6973 297.1855)" font-family="'MyriadPro-Regular'" font-size="14">MisP</text>
		</g>
		<g>
			
				<radialGradient id="path16609_14_" cx="402.2363" cy="-275.0859" r="16.1843" gradientTransform="matrix(0.715 0 0 0.6566 209.6966 487.3504)" gradientUnits="userSpaceOnUse">
				<stop  offset="0" style="stop-color:#A2FF5F"/>
				<stop  offset="0.4082" style="stop-color:#A0FF5F"/>
				<stop  offset="0.5552" style="stop-color:#99FD5F"/>
				<stop  offset="0.66" style="stop-color:#8EFB5E"/>
				<stop  offset="0.7448" style="stop-color:#7DF85E"/>
				<stop  offset="0.8174" style="stop-color:#67F35D"/>
				<stop  offset="0.8817" style="stop-color:#4BEE5C"/>
				<stop  offset="0.9398" style="stop-color:#2BE85B"/>
				<stop  offset="0.9915" style="stop-color:#07E05A"/>
				<stop  offset="1" style="stop-color:#00DF5A"/>
			</radialGradient>
			<path id="path16609_4_" fill="url(#path16609_14_)" stroke="#000000" d="M508.654,306.728c0,5.974-5.088,10.819-11.357,10.819
				c-6.273,0-11.361-4.842-11.361-10.819c0-5.977,5.088-10.818,11.361-10.818C503.566,295.911,508.654,300.752,508.654,306.728z"/>
			<text transform="matrix(1 0 0 1 488.7852 310.8369)" font-family="'MyriadPro-Regular'" font-size="14">Ub</text>
		</g>
		<g>
			
				<radialGradient id="path16609_15_" cx="402.2383" cy="-247.3174" r="16.1846" gradientTransform="matrix(0.715 0 0 0.6566 209.6966 487.3504)" gradientUnits="userSpaceOnUse">
				<stop  offset="0" style="stop-color:#A2FF5F"/>
				<stop  offset="0.4082" style="stop-color:#A0FF5F"/>
				<stop  offset="0.5552" style="stop-color:#99FD5F"/>
				<stop  offset="0.66" style="stop-color:#8EFB5E"/>
				<stop  offset="0.7448" style="stop-color:#7DF85E"/>
				<stop  offset="0.8174" style="stop-color:#67F35D"/>
				<stop  offset="0.8817" style="stop-color:#4BEE5C"/>
				<stop  offset="0.9398" style="stop-color:#2BE85B"/>
				<stop  offset="0.9915" style="stop-color:#07E05A"/>
				<stop  offset="1" style="stop-color:#00DF5A"/>
			</radialGradient>
			<path id="path16609_3_" fill="url(#path16609_15_)" stroke="#000000" d="M508.656,324.96c0,5.974-5.088,10.819-11.357,10.819
				c-6.275,0-11.361-4.842-11.361-10.819s5.086-10.817,11.361-10.817C503.568,314.143,508.656,318.985,508.656,324.96z"/>
			<text transform="matrix(1 0 0 1 488.7852 329.0693)" font-family="'MyriadPro-Regular'" font-size="14">Ub</text>
		</g>
	</g>
</g>
<g>
	
		<radialGradient id="path16609_16_" cx="252.958" cy="-192.1426" r="14.4143" gradientTransform="matrix(3.2467 0 0 1.2936 -477.5399 683.6394)" gradientUnits="userSpaceOnUse">
		<stop  offset="0" style="stop-color:#A2FF5F"/>
		<stop  offset="0.4082" style="stop-color:#A0FF5F"/>
		<stop  offset="0.5552" style="stop-color:#99FD5F"/>
		<stop  offset="0.66" style="stop-color:#8EFB5E"/>
		<stop  offset="0.7448" style="stop-color:#7DF85E"/>
		<stop  offset="0.8174" style="stop-color:#67F35D"/>
		<stop  offset="0.8817" style="stop-color:#4BEE5C"/>
		<stop  offset="0.9398" style="stop-color:#2BE85B"/>
		<stop  offset="0.9915" style="stop-color:#07E05A"/>
		<stop  offset="1" style="stop-color:#00DF5A"/>
	</radialGradient>
	<path id="path16609_12_" fill="url(#path16609_16_)" stroke="#000000" d="M389.678,435.081c0,10.485-20.573,18.985-45.939,18.985
		c-25.37,0-45.937-8.497-45.937-18.985c0-10.485,20.567-18.98,45.937-18.98C369.105,416.104,389.678,424.596,389.678,435.081z"/>
	<text transform="matrix(1 0 0 1 308.333 439.2656)" font-family="'MyriadPro-Regular'" font-size="14.2485">Proteasome</text>
</g>
<g>
	<g>
		<g>
			
				<radialGradient id="path16609_17_" cx="330.5439" cy="-312.2036" r="16.186" gradientTransform="matrix(2.0194 0 0 0.8081 -236.1954 493.1252)" gradientUnits="userSpaceOnUse">
				<stop  offset="0" style="stop-color:#A2FF5F"/>
				<stop  offset="0.4082" style="stop-color:#A0FF5F"/>
				<stop  offset="0.5552" style="stop-color:#99FD5F"/>
				<stop  offset="0.66" style="stop-color:#8EFB5E"/>
				<stop  offset="0.7448" style="stop-color:#7DF85E"/>
				<stop  offset="0.8174" style="stop-color:#67F35D"/>
				<stop  offset="0.8817" style="stop-color:#4BEE5C"/>
				<stop  offset="0.9398" style="stop-color:#2BE85B"/>
				<stop  offset="0.9915" style="stop-color:#07E05A"/>
				<stop  offset="1" style="stop-color:#00DF5A"/>
			</radialGradient>
			<path id="path16609_6_" fill="url(#path16609_17_)" stroke="#000000" d="M463.39,240.832c0,7.355-14.369,13.318-32.086,13.318
				c-17.718,0-32.083-5.961-32.083-13.318c0-7.355,14.366-13.314,32.083-13.314C449.021,227.519,463.39,233.476,463.39,240.832z"/>
			<text transform="matrix(1 0 0 1 417.459 244.9434)" font-family="'MyriadPro-Regular'" font-size="14">MisP</text>
		</g>
		<g>
			
				<radialGradient id="path16609_18_" cx="337.5684" cy="-354.6514" r="16.1846" gradientTransform="matrix(0.715 0 0 0.6566 209.6966 487.3504)" gradientUnits="userSpaceOnUse">
				<stop  offset="0" style="stop-color:#A2FF5F"/>
				<stop  offset="0.4082" style="stop-color:#A0FF5F"/>
				<stop  offset="0.5552" style="stop-color:#99FD5F"/>
				<stop  offset="0.66" style="stop-color:#8EFB5E"/>
				<stop  offset="0.7448" style="stop-color:#7DF85E"/>
				<stop  offset="0.8174" style="stop-color:#67F35D"/>
				<stop  offset="0.8817" style="stop-color:#4BEE5C"/>
				<stop  offset="0.9398" style="stop-color:#2BE85B"/>
				<stop  offset="0.9915" style="stop-color:#07E05A"/>
				<stop  offset="1" style="stop-color:#00DF5A"/>
			</radialGradient>
			<path id="path16609_2_" fill="url(#path16609_18_)" stroke="#000000" d="M462.417,254.486c0,5.973-5.088,10.819-11.357,10.819
				c-6.273,0-11.361-4.842-11.361-10.819s5.088-10.818,11.361-10.818C457.329,243.669,462.417,248.51,462.417,254.486z"/>
			<text transform="matrix(1 0 0 1 442.5479 258.5947)" font-family="'MyriadPro-Regular'" font-size="14">Ub</text>
		</g>
	</g>
</g>
<g>
	
		<radialGradient id="path16609_19_" cx="287.1826" cy="-247.5537" r="16.1865" gradientTransform="matrix(2.0194 0 0 0.8081 -236.1954 493.1252)" gradientUnits="userSpaceOnUse">
		<stop  offset="0" style="stop-color:#A2FF5F"/>
		<stop  offset="0.4082" style="stop-color:#A0FF5F"/>
		<stop  offset="0.5552" style="stop-color:#99FD5F"/>
		<stop  offset="0.66" style="stop-color:#8EFB5E"/>
		<stop  offset="0.7448" style="stop-color:#7DF85E"/>
		<stop  offset="0.8174" style="stop-color:#67F35D"/>
		<stop  offset="0.8817" style="stop-color:#4BEE5C"/>
		<stop  offset="0.9398" style="stop-color:#2BE85B"/>
		<stop  offset="0.9915" style="stop-color:#07E05A"/>
		<stop  offset="1" style="stop-color:#00DF5A"/>
	</radialGradient>
	<path id="path16609_1_" fill="url(#path16609_19_)" stroke="#000000" d="M375.827,293.075c0,7.356-14.369,13.319-32.086,13.319
		c-17.718,0-32.083-5.961-32.083-13.319c0-7.355,14.365-13.314,32.083-13.314C361.458,279.762,375.827,285.719,375.827,293.075z"/>
	<text transform="matrix(1 0 0 1 327.9922 297.1855)" font-family="'MyriadPro-Regular'" font-size="14">AggP</text>
</g>
<g>
	<g>
		<g>
			<line fill="none" stroke="#231F20" x1="445.457" y1="293.076" x2="381.857" y2="293.076"/>
			<polygon fill="#231F20" points="384.666,289.373 383.093,293.076 384.666,296.78 375.888,293.076 			"/>
		</g>
	</g>
	<g>
		<g>
			<path fill="none" stroke="#000000" d="M400.192,292.874c24.102-1.697,36.177-20.536,37-38.491"/>
		</g>
	</g>
</g>
<g>
	<g>
		<g>
			<line fill="none" stroke="#231F20" x1="242.384" y1="293.076" x2="305.983" y2="293.076"/>
			<polygon fill="#231F20" points="303.175,296.779 304.748,293.076 303.175,289.372 311.953,293.076 			"/>
		</g>
	</g>
	<g>
		<g>
			<path fill="none" stroke="#000000" d="M287.648,293.278c-24.102,1.697-36.177,20.536-37,38.491"/>
		</g>
	</g>
</g>
<g>
	
		<radialGradient id="path16609_20_" cx="241.083" cy="-182.2041" r="16.186" gradientTransform="matrix(2.0194 0 0 0.8081 -236.1954 493.1252)" gradientUnits="userSpaceOnUse">
		<stop  offset="0" style="stop-color:#A2FF5F"/>
		<stop  offset="0.4082" style="stop-color:#A0FF5F"/>
		<stop  offset="0.5552" style="stop-color:#99FD5F"/>
		<stop  offset="0.66" style="stop-color:#8EFB5E"/>
		<stop  offset="0.7448" style="stop-color:#7DF85E"/>
		<stop  offset="0.8174" style="stop-color:#67F35D"/>
		<stop  offset="0.8817" style="stop-color:#4BEE5C"/>
		<stop  offset="0.9398" style="stop-color:#2BE85B"/>
		<stop  offset="0.9915" style="stop-color:#07E05A"/>
		<stop  offset="1" style="stop-color:#00DF5A"/>
	</radialGradient>
	<path id="path16609_7_" fill="url(#path16609_20_)" stroke="#000000" d="M282.733,345.884c0,7.355-14.369,13.318-32.086,13.318
		c-17.718,0-32.083-5.961-32.083-13.318c0-7.355,14.366-13.314,32.083-13.314C268.364,332.571,282.733,338.528,282.733,345.884z"/>
	<text transform="matrix(1 0 0 1 236.8027 349.9961)" font-family="'MyriadPro-Regular'" font-size="14">MisP</text>
</g>
<g>
	
		<radialGradient id="path16609_21_" cx="221.1025" cy="-247.8057" r="16.1863" gradientTransform="matrix(2.0194 0 0 0.8081 -236.1954 493.1252)" gradientUnits="userSpaceOnUse">
		<stop  offset="0" style="stop-color:#A2FF5F"/>
		<stop  offset="0.4082" style="stop-color:#A0FF5F"/>
		<stop  offset="0.5552" style="stop-color:#99FD5F"/>
		<stop  offset="0.66" style="stop-color:#8EFB5E"/>
		<stop  offset="0.7448" style="stop-color:#7DF85E"/>
		<stop  offset="0.8174" style="stop-color:#67F35D"/>
		<stop  offset="0.8817" style="stop-color:#4BEE5C"/>
		<stop  offset="0.9398" style="stop-color:#2BE85B"/>
		<stop  offset="0.9915" style="stop-color:#07E05A"/>
		<stop  offset="1" style="stop-color:#00DF5A"/>
	</radialGradient>
	<path id="path16609_8_" fill="url(#path16609_21_)" stroke="#000000" d="M242.384,292.872c0,7.355-14.369,13.318-32.086,13.318
		c-17.718,0-32.083-5.961-32.083-13.318c0-7.355,14.366-13.314,32.083-13.314C228.015,279.559,242.384,285.516,242.384,292.872z"/>
	<text transform="matrix(1 0 0 1 196.4536 296.9834)" font-family="'MyriadPro-Regular'" font-size="14">MisP</text>
</g>
<g>
	
		<radialGradient id="path16609_22_" cx="287.1826" cy="-101.8457" r="16.1868" gradientTransform="matrix(2.0194 0 0 0.8081 -236.1954 493.1252)" gradientUnits="userSpaceOnUse">
		<stop  offset="0" style="stop-color:#A2FF5F"/>
		<stop  offset="0.4082" style="stop-color:#A0FF5F"/>
		<stop  offset="0.5552" style="stop-color:#99FD5F"/>
		<stop  offset="0.66" style="stop-color:#8EFB5E"/>
		<stop  offset="0.7448" style="stop-color:#7DF85E"/>
		<stop  offset="0.8174" style="stop-color:#67F35D"/>
		<stop  offset="0.8817" style="stop-color:#4BEE5C"/>
		<stop  offset="0.9398" style="stop-color:#2BE85B"/>
		<stop  offset="0.9915" style="stop-color:#07E05A"/>
		<stop  offset="1" style="stop-color:#00DF5A"/>
	</radialGradient>
	<path id="path16609_9_" fill="url(#path16609_22_)" stroke="#000000" d="M375.827,410.821c0,7.356-14.369,13.319-32.086,13.319
		c-17.718,0-32.083-5.961-32.083-13.319c0-7.355,14.365-13.314,32.083-13.314C361.458,397.509,375.827,403.466,375.827,410.821z"/>
	<text transform="matrix(1 0 0 1 327.9922 414.9336)" font-family="'MyriadPro-Regular'" font-size="14">AggP</text>
</g>
<g>
	<g>
		<line fill="none" stroke="#231F20" x1="343.741" y1="306.394" x2="343.741" y2="392"/>
		<polygon fill="#231F20" points="340.038,389.191 343.741,390.764 347.445,389.191 343.741,397.969 		"/>
	</g>
</g>
<g>
	<g>
		<path fill="none" stroke="#000000" d="M380.74,340.895c-24.102,1.697-36.177,20.536-37,38.491"/>
	</g>
</g>
<g>
	
		<radialGradient id="path16609_23_" cx="276.6348" cy="-268.3701" r="12.8307" gradientTransform="matrix(3.2467 0 0 1.2936 -477.5399 683.6394)" gradientUnits="userSpaceOnUse">
		<stop  offset="0" style="stop-color:#A2FF5F"/>
		<stop  offset="0.4082" style="stop-color:#A0FF5F"/>
		<stop  offset="0.5552" style="stop-color:#99FD5F"/>
		<stop  offset="0.66" style="stop-color:#8EFB5E"/>
		<stop  offset="0.7448" style="stop-color:#7DF85E"/>
		<stop  offset="0.8174" style="stop-color:#67F35D"/>
		<stop  offset="0.8817" style="stop-color:#4BEE5C"/>
		<stop  offset="0.9398" style="stop-color:#2BE85B"/>
		<stop  offset="0.9915" style="stop-color:#07E05A"/>
		<stop  offset="1" style="stop-color:#00DF5A"/>
	</radialGradient>
	<path id="path16609_10_" fill="url(#path16609_23_)" stroke="#000000" d="M461.503,336.474c0,9.333-18.313,16.9-40.892,16.9
		c-22.583,0-40.891-7.564-40.891-16.9c0-9.333,18.308-16.895,40.891-16.895C443.19,319.581,461.503,327.14,461.503,336.474z"/>
	<text transform="matrix(1 0 0 1 389.0947 340.1987)" font-family="'MyriadPro-Regular'" font-size="12.6832">Proteasome</text>
</g>
<g>
	<g>
		<path fill="none" stroke="#000000" d="M259.533,388.265c47.335-3.649,71.059-44.049,72.684-82.552"/>
		<polygon points="262.049,384.356 260.766,388.169 262.618,391.742 253.582,388.724 		"/>
	</g>
</g>
<g>
	
		<radialGradient id="path16609_24_" cx="226.6382" cy="-129.7617" r="16.1868" gradientTransform="matrix(2.0194 0 0 0.8081 -236.1954 493.1252)" gradientUnits="userSpaceOnUse">
		<stop  offset="0" style="stop-color:#A2FF5F"/>
		<stop  offset="0.4082" style="stop-color:#A0FF5F"/>
		<stop  offset="0.5552" style="stop-color:#99FD5F"/>
		<stop  offset="0.66" style="stop-color:#8EFB5E"/>
		<stop  offset="0.7448" style="stop-color:#7DF85E"/>
		<stop  offset="0.8174" style="stop-color:#67F35D"/>
		<stop  offset="0.8817" style="stop-color:#4BEE5C"/>
		<stop  offset="0.9398" style="stop-color:#2BE85B"/>
		<stop  offset="0.9915" style="stop-color:#07E05A"/>
		<stop  offset="1" style="stop-color:#00DF5A"/>
	</radialGradient>
	<path id="path16609_11_" fill="url(#path16609_24_)" stroke="#000000" d="M253.563,388.262c0,7.356-14.369,13.32-32.086,13.32
		c-17.718,0-32.083-5.961-32.083-13.32c0-7.355,14.365-13.314,32.083-13.314C239.193,374.95,253.563,380.907,253.563,388.262z"/>
	<text transform="matrix(1 0 0 1 194.7871 392.373)" font-family="'MyriadPro-Regular'" font-size="14">SeqAggP</text>
</g>
<text transform="matrix(1 0 0 1 272.7783 285.4678)" font-family="'MyriadPro-Regular'" font-size="14.1601">k</text>
<text transform="matrix(0.583 0 0 0.583 279.4194 290.1831)" font-family="'MyriadPro-Regular'" font-size="14.1601">71</text>
<text transform="matrix(1 0 0 1 387.9702 285.4688)" font-family="'MyriadPro-Regular'" font-size="14.1601">k</text>
<text transform="matrix(0.583 0 0 0.583 394.6113 290.1841)" font-family="'MyriadPro-Regular'" font-size="14.1601">72</text>
<text transform="matrix(1 0 0 1 307.4351 335.7803)" font-family="'MyriadPro-Regular'" font-size="14.1601">k</text>
<text transform="matrix(0.583 0 0 0.583 314.0762 340.4956)" font-family="'MyriadPro-Regular'" font-size="14.1601">73</text>
<text transform="matrix(1 0 0 1 346.333 335.7793)" font-family="'MyriadPro-Regular'" font-size="14.1601">k</text>
<text transform="matrix(0.583 0 0 0.583 352.9741 340.4946)" font-family="'MyriadPro-Regular'" font-size="14.1601">74</text>
</svg>
