<?xml version="1.0" encoding="UTF-8" standalone="no"?>
<!DOCTYPE svg PUBLIC "-//W3C//DTD SVG 1.1//EN"
 "http://www.w3.org/Graphics/SVG/1.1/DTD/svg11.dtd">
<!-- Generated by graphviz version 2.24.0 (20090616.2323)
 -->
<!-- Title: G Pages: 1 -->
<svg width="1922pt" height="235pt"
 viewBox="0.00 0.00 1922.00 235.00" xmlns="http://www.w3.org/2000/svg" xmlns:xlink="http://www.w3.org/1999/xlink">
<g id="graph1" class="graph" transform="scale(1 1) rotate(0) translate(4 231)">
<title>G</title>
<polygon fill="white" stroke="white" points="-4,5 -4,-231 1919,-231 1919,5 -4,5"/>
<!-- NGF -->
<g id="node1" class="node"><title>NGF</title>
<polyline fill="none" stroke="black" points="258,-108 228,-108 "/>
<path fill="none" stroke="black" d="M228,-108C222,-108 216,-102 216,-96"/>
<polyline fill="none" stroke="black" points="216,-96 216,-84 "/>
<path fill="none" stroke="black" d="M216,-84C216,-78 222,-72 228,-72"/>
<polyline fill="none" stroke="black" points="228,-72 258,-72 "/>
<path fill="none" stroke="black" d="M258,-72C264,-72 270,-78 270,-84"/>
<polyline fill="none" stroke="black" points="270,-84 270,-96 "/>
<path fill="none" stroke="black" d="M270,-96C270,-102 264,-108 258,-108"/>
<text text-anchor="middle" x="243" y="-87.5" font-family="Times Roman,serif" font-size="10.00">NGF</text>
</g>
<!-- reaction_1_intermediate_r -->
<g id="node13" class="node"><title>reaction_1_intermediate_r</title>
<ellipse fill="black" stroke="black" cx="306" cy="-81" rx="0.036" ry="0.036"/>
</g>
<!-- NGF&#45;&gt;reaction_1_intermediate_r -->
<g id="edge4" class="edge"><title>NGF&#45;&gt;reaction_1_intermediate_r</title>
<path fill="none" stroke="black" d="M280.211,-84.6841C293.314,-82.8123 305.052,-81.1354 305.945,-81.0078"/>
<polygon fill="black" stroke="black" points="279.488,-81.2518 270.083,-86.131 280.478,-88.1815 279.488,-81.2518"/>
</g>
<!-- TrkA -->
<g id="node2" class="node"><title>TrkA</title>
<polyline fill="none" stroke="black" points="258,-54 228,-54 "/>
<path fill="none" stroke="black" d="M228,-54C222,-54 216,-48 216,-42"/>
<polyline fill="none" stroke="black" points="216,-42 216,-30 "/>
<path fill="none" stroke="black" d="M216,-30C216,-24 222,-18 228,-18"/>
<polyline fill="none" stroke="black" points="228,-18 258,-18 "/>
<path fill="none" stroke="black" d="M258,-18C264,-18 270,-24 270,-30"/>
<polyline fill="none" stroke="black" points="270,-30 270,-42 "/>
<path fill="none" stroke="black" d="M270,-42C270,-48 264,-54 258,-54"/>
<text text-anchor="middle" x="243" y="-33.5" font-family="Times Roman,serif" font-size="10.00">TrkA</text>
</g>
<!-- TrkA&#45;&gt;reaction_1_intermediate_r -->
<g id="edge6" class="edge"><title>TrkA&#45;&gt;reaction_1_intermediate_r</title>
<path fill="none" stroke="black" d="M276.73,-60.0929C291.146,-70.3902 304.937,-80.2404 305.941,-80.9582"/>
<polygon fill="black" stroke="black" points="278.433,-57.0083 268.262,-54.0439 274.365,-62.7044 278.433,-57.0083"/>
</g>
<!-- reaction_11_intermediate_r -->
<g id="node87" class="node"><title>reaction_11_intermediate_r</title>
<ellipse fill="black" stroke="black" cx="306" cy="-36" rx="0.036" ry="0.036"/>
</g>
<!-- TrkA&#45;&gt;reaction_11_intermediate_r -->
<g id="edge92" class="edge"><title>TrkA&#45;&gt;reaction_11_intermediate_r</title>
<path fill="none" stroke="black" d="M270.083,-36C286.625,-36 304.824,-36 305.945,-36"/>
</g>
<!-- pTrkA -->
<g id="node3" class="node"><title>pTrkA</title>
<polyline fill="none" stroke="black" points="746,-99 716,-99 "/>
<path fill="none" stroke="black" d="M716,-99C710,-99 704,-93 704,-87"/>
<polyline fill="none" stroke="black" points="704,-87 704,-75 "/>
<path fill="none" stroke="black" d="M704,-75C704,-69 710,-63 716,-63"/>
<polyline fill="none" stroke="black" points="716,-63 746,-63 "/>
<path fill="none" stroke="black" d="M746,-63C752,-63 758,-69 758,-75"/>
<polyline fill="none" stroke="black" points="758,-75 758,-87 "/>
<path fill="none" stroke="black" d="M758,-87C758,-93 752,-99 746,-99"/>
<text text-anchor="middle" x="731" y="-78.5" font-family="Times Roman,serif" font-size="10.00">pTrkA</text>
</g>
<!-- reaction_2_intermediate_r -->
<g id="node21" class="node"><title>reaction_2_intermediate_r</title>
<ellipse fill="black" stroke="black" cx="795" cy="-81" rx="0.036" ry="0.036"/>
</g>
<!-- pTrkA&#45;&gt;reaction_2_intermediate_r -->
<g id="edge14" class="edge"><title>pTrkA&#45;&gt;reaction_2_intermediate_r</title>
<path fill="none" stroke="black" d="M768.505,-81C781.931,-81 794.023,-81 794.944,-81"/>
<polygon fill="black" stroke="black" points="768.142,-77.5001 758.142,-81 768.142,-84.5001 768.142,-77.5001"/>
</g>
<!-- reaction_4_intermediate_r -->
<g id="node37" class="node"><title>reaction_4_intermediate_r</title>
<ellipse fill="black" stroke="black" cx="795" cy="-55" rx="0.036" ry="0.036"/>
</g>
<!-- pTrkA&#45;&gt;reaction_4_intermediate_r -->
<g id="edge34" class="edge"><title>pTrkA&#45;&gt;reaction_4_intermediate_r</title>
<path fill="none" stroke="black" d="M758.142,-69.9737C775.04,-63.1088 793.788,-55.4922 794.944,-55.0228"/>
</g>
<!-- pTrkA_Akt -->
<g id="node4" class="node"><title>pTrkA_Akt</title>
<ellipse fill="none" stroke="black" cx="1012" cy="-110" rx="40.0132" ry="18"/>
<text text-anchor="middle" x="1012" y="-107.5" font-family="Times Roman,serif" font-size="10.00">pTrkA_Akt</text>
</g>
<!-- reaction_3_intermediate_r -->
<g id="node29" class="node"><title>reaction_3_intermediate_r</title>
<ellipse fill="black" stroke="black" cx="1089" cy="-113" rx="0.036" ry="0.036"/>
</g>
<!-- pTrkA_Akt&#45;&gt;reaction_3_intermediate_r -->
<g id="edge24" class="edge"><title>pTrkA_Akt&#45;&gt;reaction_3_intermediate_r</title>
<path fill="none" stroke="black" d="M1051.85,-111.553C1070.05,-112.262 1087.85,-112.955 1088.95,-112.998"/>
</g>
<!-- Akt -->
<g id="node5" class="node"><title>Akt</title>
<polyline fill="none" stroke="black" points="1462,-94 1432,-94 "/>
<path fill="none" stroke="black" d="M1432,-94C1426,-94 1420,-88 1420,-82"/>
<polyline fill="none" stroke="black" points="1420,-82 1420,-70 "/>
<path fill="none" stroke="black" d="M1420,-70C1420,-64 1426,-58 1432,-58"/>
<polyline fill="none" stroke="black" points="1432,-58 1462,-58 "/>
<path fill="none" stroke="black" d="M1462,-58C1468,-58 1474,-64 1474,-70"/>
<polyline fill="none" stroke="black" points="1474,-70 1474,-82 "/>
<path fill="none" stroke="black" d="M1474,-82C1474,-88 1468,-94 1462,-94"/>
<text text-anchor="middle" x="1447" y="-73.5" font-family="Times Roman,serif" font-size="10.00">Akt</text>
</g>
<!-- Akt&#45;&gt;reaction_2_intermediate_r -->
<g id="edge16" class="edge"><title>Akt&#45;&gt;reaction_2_intermediate_r</title>
<path fill="none" stroke="black" d="M1409.98,-70.2071C1387.25,-67.1396 1357.51,-64 1331,-64 909,-64 909,-64 909,-64 858.573,-64 796.959,-80.4729 795.046,-80.9877"/>
<polygon fill="black" stroke="black" points="1409.5,-73.6744 1419.89,-71.5998 1410.48,-66.7425 1409.5,-73.6744"/>
</g>
<!-- pAkt -->
<g id="node6" class="node"><title>pAkt</title>
<ellipse fill="none" stroke="black" cx="1232" cy="-134" rx="18" ry="18"/>
<text text-anchor="middle" x="1232" y="-131.5" font-family="Times Roman,serif" font-size="10.00">pAkt</text>
</g>
<!-- reaction_5_intermediate_r -->
<g id="node43" class="node"><title>reaction_5_intermediate_r</title>
<ellipse fill="black" stroke="black" cx="1287" cy="-180" rx="0.036" ry="0.036"/>
</g>
<!-- pAkt&#45;&gt;reaction_5_intermediate_r -->
<g id="edge40" class="edge"><title>pAkt&#45;&gt;reaction_5_intermediate_r</title>
<path fill="none" stroke="black" d="M1253.75,-152.19C1268.55,-164.572 1285.69,-178.901 1286.93,-179.94"/>
<polygon fill="black" stroke="black" points="1255.8,-149.339 1245.88,-145.608 1251.3,-154.708 1255.8,-149.339"/>
</g>
<!-- reaction_7_intermediate_r -->
<g id="node59" class="node"><title>reaction_7_intermediate_r</title>
<ellipse fill="black" stroke="black" cx="1287" cy="-102" rx="0.036" ry="0.036"/>
</g>
<!-- pAkt&#45;&gt;reaction_7_intermediate_r -->
<g id="edge60" class="edge"><title>pAkt&#45;&gt;reaction_7_intermediate_r</title>
<path fill="none" stroke="black" d="M1247.61,-124.916C1263.37,-115.751 1285.56,-102.837 1286.93,-102.039"/>
</g>
<!-- S6 -->
<g id="node7" class="node"><title>S6</title>
<polyline fill="none" stroke="black" points="1902,-227 1872,-227 "/>
<path fill="none" stroke="black" d="M1872,-227C1866,-227 1860,-221 1860,-215"/>
<polyline fill="none" stroke="black" points="1860,-215 1860,-203 "/>
<path fill="none" stroke="black" d="M1860,-203C1860,-197 1866,-191 1872,-191"/>
<polyline fill="none" stroke="black" points="1872,-191 1902,-191 "/>
<path fill="none" stroke="black" d="M1902,-191C1908,-191 1914,-197 1914,-203"/>
<polyline fill="none" stroke="black" points="1914,-203 1914,-215 "/>
<path fill="none" stroke="black" d="M1914,-215C1914,-221 1908,-227 1902,-227"/>
<text text-anchor="middle" x="1887" y="-206.5" font-family="Times Roman,serif" font-size="10.00">S6</text>
</g>
<!-- S6&#45;&gt;reaction_5_intermediate_r -->
<g id="edge42" class="edge"><title>S6&#45;&gt;reaction_5_intermediate_r</title>
<path fill="none" stroke="black" d="M1849.69,-217.809C1828.99,-221.953 1802.71,-226 1779,-226 1375,-226 1375,-226 1375,-226 1332.25,-226 1289.74,-182.83 1287.13,-180.132"/>
<polygon fill="black" stroke="black" points="1850.6,-221.195 1859.67,-215.719 1849.16,-214.344 1850.6,-221.195"/>
</g>
<!-- pAkt_S6 -->
<g id="node8" class="node"><title>pAkt_S6</title>
<ellipse fill="none" stroke="black" cx="1447" cy="-180" rx="35.0885" ry="18"/>
<text text-anchor="middle" x="1447" y="-177.5" font-family="Times Roman,serif" font-size="10.00">pAkt_S6</text>
</g>
<!-- reaction_6_intermediate_r -->
<g id="node51" class="node"><title>reaction_6_intermediate_r</title>
<ellipse fill="black" stroke="black" cx="1519" cy="-180" rx="0.036" ry="0.036"/>
</g>
<!-- pAkt_S6&#45;&gt;reaction_6_intermediate_r -->
<g id="edge50" class="edge"><title>pAkt_S6&#45;&gt;reaction_6_intermediate_r</title>
<path fill="none" stroke="black" d="M1482.16,-180C1499.86,-180 1517.84,-180 1518.95,-180"/>
</g>
<!-- pS6 -->
<g id="node9" class="node"><title>pS6</title>
<polyline fill="none" stroke="black" points="1686,-198 1656,-198 "/>
<path fill="none" stroke="black" d="M1656,-198C1650,-198 1644,-192 1644,-186"/>
<polyline fill="none" stroke="black" points="1644,-186 1644,-174 "/>
<path fill="none" stroke="black" d="M1644,-174C1644,-168 1650,-162 1656,-162"/>
<polyline fill="none" stroke="black" points="1656,-162 1686,-162 "/>
<path fill="none" stroke="black" d="M1686,-162C1692,-162 1698,-168 1698,-174"/>
<polyline fill="none" stroke="black" points="1698,-174 1698,-186 "/>
<path fill="none" stroke="black" d="M1698,-186C1698,-192 1692,-198 1686,-198"/>
<text text-anchor="middle" x="1671" y="-177.5" font-family="Times Roman,serif" font-size="10.00">pS6</text>
</g>
<!-- reaction_8_intermediate_r -->
<g id="node66" class="node"><title>reaction_8_intermediate_r</title>
<ellipse fill="black" stroke="black" cx="1735" cy="-183" rx="0.036" ry="0.036"/>
</g>
<!-- pS6&#45;&gt;reaction_8_intermediate_r -->
<g id="edge68" class="edge"><title>pS6&#45;&gt;reaction_8_intermediate_r</title>
<path fill="none" stroke="black" d="M1698.14,-181.272C1715.04,-182.064 1733.79,-182.943 1734.94,-182.997"/>
</g>
<!-- pro_TrkA -->
<g id="node10" class="node"><title>pro_TrkA</title>
<polyline fill="none" stroke="black" points="45,-54 13,-54 "/>
<path fill="none" stroke="black" d="M13,-54C7,-54 1,-48 1,-42"/>
<polyline fill="none" stroke="black" points="1,-42 1,-30 "/>
<path fill="none" stroke="black" d="M1,-30C1,-24 7,-18 13,-18"/>
<polyline fill="none" stroke="black" points="13,-18 45,-18 "/>
<path fill="none" stroke="black" d="M45,-18C51,-18 57,-24 57,-30"/>
<polyline fill="none" stroke="black" points="57,-30 57,-42 "/>
<path fill="none" stroke="black" d="M57,-42C57,-48 51,-54 45,-54"/>
<text text-anchor="middle" x="29" y="-33.5" font-family="Times Roman,serif" font-size="10.00">pro_TrkA</text>
</g>
<!-- reaction_9_intermediate_r -->
<g id="node73" class="node"><title>reaction_9_intermediate_r</title>
<ellipse fill="black" stroke="black" cx="94" cy="-36" rx="0.036" ry="0.036"/>
</g>
<!-- pro_TrkA&#45;&gt;reaction_9_intermediate_r -->
<g id="edge76" class="edge"><title>pro_TrkA&#45;&gt;reaction_9_intermediate_r</title>
<path fill="none" stroke="black" d="M57.6992,-36C74.5676,-36 92.8209,-36 93.9453,-36"/>
</g>
<!-- NGF_TrkA -->
<g id="node11" class="node"><title>NGF_TrkA</title>
<polyline fill="none" stroke="black" points="533,-99 495,-99 "/>
<path fill="none" stroke="black" d="M495,-99C489,-99 483,-93 483,-87"/>
<polyline fill="none" stroke="black" points="483,-87 483,-75 "/>
<path fill="none" stroke="black" d="M483,-75C483,-69 489,-63 495,-63"/>
<polyline fill="none" stroke="black" points="495,-63 533,-63 "/>
<path fill="none" stroke="black" d="M533,-63C539,-63 545,-69 545,-75"/>
<polyline fill="none" stroke="black" points="545,-75 545,-87 "/>
<path fill="none" stroke="black" d="M545,-87C545,-93 539,-99 533,-99"/>
<text text-anchor="middle" x="514" y="-78.5" font-family="Times Roman,serif" font-size="10.00">NGF_TrkA</text>
</g>
<!-- reaction_10_intermediate_r -->
<g id="node80" class="node"><title>reaction_10_intermediate_r</title>
<ellipse fill="black" stroke="black" cx="582" cy="-81" rx="0.036" ry="0.036"/>
</g>
<!-- NGF_TrkA&#45;&gt;reaction_10_intermediate_r -->
<g id="edge84" class="edge"><title>NGF_TrkA&#45;&gt;reaction_10_intermediate_r</title>
<path fill="none" stroke="black" d="M545.611,-81C562.814,-81 580.836,-81 581.946,-81"/>
</g>
<!-- reaction_1 -->
<g id="node12" class="node"><title>reaction_1</title>
<polygon fill="none" stroke="black" points="356,-88 342,-88 342,-74 356,-74 356,-88"/>
</g>
<!-- reaction_1_intermediate_p -->
<g id="node17" class="node"><title>reaction_1_intermediate_p</title>
<ellipse fill="black" stroke="black" cx="419" cy="-81" rx="0.036" ry="0.036"/>
</g>
<!-- reaction_1&#45;&gt;reaction_1_intermediate_p -->
<g id="edge8" class="edge"><title>reaction_1&#45;&gt;reaction_1_intermediate_p</title>
<path fill="none" stroke="black" d="M356.228,-81C373.554,-81 416.221,-81 418.871,-81"/>
</g>
<!-- reaction_1_intermediate_r&#45;&gt;reaction_1 -->
<g id="edge2" class="edge"><title>reaction_1_intermediate_r&#45;&gt;reaction_1</title>
<path fill="none" stroke="black" d="M306.123,-81C307.976,-81 330.231,-81 341.924,-81"/>
</g>
<!-- reaction_1_intermediate_p&#45;&gt;NGF_TrkA -->
<g id="edge10" class="edge"><title>reaction_1_intermediate_p&#45;&gt;NGF_TrkA</title>
<path fill="none" stroke="black" d="M419.069,-81C420.605,-81 447.557,-81 472.351,-81"/>
<polygon fill="black" stroke="black" points="472.404,-84.5001 482.404,-81 472.403,-77.5001 472.404,-84.5001"/>
</g>
<!-- reaction_2 -->
<g id="node20" class="node"><title>reaction_2</title>
<polygon fill="none" stroke="black" points="846,-111 832,-111 832,-97 846,-97 846,-111"/>
</g>
<!-- reaction_2_intermediate_p -->
<g id="node25" class="node"><title>reaction_2_intermediate_p</title>
<ellipse fill="black" stroke="black" cx="909" cy="-107" rx="0.036" ry="0.036"/>
</g>
<!-- reaction_2&#45;&gt;reaction_2_intermediate_p -->
<g id="edge18" class="edge"><title>reaction_2&#45;&gt;reaction_2_intermediate_p</title>
<path fill="none" stroke="black" d="M846.228,-104.31C863.554,-105.052 906.221,-106.881 908.871,-106.994"/>
</g>
<!-- reaction_2_intermediate_r&#45;&gt;reaction_2 -->
<g id="edge12" class="edge"><title>reaction_2_intermediate_r&#45;&gt;reaction_2</title>
<path fill="none" stroke="black" d="M795.126,-81.066C797.022,-82.0567 819.795,-93.9608 831.759,-100.215"/>
</g>
<!-- reaction_2_intermediate_p&#45;&gt;pTrkA_Akt -->
<g id="edge20" class="edge"><title>reaction_2_intermediate_p&#45;&gt;pTrkA_Akt</title>
<path fill="none" stroke="black" d="M909.075,-107.002C910.64,-107.048 936.546,-107.802 961.974,-108.543"/>
<polygon fill="black" stroke="black" points="961.919,-112.043 972.016,-108.835 962.122,-105.046 961.919,-112.043"/>
</g>
<!-- reaction_3 -->
<g id="node28" class="node"><title>reaction_3</title>
<polygon fill="none" stroke="black" points="1140,-123 1126,-123 1126,-109 1140,-109 1140,-123"/>
</g>
<!-- reaction_3_intermediate_p -->
<g id="node32" class="node"><title>reaction_3_intermediate_p</title>
<ellipse fill="black" stroke="black" cx="1177" cy="-134" rx="0.036" ry="0.036"/>
</g>
<!-- reaction_3&#45;&gt;reaction_3_intermediate_p -->
<g id="edge26" class="edge"><title>reaction_3&#45;&gt;reaction_3_intermediate_p</title>
<path fill="none" stroke="black" d="M1140.27,-118.972C1152.37,-123.925 1175.5,-133.385 1176.93,-133.971"/>
</g>
<!-- reaction_3_intermediate_r&#45;&gt;reaction_3 -->
<g id="edge22" class="edge"><title>reaction_3_intermediate_r&#45;&gt;reaction_3</title>
<path fill="none" stroke="black" d="M1089.13,-113.009C1091.02,-113.138 1113.79,-114.691 1125.76,-115.506"/>
</g>
<!-- reaction_3_intermediate_p&#45;&gt;pTrkA -->
<g id="edge28" class="edge"><title>reaction_3_intermediate_p&#45;&gt;pTrkA</title>
<path fill="none" stroke="black" d="M1176.86,-134.063C1174.03,-135.354 1128.05,-156 1089,-156 839,-156 839,-156 839,-156 803.624,-156 771.502,-128.517 751.657,-106.824"/>
<polygon fill="black" stroke="black" points="754.148,-104.357 744.918,-99.1554 748.89,-108.977 754.148,-104.357"/>
</g>
<!-- reaction_3_intermediate_p&#45;&gt;pAkt -->
<g id="edge30" class="edge"><title>reaction_3_intermediate_p&#45;&gt;pAkt</title>
<path fill="none" stroke="black" d="M1177.16,-134C1178.67,-134 1190.88,-134 1203.39,-134"/>
<polygon fill="black" stroke="black" points="1203.74,-137.5 1213.74,-134 1203.74,-130.5 1203.74,-137.5"/>
</g>
<!-- reaction_4 -->
<g id="node36" class="node"><title>reaction_4</title>
<polygon fill="none" stroke="black" points="846,-31 832,-31 832,-17 846,-17 846,-31"/>
</g>
<!-- reaction_4_empty -->
<g id="node40" class="node"><title>reaction_4_empty</title>
<text text-anchor="middle" x="909" y="-13.5" font-family="Times Roman,serif" font-size="15.00" fill="blue">Ø</text>
</g>
<!-- reaction_4&#45;&gt;reaction_4_empty -->
<g id="edge36" class="edge"><title>reaction_4&#45;&gt;reaction_4_empty</title>
<path fill="none" stroke="black" d="M846.228,-23.3805C852.45,-22.8472 861.94,-22.0337 871.672,-21.1996"/>
<polygon fill="black" stroke="black" points="872.109,-24.675 881.773,-20.3337 871.511,-17.7006 872.109,-24.675"/>
</g>
<!-- reaction_4_intermediate_r&#45;&gt;reaction_4 -->
<g id="edge32" class="edge"><title>reaction_4_intermediate_r&#45;&gt;reaction_4</title>
<path fill="none" stroke="black" d="M795.126,-54.9111C797.022,-53.5758 819.795,-37.5311 831.759,-29.1017"/>
</g>
<!-- reaction_5 -->
<g id="node42" class="node"><title>reaction_5</title>
<polygon fill="none" stroke="black" points="1338,-187 1324,-187 1324,-173 1338,-173 1338,-187"/>
</g>
<!-- reaction_5_intermediate_p -->
<g id="node47" class="node"><title>reaction_5_intermediate_p</title>
<ellipse fill="black" stroke="black" cx="1375" cy="-180" rx="0.036" ry="0.036"/>
</g>
<!-- reaction_5&#45;&gt;reaction_5_intermediate_p -->
<g id="edge44" class="edge"><title>reaction_5&#45;&gt;reaction_5_intermediate_p</title>
<path fill="none" stroke="black" d="M1338.27,-180C1350.37,-180 1373.5,-180 1374.93,-180"/>
</g>
<!-- reaction_5_intermediate_r&#45;&gt;reaction_5 -->
<g id="edge38" class="edge"><title>reaction_5_intermediate_r&#45;&gt;reaction_5</title>
<path fill="none" stroke="black" d="M1287.13,-180C1289.02,-180 1311.79,-180 1323.76,-180"/>
</g>
<!-- reaction_5_intermediate_p&#45;&gt;pAkt_S6 -->
<g id="edge46" class="edge"><title>reaction_5_intermediate_p&#45;&gt;pAkt_S6</title>
<path fill="none" stroke="black" d="M1375.05,-180C1375.93,-180 1387.75,-180 1401.56,-180"/>
<polygon fill="black" stroke="black" points="1401.84,-183.5 1411.84,-180 1401.84,-176.5 1401.84,-183.5"/>
</g>
<!-- reaction_6 -->
<g id="node50" class="node"><title>reaction_6</title>
<polygon fill="none" stroke="black" points="1570,-187 1556,-187 1556,-173 1570,-173 1570,-187"/>
</g>
<!-- reaction_6_intermediate_p -->
<g id="node54" class="node"><title>reaction_6_intermediate_p</title>
<ellipse fill="black" stroke="black" cx="1607" cy="-180" rx="0.036" ry="0.036"/>
</g>
<!-- reaction_6&#45;&gt;reaction_6_intermediate_p -->
<g id="edge52" class="edge"><title>reaction_6&#45;&gt;reaction_6_intermediate_p</title>
<path fill="none" stroke="black" d="M1570.27,-180C1582.37,-180 1605.5,-180 1606.93,-180"/>
</g>
<!-- reaction_6_intermediate_r&#45;&gt;reaction_6 -->
<g id="edge48" class="edge"><title>reaction_6_intermediate_r&#45;&gt;reaction_6</title>
<path fill="none" stroke="black" d="M1519.13,-180C1521.02,-180 1543.79,-180 1555.76,-180"/>
</g>
<!-- reaction_6_intermediate_p&#45;&gt;pAkt -->
<g id="edge54" class="edge"><title>reaction_6_intermediate_p&#45;&gt;pAkt</title>
<path fill="none" stroke="black" d="M1606.87,-179.868C1604.26,-177.17 1561.75,-134 1519,-134 1331,-134 1331,-134 1331,-134 1307.22,-134 1280.22,-134 1260.43,-134"/>
<polygon fill="black" stroke="black" points="1260.25,-130.5 1250.25,-134 1260.25,-137.5 1260.25,-130.5"/>
</g>
<!-- reaction_6_intermediate_p&#45;&gt;pS6 -->
<g id="edge56" class="edge"><title>reaction_6_intermediate_p&#45;&gt;pS6</title>
<path fill="none" stroke="black" d="M1607.05,-180C1607.88,-180 1619.97,-180 1633.41,-180"/>
<polygon fill="black" stroke="black" points="1633.79,-183.5 1643.79,-180 1633.79,-176.5 1633.79,-183.5"/>
</g>
<!-- reaction_7 -->
<g id="node58" class="node"><title>reaction_7</title>
<polygon fill="none" stroke="black" points="1338,-106 1324,-106 1324,-92 1338,-92 1338,-106"/>
</g>
<!-- reaction_7_intermediate_p -->
<g id="node62" class="node"><title>reaction_7_intermediate_p</title>
<ellipse fill="black" stroke="black" cx="1375" cy="-96" rx="0.036" ry="0.036"/>
</g>
<!-- reaction_7&#45;&gt;reaction_7_intermediate_p -->
<g id="edge62" class="edge"><title>reaction_7&#45;&gt;reaction_7_intermediate_p</title>
<path fill="none" stroke="black" d="M1338.27,-98.5046C1350.37,-97.6792 1373.5,-96.1025 1374.93,-96.0048"/>
</g>
<!-- reaction_7_intermediate_r&#45;&gt;reaction_7 -->
<g id="edge58" class="edge"><title>reaction_7_intermediate_r&#45;&gt;reaction_7</title>
<path fill="none" stroke="black" d="M1287.13,-101.991C1289.02,-101.862 1311.79,-100.309 1323.76,-99.4937"/>
</g>
<!-- reaction_7_intermediate_p&#45;&gt;Akt -->
<g id="edge64" class="edge"><title>reaction_7_intermediate_p&#45;&gt;Akt</title>
<path fill="none" stroke="black" d="M1375.05,-95.9855C1376.1,-95.6948 1392.72,-91.0783 1409.72,-86.3559"/>
<polygon fill="black" stroke="black" points="1410.96,-89.6438 1419.66,-83.595 1409.09,-82.8992 1410.96,-89.6438"/>
</g>
<!-- reaction_8 -->
<g id="node65" class="node"><title>reaction_8</title>
<polygon fill="none" stroke="black" points="1786,-195 1772,-195 1772,-181 1786,-181 1786,-195"/>
</g>
<!-- reaction_8_intermediate_p -->
<g id="node69" class="node"><title>reaction_8_intermediate_p</title>
<ellipse fill="black" stroke="black" cx="1823" cy="-193" rx="0.036" ry="0.036"/>
</g>
<!-- reaction_8&#45;&gt;reaction_8_intermediate_p -->
<g id="edge70" class="edge"><title>reaction_8&#45;&gt;reaction_8_intermediate_p</title>
<path fill="none" stroke="black" d="M1786.27,-188.826C1798.37,-190.201 1821.5,-192.829 1822.93,-192.992"/>
</g>
<!-- reaction_8_intermediate_r&#45;&gt;reaction_8 -->
<g id="edge66" class="edge"><title>reaction_8_intermediate_r&#45;&gt;reaction_8</title>
<path fill="none" stroke="black" d="M1735.13,-183.014C1737.02,-183.23 1759.79,-185.818 1771.76,-187.177"/>
</g>
<!-- reaction_8_intermediate_p&#45;&gt;S6 -->
<g id="edge72" class="edge"><title>reaction_8_intermediate_p&#45;&gt;S6</title>
<path fill="none" stroke="black" d="M1823.05,-193.012C1823.89,-193.223 1836.21,-196.302 1849.81,-199.702"/>
<polygon fill="black" stroke="black" points="1849.24,-203.169 1859.79,-202.199 1850.94,-196.378 1849.24,-203.169"/>
</g>
<!-- reaction_9 -->
<g id="node72" class="node"><title>reaction_9</title>
<polygon fill="none" stroke="black" points="144,-43 130,-43 130,-29 144,-29 144,-43"/>
</g>
<!-- reaction_9_intermediate_p -->
<g id="node76" class="node"><title>reaction_9_intermediate_p</title>
<ellipse fill="black" stroke="black" cx="180" cy="-36" rx="0.036" ry="0.036"/>
</g>
<!-- reaction_9&#45;&gt;reaction_9_intermediate_p -->
<g id="edge78" class="edge"><title>reaction_9&#45;&gt;reaction_9_intermediate_p</title>
<path fill="none" stroke="black" d="M144.101,-36C155.932,-36 178.531,-36 179.932,-36"/>
</g>
<!-- reaction_9_intermediate_r&#45;&gt;reaction_9 -->
<g id="edge74" class="edge"><title>reaction_9_intermediate_r&#45;&gt;reaction_9</title>
<path fill="none" stroke="black" d="M94.1234,-36C95.9756,-36 118.231,-36 129.924,-36"/>
</g>
<!-- reaction_9_intermediate_p&#45;&gt;TrkA -->
<g id="edge80" class="edge"><title>reaction_9_intermediate_p&#45;&gt;TrkA</title>
<path fill="none" stroke="black" d="M180.046,-36C180.865,-36 192.597,-36 205.716,-36"/>
<polygon fill="black" stroke="black" points="205.86,-39.5001 215.86,-36 205.859,-32.5001 205.86,-39.5001"/>
</g>
<!-- reaction_10 -->
<g id="node79" class="node"><title>reaction_10</title>
<polygon fill="none" stroke="black" points="632,-88 618,-88 618,-74 632,-74 632,-88"/>
</g>
<!-- reaction_10_intermediate_p -->
<g id="node83" class="node"><title>reaction_10_intermediate_p</title>
<ellipse fill="black" stroke="black" cx="668" cy="-81" rx="0.036" ry="0.036"/>
</g>
<!-- reaction_10&#45;&gt;reaction_10_intermediate_p -->
<g id="edge86" class="edge"><title>reaction_10&#45;&gt;reaction_10_intermediate_p</title>
<path fill="none" stroke="black" d="M632.101,-81C643.932,-81 666.531,-81 667.932,-81"/>
</g>
<!-- reaction_10_intermediate_r&#45;&gt;reaction_10 -->
<g id="edge82" class="edge"><title>reaction_10_intermediate_r&#45;&gt;reaction_10</title>
<path fill="none" stroke="black" d="M582.123,-81C583.976,-81 606.231,-81 617.924,-81"/>
</g>
<!-- reaction_10_intermediate_p&#45;&gt;pTrkA -->
<g id="edge88" class="edge"><title>reaction_10_intermediate_p&#45;&gt;pTrkA</title>
<path fill="none" stroke="black" d="M668.046,-81C668.865,-81 680.597,-81 693.716,-81"/>
<polygon fill="black" stroke="black" points="693.86,-84.5001 703.86,-81 693.859,-77.5001 693.86,-84.5001"/>
</g>
<!-- reaction_11 -->
<g id="node86" class="node"><title>reaction_11</title>
<polygon fill="none" stroke="black" points="356,-43 342,-43 342,-29 356,-29 356,-43"/>
</g>
<!-- reaction_11_empty -->
<g id="node90" class="node"><title>reaction_11_empty</title>
<text text-anchor="middle" x="419" y="-31.5" font-family="Times Roman,serif" font-size="15.00" fill="blue">Ø</text>
</g>
<!-- reaction_11&#45;&gt;reaction_11_empty -->
<g id="edge94" class="edge"><title>reaction_11&#45;&gt;reaction_11_empty</title>
<path fill="none" stroke="black" d="M356.228,-36C362.45,-36 371.94,-36 381.672,-36"/>
<polygon fill="black" stroke="black" points="381.773,-39.5001 391.773,-36 381.773,-32.5001 381.773,-39.5001"/>
</g>
<!-- reaction_11_intermediate_r&#45;&gt;reaction_11 -->
<g id="edge90" class="edge"><title>reaction_11_intermediate_r&#45;&gt;reaction_11</title>
<path fill="none" stroke="black" d="M306.123,-36C307.976,-36 330.231,-36 341.924,-36"/>
</g>
</g>
</svg>
