<?xml version="1.0" encoding="UTF-8" standalone="no"?>
<!DOCTYPE svg PUBLIC "-//W3C//DTD SVG 1.1//EN"
 "http://www.w3.org/Graphics/SVG/1.1/DTD/svg11.dtd">
<!-- Generated by graphviz version 2.24.0 (20090616.2323)
 -->
<!-- Title: G Pages: 1 -->
<svg width="918pt" height="555pt"
 viewBox="0.00 0.00 918.00 555.00" xmlns="http://www.w3.org/2000/svg" xmlns:xlink="http://www.w3.org/1999/xlink">
<g id="graph1" class="graph" transform="scale(1 1) rotate(0) translate(4 551)">
<title>G</title>
<polygon fill="white" stroke="white" points="-4,5 -4,-551 915,-551 915,5 -4,5"/>
<!-- D_1 -->
<g id="node1" class="node"><title>D_1</title>
<polyline fill="none" stroke="black" points="540,-512 510,-512 "/>
<path fill="none" stroke="black" d="M510,-512C504,-512 498,-506 498,-500"/>
<polyline fill="none" stroke="black" points="498,-500 498,-488 "/>
<path fill="none" stroke="black" d="M498,-488C498,-482 504,-476 510,-476"/>
<polyline fill="none" stroke="black" points="510,-476 540,-476 "/>
<path fill="none" stroke="black" d="M540,-476C546,-476 552,-482 552,-488"/>
<polyline fill="none" stroke="black" points="552,-488 552,-500 "/>
<path fill="none" stroke="black" d="M552,-500C552,-506 546,-512 540,-512"/>
<text text-anchor="middle" x="525" y="-491.5" font-family="Times Roman,serif" font-size="10.00">D</text>
</g>
<!-- cyclinCDK4degradation_1_intermediate_r -->
<g id="node15" class="node"><title>cyclinCDK4degradation_1_intermediate_r</title>
<ellipse fill="black" stroke="black" cx="589" cy="-525" rx="0.036" ry="0.036"/>
</g>
<!-- D_1&#45;&gt;cyclinCDK4degradation_1_intermediate_r -->
<g id="edge10" class="edge"><title>D_1&#45;&gt;cyclinCDK4degradation_1_intermediate_r</title>
<path fill="none" stroke="black" d="M552.142,-507.147C569.04,-515.332 587.788,-524.413 588.944,-524.973"/>
</g>
<!-- cyclinCDK4degradation_1_intermediate_m -->
<g id="node20" class="node"><title>cyclinCDK4degradation_1_intermediate_m</title>
<ellipse fill="black" stroke="black" cx="743" cy="-493" rx="0.036" ry="0.036"/>
</g>
<!-- D_1&#45;&gt;cyclinCDK4degradation_1_intermediate_m -->
<g id="edge16" class="edge"><title>D_1&#45;&gt;cyclinCDK4degradation_1_intermediate_m</title>
<path fill="none" stroke="black" d="M552.169,-493.875C609.695,-493.611 738.881,-493.019 742.904,-493"/>
</g>
<!-- pRBE2FcomplexdeassociationviacycDCDK4_1_intermediate_m -->
<g id="node71" class="node"><title>pRBE2FcomplexdeassociationviacycDCDK4_1_intermediate_m</title>
<ellipse fill="black" stroke="black" cx="743" cy="-126" rx="0.036" ry="0.036"/>
</g>
<!-- D_1&#45;&gt;pRBE2FcomplexdeassociationviacycDCDK4_1_intermediate_m -->
<g id="edge80" class="edge"><title>D_1&#45;&gt;pRBE2FcomplexdeassociationviacycDCDK4_1_intermediate_m</title>
<path fill="none" stroke="black" d="M531.653,-475.97C546.168,-437.587 582.856,-345.545 626,-275 669.244,-204.293 740.724,-128.41 742.947,-126.056"/>
</g>
<!-- E_1 -->
<g id="node2" class="node"><title>E_1</title>
<polyline fill="none" stroke="black" points="668,-374 638,-374 "/>
<path fill="none" stroke="black" d="M638,-374C632,-374 626,-368 626,-362"/>
<polyline fill="none" stroke="black" points="626,-362 626,-350 "/>
<path fill="none" stroke="black" d="M626,-350C626,-344 632,-338 638,-338"/>
<polyline fill="none" stroke="black" points="638,-338 668,-338 "/>
<path fill="none" stroke="black" d="M668,-338C674,-338 680,-344 680,-350"/>
<polyline fill="none" stroke="black" points="680,-350 680,-362 "/>
<path fill="none" stroke="black" d="M680,-362C680,-368 674,-374 668,-374"/>
<text text-anchor="middle" x="653" y="-353.5" font-family="Times Roman,serif" font-size="10.00">E</text>
</g>
<!-- E_1&#45;&gt;cyclinCDK4degradation_1_intermediate_m -->
<g id="edge18" class="edge"><title>E_1&#45;&gt;cyclinCDK4degradation_1_intermediate_m</title>
<path fill="none" stroke="black" d="M664.951,-374.193C689.051,-410.877 741.333,-490.463 742.961,-492.941"/>
</g>
<!-- cycECDK2degradation_1_intermediate_r -->
<g id="node34" class="node"><title>cycECDK2degradation_1_intermediate_r</title>
<ellipse fill="black" stroke="black" cx="743" cy="-391" rx="0.036" ry="0.036"/>
</g>
<!-- E_1&#45;&gt;cycECDK2degradation_1_intermediate_r -->
<g id="edge32" class="edge"><title>E_1&#45;&gt;cycECDK2degradation_1_intermediate_r</title>
<path fill="none" stroke="black" d="M680.003,-366.501C705.685,-376.488 740.729,-390.117 742.895,-390.959"/>
</g>
<!-- cycECDK2degradation_1_intermediate_m -->
<g id="node39" class="node"><title>cycECDK2degradation_1_intermediate_m</title>
<ellipse fill="black" stroke="black" cx="883" cy="-362" rx="0.036" ry="0.036"/>
</g>
<!-- E_1&#45;&gt;cycECDK2degradation_1_intermediate_m -->
<g id="edge38" class="edge"><title>E_1&#45;&gt;cycECDK2degradation_1_intermediate_m</title>
<path fill="none" stroke="black" d="M680.287,-356.712C740.26,-358.276 878.589,-361.885 882.897,-361.997"/>
</g>
<!-- _7_intermediate_m -->
<g id="node81" class="node"><title>_7_intermediate_m</title>
<ellipse fill="black" stroke="black" cx="743" cy="-54" rx="0.036" ry="0.036"/>
</g>
<!-- E_1&#45;&gt;_7_intermediate_m -->
<g id="edge92" class="edge"><title>E_1&#45;&gt;_7_intermediate_m</title>
<path fill="none" stroke="black" d="M674.195,-337.774C676.447,-335.037 678.47,-332.089 680,-329 732.959,-222.099 639.897,-154.874 716,-63 723.817,-53.5632 741.827,-53.9639 742.945,-53.9982"/>
</g>
<!-- cycleprogression_1_intermediate_m -->
<g id="node91" class="node"><title>cycleprogression_1_intermediate_m</title>
<ellipse fill="black" stroke="black" cx="743" cy="-227" rx="0.036" ry="0.036"/>
</g>
<!-- E_1&#45;&gt;cycleprogression_1_intermediate_m -->
<g id="edge102" class="edge"><title>E_1&#45;&gt;cycleprogression_1_intermediate_m</title>
<path fill="none" stroke="black" d="M672.189,-337.941C674.924,-335.05 677.614,-332.015 680,-329 712.544,-287.867 742.064,-228.877 742.978,-227.044"/>
</g>
<!-- RS_1 -->
<g id="node3" class="node"><title>RS_1</title>
<polyline fill="none" stroke="black" points="540,-103 510,-103 "/>
<path fill="none" stroke="black" d="M510,-103C504,-103 498,-97 498,-91"/>
<polyline fill="none" stroke="black" points="498,-91 498,-79 "/>
<path fill="none" stroke="black" d="M498,-79C498,-73 504,-67 510,-67"/>
<polyline fill="none" stroke="black" points="510,-67 540,-67 "/>
<path fill="none" stroke="black" d="M540,-67C546,-67 552,-73 552,-79"/>
<polyline fill="none" stroke="black" points="552,-79 552,-91 "/>
<path fill="none" stroke="black" d="M552,-91C552,-97 546,-103 540,-103"/>
<text text-anchor="middle" x="525" y="-82.5" font-family="Times Roman,serif" font-size="10.00">RS</text>
</g>
<!-- pRBE2Fcomplexassociation_1_intermediate_m -->
<g id="node60" class="node"><title>pRBE2Fcomplexassociation_1_intermediate_m</title>
<ellipse fill="black" stroke="black" cx="589" cy="-152" rx="0.036" ry="0.036"/>
</g>
<!-- RS_1&#45;&gt;pRBE2Fcomplexassociation_1_intermediate_m -->
<g id="edge64" class="edge"><title>RS_1&#45;&gt;pRBE2Fcomplexassociation_1_intermediate_m</title>
<path fill="none" stroke="black" d="M542.488,-103.308C560.845,-122.526 587.286,-150.205 588.92,-151.917"/>
</g>
<!-- pRBE2FcomplexdeassociationviacycDCDK4_1_intermediate_r -->
<g id="node66" class="node"><title>pRBE2FcomplexdeassociationviacycDCDK4_1_intermediate_r</title>
<ellipse fill="black" stroke="black" cx="589" cy="-86" rx="0.036" ry="0.036"/>
</g>
<!-- RS_1&#45;&gt;pRBE2FcomplexdeassociationviacycDCDK4_1_intermediate_r -->
<g id="edge72" class="edge"><title>RS_1&#45;&gt;pRBE2FcomplexdeassociationviacycDCDK4_1_intermediate_r</title>
<path fill="none" stroke="black" d="M552.142,-85.4241C569.04,-85.6881 587.788,-85.9811 588.944,-85.9991"/>
</g>
<!-- RS_1&#45;&gt;pRBE2FcomplexdeassociationviacycDCDK4_1_intermediate_m -->
<g id="edge78" class="edge"><title>RS_1&#45;&gt;pRBE2FcomplexdeassociationviacycDCDK4_1_intermediate_m</title>
<path fill="none" stroke="black" d="M552.409,-90.5653C572.71,-94.6537 601.058,-100.292 626,-105 677.103,-114.645 740.969,-125.65 742.953,-125.992"/>
</g>
<!-- _7_intermediate_r -->
<g id="node76" class="node"><title>_7_intermediate_r</title>
<ellipse fill="black" stroke="black" cx="589" cy="-23" rx="0.036" ry="0.036"/>
</g>
<!-- RS_1&#45;&gt;_7_intermediate_r -->
<g id="edge84" class="edge"><title>RS_1&#45;&gt;_7_intermediate_r</title>
<path fill="none" stroke="black" d="M543.856,-66.7333C562.144,-49.0163 587.366,-24.5833 588.924,-23.0736"/>
</g>
<!-- RS_1&#45;&gt;_7_intermediate_m -->
<g id="edge90" class="edge"><title>RS_1&#45;&gt;_7_intermediate_m</title>
<path fill="none" stroke="black" d="M552.169,-81.1365C609.695,-72.9563 738.881,-54.5858 742.904,-54.0137"/>
</g>
<!-- R_1 -->
<g id="node4" class="node"><title>R_1</title>
<polyline fill="none" stroke="black" points="220,-186 190,-186 "/>
<path fill="none" stroke="black" d="M190,-186C184,-186 178,-180 178,-174"/>
<polyline fill="none" stroke="black" points="178,-174 178,-162 "/>
<path fill="none" stroke="black" d="M178,-162C178,-156 184,-150 190,-150"/>
<polyline fill="none" stroke="black" points="190,-150 220,-150 "/>
<path fill="none" stroke="black" d="M220,-150C226,-150 232,-156 232,-162"/>
<polyline fill="none" stroke="black" points="232,-162 232,-174 "/>
<path fill="none" stroke="black" d="M232,-174C232,-180 226,-186 220,-186"/>
<text text-anchor="middle" x="205" y="-165.5" font-family="Times Roman,serif" font-size="10.00">R</text>
</g>
<!-- pRBE2Fcomplexassociation_1_intermediate_r -->
<g id="node54" class="node"><title>pRBE2Fcomplexassociation_1_intermediate_r</title>
<ellipse fill="black" stroke="black" cx="295" cy="-168" rx="0.036" ry="0.036"/>
</g>
<!-- R_1&#45;&gt;pRBE2Fcomplexassociation_1_intermediate_r -->
<g id="edge56" class="edge"><title>R_1&#45;&gt;pRBE2Fcomplexassociation_1_intermediate_r</title>
<path fill="none" stroke="black" d="M232.003,-168C257.685,-168 292.729,-168 294.895,-168"/>
</g>
<!-- R_1&#45;&gt;pRBE2Fcomplexassociation_1_intermediate_m -->
<g id="edge66" class="edge"><title>R_1&#45;&gt;pRBE2Fcomplexassociation_1_intermediate_m</title>
<path fill="none" stroke="black" d="M232.022,-157.792C263.485,-146.84 317.244,-131 365,-131 365,-131 365,-131 435,-131 502.999,-131 586.35,-151.349 588.938,-151.985"/>
</g>
<!-- X_1 -->
<g id="node5" class="node"><title>X_1</title>
<ellipse fill="none" stroke="black" cx="653" cy="-302" rx="27" ry="18"/>
<text text-anchor="middle" x="653" y="-299.5" font-family="Times Roman,serif" font-size="10.00">X</text>
</g>
<!-- X_1&#45;&gt;cycECDK2degradation_1_intermediate_m -->
<g id="edge40" class="edge"><title>X_1&#45;&gt;cycECDK2degradation_1_intermediate_m</title>
<path fill="none" stroke="black" d="M678.493,-308.65C737.44,-324.028 878.501,-360.826 882.895,-361.973"/>
</g>
<!-- pRBpdephosphorylation_1_intermediate_m -->
<g id="node49" class="node"><title>pRBpdephosphorylation_1_intermediate_m</title>
<ellipse fill="black" stroke="black" cx="743" cy="-409" rx="0.036" ry="0.036"/>
</g>
<!-- X_1&#45;&gt;pRBpdephosphorylation_1_intermediate_m -->
<g id="edge52" class="edge"><title>X_1&#45;&gt;pRBpdephosphorylation_1_intermediate_m</title>
<path fill="none" stroke="black" d="M669.324,-316.65C673.083,-320.46 676.887,-324.706 680,-329 700.768,-357.644 689.207,-376.894 716,-400 725.28,-408.003 741.919,-408.946 742.95,-408.998"/>
</g>
<!-- X_1&#45;&gt;cycleprogression_1_intermediate_m -->
<g id="edge106" class="edge"><title>X_1&#45;&gt;cycleprogression_1_intermediate_m</title>
<path fill="none" stroke="black" d="M666.684,-286.409C678.775,-273.238 697.341,-254.429 716,-241 726.629,-233.351 742.003,-227.383 742.954,-227.018"/>
</g>
<!-- cyclebreak_1_intermediate_r -->
<g id="node97" class="node"><title>cyclebreak_1_intermediate_r</title>
<ellipse fill="black" stroke="black" cx="743" cy="-294" rx="0.036" ry="0.036"/>
</g>
<!-- X_1&#45;&gt;cyclebreak_1_intermediate_r -->
<g id="edge110" class="edge"><title>X_1&#45;&gt;cyclebreak_1_intermediate_r</title>
<path fill="none" stroke="black" d="M680.003,-299.6C705.685,-297.317 740.729,-294.202 742.895,-294.009"/>
</g>
<!-- cyclebreak_1_intermediate_m -->
<g id="node102" class="node"><title>cyclebreak_1_intermediate_m</title>
<ellipse fill="black" stroke="black" cx="883" cy="-255" rx="0.036" ry="0.036"/>
</g>
<!-- X_1&#45;&gt;cyclebreak_1_intermediate_m -->
<g id="edge116" class="edge"><title>X_1&#45;&gt;cyclebreak_1_intermediate_m</title>
<path fill="none" stroke="black" d="M678.016,-294.72C689.527,-291.507 703.398,-287.827 716,-285 788.432,-268.753 880.086,-255.422 882.932,-255.01"/>
</g>
<!-- E2F_1 -->
<g id="node6" class="node"><title>E2F_1</title>
<polyline fill="none" stroke="black" points="540,-233 510,-233 "/>
<path fill="none" stroke="black" d="M510,-233C504,-233 498,-227 498,-221"/>
<polyline fill="none" stroke="black" points="498,-221 498,-209 "/>
<path fill="none" stroke="black" d="M498,-209C498,-203 504,-197 510,-197"/>
<polyline fill="none" stroke="black" points="510,-197 540,-197 "/>
<path fill="none" stroke="black" d="M540,-197C546,-197 552,-203 552,-209"/>
<polyline fill="none" stroke="black" points="552,-209 552,-221 "/>
<path fill="none" stroke="black" d="M552,-221C552,-227 546,-233 540,-233"/>
<text text-anchor="middle" x="525" y="-212.5" font-family="Times Roman,serif" font-size="10.00">E2F</text>
</g>
<!-- cyclin_1_intermediate_m -->
<g id="node30" class="node"><title>cyclin_1_intermediate_m</title>
<ellipse fill="black" stroke="black" cx="589" cy="-221" rx="0.036" ry="0.036"/>
</g>
<!-- E2F_1&#45;&gt;cyclin_1_intermediate_m -->
<g id="edge28" class="edge"><title>E2F_1&#45;&gt;cyclin_1_intermediate_m</title>
<path fill="none" stroke="black" d="M552.142,-217.545C569.04,-219.129 587.788,-220.886 588.944,-220.995"/>
</g>
<!-- E2F_1&#45;&gt;pRBE2Fcomplexassociation_1_intermediate_m -->
<g id="edge68" class="edge"><title>E2F_1&#45;&gt;pRBE2Fcomplexassociation_1_intermediate_m</title>
<path fill="none" stroke="black" d="M543.511,-196.778C561.822,-178.753 587.346,-153.628 588.923,-152.076"/>
</g>
<!-- E2F_1&#45;&gt;cycleprogression_1_intermediate_m -->
<g id="edge104" class="edge"><title>E2F_1&#45;&gt;cycleprogression_1_intermediate_m</title>
<path fill="none" stroke="black" d="M552.279,-213.417C563.359,-212.849 576.287,-212.279 588,-212 656.11,-210.379 740.323,-226.484 742.938,-226.988"/>
</g>
<!-- RP_1 -->
<g id="node7" class="node"><title>RP_1</title>
<polyline fill="none" stroke="black" points="668,-466 638,-466 "/>
<path fill="none" stroke="black" d="M638,-466C632,-466 626,-460 626,-454"/>
<polyline fill="none" stroke="black" points="626,-454 626,-442 "/>
<path fill="none" stroke="black" d="M626,-442C626,-436 632,-430 638,-430"/>
<polyline fill="none" stroke="black" points="638,-430 668,-430 "/>
<path fill="none" stroke="black" d="M668,-430C674,-430 680,-436 680,-442"/>
<polyline fill="none" stroke="black" points="680,-442 680,-454 "/>
<path fill="none" stroke="black" d="M680,-454C680,-460 674,-466 668,-466"/>
<text text-anchor="middle" x="653" y="-445.5" font-family="Times Roman,serif" font-size="10.00">RP</text>
</g>
<!-- RP_1&#45;&gt;pRBpdephosphorylation_1_intermediate_m -->
<g id="edge50" class="edge"><title>RP_1&#45;&gt;pRBpdephosphorylation_1_intermediate_m</title>
<path fill="none" stroke="black" d="M680.003,-436.299C705.685,-425.17 740.729,-409.984 742.895,-409.046"/>
</g>
<!-- _1 -->
<g id="node8" class="node"><title>_1</title>
<polygon fill="none" stroke="black" points="372,-501 358,-501 358,-487 372,-487 372,-501"/>
</g>
<!-- _1_intermediate_p -->
<g id="node11" class="node"><title>_1_intermediate_p</title>
<ellipse fill="black" stroke="black" cx="435" cy="-494" rx="0.036" ry="0.036"/>
</g>
<!-- _1&#45;&gt;_1_intermediate_p -->
<g id="edge4" class="edge"><title>_1&#45;&gt;_1_intermediate_p</title>
<path fill="none" stroke="black" d="M372.228,-494C389.554,-494 432.221,-494 434.871,-494"/>
</g>
<!-- _1_empty -->
<g id="node9" class="node"><title>_1_empty</title>
<text text-anchor="middle" x="295" y="-489.5" font-family="Times Roman,serif" font-size="15.00" fill="blue">Ø</text>
</g>
<!-- _1_empty&#45;&gt;_1 -->
<g id="edge2" class="edge"><title>_1_empty&#45;&gt;_1</title>
<path fill="none" stroke="black" d="M322.264,-494C335.163,-494 349.537,-494 357.895,-494"/>
</g>
<!-- _1_intermediate_p&#45;&gt;D_1 -->
<g id="edge6" class="edge"><title>_1_intermediate_p&#45;&gt;D_1</title>
<path fill="none" stroke="black" d="M435.065,-494C436.565,-494 463.648,-494 487.704,-494"/>
<polygon fill="black" stroke="black" points="487.745,-497.5 497.745,-494 487.745,-490.5 487.745,-497.5"/>
</g>
<!-- cyclinCDK4degradation_1 -->
<g id="node14" class="node"><title>cyclinCDK4degradation_1</title>
<polygon fill="none" stroke="black" points="660,-536 646,-536 646,-522 660,-522 660,-536"/>
</g>
<!-- cyclinCDK4degradation_1_empty -->
<g id="node18" class="node"><title>cyclinCDK4degradation_1_empty</title>
<text text-anchor="middle" x="743" y="-524.5" font-family="Times Roman,serif" font-size="15.00" fill="blue">Ø</text>
</g>
<!-- cyclinCDK4degradation_1&#45;&gt;cyclinCDK4degradation_1_empty -->
<g id="edge12" class="edge"><title>cyclinCDK4degradation_1&#45;&gt;cyclinCDK4degradation_1_empty</title>
<path fill="none" stroke="black" d="M660.062,-529C669.877,-529 688.359,-529 705.389,-529"/>
<polygon fill="black" stroke="black" points="705.715,-532.5 715.715,-529 705.715,-525.5 705.715,-532.5"/>
</g>
<!-- cyclinCDK4degradation_1&#45;&gt;cyclinCDK4degradation_1_intermediate_m -->
<g id="edge14" class="edge"><title>cyclinCDK4degradation_1&#45;&gt;cyclinCDK4degradation_1_intermediate_m</title>
<path fill="none" stroke="black" d="M671.425,-520.624C683.899,-515.072 700.81,-507.775 716,-502 727.454,-497.645 742.055,-493.282 742.956,-493.013"/>
<polygon fill="none" stroke="black" points="671.231,-520.711 667.404,-526.823 660.29,-525.641 664.118,-519.529 671.231,-520.711"/>
</g>
<!-- cyclinCDK4degradation_1_intermediate_r&#45;&gt;cyclinCDK4degradation_1 -->
<g id="edge8" class="edge"><title>cyclinCDK4degradation_1_intermediate_r&#45;&gt;cyclinCDK4degradation_1</title>
<path fill="none" stroke="black" d="M589.046,-525.003C590.576,-525.098 629.51,-527.532 645.868,-528.554"/>
</g>
<!-- cyclin_1 -->
<g id="node24" class="node"><title>cyclin_1</title>
<polygon fill="none" stroke="black" points="532,-309 518,-309 518,-295 532,-295 532,-309"/>
</g>
<!-- cyclin_1_intermediate_p -->
<g id="node27" class="node"><title>cyclin_1_intermediate_p</title>
<ellipse fill="black" stroke="black" cx="589" cy="-302" rx="0.036" ry="0.036"/>
</g>
<!-- cyclin_1&#45;&gt;cyclin_1_intermediate_p -->
<g id="edge22" class="edge"><title>cyclin_1&#45;&gt;cyclin_1_intermediate_p</title>
<path fill="none" stroke="black" d="M532.342,-302C548.627,-302 586.532,-302 588.885,-302"/>
</g>
<!-- cyclin_1&#45;&gt;cyclin_1_intermediate_m -->
<g id="edge26" class="edge"><title>cyclin_1&#45;&gt;cyclin_1_intermediate_m</title>
<path fill="none" stroke="black" d="M541.048,-286.225C544.767,-282.337 548.622,-278.107 552,-274 569.679,-252.507 587.829,-222.917 588.946,-221.089"/>
<polygon fill="none" stroke="black" points="540.878,-286.397 539.499,-293.475 532.435,-294.924 533.814,-287.846 540.878,-286.397"/>
</g>
<!-- cyclin_1_empty -->
<g id="node25" class="node"><title>cyclin_1_empty</title>
<text text-anchor="middle" x="435" y="-302.5" font-family="Times Roman,serif" font-size="15.00" fill="blue">Ø</text>
</g>
<!-- cyclin_1_empty&#45;&gt;cyclin_1 -->
<g id="edge20" class="edge"><title>cyclin_1_empty&#45;&gt;cyclin_1</title>
<path fill="none" stroke="black" d="M462.003,-305.5C481.264,-304.43 505.792,-303.067 517.766,-302.402"/>
</g>
<!-- cyclin_1_intermediate_p&#45;&gt;E_1 -->
<g id="edge24" class="edge"><title>cyclin_1_intermediate_p&#45;&gt;E_1</title>
<path fill="none" stroke="black" d="M589.046,-302.039C590.055,-302.89 607.328,-317.465 623.668,-331.251"/>
<polygon fill="black" stroke="black" points="621.639,-334.118 631.539,-337.892 626.153,-328.768 621.639,-334.118"/>
</g>
<!-- cycECDK2degradation_1 -->
<g id="node33" class="node"><title>cycECDK2degradation_1</title>
<polygon fill="none" stroke="black" points="820,-405 806,-405 806,-391 820,-391 820,-405"/>
</g>
<!-- cycECDK2degradation_1_empty -->
<g id="node37" class="node"><title>cycECDK2degradation_1_empty</title>
<text text-anchor="middle" x="883" y="-393.5" font-family="Times Roman,serif" font-size="15.00" fill="blue">Ø</text>
</g>
<!-- cycECDK2degradation_1&#45;&gt;cycECDK2degradation_1_empty -->
<g id="edge34" class="edge"><title>cycECDK2degradation_1&#45;&gt;cycECDK2degradation_1_empty</title>
<path fill="none" stroke="black" d="M820.228,-398C826.45,-398 835.94,-398 845.672,-398"/>
<polygon fill="black" stroke="black" points="845.773,-401.5 855.773,-398 845.773,-394.5 845.773,-401.5"/>
</g>
<!-- cycECDK2degradation_1&#45;&gt;cycECDK2degradation_1_intermediate_m -->
<g id="edge36" class="edge"><title>cycECDK2degradation_1&#45;&gt;cycECDK2degradation_1_intermediate_m</title>
<path fill="none" stroke="black" d="M830.127,-385.924C837.799,-380.867 847.108,-375.2 856,-371 867.08,-365.767 882.031,-362.227 882.955,-362.01"/>
<polygon fill="none" stroke="black" points="829.901,-386.079 827.214,-392.771 820.003,-392.864 822.69,-386.172 829.901,-386.079"/>
</g>
<!-- cycECDK2degradation_1_intermediate_r&#45;&gt;cycECDK2degradation_1 -->
<g id="edge30" class="edge"><title>cycECDK2degradation_1_intermediate_r&#45;&gt;cycECDK2degradation_1</title>
<path fill="none" stroke="black" d="M743.051,-391.005C744.748,-391.175 788.582,-395.558 805.98,-397.298"/>
</g>
<!-- pRBpdephosphorylation_1 -->
<g id="node43" class="node"><title>pRBpdephosphorylation_1</title>
<polygon fill="none" stroke="black" points="104,-345 90,-345 90,-331 104,-331 104,-345"/>
</g>
<!-- pRBpdephosphorylation_1_intermediate_p -->
<g id="node46" class="node"><title>pRBpdephosphorylation_1_intermediate_p</title>
<ellipse fill="black" stroke="black" cx="141" cy="-274" rx="0.036" ry="0.036"/>
</g>
<!-- pRBpdephosphorylation_1&#45;&gt;pRBpdephosphorylation_1_intermediate_p -->
<g id="edge44" class="edge"><title>pRBpdephosphorylation_1&#45;&gt;pRBpdephosphorylation_1_intermediate_p</title>
<path fill="none" stroke="black" d="M102.047,-330.658C113.244,-314.373 139.303,-276.468 140.921,-274.115"/>
</g>
<!-- pRBpdephosphorylation_1&#45;&gt;pRBpdephosphorylation_1_intermediate_m -->
<g id="edge48" class="edge"><title>pRBpdephosphorylation_1&#45;&gt;pRBpdephosphorylation_1_intermediate_m</title>
<path fill="none" stroke="black" d="M112.139,-354.145C131.64,-373.104 167.509,-402 205,-402 205,-402 205,-402 589,-402 656.445,-402 740.333,-408.783 742.938,-408.995"/>
<polygon fill="none" stroke="black" points="111.911,-353.912 104.855,-352.427 103.512,-345.342 110.569,-346.827 111.911,-353.912"/>
</g>
<!-- pRBpdephosphorylation_1_empty -->
<g id="node44" class="node"><title>pRBpdephosphorylation_1_empty</title>
<text text-anchor="middle" x="27" y="-333.5" font-family="Times Roman,serif" font-size="15.00" fill="blue">Ø</text>
</g>
<!-- pRBpdephosphorylation_1_empty&#45;&gt;pRBpdephosphorylation_1 -->
<g id="edge42" class="edge"><title>pRBpdephosphorylation_1_empty&#45;&gt;pRBpdephosphorylation_1</title>
<path fill="none" stroke="black" d="M54.2643,-338C67.1627,-338 81.5367,-338 89.8947,-338"/>
</g>
<!-- pRBpdephosphorylation_1_intermediate_p&#45;&gt;R_1 -->
<g id="edge46" class="edge"><title>pRBpdephosphorylation_1_intermediate_p&#45;&gt;R_1</title>
<path fill="none" stroke="black" d="M141.046,-273.923C142.335,-271.789 170.178,-225.673 188.698,-195.001"/>
<polygon fill="black" stroke="black" points="191.702,-196.796 193.875,-186.426 185.71,-193.178 191.702,-196.796"/>
</g>
<!-- pRBE2Fcomplexassociation_1 -->
<g id="node53" class="node"><title>pRBE2Fcomplexassociation_1</title>
<polygon fill="none" stroke="black" points="372,-175 358,-175 358,-161 372,-161 372,-175"/>
</g>
<!-- pRBE2Fcomplexassociation_1_intermediate_p -->
<g id="node57" class="node"><title>pRBE2Fcomplexassociation_1_intermediate_p</title>
<ellipse fill="black" stroke="black" cx="435" cy="-94" rx="0.036" ry="0.036"/>
</g>
<!-- pRBE2Fcomplexassociation_1&#45;&gt;pRBE2Fcomplexassociation_1_intermediate_p -->
<g id="edge58" class="edge"><title>pRBE2Fcomplexassociation_1&#45;&gt;pRBE2Fcomplexassociation_1_intermediate_p</title>
<path fill="none" stroke="black" d="M371.712,-160.905C388.685,-142.962 432.167,-96.9948 434.868,-94.1394"/>
</g>
<!-- pRBE2Fcomplexassociation_1&#45;&gt;pRBE2Fcomplexassociation_1_intermediate_m -->
<g id="edge62" class="edge"><title>pRBE2Fcomplexassociation_1&#45;&gt;pRBE2Fcomplexassociation_1_intermediate_m</title>
<path fill="none" stroke="black" d="M384.76,-166.589C438.552,-162.746 583.934,-152.362 588.871,-152.009"/>
<polygon fill="none" stroke="black" points="384.422,-166.613 378.723,-171.03 372.453,-167.468 378.153,-163.05 384.422,-166.613"/>
</g>
<!-- pRBE2Fcomplexassociation_1_intermediate_r&#45;&gt;pRBE2Fcomplexassociation_1 -->
<g id="edge54" class="edge"><title>pRBE2Fcomplexassociation_1_intermediate_r&#45;&gt;pRBE2Fcomplexassociation_1</title>
<path fill="none" stroke="black" d="M295.051,-168C296.748,-168 340.582,-168 357.98,-168"/>
</g>
<!-- pRBE2Fcomplexassociation_1_intermediate_p&#45;&gt;RS_1 -->
<g id="edge60" class="edge"><title>pRBE2Fcomplexassociation_1_intermediate_p&#45;&gt;RS_1</title>
<path fill="none" stroke="black" d="M435.065,-93.9935C436.565,-93.8435 463.648,-91.1352 487.704,-88.7296"/>
<polygon fill="black" stroke="black" points="488.143,-92.2032 497.745,-87.7255 487.446,-85.238 488.143,-92.2032"/>
</g>
<!-- pRBE2FcomplexdeassociationviacycDCDK4_1 -->
<g id="node65" class="node"><title>pRBE2FcomplexdeassociationviacycDCDK4_1</title>
<polygon fill="none" stroke="black" points="660,-96 646,-96 646,-82 660,-82 660,-96"/>
</g>
<!-- pRBE2FcomplexdeassociationviacycDCDK4_1_empty -->
<g id="node69" class="node"><title>pRBE2FcomplexdeassociationviacycDCDK4_1_empty</title>
<text text-anchor="middle" x="743" y="-85.5" font-family="Times Roman,serif" font-size="15.00" fill="blue">Ø</text>
</g>
<!-- pRBE2FcomplexdeassociationviacycDCDK4_1&#45;&gt;pRBE2FcomplexdeassociationviacycDCDK4_1_empty -->
<g id="edge74" class="edge"><title>pRBE2FcomplexdeassociationviacycDCDK4_1&#45;&gt;pRBE2FcomplexdeassociationviacycDCDK4_1_empty</title>
<path fill="none" stroke="black" d="M660.062,-89.0785C669.877,-89.1875 688.359,-89.3929 705.389,-89.5821"/>
<polygon fill="black" stroke="black" points="705.676,-93.0854 715.715,-89.6968 705.754,-86.0858 705.676,-93.0854"/>
</g>
<!-- pRBE2FcomplexdeassociationviacycDCDK4_1&#45;&gt;pRBE2FcomplexdeassociationviacycDCDK4_1_intermediate_m -->
<g id="edge76" class="edge"><title>pRBE2FcomplexdeassociationviacycDCDK4_1&#45;&gt;pRBE2FcomplexdeassociationviacycDCDK4_1_intermediate_m</title>
<path fill="none" stroke="black" d="M671.393,-97.7377C683.853,-103.517 700.761,-111.089 716,-117 727.425,-121.431 742.053,-125.723 742.956,-125.987"/>
<polygon fill="none" stroke="black" points="671.134,-97.6159 664.002,-98.6821 660.274,-92.5089 667.406,-91.4427 671.134,-97.6159"/>
</g>
<!-- pRBE2FcomplexdeassociationviacycDCDK4_1_intermediate_r&#45;&gt;pRBE2FcomplexdeassociationviacycDCDK4_1 -->
<g id="edge70" class="edge"><title>pRBE2FcomplexdeassociationviacycDCDK4_1_intermediate_r&#45;&gt;pRBE2FcomplexdeassociationviacycDCDK4_1</title>
<path fill="none" stroke="black" d="M589.046,-86.0022C590.576,-86.0739 629.51,-87.8989 645.868,-88.6657"/>
</g>
<!-- _7 -->
<g id="node75" class="node"><title>_7</title>
<polygon fill="none" stroke="black" points="660,-26 646,-26 646,-12 660,-12 660,-26"/>
</g>
<!-- _7_empty -->
<g id="node79" class="node"><title>_7_empty</title>
<text text-anchor="middle" x="743" y="-13.5" font-family="Times Roman,serif" font-size="15.00" fill="blue">Ø</text>
</g>
<!-- _7&#45;&gt;_7_empty -->
<g id="edge86" class="edge"><title>_7&#45;&gt;_7_empty</title>
<path fill="none" stroke="black" d="M660.062,-18.9215C669.877,-18.8125 688.359,-18.6071 705.389,-18.4179"/>
<polygon fill="black" stroke="black" points="705.754,-21.9142 715.715,-18.3032 705.676,-14.9146 705.754,-21.9142"/>
</g>
<!-- _7&#45;&gt;_7_intermediate_m -->
<g id="edge88" class="edge"><title>_7&#45;&gt;_7_intermediate_m</title>
<path fill="none" stroke="black" d="M671.456,-27.0142C683.943,-32.3382 700.858,-39.3596 716,-45 727.483,-49.2774 742.057,-53.7136 742.956,-53.9867"/>
<polygon fill="none" stroke="black" points="671.326,-26.9583 664.233,-28.2574 660.306,-22.2096 667.399,-20.9105 671.326,-26.9583"/>
</g>
<!-- _7_intermediate_r&#45;&gt;_7 -->
<g id="edge82" class="edge"><title>_7_intermediate_r&#45;&gt;_7</title>
<path fill="none" stroke="black" d="M589.046,-22.9971C590.576,-22.9015 629.51,-20.4681 645.868,-19.4458"/>
</g>
<!-- cycleprogression_1 -->
<g id="node85" class="node"><title>cycleprogression_1</title>
<polygon fill="none" stroke="black" points="532,-265 518,-265 518,-251 532,-251 532,-265"/>
</g>
<!-- cycleprogression_1_intermediate_p -->
<g id="node88" class="node"><title>cycleprogression_1_intermediate_p</title>
<ellipse fill="black" stroke="black" cx="589" cy="-284" rx="0.036" ry="0.036"/>
</g>
<!-- cycleprogression_1&#45;&gt;cycleprogression_1_intermediate_p -->
<g id="edge96" class="edge"><title>cycleprogression_1&#45;&gt;cycleprogression_1_intermediate_p</title>
<path fill="none" stroke="black" d="M532.342,-260.983C548.627,-267.598 586.532,-282.997 588.885,-283.953"/>
</g>
<!-- cycleprogression_1&#45;&gt;cycleprogression_1_intermediate_m -->
<g id="edge100" class="edge"><title>cycleprogression_1&#45;&gt;cycleprogression_1_intermediate_m</title>
<path fill="none" stroke="black" d="M544.231,-255.265C596.582,-247.821 738.07,-227.701 742.875,-227.018"/>
<polygon fill="none" stroke="black" points="544.134,-255.279 538.757,-260.084 532.253,-256.969 537.63,-252.164 544.134,-255.279"/>
</g>
<!-- cycleprogression_1_empty -->
<g id="node86" class="node"><title>cycleprogression_1_empty</title>
<text text-anchor="middle" x="435" y="-248.5" font-family="Times Roman,serif" font-size="15.00" fill="blue">Ø</text>
</g>
<!-- cycleprogression_1_empty&#45;&gt;cycleprogression_1 -->
<g id="edge94" class="edge"><title>cycleprogression_1_empty&#45;&gt;cycleprogression_1</title>
<path fill="none" stroke="black" d="M462.003,-254.5C481.264,-255.57 505.792,-256.933 517.766,-257.598"/>
</g>
<!-- cycleprogression_1_intermediate_p&#45;&gt;X_1 -->
<g id="edge98" class="edge"><title>cycleprogression_1_intermediate_p&#45;&gt;X_1</title>
<path fill="none" stroke="black" d="M589.046,-284.013C589.938,-284.264 603.554,-288.093 617.993,-292.154"/>
<polygon fill="black" stroke="black" points="617.401,-295.624 627.975,-294.962 619.296,-288.885 617.401,-295.624"/>
</g>
<!-- cyclebreak_1 -->
<g id="node96" class="node"><title>cyclebreak_1</title>
<polygon fill="none" stroke="black" points="820,-297 806,-297 806,-283 820,-283 820,-297"/>
</g>
<!-- cyclebreak_1_empty -->
<g id="node100" class="node"><title>cyclebreak_1_empty</title>
<text text-anchor="middle" x="883" y="-286.5" font-family="Times Roman,serif" font-size="15.00" fill="blue">Ø</text>
</g>
<!-- cyclebreak_1&#45;&gt;cyclebreak_1_empty -->
<g id="edge112" class="edge"><title>cyclebreak_1&#45;&gt;cyclebreak_1_empty</title>
<path fill="none" stroke="black" d="M820.228,-290.103C826.45,-290.192 835.94,-290.328 845.672,-290.467"/>
<polygon fill="black" stroke="black" points="845.724,-293.968 855.773,-290.611 845.824,-286.968 845.724,-293.968"/>
</g>
<!-- cyclebreak_1&#45;&gt;cyclebreak_1_intermediate_m -->
<g id="edge114" class="edge"><title>cyclebreak_1&#45;&gt;cyclebreak_1_intermediate_m</title>
<path fill="none" stroke="black" d="M830.181,-278.408C837.864,-273.544 847.165,-268.082 856,-264 867.124,-258.861 882.034,-255.233 882.955,-255.011"/>
<polygon fill="none" stroke="black" points="830.063,-278.485 827.244,-285.123 820.034,-285.074 822.852,-278.437 830.063,-278.485"/>
</g>
<!-- cyclebreak_1_intermediate_r&#45;&gt;cyclebreak_1 -->
<g id="edge108" class="edge"><title>cyclebreak_1_intermediate_r&#45;&gt;cyclebreak_1</title>
<path fill="none" stroke="black" d="M743.051,-293.997C744.748,-293.9 788.582,-291.395 805.98,-290.401"/>
</g>
</g>
</svg>
