<?xml version="1.0" encoding="UTF-8" standalone="no"?>
<!DOCTYPE svg PUBLIC "-//W3C//DTD SVG 1.1//EN"
 "http://www.w3.org/Graphics/SVG/1.1/DTD/svg11.dtd">
<!-- Generated by graphviz version 2.30.1 (20140821.0912)
 -->
<!-- Title: G Pages: 1 -->
<svg width="870pt" height="244pt"
 viewBox="0.00 0.00 870.00 244.00" xmlns="http://www.w3.org/2000/svg" xmlns:xlink="http://www.w3.org/1999/xlink">
<g id="graph0" class="graph" transform="scale(1 1) rotate(0) translate(4 240)">
<title>G</title>
<polygon fill="white" stroke="white" points="-4,5 -4,-240 867,-240 867,5 -4,5"/>
<!-- A_dopa -->
<g id="A_dopa [CHEBI:15765]" class="node"><title>A_dopa</title>
<ellipse fill="none" stroke="black" cx="30" cy="-33" rx="29.3664" ry="18"/>
<text text-anchor="middle" x="30" y="-30.5" font-family="Times,serif" font-size="10.00">A_dopa</text>
</g>
<!-- l_dopa_absorption_intermediate_r -->
<g id="node11" class="node"><title>l_dopa_absorption_intermediate_r</title>
<ellipse fill="black" stroke="black" cx="96" cy="-44" rx="0.036" ry="0.036"/>
</g>
<!-- A_dopa&#45;&gt;l_dopa_absorption_intermediate_r -->
<g id="edge2" class="edge"><title>A_dopa&#45;&gt;l_dopa_absorption_intermediate_r</title>
<path fill="none" stroke="black" d="M58.5132,-37.7288C75.3173,-40.617 93.8055,-43.7947 94.9446,-43.9905"/>
</g>
<!-- l_dopa_blood_hepa_clearance_intermediate_r -->
<g id="node14" class="node"><title>l_dopa_blood_hepa_clearance_intermediate_r</title>
<ellipse fill="black" stroke="black" cx="96" cy="-22" rx="0.036" ry="0.036"/>
</g>
<!-- A_dopa&#45;&gt;l_dopa_blood_hepa_clearance_intermediate_r -->
<g id="edge6" class="edge"><title>A_dopa&#45;&gt;l_dopa_blood_hepa_clearance_intermediate_r</title>
<path fill="none" stroke="black" d="M58.5132,-28.2712C75.3173,-25.383 93.8055,-22.2053 94.9446,-22.0095"/>
</g>
<!-- A_B -->
<g id="A_B" class="node"><title>A_B</title>
<ellipse fill="none" stroke="black" cx="30" cy="-162" rx="27" ry="18"/>
<text text-anchor="middle" x="30" y="-159.5" font-family="Times,serif" font-size="10.00">A_B</text>
</g>
<!-- benserazide_absorption_intermediate_r -->
<g id="node20" class="node"><title>benserazide_absorption_intermediate_r</title>
<ellipse fill="black" stroke="black" cx="96" cy="-178" rx="0.036" ry="0.036"/>
</g>
<!-- A_B&#45;&gt;benserazide_absorption_intermediate_r -->
<g id="edge13" class="edge"><title>A_B&#45;&gt;benserazide_absorption_intermediate_r</title>
<path fill="none" stroke="black" d="M55.561,-168.14C73.0454,-172.511 93.6663,-177.667 94.9381,-177.985"/>
</g>
<!-- benserazide_gut_clearance_intermediate_r -->
<g id="node23" class="node"><title>benserazide_gut_clearance_intermediate_r</title>
<ellipse fill="black" stroke="black" cx="96" cy="-153" rx="0.036" ry="0.036"/>
</g>
<!-- A_B&#45;&gt;benserazide_gut_clearance_intermediate_r -->
<g id="edge17" class="edge"><title>A_B&#45;&gt;benserazide_gut_clearance_intermediate_r</title>
<path fill="none" stroke="black" d="M56.6625,-158.391C73.9114,-155.966 93.7194,-153.18 94.9406,-153.008"/>
</g>
<!-- A_M -->
<g id="A_M [CHEBI:25212]" class="node"><title>A_M</title>
<ellipse fill="none" stroke="black" cx="301" cy="-119" rx="18" ry="18"/>
<text text-anchor="middle" x="301" y="-116.5" font-family="Times,serif" font-size="10.00">A_M</text>
</g>
<!-- ro_04_5127_absorption_intermediate_r -->
<g id="node17" class="node"><title>ro_04_5127_absorption_intermediate_r</title>
<ellipse fill="black" stroke="black" cx="366" cy="-119" rx="0.036" ry="0.036"/>
</g>
<!-- A_M&#45;&gt;ro_04_5127_absorption_intermediate_r -->
<g id="edge9" class="edge"><title>A_M&#45;&gt;ro_04_5127_absorption_intermediate_r</title>
<path fill="none" stroke="black" d="M319.215,-119C337.285,-119 363.313,-119 364.922,-119"/>
</g>
<!-- C_dopa -->
<g id="C_dopa [CHEBI:15765]" class="node"><title>C_dopa</title>
<ellipse fill="none" stroke="black" cx="301" cy="-54" rx="28.6898" ry="18"/>
<text text-anchor="middle" x="301" y="-51.5" font-family="Times,serif" font-size="10.00">C_dopa</text>
</g>
<!-- AADC_clearance_intermediate_r -->
<g id="node26" class="node"><title>AADC_clearance_intermediate_r</title>
<ellipse fill="black" stroke="black" cx="366" cy="-80" rx="0.036" ry="0.036"/>
</g>
<!-- C_dopa&#45;&gt;AADC_clearance_intermediate_r -->
<g id="edge20" class="edge"><title>C_dopa&#45;&gt;AADC_clearance_intermediate_r</title>
<path fill="none" stroke="black" d="M325.459,-63.6814C342.811,-70.8426 363.652,-79.4436 364.937,-79.9742"/>
</g>
<!-- COMT_clearance_intermediate_r -->
<g id="node29" class="node"><title>COMT_clearance_intermediate_r</title>
<ellipse fill="black" stroke="black" cx="366" cy="-54" rx="0.036" ry="0.036"/>
</g>
<!-- C_dopa&#45;&gt;COMT_clearance_intermediate_r -->
<g id="edge23" class="edge"><title>C_dopa&#45;&gt;COMT_clearance_intermediate_r</title>
<path fill="none" stroke="black" d="M330.183,-54C346.433,-54 363.874,-54 364.948,-54"/>
</g>
<!-- rest_clearance_intermediate_r -->
<g id="node32" class="node"><title>rest_clearance_intermediate_r</title>
<ellipse fill="black" stroke="black" cx="366" cy="-29" rx="0.036" ry="0.036"/>
</g>
<!-- C_dopa&#45;&gt;rest_clearance_intermediate_r -->
<g id="edge27" class="edge"><title>C_dopa&#45;&gt;rest_clearance_intermediate_r</title>
<path fill="none" stroke="black" d="M325.818,-44.5486C343.101,-37.6902 363.67,-29.528 364.938,-29.0245"/>
</g>
<!-- C_OMD -->
<g id="C_OMD [CHEBI:25212]" class="node"><title>C_OMD</title>
<ellipse fill="none" stroke="black" cx="578" cy="-54" rx="35.8171" ry="18"/>
<text text-anchor="middle" x="578" y="-51.5" font-family="Times,serif" font-size="10.00">C_3&#45;OMD</text>
</g>
<!-- _3_OMD_clearance_intermediate_r -->
<g id="node35" class="node"><title>_3_OMD_clearance_intermediate_r</title>
<ellipse fill="black" stroke="black" cx="650" cy="-54" rx="0.036" ry="0.036"/>
</g>
<!-- C_OMD&#45;&gt;_3_OMD_clearance_intermediate_r -->
<g id="edge30" class="edge"><title>C_OMD&#45;&gt;_3_OMD_clearance_intermediate_r</title>
<path fill="none" stroke="black" d="M614,-54C630.953,-54 647.906,-54 648.949,-54"/>
</g>
<!-- C1_M -->
<g id="C1_M [CHEBI:25212]" class="node"><title>C1_M</title>
<ellipse fill="none" stroke="black" cx="578" cy="-126" rx="18" ry="18"/>
<text text-anchor="middle" x="578" y="-123.5" font-family="Times,serif" font-size="10.00">C1_M</text>
</g>
<!-- ro_clearance_intermediate_r -->
<g id="node44" class="node"><title>ro_clearance_intermediate_r</title>
<ellipse fill="black" stroke="black" cx="650" cy="-126" rx="0.036" ry="0.036"/>
</g>
<!-- C1_M&#45;&gt;ro_clearance_intermediate_r -->
<g id="edge40" class="edge"><title>C1_M&#45;&gt;ro_clearance_intermediate_r</title>
<path fill="none" stroke="black" d="M596.303,-126C616.385,-126 647.013,-126 648.908,-126"/>
</g>
<!-- ro_distribution_intermediate_r -->
<g id="node50" class="node"><title>ro_distribution_intermediate_r</title>
<ellipse fill="black" stroke="black" cx="650" cy="-102" rx="0.036" ry="0.036"/>
</g>
<!-- C1_M&#45;&gt;ro_distribution_intermediate_r -->
<g id="edge47" class="edge"><title>C1_M&#45;&gt;ro_distribution_intermediate_r</title>
<path fill="none" stroke="black" d="M595.235,-120.434C615.268,-113.565 646.944,-102.705 648.904,-102.033"/>
</g>
<!-- C2_M -->
<g id="C2_M [CHEBI:25212]" class="node"><title>C2_M</title>
<ellipse fill="none" stroke="black" cx="844" cy="-91" rx="18" ry="18"/>
<text text-anchor="middle" x="844" y="-88.5" font-family="Times,serif" font-size="10.00">C2_M</text>
</g>
<!-- C1_B -->
<g id="C1_B" class="node"><title>C1_B</title>
<ellipse fill="none" stroke="black" cx="301" cy="-183" rx="27" ry="18"/>
<text text-anchor="middle" x="301" y="-180.5" font-family="Times,serif" font-size="10.00">C1_B</text>
</g>
<!-- bens_clearance_intermediate_r -->
<g id="node38" class="node"><title>bens_clearance_intermediate_r</title>
<ellipse fill="black" stroke="black" cx="366" cy="-183" rx="0.036" ry="0.036"/>
</g>
<!-- C1_B&#45;&gt;bens_clearance_intermediate_r -->
<g id="edge33" class="edge"><title>C1_B&#45;&gt;bens_clearance_intermediate_r</title>
<path fill="none" stroke="black" d="M328.353,-183C345.077,-183 363.791,-183 364.944,-183"/>
</g>
<!-- bens_metabolism_intermediate_r -->
<g id="node41" class="node"><title>bens_metabolism_intermediate_r</title>
<ellipse fill="black" stroke="black" cx="366" cy="-158" rx="0.036" ry="0.036"/>
</g>
<!-- C1_B&#45;&gt;bens_metabolism_intermediate_r -->
<g id="edge36" class="edge"><title>C1_B&#45;&gt;bens_metabolism_intermediate_r</title>
<path fill="none" stroke="black" d="M324.744,-173.974C342.226,-167.037 363.616,-158.549 364.936,-158.026"/>
</g>
<!-- bens_distribution_intermediate_r -->
<g id="node47" class="node"><title>bens_distribution_intermediate_r</title>
<ellipse fill="black" stroke="black" cx="366" cy="-208" rx="0.036" ry="0.036"/>
</g>
<!-- C1_B&#45;&gt;bens_distribution_intermediate_r -->
<g id="edge43" class="edge"><title>C1_B&#45;&gt;bens_distribution_intermediate_r</title>
<path fill="none" stroke="black" d="M324.744,-192.026C342.226,-198.963 363.616,-207.451 364.936,-207.974"/>
</g>
<!-- C2_B -->
<g id="C2_B" class="node"><title>C2_B</title>
<ellipse fill="none" stroke="black" cx="578" cy="-218" rx="27" ry="18"/>
<text text-anchor="middle" x="578" y="-215.5" font-family="Times,serif" font-size="10.00">C2_B</text>
</g>
<!-- l_dopa_absorption -->
<g id="node10" class="node"><title>l_dopa_absorption</title>
<polygon fill="none" stroke="black" points="146,-59 132,-59 132,-45 146,-45 146,-59"/>
</g>
<!-- l_dopa_absorption_intermediate_p -->
<g id="node12" class="node"><title>l_dopa_absorption_intermediate_p</title>
<ellipse fill="black" stroke="black" cx="209" cy="-54" rx="0.036" ry="0.036"/>
</g>
<!-- l_dopa_absorption&#45;&gt;l_dopa_absorption_intermediate_p -->
<g id="edge3" class="edge"><title>l_dopa_absorption&#45;&gt;l_dopa_absorption_intermediate_p</title>
<path fill="none" stroke="black" d="M146.275,-52.1846C162.583,-52.6642 205.222,-53.9183 207.871,-53.9962"/>
</g>
<!-- l_dopa_absorption_intermediate_r&#45;&gt;l_dopa_absorption -->
<g id="edge1" class="edge"><title>l_dopa_absorption_intermediate_r&#45;&gt;l_dopa_absorption</title>
<path fill="none" stroke="black" d="M97.1176,-44.0229C98.9212,-44.3749 121.016,-48.686 131.95,-50.8196"/>
</g>
<!-- l_dopa_absorption_intermediate_p&#45;&gt;C_dopa -->
<g id="edge4" class="edge"><title>l_dopa_absorption_intermediate_p&#45;&gt;C_dopa</title>
<path fill="none" stroke="black" d="M210.065,-54C211.54,-54 237.744,-54 261.487,-54"/>
<polygon fill="black" stroke="black" points="261.778,-57.5001 271.778,-54 261.778,-50.5001 261.778,-57.5001"/>
</g>
<!-- l_dopa_blood_hepa_clearance -->
<g id="node13" class="node"><title>l_dopa_blood_hepa_clearance</title>
<polygon fill="none" stroke="black" points="146,-26 132,-26 132,-12 146,-12 146,-26"/>
</g>
<!-- l_dopa_blood_hepa_clearance_empty -->
<g id="node15" class="node"><title>l_dopa_blood_hepa_clearance_empty</title>
<text text-anchor="middle" x="209" y="-14.5" font-family="Times,serif" font-size="15.00" fill="blue">Ø</text>
</g>
<!-- l_dopa_blood_hepa_clearance&#45;&gt;l_dopa_blood_hepa_clearance_empty -->
<g id="edge7" class="edge"><title>l_dopa_blood_hepa_clearance&#45;&gt;l_dopa_blood_hepa_clearance_empty</title>
<path fill="none" stroke="black" d="M146.275,-18.9077C152.278,-18.8194 161.849,-18.6787 171.68,-18.5341"/>
<polygon fill="black" stroke="black" points="171.932,-22.0309 181.88,-18.3841 171.829,-15.0316 171.932,-22.0309"/>
</g>
<!-- l_dopa_blood_hepa_clearance_intermediate_r&#45;&gt;l_dopa_blood_hepa_clearance -->
<g id="edge5" class="edge"><title>l_dopa_blood_hepa_clearance_intermediate_r&#45;&gt;l_dopa_blood_hepa_clearance</title>
<path fill="none" stroke="black" d="M97.1176,-21.9914C98.9212,-21.8594 121.016,-20.2427 131.95,-19.4427"/>
</g>
<!-- ro_04_5127_absorption -->
<g id="node16" class="node"><title>ro_04_5127_absorption</title>
<polygon fill="none" stroke="black" points="416,-126 402,-126 402,-112 416,-112 416,-126"/>
</g>
<!-- ro_04_5127_absorption_intermediate_p -->
<g id="node18" class="node"><title>ro_04_5127_absorption_intermediate_p</title>
<ellipse fill="black" stroke="black" cx="479" cy="-126" rx="0.036" ry="0.036"/>
</g>
<!-- ro_04_5127_absorption&#45;&gt;ro_04_5127_absorption_intermediate_p -->
<g id="edge10" class="edge"><title>ro_04_5127_absorption&#45;&gt;ro_04_5127_absorption_intermediate_p</title>
<path fill="none" stroke="black" d="M416.275,-119.646C432.583,-121.325 475.222,-125.714 477.871,-125.987"/>
</g>
<!-- ro_04_5127_absorption_intermediate_r&#45;&gt;ro_04_5127_absorption -->
<g id="edge8" class="edge"><title>ro_04_5127_absorption_intermediate_r&#45;&gt;ro_04_5127_absorption</title>
<path fill="none" stroke="black" d="M367.118,-119C368.921,-119 391.016,-119 401.95,-119"/>
</g>
<!-- ro_04_5127_absorption_intermediate_p&#45;&gt;C1_M -->
<g id="edge11" class="edge"><title>ro_04_5127_absorption_intermediate_p&#45;&gt;C1_M</title>
<path fill="none" stroke="black" d="M480.07,-126C481.963,-126 521.649,-126 549.646,-126"/>
<polygon fill="black" stroke="black" points="549.7,-129.5 559.7,-126 549.7,-122.5 549.7,-129.5"/>
</g>
<!-- benserazide_absorption -->
<g id="node19" class="node"><title>benserazide_absorption</title>
<polygon fill="none" stroke="black" points="146,-189 132,-189 132,-175 146,-175 146,-189"/>
</g>
<!-- benserazide_absorption_intermediate_p -->
<g id="node21" class="node"><title>benserazide_absorption_intermediate_p</title>
<ellipse fill="black" stroke="black" cx="209" cy="-183" rx="0.036" ry="0.036"/>
</g>
<!-- benserazide_absorption&#45;&gt;benserazide_absorption_intermediate_p -->
<g id="edge14" class="edge"><title>benserazide_absorption&#45;&gt;benserazide_absorption_intermediate_p</title>
<path fill="none" stroke="black" d="M146.275,-182.092C162.583,-182.332 205.222,-182.959 207.871,-182.998"/>
</g>
<!-- benserazide_absorption_intermediate_r&#45;&gt;benserazide_absorption -->
<g id="edge12" class="edge"><title>benserazide_absorption_intermediate_r&#45;&gt;benserazide_absorption</title>
<path fill="none" stroke="black" d="M97.1176,-178.011C98.9212,-178.187 121.016,-180.343 131.95,-181.41"/>
</g>
<!-- benserazide_absorption_intermediate_p&#45;&gt;C1_B -->
<g id="edge15" class="edge"><title>benserazide_absorption_intermediate_p&#45;&gt;C1_B</title>
<path fill="none" stroke="black" d="M210.065,-183C211.584,-183 239.325,-183 263.599,-183"/>
<polygon fill="black" stroke="black" points="263.704,-186.5 273.704,-183 263.704,-179.5 263.704,-186.5"/>
</g>
<!-- benserazide_gut_clearance -->
<g id="node22" class="node"><title>benserazide_gut_clearance</title>
<polygon fill="none" stroke="black" points="146,-156 132,-156 132,-142 146,-142 146,-156"/>
</g>
<!-- benserazide_gut_clearance_empty -->
<g id="node24" class="node"><title>benserazide_gut_clearance_empty</title>
<text text-anchor="middle" x="209" y="-143.5" font-family="Times,serif" font-size="15.00" fill="blue">Ø</text>
</g>
<!-- benserazide_gut_clearance&#45;&gt;benserazide_gut_clearance_empty -->
<g id="edge18" class="edge"><title>benserazide_gut_clearance&#45;&gt;benserazide_gut_clearance_empty</title>
<path fill="none" stroke="black" d="M146.275,-148.815C152.278,-148.639 161.849,-148.357 171.68,-148.068"/>
<polygon fill="black" stroke="black" points="171.987,-151.561 181.88,-147.768 171.781,-144.564 171.987,-151.561"/>
</g>
<!-- benserazide_gut_clearance_intermediate_r&#45;&gt;benserazide_gut_clearance -->
<g id="edge16" class="edge"><title>benserazide_gut_clearance_intermediate_r&#45;&gt;benserazide_gut_clearance</title>
<path fill="none" stroke="black" d="M97.1176,-152.989C98.9212,-152.813 121.016,-150.657 131.95,-149.59"/>
</g>
<!-- AADC_clearance -->
<g id="node25" class="node"><title>AADC_clearance</title>
<polygon fill="none" stroke="black" points="416,-94 402,-94 402,-80 416,-80 416,-94"/>
</g>
<!-- AADC_clearance_empty -->
<g id="node27" class="node"><title>AADC_clearance_empty</title>
<text text-anchor="middle" x="479" y="-86.5" font-family="Times,serif" font-size="15.00" fill="blue">Ø</text>
</g>
<!-- AADC_clearance&#45;&gt;AADC_clearance_empty -->
<g id="edge21" class="edge"><title>AADC_clearance&#45;&gt;AADC_clearance_empty</title>
<path fill="none" stroke="black" d="M416.275,-87.2769C422.278,-87.5417 431.849,-87.9639 441.68,-88.3976"/>
<polygon fill="black" stroke="black" points="441.735,-91.9034 451.88,-88.8476 442.044,-84.9102 441.735,-91.9034"/>
</g>
<!-- AADC_clearance_intermediate_r&#45;&gt;AADC_clearance -->
<g id="edge19" class="edge"><title>AADC_clearance_intermediate_r&#45;&gt;AADC_clearance</title>
<path fill="none" stroke="black" d="M367.118,-80.0201C368.921,-80.328 391.016,-84.1003 401.95,-85.9671"/>
</g>
<!-- COMT_clearance -->
<g id="node28" class="node"><title>COMT_clearance</title>
<polygon fill="none" stroke="black" points="416,-61 402,-61 402,-47 416,-47 416,-61"/>
</g>
<!-- COMT_clearance_intermediate_p -->
<g id="node30" class="node"><title>COMT_clearance_intermediate_p</title>
<ellipse fill="black" stroke="black" cx="479" cy="-54" rx="0.036" ry="0.036"/>
</g>
<!-- COMT_clearance&#45;&gt;COMT_clearance_intermediate_p -->
<g id="edge24" class="edge"><title>COMT_clearance&#45;&gt;COMT_clearance_intermediate_p</title>
<path fill="none" stroke="black" d="M416.275,-54C432.583,-54 475.222,-54 477.871,-54"/>
</g>
<!-- COMT_clearance_intermediate_r&#45;&gt;COMT_clearance -->
<g id="edge22" class="edge"><title>COMT_clearance_intermediate_r&#45;&gt;COMT_clearance</title>
<path fill="none" stroke="black" d="M367.118,-54C368.921,-54 391.016,-54 401.95,-54"/>
</g>
<!-- COMT_clearance_intermediate_p&#45;&gt;C_OMD -->
<g id="edge25" class="edge"><title>COMT_clearance_intermediate_p&#45;&gt;C_OMD</title>
<path fill="none" stroke="black" d="M480.07,-54C481.588,-54 507.416,-54 532.026,-54"/>
<polygon fill="black" stroke="black" points="532.062,-57.5001 542.062,-54 532.062,-50.5001 532.062,-57.5001"/>
</g>
<!-- rest_clearance -->
<g id="node31" class="node"><title>rest_clearance</title>
<polygon fill="none" stroke="black" points="416,-27 402,-27 402,-13 416,-13 416,-27"/>
</g>
<!-- rest_clearance_empty -->
<g id="node33" class="node"><title>rest_clearance_empty</title>
<text text-anchor="middle" x="479" y="-14.5" font-family="Times,serif" font-size="15.00" fill="blue">Ø</text>
</g>
<!-- rest_clearance&#45;&gt;rest_clearance_empty -->
<g id="edge28" class="edge"><title>rest_clearance&#45;&gt;rest_clearance_empty</title>
<path fill="none" stroke="black" d="M416.275,-19.8154C422.278,-19.6389 431.849,-19.3574 441.68,-19.0682"/>
<polygon fill="black" stroke="black" points="441.987,-22.5608 451.88,-18.7682 441.781,-15.5638 441.987,-22.5608"/>
</g>
<!-- rest_clearance_intermediate_r&#45;&gt;rest_clearance -->
<g id="edge26" class="edge"><title>rest_clearance_intermediate_r&#45;&gt;rest_clearance</title>
<path fill="none" stroke="black" d="M367.118,-28.9742C368.921,-28.5783 391.016,-23.7282 401.95,-21.328"/>
</g>
<!-- _3_OMD_clearance -->
<g id="node34" class="node"><title>_3_OMD_clearance</title>
<polygon fill="none" stroke="black" points="700,-61 686,-61 686,-47 700,-47 700,-61"/>
</g>
<!-- _3_OMD_clearance_empty -->
<g id="node36" class="node"><title>_3_OMD_clearance_empty</title>
<text text-anchor="middle" x="763" y="-50.5" font-family="Times,serif" font-size="15.00" fill="blue">Ø</text>
</g>
<!-- _3_OMD_clearance&#45;&gt;_3_OMD_clearance_empty -->
<g id="edge31" class="edge"><title>_3_OMD_clearance&#45;&gt;_3_OMD_clearance_empty</title>
<path fill="none" stroke="black" d="M700.275,-54C706.278,-54 715.849,-54 725.68,-54"/>
<polygon fill="black" stroke="black" points="725.88,-57.5001 735.88,-54 725.88,-50.5001 725.88,-57.5001"/>
</g>
<!-- _3_OMD_clearance_intermediate_r&#45;&gt;_3_OMD_clearance -->
<g id="edge29" class="edge"><title>_3_OMD_clearance_intermediate_r&#45;&gt;_3_OMD_clearance</title>
<path fill="none" stroke="black" d="M651.118,-54C652.921,-54 675.016,-54 685.95,-54"/>
</g>
<!-- bens_clearance -->
<g id="node37" class="node"><title>bens_clearance</title>
<polygon fill="none" stroke="black" points="416,-190 402,-190 402,-176 416,-176 416,-190"/>
</g>
<!-- bens_clearance_empty -->
<g id="node39" class="node"><title>bens_clearance_empty</title>
<text text-anchor="middle" x="479" y="-178.5" font-family="Times,serif" font-size="15.00" fill="blue">Ø</text>
</g>
<!-- bens_clearance&#45;&gt;bens_clearance_empty -->
<g id="edge34" class="edge"><title>bens_clearance&#45;&gt;bens_clearance_empty</title>
<path fill="none" stroke="black" d="M416.275,-182.908C422.278,-182.819 431.849,-182.679 441.68,-182.534"/>
<polygon fill="black" stroke="black" points="441.932,-186.031 451.88,-182.384 441.829,-179.032 441.932,-186.031"/>
</g>
<!-- bens_clearance_intermediate_r&#45;&gt;bens_clearance -->
<g id="edge32" class="edge"><title>bens_clearance_intermediate_r&#45;&gt;bens_clearance</title>
<path fill="none" stroke="black" d="M367.118,-183C368.921,-183 391.016,-183 401.95,-183"/>
</g>
<!-- bens_metabolism -->
<g id="node40" class="node"><title>bens_metabolism</title>
<polygon fill="none" stroke="black" points="416,-158 402,-158 402,-144 416,-144 416,-158"/>
</g>
<!-- bens_metabolism_intermediate_p -->
<g id="node42" class="node"><title>bens_metabolism_intermediate_p</title>
<ellipse fill="black" stroke="black" cx="479" cy="-145" rx="0.036" ry="0.036"/>
</g>
<!-- bens_metabolism&#45;&gt;bens_metabolism_intermediate_p -->
<g id="edge37" class="edge"><title>bens_metabolism&#45;&gt;bens_metabolism_intermediate_p</title>
<path fill="none" stroke="black" d="M416.275,-150.446C432.583,-149.007 475.222,-145.245 477.871,-145.011"/>
</g>
<!-- bens_metabolism_intermediate_r&#45;&gt;bens_metabolism -->
<g id="edge35" class="edge"><title>bens_metabolism_intermediate_r&#45;&gt;bens_metabolism</title>
<path fill="none" stroke="black" d="M367.118,-157.98C368.921,-157.672 391.016,-153.9 401.95,-152.033"/>
</g>
<!-- bens_metabolism_intermediate_p&#45;&gt;C1_M -->
<g id="edge38" class="edge"><title>bens_metabolism_intermediate_p&#45;&gt;C1_M</title>
<path fill="none" stroke="black" d="M480.07,-144.986C481.973,-144.614 522.077,-136.758 550.096,-131.27"/>
<polygon fill="black" stroke="black" points="550.998,-134.66 560.139,-129.303 549.652,-127.79 550.998,-134.66"/>
</g>
<!-- ro_clearance -->
<g id="node43" class="node"><title>ro_clearance</title>
<polygon fill="none" stroke="black" points="700,-133 686,-133 686,-119 700,-119 700,-133"/>
</g>
<!-- ro_clearance_empty -->
<g id="node45" class="node"><title>ro_clearance_empty</title>
<text text-anchor="middle" x="763" y="-123.5" font-family="Times,serif" font-size="15.00" fill="blue">Ø</text>
</g>
<!-- ro_clearance&#45;&gt;ro_clearance_empty -->
<g id="edge41" class="edge"><title>ro_clearance&#45;&gt;ro_clearance_empty</title>
<path fill="none" stroke="black" d="M700.275,-126.092C706.278,-126.181 715.849,-126.321 725.68,-126.466"/>
<polygon fill="black" stroke="black" points="725.829,-129.968 735.88,-126.616 725.932,-122.969 725.829,-129.968"/>
</g>
<!-- ro_clearance_intermediate_r&#45;&gt;ro_clearance -->
<g id="edge39" class="edge"><title>ro_clearance_intermediate_r&#45;&gt;ro_clearance</title>
<path fill="none" stroke="black" d="M651.118,-126C652.921,-126 675.016,-126 685.95,-126"/>
</g>
<!-- bens_distribution -->
<g id="node46" class="node"><title>bens_distribution</title>
<polygon fill="none" stroke="black" points="416,-222 402,-222 402,-208 416,-208 416,-222"/>
</g>
<!-- bens_distribution_intermediate_p -->
<g id="node48" class="node"><title>bens_distribution_intermediate_p</title>
<ellipse fill="black" stroke="black" cx="479" cy="-218" rx="0.036" ry="0.036"/>
</g>
<!-- bens_distribution&#45;&gt;bens_distribution_intermediate_p -->
<g id="edge44" class="edge"><title>bens_distribution&#45;&gt;bens_distribution_intermediate_p</title>
<path fill="none" stroke="black" d="M416.275,-215.277C432.583,-215.996 475.222,-217.877 477.871,-217.994"/>
</g>
<!-- bens_distribution_intermediate_r&#45;&gt;bens_distribution -->
<g id="edge42" class="edge"><title>bens_distribution_intermediate_r&#45;&gt;bens_distribution</title>
<path fill="none" stroke="black" d="M367.118,-208.02C368.921,-208.328 391.016,-212.1 401.95,-213.967"/>
</g>
<!-- bens_distribution_intermediate_p&#45;&gt;C2_B -->
<g id="edge45" class="edge"><title>bens_distribution_intermediate_p&#45;&gt;C2_B</title>
<path fill="none" stroke="black" d="M480.07,-218C481.767,-218 513.844,-218 540.638,-218"/>
<polygon fill="black" stroke="black" points="540.946,-221.5 550.946,-218 540.946,-214.5 540.946,-221.5"/>
</g>
<!-- ro_distribution -->
<g id="node49" class="node"><title>ro_distribution</title>
<polygon fill="none" stroke="black" points="700,-100 686,-100 686,-86 700,-86 700,-100"/>
</g>
<!-- ro_distribution_intermediate_p -->
<g id="node51" class="node"><title>ro_distribution_intermediate_p</title>
<ellipse fill="black" stroke="black" cx="763" cy="-91" rx="0.036" ry="0.036"/>
</g>
<!-- ro_distribution&#45;&gt;ro_distribution_intermediate_p -->
<g id="edge48" class="edge"><title>ro_distribution&#45;&gt;ro_distribution_intermediate_p</title>
<path fill="none" stroke="black" d="M700.275,-92.8154C716.583,-92.3358 759.222,-91.0817 761.871,-91.0038"/>
</g>
<!-- ro_distribution_intermediate_r&#45;&gt;ro_distribution -->
<g id="edge46" class="edge"><title>ro_distribution_intermediate_r&#45;&gt;ro_distribution</title>
<path fill="none" stroke="black" d="M651.118,-101.974C652.921,-101.578 675.016,-96.7282 685.95,-94.328"/>
</g>
<!-- ro_distribution_intermediate_p&#45;&gt;C2_M -->
<g id="edge49" class="edge"><title>ro_distribution_intermediate_p&#45;&gt;C2_M</title>
<path fill="none" stroke="black" d="M764.057,-91C765.493,-91 793.648,-91 815.929,-91"/>
<polygon fill="black" stroke="black" points="815.943,-94.5001 825.943,-91 815.943,-87.5001 815.943,-94.5001"/>
</g>
</g>
</svg>
