<?xml version="1.0" encoding="UTF-8" standalone="no"?>
<!DOCTYPE svg PUBLIC "-//W3C//DTD SVG 1.1//EN"
 "http://www.w3.org/Graphics/SVG/1.1/DTD/svg11.dtd">
<!-- Generated by graphviz version 2.24.0 (20090616.2323)
 -->
<!-- Title: G Pages: 1 -->
<svg width="402pt" height="97pt"
 viewBox="0.00 0.00 402.00 97.00" xmlns="http://www.w3.org/2000/svg" xmlns:xlink="http://www.w3.org/1999/xlink">
<g id="graph1" class="graph" transform="scale(1 1) rotate(0) translate(4 93)">
<title>G</title>
<polygon fill="white" stroke="white" points="-4,5 -4,-93 399,-93 399,5 -4,5"/>
<!-- A -->
<g id="node1" class="node"><title>A</title>
<ellipse fill="none" stroke="black" cx="27" cy="-38" rx="27" ry="18"/>
<text text-anchor="middle" x="27" y="-35.5" font-family="Times Roman,serif" font-size="10.00">A</text>
</g>
<!-- re12_intermediate_r -->
<g id="node14" class="node"><title>re12_intermediate_r</title>
<ellipse fill="black" stroke="black" cx="91" cy="-69" rx="0.036" ry="0.036"/>
</g>
<!-- A&#45;&gt;re12_intermediate_r -->
<g id="edge16" class="edge"><title>A&#45;&gt;re12_intermediate_r</title>
<path fill="none" stroke="black" d="M49.0252,-48.6684C66.9596,-57.3554 89.5385,-68.2921 90.9321,-68.9671"/>
</g>
<!-- re12_intermediate_m -->
<g id="node20" class="node"><title>re12_intermediate_m</title>
<ellipse fill="black" stroke="black" cx="179" cy="-46" rx="0.036" ry="0.036"/>
</g>
<!-- A&#45;&gt;re12_intermediate_m -->
<g id="edge24" class="edge"><title>A&#45;&gt;re12_intermediate_m</title>
<path fill="none" stroke="black" d="M54.1746,-39.4302C97.212,-41.6954 176.475,-45.8671 178.941,-45.9969"/>
</g>
<!-- B -->
<g id="node2" class="node"><title>B</title>
<ellipse fill="none" stroke="black" cx="243" cy="-71" rx="27" ry="18"/>
<text text-anchor="middle" x="243" y="-68.5" font-family="Times Roman,serif" font-size="10.00">B</text>
</g>
<!-- re2_intermediate_r -->
<g id="node4" class="node"><title>re2_intermediate_r</title>
<ellipse fill="black" stroke="black" cx="307" cy="-39" rx="0.036" ry="0.036"/>
</g>
<!-- B&#45;&gt;re2_intermediate_r -->
<g id="edge4" class="edge"><title>B&#45;&gt;re2_intermediate_r</title>
<path fill="none" stroke="black" d="M264.667,-60.1663C282.654,-51.1729 305.52,-39.7401 306.931,-39.0344"/>
</g>
<!-- re2_intermediate_m -->
<g id="node10" class="node"><title>re2_intermediate_m</title>
<ellipse fill="black" stroke="black" cx="394" cy="-49" rx="0.036" ry="0.036"/>
</g>
<!-- B&#45;&gt;re2_intermediate_m -->
<g id="edge12" class="edge"><title>B&#45;&gt;re2_intermediate_m</title>
<path fill="none" stroke="black" d="M269.648,-67.1175C312.32,-60.9004 391.478,-49.3675 393.941,-49.0086"/>
</g>
<!-- re2 -->
<g id="node3" class="node"><title>re2</title>
<polygon fill="none" stroke="black" points="358,-43 344,-43 344,-29 358,-29 358,-43"/>
</g>
<!-- re2_intermediate_p -->
<g id="node7" class="node"><title>re2_intermediate_p</title>
<ellipse fill="black" stroke="black" cx="394" cy="-22" rx="0.036" ry="0.036"/>
</g>
<!-- re2&#45;&gt;re2_intermediate_p -->
<g id="edge6" class="edge"><title>re2&#45;&gt;re2_intermediate_p</title>
<path fill="none" stroke="black" d="M358.101,-33.6882C369.932,-29.8361 392.531,-22.4783 393.932,-22.0222"/>
</g>
<!-- re2&#45;&gt;re2_intermediate_m -->
<g id="edge10" class="edge"><title>re2&#45;&gt;re2_intermediate_m</title>
<path fill="none" stroke="black" d="M369.927,-41.7222C380.967,-45.0598 392.925,-48.6749 393.932,-48.9793"/>
<polygon fill="none" stroke="black" points="369.587,-41.6194 362.686,-43.7119 358.101,-38.1467 365.001,-36.0542 369.587,-41.6194"/>
</g>
<!-- re2_intermediate_r&#45;&gt;re2 -->
<g id="edge2" class="edge"><title>re2_intermediate_r&#45;&gt;re2</title>
<path fill="none" stroke="black" d="M307.126,-38.9914C309.022,-38.8622 331.795,-37.3095 343.759,-36.4937"/>
</g>
<!-- re2_intermediate_p&#45;&gt;A -->
<g id="edge8" class="edge"><title>re2_intermediate_p&#45;&gt;A</title>
<path fill="none" stroke="black" d="M393.864,-21.9369C391.062,-20.6465 345.637,-3.55271e-15 307,-0 135,-0 135,-0 135,-0 107.421,-0 78.0116,-11.1627 56.8574,-21.3879"/>
<polygon fill="black" stroke="black" points="55.109,-18.3497 47.7551,-25.9766 58.2601,-24.6003 55.109,-18.3497"/>
</g>
<!-- re12 -->
<g id="node13" class="node"><title>re12</title>
<polygon fill="none" stroke="black" points="142,-80 128,-80 128,-66 142,-66 142,-80"/>
</g>
<!-- re12_intermediate_p -->
<g id="node17" class="node"><title>re12_intermediate_p</title>
<ellipse fill="black" stroke="black" cx="179" cy="-72" rx="0.036" ry="0.036"/>
</g>
<!-- re12&#45;&gt;re12_intermediate_p -->
<g id="edge18" class="edge"><title>re12&#45;&gt;re12_intermediate_p</title>
<path fill="none" stroke="black" d="M142.266,-72.8349C154.372,-72.5597 177.497,-72.0342 178.93,-72.0016"/>
</g>
<!-- re12&#45;&gt;re12_intermediate_m -->
<g id="edge22" class="edge"><title>re12&#45;&gt;re12_intermediate_m</title>
<path fill="none" stroke="black" d="M152.536,-62.2393C164.301,-55.0199 177.844,-46.7095 178.93,-46.0429"/>
<polygon fill="none" stroke="black" points="152.494,-62.2653 149.472,-68.8127 142.266,-68.5415 145.288,-61.9941 152.494,-62.2653"/>
</g>
<!-- re12_intermediate_r&#45;&gt;re12 -->
<g id="edge14" class="edge"><title>re12_intermediate_r&#45;&gt;re12</title>
<path fill="none" stroke="black" d="M91.1262,-69.0115C93.0215,-69.1838 115.795,-71.254 127.759,-72.3417"/>
</g>
<!-- re12_intermediate_p&#45;&gt;B -->
<g id="edge20" class="edge"><title>re12_intermediate_p&#45;&gt;B</title>
<path fill="none" stroke="black" d="M179.046,-71.9993C179.885,-71.9862 191.971,-71.7973 205.414,-71.5873"/>
<polygon fill="black" stroke="black" points="205.85,-75.081 215.794,-71.4251 205.741,-68.0818 205.85,-75.081"/>
</g>
</g>
</svg>
