<?xml version="1.0" encoding="utf-8"?>
<!-- Generator: Adobe Illustrator 14.0.0, SVG Export Plug-In . SVG Version: 6.00 Build 43363)  -->
<!DOCTYPE svg PUBLIC "-//W3C//DTD SVG 1.1//EN" "http://www.w3.org/Graphics/SVG/1.1/DTD/svg11.dtd">
<svg version="1.1" id="Layer_1" xmlns="http://www.w3.org/2000/svg" xmlns:xlink="http://www.w3.org/1999/xlink" x="0px" y="0px"
	 width="439px" height="212px" viewBox="0 0 439 212" enable-background="new 0 0 439 212" xml:space="preserve">
<g>
	<path d="M24.914,88.206c-0.468,0.18-1.403,0.443-2.495,0.443c-1.223,0-2.231-0.312-3.022-1.067
		c-0.696-0.672-1.127-1.751-1.127-3.011c0-2.41,1.667-4.174,4.378-4.174c0.935,0,1.679,0.204,2.027,0.372l-0.264,0.852
		c-0.432-0.204-0.971-0.348-1.787-0.348c-1.967,0-3.25,1.224-3.25,3.25c0,2.051,1.223,3.263,3.118,3.263
		c0.684,0,1.151-0.097,1.392-0.216v-2.411h-1.631v-0.84h2.663V88.206z"/>
</g>
<g>
	<path d="M73.23,35.108c-0.468,0.18-1.403,0.443-2.495,0.443c-1.224,0-2.231-0.312-3.022-1.067
		c-0.695-0.672-1.127-1.751-1.127-3.011c0-2.41,1.667-4.174,4.378-4.174c0.935,0,1.679,0.204,2.027,0.372l-0.264,0.852
		c-0.432-0.204-0.971-0.348-1.787-0.348c-1.967,0-3.25,1.224-3.25,3.25c0,2.051,1.223,3.263,3.118,3.263
		c0.684,0,1.151-0.097,1.391-0.216v-2.411h-1.631v-0.84h2.663V35.108z"/>
	<path d="M76.125,32.925l-0.839,2.543h-1.08l2.758-8.084h1.248l2.758,8.084h-1.115l-0.863-2.543H76.125z M78.787,32.109
		l-0.804-2.326c-0.18-0.528-0.3-1.008-0.419-1.476H77.54c-0.12,0.468-0.24,0.972-0.408,1.463l-0.792,2.339H78.787z"/>
</g>
<g>
	<path d="M178.981,35.108c-0.468,0.18-1.403,0.443-2.495,0.443c-1.223,0-2.23-0.312-3.021-1.067
		c-0.696-0.672-1.128-1.751-1.128-3.011c0-2.41,1.667-4.174,4.378-4.174c0.936,0,1.679,0.204,2.026,0.372l-0.264,0.852
		c-0.432-0.204-0.972-0.348-1.787-0.348c-1.967,0-3.25,1.224-3.25,3.25c0,2.051,1.224,3.263,3.118,3.263
		c0.684,0,1.151-0.097,1.392-0.216v-2.411h-1.632v-0.84h2.663V35.108z"/>
	<path d="M183.604,27.66l-1.14,1.499v0.024l1.811-0.24v0.815l-1.811-0.228v0.036l1.151,1.438l-0.756,0.433l-0.731-1.68h-0.024
		l-0.768,1.691l-0.684-0.432l1.14-1.464v-0.036l-1.775,0.24v-0.815l1.764,0.228v-0.023l-1.128-1.476l0.732-0.42l0.743,1.68h0.024
		l0.731-1.691L183.604,27.66z"/>
	<path d="M186.855,32.925l-0.84,2.543h-1.079l2.759-8.084h1.247l2.759,8.084h-1.115l-0.864-2.543H186.855z M189.518,32.109
		l-0.803-2.326c-0.181-0.528-0.3-1.008-0.42-1.476h-0.024c-0.12,0.468-0.239,0.972-0.407,1.463l-0.792,2.339H189.518z"/>
	<path d="M193.504,28.271h-2.458v-0.888h5.984v0.888h-2.471v7.196h-1.056V28.271z"/>
</g>
<g>
	<path d="M122.179,88.206c-0.468,0.18-1.403,0.443-2.495,0.443c-1.223,0-2.23-0.312-3.021-1.067
		c-0.696-0.672-1.128-1.751-1.128-3.011c0-2.41,1.667-4.174,4.378-4.174c0.936,0,1.679,0.204,2.026,0.372l-0.264,0.852
		c-0.432-0.204-0.972-0.348-1.787-0.348c-1.967,0-3.25,1.224-3.25,3.25c0,2.051,1.224,3.263,3.118,3.263
		c0.684,0,1.151-0.097,1.392-0.216v-2.411h-1.631v-0.84h2.662V88.206z"/>
	<path d="M126.801,80.758l-1.14,1.499v0.024l1.811-0.24v0.815l-1.811-0.228v0.036l1.151,1.438l-0.756,0.433l-0.731-1.68h-0.024
		l-0.768,1.691l-0.684-0.432l1.14-1.464v-0.036l-1.775,0.24v-0.815l1.764,0.228v-0.023l-1.128-1.476l0.731-0.42l0.744,1.68h0.023
		l0.732-1.691L126.801,80.758z"/>
	<path d="M130.28,81.369h-2.458v-0.888h5.984v0.888h-2.471v7.196h-1.056V81.369z"/>
</g>
<g>
	<path d="M297.794,35.108c-0.468,0.18-1.403,0.443-2.495,0.443c-1.223,0-2.23-0.312-3.021-1.067
		c-0.696-0.672-1.128-1.751-1.128-3.011c0-2.41,1.667-4.174,4.378-4.174c0.936,0,1.679,0.204,2.026,0.372l-0.264,0.852
		c-0.432-0.204-0.972-0.348-1.787-0.348c-1.967,0-3.25,1.224-3.25,3.25c0,2.051,1.224,3.263,3.118,3.263
		c0.684,0,1.151-0.097,1.392-0.216v-2.411h-1.631v-0.84h2.662V35.108z"/>
	<path d="M300.688,32.925l-0.84,2.543h-1.079l2.759-8.084h1.247l2.759,8.084h-1.115l-0.864-2.543H300.688z M303.351,32.109
		l-0.803-2.326c-0.181-0.528-0.3-1.008-0.42-1.476h-0.024c-0.12,0.468-0.239,0.972-0.407,1.463l-0.792,2.339H303.351z"/>
	<path d="M306.725,27.504c0.636-0.107,1.392-0.18,2.219-0.18c1.5,0,2.567,0.359,3.274,1.008c0.731,0.659,1.151,1.595,1.151,2.902
		c0,1.319-0.42,2.398-1.163,3.142c-0.768,0.756-2.015,1.164-3.586,1.164c-0.756,0-1.367-0.036-1.896-0.097V27.504z M307.769,34.652
		c0.264,0.036,0.647,0.048,1.056,0.048c2.242,0,3.441-1.247,3.441-3.43c0.013-1.907-1.067-3.119-3.273-3.119
		c-0.54,0-0.948,0.049-1.224,0.108V34.652z"/>
</g>
<g>
	<path d="M240.139,88.206c-0.468,0.18-1.403,0.443-2.495,0.443c-1.223,0-2.23-0.312-3.021-1.067
		c-0.696-0.672-1.128-1.751-1.128-3.011c0-2.41,1.667-4.174,4.378-4.174c0.936,0,1.679,0.204,2.026,0.372l-0.264,0.852
		c-0.432-0.204-0.972-0.348-1.787-0.348c-1.967,0-3.25,1.224-3.25,3.25c0,2.051,1.224,3.263,3.118,3.263
		c0.684,0,1.151-0.097,1.392-0.216v-2.411h-1.632v-0.84h2.663V88.206z"/>
	<path d="M241.726,80.602c0.636-0.107,1.392-0.18,2.219-0.18c1.5,0,2.567,0.359,3.274,1.008c0.731,0.659,1.151,1.595,1.151,2.902
		c0,1.319-0.42,2.398-1.163,3.142c-0.768,0.756-2.015,1.164-3.586,1.164c-0.756,0-1.367-0.036-1.896-0.097V80.602z M242.77,87.75
		c0.264,0.036,0.647,0.048,1.056,0.048c2.242,0,3.441-1.247,3.441-3.43c0.013-1.907-1.067-3.119-3.273-3.119
		c-0.54,0-0.948,0.049-1.224,0.108V87.75z"/>
</g>
<g>
	<path d="M410.294,35.108c-0.468,0.18-1.403,0.443-2.495,0.443c-1.223,0-2.23-0.312-3.021-1.067
		c-0.696-0.672-1.128-1.751-1.128-3.011c0-2.41,1.667-4.174,4.378-4.174c0.936,0,1.679,0.204,2.026,0.372l-0.264,0.852
		c-0.432-0.204-0.972-0.348-1.787-0.348c-1.967,0-3.25,1.224-3.25,3.25c0,2.051,1.224,3.263,3.118,3.263
		c0.684,0,1.151-0.097,1.392-0.216v-2.411h-1.632v-0.84h2.663V35.108z"/>
	<path d="M413.188,32.925l-0.84,2.543h-1.079l2.759-8.084h1.247l2.759,8.084h-1.116l-0.863-2.543H413.188z M415.851,32.109
		l-0.803-2.326c-0.181-0.528-0.3-1.008-0.42-1.476h-0.024c-0.12,0.468-0.239,0.972-0.407,1.463l-0.792,2.339H415.851z"/>
</g>
<g>
	<path d="M356.866,88.206c-0.468,0.18-1.403,0.443-2.495,0.443c-1.223,0-2.23-0.312-3.021-1.067
		c-0.696-0.672-1.128-1.751-1.128-3.011c0-2.41,1.667-4.174,4.378-4.174c0.936,0,1.679,0.204,2.026,0.372l-0.264,0.852
		c-0.432-0.204-0.972-0.348-1.787-0.348c-1.967,0-3.25,1.224-3.25,3.25c0,2.051,1.224,3.263,3.118,3.263
		c0.684,0,1.151-0.097,1.392-0.216v-2.411h-1.631v-0.84h2.662V88.206z"/>
</g>
<g>
	<path d="M63.819,130.19c0.527-0.096,1.295-0.168,2.003-0.168c1.115,0,1.847,0.216,2.338,0.66c0.396,0.359,0.636,0.911,0.636,1.547
		c0,1.056-0.671,1.763-1.511,2.051v0.036c0.612,0.216,0.983,0.791,1.175,1.631c0.264,1.127,0.456,1.907,0.624,2.219h-1.08
		c-0.132-0.24-0.312-0.924-0.528-1.931c-0.24-1.115-0.684-1.535-1.631-1.571h-0.983v3.502h-1.043V130.19z M64.863,133.872h1.067
		c1.115,0,1.823-0.611,1.823-1.535c0-1.043-0.755-1.499-1.859-1.499c-0.504,0-0.852,0.036-1.031,0.084V133.872z"/>
	<path d="M76.476,137.807c-0.468,0.18-1.403,0.443-2.495,0.443c-1.223,0-2.231-0.312-3.022-1.067
		c-0.696-0.672-1.127-1.751-1.127-3.011c0-2.41,1.667-4.174,4.378-4.174c0.935,0,1.679,0.204,2.027,0.372l-0.264,0.852
		c-0.432-0.204-0.971-0.348-1.787-0.348c-1.967,0-3.25,1.224-3.25,3.25c0,2.051,1.223,3.263,3.118,3.263
		c0.684,0,1.151-0.097,1.392-0.216v-2.411h-1.631v-0.84h2.663V137.807z"/>
	<path d="M79.37,135.623l-0.839,2.543h-1.08l2.758-8.084h1.248l2.758,8.084H83.1l-0.864-2.543H79.37z M82.033,134.808l-0.804-2.326
		c-0.18-0.528-0.3-1.008-0.419-1.476h-0.024c-0.12,0.468-0.24,0.972-0.408,1.463l-0.792,2.339H82.033z"/>
</g>
<g>
	<path d="M15.504,180.723c0.527-0.096,1.295-0.168,2.003-0.168c1.115,0,1.847,0.216,2.338,0.659c0.396,0.36,0.636,0.912,0.636,1.548
		c0,1.056-0.671,1.763-1.511,2.051v0.036c0.612,0.216,0.983,0.791,1.175,1.631c0.264,1.127,0.456,1.907,0.624,2.219h-1.08
		c-0.132-0.24-0.312-0.924-0.528-1.931c-0.24-1.115-0.684-1.535-1.631-1.571h-0.983v3.502h-1.043V180.723z M16.547,184.404h1.067
		c1.115,0,1.823-0.611,1.823-1.535c0-1.043-0.755-1.499-1.859-1.499c-0.504,0-0.852,0.036-1.031,0.084V184.404z"/>
	<path d="M28.16,188.339c-0.468,0.18-1.403,0.443-2.495,0.443c-1.223,0-2.231-0.312-3.022-1.067
		c-0.696-0.672-1.127-1.751-1.127-3.011c0-2.41,1.667-4.174,4.378-4.174c0.935,0,1.679,0.204,2.027,0.372l-0.264,0.852
		c-0.432-0.204-0.971-0.348-1.787-0.348c-1.967,0-3.25,1.224-3.25,3.25c0,2.051,1.223,3.263,3.118,3.263
		c0.684,0,1.151-0.097,1.392-0.216v-2.411h-1.631v-0.84h2.663V188.339z"/>
</g>
<g>
	<path d="M169.571,130.19c0.528-0.096,1.296-0.168,2.003-0.168c1.115,0,1.848,0.216,2.338,0.66c0.396,0.359,0.637,0.911,0.637,1.547
		c0,1.056-0.672,1.763-1.512,2.051v0.036c0.611,0.216,0.984,0.791,1.176,1.631c0.264,1.127,0.455,1.907,0.623,2.219h-1.078
		c-0.133-0.24-0.312-0.924-0.529-1.931c-0.238-1.115-0.684-1.535-1.631-1.571h-0.983v3.502h-1.044V130.19z M170.615,133.872h1.067
		c1.115,0,1.824-0.611,1.824-1.535c0-1.043-0.756-1.499-1.859-1.499c-0.504,0-0.852,0.036-1.032,0.084V133.872z"/>
	<path d="M182.229,137.807c-0.469,0.18-1.404,0.443-2.496,0.443c-1.223,0-2.23-0.312-3.021-1.067
		c-0.695-0.672-1.127-1.751-1.127-3.011c0-2.41,1.666-4.174,4.377-4.174c0.936,0,1.68,0.204,2.027,0.372l-0.264,0.852
		c-0.432-0.204-0.973-0.348-1.787-0.348c-1.967,0-3.25,1.224-3.25,3.25c0,2.051,1.223,3.263,3.117,3.263
		c0.684,0,1.152-0.097,1.393-0.216v-2.411h-1.633v-0.84h2.664V137.807z"/>
	<path d="M186.85,130.358l-1.139,1.499v0.024l1.811-0.24v0.815l-1.811-0.228v0.036l1.15,1.438l-0.756,0.432l-0.73-1.679h-0.025
		l-0.768,1.691l-0.684-0.432l1.141-1.464v-0.035l-1.775,0.239v-0.815l1.764,0.228v-0.023l-1.129-1.476l0.732-0.42l0.744,1.68h0.023
		l0.732-1.691L186.85,130.358z"/>
	<path d="M190.102,135.623l-0.84,2.543h-1.078l2.758-8.084h1.248l2.758,8.084h-1.115l-0.863-2.543H190.102z M192.764,134.808
		l-0.803-2.326c-0.18-0.528-0.299-1.008-0.42-1.476h-0.023c-0.121,0.468-0.24,0.972-0.408,1.463l-0.791,2.339H192.764z"/>
	<path d="M196.75,130.97h-2.459v-0.888h5.984v0.888h-2.471v7.196h-1.055V130.97z"/>
</g>
<g>
	<path d="M112.768,180.723c0.528-0.096,1.296-0.168,2.003-0.168c1.115,0,1.848,0.216,2.339,0.659
		c0.396,0.36,0.636,0.912,0.636,1.548c0,1.056-0.672,1.763-1.511,2.051v0.036c0.611,0.216,0.983,0.791,1.175,1.631
		c0.264,1.127,0.456,1.907,0.624,2.219h-1.079c-0.133-0.24-0.312-0.924-0.528-1.931c-0.239-1.115-0.684-1.535-1.631-1.571h-0.983
		v3.502h-1.044V180.723z M113.812,184.404h1.067c1.115,0,1.823-0.611,1.823-1.535c0-1.043-0.756-1.499-1.859-1.499
		c-0.504,0-0.852,0.036-1.031,0.084V184.404z"/>
	<path d="M125.425,188.339c-0.468,0.18-1.403,0.443-2.495,0.443c-1.223,0-2.23-0.312-3.021-1.067
		c-0.696-0.672-1.128-1.751-1.128-3.011c0-2.41,1.667-4.174,4.378-4.174c0.936,0,1.679,0.204,2.026,0.372l-0.264,0.852
		c-0.432-0.204-0.972-0.348-1.787-0.348c-1.967,0-3.25,1.224-3.25,3.25c0,2.051,1.224,3.263,3.118,3.263
		c0.684,0,1.151-0.097,1.392-0.216v-2.411h-1.631v-0.84h2.662V188.339z"/>
	<path d="M130.047,180.891l-1.14,1.499v0.024l1.811-0.24v0.815l-1.811-0.228v0.036l1.151,1.438l-0.756,0.433l-0.731-1.68h-0.024
		l-0.768,1.691l-0.684-0.432l1.14-1.464v-0.036l-1.775,0.24v-0.815l1.764,0.228v-0.023l-1.128-1.476l0.731-0.42l0.744,1.68h0.023
		l0.732-1.691L130.047,180.891z"/>
	<path d="M133.526,181.502h-2.458v-0.888h5.984v0.888h-2.471v7.196h-1.056V181.502z"/>
</g>
<g>
	<path d="M288.383,130.19c0.528-0.096,1.296-0.168,2.003-0.168c1.115,0,1.848,0.216,2.339,0.66c0.396,0.359,0.636,0.911,0.636,1.547
		c0,1.056-0.672,1.763-1.511,2.051v0.036c0.611,0.216,0.983,0.791,1.175,1.631c0.264,1.127,0.456,1.907,0.624,2.219h-1.079
		c-0.133-0.24-0.312-0.924-0.528-1.931c-0.239-1.115-0.684-1.535-1.631-1.571h-0.983v3.502h-1.044V130.19z M289.427,133.872h1.067
		c1.115,0,1.823-0.611,1.823-1.535c0-1.043-0.756-1.499-1.859-1.499c-0.504,0-0.852,0.036-1.031,0.084V133.872z"/>
	<path d="M301.04,137.807c-0.468,0.18-1.403,0.443-2.495,0.443c-1.223,0-2.23-0.312-3.021-1.067
		c-0.696-0.672-1.128-1.751-1.128-3.011c0-2.41,1.667-4.174,4.378-4.174c0.936,0,1.679,0.204,2.026,0.372l-0.264,0.852
		c-0.432-0.204-0.972-0.348-1.787-0.348c-1.967,0-3.25,1.224-3.25,3.25c0,2.051,1.224,3.263,3.118,3.263
		c0.684,0,1.151-0.097,1.392-0.216v-2.411h-1.631v-0.84h2.662V137.807z"/>
	<path d="M303.935,135.623l-0.84,2.543h-1.079l2.759-8.084h1.247l2.759,8.084h-1.115l-0.864-2.543H303.935z M306.597,134.808
		l-0.803-2.326c-0.181-0.528-0.3-1.008-0.42-1.476h-0.024c-0.12,0.468-0.239,0.972-0.407,1.463l-0.792,2.339H306.597z"/>
	<path d="M309.971,130.202c0.636-0.107,1.392-0.18,2.219-0.18c1.5,0,2.567,0.359,3.274,1.008c0.731,0.659,1.151,1.595,1.151,2.902
		c0,1.319-0.42,2.398-1.163,3.142c-0.768,0.756-2.015,1.164-3.586,1.164c-0.756,0-1.367-0.036-1.896-0.097V130.202z
		 M311.015,137.351c0.264,0.036,0.647,0.048,1.056,0.048c2.242,0,3.441-1.247,3.441-3.43c0.013-1.907-1.067-3.119-3.273-3.119
		c-0.54,0-0.948,0.049-1.224,0.108V137.351z"/>
</g>
<g>
	<path d="M230.729,180.723c0.527-0.096,1.295-0.168,2.002-0.168c1.115,0,1.848,0.216,2.34,0.659c0.395,0.36,0.635,0.912,0.635,1.548
		c0,1.056-0.672,1.763-1.51,2.051v0.036c0.611,0.216,0.982,0.791,1.174,1.631c0.264,1.127,0.457,1.907,0.625,2.219h-1.08
		c-0.133-0.24-0.312-0.924-0.527-1.931c-0.24-1.115-0.684-1.535-1.631-1.571h-0.984v3.502h-1.043V180.723z M231.771,184.404h1.068
		c1.115,0,1.822-0.611,1.822-1.535c0-1.043-0.756-1.499-1.859-1.499c-0.504,0-0.852,0.036-1.031,0.084V184.404z"/>
	<path d="M243.385,188.339c-0.467,0.18-1.402,0.443-2.494,0.443c-1.223,0-2.23-0.312-3.021-1.067
		c-0.697-0.672-1.129-1.751-1.129-3.011c0-2.41,1.668-4.174,4.379-4.174c0.936,0,1.678,0.204,2.025,0.372l-0.264,0.852
		c-0.432-0.204-0.971-0.348-1.787-0.348c-1.967,0-3.25,1.224-3.25,3.25c0,2.051,1.225,3.263,3.119,3.263
		c0.684,0,1.15-0.097,1.391-0.216v-2.411h-1.631v-0.84h2.662V188.339z"/>
	<path d="M244.973,180.734c0.635-0.107,1.391-0.18,2.219-0.18c1.5,0,2.566,0.359,3.273,1.008c0.732,0.659,1.152,1.595,1.152,2.902
		c0,1.319-0.42,2.398-1.164,3.142c-0.768,0.756-2.014,1.164-3.586,1.164c-0.756,0-1.367-0.036-1.895-0.097V180.734z
		 M246.016,187.883c0.264,0.036,0.648,0.048,1.057,0.048c2.242,0,3.441-1.247,3.441-3.43c0.012-1.907-1.068-3.119-3.273-3.119
		c-0.541,0-0.949,0.049-1.225,0.108V187.883z"/>
</g>
<g>
	<path d="M400.883,130.19c0.528-0.096,1.296-0.168,2.003-0.168c1.115,0,1.848,0.216,2.339,0.66c0.396,0.359,0.636,0.911,0.636,1.547
		c0,1.056-0.672,1.763-1.511,2.051v0.036c0.611,0.216,0.983,0.791,1.175,1.631c0.264,1.127,0.456,1.907,0.624,2.219h-1.079
		c-0.133-0.24-0.312-0.924-0.528-1.931c-0.239-1.115-0.684-1.535-1.631-1.571h-0.983v3.502h-1.044V130.19z M401.927,133.872h1.067
		c1.115,0,1.823-0.611,1.823-1.535c0-1.043-0.756-1.499-1.859-1.499c-0.504,0-0.852,0.036-1.031,0.084V133.872z"/>
	<path d="M413.54,137.807c-0.468,0.18-1.403,0.443-2.495,0.443c-1.223,0-2.23-0.312-3.021-1.067
		c-0.696-0.672-1.128-1.751-1.128-3.011c0-2.41,1.667-4.174,4.378-4.174c0.936,0,1.679,0.204,2.026,0.372l-0.264,0.852
		c-0.432-0.204-0.972-0.348-1.787-0.348c-1.967,0-3.25,1.224-3.25,3.25c0,2.051,1.224,3.263,3.118,3.263
		c0.684,0,1.151-0.097,1.392-0.216v-2.411h-1.631v-0.84h2.662V137.807z"/>
	<path d="M416.435,135.623l-0.84,2.543h-1.079l2.759-8.084h1.247l2.759,8.084h-1.115l-0.864-2.543H416.435z M419.097,134.808
		l-0.803-2.326c-0.181-0.528-0.3-1.008-0.42-1.476h-0.024c-0.12,0.468-0.239,0.972-0.407,1.463l-0.792,2.339H419.097z"/>
</g>
<g>
	<path d="M345.455,180.723c0.528-0.096,1.296-0.168,2.003-0.168c1.115,0,1.848,0.216,2.339,0.66
		c0.396,0.359,0.636,0.911,0.636,1.547c0,1.056-0.672,1.763-1.511,2.051v0.036c0.611,0.216,0.983,0.791,1.175,1.631
		c0.264,1.127,0.456,1.907,0.624,2.219h-1.079c-0.133-0.24-0.312-0.924-0.528-1.931c-0.239-1.115-0.684-1.535-1.631-1.571h-0.983
		v3.502h-1.044V180.723z M346.499,184.404h1.067c1.115,0,1.823-0.611,1.823-1.535c0-1.043-0.756-1.499-1.859-1.499
		c-0.504,0-0.852,0.036-1.031,0.084V184.404z"/>
	<path d="M358.112,188.339c-0.468,0.18-1.403,0.443-2.495,0.443c-1.223,0-2.23-0.312-3.021-1.067
		c-0.696-0.672-1.128-1.751-1.128-3.011c0-2.41,1.667-4.174,4.378-4.174c0.936,0,1.679,0.204,2.026,0.372l-0.264,0.852
		c-0.432-0.204-0.972-0.348-1.787-0.348c-1.967,0-3.25,1.224-3.25,3.25c0,2.051,1.224,3.263,3.118,3.263
		c0.684,0,1.151-0.097,1.392-0.216v-2.411h-1.631v-0.84h2.662V188.339z"/>
</g>
<g>
	<polyline fill="none" stroke="#010101" points="89.053,30.195 163.133,30.195 147.7,24.695 	"/>
	<polyline fill="none" stroke="#010101" points="163.133,33.695 89.053,33.695 104.486,39.195 	"/>
</g>
<g>
	<polyline fill="none" stroke="#010101" points="204.365,30.195 278.446,30.195 263.013,24.695 	"/>
	<polyline fill="none" stroke="#010101" points="278.446,33.695 204.365,33.695 219.799,39.195 	"/>
</g>
<g>
	<polyline fill="none" stroke="#010101" points="320.735,30.195 394.816,30.195 379.383,24.695 	"/>
	<polyline fill="none" stroke="#010101" points="394.816,33.695 320.735,33.695 336.169,39.195 	"/>
</g>
<g>
	<polyline fill="none" stroke="#010101" points="34.086,83.294 108.167,83.294 92.733,77.794 	"/>
	<polyline fill="none" stroke="#010101" points="108.167,86.794 34.086,86.794 49.52,92.294 	"/>
</g>
<g>
	<polyline fill="none" stroke="#010101" points="145.938,83.294 220.02,83.294 204.586,77.794 	"/>
	<polyline fill="none" stroke="#010101" points="220.02,86.794 145.938,86.794 161.372,92.294 	"/>
</g>
<g>
	<polyline fill="none" stroke="#010101" points="258.353,83.294 332.434,83.294 317,77.794 	"/>
	<polyline fill="none" stroke="#010101" points="332.434,86.794 258.353,86.794 273.786,92.294 	"/>
</g>
<g>
	<polyline fill="none" stroke="#010101" points="89.677,132.894 163.758,132.894 148.325,127.394 	"/>
	<polyline fill="none" stroke="#010101" points="163.758,136.394 89.677,136.394 105.111,141.894 	"/>
</g>
<g>
	<polyline fill="none" stroke="#010101" points="208.321,132.894 282.402,132.894 266.969,127.394 	"/>
	<polyline fill="none" stroke="#010101" points="282.402,136.394 208.321,136.394 223.755,141.894 	"/>
</g>
<g>
	<polyline fill="none" stroke="#010101" points="322.177,132.894 396.258,132.894 380.824,127.394 	"/>
	<polyline fill="none" stroke="#010101" points="396.258,136.394 322.177,136.394 337.61,141.894 	"/>
</g>
<g>
	<polyline fill="none" stroke="#010101" points="34.086,183.427 108.167,183.427 92.733,177.927 	"/>
	<polyline fill="none" stroke="#010101" points="108.167,186.927 34.086,186.927 49.52,192.427 	"/>
</g>
<g>
	<polyline fill="none" stroke="#010101" points="145.938,183.427 220.02,183.427 204.586,177.927 	"/>
	<polyline fill="none" stroke="#010101" points="220.02,186.927 145.938,186.927 161.372,192.427 	"/>
</g>
<g>
	<polyline fill="none" stroke="#010101" points="258.383,182.867 332.456,183.986 317.107,178.254 	"/>
	<polyline fill="none" stroke="#010101" points="332.403,187.486 258.33,186.367 273.679,192.1 	"/>
</g>
<g>
	<polyline fill="none" stroke="#010101" points="27.34,98.478 27.34,172.559 32.84,157.124 	"/>
	<polyline fill="none" stroke="#010101" points="23.84,172.559 23.84,98.478 18.34,113.911 	"/>
</g>
<g>
	<polyline fill="none" stroke="#010101" points="75.452,46.44 75.452,120.521 80.952,105.087 	"/>
	<polyline fill="none" stroke="#010101" points="71.952,120.521 71.952,46.44 66.452,61.874 	"/>
</g>
<g>
	<polyline fill="none" stroke="#010101" points="126.318,98.478 126.318,172.559 131.818,157.124 	"/>
	<polyline fill="none" stroke="#010101" points="122.818,172.559 122.818,98.478 117.318,113.911 	"/>
</g>
<g>
	<polyline fill="none" stroke="#010101" points="184.729,46.44 184.729,120.521 190.229,105.087 	"/>
	<polyline fill="none" stroke="#010101" points="181.229,120.521 181.229,46.44 175.729,61.874 	"/>
</g>
<g>
	<polyline fill="none" stroke="#010101" points="304.012,46.44 304.012,120.522 309.512,105.087 	"/>
	<polyline fill="none" stroke="#010101" points="300.512,120.522 300.512,46.44 295.012,61.874 	"/>
</g>
<g>
	<polyline fill="none" stroke="#010101" points="247.111,98.479 247.111,172.559 252.611,157.125 	"/>
	<polyline fill="none" stroke="#010101" points="243.611,172.559 243.611,98.479 238.111,113.912 	"/>
</g>
<g>
	<polyline fill="none" stroke="#010101" points="358.538,98.478 358.538,172.559 364.038,157.124 	"/>
	<polyline fill="none" stroke="#010101" points="355.038,172.559 355.038,98.478 349.538,113.911 	"/>
</g>
<g>
	<polyline fill="none" stroke="#010101" points="412.516,46.44 412.516,120.521 418.016,105.087 	"/>
	<polyline fill="none" stroke="#010101" points="409.016,120.521 409.016,46.44 403.516,61.874 	"/>
</g>
<g>
	<polyline fill="none" stroke="#010101" points="27.766,68.894 57.465,39.195 47.389,41.494 	"/>
	<polyline fill="none" stroke="#010101" points="59.94,41.67 30.241,71.369 40.317,69.07 	"/>
</g>
<g>
	<polyline fill="none" stroke="#010101" points="34.974,171.592 64.673,141.894 54.597,144.192 	"/>
	<polyline fill="none" stroke="#010101" points="67.147,144.368 37.449,174.067 47.525,171.769 	"/>
</g>
<g>
	<polyline fill="none" stroke="#010101" points="364.038,78.367 399.506,39.195 387.473,42.228 	"/>
	<polyline fill="none" stroke="#010101" points="402.461,42.459 366.993,81.632 379.026,78.6 	"/>
</g>
<g>
	<polyline fill="none" stroke="#010101" points="365.541,180.231 403.879,141.894 390.871,144.861 	"/>
	<polyline fill="none" stroke="#010101" points="407.073,145.088 368.735,183.427 381.743,180.459 	"/>
</g>
<g>
	<path d="M119.765,16.325h-2.459v-0.888h5.985v0.888h-2.471v7.196h-1.055V16.325z"/>
	<path d="M123.822,23.521v-0.647l0.828-0.804c1.991-1.895,2.902-2.902,2.902-4.078c0-0.791-0.372-1.522-1.535-1.522
		c-0.708,0-1.295,0.359-1.655,0.659l-0.336-0.743c0.528-0.444,1.307-0.792,2.195-0.792c1.679,0,2.387,1.151,2.387,2.267
		c0,1.439-1.043,2.603-2.687,4.186l-0.612,0.576v0.023h3.49v0.876H123.822z"/>
</g>
<g>
	<path d="M231.391,15.534c0.504-0.084,1.164-0.156,2.004-0.156c1.031,0,1.786,0.24,2.266,0.672c0.432,0.384,0.708,0.972,0.708,1.69
		c0,0.732-0.216,1.308-0.624,1.728c-0.563,0.588-1.451,0.888-2.471,0.888c-0.312,0-0.6-0.013-0.839-0.072v3.238h-1.044V15.534z
		 M232.435,19.432c0.228,0.06,0.516,0.084,0.863,0.084c1.259,0,2.026-0.624,2.026-1.715c0-1.079-0.768-1.596-1.906-1.596
		c-0.456,0-0.804,0.036-0.983,0.084V19.432z"/>
	<path d="M237.402,23.521v-0.647l0.828-0.804c1.991-1.895,2.902-2.902,2.902-4.078c0-0.791-0.371-1.522-1.535-1.522
		c-0.707,0-1.295,0.359-1.654,0.659l-0.336-0.743c0.527-0.444,1.307-0.792,2.194-0.792c1.679,0,2.387,1.151,2.387,2.267
		c0,1.439-1.044,2.603-2.687,4.186l-0.611,0.576v0.023h3.49v0.876H237.402z"/>
</g>
<g>
	<path d="M353.453,15.558c0.637-0.107,1.392-0.18,2.219-0.18c1.5,0,2.566,0.359,3.274,1.008c0.731,0.659,1.151,1.595,1.151,2.902
		c0,1.319-0.42,2.398-1.163,3.142c-0.768,0.756-2.015,1.164-3.586,1.164c-0.756,0-1.367-0.036-1.896-0.097V15.558z M354.497,22.706
		c0.264,0.036,0.647,0.048,1.056,0.048c2.242,0,3.441-1.247,3.441-3.43c0.012-1.907-1.066-3.119-3.273-3.119
		c-0.54,0-0.947,0.049-1.224,0.108V22.706z"/>
	<path d="M361.073,23.521v-0.647l0.827-0.804c1.991-1.895,2.902-2.902,2.902-4.078c0-0.791-0.371-1.522-1.535-1.522
		c-0.707,0-1.295,0.359-1.654,0.659l-0.336-0.743c0.527-0.444,1.307-0.792,2.195-0.792c1.679,0,2.387,1.151,2.387,2.267
		c0,1.439-1.044,2.603-2.688,4.186l-0.611,0.576v0.023h3.49v0.876H361.073z"/>
</g>
<g>
	<path d="M89.2,68.598h-2.459v-0.889h5.985v0.889h-2.471v7.195H89.2V68.598z"/>
	<path d="M95.548,68.98h-0.024l-1.355,0.732l-0.204-0.803l1.703-0.912h0.9v7.795h-1.02V68.98z"/>
</g>
<g>
	<path d="M200.826,67.807c0.504-0.084,1.163-0.156,2.003-0.156c1.031,0,1.786,0.24,2.267,0.672c0.432,0.383,0.707,0.971,0.707,1.689
		c0,0.732-0.215,1.309-0.623,1.729c-0.564,0.588-1.451,0.887-2.471,0.887c-0.312,0-0.6-0.012-0.84-0.072v3.238h-1.043V67.807z
		 M201.869,71.703c0.229,0.061,0.516,0.084,0.863,0.084c1.26,0,2.027-0.623,2.027-1.715c0-1.078-0.768-1.596-1.906-1.596
		c-0.457,0-0.805,0.037-0.984,0.084V71.703z"/>
	<path d="M209.129,68.98h-0.023l-1.355,0.732l-0.205-0.803l1.703-0.912h0.9v7.795h-1.02V68.98z"/>
</g>
<g>
	<path d="M322.889,67.83c0.636-0.107,1.391-0.18,2.219-0.18c1.499,0,2.566,0.359,3.273,1.008c0.732,0.658,1.152,1.594,1.152,2.902
		c0,1.318-0.42,2.398-1.164,3.141c-0.768,0.756-2.015,1.164-3.586,1.164c-0.756,0-1.367-0.035-1.895-0.096V67.83z M323.932,74.979
		c0.264,0.035,0.648,0.047,1.056,0.047c2.243,0,3.442-1.246,3.442-3.43c0.012-1.906-1.067-3.119-3.274-3.119
		c-0.54,0-0.947,0.049-1.224,0.109V74.979z"/>
	<path d="M332.799,68.98h-0.023l-1.355,0.732l-0.203-0.803l1.702-0.912h0.899v7.795h-1.02V68.98z"/>
</g>
<g>
	<path d="M97.29,119.326h-2.459v-0.888h5.985v0.888h-2.471v7.196H97.29V119.326z"/>
	<path d="M104.608,126.522v-2.135h-3.622v-0.684l3.479-4.978h1.139v4.846h1.091v0.815h-1.091v2.135H104.608z M104.608,123.572
		v-2.603c0-0.408,0.012-0.815,0.036-1.224h-0.036c-0.24,0.456-0.432,0.792-0.647,1.151l-1.907,2.65v0.024H104.608z"/>
</g>
<g>
	<path d="M208.916,118.535c0.503-0.084,1.162-0.156,2.002-0.156c1.031,0,1.787,0.24,2.268,0.672c0.432,0.384,0.707,0.972,0.707,1.69
		c0,0.732-0.216,1.308-0.623,1.728c-0.564,0.588-1.451,0.888-2.471,0.888c-0.312,0-0.6-0.013-0.84-0.072v3.238h-1.043V118.535z
		 M209.959,122.433c0.228,0.06,0.516,0.084,0.863,0.084c1.26,0,2.027-0.624,2.027-1.715c0-1.079-0.768-1.596-1.907-1.596
		c-0.456,0-0.804,0.036-0.983,0.084V122.433z"/>
	<path d="M218.189,126.522v-2.135h-3.622v-0.684l3.479-4.978h1.14v4.846h1.091v0.815h-1.091v2.135H218.189z M218.189,123.572v-2.603
		c0-0.408,0.012-0.815,0.036-1.224h-0.036c-0.24,0.456-0.432,0.792-0.647,1.151l-1.907,2.65v0.024H218.189z"/>
</g>
<g>
	<path d="M330.979,118.559c0.635-0.107,1.391-0.18,2.219-0.18c1.498,0,2.566,0.359,3.273,1.008c0.732,0.659,1.151,1.595,1.151,2.902
		c0,1.319-0.419,2.398-1.163,3.142c-0.768,0.756-2.016,1.164-3.586,1.164c-0.756,0-1.367-0.036-1.895-0.097V118.559z
		 M332.021,125.707c0.264,0.036,0.647,0.048,1.055,0.048c2.243,0,3.443-1.247,3.443-3.43c0.012-1.907-1.068-3.119-3.275-3.119
		c-0.539,0-0.947,0.049-1.223,0.108V125.707z"/>
	<path d="M341.859,126.522v-2.135h-3.621v-0.684l3.479-4.978h1.139v4.846h1.092v0.815h-1.092v2.135H341.859z M341.859,123.572
		v-2.603c0-0.408,0.013-0.815,0.037-1.224h-0.037c-0.239,0.456-0.432,0.792-0.646,1.151l-1.907,2.65v0.024H341.859z"/>
</g>
<g>
	<path d="M63.688,170.73h-2.459v-0.888h5.985v0.888h-2.471v7.196h-1.055V170.73z"/>
	<path d="M67.997,176.728c0.3,0.18,0.983,0.479,1.727,0.479c1.343,0,1.775-0.852,1.763-1.511c-0.012-1.092-0.996-1.56-2.015-1.56
		h-0.587v-0.791h0.587c0.768,0,1.739-0.396,1.739-1.319c0-0.624-0.396-1.176-1.367-1.176c-0.624,0-1.224,0.276-1.559,0.516
		l-0.288-0.768c0.42-0.3,1.211-0.6,2.051-0.6c1.535,0,2.231,0.911,2.231,1.859c0,0.815-0.492,1.499-1.439,1.847v0.024
		c0.959,0.18,1.727,0.899,1.739,1.99c0,1.247-0.983,2.339-2.842,2.339c-0.875,0-1.643-0.275-2.027-0.527L67.997,176.728z"/>
</g>
<g>
	<path d="M175.314,169.939c0.503-0.084,1.162-0.156,2.002-0.156c1.031,0,1.787,0.24,2.268,0.672c0.432,0.384,0.707,0.972,0.707,1.69
		c0,0.732-0.216,1.308-0.623,1.728c-0.564,0.588-1.451,0.888-2.471,0.888c-0.312,0-0.6-0.013-0.84-0.072v3.238h-1.043V169.939z
		 M176.357,173.837c0.228,0.06,0.516,0.084,0.863,0.084c1.26,0,2.027-0.624,2.027-1.715c0-1.079-0.768-1.596-1.907-1.596
		c-0.456,0-0.804,0.036-0.983,0.084V173.837z"/>
	<path d="M181.578,176.728c0.299,0.18,0.982,0.479,1.727,0.479c1.344,0,1.775-0.852,1.764-1.511c-0.013-1.092-0.996-1.56-2.016-1.56
		h-0.588v-0.791h0.588c0.768,0,1.739-0.396,1.739-1.319c0-0.624-0.396-1.176-1.367-1.176c-0.624,0-1.224,0.276-1.56,0.516
		l-0.287-0.768c0.42-0.3,1.211-0.6,2.051-0.6c1.535,0,2.23,0.911,2.23,1.859c0,0.815-0.492,1.499-1.439,1.847v0.024
		c0.959,0.18,1.727,0.899,1.739,1.99c0,1.247-0.983,2.339-2.843,2.339c-0.875,0-1.643-0.275-2.026-0.527L181.578,176.728z"/>
</g>
<g>
	<path d="M297.377,169.963c0.635-0.107,1.391-0.18,2.219-0.18c1.498,0,2.566,0.359,3.273,1.008c0.732,0.659,1.151,1.595,1.151,2.902
		c0,1.319-0.419,2.398-1.163,3.142c-0.768,0.756-2.016,1.164-3.586,1.164c-0.756,0-1.367-0.036-1.895-0.097V169.963z
		 M298.42,177.111c0.264,0.036,0.647,0.048,1.055,0.048c2.243,0,3.443-1.247,3.443-3.43c0.012-1.907-1.068-3.119-3.275-3.119
		c-0.539,0-0.947,0.049-1.223,0.108V177.111z"/>
	<path d="M305.248,176.728c0.3,0.18,0.983,0.479,1.727,0.479c1.344,0,1.775-0.852,1.764-1.511c-0.012-1.092-0.996-1.56-2.016-1.56
		h-0.587v-0.791h0.587c0.768,0,1.74-0.396,1.74-1.319c0-0.624-0.396-1.176-1.367-1.176c-0.624,0-1.225,0.276-1.56,0.516
		l-0.288-0.768c0.42-0.3,1.211-0.6,2.051-0.6c1.535,0,2.23,0.911,2.23,1.859c0,0.815-0.491,1.499-1.439,1.847v0.024
		c0.96,0.18,1.728,0.899,1.74,1.99c0,1.247-0.984,2.339-2.843,2.339c-0.876,0-1.644-0.275-2.026-0.527L305.248,176.728z"/>
</g>
<g>
	<path d="M47.663,62.639l-0.839,2.543h-1.08l2.758-8.084h1.248l2.758,8.084h-1.115l-0.864-2.543H47.663z M50.325,61.824
		l-0.804-2.326c-0.18-0.529-0.3-1.008-0.419-1.477h-0.024c-0.12,0.469-0.24,0.973-0.408,1.463l-0.792,2.34H50.325z"/>
	<path d="M55.618,58.369h-0.024l-1.355,0.732l-0.204-0.803l1.703-0.912h0.9v7.795h-1.02V58.369z"/>
</g>
<g>
	<path d="M152.433,62.639l-0.839,2.543h-1.08l2.758-8.084h1.248l2.758,8.084h-1.115l-0.864-2.543H152.433z M155.095,61.824
		l-0.804-2.326c-0.18-0.529-0.3-1.008-0.419-1.477h-0.024c-0.12,0.469-0.24,0.973-0.408,1.463l-0.792,2.34H155.095z"/>
	<path d="M158.097,65.182v-0.646l0.828-0.805c1.991-1.895,2.902-2.902,2.902-4.078c0-0.791-0.372-1.521-1.535-1.521
		c-0.708,0-1.295,0.359-1.655,0.658l-0.336-0.742c0.528-0.445,1.307-0.793,2.195-0.793c1.679,0,2.387,1.152,2.387,2.268
		c0,1.439-1.043,2.602-2.687,4.186l-0.612,0.576v0.023h3.49v0.875H158.097z"/>
</g>
<g>
	<path d="M271.008,62.639l-0.84,2.543h-1.08l2.759-8.084h1.247l2.759,8.084h-1.115l-0.864-2.543H271.008z M273.67,61.824
		l-0.804-2.326c-0.18-0.529-0.3-1.008-0.419-1.477h-0.025c-0.119,0.469-0.239,0.973-0.407,1.463l-0.792,2.34H273.67z"/>
	<path d="M276.924,63.982c0.3,0.18,0.983,0.48,1.727,0.48c1.344,0,1.775-0.852,1.764-1.512c-0.012-1.092-0.996-1.559-2.016-1.559
		h-0.587v-0.791h0.587c0.768,0,1.74-0.396,1.74-1.32c0-0.623-0.396-1.176-1.367-1.176c-0.625,0-1.225,0.277-1.56,0.516l-0.288-0.768
		c0.42-0.299,1.211-0.6,2.051-0.6c1.535,0,2.23,0.912,2.23,1.859c0,0.816-0.491,1.5-1.439,1.848v0.023
		c0.96,0.18,1.728,0.9,1.74,1.99c0,1.248-0.984,2.34-2.843,2.34c-0.876,0-1.644-0.275-2.026-0.527L276.924,63.982z"/>
</g>
<g>
	<polyline fill="none" stroke="#010101" points="132.89,68.894 162.588,39.195 152.512,41.494 	"/>
	<polyline fill="none" stroke="#010101" points="165.063,41.67 135.365,71.369 145.441,69.07 	"/>
</g>
<g>
	<polyline fill="none" stroke="#010101" points="250.582,68.894 280.28,39.195 270.204,41.494 	"/>
	<polyline fill="none" stroke="#010101" points="282.755,41.67 253.057,71.369 263.133,69.07 	"/>
</g>
<g>
	<polyline fill="none" stroke="#010101" points="146.347,171.592 176.045,141.894 165.969,144.192 	"/>
	<polyline fill="none" stroke="#010101" points="178.52,144.368 148.822,174.067 158.898,171.769 	"/>
</g>
<g>
	<polyline fill="none" stroke="#010101" points="258.701,171.592 288.4,141.894 278.324,144.192 	"/>
	<polyline fill="none" stroke="#010101" points="290.875,144.368 261.177,174.067 271.253,171.769 	"/>
</g>
<g>
	<path d="M68.109,154.199l-0.839,2.543h-1.08l2.758-8.084h1.248l2.758,8.084h-1.115l-0.864-2.543H68.109z M70.771,153.385
		l-0.804-2.326c-0.18-0.529-0.3-1.008-0.419-1.477h-0.024c-0.12,0.469-0.24,0.973-0.408,1.463l-0.792,2.34H70.771z"/>
	<path d="M77.036,156.742v-2.135h-3.622v-0.684l3.479-4.977h1.139v4.846h1.091v0.814h-1.091v2.135H77.036z M77.036,153.793v-2.604
		c0-0.408,0.012-0.814,0.036-1.223h-0.036c-0.24,0.455-0.432,0.791-0.647,1.15l-1.907,2.65v0.025H77.036z"/>
</g>
<g>
	<path d="M178.879,154.199l-0.84,2.543h-1.079l2.759-8.084h1.247l2.759,8.084h-1.115l-0.864-2.543H178.879z M181.541,153.385
		l-0.803-2.326c-0.18-0.529-0.301-1.008-0.42-1.477h-0.024c-0.12,0.469-0.239,0.973-0.407,1.463l-0.792,2.34H181.541z"/>
	<path d="M189.197,149.834h-2.975l-0.3,2.004c0.18-0.025,0.348-0.037,0.636-0.037c0.611,0,1.199,0.121,1.68,0.42
		c0.611,0.336,1.115,1.02,1.115,1.992c0,1.521-1.212,2.662-2.902,2.662c-0.852,0-1.56-0.24-1.943-0.48l0.264-0.803
		c0.324,0.191,0.959,0.432,1.68,0.432c0.982,0,1.846-0.648,1.834-1.691c0-1.008-0.684-1.715-2.23-1.715
		c-0.455,0-0.804,0.035-1.092,0.072l0.504-3.742h3.73V149.834z"/>
</g>
<g>
	<path d="M292.453,154.199l-0.839,2.543h-1.079l2.758-8.084h1.248l2.758,8.084h-1.115l-0.863-2.543H292.453z M295.116,153.385
		l-0.804-2.326c-0.18-0.529-0.3-1.008-0.42-1.477h-0.023c-0.12,0.469-0.24,0.973-0.408,1.463l-0.791,2.34H295.116z"/>
	<path d="M302.568,149.691c-0.217-0.014-0.492,0.012-0.792,0.059c-1.667,0.264-2.53,1.463-2.71,2.76h0.023
		c0.371-0.504,1.031-0.912,1.895-0.912c1.379,0,2.352,1.008,2.352,2.518c0,1.439-0.973,2.76-2.604,2.76
		c-1.654,0-2.746-1.295-2.746-3.322c0-1.535,0.539-2.746,1.319-3.514c0.647-0.637,1.511-1.031,2.495-1.152
		c0.312-0.047,0.575-0.061,0.768-0.061V149.691z M302.268,154.188c0-1.115-0.635-1.787-1.606-1.787
		c-0.636,0-1.235,0.385-1.523,0.961c-0.06,0.119-0.108,0.264-0.108,0.455c0.013,1.283,0.612,2.242,1.728,2.242
		C301.656,156.059,302.268,155.303,302.268,154.188z"/>
</g>
<g>
	<path d="M79.743,48.545c0.528-0.096,1.295-0.168,2.003-0.168c1.115,0,1.847,0.215,2.338,0.66c0.396,0.359,0.636,0.91,0.636,1.547
		c0,1.055-0.671,1.762-1.511,2.051v0.035c0.612,0.217,0.983,0.791,1.175,1.631c0.264,1.127,0.456,1.908,0.624,2.219h-1.08
		c-0.132-0.24-0.312-0.924-0.528-1.93c-0.24-1.115-0.684-1.535-1.631-1.572h-0.983v3.502h-1.043V48.545z M80.787,52.227h1.067
		c1.115,0,1.823-0.611,1.823-1.535c0-1.043-0.755-1.5-1.859-1.5c-0.504,0-0.852,0.037-1.031,0.084V52.227z"/>
	<path d="M89.089,56.52v-2.135h-3.622v-0.684l3.479-4.977h1.139v4.846h1.091v0.814h-1.091v2.135H89.089z M89.089,53.57v-2.604
		c0-0.408,0.012-0.814,0.036-1.223h-0.036c-0.24,0.455-0.432,0.791-0.647,1.15l-1.907,2.65v0.025H89.089z"/>
</g>
<g>
	<path d="M188.514,48.545c0.527-0.096,1.295-0.168,2.002-0.168c1.115,0,1.848,0.215,2.339,0.66c0.396,0.359,0.636,0.91,0.636,1.547
		c0,1.055-0.672,1.762-1.512,2.051v0.035c0.612,0.217,0.984,0.791,1.176,1.631c0.264,1.127,0.456,1.908,0.624,2.219h-1.079
		c-0.133-0.24-0.312-0.924-0.528-1.93c-0.239-1.115-0.684-1.535-1.631-1.572h-0.983v3.502h-1.043V48.545z M189.557,52.227h1.067
		c1.115,0,1.823-0.611,1.823-1.535c0-1.043-0.756-1.5-1.859-1.5c-0.504,0-0.852,0.037-1.031,0.084V52.227z"/>
	<path d="M199.251,49.611h-2.975l-0.3,2.004c0.18-0.025,0.348-0.037,0.636-0.037c0.611,0,1.199,0.121,1.679,0.42
		c0.611,0.336,1.115,1.02,1.115,1.992c0,1.521-1.211,2.662-2.902,2.662c-0.852,0-1.559-0.24-1.942-0.48l0.264-0.803
		c0.323,0.191,0.96,0.432,1.679,0.432c0.984,0,1.848-0.648,1.836-1.691c0-1.008-0.684-1.715-2.231-1.715
		c-0.456,0-0.804,0.035-1.091,0.072l0.504-3.742h3.729V49.611z"/>
</g>
<g>
	<path d="M308.088,48.545c0.527-0.096,1.295-0.168,2.003-0.168c1.115,0,1.847,0.215,2.339,0.66c0.396,0.359,0.635,0.91,0.635,1.547
		c0,1.055-0.671,1.762-1.511,2.051v0.035c0.612,0.217,0.983,0.791,1.175,1.631c0.265,1.127,0.457,1.908,0.625,2.219h-1.08
		c-0.132-0.24-0.312-0.924-0.527-1.93c-0.24-1.115-0.684-1.535-1.631-1.572h-0.984v3.502h-1.043V48.545z M309.131,52.227h1.068
		c1.115,0,1.822-0.611,1.822-1.535c0-1.043-0.756-1.5-1.859-1.5c-0.504,0-0.852,0.037-1.031,0.084V52.227z"/>
	<path d="M318.621,49.469c-0.215-0.014-0.491,0.012-0.791,0.059c-1.667,0.264-2.531,1.463-2.711,2.76h0.024
		c0.372-0.504,1.031-0.912,1.896-0.912c1.379,0,2.35,1.008,2.35,2.518c0,1.439-0.971,2.76-2.602,2.76
		c-1.656,0-2.747-1.295-2.747-3.322c0-1.535,0.54-2.746,1.319-3.514c0.647-0.637,1.512-1.031,2.494-1.152
		c0.312-0.047,0.576-0.061,0.768-0.061V49.469z M318.322,53.965c0-1.115-0.637-1.787-1.607-1.787c-0.636,0-1.235,0.385-1.523,0.961
		c-0.061,0.119-0.107,0.264-0.107,0.455c0.012,1.283,0.611,2.242,1.727,2.242C317.71,55.836,318.322,55.08,318.322,53.965z"/>
</g>
<g>
	<path d="M32.678,100.545c0.528-0.096,1.295-0.168,2.003-0.168c1.115,0,1.847,0.215,2.338,0.66c0.396,0.359,0.636,0.91,0.636,1.547
		c0,1.055-0.671,1.762-1.511,2.051v0.035c0.612,0.217,0.983,0.791,1.175,1.631c0.264,1.127,0.456,1.908,0.624,2.219h-1.08
		c-0.132-0.24-0.312-0.924-0.528-1.93c-0.24-1.115-0.684-1.535-1.631-1.572h-0.983v3.502h-1.043V100.545z M33.721,104.227h1.067
		c1.115,0,1.823-0.611,1.823-1.535c0-1.043-0.755-1.5-1.859-1.5c-0.504,0-0.852,0.037-1.031,0.084V104.227z"/>
	<path d="M41.053,101.707h-0.024l-1.355,0.732l-0.204-0.803l1.703-0.912h0.9v7.795h-1.02V101.707z"/>
</g>
<g>
	<path d="M131.448,100.545c0.528-0.096,1.295-0.168,2.003-0.168c1.115,0,1.847,0.215,2.338,0.66c0.396,0.359,0.636,0.91,0.636,1.547
		c0,1.055-0.671,1.762-1.511,2.051v0.035c0.612,0.217,0.983,0.791,1.175,1.631c0.264,1.127,0.456,1.908,0.624,2.219h-1.08
		c-0.132-0.24-0.312-0.924-0.528-1.93c-0.24-1.115-0.684-1.535-1.631-1.572h-0.983v3.502h-1.043V100.545z M132.491,104.227h1.067
		c1.115,0,1.823-0.611,1.823-1.535c0-1.043-0.755-1.5-1.859-1.5c-0.504,0-0.852,0.037-1.031,0.084V104.227z"/>
	<path d="M137.532,108.52v-0.646l0.828-0.805c1.991-1.895,2.902-2.902,2.902-4.078c0-0.791-0.372-1.521-1.535-1.521
		c-0.708,0-1.295,0.359-1.655,0.658l-0.336-0.742c0.528-0.445,1.307-0.793,2.195-0.793c1.679,0,2.387,1.152,2.387,2.268
		c0,1.439-1.043,2.602-2.687,4.186l-0.612,0.576v0.023h3.49v0.875H137.532z"/>
</g>
<g>
	<path d="M251.022,100.545c0.528-0.096,1.296-0.168,2.003-0.168c1.115,0,1.847,0.215,2.338,0.66c0.396,0.359,0.637,0.91,0.637,1.547
		c0,1.055-0.672,1.762-1.512,2.051v0.035c0.611,0.217,0.983,0.791,1.176,1.631c0.264,1.127,0.455,1.908,0.623,2.219h-1.079
		c-0.132-0.24-0.312-0.924-0.528-1.93c-0.239-1.115-0.684-1.535-1.631-1.572h-0.982v3.502h-1.044V100.545z M252.066,104.227h1.066
		c1.115,0,1.823-0.611,1.823-1.535c0-1.043-0.755-1.5-1.858-1.5c-0.504,0-0.852,0.037-1.031,0.084V104.227z"/>
	<path d="M257.358,107.32c0.3,0.18,0.983,0.48,1.728,0.48c1.343,0,1.774-0.852,1.763-1.512c-0.013-1.092-0.995-1.559-2.015-1.559
		h-0.588v-0.791h0.588c0.768,0,1.738-0.396,1.738-1.32c0-0.623-0.396-1.176-1.367-1.176c-0.623,0-1.223,0.277-1.559,0.516
		l-0.288-0.768c0.42-0.299,1.212-0.6,2.051-0.6c1.535,0,2.231,0.912,2.231,1.859c0,0.816-0.492,1.5-1.439,1.848v0.023
		c0.959,0.18,1.727,0.9,1.738,1.99c0,1.248-0.982,2.34-2.842,2.34c-0.875,0-1.643-0.275-2.027-0.527L257.358,107.32z"/>
</g>
</svg>
