<?xml version="1.0" encoding="UTF-8" standalone="no"?>
<!DOCTYPE svg PUBLIC "-//W3C//DTD SVG 1.1//EN"
 "http://www.w3.org/Graphics/SVG/1.1/DTD/svg11.dtd">
<!-- Generated by graphviz version 2.24.0 (20090616.2323)
 -->
<!-- Title: G Pages: 1 -->
<svg width="1620pt" height="148pt"
 viewBox="0.00 0.00 1620.00 148.00" xmlns="http://www.w3.org/2000/svg" xmlns:xlink="http://www.w3.org/1999/xlink">
<g id="graph1" class="graph" transform="scale(1 1) rotate(0) translate(4 144)">
<title>G</title>
<polygon fill="white" stroke="white" points="-4,5 -4,-144 1617,-144 1617,5 -4,5"/>
<!-- C1 -->
<g id="node1" class="node"><title>C1</title>
<polyline fill="none" stroke="black" points="42,-56 12,-56 "/>
<path fill="none" stroke="black" d="M12,-56C6,-56 2.07242e-14,-50 1.65793e-14,-44"/>
<polyline fill="none" stroke="black" points="1.65793e-14,-44 8.28967e-15,-32 "/>
<path fill="none" stroke="black" d="M8.28967e-15,-32C4.14483e-15,-26 6,-20 12,-20"/>
<polyline fill="none" stroke="black" points="12,-20 42,-20 "/>
<path fill="none" stroke="black" d="M42,-20C48,-20 54,-26 54,-32"/>
<polyline fill="none" stroke="black" points="54,-32 54,-44 "/>
<path fill="none" stroke="black" d="M54,-44C54,-50 48,-56 42,-56"/>
<text text-anchor="middle" x="27" y="-35.5" font-family="Times Roman,serif" font-size="10.00">C1</text>
</g>
<!-- reaction_0000008_intermediate_r -->
<g id="node60" class="node"><title>reaction_0000008_intermediate_r</title>
<ellipse fill="black" stroke="black" cx="91" cy="-67" rx="0.036" ry="0.036"/>
</g>
<!-- C1&#45;&gt;reaction_0000008_intermediate_r -->
<g id="edge60" class="edge"><title>C1&#45;&gt;reaction_0000008_intermediate_r</title>
<path fill="none" stroke="black" d="M63.3173,-54.4563C77.2096,-60.7512 89.9961,-66.5451 90.9438,-66.9745"/>
<polygon fill="black" stroke="black" points="64.6949,-51.238 54.1418,-50.2986 61.8057,-57.614 64.6949,-51.238"/>
</g>
<!-- reaction_0000009_intermediate_r -->
<g id="node67" class="node"><title>reaction_0000009_intermediate_r</title>
<ellipse fill="black" stroke="black" cx="135" cy="-38" rx="0.036" ry="0.036"/>
</g>
<!-- C1&#45;&gt;reaction_0000009_intermediate_r -->
<g id="edge68" class="edge"><title>C1&#45;&gt;reaction_0000009_intermediate_r</title>
<path fill="none" stroke="black" d="M64.5147,-38C94.6151,-38 132.274,-38 134.859,-38"/>
<polygon fill="black" stroke="black" points="64.253,-34.5001 54.253,-38 64.2529,-41.5001 64.253,-34.5001"/>
</g>
<!-- C2 -->
<g id="node2" class="node"><title>C2</title>
<polyline fill="none" stroke="black" points="270,-94 240,-94 "/>
<path fill="none" stroke="black" d="M240,-94C234,-94 228,-88 228,-82"/>
<polyline fill="none" stroke="black" points="228,-82 228,-70 "/>
<path fill="none" stroke="black" d="M228,-70C228,-64 234,-58 240,-58"/>
<polyline fill="none" stroke="black" points="240,-58 270,-58 "/>
<path fill="none" stroke="black" d="M270,-58C276,-58 282,-64 282,-70"/>
<polyline fill="none" stroke="black" points="282,-70 282,-82 "/>
<path fill="none" stroke="black" d="M282,-82C282,-88 276,-94 270,-94"/>
<text text-anchor="middle" x="255" y="-73.5" font-family="Times Roman,serif" font-size="10.00">C2</text>
</g>
<!-- reaction_0000006_intermediate_r -->
<g id="node46" class="node"><title>reaction_0000006_intermediate_r</title>
<ellipse fill="black" stroke="black" cx="319" cy="-106" rx="0.036" ry="0.036"/>
</g>
<!-- C2&#45;&gt;reaction_0000006_intermediate_r -->
<g id="edge44" class="edge"><title>C2&#45;&gt;reaction_0000006_intermediate_r</title>
<path fill="none" stroke="black" d="M291.317,-93.0238C305.21,-99.5358 317.996,-105.529 318.944,-105.974"/>
<polygon fill="black" stroke="black" points="292.682,-89.798 282.142,-88.7227 289.711,-96.1362 292.682,-89.798"/>
</g>
<!-- reaction_0000007_intermediate_r -->
<g id="node53" class="node"><title>reaction_0000007_intermediate_r</title>
<ellipse fill="black" stroke="black" cx="363" cy="-76" rx="0.036" ry="0.036"/>
</g>
<!-- C2&#45;&gt;reaction_0000007_intermediate_r -->
<g id="edge52" class="edge"><title>C2&#45;&gt;reaction_0000007_intermediate_r</title>
<path fill="none" stroke="black" d="M292.515,-76C322.615,-76 360.274,-76 362.859,-76"/>
<polygon fill="black" stroke="black" points="292.253,-72.5001 282.253,-76 292.253,-79.5001 292.253,-72.5001"/>
</g>
<!-- C3 -->
<g id="node3" class="node"><title>C3</title>
<polyline fill="none" stroke="black" points="498,-132 468,-132 "/>
<path fill="none" stroke="black" d="M468,-132C462,-132 456,-126 456,-120"/>
<polyline fill="none" stroke="black" points="456,-120 456,-108 "/>
<path fill="none" stroke="black" d="M456,-108C456,-102 462,-96 468,-96"/>
<polyline fill="none" stroke="black" points="468,-96 498,-96 "/>
<path fill="none" stroke="black" d="M498,-96C504,-96 510,-102 510,-108"/>
<polyline fill="none" stroke="black" points="510,-108 510,-120 "/>
<path fill="none" stroke="black" d="M510,-120C510,-126 504,-132 498,-132"/>
<text text-anchor="middle" x="483" y="-111.5" font-family="Times Roman,serif" font-size="10.00">C3</text>
</g>
<!-- reaction_0000005_intermediate_r -->
<g id="node39" class="node"><title>reaction_0000005_intermediate_r</title>
<ellipse fill="black" stroke="black" cx="547" cy="-119" rx="0.036" ry="0.036"/>
</g>
<!-- C3&#45;&gt;reaction_0000005_intermediate_r -->
<g id="edge36" class="edge"><title>C3&#45;&gt;reaction_0000005_intermediate_r</title>
<path fill="none" stroke="black" d="M520.505,-116.93C533.931,-117.979 546.023,-118.924 546.944,-118.996"/>
<polygon fill="black" stroke="black" points="520.384,-113.41 510.142,-116.12 519.839,-120.389 520.384,-113.41"/>
</g>
<!-- IC3 -->
<g id="node4" class="node"><title>IC3</title>
<polyline fill="none" stroke="black" points="714,-140 684,-140 "/>
<path fill="none" stroke="black" d="M684,-140C678,-140 672,-134 672,-128"/>
<polyline fill="none" stroke="black" points="672,-128 672,-116 "/>
<path fill="none" stroke="black" d="M672,-116C672,-110 678,-104 684,-104"/>
<polyline fill="none" stroke="black" points="684,-104 714,-104 "/>
<path fill="none" stroke="black" d="M714,-104C720,-104 726,-110 726,-116"/>
<polyline fill="none" stroke="black" points="726,-116 726,-128 "/>
<path fill="none" stroke="black" d="M726,-128C726,-134 720,-140 714,-140"/>
<text text-anchor="middle" x="699" y="-119.5" font-family="Times Roman,serif" font-size="10.00">IC3</text>
</g>
<!-- reaction_0000001_intermediate_r -->
<g id="node11" class="node"><title>reaction_0000001_intermediate_r</title>
<ellipse fill="black" stroke="black" cx="763" cy="-119" rx="0.036" ry="0.036"/>
</g>
<!-- IC3&#45;&gt;reaction_0000001_intermediate_r -->
<g id="edge4" class="edge"><title>IC3&#45;&gt;reaction_0000001_intermediate_r</title>
<path fill="none" stroke="black" d="M736.505,-120.242C749.931,-119.613 762.023,-119.046 762.944,-119.003"/>
<polygon fill="black" stroke="black" points="735.967,-116.763 726.142,-120.728 736.295,-123.756 735.967,-116.763"/>
</g>
<!-- IC2 -->
<g id="node5" class="node"><title>IC2</title>
<polyline fill="none" stroke="black" points="930,-102 900,-102 "/>
<path fill="none" stroke="black" d="M900,-102C894,-102 888,-96 888,-90"/>
<polyline fill="none" stroke="black" points="888,-90 888,-78 "/>
<path fill="none" stroke="black" d="M888,-78C888,-72 894,-66 900,-66"/>
<polyline fill="none" stroke="black" points="900,-66 930,-66 "/>
<path fill="none" stroke="black" d="M930,-66C936,-66 942,-72 942,-78"/>
<polyline fill="none" stroke="black" points="942,-78 942,-90 "/>
<path fill="none" stroke="black" d="M942,-90C942,-96 936,-102 930,-102"/>
<text text-anchor="middle" x="915" y="-81.5" font-family="Times Roman,serif" font-size="10.00">IC2</text>
</g>
<!-- reaction_0000002_intermediate_r -->
<g id="node18" class="node"><title>reaction_0000002_intermediate_r</title>
<ellipse fill="black" stroke="black" cx="979" cy="-81" rx="0.036" ry="0.036"/>
</g>
<!-- IC2&#45;&gt;reaction_0000002_intermediate_r -->
<g id="edge12" class="edge"><title>IC2&#45;&gt;reaction_0000002_intermediate_r</title>
<path fill="none" stroke="black" d="M952.505,-82.2419C965.931,-81.6126 978.023,-81.0458 978.944,-81.0026"/>
<polygon fill="black" stroke="black" points="951.967,-78.7632 942.142,-82.7277 952.295,-85.7556 951.967,-78.7632"/>
</g>
<!-- IM1 -->
<g id="node6" class="node"><title>IM1</title>
<polyline fill="none" stroke="black" points="1374,-118 1344,-118 "/>
<path fill="none" stroke="black" d="M1344,-118C1338,-118 1332,-112 1332,-106"/>
<polyline fill="none" stroke="black" points="1332,-106 1332,-94 "/>
<path fill="none" stroke="black" d="M1332,-94C1332,-88 1338,-82 1344,-82"/>
<polyline fill="none" stroke="black" points="1344,-82 1374,-82 "/>
<path fill="none" stroke="black" d="M1374,-82C1380,-82 1386,-88 1386,-94"/>
<polyline fill="none" stroke="black" points="1386,-94 1386,-106 "/>
<path fill="none" stroke="black" d="M1386,-106C1386,-112 1380,-118 1374,-118"/>
<text text-anchor="middle" x="1359" y="-97.5" font-family="Times Roman,serif" font-size="10.00">IM1</text>
</g>
<!-- reaction_0000004_intermediate_r -->
<g id="node32" class="node"><title>reaction_0000004_intermediate_r</title>
<ellipse fill="black" stroke="black" cx="1435" cy="-100" rx="0.036" ry="0.036"/>
</g>
<!-- IM1&#45;&gt;reaction_0000004_intermediate_r -->
<g id="edge28" class="edge"><title>IM1&#45;&gt;reaction_0000004_intermediate_r</title>
<path fill="none" stroke="black" d="M1396.18,-100C1414.74,-100 1433.56,-100 1434.92,-100"/>
<polygon fill="black" stroke="black" points="1396.01,-96.5001 1386.01,-100 1396.01,-103.5 1396.01,-96.5001"/>
</g>
<!-- IM2 -->
<g id="node7" class="node"><title>IM2</title>
<polyline fill="none" stroke="black" points="1600,-118 1570,-118 "/>
<path fill="none" stroke="black" d="M1570,-118C1564,-118 1558,-112 1558,-106"/>
<polyline fill="none" stroke="black" points="1558,-106 1558,-94 "/>
<path fill="none" stroke="black" d="M1558,-94C1558,-88 1564,-82 1570,-82"/>
<polyline fill="none" stroke="black" points="1570,-82 1600,-82 "/>
<path fill="none" stroke="black" d="M1600,-82C1606,-82 1612,-88 1612,-94"/>
<polyline fill="none" stroke="black" points="1612,-94 1612,-106 "/>
<path fill="none" stroke="black" d="M1612,-106C1612,-112 1606,-118 1600,-118"/>
<text text-anchor="middle" x="1585" y="-97.5" font-family="Times Roman,serif" font-size="10.00">IM2</text>
</g>
<!-- O -->
<g id="node8" class="node"><title>O</title>
<polyline fill="none" stroke="black" points="1386,-64 1332,-64 "/>
<path fill="none" stroke="black" d="M1332,-64C1326,-64 1320,-58 1320,-52"/>
<polyline fill="none" stroke="black" points="1320,-52 1320,-40 "/>
<path fill="none" stroke="black" d="M1320,-40C1320,-34 1326,-28 1332,-28"/>
<polyline fill="none" stroke="black" points="1332,-28 1386,-28 "/>
<path fill="none" stroke="black" d="M1386,-28C1392,-28 1398,-34 1398,-40"/>
<polyline fill="none" stroke="black" points="1398,-40 1398,-52 "/>
<path fill="none" stroke="black" d="M1398,-52C1398,-58 1392,-64 1386,-64"/>
<text text-anchor="middle" x="1359" y="-43.5" font-family="Times Roman,serif" font-size="10.00">open states</text>
</g>
<!-- reaction_0000011_intermediate_r -->
<g id="node81" class="node"><title>reaction_0000011_intermediate_r</title>
<ellipse fill="black" stroke="black" cx="1435" cy="-43" rx="0.036" ry="0.036"/>
</g>
<!-- O&#45;&gt;reaction_0000011_intermediate_r -->
<g id="edge84" class="edge"><title>O&#45;&gt;reaction_0000011_intermediate_r</title>
<path fill="none" stroke="black" d="M1408.7,-44.0383C1422.53,-43.4921 1434.08,-43.0364 1434.95,-43.0021"/>
<polygon fill="black" stroke="black" points="1408.19,-40.5555 1398.34,-44.4473 1408.47,-47.55 1408.19,-40.5555"/>
</g>
<!-- IF -->
<g id="node9" class="node"><title>IF</title>
<polyline fill="none" stroke="black" points="1146,-87 1116,-87 "/>
<path fill="none" stroke="black" d="M1116,-87C1110,-87 1104,-81 1104,-75"/>
<polyline fill="none" stroke="black" points="1104,-75 1104,-63 "/>
<path fill="none" stroke="black" d="M1104,-63C1104,-57 1110,-51 1116,-51"/>
<polyline fill="none" stroke="black" points="1116,-51 1146,-51 "/>
<path fill="none" stroke="black" d="M1146,-51C1152,-51 1158,-57 1158,-63"/>
<polyline fill="none" stroke="black" points="1158,-63 1158,-75 "/>
<path fill="none" stroke="black" d="M1158,-75C1158,-81 1152,-87 1146,-87"/>
<text text-anchor="middle" x="1131" y="-66.5" font-family="Times Roman,serif" font-size="10.00">IF</text>
</g>
<!-- reaction_0000003_intermediate_r -->
<g id="node25" class="node"><title>reaction_0000003_intermediate_r</title>
<ellipse fill="black" stroke="black" cx="1195" cy="-78" rx="0.036" ry="0.036"/>
</g>
<!-- IF&#45;&gt;reaction_0000003_intermediate_r -->
<g id="edge20" class="edge"><title>IF&#45;&gt;reaction_0000003_intermediate_r</title>
<path fill="none" stroke="black" d="M1168.11,-74.2186C1181.69,-76.1286 1194.01,-77.8614 1194.94,-77.9921"/>
<polygon fill="black" stroke="black" points="1168.53,-70.7435 1158.14,-72.8168 1167.56,-77.6753 1168.53,-70.7435"/>
</g>
<!-- reaction_0000010_intermediate_r -->
<g id="node74" class="node"><title>reaction_0000010_intermediate_r</title>
<ellipse fill="black" stroke="black" cx="1195" cy="-53" rx="0.036" ry="0.036"/>
</g>
<!-- IF&#45;&gt;reaction_0000010_intermediate_r -->
<g id="edge76" class="edge"><title>IF&#45;&gt;reaction_0000010_intermediate_r</title>
<path fill="none" stroke="black" d="M1168.11,-59.7225C1181.69,-56.3269 1194.01,-53.2465 1194.94,-53.0141"/>
<polygon fill="black" stroke="black" points="1166.99,-56.3936 1158.14,-62.2146 1168.69,-63.1846 1166.99,-56.3936"/>
</g>
<!-- reaction_0000001 -->
<g id="node10" class="node"><title>reaction_0000001</title>
<polygon fill="none" stroke="black" points="814,-121 800,-121 800,-107 814,-107 814,-121"/>
</g>
<!-- reaction_0000001_intermediate_p -->
<g id="node14" class="node"><title>reaction_0000001_intermediate_p</title>
<ellipse fill="black" stroke="black" cx="851" cy="-109" rx="0.036" ry="0.036"/>
</g>
<!-- reaction_0000001&#45;&gt;reaction_0000001_intermediate_p -->
<g id="edge6" class="edge"><title>reaction_0000001&#45;&gt;reaction_0000001_intermediate_p</title>
<path fill="none" stroke="black" d="M814.266,-113.174C826.372,-111.799 849.497,-109.171 850.93,-109.008"/>
</g>
<!-- reaction_0000001_intermediate_r&#45;&gt;reaction_0000001 -->
<g id="edge2" class="edge"><title>reaction_0000001_intermediate_r&#45;&gt;reaction_0000001</title>
<path fill="none" stroke="black" d="M763.126,-118.986C765.022,-118.77 787.795,-116.182 799.759,-114.823"/>
</g>
<!-- reaction_0000001_intermediate_p&#45;&gt;IC2 -->
<g id="edge8" class="edge"><title>reaction_0000001_intermediate_p&#45;&gt;IC2</title>
<path fill="none" stroke="black" d="M851.046,-108.982C851.901,-108.648 864.449,-103.747 878.206,-98.3727"/>
<polygon fill="black" stroke="black" points="879.753,-101.526 887.794,-94.6272 877.206,-95.0056 879.753,-101.526"/>
</g>
<!-- reaction_0000002 -->
<g id="node17" class="node"><title>reaction_0000002</title>
<polygon fill="none" stroke="black" points="1030,-83 1016,-83 1016,-69 1030,-69 1030,-83"/>
</g>
<!-- reaction_0000002_intermediate_p -->
<g id="node21" class="node"><title>reaction_0000002_intermediate_p</title>
<ellipse fill="black" stroke="black" cx="1067" cy="-71" rx="0.036" ry="0.036"/>
</g>
<!-- reaction_0000002&#45;&gt;reaction_0000002_intermediate_p -->
<g id="edge14" class="edge"><title>reaction_0000002&#45;&gt;reaction_0000002_intermediate_p</title>
<path fill="none" stroke="black" d="M1030.27,-75.1744C1042.37,-73.7986 1065.5,-71.1708 1066.93,-71.0079"/>
</g>
<!-- reaction_0000002_intermediate_r&#45;&gt;reaction_0000002 -->
<g id="edge10" class="edge"><title>reaction_0000002_intermediate_r&#45;&gt;reaction_0000002</title>
<path fill="none" stroke="black" d="M979.126,-80.9857C981.022,-80.7703 1003.79,-78.1824 1015.76,-76.8228"/>
</g>
<!-- reaction_0000002_intermediate_p&#45;&gt;IF -->
<g id="edge16" class="edge"><title>reaction_0000002_intermediate_p&#45;&gt;IF</title>
<path fill="none" stroke="black" d="M1067.05,-70.9986C1067.88,-70.9723 1079.97,-70.5947 1093.41,-70.1746"/>
<polygon fill="black" stroke="black" points="1093.91,-73.6609 1103.79,-69.8502 1093.69,-66.6643 1093.91,-73.6609"/>
</g>
<!-- reaction_0000003 -->
<g id="node24" class="node"><title>reaction_0000003</title>
<polygon fill="none" stroke="black" points="1246,-102 1232,-102 1232,-88 1246,-88 1246,-102"/>
</g>
<!-- reaction_0000003_intermediate_p -->
<g id="node28" class="node"><title>reaction_0000003_intermediate_p</title>
<ellipse fill="black" stroke="black" cx="1283" cy="-98" rx="0.036" ry="0.036"/>
</g>
<!-- reaction_0000003&#45;&gt;reaction_0000003_intermediate_p -->
<g id="edge22" class="edge"><title>reaction_0000003&#45;&gt;reaction_0000003_intermediate_p</title>
<path fill="none" stroke="black" d="M1246.27,-95.4954C1258.37,-96.3208 1281.5,-97.8975 1282.93,-97.9952"/>
</g>
<!-- reaction_0000003_intermediate_r&#45;&gt;reaction_0000003 -->
<g id="edge18" class="edge"><title>reaction_0000003_intermediate_r&#45;&gt;reaction_0000003</title>
<path fill="none" stroke="black" d="M1195.13,-78.0488C1197.02,-78.781 1219.79,-87.5797 1231.76,-92.2023"/>
</g>
<!-- reaction_0000003_intermediate_p&#45;&gt;IM1 -->
<g id="edge24" class="edge"><title>reaction_0000003_intermediate_p&#45;&gt;IM1</title>
<path fill="none" stroke="black" d="M1283.06,-98.0014C1284.2,-98.0316 1303.02,-98.5267 1321.63,-99.0166"/>
<polygon fill="black" stroke="black" points="1321.75,-102.521 1331.84,-99.2852 1321.93,-95.5232 1321.75,-102.521"/>
</g>
<!-- reaction_0000004 -->
<g id="node31" class="node"><title>reaction_0000004</title>
<polygon fill="none" stroke="black" points="1486,-107 1472,-107 1472,-93 1486,-93 1486,-107"/>
</g>
<!-- reaction_0000004_intermediate_p -->
<g id="node35" class="node"><title>reaction_0000004_intermediate_p</title>
<ellipse fill="black" stroke="black" cx="1522" cy="-100" rx="0.036" ry="0.036"/>
</g>
<!-- reaction_0000004&#45;&gt;reaction_0000004_intermediate_p -->
<g id="edge30" class="edge"><title>reaction_0000004&#45;&gt;reaction_0000004_intermediate_p</title>
<path fill="none" stroke="black" d="M1486.1,-100C1497.93,-100 1520.53,-100 1521.93,-100"/>
</g>
<!-- reaction_0000004_intermediate_r&#45;&gt;reaction_0000004 -->
<g id="edge26" class="edge"><title>reaction_0000004_intermediate_r&#45;&gt;reaction_0000004</title>
<path fill="none" stroke="black" d="M1435.13,-100C1437.02,-100 1459.79,-100 1471.76,-100"/>
</g>
<!-- reaction_0000004_intermediate_p&#45;&gt;IM2 -->
<g id="edge32" class="edge"><title>reaction_0000004_intermediate_p&#45;&gt;IM2</title>
<path fill="none" stroke="black" d="M1522.05,-100C1522.87,-100 1534.6,-100 1547.72,-100"/>
<polygon fill="black" stroke="black" points="1547.86,-103.5 1557.86,-100 1547.86,-96.5001 1547.86,-103.5"/>
</g>
<!-- reaction_0000005 -->
<g id="node38" class="node"><title>reaction_0000005</title>
<polygon fill="none" stroke="black" points="598,-127 584,-127 584,-113 598,-113 598,-127"/>
</g>
<!-- reaction_0000005_intermediate_p -->
<g id="node42" class="node"><title>reaction_0000005_intermediate_p</title>
<ellipse fill="black" stroke="black" cx="635" cy="-121" rx="0.036" ry="0.036"/>
</g>
<!-- reaction_0000005&#45;&gt;reaction_0000005_intermediate_p -->
<g id="edge38" class="edge"><title>reaction_0000005&#45;&gt;reaction_0000005_intermediate_p</title>
<path fill="none" stroke="black" d="M598.266,-120.165C610.372,-120.44 633.497,-120.966 634.93,-120.998"/>
</g>
<!-- reaction_0000005_intermediate_r&#45;&gt;reaction_0000005 -->
<g id="edge34" class="edge"><title>reaction_0000005_intermediate_r&#45;&gt;reaction_0000005</title>
<path fill="none" stroke="black" d="M547.126,-119.003C549.022,-119.046 571.795,-119.564 583.759,-119.835"/>
</g>
<!-- reaction_0000005_intermediate_p&#45;&gt;IC3 -->
<g id="edge40" class="edge"><title>reaction_0000005_intermediate_p&#45;&gt;IC3</title>
<path fill="none" stroke="black" d="M635.046,-121.001C635.885,-121.014 647.971,-121.203 661.414,-121.413"/>
<polygon fill="black" stroke="black" points="661.741,-124.918 671.794,-121.575 661.85,-117.919 661.741,-124.918"/>
</g>
<!-- reaction_0000006 -->
<g id="node45" class="node"><title>reaction_0000006</title>
<polygon fill="none" stroke="black" points="370,-117 356,-117 356,-103 370,-103 370,-117"/>
</g>
<!-- reaction_0000006_intermediate_p -->
<g id="node49" class="node"><title>reaction_0000006_intermediate_p</title>
<ellipse fill="black" stroke="black" cx="413" cy="-112" rx="0.036" ry="0.036"/>
</g>
<!-- reaction_0000006&#45;&gt;reaction_0000006_intermediate_p -->
<g id="edge46" class="edge"><title>reaction_0000006&#45;&gt;reaction_0000006_intermediate_p</title>
<path fill="none" stroke="black" d="M370.378,-110.295C383.851,-110.834 411.22,-111.929 412.917,-111.997"/>
</g>
<!-- reaction_0000006_intermediate_r&#45;&gt;reaction_0000006 -->
<g id="edge42" class="edge"><title>reaction_0000006_intermediate_r&#45;&gt;reaction_0000006</title>
<path fill="none" stroke="black" d="M319.126,-106.011C321.022,-106.184 343.795,-108.254 355.759,-109.342"/>
</g>
<!-- reaction_0000006_intermediate_p&#45;&gt;C3 -->
<g id="edge48" class="edge"><title>reaction_0000006_intermediate_p&#45;&gt;C3</title>
<path fill="none" stroke="black" d="M413.051,-112.001C414.045,-112.03 429.496,-112.471 445.624,-112.932"/>
<polygon fill="black" stroke="black" points="445.533,-116.431 455.629,-113.218 445.733,-109.434 445.533,-116.431"/>
</g>
<!-- reaction_0000007 -->
<g id="node52" class="node"><title>reaction_0000007</title>
<polygon fill="none" stroke="black" points="420,-83 406,-83 406,-69 420,-69 420,-83"/>
</g>
<!-- reaction_0000007_intermediate_p -->
<g id="node56" class="node"><title>reaction_0000007_intermediate_p</title>
<ellipse fill="black" stroke="black" cx="483" cy="-76" rx="0.036" ry="0.036"/>
</g>
<!-- reaction_0000007&#45;&gt;reaction_0000007_intermediate_p -->
<g id="edge54" class="edge"><title>reaction_0000007&#45;&gt;reaction_0000007_intermediate_p</title>
<path fill="none" stroke="black" d="M420.228,-76C437.554,-76 480.221,-76 482.871,-76"/>
</g>
<!-- reaction_0000007_intermediate_r&#45;&gt;reaction_0000007 -->
<g id="edge50" class="edge"><title>reaction_0000007_intermediate_r&#45;&gt;reaction_0000007</title>
<path fill="none" stroke="black" d="M363.143,-76C365.343,-76 392.288,-76 405.622,-76"/>
</g>
<!-- reaction_0000007_intermediate_p&#45;&gt;IC2 -->
<g id="edge56" class="edge"><title>reaction_0000007_intermediate_p&#45;&gt;IC2</title>
<path fill="none" stroke="black" d="M483.044,-76C484.872,-76 543.75,-76 591,-76 591,-76 591,-76 807,-76 830.643,-76 857.119,-77.9304 877.939,-79.8947"/>
<polygon fill="black" stroke="black" points="877.671,-83.3852 887.967,-80.8841 878.359,-76.419 877.671,-83.3852"/>
</g>
<!-- reaction_0000008 -->
<g id="node59" class="node"><title>reaction_0000008</title>
<polygon fill="none" stroke="black" points="142,-76 128,-76 128,-62 142,-62 142,-76"/>
</g>
<!-- reaction_0000008_intermediate_p -->
<g id="node63" class="node"><title>reaction_0000008_intermediate_p</title>
<ellipse fill="black" stroke="black" cx="185" cy="-74" rx="0.036" ry="0.036"/>
</g>
<!-- reaction_0000008&#45;&gt;reaction_0000008_intermediate_p -->
<g id="edge62" class="edge"><title>reaction_0000008&#45;&gt;reaction_0000008_intermediate_p</title>
<path fill="none" stroke="black" d="M142.378,-69.7378C155.851,-71.0851 183.22,-73.822 184.917,-73.9917"/>
</g>
<!-- reaction_0000008_intermediate_r&#45;&gt;reaction_0000008 -->
<g id="edge58" class="edge"><title>reaction_0000008_intermediate_r&#45;&gt;reaction_0000008</title>
<path fill="none" stroke="black" d="M91.1262,-67.0057C93.0215,-67.0919 115.795,-68.127 127.759,-68.6709"/>
</g>
<!-- reaction_0000008_intermediate_p&#45;&gt;C2 -->
<g id="edge64" class="edge"><title>reaction_0000008_intermediate_p&#45;&gt;C2</title>
<path fill="none" stroke="black" d="M185.051,-74.0014C186.045,-74.0299 201.496,-74.4713 217.624,-74.9321"/>
<polygon fill="black" stroke="black" points="217.533,-78.4309 227.629,-75.218 217.733,-71.4337 217.533,-78.4309"/>
</g>
<!-- reaction_0000009 -->
<g id="node66" class="node"><title>reaction_0000009</title>
<polygon fill="none" stroke="black" points="192,-45 178,-45 178,-31 192,-31 192,-45"/>
</g>
<!-- reaction_0000009_intermediate_p -->
<g id="node70" class="node"><title>reaction_0000009_intermediate_p</title>
<ellipse fill="black" stroke="black" cx="255" cy="-38" rx="0.036" ry="0.036"/>
</g>
<!-- reaction_0000009&#45;&gt;reaction_0000009_intermediate_p -->
<g id="edge70" class="edge"><title>reaction_0000009&#45;&gt;reaction_0000009_intermediate_p</title>
<path fill="none" stroke="black" d="M192.228,-38C209.554,-38 252.221,-38 254.871,-38"/>
</g>
<!-- reaction_0000009_intermediate_r&#45;&gt;reaction_0000009 -->
<g id="edge66" class="edge"><title>reaction_0000009_intermediate_r&#45;&gt;reaction_0000009</title>
<path fill="none" stroke="black" d="M135.143,-38C137.343,-38 164.288,-38 177.622,-38"/>
</g>
<!-- reaction_0000009_intermediate_p&#45;&gt;IF -->
<g id="edge72" class="edge"><title>reaction_0000009_intermediate_p&#45;&gt;IF</title>
<path fill="none" stroke="black" d="M255.044,-38C256.872,-38 315.75,-38 363,-38 363,-38 363,-38 1023,-38 1047.31,-38 1073.54,-45.3449 1094.06,-52.8843"/>
<polygon fill="black" stroke="black" points="1093.06,-56.2471 1103.65,-56.5697 1095.57,-49.7135 1093.06,-56.2471"/>
</g>
<!-- reaction_0000010 -->
<g id="node73" class="node"><title>reaction_0000010</title>
<polygon fill="none" stroke="black" points="1246,-59 1232,-59 1232,-45 1246,-45 1246,-59"/>
</g>
<!-- reaction_0000010_intermediate_p -->
<g id="node77" class="node"><title>reaction_0000010_intermediate_p</title>
<ellipse fill="black" stroke="black" cx="1283" cy="-48" rx="0.036" ry="0.036"/>
</g>
<!-- reaction_0000010&#45;&gt;reaction_0000010_intermediate_p -->
<g id="edge78" class="edge"><title>reaction_0000010&#45;&gt;reaction_0000010_intermediate_p</title>
<path fill="none" stroke="black" d="M1246.27,-51.3395C1258.37,-50.2389 1281.5,-48.1367 1282.93,-48.0064"/>
</g>
<!-- reaction_0000010_intermediate_r&#45;&gt;reaction_0000010 -->
<g id="edge74" class="edge"><title>reaction_0000010_intermediate_r&#45;&gt;reaction_0000010</title>
<path fill="none" stroke="black" d="M1195.13,-52.9971C1197.02,-52.9541 1219.79,-52.4365 1231.76,-52.1646"/>
</g>
<!-- reaction_0000010_intermediate_p&#45;&gt;O -->
<g id="edge80" class="edge"><title>reaction_0000010_intermediate_p&#45;&gt;O</title>
<path fill="none" stroke="black" d="M1283.06,-47.9986C1283.94,-47.9751 1295.5,-47.6711 1309.34,-47.3069"/>
<polygon fill="black" stroke="black" points="1309.79,-50.7962 1319.7,-47.0342 1309.61,-43.7986 1309.79,-50.7962"/>
</g>
<!-- reaction_0000011 -->
<g id="node80" class="node"><title>reaction_0000011</title>
<polygon fill="none" stroke="black" points="1486,-45 1472,-45 1472,-31 1486,-31 1486,-45"/>
</g>
<!-- reaction_0000011_intermediate_p -->
<g id="node84" class="node"><title>reaction_0000011_intermediate_p</title>
<ellipse fill="black" stroke="black" cx="1522" cy="-19" rx="0.036" ry="0.036"/>
</g>
<!-- reaction_0000011&#45;&gt;reaction_0000011_intermediate_p -->
<g id="edge86" class="edge"><title>reaction_0000011&#45;&gt;reaction_0000011_intermediate_p</title>
<path fill="none" stroke="black" d="M1486.1,-34.8625C1497.93,-29.6346 1520.53,-19.6492 1521.93,-19.0302"/>
</g>
<!-- reaction_0000011_intermediate_r&#45;&gt;reaction_0000011 -->
<g id="edge82" class="edge"><title>reaction_0000011_intermediate_r&#45;&gt;reaction_0000011</title>
<path fill="none" stroke="black" d="M1435.13,-42.9857C1437.02,-42.7703 1459.79,-40.1824 1471.76,-38.8228"/>
</g>
<!-- reaction_0000011_intermediate_p&#45;&gt;C1 -->
<g id="edge88" class="edge"><title>reaction_0000011_intermediate_p&#45;&gt;C1</title>
<path fill="none" stroke="black" d="M1521.86,-18.9455C1519.04,-17.8311 1473.34,-3.55271e-15 1435,-0 135,-0 135,-0 135,-0 110.119,-0 83.7484,-9.0854 63.2937,-18.3713"/>
<polygon fill="black" stroke="black" points="61.5804,-15.3102 54.0499,-22.7629 64.5843,-21.633 61.5804,-15.3102"/>
</g>
</g>
</svg>
