<?xml version="1.0" encoding="UTF-8" standalone="no"?>
<!DOCTYPE svg PUBLIC "-//W3C//DTD SVG 1.1//EN"
 "http://www.w3.org/Graphics/SVG/1.1/DTD/svg11.dtd">
<!-- Generated by graphviz version 2.24.0 (20090616.2323)
 -->
<!-- Title: G Pages: 1 -->
<svg width="2188pt" height="252pt"
 viewBox="0.00 0.00 2188.00 252.00" xmlns="http://www.w3.org/2000/svg" xmlns:xlink="http://www.w3.org/1999/xlink">
<g id="graph1" class="graph" transform="scale(1 1) rotate(0) translate(4 248)">
<title>G</title>
<polygon fill="white" stroke="white" points="-4,5 -4,-248 2185,-248 2185,5 -4,5"/>
<!-- M -->
<g id="node1" class="node"><title>M</title>
<polyline fill="none" stroke="black" points="42,-98 12,-98 "/>
<path fill="none" stroke="black" d="M12,-98C6,-98 2.07242e-14,-92 1.65793e-14,-86"/>
<polyline fill="none" stroke="black" points="1.65793e-14,-86 8.28967e-15,-74 "/>
<path fill="none" stroke="black" d="M8.28967e-15,-74C4.14483e-15,-68 6,-62 12,-62"/>
<polyline fill="none" stroke="black" points="12,-62 42,-62 "/>
<path fill="none" stroke="black" d="M42,-62C48,-62 54,-68 54,-74"/>
<polyline fill="none" stroke="black" points="54,-74 54,-86 "/>
<path fill="none" stroke="black" d="M54,-86C54,-92 48,-98 42,-98"/>
<text text-anchor="middle" x="27" y="-77.5" font-family="Times Roman,serif" font-size="10.00">M</text>
</g>
<!-- v1a_intermediate_r -->
<g id="node13" class="node"><title>v1a_intermediate_r</title>
<ellipse fill="black" stroke="black" cx="91" cy="-160" rx="0.036" ry="0.036"/>
</g>
<!-- M&#45;&gt;v1a_intermediate_r -->
<g id="edge4" class="edge"><title>M&#45;&gt;v1a_intermediate_r</title>
<path fill="none" stroke="black" d="M47.869,-106.086C65.8924,-128.616 89.2975,-157.872 90.9117,-159.89"/>
<polygon fill="black" stroke="black" points="50.5026,-103.776 41.5226,-98.1532 45.0365,-108.148 50.5026,-103.776"/>
</g>
<!-- Mp -->
<g id="node2" class="node"><title>Mp</title>
<polyline fill="none" stroke="black" points="486,-117 456,-117 "/>
<path fill="none" stroke="black" d="M456,-117C450,-117 444,-111 444,-105"/>
<polyline fill="none" stroke="black" points="444,-105 444,-93 "/>
<path fill="none" stroke="black" d="M444,-93C444,-87 450,-81 456,-81"/>
<polyline fill="none" stroke="black" points="456,-81 486,-81 "/>
<path fill="none" stroke="black" d="M486,-81C492,-81 498,-87 498,-93"/>
<polyline fill="none" stroke="black" points="498,-93 498,-105 "/>
<path fill="none" stroke="black" d="M498,-105C498,-111 492,-117 486,-117"/>
<text text-anchor="middle" x="471" y="-96.5" font-family="Times Roman,serif" font-size="10.00">Mp</text>
</g>
<!-- v2a_intermediate_r -->
<g id="node29" class="node"><title>v2a_intermediate_r</title>
<ellipse fill="black" stroke="black" cx="535" cy="-122" rx="0.036" ry="0.036"/>
</g>
<!-- Mp&#45;&gt;v2a_intermediate_r -->
<g id="edge24" class="edge"><title>Mp&#45;&gt;v2a_intermediate_r</title>
<path fill="none" stroke="black" d="M507.714,-112.194C521.452,-117.131 534.005,-121.642 534.944,-121.98"/>
<polygon fill="black" stroke="black" points="508.736,-108.842 498.142,-108.754 506.369,-115.43 508.736,-108.842"/>
</g>
<!-- v4a_intermediate_r -->
<g id="node68" class="node"><title>v4a_intermediate_r</title>
<ellipse fill="black" stroke="black" cx="1651" cy="-46" rx="0.036" ry="0.036"/>
</g>
<!-- Mp&#45;&gt;v4a_intermediate_r -->
<g id="edge72" class="edge"><title>Mp&#45;&gt;v4a_intermediate_r</title>
<path fill="none" stroke="black" d="M497.165,-74.1532C517.738,-57.2736 548.013,-38 579,-38 579,-38 579,-38 1523,-38 1579.11,-38 1648.78,-45.752 1650.95,-45.9942"/>
<polygon fill="black" stroke="black" points="494.835,-71.5406 489.507,-80.698 499.383,-76.8622 494.835,-71.5406"/>
</g>
<!-- Mpp -->
<g id="node3" class="node"><title>Mpp</title>
<polyline fill="none" stroke="black" points="936,-151 906,-151 "/>
<path fill="none" stroke="black" d="M906,-151C900,-151 894,-145 894,-139"/>
<polyline fill="none" stroke="black" points="894,-139 894,-127 "/>
<path fill="none" stroke="black" d="M894,-127C894,-121 900,-115 906,-115"/>
<polyline fill="none" stroke="black" points="906,-115 936,-115 "/>
<path fill="none" stroke="black" d="M936,-115C942,-115 948,-121 948,-127"/>
<polyline fill="none" stroke="black" points="948,-127 948,-139 "/>
<path fill="none" stroke="black" d="M948,-139C948,-145 942,-151 936,-151"/>
<text text-anchor="middle" x="921" y="-130.5" font-family="Times Roman,serif" font-size="10.00">Mpp</text>
</g>
<!-- v3a_intermediate_r -->
<g id="node45" class="node"><title>v3a_intermediate_r</title>
<ellipse fill="black" stroke="black" cx="985" cy="-133" rx="0.036" ry="0.036"/>
</g>
<!-- Mpp&#45;&gt;v3a_intermediate_r -->
<g id="edge44" class="edge"><title>Mpp&#45;&gt;v3a_intermediate_r</title>
<path fill="none" stroke="black" d="M958.505,-133C971.931,-133 984.023,-133 984.944,-133"/>
<polygon fill="black" stroke="black" points="958.142,-129.5 948.142,-133 958.142,-136.5 958.142,-129.5"/>
</g>
<!-- MAPKK -->
<g id="node4" class="node"><title>MAPKK</title>
<polyline fill="none" stroke="black" points="936,-214 906,-214 "/>
<path fill="none" stroke="black" d="M906,-214C900,-214 894,-208 894,-202"/>
<polyline fill="none" stroke="black" points="894,-202 894,-190 "/>
<path fill="none" stroke="black" d="M894,-190C894,-184 900,-178 906,-178"/>
<polyline fill="none" stroke="black" points="906,-178 936,-178 "/>
<path fill="none" stroke="black" d="M936,-178C942,-178 948,-184 948,-190"/>
<polyline fill="none" stroke="black" points="948,-190 948,-202 "/>
<path fill="none" stroke="black" d="M948,-202C948,-208 942,-214 936,-214"/>
<text text-anchor="middle" x="921" y="-193.5" font-family="Times Roman,serif" font-size="10.00">MAPKK</text>
</g>
<!-- MAPKK&#45;&gt;v1a_intermediate_r -->
<g id="edge6" class="edge"><title>MAPKK&#45;&gt;v1a_intermediate_r</title>
<path fill="none" stroke="black" d="M887.553,-219.496C867.02,-231.661 839.632,-244 813,-244 179,-244 179,-244 179,-244 125.776,-244 92.0653,-162.604 91.0248,-160.061"/>
<polygon fill="black" stroke="black" points="889.533,-222.386 896.193,-214.147 885.848,-216.435 889.533,-222.386"/>
</g>
<!-- MAPKK&#45;&gt;v2a_intermediate_r -->
<g id="edge26" class="edge"><title>MAPKK&#45;&gt;v2a_intermediate_r</title>
<path fill="none" stroke="black" d="M884.354,-181.585C863.726,-174.726 837.303,-168 813,-168 623,-168 623,-168 623,-168 580.247,-168 537.742,-124.83 535.127,-122.132"/>
<polygon fill="black" stroke="black" points="883.385,-184.953 893.98,-184.934 885.685,-178.342 883.385,-184.953"/>
</g>
<!-- MKP3 -->
<g id="node5" class="node"><title>MKP3</title>
<polyline fill="none" stroke="black" points="1602,-110 1572,-110 "/>
<path fill="none" stroke="black" d="M1572,-110C1566,-110 1560,-104 1560,-98"/>
<polyline fill="none" stroke="black" points="1560,-98 1560,-86 "/>
<path fill="none" stroke="black" d="M1560,-86C1560,-80 1566,-74 1572,-74"/>
<polyline fill="none" stroke="black" points="1572,-74 1602,-74 "/>
<path fill="none" stroke="black" d="M1602,-74C1608,-74 1614,-80 1614,-86"/>
<polyline fill="none" stroke="black" points="1614,-86 1614,-98 "/>
<path fill="none" stroke="black" d="M1614,-98C1614,-104 1608,-110 1602,-110"/>
<text text-anchor="middle" x="1587" y="-89.5" font-family="Times Roman,serif" font-size="10.00">MKP</text>
</g>
<!-- MKP3&#45;&gt;v3a_intermediate_r -->
<g id="edge46" class="edge"><title>MKP3&#45;&gt;v3a_intermediate_r</title>
<path fill="none" stroke="black" d="M1566.76,-117.79C1546.99,-139.829 1514.73,-168 1479,-168 1073,-168 1073,-168 1073,-168 1032.22,-168 987.866,-135.153 985.133,-133.1"/>
<polygon fill="black" stroke="black" points="1569.58,-119.872 1573.46,-110.011 1564.28,-115.303 1569.58,-119.872"/>
</g>
<!-- MKP3&#45;&gt;v4a_intermediate_r -->
<g id="edge74" class="edge"><title>MKP3&#45;&gt;v4a_intermediate_r</title>
<path fill="none" stroke="black" d="M1620.54,-67.8954C1635.44,-57.1846 1649.9,-46.794 1650.94,-46.0433"/>
<polygon fill="black" stroke="black" points="1618.37,-65.1411 1612.29,-73.8196 1622.46,-70.8252 1618.37,-65.1411"/>
</g>
<!-- M_MAPKK -->
<g id="node6" class="node"><title>M_MAPKK</title>
<polyline fill="none" stroke="black" points="270,-178 228,-178 "/>
<path fill="none" stroke="black" d="M228,-178C222,-178 216,-172 216,-166"/>
<polyline fill="none" stroke="black" points="216,-166 216,-154 "/>
<path fill="none" stroke="black" d="M216,-154C216,-148 222,-142 228,-142"/>
<polyline fill="none" stroke="black" points="228,-142 270,-142 "/>
<path fill="none" stroke="black" d="M270,-142C276,-142 282,-148 282,-154"/>
<polyline fill="none" stroke="black" points="282,-154 282,-166 "/>
<path fill="none" stroke="black" d="M282,-166C282,-172 276,-178 270,-178"/>
<text text-anchor="middle" x="249" y="-157.5" font-family="Times Roman,serif" font-size="10.00">M_MAPKK</text>
</g>
<!-- v1b_intermediate_r -->
<g id="node21" class="node"><title>v1b_intermediate_r</title>
<ellipse fill="black" stroke="black" cx="319" cy="-160" rx="0.036" ry="0.036"/>
</g>
<!-- M_MAPKK&#45;&gt;v1b_intermediate_r -->
<g id="edge14" class="edge"><title>M_MAPKK&#45;&gt;v1b_intermediate_r</title>
<path fill="none" stroke="black" d="M282.36,-160C299.826,-160 317.837,-160 318.946,-160"/>
</g>
<!-- Mp_MAPKK -->
<g id="node7" class="node"><title>Mp_MAPKK</title>
<polyline fill="none" stroke="black" points="720,-140 672,-140 "/>
<path fill="none" stroke="black" d="M672,-140C666,-140 660,-134 660,-128"/>
<polyline fill="none" stroke="black" points="660,-128 660,-116 "/>
<path fill="none" stroke="black" d="M660,-116C660,-110 666,-104 672,-104"/>
<polyline fill="none" stroke="black" points="672,-104 720,-104 "/>
<path fill="none" stroke="black" d="M720,-104C726,-104 732,-110 732,-116"/>
<polyline fill="none" stroke="black" points="732,-116 732,-128 "/>
<path fill="none" stroke="black" d="M732,-128C732,-134 726,-140 720,-140"/>
<text text-anchor="middle" x="696" y="-119.5" font-family="Times Roman,serif" font-size="10.00">Mp_MAPKK</text>
</g>
<!-- v2b_intermediate_r -->
<g id="node37" class="node"><title>v2b_intermediate_r</title>
<ellipse fill="black" stroke="black" cx="769" cy="-125" rx="0.036" ry="0.036"/>
</g>
<!-- Mp_MAPKK&#45;&gt;v2b_intermediate_r -->
<g id="edge34" class="edge"><title>Mp_MAPKK&#45;&gt;v2b_intermediate_r</title>
<path fill="none" stroke="black" d="M732.072,-123.482C749.889,-124.215 767.842,-124.952 768.946,-124.998"/>
</g>
<!-- Mpp_MKP3 -->
<g id="node8" class="node"><title>Mpp_MKP3</title>
<polyline fill="none" stroke="black" points="1163,-140 1123,-140 "/>
<path fill="none" stroke="black" d="M1123,-140C1117,-140 1111,-134 1111,-128"/>
<polyline fill="none" stroke="black" points="1111,-128 1111,-116 "/>
<path fill="none" stroke="black" d="M1111,-116C1111,-110 1117,-104 1123,-104"/>
<polyline fill="none" stroke="black" points="1123,-104 1163,-104 "/>
<path fill="none" stroke="black" d="M1163,-104C1169,-104 1175,-110 1175,-116"/>
<polyline fill="none" stroke="black" points="1175,-116 1175,-128 "/>
<path fill="none" stroke="black" d="M1175,-128C1175,-134 1169,-140 1163,-140"/>
<text text-anchor="middle" x="1143" y="-119.5" font-family="Times Roman,serif" font-size="10.00">Mpp_MKP</text>
</g>
<!-- v3b_intermediate_r -->
<g id="node53" class="node"><title>v3b_intermediate_r</title>
<ellipse fill="black" stroke="black" cx="1213" cy="-122" rx="0.036" ry="0.036"/>
</g>
<!-- Mpp_MKP3&#45;&gt;v3b_intermediate_r -->
<g id="edge54" class="edge"><title>Mpp_MKP3&#45;&gt;v3b_intermediate_r</title>
<path fill="none" stroke="black" d="M1175.54,-122C1193.25,-122 1211.8,-122 1212.94,-122"/>
</g>
<!-- Mp_MKP3_dep -->
<g id="node9" class="node"><title>Mp_MKP3_dep</title>
<polyline fill="none" stroke="black" points="1385,-140 1351,-140 "/>
<path fill="none" stroke="black" d="M1351,-140C1345,-140 1339,-134 1339,-128"/>
<polyline fill="none" stroke="black" points="1339,-128 1339,-116 "/>
<path fill="none" stroke="black" d="M1339,-116C1339,-110 1345,-104 1351,-104"/>
<polyline fill="none" stroke="black" points="1351,-104 1385,-104 "/>
<path fill="none" stroke="black" d="M1385,-104C1391,-104 1397,-110 1397,-116"/>
<polyline fill="none" stroke="black" points="1397,-116 1397,-128 "/>
<path fill="none" stroke="black" d="M1397,-128C1397,-134 1391,-140 1385,-140"/>
<text text-anchor="middle" x="1368" y="-119.5" font-family="Times Roman,serif" font-size="10.00">Mp_MKP</text>
</g>
<!-- v3c_intermediate_r -->
<g id="node60" class="node"><title>v3c_intermediate_r</title>
<ellipse fill="black" stroke="black" cx="1435" cy="-119" rx="0.036" ry="0.036"/>
</g>
<!-- Mp_MKP3_dep&#45;&gt;v3c_intermediate_r -->
<g id="edge62" class="edge"><title>Mp_MKP3_dep&#45;&gt;v3c_intermediate_r</title>
<path fill="none" stroke="black" d="M1407.79,-120.218C1421.65,-119.598 1434.01,-119.044 1434.94,-119.003"/>
<polygon fill="black" stroke="black" points="1407.42,-116.732 1397.58,-120.675 1407.73,-123.725 1407.42,-116.732"/>
</g>
<!-- Mp_MKP3 -->
<g id="node10" class="node"><title>Mp_MKP3</title>
<polyline fill="none" stroke="black" points="1828,-64 1788,-64 "/>
<path fill="none" stroke="black" d="M1788,-64C1782,-64 1776,-58 1776,-52"/>
<polyline fill="none" stroke="black" points="1776,-52 1776,-40 "/>
<path fill="none" stroke="black" d="M1776,-40C1776,-34 1782,-28 1788,-28"/>
<polyline fill="none" stroke="black" points="1788,-28 1828,-28 "/>
<path fill="none" stroke="black" d="M1828,-28C1834,-28 1840,-34 1840,-40"/>
<polyline fill="none" stroke="black" points="1840,-40 1840,-52 "/>
<path fill="none" stroke="black" d="M1840,-52C1840,-58 1834,-64 1828,-64"/>
<text text-anchor="middle" x="1808" y="-43.5" font-family="Times Roman,serif" font-size="10.00">Mp_MKP*</text>
</g>
<!-- v4b_intermediate_r -->
<g id="node76" class="node"><title>v4b_intermediate_r</title>
<ellipse fill="black" stroke="black" cx="1877" cy="-46" rx="0.036" ry="0.036"/>
</g>
<!-- Mp_MKP3&#45;&gt;v4b_intermediate_r -->
<g id="edge82" class="edge"><title>Mp_MKP3&#45;&gt;v4b_intermediate_r</title>
<path fill="none" stroke="black" d="M1840.08,-46C1857.53,-46 1875.82,-46 1876.95,-46"/>
</g>
<!-- M_MKP3 -->
<g id="node11" class="node"><title>M_MKP3</title>
<polyline fill="none" stroke="black" points="2044,-64 2014,-64 "/>
<path fill="none" stroke="black" d="M2014,-64C2008,-64 2002,-58 2002,-52"/>
<polyline fill="none" stroke="black" points="2002,-52 2002,-40 "/>
<path fill="none" stroke="black" d="M2002,-40C2002,-34 2008,-28 2014,-28"/>
<polyline fill="none" stroke="black" points="2014,-28 2044,-28 "/>
<path fill="none" stroke="black" d="M2044,-28C2050,-28 2056,-34 2056,-40"/>
<polyline fill="none" stroke="black" points="2056,-40 2056,-52 "/>
<path fill="none" stroke="black" d="M2056,-52C2056,-58 2050,-64 2044,-64"/>
<text text-anchor="middle" x="2029" y="-43.5" font-family="Times Roman,serif" font-size="10.00">M_MKP</text>
</g>
<!-- v4c_intermediate_r -->
<g id="node83" class="node"><title>v4c_intermediate_r</title>
<ellipse fill="black" stroke="black" cx="2093" cy="-46" rx="0.036" ry="0.036"/>
</g>
<!-- M_MKP3&#45;&gt;v4c_intermediate_r -->
<g id="edge90" class="edge"><title>M_MKP3&#45;&gt;v4c_intermediate_r</title>
<path fill="none" stroke="black" d="M2066.51,-46C2079.93,-46 2092.02,-46 2092.94,-46"/>
<polygon fill="black" stroke="black" points="2066.14,-42.5001 2056.14,-46 2066.14,-49.5001 2066.14,-42.5001"/>
</g>
<!-- v1a -->
<g id="node12" class="node"><title>v1a</title>
<polygon fill="none" stroke="black" points="142,-167 128,-167 128,-153 142,-153 142,-167"/>
</g>
<!-- v1a_intermediate_p -->
<g id="node17" class="node"><title>v1a_intermediate_p</title>
<ellipse fill="black" stroke="black" cx="179" cy="-160" rx="0.036" ry="0.036"/>
</g>
<!-- v1a&#45;&gt;v1a_intermediate_p -->
<g id="edge8" class="edge"><title>v1a&#45;&gt;v1a_intermediate_p</title>
<path fill="none" stroke="black" d="M142.266,-160C154.372,-160 177.497,-160 178.93,-160"/>
</g>
<!-- v1a_intermediate_r&#45;&gt;v1a -->
<g id="edge2" class="edge"><title>v1a_intermediate_r&#45;&gt;v1a</title>
<path fill="none" stroke="black" d="M91.1262,-160C93.0215,-160 115.795,-160 127.759,-160"/>
</g>
<!-- v1a_intermediate_p&#45;&gt;M_MAPKK -->
<g id="edge10" class="edge"><title>v1a_intermediate_p&#45;&gt;M_MAPKK</title>
<path fill="none" stroke="black" d="M179.051,-160C179.917,-160 191.755,-160 205.454,-160"/>
<polygon fill="black" stroke="black" points="205.627,-163.5 215.627,-160 205.627,-156.5 205.627,-163.5"/>
</g>
<!-- v1b -->
<g id="node20" class="node"><title>v1b</title>
<polygon fill="none" stroke="black" points="370,-167 356,-167 356,-153 370,-153 370,-167"/>
</g>
<!-- v1b_intermediate_p -->
<g id="node24" class="node"><title>v1b_intermediate_p</title>
<ellipse fill="black" stroke="black" cx="407" cy="-160" rx="0.036" ry="0.036"/>
</g>
<!-- v1b&#45;&gt;v1b_intermediate_p -->
<g id="edge16" class="edge"><title>v1b&#45;&gt;v1b_intermediate_p</title>
<path fill="none" stroke="black" d="M370.266,-160C382.372,-160 405.497,-160 406.93,-160"/>
</g>
<!-- v1b_intermediate_r&#45;&gt;v1b -->
<g id="edge12" class="edge"><title>v1b_intermediate_r&#45;&gt;v1b</title>
<path fill="none" stroke="black" d="M319.126,-160C321.022,-160 343.795,-160 355.759,-160"/>
</g>
<!-- v1b_intermediate_p&#45;&gt;Mp -->
<g id="edge18" class="edge"><title>v1b_intermediate_p&#45;&gt;Mp</title>
<path fill="none" stroke="black" d="M407.046,-159.956C408.11,-158.942 427.265,-140.684 444.336,-124.414"/>
<polygon fill="black" stroke="black" points="447.136,-126.58 451.96,-117.147 442.307,-121.513 447.136,-126.58"/>
</g>
<!-- v1b_intermediate_p&#45;&gt;MAPKK -->
<g id="edge20" class="edge"><title>v1b_intermediate_p&#45;&gt;MAPKK</title>
<path fill="none" stroke="black" d="M407.049,-160.033C409.109,-161.426 475.494,-206 535,-206 535,-206 535,-206 813,-206 836.68,-206 863.156,-203.587 883.967,-201.132"/>
<polygon fill="black" stroke="black" points="884.494,-204.593 893.99,-199.895 883.636,-197.646 884.494,-204.593"/>
</g>
<!-- v2a -->
<g id="node28" class="node"><title>v2a</title>
<polygon fill="none" stroke="black" points="586,-129 572,-129 572,-115 586,-115 586,-129"/>
</g>
<!-- v2a_intermediate_p -->
<g id="node33" class="node"><title>v2a_intermediate_p</title>
<ellipse fill="black" stroke="black" cx="623" cy="-122" rx="0.036" ry="0.036"/>
</g>
<!-- v2a&#45;&gt;v2a_intermediate_p -->
<g id="edge28" class="edge"><title>v2a&#45;&gt;v2a_intermediate_p</title>
<path fill="none" stroke="black" d="M586.266,-122C598.372,-122 621.497,-122 622.93,-122"/>
</g>
<!-- v2a_intermediate_r&#45;&gt;v2a -->
<g id="edge22" class="edge"><title>v2a_intermediate_r&#45;&gt;v2a</title>
<path fill="none" stroke="black" d="M535.126,-122C537.022,-122 559.795,-122 571.759,-122"/>
</g>
<!-- v2a_intermediate_p&#45;&gt;Mp_MAPKK -->
<g id="edge30" class="edge"><title>v2a_intermediate_p&#45;&gt;Mp_MAPKK</title>
<path fill="none" stroke="black" d="M623.053,-122C623.935,-122 635.738,-122 649.602,-122"/>
<polygon fill="black" stroke="black" points="649.934,-125.5 659.934,-122 649.934,-118.5 649.934,-125.5"/>
</g>
<!-- v2b -->
<g id="node36" class="node"><title>v2b</title>
<polygon fill="none" stroke="black" points="820,-135 806,-135 806,-121 820,-121 820,-135"/>
</g>
<!-- v2b_intermediate_p -->
<g id="node40" class="node"><title>v2b_intermediate_p</title>
<ellipse fill="black" stroke="black" cx="857" cy="-133" rx="0.036" ry="0.036"/>
</g>
<!-- v2b&#45;&gt;v2b_intermediate_p -->
<g id="edge36" class="edge"><title>v2b&#45;&gt;v2b_intermediate_p</title>
<path fill="none" stroke="black" d="M820.266,-128.826C832.372,-130.201 855.497,-132.829 856.93,-132.992"/>
</g>
<!-- v2b_intermediate_r&#45;&gt;v2b -->
<g id="edge32" class="edge"><title>v2b_intermediate_r&#45;&gt;v2b</title>
<path fill="none" stroke="black" d="M769.126,-125.009C771.022,-125.138 793.795,-126.691 805.759,-127.506"/>
</g>
<!-- v2b_intermediate_p&#45;&gt;Mpp -->
<g id="edge38" class="edge"><title>v2b_intermediate_p&#45;&gt;Mpp</title>
<path fill="none" stroke="black" d="M857.046,-133C857.885,-133 869.971,-133 883.414,-133"/>
<polygon fill="black" stroke="black" points="883.794,-136.5 893.794,-133 883.794,-129.5 883.794,-136.5"/>
</g>
<!-- v2b_intermediate_p&#45;&gt;MAPKK -->
<g id="edge40" class="edge"><title>v2b_intermediate_p&#45;&gt;MAPKK</title>
<path fill="none" stroke="black" d="M857.046,-133.046C858.133,-134.115 878.096,-153.767 895.432,-170.832"/>
<polygon fill="black" stroke="black" points="893.057,-173.405 902.639,-177.926 897.968,-168.416 893.057,-173.405"/>
</g>
<!-- v3a -->
<g id="node44" class="node"><title>v3a</title>
<polygon fill="none" stroke="black" points="1036,-138 1022,-138 1022,-124 1036,-124 1036,-138"/>
</g>
<!-- v3a_intermediate_p -->
<g id="node49" class="node"><title>v3a_intermediate_p</title>
<ellipse fill="black" stroke="black" cx="1073" cy="-126" rx="0.036" ry="0.036"/>
</g>
<!-- v3a&#45;&gt;v3a_intermediate_p -->
<g id="edge48" class="edge"><title>v3a&#45;&gt;v3a_intermediate_p</title>
<path fill="none" stroke="black" d="M1036.27,-130.174C1048.37,-128.799 1071.5,-126.171 1072.93,-126.008"/>
</g>
<!-- v3a_intermediate_r&#45;&gt;v3a -->
<g id="edge42" class="edge"><title>v3a_intermediate_r&#45;&gt;v3a</title>
<path fill="none" stroke="black" d="M985.126,-132.994C987.022,-132.908 1009.79,-131.873 1021.76,-131.329"/>
</g>
<!-- v3a_intermediate_p&#45;&gt;Mpp_MKP3 -->
<g id="edge50" class="edge"><title>v3a_intermediate_p&#45;&gt;Mpp_MKP3</title>
<path fill="none" stroke="black" d="M1073.05,-125.997C1073.93,-125.947 1086.12,-125.25 1100.09,-124.452"/>
<polygon fill="black" stroke="black" points="1100.65,-127.926 1110.43,-123.861 1100.25,-120.937 1100.65,-127.926"/>
</g>
<!-- v3b -->
<g id="node52" class="node"><title>v3b</title>
<polygon fill="none" stroke="black" points="1264,-129 1250,-129 1250,-115 1264,-115 1264,-129"/>
</g>
<!-- v3b_intermediate_p -->
<g id="node56" class="node"><title>v3b_intermediate_p</title>
<ellipse fill="black" stroke="black" cx="1301" cy="-122" rx="0.036" ry="0.036"/>
</g>
<!-- v3b&#45;&gt;v3b_intermediate_p -->
<g id="edge56" class="edge"><title>v3b&#45;&gt;v3b_intermediate_p</title>
<path fill="none" stroke="black" d="M1264.27,-122C1276.37,-122 1299.5,-122 1300.93,-122"/>
</g>
<!-- v3b_intermediate_r&#45;&gt;v3b -->
<g id="edge52" class="edge"><title>v3b_intermediate_r&#45;&gt;v3b</title>
<path fill="none" stroke="black" d="M1213.13,-122C1215.02,-122 1237.79,-122 1249.76,-122"/>
</g>
<!-- v3b_intermediate_p&#45;&gt;Mp_MKP3_dep -->
<g id="edge58" class="edge"><title>v3b_intermediate_p&#45;&gt;Mp_MKP3_dep</title>
<path fill="none" stroke="black" d="M1301.05,-122C1301.92,-122 1314.28,-122 1328.15,-122"/>
<polygon fill="black" stroke="black" points="1328.37,-125.5 1338.37,-122 1328.37,-118.5 1328.37,-125.5"/>
</g>
<!-- v3c -->
<g id="node59" class="node"><title>v3c</title>
<polygon fill="none" stroke="black" points="1486,-121 1472,-121 1472,-107 1486,-107 1486,-121"/>
</g>
<!-- v3c_intermediate_p -->
<g id="node63" class="node"><title>v3c_intermediate_p</title>
<ellipse fill="black" stroke="black" cx="1523" cy="-92" rx="0.036" ry="0.036"/>
</g>
<!-- v3c&#45;&gt;v3c_intermediate_p -->
<g id="edge64" class="edge"><title>v3c&#45;&gt;v3c_intermediate_p</title>
<path fill="none" stroke="black" d="M1486.27,-110.367C1498.37,-104.314 1521.5,-92.7517 1522.93,-92.035"/>
</g>
<!-- v3c_intermediate_r&#45;&gt;v3c -->
<g id="edge60" class="edge"><title>v3c_intermediate_r&#45;&gt;v3c</title>
<path fill="none" stroke="black" d="M1435.13,-118.986C1437.02,-118.77 1459.79,-116.182 1471.76,-114.823"/>
</g>
<!-- v3c_intermediate_p&#45;&gt;Mp -->
<g id="edge66" class="edge"><title>v3c_intermediate_p&#45;&gt;Mp</title>
<path fill="none" stroke="black" d="M1522.86,-91.9541C1519.99,-91.0156 1473.51,-76 1435,-76 579,-76 579,-76 579,-76 554.947,-76 528.529,-81.5248 507.841,-87.1589"/>
<polygon fill="black" stroke="black" points="506.841,-83.8047 498.182,-89.9098 508.758,-90.537 506.841,-83.8047"/>
</g>
<!-- v3c_intermediate_p&#45;&gt;MKP3 -->
<g id="edge68" class="edge"><title>v3c_intermediate_p&#45;&gt;MKP3</title>
<path fill="none" stroke="black" d="M1523.05,-92C1523.88,-92 1535.97,-92 1549.41,-92"/>
<polygon fill="black" stroke="black" points="1549.79,-95.5001 1559.79,-92 1549.79,-88.5001 1549.79,-95.5001"/>
</g>
<!-- v4a -->
<g id="node67" class="node"><title>v4a</title>
<polygon fill="none" stroke="black" points="1702,-53 1688,-53 1688,-39 1702,-39 1702,-53"/>
</g>
<!-- v4a_intermediate_p -->
<g id="node72" class="node"><title>v4a_intermediate_p</title>
<ellipse fill="black" stroke="black" cx="1739" cy="-46" rx="0.036" ry="0.036"/>
</g>
<!-- v4a&#45;&gt;v4a_intermediate_p -->
<g id="edge76" class="edge"><title>v4a&#45;&gt;v4a_intermediate_p</title>
<path fill="none" stroke="black" d="M1702.27,-46C1714.37,-46 1737.5,-46 1738.93,-46"/>
</g>
<!-- v4a_intermediate_r&#45;&gt;v4a -->
<g id="edge70" class="edge"><title>v4a_intermediate_r&#45;&gt;v4a</title>
<path fill="none" stroke="black" d="M1651.13,-46C1653.02,-46 1675.79,-46 1687.76,-46"/>
</g>
<!-- v4a_intermediate_p&#45;&gt;Mp_MKP3 -->
<g id="edge78" class="edge"><title>v4a_intermediate_p&#45;&gt;Mp_MKP3</title>
<path fill="none" stroke="black" d="M1739.05,-46C1739.92,-46 1751.93,-46 1765.7,-46"/>
<polygon fill="black" stroke="black" points="1765.9,-49.5001 1775.9,-46 1765.9,-42.5001 1765.9,-49.5001"/>
</g>
<!-- v4b -->
<g id="node75" class="node"><title>v4b</title>
<polygon fill="none" stroke="black" points="1928,-53 1914,-53 1914,-39 1928,-39 1928,-53"/>
</g>
<!-- v4b_intermediate_p -->
<g id="node79" class="node"><title>v4b_intermediate_p</title>
<ellipse fill="black" stroke="black" cx="1965" cy="-46" rx="0.036" ry="0.036"/>
</g>
<!-- v4b&#45;&gt;v4b_intermediate_p -->
<g id="edge84" class="edge"><title>v4b&#45;&gt;v4b_intermediate_p</title>
<path fill="none" stroke="black" d="M1928.27,-46C1940.37,-46 1963.5,-46 1964.93,-46"/>
</g>
<!-- v4b_intermediate_r&#45;&gt;v4b -->
<g id="edge80" class="edge"><title>v4b_intermediate_r&#45;&gt;v4b</title>
<path fill="none" stroke="black" d="M1877.13,-46C1879.02,-46 1901.79,-46 1913.76,-46"/>
</g>
<!-- v4b_intermediate_p&#45;&gt;M_MKP3 -->
<g id="edge86" class="edge"><title>v4b_intermediate_p&#45;&gt;M_MKP3</title>
<path fill="none" stroke="black" d="M1965.05,-46C1965.88,-46 1977.97,-46 1991.41,-46"/>
<polygon fill="black" stroke="black" points="1991.79,-49.5001 2001.79,-46 1991.79,-42.5001 1991.79,-49.5001"/>
</g>
<!-- v4c -->
<g id="node82" class="node"><title>v4c</title>
<polygon fill="none" stroke="black" points="2144,-53 2130,-53 2130,-39 2144,-39 2144,-53"/>
</g>
<!-- v4c_intermediate_p -->
<g id="node86" class="node"><title>v4c_intermediate_p</title>
<ellipse fill="black" stroke="black" cx="2180" cy="-46" rx="0.036" ry="0.036"/>
</g>
<!-- v4c&#45;&gt;v4c_intermediate_p -->
<g id="edge92" class="edge"><title>v4c&#45;&gt;v4c_intermediate_p</title>
<path fill="none" stroke="black" d="M2144.1,-46C2155.93,-46 2178.53,-46 2179.93,-46"/>
</g>
<!-- v4c_intermediate_r&#45;&gt;v4c -->
<g id="edge88" class="edge"><title>v4c_intermediate_r&#45;&gt;v4c</title>
<path fill="none" stroke="black" d="M2093.13,-46C2095.02,-46 2117.79,-46 2129.76,-46"/>
</g>
<!-- v4c_intermediate_p&#45;&gt;M -->
<g id="edge94" class="edge"><title>v4c_intermediate_p&#45;&gt;M</title>
<path fill="none" stroke="black" d="M2179.87,-45.868C2177.3,-43.1699 2135.37,-0 2093,-0 135,-0 135,-0 135,-0 98.0552,-0 65.4975,-30.6018 46.0324,-53.952"/>
<polygon fill="black" stroke="black" points="43.2285,-51.854 39.7077,-61.8468 48.6916,-56.2307 43.2285,-51.854"/>
</g>
<!-- v4c_intermediate_p&#45;&gt;MKP3 -->
<g id="edge96" class="edge"><title>v4c_intermediate_p&#45;&gt;MKP3</title>
<path fill="none" stroke="black" d="M2179.87,-46.132C2177.3,-48.8301 2135.37,-92 2093,-92 1695,-92 1695,-92 1695,-92 1671.42,-92 1644.95,-92 1624.11,-92"/>
<polygon fill="black" stroke="black" points="1624.07,-88.5001 1614.07,-92 1624.07,-95.5001 1624.07,-88.5001"/>
</g>
</g>
</svg>
