<?xml version="1.0" encoding="UTF-8" standalone="no"?>
<!DOCTYPE svg PUBLIC "-//W3C//DTD SVG 1.1//EN"
 "http://www.w3.org/Graphics/SVG/1.1/DTD/svg11.dtd">
<!-- Generated by graphviz version 2.24.0 (20090616.2323)
 -->
<!-- Title: G Pages: 1 -->
<svg width="750pt" height="498pt"
 viewBox="0.00 0.00 750.00 498.00" xmlns="http://www.w3.org/2000/svg" xmlns:xlink="http://www.w3.org/1999/xlink">
<g id="graph1" class="graph" transform="scale(1 1) rotate(0) translate(4 494.002)">
<title>G</title>
<polygon fill="white" stroke="white" points="-4,5 -4,-494.002 747,-494.002 747,5 -4,5"/>
<!-- s1 -->
<g id="node1" class="node"><title>s1</title>
<ellipse fill="none" stroke="black" cx="241" cy="-472.002" rx="18" ry="18"/>
<text text-anchor="middle" x="241" y="-469.502" font-family="Times Roman,serif" font-size="10.00">Ca_ex</text>
</g>
<!-- re4_intermediate_m -->
<g id="node35" class="node"><title>re4_intermediate_m</title>
<ellipse fill="black" stroke="black" cx="305" cy="-455.002" rx="0.036" ry="0.036"/>
</g>
<!-- s1&#45;&gt;re4_intermediate_m -->
<g id="edge30" class="edge"><title>s1&#45;&gt;re4_intermediate_m</title>
<path fill="none" stroke="black" d="M252.739,-458.156C271.07,-447.406 304.473,-442.008 304.994,-454.699"/>
</g>
<!-- s1&#45;&gt;re4_intermediate_m -->
<g id="edge34" class="edge"><title>s1&#45;&gt;re4_intermediate_m</title>
<path fill="none" stroke="black" d="M258.488,-467.356C276.845,-462.48 303.286,-455.457 304.92,-455.023"/>
</g>
<!-- s1&#45;&gt;re4_intermediate_m -->
<g id="edge38" class="edge"><title>s1&#45;&gt;re4_intermediate_m</title>
<path fill="none" stroke="black" d="M257.482,-479.6C276.296,-478.61 304.554,-467.205 304.995,-455.283"/>
</g>
<!-- s2 -->
<g id="node2" class="node"><title>s2</title>
<ellipse fill="none" stroke="black" cx="241" cy="-128.002" rx="18" ry="18"/>
<text text-anchor="middle" x="241" y="-125.502" font-family="Times Roman,serif" font-size="10.00">Ca_s</text>
</g>
<!-- s2&#45;&gt;re4_intermediate_m -->
<g id="edge32" class="edge"><title>s2&#45;&gt;re4_intermediate_m</title>
<path fill="none" stroke="black" d="M258.439,-133.256C262.165,-136.812 265.674,-141.236 268,-146.002 297.232,-205.896 304.881,-442.268 304.999,-454.749"/>
</g>
<!-- s2&#45;&gt;re4_intermediate_m -->
<g id="edge36" class="edge"><title>s2&#45;&gt;re4_intermediate_m</title>
<path fill="none" stroke="black" d="M251.166,-143.1C257.103,-149.205 264.162,-156.138 268,-164.002 297.002,-223.424 304.759,-456.557 304.994,-455.243"/>
</g>
<!-- re7_intermediate_r -->
<g id="node70" class="node"><title>re7_intermediate_r</title>
<ellipse fill="black" stroke="black" cx="305" cy="-132.002" rx="0.036" ry="0.036"/>
</g>
<!-- s2&#45;&gt;re7_intermediate_r -->
<g id="edge80" class="edge"><title>s2&#45;&gt;re7_intermediate_r</title>
<path fill="none" stroke="black" d="M259.169,-129.137C277.499,-130.283 303.326,-131.897 304.922,-131.997"/>
</g>
<!-- re7_intermediate_m -->
<g id="node76" class="node"><title>re7_intermediate_m</title>
<ellipse fill="black" stroke="black" cx="565" cy="-57.0017" rx="0.036" ry="0.036"/>
</g>
<!-- s2&#45;&gt;re7_intermediate_m -->
<g id="edge94" class="edge"><title>s2&#45;&gt;re7_intermediate_m</title>
<path fill="none" stroke="black" d="M253.066,-114.438C272.449,-99.1824 312.098,-78.0017 349,-78.0017 349,-78.0017 349,-78.0017 393,-78.0017 469.386,-78.0017 562.054,-48.9319 564.931,-56.6082"/>
</g>
<!-- s2&#45;&gt;re7_intermediate_m -->
<g id="edge100" class="edge"><title>s2&#45;&gt;re7_intermediate_m</title>
<path fill="none" stroke="black" d="M258.567,-123.255C279.324,-113.659 315.307,-96.0017 349,-96.0017 349,-96.0017 349,-96.0017 393,-96.0017 469.386,-96.0017 562.054,-66.9319 564.931,-57.4388"/>
</g>
<!-- s3 -->
<g id="node3" class="node"><title>s3</title>
<ellipse fill="none" stroke="black" cx="479" cy="-180.002" rx="18" ry="18"/>
<text text-anchor="middle" x="479" y="-177.502" font-family="Times Roman,serif" font-size="10.00">Ca_c</text>
</g>
<!-- re3_intermediate_m -->
<g id="node22" class="node"><title>re3_intermediate_m</title>
<ellipse fill="black" stroke="black" cx="565" cy="-381.002" rx="0.036" ry="0.036"/>
</g>
<!-- s3&#45;&gt;re3_intermediate_m -->
<g id="edge12" class="edge"><title>s3&#45;&gt;re3_intermediate_m</title>
<path fill="none" stroke="black" d="M494.7,-189.474C505.453,-200.463 519.291,-218.237 528,-236.002 555.358,-291.809 564.852,-370.757 564.998,-380.778"/>
</g>
<!-- s3&#45;&gt;re3_intermediate_m -->
<g id="edge16" class="edge"><title>s3&#45;&gt;re3_intermediate_m</title>
<path fill="none" stroke="black" d="M488.101,-195.882C499.073,-210.591 517.363,-232.303 528,-254.002 554.712,-308.491 564.393,-385.04 564.972,-381.589"/>
</g>
<!-- re5_intermediate_m -->
<g id="node49" class="node"><title>re5_intermediate_m</title>
<ellipse fill="black" stroke="black" cx="565" cy="-323.002" rx="0.036" ry="0.036"/>
</g>
<!-- s3&#45;&gt;re5_intermediate_m -->
<g id="edge50" class="edge"><title>s3&#45;&gt;re5_intermediate_m</title>
<path fill="none" stroke="black" d="M495.176,-171.874C505.867,-174.468 519.436,-182.899 528,-194.002 543.756,-214.429 564.67,-303.593 564.996,-322.567"/>
</g>
<!-- s3&#45;&gt;re5_intermediate_m -->
<g id="edge58" class="edge"><title>s3&#45;&gt;re5_intermediate_m</title>
<path fill="none" stroke="black" d="M495.643,-187.291C506.259,-192.713 519.561,-201.06 528,-212.002 543.632,-232.268 564.341,-320.193 564.985,-322.936"/>
</g>
<!-- s3&#45;&gt;re5_intermediate_m -->
<g id="edge62" class="edge"><title>s3&#45;&gt;re5_intermediate_m</title>
<path fill="none" stroke="black" d="M487.917,-196.148C498.876,-206.475 517.327,-216.164 528,-230.002 543.756,-250.429 564.67,-339.593 564.996,-323.404"/>
</g>
<!-- s3&#45;&gt;re7_intermediate_m -->
<g id="edge90" class="edge"><title>s3&#45;&gt;re7_intermediate_m</title>
<path fill="none" stroke="black" d="M491.827,-167.234C502.746,-159.967 518.179,-150.92 528,-139.002 554.03,-107.414 563.773,-55.0728 564.89,-56.0693"/>
</g>
<!-- s3&#45;&gt;re7_intermediate_m -->
<g id="edge96" class="edge"><title>s3&#45;&gt;re7_intermediate_m</title>
<path fill="none" stroke="black" d="M497.297,-179.404C507.479,-175.038 519.729,-167.038 528,-157.002 555.548,-123.571 564.855,-66.8957 564.998,-57.2215"/>
</g>
<!-- re8_intermediate_r -->
<g id="node86" class="node"><title>re8_intermediate_r</title>
<ellipse fill="black" stroke="black" cx="565" cy="-305.002" rx="0.036" ry="0.036"/>
</g>
<!-- s3&#45;&gt;re8_intermediate_r -->
<g id="edge104" class="edge"><title>s3&#45;&gt;re8_intermediate_r</title>
<path fill="none" stroke="black" d="M495.44,-187.452C505.97,-192.942 519.253,-201.305 528,-212.002 555.28,-245.362 564.429,-301.365 564.974,-304.833"/>
</g>
<!-- re8_intermediate_m -->
<g id="node92" class="node"><title>re8_intermediate_m</title>
<ellipse fill="black" stroke="black" cx="652" cy="-268.002" rx="0.036" ry="0.036"/>
</g>
<!-- s3&#45;&gt;re8_intermediate_m -->
<g id="edge112" class="edge"><title>s3&#45;&gt;re8_intermediate_m</title>
<path fill="none" stroke="black" d="M496.55,-184.269C513.492,-192.787 540.031,-208.836 564,-221.002 601.395,-239.982 650.44,-258.417 651.964,-267.573"/>
</g>
<!-- s3&#45;&gt;re8_intermediate_m -->
<g id="edge114" class="edge"><title>s3&#45;&gt;re8_intermediate_m</title>
<path fill="none" stroke="black" d="M490.842,-193.678C507.031,-206.845 537.13,-225.364 564,-239.002 601.395,-257.982 650.44,-276.417 651.964,-268.403"/>
</g>
<!-- re9_intermediate_r -->
<g id="node97" class="node"><title>re9_intermediate_r</title>
<ellipse fill="black" stroke="black" cx="565" cy="-221.002" rx="0.036" ry="0.036"/>
</g>
<!-- s3&#45;&gt;re9_intermediate_r -->
<g id="edge118" class="edge"><title>s3&#45;&gt;re9_intermediate_r</title>
<path fill="none" stroke="black" d="M495.582,-187.907C519.791,-199.449 562.242,-219.687 564.872,-220.941"/>
</g>
<!-- re9_intermediate_m -->
<g id="node103" class="node"><title>re9_intermediate_m</title>
<ellipse fill="black" stroke="black" cx="652" cy="-180.002" rx="0.036" ry="0.036"/>
</g>
<!-- s3&#45;&gt;re9_intermediate_m -->
<g id="edge126" class="edge"><title>s3&#45;&gt;re9_intermediate_m</title>
<path fill="none" stroke="black" d="M496.54,-175.726C539.835,-171.42 648.533,-172.734 651.919,-179.667"/>
</g>
<!-- s3&#45;&gt;re9_intermediate_m -->
<g id="edge128" class="edge"><title>s3&#45;&gt;re9_intermediate_m</title>
<path fill="none" stroke="black" d="M496.54,-184.277C539.835,-188.583 648.533,-187.269 651.919,-180.336"/>
</g>
<!-- re12_intermediate_r -->
<g id="node122" class="node"><title>re12_intermediate_r</title>
<ellipse fill="black" stroke="black" cx="565" cy="-139.002" rx="0.036" ry="0.036"/>
</g>
<!-- s3&#45;&gt;re12_intermediate_r -->
<g id="edge148" class="edge"><title>s3&#45;&gt;re12_intermediate_r</title>
<path fill="none" stroke="black" d="M495.582,-172.097C519.791,-160.555 562.242,-140.316 564.872,-139.063"/>
</g>
<!-- re12_intermediate_m -->
<g id="node128" class="node"><title>re12_intermediate_m</title>
<ellipse fill="black" stroke="black" cx="652" cy="-92.0017" rx="0.036" ry="0.036"/>
</g>
<!-- s3&#45;&gt;re12_intermediate_m -->
<g id="edge156" class="edge"><title>s3&#45;&gt;re12_intermediate_m</title>
<path fill="none" stroke="black" d="M490.842,-166.325C507.031,-153.158 537.13,-134.64 564,-121.002 601.395,-102.021 650.44,-83.5868 651.964,-91.6001"/>
</g>
<!-- s3&#45;&gt;re12_intermediate_m -->
<g id="edge158" class="edge"><title>s3&#45;&gt;re12_intermediate_m</title>
<path fill="none" stroke="black" d="M496.55,-175.735C513.492,-167.217 540.031,-151.167 564,-139.002 601.395,-120.021 650.44,-101.587 651.964,-92.4307"/>
</g>
<!-- s4 -->
<g id="node4" class="node"><title>s4</title>
<ellipse fill="none" stroke="black" cx="241" cy="-380.002" rx="18" ry="18"/>
<text text-anchor="middle" x="241" y="-377.502" font-family="Times Roman,serif" font-size="10.00">Ca_B</text>
</g>
<!-- re3_intermediate_r -->
<g id="node16" class="node"><title>re3_intermediate_r</title>
<ellipse fill="black" stroke="black" cx="305" cy="-420.002" rx="0.036" ry="0.036"/>
</g>
<!-- s4&#45;&gt;re3_intermediate_r -->
<g id="edge4" class="edge"><title>s4&#45;&gt;re3_intermediate_r</title>
<path fill="none" stroke="black" d="M256.493,-389.685C274.842,-401.153 303.162,-418.853 304.915,-419.948"/>
</g>
<!-- s4&#45;&gt;re3_intermediate_m -->
<g id="edge14" class="edge"><title>s4&#45;&gt;re3_intermediate_m</title>
<path fill="none" stroke="black" d="M258.881,-376.756C326.274,-371.491 561.289,-373.257 564.957,-380.822"/>
</g>
<!-- s4&#45;&gt;re3_intermediate_m -->
<g id="edge18" class="edge"><title>s4&#45;&gt;re3_intermediate_m</title>
<path fill="none" stroke="black" d="M258.881,-383.358C326.274,-389.039 561.289,-388.724 564.957,-381.181"/>
</g>
<!-- s5 -->
<g id="node5" class="node"><title>s5</title>
<ellipse fill="none" stroke="black" cx="27" cy="-280.002" rx="27" ry="18"/>
<text text-anchor="middle" x="27" y="-277.502" font-family="Times Roman,serif" font-size="10.00">s5</text>
</g>
<!-- re4_intermediate_r -->
<g id="node29" class="node"><title>re4_intermediate_r</title>
<ellipse fill="black" stroke="black" cx="90" cy="-280.002" rx="0.036" ry="0.036"/>
</g>
<!-- s5&#45;&gt;re4_intermediate_r -->
<g id="edge22" class="edge"><title>s5&#45;&gt;re4_intermediate_r</title>
<path fill="none" stroke="black" d="M54.0833,-280.002C70.6248,-280.002 88.8241,-280.002 89.9454,-280.002"/>
</g>
<!-- s6 -->
<g id="node6" class="node"><title>s6</title>
<ellipse fill="none" stroke="black" cx="479" cy="-32.0017" rx="18" ry="18"/>
<text text-anchor="middle" x="479" y="-29.5017" font-family="Times Roman,serif" font-size="10.00">IP3</text>
</g>
<!-- re6_intermediate_r -->
<g id="node59" class="node"><title>re6_intermediate_r</title>
<ellipse fill="black" stroke="black" cx="565" cy="-39.0017" rx="0.036" ry="0.036"/>
</g>
<!-- s6&#45;&gt;re6_intermediate_r -->
<g id="edge66" class="edge"><title>s6&#45;&gt;re6_intermediate_r</title>
<path fill="none" stroke="black" d="M497.238,-33.4863C521.694,-35.4768 562.36,-38.7868 564.877,-38.9917"/>
</g>
<!-- re6_intermediate_m -->
<g id="node65" class="node"><title>re6_intermediate_m</title>
<ellipse fill="black" stroke="black" cx="652" cy="-2.00174" rx="0.036" ry="0.036"/>
</g>
<!-- s6&#45;&gt;re6_intermediate_m -->
<g id="edge74" class="edge"><title>s6&#45;&gt;re6_intermediate_m</title>
<path fill="none" stroke="black" d="M495.588,-24.9464C538.212,-13.1337 648.482,4.7077 651.918,-1.67917"/>
</g>
<!-- s6&#45;&gt;re6_intermediate_m -->
<g id="edge76" class="edge"><title>s6&#45;&gt;re6_intermediate_m</title>
<path fill="none" stroke="black" d="M497.187,-33.1869C540.91,-29.8345 648.566,-9.83043 651.92,-2.34844"/>
</g>
<!-- s6&#45;&gt;re7_intermediate_m -->
<g id="edge88" class="edge"><title>s6&#45;&gt;re7_intermediate_m</title>
<path fill="none" stroke="black" d="M495.991,-25.9335C520.858,-27.6766 564.314,-43.8785 564.992,-56.6995"/>
</g>
<!-- s6&#45;&gt;re7_intermediate_m -->
<g id="edge92" class="edge"><title>s6&#45;&gt;re7_intermediate_m</title>
<path fill="none" stroke="black" d="M496.403,-37.0609C520.748,-44.1376 562.301,-56.2172 564.875,-56.9653"/>
</g>
<!-- s6&#45;&gt;re7_intermediate_m -->
<g id="edge98" class="edge"><title>s6&#45;&gt;re7_intermediate_m</title>
<path fill="none" stroke="black" d="M491.322,-45.3848C514.916,-59.3643 564.222,-70.5369 564.991,-57.3185"/>
</g>
<!-- s7 -->
<g id="node7" class="node"><title>s7</title>
<ellipse fill="none" stroke="black" cx="241" cy="-236.002" rx="27" ry="18"/>
<text text-anchor="middle" x="241" y="-233.502" font-family="Times Roman,serif" font-size="10.00">s7</text>
</g>
<!-- re5_intermediate_r -->
<g id="node43" class="node"><title>re5_intermediate_r</title>
<ellipse fill="black" stroke="black" cx="305" cy="-231.002" rx="0.036" ry="0.036"/>
</g>
<!-- s7&#45;&gt;re5_intermediate_r -->
<g id="edge42" class="edge"><title>s7&#45;&gt;re5_intermediate_r</title>
<path fill="none" stroke="black" d="M268.142,-233.881C285.04,-232.561 303.788,-231.096 304.944,-231.006"/>
</g>
<!-- s8 -->
<g id="node8" class="node"><title>s8</title>
<ellipse fill="none" stroke="black" cx="715" cy="-46.0017" rx="27" ry="18"/>
<text text-anchor="middle" x="715" y="-43.5017" font-family="Times Roman,serif" font-size="10.00">s8</text>
</g>
<!-- s9 -->
<g id="node9" class="node"><title>s9</title>
<ellipse fill="none" stroke="black" cx="715" cy="-288.002" rx="27" ry="18"/>
<text text-anchor="middle" x="715" y="-285.502" font-family="Times Roman,serif" font-size="10.00">s9</text>
</g>
<!-- s10 -->
<g id="node10" class="node"><title>s10</title>
<ellipse fill="none" stroke="black" cx="715" cy="-224.002" rx="27" ry="18"/>
<text text-anchor="middle" x="715" y="-221.502" font-family="Times Roman,serif" font-size="10.00">s10</text>
</g>
<!-- s11 -->
<g id="node11" class="node"><title>s11</title>
<ellipse fill="none" stroke="black" cx="241" cy="-182.002" rx="27" ry="18"/>
<text text-anchor="middle" x="241" y="-179.502" font-family="Times Roman,serif" font-size="10.00">s11</text>
</g>
<!-- re10_intermediate_r -->
<g id="node108" class="node"><title>re10_intermediate_r</title>
<ellipse fill="black" stroke="black" cx="305" cy="-181.002" rx="0.036" ry="0.036"/>
</g>
<!-- s11&#45;&gt;re10_intermediate_r -->
<g id="edge132" class="edge"><title>s11&#45;&gt;re10_intermediate_r</title>
<path fill="none" stroke="black" d="M268.142,-181.578C285.04,-181.314 303.788,-181.021 304.944,-181.003"/>
</g>
<!-- s12 -->
<g id="node12" class="node"><title>s12</title>
<ellipse fill="none" stroke="black" cx="479" cy="-326.002" rx="28.9326" ry="18"/>
<text text-anchor="middle" x="479" y="-323.502" font-family="Times Roman,serif" font-size="10.00">TimeT</text>
</g>
<!-- s12&#45;&gt;re5_intermediate_m -->
<g id="edge52" class="edge"><title>s12&#45;&gt;re5_intermediate_m</title>
<path fill="none" stroke="black" d="M500.258,-313.429C525.527,-308.304 564.387,-310.798 564.993,-322.718"/>
</g>
<!-- s12&#45;&gt;re5_intermediate_m -->
<g id="edge56" class="edge"><title>s12&#45;&gt;re5_intermediate_m</title>
<path fill="none" stroke="black" d="M508.116,-324.986C532.285,-324.143 563.011,-323.071 564.908,-323.005"/>
</g>
<!-- s12&#45;&gt;re5_intermediate_m -->
<g id="edge60" class="edge"><title>s12&#45;&gt;re5_intermediate_m</title>
<path fill="none" stroke="black" d="M502.046,-337.313C527.322,-340.207 564.415,-334.968 564.993,-323.279"/>
</g>
<!-- s13 -->
<g id="node13" class="node"><title>s13</title>
<ellipse fill="none" stroke="black" cx="241" cy="-326.002" rx="27" ry="18"/>
<text text-anchor="middle" x="241" y="-323.502" font-family="Times Roman,serif" font-size="10.00">s13</text>
</g>
<!-- re11_intermediate_r -->
<g id="node115" class="node"><title>re11_intermediate_r</title>
<ellipse fill="black" stroke="black" cx="305" cy="-326.002" rx="0.036" ry="0.036"/>
</g>
<!-- s13&#45;&gt;re11_intermediate_r -->
<g id="edge140" class="edge"><title>s13&#45;&gt;re11_intermediate_r</title>
<path fill="none" stroke="black" d="M268.142,-326.002C285.04,-326.002 303.788,-326.002 304.944,-326.002"/>
</g>
<!-- s119 -->
<g id="node14" class="node"><title>s119</title>
<ellipse fill="none" stroke="black" cx="479" cy="-272.002" rx="49.247" ry="18"/>
<text text-anchor="middle" x="479" y="-269.502" font-family="Times Roman,serif" font-size="10.00">Shear Stress</text>
</g>
<!-- s119&#45;&gt;re5_intermediate_m -->
<g id="edge54" class="edge"><title>s119&#45;&gt;re5_intermediate_m</title>
<path fill="none" stroke="black" d="M506.925,-286.937C513.866,-290.773 521.25,-294.96 528,-299.002 544.291,-308.757 563.742,-322.135 564.942,-322.961"/>
</g>
<!-- re3 -->
<g id="node15" class="node"><title>re3</title>
<polygon fill="none" stroke="black" points="356,-431.002 342,-431.002 342,-417.002 356,-417.002 356,-431.002"/>
</g>
<!-- re3_intermediate_p -->
<g id="node19" class="node"><title>re3_intermediate_p</title>
<ellipse fill="black" stroke="black" cx="393" cy="-417.002" rx="0.036" ry="0.036"/>
</g>
<!-- re3&#45;&gt;re3_intermediate_p -->
<g id="edge6" class="edge"><title>re3&#45;&gt;re3_intermediate_p</title>
<path fill="none" stroke="black" d="M356.266,-422.846C368.372,-420.92 391.497,-417.241 392.93,-417.013"/>
</g>
<!-- re3&#45;&gt;re3_intermediate_m -->
<g id="edge10" class="edge"><title>re3&#45;&gt;re3_intermediate_m</title>
<path fill="none" stroke="black" d="M368.104,-425.91C376.112,-426.436 385.516,-426.694 394,-426.002 454.153,-421.097 471.504,-425.231 528,-404.002 545.559,-397.404 563.821,-382.004 564.945,-381.048"/>
<polygon fill="none" stroke="black" points="367.98,-425.9 361.656,-429.365 356.025,-424.86 362.349,-421.395 367.98,-425.9"/>
</g>
<!-- re3_intermediate_r&#45;&gt;re3 -->
<g id="edge2" class="edge"><title>re3_intermediate_r&#45;&gt;re3</title>
<path fill="none" stroke="black" d="M305.126,-420.013C307.022,-420.186 329.795,-422.256 341.759,-423.343"/>
</g>
<!-- re3_intermediate_p&#45;&gt;s3 -->
<g id="edge8" class="edge"><title>re3_intermediate_p&#45;&gt;s3</title>
<path fill="none" stroke="black" d="M393.003,-416.928C393.147,-413.856 397.988,-315.001 430,-245.002 437.354,-228.921 449.225,-213.031 459.441,-200.988"/>
<polygon fill="black" stroke="black" points="462.212,-203.136 466.173,-193.31 456.949,-198.521 462.212,-203.136"/>
</g>
<!-- re4 -->
<g id="node28" class="node"><title>re4</title>
<polygon fill="none" stroke="black" points="140,-287.002 126,-287.002 126,-273.002 140,-273.002 140,-287.002"/>
</g>
<!-- re4_intermediate_p -->
<g id="node32" class="node"><title>re4_intermediate_p</title>
<ellipse fill="black" stroke="black" cx="177" cy="-266.002" rx="0.036" ry="0.036"/>
</g>
<!-- re4&#45;&gt;re4_intermediate_p -->
<g id="edge24" class="edge"><title>re4&#45;&gt;re4_intermediate_p</title>
<path fill="none" stroke="black" d="M140.266,-277.69C152.372,-273.838 175.497,-266.48 176.93,-266.024"/>
</g>
<!-- re4&#45;&gt;re4_intermediate_m -->
<g id="edge28" class="edge"><title>re4&#45;&gt;re4_intermediate_m</title>
<path fill="none" stroke="black" d="M140.926,-298.295C153.26,-325.022 179.282,-375.032 214,-407.002 246.586,-437.008 301.438,-453.924 304.834,-454.952"/>
<polygon fill="none" stroke="black" points="140.878,-298.187 134.782,-294.335 135.993,-287.226 142.089,-291.078 140.878,-298.187"/>
</g>
<!-- re4_intermediate_r&#45;&gt;re4 -->
<g id="edge20" class="edge"><title>re4_intermediate_r&#45;&gt;re4</title>
<path fill="none" stroke="black" d="M90.1234,-280.002C91.9756,-280.002 114.231,-280.002 125.924,-280.002"/>
</g>
<!-- re4_intermediate_p&#45;&gt;s2 -->
<g id="edge26" class="edge"><title>re4_intermediate_p&#45;&gt;s2</title>
<path fill="none" stroke="black" d="M177.007,-265.953C177.306,-263.921 187.088,-198.546 214,-155.002 215.743,-152.182 217.834,-149.434 220.073,-146.837"/>
<polygon fill="black" stroke="black" points="222.635,-149.222 227.023,-139.579 217.579,-144.38 222.635,-149.222"/>
</g>
<!-- re5 -->
<g id="node42" class="node"><title>re5</title>
<polygon fill="none" stroke="black" points="356,-233.002 342,-233.002 342,-219.002 356,-219.002 356,-233.002"/>
</g>
<!-- re5_intermediate_p -->
<g id="node46" class="node"><title>re5_intermediate_p</title>
<ellipse fill="black" stroke="black" cx="393" cy="-198.002" rx="0.036" ry="0.036"/>
</g>
<!-- re5&#45;&gt;re5_intermediate_p -->
<g id="edge44" class="edge"><title>re5&#45;&gt;re5_intermediate_p</title>
<path fill="none" stroke="black" d="M356.266,-221.378C368.372,-213.674 391.497,-198.958 392.93,-198.046"/>
</g>
<!-- re5&#45;&gt;re5_intermediate_m -->
<g id="edge48" class="edge"><title>re5&#45;&gt;re5_intermediate_m</title>
<path fill="none" stroke="black" d="M368.496,-222.353C403.853,-216.874 479.38,-210.525 528,-245.002 558.321,-266.502 564.619,-319.547 564.983,-322.841"/>
<polygon fill="none" stroke="black" points="368.169,-222.41 362.941,-227.376 356.346,-224.459 361.574,-219.493 368.169,-222.41"/>
</g>
<!-- re5_intermediate_r&#45;&gt;re5 -->
<g id="edge40" class="edge"><title>re5_intermediate_r&#45;&gt;re5</title>
<path fill="none" stroke="black" d="M305.126,-230.987C307.022,-230.772 329.795,-228.184 341.759,-226.825"/>
</g>
<!-- re5_intermediate_p&#45;&gt;s6 -->
<g id="edge46" class="edge"><title>re5_intermediate_p&#45;&gt;s6</title>
<path fill="none" stroke="black" d="M393.062,-197.881C395.019,-194.105 442.537,-102.384 466.056,-56.9863"/>
<polygon fill="black" stroke="black" points="469.193,-58.5397 470.686,-48.0505 462.978,-55.3196 469.193,-58.5397"/>
</g>
<!-- re6 -->
<g id="node58" class="node"><title>re6</title>
<polygon fill="none" stroke="black" points="616,-53.0017 602,-53.0017 602,-39.0017 616,-39.0017 616,-53.0017"/>
</g>
<!-- re6_intermediate_p -->
<g id="node62" class="node"><title>re6_intermediate_p</title>
<ellipse fill="black" stroke="black" cx="652" cy="-46.0017" rx="0.036" ry="0.036"/>
</g>
<!-- re6&#45;&gt;re6_intermediate_p -->
<g id="edge68" class="edge"><title>re6&#45;&gt;re6_intermediate_p</title>
<path fill="none" stroke="black" d="M616.101,-46.0017C627.932,-46.0017 650.531,-46.0017 651.932,-46.0017"/>
</g>
<!-- re6&#45;&gt;re6_intermediate_m -->
<g id="edge72" class="edge"><title>re6&#45;&gt;re6_intermediate_m</title>
<path fill="none" stroke="black" d="M624.725,-29.9111C636.523,-17.8389 650.826,-3.20272 651.932,-2.07165"/>
<polygon fill="none" stroke="black" points="624.488,-30.1538 623.155,-37.2406 616.101,-38.736 617.433,-31.6492 624.488,-30.1538"/>
</g>
<!-- re6_intermediate_r&#45;&gt;re6 -->
<g id="edge64" class="edge"><title>re6_intermediate_r&#45;&gt;re6</title>
<path fill="none" stroke="black" d="M565.126,-39.0218C567.022,-39.3233 589.795,-42.9463 601.759,-44.8498"/>
</g>
<!-- re6_intermediate_p&#45;&gt;s8 -->
<g id="edge70" class="edge"><title>re6_intermediate_p&#45;&gt;s8</title>
<path fill="none" stroke="black" d="M652.046,-46.0017C652.865,-46.0017 664.597,-46.0017 677.716,-46.0017"/>
<polygon fill="black" stroke="black" points="677.86,-49.5018 687.86,-46.0017 677.859,-42.5018 677.86,-49.5018"/>
</g>
<!-- re7 -->
<g id="node69" class="node"><title>re7</title>
<polygon fill="none" stroke="black" points="356,-141.002 342,-141.002 342,-127.002 356,-127.002 356,-141.002"/>
</g>
<!-- re7_intermediate_p -->
<g id="node73" class="node"><title>re7_intermediate_p</title>
<ellipse fill="black" stroke="black" cx="393" cy="-162.002" rx="0.036" ry="0.036"/>
</g>
<!-- re7&#45;&gt;re7_intermediate_p -->
<g id="edge82" class="edge"><title>re7&#45;&gt;re7_intermediate_p</title>
<path fill="none" stroke="black" d="M356.266,-138.625C368.372,-146.33 391.497,-161.045 392.93,-161.957"/>
</g>
<!-- re7&#45;&gt;re7_intermediate_m -->
<g id="edge86" class="edge"><title>re7&#45;&gt;re7_intermediate_m</title>
<path fill="none" stroke="black" d="M368.483,-136.226C403.266,-139.21 477.162,-140.983 528,-110.002 551.765,-95.5192 564.209,-59.3573 564.963,-57.1113"/>
<polygon fill="none" stroke="black" points="368.09,-136.186 361.714,-139.555 356.152,-134.966 362.528,-131.597 368.09,-136.186"/>
</g>
<!-- re7_intermediate_r&#45;&gt;re7 -->
<g id="edge78" class="edge"><title>re7_intermediate_r&#45;&gt;re7</title>
<path fill="none" stroke="black" d="M305.126,-132.007C307.022,-132.094 329.795,-133.129 341.759,-133.673"/>
</g>
<!-- re7_intermediate_p&#45;&gt;s3 -->
<g id="edge84" class="edge"><title>re7_intermediate_p&#45;&gt;s3</title>
<path fill="none" stroke="black" d="M393.062,-162.015C394.665,-162.35 426.824,-169.081 451.334,-174.211"/>
<polygon fill="black" stroke="black" points="450.754,-177.666 461.259,-176.288 452.188,-170.814 450.754,-177.666"/>
</g>
<!-- re8 -->
<g id="node85" class="node"><title>re8</title>
<polygon fill="none" stroke="black" points="616,-319.002 602,-319.002 602,-305.002 616,-305.002 616,-319.002"/>
</g>
<!-- re8_intermediate_p -->
<g id="node89" class="node"><title>re8_intermediate_p</title>
<ellipse fill="black" stroke="black" cx="652" cy="-299.002" rx="0.036" ry="0.036"/>
</g>
<!-- re8&#45;&gt;re8_intermediate_p -->
<g id="edge106" class="edge"><title>re8&#45;&gt;re8_intermediate_p</title>
<path fill="none" stroke="black" d="M616.101,-309.855C627.932,-306.278 650.531,-299.446 651.932,-299.022"/>
</g>
<!-- re8&#45;&gt;re8_intermediate_m -->
<g id="edge110" class="edge"><title>re8&#45;&gt;re8_intermediate_m</title>
<path fill="none" stroke="black" d="M624.725,-295.911C636.523,-283.839 650.826,-269.203 651.932,-268.072"/>
<polygon fill="none" stroke="black" points="624.488,-296.154 623.155,-303.241 616.101,-304.736 617.433,-297.649 624.488,-296.154"/>
</g>
<!-- re8_intermediate_r&#45;&gt;re8 -->
<g id="edge102" class="edge"><title>re8_intermediate_r&#45;&gt;re8</title>
<path fill="none" stroke="black" d="M565.126,-305.022C567.022,-305.323 589.795,-308.946 601.759,-310.85"/>
</g>
<!-- re8_intermediate_p&#45;&gt;s9 -->
<g id="edge108" class="edge"><title>re8_intermediate_p&#45;&gt;s9</title>
<path fill="none" stroke="black" d="M652.046,-298.994C652.885,-298.847 665.177,-296.701 678.68,-294.343"/>
<polygon fill="black" stroke="black" points="679.33,-297.783 688.579,-292.615 678.126,-290.887 679.33,-297.783"/>
</g>
<!-- re9 -->
<g id="node96" class="node"><title>re9</title>
<polygon fill="none" stroke="black" points="616,-231.002 602,-231.002 602,-217.002 616,-217.002 616,-231.002"/>
</g>
<!-- re9_intermediate_p -->
<g id="node100" class="node"><title>re9_intermediate_p</title>
<ellipse fill="black" stroke="black" cx="652" cy="-224.002" rx="0.036" ry="0.036"/>
</g>
<!-- re9&#45;&gt;re9_intermediate_p -->
<g id="edge120" class="edge"><title>re9&#45;&gt;re9_intermediate_p</title>
<path fill="none" stroke="black" d="M616.101,-224.002C627.932,-224.002 650.531,-224.002 651.932,-224.002"/>
</g>
<!-- re9&#45;&gt;re9_intermediate_m -->
<g id="edge124" class="edge"><title>re9&#45;&gt;re9_intermediate_m</title>
<path fill="none" stroke="black" d="M624.725,-207.911C636.523,-195.839 650.826,-181.203 651.932,-180.072"/>
<polygon fill="none" stroke="black" points="624.488,-208.154 623.155,-215.241 616.101,-216.736 617.433,-209.649 624.488,-208.154"/>
</g>
<!-- re9_intermediate_r&#45;&gt;re9 -->
<g id="edge116" class="edge"><title>re9_intermediate_r&#45;&gt;re9</title>
<path fill="none" stroke="black" d="M565.126,-221.01C567.022,-221.14 589.795,-222.692 601.759,-223.508"/>
</g>
<!-- re9_intermediate_p&#45;&gt;s10 -->
<g id="edge122" class="edge"><title>re9_intermediate_p&#45;&gt;s10</title>
<path fill="none" stroke="black" d="M652.046,-224.002C652.865,-224.002 664.597,-224.002 677.716,-224.002"/>
<polygon fill="black" stroke="black" points="677.86,-227.502 687.86,-224.002 677.859,-220.502 677.86,-227.502"/>
</g>
<!-- re10 -->
<g id="node107" class="node"><title>re10</title>
<polygon fill="none" stroke="black" points="356,-187.002 342,-187.002 342,-173.002 356,-173.002 356,-187.002"/>
</g>
<!-- re10_intermediate_p -->
<g id="node111" class="node"><title>re10_intermediate_p</title>
<ellipse fill="black" stroke="black" cx="393" cy="-180.002" rx="0.036" ry="0.036"/>
</g>
<!-- re10&#45;&gt;re10_intermediate_p -->
<g id="edge134" class="edge"><title>re10&#45;&gt;re10_intermediate_p</title>
<path fill="none" stroke="black" d="M356.266,-180.002C368.372,-180.002 391.497,-180.002 392.93,-180.002"/>
</g>
<!-- re10_intermediate_r&#45;&gt;re10 -->
<g id="edge130" class="edge"><title>re10_intermediate_r&#45;&gt;re10</title>
<path fill="none" stroke="black" d="M305.126,-180.999C307.022,-180.956 329.795,-180.438 341.759,-180.166"/>
</g>
<!-- re10_intermediate_p&#45;&gt;s3 -->
<g id="edge136" class="edge"><title>re10_intermediate_p&#45;&gt;s3</title>
<path fill="none" stroke="black" d="M393.062,-180.002C394.648,-180.002 426.184,-180.002 450.597,-180.002"/>
<polygon fill="black" stroke="black" points="450.847,-183.502 460.847,-180.002 450.847,-176.502 450.847,-183.502"/>
</g>
<!-- re11 -->
<g id="node114" class="node"><title>re11</title>
<polygon fill="none" stroke="black" points="356,-333.002 342,-333.002 342,-319.002 356,-319.002 356,-333.002"/>
</g>
<!-- re11_intermediate_p -->
<g id="node118" class="node"><title>re11_intermediate_p</title>
<ellipse fill="black" stroke="black" cx="393" cy="-326.002" rx="0.036" ry="0.036"/>
</g>
<!-- re11&#45;&gt;re11_intermediate_p -->
<g id="edge142" class="edge"><title>re11&#45;&gt;re11_intermediate_p</title>
<path fill="none" stroke="black" d="M356.266,-326.002C368.372,-326.002 391.497,-326.002 392.93,-326.002"/>
</g>
<!-- re11_intermediate_r&#45;&gt;re11 -->
<g id="edge138" class="edge"><title>re11_intermediate_r&#45;&gt;re11</title>
<path fill="none" stroke="black" d="M305.126,-326.002C307.022,-326.002 329.795,-326.002 341.759,-326.002"/>
</g>
<!-- re11_intermediate_p&#45;&gt;s12 -->
<g id="edge144" class="edge"><title>re11_intermediate_p&#45;&gt;s12</title>
<path fill="none" stroke="black" d="M393.062,-326.002C394.415,-326.002 417.539,-326.002 439.458,-326.002"/>
<polygon fill="black" stroke="black" points="439.689,-329.502 449.689,-326.002 439.689,-322.502 439.689,-329.502"/>
</g>
<!-- re12 -->
<g id="node121" class="node"><title>re12</title>
<polygon fill="none" stroke="black" points="616,-143.002 602,-143.002 602,-129.002 616,-129.002 616,-143.002"/>
</g>
<!-- re12_intermediate_p -->
<g id="node125" class="node"><title>re12_intermediate_p</title>
<ellipse fill="black" stroke="black" cx="652" cy="-149.002" rx="0.036" ry="0.036"/>
</g>
<!-- re12&#45;&gt;re12_intermediate_p -->
<g id="edge150" class="edge"><title>re12&#45;&gt;re12_intermediate_p</title>
<path fill="none" stroke="black" d="M616.101,-138.148C627.932,-141.725 650.531,-148.558 651.932,-148.981"/>
</g>
<!-- re12&#45;&gt;re12_intermediate_m -->
<g id="edge154" class="edge"><title>re12&#45;&gt;re12_intermediate_m</title>
<path fill="none" stroke="black" d="M624.725,-119.911C636.523,-107.839 650.826,-93.2027 651.932,-92.0716"/>
<polygon fill="none" stroke="black" points="624.488,-120.154 623.155,-127.241 616.101,-128.736 617.433,-121.649 624.488,-120.154"/>
</g>
<!-- re12_intermediate_r&#45;&gt;re12 -->
<g id="edge146" class="edge"><title>re12_intermediate_r&#45;&gt;re12</title>
<path fill="none" stroke="black" d="M565.126,-138.993C567.022,-138.864 589.795,-137.311 601.759,-136.495"/>
</g>
<!-- re12_intermediate_p&#45;&gt;s9 -->
<g id="edge152" class="edge"><title>re12_intermediate_p&#45;&gt;s9</title>
<path fill="none" stroke="black" d="M652.01,-149.045C652.427,-150.856 665.944,-209.133 688,-251.002 690.289,-255.346 693.044,-259.748 695.908,-263.926"/>
<polygon fill="black" stroke="black" points="693.125,-266.05 701.824,-272.098 698.795,-261.945 693.125,-266.05"/>
</g>
</g>
</svg>
