<?xml version="1.0" encoding="UTF-8" standalone="no"?>
<!DOCTYPE svg PUBLIC "-//W3C//DTD SVG 1.1//EN"
 "http://www.w3.org/Graphics/SVG/1.1/DTD/svg11.dtd">
<!-- Generated by graphviz version 2.30.1 (20140821.0912)
 -->
<!-- Title: G Pages: 1 -->
<svg width="1044pt" height="331pt"
 viewBox="0.00 0.00 1044.00 331.00" xmlns="http://www.w3.org/2000/svg" xmlns:xlink="http://www.w3.org/1999/xlink">
<g id="graph0" class="graph" transform="scale(1 1) rotate(0) translate(4 327)">
<title>G</title>
<polygon fill="white" stroke="white" points="-4,5 -4,-327 1041,-327 1041,5 -4,5"/>
<!-- s2 -->
<g id="s2" class="node"><title>s2</title>
<path fill="none" stroke="black" d="M386,-291C386,-291 354,-291 354,-291 348,-291 342,-285 342,-279 342,-279 342,-267 342,-267 342,-261 348,-255 354,-255 354,-255 386,-255 386,-255 392,-255 398,-261 398,-267 398,-267 398,-279 398,-279 398,-285 392,-291 386,-291"/>
<text text-anchor="middle" x="370" y="-270.5" font-family="Times,serif" font-size="10.00">C3_Gene</text>
</g>
<!-- re13_intermediate_r -->
<g id="node15" class="node"><title>re13_intermediate_r</title>
<ellipse fill="black" stroke="black" cx="435" cy="-273" rx="0.036" ry="0.036"/>
</g>
<!-- s2&#45;&gt;re13_intermediate_r -->
<g id="edge6" class="edge"><title>s2&#45;&gt;re13_intermediate_r</title>
<path fill="none" stroke="black" d="M398.083,-273C414.625,-273 432.824,-273 433.945,-273"/>
</g>
<!-- s9 -->
<g id="s9" class="node"><title>s9</title>
<path fill="none" stroke="black" d="M661.5,-283C661.5,-283 622.5,-283 622.5,-283 616.5,-283 610.5,-277 610.5,-271 610.5,-271 610.5,-259 610.5,-259 610.5,-253 616.5,-247 622.5,-247 622.5,-247 661.5,-247 661.5,-247 667.5,-247 673.5,-253 673.5,-259 673.5,-259 673.5,-271 673.5,-271 673.5,-277 667.5,-283 661.5,-283"/>
<text text-anchor="middle" x="642" y="-262.5" font-family="Times,serif" font-size="10.00">C3_mRNA</text>
</g>
<!-- re14_intermediate_r -->
<g id="node19" class="node"><title>re14_intermediate_r</title>
<ellipse fill="black" stroke="black" cx="711" cy="-263" rx="0.036" ry="0.036"/>
</g>
<!-- s9&#45;&gt;re14_intermediate_r -->
<g id="edge12" class="edge"><title>s9&#45;&gt;re14_intermediate_r</title>
<path fill="none" stroke="black" d="M673.755,-264.082C690.817,-263.573 708.836,-263.035 709.946,-263.002"/>
</g>
<!-- re18_intermediate_m -->
<g id="node30" class="node"><title>re18_intermediate_m</title>
<ellipse fill="black" stroke="black" cx="711" cy="-190" rx="0.036" ry="0.036"/>
</g>
<!-- s9&#45;&gt;re18_intermediate_m -->
<g id="edge28" class="edge"><title>s9&#45;&gt;re18_intermediate_m</title>
<path fill="none" stroke="black" d="M664.89,-246.971C668.049,-244.076 671.182,-241.032 674,-238 691.588,-219.078 708.884,-191.771 709.948,-190.082"/>
</g>
<!-- s10 -->
<g id="s10" class="node"><title>s10</title>
<path fill="none" stroke="black" d="M256,-248C256,-248 226,-248 226,-248 220,-248 214,-242 214,-236 214,-236 214,-224 214,-224 214,-218 220,-212 226,-212 226,-212 256,-212 256,-212 262,-212 268,-218 268,-224 268,-224 268,-236 268,-236 268,-242 262,-248 256,-248"/>
<text text-anchor="middle" x="241" y="-227.5" font-family="Times,serif" font-size="10.00">C_3</text>
</g>
<!-- re12_intermediate_r -->
<g id="node12" class="node"><title>re12_intermediate_r</title>
<ellipse fill="black" stroke="black" cx="305" cy="-230" rx="0.036" ry="0.036"/>
</g>
<!-- s10&#45;&gt;re12_intermediate_r -->
<g id="edge2" class="edge"><title>s10&#45;&gt;re12_intermediate_r</title>
<path fill="none" stroke="black" d="M268.294,-230C284.664,-230 302.826,-230 303.946,-230"/>
</g>
<!-- re15_intermediate_r -->
<g id="node22" class="node"><title>re15_intermediate_r</title>
<ellipse fill="black" stroke="black" cx="305" cy="-282" rx="0.036" ry="0.036"/>
</g>
<!-- s10&#45;&gt;re15_intermediate_r -->
<g id="edge16" class="edge"><title>s10&#45;&gt;re15_intermediate_r</title>
<path fill="none" stroke="black" d="M263.685,-248.187C281.005,-262.714 302.602,-280.828 303.935,-281.946"/>
</g>
<!-- s11 -->
<g id="s11" class="node"><title>s11</title>
<ellipse fill="none" stroke="black" cx="504" cy="-230" rx="18" ry="18"/>
<text text-anchor="middle" x="504" y="-227.5" font-family="Times,serif" font-size="10.00">C_3_P</text>
</g>
<!-- re13_intermediate_m -->
<g id="node17" class="node"><title>re13_intermediate_m</title>
<ellipse fill="black" stroke="black" cx="573" cy="-248" rx="0.036" ry="0.036"/>
</g>
<!-- s11&#45;&gt;re13_intermediate_m -->
<g id="edge10" class="edge"><title>s11&#45;&gt;re13_intermediate_m</title>
<path fill="none" stroke="black" d="M521.562,-234.449C540.782,-239.613 570.098,-247.489 571.912,-247.976"/>
</g>
<!-- re16_intermediate_r -->
<g id="node25" class="node"><title>re16_intermediate_r</title>
<ellipse fill="black" stroke="black" cx="573" cy="-226" rx="0.036" ry="0.036"/>
</g>
<!-- s11&#45;&gt;re16_intermediate_r -->
<g id="edge20" class="edge"><title>s11&#45;&gt;re16_intermediate_r</title>
<path fill="none" stroke="black" d="M522.254,-228.97C541.485,-227.822 570.141,-226.111 571.914,-226.005"/>
</g>
<!-- reaction_2_intermediate_r -->
<g id="node35" class="node"><title>reaction_2_intermediate_r</title>
<ellipse fill="black" stroke="black" cx="573" cy="-152" rx="0.036" ry="0.036"/>
</g>
<!-- s11&#45;&gt;reaction_2_intermediate_r -->
<g id="edge35" class="edge"><title>s11&#45;&gt;reaction_2_intermediate_r</title>
<path fill="none" stroke="black" d="M516.366,-216.768C534.884,-195.21 569.735,-154.637 571.895,-152.123"/>
</g>
<!-- s13 -->
<g id="s13" class="node"><title>s13</title>
<path fill="none" stroke="black" d="M42,-216C42,-216 12,-216 12,-216 6,-216 0,-210 0,-204 0,-204 0,-192 0,-192 0,-186 6,-180 12,-180 12,-180 42,-180 42,-180 48,-180 54,-186 54,-192 54,-192 54,-204 54,-204 54,-210 48,-216 42,-216"/>
<text text-anchor="middle" x="27" y="-195.5" font-family="Times,serif" font-size="10.00">C_3_pre</text>
</g>
<!-- re18_intermediate_r -->
<g id="node28" class="node"><title>re18_intermediate_r</title>
<ellipse fill="black" stroke="black" cx="90" cy="-198" rx="0.036" ry="0.036"/>
</g>
<!-- s13&#45;&gt;re18_intermediate_r -->
<g id="edge24" class="edge"><title>s13&#45;&gt;re18_intermediate_r</title>
<path fill="none" stroke="black" d="M54.2235,-198C70.2399,-198 87.8615,-198 88.9472,-198"/>
</g>
<!-- species_1 -->
<g id="species_1" class="node"><title>species_1</title>
<path fill="none" stroke="black" d="M799,-49C799,-49 769,-49 769,-49 763,-49 757,-43 757,-37 757,-37 757,-25 757,-25 757,-19 763,-13 769,-13 769,-13 799,-13 799,-13 805,-13 811,-19 811,-25 811,-25 811,-37 811,-37 811,-43 805,-49 799,-49"/>
<text text-anchor="middle" x="784" y="-28.5" font-family="Times,serif" font-size="10.00">C1</text>
</g>
<!-- reaction_3_intermediate_r -->
<g id="node38" class="node"><title>reaction_3_intermediate_r</title>
<ellipse fill="black" stroke="black" cx="857" cy="-43" rx="0.036" ry="0.036"/>
</g>
<!-- species_1&#45;&gt;reaction_3_intermediate_r -->
<g id="edge39" class="edge"><title>species_1&#45;&gt;reaction_3_intermediate_r</title>
<path fill="none" stroke="black" d="M811.035,-35.4002C830.665,-38.718 854.46,-42.7398 855.929,-42.9879"/>
</g>
<!-- reaction_4_intermediate_r -->
<g id="node41" class="node"><title>reaction_4_intermediate_r</title>
<ellipse fill="black" stroke="black" cx="857" cy="-21" rx="0.036" ry="0.036"/>
</g>
<!-- species_1&#45;&gt;reaction_4_intermediate_r -->
<g id="edge43" class="edge"><title>species_1&#45;&gt;reaction_4_intermediate_r</title>
<path fill="none" stroke="black" d="M811.035,-27.3332C830.665,-24.5683 854.46,-21.2168 855.929,-21.0101"/>
</g>
<!-- species_2 -->
<g id="species_2" class="node"><title>species_2</title>
<path fill="none" stroke="black" d="M523.5,-36C523.5,-36 484.5,-36 484.5,-36 478.5,-36 472.5,-30 472.5,-24 472.5,-24 472.5,-12 472.5,-12 472.5,-6 478.5,-0 484.5,-0 484.5,-0 523.5,-0 523.5,-0 529.5,-0 535.5,-6 535.5,-12 535.5,-12 535.5,-24 535.5,-24 535.5,-30 529.5,-36 523.5,-36"/>
<text text-anchor="middle" x="504" y="-15.5" font-family="Times,serif" font-size="10.00">C1_mRNA</text>
</g>
<!-- reaction_1_intermediate_r -->
<g id="node32" class="node"><title>reaction_1_intermediate_r</title>
<ellipse fill="black" stroke="black" cx="573" cy="-18" rx="0.036" ry="0.036"/>
</g>
<!-- species_2&#45;&gt;reaction_1_intermediate_r -->
<g id="edge30" class="edge"><title>species_2&#45;&gt;reaction_1_intermediate_r</title>
<path fill="none" stroke="black" d="M535.755,-18C552.817,-18 570.836,-18 571.946,-18"/>
</g>
<!-- species_3 -->
<g id="species_3" class="node"><title>species_3</title>
<ellipse fill="none" stroke="black" cx="504" cy="-102" rx="31.3996" ry="18"/>
<text text-anchor="middle" x="504" y="-99.5" font-family="Times,serif" font-size="10.00">C1_phos</text>
</g>
<!-- species_3&#45;&gt;reaction_2_intermediate_r -->
<g id="edge34" class="edge"><title>species_3&#45;&gt;reaction_2_intermediate_r</title>
<path fill="none" stroke="black" d="M524.02,-116.194C543.209,-130.514 570.247,-150.692 571.919,-151.939"/>
</g>
<!-- reaction_6_intermediate_r -->
<g id="node47" class="node"><title>reaction_6_intermediate_r</title>
<ellipse fill="black" stroke="black" cx="573" cy="-53" rx="0.036" ry="0.036"/>
</g>
<!-- species_3&#45;&gt;reaction_6_intermediate_r -->
<g id="edge51" class="edge"><title>species_3&#45;&gt;reaction_6_intermediate_r</title>
<path fill="none" stroke="black" d="M524.02,-88.0896C543.209,-74.0558 570.247,-54.2817 571.919,-53.0595"/>
</g>
<!-- reaction_7_intermediate_r -->
<g id="node50" class="node"><title>reaction_7_intermediate_r</title>
<ellipse fill="black" stroke="black" cx="573" cy="-117" rx="0.036" ry="0.036"/>
</g>
<!-- species_3&#45;&gt;reaction_7_intermediate_r -->
<g id="edge55" class="edge"><title>species_3&#45;&gt;reaction_7_intermediate_r</title>
<path fill="none" stroke="black" d="M533.414,-108.361C551.104,-112.322 570.732,-116.716 571.941,-116.987"/>
</g>
<!-- species_4 -->
<g id="species_4" class="node"><title>species_4</title>
<path fill="none" stroke="black" d="M807.5,-190C807.5,-190 760.5,-190 760.5,-190 754.5,-190 748.5,-184 748.5,-178 748.5,-178 748.5,-166 748.5,-166 748.5,-160 754.5,-154 760.5,-154 760.5,-154 807.5,-154 807.5,-154 813.5,-154 819.5,-160 819.5,-166 819.5,-166 819.5,-178 819.5,-178 819.5,-184 813.5,-190 807.5,-190"/>
<text text-anchor="middle" x="784" y="-169.5" font-family="Times,serif" font-size="10.00">c1c3complex</text>
</g>
<!-- reaction_5_intermediate_r -->
<g id="node44" class="node"><title>reaction_5_intermediate_r</title>
<ellipse fill="black" stroke="black" cx="857" cy="-172" rx="0.036" ry="0.036"/>
</g>
<!-- species_4&#45;&gt;reaction_5_intermediate_r -->
<g id="edge47" class="edge"><title>species_4&#45;&gt;reaction_5_intermediate_r</title>
<path fill="none" stroke="black" d="M819.668,-172C837.128,-172 854.856,-172 855.947,-172"/>
</g>
<!-- species_12 -->
<g id="species_12" class="node"><title>species_12</title>
<ellipse fill="none" stroke="black" cx="1009" cy="-198" rx="27" ry="18"/>
<text text-anchor="middle" x="1009" y="-195.5" font-family="Times,serif" font-size="10.00">junk</text>
</g>
<!-- re12 -->
<g id="node11" class="node"><title>re12</title>
<polygon fill="none" stroke="black" points="377,-237 363,-237 363,-223 377,-223 377,-237"/>
</g>
<!-- re12_intermediate_p -->
<g id="node13" class="node"><title>re12_intermediate_p</title>
<ellipse fill="black" stroke="black" cx="435" cy="-230" rx="0.036" ry="0.036"/>
</g>
<!-- re12&#45;&gt;re12_intermediate_p -->
<g id="edge3" class="edge"><title>re12&#45;&gt;re12_intermediate_p</title>
<path fill="none" stroke="black" d="M377.271,-230C392.708,-230 431.475,-230 433.882,-230"/>
</g>
<!-- re12_intermediate_r&#45;&gt;re12 -->
<g id="edge1" class="edge"><title>re12_intermediate_r&#45;&gt;re12</title>
<path fill="none" stroke="black" d="M306.046,-230C307.581,-230 347.41,-230 362.909,-230"/>
</g>
<!-- re12_intermediate_p&#45;&gt;s11 -->
<g id="edge4" class="edge"><title>re12_intermediate_p&#45;&gt;s11</title>
<path fill="none" stroke="black" d="M436.049,-230C437.175,-230 457.682,-230 475.706,-230"/>
<polygon fill="black" stroke="black" points="475.865,-233.5 485.865,-230 475.865,-226.5 475.865,-233.5"/>
</g>
<!-- re13 -->
<g id="node14" class="node"><title>re13</title>
<polygon fill="none" stroke="black" points="511,-280 497,-280 497,-266 511,-266 511,-280"/>
</g>
<!-- re13_intermediate_p -->
<g id="node16" class="node"><title>re13_intermediate_p</title>
<ellipse fill="black" stroke="black" cx="573" cy="-269" rx="0.036" ry="0.036"/>
</g>
<!-- re13&#45;&gt;re13_intermediate_p -->
<g id="edge7" class="edge"><title>re13&#45;&gt;re13_intermediate_p</title>
<path fill="none" stroke="black" d="M511.183,-272.631C527.251,-271.672 569.263,-269.163 571.873,-269.008"/>
</g>
<!-- re13&#45;&gt;re13_intermediate_m -->
<g id="edge9" class="edge"><title>re13&#45;&gt;re13_intermediate_m</title>
<path fill="none" stroke="black" d="M511.183,-270.693C527.251,-264.697 569.263,-249.021 571.873,-248.048"/>
</g>
<!-- re13_intermediate_r&#45;&gt;re13 -->
<g id="edge5" class="edge"><title>re13_intermediate_r&#45;&gt;re13</title>
<path fill="none" stroke="black" d="M436.049,-273C437.697,-273 480.865,-273 496.995,-273"/>
</g>
<!-- re13_intermediate_p&#45;&gt;s9 -->
<g id="edge8" class="edge"><title>re13_intermediate_p&#45;&gt;s9</title>
<path fill="none" stroke="black" d="M574.049,-268.997C574.897,-268.946 586.737,-268.24 600.231,-267.434"/>
<polygon fill="black" stroke="black" points="600.441,-270.928 610.215,-266.838 600.024,-263.94 600.441,-270.928"/>
</g>
<!-- re14 -->
<g id="node18" class="node"><title>re14</title>
<polygon fill="none" stroke="black" points="791,-261 777,-261 777,-247 791,-247 791,-261"/>
</g>
<!-- re14_intermediate_p -->
<g id="node20" class="node"><title>re14_intermediate_p</title>
<ellipse fill="black" stroke="black" cx="901" cy="-253" rx="0.036" ry="0.036"/>
</g>
<!-- re14&#45;&gt;re14_intermediate_p -->
<g id="edge13" class="edge"><title>re14&#45;&gt;re14_intermediate_p</title>
<path fill="none" stroke="black" d="M791.183,-253.946C814.696,-253.742 897.361,-253.023 899.938,-253.001"/>
</g>
<!-- re14_intermediate_r&#45;&gt;re14 -->
<g id="edge11" class="edge"><title>re14_intermediate_r&#45;&gt;re14</title>
<path fill="none" stroke="black" d="M712.051,-262.993C713.798,-262.772 759.544,-256.973 776.637,-254.807"/>
</g>
<!-- re14_intermediate_p&#45;&gt;species_12 -->
<g id="edge14" class="edge"><title>re14_intermediate_p&#45;&gt;species_12</title>
<path fill="none" stroke="black" d="M902.077,-252.96C904.145,-251.887 947.517,-229.382 978.112,-213.508"/>
<polygon fill="black" stroke="black" points="979.873,-216.538 987.137,-208.825 976.649,-210.324 979.873,-216.538"/>
</g>
<!-- re15 -->
<g id="node21" class="node"><title>re15</title>
<polygon fill="none" stroke="black" points="377,-323 363,-323 363,-309 377,-309 377,-323"/>
</g>
<!-- re15_intermediate_p -->
<g id="node23" class="node"><title>re15_intermediate_p</title>
<ellipse fill="black" stroke="black" cx="435" cy="-315" rx="0.036" ry="0.036"/>
</g>
<!-- re15&#45;&gt;re15_intermediate_p -->
<g id="edge17" class="edge"><title>re15&#45;&gt;re15_intermediate_p</title>
<path fill="none" stroke="black" d="M377.271,-315.9C392.708,-315.655 431.475,-315.04 433.882,-315.002"/>
</g>
<!-- re15_intermediate_r&#45;&gt;re15 -->
<g id="edge15" class="edge"><title>re15_intermediate_r&#45;&gt;re15</title>
<path fill="none" stroke="black" d="M306.046,-282.025C307.581,-282.853 347.41,-304.348 362.909,-312.713"/>
</g>
<!-- re15_intermediate_p&#45;&gt;species_12 -->
<g id="edge18" class="edge"><title>re15_intermediate_p&#45;&gt;species_12</title>
<path fill="none" stroke="black" d="M436.055,-314.997C438.357,-314.876 512.474,-311 572,-311 572,-311 572,-311 902,-311 949.005,-311 981.23,-258.346 996.95,-224.923"/>
<polygon fill="black" stroke="black" points="1000.21,-226.212 1001.12,-215.656 993.825,-223.338 1000.21,-226.212"/>
</g>
<!-- re16 -->
<g id="node24" class="node"><title>re16</title>
<polygon fill="none" stroke="black" points="649,-229 635,-229 635,-215 649,-215 649,-229"/>
</g>
<!-- re16_intermediate_p -->
<g id="node26" class="node"><title>re16_intermediate_p</title>
<ellipse fill="black" stroke="black" cx="784" cy="-217" rx="0.036" ry="0.036"/>
</g>
<!-- re16&#45;&gt;re16_intermediate_p -->
<g id="edge21" class="edge"><title>re16&#45;&gt;re16_intermediate_p</title>
<path fill="none" stroke="black" d="M649.016,-221.785C675.394,-220.843 779.67,-217.119 782.922,-217.003"/>
</g>
<!-- re16_intermediate_r&#45;&gt;re16 -->
<g id="edge19" class="edge"><title>re16_intermediate_r&#45;&gt;re16</title>
<path fill="none" stroke="black" d="M574.049,-225.997C575.697,-225.899 618.865,-223.321 634.995,-222.358"/>
</g>
<!-- re16_intermediate_p&#45;&gt;species_12 -->
<g id="edge22" class="edge"><title>re16_intermediate_p&#45;&gt;species_12</title>
<path fill="none" stroke="black" d="M785.162,-216.986C790.161,-216.56 909.907,-206.358 971.748,-201.089"/>
<polygon fill="black" stroke="black" points="972.199,-204.563 981.866,-200.227 971.605,-197.588 972.199,-204.563"/>
</g>
<!-- re18 -->
<g id="node27" class="node"><title>re18</title>
<polygon fill="none" stroke="black" points="140,-205 126,-205 126,-191 140,-191 140,-205"/>
</g>
<!-- re18_intermediate_p -->
<g id="node29" class="node"><title>re18_intermediate_p</title>
<ellipse fill="black" stroke="black" cx="177" cy="-221" rx="0.036" ry="0.036"/>
</g>
<!-- re18&#45;&gt;re18_intermediate_p -->
<g id="edge25" class="edge"><title>re18&#45;&gt;re18_intermediate_p</title>
<path fill="none" stroke="black" d="M140.197,-201.394C151.515,-207.592 174.505,-220.181 175.93,-220.962"/>
</g>
<!-- re18&#45;&gt;re18_intermediate_m -->
<g id="edge27" class="edge"><title>re18&#45;&gt;re18_intermediate_m</title>
<path fill="none" stroke="black" d="M140.175,-196.606C156.426,-193.065 201.761,-184 240,-184 240,-184 240,-184 436,-184 555.904,-184 705.251,-189.814 709.889,-189.996"/>
</g>
<!-- re18_intermediate_r&#45;&gt;re18 -->
<g id="edge23" class="edge"><title>re18_intermediate_r&#45;&gt;re18</title>
<path fill="none" stroke="black" d="M91.1176,-198C92.9212,-198 115.016,-198 125.95,-198"/>
</g>
<!-- re18_intermediate_p&#45;&gt;s10 -->
<g id="edge26" class="edge"><title>re18_intermediate_p&#45;&gt;s10</title>
<path fill="none" stroke="black" d="M178.045,-221.007C178.863,-221.125 190.734,-222.849 203.87,-224.755"/>
<polygon fill="black" stroke="black" points="203.599,-228.253 213.998,-226.226 204.605,-221.325 203.599,-228.253"/>
</g>
<!-- reaction_1 -->
<g id="node31" class="node"><title>reaction_1</title>
<polygon fill="none" stroke="black" points="649,-25 635,-25 635,-11 649,-11 649,-25"/>
</g>
<!-- reaction_1_intermediate_p -->
<g id="node33" class="node"><title>reaction_1_intermediate_p</title>
<ellipse fill="black" stroke="black" cx="711" cy="-18" rx="0.036" ry="0.036"/>
</g>
<!-- reaction_1&#45;&gt;reaction_1_intermediate_p -->
<g id="edge31" class="edge"><title>reaction_1&#45;&gt;reaction_1_intermediate_p</title>
<path fill="none" stroke="black" d="M649.183,-18C665.251,-18 707.263,-18 709.873,-18"/>
</g>
<!-- reaction_1_intermediate_r&#45;&gt;reaction_1 -->
<g id="edge29" class="edge"><title>reaction_1_intermediate_r&#45;&gt;reaction_1</title>
<path fill="none" stroke="black" d="M574.049,-18C575.697,-18 618.865,-18 634.995,-18"/>
</g>
<!-- reaction_1_intermediate_p&#45;&gt;species_1 -->
<g id="edge32" class="edge"><title>reaction_1_intermediate_p&#45;&gt;species_1</title>
<path fill="none" stroke="black" d="M712.051,-18.0094C713.098,-18.201 729.921,-21.2813 746.921,-24.394"/>
<polygon fill="black" stroke="black" points="746.366,-27.8505 756.833,-26.2089 747.627,-20.965 746.366,-27.8505"/>
</g>
<!-- reaction_2 -->
<g id="node34" class="node"><title>reaction_2</title>
<polygon fill="none" stroke="black" points="649,-159 635,-159 635,-145 649,-145 649,-159"/>
</g>
<!-- reaction_2_intermediate_p -->
<g id="node36" class="node"><title>reaction_2_intermediate_p</title>
<ellipse fill="black" stroke="black" cx="711" cy="-160" rx="0.036" ry="0.036"/>
</g>
<!-- reaction_2&#45;&gt;reaction_2_intermediate_p -->
<g id="edge36" class="edge"><title>reaction_2&#45;&gt;reaction_2_intermediate_p</title>
<path fill="none" stroke="black" d="M649.183,-152.738C665.251,-154.657 707.263,-159.673 709.873,-159.985"/>
</g>
<!-- reaction_2_intermediate_r&#45;&gt;reaction_2 -->
<g id="edge33" class="edge"><title>reaction_2_intermediate_r&#45;&gt;reaction_2</title>
<path fill="none" stroke="black" d="M574.049,-152C575.697,-152 618.865,-152 634.995,-152"/>
</g>
<!-- reaction_2_intermediate_p&#45;&gt;species_4 -->
<g id="edge37" class="edge"><title>reaction_2_intermediate_p&#45;&gt;species_4</title>
<path fill="none" stroke="black" d="M712.051,-160.009C712.916,-160.155 724.571,-162.125 738.192,-164.427"/>
<polygon fill="black" stroke="black" points="737.888,-167.925 748.332,-166.141 739.055,-161.023 737.888,-167.925"/>
</g>
<!-- reaction_3 -->
<g id="node37" class="node"><title>reaction_3</title>
<polygon fill="none" stroke="black" points="908,-57 894,-57 894,-43 908,-43 908,-57"/>
</g>
<!-- reaction_3_intermediate_p -->
<g id="node39" class="node"><title>reaction_3_intermediate_p</title>
<ellipse fill="black" stroke="black" cx="945" cy="-73" rx="0.036" ry="0.036"/>
</g>
<!-- reaction_3&#45;&gt;reaction_3_intermediate_p -->
<g id="edge40" class="edge"><title>reaction_3&#45;&gt;reaction_3_intermediate_p</title>
<path fill="none" stroke="black" d="M908.197,-53.3937C919.515,-59.5916 942.505,-72.1811 943.93,-72.9619"/>
</g>
<!-- reaction_3_intermediate_r&#45;&gt;reaction_3 -->
<g id="edge38" class="edge"><title>reaction_3_intermediate_r&#45;&gt;reaction_3</title>
<path fill="none" stroke="black" d="M858.12,-43.0201C859.968,-43.328 882.602,-47.1003 893.803,-48.9671"/>
</g>
<!-- reaction_3_intermediate_p&#45;&gt;species_3 -->
<g id="edge41" class="edge"><title>reaction_3_intermediate_p&#45;&gt;species_3</title>
<path fill="none" stroke="black" d="M943.863,-73.0344C941.046,-73.7383 895.387,-85 858,-85 641,-85 641,-85 641,-85 607.98,-85 570.795,-89.9954 543.664,-94.5704"/>
<polygon fill="black" stroke="black" points="543.038,-91.1267 533.788,-96.292 544.24,-98.0227 543.038,-91.1267"/>
</g>
<!-- reaction_4 -->
<g id="node40" class="node"><title>reaction_4</title>
<polygon fill="none" stroke="black" points="908,-25 894,-25 894,-11 908,-11 908,-25"/>
</g>
<!-- reaction_4_intermediate_p -->
<g id="node42" class="node"><title>reaction_4_intermediate_p</title>
<ellipse fill="black" stroke="black" cx="945" cy="-31" rx="0.036" ry="0.036"/>
</g>
<!-- reaction_4&#45;&gt;reaction_4_intermediate_p -->
<g id="edge44" class="edge"><title>reaction_4&#45;&gt;reaction_4_intermediate_p</title>
<path fill="none" stroke="black" d="M908.197,-19.9182C919.515,-23.4214 942.505,-30.5372 943.93,-30.9785"/>
</g>
<!-- reaction_4_intermediate_r&#45;&gt;reaction_4 -->
<g id="edge42" class="edge"><title>reaction_4_intermediate_r&#45;&gt;reaction_4</title>
<path fill="none" stroke="black" d="M858.12,-20.9914C859.968,-20.8594 882.602,-19.2427 893.803,-18.4427"/>
</g>
<!-- reaction_4_intermediate_p&#45;&gt;species_12 -->
<g id="edge45" class="edge"><title>reaction_4_intermediate_p&#45;&gt;species_12</title>
<path fill="none" stroke="black" d="M946.045,-31.121C947.439,-34.8753 980.91,-125.032 998.062,-171.232"/>
<polygon fill="black" stroke="black" points="994.793,-172.483 1001.55,-180.64 1001.36,-170.047 994.793,-172.483"/>
</g>
<!-- reaction_5 -->
<g id="node43" class="node"><title>reaction_5</title>
<polygon fill="none" stroke="black" points="908,-186 894,-186 894,-172 908,-172 908,-186"/>
</g>
<!-- reaction_5_intermediate_p -->
<g id="node45" class="node"><title>reaction_5_intermediate_p</title>
<ellipse fill="black" stroke="black" cx="945" cy="-182" rx="0.036" ry="0.036"/>
</g>
<!-- reaction_5&#45;&gt;reaction_5_intermediate_p -->
<g id="edge48" class="edge"><title>reaction_5&#45;&gt;reaction_5_intermediate_p</title>
<path fill="none" stroke="black" d="M908.197,-179.443C919.515,-180.251 942.505,-181.893 943.93,-181.995"/>
</g>
<!-- reaction_5_intermediate_r&#45;&gt;reaction_5 -->
<g id="edge46" class="edge"><title>reaction_5_intermediate_r&#45;&gt;reaction_5</title>
<path fill="none" stroke="black" d="M858.12,-172.02C859.968,-172.328 882.602,-176.1 893.803,-177.967"/>
</g>
<!-- reaction_5_intermediate_p&#45;&gt;species_12 -->
<g id="edge49" class="edge"><title>reaction_5_intermediate_p&#45;&gt;species_12</title>
<path fill="none" stroke="black" d="M946.045,-182.012C946.895,-182.231 959.669,-185.527 973.398,-189.07"/>
<polygon fill="black" stroke="black" points="972.85,-192.544 983.407,-191.653 974.599,-185.766 972.85,-192.544"/>
</g>
<!-- reaction_6 -->
<g id="node46" class="node"><title>reaction_6</title>
<polygon fill="none" stroke="black" points="649,-57 635,-57 635,-43 649,-43 649,-57"/>
</g>
<!-- reaction_6_intermediate_p -->
<g id="node48" class="node"><title>reaction_6_intermediate_p</title>
<ellipse fill="black" stroke="black" cx="711" cy="-43" rx="0.036" ry="0.036"/>
</g>
<!-- reaction_6&#45;&gt;reaction_6_intermediate_p -->
<g id="edge52" class="edge"><title>reaction_6&#45;&gt;reaction_6_intermediate_p</title>
<path fill="none" stroke="black" d="M649.183,-49.354C665.251,-47.6752 707.263,-43.286 709.873,-43.0133"/>
</g>
<!-- reaction_6_intermediate_r&#45;&gt;reaction_6 -->
<g id="edge50" class="edge"><title>reaction_6_intermediate_r&#45;&gt;reaction_6</title>
<path fill="none" stroke="black" d="M574.049,-52.9978C575.697,-52.924 618.865,-50.9911 634.995,-50.2689"/>
</g>
<!-- reaction_6_intermediate_p&#45;&gt;species_1 -->
<g id="edge53" class="edge"><title>reaction_6_intermediate_p&#45;&gt;species_1</title>
<path fill="none" stroke="black" d="M712.051,-42.9913C713.098,-42.8145 729.921,-39.9711 746.921,-37.0978"/>
<polygon fill="black" stroke="black" points="747.556,-40.5402 756.833,-35.4226 746.39,-33.6381 747.556,-40.5402"/>
</g>
<!-- reaction_7 -->
<g id="node49" class="node"><title>reaction_7</title>
<polygon fill="none" stroke="black" points="649,-127 635,-127 635,-113 649,-113 649,-127"/>
</g>
<!-- reaction_7_intermediate_p -->
<g id="node51" class="node"><title>reaction_7_intermediate_p</title>
<ellipse fill="black" stroke="black" cx="857" cy="-123" rx="0.036" ry="0.036"/>
</g>
<!-- reaction_7&#45;&gt;reaction_7_intermediate_p -->
<g id="edge56" class="edge"><title>reaction_7&#45;&gt;reaction_7_intermediate_p</title>
<path fill="none" stroke="black" d="M649.145,-120.087C683.523,-120.571 850.661,-122.925 855.875,-122.998"/>
</g>
<!-- reaction_7_intermediate_r&#45;&gt;reaction_7 -->
<g id="edge54" class="edge"><title>reaction_7_intermediate_r&#45;&gt;reaction_7</title>
<path fill="none" stroke="black" d="M574.049,-117.002C575.697,-117.076 618.865,-119.009 634.995,-119.731"/>
</g>
<!-- reaction_7_intermediate_p&#45;&gt;species_12 -->
<g id="edge57" class="edge"><title>reaction_7_intermediate_p&#45;&gt;species_12</title>
<path fill="none" stroke="black" d="M858.109,-123.054C861.317,-124.659 934.777,-161.389 977.644,-182.822"/>
<polygon fill="black" stroke="black" points="976.292,-186.059 986.802,-187.401 979.423,-179.798 976.292,-186.059"/>
</g>
</g>
</svg>
