<?xml version="1.0" encoding="UTF-8" standalone="no"?>
<!DOCTYPE svg PUBLIC "-//W3C//DTD SVG 1.1//EN"
 "http://www.w3.org/Graphics/SVG/1.1/DTD/svg11.dtd">
<!-- Generated by graphviz version 2.24.0 (20090616.2323)
 -->
<!-- Title: G Pages: 1 -->
<svg width="722pt" height="196pt"
 viewBox="0.00 0.00 722.00 196.00" xmlns="http://www.w3.org/2000/svg" xmlns:xlink="http://www.w3.org/1999/xlink">
<g id="graph1" class="graph" transform="scale(1 1) rotate(0) translate(4 192)">
<title>G</title>
<polygon fill="white" stroke="white" points="-4,5 -4,-192 719,-192 719,5 -4,5"/>
<!-- species_1 -->
<g id="node1" class="node"><title>species_1</title>
<ellipse fill="none" stroke="black" cx="18" cy="-108" rx="18" ry="18"/>
<text text-anchor="middle" x="18" y="-105.5" font-family="Times Roman,serif" font-size="10.00">x1</text>
</g>
<!-- reaction_1_intermediate_r -->
<g id="node5" class="node"><title>reaction_1_intermediate_r</title>
<ellipse fill="black" stroke="black" cx="73" cy="-92" rx="0.036" ry="0.036"/>
</g>
<!-- species_1&#45;&gt;reaction_1_intermediate_r -->
<g id="edge4" class="edge"><title>species_1&#45;&gt;reaction_1_intermediate_r</title>
<path fill="none" stroke="black" d="M35.4023,-102.938C51.0121,-98.3965 71.6625,-92.3891 72.9379,-92.0181"/>
</g>
<!-- reaction_4_intermediate_r -->
<g id="node29" class="node"><title>reaction_4_intermediate_r</title>
<ellipse fill="black" stroke="black" cx="73" cy="-158" rx="0.036" ry="0.036"/>
</g>
<!-- species_1&#45;&gt;reaction_4_intermediate_r -->
<g id="edge34" class="edge"><title>species_1&#45;&gt;reaction_4_intermediate_r</title>
<path fill="none" stroke="black" d="M31.5955,-120.36C47.3736,-134.703 71.4388,-156.581 72.9274,-157.934"/>
</g>
<!-- species_2 -->
<g id="node2" class="node"><title>species_2</title>
<ellipse fill="none" stroke="black" cx="518" cy="-46" rx="18" ry="18"/>
<text text-anchor="middle" x="518" y="-43.5" font-family="Times Roman,serif" font-size="10.00">x2</text>
</g>
<!-- reaction_2_intermediate_r -->
<g id="node13" class="node"><title>reaction_2_intermediate_r</title>
<ellipse fill="black" stroke="black" cx="573" cy="-48" rx="0.036" ry="0.036"/>
</g>
<!-- species_2&#45;&gt;reaction_2_intermediate_r -->
<g id="edge14" class="edge"><title>species_2&#45;&gt;reaction_2_intermediate_r</title>
<path fill="none" stroke="black" d="M536.009,-46.6549C551.548,-47.2199 571.695,-47.9526 572.939,-47.9978"/>
</g>
<!-- reaction_5_intermediate_r -->
<g id="node35" class="node"><title>reaction_5_intermediate_r</title>
<ellipse fill="black" stroke="black" cx="573" cy="-24" rx="0.036" ry="0.036"/>
</g>
<!-- species_2&#45;&gt;reaction_5_intermediate_r -->
<g id="edge40" class="edge"><title>species_2&#45;&gt;reaction_5_intermediate_r</title>
<path fill="none" stroke="black" d="M534.801,-39.2797C550.47,-33.0121 571.629,-24.5483 572.936,-24.0255"/>
</g>
<!-- species_3 -->
<g id="node3" class="node"><title>species_3</title>
<ellipse fill="none" stroke="black" cx="268" cy="-51" rx="18" ry="18"/>
<text text-anchor="middle" x="268" y="-48.5" font-family="Times Roman,serif" font-size="10.00">x3</text>
</g>
<!-- reaction_3_intermediate_r -->
<g id="node21" class="node"><title>reaction_3_intermediate_r</title>
<ellipse fill="black" stroke="black" cx="323" cy="-18" rx="0.036" ry="0.036"/>
</g>
<!-- species_3&#45;&gt;reaction_3_intermediate_r -->
<g id="edge24" class="edge"><title>species_3&#45;&gt;reaction_3_intermediate_r</title>
<path fill="none" stroke="black" d="M283.614,-41.6318C299.366,-32.1804 321.561,-18.8632 322.933,-18.0401"/>
</g>
<!-- reaction_6_intermediate_r -->
<g id="node41" class="node"><title>reaction_6_intermediate_r</title>
<ellipse fill="black" stroke="black" cx="323" cy="-81" rx="0.036" ry="0.036"/>
</g>
<!-- species_3&#45;&gt;reaction_6_intermediate_r -->
<g id="edge46" class="edge"><title>species_3&#45;&gt;reaction_6_intermediate_r</title>
<path fill="none" stroke="black" d="M283.908,-59.6772C299.644,-68.2605 321.578,-80.2246 322.934,-80.964"/>
</g>
<!-- reaction_1 -->
<g id="node4" class="node"><title>reaction_1</title>
<polygon fill="none" stroke="black" points="124,-96 110,-96 110,-82 124,-82 124,-96"/>
</g>
<!-- reaction_1_intermediate_p -->
<g id="node8" class="node"><title>reaction_1_intermediate_p</title>
<ellipse fill="black" stroke="black" cx="187" cy="-54" rx="0.036" ry="0.036"/>
</g>
<!-- reaction_1&#45;&gt;reaction_1_intermediate_p -->
<g id="edge6" class="edge"><title>reaction_1&#45;&gt;reaction_1_intermediate_p</title>
<path fill="none" stroke="black" d="M124.228,-85.3862C141.554,-76.7232 184.221,-55.3896 186.871,-54.0647"/>
</g>
<!-- reaction_1_intermediate_r&#45;&gt;reaction_1 -->
<g id="edge2" class="edge"><title>reaction_1_intermediate_r&#45;&gt;reaction_1</title>
<path fill="none" stroke="black" d="M73.1262,-91.9914C75.0215,-91.8622 97.7945,-90.3095 109.759,-89.4937"/>
</g>
<!-- reaction_1_intermediate_p&#45;&gt;species_1 -->
<g id="edge8" class="edge"><title>reaction_1_intermediate_p&#45;&gt;species_1</title>
<path fill="none" stroke="black" d="M186.952,-54.0082C184.96,-54.3501 120.822,-65.4297 72,-83 62.4343,-86.4425 52.2435,-90.9325 43.3216,-95.156"/>
<polygon fill="black" stroke="black" points="41.6945,-92.0553 34.2281,-99.5722 44.7525,-98.352 41.6945,-92.0553"/>
</g>
<!-- reaction_1_intermediate_p&#45;&gt;species_3 -->
<g id="edge10" class="edge"><title>reaction_1_intermediate_p&#45;&gt;species_3</title>
<path fill="none" stroke="black" d="M187.059,-53.9978C188.514,-53.9439 216.754,-52.898 239.471,-52.0566"/>
<polygon fill="black" stroke="black" points="239.857,-55.5448 249.721,-51.677 239.598,-48.5496 239.857,-55.5448"/>
</g>
<!-- reaction_2 -->
<g id="node12" class="node"><title>reaction_2</title>
<polygon fill="none" stroke="black" points="624,-57 610,-57 610,-43 624,-43 624,-57"/>
</g>
<!-- reaction_2_intermediate_p -->
<g id="node16" class="node"><title>reaction_2_intermediate_p</title>
<ellipse fill="black" stroke="black" cx="687" cy="-85" rx="0.036" ry="0.036"/>
</g>
<!-- reaction_2&#45;&gt;reaction_2_intermediate_p -->
<g id="edge16" class="edge"><title>reaction_2&#45;&gt;reaction_2_intermediate_p</title>
<path fill="none" stroke="black" d="M624.228,-53.6138C641.554,-62.2768 684.221,-83.6104 686.871,-84.9353"/>
</g>
<!-- reaction_2_intermediate_r&#45;&gt;reaction_2 -->
<g id="edge12" class="edge"><title>reaction_2_intermediate_r&#45;&gt;reaction_2</title>
<path fill="none" stroke="black" d="M573.126,-48.0057C575.022,-48.0919 597.795,-49.127 609.759,-49.6709"/>
</g>
<!-- reaction_2_intermediate_p&#45;&gt;species_1 -->
<g id="edge20" class="edge"><title>reaction_2_intermediate_p&#45;&gt;species_1</title>
<path fill="none" stroke="black" d="M686.956,-85.0283C685.113,-86.2092 625.713,-124 573,-124 117,-124 117,-124 117,-124 92.6491,-124 65.3556,-119.224 45.6033,-114.891"/>
<polygon fill="black" stroke="black" points="46.2747,-111.454 35.7451,-112.628 44.7084,-118.277 46.2747,-111.454"/>
</g>
<!-- reaction_2_intermediate_p&#45;&gt;species_2 -->
<g id="edge18" class="edge"><title>reaction_2_intermediate_p&#45;&gt;species_2</title>
<path fill="none" stroke="black" d="M686.922,-84.9819C683.876,-84.2791 592.764,-63.2532 545.645,-52.3797"/>
<polygon fill="black" stroke="black" points="546.297,-48.9383 535.767,-50.1 544.723,-55.759 546.297,-48.9383"/>
</g>
<!-- reaction_3 -->
<g id="node20" class="node"><title>reaction_3</title>
<polygon fill="none" stroke="black" points="374,-21 360,-21 360,-7 374,-7 374,-21"/>
</g>
<!-- reaction_3_intermediate_p -->
<g id="node24" class="node"><title>reaction_3_intermediate_p</title>
<ellipse fill="black" stroke="black" cx="437" cy="-42" rx="0.036" ry="0.036"/>
</g>
<!-- reaction_3&#45;&gt;reaction_3_intermediate_p -->
<g id="edge26" class="edge"><title>reaction_3&#45;&gt;reaction_3_intermediate_p</title>
<path fill="none" stroke="black" d="M374.228,-16.891C391.554,-23.8214 434.221,-40.8884 436.871,-41.9483"/>
</g>
<!-- reaction_3_intermediate_r&#45;&gt;reaction_3 -->
<g id="edge22" class="edge"><title>reaction_3_intermediate_r&#45;&gt;reaction_3</title>
<path fill="none" stroke="black" d="M323.126,-17.9885C325.022,-17.8162 347.795,-15.746 359.759,-14.6583"/>
</g>
<!-- reaction_3_intermediate_p&#45;&gt;species_2 -->
<g id="edge30" class="edge"><title>reaction_3_intermediate_p&#45;&gt;species_2</title>
<path fill="none" stroke="black" d="M437.059,-42.0029C438.514,-42.0748 466.754,-43.4693 489.471,-44.5912"/>
<polygon fill="black" stroke="black" points="489.561,-48.0998 499.721,-45.0973 489.906,-41.1083 489.561,-48.0998"/>
</g>
<!-- reaction_3_intermediate_p&#45;&gt;species_3 -->
<g id="edge28" class="edge"><title>reaction_3_intermediate_p&#45;&gt;species_3</title>
<path fill="none" stroke="black" d="M436.922,-42.0042C433.898,-42.1652 343.599,-46.974 296.296,-49.4931"/>
<polygon fill="black" stroke="black" points="295.886,-46.0099 286.086,-50.0368 296.258,-53 295.886,-46.0099"/>
</g>
<!-- reaction_4 -->
<g id="node28" class="node"><title>reaction_4</title>
<polygon fill="none" stroke="black" points="124,-171 110,-171 110,-157 124,-157 124,-171"/>
</g>
<!-- reaction_4_empty -->
<g id="node32" class="node"><title>reaction_4_empty</title>
<text text-anchor="middle" x="187" y="-165.5" font-family="Times Roman,serif" font-size="15.00" fill="blue">Ø</text>
</g>
<!-- reaction_4&#45;&gt;reaction_4_empty -->
<g id="edge36" class="edge"><title>reaction_4&#45;&gt;reaction_4_empty</title>
<path fill="none" stroke="black" d="M124.228,-164.62C130.45,-165.153 139.94,-165.966 149.672,-166.8"/>
<polygon fill="black" stroke="black" points="149.511,-170.299 159.773,-167.666 150.109,-163.325 149.511,-170.299"/>
</g>
<!-- reaction_4_intermediate_r&#45;&gt;reaction_4 -->
<g id="edge32" class="edge"><title>reaction_4_intermediate_r&#45;&gt;reaction_4</title>
<path fill="none" stroke="black" d="M73.1262,-158.017C75.0215,-158.276 97.7945,-161.381 109.759,-163.013"/>
</g>
<!-- reaction_5 -->
<g id="node34" class="node"><title>reaction_5</title>
<polygon fill="none" stroke="black" points="624,-25 610,-25 610,-11 624,-11 624,-25"/>
</g>
<!-- reaction_5_empty -->
<g id="node38" class="node"><title>reaction_5_empty</title>
<text text-anchor="middle" x="687" y="-13.5" font-family="Times Roman,serif" font-size="15.00" fill="blue">Ø</text>
</g>
<!-- reaction_5&#45;&gt;reaction_5_empty -->
<g id="edge42" class="edge"><title>reaction_5&#45;&gt;reaction_5_empty</title>
<path fill="none" stroke="black" d="M624.228,-18C630.45,-18 639.94,-18 649.672,-18"/>
<polygon fill="black" stroke="black" points="649.773,-21.5001 659.773,-18 649.773,-14.5001 649.773,-21.5001"/>
</g>
<!-- reaction_5_intermediate_r&#45;&gt;reaction_5 -->
<g id="edge38" class="edge"><title>reaction_5_intermediate_r&#45;&gt;reaction_5</title>
<path fill="none" stroke="black" d="M573.126,-23.9828C575.022,-23.7243 597.795,-20.6189 609.759,-18.9874"/>
</g>
<!-- reaction_6 -->
<g id="node40" class="node"><title>reaction_6</title>
<polygon fill="none" stroke="black" points="374,-91 360,-91 360,-77 374,-77 374,-91"/>
</g>
<!-- reaction_6_empty -->
<g id="node44" class="node"><title>reaction_6_empty</title>
<text text-anchor="middle" x="437" y="-73.5" font-family="Times Roman,serif" font-size="15.00" fill="blue">Ø</text>
</g>
<!-- reaction_6&#45;&gt;reaction_6_empty -->
<g id="edge48" class="edge"><title>reaction_6&#45;&gt;reaction_6_empty</title>
<path fill="none" stroke="black" d="M374.228,-83.3805C380.45,-82.8472 389.94,-82.0337 399.672,-81.1996"/>
<polygon fill="black" stroke="black" points="400.109,-84.675 409.773,-80.3337 399.511,-77.7006 400.109,-84.675"/>
</g>
<!-- reaction_6_intermediate_r&#45;&gt;reaction_6 -->
<g id="edge44" class="edge"><title>reaction_6_intermediate_r&#45;&gt;reaction_6</title>
<path fill="none" stroke="black" d="M323.126,-81.0086C325.022,-81.1378 347.795,-82.6905 359.759,-83.5063"/>
</g>
</g>
</svg>
