<?xml version="1.0" encoding="UTF-8" standalone="no"?>
<!DOCTYPE svg PUBLIC "-//W3C//DTD SVG 1.1//EN"
 "http://www.w3.org/Graphics/SVG/1.1/DTD/svg11.dtd">
<!-- Generated by graphviz version 2.24.0 (20090616.2323)
 -->
<!-- Title: G Pages: 1 -->
<svg width="1192pt" height="479pt"
 viewBox="0.00 0.00 1192.00 479.00" xmlns="http://www.w3.org/2000/svg" xmlns:xlink="http://www.w3.org/1999/xlink">
<g id="graph1" class="graph" transform="scale(1 1) rotate(0) translate(4 475)">
<title>G</title>
<polygon fill="white" stroke="white" points="-4,5 -4,-475 1189,-475 1189,5 -4,5"/>
<!-- Mdm2 -->
<g id="node1" class="node"><title>Mdm2</title>
<polyline fill="none" stroke="black" points="54,-339 24,-339 "/>
<path fill="none" stroke="black" d="M24,-339C18,-339 12,-333 12,-327"/>
<polyline fill="none" stroke="black" points="12,-327 12,-315 "/>
<path fill="none" stroke="black" d="M12,-315C12,-309 18,-303 24,-303"/>
<polyline fill="none" stroke="black" points="24,-303 54,-303 "/>
<path fill="none" stroke="black" d="M54,-303C60,-303 66,-309 66,-315"/>
<polyline fill="none" stroke="black" points="66,-315 66,-327 "/>
<path fill="none" stroke="black" d="M66,-327C66,-333 60,-339 54,-339"/>
<text text-anchor="middle" x="39" y="-318.5" font-family="Times Roman,serif" font-size="10.00">Mdm2</text>
</g>
<!-- Mdm2Degradation_intermediate_r -->
<g id="node46" class="node"><title>Mdm2Degradation_intermediate_r</title>
<ellipse fill="black" stroke="black" cx="115" cy="-257" rx="0.036" ry="0.036"/>
</g>
<!-- Mdm2&#45;&gt;Mdm2Degradation_intermediate_r -->
<g id="edge38" class="edge"><title>Mdm2&#45;&gt;Mdm2Degradation_intermediate_r</title>
<path fill="none" stroke="black" d="M60.5753,-302.831C82.342,-284.501 113.012,-258.674 114.908,-257.078"/>
</g>
<!-- P53_Mdm2Binding_intermediate_r -->
<g id="node70" class="node"><title>P53_Mdm2Binding_intermediate_r</title>
<ellipse fill="black" stroke="black" cx="115" cy="-341" rx="0.036" ry="0.036"/>
</g>
<!-- Mdm2&#45;&gt;P53_Mdm2Binding_intermediate_r -->
<g id="edge70" class="edge"><title>Mdm2&#45;&gt;P53_Mdm2Binding_intermediate_r</title>
<path fill="none" stroke="black" d="M66.0087,-328.108C87.1707,-333.676 113.309,-340.555 114.921,-340.979"/>
</g>
<!-- ARF_Mdm2Binding_intermediate_r -->
<g id="node108" class="node"><title>ARF_Mdm2Binding_intermediate_r</title>
<ellipse fill="black" stroke="black" cx="375" cy="-164" rx="0.036" ry="0.036"/>
</g>
<!-- Mdm2&#45;&gt;ARF_Mdm2Binding_intermediate_r -->
<g id="edge116" class="edge"><title>Mdm2&#45;&gt;ARF_Mdm2Binding_intermediate_r</title>
<path fill="none" stroke="black" d="M43.8409,-302.848C55.8678,-262.32 91.1467,-168 159,-168 159,-168 159,-168 203,-168 278.27,-168 372.019,-164.124 374.93,-164.003"/>
</g>
<!-- p53 -->
<g id="node2" class="node"><title>p53</title>
<polyline fill="none" stroke="black" points="589,-382 559,-382 "/>
<path fill="none" stroke="black" d="M559,-382C553,-382 547,-376 547,-370"/>
<polyline fill="none" stroke="black" points="547,-370 547,-358 "/>
<path fill="none" stroke="black" d="M547,-358C547,-352 553,-346 559,-346"/>
<polyline fill="none" stroke="black" points="559,-346 589,-346 "/>
<path fill="none" stroke="black" d="M589,-346C595,-346 601,-352 601,-358"/>
<polyline fill="none" stroke="black" points="601,-358 601,-370 "/>
<path fill="none" stroke="black" d="M601,-370C601,-376 595,-382 589,-382"/>
<text text-anchor="middle" x="574" y="-361.5" font-family="Times Roman,serif" font-size="10.00">p53</text>
</g>
<!-- Mdm2mRNASynthesis_intermediate_r -->
<g id="node29" class="node"><title>Mdm2mRNASynthesis_intermediate_r</title>
<ellipse fill="black" stroke="black" cx="659" cy="-380" rx="0.036" ry="0.036"/>
</g>
<!-- p53&#45;&gt;Mdm2mRNASynthesis_intermediate_r -->
<g id="edge16" class="edge"><title>p53&#45;&gt;Mdm2mRNASynthesis_intermediate_r</title>
<path fill="none" stroke="black" d="M601.362,-369.151C625.434,-373.682 656.958,-379.616 658.905,-379.982"/>
</g>
<!-- p53&#45;&gt;P53_Mdm2Binding_intermediate_r -->
<g id="edge68" class="edge"><title>p53&#45;&gt;P53_Mdm2Binding_intermediate_r</title>
<path fill="none" stroke="black" d="M546.728,-362.633C448.903,-357.732 121.089,-341.305 115.084,-341.004"/>
</g>
<!-- Mdm2_p53 -->
<g id="node3" class="node"><title>Mdm2_p53</title>
<polyline fill="none" stroke="black" points="299,-405 253,-405 "/>
<path fill="none" stroke="black" d="M253,-405C247,-405 241,-399 241,-393"/>
<polyline fill="none" stroke="black" points="241,-393 241,-381 "/>
<path fill="none" stroke="black" d="M241,-381C241,-375 247,-369 253,-369"/>
<polyline fill="none" stroke="black" points="253,-369 299,-369 "/>
<path fill="none" stroke="black" d="M299,-369C305,-369 311,-375 311,-381"/>
<polyline fill="none" stroke="black" points="311,-381 311,-393 "/>
<path fill="none" stroke="black" d="M311,-393C311,-399 305,-405 299,-405"/>
<text text-anchor="middle" x="276" y="-384.5" font-family="Times Roman,serif" font-size="10.00">Mdm2_p53</text>
</g>
<!-- p53Degradation_intermediate_r -->
<g id="node62" class="node"><title>p53Degradation_intermediate_r</title>
<ellipse fill="black" stroke="black" cx="375" cy="-372" rx="0.036" ry="0.036"/>
</g>
<!-- Mdm2_p53&#45;&gt;p53Degradation_intermediate_r -->
<g id="edge58" class="edge"><title>Mdm2_p53&#45;&gt;p53Degradation_intermediate_r</title>
<path fill="none" stroke="black" d="M311.741,-381.585C339.212,-377.422 372.825,-372.33 374.899,-372.015"/>
</g>
<!-- P53_Mdm2Release_intermediate_r -->
<g id="node78" class="node"><title>P53_Mdm2Release_intermediate_r</title>
<ellipse fill="black" stroke="black" cx="375" cy="-395" rx="0.036" ry="0.036"/>
</g>
<!-- Mdm2_p53&#45;&gt;P53_Mdm2Release_intermediate_r -->
<g id="edge78" class="edge"><title>Mdm2_p53&#45;&gt;P53_Mdm2Release_intermediate_r</title>
<path fill="none" stroke="black" d="M311.741,-389.888C339.212,-392.108 372.825,-394.824 374.899,-394.992"/>
</g>
<!-- Mdm2_mRNA -->
<g id="node4" class="node"><title>Mdm2_mRNA</title>
<ellipse fill="none" stroke="black" cx="843" cy="-386" rx="51.2073" ry="18"/>
<text text-anchor="middle" x="843" y="-383.5" font-family="Times Roman,serif" font-size="10.00">Mdm2_mRNA</text>
</g>
<!-- Mdm2Synthesis_intermediate_r -->
<g id="node20" class="node"><title>Mdm2Synthesis_intermediate_r</title>
<ellipse fill="black" stroke="black" cx="939" cy="-386" rx="0.036" ry="0.036"/>
</g>
<!-- Mdm2_mRNA&#45;&gt;Mdm2Synthesis_intermediate_r -->
<g id="edge4" class="edge"><title>Mdm2_mRNA&#45;&gt;Mdm2Synthesis_intermediate_r</title>
<path fill="none" stroke="black" d="M894.653,-386C916.666,-386 937.647,-386 938.937,-386"/>
</g>
<!-- Mdm2mRNADegradation_intermediate_r -->
<g id="node38" class="node"><title>Mdm2mRNADegradation_intermediate_r</title>
<ellipse fill="black" stroke="black" cx="939" cy="-361" rx="0.036" ry="0.036"/>
</g>
<!-- Mdm2_mRNA&#45;&gt;Mdm2mRNADegradation_intermediate_r -->
<g id="edge28" class="edge"><title>Mdm2_mRNA&#45;&gt;Mdm2mRNADegradation_intermediate_r</title>
<path fill="none" stroke="black" d="M884.549,-375.18C909.683,-368.635 937.221,-361.463 938.917,-361.022"/>
</g>
<!-- ARF -->
<g id="node5" class="node"><title>ARF</title>
<polyline fill="none" stroke="black" points="858,-132 828,-132 "/>
<path fill="none" stroke="black" d="M828,-132C822,-132 816,-126 816,-120"/>
<polyline fill="none" stroke="black" points="816,-120 816,-108 "/>
<path fill="none" stroke="black" d="M816,-108C816,-102 822,-96 828,-96"/>
<polyline fill="none" stroke="black" points="828,-96 858,-96 "/>
<path fill="none" stroke="black" d="M858,-96C864,-96 870,-102 870,-108"/>
<polyline fill="none" stroke="black" points="870,-108 870,-120 "/>
<path fill="none" stroke="black" d="M870,-120C870,-126 864,-132 858,-132"/>
<text text-anchor="middle" x="843" y="-111.5" font-family="Times Roman,serif" font-size="10.00">ARF</text>
</g>
<!-- ARF&#45;&gt;ARF_Mdm2Binding_intermediate_r -->
<g id="edge114" class="edge"><title>ARF&#45;&gt;ARF_Mdm2Binding_intermediate_r</title>
<path fill="none" stroke="black" d="M815.906,-115.233C787.71,-116.408 742.269,-118 703,-118 489,-118 489,-118 489,-118 435.218,-118 376.854,-162.574 375.043,-163.967"/>
</g>
<!-- ARFDegradation_intermediate_r -->
<g id="node124" class="node"><title>ARFDegradation_intermediate_r</title>
<ellipse fill="black" stroke="black" cx="939" cy="-121" rx="0.036" ry="0.036"/>
</g>
<!-- ARF&#45;&gt;ARFDegradation_intermediate_r -->
<g id="edge134" class="edge"><title>ARF&#45;&gt;ARFDegradation_intermediate_r</title>
<path fill="none" stroke="black" d="M870.253,-115.987C897.748,-117.992 936.489,-120.817 938.883,-120.991"/>
</g>
<!-- ARF_Mdm2 -->
<g id="node6" class="node"><title>ARF_Mdm2</title>
<polyline fill="none" stroke="black" points="598,-182 550,-182 "/>
<path fill="none" stroke="black" d="M550,-182C544,-182 538,-176 538,-170"/>
<polyline fill="none" stroke="black" points="538,-170 538,-158 "/>
<path fill="none" stroke="black" d="M538,-158C538,-152 544,-146 550,-146"/>
<polyline fill="none" stroke="black" points="550,-146 598,-146 "/>
<path fill="none" stroke="black" d="M598,-146C604,-146 610,-152 610,-158"/>
<polyline fill="none" stroke="black" points="610,-158 610,-170 "/>
<path fill="none" stroke="black" d="M610,-170C610,-176 604,-182 598,-182"/>
<text text-anchor="middle" x="574" y="-161.5" font-family="Times Roman,serif" font-size="10.00">ARF_Mdm2</text>
</g>
<!-- ARF_Mdm2Degradation_intermediate_r -->
<g id="node116" class="node"><title>ARF_Mdm2Degradation_intermediate_r</title>
<ellipse fill="black" stroke="black" cx="659" cy="-164" rx="0.036" ry="0.036"/>
</g>
<!-- ARF_Mdm2&#45;&gt;ARF_Mdm2Degradation_intermediate_r -->
<g id="edge124" class="edge"><title>ARF_Mdm2&#45;&gt;ARF_Mdm2Degradation_intermediate_r</title>
<path fill="none" stroke="black" d="M610.048,-164C632.49,-164 657.391,-164 658.925,-164"/>
</g>
<!-- damDNA -->
<g id="node7" class="node"><title>damDNA</title>
<ellipse fill="none" stroke="black" cx="574" cy="-18" rx="36.9352" ry="18"/>
<text text-anchor="middle" x="574" y="-15.5" font-family="Times Roman,serif" font-size="10.00">damDNA</text>
</g>
<!-- DNArepair_intermediate_r -->
<g id="node93" class="node"><title>DNArepair_intermediate_r</title>
<ellipse fill="black" stroke="black" cx="659" cy="-15" rx="0.036" ry="0.036"/>
</g>
<!-- damDNA&#45;&gt;DNArepair_intermediate_r -->
<g id="edge96" class="edge"><title>damDNA&#45;&gt;DNArepair_intermediate_r</title>
<path fill="none" stroke="black" d="M611.035,-16.6929C633.225,-15.9097 657.436,-15.0552 658.927,-15.0026"/>
</g>
<!-- ARFactivation_intermediate_r -->
<g id="node100" class="node"><title>ARFactivation_intermediate_r</title>
<ellipse fill="black" stroke="black" cx="659" cy="-38" rx="0.036" ry="0.036"/>
</g>
<!-- damDNA&#45;&gt;ARFactivation_intermediate_r -->
<g id="edge104" class="edge"><title>damDNA&#45;&gt;ARFactivation_intermediate_r</title>
<path fill="none" stroke="black" d="M607.594,-25.9045C630.611,-31.3202 657.276,-37.5943 658.92,-37.9812"/>
</g>
<!-- Sink -->
<g id="node8" class="node"><title>Sink</title>
<ellipse fill="none" stroke="black" cx="1124" cy="-198" rx="27" ry="18"/>
<text text-anchor="middle" x="1124" y="-195.5" font-family="Times Roman,serif" font-size="10.00">Sink</text>
</g>
<!-- Source -->
<g id="node9" class="node"><title>Source</title>
<ellipse fill="none" stroke="black" cx="276" cy="-256" rx="30.8966" ry="18"/>
<text text-anchor="middle" x="276" y="-253.5" font-family="Times Roman,serif" font-size="10.00">Source</text>
</g>
<!-- p53Synthesis_intermediate_r -->
<g id="node54" class="node"><title>p53Synthesis_intermediate_r</title>
<ellipse fill="black" stroke="black" cx="375" cy="-256" rx="0.036" ry="0.036"/>
</g>
<!-- Source&#45;&gt;p53Synthesis_intermediate_r -->
<g id="edge48" class="edge"><title>Source&#45;&gt;p53Synthesis_intermediate_r</title>
<path fill="none" stroke="black" d="M307.596,-256C335.664,-256 372.607,-256 374.889,-256"/>
</g>
<!-- p53deg -->
<g id="node10" class="node"><title>p53deg</title>
<ellipse fill="none" stroke="black" cx="574" cy="-310" rx="33.2417" ry="18"/>
<text text-anchor="middle" x="574" y="-307.5" font-family="Times Roman,serif" font-size="10.00">p53deg</text>
</g>
<!-- p53syn -->
<g id="node11" class="node"><title>p53syn</title>
<ellipse fill="none" stroke="black" cx="574" cy="-256" rx="32.0105" ry="18"/>
<text text-anchor="middle" x="574" y="-253.5" font-family="Times Roman,serif" font-size="10.00">p53syn</text>
</g>
<!-- mdm2deg -->
<g id="node12" class="node"><title>mdm2deg</title>
<ellipse fill="none" stroke="black" cx="843" cy="-168" rx="40.1272" ry="18"/>
<text text-anchor="middle" x="843" y="-165.5" font-family="Times Roman,serif" font-size="10.00">mdm2deg</text>
</g>
<!-- mdm2syn -->
<g id="node13" class="node"><title>mdm2syn</title>
<ellipse fill="none" stroke="black" cx="1124" cy="-421" rx="40.0132" ry="18"/>
<text text-anchor="middle" x="1124" y="-418.5" font-family="Times Roman,serif" font-size="10.00">mdm2syn</text>
</g>
<!-- Mdm2mRNAdeg -->
<g id="node14" class="node"><title>Mdm2mRNAdeg</title>
<ellipse fill="none" stroke="black" cx="1124" cy="-272" rx="59.2102" ry="18"/>
<text text-anchor="middle" x="1124" y="-269.5" font-family="Times Roman,serif" font-size="10.00">Mdm2mRNAdeg</text>
</g>
<!-- Mdm2mRNAsyn -->
<g id="node15" class="node"><title>Mdm2mRNAsyn</title>
<ellipse fill="none" stroke="black" cx="843" cy="-332" rx="59.0964" ry="18"/>
<text text-anchor="middle" x="843" y="-329.5" font-family="Times Roman,serif" font-size="10.00">Mdm2mRNAsyn</text>
</g>
<!-- totdamDNA -->
<g id="node16" class="node"><title>totdamDNA</title>
<ellipse fill="none" stroke="black" cx="574" cy="-72" rx="46.9013" ry="18"/>
<text text-anchor="middle" x="574" y="-69.5" font-family="Times Roman,serif" font-size="10.00">totdamDNA</text>
</g>
<!-- totp53 -->
<g id="node17" class="node"><title>totp53</title>
<ellipse fill="none" stroke="black" cx="39" cy="-375" rx="30.8966" ry="18"/>
<text text-anchor="middle" x="39" y="-372.5" font-family="Times Roman,serif" font-size="10.00">totp53</text>
</g>
<!-- totMdm2 -->
<g id="node18" class="node"><title>totMdm2</title>
<ellipse fill="none" stroke="black" cx="39" cy="-429" rx="38.782" ry="18"/>
<text text-anchor="middle" x="39" y="-426.5" font-family="Times Roman,serif" font-size="10.00">totMdm2</text>
</g>
<!-- Mdm2Synthesis -->
<g id="node19" class="node"><title>Mdm2Synthesis</title>
<polygon fill="none" stroke="black" points="990,-393 976,-393 976,-379 990,-379 990,-393"/>
</g>
<!-- Mdm2Synthesis_intermediate_p -->
<g id="node23" class="node"><title>Mdm2Synthesis_intermediate_p</title>
<ellipse fill="black" stroke="black" cx="1027" cy="-421" rx="0.036" ry="0.036"/>
</g>
<!-- Mdm2Synthesis&#45;&gt;Mdm2Synthesis_intermediate_p -->
<g id="edge6" class="edge"><title>Mdm2Synthesis&#45;&gt;Mdm2Synthesis_intermediate_p</title>
<path fill="none" stroke="black" d="M990.266,-391.78C1002.37,-401.41 1025.5,-419.804 1026.93,-420.944"/>
</g>
<!-- Mdm2Synthesis_intermediate_r&#45;&gt;Mdm2Synthesis -->
<g id="edge2" class="edge"><title>Mdm2Synthesis_intermediate_r&#45;&gt;Mdm2Synthesis</title>
<path fill="none" stroke="black" d="M939.126,-386C941.022,-386 963.795,-386 975.759,-386"/>
</g>
<!-- Mdm2Synthesis_intermediate_p&#45;&gt;Mdm2 -->
<g id="edge10" class="edge"><title>Mdm2Synthesis_intermediate_p&#45;&gt;Mdm2</title>
<path fill="none" stroke="black" d="M1026.88,-421.143C1024.31,-424.076 982.578,-471 939,-471 159,-471 159,-471 159,-471 93.5443,-471 120.887,-397.449 78,-348 76.705,-346.507 75.3101,-345.056 73.8453,-343.654"/>
<polygon fill="black" stroke="black" points="75.968,-340.865 66.0789,-337.062 71.4384,-346.202 75.968,-340.865"/>
</g>
<!-- Mdm2Synthesis_intermediate_p&#45;&gt;Mdm2_mRNA -->
<g id="edge8" class="edge"><title>Mdm2Synthesis_intermediate_p&#45;&gt;Mdm2_mRNA</title>
<path fill="none" stroke="black" d="M1026.94,-420.988C1024.54,-420.531 951.789,-406.693 898.516,-396.56"/>
<polygon fill="black" stroke="black" points="898.961,-393.082 888.483,-394.652 897.653,-399.959 898.961,-393.082"/>
</g>
<!-- Mdm2Synthesis_intermediate_p&#45;&gt;mdm2syn -->
<g id="edge12" class="edge"><title>Mdm2Synthesis_intermediate_p&#45;&gt;mdm2syn</title>
<path fill="none" stroke="black" d="M1027.07,-421C1028.48,-421 1050.85,-421 1073.74,-421"/>
<polygon fill="black" stroke="black" points="1073.87,-424.5 1083.87,-421 1073.87,-417.5 1073.87,-424.5"/>
</g>
<!-- Mdm2mRNASynthesis -->
<g id="node28" class="node"><title>Mdm2mRNASynthesis</title>
<polygon fill="none" stroke="black" points="710,-390 696,-390 696,-376 710,-376 710,-390"/>
</g>
<!-- Mdm2mRNASynthesis_intermediate_p -->
<g id="node32" class="node"><title>Mdm2mRNASynthesis_intermediate_p</title>
<ellipse fill="black" stroke="black" cx="747" cy="-359" rx="0.036" ry="0.036"/>
</g>
<!-- Mdm2mRNASynthesis&#45;&gt;Mdm2mRNASynthesis_intermediate_p -->
<g id="edge18" class="edge"><title>Mdm2mRNASynthesis&#45;&gt;Mdm2mRNASynthesis_intermediate_p</title>
<path fill="none" stroke="black" d="M710.266,-379.037C722.372,-372.433 745.497,-359.82 746.93,-359.038"/>
</g>
<!-- Mdm2mRNASynthesis_intermediate_r&#45;&gt;Mdm2mRNASynthesis -->
<g id="edge14" class="edge"><title>Mdm2mRNASynthesis_intermediate_r&#45;&gt;Mdm2mRNASynthesis</title>
<path fill="none" stroke="black" d="M659.126,-380.009C661.022,-380.138 683.795,-381.691 695.759,-382.506"/>
</g>
<!-- Mdm2mRNASynthesis_intermediate_p&#45;&gt;p53 -->
<g id="edge20" class="edge"><title>Mdm2mRNASynthesis_intermediate_p&#45;&gt;p53</title>
<path fill="none" stroke="black" d="M746.929,-359.002C744.167,-359.082 661.144,-361.481 611.156,-362.926"/>
<polygon fill="black" stroke="black" points="610.926,-359.431 601.031,-363.219 611.128,-366.428 610.926,-359.431"/>
</g>
<!-- Mdm2mRNASynthesis_intermediate_p&#45;&gt;Mdm2_mRNA -->
<g id="edge22" class="edge"><title>Mdm2mRNASynthesis_intermediate_p&#45;&gt;Mdm2_mRNA</title>
<path fill="none" stroke="black" d="M747.07,-359.02C748.461,-359.411 770.486,-365.606 793.08,-371.96"/>
<polygon fill="black" stroke="black" points="792.165,-375.338 802.739,-374.677 794.06,-368.6 792.165,-375.338"/>
</g>
<!-- Mdm2mRNASynthesis_intermediate_p&#45;&gt;Mdm2mRNAsyn -->
<g id="edge24" class="edge"><title>Mdm2mRNASynthesis_intermediate_p&#45;&gt;Mdm2mRNAsyn</title>
<path fill="none" stroke="black" d="M747.07,-358.98C748.389,-358.609 768.276,-353.016 789.603,-347.018"/>
<polygon fill="black" stroke="black" points="790.763,-350.328 799.442,-344.251 788.867,-343.589 790.763,-350.328"/>
</g>
<!-- Mdm2mRNADegradation -->
<g id="node37" class="node"><title>Mdm2mRNADegradation</title>
<polygon fill="none" stroke="black" points="990,-309 976,-309 976,-295 990,-295 990,-309"/>
</g>
<!-- Mdm2mRNADegradation_intermediate_p -->
<g id="node41" class="node"><title>Mdm2mRNADegradation_intermediate_p</title>
<ellipse fill="black" stroke="black" cx="1027" cy="-272" rx="0.036" ry="0.036"/>
</g>
<!-- Mdm2mRNADegradation&#45;&gt;Mdm2mRNADegradation_intermediate_p -->
<g id="edge30" class="edge"><title>Mdm2mRNADegradation&#45;&gt;Mdm2mRNADegradation_intermediate_p</title>
<path fill="none" stroke="black" d="M990.266,-297.046C1002.37,-288.792 1025.5,-273.025 1026.93,-272.048"/>
</g>
<!-- Mdm2mRNADegradation_intermediate_r&#45;&gt;Mdm2mRNADegradation -->
<g id="edge26" class="edge"><title>Mdm2mRNADegradation_intermediate_r&#45;&gt;Mdm2mRNADegradation</title>
<path fill="none" stroke="black" d="M939.126,-360.831C941.122,-358.154 966.276,-324.425 977.572,-309.279"/>
</g>
<!-- Mdm2mRNADegradation_intermediate_p&#45;&gt;Sink -->
<g id="edge32" class="edge"><title>Mdm2mRNADegradation_intermediate_p&#45;&gt;Sink</title>
<path fill="none" stroke="black" d="M1027.07,-271.946C1028.98,-270.487 1069.53,-239.555 1097.57,-218.164"/>
<polygon fill="black" stroke="black" points="1099.98,-220.724 1105.81,-211.875 1095.74,-215.158 1099.98,-220.724"/>
</g>
<!-- Mdm2mRNADegradation_intermediate_p&#45;&gt;Mdm2mRNAdeg -->
<g id="edge34" class="edge"><title>Mdm2mRNADegradation_intermediate_p&#45;&gt;Mdm2mRNAdeg</title>
<path fill="none" stroke="black" d="M1027.07,-272C1028.07,-272 1039.57,-272 1054.33,-272"/>
<polygon fill="black" stroke="black" points="1054.42,-275.5 1064.42,-272 1054.42,-268.5 1054.42,-275.5"/>
</g>
<!-- Mdm2Degradation -->
<g id="node45" class="node"><title>Mdm2Degradation</title>
<polygon fill="none" stroke="black" points="166,-246 152,-246 152,-232 166,-232 166,-246"/>
</g>
<!-- Mdm2Degradation_intermediate_p -->
<g id="node49" class="node"><title>Mdm2Degradation_intermediate_p</title>
<ellipse fill="black" stroke="black" cx="747" cy="-210" rx="0.036" ry="0.036"/>
</g>
<!-- Mdm2Degradation&#45;&gt;Mdm2Degradation_intermediate_p -->
<g id="edge40" class="edge"><title>Mdm2Degradation&#45;&gt;Mdm2Degradation_intermediate_p</title>
<path fill="none" stroke="black" d="M166.237,-235.896C184.36,-228.415 233.309,-210 276,-210 276,-210 276,-210 659,-210 696.889,-210 743.954,-210 746.859,-210"/>
</g>
<!-- Mdm2Degradation_intermediate_r&#45;&gt;Mdm2Degradation -->
<g id="edge36" class="edge"><title>Mdm2Degradation_intermediate_r&#45;&gt;Mdm2Degradation</title>
<path fill="none" stroke="black" d="M115.126,-256.948C117.022,-256.173 139.795,-246.857 151.759,-241.962"/>
</g>
<!-- Mdm2Degradation_intermediate_p&#45;&gt;Sink -->
<g id="edge42" class="edge"><title>Mdm2Degradation_intermediate_p&#45;&gt;Sink</title>
<path fill="none" stroke="black" d="M747.078,-210.003C750.328,-210.124 854.982,-214 939,-214 939,-214 939,-214 983,-214 1018.87,-214 1059.56,-208.823 1087.97,-204.359"/>
<polygon fill="black" stroke="black" points="1088.54,-207.812 1097.85,-202.757 1087.42,-200.902 1088.54,-207.812"/>
</g>
<!-- Mdm2Degradation_intermediate_p&#45;&gt;mdm2deg -->
<g id="edge44" class="edge"><title>Mdm2Degradation_intermediate_p&#45;&gt;mdm2deg</title>
<path fill="none" stroke="black" d="M747.07,-209.97C748.698,-209.257 778.599,-196.176 804.589,-184.805"/>
<polygon fill="black" stroke="black" points="806.169,-187.934 813.928,-180.719 803.364,-181.521 806.169,-187.934"/>
</g>
<!-- p53Synthesis -->
<g id="node53" class="node"><title>p53Synthesis</title>
<polygon fill="none" stroke="black" points="452,-263 438,-263 438,-249 452,-249 452,-263"/>
</g>
<!-- p53Synthesis_intermediate_p -->
<g id="node57" class="node"><title>p53Synthesis_intermediate_p</title>
<ellipse fill="black" stroke="black" cx="489" cy="-256" rx="0.036" ry="0.036"/>
</g>
<!-- p53Synthesis&#45;&gt;p53Synthesis_intermediate_p -->
<g id="edge50" class="edge"><title>p53Synthesis&#45;&gt;p53Synthesis_intermediate_p</title>
<path fill="none" stroke="black" d="M452.266,-256C464.372,-256 487.497,-256 488.93,-256"/>
</g>
<!-- p53Synthesis_intermediate_r&#45;&gt;p53Synthesis -->
<g id="edge46" class="edge"><title>p53Synthesis_intermediate_r&#45;&gt;p53Synthesis</title>
<path fill="none" stroke="black" d="M375.051,-256C376.748,-256 420.582,-256 437.98,-256"/>
</g>
<!-- p53Synthesis_intermediate_p&#45;&gt;p53 -->
<g id="edge52" class="edge"><title>p53Synthesis_intermediate_p&#45;&gt;p53</title>
<path fill="none" stroke="black" d="M489.03,-256.15C489.654,-259.219 500.05,-308.775 526,-337 529.549,-340.86 533.781,-344.306 538.239,-347.337"/>
<polygon fill="black" stroke="black" points="536.612,-350.444 546.973,-352.655 540.253,-344.465 536.612,-350.444"/>
</g>
<!-- p53Synthesis_intermediate_p&#45;&gt;p53syn -->
<g id="edge54" class="edge"><title>p53Synthesis_intermediate_p&#45;&gt;p53syn</title>
<path fill="none" stroke="black" d="M489.062,-256C490.332,-256 511.032,-256 531.676,-256"/>
<polygon fill="black" stroke="black" points="531.721,-259.5 541.721,-256 531.721,-252.5 531.721,-259.5"/>
</g>
<!-- p53Degradation -->
<g id="node61" class="node"><title>p53Degradation</title>
<polygon fill="none" stroke="black" points="452,-335 438,-335 438,-321 452,-321 452,-335"/>
</g>
<!-- p53Degradation_intermediate_p -->
<g id="node65" class="node"><title>p53Degradation_intermediate_p</title>
<ellipse fill="black" stroke="black" cx="489" cy="-310" rx="0.036" ry="0.036"/>
</g>
<!-- p53Degradation&#45;&gt;p53Degradation_intermediate_p -->
<g id="edge60" class="edge"><title>p53Degradation&#45;&gt;p53Degradation_intermediate_p</title>
<path fill="none" stroke="black" d="M452.266,-325.028C464.372,-320.075 487.497,-310.615 488.93,-310.029"/>
</g>
<!-- p53Degradation_intermediate_r&#45;&gt;p53Degradation -->
<g id="edge56" class="edge"><title>p53Degradation_intermediate_r&#45;&gt;p53Degradation</title>
<path fill="none" stroke="black" d="M375.051,-371.968C376.748,-370.901 420.582,-343.348 437.98,-332.413"/>
</g>
<!-- p53Degradation_intermediate_p&#45;&gt;Mdm2 -->
<g id="edge62" class="edge"><title>p53Degradation_intermediate_p&#45;&gt;Mdm2</title>
<path fill="none" stroke="black" d="M488.884,-309.994C484.044,-309.752 328.174,-302 203,-302 159,-302 159,-302 159,-302 131.072,-302 99.9322,-307.083 76.3742,-311.99"/>
<polygon fill="black" stroke="black" points="75.481,-308.603 66.4487,-314.141 76.9631,-315.444 75.481,-308.603"/>
</g>
<!-- p53Degradation_intermediate_p&#45;&gt;p53deg -->
<g id="edge64" class="edge"><title>p53Degradation_intermediate_p&#45;&gt;p53deg</title>
<path fill="none" stroke="black" d="M489.062,-310C490.309,-310 510.289,-310 530.556,-310"/>
<polygon fill="black" stroke="black" points="530.764,-313.5 540.764,-310 530.764,-306.5 530.764,-313.5"/>
</g>
<!-- P53_Mdm2Binding -->
<g id="node69" class="node"><title>P53_Mdm2Binding</title>
<polygon fill="none" stroke="black" points="166,-386 152,-386 152,-372 166,-372 166,-386"/>
</g>
<!-- P53_Mdm2Binding_intermediate_p -->
<g id="node74" class="node"><title>P53_Mdm2Binding_intermediate_p</title>
<ellipse fill="black" stroke="black" cx="203" cy="-384" rx="0.036" ry="0.036"/>
</g>
<!-- P53_Mdm2Binding&#45;&gt;P53_Mdm2Binding_intermediate_p -->
<g id="edge72" class="edge"><title>P53_Mdm2Binding&#45;&gt;P53_Mdm2Binding_intermediate_p</title>
<path fill="none" stroke="black" d="M166.266,-379.826C178.372,-381.201 201.497,-383.829 202.93,-383.992"/>
</g>
<!-- P53_Mdm2Binding_intermediate_r&#45;&gt;P53_Mdm2Binding -->
<g id="edge66" class="edge"><title>P53_Mdm2Binding_intermediate_r&#45;&gt;P53_Mdm2Binding</title>
<path fill="none" stroke="black" d="M115.126,-341.109C117.022,-342.746 139.795,-362.413 151.759,-372.746"/>
</g>
<!-- P53_Mdm2Binding_intermediate_p&#45;&gt;Mdm2_p53 -->
<g id="edge74" class="edge"><title>P53_Mdm2Binding_intermediate_p&#45;&gt;Mdm2_p53</title>
<path fill="none" stroke="black" d="M203.053,-384.002C203.951,-384.039 216.158,-384.541 230.338,-385.123"/>
<polygon fill="black" stroke="black" points="230.22,-388.621 240.355,-385.535 230.508,-381.627 230.22,-388.621"/>
</g>
<!-- P53_Mdm2Release -->
<g id="node77" class="node"><title>P53_Mdm2Release</title>
<polygon fill="none" stroke="black" points="452,-405 438,-405 438,-391 452,-391 452,-405"/>
</g>
<!-- P53_Mdm2Release_intermediate_p -->
<g id="node81" class="node"><title>P53_Mdm2Release_intermediate_p</title>
<ellipse fill="black" stroke="black" cx="489" cy="-398" rx="0.036" ry="0.036"/>
</g>
<!-- P53_Mdm2Release&#45;&gt;P53_Mdm2Release_intermediate_p -->
<g id="edge80" class="edge"><title>P53_Mdm2Release&#45;&gt;P53_Mdm2Release_intermediate_p</title>
<path fill="none" stroke="black" d="M452.266,-398C464.372,-398 487.497,-398 488.93,-398"/>
</g>
<!-- P53_Mdm2Release_intermediate_r&#45;&gt;P53_Mdm2Release -->
<g id="edge76" class="edge"><title>P53_Mdm2Release_intermediate_r&#45;&gt;P53_Mdm2Release</title>
<path fill="none" stroke="black" d="M375.051,-395.002C376.748,-395.075 420.582,-396.954 437.98,-397.699"/>
</g>
<!-- P53_Mdm2Release_intermediate_p&#45;&gt;Mdm2 -->
<g id="edge84" class="edge"><title>P53_Mdm2Release_intermediate_p&#45;&gt;Mdm2</title>
<path fill="none" stroke="black" d="M488.956,-398.025C487.096,-399.085 427.173,-433 375,-433 159,-433 159,-433 159,-433 106.816,-433 117.659,-381.917 78,-348 76.8656,-347.03 75.6964,-346.062 74.503,-345.1"/>
<polygon fill="black" stroke="black" points="76.4581,-342.189 66.3871,-338.899 72.208,-347.752 76.4581,-342.189"/>
</g>
<!-- P53_Mdm2Release_intermediate_p&#45;&gt;p53 -->
<g id="edge82" class="edge"><title>P53_Mdm2Release_intermediate_p&#45;&gt;p53</title>
<path fill="none" stroke="black" d="M489.062,-397.975C490.452,-397.419 515.112,-387.555 537.503,-378.599"/>
<polygon fill="black" stroke="black" points="538.902,-381.809 546.886,-374.845 536.302,-375.31 538.902,-381.809"/>
</g>
<!-- DNAdamage -->
<g id="node85" class="node"><title>DNAdamage</title>
<polygon fill="none" stroke="black" points="452,-52 438,-52 438,-38 452,-38 452,-52"/>
</g>
<!-- DNAdamage_intermediate_p -->
<g id="node88" class="node"><title>DNAdamage_intermediate_p</title>
<ellipse fill="black" stroke="black" cx="489" cy="-45" rx="0.036" ry="0.036"/>
</g>
<!-- DNAdamage&#45;&gt;DNAdamage_intermediate_p -->
<g id="edge88" class="edge"><title>DNAdamage&#45;&gt;DNAdamage_intermediate_p</title>
<path fill="none" stroke="black" d="M452.266,-45C464.372,-45 487.497,-45 488.93,-45"/>
</g>
<!-- DNAdamage_empty -->
<g id="node86" class="node"><title>DNAdamage_empty</title>
<text text-anchor="middle" x="375" y="-40.5" font-family="Times Roman,serif" font-size="15.00" fill="blue">Ø</text>
</g>
<!-- DNAdamage_empty&#45;&gt;DNAdamage -->
<g id="edge86" class="edge"><title>DNAdamage_empty&#45;&gt;DNAdamage</title>
<path fill="none" stroke="black" d="M402.264,-45C415.163,-45 429.537,-45 437.895,-45"/>
</g>
<!-- DNAdamage_intermediate_p&#45;&gt;damDNA -->
<g id="edge90" class="edge"><title>DNAdamage_intermediate_p&#45;&gt;damDNA</title>
<path fill="none" stroke="black" d="M489.062,-44.9804C490.361,-44.5678 511.987,-37.6983 533.089,-30.9951"/>
<polygon fill="black" stroke="black" points="534.202,-34.314 542.674,-27.9507 532.083,-27.6425 534.202,-34.314"/>
</g>
<!-- DNAdamage_intermediate_p&#45;&gt;totdamDNA -->
<g id="edge92" class="edge"><title>DNAdamage_intermediate_p&#45;&gt;totdamDNA</title>
<path fill="none" stroke="black" d="M489.062,-45.0196C490.249,-45.3966 508.404,-51.1636 527.625,-57.2691"/>
<polygon fill="black" stroke="black" points="526.792,-60.6767 537.382,-60.3684 528.911,-54.0051 526.792,-60.6767"/>
</g>
<!-- DNArepair -->
<g id="node92" class="node"><title>DNArepair</title>
<polygon fill="none" stroke="black" points="710,-20 696,-20 696,-6 710,-6 710,-20"/>
</g>
<!-- DNArepair_intermediate_p -->
<g id="node96" class="node"><title>DNArepair_intermediate_p</title>
<ellipse fill="black" stroke="black" cx="939" cy="-95" rx="0.036" ry="0.036"/>
</g>
<!-- DNArepair&#45;&gt;DNArepair_intermediate_p -->
<g id="edge98" class="edge"><title>DNArepair&#45;&gt;DNArepair_intermediate_p</title>
<path fill="none" stroke="black" d="M710.063,-15.4541C748.717,-28.8847 933.11,-92.9533 938.862,-94.9522"/>
</g>
<!-- DNArepair_intermediate_r&#45;&gt;DNArepair -->
<g id="edge94" class="edge"><title>DNArepair_intermediate_r&#45;&gt;DNArepair</title>
<path fill="none" stroke="black" d="M659.126,-14.9943C661.022,-14.9081 683.795,-13.873 695.759,-13.3291"/>
</g>
<!-- DNArepair_intermediate_p&#45;&gt;Sink -->
<g id="edge100" class="edge"><title>DNArepair_intermediate_p&#45;&gt;Sink</title>
<path fill="none" stroke="black" d="M939.134,-95.0747C943.285,-97.3858 1042.79,-152.785 1094.05,-181.327"/>
<polygon fill="black" stroke="black" points="1092.59,-184.519 1103.03,-186.326 1096,-178.403 1092.59,-184.519"/>
</g>
<!-- ARFactivation -->
<g id="node99" class="node"><title>ARFactivation</title>
<polygon fill="none" stroke="black" points="710,-52 696,-52 696,-38 710,-38 710,-52"/>
</g>
<!-- ARFactivation_intermediate_p -->
<g id="node103" class="node"><title>ARFactivation_intermediate_p</title>
<ellipse fill="black" stroke="black" cx="747" cy="-80" rx="0.036" ry="0.036"/>
</g>
<!-- ARFactivation&#45;&gt;ARFactivation_intermediate_p -->
<g id="edge106" class="edge"><title>ARFactivation&#45;&gt;ARFactivation_intermediate_p</title>
<path fill="none" stroke="black" d="M710.266,-50.7795C722.372,-60.4099 745.497,-78.8042 746.93,-79.9444"/>
</g>
<!-- ARFactivation_intermediate_r&#45;&gt;ARFactivation -->
<g id="edge102" class="edge"><title>ARFactivation_intermediate_r&#45;&gt;ARFactivation</title>
<path fill="none" stroke="black" d="M659.126,-38.0201C661.022,-38.3216 683.795,-41.9446 695.759,-43.848"/>
</g>
<!-- ARFactivation_intermediate_p&#45;&gt;ARF -->
<g id="edge110" class="edge"><title>ARFactivation_intermediate_p&#45;&gt;ARF</title>
<path fill="none" stroke="black" d="M747.07,-80.0246C748.738,-80.6156 780.102,-91.7236 806.519,-101.08"/>
<polygon fill="black" stroke="black" points="805.368,-104.385 815.963,-104.424 807.705,-97.7867 805.368,-104.385"/>
</g>
<!-- ARFactivation_intermediate_p&#45;&gt;damDNA -->
<g id="edge108" class="edge"><title>ARFactivation_intermediate_p&#45;&gt;damDNA</title>
<path fill="none" stroke="black" d="M746.932,-79.9757C744.272,-79.0225 663.977,-50.246 613.747,-32.2447"/>
<polygon fill="black" stroke="black" points="614.729,-28.8785 604.134,-28.7996 612.367,-35.4681 614.729,-28.8785"/>
</g>
<!-- ARF_Mdm2Binding -->
<g id="node107" class="node"><title>ARF_Mdm2Binding</title>
<polygon fill="none" stroke="black" points="452,-171 438,-171 438,-157 452,-157 452,-171"/>
</g>
<!-- ARF_Mdm2Binding_intermediate_p -->
<g id="node112" class="node"><title>ARF_Mdm2Binding_intermediate_p</title>
<ellipse fill="black" stroke="black" cx="489" cy="-164" rx="0.036" ry="0.036"/>
</g>
<!-- ARF_Mdm2Binding&#45;&gt;ARF_Mdm2Binding_intermediate_p -->
<g id="edge118" class="edge"><title>ARF_Mdm2Binding&#45;&gt;ARF_Mdm2Binding_intermediate_p</title>
<path fill="none" stroke="black" d="M452.266,-164C464.372,-164 487.497,-164 488.93,-164"/>
</g>
<!-- ARF_Mdm2Binding_intermediate_r&#45;&gt;ARF_Mdm2Binding -->
<g id="edge112" class="edge"><title>ARF_Mdm2Binding_intermediate_r&#45;&gt;ARF_Mdm2Binding</title>
<path fill="none" stroke="black" d="M375.051,-164C376.748,-164 420.582,-164 437.98,-164"/>
</g>
<!-- ARF_Mdm2Binding_intermediate_p&#45;&gt;ARF_Mdm2 -->
<g id="edge120" class="edge"><title>ARF_Mdm2Binding_intermediate_p&#45;&gt;ARF_Mdm2</title>
<path fill="none" stroke="black" d="M489.062,-164C490.252,-164 508.5,-164 527.778,-164"/>
<polygon fill="black" stroke="black" points="527.868,-167.5 537.868,-164 527.868,-160.5 527.868,-167.5"/>
</g>
<!-- ARF_Mdm2Degradation -->
<g id="node115" class="node"><title>ARF_Mdm2Degradation</title>
<polygon fill="none" stroke="black" points="710,-171 696,-171 696,-157 710,-157 710,-171"/>
</g>
<!-- ARF_Mdm2Degradation_intermediate_p -->
<g id="node119" class="node"><title>ARF_Mdm2Degradation_intermediate_p</title>
<ellipse fill="black" stroke="black" cx="747" cy="-164" rx="0.036" ry="0.036"/>
</g>
<!-- ARF_Mdm2Degradation&#45;&gt;ARF_Mdm2Degradation_intermediate_p -->
<g id="edge126" class="edge"><title>ARF_Mdm2Degradation&#45;&gt;ARF_Mdm2Degradation_intermediate_p</title>
<path fill="none" stroke="black" d="M710.266,-164C722.372,-164 745.497,-164 746.93,-164"/>
</g>
<!-- ARF_Mdm2Degradation_intermediate_r&#45;&gt;ARF_Mdm2Degradation -->
<g id="edge122" class="edge"><title>ARF_Mdm2Degradation_intermediate_r&#45;&gt;ARF_Mdm2Degradation</title>
<path fill="none" stroke="black" d="M659.126,-164C661.022,-164 683.795,-164 695.759,-164"/>
</g>
<!-- ARF_Mdm2Degradation_intermediate_p&#45;&gt;ARF -->
<g id="edge128" class="edge"><title>ARF_Mdm2Degradation_intermediate_p&#45;&gt;ARF</title>
<path fill="none" stroke="black" d="M747.058,-163.96C748.243,-163.139 767.473,-149.872 784,-141 791.188,-137.141 799.031,-133.305 806.583,-129.787"/>
<polygon fill="black" stroke="black" points="808.278,-132.861 815.922,-125.524 805.371,-126.493 808.278,-132.861"/>
</g>
<!-- ARF_Mdm2Degradation_intermediate_p&#45;&gt;mdm2deg -->
<g id="edge130" class="edge"><title>ARF_Mdm2Degradation_intermediate_p&#45;&gt;mdm2deg</title>
<path fill="none" stroke="black" d="M747.07,-164.003C748.443,-164.06 769.94,-164.956 792.235,-165.885"/>
<polygon fill="black" stroke="black" points="792.329,-169.392 802.466,-166.311 792.62,-162.398 792.329,-169.392"/>
</g>
<!-- ARFDegradation -->
<g id="node123" class="node"><title>ARFDegradation</title>
<polygon fill="none" stroke="black" points="990,-179 976,-179 976,-165 990,-165 990,-179"/>
</g>
<!-- ARFDegradation_intermediate_p -->
<g id="node127" class="node"><title>ARFDegradation_intermediate_p</title>
<ellipse fill="black" stroke="black" cx="1027" cy="-183" rx="0.036" ry="0.036"/>
</g>
<!-- ARFDegradation&#45;&gt;ARFDegradation_intermediate_p -->
<g id="edge136" class="edge"><title>ARFDegradation&#45;&gt;ARFDegradation_intermediate_p</title>
<path fill="none" stroke="black" d="M990.266,-173.816C1002.37,-176.843 1025.5,-182.624 1026.93,-182.983"/>
</g>
<!-- ARFDegradation_intermediate_r&#45;&gt;ARFDegradation -->
<g id="edge132" class="edge"><title>ARFDegradation_intermediate_r&#45;&gt;ARFDegradation</title>
<path fill="none" stroke="black" d="M939.126,-121.146C941.082,-123.413 965.269,-151.449 976.87,-164.895"/>
</g>
<!-- ARFDegradation_intermediate_p&#45;&gt;Sink -->
<g id="edge138" class="edge"><title>ARFDegradation_intermediate_p&#45;&gt;Sink</title>
<path fill="none" stroke="black" d="M1027.07,-183.011C1028.77,-183.274 1060.94,-188.248 1087.75,-192.395"/>
<polygon fill="black" stroke="black" points="1087.28,-195.863 1097.69,-193.932 1088.35,-188.945 1087.28,-195.863"/>
</g>
</g>
</svg>
