<?xml version="1.0" encoding="UTF-8" standalone="no"?>
<!DOCTYPE svg PUBLIC "-//W3C//DTD SVG 1.1//EN"
 "http://www.w3.org/Graphics/SVG/1.1/DTD/svg11.dtd">
<!-- Generated by graphviz version 2.24.0 (20090616.2323)
 -->
<!-- Title: G Pages: 1 -->
<svg width="3584pt" height="608pt"
 viewBox="0.00 0.00 3584.00 608.00" xmlns="http://www.w3.org/2000/svg" xmlns:xlink="http://www.w3.org/1999/xlink">
<g id="graph1" class="graph" transform="scale(1 1) rotate(0) translate(4 604)">
<title>G</title>
<polygon fill="white" stroke="white" points="-4,5 -4,-604 3581,-604 3581,5 -4,5"/>
<!-- GlcI -->
<g id="node1" class="node"><title>GlcI</title>
<ellipse fill="none" stroke="black" cx="319" cy="-38" rx="33.9733" ry="18"/>
<text text-anchor="middle" x="319" y="-35.5" font-family="Times Roman,serif" font-size="10.00">Glucose</text>
</g>
<!-- vHK_intermediate_r -->
<g id="node36" class="node"><title>vHK_intermediate_r</title>
<ellipse fill="black" stroke="black" cx="390" cy="-38" rx="0.036" ry="0.036"/>
</g>
<!-- GlcI&#45;&gt;vHK_intermediate_r -->
<g id="edge14" class="edge"><title>GlcI&#45;&gt;vHK_intermediate_r</title>
<path fill="none" stroke="black" d="M353.668,-38C371.128,-38 388.856,-38 389.947,-38"/>
</g>
<!-- Pg -->
<g id="node2" class="node"><title>Pg</title>
<ellipse fill="none" stroke="black" cx="3076" cy="-55" rx="88.7615" ry="18"/>
<text text-anchor="middle" x="3076" y="-52.5" font-family="Times Roman,serif" font-size="10.00">Phosphates in Glycosome</text>
</g>
<!-- Pg&#45;&gt;vHK_intermediate_r -->
<g id="edge12" class="edge"><title>Pg&#45;&gt;vHK_intermediate_r</title>
<path fill="none" stroke="black" d="M3039.81,-38.4982C3000.92,-22.2976 2936.88,-0 2879,-0 477,-0 477,-0 477,-0 436.124,-0 392.798,-35.6621 390.13,-37.891"/>
</g>
<!-- vPFK_intermediate_r -->
<g id="node55" class="node"><title>vPFK_intermediate_r</title>
<ellipse fill="black" stroke="black" cx="1021" cy="-61" rx="0.036" ry="0.036"/>
</g>
<!-- Pg&#45;&gt;vPFK_intermediate_r -->
<g id="edge36" class="edge"><title>Pg&#45;&gt;vPFK_intermediate_r</title>
<path fill="none" stroke="black" d="M2999.89,-45.3576C2963.38,-41.5206 2918.99,-38 2879,-38 1109,-38 1109,-38 1109,-38 1069.84,-38 1023.97,-59.585 1021.14,-60.934"/>
</g>
<!-- Glc6P -->
<g id="node3" class="node"><title>Glc6P</title>
<ellipse fill="none" stroke="black" cx="590" cy="-61" rx="75.2158" ry="18"/>
<text text-anchor="middle" x="590" y="-58.5" font-family="Times Roman,serif" font-size="10.00">Glucose 6&#45;phosphate</text>
</g>
<!-- vPGI_intermediate_r -->
<g id="node48" class="node"><title>vPGI_intermediate_r</title>
<ellipse fill="black" stroke="black" cx="703" cy="-61" rx="0.036" ry="0.036"/>
</g>
<!-- Glc6P&#45;&gt;vPGI_intermediate_r -->
<g id="edge28" class="edge"><title>Glc6P&#45;&gt;vPGI_intermediate_r</title>
<path fill="none" stroke="black" d="M676.018,-61C690.999,-61 702.13,-61 702.951,-61"/>
<polygon fill="black" stroke="black" points="675.686,-57.5001 665.686,-61 675.686,-64.5001 675.686,-57.5001"/>
</g>
<!-- Fru6P -->
<g id="node4" class="node"><title>Fru6P</title>
<ellipse fill="none" stroke="black" cx="906" cy="-61" rx="78.1796" ry="18"/>
<text text-anchor="middle" x="906" y="-58.5" font-family="Times Roman,serif" font-size="10.00">Fructose 6&#45;phosphate</text>
</g>
<!-- Fru6P&#45;&gt;vPFK_intermediate_r -->
<g id="edge38" class="edge"><title>Fru6P&#45;&gt;vPFK_intermediate_r</title>
<path fill="none" stroke="black" d="M984.297,-61C1004.02,-61 1019.97,-61 1020.95,-61"/>
</g>
<!-- Fru16BP -->
<g id="node5" class="node"><title>Fru16BP</title>
<ellipse fill="none" stroke="black" cx="1239" cy="-309" rx="91.8389" ry="18"/>
<text text-anchor="middle" x="1239" y="-306.5" font-family="Times Roman,serif" font-size="10.00">Fructose 1,6&#45;bisphosphate</text>
</g>
<!-- vALD_intermediate_r -->
<g id="node66" class="node"><title>vALD_intermediate_r</title>
<ellipse fill="black" stroke="black" cx="1369" cy="-315" rx="0.036" ry="0.036"/>
</g>
<!-- Fru16BP&#45;&gt;vALD_intermediate_r -->
<g id="edge50" class="edge"><title>Fru16BP&#45;&gt;vALD_intermediate_r</title>
<path fill="none" stroke="black" d="M1339.46,-313.637C1355.96,-314.398 1368.07,-314.957 1368.95,-314.998"/>
<polygon fill="black" stroke="black" points="1339.44,-310.132 1329.29,-313.167 1339.12,-317.125 1339.44,-310.132"/>
</g>
<!-- DHAP -->
<g id="node6" class="node"><title>DHAP</title>
<ellipse fill="none" stroke="black" cx="1596" cy="-504" rx="101.072" ry="18"/>
<text text-anchor="middle" x="1596" y="-501.5" font-family="Times Roman,serif" font-size="10.00">Dihydroxyacetone phosphate</text>
</g>
<!-- vTPI_intermediate_r -->
<g id="node79" class="node"><title>vTPI_intermediate_r</title>
<ellipse fill="black" stroke="black" cx="1735" cy="-482" rx="0.036" ry="0.036"/>
</g>
<!-- DHAP&#45;&gt;vTPI_intermediate_r -->
<g id="edge68" class="edge"><title>DHAP&#45;&gt;vTPI_intermediate_r</title>
<path fill="none" stroke="black" d="M1682.22,-490.353C1709.6,-486.021 1733.29,-482.271 1734.91,-482.014"/>
<polygon fill="black" stroke="black" points="1681.34,-486.95 1672.01,-491.97 1682.43,-493.864 1681.34,-486.95"/>
</g>
<!-- vGDH_intermediate_r -->
<g id="node98" class="node"><title>vGDH_intermediate_r</title>
<ellipse fill="black" stroke="black" cx="2429" cy="-473" rx="0.036" ry="0.036"/>
</g>
<!-- DHAP&#45;&gt;vGDH_intermediate_r -->
<g id="edge92" class="edge"><title>DHAP&#45;&gt;vGDH_intermediate_r</title>
<path fill="none" stroke="black" d="M1676.69,-518.55C1708.46,-523.122 1745.34,-527 1779,-527 1779,-527 1779,-527 2095,-527 2227.76,-527 2266.05,-537 2392,-495 2409.58,-489.137 2427.82,-473.987 2428.95,-473.046"/>
<polygon fill="black" stroke="black" points="1676.97,-515.053 1666.57,-517.046 1675.94,-521.977 1676.97,-515.053"/>
</g>
<!-- GAP -->
<g id="node7" class="node"><title>GAP</title>
<ellipse fill="none" stroke="black" cx="1959" cy="-465" rx="99.1095" ry="18"/>
<text text-anchor="middle" x="1959" y="-462.5" font-family="Times Roman,serif" font-size="10.00">Glyceraldehyde 3&#45;phosphate</text>
</g>
<!-- vGAPdh_intermediate_r -->
<g id="node89" class="node"><title>vGAPdh_intermediate_r</title>
<ellipse fill="black" stroke="black" cx="2095" cy="-465" rx="0.036" ry="0.036"/>
</g>
<!-- GAP&#45;&gt;vGAPdh_intermediate_r -->
<g id="edge80" class="edge"><title>GAP&#45;&gt;vGAPdh_intermediate_r</title>
<path fill="none" stroke="black" d="M2068.6,-465C2083.57,-465 2094.17,-465 2094.95,-465"/>
<polygon fill="black" stroke="black" points="2068.2,-461.5 2058.2,-465 2068.2,-468.5 2068.2,-461.5"/>
</g>
<!-- NAD -->
<g id="node8" class="node"><title>NAD</title>
<ellipse fill="none" stroke="black" cx="2696" cy="-516" rx="18" ry="18"/>
<text text-anchor="middle" x="2696" y="-513.5" font-family="Times Roman,serif" font-size="10.00">NAD</text>
</g>
<!-- NAD&#45;&gt;vGAPdh_intermediate_r -->
<g id="edge82" class="edge"><title>NAD&#45;&gt;vGAPdh_intermediate_r</title>
<path fill="none" stroke="black" d="M2668.77,-523.86C2620.77,-537 2517.77,-562 2429,-562 2306,-562 2306,-562 2306,-562 2204.4,-562 2098.37,-468.008 2095.08,-465.07"/>
<polygon fill="black" stroke="black" points="2669.99,-527.153 2678.68,-521.099 2668.11,-520.41 2669.99,-527.153"/>
</g>
<!-- BPGA13 -->
<g id="node9" class="node"><title>BPGA13</title>
<ellipse fill="none" stroke="black" cx="2306" cy="-373" rx="85.0662" ry="18"/>
<text text-anchor="middle" x="2306" y="-370.5" font-family="Times Roman,serif" font-size="10.00">1,3&#45;bisphosphoglycerate</text>
</g>
<!-- vPGK_intermediate_r -->
<g id="node128" class="node"><title>vPGK_intermediate_r</title>
<ellipse fill="black" stroke="black" cx="2429" cy="-296" rx="0.036" ry="0.036"/>
</g>
<!-- BPGA13&#45;&gt;vPGK_intermediate_r -->
<g id="edge130" class="edge"><title>BPGA13&#45;&gt;vPGK_intermediate_r</title>
<path fill="none" stroke="black" d="M2342.03,-350.443C2377.71,-328.105 2427.29,-297.071 2428.96,-296.027"/>
<polygon fill="black" stroke="black" points="2339.92,-347.638 2333.3,-355.911 2343.63,-353.572 2339.92,-347.638"/>
</g>
<!-- NADH -->
<g id="node10" class="node"><title>NADH</title>
<ellipse fill="none" stroke="black" cx="2306" cy="-468" rx="18" ry="18"/>
<text text-anchor="middle" x="2306" y="-465.5" font-family="Times Roman,serif" font-size="10.00">NADH</text>
</g>
<!-- NADH&#45;&gt;vGDH_intermediate_r -->
<g id="edge94" class="edge"><title>NADH&#45;&gt;vGDH_intermediate_r</title>
<path fill="none" stroke="black" d="M2334.47,-469.157C2370.17,-470.609 2427,-472.919 2428.95,-472.998"/>
<polygon fill="black" stroke="black" points="2334.28,-465.647 2324.15,-468.738 2334,-472.641 2334.28,-465.647"/>
</g>
<!-- Pyr -->
<g id="node11" class="node"><title>Pyr</title>
<ellipse fill="none" stroke="black" cx="3076" cy="-295" rx="38.782" ry="18"/>
<text text-anchor="middle" x="3076" y="-292.5" font-family="Times Roman,serif" font-size="10.00">Pyruvate</text>
</g>
<!-- vPyrTr_intermediate_r -->
<g id="node121" class="node"><title>vPyrTr_intermediate_r</title>
<ellipse fill="black" stroke="black" cx="3203" cy="-306" rx="0.036" ry="0.036"/>
</g>
<!-- Pyr&#45;&gt;vPyrTr_intermediate_r -->
<g id="edge122" class="edge"><title>Pyr&#45;&gt;vPyrTr_intermediate_r</title>
<path fill="none" stroke="black" d="M3114.45,-298.33C3150.66,-301.467 3199.82,-305.724 3202.85,-305.987"/>
</g>
<!-- Nb -->
<g id="node12" class="node"><title>Nb</title>
<ellipse fill="none" stroke="black" cx="2696" cy="-122" rx="64.1356" ry="18"/>
<text text-anchor="middle" x="2696" y="-119.5" font-family="Times Roman,serif" font-size="10.00">3&#45;PGA 2&#45;PGA PEP</text>
</g>
<!-- vPK_intermediate_r -->
<g id="node141" class="node"><title>vPK_intermediate_r</title>
<ellipse fill="black" stroke="black" cx="2809" cy="-122" rx="0.036" ry="0.036"/>
</g>
<!-- Nb&#45;&gt;vPK_intermediate_r -->
<g id="edge148" class="edge"><title>Nb&#45;&gt;vPK_intermediate_r</title>
<path fill="none" stroke="black" d="M2760.75,-122C2785.21,-122 2807.56,-122 2808.93,-122"/>
</g>
<!-- Pc -->
<g id="node13" class="node"><title>Pc</title>
<ellipse fill="none" stroke="black" cx="3076" cy="-349" rx="70.7925" ry="18"/>
<text text-anchor="middle" x="3076" y="-346.5" font-family="Times Roman,serif" font-size="10.00">Phosphates cytosol</text>
</g>
<!-- vATPase_intermediate_r -->
<g id="node154" class="node"><title>vATPase_intermediate_r</title>
<ellipse fill="black" stroke="black" cx="3203" cy="-349" rx="0.036" ry="0.036"/>
</g>
<!-- Pc&#45;&gt;vATPase_intermediate_r -->
<g id="edge166" class="edge"><title>Pc&#45;&gt;vATPase_intermediate_r</title>
<path fill="none" stroke="black" d="M3147.3,-349C3175.34,-349 3201.33,-349 3202.92,-349"/>
</g>
<!-- PyrE -->
<g id="node14" class="node"><title>PyrE</title>
<ellipse fill="none" stroke="black" cx="3509" cy="-314" rx="65.9835" ry="18"/>
<text text-anchor="middle" x="3509" y="-311.5" font-family="Times Roman,serif" font-size="10.00">Pyruvate external</text>
</g>
<!-- Gly -->
<g id="node15" class="node"><title>Gly</title>
<ellipse fill="none" stroke="black" cx="3076" cy="-437" rx="35.0885" ry="18"/>
<text text-anchor="middle" x="3076" y="-434.5" font-family="Times Roman,serif" font-size="10.00">Glycerol</text>
</g>
<!-- GlcE -->
<g id="node16" class="node"><title>GlcE</title>
<ellipse fill="none" stroke="black" cx="63" cy="-38" rx="62.7899" ry="18"/>
<text text-anchor="middle" x="63" y="-35.5" font-family="Times Roman,serif" font-size="10.00">Glucose external</text>
</g>
<!-- vGlcTr_intermediate_r -->
<g id="node29" class="node"><title>vGlcTr_intermediate_r</title>
<ellipse fill="black" stroke="black" cx="162" cy="-38" rx="0.036" ry="0.036"/>
</g>
<!-- GlcE&#45;&gt;vGlcTr_intermediate_r -->
<g id="edge4" class="edge"><title>GlcE&#45;&gt;vGlcTr_intermediate_r</title>
<path fill="none" stroke="black" d="M136.449,-38C150.5,-38 161.159,-38 161.953,-38"/>
<polygon fill="black" stroke="black" points="136.259,-34.5001 126.259,-38 136.259,-41.5001 136.259,-34.5001"/>
</g>
<!-- Gly3P -->
<g id="node17" class="node"><title>Gly3P</title>
<ellipse fill="none" stroke="black" cx="2696" cy="-462" rx="75.2158" ry="18"/>
<text text-anchor="middle" x="2696" y="-459.5" font-family="Times Roman,serif" font-size="10.00">Glycerol 3&#45;phosphate</text>
</g>
<!-- vGPO_intermediate_r -->
<g id="node111" class="node"><title>vGPO_intermediate_r</title>
<ellipse fill="black" stroke="black" cx="2809" cy="-523" rx="0.036" ry="0.036"/>
</g>
<!-- Gly3P&#45;&gt;vGPO_intermediate_r -->
<g id="edge110" class="edge"><title>Gly3P&#45;&gt;vGPO_intermediate_r</title>
<path fill="none" stroke="black" d="M2744.36,-475.883C2753.85,-479.508 2763.48,-483.869 2772,-489 2790.53,-500.165 2807.88,-521.606 2808.95,-522.935"/>
</g>
<!-- vGlyK_intermediate_r -->
<g id="node164" class="node"><title>vGlyK_intermediate_r</title>
<ellipse fill="black" stroke="black" cx="2809" cy="-468" rx="0.036" ry="0.036"/>
</g>
<!-- Gly3P&#45;&gt;vGlyK_intermediate_r -->
<g id="edge178" class="edge"><title>Gly3P&#45;&gt;vGlyK_intermediate_r</title>
<path fill="none" stroke="black" d="M2780.13,-466.467C2796.04,-467.312 2808.07,-467.951 2808.95,-467.997"/>
<polygon fill="black" stroke="black" points="2779.97,-462.954 2769.8,-465.918 2779.6,-469.944 2779.97,-462.954"/>
</g>
<!-- ATPc -->
<g id="node18" class="node"><title>ATPc</title>
<ellipse fill="none" stroke="black" cx="3278" cy="-272" rx="35.2012" ry="18"/>
<text text-anchor="middle" x="3278" y="-269.5" font-family="Times Roman,serif" font-size="10.00">ATP cyt.</text>
</g>
<!-- vPK_intermediate_m -->
<g id="node148" class="node"><title>vPK_intermediate_m</title>
<ellipse fill="black" stroke="black" cx="3379" cy="-191" rx="0.036" ry="0.036"/>
</g>
<!-- ATPc&#45;&gt;vPK_intermediate_m -->
<g id="edge162" class="edge"><title>ATPc&#45;&gt;vPK_intermediate_m</title>
<path fill="none" stroke="black" d="M3299.16,-257.481C3304.71,-253.531 3310.64,-249.185 3316,-245 3344.15,-223.006 3376.88,-192.948 3378.9,-191.09"/>
</g>
<!-- vATPase_intermediate_m -->
<g id="node159" class="node"><title>vATPase_intermediate_m</title>
<ellipse fill="black" stroke="black" cx="3379" cy="-272" rx="0.036" ry="0.036"/>
</g>
<!-- ATPc&#45;&gt;vATPase_intermediate_m -->
<g id="edge172" class="edge"><title>ATPc&#45;&gt;vATPase_intermediate_m</title>
<path fill="none" stroke="black" d="M3313.61,-272C3341.78,-272 3376.74,-272 3378.89,-272"/>
</g>
<!-- ADPc -->
<g id="node19" class="node"><title>ADPc</title>
<ellipse fill="none" stroke="black" cx="3278" cy="-218" rx="37.0501" ry="18"/>
<text text-anchor="middle" x="3278" y="-215.5" font-family="Times Roman,serif" font-size="10.00">ADP cyt.</text>
</g>
<!-- ADPc&#45;&gt;vPK_intermediate_m -->
<g id="edge160" class="edge"><title>ADPc&#45;&gt;vPK_intermediate_m</title>
<path fill="none" stroke="black" d="M3310.79,-209.234C3339.36,-201.596 3376.59,-191.644 3378.89,-191.03"/>
</g>
<!-- ADPc&#45;&gt;vATPase_intermediate_m -->
<g id="edge174" class="edge"><title>ADPc&#45;&gt;vATPase_intermediate_m</title>
<path fill="none" stroke="black" d="M3303.23,-231.487C3332.21,-246.982 3376.15,-270.476 3378.87,-271.929"/>
</g>
<!-- ATPg -->
<g id="node20" class="node"><title>ATPg</title>
<ellipse fill="none" stroke="black" cx="2506" cy="-208" rx="33.2417" ry="18"/>
<text text-anchor="middle" x="2506" y="-205.5" font-family="Times Roman,serif" font-size="10.00">ATP gly.</text>
</g>
<!-- vHK_intermediate_m -->
<g id="node43" class="node"><title>vHK_intermediate_m</title>
<ellipse fill="black" stroke="black" cx="2583" cy="-254" rx="0.036" ry="0.036"/>
</g>
<!-- ATPg&#45;&gt;vHK_intermediate_m -->
<g id="edge22" class="edge"><title>ATPg&#45;&gt;vHK_intermediate_m</title>
<path fill="none" stroke="black" d="M2528.27,-221.305C2550.3,-234.466 2581.01,-252.811 2582.91,-253.945"/>
</g>
<!-- vPFK_intermediate_m -->
<g id="node62" class="node"><title>vPFK_intermediate_m</title>
<ellipse fill="black" stroke="black" cx="2583" cy="-146" rx="0.036" ry="0.036"/>
</g>
<!-- ATPg&#45;&gt;vPFK_intermediate_m -->
<g id="edge46" class="edge"><title>ATPg&#45;&gt;vPFK_intermediate_m</title>
<path fill="none" stroke="black" d="M2527.64,-194.336C2533.72,-190.243 2540.25,-185.611 2546,-181 2563.11,-167.285 2581.79,-147.296 2582.94,-146.06"/>
</g>
<!-- vALD_intermediate_m -->
<g id="node73" class="node"><title>vALD_intermediate_m</title>
<ellipse fill="black" stroke="black" cx="2583" cy="-341" rx="0.036" ry="0.036"/>
</g>
<!-- ATPg&#45;&gt;vALD_intermediate_m -->
<g id="edge62" class="edge"><title>ATPg&#45;&gt;vALD_intermediate_m</title>
<path fill="none" stroke="black" d="M2516.95,-225.229C2525.14,-238.243 2536.5,-256.604 2546,-273 2562.71,-301.843 2581.77,-338.619 2582.94,-340.889"/>
</g>
<!-- vPGK_intermediate_m -->
<g id="node135" class="node"><title>vPGK_intermediate_m</title>
<ellipse fill="black" stroke="black" cx="2583" cy="-167" rx="0.036" ry="0.036"/>
</g>
<!-- ATPg&#45;&gt;vPGK_intermediate_m -->
<g id="edge142" class="edge"><title>ATPg&#45;&gt;vPGK_intermediate_m</title>
<path fill="none" stroke="black" d="M2529.94,-195.252C2551.84,-183.593 2581.1,-168.009 2582.91,-167.047"/>
</g>
<!-- vGlyK_intermediate_m -->
<g id="node171" class="node"><title>vGlyK_intermediate_m</title>
<ellipse fill="black" stroke="black" cx="2949" cy="-383" rx="0.036" ry="0.036"/>
</g>
<!-- ATPg&#45;&gt;vGlyK_intermediate_m -->
<g id="edge192" class="edge"><title>ATPg&#45;&gt;vGlyK_intermediate_m</title>
<path fill="none" stroke="black" d="M2538.93,-210.507C2576.8,-213.17 2640.85,-217 2696,-217 2696,-217 2696,-217 2809,-217 2904.01,-217 2947.63,-377.853 2948.97,-382.88"/>
</g>
<!-- ADPg -->
<g id="node21" class="node"><title>ADPg</title>
<ellipse fill="none" stroke="black" cx="2506" cy="-300" rx="35.0885" ry="18"/>
<text text-anchor="middle" x="2506" y="-297.5" font-family="Times Roman,serif" font-size="10.00">ADP gly.</text>
</g>
<!-- ADPg&#45;&gt;vHK_intermediate_m -->
<g id="edge24" class="edge"><title>ADPg&#45;&gt;vHK_intermediate_m</title>
<path fill="none" stroke="black" d="M2529.1,-286.198C2551.07,-273.072 2581.06,-255.161 2582.91,-254.054"/>
</g>
<!-- ADPg&#45;&gt;vALD_intermediate_m -->
<g id="edge64" class="edge"><title>ADPg&#45;&gt;vALD_intermediate_m</title>
<path fill="none" stroke="black" d="M2530.36,-312.973C2552.22,-324.609 2581.13,-340.003 2582.91,-340.954"/>
</g>
<!-- ADPg&#45;&gt;vPGK_intermediate_m -->
<g id="edge140" class="edge"><title>ADPg&#45;&gt;vPGK_intermediate_m</title>
<path fill="none" stroke="black" d="M2516.95,-282.771C2525.14,-269.757 2536.5,-251.396 2546,-235 2562.71,-206.157 2581.77,-169.381 2582.94,-167.111"/>
</g>
<!-- ADPg&#45;&gt;vGlyK_intermediate_m -->
<g id="edge188" class="edge"><title>ADPg&#45;&gt;vGlyK_intermediate_m</title>
<path fill="none" stroke="black" d="M2541.01,-301.178C2579.13,-302.358 2641.89,-304 2696,-304 2696,-304 2696,-304 2809,-304 2879.33,-304 2946.86,-380.551 2948.95,-382.943"/>
</g>
<!-- DHAPg -->
<g id="node22" class="node"><title>DHAPg</title>
<ellipse fill="none" stroke="black" cx="2506" cy="-430" rx="38.8989" ry="18"/>
<text text-anchor="middle" x="2506" y="-427.5" font-family="Times Roman,serif" font-size="10.00">DHAP gly.</text>
</g>
<!-- DHAPg&#45;&gt;vALD_intermediate_m -->
<g id="edge60" class="edge"><title>DHAPg&#45;&gt;vALD_intermediate_m</title>
<path fill="none" stroke="black" d="M2520.85,-412.84C2542.52,-387.786 2580.53,-343.854 2582.89,-341.133"/>
</g>
<!-- vTPI_intermediate_m -->
<g id="node85" class="node"><title>vTPI_intermediate_m</title>
<ellipse fill="black" stroke="black" cx="2583" cy="-407" rx="0.036" ry="0.036"/>
</g>
<!-- DHAPg&#45;&gt;vTPI_intermediate_m -->
<g id="edge76" class="edge"><title>DHAPg&#45;&gt;vTPI_intermediate_m</title>
<path fill="none" stroke="black" d="M2539.1,-420.112C2559.32,-414.073 2581.56,-407.429 2582.93,-407.02"/>
</g>
<!-- vGDH_intermediate_m -->
<g id="node106" class="node"><title>vGDH_intermediate_m</title>
<ellipse fill="black" stroke="black" cx="2583" cy="-464" rx="0.036" ry="0.036"/>
</g>
<!-- DHAPg&#45;&gt;vGDH_intermediate_m -->
<g id="edge104" class="edge"><title>DHAPg&#45;&gt;vGDH_intermediate_m</title>
<path fill="none" stroke="black" d="M2534.67,-442.66C2555.88,-452.025 2581.35,-463.272 2582.92,-463.966"/>
</g>
<!-- DHAPc -->
<g id="node23" class="node"><title>DHAPc</title>
<ellipse fill="none" stroke="black" cx="63" cy="-92" rx="41.9758" ry="18"/>
<text text-anchor="middle" x="63" y="-89.5" font-family="Times Roman,serif" font-size="10.00">DHAP cyt.</text>
</g>
<!-- Gly3Pc -->
<g id="node24" class="node"><title>Gly3Pc</title>
<ellipse fill="none" stroke="black" cx="2879" cy="-517" rx="33.2417" ry="18"/>
<text text-anchor="middle" x="2879" y="-514.5" font-family="Times Roman,serif" font-size="10.00">Gy3P c.</text>
</g>
<!-- vGPO_intermediate_m -->
<g id="node117" class="node"><title>vGPO_intermediate_m</title>
<ellipse fill="black" stroke="black" cx="2949" cy="-538" rx="0.036" ry="0.036"/>
</g>
<!-- Gly3Pc&#45;&gt;vGPO_intermediate_m -->
<g id="edge118" class="edge"><title>Gly3Pc&#45;&gt;vGPO_intermediate_m</title>
<path fill="none" stroke="black" d="M2908.28,-525.784C2926.86,-531.359 2947.66,-537.597 2948.94,-537.981"/>
</g>
<!-- Gly3Pg -->
<g id="node25" class="node"><title>Gly3Pg</title>
<ellipse fill="none" stroke="black" cx="2506" cy="-516" rx="33.2417" ry="18"/>
<text text-anchor="middle" x="2506" y="-513.5" font-family="Times Roman,serif" font-size="10.00">Gy3P g.</text>
</g>
<!-- Gly3Pg&#45;&gt;vGDH_intermediate_m -->
<g id="edge106" class="edge"><title>Gly3Pg&#45;&gt;vGDH_intermediate_m</title>
<path fill="none" stroke="black" d="M2527.04,-501.791C2549.13,-486.876 2580.94,-465.393 2582.9,-464.065"/>
</g>
<!-- Gly3Pg&#45;&gt;vGlyK_intermediate_m -->
<g id="edge190" class="edge"><title>Gly3Pg&#45;&gt;vGlyK_intermediate_m</title>
<path fill="none" stroke="black" d="M2530.85,-528.181C2581.06,-550.865 2696.24,-592.955 2772,-543 2805.91,-520.64 2780.59,-488.977 2808,-459 2855.29,-407.281 2946.11,-383.74 2948.93,-383.017"/>
</g>
<!-- PGAg -->
<g id="node26" class="node"><title>PGAg</title>
<ellipse fill="none" stroke="black" cx="2506" cy="-154" rx="36.9352" ry="18"/>
<text text-anchor="middle" x="2506" y="-151.5" font-family="Times Roman,serif" font-size="10.00">3&#45;PGA g.</text>
</g>
<!-- PGAg&#45;&gt;vPGK_intermediate_m -->
<g id="edge144" class="edge"><title>PGAg&#45;&gt;vPGK_intermediate_m</title>
<path fill="none" stroke="black" d="M2541.34,-159.967C2560.95,-163.278 2581.66,-166.774 2582.94,-166.99"/>
</g>
<!-- PEPc -->
<g id="node27" class="node"><title>PEPc</title>
<ellipse fill="none" stroke="black" cx="3278" cy="-164" rx="29.0474" ry="18"/>
<text text-anchor="middle" x="3278" y="-161.5" font-family="Times Roman,serif" font-size="10.00">PEP c.</text>
</g>
<!-- PEPc&#45;&gt;vPK_intermediate_m -->
<g id="edge158" class="edge"><title>PEPc&#45;&gt;vPK_intermediate_m</title>
<path fill="none" stroke="black" d="M3305.07,-171.236C3334.05,-178.983 3376.26,-190.268 3378.87,-190.966"/>
</g>
<!-- vGlcTr -->
<g id="node28" class="node"><title>vGlcTr</title>
<polygon fill="none" stroke="black" points="212,-45 198,-45 198,-31 212,-31 212,-45"/>
</g>
<!-- vGlcTr_intermediate_p -->
<g id="node32" class="node"><title>vGlcTr_intermediate_p</title>
<ellipse fill="black" stroke="black" cx="248" cy="-38" rx="0.036" ry="0.036"/>
</g>
<!-- vGlcTr&#45;&gt;vGlcTr_intermediate_p -->
<g id="edge6" class="edge"><title>vGlcTr&#45;&gt;vGlcTr_intermediate_p</title>
<path fill="none" stroke="black" d="M212.101,-38C223.932,-38 246.531,-38 247.932,-38"/>
</g>
<!-- vGlcTr_intermediate_r&#45;&gt;vGlcTr -->
<g id="edge2" class="edge"><title>vGlcTr_intermediate_r&#45;&gt;vGlcTr</title>
<path fill="none" stroke="black" d="M162.123,-38C163.976,-38 186.231,-38 197.924,-38"/>
</g>
<!-- vGlcTr_intermediate_p&#45;&gt;GlcI -->
<g id="edge8" class="edge"><title>vGlcTr_intermediate_p&#45;&gt;GlcI</title>
<path fill="none" stroke="black" d="M248.051,-38C248.916,-38 260.571,-38 274.192,-38"/>
<polygon fill="black" stroke="black" points="274.332,-41.5001 284.332,-38 274.332,-34.5001 274.332,-41.5001"/>
</g>
<!-- vHK -->
<g id="node35" class="node"><title>vHK</title>
<polygon fill="none" stroke="black" points="440,-68 426,-68 426,-54 440,-54 440,-68"/>
</g>
<!-- vHK_intermediate_p -->
<g id="node40" class="node"><title>vHK_intermediate_p</title>
<ellipse fill="black" stroke="black" cx="477" cy="-61" rx="0.036" ry="0.036"/>
</g>
<!-- vHK&#45;&gt;vHK_intermediate_p -->
<g id="edge16" class="edge"><title>vHK&#45;&gt;vHK_intermediate_p</title>
<path fill="none" stroke="black" d="M440.266,-61C452.372,-61 475.497,-61 476.93,-61"/>
</g>
<!-- vHK&#45;&gt;vHK_intermediate_m -->
<g id="edge20" class="edge"><title>vHK&#45;&gt;vHK_intermediate_m</title>
<path fill="none" stroke="black" d="M438.415,-80.1141C453.519,-128.862 500.963,-254 590,-254 590,-254 590,-254 2429,-254 2496.38,-254 2580.33,-254 2582.94,-254"/>
<polygon fill="none" stroke="black" points="438.334,-79.8405 432.801,-75.2164 434.941,-68.3302 440.475,-72.9543 438.334,-79.8405"/>
</g>
<!-- vHK_intermediate_r&#45;&gt;vHK -->
<g id="edge10" class="edge"><title>vHK_intermediate_r&#45;&gt;vHK</title>
<path fill="none" stroke="black" d="M390.123,-38.066C391.976,-39.0567 414.231,-50.9608 425.924,-57.2149"/>
</g>
<!-- vHK_intermediate_p&#45;&gt;Glc6P -->
<g id="edge18" class="edge"><title>vHK_intermediate_p&#45;&gt;Glc6P</title>
<path fill="none" stroke="black" d="M477.082,-61C478.134,-61 489.225,-61 504.078,-61"/>
<polygon fill="black" stroke="black" points="504.314,-64.5001 514.314,-61 504.314,-57.5001 504.314,-64.5001"/>
</g>
<!-- vPGI -->
<g id="node47" class="node"><title>vPGI</title>
<polygon fill="none" stroke="black" points="754,-68 740,-68 740,-54 754,-54 754,-68"/>
</g>
<!-- vPGI_intermediate_p -->
<g id="node51" class="node"><title>vPGI_intermediate_p</title>
<ellipse fill="black" stroke="black" cx="791" cy="-61" rx="0.036" ry="0.036"/>
</g>
<!-- vPGI&#45;&gt;vPGI_intermediate_p -->
<g id="edge30" class="edge"><title>vPGI&#45;&gt;vPGI_intermediate_p</title>
<path fill="none" stroke="black" d="M754.266,-61C766.372,-61 789.497,-61 790.93,-61"/>
</g>
<!-- vPGI_intermediate_r&#45;&gt;vPGI -->
<g id="edge26" class="edge"><title>vPGI_intermediate_r&#45;&gt;vPGI</title>
<path fill="none" stroke="black" d="M703.126,-61C705.022,-61 727.795,-61 739.759,-61"/>
</g>
<!-- vPGI_intermediate_p&#45;&gt;Fru6P -->
<g id="edge32" class="edge"><title>vPGI_intermediate_p&#45;&gt;Fru6P</title>
<path fill="none" stroke="black" d="M791.083,-61C792.132,-61 802.975,-61 817.617,-61"/>
<polygon fill="black" stroke="black" points="817.723,-64.5001 827.723,-61 817.723,-57.5001 817.723,-64.5001"/>
</g>
<!-- vPFK -->
<g id="node54" class="node"><title>vPFK</title>
<polygon fill="none" stroke="black" points="1072,-83 1058,-83 1058,-69 1072,-69 1072,-83"/>
</g>
<!-- vPFK_intermediate_p -->
<g id="node59" class="node"><title>vPFK_intermediate_p</title>
<ellipse fill="black" stroke="black" cx="1109" cy="-165" rx="0.036" ry="0.036"/>
</g>
<!-- vPFK&#45;&gt;vPFK_intermediate_p -->
<g id="edge40" class="edge"><title>vPFK&#45;&gt;vPFK_intermediate_p</title>
<path fill="none" stroke="black" d="M1068.6,-83.2832C1078.94,-104.207 1108.07,-163.12 1108.98,-164.956"/>
</g>
<!-- vPFK&#45;&gt;vPFK_intermediate_m -->
<g id="edge44" class="edge"><title>vPFK&#45;&gt;vPFK_intermediate_m</title>
<path fill="none" stroke="black" d="M1084.53,-76C1116.72,-76 1182.94,-76 1239,-76 1239,-76 1239,-76 2429,-76 2481.68,-76 2501.15,-67.371 2546,-95 2569.1,-109.228 2582.17,-143.752 2582.96,-145.895"/>
<polygon fill="none" stroke="black" points="1084.29,-76.0001 1078.29,-80 1072.29,-76 1078.29,-72 1084.29,-76.0001"/>
</g>
<!-- vPFK_intermediate_r&#45;&gt;vPFK -->
<g id="edge34" class="edge"><title>vPFK_intermediate_r&#45;&gt;vPFK</title>
<path fill="none" stroke="black" d="M1021.13,-61.043C1023.02,-61.6891 1045.79,-69.4527 1057.76,-73.5315"/>
</g>
<!-- vPFK_intermediate_p&#45;&gt;Fru16BP -->
<g id="edge42" class="edge"><title>vPFK_intermediate_p&#45;&gt;Fru16BP</title>
<path fill="none" stroke="black" d="M1109.09,-165.104C1111.96,-168.274 1179.3,-242.874 1215.87,-283.379"/>
<polygon fill="black" stroke="black" points="1213.45,-285.917 1222.75,-290.994 1218.64,-281.226 1213.45,-285.917"/>
</g>
<!-- vALD -->
<g id="node65" class="node"><title>vALD</title>
<polygon fill="none" stroke="black" points="1420,-334 1406,-334 1406,-320 1420,-320 1420,-334"/>
</g>
<!-- vALD_intermediate_p -->
<g id="node69" class="node"><title>vALD_intermediate_p</title>
<ellipse fill="black" stroke="black" cx="1457" cy="-381" rx="0.036" ry="0.036"/>
</g>
<!-- vALD&#45;&gt;vALD_intermediate_p -->
<g id="edge52" class="edge"><title>vALD&#45;&gt;vALD_intermediate_p</title>
<path fill="none" stroke="black" d="M1418.75,-334.06C1430.31,-348.239 1455.37,-378.998 1456.92,-380.907"/>
</g>
<!-- vALD&#45;&gt;vALD_intermediate_m -->
<g id="edge58" class="edge"><title>vALD&#45;&gt;vALD_intermediate_m</title>
<path fill="none" stroke="black" d="M1432.62,-327C1466.11,-327 1536.5,-327 1596,-327 1596,-327 1596,-327 2183,-327 2358.11,-327 2576.07,-340.566 2582.84,-340.99"/>
<polygon fill="none" stroke="black" points="1432.32,-327 1426.32,-331 1420.32,-327 1426.32,-323 1432.32,-327"/>
</g>
<!-- vALD_intermediate_r&#45;&gt;vALD -->
<g id="edge48" class="edge"><title>vALD_intermediate_r&#45;&gt;vALD</title>
<path fill="none" stroke="black" d="M1369.13,-315.034C1371.02,-315.551 1393.79,-321.762 1405.76,-325.025"/>
</g>
<!-- vALD_intermediate_p&#45;&gt;DHAP -->
<g id="edge56" class="edge"><title>vALD_intermediate_p&#45;&gt;DHAP</title>
<path fill="none" stroke="black" d="M1457.1,-381.089C1460.08,-383.728 1528.59,-444.346 1568.25,-479.447"/>
<polygon fill="black" stroke="black" points="1565.97,-482.097 1575.77,-486.102 1570.6,-476.854 1565.97,-482.097"/>
</g>
<!-- vALD_intermediate_p&#45;&gt;GAP -->
<g id="edge54" class="edge"><title>vALD_intermediate_p&#45;&gt;GAP</title>
<path fill="none" stroke="black" d="M1457.11,-381C1461.82,-381 1613.38,-381 1735,-381 1735,-381 1735,-381 1779,-381 1836.38,-381 1895.22,-416.489 1929.37,-441.332"/>
<polygon fill="black" stroke="black" points="1927.4,-444.225 1937.51,-447.391 1931.58,-438.611 1927.4,-444.225"/>
</g>
<!-- vTPI -->
<g id="node78" class="node"><title>vTPI</title>
<polygon fill="none" stroke="black" points="1786,-472 1772,-472 1772,-458 1786,-458 1786,-472"/>
</g>
<!-- vTPI_intermediate_p -->
<g id="node82" class="node"><title>vTPI_intermediate_p</title>
<ellipse fill="black" stroke="black" cx="1823" cy="-465" rx="0.036" ry="0.036"/>
</g>
<!-- vTPI&#45;&gt;vTPI_intermediate_p -->
<g id="edge70" class="edge"><title>vTPI&#45;&gt;vTPI_intermediate_p</title>
<path fill="none" stroke="black" d="M1786.27,-465C1798.37,-465 1821.5,-465 1822.93,-465"/>
</g>
<!-- vTPI&#45;&gt;vTPI_intermediate_m -->
<g id="edge74" class="edge"><title>vTPI&#45;&gt;vTPI_intermediate_m</title>
<path fill="none" stroke="black" d="M1797.45,-457.014C1829.62,-443.841 1898.32,-419 1959,-419 1959,-419 1959,-419 2183,-419 2308.98,-419 2340.07,-406.557 2466,-403 2501.54,-401.996 2510.5,-401.086 2546,-403 2562,-403.862 2581.72,-406.808 2582.94,-406.991"/>
<polygon fill="none" stroke="black" points="1797.09,-457.168 1793.12,-463.188 1786.04,-461.838 1790.01,-455.818 1797.09,-457.168"/>
</g>
<!-- vTPI_intermediate_r&#45;&gt;vTPI -->
<g id="edge66" class="edge"><title>vTPI_intermediate_r&#45;&gt;vTPI</title>
<path fill="none" stroke="black" d="M1735.13,-481.951C1737.02,-481.219 1759.79,-472.42 1771.76,-467.798"/>
</g>
<!-- vTPI_intermediate_p&#45;&gt;GAP -->
<g id="edge72" class="edge"><title>vTPI_intermediate_p&#45;&gt;GAP</title>
<path fill="none" stroke="black" d="M1823.1,-465C1824.22,-465 1834.81,-465 1849.63,-465"/>
<polygon fill="black" stroke="black" points="1849.93,-468.5 1859.93,-465 1849.93,-461.5 1849.93,-468.5"/>
</g>
<!-- vGAPdh -->
<g id="node88" class="node"><title>vGAPdh</title>
<polygon fill="none" stroke="black" points="2146,-461 2132,-461 2132,-447 2146,-447 2146,-461"/>
</g>
<!-- vGAPdh_intermediate_p -->
<g id="node93" class="node"><title>vGAPdh_intermediate_p</title>
<ellipse fill="black" stroke="black" cx="2183" cy="-454" rx="0.036" ry="0.036"/>
</g>
<!-- vGAPdh&#45;&gt;vGAPdh_intermediate_p -->
<g id="edge84" class="edge"><title>vGAPdh&#45;&gt;vGAPdh_intermediate_p</title>
<path fill="none" stroke="black" d="M2146.27,-454C2158.37,-454 2181.5,-454 2182.93,-454"/>
</g>
<!-- vGAPdh_intermediate_r&#45;&gt;vGAPdh -->
<g id="edge78" class="edge"><title>vGAPdh_intermediate_r&#45;&gt;vGAPdh</title>
<path fill="none" stroke="black" d="M2095.13,-464.968C2097.02,-464.495 2119.79,-458.801 2131.76,-455.81"/>
</g>
<!-- vGAPdh_intermediate_p&#45;&gt;BPGA13 -->
<g id="edge88" class="edge"><title>vGAPdh_intermediate_p&#45;&gt;BPGA13</title>
<path fill="none" stroke="black" d="M2183.09,-453.941C2185.48,-452.365 2235.58,-419.372 2271.07,-396.002"/>
<polygon fill="black" stroke="black" points="2273.31,-398.716 2279.74,-390.293 2269.46,-392.87 2273.31,-398.716"/>
</g>
<!-- vGAPdh_intermediate_p&#45;&gt;NADH -->
<g id="edge86" class="edge"><title>vGAPdh_intermediate_p&#45;&gt;NADH</title>
<path fill="none" stroke="black" d="M2183.09,-454.01C2185.64,-454.301 2242.37,-460.757 2277.85,-464.797"/>
<polygon fill="black" stroke="black" points="2277.77,-468.309 2288.1,-465.963 2278.56,-461.354 2277.77,-468.309"/>
</g>
<!-- vGDH -->
<g id="node97" class="node"><title>vGDH</title>
<polygon fill="none" stroke="black" points="2513,-480 2499,-480 2499,-466 2513,-466 2513,-480"/>
</g>
<!-- vGDH_intermediate_p -->
<g id="node102" class="node"><title>vGDH_intermediate_p</title>
<ellipse fill="black" stroke="black" cx="2583" cy="-482" rx="0.036" ry="0.036"/>
</g>
<!-- vGDH&#45;&gt;vGDH_intermediate_p -->
<g id="edge96" class="edge"><title>vGDH&#45;&gt;vGDH_intermediate_p</title>
<path fill="none" stroke="black" d="M2513.11,-473.831C2531.57,-475.989 2579.85,-481.632 2582.85,-481.983"/>
</g>
<!-- vGDH&#45;&gt;vGDH_intermediate_m -->
<g id="edge102" class="edge"><title>vGDH&#45;&gt;vGDH_intermediate_m</title>
<path fill="none" stroke="black" d="M2525.2,-470.756C2547.15,-468.191 2580.38,-464.306 2582.85,-464.017"/>
<polygon fill="none" stroke="black" points="2525.02,-470.776 2519.53,-475.446 2513.11,-472.169 2518.6,-467.5 2525.02,-470.776"/>
</g>
<!-- vGDH_intermediate_r&#45;&gt;vGDH -->
<g id="edge90" class="edge"><title>vGDH_intermediate_r&#45;&gt;vGDH</title>
<path fill="none" stroke="black" d="M2429.06,-473C2430.94,-473 2480.09,-473 2498.83,-473"/>
</g>
<!-- vGDH_intermediate_p&#45;&gt;NAD -->
<g id="edge98" class="edge"><title>vGDH_intermediate_p&#45;&gt;NAD</title>
<path fill="none" stroke="black" d="M2583.08,-482.025C2585.39,-482.718 2635.77,-497.877 2668.45,-507.71"/>
<polygon fill="black" stroke="black" points="2667.77,-511.16 2678.35,-510.69 2669.78,-504.457 2667.77,-511.16"/>
</g>
<!-- vGDH_intermediate_p&#45;&gt;Gly3P -->
<g id="edge100" class="edge"><title>vGDH_intermediate_p&#45;&gt;Gly3P</title>
<path fill="none" stroke="black" d="M2583.08,-481.986C2584.47,-481.739 2603.4,-478.389 2625.38,-474.499"/>
<polygon fill="black" stroke="black" points="2626.05,-477.935 2635.29,-472.746 2624.83,-471.042 2626.05,-477.935"/>
</g>
<!-- vGPO -->
<g id="node110" class="node"><title>vGPO</title>
<polygon fill="none" stroke="black" points="2886,-567 2872,-567 2872,-553 2886,-553 2886,-567"/>
</g>
<!-- vGPO_intermediate_p -->
<g id="node114" class="node"><title>vGPO_intermediate_p</title>
<ellipse fill="black" stroke="black" cx="2949" cy="-580" rx="0.036" ry="0.036"/>
</g>
<!-- vGPO&#45;&gt;vGPO_intermediate_p -->
<g id="edge112" class="edge"><title>vGPO&#45;&gt;vGPO_intermediate_p</title>
<path fill="none" stroke="black" d="M2886.23,-562.065C2903.55,-567.015 2946.22,-579.206 2948.87,-579.963"/>
</g>
<!-- vGPO&#45;&gt;vGPO_intermediate_m -->
<g id="edge116" class="edge"><title>vGPO&#45;&gt;vGPO_intermediate_m</title>
<path fill="none" stroke="black" d="M2897.93,-554.051C2917.87,-547.783 2946.71,-538.721 2948.87,-538.041"/>
<polygon fill="none" stroke="black" points="2897.68,-554.13 2893.15,-559.745 2886.23,-557.728 2890.75,-552.114 2897.68,-554.13"/>
</g>
<!-- vGPO_intermediate_r&#45;&gt;vGPO -->
<g id="edge108" class="edge"><title>vGPO_intermediate_r&#45;&gt;vGPO</title>
<path fill="none" stroke="black" d="M2809.06,-523.035C2810.26,-523.759 2829.79,-535.479 2846,-544 2854.79,-548.62 2865.12,-553.551 2871.85,-556.698"/>
</g>
<!-- vGPO_intermediate_p&#45;&gt;DHAP -->
<g id="edge114" class="edge"><title>vGPO_intermediate_p&#45;&gt;DHAP</title>
<path fill="none" stroke="black" d="M2948.94,-580.014C2946.59,-580.62 2870.87,-600 2809,-600 1779,-600 1779,-600 1779,-600 1717.65,-600 1656.6,-557.163 1622.83,-528.718"/>
<polygon fill="black" stroke="black" points="1624.71,-525.714 1614.85,-521.832 1620.14,-531.014 1624.71,-525.714"/>
</g>
<!-- vPyrTr -->
<g id="node120" class="node"><title>vPyrTr</title>
<polygon fill="none" stroke="black" points="3285,-322 3271,-322 3271,-308 3285,-308 3285,-322"/>
</g>
<!-- vPyrTr_intermediate_p -->
<g id="node124" class="node"><title>vPyrTr_intermediate_p</title>
<ellipse fill="black" stroke="black" cx="3379" cy="-314" rx="0.036" ry="0.036"/>
</g>
<!-- vPyrTr&#45;&gt;vPyrTr_intermediate_p -->
<g id="edge124" class="edge"><title>vPyrTr&#45;&gt;vPyrTr_intermediate_p</title>
<path fill="none" stroke="black" d="M3285.26,-314.928C3308.06,-314.702 3376.81,-314.022 3378.95,-314.001"/>
</g>
<!-- vPyrTr_intermediate_r&#45;&gt;vPyrTr -->
<g id="edge120" class="edge"><title>vPyrTr_intermediate_r&#45;&gt;vPyrTr</title>
<path fill="none" stroke="black" d="M3203.05,-306.007C3204.88,-306.226 3252.3,-311.916 3270.75,-314.13"/>
</g>
<!-- vPyrTr_intermediate_p&#45;&gt;PyrE -->
<g id="edge126" class="edge"><title>vPyrTr_intermediate_p&#45;&gt;PyrE</title>
<path fill="none" stroke="black" d="M3379.09,-314C3380.79,-314 3405,-314 3432.08,-314"/>
<polygon fill="black" stroke="black" points="3432.15,-317.5 3442.15,-314 3432.15,-310.5 3432.15,-317.5"/>
</g>
<!-- vPGK -->
<g id="node127" class="node"><title>vPGK</title>
<polygon fill="none" stroke="black" points="2513,-118 2499,-118 2499,-104 2513,-104 2513,-118"/>
</g>
<!-- vPGK_intermediate_p -->
<g id="node131" class="node"><title>vPGK_intermediate_p</title>
<ellipse fill="black" stroke="black" cx="2583" cy="-111" rx="0.036" ry="0.036"/>
</g>
<!-- vPGK&#45;&gt;vPGK_intermediate_p -->
<g id="edge132" class="edge"><title>vPGK&#45;&gt;vPGK_intermediate_p</title>
<path fill="none" stroke="black" d="M2513.11,-111C2531.57,-111 2579.85,-111 2582.85,-111"/>
</g>
<!-- vPGK&#45;&gt;vPGK_intermediate_m -->
<g id="edge138" class="edge"><title>vPGK&#45;&gt;vPGK_intermediate_m</title>
<path fill="none" stroke="black" d="M2524.84,-116.585C2531.83,-119.146 2539.61,-122.606 2546,-127 2565.33,-140.294 2581.93,-165.37 2582.95,-166.924"/>
<polygon fill="none" stroke="black" points="2524.68,-116.533 2517.74,-118.497 2513.26,-112.848 2520.2,-110.883 2524.68,-116.533"/>
</g>
<!-- vPGK_intermediate_r&#45;&gt;vPGK -->
<g id="edge128" class="edge"><title>vPGK_intermediate_r&#45;&gt;vPGK</title>
<path fill="none" stroke="black" d="M2429.01,-295.899C2429.38,-291.662 2441.54,-155.874 2466,-127 2474.41,-117.071 2489.87,-113.247 2498.91,-111.817"/>
</g>
<!-- vPGK_intermediate_p&#45;&gt;Pg -->
<g id="edge136" class="edge"><title>vPGK_intermediate_p&#45;&gt;Pg</title>
<path fill="none" stroke="black" d="M2583.06,-110.967C2584.23,-110.288 2603.2,-99.3641 2620,-95 2701.71,-73.7723 2724.58,-76 2809,-76 2809,-76 2809,-76 2879,-76 2917.35,-76 2959.66,-72.0167 2995.21,-67.5197"/>
<polygon fill="black" stroke="black" points="2996.07,-70.938 3005.53,-66.1763 2995.16,-63.9966 2996.07,-70.938"/>
</g>
<!-- vPGK_intermediate_p&#45;&gt;Nb -->
<g id="edge134" class="edge"><title>vPGK_intermediate_p&#45;&gt;Nb</title>
<path fill="none" stroke="black" d="M2583.08,-111.008C2584.46,-111.142 2603.08,-112.954 2624.81,-115.07"/>
<polygon fill="black" stroke="black" points="2624.67,-118.573 2634.96,-116.058 2625.35,-111.606 2624.67,-118.573"/>
</g>
<!-- vPK -->
<g id="node140" class="node"><title>vPK</title>
<polygon fill="none" stroke="black" points="2886,-129 2872,-129 2872,-115 2886,-115 2886,-129"/>
</g>
<!-- vPK_intermediate_p -->
<g id="node144" class="node"><title>vPK_intermediate_p</title>
<ellipse fill="black" stroke="black" cx="2949" cy="-295" rx="0.036" ry="0.036"/>
</g>
<!-- vPK&#45;&gt;vPK_intermediate_p -->
<g id="edge150" class="edge"><title>vPK&#45;&gt;vPK_intermediate_p</title>
<path fill="none" stroke="black" d="M2881.92,-129.147C2887.69,-143.257 2900.95,-175.694 2912,-203 2928.02,-242.575 2947.72,-291.813 2948.94,-294.852"/>
</g>
<!-- vPK&#45;&gt;vPK_intermediate_m -->
<g id="edge156" class="edge"><title>vPK&#45;&gt;vPK_intermediate_m</title>
<path fill="none" stroke="black" d="M2898.17,-121.352C2933.38,-120.22 3010.76,-118 3076,-118 3076,-118 3076,-118 3203,-118 3253.93,-118 3269.87,-115.419 3316,-137 3348.36,-152.14 3377.15,-188.624 3378.91,-190.889"/>
<polygon fill="none" stroke="black" points="2898.15,-121.353 2892.28,-125.549 2886.15,-121.75 2892.02,-117.554 2898.15,-121.353"/>
</g>
<!-- vPK_intermediate_r&#45;&gt;vPK -->
<g id="edge146" class="edge"><title>vPK_intermediate_r&#45;&gt;vPK</title>
<path fill="none" stroke="black" d="M2809.05,-122C2810.75,-122 2854.58,-122 2871.98,-122"/>
</g>
<!-- vPK_intermediate_p&#45;&gt;Pyr -->
<g id="edge154" class="edge"><title>vPK_intermediate_p&#45;&gt;Pyr</title>
<path fill="none" stroke="black" d="M2949.09,-295C2951.28,-295 2992.04,-295 3026.79,-295"/>
<polygon fill="black" stroke="black" points="3026.86,-298.5 3036.86,-295 3026.86,-291.5 3026.86,-298.5"/>
</g>
<!-- vPK_intermediate_p&#45;&gt;Pc -->
<g id="edge152" class="edge"><title>vPK_intermediate_p&#45;&gt;Pc</title>
<path fill="none" stroke="black" d="M2949.05,-295.052C2950.17,-296.113 2968.34,-313.228 2986,-322 2994.88,-326.408 3004.61,-330.244 3014.29,-333.532"/>
<polygon fill="black" stroke="black" points="3013.33,-336.9 3023.92,-336.638 3015.48,-330.237 3013.33,-336.9"/>
</g>
<!-- vATPase -->
<g id="node153" class="node"><title>vATPase</title>
<polygon fill="none" stroke="black" points="3285,-356 3271,-356 3271,-342 3285,-342 3285,-356"/>
</g>
<!-- vATPase_empty -->
<g id="node157" class="node"><title>vATPase_empty</title>
<text text-anchor="middle" x="3379" y="-345.5" font-family="Times Roman,serif" font-size="15.00" fill="blue">Ø</text>
</g>
<!-- vATPase&#45;&gt;vATPase_empty -->
<g id="edge168" class="edge"><title>vATPase&#45;&gt;vATPase_empty</title>
<path fill="none" stroke="black" d="M3285.26,-349.072C3297.03,-349.188 3321.02,-349.426 3341.79,-349.632"/>
<polygon fill="black" stroke="black" points="3341.93,-353.133 3351.97,-349.732 3342,-346.133 3341.93,-353.133"/>
</g>
<!-- vATPase&#45;&gt;vATPase_intermediate_m -->
<g id="edge170" class="edge"><title>vATPase&#45;&gt;vATPase_intermediate_m</title>
<path fill="none" stroke="black" d="M3296.19,-341.77C3302.68,-338.836 3309.9,-335.154 3316,-331 3346.72,-310.093 3377.04,-274.323 3378.91,-272.108"/>
<polygon fill="none" stroke="black" points="3296.14,-341.788 3292.15,-347.794 3285.07,-346.418 3289.07,-340.413 3296.14,-341.788"/>
</g>
<!-- vATPase_intermediate_r&#45;&gt;vATPase -->
<g id="edge164" class="edge"><title>vATPase_intermediate_r&#45;&gt;vATPase</title>
<path fill="none" stroke="black" d="M3203.05,-349C3204.88,-349 3252.3,-349 3270.75,-349"/>
</g>
<!-- vGlyK -->
<g id="node163" class="node"><title>vGlyK</title>
<polygon fill="none" stroke="black" points="2886,-477 2872,-477 2872,-463 2886,-463 2886,-477"/>
</g>
<!-- vGlyK_intermediate_p -->
<g id="node167" class="node"><title>vGlyK_intermediate_p</title>
<ellipse fill="black" stroke="black" cx="2949" cy="-437" rx="0.036" ry="0.036"/>
</g>
<!-- vGlyK&#45;&gt;vGlyK_intermediate_p -->
<g id="edge180" class="edge"><title>vGlyK&#45;&gt;vGlyK_intermediate_p</title>
<path fill="none" stroke="black" d="M2886.23,-466.593C2903.55,-458.425 2946.22,-438.31 2948.87,-437.061"/>
</g>
<!-- vGlyK&#45;&gt;vGlyK_intermediate_m -->
<g id="edge186" class="edge"><title>vGlyK&#45;&gt;vGlyK_intermediate_m</title>
<path fill="none" stroke="black" d="M2896.71,-460.95C2902.04,-457.671 2907.63,-453.621 2912,-449 2934.38,-425.331 2948.12,-385.581 2948.96,-383.12"/>
<polygon fill="none" stroke="black" points="2896.54,-461.042 2893.21,-467.436 2886.02,-466.818 2889.36,-460.424 2896.54,-461.042"/>
</g>
<!-- vGlyK_intermediate_r&#45;&gt;vGlyK -->
<g id="edge176" class="edge"><title>vGlyK_intermediate_r&#45;&gt;vGlyK</title>
<path fill="none" stroke="black" d="M2809.05,-468.001C2810.75,-468.05 2854.58,-469.302 2871.98,-469.799"/>
</g>
<!-- vGlyK_intermediate_p&#45;&gt;Pg -->
<g id="edge182" class="edge"><title>vGlyK_intermediate_p&#45;&gt;Pg</title>
<path fill="none" stroke="black" d="M2949.01,-436.93C2949.43,-434.014 2963.08,-340.135 2986,-268 3007.84,-199.253 3043.36,-122.077 3062.6,-82.1727"/>
<polygon fill="black" stroke="black" points="3065.79,-83.6126 3067.01,-73.088 3059.49,-80.5562 3065.79,-83.6126"/>
</g>
<!-- vGlyK_intermediate_p&#45;&gt;Gly -->
<g id="edge184" class="edge"><title>vGlyK_intermediate_p&#45;&gt;Gly</title>
<path fill="none" stroke="black" d="M2949.09,-437C2951.36,-437 2995.16,-437 3030.67,-437"/>
<polygon fill="black" stroke="black" points="3030.9,-440.5 3040.9,-437 3030.9,-433.5 3030.9,-440.5"/>
</g>
</g>
</svg>
