<?xml version="1.0" encoding="UTF-8" standalone="no"?>
<!DOCTYPE svg PUBLIC "-//W3C//DTD SVG 1.1//EN"
 "http://www.w3.org/Graphics/SVG/1.1/DTD/svg11.dtd">
<!-- Generated by graphviz version 2.24.0 (20090616.2323)
 -->
<!-- Title: G Pages: 1 -->
<svg width="1396pt" height="511pt"
 viewBox="0.00 0.00 1396.00 511.00" xmlns="http://www.w3.org/2000/svg" xmlns:xlink="http://www.w3.org/1999/xlink">
<g id="graph1" class="graph" transform="scale(1 1) rotate(0) translate(4 507)">
<title>G</title>
<polygon fill="white" stroke="white" points="-4,5 -4,-507 1393,-507 1393,5 -4,5"/>
<!-- s53 -->
<g id="node1" class="node"><title>s53</title>
<polyline fill="none" stroke="black" points="389,-90 359,-90 "/>
<path fill="none" stroke="black" d="M359,-90C353,-90 347,-84 347,-78"/>
<polyline fill="none" stroke="black" points="347,-78 347,-66 "/>
<path fill="none" stroke="black" d="M347,-66C347,-60 353,-54 359,-54"/>
<polyline fill="none" stroke="black" points="359,-54 389,-54 "/>
<path fill="none" stroke="black" d="M389,-54C395,-54 401,-60 401,-66"/>
<polyline fill="none" stroke="black" points="401,-66 401,-78 "/>
<path fill="none" stroke="black" d="M401,-78C401,-84 395,-90 389,-90"/>
<text text-anchor="middle" x="374" y="-69.5" font-family="Times Roman,serif" font-size="10.00">NICD</text>
</g>
<!-- re31_intermediate_r -->
<g id="node41" class="node"><title>re31_intermediate_r</title>
<ellipse fill="black" stroke="black" cx="450" cy="-73" rx="0.036" ry="0.036"/>
</g>
<!-- s53&#45;&gt;re31_intermediate_r -->
<g id="edge20" class="edge"><title>s53&#45;&gt;re31_intermediate_r</title>
<path fill="none" stroke="black" d="M411.18,-72.4892C429.74,-72.7334 448.561,-72.9811 449.921,-72.999"/>
<polygon fill="black" stroke="black" points="411.054,-68.9873 401.009,-72.3554 410.962,-75.9867 411.054,-68.9873"/>
</g>
<!-- s57 -->
<g id="node2" class="node"><title>s57</title>
<polyline fill="none" stroke="black" points="42,-36 12,-36 "/>
<path fill="none" stroke="black" d="M12,-36C6,-36 2.07242e-14,-30 1.65793e-14,-24"/>
<polyline fill="none" stroke="black" points="1.65793e-14,-24 8.28967e-15,-12 "/>
<path fill="none" stroke="black" d="M8.28967e-15,-12C4.14483e-15,-6 6,-1.61846e-14 12,-1.46056e-14"/>
<polyline fill="none" stroke="black" points="12,-1.46056e-14 42,-6.71068e-15 "/>
<path fill="none" stroke="black" d="M42,-6.71068e-15C48,-5.1317e-15 54,-6 54,-12"/>
<polyline fill="none" stroke="black" points="54,-12 54,-24 "/>
<path fill="none" stroke="black" d="M54,-24C54,-30 48,-36 42,-36"/>
<text text-anchor="middle" x="27" y="-15.5" font-family="Times Roman,serif" font-size="10.00">Notch</text>
</g>
<!-- re29_intermediate_r -->
<g id="node29" class="node"><title>re29_intermediate_r</title>
<ellipse fill="black" stroke="black" cx="90" cy="-18" rx="0.036" ry="0.036"/>
</g>
<!-- s57&#45;&gt;re29_intermediate_r -->
<g id="edge4" class="edge"><title>s57&#45;&gt;re29_intermediate_r</title>
<path fill="none" stroke="black" d="M64.2115,-18C77.3137,-18 89.0519,-18 89.9454,-18"/>
<polygon fill="black" stroke="black" points="64.0833,-14.5001 54.0833,-18 64.0833,-21.5001 64.0833,-14.5001"/>
</g>
<!-- s58 -->
<g id="node3" class="node"><title>s58</title>
<ellipse fill="none" stroke="black" cx="374" cy="-18" rx="40.0132" ry="18"/>
<text text-anchor="middle" x="374" y="-15.5" font-family="Times Roman,serif" font-size="10.00">Notch TM</text>
</g>
<!-- s60 -->
<g id="node4" class="node"><title>s60</title>
<ellipse fill="none" stroke="black" cx="194" cy="-61" rx="67.213" ry="18"/>
<text text-anchor="middle" x="194" y="-58.5" font-family="Times Roman,serif" font-size="10.00">Gamma secretase</text>
</g>
<!-- re29_intermediate_m -->
<g id="node36" class="node"><title>re29_intermediate_m</title>
<ellipse fill="black" stroke="black" cx="298" cy="-61" rx="0.036" ry="0.036"/>
</g>
<!-- s60&#45;&gt;re29_intermediate_m -->
<g id="edge14" class="edge"><title>s60&#45;&gt;re29_intermediate_m</title>
<path fill="none" stroke="black" d="M261.626,-61C280.869,-61 296.965,-61 297.952,-61"/>
</g>
<!-- s61 -->
<g id="node5" class="node"><title>s61</title>
<ellipse fill="none" stroke="black" cx="194" cy="-115" rx="18" ry="18"/>
<text text-anchor="middle" x="194" y="-112.5" font-family="Times Roman,serif" font-size="10.00">DAPT</text>
</g>
<!-- s61&#45;&gt;re29_intermediate_m -->
<g id="edge16" class="edge"><title>s61&#45;&gt;re29_intermediate_m</title>
<path fill="none" stroke="black" d="M211.34,-109.545C225.435,-104.778 245.6,-97.1894 262,-88 278.902,-78.5291 296.842,-62.0692 297.946,-61.0497"/>
</g>
<!-- s68 -->
<g id="node6" class="node"><title>s68</title>
<polyline fill="none" stroke="black" points="389,-144 359,-144 "/>
<path fill="none" stroke="black" d="M359,-144C353,-144 347,-138 347,-132"/>
<polyline fill="none" stroke="black" points="347,-132 347,-120 "/>
<path fill="none" stroke="black" d="M347,-120C347,-114 353,-108 359,-108"/>
<polyline fill="none" stroke="black" points="359,-108 389,-108 "/>
<path fill="none" stroke="black" d="M389,-108C395,-108 401,-114 401,-120"/>
<polyline fill="none" stroke="black" points="401,-120 401,-132 "/>
<path fill="none" stroke="black" d="M401,-132C401,-138 395,-144 389,-144"/>
<text text-anchor="middle" x="374" y="-123.5" font-family="Times Roman,serif" font-size="10.00">RBP&#45;jk</text>
</g>
<!-- s68&#45;&gt;re31_intermediate_r -->
<g id="edge22" class="edge"><title>s68&#45;&gt;re31_intermediate_r</title>
<path fill="none" stroke="black" d="M409.67,-102.007C411.135,-100.995 412.583,-99.9894 414,-99 429.676,-88.0529 448.765,-73.9154 449.943,-73.0425"/>
<polygon fill="black" stroke="black" points="407.462,-99.2767 401.19,-107.816 411.418,-105.052 407.462,-99.2767"/>
</g>
<!-- s72 -->
<g id="node7" class="node"><title>s72</title>
<ellipse fill="none" stroke="black" cx="772" cy="-73" rx="70.9087" ry="18"/>
<text text-anchor="middle" x="772" y="-70.5" font-family="Times Roman,serif" font-size="10.00">Complex NICD&#45;RBP</text>
</g>
<!-- re32_intermediate_r -->
<g id="node49" class="node"><title>re32_intermediate_r</title>
<ellipse fill="black" stroke="black" cx="881" cy="-76" rx="0.036" ry="0.036"/>
</g>
<!-- s72&#45;&gt;re32_intermediate_r -->
<g id="edge30" class="edge"><title>s72&#45;&gt;re32_intermediate_r</title>
<path fill="none" stroke="black" d="M853.589,-75.2456C868.717,-75.6619 880.11,-75.9755 880.95,-75.9986"/>
<polygon fill="black" stroke="black" points="853.276,-71.7357 843.183,-74.9592 853.083,-78.7331 853.276,-71.7357"/>
</g>
<!-- s73 -->
<g id="node8" class="node"><title>s73</title>
<ellipse fill="none" stroke="black" cx="1297" cy="-252" rx="27.8202" ry="18"/>
<text text-anchor="middle" x="1297" y="-249.5" font-family="Times Roman,serif" font-size="10.00">Hes&#45;1</text>
</g>
<!-- s81 -->
<g id="node9" class="node"><title>s81</title>
<polyline fill="none" stroke="black" points="209,-188 179,-188 "/>
<path fill="none" stroke="black" d="M179,-188C173,-188 167,-182 167,-176"/>
<polyline fill="none" stroke="black" points="167,-176 167,-164 "/>
<path fill="none" stroke="black" d="M167,-164C167,-158 173,-152 179,-152"/>
<polyline fill="none" stroke="black" points="179,-152 209,-152 "/>
<path fill="none" stroke="black" d="M209,-152C215,-152 221,-158 221,-164"/>
<polyline fill="none" stroke="black" points="221,-164 221,-176 "/>
<path fill="none" stroke="black" d="M221,-176C221,-182 215,-188 209,-188"/>
<text text-anchor="middle" x="194" y="-167.5" font-family="Times Roman,serif" font-size="10.00">Shh</text>
</g>
<!-- re33_intermediate_r -->
<g id="node56" class="node"><title>re33_intermediate_r</title>
<ellipse fill="black" stroke="black" cx="298" cy="-171" rx="0.036" ry="0.036"/>
</g>
<!-- s81&#45;&gt;re33_intermediate_r -->
<g id="edge38" class="edge"><title>s81&#45;&gt;re33_intermediate_r</title>
<path fill="none" stroke="black" d="M231.291,-170.359C260.083,-170.635 295.431,-170.975 297.867,-170.999"/>
<polygon fill="black" stroke="black" points="231.087,-166.857 221.053,-170.26 231.019,-173.856 231.087,-166.857"/>
</g>
<!-- s83 -->
<g id="node10" class="node"><title>s83</title>
<polyline fill="none" stroke="black" points="209,-242 179,-242 "/>
<path fill="none" stroke="black" d="M179,-242C173,-242 167,-236 167,-230"/>
<polyline fill="none" stroke="black" points="167,-230 167,-218 "/>
<path fill="none" stroke="black" d="M167,-218C167,-212 173,-206 179,-206"/>
<polyline fill="none" stroke="black" points="179,-206 209,-206 "/>
<path fill="none" stroke="black" d="M209,-206C215,-206 221,-212 221,-218"/>
<polyline fill="none" stroke="black" points="221,-218 221,-230 "/>
<path fill="none" stroke="black" d="M221,-230C221,-236 215,-242 209,-242"/>
<text text-anchor="middle" x="194" y="-221.5" font-family="Times Roman,serif" font-size="10.00">Ptch1</text>
</g>
<!-- s83&#45;&gt;re33_intermediate_r -->
<g id="edge40" class="edge"><title>s83&#45;&gt;re33_intermediate_r</title>
<path fill="none" stroke="black" d="M230.79,-211.31C241.126,-207.236 252.21,-202.37 262,-197 278.763,-187.805 296.833,-172.025 297.946,-171.048"/>
<polygon fill="black" stroke="black" points="229.28,-208.14 221.177,-214.965 231.768,-214.683 229.28,-208.14"/>
</g>
<!-- s85 -->
<g id="node11" class="node"><title>s85</title>
<ellipse fill="none" stroke="black" cx="556" cy="-171" rx="70.1769" ry="18"/>
<text text-anchor="middle" x="556" y="-168.5" font-family="Times Roman,serif" font-size="10.00">Complex Shh Ptch1</text>
</g>
<!-- re34_intermediate_m -->
<g id="node126" class="node"><title>re34_intermediate_m</title>
<ellipse fill="black" stroke="black" cx="663" cy="-147" rx="0.036" ry="0.036"/>
</g>
<!-- s85&#45;&gt;re34_intermediate_m -->
<g id="edge126" class="edge"><title>s85&#45;&gt;re34_intermediate_m</title>
<path fill="none" stroke="black" d="M608.873,-159.141C634.988,-153.283 661.302,-147.381 662.921,-147.018"/>
</g>
<!-- s88 -->
<g id="node12" class="node"><title>s88</title>
<polyline fill="none" stroke="black" points="787,-239 757,-239 "/>
<path fill="none" stroke="black" d="M757,-239C751,-239 745,-233 745,-227"/>
<polyline fill="none" stroke="black" points="745,-227 745,-215 "/>
<path fill="none" stroke="black" d="M745,-215C745,-209 751,-203 757,-203"/>
<polyline fill="none" stroke="black" points="757,-203 787,-203 "/>
<path fill="none" stroke="black" d="M787,-203C793,-203 799,-209 799,-215"/>
<polyline fill="none" stroke="black" points="799,-215 799,-227 "/>
<path fill="none" stroke="black" d="M799,-227C799,-233 793,-239 787,-239"/>
<text text-anchor="middle" x="772" y="-218.5" font-family="Times Roman,serif" font-size="10.00">smo</text>
</g>
<!-- re34_intermediate_r -->
<g id="node120" class="node"><title>re34_intermediate_r</title>
<ellipse fill="black" stroke="black" cx="881" cy="-189" rx="0.036" ry="0.036"/>
</g>
<!-- s88&#45;&gt;re34_intermediate_r -->
<g id="edge118" class="edge"><title>s88&#45;&gt;re34_intermediate_r</title>
<path fill="none" stroke="black" d="M809.19,-210.082C839.674,-201.132 878.222,-189.816 880.857,-189.042"/>
<polygon fill="black" stroke="black" points="807.833,-206.832 799.224,-213.008 809.805,-213.549 807.833,-206.832"/>
</g>
<!-- re35_intermediate_r -->
<g id="node131" class="node"><title>re35_intermediate_r</title>
<ellipse fill="black" stroke="black" cx="881" cy="-221" rx="0.036" ry="0.036"/>
</g>
<!-- s88&#45;&gt;re35_intermediate_r -->
<g id="edge132" class="edge"><title>s88&#45;&gt;re35_intermediate_r</title>
<path fill="none" stroke="black" d="M809.588,-221C840.009,-221 878.233,-221 880.857,-221"/>
<polygon fill="black" stroke="black" points="809.224,-217.5 799.224,-221 809.224,-224.5 809.224,-217.5"/>
</g>
<!-- s89 -->
<g id="node13" class="node"><title>s89</title>
<polyline fill="none" stroke="black" points="571,-135 541,-135 "/>
<path fill="none" stroke="black" d="M541,-135C535,-135 529,-129 529,-123"/>
<polyline fill="none" stroke="black" points="529,-123 529,-111 "/>
<path fill="none" stroke="black" d="M529,-111C529,-105 535,-99 541,-99"/>
<polyline fill="none" stroke="black" points="541,-99 571,-99 "/>
<path fill="none" stroke="black" d="M571,-99C577,-99 583,-105 583,-111"/>
<polyline fill="none" stroke="black" points="583,-111 583,-123 "/>
<path fill="none" stroke="black" d="M583,-123C583,-129 577,-135 571,-135"/>
<text text-anchor="middle" x="556" y="-114.5" font-family="Times Roman,serif" font-size="10.00">SAG</text>
</g>
<!-- s89&#45;&gt;re34_intermediate_m -->
<g id="edge128" class="edge"><title>s89&#45;&gt;re34_intermediate_m</title>
<path fill="none" stroke="black" d="M583.001,-124.57C613.708,-133.18 659.997,-146.158 662.86,-146.961"/>
</g>
<!-- re35_intermediate_m -->
<g id="node137" class="node"><title>re35_intermediate_m</title>
<ellipse fill="black" stroke="black" cx="1170" cy="-170" rx="0.036" ry="0.036"/>
</g>
<!-- s89&#45;&gt;re35_intermediate_m -->
<g id="edge140" class="edge"><title>s89&#45;&gt;re35_intermediate_m</title>
<path fill="none" stroke="black" d="M583.277,-117.414C624.251,-118 704.122,-119 772,-119 772,-119 772,-119 881,-119 1009.39,-119 1165.05,-168.419 1169.88,-169.963"/>
</g>
<!-- s96 -->
<g id="node14" class="node"><title>s96</title>
<polyline fill="none" stroke="black" points="389,-401 359,-401 "/>
<path fill="none" stroke="black" d="M359,-401C353,-401 347,-395 347,-389"/>
<polyline fill="none" stroke="black" points="347,-389 347,-377 "/>
<path fill="none" stroke="black" d="M347,-377C347,-371 353,-365 359,-365"/>
<polyline fill="none" stroke="black" points="359,-365 389,-365 "/>
<path fill="none" stroke="black" d="M389,-365C395,-365 401,-371 401,-377"/>
<polyline fill="none" stroke="black" points="401,-377 401,-389 "/>
<path fill="none" stroke="black" d="M401,-389C401,-395 395,-401 389,-401"/>
<text text-anchor="middle" x="374" y="-380.5" font-family="Times Roman,serif" font-size="10.00">EGF</text>
</g>
<!-- re36_intermediate_r -->
<g id="node64" class="node"><title>re36_intermediate_r</title>
<ellipse fill="black" stroke="black" cx="450" cy="-329" rx="0.036" ry="0.036"/>
</g>
<!-- s96&#45;&gt;re36_intermediate_r -->
<g id="edge48" class="edge"><title>s96&#45;&gt;re36_intermediate_r</title>
<path fill="none" stroke="black" d="M409.693,-359.039C411.152,-358.018 412.592,-357.002 414,-356 429.784,-344.764 448.772,-329.959 449.943,-329.045"/>
<polygon fill="black" stroke="black" points="407.475,-356.317 401.236,-364.881 411.453,-362.077 407.475,-356.317"/>
</g>
<!-- s98 -->
<g id="node15" class="node"><title>s98</title>
<polyline fill="none" stroke="black" points="389,-347 359,-347 "/>
<path fill="none" stroke="black" d="M359,-347C353,-347 347,-341 347,-335"/>
<polyline fill="none" stroke="black" points="347,-335 347,-323 "/>
<path fill="none" stroke="black" d="M347,-323C347,-317 353,-311 359,-311"/>
<polyline fill="none" stroke="black" points="359,-311 389,-311 "/>
<path fill="none" stroke="black" d="M389,-311C395,-311 401,-317 401,-323"/>
<polyline fill="none" stroke="black" points="401,-323 401,-335 "/>
<path fill="none" stroke="black" d="M401,-335C401,-341 395,-347 389,-347"/>
<text text-anchor="middle" x="374" y="-326.5" font-family="Times Roman,serif" font-size="10.00">EGFR</text>
</g>
<!-- s98&#45;&gt;re36_intermediate_r -->
<g id="edge50" class="edge"><title>s98&#45;&gt;re36_intermediate_r</title>
<path fill="none" stroke="black" d="M411.18,-329C429.74,-329 448.561,-329 449.921,-329"/>
<polygon fill="black" stroke="black" points="411.009,-325.5 401.009,-329 411.009,-332.5 411.009,-325.5"/>
</g>
<!-- s100 -->
<g id="node16" class="node"><title>s100</title>
<ellipse fill="none" stroke="black" cx="772" cy="-329" rx="70.9087" ry="18"/>
<text text-anchor="middle" x="772" y="-326.5" font-family="Times Roman,serif" font-size="10.00">Complex EGF&#45;EGFR</text>
</g>
<!-- re37_intermediate_r -->
<g id="node75" class="node"><title>re37_intermediate_r</title>
<ellipse fill="black" stroke="black" cx="881" cy="-321" rx="0.036" ry="0.036"/>
</g>
<!-- s100&#45;&gt;re37_intermediate_r -->
<g id="edge62" class="edge"><title>s100&#45;&gt;re37_intermediate_r</title>
<path fill="none" stroke="black" d="M850.792,-323.217C867.269,-322.008 880.021,-321.072 880.946,-321.004"/>
<polygon fill="black" stroke="black" points="850.439,-319.733 840.722,-323.956 850.952,-326.715 850.439,-319.733"/>
</g>
<!-- s101 -->
<g id="node17" class="node"><title>s101</title>
<ellipse fill="none" stroke="black" cx="556" cy="-372" rx="35.0885" ry="18"/>
<text text-anchor="middle" x="556" y="-369.5" font-family="Times Roman,serif" font-size="10.00">Erlotinib</text>
</g>
<!-- re36_intermediate_m -->
<g id="node71" class="node"><title>re36_intermediate_m</title>
<ellipse fill="black" stroke="black" cx="663" cy="-360" rx="0.036" ry="0.036"/>
</g>
<!-- s101&#45;&gt;re36_intermediate_m -->
<g id="edge58" class="edge"><title>s101&#45;&gt;re36_intermediate_m</title>
<path fill="none" stroke="black" d="M590.444,-368.137C620.746,-364.739 660.43,-360.288 662.881,-360.013"/>
</g>
<!-- s107 -->
<g id="node18" class="node"><title>s107</title>
<polyline fill="none" stroke="black" points="389,-293 359,-293 "/>
<path fill="none" stroke="black" d="M359,-293C353,-293 347,-287 347,-281"/>
<polyline fill="none" stroke="black" points="347,-281 347,-269 "/>
<path fill="none" stroke="black" d="M347,-269C347,-263 353,-257 359,-257"/>
<polyline fill="none" stroke="black" points="359,-257 389,-257 "/>
<path fill="none" stroke="black" d="M389,-257C395,-257 401,-263 401,-269"/>
<polyline fill="none" stroke="black" points="401,-269 401,-281 "/>
<path fill="none" stroke="black" d="M401,-281C401,-287 395,-293 389,-293"/>
<text text-anchor="middle" x="374" y="-272.5" font-family="Times Roman,serif" font-size="10.00">Wnt</text>
</g>
<!-- re38_intermediate_r -->
<g id="node82" class="node"><title>re38_intermediate_r</title>
<ellipse fill="black" stroke="black" cx="450" cy="-275" rx="0.036" ry="0.036"/>
</g>
<!-- s107&#45;&gt;re38_intermediate_r -->
<g id="edge70" class="edge"><title>s107&#45;&gt;re38_intermediate_r</title>
<path fill="none" stroke="black" d="M411.18,-275C429.74,-275 448.561,-275 449.921,-275"/>
<polygon fill="black" stroke="black" points="411.009,-271.5 401.009,-275 411.009,-278.5 411.009,-271.5"/>
</g>
<!-- s109 -->
<g id="node19" class="node"><title>s109</title>
<polyline fill="none" stroke="black" points="389,-239 359,-239 "/>
<path fill="none" stroke="black" d="M359,-239C353,-239 347,-233 347,-227"/>
<polyline fill="none" stroke="black" points="347,-227 347,-215 "/>
<path fill="none" stroke="black" d="M347,-215C347,-209 353,-203 359,-203"/>
<polyline fill="none" stroke="black" points="359,-203 389,-203 "/>
<path fill="none" stroke="black" d="M389,-203C395,-203 401,-209 401,-215"/>
<polyline fill="none" stroke="black" points="401,-215 401,-227 "/>
<path fill="none" stroke="black" d="M401,-227C401,-233 395,-239 389,-239"/>
<text text-anchor="middle" x="374" y="-218.5" font-family="Times Roman,serif" font-size="10.00">Frzzl</text>
</g>
<!-- s109&#45;&gt;re38_intermediate_r -->
<g id="edge72" class="edge"><title>s109&#45;&gt;re38_intermediate_r</title>
<path fill="none" stroke="black" d="M409.693,-244.961C411.152,-245.982 412.592,-246.998 414,-248 429.784,-259.236 448.772,-274.041 449.943,-274.955"/>
<polygon fill="black" stroke="black" points="411.453,-241.923 401.236,-239.119 407.475,-247.683 411.453,-241.923"/>
</g>
<!-- s111 -->
<g id="node20" class="node"><title>s111</title>
<ellipse fill="none" stroke="black" cx="772" cy="-275" rx="68.9457" ry="18"/>
<text text-anchor="middle" x="772" y="-272.5" font-family="Times Roman,serif" font-size="10.00">Complex Wnt&#45;Frzzl</text>
</g>
<!-- re40_intermediate_m -->
<g id="node97" class="node"><title>re40_intermediate_m</title>
<ellipse fill="black" stroke="black" cx="881" cy="-285" rx="0.036" ry="0.036"/>
</g>
<!-- s111&#45;&gt;re40_intermediate_m -->
<g id="edge90" class="edge"><title>s111&#45;&gt;re40_intermediate_m</title>
<path fill="none" stroke="black" d="M837.294,-280.99C859.782,-283.053 879.717,-284.882 880.941,-284.995"/>
</g>
<!-- s122 -->
<g id="node21" class="node"><title>s122</title>
<polyline fill="none" stroke="black" points="581,-444 531,-444 "/>
<path fill="none" stroke="black" d="M531,-444C525,-444 519,-438 519,-432"/>
<polyline fill="none" stroke="black" points="519,-432 519,-420 "/>
<path fill="none" stroke="black" d="M519,-420C519,-414 525,-408 531,-408"/>
<polyline fill="none" stroke="black" points="531,-408 581,-408 "/>
<path fill="none" stroke="black" d="M581,-408C587,-408 593,-414 593,-420"/>
<polyline fill="none" stroke="black" points="593,-420 593,-432 "/>
<path fill="none" stroke="black" d="M593,-432C593,-438 587,-444 581,-444"/>
<text text-anchor="middle" x="556" y="-423.5" font-family="Times Roman,serif" font-size="10.00">Dishevelled</text>
</g>
<!-- re40_intermediate_r -->
<g id="node90" class="node"><title>re40_intermediate_r</title>
<ellipse fill="black" stroke="black" cx="663" cy="-426" rx="0.036" ry="0.036"/>
</g>
<!-- s122&#45;&gt;re40_intermediate_r -->
<g id="edge80" class="edge"><title>s122&#45;&gt;re40_intermediate_r</title>
<path fill="none" stroke="black" d="M604.082,-426C631.512,-426 660.862,-426 662.889,-426"/>
<polygon fill="black" stroke="black" points="603.724,-422.5 593.724,-426 603.724,-429.5 603.724,-422.5"/>
</g>
<!-- s124 -->
<g id="node22" class="node"><title>s124</title>
<ellipse fill="none" stroke="black" cx="556" cy="-480" rx="40.0132" ry="18"/>
<text text-anchor="middle" x="556" y="-477.5" font-family="Times Roman,serif" font-size="10.00">FRAT&#45;CK2</text>
</g>
<!-- s124&#45;&gt;re40_intermediate_r -->
<g id="edge82" class="edge"><title>s124&#45;&gt;re40_intermediate_r</title>
<path fill="none" stroke="black" d="M598.101,-465.821C607.495,-462.095 617.258,-457.767 626,-453 643.314,-443.558 661.806,-427.071 662.945,-426.05"/>
<polygon fill="black" stroke="black" points="596.6,-462.647 588.502,-469.478 599.093,-469.188 596.6,-462.647"/>
</g>
<!-- s135 -->
<g id="node23" class="node"><title>s135</title>
<ellipse fill="none" stroke="black" cx="1026" cy="-356" rx="107.227" ry="18"/>
<text text-anchor="middle" x="1026" y="-353.5" font-family="Times Roman,serif" font-size="10.00">Complex Dishevelled&#45;FRAT&#45;CK2</text>
</g>
<!-- re42_intermediate_m -->
<g id="node108" class="node"><title>re42_intermediate_m</title>
<ellipse fill="black" stroke="black" cx="1170" cy="-410" rx="0.036" ry="0.036"/>
</g>
<!-- s135&#45;&gt;re42_intermediate_m -->
<g id="edge106" class="edge"><title>s135&#45;&gt;re42_intermediate_m</title>
<path fill="none" stroke="black" d="M1097.42,-369.564C1109.92,-373.135 1122.57,-377.559 1134,-383 1151.49,-391.327 1168.88,-408.859 1169.95,-409.947"/>
</g>
<!-- s142 -->
<g id="node24" class="node"><title>s142</title>
<polyline fill="none" stroke="black" points="787,-449 757,-449 "/>
<path fill="none" stroke="black" d="M757,-449C751,-449 745,-443 745,-437"/>
<polyline fill="none" stroke="black" points="745,-437 745,-425 "/>
<path fill="none" stroke="black" d="M745,-425C745,-419 751,-413 757,-413"/>
<polyline fill="none" stroke="black" points="757,-413 787,-413 "/>
<path fill="none" stroke="black" d="M787,-413C793,-413 799,-419 799,-425"/>
<polyline fill="none" stroke="black" points="799,-425 799,-437 "/>
<path fill="none" stroke="black" d="M799,-437C799,-443 793,-449 787,-449"/>
<text text-anchor="middle" x="772" y="-428.5" font-family="Times Roman,serif" font-size="10.00">GSK3B</text>
</g>
<!-- re42_intermediate_r -->
<g id="node101" class="node"><title>re42_intermediate_r</title>
<ellipse fill="black" stroke="black" cx="881" cy="-453" rx="0.036" ry="0.036"/>
</g>
<!-- s142&#45;&gt;re42_intermediate_r -->
<g id="edge94" class="edge"><title>s142&#45;&gt;re42_intermediate_r</title>
<path fill="none" stroke="black" d="M809.19,-438.506C839.674,-444.659 878.222,-452.439 880.857,-452.971"/>
<polygon fill="black" stroke="black" points="809.719,-435.042 799.224,-436.495 808.334,-441.904 809.719,-435.042"/>
</g>
<!-- s144 -->
<g id="node25" class="node"><title>s144</title>
<polyline fill="none" stroke="black" points="802,-503 742,-503 "/>
<path fill="none" stroke="black" d="M742,-503C736,-503 730,-497 730,-491"/>
<polyline fill="none" stroke="black" points="730,-491 730,-479 "/>
<path fill="none" stroke="black" d="M730,-479C730,-473 736,-467 742,-467"/>
<polyline fill="none" stroke="black" points="742,-467 802,-467 "/>
<path fill="none" stroke="black" d="M802,-467C808,-467 814,-473 814,-479"/>
<polyline fill="none" stroke="black" points="814,-479 814,-491 "/>
<path fill="none" stroke="black" d="M814,-491C814,-497 808,-503 802,-503"/>
<text text-anchor="middle" x="772" y="-482.5" font-family="Times Roman,serif" font-size="10.00">Beta&#45;catenin</text>
</g>
<!-- s144&#45;&gt;re42_intermediate_r -->
<g id="edge96" class="edge"><title>s144&#45;&gt;re42_intermediate_r</title>
<path fill="none" stroke="black" d="M824.028,-469.726C851.096,-461.779 878.979,-453.593 880.895,-453.031"/>
<polygon fill="black" stroke="black" points="822.751,-466.453 814.142,-472.628 824.723,-473.169 822.751,-466.453"/>
</g>
<!-- re43_intermediate_r -->
<g id="node113" class="node"><title>re43_intermediate_r</title>
<ellipse fill="black" stroke="black" cx="881" cy="-485" rx="0.036" ry="0.036"/>
</g>
<!-- s144&#45;&gt;re43_intermediate_r -->
<g id="edge110" class="edge"><title>s144&#45;&gt;re43_intermediate_r</title>
<path fill="none" stroke="black" d="M824.384,-485C851.34,-485 878.988,-485 880.895,-485"/>
<polygon fill="black" stroke="black" points="824.142,-481.5 814.142,-485 824.142,-488.5 824.142,-481.5"/>
</g>
<!-- s146 -->
<g id="node26" class="node"><title>s146</title>
<ellipse fill="none" stroke="black" cx="1297" cy="-453" rx="89.9913" ry="18"/>
<text text-anchor="middle" x="1297" y="-450.5" font-family="Times Roman,serif" font-size="10.00">Complex GSK3B&#45;Bcatenin</text>
</g>
<!-- s147 -->
<g id="node27" class="node"><title>s147</title>
<ellipse fill="none" stroke="black" cx="1026" cy="-410" rx="86.9139" ry="18"/>
<text text-anchor="middle" x="1026" y="-407.5" font-family="Times Roman,serif" font-size="10.00">6 bromoindirubin 3`oxime</text>
</g>
<!-- s147&#45;&gt;re42_intermediate_m -->
<g id="edge104" class="edge"><title>s147&#45;&gt;re42_intermediate_m</title>
<path fill="none" stroke="black" d="M1113.5,-410C1142.71,-410 1168.35,-410 1169.92,-410"/>
</g>
<!-- re29 -->
<g id="node28" class="node"><title>re29</title>
<polygon fill="none" stroke="black" points="201,-25 187,-25 187,-11 201,-11 201,-25"/>
</g>
<!-- re29_intermediate_p -->
<g id="node32" class="node"><title>re29_intermediate_p</title>
<ellipse fill="black" stroke="black" cx="298" cy="-18" rx="0.036" ry="0.036"/>
</g>
<!-- re29&#45;&gt;re29_intermediate_p -->
<g id="edge6" class="edge"><title>re29&#45;&gt;re29_intermediate_p</title>
<path fill="none" stroke="black" d="M201.148,-18C224.278,-18 295.72,-18 297.947,-18"/>
</g>
<!-- re29&#45;&gt;re29_intermediate_m -->
<g id="edge12" class="edge"><title>re29&#45;&gt;re29_intermediate_m</title>
<path fill="none" stroke="black" d="M213.015,-20.3305C227.048,-22.5526 246.344,-26.6811 262,-34 279.552,-42.2051 296.882,-59.8517 297.948,-60.9466"/>
<polygon fill="none" stroke="black" points="212.956,-20.3224 206.469,-23.4724 201.066,-18.6962 207.553,-15.5462 212.956,-20.3224"/>
</g>
<!-- re29_intermediate_r&#45;&gt;re29 -->
<g id="edge2" class="edge"><title>re29_intermediate_r&#45;&gt;re29</title>
<path fill="none" stroke="black" d="M90.0754,-18C92.7079,-18 163.561,-18 186.739,-18"/>
</g>
<!-- re29_intermediate_p&#45;&gt;s53 -->
<g id="edge8" class="edge"><title>re29_intermediate_p&#45;&gt;s53</title>
<path fill="none" stroke="black" d="M298.057,-18.0445C299.228,-18.9589 318.216,-33.7641 334,-45 335.408,-46.0021 336.848,-47.018 338.307,-48.039"/>
<polygon fill="black" stroke="black" points="336.547,-51.0767 346.764,-53.8809 340.525,-45.3173 336.547,-51.0767"/>
</g>
<!-- re29_intermediate_p&#45;&gt;s58 -->
<g id="edge10" class="edge"><title>re29_intermediate_p&#45;&gt;s58</title>
<path fill="none" stroke="black" d="M298.055,-18C298.93,-18 310.126,-18 323.665,-18"/>
<polygon fill="black" stroke="black" points="323.823,-21.5001 333.823,-18 323.823,-14.5001 323.823,-21.5001"/>
</g>
<!-- re31 -->
<g id="node40" class="node"><title>re31</title>
<polygon fill="none" stroke="black" points="563,-80 549,-80 549,-66 563,-66 563,-80"/>
</g>
<!-- re31_intermediate_p -->
<g id="node45" class="node"><title>re31_intermediate_p</title>
<ellipse fill="black" stroke="black" cx="663" cy="-73" rx="0.036" ry="0.036"/>
</g>
<!-- re31&#45;&gt;re31_intermediate_p -->
<g id="edge24" class="edge"><title>re31&#45;&gt;re31_intermediate_p</title>
<path fill="none" stroke="black" d="M563.021,-73C586.453,-73 660.632,-73 662.945,-73"/>
</g>
<!-- re31_intermediate_r&#45;&gt;re31 -->
<g id="edge18" class="edge"><title>re31_intermediate_r&#45;&gt;re31</title>
<path fill="none" stroke="black" d="M450.077,-73C452.773,-73 525.652,-73 548.927,-73"/>
</g>
<!-- re31_intermediate_p&#45;&gt;s72 -->
<g id="edge26" class="edge"><title>re31_intermediate_p&#45;&gt;s72</title>
<path fill="none" stroke="black" d="M663.079,-73C664.121,-73 675.356,-73 690.246,-73"/>
<polygon fill="black" stroke="black" points="690.488,-76.5001 700.488,-73 690.488,-69.5001 690.488,-76.5001"/>
</g>
<!-- re32 -->
<g id="node48" class="node"><title>re32</title>
<polygon fill="none" stroke="black" points="1033,-88 1019,-88 1019,-74 1033,-74 1033,-88"/>
</g>
<!-- re32_intermediate_p -->
<g id="node52" class="node"><title>re32_intermediate_p</title>
<ellipse fill="black" stroke="black" cx="1170" cy="-117" rx="0.036" ry="0.036"/>
</g>
<!-- re32&#45;&gt;re32_intermediate_p -->
<g id="edge32" class="edge"><title>re32&#45;&gt;re32_intermediate_p</title>
<path fill="none" stroke="black" d="M1033.14,-82.3218C1050.53,-85.5992 1096.42,-94.592 1134,-105 1149.75,-109.361 1168.77,-116.534 1169.94,-116.978"/>
</g>
<!-- re32_intermediate_r&#45;&gt;re32 -->
<g id="edge28" class="edge"><title>re32_intermediate_r&#45;&gt;re32</title>
<path fill="none" stroke="black" d="M881.105,-76.0036C884.896,-76.1343 990.125,-79.7629 1018.83,-80.7527"/>
</g>
<!-- re32_intermediate_p&#45;&gt;s73 -->
<g id="edge34" class="edge"><title>re32_intermediate_p&#45;&gt;s73</title>
<path fill="none" stroke="black" d="M1170.09,-117.098C1172.91,-120.094 1239.79,-191.183 1275.3,-228.928"/>
<polygon fill="black" stroke="black" points="1272.96,-231.554 1282.36,-236.44 1278.06,-226.758 1272.96,-231.554"/>
</g>
<!-- re33 -->
<g id="node55" class="node"><title>re33</title>
<polygon fill="none" stroke="black" points="381,-178 367,-178 367,-164 381,-164 381,-178"/>
</g>
<!-- re33_intermediate_p -->
<g id="node60" class="node"><title>re33_intermediate_p</title>
<ellipse fill="black" stroke="black" cx="450" cy="-171" rx="0.036" ry="0.036"/>
</g>
<!-- re33&#45;&gt;re33_intermediate_p -->
<g id="edge42" class="edge"><title>re33&#45;&gt;re33_intermediate_p</title>
<path fill="none" stroke="black" d="M381.014,-171C399.24,-171 446.895,-171 449.856,-171"/>
</g>
<!-- re33_intermediate_r&#45;&gt;re33 -->
<g id="edge36" class="edge"><title>re33_intermediate_r&#45;&gt;re33</title>
<path fill="none" stroke="black" d="M298.055,-171C299.916,-171 348.422,-171 366.923,-171"/>
</g>
<!-- re33_intermediate_p&#45;&gt;s85 -->
<g id="edge44" class="edge"><title>re33_intermediate_p&#45;&gt;s85</title>
<path fill="none" stroke="black" d="M450.077,-171C451.07,-171 461.592,-171 475.649,-171"/>
<polygon fill="black" stroke="black" points="475.873,-174.5 485.873,-171 475.873,-167.5 475.873,-174.5"/>
</g>
<!-- re36 -->
<g id="node63" class="node"><title>re36</title>
<polygon fill="none" stroke="black" points="563,-336 549,-336 549,-322 563,-322 563,-336"/>
</g>
<!-- re36_intermediate_p -->
<g id="node68" class="node"><title>re36_intermediate_p</title>
<ellipse fill="black" stroke="black" cx="663" cy="-329" rx="0.036" ry="0.036"/>
</g>
<!-- re36&#45;&gt;re36_intermediate_p -->
<g id="edge52" class="edge"><title>re36&#45;&gt;re36_intermediate_p</title>
<path fill="none" stroke="black" d="M563.021,-329C586.453,-329 660.632,-329 662.945,-329"/>
</g>
<!-- re36&#45;&gt;re36_intermediate_m -->
<g id="edge56" class="edge"><title>re36&#45;&gt;re36_intermediate_m</title>
<path fill="none" stroke="black" d="M575.086,-332.501C589.285,-335.313 609.055,-339.667 626,-345 642.397,-350.161 661.748,-359.4 662.942,-359.972"/>
<polygon fill="none" stroke="black" points="574.845,-332.456 568.205,-335.27 563.054,-330.224 569.693,-327.41 574.845,-332.456"/>
</g>
<!-- re36_intermediate_r&#45;&gt;re36 -->
<g id="edge46" class="edge"><title>re36_intermediate_r&#45;&gt;re36</title>
<path fill="none" stroke="black" d="M450.077,-329C452.773,-329 525.652,-329 548.927,-329"/>
</g>
<!-- re36_intermediate_p&#45;&gt;s100 -->
<g id="edge54" class="edge"><title>re36_intermediate_p&#45;&gt;s100</title>
<path fill="none" stroke="black" d="M663.079,-329C664.121,-329 675.356,-329 690.246,-329"/>
<polygon fill="black" stroke="black" points="690.488,-332.5 700.488,-329 690.488,-325.5 690.488,-332.5"/>
</g>
<!-- re37 -->
<g id="node74" class="node"><title>re37</title>
<polygon fill="none" stroke="black" points="1033,-290 1019,-290 1019,-276 1033,-276 1033,-290"/>
</g>
<!-- re37_intermediate_p -->
<g id="node78" class="node"><title>re37_intermediate_p</title>
<ellipse fill="black" stroke="black" cx="1170" cy="-272" rx="0.036" ry="0.036"/>
</g>
<!-- re37&#45;&gt;re37_intermediate_p -->
<g id="edge64" class="edge"><title>re37&#45;&gt;re37_intermediate_p</title>
<path fill="none" stroke="black" d="M1033.34,-282.439C1062.22,-280.233 1166.67,-272.255 1169.92,-272.006"/>
</g>
<!-- re37_intermediate_r&#45;&gt;re37 -->
<g id="edge60" class="edge"><title>re37_intermediate_r&#45;&gt;re37</title>
<path fill="none" stroke="black" d="M881.105,-320.972C884.896,-319.979 990.125,-292.402 1018.83,-284.88"/>
</g>
<!-- re37_intermediate_p&#45;&gt;s73 -->
<g id="edge66" class="edge"><title>re37_intermediate_p&#45;&gt;s73</title>
<path fill="none" stroke="black" d="M1170.09,-271.986C1172.53,-271.602 1222.85,-263.677 1259.38,-257.924"/>
<polygon fill="black" stroke="black" points="1259.94,-261.38 1269.27,-256.367 1258.85,-254.465 1259.94,-261.38"/>
</g>
<!-- re38 -->
<g id="node81" class="node"><title>re38</title>
<polygon fill="none" stroke="black" points="563,-282 549,-282 549,-268 563,-268 563,-282"/>
</g>
<!-- re38_intermediate_p -->
<g id="node86" class="node"><title>re38_intermediate_p</title>
<ellipse fill="black" stroke="black" cx="663" cy="-275" rx="0.036" ry="0.036"/>
</g>
<!-- re38&#45;&gt;re38_intermediate_p -->
<g id="edge74" class="edge"><title>re38&#45;&gt;re38_intermediate_p</title>
<path fill="none" stroke="black" d="M563.021,-275C586.453,-275 660.632,-275 662.945,-275"/>
</g>
<!-- re38_intermediate_r&#45;&gt;re38 -->
<g id="edge68" class="edge"><title>re38_intermediate_r&#45;&gt;re38</title>
<path fill="none" stroke="black" d="M450.077,-275C452.773,-275 525.652,-275 548.927,-275"/>
</g>
<!-- re38_intermediate_p&#45;&gt;s111 -->
<g id="edge76" class="edge"><title>re38_intermediate_p&#45;&gt;s111</title>
<path fill="none" stroke="black" d="M663.079,-275C664.173,-275 676.517,-275 692.529,-275"/>
<polygon fill="black" stroke="black" points="692.906,-278.5 702.906,-275 692.906,-271.5 692.906,-278.5"/>
</g>
<!-- re40 -->
<g id="node89" class="node"><title>re40</title>
<polygon fill="none" stroke="black" points="779,-379 765,-379 765,-365 779,-365 779,-379"/>
</g>
<!-- re40_intermediate_p -->
<g id="node94" class="node"><title>re40_intermediate_p</title>
<ellipse fill="black" stroke="black" cx="881" cy="-364" rx="0.036" ry="0.036"/>
</g>
<!-- re40&#45;&gt;re40_intermediate_p -->
<g id="edge84" class="edge"><title>re40&#45;&gt;re40_intermediate_p</title>
<path fill="none" stroke="black" d="M779.152,-371.475C803.022,-369.723 878.588,-364.177 880.944,-364.004"/>
</g>
<!-- re40&#45;&gt;re40_intermediate_m -->
<g id="edge88" class="edge"><title>re40&#45;&gt;re40_intermediate_m</title>
<path fill="none" stroke="black" d="M791.435,-372.03C807.094,-371.108 828.911,-367.579 844,-356 871.347,-335.014 880.433,-288.057 880.974,-285.142"/>
<polygon fill="none" stroke="black" points="791.153,-372.036 785.243,-376.167 779.156,-372.3 785.066,-368.169 791.153,-372.036"/>
</g>
<!-- re40_intermediate_r&#45;&gt;re40 -->
<g id="edge78" class="edge"><title>re40_intermediate_r&#45;&gt;re40</title>
<path fill="none" stroke="black" d="M663.058,-425.962C664.247,-425.179 683.538,-412.515 700,-404 723.085,-392.06 751.564,-380.216 764.714,-374.903"/>
</g>
<!-- re40_intermediate_p&#45;&gt;s135 -->
<g id="edge86" class="edge"><title>re40_intermediate_p&#45;&gt;s135</title>
<path fill="none" stroke="black" d="M881.105,-363.994C882.406,-363.922 895.661,-363.191 913.671,-362.197"/>
<polygon fill="black" stroke="black" points="914.008,-365.684 923.8,-361.639 913.622,-358.695 914.008,-365.684"/>
</g>
<!-- re42 -->
<g id="node100" class="node"><title>re42</title>
<polygon fill="none" stroke="black" points="1033,-460 1019,-460 1019,-446 1033,-446 1033,-460"/>
</g>
<!-- re42_intermediate_p -->
<g id="node105" class="node"><title>re42_intermediate_p</title>
<ellipse fill="black" stroke="black" cx="1170" cy="-453" rx="0.036" ry="0.036"/>
</g>
<!-- re42&#45;&gt;re42_intermediate_p -->
<g id="edge98" class="edge"><title>re42&#45;&gt;re42_intermediate_p</title>
<path fill="none" stroke="black" d="M1033.34,-453C1062.22,-453 1166.67,-453 1169.92,-453"/>
</g>
<!-- re42&#45;&gt;re42_intermediate_m -->
<g id="edge102" class="edge"><title>re42&#45;&gt;re42_intermediate_m</title>
<path fill="none" stroke="black" d="M1045.35,-452.967C1067.58,-452.297 1104.73,-449.214 1134,-437 1151.88,-429.539 1168.9,-411.195 1169.95,-410.056"/>
<polygon fill="none" stroke="black" points="1045.14,-452.97 1039.19,-457.05 1033.14,-453.131 1039.09,-449.051 1045.14,-452.97"/>
</g>
<!-- re42_intermediate_r&#45;&gt;re42 -->
<g id="edge92" class="edge"><title>re42_intermediate_r&#45;&gt;re42</title>
<path fill="none" stroke="black" d="M881.105,-453C884.896,-453 990.125,-453 1018.83,-453"/>
</g>
<!-- re42_intermediate_p&#45;&gt;s146 -->
<g id="edge100" class="edge"><title>re42_intermediate_p&#45;&gt;s146</title>
<path fill="none" stroke="black" d="M1170.09,-453C1171.18,-453 1181.74,-453 1196.35,-453"/>
<polygon fill="black" stroke="black" points="1196.48,-456.5 1206.48,-453 1196.48,-449.5 1196.48,-456.5"/>
</g>
<!-- re43 -->
<g id="node112" class="node"><title>re43</title>
<polygon fill="none" stroke="black" points="1033,-492 1019,-492 1019,-478 1033,-478 1033,-492"/>
</g>
<!-- re43_intermediate_p -->
<g id="node116" class="node"><title>re43_intermediate_p</title>
<ellipse fill="black" stroke="black" cx="1170" cy="-478" rx="0.036" ry="0.036"/>
</g>
<!-- re43&#45;&gt;re43_intermediate_p -->
<g id="edge112" class="edge"><title>re43&#45;&gt;re43_intermediate_p</title>
<path fill="none" stroke="black" d="M1033.34,-484.643C1062.22,-483.239 1166.67,-478.162 1169.92,-478.004"/>
</g>
<!-- re43_intermediate_r&#45;&gt;re43 -->
<g id="edge108" class="edge"><title>re43_intermediate_r&#45;&gt;re43</title>
<path fill="none" stroke="black" d="M881.105,-485C884.896,-485 990.125,-485 1018.83,-485"/>
</g>
<!-- re43_intermediate_p&#45;&gt;s73 -->
<g id="edge114" class="edge"><title>re43_intermediate_p&#45;&gt;s73</title>
<path fill="none" stroke="black" d="M1170.09,-477.836C1173.11,-472.468 1249.49,-336.549 1282.27,-278.206"/>
<polygon fill="black" stroke="black" points="1285.48,-279.651 1287.32,-269.219 1279.37,-276.222 1285.48,-279.651"/>
</g>
<!-- re34 -->
<g id="node119" class="node"><title>re34</title>
<polygon fill="none" stroke="black" points="563,-221 549,-221 549,-207 563,-207 563,-221"/>
</g>
<!-- re34_intermediate_p -->
<g id="node123" class="node"><title>re34_intermediate_p</title>
<ellipse fill="black" stroke="black" cx="663" cy="-217" rx="0.036" ry="0.036"/>
</g>
<!-- re34&#45;&gt;re34_intermediate_p -->
<g id="edge120" class="edge"><title>re34&#45;&gt;re34_intermediate_p</title>
<path fill="none" stroke="black" d="M563.021,-214.197C586.453,-214.854 660.632,-216.934 662.945,-216.998"/>
</g>
<!-- re34&#45;&gt;re34_intermediate_m -->
<g id="edge124" class="edge"><title>re34&#45;&gt;re34_intermediate_m</title>
<path fill="none" stroke="black" d="M575.409,-213.22C590.324,-211.801 610.867,-208 626,-198 648.633,-183.044 662.138,-149.203 662.96,-147.102"/>
<polygon fill="none" stroke="black" points="575.17,-213.234 569.429,-217.597 563.193,-213.974 568.935,-209.612 575.17,-213.234"/>
</g>
<!-- re34_intermediate_r&#45;&gt;re34 -->
<g id="edge116" class="edge"><title>re34_intermediate_r&#45;&gt;re34</title>
<path fill="none" stroke="black" d="M880.927,-188.999C877.855,-188.95 778.946,-187.447 700,-194 647.178,-198.384 584.118,-209.034 563.161,-212.719"/>
</g>
<!-- re34_intermediate_p&#45;&gt;s88 -->
<g id="edge122" class="edge"><title>re34_intermediate_p&#45;&gt;s88</title>
<path fill="none" stroke="black" d="M663.079,-217.003C665.066,-217.076 704.119,-218.509 734.9,-219.639"/>
<polygon fill="black" stroke="black" points="734.834,-223.138 744.956,-220.008 735.091,-216.143 734.834,-223.138"/>
</g>
<!-- re35 -->
<g id="node130" class="node"><title>re35</title>
<polygon fill="none" stroke="black" points="1033,-228 1019,-228 1019,-214 1033,-214 1033,-228"/>
</g>
<!-- re35_intermediate_p -->
<g id="node134" class="node"><title>re35_intermediate_p</title>
<ellipse fill="black" stroke="black" cx="1170" cy="-232" rx="0.036" ry="0.036"/>
</g>
<!-- re35&#45;&gt;re35_intermediate_p -->
<g id="edge134" class="edge"><title>re35&#45;&gt;re35_intermediate_p</title>
<path fill="none" stroke="black" d="M1033.34,-221.561C1062.22,-223.767 1166.67,-231.745 1169.92,-231.994"/>
</g>
<!-- re35&#45;&gt;re35_intermediate_m -->
<g id="edge138" class="edge"><title>re35&#45;&gt;re35_intermediate_m</title>
<path fill="none" stroke="black" d="M1044.79,-214.344C1083.13,-200.767 1167.01,-171.059 1169.92,-170.028"/>
<polygon fill="none" stroke="black" points="1044.65,-214.395 1040.33,-220.168 1033.34,-218.401 1037.66,-212.627 1044.65,-214.395"/>
</g>
<!-- re35_intermediate_r&#45;&gt;re35 -->
<g id="edge130" class="edge"><title>re35_intermediate_r&#45;&gt;re35</title>
<path fill="none" stroke="black" d="M881.105,-221C884.896,-221 990.125,-221 1018.83,-221"/>
</g>
<!-- re35_intermediate_p&#45;&gt;s73 -->
<g id="edge136" class="edge"><title>re35_intermediate_p&#45;&gt;s73</title>
<path fill="none" stroke="black" d="M1170.09,-232.014C1172.53,-232.398 1222.85,-240.323 1259.38,-246.076"/>
<polygon fill="black" stroke="black" points="1258.85,-249.535 1269.27,-247.633 1259.94,-242.62 1258.85,-249.535"/>
</g>
</g>
</svg>
