<?xml version="1.0" encoding="UTF-8" standalone="no"?>
<!DOCTYPE svg PUBLIC "-//W3C//DTD SVG 1.1//EN"
 "http://www.w3.org/Graphics/SVG/1.1/DTD/svg11.dtd">
<!-- Generated by graphviz version 2.24.0 (20090616.2323)
 -->
<!-- Title: G Pages: 1 -->
<svg width="1150pt" height="581pt"
 viewBox="0.00 0.00 1150.00 581.00" xmlns="http://www.w3.org/2000/svg" xmlns:xlink="http://www.w3.org/1999/xlink">
<g id="graph1" class="graph" transform="scale(1 1) rotate(0) translate(4 577)">
<title>G</title>
<polygon fill="white" stroke="white" points="-4,5 -4,-577 1147,-577 1147,5 -4,5"/>
<!-- D_1 -->
<g id="node1" class="node"><title>D_1</title>
<polyline fill="none" stroke="black" points="540,-537 510,-537 "/>
<path fill="none" stroke="black" d="M510,-537C504,-537 498,-531 498,-525"/>
<polyline fill="none" stroke="black" points="498,-525 498,-513 "/>
<path fill="none" stroke="black" d="M498,-513C498,-507 504,-501 510,-501"/>
<polyline fill="none" stroke="black" points="510,-501 540,-501 "/>
<path fill="none" stroke="black" d="M540,-501C546,-501 552,-507 552,-513"/>
<polyline fill="none" stroke="black" points="552,-513 552,-525 "/>
<path fill="none" stroke="black" d="M552,-525C552,-531 546,-537 540,-537"/>
<text text-anchor="middle" x="525" y="-516.5" font-family="Times Roman,serif" font-size="10.00">D</text>
</g>
<!-- cyclinD_1_intermediate_r -->
<g id="node14" class="node"><title>cyclinD_1_intermediate_r</title>
<ellipse fill="black" stroke="black" cx="615" cy="-550" rx="0.036" ry="0.036"/>
</g>
<!-- D_1&#45;&gt;cyclinD_1_intermediate_r -->
<g id="edge10" class="edge"><title>D_1&#45;&gt;cyclinD_1_intermediate_r</title>
<path fill="none" stroke="black" d="M552.003,-528.301C577.685,-537.147 612.729,-549.218 614.895,-549.964"/>
</g>
<!-- cyclinD_1_intermediate_m -->
<g id="node19" class="node"><title>cyclinD_1_intermediate_m</title>
<ellipse fill="black" stroke="black" cx="795" cy="-519" rx="0.036" ry="0.036"/>
</g>
<!-- D_1&#45;&gt;cyclinD_1_intermediate_m -->
<g id="edge16" class="edge"><title>D_1&#45;&gt;cyclinD_1_intermediate_m</title>
<path fill="none" stroke="black" d="M552.125,-519C619.523,-519 789.576,-519 794.873,-519"/>
</g>
<!-- _2_intermediate_m -->
<g id="node68" class="node"><title>_2_intermediate_m</title>
<ellipse fill="black" stroke="black" cx="795" cy="-224" rx="0.036" ry="0.036"/>
</g>
<!-- D_1&#45;&gt;_2_intermediate_m -->
<g id="edge78" class="edge"><title>D_1&#45;&gt;_2_intermediate_m</title>
<path fill="none" stroke="black" d="M538.698,-500.854C550.798,-485.413 569.369,-463.085 588,-446 609.819,-425.991 624.997,-431.235 642,-407 675.45,-359.323 640.575,-325.625 678,-281 714.589,-237.373 792.516,-224.404 794.942,-224.009"/>
</g>
<!-- E_1 -->
<g id="node2" class="node"><title>E_1</title>
<polyline fill="none" stroke="black" points="720,-434 690,-434 "/>
<path fill="none" stroke="black" d="M690,-434C684,-434 678,-428 678,-422"/>
<polyline fill="none" stroke="black" points="678,-422 678,-410 "/>
<path fill="none" stroke="black" d="M678,-410C678,-404 684,-398 690,-398"/>
<polyline fill="none" stroke="black" points="690,-398 720,-398 "/>
<path fill="none" stroke="black" d="M720,-398C726,-398 732,-404 732,-410"/>
<polyline fill="none" stroke="black" points="732,-410 732,-422 "/>
<path fill="none" stroke="black" d="M732,-422C732,-428 726,-434 720,-434"/>
<text text-anchor="middle" x="705" y="-413.5" font-family="Times Roman,serif" font-size="10.00">E</text>
</g>
<!-- E_1&#45;&gt;cyclinD_1_intermediate_m -->
<g id="edge18" class="edge"><title>E_1&#45;&gt;cyclinD_1_intermediate_m</title>
<path fill="none" stroke="black" d="M717.011,-434.239C734.788,-461.189 766.213,-508.638 768,-510 777.747,-517.426 793.948,-518.91 794.951,-518.996"/>
</g>
<!-- cyclinEdegradation_1_intermediate_r -->
<g id="node33" class="node"><title>cyclinEdegradation_1_intermediate_r</title>
<ellipse fill="black" stroke="black" cx="795" cy="-369" rx="0.036" ry="0.036"/>
</g>
<!-- E_1&#45;&gt;cyclinEdegradation_1_intermediate_r -->
<g id="edge32" class="edge"><title>E_1&#45;&gt;cyclinEdegradation_1_intermediate_r</title>
<path fill="none" stroke="black" d="M732.276,-401.681C743.356,-395.873 756.284,-389.106 768,-383 779.238,-377.143 793.135,-369.963 794.828,-369.089"/>
</g>
<!-- cyclinEdegradation_1_intermediate_m -->
<g id="node38" class="node"><title>cyclinEdegradation_1_intermediate_m</title>
<ellipse fill="black" stroke="black" cx="975" cy="-397" rx="0.036" ry="0.036"/>
</g>
<!-- E_1&#45;&gt;cyclinEdegradation_1_intermediate_m -->
<g id="edge40" class="edge"><title>E_1&#45;&gt;cyclinEdegradation_1_intermediate_m</title>
<path fill="none" stroke="black" d="M732.125,-414.091C799.523,-409.348 969.576,-397.382 974.873,-397.009"/>
</g>
<!-- null2_1_intermediate_m -->
<g id="node79" class="node"><title>null2_1_intermediate_m</title>
<ellipse fill="black" stroke="black" cx="795" cy="-313" rx="0.036" ry="0.036"/>
</g>
<!-- E_1&#45;&gt;null2_1_intermediate_m -->
<g id="edge92" class="edge"><title>E_1&#45;&gt;null2_1_intermediate_m</title>
<path fill="none" stroke="black" d="M721.09,-397.586C746.168,-368.885 792.02,-316.41 794.861,-313.159"/>
</g>
<!-- cellcycleprogression_1_intermediate_m -->
<g id="node108" class="node"><title>cellcycleprogression_1_intermediate_m</title>
<ellipse fill="black" stroke="black" cx="975" cy="-440" rx="0.036" ry="0.036"/>
</g>
<!-- E_1&#45;&gt;cellcycleprogression_1_intermediate_m -->
<g id="edge124" class="edge"><title>E_1&#45;&gt;cellcycleprogression_1_intermediate_m</title>
<path fill="none" stroke="black" d="M732.125,-418.411C799.523,-424.402 969.576,-439.518 974.873,-439.989"/>
</g>
<!-- R_1 -->
<g id="node3" class="node"><title>R_1</title>
<polyline fill="none" stroke="black" points="220,-64 190,-64 "/>
<path fill="none" stroke="black" d="M190,-64C184,-64 178,-58 178,-52"/>
<polyline fill="none" stroke="black" points="178,-52 178,-40 "/>
<path fill="none" stroke="black" d="M178,-40C178,-34 184,-28 190,-28"/>
<polyline fill="none" stroke="black" points="190,-28 220,-28 "/>
<path fill="none" stroke="black" d="M220,-28C226,-28 232,-34 232,-40"/>
<polyline fill="none" stroke="black" points="232,-40 232,-52 "/>
<path fill="none" stroke="black" d="M232,-52C232,-58 226,-64 220,-64"/>
<text text-anchor="middle" x="205" y="-43.5" font-family="Times Roman,serif" font-size="10.00">R</text>
</g>
<!-- pRBsynthesis_1_intermediate_m -->
<g id="node48" class="node"><title>pRBsynthesis_1_intermediate_m</title>
<ellipse fill="black" stroke="black" cx="975" cy="-58" rx="0.036" ry="0.036"/>
</g>
<!-- R_1&#45;&gt;pRBsynthesis_1_intermediate_m -->
<g id="edge52" class="edge"><title>R_1&#45;&gt;pRBsynthesis_1_intermediate_m</title>
<path fill="none" stroke="black" d="M232.157,-43.814C263.97,-41.4453 318.275,-38 365,-38 365,-38 365,-38 795,-38 874.235,-38 971.895,-57.3799 974.928,-57.9855"/>
</g>
<!-- pRBdeplation_1_intermediate_r -->
<g id="node54" class="node"><title>pRBdeplation_1_intermediate_r</title>
<ellipse fill="black" stroke="black" cx="295" cy="-76" rx="0.036" ry="0.036"/>
</g>
<!-- R_1&#45;&gt;pRBdeplation_1_intermediate_r -->
<g id="edge58" class="edge"><title>R_1&#45;&gt;pRBdeplation_1_intermediate_r</title>
<path fill="none" stroke="black" d="M232.003,-55.001C257.685,-63.5615 292.729,-75.2431 294.895,-75.9648"/>
</g>
<!-- RS_1 -->
<g id="node4" class="node"><title>RS_1</title>
<polyline fill="none" stroke="black" points="540,-228 510,-228 "/>
<path fill="none" stroke="black" d="M510,-228C504,-228 498,-222 498,-216"/>
<polyline fill="none" stroke="black" points="498,-216 498,-204 "/>
<path fill="none" stroke="black" d="M498,-204C498,-198 504,-192 510,-192"/>
<polyline fill="none" stroke="black" points="510,-192 540,-192 "/>
<path fill="none" stroke="black" d="M540,-192C546,-192 552,-198 552,-204"/>
<polyline fill="none" stroke="black" points="552,-204 552,-216 "/>
<path fill="none" stroke="black" d="M552,-216C552,-222 546,-228 540,-228"/>
<text text-anchor="middle" x="525" y="-207.5" font-family="Times Roman,serif" font-size="10.00">RS</text>
</g>
<!-- RS_1&#45;&gt;pRBsynthesis_1_intermediate_m -->
<g id="edge50" class="edge"><title>RS_1&#45;&gt;pRBsynthesis_1_intermediate_m</title>
<path fill="none" stroke="black" d="M534.724,-191.948C545.361,-174.036 564.123,-147.255 588,-133 737.253,-43.8886 971.309,-57.7749 974.957,-57.9973"/>
</g>
<!-- _2_intermediate_r -->
<g id="node62" class="node"><title>_2_intermediate_r</title>
<ellipse fill="black" stroke="black" cx="615" cy="-196" rx="0.036" ry="0.036"/>
</g>
<!-- RS_1&#45;&gt;_2_intermediate_r -->
<g id="edge68" class="edge"><title>RS_1&#45;&gt;_2_intermediate_r</title>
<path fill="none" stroke="black" d="M552.003,-205.8C577.685,-201.805 612.729,-196.353 614.895,-196.016"/>
</g>
<!-- RS_1&#45;&gt;_2_intermediate_m -->
<g id="edge76" class="edge"><title>RS_1&#45;&gt;_2_intermediate_m</title>
<path fill="none" stroke="black" d="M552.125,-211.406C619.523,-214.901 789.576,-223.719 794.873,-223.993"/>
</g>
<!-- null2_1_intermediate_r -->
<g id="node73" class="node"><title>null2_1_intermediate_r</title>
<ellipse fill="black" stroke="black" cx="615" cy="-275" rx="0.036" ry="0.036"/>
</g>
<!-- RS_1&#45;&gt;null2_1_intermediate_r -->
<g id="edge82" class="edge"><title>RS_1&#45;&gt;null2_1_intermediate_r</title>
<path fill="none" stroke="black" d="M550.07,-228.106C575.868,-246.738 612.618,-273.279 614.889,-274.92"/>
</g>
<!-- RS_1&#45;&gt;null2_1_intermediate_m -->
<g id="edge90" class="edge"><title>RS_1&#45;&gt;null2_1_intermediate_m</title>
<path fill="none" stroke="black" d="M536.093,-228.042C547.265,-244.792 565.968,-269.293 588,-284 664.057,-334.772 790.959,-313.687 794.906,-313.016"/>
</g>
<!-- theta_1 -->
<g id="node5" class="node"><title>theta_1</title>
<polyline fill="none" stroke="black" points="900,-238 870,-238 "/>
<path fill="none" stroke="black" d="M870,-238C864,-238 858,-232 858,-226"/>
<polyline fill="none" stroke="black" points="858,-226 858,-214 "/>
<path fill="none" stroke="black" d="M858,-214C858,-208 864,-202 870,-202"/>
<polyline fill="none" stroke="black" points="870,-202 900,-202 "/>
<path fill="none" stroke="black" d="M900,-202C906,-202 912,-208 912,-214"/>
<polyline fill="none" stroke="black" points="912,-214 912,-226 "/>
<path fill="none" stroke="black" d="M912,-226C912,-232 906,-238 900,-238"/>
<text text-anchor="middle" x="885" y="-217.5" font-family="Times Roman,serif" font-size="10.00">theta</text>
</g>
<!-- cyclinEsynthesis_1_intermediate_m -->
<g id="node29" class="node"><title>cyclinEsynthesis_1_intermediate_m</title>
<ellipse fill="black" stroke="black" cx="975" cy="-311" rx="0.036" ry="0.036"/>
</g>
<!-- theta_1&#45;&gt;cyclinEsynthesis_1_intermediate_m -->
<g id="edge28" class="edge"><title>theta_1&#45;&gt;cyclinEsynthesis_1_intermediate_m</title>
<path fill="none" stroke="black" d="M903.213,-238.415C928.689,-264.175 972.176,-308.144 974.869,-310.867"/>
</g>
<!-- theta_1&#45;&gt;pRBdeplation_1_intermediate_r -->
<g id="edge60" class="edge"><title>theta_1&#45;&gt;pRBdeplation_1_intermediate_r</title>
<path fill="none" stroke="black" d="M866.528,-201.762C825.229,-163.014 720.719,-76 615,-76 435,-76 435,-76 435,-76 373.75,-76 297.427,-76 295.057,-76"/>
</g>
<!-- null3_1_intermediate_m -->
<g id="node89" class="node"><title>null3_1_intermediate_m</title>
<ellipse fill="black" stroke="black" cx="975" cy="-180" rx="0.036" ry="0.036"/>
</g>
<!-- theta_1&#45;&gt;null3_1_intermediate_m -->
<g id="edge102" class="edge"><title>theta_1&#45;&gt;null3_1_intermediate_m</title>
<path fill="none" stroke="black" d="M912.003,-207.999C937.685,-196.585 972.729,-181.009 974.895,-180.047"/>
</g>
<!-- E2Fdegradationviacellcycleprogression_1_intermediate_r -->
<g id="node93" class="node"><title>E2Fdegradationviacellcycleprogression_1_intermediate_r</title>
<ellipse fill="black" stroke="black" cx="975" cy="-220" rx="0.036" ry="0.036"/>
</g>
<!-- theta_1&#45;&gt;E2Fdegradationviacellcycleprogression_1_intermediate_r -->
<g id="edge106" class="edge"><title>theta_1&#45;&gt;E2Fdegradationviacellcycleprogression_1_intermediate_r</title>
<path fill="none" stroke="black" d="M912.003,-220C937.685,-220 972.729,-220 974.895,-220"/>
</g>
<!-- E2Fdegradationviacellcycleprogression_1_intermediate_m -->
<g id="node98" class="node"><title>E2Fdegradationviacellcycleprogression_1_intermediate_m</title>
<ellipse fill="black" stroke="black" cx="1115" cy="-256" rx="0.036" ry="0.036"/>
</g>
<!-- theta_1&#45;&gt;E2Fdegradationviacellcycleprogression_1_intermediate_m -->
<g id="edge112" class="edge"><title>theta_1&#45;&gt;E2Fdegradationviacellcycleprogression_1_intermediate_m</title>
<path fill="none" stroke="black" d="M912.287,-224.271C972.26,-233.658 1110.59,-255.31 1114.9,-255.984"/>
</g>
<!-- theta_1&#45;&gt;cellcycleprogression_1_intermediate_m -->
<g id="edge126" class="edge"><title>theta_1&#45;&gt;cellcycleprogression_1_intermediate_m</title>
<path fill="none" stroke="black" d="M888.91,-238.017C896.801,-272.239 916.601,-348.368 948,-406 956.943,-422.415 973.898,-438.934 974.949,-439.951"/>
</g>
<!-- X_1 -->
<g id="node6" class="node"><title>X_1</title>
<ellipse fill="none" stroke="black" cx="885" cy="-519" rx="27" ry="18"/>
<text text-anchor="middle" x="885" y="-516.5" font-family="Times Roman,serif" font-size="10.00">X</text>
</g>
<!-- X_1&#45;&gt;cyclinEdegradation_1_intermediate_m -->
<g id="edge38" class="edge"><title>X_1&#45;&gt;cyclinEdegradation_1_intermediate_m</title>
<path fill="none" stroke="black" d="M896.372,-502.605C908.808,-484.797 929.444,-455.601 948,-431 959.257,-416.076 974.042,-398.159 974.956,-397.054"/>
</g>
<!-- X_1&#45;&gt;pRBsynthesis_1_intermediate_m -->
<g id="edge54" class="edge"><title>X_1&#45;&gt;pRBsynthesis_1_intermediate_m</title>
<path fill="none" stroke="black" d="M888.594,-500.766C893.865,-473.912 903.938,-422.133 912,-378 928.782,-286.139 929.14,-262.457 948,-171 958.266,-121.218 974.484,-59.948 974.988,-58.0454"/>
</g>
<!-- X_1&#45;&gt;E2Fdegradationviacellcycleprogression_1_intermediate_m -->
<g id="edge114" class="edge"><title>X_1&#45;&gt;E2Fdegradationviacellcycleprogression_1_intermediate_m</title>
<path fill="none" stroke="black" d="M907.961,-509.479C933.362,-498.061 974.348,-476.916 1002,-449 1070.86,-379.486 1113.65,-259.812 1114.97,-256.089"/>
</g>
<!-- X_1&#45;&gt;cellcycleprogression_1_intermediate_m -->
<g id="edge128" class="edge"><title>X_1&#45;&gt;cellcycleprogression_1_intermediate_m</title>
<path fill="none" stroke="black" d="M900.467,-504.09C913.024,-492.15 931.321,-475.122 948,-461 959.24,-451.484 974.041,-440.697 974.955,-440.032"/>
</g>
<!-- cellcycleprogressionslow_1_intermediate_r -->
<g id="node114" class="node"><title>cellcycleprogressionslow_1_intermediate_r</title>
<ellipse fill="black" stroke="black" cx="975" cy="-516" rx="0.036" ry="0.036"/>
</g>
<!-- X_1&#45;&gt;cellcycleprogressionslow_1_intermediate_r -->
<g id="edge132" class="edge"><title>X_1&#45;&gt;cellcycleprogressionslow_1_intermediate_r</title>
<path fill="none" stroke="black" d="M912.003,-518.1C937.685,-517.244 972.729,-516.076 974.895,-516.004"/>
</g>
<!-- cellcycleprogressionslow_1_intermediate_m -->
<g id="node119" class="node"><title>cellcycleprogressionslow_1_intermediate_m</title>
<ellipse fill="black" stroke="black" cx="1115" cy="-547" rx="0.036" ry="0.036"/>
</g>
<!-- X_1&#45;&gt;cellcycleprogressionslow_1_intermediate_m -->
<g id="edge138" class="edge"><title>X_1&#45;&gt;cellcycleprogressionslow_1_intermediate_m</title>
<path fill="none" stroke="black" d="M911.834,-522.267C971.558,-529.537 1110.57,-546.46 1114.9,-546.987"/>
</g>
<!-- _1 -->
<g id="node7" class="node"><title>_1</title>
<polygon fill="none" stroke="black" points="372,-526 358,-526 358,-512 372,-512 372,-526"/>
</g>
<!-- _1_intermediate_p -->
<g id="node10" class="node"><title>_1_intermediate_p</title>
<ellipse fill="black" stroke="black" cx="435" cy="-519" rx="0.036" ry="0.036"/>
</g>
<!-- _1&#45;&gt;_1_intermediate_p -->
<g id="edge4" class="edge"><title>_1&#45;&gt;_1_intermediate_p</title>
<path fill="none" stroke="black" d="M372.228,-519C389.554,-519 432.221,-519 434.871,-519"/>
</g>
<!-- _1_empty -->
<g id="node8" class="node"><title>_1_empty</title>
<text text-anchor="middle" x="295" y="-514.5" font-family="Times Roman,serif" font-size="15.00" fill="blue">Ø</text>
</g>
<!-- _1_empty&#45;&gt;_1 -->
<g id="edge2" class="edge"><title>_1_empty&#45;&gt;_1</title>
<path fill="none" stroke="black" d="M322.264,-519C335.163,-519 349.537,-519 357.895,-519"/>
</g>
<!-- _1_intermediate_p&#45;&gt;D_1 -->
<g id="edge6" class="edge"><title>_1_intermediate_p&#45;&gt;D_1</title>
<path fill="none" stroke="black" d="M435.065,-519C436.565,-519 463.648,-519 487.704,-519"/>
<polygon fill="black" stroke="black" points="487.745,-522.5 497.745,-519 487.745,-515.5 487.745,-522.5"/>
</g>
<!-- cyclinD_1 -->
<g id="node13" class="node"><title>cyclinD_1</title>
<polygon fill="none" stroke="black" points="712,-561 698,-561 698,-547 712,-547 712,-561"/>
</g>
<!-- cyclinD_1_empty -->
<g id="node17" class="node"><title>cyclinD_1_empty</title>
<text text-anchor="middle" x="795" y="-550.5" font-family="Times Roman,serif" font-size="15.00" fill="blue">Ø</text>
</g>
<!-- cyclinD_1&#45;&gt;cyclinD_1_empty -->
<g id="edge12" class="edge"><title>cyclinD_1&#45;&gt;cyclinD_1_empty</title>
<path fill="none" stroke="black" d="M712.062,-554.078C721.877,-554.188 740.359,-554.393 757.389,-554.582"/>
<polygon fill="black" stroke="black" points="757.676,-558.085 767.715,-554.697 757.754,-551.086 757.676,-558.085"/>
</g>
<!-- cyclinD_1&#45;&gt;cyclinD_1_intermediate_m -->
<g id="edge14" class="edge"><title>cyclinD_1&#45;&gt;cyclinD_1_intermediate_m</title>
<path fill="none" stroke="black" d="M723.456,-545.986C735.943,-540.662 752.858,-533.64 768,-528 779.483,-523.723 794.057,-519.286 794.956,-519.013"/>
<polygon fill="none" stroke="black" points="723.326,-546.042 719.399,-552.09 712.306,-550.79 716.233,-544.743 723.326,-546.042"/>
</g>
<!-- cyclinD_1_intermediate_r&#45;&gt;cyclinD_1 -->
<g id="edge8" class="edge"><title>cyclinD_1_intermediate_r&#45;&gt;cyclinD_1</title>
<path fill="none" stroke="black" d="M615.065,-550.003C617.311,-550.103 676.951,-552.753 697.848,-553.682"/>
</g>
<!-- cyclinEsynthesis_1 -->
<g id="node23" class="node"><title>cyclinEsynthesis_1</title>
<polygon fill="none" stroke="black" points="532,-391 518,-391 518,-377 532,-377 532,-391"/>
</g>
<!-- cyclinEsynthesis_1_intermediate_p -->
<g id="node26" class="node"><title>cyclinEsynthesis_1_intermediate_p</title>
<ellipse fill="black" stroke="black" cx="615" cy="-398" rx="0.036" ry="0.036"/>
</g>
<!-- cyclinEsynthesis_1&#45;&gt;cyclinEsynthesis_1_intermediate_p -->
<g id="edge22" class="edge"><title>cyclinEsynthesis_1&#45;&gt;cyclinEsynthesis_1_intermediate_p</title>
<path fill="none" stroke="black" d="M532.062,-385.099C552.947,-388.347 613.081,-397.702 614.955,-397.993"/>
</g>
<!-- cyclinEsynthesis_1&#45;&gt;cyclinEsynthesis_1_intermediate_m -->
<g id="edge26" class="edge"><title>cyclinEsynthesis_1&#45;&gt;cyclinEsynthesis_1_intermediate_m</title>
<path fill="none" stroke="black" d="M544.174,-380.889C629.328,-367.076 969.318,-311.922 974.93,-311.011"/>
<polygon fill="none" stroke="black" points="543.914,-380.932 538.632,-385.841 532.068,-382.853 537.35,-377.944 543.914,-380.932"/>
</g>
<!-- cyclinEsynthesis_1_empty -->
<g id="node24" class="node"><title>cyclinEsynthesis_1_empty</title>
<text text-anchor="middle" x="435" y="-379.5" font-family="Times Roman,serif" font-size="15.00" fill="blue">Ø</text>
</g>
<!-- cyclinEsynthesis_1_empty&#45;&gt;cyclinEsynthesis_1 -->
<g id="edge20" class="edge"><title>cyclinEsynthesis_1_empty&#45;&gt;cyclinEsynthesis_1</title>
<path fill="none" stroke="black" d="M462.003,-384C481.264,-384 505.792,-384 517.766,-384"/>
</g>
<!-- cyclinEsynthesis_1_intermediate_p&#45;&gt;E_1 -->
<g id="edge24" class="edge"><title>cyclinEsynthesis_1_intermediate_p&#45;&gt;E_1</title>
<path fill="none" stroke="black" d="M615.065,-398.013C616.565,-398.313 643.648,-403.73 667.704,-408.541"/>
<polygon fill="black" stroke="black" points="667.253,-412.02 677.745,-410.549 668.626,-405.156 667.253,-412.02"/>
</g>
<!-- cyclinEdegradation_1 -->
<g id="node32" class="node"><title>cyclinEdegradation_1</title>
<polygon fill="none" stroke="black" points="892,-369 878,-369 878,-355 892,-355 892,-369"/>
</g>
<!-- cyclinEdegradation_1_empty -->
<g id="node36" class="node"><title>cyclinEdegradation_1_empty</title>
<text text-anchor="middle" x="975" y="-356.5" font-family="Times Roman,serif" font-size="15.00" fill="blue">Ø</text>
</g>
<!-- cyclinEdegradation_1&#45;&gt;cyclinEdegradation_1_empty -->
<g id="edge34" class="edge"><title>cyclinEdegradation_1&#45;&gt;cyclinEdegradation_1_empty</title>
<path fill="none" stroke="black" d="M892.062,-361.922C901.877,-361.812 920.359,-361.607 937.389,-361.418"/>
<polygon fill="black" stroke="black" points="937.754,-364.914 947.715,-361.303 937.676,-357.915 937.754,-364.914"/>
</g>
<!-- cyclinEdegradation_1&#45;&gt;cyclinEdegradation_1_intermediate_m -->
<g id="edge36" class="edge"><title>cyclinEdegradation_1&#45;&gt;cyclinEdegradation_1_intermediate_m</title>
<path fill="none" stroke="black" d="M903.456,-370.014C915.943,-375.338 932.858,-382.36 948,-388 959.483,-392.277 974.057,-396.714 974.956,-396.987"/>
<polygon fill="none" stroke="black" points="903.326,-369.958 896.233,-371.257 892.306,-365.21 899.399,-363.91 903.326,-369.958"/>
</g>
<!-- cyclinEdegradation_1_intermediate_r&#45;&gt;cyclinEdegradation_1 -->
<g id="edge30" class="edge"><title>cyclinEdegradation_1_intermediate_r&#45;&gt;cyclinEdegradation_1</title>
<path fill="none" stroke="black" d="M795.065,-368.995C797.311,-368.82 856.951,-364.182 877.848,-362.556"/>
</g>
<!-- pRBsynthesis_1 -->
<g id="node42" class="node"><title>pRBsynthesis_1</title>
<polygon fill="none" stroke="black" points="104,-25 90,-25 90,-11 104,-11 104,-25"/>
</g>
<!-- pRBsynthesis_1_intermediate_p -->
<g id="node45" class="node"><title>pRBsynthesis_1_intermediate_p</title>
<ellipse fill="black" stroke="black" cx="141" cy="-37" rx="0.036" ry="0.036"/>
</g>
<!-- pRBsynthesis_1&#45;&gt;pRBsynthesis_1_intermediate_p -->
<g id="edge44" class="edge"><title>pRBsynthesis_1&#45;&gt;pRBsynthesis_1_intermediate_p</title>
<path fill="none" stroke="black" d="M104.266,-21.1375C116.372,-26.3654 139.497,-36.3508 140.93,-36.9698"/>
</g>
<!-- pRBsynthesis_1&#45;&gt;pRBsynthesis_1_intermediate_m -->
<g id="edge48" class="edge"><title>pRBsynthesis_1&#45;&gt;pRBsynthesis_1_intermediate_m</title>
<path fill="none" stroke="black" d="M115.757,-12.9403C137.175,-7.61629 173.346,-0 205,-0 205,-0 205,-0 795,-0 877.737,-0 972.004,-56.2017 974.93,-57.958"/>
<polygon fill="none" stroke="black" points="115.62,-12.976 110.824,-18.3609 104.009,-16.0049 108.805,-10.62 115.62,-12.976"/>
</g>
<!-- pRBsynthesis_1_empty -->
<g id="node43" class="node"><title>pRBsynthesis_1_empty</title>
<text text-anchor="middle" x="27" y="-13.5" font-family="Times Roman,serif" font-size="15.00" fill="blue">Ø</text>
</g>
<!-- pRBsynthesis_1_empty&#45;&gt;pRBsynthesis_1 -->
<g id="edge42" class="edge"><title>pRBsynthesis_1_empty&#45;&gt;pRBsynthesis_1</title>
<path fill="none" stroke="black" d="M54.2643,-18C67.1627,-18 81.5367,-18 89.8947,-18"/>
</g>
<!-- pRBsynthesis_1_intermediate_p&#45;&gt;R_1 -->
<g id="edge46" class="edge"><title>pRBsynthesis_1_intermediate_p&#45;&gt;R_1</title>
<path fill="none" stroke="black" d="M141.046,-37.0065C141.893,-37.1256 154.209,-38.8575 167.809,-40.7701"/>
<polygon fill="black" stroke="black" points="167.404,-44.2475 177.794,-42.1742 168.379,-37.3157 167.404,-44.2475"/>
</g>
<!-- pRBdeplation_1 -->
<g id="node53" class="node"><title>pRBdeplation_1</title>
<polygon fill="none" stroke="black" points="372,-133 358,-133 358,-119 372,-119 372,-133"/>
</g>
<!-- pRBdeplation_1_intermediate_p -->
<g id="node58" class="node"><title>pRBdeplation_1_intermediate_p</title>
<ellipse fill="black" stroke="black" cx="435" cy="-154" rx="0.036" ry="0.036"/>
</g>
<!-- pRBdeplation_1&#45;&gt;pRBdeplation_1_intermediate_p -->
<g id="edge62" class="edge"><title>pRBdeplation_1&#45;&gt;pRBdeplation_1_intermediate_p</title>
<path fill="none" stroke="black" d="M372.228,-128.891C389.554,-135.821 432.221,-152.888 434.871,-153.948"/>
</g>
<!-- pRBdeplation_1_intermediate_r&#45;&gt;pRBdeplation_1 -->
<g id="edge56" class="edge"><title>pRBdeplation_1_intermediate_r&#45;&gt;pRBdeplation_1</title>
<path fill="none" stroke="black" d="M295.051,-76.0362C296.748,-77.2487 340.582,-108.559 357.98,-120.986"/>
</g>
<!-- pRBdeplation_1_intermediate_p&#45;&gt;RS_1 -->
<g id="edge64" class="edge"><title>pRBdeplation_1_intermediate_p&#45;&gt;RS_1</title>
<path fill="none" stroke="black" d="M435.065,-154.041C436.592,-154.99 464.624,-172.433 488.99,-187.594"/>
<polygon fill="black" stroke="black" points="487.405,-190.73 497.745,-193.041 491.104,-184.787 487.405,-190.73"/>
</g>
<!-- _2 -->
<g id="node61" class="node"><title>_2</title>
<polygon fill="none" stroke="black" points="712,-196 698,-196 698,-182 712,-182 712,-196"/>
</g>
<!-- _2_intermediate_p -->
<g id="node65" class="node"><title>_2_intermediate_p</title>
<ellipse fill="black" stroke="black" cx="795" cy="-205" rx="0.036" ry="0.036"/>
</g>
<!-- _2&#45;&gt;_2_intermediate_p -->
<g id="edge70" class="edge"><title>_2&#45;&gt;_2_intermediate_p</title>
<path fill="none" stroke="black" d="M712.062,-190.255C732.947,-193.968 793.081,-204.659 794.955,-204.992"/>
</g>
<!-- _2&#45;&gt;_2_intermediate_m -->
<g id="edge74" class="edge"><title>_2&#45;&gt;_2_intermediate_m</title>
<path fill="none" stroke="black" d="M723.546,-196.49C736.072,-201.516 752.996,-208.245 768,-214 779.201,-218.296 793.131,-223.326 794.828,-223.938"/>
<polygon fill="none" stroke="black" points="723.481,-196.464 716.421,-197.932 712.35,-191.98 719.41,-190.512 723.481,-196.464"/>
</g>
<!-- _2_intermediate_r&#45;&gt;_2 -->
<g id="edge66" class="edge"><title>_2_intermediate_r&#45;&gt;_2</title>
<path fill="none" stroke="black" d="M615.065,-195.995C617.311,-195.82 676.951,-191.182 697.848,-189.556"/>
</g>
<!-- _2_intermediate_p&#45;&gt;theta_1 -->
<g id="edge72" class="edge"><title>_2_intermediate_p&#45;&gt;theta_1</title>
<path fill="none" stroke="black" d="M795.065,-205.011C796.565,-205.261 823.648,-209.775 847.704,-213.784"/>
<polygon fill="black" stroke="black" points="847.306,-217.266 857.745,-215.458 848.457,-210.361 847.306,-217.266"/>
</g>
<!-- null2_1 -->
<g id="node72" class="node"><title>null2_1</title>
<polygon fill="none" stroke="black" points="712,-304 698,-304 698,-290 712,-290 712,-304"/>
</g>
<!-- null2_1_intermediate_p -->
<g id="node76" class="node"><title>null2_1_intermediate_p</title>
<ellipse fill="black" stroke="black" cx="795" cy="-279" rx="0.036" ry="0.036"/>
</g>
<!-- null2_1&#45;&gt;null2_1_intermediate_p -->
<g id="edge84" class="edge"><title>null2_1&#45;&gt;null2_1_intermediate_p</title>
<path fill="none" stroke="black" d="M712.062,-295.588C732.947,-291.411 793.081,-279.384 794.955,-279.009"/>
</g>
<!-- null2_1&#45;&gt;null2_1_intermediate_m -->
<g id="edge88" class="edge"><title>null2_1&#45;&gt;null2_1_intermediate_m</title>
<path fill="none" stroke="black" d="M723.995,-300.377C749.917,-304.985 793.367,-312.71 794.955,-312.992"/>
<polygon fill="none" stroke="black" points="723.877,-300.356 717.269,-303.244 712.062,-298.255 718.67,-295.367 723.877,-300.356"/>
</g>
<!-- null2_1_intermediate_r&#45;&gt;null2_1 -->
<g id="edge80" class="edge"><title>null2_1_intermediate_r&#45;&gt;null2_1</title>
<path fill="none" stroke="black" d="M615.065,-275.016C617.311,-275.565 676.951,-290.144 697.848,-295.252"/>
</g>
<!-- null2_1_intermediate_p&#45;&gt;theta_1 -->
<g id="edge86" class="edge"><title>null2_1_intermediate_p&#45;&gt;theta_1</title>
<path fill="none" stroke="black" d="M795.065,-278.957C796.598,-277.952 824.87,-259.418 849.31,-243.397"/>
<polygon fill="black" stroke="black" points="851.301,-246.277 857.745,-237.867 847.463,-240.423 851.301,-246.277"/>
</g>
<!-- null3_1 -->
<g id="node83" class="node"><title>null3_1</title>
<polygon fill="none" stroke="black" points="712,-164 698,-164 698,-150 712,-150 712,-164"/>
</g>
<!-- null3_1_intermediate_p -->
<g id="node86" class="node"><title>null3_1_intermediate_p</title>
<ellipse fill="black" stroke="black" cx="795" cy="-186" rx="0.036" ry="0.036"/>
</g>
<!-- null3_1&#45;&gt;null3_1_intermediate_p -->
<g id="edge96" class="edge"><title>null3_1&#45;&gt;null3_1_intermediate_p</title>
<path fill="none" stroke="black" d="M712.062,-159.276C732.947,-166.005 793.081,-185.382 794.955,-185.986"/>
</g>
<!-- null3_1&#45;&gt;null3_1_intermediate_m -->
<g id="edge100" class="edge"><title>null3_1&#45;&gt;null3_1_intermediate_m</title>
<path fill="none" stroke="black" d="M724.311,-158.645C785.067,-163.821 968.668,-179.461 974.84,-179.986"/>
<polygon fill="none" stroke="black" points="724.179,-158.634 717.861,-162.11 712.222,-157.615 718.54,-154.139 724.179,-158.634"/>
</g>
<!-- null3_1_empty -->
<g id="node84" class="node"><title>null3_1_empty</title>
<text text-anchor="middle" x="615" y="-155.5" font-family="Times Roman,serif" font-size="15.00" fill="blue">Ø</text>
</g>
<!-- null3_1_empty&#45;&gt;null3_1 -->
<g id="edge94" class="edge"><title>null3_1_empty&#45;&gt;null3_1</title>
<path fill="none" stroke="black" d="M642.003,-159.1C661.264,-158.458 685.792,-157.64 697.766,-157.241"/>
</g>
<!-- null3_1_intermediate_p&#45;&gt;theta_1 -->
<g id="edge98" class="edge"><title>null3_1_intermediate_p&#45;&gt;theta_1</title>
<path fill="none" stroke="black" d="M795.172,-186.063C796.866,-186.684 810.769,-191.781 822,-196 830.518,-199.2 839.672,-202.669 848.291,-205.95"/>
<polygon fill="black" stroke="black" points="847.141,-209.257 857.732,-209.549 849.635,-202.716 847.141,-209.257"/>
</g>
<!-- E2Fdegradationviacellcycleprogression_1 -->
<g id="node92" class="node"><title>E2Fdegradationviacellcycleprogression_1</title>
<polygon fill="none" stroke="black" points="1052,-227 1038,-227 1038,-213 1052,-213 1052,-227"/>
</g>
<!-- E2Fdegradationviacellcycleprogression_1_empty -->
<g id="node96" class="node"><title>E2Fdegradationviacellcycleprogression_1_empty</title>
<text text-anchor="middle" x="1115" y="-215.5" font-family="Times Roman,serif" font-size="15.00" fill="blue">Ø</text>
</g>
<!-- E2Fdegradationviacellcycleprogression_1&#45;&gt;E2Fdegradationviacellcycleprogression_1_empty -->
<g id="edge108" class="edge"><title>E2Fdegradationviacellcycleprogression_1&#45;&gt;E2Fdegradationviacellcycleprogression_1_empty</title>
<path fill="none" stroke="black" d="M1052.23,-220C1058.45,-220 1067.94,-220 1077.67,-220"/>
<polygon fill="black" stroke="black" points="1077.77,-223.5 1087.77,-220 1077.77,-216.5 1077.77,-223.5"/>
</g>
<!-- E2Fdegradationviacellcycleprogression_1&#45;&gt;E2Fdegradationviacellcycleprogression_1_intermediate_m -->
<g id="edge110" class="edge"><title>E2Fdegradationviacellcycleprogression_1&#45;&gt;E2Fdegradationviacellcycleprogression_1_intermediate_m</title>
<path fill="none" stroke="black" d="M1062.13,-232.076C1069.8,-237.133 1079.11,-242.8 1088,-247 1099.08,-252.233 1114.03,-255.773 1114.96,-255.99"/>
<polygon fill="none" stroke="black" points="1061.9,-231.921 1054.69,-231.828 1052,-225.136 1059.21,-225.229 1061.9,-231.921"/>
</g>
<!-- E2Fdegradationviacellcycleprogression_1_intermediate_r&#45;&gt;E2Fdegradationviacellcycleprogression_1 -->
<g id="edge104" class="edge"><title>E2Fdegradationviacellcycleprogression_1_intermediate_r&#45;&gt;E2Fdegradationviacellcycleprogression_1</title>
<path fill="none" stroke="black" d="M975.051,-220C976.748,-220 1020.58,-220 1037.98,-220"/>
</g>
<!-- cellcycleprogression_1 -->
<g id="node102" class="node"><title>cellcycleprogression_1</title>
<polygon fill="none" stroke="black" points="712,-480 698,-480 698,-466 712,-466 712,-480"/>
</g>
<!-- cellcycleprogression_1_intermediate_p -->
<g id="node105" class="node"><title>cellcycleprogression_1_intermediate_p</title>
<ellipse fill="black" stroke="black" cx="795" cy="-501" rx="0.036" ry="0.036"/>
</g>
<!-- cellcycleprogression_1&#45;&gt;cellcycleprogression_1_intermediate_p -->
<g id="edge118" class="edge"><title>cellcycleprogression_1&#45;&gt;cellcycleprogression_1_intermediate_p</title>
<path fill="none" stroke="black" d="M712.062,-475.197C732.947,-481.695 793.081,-500.403 794.955,-500.986"/>
</g>
<!-- cellcycleprogression_1&#45;&gt;cellcycleprogression_1_intermediate_m -->
<g id="edge122" class="edge"><title>cellcycleprogression_1&#45;&gt;cellcycleprogression_1_intermediate_m</title>
<path fill="none" stroke="black" d="M724.311,-470.64C785.067,-463.214 968.668,-440.774 974.84,-440.019"/>
<polygon fill="none" stroke="black" points="724.133,-470.661 718.663,-475.36 712.222,-472.117 717.692,-467.419 724.133,-470.661"/>
</g>
<!-- cellcycleprogression_1_empty -->
<g id="node103" class="node"><title>cellcycleprogression_1_empty</title>
<text text-anchor="middle" x="615" y="-468.5" font-family="Times Roman,serif" font-size="15.00" fill="blue">Ø</text>
</g>
<!-- cellcycleprogression_1_empty&#45;&gt;cellcycleprogression_1 -->
<g id="edge116" class="edge"><title>cellcycleprogression_1_empty&#45;&gt;cellcycleprogression_1</title>
<path fill="none" stroke="black" d="M642.003,-473C661.264,-473 685.792,-473 697.766,-473"/>
</g>
<!-- cellcycleprogression_1_intermediate_p&#45;&gt;X_1 -->
<g id="edge120" class="edge"><title>cellcycleprogression_1_intermediate_p&#45;&gt;X_1</title>
<path fill="none" stroke="black" d="M795.065,-501.013C796.584,-501.317 824.325,-506.865 848.599,-511.72"/>
<polygon fill="black" stroke="black" points="848.211,-515.212 858.704,-513.741 849.584,-508.347 848.211,-515.212"/>
</g>
<!-- cellcycleprogressionslow_1 -->
<g id="node113" class="node"><title>cellcycleprogressionslow_1</title>
<polygon fill="none" stroke="black" points="1052,-519 1038,-519 1038,-505 1052,-505 1052,-519"/>
</g>
<!-- cellcycleprogressionslow_1_empty -->
<g id="node117" class="node"><title>cellcycleprogressionslow_1_empty</title>
<text text-anchor="middle" x="1115" y="-506.5" font-family="Times Roman,serif" font-size="15.00" fill="blue">Ø</text>
</g>
<!-- cellcycleprogressionslow_1&#45;&gt;cellcycleprogressionslow_1_empty -->
<g id="edge134" class="edge"><title>cellcycleprogressionslow_1&#45;&gt;cellcycleprogressionslow_1_empty</title>
<path fill="none" stroke="black" d="M1052.23,-511.897C1058.45,-511.808 1067.94,-511.672 1077.67,-511.533"/>
<polygon fill="black" stroke="black" points="1077.82,-515.032 1087.77,-511.389 1077.72,-508.032 1077.82,-515.032"/>
</g>
<!-- cellcycleprogressionslow_1&#45;&gt;cellcycleprogressionslow_1_intermediate_m -->
<g id="edge136" class="edge"><title>cellcycleprogressionslow_1&#45;&gt;cellcycleprogressionslow_1_intermediate_m</title>
<path fill="none" stroke="black" d="M1062.18,-523.592C1069.86,-528.456 1079.16,-533.918 1088,-538 1099.12,-543.139 1114.03,-546.767 1114.96,-546.989"/>
<polygon fill="none" stroke="black" points="1062.06,-523.515 1054.85,-523.563 1052.03,-516.926 1059.24,-516.877 1062.06,-523.515"/>
</g>
<!-- cellcycleprogressionslow_1_intermediate_r&#45;&gt;cellcycleprogressionslow_1 -->
<g id="edge130" class="edge"><title>cellcycleprogressionslow_1_intermediate_r&#45;&gt;cellcycleprogressionslow_1</title>
<path fill="none" stroke="black" d="M975.051,-515.997C976.748,-515.9 1020.58,-513.395 1037.98,-512.401"/>
</g>
</g>
</svg>
