<?xml version="1.0" encoding="utf-8"?>
<!-- Generator: Adobe Illustrator 14.0.0, SVG Export Plug-In . SVG Version: 6.00 Build 43363)  -->
<!DOCTYPE svg PUBLIC "-//W3C//DTD SVG 1.1//EN" "http://www.w3.org/Graphics/SVG/1.1/DTD/svg11.dtd">
<svg version="1.1" id="Layer_1" xmlns="http://www.w3.org/2000/svg" xmlns:xlink="http://www.w3.org/1999/xlink" x="0px" y="0px"
	 width="686px" height="295px" viewBox="0 0 686 295" enable-background="new 0 0 686 295" xml:space="preserve">
<g id="g36000" transform="translate(15.54048,33.77969)">
	<path id="path34997" fill="#00FF64" stroke="#000000" d="M258.139,81.661c0,56.436-56.46,102.187-126.108,102.187
		c-69.646,0-126.109-45.751-126.109-102.187c0-56.433,56.462-102.186,126.109-102.186C201.679-20.525,258.139,25.224,258.139,81.661
		z"/>
	<path id="path34999" fill="#92FF9A" stroke="#000000" d="M167.914-0.704c25.289,10.938,49.345,79.258,41.011,21.19
		c-3.304-27.982,56.048,47.163,28.025,95.009c-44.105,71.349-51.09,14.473-56.441,21.726c11.75,30-3.118,21.059-5.746,19.311
		c-34.859-23.239-93.655-171.589-46.492-2.759c4.72,16.901,0.663,17.771-9.57,17.771c-27.33,0-82.705-152.424-41.694-15.037
		c3.639,12.186-50.729-27.616-58.098-61.517c-4.732-21.763,2.05-49.213,12.303-58.099c10.25-8.881,88.209,119.421,30.758-4.101
		C48.299,3.397,88.2-0.348,96.829,2.031c19.823,5.469,84.073,164.728,30.075,0C124.447-5.454,140.355-12.623,167.914-0.704z"/>
</g>
<g id="g11110" transform="translate(-4.764492,-202.9406)">
	<path id="rect11116" fill="#B2DDFF" stroke="#0092E1" stroke-width="5.31" d="M437.813,258.988h211.559
		c12.612,0,22.833,10.564,22.833,23.598V396.97c0,13.033-10.221,23.598-22.833,23.598H437.813
		c-12.612,0-22.833-10.564-22.833-23.598V282.586C414.98,269.553,425.201,258.988,437.813,258.988z"/>
</g>
<g>
	<path fill="none" stroke="#0092E1" stroke-width="3" stroke-dasharray="5,5" d="M393.733,61.819
		c5.499-0.056,9.999,4.399,9.999,9.899v137.893c0,5.5-4.5,10-10,10H198.672c-5.5,0-5.952-1.965-1.004-4.367L236,196.639
		c4.948-2.402,11.757-7.921,15.131-12.265l20.648-26.584c3.374-4.344,6.436-12.388,6.803-17.875l2.322-34.725
		c0.367-5.487-1.119-14.107-3.303-19.155l-5.958-13.771c-2.184-5.048,0.529-9.223,6.028-9.278L393.733,61.819z"/>
</g>
<radialGradient id="path21961_2_" cx="734.248" cy="-587.6948" r="17.8347" gradientTransform="matrix(1 0 0 1 -468.9912 690.6914)" gradientUnits="userSpaceOnUse">
	<stop  offset="0" style="stop-color:#D3C6FF"/>
	<stop  offset="0.3949" style="stop-color:#BDD3FF"/>
	<stop  offset="0.5372" style="stop-color:#B6CFFF"/>
	<stop  offset="0.6386" style="stop-color:#ABC7FF"/>
	<stop  offset="0.7206" style="stop-color:#9ABDFF"/>
	<stop  offset="0.7909" style="stop-color:#84AFFF"/>
	<stop  offset="0.8531" style="stop-color:#689EFF"/>
	<stop  offset="0.9093" style="stop-color:#488AFF"/>
	<stop  offset="0.9593" style="stop-color:#2474FF"/>
	<stop  offset="1" style="stop-color:#005EFF"/>
</radialGradient>
<path id="path21961_1_" fill="url(#path21961_2_)" stroke="#000000" d="M283.092,102.996c0,9.851-7.984,17.835-17.834,17.835
	s-17.836-7.984-17.836-17.835c0-9.849,7.986-17.834,17.836-17.834S283.092,93.146,283.092,102.996z"/>
<g>
	<g>
		<g>
			<path fill="none" stroke="#000000" d="M286.053,85.162h-41.59"/>
			<polygon points="283.244,88.865 284.816,85.162 283.244,81.458 292.021,85.162 			"/>
		</g>
	</g>
</g>
<g>
	<g>
		<g>
			<path fill="none" stroke="#000000" d="M286.053,120.831h-41.59"/>
			<polygon points="247.271,117.128 245.699,120.831 247.271,124.535 238.494,120.831 			"/>
		</g>
	</g>
</g>
<g>
	<path d="M295.278,125.222c-0.31,0.16-0.96,0.32-1.779,0.32c-1.898,0-3.318-1.2-3.318-3.419c0-2.118,1.43-3.538,3.519-3.538
		c0.829,0,1.369,0.181,1.599,0.3l-0.22,0.71c-0.319-0.16-0.789-0.279-1.349-0.279c-1.579,0-2.629,1.009-2.629,2.778
		c0,1.659,0.949,2.708,2.578,2.708c0.54,0,1.08-0.109,1.43-0.279L295.278,125.222z"/>
	<path d="M299.688,124.272c0,0.42,0.02,0.829,0.07,1.159h-0.79l-0.08-0.609h-0.029c-0.261,0.38-0.79,0.72-1.479,0.72
		c-0.979,0-1.479-0.69-1.479-1.39c0-1.169,1.04-1.809,2.908-1.799v-0.101c0-0.399-0.109-1.129-1.099-1.119
		c-0.46,0-0.93,0.13-1.27,0.36l-0.2-0.59c0.4-0.25,0.989-0.42,1.6-0.42c1.489,0,1.849,1.01,1.849,1.979V124.272z M298.829,122.963
		c-0.96-0.02-2.049,0.15-2.049,1.09c0,0.579,0.38,0.839,0.819,0.839c0.64,0,1.05-0.399,1.189-0.81c0.03-0.09,0.04-0.189,0.04-0.279
		V122.963z"/>
	<path d="M300.686,122.102v-0.378l0.483-0.47c1.162-1.106,1.694-1.694,1.694-2.381c0-0.463-0.217-0.89-0.896-0.89
		c-0.413,0-0.756,0.21-0.967,0.385l-0.195-0.434c0.308-0.26,0.763-0.463,1.288-0.463c0.974,0,1.387,0.673,1.387,1.324
		c0,0.841-0.609,1.52-1.568,2.444l-0.357,0.336v0.014h2.038v0.512H300.686z"/>
	<path d="M306.273,118.376v1.646h1.583v0.42h-1.583v1.66h-0.448v-1.66h-1.583v-0.42h1.583v-1.646H306.273z"/>
</g>
<g>
	<path d="M223.117,88.764c0.25,0.149,0.82,0.399,1.439,0.399c1.119,0,1.479-0.71,1.47-1.26c-0.011-0.909-0.83-1.299-1.68-1.299
		h-0.489v-0.66h0.489c0.64,0,1.449-0.329,1.449-1.099c0-0.521-0.329-0.979-1.139-0.979c-0.521,0-1.02,0.229-1.3,0.43l-0.24-0.64
		c0.351-0.25,1.01-0.5,1.71-0.5c1.279,0,1.858,0.76,1.858,1.549c0,0.68-0.409,1.25-1.199,1.54v0.02
		c0.8,0.149,1.449,0.75,1.449,1.659c0,1.039-0.819,1.949-2.369,1.949c-0.729,0-1.369-0.23-1.688-0.44L223.117,88.764z"/>
	<path d="M228.348,89.763v-6.736h0.959l2.149,3.408c0.489,0.789,0.89,1.489,1.199,2.188l0.03-0.01
		c-0.08-0.899-0.101-1.719-0.101-2.759v-2.828h0.819v6.736h-0.879l-2.139-3.418c-0.47-0.75-0.92-1.52-1.25-2.249l-0.029,0.01
		c0.05,0.85,0.06,1.659,0.06,2.778v2.879H228.348z"/>
	<path d="M238.286,88.604c0,0.42,0.021,0.829,0.07,1.159h-0.79l-0.08-0.609h-0.029c-0.261,0.38-0.79,0.72-1.479,0.72
		c-0.979,0-1.479-0.69-1.479-1.39c0-1.169,1.04-1.809,2.908-1.799v-0.101c0-0.399-0.109-1.129-1.099-1.119
		c-0.46,0-0.93,0.13-1.27,0.36l-0.2-0.59c0.4-0.25,0.989-0.42,1.6-0.42c1.489,0,1.849,1.01,1.849,1.979V88.604z M237.427,87.294
		c-0.96-0.02-2.049,0.15-2.049,1.09c0,0.579,0.38,0.839,0.819,0.839c0.64,0,1.05-0.399,1.189-0.81c0.03-0.09,0.04-0.189,0.04-0.279
		V87.294z"/>
	<path d="M241.279,82.707v1.646h1.583v0.42h-1.583v1.66h-0.448v-1.66h-1.583v-0.42h1.583v-1.646H241.279z"/>
</g>
<g>
	
		<radialGradient id="path21243_2_" cx="-658.0459" cy="-459.2085" r="17.835" gradientTransform="matrix(1 0 0 1 917.0771 617.7085)" gradientUnits="userSpaceOnUse">
		<stop  offset="0" style="stop-color:#FFFCDF"/>
		<stop  offset="0.1203" style="stop-color:#FFFBDA"/>
		<stop  offset="0.2662" style="stop-color:#FFF9CB"/>
		<stop  offset="0.4255" style="stop-color:#FFF6B2"/>
		<stop  offset="0.5943" style="stop-color:#FFF090"/>
		<stop  offset="0.7706" style="stop-color:#FFEA64"/>
		<stop  offset="0.9506" style="stop-color:#FFE22F"/>
		<stop  offset="1" style="stop-color:#FFE01F"/>
	</radialGradient>
	<path id="path21243" fill="url(#path21243_2_)" stroke="#000000" d="M276.866,158.501c0,9.85-7.987,17.834-17.835,17.834
		c-9.853,0-17.835-7.984-17.835-17.834c0-9.852,7.982-17.836,17.835-17.836C268.879,140.667,276.866,148.649,276.866,158.501z"/>
	<g>
		<g>
			<g>
				<path fill="none" stroke="#000000" d="M238.235,140.665h41.59"/>
				<polygon points="241.044,136.962 239.472,140.665 241.044,144.369 232.267,140.665 				"/>
			</g>
		</g>
	</g>
</g>
<g>
	<path d="M290.278,144.455c-0.31,0.16-0.96,0.32-1.779,0.32c-1.898,0-3.318-1.2-3.318-3.419c0-2.118,1.43-3.538,3.519-3.538
		c0.829,0,1.369,0.181,1.599,0.3l-0.22,0.71c-0.319-0.16-0.789-0.279-1.349-0.279c-1.579,0-2.629,1.009-2.629,2.778
		c0,1.659,0.949,2.708,2.578,2.708c0.54,0,1.08-0.109,1.43-0.279L290.278,144.455z"/>
	<path d="M294.688,143.506c0,0.42,0.02,0.829,0.07,1.159h-0.79l-0.08-0.609h-0.029c-0.261,0.38-0.79,0.72-1.479,0.72
		c-0.979,0-1.479-0.69-1.479-1.39c0-1.169,1.04-1.809,2.908-1.799v-0.101c0-0.399-0.109-1.129-1.099-1.119
		c-0.46,0-0.93,0.13-1.27,0.36l-0.2-0.59c0.4-0.25,0.989-0.42,1.6-0.42c1.489,0,1.849,1.01,1.849,1.979V143.506z M293.829,142.196
		c-0.96-0.02-2.049,0.15-2.049,1.09c0,0.579,0.38,0.839,0.819,0.839c0.64,0,1.05-0.399,1.189-0.81c0.03-0.09,0.04-0.189,0.04-0.279
		V142.196z"/>
	<path d="M295.686,141.335v-0.378l0.483-0.47c1.162-1.106,1.694-1.694,1.694-2.381c0-0.463-0.217-0.89-0.896-0.89
		c-0.413,0-0.756,0.21-0.967,0.385l-0.195-0.434c0.308-0.26,0.763-0.463,1.288-0.463c0.974,0,1.387,0.673,1.387,1.324
		c0,0.841-0.609,1.52-1.568,2.444l-0.357,0.336v0.014h2.038v0.512H295.686z"/>
	<path d="M301.273,137.609v1.646h1.583v0.42h-1.583v1.66h-0.448v-1.66h-1.583v-0.42h1.583v-1.646H301.273z"/>
</g>
<radialGradient id="path21243_3_" cx="-527.8916" cy="-525.7124" r="17.835" gradientTransform="matrix(-1 0 0 1 -124.6143 617.7085)" gradientUnits="userSpaceOnUse">
	<stop  offset="0" style="stop-color:#FFFCDF"/>
	<stop  offset="0.1203" style="stop-color:#FFFBDA"/>
	<stop  offset="0.2662" style="stop-color:#FFF9CB"/>
	<stop  offset="0.4255" style="stop-color:#FFF6B2"/>
	<stop  offset="0.5943" style="stop-color:#FFF090"/>
	<stop  offset="0.7706" style="stop-color:#FFEA64"/>
	<stop  offset="0.9506" style="stop-color:#FFE22F"/>
	<stop  offset="1" style="stop-color:#FFE01F"/>
</radialGradient>
<path id="path21243_1_" fill="url(#path21243_3_)" stroke="#000000" d="M385.442,91.997c0,9.85,7.987,17.834,17.835,17.834
	c9.853,0,17.835-7.984,17.835-17.834c0-9.852-7.982-17.836-17.835-17.836C393.43,74.163,385.442,82.146,385.442,91.997z"/>
<g>
	<g>
		<g>
			<path fill="none" stroke="#000000" d="M424.073,74.161h-41.59"/>
			<polygon points="421.265,77.865 422.838,74.161 421.265,70.458 430.043,74.161 			"/>
		</g>
	</g>
</g>
<g>
	<path d="M366.387,77.951c-0.309,0.16-0.959,0.32-1.779,0.32c-1.898,0-3.318-1.2-3.318-3.419c0-2.118,1.43-3.538,3.52-3.538
		c0.828,0,1.369,0.181,1.598,0.3l-0.219,0.71c-0.32-0.16-0.789-0.279-1.35-0.279c-1.578,0-2.629,1.009-2.629,2.778
		c0,1.659,0.949,2.708,2.578,2.708c0.541,0,1.08-0.109,1.43-0.279L366.387,77.951z"/>
	<path d="M370.799,77.002c0,0.42,0.02,0.829,0.07,1.159h-0.791l-0.08-0.609h-0.029c-0.26,0.38-0.789,0.72-1.479,0.72
		c-0.98,0-1.48-0.69-1.48-1.39c0-1.169,1.041-1.809,2.908-1.799v-0.101c0-0.399-0.109-1.129-1.098-1.119
		c-0.461,0-0.93,0.13-1.27,0.36l-0.201-0.59c0.4-0.25,0.99-0.42,1.6-0.42c1.49,0,1.85,1.01,1.85,1.979V77.002z M369.939,75.692
		c-0.961-0.02-2.049,0.15-2.049,1.09c0,0.579,0.379,0.839,0.818,0.839c0.641,0,1.051-0.399,1.189-0.81
		c0.031-0.09,0.041-0.189,0.041-0.279V75.692z"/>
	<path d="M371.795,74.831v-0.378l0.484-0.47c1.162-1.106,1.693-1.694,1.693-2.381c0-0.463-0.217-0.89-0.896-0.89
		c-0.412,0-0.756,0.21-0.967,0.385l-0.195-0.434c0.309-0.26,0.764-0.463,1.289-0.463c0.973,0,1.387,0.673,1.387,1.324
		c0,0.841-0.609,1.52-1.568,2.444l-0.357,0.336v0.014h2.037v0.512H371.795z"/>
	<path d="M377.383,71.105v1.646h1.582v0.42h-1.582v1.66h-0.449v-1.66h-1.582v-0.42h1.582v-1.646H377.383z"/>
</g>
<g>
	<g>
		<g>
			<line fill="none" stroke="#000000" x1="372.62" y1="127.997" x2="433.937" y2="127.997"/>
			<polygon points="375.429,124.294 373.856,127.997 375.429,131.701 366.651,127.997 			"/>
		</g>
	</g>
	<g>
		<g>
			
				<radialGradient id="SVGID_1_" cx="599.252" cy="-486.3105" r="18.2194" gradientTransform="matrix(0 1 -1 0 -83.0322 -471.2549)" gradientUnits="userSpaceOnUse">
				<stop  offset="0" style="stop-color:#FFFCDF"/>
				<stop  offset="0.1203" style="stop-color:#FFFBDA"/>
				<stop  offset="0.2662" style="stop-color:#FFF9CB"/>
				<stop  offset="0.4255" style="stop-color:#FFF6B2"/>
				<stop  offset="0.5943" style="stop-color:#FFF090"/>
				<stop  offset="0.7706" style="stop-color:#FFEA64"/>
				<stop  offset="0.9506" style="stop-color:#FFE22F"/>
				<stop  offset="1" style="stop-color:#FFE01F"/>
			</radialGradient>
			<path fill="url(#SVGID_1_)" d="M421.916,127.998c2.82-0.926,4.778-2.856,4.778-5.083c0-3.117-3.826-5.668-8.504-5.668h-29.824
				c-4.678,0-8.504,2.551-8.504,5.668c0,2.227,1.958,4.157,4.778,5.083c-2.82,0.925-4.778,2.856-4.778,5.082
				c0,3.116,3.826,5.668,8.504,5.668h29.824c4.678,0,8.504-2.552,8.504-5.668C426.694,130.854,424.736,128.923,421.916,127.998z"/>
		</g>
		<g>
			<path fill="none" stroke="#000000" d="M421.916,127.998c2.82-0.926,4.778-2.856,4.778-5.083c0-3.117-3.826-5.668-8.504-5.668
				h-29.824c-4.678,0-8.504,2.551-8.504,5.668c0,2.227,1.958,4.157,4.778,5.083c-2.82,0.925-4.778,2.856-4.778,5.082
				c0,3.116,3.826,5.668,8.504,5.668h29.824c4.678,0,8.504-2.552,8.504-5.668C426.694,130.854,424.736,128.923,421.916,127.998z"/>
		</g>
	</g>
	<g>
		<path d="M399.603,132.457c-0.309,0.162-0.958,0.325-1.777,0.33c-1.898,0.01-3.325-1.182-3.337-3.401
			c-0.012-2.118,1.411-3.546,3.5-3.557c0.829-0.004,1.37,0.173,1.6,0.292l-0.216,0.711c-0.32-0.158-0.79-0.275-1.35-0.272
			c-1.579,0.008-2.624,1.023-2.614,2.792c0.009,1.659,0.964,2.703,2.593,2.694c0.54-0.002,1.079-0.115,1.428-0.287L399.603,132.457z
			"/>
		<path d="M404.008,131.484c0.002,0.42,0.023,0.829,0.076,1.159l-0.79,0.004l-0.083-0.609l-0.029,0
			c-0.259,0.381-0.786,0.724-1.476,0.728c-0.979,0.005-1.483-0.683-1.487-1.382c-0.006-1.169,1.03-1.814,2.898-1.814v-0.101
			c-0.002-0.399-0.115-1.128-1.104-1.113c-0.46,0.002-0.93,0.135-1.268,0.367l-0.204-0.589c0.399-0.252,0.987-0.425,1.598-0.428
			c1.489-0.008,1.854,1,1.859,1.969L404.008,131.484z M403.142,130.179c-0.96-0.014-2.049,0.161-2.043,1.101
			c0.003,0.579,0.384,0.837,0.823,0.834c0.64-0.003,1.048-0.405,1.186-0.816c0.029-0.09,0.039-0.189,0.038-0.279L403.142,130.179z"
			/>
		<path d="M404.994,129.308l-0.002-0.378l0.48-0.473c1.155-1.112,1.685-1.703,1.681-2.39c-0.002-0.463-0.222-0.889-0.9-0.885
			c-0.413,0.002-0.754,0.214-0.965,0.39l-0.197-0.433c0.307-0.261,0.761-0.467,1.286-0.47c0.973-0.005,1.389,0.666,1.393,1.317
			c0.004,0.841-0.602,1.523-1.555,2.453l-0.355,0.338v0.014l2.037-0.011l0.003,0.512L404.994,129.308z"/>
		<path d="M410.561,125.552l0.009,1.646l1.583-0.008l0.002,0.42l-1.583,0.008l0.009,1.66l-0.448,0.002l-0.009-1.66l-1.583,0.009
			l-0.002-0.42l1.583-0.009l-0.009-1.646L410.561,125.552z"/>
	</g>
</g>
<g>
	<g>
		<g>
			<line fill="none" stroke="#000000" x1="313.281" y1="189.964" x2="313.281" y2="251.281"/>
			<polygon points="316.984,192.772 313.281,191.2 309.577,192.772 313.281,183.995 			"/>
		</g>
	</g>
	<g>
		<g>
			
				<radialGradient id="SVGID_2_" cx="776.8262" cy="-497.0161" r="18.2194" gradientTransform="matrix(-1 0 0 -1 1090.1074 -276.3936)" gradientUnits="userSpaceOnUse">
				<stop  offset="0" style="stop-color:#FFFCDF"/>
				<stop  offset="0.1203" style="stop-color:#FFFBDA"/>
				<stop  offset="0.2662" style="stop-color:#FFF9CB"/>
				<stop  offset="0.4255" style="stop-color:#FFF6B2"/>
				<stop  offset="0.5943" style="stop-color:#FFF090"/>
				<stop  offset="0.7706" style="stop-color:#FFEA64"/>
				<stop  offset="0.9506" style="stop-color:#FFE22F"/>
				<stop  offset="1" style="stop-color:#FFE01F"/>
			</radialGradient>
			<path fill="url(#SVGID_2_)" d="M318.363,197.206c-2.226,0-4.156,1.957-5.082,4.777c-0.926-2.82-2.856-4.777-5.082-4.777
				c-3.117,0-5.668,3.826-5.668,8.504v29.825c0,4.678,2.551,8.504,5.668,8.504c2.226,0,4.156-1.957,5.082-4.777
				c0.926,2.82,2.856,4.777,5.082,4.777c3.117,0,5.668-3.826,5.668-8.504V205.71C324.031,201.032,321.48,197.206,318.363,197.206z"
				/>
		</g>
		<g>
			<path fill="none" stroke="#000000" d="M318.363,197.206c-2.226,0-4.156,1.957-5.082,4.777c-0.926-2.82-2.856-4.777-5.082-4.777
				c-3.117,0-5.668,3.826-5.668,8.504v29.825c0,4.678,2.551,8.504,5.668,8.504c2.226,0,4.156-1.957,5.082-4.777
				c0.926,2.82,2.856,4.777,5.082,4.777c3.117,0,5.668-3.826,5.668-8.504V205.71C324.031,201.032,321.48,197.206,318.363,197.206z"
				/>
		</g>
	</g>
	<g>
		<path d="M308.821,216.947c-0.162-0.309-0.325-0.958-0.33-1.777c-0.01-1.898,1.182-3.325,3.401-3.337
			c2.118-0.012,3.546,1.411,3.557,3.5c0.004,0.829-0.173,1.37-0.292,1.6l-0.711-0.216c0.158-0.32,0.275-0.79,0.272-1.35
			c-0.008-1.579-1.023-2.624-2.792-2.614c-1.659,0.009-2.703,0.964-2.694,2.593c0.002,0.54,0.115,1.079,0.287,1.428L308.821,216.947
			z"/>
		<path d="M309.794,221.353c-0.42,0.002-0.829,0.023-1.159,0.076l-0.004-0.79l0.609-0.083l0-0.029
			c-0.381-0.259-0.724-0.786-0.728-1.476c-0.005-0.979,0.683-1.483,1.382-1.487c1.169-0.006,1.814,1.03,1.814,2.898h0.101
			c0.399-0.002,1.128-0.115,1.113-1.104c-0.002-0.46-0.135-0.93-0.367-1.268l0.589-0.204c0.252,0.399,0.425,0.987,0.428,1.598
			c0.008,1.489-1,1.854-1.969,1.859L309.794,221.353z M311.099,220.486c0.014-0.96-0.161-2.049-1.101-2.043
			c-0.579,0.003-0.837,0.384-0.834,0.823c0.003,0.64,0.405,1.048,0.816,1.186c0.09,0.029,0.189,0.039,0.279,0.038L311.099,220.486z"
			/>
		<path d="M311.97,222.339l0.378-0.002l0.473,0.48c1.112,1.155,1.703,1.685,2.39,1.681c0.463-0.002,0.889-0.222,0.885-0.9
			c-0.002-0.413-0.214-0.754-0.39-0.965l0.433-0.197c0.261,0.307,0.467,0.761,0.47,1.286c0.005,0.973-0.666,1.389-1.317,1.393
			c-0.841,0.004-1.523-0.602-2.453-1.555l-0.338-0.355h-0.014l0.011,2.037l-0.512,0.003L311.97,222.339z"/>
		<path d="M315.726,227.905l-1.646,0.009l0.008,1.583l-0.42,0.002l-0.008-1.583l-1.66,0.009l-0.002-0.448l1.66-0.009l-0.009-1.583
			l0.42-0.002l0.009,1.583l1.646-0.009L315.726,227.905z"/>
	</g>
</g>
<g>
	<path d="M210.939,96.437h1.055v5.409c0,2.146-1.055,2.806-2.446,2.806c-0.396,0-0.864-0.084-1.116-0.192l0.144-0.852
		c0.216,0.084,0.528,0.156,0.888,0.156c0.935,0,1.475-0.42,1.475-2.003V96.437z"/>
	<path d="M213.438,105.549c0-0.429-0.008-0.765-0.034-1.102h0.656l0.042,0.664h0.017c0.202-0.378,0.672-0.756,1.345-0.756
		c0.563,0,1.438,0.336,1.438,1.732v2.43h-0.74v-2.346c0-0.656-0.244-1.211-0.942-1.211c-0.479,0-0.857,0.345-0.992,0.757
		c-0.034,0.093-0.051,0.227-0.051,0.345v2.455h-0.74V105.549z"/>
	<path d="M221,108.374c-0.193,0.093-0.622,0.235-1.168,0.235c-1.228,0-2.026-0.832-2.026-2.085c0-1.252,0.858-2.169,2.186-2.169
		c0.438,0,0.824,0.109,1.026,0.218l-0.168,0.563c-0.176-0.092-0.454-0.193-0.857-0.193c-0.933,0-1.438,0.698-1.438,1.547
		c0,0.942,0.605,1.522,1.413,1.522c0.42,0,0.698-0.101,0.908-0.193L221,108.374z"/>
</g>
<g>
	<path d="M209.523,151.939h1.055v5.41c0,2.146-1.055,2.806-2.446,2.806c-0.396,0-0.864-0.084-1.116-0.192l0.144-0.852
		c0.216,0.084,0.528,0.156,0.888,0.156c0.935,0,1.475-0.42,1.475-2.002V151.939z"/>
	<path d="M215.427,162.91c0,0.42,0.008,0.79,0.033,1.109h-0.656l-0.042-0.664h-0.017c-0.185,0.328-0.622,0.756-1.345,0.756
		c-0.639,0-1.404-0.361-1.404-1.781v-2.38h0.74v2.245c0,0.773,0.244,1.303,0.908,1.303c0.496,0,0.841-0.345,0.976-0.681
		c0.042-0.101,0.067-0.235,0.067-0.378v-2.489h0.74V162.91z"/>
	<path d="M216.65,161.052c0-0.429-0.008-0.765-0.034-1.102h0.656l0.042,0.664h0.017c0.202-0.378,0.672-0.757,1.345-0.757
		c0.563,0,1.438,0.336,1.438,1.732v2.43h-0.74v-2.346c0-0.656-0.244-1.211-0.942-1.211c-0.479,0-0.857,0.345-0.992,0.757
		c-0.034,0.093-0.051,0.228-0.051,0.345v2.455h-0.74V161.052z"/>
	<path d="M221.666,159.202c-0.277,0-0.462-0.219-0.462-0.479s0.193-0.471,0.479-0.471c0.286,0,0.471,0.21,0.471,0.471
		s-0.185,0.479-0.479,0.479H221.666z M221.313,164.02v-4.069h0.74v4.069H221.313z"/>
</g>
<g>
	<g>
		<line fill="none" stroke="#000000" x1="372.62" y1="163.998" x2="433.937" y2="163.998"/>
		<polygon points="375.429,160.294 373.856,163.998 375.429,167.702 366.651,163.998 		"/>
	</g>
</g>
<g>
	<g>
		
			<radialGradient id="SVGID_3_" cx="635.2539" cy="-486.3105" r="18.2191" gradientTransform="matrix(0 1 -1 0 -83.0322 -471.2549)" gradientUnits="userSpaceOnUse">
			<stop  offset="0" style="stop-color:#FFFCDF"/>
			<stop  offset="0.1203" style="stop-color:#FFFBDA"/>
			<stop  offset="0.2662" style="stop-color:#FFF9CB"/>
			<stop  offset="0.4255" style="stop-color:#FFF6B2"/>
			<stop  offset="0.5943" style="stop-color:#FFF090"/>
			<stop  offset="0.7706" style="stop-color:#FFEA64"/>
			<stop  offset="0.9506" style="stop-color:#FFE22F"/>
			<stop  offset="1" style="stop-color:#FFE01F"/>
		</radialGradient>
		<path fill="url(#SVGID_3_)" d="M421.916,163.999c2.82-0.925,4.778-2.856,4.778-5.083c0-3.117-3.826-5.668-8.504-5.668h-29.824
			c-4.678,0-8.504,2.551-8.504,5.668c0,2.227,1.958,4.158,4.778,5.083c-2.82,0.925-4.778,2.856-4.778,5.082
			c0,3.116,3.826,5.668,8.504,5.668h29.824c4.678,0,8.504-2.552,8.504-5.668C426.694,166.855,424.736,164.924,421.916,163.999z"/>
	</g>
	<g>
		<path fill="none" stroke="#000000" d="M421.916,163.999c2.82-0.925,4.778-2.856,4.778-5.083c0-3.117-3.826-5.668-8.504-5.668
			h-29.824c-4.678,0-8.504,2.551-8.504,5.668c0,2.227,1.958,4.158,4.778,5.083c-2.82,0.925-4.778,2.856-4.778,5.082
			c0,3.116,3.826,5.668,8.504,5.668h29.824c4.678,0,8.504-2.552,8.504-5.668C426.694,166.855,424.736,164.924,421.916,163.999z"/>
	</g>
</g>
<g>
	<path d="M399.603,168.458c-0.309,0.161-0.958,0.325-1.777,0.329c-1.898,0.011-3.325-1.182-3.337-3.4
		c-0.012-2.118,1.411-3.546,3.5-3.557c0.829-0.005,1.37,0.173,1.6,0.291l-0.216,0.711c-0.32-0.158-0.79-0.275-1.35-0.271
		c-1.579,0.008-2.624,1.022-2.614,2.792c0.009,1.659,0.964,2.702,2.593,2.694c0.54-0.003,1.079-0.115,1.428-0.287L399.603,168.458z"
		/>
	<path d="M404.008,167.485c0.002,0.42,0.023,0.829,0.076,1.159l-0.79,0.004l-0.083-0.609h-0.029
		c-0.259,0.382-0.786,0.725-1.476,0.729c-0.979,0.005-1.483-0.684-1.487-1.383c-0.006-1.168,1.03-1.813,2.898-1.814v-0.1
		c-0.002-0.4-0.115-1.129-1.104-1.113c-0.46,0.002-0.93,0.135-1.268,0.367l-0.204-0.59c0.399-0.252,0.987-0.424,1.598-0.428
		c1.489-0.008,1.854,1,1.859,1.969L404.008,167.485z M403.142,166.18c-0.96-0.014-2.049,0.162-2.043,1.102
		c0.003,0.578,0.384,0.836,0.823,0.834c0.64-0.004,1.048-0.404,1.186-0.816c0.029-0.09,0.039-0.189,0.038-0.279L403.142,166.18z"/>
	<path d="M404.994,165.309l-0.002-0.377l0.48-0.473c1.155-1.113,1.685-1.703,1.681-2.391c-0.002-0.463-0.222-0.889-0.9-0.885
		c-0.413,0.002-0.754,0.215-0.965,0.391l-0.197-0.434c0.307-0.261,0.761-0.467,1.286-0.469c0.973-0.006,1.389,0.665,1.393,1.316
		c0.004,0.841-0.602,1.523-1.555,2.453l-0.355,0.338v0.014l2.037-0.012l0.003,0.512L404.994,165.309z"/>
	<path d="M410.561,161.553l0.009,1.646l1.583-0.009l0.002,0.42l-1.583,0.009l0.009,1.66l-0.448,0.002l-0.009-1.66l-1.583,0.009
		l-0.002-0.42l1.583-0.009l-0.009-1.646L410.561,161.553z"/>
</g>
<g>
	<path d="M499.987,197.238v8.084h-1.056v-8.084H499.987z"/>
	<path d="M501.812,197.335c0.504-0.084,1.164-0.156,2.003-0.156c1.032,0,1.787,0.24,2.267,0.672c0.433,0.384,0.708,0.972,0.708,1.69
		c0,0.732-0.216,1.308-0.624,1.728c-0.563,0.588-1.451,0.888-2.47,0.888c-0.313,0-0.601-0.013-0.84-0.072v3.238h-1.044V197.335z
		 M502.855,201.232c0.228,0.061,0.516,0.084,0.863,0.084c1.26,0,2.027-0.624,2.027-1.715c0-1.079-0.768-1.596-1.907-1.596
		c-0.456,0-0.804,0.036-0.983,0.084V201.232z"/>
	<path d="M507.839,208.478c0.21,0.126,0.689,0.336,1.211,0.336c0.941,0,1.244-0.597,1.236-1.059
		c-0.009-0.766-0.698-1.094-1.413-1.094h-0.412v-0.555h0.412c0.538,0,1.22-0.277,1.22-0.925c0-0.438-0.278-0.824-0.959-0.824
		c-0.438,0-0.857,0.193-1.093,0.362l-0.202-0.538c0.295-0.211,0.85-0.421,1.438-0.421c1.076,0,1.564,0.64,1.564,1.304
		c0,0.571-0.345,1.051-1.009,1.295v0.017c0.672,0.126,1.21,0.63,1.219,1.396c0,0.874-0.689,1.64-1.992,1.64
		c-0.614,0-1.152-0.193-1.421-0.37L507.839,208.478z"/>
	<path d="M512.504,197.347c0.528-0.096,1.296-0.168,2.003-0.168c1.115,0,1.848,0.216,2.339,0.659
		c0.396,0.36,0.636,0.912,0.636,1.548c0,1.056-0.672,1.763-1.511,2.051v0.036c0.611,0.216,0.983,0.791,1.175,1.631
		c0.264,1.127,0.456,1.907,0.624,2.219h-1.079c-0.133-0.24-0.313-0.924-0.528-1.931c-0.239-1.115-0.684-1.535-1.631-1.571h-0.983
		v3.502h-1.044V197.347z M513.548,201.028h1.067c1.115,0,1.823-0.611,1.823-1.535c0-1.043-0.756-1.499-1.859-1.499
		c-0.504,0-0.852,0.036-1.031,0.084V201.028z"/>
</g>
<g>
	<path d="M455.046,121.692h1.056v5.409c0,2.146-1.056,2.806-2.447,2.806c-0.396,0-0.863-0.084-1.115-0.192l0.145-0.852
		c0.215,0.084,0.527,0.156,0.887,0.156c0.936,0,1.476-0.42,1.476-2.003V121.692z"/>
	<path d="M457.545,127.802h0.74v5.969h-0.74V127.802z"/>
	<path d="M459.931,131.863c0.017,1,0.647,1.413,1.388,1.413c0.529,0,0.857-0.092,1.126-0.202l0.135,0.521
		c-0.261,0.118-0.715,0.261-1.362,0.261c-1.244,0-2.001-0.832-2.001-2.051c0-1.236,0.731-2.203,1.917-2.203
		c1.328,0,1.674,1.168,1.674,1.917c0,0.151-0.01,0.269-0.025,0.354L459.931,131.863z M462.092,131.333
		c0.008-0.462-0.193-1.203-1.018-1.203c-0.757,0-1.076,0.689-1.135,1.203H462.092z"/>
	<path d="M466.586,132.796c0,0.353,0.017,0.698,0.059,0.975h-0.664l-0.067-0.513h-0.025c-0.218,0.319-0.664,0.605-1.244,0.605
		c-0.823,0-1.244-0.58-1.244-1.168c0-0.984,0.874-1.522,2.446-1.513v-0.084c0-0.336-0.092-0.95-0.925-0.941
		c-0.387,0-0.782,0.109-1.067,0.303l-0.168-0.496c0.336-0.21,0.832-0.353,1.345-0.353c1.253,0,1.556,0.849,1.556,1.665V132.796z
		 M465.863,131.695c-0.808-0.017-1.725,0.126-1.725,0.917c0,0.487,0.32,0.706,0.689,0.706c0.539,0,0.883-0.336,1.001-0.681
		c0.025-0.076,0.034-0.16,0.034-0.235V131.695z"/>
	<path d="M468.508,131.569h0.017c0.101-0.143,0.235-0.328,0.353-0.462l1.203-1.404h0.883l-1.572,1.673l1.791,2.396h-0.9
		l-1.396-1.959l-0.378,0.429v1.53h-0.74v-5.969h0.74V131.569z"/>
</g>
<g>
	<path d="M452.714,157.693h1.056v5.408c0,2.146-1.056,2.807-2.447,2.807c-0.396,0-0.863-0.084-1.115-0.191l0.145-0.852
		c0.215,0.084,0.527,0.156,0.887,0.156c0.936,0,1.476-0.42,1.476-2.004V157.693z"/>
	<path d="M455.633,167.863c0.018,1.001,0.648,1.413,1.388,1.413c0.53,0,0.857-0.093,1.126-0.202l0.135,0.521
		c-0.26,0.117-0.715,0.261-1.361,0.261c-1.244,0-2.002-0.832-2.002-2.052c0-1.235,0.732-2.202,1.918-2.202
		c1.328,0,1.673,1.169,1.673,1.917c0,0.15-0.009,0.269-0.025,0.354L455.633,167.863z M457.794,167.334
		c0.009-0.462-0.193-1.202-1.017-1.202c-0.758,0-1.076,0.689-1.136,1.202H457.794z"/>
	<path d="M459.43,166.973c0-0.479-0.008-0.891-0.033-1.27h0.646l0.034,0.799h0.025c0.185-0.547,0.639-0.891,1.135-0.891
		c0.075,0,0.135,0.008,0.202,0.024v0.689c-0.084-0.009-0.16-0.017-0.261-0.017c-0.521,0-0.892,0.395-0.992,0.941
		c-0.017,0.109-0.025,0.227-0.025,0.354v2.169h-0.739L459.43,166.973z"/>
	<path d="M463.773,169.865c-1.092,0-1.95-0.808-1.95-2.094c0-1.362,0.899-2.16,2.019-2.16c1.168,0,1.959,0.849,1.959,2.084
		c0,1.514-1.052,2.17-2.019,2.17H463.773z M463.799,169.311c0.707,0,1.236-0.664,1.236-1.59c0-0.689-0.345-1.555-1.219-1.555
		c-0.866,0-1.244,0.807-1.244,1.58c0,0.891,0.504,1.564,1.219,1.564H463.799z"/>
	<path d="M470.135,168.662c0,0.421,0.008,0.791,0.033,1.11h-0.656l-0.042-0.664h-0.017c-0.186,0.327-0.622,0.757-1.346,0.757
		c-0.639,0-1.404-0.361-1.404-1.783v-2.379h0.74v2.245c0,0.773,0.244,1.303,0.908,1.303c0.496,0,0.841-0.345,0.976-0.681
		c0.042-0.102,0.067-0.235,0.067-0.379v-2.488h0.74V168.662z"/>
	<path d="M472.248,164.729v0.975h1.061v0.563h-1.061v2.194c0,0.504,0.144,0.79,0.556,0.79c0.202,0,0.319-0.017,0.429-0.05
		l0.033,0.563c-0.143,0.051-0.369,0.102-0.655,0.102c-0.345,0-0.622-0.118-0.799-0.312c-0.202-0.228-0.286-0.589-0.286-1.067v-2.22
		h-0.631v-0.563h0.631v-0.748L472.248,164.729z"/>
</g>
<g>
	<path d="M454.813,85.691h1.056V91.1c0,2.146-1.056,2.806-2.447,2.806c-0.396,0-0.863-0.084-1.115-0.192l0.145-0.852
		c0.215,0.084,0.527,0.156,0.887,0.156c0.936,0,1.476-0.42,1.476-2.003V85.691z"/>
	<path d="M457.732,95.862c0.018,1,0.648,1.413,1.388,1.413c0.53,0,0.857-0.092,1.126-0.202l0.135,0.521
		c-0.26,0.118-0.715,0.261-1.361,0.261c-1.244,0-2.002-0.832-2.002-2.051c0-1.236,0.732-2.203,1.918-2.203
		c1.328,0,1.673,1.168,1.673,1.917c0,0.151-0.009,0.269-0.025,0.354L457.732,95.862z M459.894,95.333
		c0.009-0.462-0.193-1.203-1.017-1.203c-0.758,0-1.076,0.689-1.136,1.203H459.894z"/>
	<path d="M461.529,94.971c0-0.479-0.008-0.891-0.033-1.27h0.646l0.034,0.799h0.025c0.185-0.546,0.639-0.891,1.135-0.891
		c0.075,0,0.135,0.008,0.202,0.025v0.689c-0.084-0.008-0.16-0.017-0.261-0.017c-0.521,0-0.892,0.395-0.992,0.941
		c-0.017,0.109-0.025,0.227-0.025,0.354v2.169h-0.739L461.529,94.971z"/>
	<path d="M467.117,97.627c-0.193,0.093-0.621,0.235-1.168,0.235c-1.228,0-2.026-0.832-2.026-2.085c0-1.252,0.858-2.169,2.187-2.169
		c0.438,0,0.824,0.109,1.025,0.218l-0.168,0.563c-0.177-0.092-0.454-0.193-0.857-0.193c-0.934,0-1.438,0.698-1.438,1.547
		c0,0.942,0.605,1.522,1.412,1.522c0.42,0,0.697-0.101,0.908-0.193L467.117,97.627z"/>
	<path d="M470.855,96.795c0,0.353,0.018,0.698,0.059,0.975h-0.664l-0.066-0.513h-0.025c-0.219,0.319-0.664,0.605-1.244,0.605
		c-0.824,0-1.244-0.58-1.244-1.168c0-0.984,0.873-1.522,2.445-1.513v-0.084c0-0.336-0.092-0.95-0.924-0.941
		c-0.387,0-0.782,0.109-1.068,0.303l-0.168-0.496c0.336-0.21,0.832-0.353,1.346-0.353c1.252,0,1.555,0.849,1.555,1.665V96.795z
		 M470.133,95.694c-0.807-0.017-1.724,0.126-1.724,0.917c0,0.487,0.319,0.706,0.689,0.706c0.538,0,0.883-0.336,1.001-0.681
		c0.025-0.076,0.033-0.16,0.033-0.235V95.694z"/>
</g>
<g>
	<path d="M294.227,261.055h1.233v6.316c0,2.508-1.233,3.278-2.857,3.278c-0.462,0-1.009-0.099-1.303-0.224l0.168-0.995
		c0.252,0.099,0.616,0.183,1.037,0.183c1.092,0,1.723-0.49,1.723-2.34V261.055z"/>
	<path d="M297.021,274.285c0.264,0.156,0.715,0.334,1.146,0.334c0.617,0,0.911-0.305,0.911-0.706c0-0.411-0.245-0.637-0.872-0.872
		c-0.862-0.313-1.264-0.773-1.264-1.342c0-0.764,0.627-1.391,1.636-1.391c0.48,0,0.901,0.127,1.156,0.293l-0.206,0.617
		c-0.186-0.107-0.529-0.273-0.97-0.273c-0.51,0-0.784,0.293-0.784,0.646c0,0.401,0.274,0.578,0.891,0.813
		c0.813,0.304,1.244,0.715,1.244,1.431c0,0.843-0.656,1.431-1.763,1.431c-0.519,0-0.999-0.138-1.332-0.334L297.021,274.285z"/>
	<path d="M304.987,273.864c0,0.489,0.01,0.921,0.039,1.293h-0.764l-0.049-0.774h-0.02c-0.216,0.383-0.725,0.883-1.567,0.883
		c-0.745,0-1.636-0.422-1.636-2.078v-2.771h0.862v2.615c0,0.901,0.284,1.519,1.058,1.519c0.578,0,0.979-0.401,1.136-0.794
		c0.049-0.117,0.078-0.273,0.078-0.44v-2.899h0.862V273.864z"/>
	<path d="M306.419,268.202h0.862v2.968h0.02c0.304-0.529,0.853-0.861,1.616-0.861c1.176,0,1.999,0.979,1.999,2.409
		c0,1.704-1.078,2.548-2.135,2.548c-0.686,0-1.225-0.266-1.587-0.893h-0.02l-0.049,0.784h-0.745c0.029-0.323,0.04-0.804,0.04-1.225
		V268.202z M307.281,273.257c0,0.108,0.01,0.216,0.029,0.313c0.167,0.598,0.676,1.009,1.293,1.009c0.911,0,1.44-0.734,1.44-1.821
		c0-0.961-0.49-1.773-1.411-1.773c-0.588,0-1.137,0.411-1.303,1.058c-0.029,0.108-0.049,0.226-0.049,0.362V273.257z"/>
	<path d="M316.629,274.951c-0.304,0.157-0.94,0.314-1.744,0.314c-1.861,0-3.252-1.176-3.252-3.352c0-2.076,1.401-3.467,3.448-3.467
		c0.813,0,1.342,0.176,1.567,0.293l-0.215,0.696c-0.313-0.157-0.774-0.274-1.323-0.274c-1.547,0-2.576,0.989-2.576,2.723
		c0,1.627,0.931,2.655,2.527,2.655c0.529,0,1.058-0.108,1.401-0.274L316.629,274.951z"/>
	<path d="M320.952,274.021c0,0.41,0.02,0.813,0.068,1.136h-0.774l-0.078-0.598h-0.029c-0.255,0.372-0.774,0.706-1.45,0.706
		c-0.96,0-1.45-0.677-1.45-1.362c0-1.146,1.019-1.772,2.851-1.763v-0.099c0-0.392-0.107-1.106-1.078-1.097
		c-0.45,0-0.911,0.127-1.244,0.352l-0.196-0.577c0.392-0.245,0.97-0.411,1.567-0.411c1.46,0,1.813,0.988,1.813,1.939V274.021z
		 M320.109,272.738c-0.94-0.021-2.008,0.146-2.008,1.066c0,0.568,0.372,0.824,0.803,0.824c0.627,0,1.028-0.393,1.166-0.794
		c0.029-0.089,0.04-0.187,0.04-0.274V272.738z"/>
	<path d="M321.61,275.549l2.723-7.102h0.676l-2.743,7.102H321.61z"/>
	<path d="M330.33,274.951c-0.304,0.157-0.94,0.314-1.744,0.314c-1.861,0-3.252-1.176-3.252-3.352c0-2.076,1.401-3.467,3.448-3.467
		c0.813,0,1.342,0.176,1.567,0.293l-0.215,0.696c-0.313-0.157-0.774-0.274-1.323-0.274c-1.547,0-2.576,0.989-2.576,2.723
		c0,1.627,0.931,2.655,2.527,2.655c0.529,0,1.058-0.108,1.401-0.274L330.33,274.951z"/>
	<path d="M334.652,274.021c0,0.41,0.02,0.813,0.068,1.136h-0.774l-0.078-0.598h-0.029c-0.255,0.372-0.774,0.706-1.45,0.706
		c-0.96,0-1.45-0.677-1.45-1.362c0-1.146,1.019-1.772,2.851-1.763v-0.099c0-0.392-0.107-1.106-1.078-1.097
		c-0.45,0-0.911,0.127-1.244,0.352l-0.196-0.577c0.392-0.245,0.97-0.411,1.567-0.411c1.46,0,1.813,0.988,1.813,1.939V274.021z
		 M333.81,272.738c-0.94-0.021-2.008,0.146-2.008,1.066c0,0.568,0.372,0.824,0.803,0.824c0.627,0,1.028-0.393,1.166-0.794
		c0.029-0.089,0.04-0.187,0.04-0.274V272.738z"/>
</g>
<g>
	<path d="M647.563,75.503h-2.609v2.429h2.919v0.729h-3.798v-6.736h3.648v0.729h-2.77v2.129h2.609V75.503z"/>
	<path d="M649.004,72.024c0.439-0.09,1.08-0.149,1.67-0.149c0.929,0,1.539,0.18,1.959,0.56c0.329,0.29,0.529,0.75,0.529,1.279
		c0,0.88-0.57,1.469-1.27,1.709v0.03c0.51,0.18,0.82,0.659,0.989,1.359c0.22,0.939,0.38,1.589,0.51,1.849h-0.899
		c-0.109-0.189-0.26-0.77-0.439-1.609c-0.2-0.93-0.57-1.279-1.359-1.309h-0.82v2.918h-0.869V72.024z M649.873,75.083h0.891
		c0.93,0,1.519-0.51,1.519-1.279c0-0.869-0.63-1.249-1.549-1.249c-0.42,0-0.71,0.04-0.86,0.08V75.083z"/>
</g>
<g>
	<path d="M324.795,82.459c0.468,0.3,1.139,0.528,1.859,0.528c1.067,0,1.691-0.564,1.691-1.38c0-0.743-0.432-1.188-1.523-1.595
		c-1.319-0.479-2.135-1.176-2.135-2.303c0-1.26,1.043-2.195,2.615-2.195c0.815,0,1.427,0.192,1.775,0.396l-0.288,0.852
		c-0.252-0.156-0.792-0.384-1.523-0.384c-1.103,0-1.523,0.659-1.523,1.211c0,0.756,0.492,1.127,1.607,1.56
		c1.368,0.527,2.051,1.187,2.051,2.374c0,1.247-0.912,2.339-2.819,2.339c-0.779,0-1.631-0.24-2.063-0.527L324.795,82.459z"/>
	<path d="M330.711,82.459c0.468,0.3,1.139,0.528,1.859,0.528c1.067,0,1.691-0.564,1.691-1.38c0-0.743-0.432-1.188-1.523-1.595
		c-1.319-0.479-2.135-1.176-2.135-2.303c0-1.26,1.043-2.195,2.615-2.195c0.815,0,1.427,0.192,1.775,0.396l-0.288,0.852
		c-0.252-0.156-0.792-0.384-1.523-0.384c-1.103,0-1.523,0.659-1.523,1.211c0,0.756,0.492,1.127,1.607,1.56
		c1.368,0.527,2.051,1.187,2.051,2.374c0,1.247-0.912,2.339-2.819,2.339c-0.779,0-1.631-0.24-2.063-0.527L330.711,82.459z"/>
</g>
<g>
	<g id="g7883" transform="translate(-123.917,-74.83302)">
		
			<radialGradient id="path2526_1_" cx="370.6094" cy="332.5117" r="28.0308" gradientTransform="matrix(0.3664 0 0 -0.3664 475.8872 449.3951)" gradientUnits="userSpaceOnUse">
			<stop  offset="0" style="stop-color:#ADD153"/>
			<stop  offset="0.4082" style="stop-color:#AAD051"/>
			<stop  offset="0.5552" style="stop-color:#A6CF52"/>
			<stop  offset="0.66" style="stop-color:#9ECC52"/>
			<stop  offset="0.7448" style="stop-color:#93C850"/>
			<stop  offset="0.8174" style="stop-color:#84C450"/>
			<stop  offset="0.8817" style="stop-color:#76C052"/>
			<stop  offset="0.9398" style="stop-color:#64BB52"/>
			<stop  offset="0.9915" style="stop-color:#58B953"/>
			<stop  offset="1" style="stop-color:#58B953"/>
		</radialGradient>
		<path id="path2526" fill="url(#path2526_1_)" d="M621.949,327.564c0,5.671-4.597,10.269-10.271,10.269
			c-5.673,0-10.271-4.6-10.271-10.269c0-5.672,4.597-10.271,10.271-10.271C617.353,317.293,621.949,321.891,621.949,327.564z"/>
		<path id="path2528" fill="none" stroke="#000000" stroke-width="0.9921" d="M621.949,327.397c0,5.671-4.597,10.269-10.271,10.269
			c-5.673,0-10.271-4.6-10.271-10.269c0-5.672,4.597-10.271,10.271-10.271C617.353,317.126,621.949,321.724,621.949,327.397z"/>
	</g>
	<g>
		<path d="M482.936,246.087v8.084h-1.056v-8.084H482.936z"/>
		<path d="M484.76,246.195c0.504-0.096,1.164-0.168,2.004-0.168c1.031,0,1.786,0.24,2.266,0.672c0.444,0.384,0.721,0.972,0.721,1.69
			c0,0.732-0.217,1.308-0.637,1.728c-0.551,0.588-1.451,0.888-2.471,0.888c-0.312,0-0.6-0.013-0.839-0.072v3.238h-1.044V246.195z
			 M485.804,250.081c0.228,0.061,0.527,0.084,0.863,0.084c1.271,0,2.026-0.624,2.026-1.715c0-1.079-0.755-1.596-1.906-1.596
			c-0.456,0-0.804,0.049-0.983,0.084V250.081z"/>
		<path d="M490.787,257.326c0.211,0.126,0.689,0.336,1.211,0.336c0.941,0,1.244-0.597,1.236-1.059
			c-0.009-0.766-0.698-1.094-1.413-1.094h-0.411v-0.555h0.411c0.538,0,1.22-0.277,1.22-0.925c0-0.438-0.277-0.824-0.959-0.824
			c-0.438,0-0.857,0.193-1.093,0.362l-0.202-0.538c0.295-0.211,0.85-0.421,1.438-0.421c1.076,0,1.564,0.64,1.564,1.304
			c0,0.571-0.345,1.051-1.01,1.295v0.017c0.674,0.126,1.22,0.63,1.22,1.396c0,0.874-0.689,1.64-1.993,1.64
			c-0.613,0-1.151-0.193-1.42-0.37L490.787,257.326z"/>
	</g>
</g>
<g>
	<g>
		<g id="g1177">
			<path id="path30085_1_" fill="none" stroke="#000000" stroke-width="2" stroke-linecap="round" stroke-linejoin="round" d="
				M485.878,238.012l0.08-0.842v-35.364"/>
			<path id="path84039_1_" fill="none" stroke="#000000" stroke-width="2" stroke-linecap="round" stroke-linejoin="round" d="
				M490.358,238.207l-0.082-0.844v-35.365"/>
		</g>
	</g>
	<g id="g7883_1_" transform="translate(-123.917,-74.83302)">
		<path id="path2528_3_" fill="none" stroke="#000000" stroke-width="2" d="M614.043,313.059
			c6.046,1.112,10.624,6.408,10.624,12.776"/>
		<path id="path2528_1_" fill="none" stroke="#000000" stroke-width="2" d="M598.688,325.835c0-6.577,4.889-12.016,11.234-12.873"/>
	</g>
</g>
</svg>
