<?xml version="1.0" encoding="UTF-8" standalone="no"?>
<!DOCTYPE svg PUBLIC "-//W3C//DTD SVG 1.1//EN"
 "http://www.w3.org/Graphics/SVG/1.1/DTD/svg11.dtd">
<!-- Generated by graphviz version 2.24.0 (20090616.2323)
 -->
<!-- Title: G Pages: 1 -->
<svg width="910pt" height="114pt"
 viewBox="0.00 0.00 910.00 114.00" xmlns="http://www.w3.org/2000/svg" xmlns:xlink="http://www.w3.org/1999/xlink">
<g id="graph1" class="graph" transform="scale(1 1) rotate(0) translate(4 110)">
<title>G</title>
<polygon fill="white" stroke="white" points="-4,5 -4,-110 907,-110 907,5 -4,5"/>
<!-- z -->
<g id="node1" class="node"><title>z</title>
<ellipse fill="none" stroke="black" cx="40" cy="-32" rx="38.8989" ry="18"/>
<text text-anchor="middle" x="40" y="-29.5" font-family="Times Roman,serif" font-size="10.00">Zymogen</text>
</g>
<!-- v1_intermediate_r -->
<g id="node6" class="node"><title>v1_intermediate_r</title>
<ellipse fill="black" stroke="black" cx="117" cy="-51" rx="0.036" ry="0.036"/>
</g>
<!-- z&#45;&gt;v1_intermediate_r -->
<g id="edge4" class="edge"><title>z&#45;&gt;v1_intermediate_r</title>
<path fill="none" stroke="black" d="M84.6196,-43.01C100.995,-47.0508 115.855,-50.7176 116.937,-50.9845"/>
<polygon fill="black" stroke="black" points="85.4426,-39.6082 74.8953,-40.6105 83.7656,-46.4044 85.4426,-39.6082"/>
</g>
<!-- v2_intermediate_r -->
<g id="node14" class="node"><title>v2_intermediate_r</title>
<ellipse fill="black" stroke="black" cx="349" cy="-18" rx="0.036" ry="0.036"/>
</g>
<!-- z&#45;&gt;v2_intermediate_r -->
<g id="edge14" class="edge"><title>z&#45;&gt;v2_intermediate_r</title>
<path fill="none" stroke="black" d="M85.5156,-21.9864C108.099,-17.8484 135.86,-14 161,-14 161,-14 161,-14 205,-14 268.024,-14 346.505,-17.876 348.942,-17.9971"/>
<polygon fill="black" stroke="black" points="84.6966,-18.5795 75.5318,-23.8952 86.0112,-25.4549 84.6966,-18.5795"/>
</g>
<!-- e -->
<g id="node2" class="node"><title>e</title>
<ellipse fill="none" stroke="black" cx="277" cy="-60" rx="35.0885" ry="18"/>
<text text-anchor="middle" x="277" y="-57.5" font-family="Times Roman,serif" font-size="10.00">Enzyme</text>
</g>
<!-- e&#45;&gt;v2_intermediate_r -->
<g id="edge16" class="edge"><title>e&#45;&gt;v2_intermediate_r</title>
<path fill="none" stroke="black" d="M309.067,-41.2943C327.582,-30.4936 347.503,-18.8735 348.92,-18.0469"/>
<polygon fill="black" stroke="black" points="307.052,-38.4178 300.178,-46.4797 310.579,-44.4642 307.052,-38.4178"/>
</g>
<!-- w -->
<g id="node3" class="node"><title>w</title>
<ellipse fill="none" stroke="black" cx="867" cy="-85" rx="33.9733" ry="18"/>
<text text-anchor="middle" x="867" y="-82.5" font-family="Times Roman,serif" font-size="10.00">Peptide</text>
</g>
<!-- ez -->
<g id="node4" class="node"><title>ez</title>
<ellipse fill="none" stroke="black" cx="572" cy="-18" rx="96.764" ry="18"/>
<text text-anchor="middle" x="572" y="-15.5" font-family="Times Roman,serif" font-size="10.00">Enzyme&#45;Substrate complex</text>
</g>
<!-- v3_intermediate_r -->
<g id="node22" class="node"><title>v3_intermediate_r</title>
<ellipse fill="black" stroke="black" cx="707" cy="-21" rx="0.036" ry="0.036"/>
</g>
<!-- ez&#45;&gt;v3_intermediate_r -->
<g id="edge24" class="edge"><title>ez&#45;&gt;v3_intermediate_r</title>
<path fill="none" stroke="black" d="M679.291,-20.3842C694.928,-20.7317 706.134,-20.9807 706.952,-20.9989"/>
<polygon fill="black" stroke="black" points="679.111,-16.8795 669.036,-20.1563 678.955,-23.8777 679.111,-16.8795"/>
</g>
<!-- v1 -->
<g id="node5" class="node"><title>v1</title>
<polygon fill="none" stroke="black" points="168,-63 154,-63 154,-49 168,-49 168,-63"/>
</g>
<!-- v1_intermediate_p -->
<g id="node9" class="node"><title>v1_intermediate_p</title>
<ellipse fill="black" stroke="black" cx="205" cy="-60" rx="0.036" ry="0.036"/>
</g>
<!-- v1&#45;&gt;v1_intermediate_p -->
<g id="edge6" class="edge"><title>v1&#45;&gt;v1_intermediate_p</title>
<path fill="none" stroke="black" d="M168.266,-56.6605C180.372,-57.7611 203.497,-59.8633 204.93,-59.9936"/>
</g>
<!-- v1_intermediate_r&#45;&gt;v1 -->
<g id="edge2" class="edge"><title>v1_intermediate_r&#45;&gt;v1</title>
<path fill="none" stroke="black" d="M117.126,-51.0143C119.022,-51.2297 141.795,-53.8176 153.759,-55.1772"/>
</g>
<!-- v1_intermediate_p&#45;&gt;e -->
<g id="edge10" class="edge"><title>v1_intermediate_p&#45;&gt;e</title>
<path fill="none" stroke="black" d="M205.052,-60C205.929,-60 217.748,-60 231.561,-60"/>
<polygon fill="black" stroke="black" points="231.844,-63.5001 241.844,-60 231.844,-56.5001 231.844,-63.5001"/>
</g>
<!-- v1_intermediate_p&#45;&gt;w -->
<g id="edge8" class="edge"><title>v1_intermediate_p&#45;&gt;w</title>
<path fill="none" stroke="black" d="M205.053,-60.0548C206.143,-61.1777 223.859,-79.2645 242,-87 286.429,-105.945 300.701,-106 349,-106 349,-106 349,-106 751,-106 776.38,-106 804.391,-101.072 826.528,-95.9911"/>
<polygon fill="black" stroke="black" points="827.345,-99.3945 836.256,-93.6627 825.716,-92.5868 827.345,-99.3945"/>
</g>
<!-- v2 -->
<g id="node13" class="node"><title>v2</title>
<polygon fill="none" stroke="black" points="400,-25 386,-25 386,-11 400,-11 400,-25"/>
</g>
<!-- v2_intermediate_p -->
<g id="node18" class="node"><title>v2_intermediate_p</title>
<ellipse fill="black" stroke="black" cx="437" cy="-18" rx="0.036" ry="0.036"/>
</g>
<!-- v2&#45;&gt;v2_intermediate_p -->
<g id="edge18" class="edge"><title>v2&#45;&gt;v2_intermediate_p</title>
<path fill="none" stroke="black" d="M400.266,-18C412.372,-18 435.497,-18 436.93,-18"/>
</g>
<!-- v2_intermediate_r&#45;&gt;v2 -->
<g id="edge12" class="edge"><title>v2_intermediate_r&#45;&gt;v2</title>
<path fill="none" stroke="black" d="M349.126,-18C351.022,-18 373.795,-18 385.759,-18"/>
</g>
<!-- v2_intermediate_p&#45;&gt;ez -->
<g id="edge20" class="edge"><title>v2_intermediate_p&#45;&gt;ez</title>
<path fill="none" stroke="black" d="M437.098,-18C438.224,-18 448.975,-18 463.959,-18"/>
<polygon fill="black" stroke="black" points="464.359,-21.5001 474.359,-18 464.359,-14.5001 464.359,-21.5001"/>
</g>
<!-- v3 -->
<g id="node21" class="node"><title>v3</title>
<polygon fill="none" stroke="black" points="758,-33 744,-33 744,-19 758,-19 758,-33"/>
</g>
<!-- v3_intermediate_p -->
<g id="node25" class="node"><title>v3_intermediate_p</title>
<ellipse fill="black" stroke="black" cx="795" cy="-64" rx="0.036" ry="0.036"/>
</g>
<!-- v3&#45;&gt;v3_intermediate_p -->
<g id="edge26" class="edge"><title>v3&#45;&gt;v3_intermediate_p</title>
<path fill="none" stroke="black" d="M758.266,-32.2749C770.372,-42.7307 793.497,-62.7017 794.93,-63.9396"/>
</g>
<!-- v3_intermediate_r&#45;&gt;v3 -->
<g id="edge22" class="edge"><title>v3_intermediate_r&#45;&gt;v3</title>
<path fill="none" stroke="black" d="M707.126,-21.0143C709.022,-21.2297 731.795,-23.8176 743.759,-25.1772"/>
</g>
<!-- v3_intermediate_p&#45;&gt;e -->
<g id="edge30" class="edge"><title>v3_intermediate_p&#45;&gt;e</title>
<path fill="none" stroke="black" d="M794.859,-64C791.954,-64 744.889,-64 707,-64 393,-64 393,-64 393,-64 369.622,-64 343.609,-63.1785 322.151,-62.2801"/>
<polygon fill="black" stroke="black" points="322.158,-58.7771 312.015,-61.8361 321.852,-65.7704 322.158,-58.7771"/>
</g>
<!-- v3_intermediate_p&#45;&gt;w -->
<g id="edge28" class="edge"><title>v3_intermediate_p&#45;&gt;w</title>
<path fill="none" stroke="black" d="M795.052,-64.0152C796.04,-64.3032 810.889,-68.6343 826.843,-73.2874"/>
<polygon fill="black" stroke="black" points="826.225,-76.7529 836.805,-76.193 828.185,-70.0329 826.225,-76.7529"/>
</g>
</g>
</svg>
