<?xml version="1.0" encoding="utf-8"?>
<!-- Generator: Adobe Illustrator 14.0.0, SVG Export Plug-In . SVG Version: 6.00 Build 43363)  -->
<!DOCTYPE svg PUBLIC "-//W3C//DTD SVG 1.1//EN" "http://www.w3.org/Graphics/SVG/1.1/DTD/svg11.dtd">
<svg version="1.1" id="Layer_1" xmlns="http://www.w3.org/2000/svg" xmlns:xlink="http://www.w3.org/1999/xlink" x="0px" y="0px"
	 width="580px" height="389px" viewBox="0 0 580 389" enable-background="new 0 0 580 389" xml:space="preserve">
<g>
	<ellipse fill="#CDE1F0" stroke="#231F20" cx="106.16" cy="70.965" rx="13.243" ry="7.973"/>
	<ellipse fill="#CDE1F0" stroke="#231F20" cx="114.156" cy="95.78" rx="13.243" ry="7.973"/>
	<ellipse fill="#CDE1F0" stroke="#231F20" cx="144.008" cy="73.889" rx="13.244" ry="7.973"/>
	<ellipse fill="#CDE1F0" stroke="#231F20" cx="151.306" cy="100.425" rx="13.244" ry="7.973"/>
	<ellipse fill="#CDE1F0" stroke="#231F20" cx="80.323" cy="90.473" rx="13.243" ry="7.973"/>
	<ellipse fill="#CDE1F0" stroke="#231F20" cx="94.883" cy="119.392" rx="13.244" ry="7.973"/>
	<ellipse fill="#CDE1F0" stroke="#231F20" cx="131.404" cy="120.989" rx="13.244" ry="7.973"/>
</g>
<g>
	<ellipse fill="#8DC63F" stroke="#231F20" cx="103.041" cy="231.555" rx="13.244" ry="7.973"/>
	<ellipse fill="#8DC63F" stroke="#231F20" cx="111.036" cy="256.37" rx="13.244" ry="7.973"/>
	<ellipse fill="#8DC63F" stroke="#231F20" cx="140.889" cy="234.479" rx="13.244" ry="7.973"/>
	<ellipse fill="#8DC63F" stroke="#231F20" cx="148.186" cy="261.015" rx="13.243" ry="7.973"/>
	<ellipse fill="#8DC63F" stroke="#231F20" cx="77.204" cy="251.063" rx="13.244" ry="7.973"/>
	<ellipse fill="#8DC63F" stroke="#231F20" cx="91.763" cy="279.981" rx="13.244" ry="7.973"/>
	<ellipse fill="#8DC63F" stroke="#231F20" cx="128.284" cy="281.578" rx="13.244" ry="7.974"/>
</g>
<g>
	<ellipse fill="#F7941E" stroke="#231F20" cx="312.447" cy="70.964" rx="13.244" ry="7.973"/>
	<ellipse fill="#F7941E" stroke="#231F20" cx="320.442" cy="95.78" rx="13.244" ry="7.974"/>
	<ellipse fill="#F7941E" stroke="#231F20" cx="350.295" cy="73.888" rx="13.244" ry="7.974"/>
	<ellipse fill="#F7941E" stroke="#231F20" cx="357.592" cy="100.424" rx="13.243" ry="7.974"/>
	<ellipse fill="#F7941E" stroke="#231F20" cx="286.61" cy="90.472" rx="13.244" ry="7.974"/>
	<ellipse fill="#F7941E" stroke="#231F20" cx="301.168" cy="119.391" rx="13.244" ry="7.974"/>
	<ellipse fill="#F7941E" stroke="#231F20" cx="337.69" cy="120.988" rx="13.244" ry="7.974"/>
</g>
<g>
	<ellipse fill="#F15A29" stroke="#231F20" cx="33.233" cy="150.676" rx="8.49" ry="5.11"/>
	<ellipse fill="#F15A29" stroke="#231F20" cx="51" cy="157.944" rx="8.49" ry="5.109"/>
	<ellipse fill="#F15A29" stroke="#231F20" cx="31.942" cy="165.212" rx="8.489" ry="5.11"/>
	<ellipse fill="#F15A29" stroke="#231F20" cx="15.952" cy="156.49" rx="8.489" ry="5.11"/>
</g>
<g>
	<g>
		<line fill="none" stroke="#010101" x1="115.814" y1="184.719" x2="115.814" y2="133.267"/>
		<polygon fill="#010101" points="112.111,181.91 115.814,183.483 119.519,181.91 115.814,190.688 		"/>
	</g>
</g>
<g>
	<g>
		<line fill="none" stroke="#010101" x1="266" y1="251.433" x2="190.357" y2="251.433"/>
		<polygon fill="#010101" points="263.191,255.136 264.764,251.433 263.191,247.729 271.969,251.433 		"/>
	</g>
</g>
<g>
	<ellipse fill="#FFF200" stroke="#231F20" cx="404.425" cy="278.001" rx="13.244" ry="7.973"/>
	<ellipse fill="#FFF200" stroke="#231F20" cx="404.425" cy="213.595" rx="13.244" ry="7.974"/>
	<ellipse fill="#FFF200" stroke="#231F20" cx="404.425" cy="242.778" rx="13.244" ry="7.974"/>
	<ellipse fill="#FFF200" stroke="#231F20" cx="299.203" cy="255.432" rx="13.243" ry="7.974"/>
	<ellipse fill="#FFF200" stroke="#231F20" cx="404.425" cy="303.61" rx="13.244" ry="7.974"/>
	<g>
		<g>
			<line fill="none" stroke="#010101" x1="325.545" y1="237.947" x2="308.588" y2="248.97"/>
			<polygon fill="#010101" points="325.208,242.583 324.509,238.621 321.171,236.373 330.55,234.694 			"/>
		</g>
	</g>
	<g>
		<g>
			<line fill="none" stroke="#010101" x1="325.545" y1="274.18" x2="308.588" y2="263.156"/>
			<polygon fill="#010101" points="321.172,275.754 324.509,273.506 325.209,269.543 330.55,277.433 			"/>
		</g>
	</g>
	<g>
		<g>
			<line fill="none" stroke="#010101" x1="375.763" y1="216.056" x2="358.806" y2="227.08"/>
			<polygon fill="#010101" points="375.426,220.692 374.727,216.729 371.389,214.481 380.768,212.803 			"/>
		</g>
	</g>
	<g>
		<g>
			<line fill="none" stroke="#010101" x1="374.763" y1="296.638" x2="357.806" y2="285.614"/>
			<polygon fill="#010101" points="370.39,298.212 373.727,295.964 374.427,292.001 379.768,299.891 			"/>
		</g>
	</g>
	<g>
		<g>
			<line fill="none" stroke="#010101" x1="379.374" y1="274.001" x2="359.194" y2="272.641"/>
			<polygon fill="#010101" points="376.323,277.507 378.141,273.918 376.82,270.116 385.33,274.402 			"/>
		</g>
	</g>
	<g>
		<g>
			<line fill="none" stroke="#010101" x1="379.374" y1="238.779" x2="359.194" y2="240.139"/>
			<polygon fill="#010101" points="376.82,242.663 378.141,238.862 376.322,235.272 385.33,238.377 			"/>
		</g>
	</g>
	<ellipse fill="#FFF200" stroke="#231F20" cx="351.03" cy="235.486" rx="13.244" ry="7.974"/>
	<ellipse fill="#FFF200" stroke="#231F20" cx="351.03" cy="276.641" rx="13.244" ry="7.974"/>
</g>
<g>
	<g>
		<line fill="none" stroke="#010101" x1="241.809" y1="94.522" x2="190.357" y2="94.522"/>
		<polygon fill="#010101" points="239,98.226 240.572,94.522 239,90.818 247.777,94.522 		"/>
	</g>
</g>
<g>
	<line fill="none" stroke="#010101" x1="422.258" y1="230.179" x2="462.271" y2="230.179"/>
	<line fill="none" stroke="#010101" x1="462.271" y1="230.179" x2="462.271" y2="94.522"/>
</g>
<g>
	<g>
		<line fill="none" stroke="#010101" x1="460.811" y1="94.522" x2="406.426" y2="94.522"/>
		<polygon fill="#010101" points="409.234,90.819 407.662,94.522 409.234,98.227 400.457,94.522 		"/>
	</g>
</g>
<g>
	<line fill="none" stroke="#010101" x1="422.258" y1="291.126" x2="462.271" y2="291.126"/>
	<line fill="none" stroke="#010101" x1="462.271" y1="291.126" x2="462.271" y2="378.595"/>
</g>
<line fill="none" stroke="#231F20" x1="460.625" y1="378.595" x2="114.156" y2="378.595"/>
<g>
	<g>
		<line fill="none" stroke="#231F20" x1="114.156" y1="378.595" x2="114.156" y2="303.611"/>
		<polygon fill="#231F20" points="117.859,306.419 114.156,304.847 110.452,306.419 114.156,297.642 		"/>
	</g>
</g>
<g>
	<ellipse fill="#F15A29" stroke="#231F20" cx="212.397" cy="32.702" rx="8.49" ry="5.11"/>
	<ellipse fill="#F15A29" stroke="#231F20" cx="230.164" cy="39.97" rx="8.49" ry="5.109"/>
	<ellipse fill="#F15A29" stroke="#231F20" cx="211.105" cy="47.238" rx="8.489" ry="5.11"/>
	<ellipse fill="#F15A29" stroke="#231F20" cx="195.115" cy="38.516" rx="8.489" ry="5.11"/>
</g>
<path fill="none" stroke="#010101" d="M115.16,172.127c0-10.619-17.8-16.989-47.837-16.989"/>
<path fill="none" stroke="#010101" d="M209.611,59.643c0,21.651,6.297,34.642,16.923,34.642"/>
<g>
	<path d="M213.308,359.024c0.528-0.096,1.295-0.168,2.002-0.168c1.115,0,1.848,0.216,2.339,0.659
		c0.396,0.36,0.636,0.912,0.636,1.548c0,1.056-0.672,1.763-1.512,2.051v0.036c0.612,0.216,0.984,0.791,1.176,1.631
		c0.264,1.127,0.456,1.907,0.624,2.219h-1.079c-0.133-0.24-0.312-0.924-0.528-1.931c-0.239-1.115-0.684-1.535-1.631-1.571h-0.983
		V367h-1.043V359.024z M214.352,362.706h1.067c1.115,0,1.823-0.611,1.823-1.535c0-1.043-0.756-1.499-1.859-1.499
		c-0.504,0-0.852,0.036-1.031,0.084V362.706z"/>
	<path d="M220.363,364.289c0.024,1.428,0.924,2.016,1.991,2.016c0.755,0,1.224-0.132,1.606-0.3l0.192,0.755
		c-0.372,0.168-1.019,0.372-1.942,0.372c-1.787,0-2.855-1.188-2.855-2.938s1.032-3.118,2.723-3.118c1.907,0,2.399,1.655,2.399,2.723
		c0,0.216-0.013,0.372-0.036,0.491H220.363z M223.458,363.534c0.012-0.66-0.276-1.703-1.464-1.703c-1.079,0-1.535,0.972-1.619,1.703
		H223.458z"/>
	<path d="M226.195,361.195l1.14,3.25c0.192,0.54,0.348,1.02,0.468,1.499h0.035c0.133-0.479,0.301-0.959,0.492-1.499l1.127-3.25
		h1.104L228.282,367h-1.007l-2.207-5.805H226.195z"/>
	<path d="M232.027,364.289c0.024,1.428,0.924,2.016,1.991,2.016c0.755,0,1.224-0.132,1.606-0.3l0.192,0.755
		c-0.372,0.168-1.019,0.372-1.942,0.372c-1.787,0-2.855-1.188-2.855-2.938s1.032-3.118,2.723-3.118c1.907,0,2.399,1.655,2.399,2.723
		c0,0.216-0.013,0.372-0.036,0.491H232.027z M235.122,363.534c0.012-0.66-0.276-1.703-1.464-1.703c-1.079,0-1.535,0.972-1.619,1.703
		H235.122z"/>
	<path d="M237.451,363.006c0-0.684-0.012-1.271-0.047-1.811h0.923l0.048,1.151h0.036c0.264-0.779,0.911-1.271,1.619-1.271
		c0.108,0,0.192,0.012,0.288,0.024v0.995c-0.108-0.024-0.217-0.024-0.359-0.024c-0.744,0-1.271,0.552-1.416,1.344
		c-0.023,0.144-0.035,0.324-0.035,0.491V367h-1.057V363.006z"/>
	<path d="M241.231,365.933c0.324,0.191,0.876,0.408,1.403,0.408c0.756,0,1.115-0.372,1.115-0.864c0-0.504-0.3-0.768-1.067-1.055
		c-1.056-0.384-1.547-0.948-1.547-1.644c0-0.936,0.768-1.703,2.003-1.703c0.588,0,1.104,0.156,1.415,0.36l-0.252,0.768
		c-0.228-0.145-0.647-0.349-1.187-0.349c-0.625,0-0.96,0.36-0.96,0.792c0,0.479,0.335,0.695,1.091,0.995
		c0.996,0.372,1.523,0.876,1.523,1.739c0,1.031-0.803,1.751-2.158,1.751c-0.637,0-1.224-0.168-1.632-0.407L241.231,365.933z"/>
	<path d="M247.303,359.564c0,0.359-0.252,0.647-0.672,0.647c-0.383,0-0.635-0.288-0.635-0.647c0-0.36,0.264-0.66,0.659-0.66
		C247.039,358.904,247.303,359.192,247.303,359.564z M246.127,367v-5.805h1.057V367H246.127z"/>
	<path d="M254.188,364.05c0,2.146-1.499,3.082-2.89,3.082c-1.56,0-2.783-1.151-2.783-2.986c0-1.931,1.283-3.07,2.879-3.07
		C253.062,361.075,254.188,362.286,254.188,364.05z M249.596,364.109c0,1.271,0.719,2.231,1.75,2.231
		c1.008,0,1.764-0.948,1.764-2.255c0-0.983-0.492-2.219-1.739-2.219C250.135,361.867,249.596,363.019,249.596,364.109z"/>
	<path d="M255.523,362.767c0-0.612-0.012-1.092-0.048-1.571h0.936l0.06,0.959h0.024c0.288-0.539,0.96-1.079,1.919-1.079
		c0.803,0,2.051,0.479,2.051,2.471V367h-1.056v-3.346c0-0.936-0.348-1.716-1.343-1.716c-0.684,0-1.224,0.492-1.416,1.08
		c-0.047,0.132-0.071,0.312-0.071,0.491V367h-1.056V362.767z"/>
	<path d="M265.998,359.804v1.392h1.512v0.804h-1.512v3.13c0,0.72,0.204,1.128,0.792,1.128c0.288,0,0.456-0.024,0.611-0.072
		l0.048,0.804c-0.203,0.071-0.527,0.144-0.936,0.144c-0.491,0-0.887-0.168-1.139-0.443c-0.288-0.324-0.408-0.84-0.408-1.523v-3.166
		h-0.899v-0.804h0.899v-1.079L265.998,359.804z"/>
	<path d="M273.88,364.05c0,2.146-1.499,3.082-2.89,3.082c-1.56,0-2.783-1.151-2.783-2.986c0-1.931,1.283-3.07,2.879-3.07
		C272.753,361.075,273.88,362.286,273.88,364.05z M269.287,364.109c0,1.271,0.719,2.231,1.75,2.231c1.008,0,1.764-0.948,1.764-2.255
		c0-0.983-0.492-2.219-1.739-2.219C269.826,361.867,269.287,363.019,269.287,364.109z"/>
	<path d="M279.03,359.804v1.392h1.511v0.804h-1.511v3.13c0,0.72,0.204,1.128,0.792,1.128c0.287,0,0.455-0.024,0.611-0.072
		l0.048,0.804c-0.204,0.071-0.528,0.144-0.936,0.144c-0.491,0-0.888-0.168-1.14-0.443c-0.287-0.324-0.408-0.84-0.408-1.523v-3.166
		H277.1v-0.804h0.898v-1.079L279.03,359.804z"/>
	<path d="M281.73,358.484h1.057v3.635h0.023c0.168-0.301,0.432-0.576,0.756-0.756c0.312-0.18,0.684-0.288,1.079-0.288
		c0.779,0,2.026,0.479,2.026,2.471V367h-1.055v-3.334c0-0.936-0.348-1.715-1.344-1.715c-0.684,0-1.211,0.479-1.415,1.043
		c-0.06,0.156-0.071,0.312-0.071,0.504V367h-1.057V358.484z"/>
	<path d="M288.979,364.289c0.023,1.428,0.924,2.016,1.99,2.016c0.756,0,1.224-0.132,1.607-0.3l0.191,0.755
		c-0.371,0.168-1.019,0.372-1.942,0.372c-1.787,0-2.854-1.188-2.854-2.938s1.031-3.118,2.723-3.118c1.907,0,2.398,1.655,2.398,2.723
		c0,0.216-0.012,0.372-0.035,0.491H288.979z M292.072,363.534c0.012-0.66-0.275-1.703-1.463-1.703c-1.079,0-1.535,0.972-1.619,1.703
		H292.072z"/>
	<path d="M296.947,358.484h1.055V367h-1.055V358.484z"/>
	<path d="M303.855,365.608c0,0.504,0.024,0.996,0.084,1.392h-0.947l-0.084-0.731h-0.035c-0.324,0.456-0.947,0.863-1.775,0.863
		c-1.176,0-1.775-0.827-1.775-1.667c0-1.403,1.248-2.171,3.49-2.159v-0.119c0-0.468-0.132-1.344-1.319-1.332
		c-0.552,0-1.115,0.156-1.522,0.432l-0.24-0.707c0.479-0.3,1.188-0.504,1.919-0.504c1.774,0,2.206,1.211,2.206,2.362V365.608z
		 M302.837,364.038c-1.151-0.024-2.459,0.18-2.459,1.307c0,0.696,0.456,1.008,0.983,1.008c0.768,0,1.26-0.479,1.428-0.972
		c0.035-0.12,0.048-0.24,0.048-0.336V364.038z"/>
	<path d="M306.786,359.804v1.392h1.511v0.804h-1.511v3.13c0,0.72,0.204,1.128,0.792,1.128c0.287,0,0.455-0.024,0.611-0.072
		l0.048,0.804c-0.204,0.071-0.528,0.144-0.936,0.144c-0.491,0-0.888-0.168-1.14-0.443c-0.287-0.324-0.408-0.84-0.408-1.523v-3.166
		h-0.898v-0.804h0.898v-1.079L306.786,359.804z"/>
	<path d="M310.002,364.289c0.024,1.428,0.924,2.016,1.991,2.016c0.755,0,1.224-0.132,1.606-0.3l0.192,0.755
		c-0.372,0.168-1.019,0.372-1.942,0.372c-1.787,0-2.855-1.188-2.855-2.938s1.032-3.118,2.723-3.118c1.907,0,2.399,1.655,2.399,2.723
		c0,0.216-0.013,0.372-0.036,0.491H310.002z M313.097,363.534c0.012-0.66-0.276-1.703-1.464-1.703c-1.079,0-1.535,0.972-1.619,1.703
		H313.097z"/>
	<path d="M315.426,362.767c0-0.612-0.012-1.092-0.047-1.571h0.936l0.06,0.959h0.024c0.287-0.539,0.959-1.079,1.918-1.079
		c0.804,0,2.051,0.479,2.051,2.471V367h-1.055v-3.346c0-0.936-0.348-1.716-1.344-1.716c-0.684,0-1.223,0.492-1.415,1.08
		c-0.048,0.132-0.071,0.312-0.071,0.491V367h-1.057V362.767z"/>
	<path d="M323.31,359.804v1.392h1.511v0.804h-1.511v3.13c0,0.72,0.204,1.128,0.792,1.128c0.287,0,0.455-0.024,0.611-0.072
		l0.048,0.804c-0.204,0.071-0.528,0.144-0.936,0.144c-0.491,0-0.888-0.168-1.14-0.443c-0.287-0.324-0.408-0.84-0.408-1.523v-3.166
		h-0.898v-0.804h0.898v-1.079L323.31,359.804z"/>
	<path d="M328.41,365.933c0.324,0.191,0.875,0.408,1.403,0.408c0.756,0,1.115-0.372,1.115-0.864c0-0.504-0.3-0.768-1.067-1.055
		c-1.055-0.384-1.547-0.948-1.547-1.644c0-0.936,0.768-1.703,2.003-1.703c0.587,0,1.104,0.156,1.415,0.36l-0.252,0.768
		c-0.228-0.145-0.647-0.349-1.188-0.349c-0.623,0-0.959,0.36-0.959,0.792c0,0.479,0.336,0.695,1.092,0.995
		c0.995,0.372,1.522,0.876,1.522,1.739c0,1.031-0.804,1.751-2.159,1.751c-0.635,0-1.223-0.168-1.631-0.407L328.41,365.933z"/>
	<path d="M334.578,359.804v1.392h1.511v0.804h-1.511v3.13c0,0.72,0.203,1.128,0.791,1.128c0.287,0,0.455-0.024,0.611-0.072
		l0.049,0.804c-0.205,0.071-0.528,0.144-0.936,0.144c-0.492,0-0.889-0.168-1.141-0.443c-0.287-0.324-0.407-0.84-0.407-1.523v-3.166
		h-0.899v-0.804h0.899v-1.079L334.578,359.804z"/>
	<path d="M341.355,365.608c0,0.504,0.023,0.996,0.084,1.392h-0.947l-0.084-0.731h-0.036c-0.323,0.456-0.947,0.863-1.774,0.863
		c-1.176,0-1.775-0.827-1.775-1.667c0-1.403,1.247-2.171,3.49-2.159v-0.119c0-0.468-0.133-1.344-1.319-1.332
		c-0.552,0-1.116,0.156-1.523,0.432l-0.239-0.707c0.479-0.3,1.187-0.504,1.918-0.504c1.775,0,2.207,1.211,2.207,2.362V365.608z
		 M340.336,364.038c-1.151-0.024-2.459,0.18-2.459,1.307c0,0.696,0.457,1.008,0.984,1.008c0.768,0,1.259-0.479,1.427-0.972
		c0.036-0.12,0.048-0.24,0.048-0.336V364.038z"/>
	<path d="M344.285,359.804v1.392h1.512v0.804h-1.512v3.13c0,0.72,0.204,1.128,0.792,1.128c0.288,0,0.456-0.024,0.611-0.072
		l0.048,0.804c-0.203,0.071-0.527,0.144-0.936,0.144c-0.491,0-0.887-0.168-1.139-0.443c-0.288-0.324-0.408-0.84-0.408-1.523v-3.166
		h-0.899v-0.804h0.899v-1.079L344.285,359.804z"/>
	<path d="M347.502,364.289c0.023,1.428,0.924,2.016,1.99,2.016c0.756,0,1.224-0.132,1.607-0.3l0.191,0.755
		c-0.371,0.168-1.019,0.372-1.942,0.372c-1.787,0-2.854-1.188-2.854-2.938s1.031-3.118,2.723-3.118c1.907,0,2.398,1.655,2.398,2.723
		c0,0.216-0.012,0.372-0.035,0.491H347.502z M350.596,363.534c0.012-0.66-0.275-1.703-1.463-1.703c-1.079,0-1.535,0.972-1.619,1.703
		H350.596z"/>
</g>
<g>
	<path d="M427.343,249.643h-3.13v2.914h3.502v0.876h-4.558v-8.084h4.378v0.876h-3.322v2.555h3.13V249.643z"/>
	<path d="M429.529,247.628l0.827,1.247c0.228,0.324,0.407,0.611,0.6,0.936h0.024c0.191-0.336,0.383-0.636,0.588-0.947l0.803-1.235
		h1.151l-1.979,2.807l2.026,2.998h-1.188l-0.863-1.308c-0.228-0.336-0.42-0.659-0.623-1.007h-0.024
		c-0.192,0.348-0.384,0.659-0.612,1.007l-0.839,1.308h-1.163l2.062-2.962l-1.967-2.843H429.529z"/>
	<path d="M434.594,249.522c0-0.743-0.024-1.343-0.049-1.895h0.936l0.061,0.995h0.023c0.42-0.707,1.115-1.115,2.062-1.115
		c1.416,0,2.471,1.188,2.471,2.938c0,2.087-1.283,3.118-2.65,3.118c-0.768,0-1.439-0.336-1.787-0.911h-0.023v3.154h-1.043V249.522z
		 M435.637,251.07c0,0.155,0.012,0.3,0.048,0.432c0.192,0.731,0.827,1.235,1.583,1.235c1.115,0,1.764-0.912,1.764-2.243
		c0-1.151-0.612-2.146-1.728-2.146c-0.72,0-1.403,0.504-1.595,1.295c-0.036,0.132-0.072,0.288-0.072,0.42V251.07z"/>
	<path d="M445.498,252.041c0,0.504,0.024,0.996,0.084,1.392h-0.947l-0.084-0.731h-0.035c-0.324,0.456-0.947,0.863-1.775,0.863
		c-1.176,0-1.775-0.827-1.775-1.667c0-1.403,1.248-2.171,3.49-2.159v-0.119c0-0.468-0.132-1.344-1.319-1.332
		c-0.552,0-1.115,0.156-1.522,0.432l-0.24-0.707c0.479-0.3,1.188-0.504,1.919-0.504c1.774,0,2.206,1.211,2.206,2.362V252.041z
		 M444.479,250.471c-1.151-0.024-2.459,0.18-2.459,1.307c0,0.696,0.456,1.008,0.983,1.008c0.768,0,1.26-0.479,1.428-0.972
		c0.035-0.12,0.048-0.24,0.048-0.336V250.471z"/>
	<path d="M447.205,249.199c0-0.612-0.012-1.092-0.048-1.571h0.936l0.06,0.959h0.024c0.288-0.539,0.96-1.079,1.919-1.079
		c0.803,0,2.051,0.479,2.051,2.471v3.454h-1.056v-3.346c0-0.936-0.348-1.716-1.343-1.716c-0.684,0-1.224,0.492-1.416,1.08
		c-0.047,0.132-0.071,0.312-0.071,0.491v3.49h-1.056V249.199z"/>
	<path d="M453.721,252.365c0.324,0.191,0.875,0.408,1.403,0.408c0.756,0,1.115-0.372,1.115-0.864c0-0.504-0.3-0.768-1.067-1.055
		c-1.055-0.384-1.547-0.948-1.547-1.644c0-0.936,0.768-1.703,2.003-1.703c0.587,0,1.104,0.156,1.415,0.36l-0.252,0.768
		c-0.228-0.145-0.647-0.349-1.188-0.349c-0.623,0-0.959,0.36-0.959,0.792c0,0.479,0.336,0.695,1.092,0.995
		c0.995,0.372,1.522,0.876,1.522,1.739c0,1.031-0.804,1.751-2.159,1.751c-0.635,0-1.223-0.168-1.631-0.407L453.721,252.365z"/>
	<path d="M459.792,245.997c0,0.359-0.252,0.647-0.671,0.647c-0.385,0-0.637-0.288-0.637-0.647c0-0.36,0.264-0.66,0.66-0.66
		C459.528,245.337,459.792,245.625,459.792,245.997z M458.617,253.433v-5.805h1.055v5.805H458.617z"/>
	<path d="M466.678,250.482c0,2.146-1.499,3.082-2.891,3.082c-1.559,0-2.782-1.151-2.782-2.986c0-1.931,1.284-3.07,2.878-3.07
		C465.551,247.508,466.678,248.719,466.678,250.482z M462.084,250.542c0,1.271,0.721,2.231,1.752,2.231
		c1.007,0,1.763-0.948,1.763-2.255c0-0.983-0.491-2.219-1.739-2.219C462.624,248.3,462.084,249.451,462.084,250.542z"/>
	<path d="M468.013,249.199c0-0.612-0.012-1.092-0.048-1.571h0.936l0.06,0.959h0.024c0.287-0.539,0.959-1.079,1.919-1.079
		c0.804,0,2.051,0.479,2.051,2.471v3.454h-1.056v-3.346c0-0.936-0.348-1.716-1.344-1.716c-0.684,0-1.223,0.492-1.414,1.08
		c-0.049,0.132-0.072,0.312-0.072,0.491v3.49h-1.056V249.199z"/>
	<path d="M481.294,252.041c0,0.504,0.024,0.996,0.084,1.392h-0.947l-0.084-0.731h-0.036c-0.324,0.456-0.947,0.863-1.775,0.863
		c-1.175,0-1.774-0.827-1.774-1.667c0-1.403,1.247-2.171,3.489-2.159v-0.119c0-0.468-0.131-1.344-1.318-1.332
		c-0.552,0-1.115,0.156-1.523,0.432l-0.24-0.707c0.48-0.3,1.188-0.504,1.92-0.504c1.774,0,2.206,1.211,2.206,2.362V252.041z
		 M480.274,250.471c-1.151-0.024-2.458,0.18-2.458,1.307c0,0.696,0.455,1.008,0.982,1.008c0.768,0,1.26-0.479,1.428-0.972
		c0.036-0.12,0.048-0.24,0.048-0.336V250.471z"/>
	<path d="M483,249.199c0-0.612-0.012-1.092-0.047-1.571h0.936l0.06,0.959h0.024c0.287-0.539,0.959-1.079,1.918-1.079
		c0.804,0,2.051,0.479,2.051,2.471v3.454h-1.055v-3.346c0-0.936-0.348-1.716-1.344-1.716c-0.684,0-1.223,0.492-1.415,1.08
		c-0.048,0.132-0.071,0.312-0.071,0.491v3.49H483V249.199z"/>
	<path d="M494.662,244.917v7.017c0,0.516,0.023,1.104,0.047,1.499h-0.936l-0.047-1.008h-0.037c-0.312,0.648-1.007,1.14-1.955,1.14
		c-1.402,0-2.494-1.188-2.494-2.95c-0.012-1.931,1.199-3.106,2.603-3.106c0.899,0,1.487,0.42,1.751,0.876h0.024v-3.467H494.662z
		 M493.618,249.99c0-0.132-0.013-0.312-0.048-0.443c-0.156-0.66-0.732-1.212-1.523-1.212c-1.092,0-1.739,0.96-1.739,2.231
		c0,1.175,0.588,2.146,1.716,2.146c0.707,0,1.354-0.479,1.547-1.259c0.035-0.145,0.048-0.288,0.048-0.456V249.99z"/>
	<path d="M503.109,253.229c-0.275,0.132-0.887,0.336-1.666,0.336c-1.752,0-2.891-1.188-2.891-2.962c0-1.787,1.223-3.095,3.118-3.095
		c0.624,0,1.175,0.156,1.463,0.312l-0.239,0.804c-0.252-0.132-0.648-0.275-1.224-0.275c-1.331,0-2.052,0.995-2.052,2.194
		c0,1.344,0.864,2.171,2.016,2.171c0.6,0,0.996-0.144,1.295-0.275L503.109,253.229z"/>
	<path d="M509.529,250.482c0,2.146-1.5,3.082-2.891,3.082c-1.559,0-2.783-1.151-2.783-2.986c0-1.931,1.284-3.07,2.879-3.07
		C508.401,247.508,509.529,248.719,509.529,250.482z M504.936,250.542c0,1.271,0.72,2.231,1.751,2.231
		c1.007,0,1.763-0.948,1.763-2.255c0-0.983-0.491-2.219-1.738-2.219C505.475,248.3,504.936,249.451,504.936,250.542z"/>
	<path d="M510.864,249.199c0-0.612-0.013-1.092-0.049-1.571h0.936l0.061,0.959h0.023c0.288-0.539,0.96-1.079,1.919-1.079
		c0.804,0,2.051,0.479,2.051,2.471v3.454h-1.055v-3.346c0-0.936-0.348-1.716-1.344-1.716c-0.684,0-1.224,0.492-1.415,1.08
		c-0.048,0.132-0.072,0.312-0.072,0.491v3.49h-1.055V249.199z"/>
	<path d="M518.747,246.236v1.392h1.512v0.804h-1.512v3.13c0,0.72,0.204,1.128,0.792,1.128c0.288,0,0.456-0.024,0.611-0.072
		l0.048,0.804c-0.203,0.071-0.527,0.144-0.936,0.144c-0.491,0-0.887-0.168-1.139-0.443c-0.288-0.324-0.408-0.84-0.408-1.523v-3.166
		h-0.899v-0.804h0.899v-1.079L518.747,246.236z"/>
	<path d="M521.448,249.438c0-0.684-0.013-1.271-0.049-1.811h0.924l0.048,1.151h0.036c0.264-0.779,0.911-1.271,1.619-1.271
		c0.108,0,0.192,0.012,0.288,0.024v0.995c-0.108-0.024-0.216-0.024-0.36-0.024c-0.743,0-1.271,0.552-1.415,1.344
		c-0.023,0.144-0.036,0.324-0.036,0.491v3.095h-1.055V249.438z"/>
	<path d="M529.39,252.041c0,0.504,0.024,0.996,0.084,1.392h-0.947l-0.084-0.731h-0.036c-0.324,0.456-0.947,0.863-1.775,0.863
		c-1.175,0-1.774-0.827-1.774-1.667c0-1.403,1.247-2.171,3.49-2.159v-0.119c0-0.468-0.132-1.344-1.319-1.332
		c-0.552,0-1.115,0.156-1.523,0.432l-0.24-0.707c0.48-0.3,1.188-0.504,1.919-0.504c1.775,0,2.207,1.211,2.207,2.362V252.041z
		 M528.37,250.471c-1.151-0.024-2.458,0.18-2.458,1.307c0,0.696,0.455,1.008,0.983,1.008c0.768,0,1.259-0.479,1.427-0.972
		c0.036-0.12,0.048-0.24,0.048-0.336V250.471z"/>
	<path d="M535.234,253.229c-0.276,0.132-0.888,0.336-1.668,0.336c-1.751,0-2.89-1.188-2.89-2.962c0-1.787,1.223-3.095,3.118-3.095
		c0.623,0,1.175,0.156,1.463,0.312l-0.24,0.804c-0.251-0.132-0.647-0.275-1.223-0.275c-1.331,0-2.051,0.995-2.051,2.194
		c0,1.344,0.863,2.171,2.015,2.171c0.6,0,0.995-0.144,1.295-0.275L535.234,253.229z"/>
	<path d="M537.898,246.236v1.392h1.512v0.804h-1.512v3.13c0,0.72,0.204,1.128,0.792,1.128c0.288,0,0.456-0.024,0.611-0.072
		l0.048,0.804c-0.203,0.071-0.527,0.144-0.936,0.144c-0.491,0-0.887-0.168-1.139-0.443c-0.288-0.324-0.408-0.84-0.408-1.523v-3.166
		h-0.899v-0.804h0.899v-1.079L537.898,246.236z"/>
	<path d="M541.775,245.997c0,0.359-0.252,0.647-0.672,0.647c-0.384,0-0.636-0.288-0.636-0.647c0-0.36,0.265-0.66,0.66-0.66
		C541.512,245.337,541.775,245.625,541.775,245.997z M540.601,253.433v-5.805h1.055v5.805H540.601z"/>
	<path d="M548.661,250.482c0,2.146-1.499,3.082-2.891,3.082c-1.56,0-2.782-1.151-2.782-2.986c0-1.931,1.283-3.07,2.878-3.07
		C547.533,247.508,548.661,248.719,548.661,250.482z M544.067,250.542c0,1.271,0.72,2.231,1.751,2.231
		c1.008,0,1.763-0.948,1.763-2.255c0-0.983-0.491-2.219-1.738-2.219C544.607,248.3,544.067,249.451,544.067,250.542z"/>
	<path d="M549.996,249.199c0-0.612-0.013-1.092-0.049-1.571h0.936l0.061,0.959h0.023c0.288-0.539,0.96-1.079,1.919-1.079
		c0.804,0,2.051,0.479,2.051,2.471v3.454h-1.055v-3.346c0-0.936-0.349-1.716-1.344-1.716c-0.684,0-1.224,0.492-1.415,1.08
		c-0.048,0.132-0.072,0.312-0.072,0.491v3.49h-1.055V249.199z"/>
	<path d="M428.135,259.317v7.017c0,0.516,0.023,1.104,0.048,1.499h-0.936l-0.048-1.008h-0.036c-0.312,0.648-1.007,1.14-1.955,1.14
		c-1.403,0-2.495-1.188-2.495-2.95c-0.012-1.931,1.2-3.106,2.604-3.106c0.899,0,1.486,0.42,1.751,0.876h0.024v-3.467H428.135z
		 M427.092,264.391c0-0.132-0.013-0.312-0.049-0.443c-0.156-0.66-0.731-1.212-1.523-1.212c-1.091,0-1.738,0.96-1.738,2.231
		c0,1.175,0.588,2.146,1.715,2.146c0.707,0,1.355-0.479,1.547-1.259c0.036-0.145,0.049-0.288,0.049-0.456V264.391z"/>
	<path d="M434.759,266.238c0,0.611,0.012,1.139,0.048,1.595h-0.936l-0.061-0.947h-0.023c-0.264,0.468-0.887,1.079-1.919,1.079
		c-0.911,0-2.003-0.516-2.003-2.543v-3.394h1.056v3.202c0,1.104,0.348,1.859,1.296,1.859c0.707,0,1.199-0.492,1.391-0.972
		c0.061-0.145,0.096-0.336,0.096-0.54v-3.55h1.056V266.238z"/>
	<path d="M436.514,263.839c0-0.684-0.013-1.271-0.049-1.811h0.924l0.048,1.151h0.036c0.264-0.779,0.912-1.271,1.619-1.271
		c0.107,0,0.191,0.012,0.288,0.024v0.995c-0.108-0.024-0.216-0.024-0.36-0.024c-0.743,0-1.271,0.552-1.415,1.344
		c-0.024,0.144-0.036,0.324-0.036,0.491v3.095h-1.055V263.839z"/>
	<path d="M441.66,260.397c0,0.359-0.252,0.647-0.672,0.647c-0.383,0-0.635-0.288-0.635-0.647c0-0.36,0.264-0.66,0.659-0.66
		C441.396,259.737,441.66,260.025,441.66,260.397z M440.484,267.833v-5.805h1.057v5.805H440.484z"/>
	<path d="M443.293,263.6c0-0.612-0.012-1.092-0.048-1.571h0.936l0.06,0.959h0.024c0.288-0.539,0.96-1.079,1.919-1.079
		c0.803,0,2.051,0.479,2.051,2.471v3.454h-1.056v-3.346c0-0.936-0.348-1.716-1.343-1.716c-0.684,0-1.224,0.492-1.416,1.08
		c-0.047,0.132-0.071,0.312-0.071,0.491v3.49h-1.056V263.6z"/>
	<path d="M454.918,266.981c0,1.344-0.275,2.146-0.827,2.662c-0.575,0.517-1.392,0.696-2.122,0.696c-0.696,0-1.464-0.168-1.932-0.479
		l0.264-0.816c0.384,0.252,0.983,0.468,1.703,0.468c1.08,0,1.871-0.563,1.871-2.038v-0.636h-0.023
		c-0.312,0.539-0.948,0.971-1.848,0.971c-1.439,0-2.471-1.223-2.471-2.83c0-1.967,1.283-3.07,2.627-3.07
		c1.008,0,1.547,0.516,1.811,0.995h0.024l0.036-0.875h0.936c-0.036,0.407-0.049,0.888-0.049,1.583V266.981z M453.863,264.319
		c0-0.181-0.012-0.336-0.061-0.468c-0.191-0.624-0.695-1.128-1.475-1.128c-1.008,0-1.728,0.852-1.728,2.195
		c0,1.139,0.588,2.087,1.716,2.087c0.659,0,1.246-0.408,1.463-1.08c0.06-0.18,0.084-0.384,0.084-0.563V264.319z"/>
	<path d="M460.477,260.637v1.392h1.511v0.804h-1.511v3.13c0,0.72,0.203,1.128,0.791,1.128c0.287,0,0.455-0.024,0.611-0.072
		l0.049,0.804c-0.205,0.071-0.528,0.144-0.936,0.144c-0.492,0-0.889-0.168-1.141-0.443c-0.287-0.324-0.407-0.84-0.407-1.523v-3.166
		h-0.899v-0.804h0.899v-1.079L460.477,260.637z"/>
	<path d="M463.177,259.317h1.056v3.635h0.023c0.168-0.301,0.432-0.576,0.756-0.756c0.312-0.18,0.684-0.288,1.08-0.288
		c0.779,0,2.026,0.479,2.026,2.471v3.454h-1.056v-3.334c0-0.936-0.348-1.715-1.344-1.715c-0.684,0-1.211,0.479-1.414,1.043
		c-0.061,0.156-0.072,0.312-0.072,0.504v3.502h-1.056V259.317z"/>
	<path d="M470.424,265.122c0.024,1.428,0.924,2.016,1.991,2.016c0.755,0,1.224-0.132,1.606-0.3l0.192,0.755
		c-0.372,0.168-1.019,0.372-1.942,0.372c-1.787,0-2.855-1.188-2.855-2.938s1.032-3.118,2.723-3.118c1.907,0,2.399,1.655,2.399,2.723
		c0,0.216-0.013,0.372-0.036,0.491H470.424z M473.519,264.367c0.012-0.66-0.276-1.703-1.464-1.703c-1.079,0-1.535,0.972-1.619,1.703
		H473.519z"/>
	<path d="M478.393,259.317h1.055v8.516h-1.055V259.317z"/>
	<path d="M485.302,266.441c0,0.504,0.024,0.996,0.084,1.392h-0.947l-0.084-0.731h-0.036c-0.324,0.456-0.947,0.863-1.775,0.863
		c-1.175,0-1.774-0.827-1.774-1.667c0-1.403,1.247-2.171,3.489-2.159v-0.119c0-0.468-0.131-1.344-1.318-1.332
		c-0.552,0-1.115,0.156-1.523,0.432l-0.24-0.707c0.48-0.3,1.188-0.504,1.92-0.504c1.774,0,2.206,1.211,2.206,2.362V266.441z
		 M484.282,264.871c-1.151-0.024-2.458,0.18-2.458,1.307c0,0.696,0.455,1.008,0.982,1.008c0.768,0,1.26-0.479,1.428-0.972
		c0.036-0.12,0.048-0.24,0.048-0.336V264.871z"/>
	<path d="M488.232,260.637v1.392h1.511v0.804h-1.511v3.13c0,0.72,0.203,1.128,0.791,1.128c0.287,0,0.455-0.024,0.611-0.072
		l0.049,0.804c-0.205,0.071-0.528,0.144-0.936,0.144c-0.492,0-0.889-0.168-1.141-0.443c-0.287-0.324-0.407-0.84-0.407-1.523v-3.166
		h-0.899v-0.804h0.899v-1.079L488.232,260.637z"/>
	<path d="M491.448,265.122c0.024,1.428,0.923,2.016,1.991,2.016c0.755,0,1.223-0.132,1.606-0.3l0.192,0.755
		c-0.372,0.168-1.02,0.372-1.943,0.372c-1.787,0-2.854-1.188-2.854-2.938s1.032-3.118,2.723-3.118c1.907,0,2.399,1.655,2.399,2.723
		c0,0.216-0.013,0.372-0.037,0.491H491.448z M494.543,264.367c0.012-0.66-0.276-1.703-1.464-1.703c-1.079,0-1.535,0.972-1.619,1.703
		H494.543z"/>
	<path d="M496.872,263.6c0-0.612-0.012-1.092-0.048-1.571h0.936l0.06,0.959h0.024c0.287-0.539,0.959-1.079,1.919-1.079
		c0.804,0,2.051,0.479,2.051,2.471v3.454h-1.056v-3.346c0-0.936-0.348-1.716-1.344-1.716c-0.684,0-1.223,0.492-1.414,1.08
		c-0.049,0.132-0.072,0.312-0.072,0.491v3.49h-1.056V263.6z"/>
	<path d="M504.756,260.637v1.392h1.511v0.804h-1.511v3.13c0,0.72,0.203,1.128,0.791,1.128c0.287,0,0.455-0.024,0.611-0.072
		l0.049,0.804c-0.205,0.071-0.528,0.144-0.936,0.144c-0.492,0-0.889-0.168-1.141-0.443c-0.287-0.324-0.407-0.84-0.407-1.523v-3.166
		h-0.899v-0.804h0.899v-1.079L504.756,260.637z"/>
	<path d="M514.138,267.629c-0.276,0.132-0.888,0.336-1.668,0.336c-1.751,0-2.89-1.188-2.89-2.962c0-1.787,1.223-3.095,3.118-3.095
		c0.623,0,1.175,0.156,1.463,0.312l-0.239,0.804c-0.252-0.132-0.648-0.275-1.224-0.275c-1.331,0-2.051,0.995-2.051,2.194
		c0,1.344,0.863,2.171,2.015,2.171c0.6,0,0.995-0.144,1.295-0.275L514.138,267.629z"/>
	<path d="M515.892,265.122c0.024,1.428,0.924,2.016,1.991,2.016c0.756,0,1.224-0.132,1.607-0.3l0.191,0.755
		c-0.372,0.168-1.02,0.372-1.942,0.372c-1.787,0-2.854-1.188-2.854-2.938s1.031-3.118,2.723-3.118c1.906,0,2.398,1.655,2.398,2.723
		c0,0.216-0.012,0.372-0.036,0.491H515.892z M518.986,264.367c0.012-0.66-0.276-1.703-1.463-1.703c-1.08,0-1.535,0.972-1.619,1.703
		H518.986z"/>
	<path d="M521.316,259.317h1.055v8.516h-1.055V259.317z"/>
	<path d="M524.148,259.317h1.055v8.516h-1.055V259.317z"/>
	<path d="M529.524,263.839c0-0.684-0.013-1.271-0.049-1.811h0.924l0.048,1.151h0.036c0.264-0.779,0.911-1.271,1.619-1.271
		c0.108,0,0.192,0.012,0.288,0.024v0.995c-0.108-0.024-0.216-0.024-0.36-0.024c-0.743,0-1.271,0.552-1.415,1.344
		c-0.023,0.144-0.036,0.324-0.036,0.491v3.095h-1.055V263.839z"/>
	<path d="M533.915,265.122c0.024,1.428,0.924,2.016,1.991,2.016c0.756,0,1.224-0.132,1.607-0.3l0.191,0.755
		c-0.372,0.168-1.02,0.372-1.942,0.372c-1.787,0-2.854-1.188-2.854-2.938s1.031-3.118,2.723-3.118c1.906,0,2.398,1.655,2.398,2.723
		c0,0.216-0.012,0.372-0.036,0.491H533.915z M537.01,264.367c0.012-0.66-0.276-1.703-1.463-1.703c-1.08,0-1.535,0.972-1.619,1.703
		H537.01z"/>
	<path d="M539.195,266.766c0.324,0.191,0.876,0.408,1.403,0.408c0.756,0,1.115-0.372,1.115-0.864c0-0.504-0.3-0.768-1.067-1.055
		c-1.056-0.384-1.547-0.948-1.547-1.644c0-0.936,0.768-1.703,2.003-1.703c0.588,0,1.104,0.156,1.415,0.36l-0.252,0.768
		c-0.228-0.145-0.647-0.349-1.188-0.349c-0.623,0-0.959,0.36-0.959,0.792c0,0.479,0.336,0.695,1.091,0.995
		c0.996,0.372,1.523,0.876,1.523,1.739c0,1.031-0.804,1.751-2.159,1.751c-0.635,0-1.223-0.168-1.631-0.407L539.195,266.766z"/>
	<path d="M544.092,263.923c0-0.743-0.024-1.343-0.049-1.895h0.936l0.061,0.995h0.023c0.42-0.707,1.115-1.115,2.063-1.115
		c1.415,0,2.471,1.188,2.471,2.938c0,2.087-1.283,3.118-2.651,3.118c-0.768,0-1.438-0.336-1.786-0.911h-0.024v3.154h-1.043V263.923z
		 M545.135,265.471c0,0.155,0.012,0.3,0.048,0.432c0.192,0.731,0.828,1.235,1.583,1.235c1.115,0,1.764-0.912,1.764-2.243
		c0-1.151-0.612-2.146-1.728-2.146c-0.72,0-1.403,0.504-1.595,1.295c-0.036,0.132-0.072,0.288-0.072,0.42V265.471z"/>
	<path d="M556.173,264.883c0,2.146-1.499,3.082-2.891,3.082c-1.56,0-2.782-1.151-2.782-2.986c0-1.931,1.283-3.07,2.878-3.07
		C555.045,261.908,556.173,263.119,556.173,264.883z M551.579,264.942c0,1.271,0.72,2.231,1.751,2.231
		c1.008,0,1.763-0.948,1.763-2.255c0-0.983-0.491-2.219-1.738-2.219C552.119,262.7,551.579,263.852,551.579,264.942z"/>
	<path d="M557.508,263.6c0-0.612-0.013-1.092-0.049-1.571h0.936l0.061,0.959h0.023c0.288-0.539,0.96-1.079,1.919-1.079
		c0.804,0,2.051,0.479,2.051,2.471v3.454h-1.055v-3.346c0-0.936-0.349-1.716-1.344-1.716c-0.684,0-1.224,0.492-1.415,1.08
		c-0.048,0.132-0.072,0.312-0.072,0.491v3.49h-1.055V263.6z"/>
	<path d="M564.022,266.766c0.324,0.191,0.876,0.408,1.403,0.408c0.756,0,1.115-0.372,1.115-0.864c0-0.504-0.3-0.768-1.067-1.055
		c-1.056-0.384-1.547-0.948-1.547-1.644c0-0.936,0.768-1.703,2.003-1.703c0.588,0,1.104,0.156,1.415,0.36l-0.252,0.768
		c-0.228-0.145-0.647-0.349-1.188-0.349c-0.623,0-0.959,0.36-0.959,0.792c0,0.479,0.336,0.695,1.091,0.995
		c0.996,0.372,1.523,0.876,1.523,1.739c0,1.031-0.804,1.751-2.158,1.751c-0.636,0-1.224-0.168-1.632-0.407L564.022,266.766z"/>
	<path d="M569.506,265.122c0.024,1.428,0.924,2.016,1.991,2.016c0.756,0,1.224-0.132,1.607-0.3l0.191,0.755
		c-0.372,0.168-1.02,0.372-1.942,0.372c-1.787,0-2.854-1.188-2.854-2.938s1.031-3.118,2.723-3.118c1.906,0,2.398,1.655,2.398,2.723
		c0,0.216-0.013,0.372-0.036,0.491H569.506z M572.601,264.367c0.012-0.66-0.276-1.703-1.463-1.703c-1.08,0-1.535,0.972-1.619,1.703
		H572.601z"/>
	<path d="M497.412,273.909c-0.875,1.188-1.499,2.734-1.499,4.917c0,2.135,0.659,3.658,1.499,4.857h-0.815
		c-0.756-0.995-1.571-2.53-1.571-4.869c0.012-2.351,0.815-3.898,1.571-4.905H497.412z"/>
	<path d="M498.565,274.148h1.056v7.208h3.454v0.876h-4.51V274.148z"/>
	<path d="M506.803,285.253c0,0.354,0.017,0.698,0.059,0.976h-0.664l-0.059-0.513h-0.025c-0.228,0.319-0.664,0.605-1.244,0.605
		c-0.824,0-1.244-0.58-1.244-1.169c0-0.983,0.873-1.521,2.445-1.514v-0.084c0-0.328-0.092-0.941-0.924-0.933
		c-0.387,0-0.782,0.109-1.068,0.303l-0.168-0.496c0.336-0.211,0.832-0.354,1.346-0.354c1.244,0,1.547,0.85,1.547,1.656V285.253z
		 M506.088,284.151c-0.807-0.017-1.724,0.127-1.724,0.917c0,0.487,0.319,0.706,0.689,0.706c0.538,0,0.883-0.336,1.001-0.681
		c0.025-0.084,0.033-0.168,0.033-0.235V284.151z"/>
	<path d="M507.547,287.246c0.589-0.833,1.051-1.917,1.051-3.431s-0.453-2.581-1.051-3.422h0.572
		c0.529,0.689,1.101,1.774,1.101,3.422c-0.008,1.648-0.571,2.725-1.101,3.431H507.547z"/>
</g>
<g>
	<path d="M377.209,143.479h-2.459v-0.888h5.985v0.888h-2.471v7.196h-1.056V143.479z"/>
	<path d="M381.062,146.682c0-0.684-0.013-1.271-0.049-1.811h0.924l0.048,1.151h0.036c0.264-0.779,0.912-1.271,1.619-1.271
		c0.107,0,0.191,0.012,0.288,0.024v0.995c-0.108-0.024-0.216-0.024-0.36-0.024c-0.743,0-1.271,0.552-1.415,1.344
		c-0.024,0.144-0.036,0.324-0.036,0.491v3.095h-1.055V146.682z"/>
	<path d="M389.004,149.284c0,0.504,0.023,0.996,0.084,1.392h-0.947l-0.084-0.731h-0.036c-0.323,0.456-0.947,0.863-1.774,0.863
		c-1.176,0-1.775-0.827-1.775-1.667c0-1.403,1.247-2.171,3.49-2.159v-0.119c0-0.468-0.133-1.344-1.319-1.332
		c-0.552,0-1.116,0.156-1.523,0.432l-0.239-0.707c0.479-0.3,1.187-0.504,1.918-0.504c1.775,0,2.207,1.211,2.207,2.362V149.284z
		 M387.984,147.714c-1.151-0.024-2.459,0.18-2.459,1.307c0,0.696,0.457,1.008,0.984,1.008c0.768,0,1.259-0.479,1.427-0.972
		c0.036-0.12,0.048-0.24,0.048-0.336V147.714z"/>
	<path d="M390.71,146.442c0-0.612-0.012-1.092-0.048-1.571h0.936l0.06,0.959h0.024c0.287-0.539,0.959-1.079,1.919-1.079
		c0.804,0,2.051,0.479,2.051,2.471v3.454h-1.056v-3.346c0-0.936-0.348-1.716-1.344-1.716c-0.684,0-1.223,0.492-1.414,1.08
		c-0.049,0.132-0.072,0.312-0.072,0.491v3.49h-1.056V146.442z"/>
	<path d="M397.227,149.608c0.323,0.191,0.875,0.408,1.402,0.408c0.756,0,1.115-0.372,1.115-0.864c0-0.504-0.299-0.768-1.066-1.055
		c-1.056-0.384-1.547-0.948-1.547-1.644c0-0.936,0.768-1.703,2.002-1.703c0.588,0,1.104,0.156,1.416,0.36l-0.252,0.768
		c-0.229-0.145-0.648-0.349-1.188-0.349c-0.624,0-0.959,0.36-0.959,0.792c0,0.479,0.335,0.695,1.091,0.995
		c0.995,0.372,1.522,0.876,1.522,1.739c0,1.031-0.803,1.751-2.158,1.751c-0.636,0-1.223-0.168-1.631-0.407L397.227,149.608z"/>
	<path d="M403.297,143.24c0,0.359-0.252,0.647-0.671,0.647c-0.384,0-0.636-0.288-0.636-0.647c0-0.36,0.264-0.66,0.66-0.66
		C403.033,142.58,403.297,142.868,403.297,143.24z M402.122,150.676v-5.805h1.056v5.805H402.122z"/>
	<path d="M406.201,143.479v1.392h1.512v0.804h-1.512v3.13c0,0.72,0.204,1.128,0.792,1.128c0.288,0,0.456-0.024,0.611-0.072
		l0.048,0.804c-0.203,0.071-0.527,0.144-0.936,0.144c-0.491,0-0.887-0.168-1.139-0.443c-0.288-0.324-0.408-0.84-0.408-1.523v-3.166
		h-0.899v-0.804h0.899v-1.079L406.201,143.479z"/>
	<path d="M410.077,143.24c0,0.359-0.252,0.647-0.671,0.647c-0.385,0-0.637-0.288-0.637-0.647c0-0.36,0.264-0.66,0.66-0.66
		C409.813,142.58,410.077,142.868,410.077,143.24z M408.902,150.676v-5.805h1.055v5.805H408.902z"/>
	<path d="M416.963,147.726c0,2.146-1.499,3.082-2.891,3.082c-1.559,0-2.782-1.151-2.782-2.986c0-1.931,1.284-3.07,2.878-3.07
		C415.836,144.751,416.963,145.962,416.963,147.726z M412.369,147.785c0,1.271,0.721,2.231,1.752,2.231
		c1.007,0,1.763-0.948,1.763-2.255c0-0.983-0.491-2.219-1.739-2.219C412.909,145.543,412.369,146.694,412.369,147.785z"/>
	<path d="M418.298,146.442c0-0.612-0.012-1.092-0.048-1.571h0.936l0.06,0.959h0.024c0.287-0.539,0.959-1.079,1.919-1.079
		c0.804,0,2.051,0.479,2.051,2.471v3.454h-1.056v-3.346c0-0.936-0.348-1.716-1.344-1.716c-0.684,0-1.223,0.492-1.414,1.08
		c-0.049,0.132-0.072,0.312-0.072,0.491v3.49h-1.056V146.442z"/>
	<path d="M428.773,143.479v1.392h1.511v0.804h-1.511v3.13c0,0.72,0.203,1.128,0.791,1.128c0.287,0,0.455-0.024,0.611-0.072
		l0.049,0.804c-0.205,0.071-0.528,0.144-0.936,0.144c-0.492,0-0.889-0.168-1.141-0.443c-0.287-0.324-0.407-0.84-0.407-1.523v-3.166
		h-0.899v-0.804h0.899v-1.079L428.773,143.479z"/>
	<path d="M436.654,147.726c0,2.146-1.499,3.082-2.891,3.082c-1.559,0-2.782-1.151-2.782-2.986c0-1.931,1.284-3.07,2.878-3.07
		C435.527,144.751,436.654,145.962,436.654,147.726z M432.061,147.785c0,1.271,0.721,2.231,1.752,2.231
		c1.007,0,1.763-0.948,1.763-2.255c0-0.983-0.491-2.219-1.739-2.219C432.601,145.543,432.061,146.694,432.061,147.785z"/>
	<path d="M441.805,143.479v1.392h1.512v0.804h-1.512v3.13c0,0.72,0.203,1.128,0.791,1.128c0.288,0,0.456-0.024,0.612-0.072
		l0.048,0.804c-0.204,0.071-0.527,0.144-0.936,0.144c-0.492,0-0.888-0.168-1.14-0.443c-0.288-0.324-0.407-0.84-0.407-1.523v-3.166
		h-0.9v-0.804h0.9v-1.079L441.805,143.479z"/>
	<path d="M444.506,142.16h1.055v3.635h0.024c0.168-0.301,0.432-0.576,0.755-0.756c0.312-0.18,0.684-0.288,1.08-0.288
		c0.779,0,2.027,0.479,2.027,2.471v3.454h-1.057v-3.334c0-0.936-0.348-1.715-1.343-1.715c-0.684,0-1.211,0.479-1.415,1.043
		c-0.061,0.156-0.072,0.312-0.072,0.504v3.502h-1.055V142.16z"/>
	<path d="M451.753,147.965c0.024,1.428,0.923,2.016,1.991,2.016c0.755,0,1.223-0.132,1.606-0.3l0.192,0.755
		c-0.372,0.168-1.02,0.372-1.943,0.372c-1.787,0-2.854-1.188-2.854-2.938s1.032-3.118,2.723-3.118c1.907,0,2.399,1.655,2.399,2.723
		c0,0.216-0.013,0.372-0.037,0.491H451.753z M454.848,147.21c0.012-0.66-0.276-1.703-1.464-1.703c-1.079,0-1.535,0.972-1.619,1.703
		H454.848z"/>
	<path d="M375.639,161.166c0-0.743-0.024-1.343-0.049-1.895h0.936l0.061,0.995h0.023c0.42-0.707,1.115-1.115,2.062-1.115
		c1.416,0,2.471,1.188,2.471,2.938c0,2.087-1.283,3.118-2.65,3.118c-0.768,0-1.439-0.336-1.787-0.911h-0.023v3.154h-1.043V161.166z
		 M376.682,162.714c0,0.155,0.012,0.3,0.048,0.432c0.192,0.731,0.827,1.235,1.583,1.235c1.115,0,1.764-0.912,1.764-2.243
		c0-1.151-0.612-2.146-1.728-2.146c-0.72,0-1.403,0.504-1.595,1.295c-0.036,0.132-0.072,0.288-0.072,0.42V162.714z"/>
	<path d="M382.466,161.082c0-0.684-0.012-1.271-0.048-1.811h0.924l0.047,1.151h0.037c0.264-0.779,0.911-1.271,1.619-1.271
		c0.107,0,0.191,0.012,0.287,0.024v0.995c-0.107-0.024-0.216-0.024-0.359-0.024c-0.744,0-1.271,0.552-1.416,1.344
		c-0.023,0.144-0.035,0.324-0.035,0.491v3.095h-1.056V161.082z"/>
	<path d="M391.523,162.126c0,2.146-1.5,3.082-2.891,3.082c-1.559,0-2.783-1.151-2.783-2.986c0-1.931,1.284-3.07,2.879-3.07
		C390.396,159.151,391.523,160.362,391.523,162.126z M386.93,162.186c0,1.271,0.72,2.231,1.751,2.231
		c1.007,0,1.763-0.948,1.763-2.255c0-0.983-0.491-2.219-1.738-2.219C387.469,159.943,386.93,161.095,386.93,162.186z"/>
	<path d="M397.859,156.561v7.017c0,0.516,0.023,1.104,0.048,1.499h-0.936l-0.048-1.008h-0.036c-0.312,0.648-1.007,1.14-1.955,1.14
		c-1.403,0-2.495-1.188-2.495-2.95c-0.012-1.931,1.2-3.106,2.604-3.106c0.899,0,1.486,0.42,1.751,0.876h0.024v-3.467H397.859z
		 M396.816,161.634c0-0.132-0.013-0.312-0.049-0.443c-0.156-0.66-0.731-1.212-1.523-1.212c-1.091,0-1.738,0.96-1.738,2.231
		c0,1.175,0.588,2.146,1.715,2.146c0.707,0,1.355-0.479,1.547-1.259c0.036-0.145,0.049-0.288,0.049-0.456V161.634z"/>
	<path d="M404.483,163.481c0,0.611,0.012,1.139,0.048,1.595h-0.936l-0.061-0.947h-0.023c-0.264,0.468-0.887,1.079-1.919,1.079
		c-0.911,0-2.003-0.516-2.003-2.543v-3.394h1.056v3.202c0,1.104,0.348,1.859,1.296,1.859c0.707,0,1.199-0.492,1.391-0.972
		c0.061-0.145,0.096-0.336,0.096-0.54v-3.55h1.056V163.481z"/>
	<path d="M410.375,164.872c-0.275,0.132-0.887,0.336-1.666,0.336c-1.752,0-2.891-1.188-2.891-2.962c0-1.787,1.223-3.095,3.118-3.095
		c0.624,0,1.175,0.156,1.463,0.312l-0.239,0.804c-0.252-0.132-0.648-0.275-1.224-0.275c-1.331,0-2.052,0.995-2.052,2.194
		c0,1.344,0.864,2.171,2.016,2.171c0.6,0,0.996-0.144,1.295-0.275L410.375,164.872z"/>
	<path d="M413.041,157.88v1.392h1.512v0.804h-1.512v3.13c0,0.72,0.203,1.128,0.791,1.128c0.288,0,0.456-0.024,0.612-0.072
		l0.048,0.804c-0.204,0.071-0.527,0.144-0.936,0.144c-0.492,0-0.888-0.168-1.14-0.443c-0.288-0.324-0.407-0.84-0.407-1.523v-3.166
		h-0.9v-0.804h0.9v-1.079L413.041,157.88z"/>
	<path d="M416.917,157.641c0,0.359-0.252,0.647-0.671,0.647c-0.385,0-0.637-0.288-0.637-0.647c0-0.36,0.264-0.66,0.66-0.66
		C416.653,156.98,416.917,157.269,416.917,157.641z M415.742,165.076v-5.805h1.055v5.805H415.742z"/>
	<path d="M418.957,159.271l1.14,3.25c0.192,0.54,0.348,1.02,0.468,1.499h0.035c0.133-0.479,0.301-0.959,0.492-1.499l1.127-3.25
		h1.104l-2.278,5.805h-1.007l-2.207-5.805H418.957z"/>
	<path d="M424.789,162.365c0.024,1.428,0.924,2.016,1.991,2.016c0.755,0,1.224-0.132,1.606-0.3l0.192,0.755
		c-0.372,0.168-1.019,0.372-1.942,0.372c-1.787,0-2.855-1.188-2.855-2.938s1.032-3.118,2.723-3.118c1.907,0,2.399,1.655,2.399,2.723
		c0,0.216-0.013,0.372-0.036,0.491H424.789z M427.884,161.61c0.012-0.66-0.276-1.703-1.464-1.703c-1.079,0-1.535,0.972-1.619,1.703
		H427.884z"/>
	<path d="M436.895,164.872c-0.275,0.132-0.887,0.336-1.666,0.336c-1.752,0-2.891-1.188-2.891-2.962c0-1.787,1.223-3.095,3.118-3.095
		c0.624,0,1.175,0.156,1.463,0.312l-0.239,0.804c-0.252-0.132-0.648-0.275-1.224-0.275c-1.331,0-2.052,0.995-2.052,2.194
		c0,1.344,0.864,2.171,2.016,2.171c0.6,0,0.996-0.144,1.295-0.275L436.895,164.872z"/>
	<path d="M438.133,156.561h1.057v8.516h-1.057V156.561z"/>
	<path d="M445.043,163.685c0,0.504,0.023,0.996,0.084,1.392h-0.947l-0.084-0.731h-0.036c-0.323,0.456-0.947,0.863-1.774,0.863
		c-1.176,0-1.775-0.827-1.775-1.667c0-1.403,1.247-2.171,3.49-2.159v-0.119c0-0.468-0.133-1.344-1.319-1.332
		c-0.552,0-1.116,0.156-1.523,0.432l-0.239-0.707c0.479-0.3,1.187-0.504,1.918-0.504c1.775,0,2.207,1.211,2.207,2.362V163.685z
		 M444.023,162.114c-1.151-0.024-2.459,0.18-2.459,1.307c0,0.696,0.457,1.008,0.984,1.008c0.768,0,1.259-0.479,1.427-0.972
		c0.036-0.12,0.048-0.24,0.048-0.336V162.114z"/>
	<path d="M446.605,164.009c0.323,0.191,0.875,0.408,1.402,0.408c0.756,0,1.115-0.372,1.115-0.864c0-0.504-0.299-0.768-1.066-1.055
		c-1.056-0.384-1.547-0.948-1.547-1.644c0-0.936,0.768-1.703,2.002-1.703c0.588,0,1.104,0.156,1.416,0.36l-0.252,0.768
		c-0.229-0.145-0.648-0.349-1.188-0.349c-0.624,0-0.959,0.36-0.959,0.792c0,0.479,0.335,0.695,1.091,0.995
		c0.995,0.372,1.522,0.876,1.522,1.739c0,1.031-0.803,1.751-2.158,1.751c-0.636,0-1.223-0.168-1.631-0.407L446.605,164.009z"/>
	<path d="M451.357,164.009c0.323,0.191,0.875,0.408,1.402,0.408c0.756,0,1.115-0.372,1.115-0.864c0-0.504-0.299-0.768-1.066-1.055
		c-1.056-0.384-1.547-0.948-1.547-1.644c0-0.936,0.768-1.703,2.002-1.703c0.588,0,1.104,0.156,1.416,0.36l-0.252,0.768
		c-0.229-0.145-0.648-0.349-1.188-0.349c-0.624,0-0.959,0.36-0.959,0.792c0,0.479,0.335,0.695,1.091,0.995
		c0.995,0.372,1.522,0.876,1.522,1.739c0,1.031-0.803,1.751-2.158,1.751c-0.636,0-1.223-0.168-1.631-0.407L451.357,164.009z"/>
</g>
<g>
	<path d="M61.851,202.537h1.056v7.208h3.454v0.876h-4.51V202.537z"/>
	<path d="M71.569,209.229c0,0.504,0.024,0.996,0.084,1.392h-0.947l-0.084-0.731h-0.036c-0.324,0.456-0.947,0.863-1.775,0.863
		c-1.175,0-1.775-0.827-1.775-1.667c0-1.403,1.247-2.171,3.49-2.159v-0.119c0-0.468-0.132-1.344-1.319-1.332
		c-0.552,0-1.116,0.156-1.523,0.432l-0.24-0.707c0.479-0.3,1.187-0.504,1.919-0.504c1.775,0,2.207,1.211,2.207,2.362V209.229z
		 M70.549,207.659c-1.151-0.024-2.458,0.18-2.458,1.307c0,0.696,0.456,1.008,0.983,1.008c0.768,0,1.259-0.479,1.427-0.972
		c0.036-0.12,0.048-0.24,0.048-0.336V207.659z"/>
	<path d="M74.499,203.425v1.392h1.511v0.804h-1.511v3.13c0,0.72,0.204,1.128,0.792,1.128c0.288,0,0.456-0.024,0.612-0.072
		l0.048,0.804c-0.204,0.071-0.528,0.144-0.936,0.144c-0.492,0-0.888-0.168-1.14-0.443c-0.288-0.324-0.408-0.84-0.408-1.523v-3.166
		h-0.899v-0.804h0.899v-1.079L74.499,203.425z"/>
	<path d="M77.715,207.91c0.024,1.428,0.923,2.016,1.991,2.016c0.755,0,1.223-0.132,1.607-0.3l0.192,0.755
		c-0.372,0.168-1.019,0.372-1.943,0.372c-1.787,0-2.854-1.188-2.854-2.938s1.032-3.118,2.723-3.118c1.907,0,2.399,1.655,2.399,2.723
		c0,0.216-0.012,0.372-0.036,0.491H77.715z M80.809,207.155c0.012-0.66-0.276-1.703-1.463-1.703c-1.08,0-1.535,0.972-1.619,1.703
		H80.809z"/>
	<path d="M83.139,206.388c0-0.612-0.012-1.092-0.048-1.571h0.936l0.06,0.959h0.024c0.288-0.539,0.959-1.079,1.919-1.079
		c0.803,0,2.051,0.479,2.051,2.471v3.454h-1.056v-3.346c0-0.936-0.348-1.716-1.343-1.716c-0.684,0-1.223,0.492-1.415,1.08
		c-0.048,0.132-0.072,0.312-0.072,0.491v3.49h-1.056V206.388z"/>
	<path d="M91.022,203.425v1.392h1.511v0.804h-1.511v3.13c0,0.72,0.204,1.128,0.792,1.128c0.288,0,0.456-0.024,0.611-0.072
		l0.048,0.804c-0.204,0.071-0.528,0.144-0.936,0.144c-0.492,0-0.888-0.168-1.14-0.443c-0.288-0.324-0.408-0.84-0.408-1.523v-3.166
		h-0.899v-0.804h0.899v-1.079L91.022,203.425z"/>
	<path d="M93.723,202.105h1.056v8.516h-1.056V202.105z"/>
	<path d="M96.938,204.816l1.259,3.43c0.144,0.384,0.288,0.84,0.384,1.188h0.024c0.108-0.348,0.228-0.791,0.372-1.211l1.151-3.406
		h1.115l-1.583,4.138c-0.756,1.991-1.271,2.998-1.991,3.634c-0.527,0.444-1.031,0.624-1.295,0.672l-0.264-0.876
		c0.264-0.084,0.612-0.252,0.924-0.516c0.288-0.228,0.635-0.636,0.887-1.175c0.048-0.108,0.084-0.192,0.084-0.252
		c0-0.061-0.024-0.145-0.084-0.276l-2.135-5.349H96.938z"/>
	<path d="M105.926,203.186c0,0.359-0.252,0.647-0.671,0.647c-0.384,0-0.636-0.288-0.636-0.647c0-0.36,0.264-0.66,0.66-0.66
		C105.662,202.525,105.926,202.813,105.926,203.186z M104.75,210.621v-5.805h1.056v5.805H104.75z"/>
	<path d="M107.558,206.388c0-0.612-0.012-1.092-0.048-1.571h0.936l0.06,0.959h0.024c0.288-0.539,0.959-1.079,1.919-1.079
		c0.803,0,2.051,0.479,2.051,2.471v3.454h-1.056v-3.346c0-0.936-0.348-1.716-1.343-1.716c-0.684,0-1.223,0.492-1.415,1.08
		c-0.048,0.132-0.072,0.312-0.072,0.491v3.49h-1.056V206.388z"/>
	<path d="M114.326,210.621v-5.001h-0.804v-0.804h0.804v-0.276c0-0.815,0.192-1.559,0.672-2.026c0.396-0.384,0.923-0.54,1.415-0.54
		c0.384,0,0.696,0.084,0.899,0.168l-0.144,0.815c-0.156-0.071-0.359-0.132-0.671-0.132c-0.899,0-1.127,0.779-1.127,1.68v0.312h1.403
		v0.804h-1.403v5.001H114.326z"/>
	<path d="M118.154,207.91c0.024,1.428,0.923,2.016,1.991,2.016c0.755,0,1.223-0.132,1.607-0.3l0.192,0.755
		c-0.372,0.168-1.019,0.372-1.943,0.372c-1.787,0-2.854-1.188-2.854-2.938s1.032-3.118,2.723-3.118c1.907,0,2.399,1.655,2.399,2.723
		c0,0.216-0.012,0.372-0.036,0.491H118.154z M121.249,207.155c0.012-0.66-0.276-1.703-1.463-1.703c-1.08,0-1.535,0.972-1.619,1.703
		H121.249z"/>
	<path d="M127.716,210.417c-0.276,0.132-0.887,0.336-1.667,0.336c-1.751,0-2.891-1.188-2.891-2.962c0-1.787,1.224-3.095,3.119-3.095
		c0.624,0,1.175,0.156,1.463,0.312l-0.24,0.804c-0.252-0.132-0.647-0.275-1.223-0.275c-1.332,0-2.051,0.995-2.051,2.194
		c0,1.344,0.864,2.171,2.015,2.171c0.6,0,0.996-0.144,1.295-0.275L127.716,210.417z"/>
	<path d="M130.381,203.425v1.392h1.511v0.804h-1.511v3.13c0,0.72,0.204,1.128,0.792,1.128c0.288,0,0.456-0.024,0.612-0.072
		l0.048,0.804c-0.204,0.071-0.528,0.144-0.936,0.144c-0.492,0-0.888-0.168-1.14-0.443c-0.288-0.324-0.408-0.84-0.408-1.523v-3.166
		h-0.899v-0.804h0.899v-1.079L130.381,203.425z"/>
	<path d="M133.598,207.91c0.024,1.428,0.923,2.016,1.991,2.016c0.755,0,1.223-0.132,1.607-0.3l0.192,0.755
		c-0.372,0.168-1.019,0.372-1.943,0.372c-1.787,0-2.854-1.188-2.854-2.938s1.032-3.118,2.723-3.118c1.907,0,2.399,1.655,2.399,2.723
		c0,0.216-0.012,0.372-0.036,0.491H133.598z M136.692,207.155c0.012-0.66-0.276-1.703-1.463-1.703c-1.08,0-1.535,0.972-1.619,1.703
		H136.692z"/>
	<path d="M144.023,202.105v7.017c0,0.516,0.024,1.104,0.048,1.499h-0.936l-0.048-1.008h-0.036c-0.312,0.648-1.007,1.14-1.955,1.14
		c-1.403,0-2.495-1.188-2.495-2.95c-0.012-1.931,1.2-3.106,2.603-3.106c0.9,0,1.487,0.42,1.751,0.876h0.024v-3.467H144.023z
		 M142.98,207.179c0-0.132-0.012-0.312-0.048-0.443c-0.156-0.66-0.731-1.212-1.523-1.212c-1.091,0-1.739,0.96-1.739,2.231
		c0,1.175,0.588,2.146,1.715,2.146c0.708,0,1.355-0.479,1.547-1.259c0.036-0.145,0.048-0.288,0.048-0.456V207.179z"/>
	<path d="M152.471,210.417c-0.276,0.132-0.888,0.336-1.667,0.336c-1.751,0-2.891-1.188-2.891-2.962c0-1.787,1.224-3.095,3.119-3.095
		c0.624,0,1.175,0.156,1.463,0.312l-0.24,0.804c-0.252-0.132-0.647-0.275-1.223-0.275c-1.332,0-2.051,0.995-2.051,2.194
		c0,1.344,0.864,2.171,2.015,2.171c0.6,0,0.996-0.144,1.295-0.275L152.471,210.417z"/>
	<path d="M154.226,207.91c0.024,1.428,0.923,2.016,1.991,2.016c0.755,0,1.223-0.132,1.607-0.3l0.192,0.755
		c-0.372,0.168-1.019,0.372-1.943,0.372c-1.787,0-2.854-1.188-2.854-2.938s1.032-3.118,2.723-3.118c1.907,0,2.399,1.655,2.399,2.723
		c0,0.216-0.012,0.372-0.036,0.491H154.226z M157.32,207.155c0.012-0.66-0.276-1.703-1.463-1.703c-1.08,0-1.535,0.972-1.619,1.703
		H157.32z"/>
	<path d="M159.649,202.105h1.056v8.516h-1.056V202.105z"/>
	<path d="M162.481,202.105h1.056v8.516h-1.056V202.105z"/>
	<path d="M170.136,202.298c-0.875,1.188-1.499,2.734-1.499,4.917c0,2.135,0.66,3.658,1.499,4.857h-0.815
		c-0.756-0.995-1.571-2.53-1.571-4.869c0.012-2.351,0.815-3.898,1.571-4.905H170.136z"/>
	<path d="M171.289,202.537h1.056v7.208h3.454v0.876h-4.51V202.537z"/>
	<path d="M180.35,212.549c0,1.505-1.051,2.161-2.026,2.161c-1.093,0-1.951-0.808-1.951-2.094c0-1.354,0.9-2.152,2.018-2.152
		C179.56,210.464,180.35,211.313,180.35,212.549z M177.13,212.591c0,0.892,0.504,1.563,1.228,1.563c0.706,0,1.236-0.664,1.236-1.58
		c0-0.689-0.345-1.556-1.219-1.556C177.508,211.019,177.13,211.826,177.13,212.591z"/>
	<path d="M180.905,212.072c0.84-1.188,1.5-2.734,1.5-4.894c0-2.158-0.648-3.682-1.5-4.881h0.815c0.756,0.983,1.571,2.53,1.571,4.881
		c-0.012,2.351-0.815,3.886-1.571,4.894H180.905z"/>
</g>
<g>
	<path d="M188.581,7.916v3.383h3.91V7.916h1.056V16h-1.056v-3.79h-3.91V16h-1.056V7.916H188.581z"/>
	<path d="M196.405,7.916V16h-1.056V7.916H196.405z"/>
	<path d="M200.004,16l-2.65-8.084h1.139l1.259,3.982c0.336,1.091,0.636,2.074,0.864,3.022h0.024
		c0.228-0.936,0.552-1.955,0.923-3.011l1.367-3.994h1.116L201.156,16H200.004z"/>
	<path d="M211.356,16l-2.65-8.084h1.139l1.259,3.982c0.336,1.091,0.636,2.074,0.864,3.022h0.024
		c0.228-0.936,0.552-1.955,0.923-3.011l1.368-3.994h1.115L212.508,16H211.356z"/>
	<path d="M217.225,8.564c0,0.359-0.252,0.647-0.672,0.647c-0.383,0-0.635-0.288-0.635-0.647c0-0.36,0.264-0.66,0.659-0.66
		C216.961,7.904,217.225,8.192,217.225,8.564z M216.049,16v-5.805h1.057V16H216.049z"/>
	<path d="M218.857,12.006c0-0.684-0.013-1.271-0.049-1.811h0.924l0.048,1.151h0.036c0.264-0.779,0.912-1.271,1.619-1.271
		c0.107,0,0.191,0.012,0.288,0.024v0.995c-0.108-0.024-0.216-0.024-0.36-0.024c-0.743,0-1.271,0.552-1.415,1.344
		c-0.024,0.144-0.036,0.324-0.036,0.491V16h-1.055V12.006z"/>
	<path d="M227.639,14.405c0,0.611,0.012,1.139,0.048,1.595h-0.936l-0.06-0.947h-0.024c-0.264,0.468-0.888,1.079-1.919,1.079
		c-0.911,0-2.003-0.516-2.003-2.543v-3.394h1.056v3.202c0,1.104,0.348,1.859,1.295,1.859c0.708,0,1.199-0.492,1.392-0.972
		c0.06-0.145,0.096-0.336,0.096-0.54v-3.55h1.056V14.405z"/>
	<path d="M229.249,14.933c0.324,0.191,0.876,0.408,1.403,0.408c0.756,0,1.115-0.372,1.115-0.864c0-0.504-0.3-0.768-1.067-1.055
		c-1.056-0.384-1.547-0.948-1.547-1.644c0-0.936,0.768-1.703,2.003-1.703c0.588,0,1.104,0.156,1.415,0.36l-0.252,0.768
		c-0.228-0.145-0.647-0.349-1.187-0.349c-0.625,0-0.96,0.36-0.96,0.792c0,0.479,0.335,0.695,1.091,0.995
		c0.996,0.372,1.523,0.876,1.523,1.739c0,1.031-0.803,1.751-2.158,1.751c-0.637,0-1.224-0.168-1.632-0.407L229.249,14.933z"/>
</g>
<g>
	<path d="M9.417,125.183v3.383h3.91v-3.383h1.056v8.084h-1.056v-3.79h-3.91v3.79H8.362v-8.084H9.417z"/>
	<path d="M17.241,125.183v8.084h-1.056v-8.084H17.241z"/>
	<path d="M20.841,133.267l-2.65-8.084h1.139l1.259,3.982c0.336,1.091,0.636,2.074,0.864,3.022h0.024
		c0.228-0.936,0.552-1.955,0.923-3.011l1.367-3.994h1.116l-2.891,8.084H20.841z"/>
	<path d="M32.193,133.267l-2.65-8.084h1.139l1.259,3.982c0.336,1.091,0.636,2.074,0.864,3.022h0.024
		c0.228-0.936,0.552-1.955,0.923-3.011l1.367-3.994h1.116l-2.891,8.084H32.193z"/>
	<path d="M38.061,125.831c0,0.359-0.252,0.647-0.671,0.647c-0.384,0-0.636-0.288-0.636-0.647c0-0.36,0.264-0.66,0.66-0.66
		C37.797,125.171,38.061,125.459,38.061,125.831z M36.886,133.267v-5.805h1.056v5.805H36.886z"/>
	<path d="M39.693,129.272c0-0.684-0.012-1.271-0.048-1.811h0.923l0.048,1.151h0.036c0.264-0.779,0.912-1.271,1.619-1.271
		c0.108,0,0.192,0.012,0.288,0.024v0.995c-0.108-0.024-0.216-0.024-0.36-0.024c-0.744,0-1.271,0.552-1.416,1.344
		c-0.024,0.144-0.036,0.324-0.036,0.491v3.095h-1.056V129.272z"/>
	<path d="M48.475,131.672c0,0.611,0.012,1.139,0.048,1.595h-0.936l-0.06-0.947h-0.024c-0.264,0.468-0.887,1.079-1.919,1.079
		c-0.911,0-2.003-0.516-2.003-2.543v-3.394h1.056v3.202c0,1.104,0.348,1.859,1.295,1.859c0.708,0,1.199-0.492,1.391-0.972
		c0.06-0.145,0.096-0.336,0.096-0.54v-3.55h1.056V131.672z"/>
	<path d="M50.085,132.199c0.324,0.191,0.875,0.408,1.403,0.408c0.756,0,1.115-0.372,1.115-0.864c0-0.504-0.3-0.768-1.067-1.055
		c-1.055-0.384-1.547-0.948-1.547-1.644c0-0.936,0.768-1.703,2.003-1.703c0.587,0,1.104,0.156,1.415,0.36l-0.252,0.768
		c-0.228-0.145-0.647-0.349-1.187-0.349c-0.624,0-0.959,0.36-0.959,0.792c0,0.479,0.335,0.695,1.091,0.995
		c0.996,0.372,1.523,0.876,1.523,1.739c0,1.031-0.803,1.751-2.159,1.751c-0.636,0-1.223-0.168-1.631-0.407L50.085,132.199z"/>
</g>
<g>
	
		<radialGradient id="path16609_1_" cx="177.0918" cy="-337.7041" r="16.186" gradientTransform="matrix(1.5933 0 0 0.6358 -49.9806 445.5403)" gradientUnits="userSpaceOnUse">
		<stop  offset="0" style="stop-color:#C2DA65"/>
		<stop  offset="0.4082" style="stop-color:#C2DA65"/>
		<stop  offset="0.5552" style="stop-color:#BDD967"/>
		<stop  offset="0.66" style="stop-color:#B9D766"/>
		<stop  offset="0.7448" style="stop-color:#B1D466"/>
		<stop  offset="0.8174" style="stop-color:#A8D166"/>
		<stop  offset="0.8817" style="stop-color:#9DCE66"/>
		<stop  offset="0.9398" style="stop-color:#93CA65"/>
		<stop  offset="0.9915" style="stop-color:#89C762"/>
		<stop  offset="1" style="stop-color:#87C763"/>
	</radialGradient>
	<path id="path16609" fill="url(#path16609_1_)" stroke="#010101" d="M257.494,230.827c0,5.786-11.338,10.478-25.315,10.478
		c-13.981,0-25.315-4.689-25.315-10.478s11.334-10.476,25.315-10.476C246.156,220.353,257.494,225.04,257.494,230.827z"/>
	<g>
		<path d="M227.443,231.808l-0.84,2.543h-1.079l2.759-8.084h1.247l2.759,8.084h-1.115l-0.864-2.543H227.443z M230.105,230.992
			l-0.803-2.326c-0.181-0.528-0.3-1.008-0.42-1.476h-0.024c-0.12,0.468-0.239,0.972-0.407,1.463l-0.792,2.339H230.105z"/>
		<path d="M238.266,233.499c0,1.344-0.275,2.146-0.827,2.662c-0.576,0.517-1.392,0.696-2.123,0.696
			c-0.696,0-1.464-0.168-1.931-0.479l0.264-0.816c0.384,0.252,0.983,0.468,1.703,0.468c1.079,0,1.871-0.563,1.871-2.038v-0.636
			h-0.024c-0.312,0.539-0.947,0.971-1.847,0.971c-1.439,0-2.471-1.223-2.471-2.83c0-1.967,1.283-3.07,2.626-3.07
			c1.008,0,1.548,0.516,1.812,0.995h0.023l0.036-0.875h0.936c-0.036,0.407-0.048,0.888-0.048,1.583V233.499z M237.21,230.837
			c0-0.181-0.012-0.336-0.06-0.468c-0.192-0.624-0.695-1.128-1.476-1.128c-1.007,0-1.727,0.852-1.727,2.195
			c0,1.139,0.587,2.087,1.715,2.087c0.659,0,1.247-0.408,1.463-1.08c0.061-0.18,0.084-0.384,0.084-0.563V230.837z"/>
	</g>
</g>
<g>
	<path d="M76.269,45.542v4.798c0,1.799,0.803,2.566,1.883,2.566c1.188,0,1.967-0.791,1.967-2.566v-4.798h1.056v4.726
		c0,2.482-1.308,3.49-3.059,3.49c-1.655,0-2.902-0.936-2.902-3.454v-4.762H76.269z"/>
	<path d="M82.953,49.392c0-0.612-0.012-1.092-0.048-1.571h0.936l0.06,0.959h0.024c0.288-0.539,0.959-1.079,1.919-1.079
		c0.803,0,2.051,0.479,2.051,2.471v3.454h-1.056V50.28c0-0.936-0.348-1.716-1.343-1.716c-0.684,0-1.223,0.492-1.415,1.08
		c-0.048,0.132-0.072,0.312-0.072,0.491v3.49h-1.056V49.392z"/>
	<path d="M90.788,46.19c0,0.359-0.252,0.647-0.671,0.647c-0.384,0-0.636-0.288-0.636-0.647c0-0.36,0.264-0.66,0.66-0.66
		C90.524,45.53,90.788,45.818,90.788,46.19z M89.613,53.625v-5.805h1.056v5.805H89.613z"/>
	<path d="M92.42,49.392c0-0.612-0.012-1.092-0.048-1.571h0.936l0.06,0.959h0.024c0.288-0.539,0.959-1.079,1.919-1.079
		c0.803,0,2.051,0.479,2.051,2.471v3.454h-1.056V50.28c0-0.936-0.348-1.716-1.343-1.716c-0.684,0-1.223,0.492-1.415,1.08
		c-0.048,0.132-0.072,0.312-0.072,0.491v3.49H92.42V49.392z"/>
	<path d="M99.188,53.625v-5.001h-0.804v-0.804h0.804v-0.276c0-0.815,0.192-1.559,0.672-2.026c0.396-0.384,0.923-0.54,1.415-0.54
		c0.384,0,0.696,0.084,0.899,0.168l-0.144,0.815c-0.156-0.071-0.359-0.132-0.671-0.132c-0.899,0-1.127,0.779-1.127,1.68v0.312h1.403
		v0.804h-1.403v5.001H99.188z"/>
	<path d="M103.017,50.915c0.024,1.428,0.923,2.016,1.991,2.016c0.755,0,1.223-0.132,1.607-0.3l0.192,0.755
		c-0.372,0.168-1.019,0.372-1.943,0.372c-1.787,0-2.854-1.188-2.854-2.938s1.032-3.118,2.723-3.118c1.907,0,2.399,1.655,2.399,2.723
		c0,0.216-0.012,0.372-0.036,0.491H103.017z M106.111,50.16c0.012-0.66-0.276-1.703-1.463-1.703c-1.079,0-1.535,0.972-1.619,1.703
		H106.111z"/>
	<path d="M112.578,53.421c-0.276,0.132-0.888,0.336-1.667,0.336c-1.751,0-2.891-1.188-2.891-2.962c0-1.787,1.224-3.095,3.119-3.095
		c0.624,0,1.175,0.156,1.463,0.312l-0.24,0.804c-0.252-0.132-0.647-0.275-1.223-0.275c-1.332,0-2.051,0.995-2.051,2.194
		c0,1.344,0.864,2.171,2.015,2.171c0.6,0,0.996-0.144,1.295-0.275L112.578,53.421z"/>
	<path d="M115.244,46.429v1.392h1.511v0.804h-1.511v3.13c0,0.72,0.204,1.128,0.792,1.128c0.288,0,0.456-0.024,0.611-0.072
		l0.048,0.804c-0.204,0.071-0.528,0.144-0.936,0.144c-0.492,0-0.888-0.168-1.14-0.443c-0.288-0.324-0.408-0.84-0.408-1.523v-3.166
		h-0.899v-0.804h0.899v-1.079L115.244,46.429z"/>
	<path d="M118.46,50.915c0.024,1.428,0.923,2.016,1.991,2.016c0.755,0,1.223-0.132,1.607-0.3l0.192,0.755
		c-0.372,0.168-1.019,0.372-1.943,0.372c-1.787,0-2.854-1.188-2.854-2.938s1.032-3.118,2.723-3.118c1.907,0,2.399,1.655,2.399,2.723
		c0,0.216-0.012,0.372-0.036,0.491H118.46z M121.555,50.16c0.012-0.66-0.276-1.703-1.463-1.703c-1.08,0-1.535,0.972-1.619,1.703
		H121.555z"/>
	<path d="M128.886,45.11v7.017c0,0.516,0.024,1.104,0.048,1.499h-0.936l-0.048-1.008h-0.036c-0.312,0.648-1.007,1.14-1.955,1.14
		c-1.403,0-2.495-1.188-2.495-2.95c-0.012-1.931,1.2-3.106,2.603-3.106c0.9,0,1.487,0.42,1.751,0.876h0.024V45.11H128.886z
		 M127.842,50.183c0-0.132-0.012-0.312-0.048-0.443c-0.156-0.66-0.731-1.212-1.523-1.212c-1.091,0-1.739,0.96-1.739,2.231
		c0,1.175,0.588,2.146,1.715,2.146c0.708,0,1.355-0.479,1.547-1.259c0.036-0.145,0.048-0.288,0.048-0.456V50.183z"/>
	<path d="M134.275,46.429h-2.459v-0.888h5.985v0.888h-2.471v7.196h-1.055V46.429z"/>
	<path d="M145.35,53.421c-0.276,0.132-0.888,0.336-1.667,0.336c-1.751,0-2.891-1.188-2.891-2.962c0-1.787,1.224-3.095,3.119-3.095
		c0.624,0,1.175,0.156,1.463,0.312l-0.24,0.804c-0.252-0.132-0.647-0.275-1.223-0.275c-1.332,0-2.051,0.995-2.051,2.194
		c0,1.344,0.864,2.171,2.015,2.171c0.6,0,0.996-0.144,1.295-0.275L145.35,53.421z"/>
	<path d="M147.104,50.915c0.024,1.428,0.923,2.016,1.991,2.016c0.755,0,1.223-0.132,1.607-0.3l0.192,0.755
		c-0.372,0.168-1.019,0.372-1.943,0.372c-1.787,0-2.854-1.188-2.854-2.938s1.032-3.118,2.723-3.118c1.907,0,2.399,1.655,2.399,2.723
		c0,0.216-0.012,0.372-0.036,0.491H147.104z M150.198,50.16c0.012-0.66-0.276-1.703-1.463-1.703c-1.08,0-1.535,0.972-1.619,1.703
		H150.198z"/>
	<path d="M152.528,45.11h1.056v8.516h-1.056V45.11z"/>
	<path d="M155.36,45.11h1.056v8.516h-1.056V45.11z"/>
	<path d="M163.015,45.302c-0.875,1.188-1.499,2.734-1.499,4.917c0,2.135,0.66,3.658,1.499,4.857h-0.815
		c-0.756-0.995-1.571-2.53-1.571-4.869c0.012-2.351,0.815-3.898,1.571-4.905H163.015z"/>
	<path d="M166.291,46.429h-2.459v-0.888h5.985v0.888h-2.471v7.196h-1.055V46.429z"/>
	<path d="M170.768,55.077c0.84-1.188,1.5-2.734,1.5-4.894c0-2.158-0.648-3.682-1.5-4.881h0.815c0.756,0.983,1.571,2.53,1.571,4.881
		c-0.012,2.351-0.815,3.886-1.571,4.894H170.768z"/>
</g>
<g>
	<path d="M260.247,45.639c0.503-0.084,1.163-0.156,2.003-0.156c1.031,0,1.787,0.24,2.267,0.672c0.432,0.384,0.708,0.972,0.708,1.69
		c0,0.732-0.217,1.308-0.624,1.728c-0.563,0.588-1.451,0.888-2.471,0.888c-0.312,0-0.6-0.013-0.839-0.072v3.238h-1.044V45.639z
		 M261.291,49.536c0.227,0.061,0.516,0.084,0.863,0.084c1.259,0,2.026-0.624,2.026-1.715c0-1.079-0.768-1.596-1.907-1.596
		c-0.455,0-0.803,0.036-0.982,0.084V49.536z"/>
	<path d="M266.402,49.632c0-0.684-0.012-1.271-0.047-1.811h0.923l0.048,1.151h0.036c0.264-0.779,0.911-1.271,1.619-1.271
		c0.108,0,0.192,0.012,0.288,0.024v0.995c-0.108-0.024-0.217-0.024-0.359-0.024c-0.744,0-1.271,0.552-1.416,1.344
		c-0.023,0.144-0.035,0.324-0.035,0.491v3.095h-1.057V49.632z"/>
	<path d="M275.46,50.676c0,2.146-1.499,3.082-2.89,3.082c-1.56,0-2.783-1.151-2.783-2.986c0-1.931,1.283-3.07,2.879-3.07
		C274.333,47.701,275.46,48.912,275.46,50.676z M270.867,50.735c0,1.271,0.719,2.231,1.75,2.231c1.008,0,1.764-0.948,1.764-2.255
		c0-0.983-0.492-2.219-1.739-2.219C271.406,48.493,270.867,49.645,270.867,50.735z"/>
	<path d="M281.797,45.11v7.017c0,0.516,0.023,1.104,0.047,1.499h-0.936l-0.047-1.008h-0.037c-0.312,0.648-1.007,1.14-1.955,1.14
		c-1.402,0-2.494-1.188-2.494-2.95c-0.012-1.931,1.199-3.106,2.603-3.106c0.899,0,1.487,0.42,1.751,0.876h0.024V45.11H281.797z
		 M280.753,50.184c0-0.132-0.013-0.312-0.048-0.443c-0.156-0.66-0.732-1.212-1.523-1.212c-1.092,0-1.739,0.96-1.739,2.231
		c0,1.175,0.588,2.146,1.716,2.146c0.707,0,1.354-0.479,1.547-1.259c0.035-0.145,0.048-0.288,0.048-0.456V50.184z"/>
	<path d="M288.42,52.031c0,0.611,0.012,1.139,0.049,1.595h-0.936l-0.061-0.947h-0.023c-0.264,0.468-0.888,1.079-1.92,1.079
		c-0.91,0-2.002-0.516-2.002-2.543v-3.394h1.055v3.202c0,1.104,0.348,1.859,1.296,1.859c0.708,0,1.199-0.492,1.392-0.972
		c0.06-0.145,0.096-0.336,0.096-0.54v-3.55h1.055V52.031z"/>
	<path d="M294.312,53.422c-0.275,0.132-0.887,0.336-1.667,0.336c-1.751,0-2.891-1.188-2.891-2.962c0-1.787,1.224-3.095,3.118-3.095
		c0.624,0,1.176,0.156,1.463,0.312l-0.239,0.804c-0.252-0.132-0.647-0.275-1.224-0.275c-1.331,0-2.051,0.995-2.051,2.194
		c0,1.344,0.863,2.171,2.016,2.171c0.6,0,0.995-0.144,1.295-0.275L294.312,53.422z"/>
	<path d="M296.979,46.43v1.392h1.511v0.804h-1.511v3.13c0,0.72,0.203,1.128,0.791,1.128c0.287,0,0.455-0.024,0.611-0.072
		l0.049,0.804c-0.205,0.071-0.528,0.144-0.936,0.144c-0.492,0-0.889-0.168-1.141-0.443c-0.287-0.324-0.407-0.84-0.407-1.523v-3.166
		h-0.899v-0.804h0.899v-1.079L296.979,46.43z"/>
	<path d="M300.854,46.19c0,0.359-0.252,0.647-0.671,0.647c-0.384,0-0.636-0.288-0.636-0.647c0-0.36,0.264-0.66,0.66-0.66
		C300.59,45.53,300.854,45.818,300.854,46.19z M299.679,53.626v-5.805h1.056v5.805H299.679z"/>
	<path d="M302.895,47.821l1.139,3.25c0.192,0.54,0.348,1.02,0.469,1.499h0.035c0.132-0.479,0.3-0.959,0.492-1.499l1.127-3.25h1.104
		l-2.279,5.805h-1.007l-2.207-5.805H302.895z"/>
	<path d="M308.727,50.915c0.023,1.428,0.924,2.016,1.99,2.016c0.756,0,1.224-0.132,1.607-0.3l0.191,0.755
		c-0.371,0.168-1.019,0.372-1.942,0.372c-1.787,0-2.854-1.188-2.854-2.938s1.031-3.118,2.723-3.118c1.906,0,2.398,1.655,2.398,2.723
		c0,0.216-0.012,0.372-0.035,0.491H308.727z M311.82,50.16c0.012-0.66-0.275-1.703-1.463-1.703c-1.08,0-1.535,0.972-1.619,1.703
		H311.82z"/>
	<path d="M314.15,45.11h1.056v8.516h-1.056V45.11z"/>
	<path d="M317.366,47.821l1.259,3.43c0.145,0.384,0.289,0.84,0.385,1.188h0.023c0.107-0.348,0.229-0.791,0.372-1.211l1.151-3.406
		h1.115l-1.583,4.138c-0.756,1.991-1.271,2.998-1.991,3.634c-0.527,0.444-1.031,0.624-1.295,0.672l-0.264-0.876
		c0.264-0.084,0.611-0.252,0.924-0.516c0.287-0.228,0.635-0.636,0.887-1.175c0.048-0.108,0.084-0.192,0.084-0.252
		c0-0.061-0.023-0.145-0.084-0.276l-2.135-5.349H317.366z"/>
	<path d="M326.354,46.19c0,0.359-0.252,0.647-0.672,0.647c-0.383,0-0.635-0.288-0.635-0.647c0-0.36,0.264-0.66,0.659-0.66
		C326.09,45.53,326.354,45.818,326.354,46.19z M325.178,53.626v-5.805h1.057v5.805H325.178z"/>
	<path d="M327.986,49.393c0-0.612-0.012-1.092-0.049-1.571h0.936l0.061,0.959h0.023c0.288-0.539,0.96-1.079,1.92-1.079
		c0.803,0,2.051,0.479,2.051,2.471v3.454h-1.057V50.28c0-0.936-0.348-1.716-1.343-1.716c-0.684,0-1.224,0.492-1.415,1.08
		c-0.048,0.132-0.072,0.312-0.072,0.491v3.49h-1.055V49.393z"/>
	<path d="M334.754,53.626v-5.001h-0.804v-0.804h0.804v-0.276c0-0.815,0.191-1.559,0.672-2.026c0.396-0.384,0.924-0.54,1.415-0.54
		c0.384,0,0.696,0.084,0.899,0.168l-0.145,0.815c-0.155-0.071-0.359-0.132-0.671-0.132c-0.899,0-1.128,0.779-1.128,1.68v0.312h1.404
		v0.804h-1.404v5.001H334.754z"/>
	<path d="M338.582,50.915c0.023,1.428,0.924,2.016,1.99,2.016c0.756,0,1.224-0.132,1.607-0.3l0.191,0.755
		c-0.371,0.168-1.019,0.372-1.942,0.372c-1.787,0-2.854-1.188-2.854-2.938s1.031-3.118,2.723-3.118c1.906,0,2.398,1.655,2.398,2.723
		c0,0.216-0.012,0.372-0.035,0.491H338.582z M341.676,50.16c0.012-0.66-0.275-1.703-1.463-1.703c-1.08,0-1.535,0.972-1.619,1.703
		H341.676z"/>
	<path d="M348.144,53.422c-0.276,0.132-0.888,0.336-1.667,0.336c-1.751,0-2.891-1.188-2.891-2.962c0-1.787,1.224-3.095,3.119-3.095
		c0.623,0,1.175,0.156,1.463,0.312l-0.24,0.804c-0.252-0.132-0.647-0.275-1.223-0.275c-1.332,0-2.052,0.995-2.052,2.194
		c0,1.344,0.864,2.171,2.015,2.171c0.6,0,0.996-0.144,1.296-0.275L348.144,53.422z"/>
	<path d="M350.809,46.43v1.392h1.512v0.804h-1.512v3.13c0,0.72,0.204,1.128,0.792,1.128c0.288,0,0.456-0.024,0.612-0.072
		l0.047,0.804c-0.203,0.071-0.527,0.144-0.936,0.144c-0.491,0-0.887-0.168-1.139-0.443c-0.288-0.324-0.408-0.84-0.408-1.523v-3.166
		h-0.899v-0.804h0.899v-1.079L350.809,46.43z"/>
	<path d="M354.025,50.915c0.023,1.428,0.924,2.016,1.99,2.016c0.756,0,1.224-0.132,1.607-0.3l0.191,0.755
		c-0.371,0.168-1.019,0.372-1.942,0.372c-1.787,0-2.854-1.188-2.854-2.938s1.031-3.118,2.723-3.118c1.906,0,2.398,1.655,2.398,2.723
		c0,0.216-0.012,0.372-0.035,0.491H354.025z M357.119,50.16c0.012-0.66-0.275-1.703-1.463-1.703c-1.08,0-1.535,0.972-1.619,1.703
		H357.119z"/>
	<path d="M364.451,45.11v7.017c0,0.516,0.023,1.104,0.048,1.499h-0.936l-0.048-1.008h-0.036c-0.312,0.648-1.007,1.14-1.955,1.14
		c-1.403,0-2.495-1.188-2.495-2.95c-0.012-1.931,1.2-3.106,2.604-3.106c0.899,0,1.486,0.42,1.751,0.876h0.024V45.11H364.451z
		 M363.408,50.184c0-0.132-0.013-0.312-0.049-0.443c-0.156-0.66-0.731-1.212-1.523-1.212c-1.091,0-1.738,0.96-1.738,2.231
		c0,1.175,0.588,2.146,1.715,2.146c0.707,0,1.355-0.479,1.547-1.259c0.036-0.145,0.049-0.288,0.049-0.456V50.184z"/>
	<path d="M372.898,53.422c-0.275,0.132-0.887,0.336-1.666,0.336c-1.752,0-2.891-1.188-2.891-2.962c0-1.787,1.223-3.095,3.118-3.095
		c0.624,0,1.175,0.156,1.463,0.312l-0.239,0.804c-0.252-0.132-0.648-0.275-1.224-0.275c-1.331,0-2.052,0.995-2.052,2.194
		c0,1.344,0.864,2.171,2.016,2.171c0.6,0,0.996-0.144,1.295-0.275L372.898,53.422z"/>
	<path d="M374.653,50.915c0.024,1.428,0.923,2.016,1.991,2.016c0.755,0,1.223-0.132,1.606-0.3l0.192,0.755
		c-0.372,0.168-1.02,0.372-1.943,0.372c-1.787,0-2.854-1.188-2.854-2.938s1.032-3.118,2.723-3.118c1.907,0,2.399,1.655,2.399,2.723
		c0,0.216-0.013,0.372-0.037,0.491H374.653z M377.748,50.16c0.012-0.66-0.276-1.703-1.464-1.703c-1.079,0-1.535,0.972-1.619,1.703
		H377.748z"/>
	<path d="M380.077,45.11h1.056v8.516h-1.056V45.11z"/>
	<path d="M382.909,45.11h1.056v8.516h-1.056V45.11z"/>
	<path d="M390.564,45.303c-0.876,1.188-1.5,2.734-1.5,4.917c0,2.135,0.66,3.658,1.5,4.857h-0.816c-0.756-0.995-1.57-2.53-1.57-4.869
		c0.012-2.351,0.814-3.898,1.57-4.905H390.564z"/>
	<path d="M393.84,46.43h-2.459v-0.888h5.984v0.888h-2.471v7.196h-1.055V46.43z"/>
	<path d="M401.303,45.818l-1.139,1.499v0.024l1.811-0.24v0.815l-1.811-0.228v0.036l1.151,1.438l-0.756,0.433l-0.731-1.68h-0.023
		l-0.768,1.691l-0.684-0.432l1.139-1.464v-0.036l-1.775,0.24v-0.815l1.764,0.228v-0.023l-1.127-1.476l0.73-0.42l0.744,1.68h0.023
		l0.732-1.691L401.303,45.818z"/>
	<path d="M402.577,55.077c0.84-1.188,1.499-2.734,1.499-4.894c0-2.158-0.647-3.682-1.499-4.881h0.815
		c0.756,0.983,1.571,2.53,1.571,4.881c-0.012,2.351-0.815,3.886-1.571,4.894H402.577z"/>
</g>
<g>
	<path d="M191.958,227.97v2.818h2.71v0.72h-2.71v2.842h-0.768v-2.842h-2.711v-0.72h2.711v-2.818H191.958z"/>
</g>
</svg>
