<?xml version="1.0" encoding="UTF-8" standalone="no"?>
<!DOCTYPE svg PUBLIC "-//W3C//DTD SVG 1.1//EN"
 "http://www.w3.org/Graphics/SVG/1.1/DTD/svg11.dtd">
<!-- Generated by graphviz version 2.24.0 (20090616.2323)
 -->
<!-- Title: G Pages: 1 -->
<svg width="1106pt" height="192pt"
 viewBox="0.00 0.00 1106.00 192.00" xmlns="http://www.w3.org/2000/svg" xmlns:xlink="http://www.w3.org/1999/xlink">
<g id="graph1" class="graph" transform="scale(1 1) rotate(0) translate(4 188)">
<title>G</title>
<polygon fill="white" stroke="white" points="-4,5 -4,-188 1103,-188 1103,5 -4,5"/>
<!-- S -->
<g id="node1" class="node"><title>S</title>
<ellipse fill="none" stroke="black" cx="222" cy="-121" rx="46.169" ry="18"/>
<text text-anchor="middle" x="222" y="-118.5" font-family="Times Roman,serif" font-size="10.00">Susceptible</text>
</g>
<!-- death_healthy_intermediate_r -->
<g id="node12" class="node"><title>death_healthy_intermediate_r</title>
<ellipse fill="black" stroke="black" cx="305" cy="-123" rx="0.036" ry="0.036"/>
</g>
<!-- S&#45;&gt;death_healthy_intermediate_r -->
<g id="edge10" class="edge"><title>S&#45;&gt;death_healthy_intermediate_r</title>
<path fill="none" stroke="black" d="M268.353,-122.117C286.771,-122.561 303.897,-122.973 304.949,-122.999"/>
</g>
<!-- infection_intermediate_r -->
<g id="node19" class="node"><title>infection_intermediate_r</title>
<ellipse fill="black" stroke="black" cx="305" cy="-93" rx="0.036" ry="0.036"/>
</g>
<!-- S&#45;&gt;infection_intermediate_r -->
<g id="edge18" class="edge"><title>S&#45;&gt;infection_intermediate_r</title>
<path fill="none" stroke="black" d="M257.199,-109.125C279.114,-101.733 303.429,-93.53 304.927,-93.0246"/>
</g>
<!-- destruction_intermediate_m -->
<g id="node63" class="node"><title>destruction_intermediate_m</title>
<ellipse fill="black" stroke="black" cx="1098" cy="-170" rx="0.036" ry="0.036"/>
</g>
<!-- S&#45;&gt;destruction_intermediate_m -->
<g id="edge70" class="edge"><title>S&#45;&gt;destruction_intermediate_m</title>
<path fill="none" stroke="black" d="M241.202,-137.553C264.884,-156.218 307.159,-184 349,-184 349,-184 349,-184 1011,-184 1048.94,-184 1095.02,-170.861 1097.86,-170.04"/>
</g>
<!-- I -->
<g id="node2" class="node"><title>I</title>
<ellipse fill="none" stroke="black" cx="467" cy="-86" rx="36.9352" ry="18"/>
<text text-anchor="middle" x="467" y="-83.5" font-family="Times Roman,serif" font-size="10.00">Infected</text>
</g>
<!-- natural_death_infected_intermediate_r -->
<g id="node29" class="node"><title>natural_death_infected_intermediate_r</title>
<ellipse fill="black" stroke="black" cx="541" cy="-102" rx="0.036" ry="0.036"/>
</g>
<!-- I&#45;&gt;natural_death_infected_intermediate_r -->
<g id="edge30" class="edge"><title>I&#45;&gt;natural_death_infected_intermediate_r</title>
<path fill="none" stroke="black" d="M500.968,-93.3444C519.813,-97.4191 539.715,-101.722 540.94,-101.987"/>
</g>
<!-- zombification_infected_intermediate_r -->
<g id="node36" class="node"><title>zombification_infected_intermediate_r</title>
<ellipse fill="black" stroke="black" cx="541" cy="-81" rx="0.036" ry="0.036"/>
</g>
<!-- I&#45;&gt;zombification_infected_intermediate_r -->
<g id="edge38" class="edge"><title>I&#45;&gt;zombification_infected_intermediate_r</title>
<path fill="none" stroke="black" d="M504,-83.5C521.922,-82.2891 539.844,-81.0781 540.946,-81.0036"/>
</g>
<!-- Z -->
<g id="node3" class="node"><title>Z</title>
<ellipse fill="none" stroke="black" cx="941" cy="-84" rx="33.2417" ry="18"/>
<text text-anchor="middle" x="941" y="-81.5" font-family="Times Roman,serif" font-size="10.00">Zombie</text>
</g>
<!-- infection_intermediate_m -->
<g id="node25" class="node"><title>infection_intermediate_m</title>
<ellipse fill="black" stroke="black" cx="1011" cy="-50" rx="0.036" ry="0.036"/>
</g>
<!-- Z&#45;&gt;infection_intermediate_m -->
<g id="edge26" class="edge"><title>Z&#45;&gt;infection_intermediate_m</title>
<path fill="none" stroke="black" d="M965.876,-71.9171C985.368,-62.45 1009.44,-50.7567 1010.93,-50.0351"/>
</g>
<!-- cure_intermediate_r -->
<g id="node43" class="node"><title>cure_intermediate_r</title>
<ellipse fill="black" stroke="black" cx="1011" cy="-75" rx="0.036" ry="0.036"/>
</g>
<!-- Z&#45;&gt;cure_intermediate_r -->
<g id="edge46" class="edge"><title>Z&#45;&gt;cure_intermediate_r</title>
<path fill="none" stroke="black" d="M973.132,-79.8688C990.959,-77.5768 1009.78,-75.1563 1010.94,-75.0073"/>
</g>
<!-- destruction_intermediate_r -->
<g id="node57" class="node"><title>destruction_intermediate_r</title>
<ellipse fill="black" stroke="black" cx="1011" cy="-99" rx="0.036" ry="0.036"/>
</g>
<!-- Z&#45;&gt;destruction_intermediate_r -->
<g id="edge62" class="edge"><title>Z&#45;&gt;destruction_intermediate_r</title>
<path fill="none" stroke="black" d="M971.907,-90.6229C990.073,-94.5156 1009.73,-98.7279 1010.94,-98.9874"/>
</g>
<!-- R -->
<g id="node4" class="node"><title>R</title>
<ellipse fill="none" stroke="black" cx="706" cy="-125" rx="38.8989" ry="18"/>
<text text-anchor="middle" x="706" y="-122.5" font-family="Times Roman,serif" font-size="10.00">Removed</text>
</g>
<!-- resurrection_intermediate_r -->
<g id="node50" class="node"><title>resurrection_intermediate_r</title>
<ellipse fill="black" stroke="black" cx="783" cy="-115" rx="0.036" ry="0.036"/>
</g>
<!-- R&#45;&gt;resurrection_intermediate_r -->
<g id="edge54" class="edge"><title>R&#45;&gt;resurrection_intermediate_r</title>
<path fill="none" stroke="black" d="M744.049,-120.059C762.842,-117.618 781.778,-115.159 782.943,-115.007"/>
</g>
<!-- birth -->
<g id="node5" class="node"><title>birth</title>
<polygon fill="none" stroke="black" points="104,-128 90,-128 90,-114 104,-114 104,-128"/>
</g>
<!-- birth_intermediate_p -->
<g id="node8" class="node"><title>birth_intermediate_p</title>
<ellipse fill="black" stroke="black" cx="140" cy="-121" rx="0.036" ry="0.036"/>
</g>
<!-- birth&#45;&gt;birth_intermediate_p -->
<g id="edge4" class="edge"><title>birth&#45;&gt;birth_intermediate_p</title>
<path fill="none" stroke="black" d="M104.101,-121C115.932,-121 138.531,-121 139.932,-121"/>
</g>
<!-- birth_empty -->
<g id="node6" class="node"><title>birth_empty</title>
<text text-anchor="middle" x="27" y="-116.5" font-family="Times Roman,serif" font-size="15.00" fill="blue">Ø</text>
</g>
<!-- birth_empty&#45;&gt;birth -->
<g id="edge2" class="edge"><title>birth_empty&#45;&gt;birth</title>
<path fill="none" stroke="black" d="M54.2643,-121C67.1627,-121 81.5367,-121 89.8947,-121"/>
</g>
<!-- birth_intermediate_p&#45;&gt;S -->
<g id="edge6" class="edge"><title>birth_intermediate_p&#45;&gt;S</title>
<path fill="none" stroke="black" d="M140.059,-121C140.957,-121 151.913,-121 165.538,-121"/>
<polygon fill="black" stroke="black" points="165.825,-124.5 175.825,-121 165.825,-117.5 165.825,-124.5"/>
</g>
<!-- death_healthy -->
<g id="node11" class="node"><title>death_healthy</title>
<polygon fill="none" stroke="black" points="356,-144 342,-144 342,-130 356,-130 356,-144"/>
</g>
<!-- death_healthy_intermediate_p -->
<g id="node15" class="node"><title>death_healthy_intermediate_p</title>
<ellipse fill="black" stroke="black" cx="467" cy="-141" rx="0.036" ry="0.036"/>
</g>
<!-- death_healthy&#45;&gt;death_healthy_intermediate_p -->
<g id="edge12" class="edge"><title>death_healthy&#45;&gt;death_healthy_intermediate_p</title>
<path fill="none" stroke="black" d="M356.028,-137.238C381.034,-138.086 464.341,-140.91 466.938,-140.998"/>
</g>
<!-- death_healthy_intermediate_r&#45;&gt;death_healthy -->
<g id="edge8" class="edge"><title>death_healthy_intermediate_r&#45;&gt;death_healthy</title>
<path fill="none" stroke="black" d="M305.126,-123.04C307.022,-123.643 329.795,-130.889 341.759,-134.696"/>
</g>
<!-- death_healthy_intermediate_p&#45;&gt;R -->
<g id="edge14" class="edge"><title>death_healthy_intermediate_p&#45;&gt;R</title>
<path fill="none" stroke="black" d="M467.044,-140.997C469.635,-140.824 587.346,-132.943 656.566,-128.309"/>
<polygon fill="black" stroke="black" points="657.077,-131.783 666.82,-127.623 656.609,-124.799 657.077,-131.783"/>
</g>
<!-- infection -->
<g id="node18" class="node"><title>infection</title>
<polygon fill="none" stroke="black" points="356,-93 342,-93 342,-79 356,-79 356,-93"/>
</g>
<!-- infection_intermediate_p -->
<g id="node22" class="node"><title>infection_intermediate_p</title>
<ellipse fill="black" stroke="black" cx="393" cy="-86" rx="0.036" ry="0.036"/>
</g>
<!-- infection&#45;&gt;infection_intermediate_p -->
<g id="edge20" class="edge"><title>infection&#45;&gt;infection_intermediate_p</title>
<path fill="none" stroke="black" d="M356.266,-86C368.372,-86 391.497,-86 392.93,-86"/>
</g>
<!-- infection&#45;&gt;infection_intermediate_m -->
<g id="edge24" class="edge"><title>infection&#45;&gt;infection_intermediate_m</title>
<path fill="none" stroke="black" d="M366.133,-74.1156C388.338,-59.9009 428.756,-38 467,-38 467,-38 467,-38 871,-38 932.475,-38 1008.58,-49.6279 1010.94,-49.9913"/>
<polygon fill="none" stroke="black" points="366.018,-74.1921 363.255,-80.8526 356.044,-80.8632 358.807,-74.2027 366.018,-74.1921"/>
</g>
<!-- infection_intermediate_r&#45;&gt;infection -->
<g id="edge16" class="edge"><title>infection_intermediate_r&#45;&gt;infection</title>
<path fill="none" stroke="black" d="M305.126,-92.9799C307.022,-92.6784 329.795,-89.0554 341.759,-87.152"/>
</g>
<!-- infection_intermediate_p&#45;&gt;I -->
<g id="edge22" class="edge"><title>infection_intermediate_p&#45;&gt;I</title>
<path fill="none" stroke="black" d="M393.054,-86C393.934,-86 405.539,-86 419.304,-86"/>
<polygon fill="black" stroke="black" points="419.587,-89.5001 429.587,-86 419.587,-82.5001 419.587,-89.5001"/>
</g>
<!-- natural_death_infected -->
<g id="node28" class="node"><title>natural_death_infected</title>
<polygon fill="none" stroke="black" points="592,-113 578,-113 578,-99 592,-99 592,-113"/>
</g>
<!-- natural_death_infected_intermediate_p -->
<g id="node32" class="node"><title>natural_death_infected_intermediate_p</title>
<ellipse fill="black" stroke="black" cx="629" cy="-110" rx="0.036" ry="0.036"/>
</g>
<!-- natural_death_infected&#45;&gt;natural_death_infected_intermediate_p -->
<g id="edge32" class="edge"><title>natural_death_infected&#45;&gt;natural_death_infected_intermediate_p</title>
<path fill="none" stroke="black" d="M592.266,-106.661C604.372,-107.761 627.497,-109.863 628.93,-109.994"/>
</g>
<!-- natural_death_infected_intermediate_r&#45;&gt;natural_death_infected -->
<g id="edge28" class="edge"><title>natural_death_infected_intermediate_r&#45;&gt;natural_death_infected</title>
<path fill="none" stroke="black" d="M541.126,-102.011C543.022,-102.184 565.795,-104.254 577.759,-105.342"/>
</g>
<!-- natural_death_infected_intermediate_p&#45;&gt;R -->
<g id="edge34" class="edge"><title>natural_death_infected_intermediate_p&#45;&gt;R</title>
<path fill="none" stroke="black" d="M629.056,-110.011C630.036,-110.202 643.8,-112.883 659.421,-115.926"/>
<polygon fill="black" stroke="black" points="658.805,-119.372 669.29,-117.849 660.144,-112.501 658.805,-119.372"/>
</g>
<!-- zombification_infected -->
<g id="node35" class="node"><title>zombification_infected</title>
<polygon fill="none" stroke="black" points="592,-81 578,-81 578,-67 592,-67 592,-81"/>
</g>
<!-- zombification_infected_intermediate_p -->
<g id="node39" class="node"><title>zombification_infected_intermediate_p</title>
<ellipse fill="black" stroke="black" cx="706" cy="-76" rx="0.036" ry="0.036"/>
</g>
<!-- zombification_infected&#45;&gt;zombification_infected_intermediate_p -->
<g id="edge40" class="edge"><title>zombification_infected&#45;&gt;zombification_infected_intermediate_p</title>
<path fill="none" stroke="black" d="M592.207,-74.1191C617.849,-74.543 703.273,-75.9549 705.936,-75.9989"/>
</g>
<!-- zombification_infected_intermediate_r&#45;&gt;zombification_infected -->
<g id="edge36" class="edge"><title>zombification_infected_intermediate_r&#45;&gt;zombification_infected</title>
<path fill="none" stroke="black" d="M541.126,-80.9799C543.022,-80.6784 565.795,-77.0554 577.759,-75.152"/>
</g>
<!-- zombification_infected_intermediate_p&#45;&gt;Z -->
<g id="edge42" class="edge"><title>zombification_infected_intermediate_p&#45;&gt;Z</title>
<path fill="none" stroke="black" d="M706.043,-76.0015C708.656,-76.0904 830.322,-80.2322 897.516,-82.5197"/>
<polygon fill="black" stroke="black" points="897.692,-86.0276 907.805,-82.87 897.93,-79.0317 897.692,-86.0276"/>
</g>
<!-- cure -->
<g id="node42" class="node"><title>cure</title>
<polygon fill="none" stroke="black" points="1062,-80 1048,-80 1048,-66 1062,-66 1062,-80"/>
</g>
<!-- cure_intermediate_p -->
<g id="node46" class="node"><title>cure_intermediate_p</title>
<ellipse fill="black" stroke="black" cx="1098" cy="-37" rx="0.036" ry="0.036"/>
</g>
<!-- cure&#45;&gt;cure_intermediate_p -->
<g id="edge48" class="edge"><title>cure&#45;&gt;cure_intermediate_p</title>
<path fill="none" stroke="black" d="M1062.1,-67.0553C1073.93,-57.1499 1096.53,-38.23 1097.93,-37.0572"/>
</g>
<!-- cure_intermediate_r&#45;&gt;cure -->
<g id="edge44" class="edge"><title>cure_intermediate_r&#45;&gt;cure</title>
<path fill="none" stroke="black" d="M1011.13,-74.9943C1013.02,-74.9081 1035.79,-73.873 1047.76,-73.3291"/>
</g>
<!-- cure_intermediate_p&#45;&gt;S -->
<g id="edge50" class="edge"><title>cure_intermediate_p&#45;&gt;S</title>
<path fill="none" stroke="black" d="M1097.87,-36.8939C1095.19,-34.7236 1051.71,-0 1011,-0 349,-0 349,-0 349,-0 294.766,-0 254.529,-58.5551 235.06,-94.1978"/>
<polygon fill="black" stroke="black" points="231.91,-92.6677 230.343,-103.146 238.103,-95.9319 231.91,-92.6677"/>
</g>
<!-- resurrection -->
<g id="node49" class="node"><title>resurrection</title>
<polygon fill="none" stroke="black" points="834,-118 820,-118 820,-104 834,-104 834,-118"/>
</g>
<!-- resurrection_intermediate_p -->
<g id="node53" class="node"><title>resurrection_intermediate_p</title>
<ellipse fill="black" stroke="black" cx="871" cy="-108" rx="0.036" ry="0.036"/>
</g>
<!-- resurrection&#45;&gt;resurrection_intermediate_p -->
<g id="edge56" class="edge"><title>resurrection&#45;&gt;resurrection_intermediate_p</title>
<path fill="none" stroke="black" d="M834.266,-110.505C846.372,-109.679 869.497,-108.103 870.93,-108.005"/>
</g>
<!-- resurrection_intermediate_r&#45;&gt;resurrection -->
<g id="edge52" class="edge"><title>resurrection_intermediate_r&#45;&gt;resurrection</title>
<path fill="none" stroke="black" d="M783.126,-114.989C785.022,-114.816 807.795,-112.746 819.759,-111.658"/>
</g>
<!-- resurrection_intermediate_p&#45;&gt;Z -->
<g id="edge58" class="edge"><title>resurrection_intermediate_p&#45;&gt;Z</title>
<path fill="none" stroke="black" d="M871.051,-107.983C872.031,-107.646 887.073,-102.489 902.957,-97.0435"/>
<polygon fill="black" stroke="black" points="904.513,-100.21 912.837,-93.6558 902.243,-93.5883 904.513,-100.21"/>
</g>
<!-- destruction -->
<g id="node56" class="node"><title>destruction</title>
<polygon fill="none" stroke="black" points="1062,-118 1048,-118 1048,-104 1062,-104 1062,-118"/>
</g>
<!-- destruction_intermediate_p -->
<g id="node60" class="node"><title>destruction_intermediate_p</title>
<ellipse fill="black" stroke="black" cx="1098" cy="-125" rx="0.036" ry="0.036"/>
</g>
<!-- destruction&#45;&gt;destruction_intermediate_p -->
<g id="edge64" class="edge"><title>destruction&#45;&gt;destruction_intermediate_p</title>
<path fill="none" stroke="black" d="M1062.1,-113.312C1073.93,-117.164 1096.53,-124.522 1097.93,-124.978"/>
</g>
<!-- destruction&#45;&gt;destruction_intermediate_m -->
<g id="edge68" class="edge"><title>destruction&#45;&gt;destruction_intermediate_m</title>
<path fill="none" stroke="black" d="M1067.39,-128.006C1079.62,-144.776 1096.65,-168.151 1097.92,-169.896"/>
<polygon fill="none" stroke="black" points="1067.34,-127.932 1060.57,-125.439 1060.27,-118.235 1067.04,-120.727 1067.34,-127.932"/>
</g>
<!-- destruction_intermediate_r&#45;&gt;destruction -->
<g id="edge60" class="edge"><title>destruction_intermediate_r&#45;&gt;destruction</title>
<path fill="none" stroke="black" d="M1011.13,-99.0344C1013.02,-99.5513 1035.79,-105.762 1047.76,-109.025"/>
</g>
<!-- destruction_intermediate_p&#45;&gt;R -->
<g id="edge66" class="edge"><title>destruction_intermediate_p&#45;&gt;R</title>
<path fill="none" stroke="black" d="M1097.86,-125.06C1095.06,-126.292 1049.53,-146 1011,-146 827,-146 827,-146 827,-146 801.3,-146 772.976,-141.344 750.196,-136.417"/>
<polygon fill="black" stroke="black" points="750.675,-132.937 740.149,-134.15 749.134,-139.765 750.675,-132.937"/>
</g>
</g>
</svg>
