<?xml version="1.0" encoding="UTF-8" standalone="no"?>
<!DOCTYPE svg PUBLIC "-//W3C//DTD SVG 1.1//EN"
 "http://www.w3.org/Graphics/SVG/1.1/DTD/svg11.dtd">
<!-- Generated by graphviz version 2.24.0 (20090616.2323)
 -->
<!-- Title: G Pages: 1 -->
<svg width="636pt" height="207pt"
 viewBox="0.00 0.00 636.00 207.00" xmlns="http://www.w3.org/2000/svg" xmlns:xlink="http://www.w3.org/1999/xlink">
<g id="graph1" class="graph" transform="scale(1 1) rotate(0) translate(4 203)">
<title>G</title>
<polygon fill="white" stroke="white" points="-4,5 -4,-203 633,-203 633,5 -4,5"/>
<!-- R -->
<g id="node1" class="node"><title>R</title>
<ellipse fill="none" stroke="black" cx="196" cy="-131" rx="18" ry="18"/>
<text text-anchor="middle" x="196" y="-128.5" font-family="Times Roman,serif" font-size="10.00">R</text>
</g>
<!-- r2_intermediate_r -->
<g id="node15" class="node"><title>r2_intermediate_r</title>
<ellipse fill="black" stroke="black" cx="251" cy="-163" rx="0.036" ry="0.036"/>
</g>
<!-- R&#45;&gt;r2_intermediate_r -->
<g id="edge14" class="edge"><title>R&#45;&gt;r2_intermediate_r</title>
<path fill="none" stroke="black" d="M211.614,-140.084C227.366,-149.249 249.561,-162.163 250.933,-162.961"/>
</g>
<!-- r4_intermediate_m -->
<g id="node37" class="node"><title>r4_intermediate_m</title>
<ellipse fill="black" stroke="black" cx="251" cy="-127" rx="0.036" ry="0.036"/>
</g>
<!-- R&#45;&gt;r4_intermediate_m -->
<g id="edge40" class="edge"><title>R&#45;&gt;r4_intermediate_m</title>
<path fill="none" stroke="black" d="M214.009,-129.69C229.548,-128.56 249.695,-127.095 250.939,-127.004"/>
</g>
<!-- S -->
<g id="node2" class="node"><title>S</title>
<ellipse fill="none" stroke="black" cx="315" cy="-138" rx="27" ry="18"/>
<text text-anchor="middle" x="315" y="-135.5" font-family="Times Roman,serif" font-size="10.00">S</text>
</g>
<!-- r2_intermediate_m -->
<g id="node20" class="node"><title>r2_intermediate_m</title>
<ellipse fill="black" stroke="black" cx="405" cy="-141" rx="0.036" ry="0.036"/>
</g>
<!-- S&#45;&gt;r2_intermediate_m -->
<g id="edge20" class="edge"><title>S&#45;&gt;r2_intermediate_m</title>
<path fill="none" stroke="black" d="M342.003,-138.9C367.685,-139.756 402.729,-140.924 404.895,-140.996"/>
</g>
<!-- Ep -->
<g id="node3" class="node"><title>Ep</title>
<ellipse fill="none" stroke="black" cx="315" cy="-46" rx="18" ry="18"/>
<text text-anchor="middle" x="315" y="-43.5" font-family="Times Roman,serif" font-size="10.00">Ep</text>
</g>
<!-- r3_intermediate_r -->
<g id="node24" class="node"><title>r3_intermediate_r</title>
<ellipse fill="black" stroke="black" cx="405" cy="-46" rx="0.036" ry="0.036"/>
</g>
<!-- Ep&#45;&gt;r3_intermediate_r -->
<g id="edge24" class="edge"><title>Ep&#45;&gt;r3_intermediate_r</title>
<path fill="none" stroke="black" d="M333.213,-46C358.689,-46 402.176,-46 404.869,-46"/>
</g>
<!-- E -->
<g id="node4" class="node"><title>E</title>
<ellipse fill="none" stroke="black" cx="574" cy="-46" rx="18" ry="18"/>
<text text-anchor="middle" x="574" y="-43.5" font-family="Times Roman,serif" font-size="10.00">E</text>
</g>
<!-- r0_intermediate_m -->
<g id="node11" class="node"><title>r0_intermediate_m</title>
<ellipse fill="black" stroke="black" cx="628" cy="-30" rx="0.036" ry="0.036"/>
</g>
<!-- E&#45;&gt;r0_intermediate_m -->
<g id="edge10" class="edge"><title>E&#45;&gt;r0_intermediate_m</title>
<path fill="none" stroke="black" d="M591.383,-40.8494C606.676,-36.3183 626.703,-30.3843 627.94,-30.0178"/>
</g>
<!-- r4_intermediate_r -->
<g id="node31" class="node"><title>r4_intermediate_r</title>
<ellipse fill="black" stroke="black" cx="628" cy="-62" rx="0.036" ry="0.036"/>
</g>
<!-- E&#45;&gt;r4_intermediate_r -->
<g id="edge32" class="edge"><title>E&#45;&gt;r4_intermediate_r</title>
<path fill="none" stroke="black" d="M591.383,-51.1506C606.676,-55.6817 626.703,-61.6157 627.94,-61.9822"/>
</g>
<!-- r0 -->
<g id="node5" class="node"><title>r0</title>
<polygon fill="none" stroke="black" points="104,-46 90,-46 90,-32 104,-32 104,-46"/>
</g>
<!-- r0_intermediate_p -->
<g id="node8" class="node"><title>r0_intermediate_p</title>
<ellipse fill="black" stroke="black" cx="141" cy="-79" rx="0.036" ry="0.036"/>
</g>
<!-- r0&#45;&gt;r0_intermediate_p -->
<g id="edge4" class="edge"><title>r0&#45;&gt;r0_intermediate_p</title>
<path fill="none" stroke="black" d="M104.266,-45.6052C116.372,-56.6113 139.497,-77.6333 140.93,-78.9364"/>
</g>
<!-- r0&#45;&gt;r0_intermediate_m -->
<g id="edge8" class="edge"><title>r0&#45;&gt;r0_intermediate_m</title>
<path fill="none" stroke="black" d="M114.713,-27.34C133.91,-15.8489 165.853,-0 196,-0 196,-0 196,-0 519,-0 568.461,-0 626.166,-29.0698 627.957,-29.9783"/>
<polygon fill="none" stroke="black" points="114.46,-27.4995 111.519,-34.0837 104.31,-33.9014 107.251,-27.3172 114.46,-27.4995"/>
</g>
<!-- r0_empty -->
<g id="node6" class="node"><title>r0_empty</title>
<text text-anchor="middle" x="27" y="-34.5" font-family="Times Roman,serif" font-size="15.00" fill="blue">Ø</text>
</g>
<!-- r0_empty&#45;&gt;r0 -->
<g id="edge2" class="edge"><title>r0_empty&#45;&gt;r0</title>
<path fill="none" stroke="black" d="M54.2643,-39C67.1627,-39 81.5367,-39 89.8947,-39"/>
</g>
<!-- r0_intermediate_p&#45;&gt;R -->
<g id="edge6" class="edge"><title>r0_intermediate_p&#45;&gt;R</title>
<path fill="none" stroke="black" d="M141.158,-79.1492C143.004,-80.8942 160.69,-97.6157 175.486,-111.605"/>
<polygon fill="black" stroke="black" points="173.19,-114.251 182.861,-118.578 177.999,-109.164 173.19,-114.251"/>
</g>
<!-- r2 -->
<g id="node14" class="node"><title>r2</title>
<polygon fill="none" stroke="black" points="322,-188 308,-188 308,-174 322,-174 322,-188"/>
</g>
<!-- r2_empty -->
<g id="node18" class="node"><title>r2_empty</title>
<text text-anchor="middle" x="405" y="-176.5" font-family="Times Roman,serif" font-size="15.00" fill="blue">Ø</text>
</g>
<!-- r2&#45;&gt;r2_empty -->
<g id="edge16" class="edge"><title>r2&#45;&gt;r2_empty</title>
<path fill="none" stroke="black" d="M322.062,-181C331.877,-181 350.359,-181 367.389,-181"/>
<polygon fill="black" stroke="black" points="367.715,-184.5 377.715,-181 367.715,-177.5 367.715,-184.5"/>
</g>
<!-- r2&#45;&gt;r2_intermediate_m -->
<g id="edge18" class="edge"><title>r2&#45;&gt;r2_intermediate_m</title>
<path fill="none" stroke="black" d="M333.283,-172.874C359.113,-161.394 403.352,-141.732 404.955,-141.02"/>
<polygon fill="none" stroke="black" points="333.028,-172.988 329.17,-179.08 322.062,-177.861 325.92,-171.769 333.028,-172.988"/>
</g>
<!-- r2_intermediate_r&#45;&gt;r2 -->
<g id="edge12" class="edge"><title>r2_intermediate_r&#45;&gt;r2</title>
<path fill="none" stroke="black" d="M251.046,-163.013C252.576,-163.443 291.51,-174.394 307.868,-178.994"/>
</g>
<!-- r3 -->
<g id="node23" class="node"><title>r3</title>
<polygon fill="none" stroke="black" points="482,-53 468,-53 468,-39 482,-39 482,-53"/>
</g>
<!-- r3_intermediate_p -->
<g id="node27" class="node"><title>r3_intermediate_p</title>
<ellipse fill="black" stroke="black" cx="519" cy="-46" rx="0.036" ry="0.036"/>
</g>
<!-- r3&#45;&gt;r3_intermediate_p -->
<g id="edge26" class="edge"><title>r3&#45;&gt;r3_intermediate_p</title>
<path fill="none" stroke="black" d="M482.266,-46C494.372,-46 517.497,-46 518.93,-46"/>
</g>
<!-- r3_intermediate_r&#45;&gt;r3 -->
<g id="edge22" class="edge"><title>r3_intermediate_r&#45;&gt;r3</title>
<path fill="none" stroke="black" d="M405.051,-46C406.748,-46 450.582,-46 467.98,-46"/>
</g>
<!-- r3_intermediate_p&#45;&gt;E -->
<g id="edge28" class="edge"><title>r3_intermediate_p&#45;&gt;E</title>
<path fill="none" stroke="black" d="M519.158,-46C520.674,-46 532.878,-46 545.389,-46"/>
<polygon fill="black" stroke="black" points="545.743,-49.5001 555.743,-46 545.743,-42.5001 545.743,-49.5001"/>
</g>
<!-- r4 -->
<g id="node30" class="node"><title>r4</title>
<polygon fill="none" stroke="black" points="203,-95 189,-95 189,-81 203,-81 203,-95"/>
</g>
<!-- r4_intermediate_p -->
<g id="node34" class="node"><title>r4_intermediate_p</title>
<ellipse fill="black" stroke="black" cx="251" cy="-55" rx="0.036" ry="0.036"/>
</g>
<!-- r4&#45;&gt;r4_intermediate_p -->
<g id="edge34" class="edge"><title>r4&#45;&gt;r4_intermediate_p</title>
<path fill="none" stroke="black" d="M203.19,-83.6858C217.633,-75.0203 248.961,-56.2233 250.905,-55.0569"/>
</g>
<!-- r4&#45;&gt;r4_intermediate_m -->
<g id="edge38" class="edge"><title>r4&#45;&gt;r4_intermediate_m</title>
<path fill="none" stroke="black" d="M213.24,-100.225C228.75,-111.222 249.341,-125.824 250.905,-126.933"/>
<polygon fill="none" stroke="black" points="212.979,-100.04 205.771,-99.8321 203.19,-93.0986 210.398,-93.3062 212.979,-100.04"/>
</g>
<!-- r4_intermediate_r&#45;&gt;r4 -->
<g id="edge30" class="edge"><title>r4_intermediate_r&#45;&gt;r4</title>
<path fill="none" stroke="black" d="M627.957,-62.0217C626.166,-62.9302 568.461,-92 519,-92 315,-92 315,-92 315,-92 272.624,-92 221.807,-89.435 203.241,-88.413"/>
</g>
<!-- r4_intermediate_p&#45;&gt;Ep -->
<g id="edge36" class="edge"><title>r4_intermediate_p&#45;&gt;Ep</title>
<path fill="none" stroke="black" d="M251.046,-54.9935C252.081,-54.848 270.231,-52.2957 286.931,-49.9472"/>
<polygon fill="black" stroke="black" points="287.56,-53.3932 296.975,-48.5347 286.585,-46.4614 287.56,-53.3932"/>
</g>
</g>
</svg>
