<?xml version="1.0" encoding="UTF-8" standalone="no"?>
<!DOCTYPE svg PUBLIC "-//W3C//DTD SVG 1.1//EN"
 "http://www.w3.org/Graphics/SVG/1.1/DTD/svg11.dtd">
<!-- Generated by graphviz version 2.24.0 (20090616.2323)
 -->
<!-- Title: G Pages: 1 -->
<svg width="492pt" height="175pt"
 viewBox="0.00 0.00 492.00 175.00" xmlns="http://www.w3.org/2000/svg" xmlns:xlink="http://www.w3.org/1999/xlink">
<g id="graph1" class="graph" transform="scale(1 1) rotate(0) translate(4 171)">
<title>G</title>
<polygon fill="white" stroke="white" points="-4,5 -4,-171 489,-171 489,5 -4,5"/>
<!-- a -->
<g id="node1" class="node"><title>a</title>
<ellipse fill="none" stroke="black" cx="108" cy="-140" rx="18" ry="18"/>
<text text-anchor="middle" x="108" y="-137.5" font-family="Times Roman,serif" font-size="10.00">a</text>
</g>
<!-- Loss_of_intracellular_choline_intermediate_r -->
<g id="node5" class="node"><title>Loss_of_intracellular_choline_intermediate_r</title>
<ellipse fill="black" stroke="black" cx="163" cy="-117" rx="0.036" ry="0.036"/>
</g>
<!-- a&#45;&gt;Loss_of_intracellular_choline_intermediate_r -->
<g id="edge4" class="edge"><title>a&#45;&gt;Loss_of_intracellular_choline_intermediate_r</title>
<path fill="none" stroke="black" d="M124.801,-132.974C140.47,-126.422 161.629,-117.573 162.936,-117.027"/>
</g>
<!-- Loss_of_intracellular_choline_intermediate_m -->
<g id="node10" class="node"><title>Loss_of_intracellular_choline_intermediate_m</title>
<ellipse fill="black" stroke="black" cx="317" cy="-67" rx="0.036" ry="0.036"/>
</g>
<!-- a&#45;&gt;Loss_of_intracellular_choline_intermediate_m -->
<g id="edge12" class="edge"><title>a&#45;&gt;Loss_of_intracellular_choline_intermediate_m</title>
<path fill="none" stroke="black" d="M123.045,-129.678C133.585,-122.804 148.198,-113.972 162,-108 226.377,-80.145 314.206,-67.4008 316.935,-67.0093"/>
</g>
<!-- Effect_of_extracellular_ACh_intermediate_m -->
<g id="node27" class="node"><title>Effect_of_extracellular_ACh_intermediate_m</title>
<ellipse fill="black" stroke="black" cx="457" cy="-158" rx="0.036" ry="0.036"/>
</g>
<!-- a&#45;&gt;Effect_of_extracellular_ACh_intermediate_m -->
<g id="edge30" class="edge"><title>a&#45;&gt;Effect_of_extracellular_ACh_intermediate_m</title>
<path fill="none" stroke="black" d="M126.016,-138.227C149.215,-140.78 190.852,-149 227,-149 227,-149 227,-149 317,-149 378.25,-149 454.573,-149 456.943,-157.585"/>
</g>
<!-- a&#45;&gt;Effect_of_extracellular_ACh_intermediate_m -->
<g id="edge32" class="edge"><title>a&#45;&gt;Effect_of_extracellular_ACh_intermediate_m</title>
<path fill="none" stroke="black" d="M123.292,-149.689C145.837,-158.101 189.389,-167 227,-167 227,-167 227,-167 317,-167 378.25,-167 454.573,-167 456.943,-158.415"/>
</g>
<!-- b -->
<g id="node2" class="node"><title>b</title>
<polyline fill="none" stroke="black" points="242,-50 212,-50 "/>
<path fill="none" stroke="black" d="M212,-50C206,-50 200,-44 200,-38"/>
<polyline fill="none" stroke="black" points="200,-38 200,-26 "/>
<path fill="none" stroke="black" d="M200,-26C200,-20 206,-14 212,-14"/>
<polyline fill="none" stroke="black" points="212,-14 242,-14 "/>
<path fill="none" stroke="black" d="M242,-14C248,-14 254,-20 254,-26"/>
<polyline fill="none" stroke="black" points="254,-26 254,-38 "/>
<path fill="none" stroke="black" d="M254,-38C254,-44 248,-50 242,-50"/>
<text text-anchor="middle" x="227" y="-29.5" font-family="Times Roman,serif" font-size="10.00">b</text>
</g>
<!-- b&#45;&gt;Loss_of_intracellular_choline_intermediate_m -->
<g id="edge10" class="edge"><title>b&#45;&gt;Loss_of_intracellular_choline_intermediate_m</title>
<path fill="none" stroke="black" d="M254.125,-35.3363C265.183,-39.3134 278.136,-44.5806 290,-49 301.668,-53.3464 316.527,-57.8568 316.989,-66.5813"/>
</g>
<!-- b&#45;&gt;Loss_of_intracellular_choline_intermediate_m -->
<g id="edge14" class="edge"><title>b&#45;&gt;Loss_of_intracellular_choline_intermediate_m</title>
<path fill="none" stroke="black" d="M250.184,-50.0937C262.02,-56.021 276.694,-62.0436 290,-67 301.668,-71.3464 316.527,-75.8568 316.989,-67.412"/>
</g>
<!-- Effect_of_extracellular_ACh_intermediate_r -->
<g id="node22" class="node"><title>Effect_of_extracellular_ACh_intermediate_r</title>
<ellipse fill="black" stroke="black" cx="317" cy="-49" rx="0.036" ry="0.036"/>
</g>
<!-- b&#45;&gt;Effect_of_extracellular_ACh_intermediate_r -->
<g id="edge24" class="edge"><title>b&#45;&gt;Effect_of_extracellular_ACh_intermediate_r</title>
<path fill="none" stroke="black" d="M254.003,-37.1006C279.685,-41.9515 314.729,-48.5711 316.895,-48.9801"/>
</g>
<!-- Decrease_in_the_extracellular_concentration_of_beta_amyloid_intermediate_r -->
<g id="node32" class="node"><title>Decrease_in_the_extracellular_concentration_of_beta_amyloid_intermediate_r</title>
<ellipse fill="black" stroke="black" cx="317" cy="-31" rx="0.036" ry="0.036"/>
</g>
<!-- b&#45;&gt;Decrease_in_the_extracellular_concentration_of_beta_amyloid_intermediate_r -->
<g id="edge36" class="edge"><title>b&#45;&gt;Decrease_in_the_extracellular_concentration_of_beta_amyloid_intermediate_r</title>
<path fill="none" stroke="black" d="M254.003,-31.7C279.685,-31.4146 314.729,-31.0252 316.895,-31.0012"/>
</g>
<!-- Decrease_in_the_extracellular_concentration_of_beta_amyloid_intermediate_m -->
<g id="node37" class="node"><title>Decrease_in_the_extracellular_concentration_of_beta_amyloid_intermediate_m</title>
<ellipse fill="black" stroke="black" cx="457" cy="-0" rx="0.036" ry="0.036"/>
</g>
<!-- b&#45;&gt;Decrease_in_the_extracellular_concentration_of_beta_amyloid_intermediate_m -->
<g id="edge42" class="edge"><title>b&#45;&gt;Decrease_in_the_extracellular_concentration_of_beta_amyloid_intermediate_m</title>
<path fill="none" stroke="black" d="M254.265,-27.5111C265.343,-25.7291 278.273,-23.7028 290,-22 362.929,-11.4102 454.101,-0.351197 456.932,-0.00818922"/>
</g>
<!-- aRel -->
<g id="node3" class="node"><title>aRel</title>
<ellipse fill="none" stroke="black" cx="27" cy="-86" rx="18" ry="18"/>
<text text-anchor="middle" x="27" y="-83.5" font-family="Times Roman,serif" font-size="10.00">aRel</text>
</g>
<!-- Loss_of_intracellular_choline -->
<g id="node4" class="node"><title>Loss_of_intracellular_choline</title>
<polygon fill="none" stroke="black" points="234,-120 220,-120 220,-106 234,-106 234,-120"/>
</g>
<!-- Loss_of_intracellular_choline_empty -->
<g id="node8" class="node"><title>Loss_of_intracellular_choline_empty</title>
<text text-anchor="middle" x="317" y="-98.5" font-family="Times Roman,serif" font-size="15.00" fill="blue">Ø</text>
</g>
<!-- Loss_of_intracellular_choline&#45;&gt;Loss_of_intracellular_choline_empty -->
<g id="edge6" class="edge"><title>Loss_of_intracellular_choline&#45;&gt;Loss_of_intracellular_choline_empty</title>
<path fill="none" stroke="black" d="M234.062,-112.215C243.877,-111.125 262.359,-109.071 279.389,-107.179"/>
<polygon fill="black" stroke="black" points="280.162,-110.615 289.715,-106.032 279.389,-103.658 280.162,-110.615"/>
</g>
<!-- Loss_of_intracellular_choline&#45;&gt;Loss_of_intracellular_choline_intermediate_m -->
<g id="edge8" class="edge"><title>Loss_of_intracellular_choline&#45;&gt;Loss_of_intracellular_choline_intermediate_m</title>
<path fill="none" stroke="black" d="M244.274,-101.523C256.645,-93.6383 273.897,-83.315 290,-76 301.157,-70.932 316.036,-67.237 316.955,-67.011"/>
<polygon fill="none" stroke="black" points="244.155,-101.6 241.315,-108.229 234.104,-108.157 236.944,-101.528 244.155,-101.6"/>
</g>
<!-- Loss_of_intracellular_choline_intermediate_r&#45;&gt;Loss_of_intracellular_choline -->
<g id="edge2" class="edge"><title>Loss_of_intracellular_choline_intermediate_r&#45;&gt;Loss_of_intracellular_choline</title>
<path fill="none" stroke="black" d="M163.046,-116.997C164.576,-116.902 203.51,-114.468 219.868,-113.446"/>
</g>
<!-- Abeta_formation_from_APP -->
<g id="node15" class="node"><title>Abeta_formation_from_APP</title>
<polygon fill="none" stroke="black" points="115,-39 101,-39 101,-25 115,-25 115,-39"/>
</g>
<!-- Abeta_formation_from_APP_intermediate_p -->
<g id="node18" class="node"><title>Abeta_formation_from_APP_intermediate_p</title>
<ellipse fill="black" stroke="black" cx="163" cy="-32" rx="0.036" ry="0.036"/>
</g>
<!-- Abeta_formation_from_APP&#45;&gt;Abeta_formation_from_APP_intermediate_p -->
<g id="edge18" class="edge"><title>Abeta_formation_from_APP&#45;&gt;Abeta_formation_from_APP_intermediate_p</title>
<path fill="none" stroke="black" d="M115.19,-32C129.633,-32 160.961,-32 162.905,-32"/>
</g>
<!-- Abeta_formation_from_APP_empty -->
<g id="node16" class="node"><title>Abeta_formation_from_APP_empty</title>
<text text-anchor="middle" x="27" y="-27.5" font-family="Times Roman,serif" font-size="15.00" fill="blue">Ø</text>
</g>
<!-- Abeta_formation_from_APP_empty&#45;&gt;Abeta_formation_from_APP -->
<g id="edge16" class="edge"><title>Abeta_formation_from_APP_empty&#45;&gt;Abeta_formation_from_APP</title>
<path fill="none" stroke="black" d="M54.4229,-32C70.7619,-32 90.2818,-32 100.66,-32"/>
</g>
<!-- Abeta_formation_from_APP_intermediate_p&#45;&gt;b -->
<g id="edge20" class="edge"><title>Abeta_formation_from_APP_intermediate_p&#45;&gt;b</title>
<path fill="none" stroke="black" d="M163.046,-32C163.885,-32 175.971,-32 189.414,-32"/>
<polygon fill="black" stroke="black" points="189.794,-35.5001 199.794,-32 189.794,-28.5001 189.794,-35.5001"/>
</g>
<!-- Effect_of_extracellular_ACh -->
<g id="node21" class="node"><title>Effect_of_extracellular_ACh</title>
<polygon fill="none" stroke="black" points="394,-109 380,-109 380,-95 394,-95 394,-109"/>
</g>
<!-- Effect_of_extracellular_ACh_empty -->
<g id="node25" class="node"><title>Effect_of_extracellular_ACh_empty</title>
<text text-anchor="middle" x="457" y="-97.5" font-family="Times Roman,serif" font-size="15.00" fill="blue">Ø</text>
</g>
<!-- Effect_of_extracellular_ACh&#45;&gt;Effect_of_extracellular_ACh_empty -->
<g id="edge26" class="edge"><title>Effect_of_extracellular_ACh&#45;&gt;Effect_of_extracellular_ACh_empty</title>
<path fill="none" stroke="black" d="M394.228,-102C400.45,-102 409.94,-102 419.672,-102"/>
<polygon fill="black" stroke="black" points="419.773,-105.5 429.773,-102 419.773,-98.5001 419.773,-105.5"/>
</g>
<!-- Effect_of_extracellular_ACh&#45;&gt;Effect_of_extracellular_ACh_intermediate_m -->
<g id="edge28" class="edge"><title>Effect_of_extracellular_ACh&#45;&gt;Effect_of_extracellular_ACh_intermediate_m</title>
<path fill="none" stroke="black" d="M403.679,-115.344C423.625,-131.3 454.625,-156.1 456.871,-157.897"/>
<polygon fill="none" stroke="black" points="403.598,-115.278 396.414,-114.654 394.228,-107.782 401.412,-108.407 403.598,-115.278"/>
</g>
<!-- Effect_of_extracellular_ACh_intermediate_r&#45;&gt;Effect_of_extracellular_ACh -->
<g id="edge22" class="edge"><title>Effect_of_extracellular_ACh_intermediate_r&#45;&gt;Effect_of_extracellular_ACh</title>
<path fill="none" stroke="black" d="M317.047,-49.0068C318.012,-49.1473 333.613,-51.498 344,-58 359.934,-67.9747 374.283,-85.0311 381.695,-94.7172"/>
</g>
<!-- Decrease_in_the_extracellular_concentration_of_beta_amyloid -->
<g id="node31" class="node"><title>Decrease_in_the_extracellular_concentration_of_beta_amyloid</title>
<polygon fill="none" stroke="black" points="394,-42 380,-42 380,-28 394,-28 394,-42"/>
</g>
<!-- Decrease_in_the_extracellular_concentration_of_beta_amyloid_empty -->
<g id="node35" class="node"><title>Decrease_in_the_extracellular_concentration_of_beta_amyloid_empty</title>
<text text-anchor="middle" x="457" y="-31.5" font-family="Times Roman,serif" font-size="15.00" fill="blue">Ø</text>
</g>
<!-- Decrease_in_the_extracellular_concentration_of_beta_amyloid&#45;&gt;Decrease_in_the_extracellular_concentration_of_beta_amyloid_empty -->
<g id="edge38" class="edge"><title>Decrease_in_the_extracellular_concentration_of_beta_amyloid&#45;&gt;Decrease_in_the_extracellular_concentration_of_beta_amyloid_empty</title>
<path fill="none" stroke="black" d="M394.228,-35.1033C400.45,-35.1921 409.94,-35.3277 419.672,-35.4667"/>
<polygon fill="black" stroke="black" points="419.724,-38.9678 429.773,-35.611 419.824,-31.9685 419.724,-38.9678"/>
</g>
<!-- Decrease_in_the_extracellular_concentration_of_beta_amyloid&#45;&gt;Decrease_in_the_extracellular_concentration_of_beta_amyloid_intermediate_m -->
<g id="edge40" class="edge"><title>Decrease_in_the_extracellular_concentration_of_beta_amyloid&#45;&gt;Decrease_in_the_extracellular_concentration_of_beta_amyloid_intermediate_m</title>
<path fill="none" stroke="black" d="M404.181,-23.4078C411.864,-18.5438 421.165,-13.0819 430,-9 441.124,-3.86067 456.034,-0.232503 456.955,-0.0107612"/>
<polygon fill="none" stroke="black" points="404.063,-23.4855 401.244,-30.1231 394.034,-30.0744 396.852,-23.4368 404.063,-23.4855"/>
</g>
<!-- Decrease_in_the_extracellular_concentration_of_beta_amyloid_intermediate_r&#45;&gt;Decrease_in_the_extracellular_concentration_of_beta_amyloid -->
<g id="edge34" class="edge"><title>Decrease_in_the_extracellular_concentration_of_beta_amyloid_intermediate_r&#45;&gt;Decrease_in_the_extracellular_concentration_of_beta_amyloid</title>
<path fill="none" stroke="black" d="M317.051,-31.0029C318.748,-31.0999 362.582,-33.6047 379.98,-34.5988"/>
</g>
</g>
</svg>
