<?xml version="1.0" encoding="utf-8"?>
<!-- Generator: Adobe Illustrator 14.0.0, SVG Export Plug-In . SVG Version: 6.00 Build 43363)  -->
<!DOCTYPE svg PUBLIC "-//W3C//DTD SVG 1.1//EN" "http://www.w3.org/Graphics/SVG/1.1/DTD/svg11.dtd">
<svg version="1.1" id="Layer_1" xmlns="http://www.w3.org/2000/svg" xmlns:xlink="http://www.w3.org/1999/xlink" x="0px" y="0px"
	 width="438.634px" height="254.987px" viewBox="0 0 438.634 254.987" enable-background="new 0 0 438.634 254.987"
	 xml:space="preserve">
<line fill="none" stroke="#010101" x1="214.056" y1="146.916" x2="214.056" y2="221.666"/>
<g>
	<line fill="none" stroke="#000000" x1="277.682" y1="65.917" x2="298.245" y2="65.917"/>
	<line fill="none" stroke="#000000" x1="298.245" y1="65.917" x2="306.154" y2="52.027"/>
	<line fill="none" stroke="#000000" x1="306.154" y1="52.027" x2="320.391" y2="88.139"/>
	<line fill="none" stroke="#000000" x1="334.626" y1="51.75" x2="320.391" y2="87.861"/>
	<g>
		<g>
			<line fill="none" stroke="#000000" x1="391.57" y1="66.056" x2="371.008" y2="66.056"/>
			<circle cx="391.57" cy="66.056" r="3.759"/>
		</g>
	</g>
	<line fill="none" stroke="#000000" x1="371.008" y1="66.056" x2="363.099" y2="52.166"/>
	<line fill="none" stroke="#000000" x1="363.099" y1="52.166" x2="348.862" y2="88.277"/>
	<line fill="none" stroke="#000000" x1="334.626" y1="51.889" x2="348.862" y2="88"/>
</g>
<g>
	<line fill="none" stroke="#000000" x1="156.043" y1="65.917" x2="135.479" y2="65.917"/>
	<line fill="none" stroke="#000000" x1="135.479" y1="65.917" x2="127.57" y2="52.027"/>
	<line fill="none" stroke="#000000" x1="127.57" y1="52.027" x2="113.334" y2="88.139"/>
	<line fill="none" stroke="#000000" x1="99.099" y1="51.75" x2="113.334" y2="87.861"/>
	<g>
		<g>
			<line fill="none" stroke="#000000" x1="42.154" y1="66.056" x2="62.717" y2="66.056"/>
			<circle cx="42.154" cy="66.056" r="3.76"/>
		</g>
	</g>
	<line fill="none" stroke="#000000" x1="62.717" y1="66.056" x2="70.626" y2="52.166"/>
	<line fill="none" stroke="#000000" x1="70.626" y1="52.166" x2="84.862" y2="88.277"/>
	<line fill="none" stroke="#000000" x1="99.099" y1="51.889" x2="84.862" y2="88"/>
</g>
<line fill="none" stroke="#000000" x1="155.118" y1="66.014" x2="280.917" y2="66.014"/>
<g>
	<g>
		<line fill="none" stroke="#000000" x1="214.056" y1="65.917" x2="214.056" y2="128.416"/>
		<circle cx="214.056" cy="65.917" r="3.76"/>
	</g>
</g>
<line fill="none" stroke="#000000" x1="155.118" y1="128.416" x2="280.917" y2="128.416"/>
<line fill="none" stroke="#000000" x1="155.118" y1="146.916" x2="280.917" y2="146.916"/>
<path id="path21243" fill="#FFFFFF" stroke="#010101" d="M214.057,159.016c9.85,0,17.834,7.987,17.834,17.835
	c0,9.853-7.984,17.835-17.834,17.835c-9.852,0-17.836-7.982-17.836-17.835C196.223,167.003,204.205,159.016,214.057,159.016z"/>
<g>
	<g>
		<g>
			<path fill="none" stroke="#010101" d="M232.76,159.146l-37.487,37.486"/>
			<polygon fill="#010101" points="233.393,163.751 231.886,160.021 228.154,158.514 236.98,154.926 			"/>
		</g>
	</g>
</g>
<g>
	<line fill="none" stroke="#010101" x1="188.326" y1="221.666" x2="239.706" y2="221.666"/>
	<line fill="none" stroke="#010101" x1="199.467" y1="229.166" x2="228.565" y2="229.166"/>
	<line fill="none" stroke="#010101" x1="206.016" y1="236.666" x2="222.016" y2="236.666"/>
	<line fill="none" stroke="#010101" x1="211.516" y1="244.166" x2="216.516" y2="244.166"/>
</g>
<g>
	<g>
		<line fill="none" stroke="#010101" x1="298.245" y1="196.633" x2="298.245" y2="108.209"/>
		<polygon fill="#010101" points="294.542,193.824 298.245,195.397 301.949,193.824 298.245,202.603 		"/>
	</g>
</g>
<g>
	<g>
		<line fill="none" stroke="#010101" x1="356.731" y1="29.791" x2="312.52" y2="29.791"/>
		<polygon fill="#010101" points="353.923,33.494 355.495,29.791 353.923,26.087 362.7,29.791 		"/>
	</g>
</g>
<g>
	<g>
		<line fill="none" stroke="#010101" x1="121.205" y1="29.791" x2="76.993" y2="29.791"/>
		<polygon fill="#010101" points="118.396,33.494 119.969,29.791 118.396,26.087 127.174,29.791 		"/>
	</g>
</g>
<g>
	<path d="M103.932,17.267h-0.024c-0.324,0.563-0.959,1.02-1.895,1.02c-1.355,0-2.459-1.163-2.459-2.927
		c0-2.183,1.403-3.13,2.627-3.13c0.899,0,1.499,0.443,1.787,0.995h0.024l0.036-0.875h0.996c-0.024,0.479-0.048,0.995-0.048,1.595
		v6.585h-1.043V17.267z M103.932,14.7c0-0.144-0.012-0.3-0.048-0.432c-0.167-0.647-0.719-1.199-1.511-1.199
		c-1.092,0-1.751,0.923-1.751,2.219c0,1.163,0.552,2.158,1.715,2.158c0.684,0,1.271-0.419,1.511-1.139
		c0.048-0.156,0.084-0.36,0.084-0.516V14.7z"/>
	<path d="M107.839,17.375h-0.017l-0.95,0.513l-0.143-0.563l1.194-0.639h0.63v5.465h-0.714V17.375z"/>
</g>
<g>
	<path d="M339.46,17.267h-0.024c-0.324,0.563-0.96,1.02-1.896,1.02c-1.355,0-2.459-1.163-2.459-2.927c0-2.183,1.404-3.13,2.627-3.13
		c0.9,0,1.5,0.443,1.787,0.995h0.024l0.036-0.875h0.995c-0.024,0.479-0.048,0.995-0.048,1.595v6.585h-1.043V17.267z M339.46,14.7
		c0-0.144-0.013-0.3-0.049-0.432c-0.168-0.647-0.719-1.199-1.511-1.199c-1.092,0-1.751,0.923-1.751,2.219
		c0,1.163,0.551,2.158,1.715,2.158c0.684,0,1.271-0.419,1.512-1.139c0.047-0.156,0.084-0.36,0.084-0.516V14.7z"/>
	<path d="M341.761,22.15v-0.454l0.58-0.563c1.395-1.328,2.034-2.034,2.034-2.858c0-0.555-0.261-1.067-1.076-1.067
		c-0.496,0-0.908,0.252-1.16,0.462l-0.235-0.521c0.369-0.311,0.916-0.555,1.539-0.555c1.176,0,1.672,0.808,1.672,1.589
		c0,1.01-0.73,1.825-1.883,2.935l-0.429,0.403v0.018h2.446v0.613H341.761z"/>
</g>
<g>
	<path d="M100.01,106.438c0.528-0.096,1.295-0.168,2.003-0.168c1.115,0,1.847,0.216,2.338,0.659c0.396,0.36,0.636,0.912,0.636,1.548
		c0,1.056-0.671,1.763-1.511,2.051v0.036c0.612,0.216,0.983,0.791,1.175,1.631c0.264,1.127,0.456,1.907,0.624,2.219h-1.08
		c-0.132-0.24-0.312-0.924-0.528-1.931c-0.24-1.115-0.684-1.535-1.631-1.571h-0.983v3.502h-1.043V106.438z M101.054,110.12h1.067
		c1.115,0,1.823-0.611,1.823-1.535c0-1.043-0.755-1.499-1.859-1.499c-0.504,0-0.852,0.036-1.031,0.084V110.12z"/>
	<path d="M106.194,118.41v-5.667h0.807l1.808,2.867c0.412,0.664,0.748,1.261,1.009,1.842l0.025-0.009
		c-0.067-0.757-0.084-1.446-0.084-2.329v-2.371h0.689v5.667h-0.74l-1.799-2.875c-0.395-0.631-0.773-1.278-1.051-1.893l-0.025,0.009
		c0.042,0.715,0.051,1.396,0.051,2.337v2.422H106.194z"/>
</g>
<g>
	<path d="M335.538,106.438c0.527-0.096,1.295-0.168,2.002-0.168c1.115,0,1.848,0.216,2.339,0.659
		c0.396,0.36,0.636,0.912,0.636,1.548c0,1.056-0.672,1.763-1.512,2.051v0.036c0.612,0.216,0.984,0.791,1.176,1.631
		c0.264,1.127,0.456,1.907,0.624,2.219h-1.079c-0.133-0.24-0.312-0.924-0.528-1.931c-0.239-1.115-0.684-1.535-1.631-1.571h-0.983
		v3.502h-1.043V106.438z M336.581,110.12h1.067c1.115,0,1.823-0.611,1.823-1.535c0-1.043-0.756-1.499-1.859-1.499
		c-0.504,0-0.852,0.036-1.031,0.084V110.12z"/>
	<path d="M341.722,118.41v-5.667h0.807l1.808,2.867c0.411,0.664,0.748,1.261,1.009,1.842l0.025-0.009
		c-0.067-0.757-0.084-1.446-0.084-2.329v-2.371h0.689v5.667h-0.74l-1.799-2.875c-0.396-0.631-0.773-1.278-1.051-1.893l-0.025,0.009
		c0.041,0.715,0.051,1.396,0.051,2.337v2.422H341.722z"/>
	<path d="M349.384,113.938v1.976h1.9v0.505h-1.9v1.992h-0.539v-1.992h-1.899v-0.505h1.899v-1.976H349.384z"/>
	<path d="M353.6,113.635h-0.017l-0.951,0.513l-0.143-0.563l1.194-0.639h0.63v5.465H353.6V113.635z"/>
</g>
<g>
	<path d="M210.467,45.429c0.504-0.084,1.164-0.156,2.003-0.156c1.032,0,1.787,0.24,2.268,0.672c0.432,0.384,0.707,0.972,0.707,1.69
		c0,0.732-0.216,1.308-0.624,1.728c-0.563,0.588-1.451,0.888-2.47,0.888c-0.312,0-0.601-0.013-0.84-0.072v3.238h-1.044V45.429z
		 M211.511,49.326c0.228,0.061,0.516,0.084,0.863,0.084c1.26,0,2.027-0.624,2.027-1.715c0-1.079-0.768-1.596-1.907-1.596
		c-0.456,0-0.804,0.036-0.983,0.084V49.326z"/>
	<path d="M216.578,57.412v-5.667h0.808l1.808,2.867c0.412,0.664,0.748,1.261,1.009,1.842l0.025-0.009
		c-0.067-0.757-0.084-1.446-0.084-2.329v-2.371h0.689v5.667h-0.74l-1.799-2.875c-0.396-0.631-0.773-1.278-1.052-1.893l-0.024,0.009
		c0.042,0.715,0.05,1.396,0.05,2.337v2.422H216.578z"/>
</g>
<g>
	<path d="M142.028,140.164c-0.372,0.192-1.151,0.384-2.135,0.384c-2.279,0-3.982-1.439-3.982-4.102c0-2.543,1.715-4.246,4.222-4.246
		c0.996,0,1.643,0.216,1.919,0.36l-0.264,0.852c-0.384-0.192-0.948-0.336-1.619-0.336c-1.895,0-3.154,1.211-3.154,3.334
		c0,1.991,1.139,3.25,3.094,3.25c0.648,0,1.295-0.132,1.715-0.336L142.028,140.164z"/>
	<path d="M143.079,144.412v-5.667h0.807l1.808,2.867c0.412,0.664,0.748,1.261,1.009,1.842l0.025-0.009
		c-0.067-0.757-0.084-1.446-0.084-2.329v-2.371h0.689v5.667h-0.74l-1.799-2.875c-0.395-0.631-0.773-1.278-1.051-1.893l-0.025,0.009
		c0.042,0.715,0.051,1.396,0.051,2.337v2.422H143.079z"/>
</g>
<g>
	<path d="M312.46,139.528h-0.024c-0.324,0.563-0.96,1.02-1.896,1.02c-1.355,0-2.459-1.163-2.459-2.927
		c0-2.183,1.404-3.13,2.627-3.13c0.9,0,1.5,0.443,1.787,0.995h0.024l0.036-0.875h0.995c-0.024,0.479-0.048,0.995-0.048,1.595v6.585
		h-1.043V139.528z M312.46,136.962c0-0.144-0.013-0.3-0.049-0.432c-0.168-0.647-0.719-1.199-1.511-1.199
		c-1.092,0-1.751,0.923-1.751,2.219c0,1.163,0.551,2.158,1.715,2.158c0.684,0,1.271-0.419,1.512-1.139
		c0.047-0.156,0.084-0.36,0.084-0.516V136.962z"/>
	<path d="M314.937,143.571c0.211,0.126,0.689,0.336,1.211,0.336c0.941,0,1.244-0.597,1.236-1.059
		c-0.009-0.766-0.698-1.094-1.413-1.094h-0.411V141.2h0.411c0.538,0,1.22-0.277,1.22-0.925c0-0.438-0.277-0.824-0.959-0.824
		c-0.438,0-0.857,0.193-1.093,0.362l-0.202-0.538c0.295-0.211,0.85-0.421,1.438-0.421c1.076,0,1.564,0.64,1.564,1.304
		c0,0.571-0.345,1.051-1.01,1.295v0.017c0.674,0.126,1.211,0.63,1.22,1.396c0,0.874-0.689,1.64-1.993,1.64
		c-0.613,0-1.151-0.193-1.42-0.37L314.937,143.571z"/>
</g>
<g>
	<path d="M248.967,175.929c0.504-0.084,1.164-0.156,2.003-0.156c1.032,0,1.787,0.24,2.268,0.672c0.432,0.384,0.707,0.972,0.707,1.69
		c0,0.732-0.216,1.308-0.624,1.728c-0.563,0.588-1.451,0.888-2.47,0.888c-0.312,0-0.601-0.013-0.84-0.072v3.238h-1.044V175.929z
		 M250.011,179.826c0.228,0.061,0.516,0.084,0.863,0.084c1.26,0,2.027-0.624,2.027-1.715c0-1.079-0.768-1.596-1.907-1.596
		c-0.456,0-0.804,0.036-0.983,0.084V179.826z"/>
	<path d="M255.078,182.329c0.319-0.075,0.833-0.126,1.337-0.126c0.731,0,1.202,0.126,1.547,0.412
		c0.295,0.219,0.479,0.555,0.479,1.001c0,0.555-0.37,1.034-0.958,1.244v0.025c0.538,0.126,1.168,0.571,1.168,1.412
		c0,0.487-0.193,0.866-0.487,1.135c-0.387,0.361-1.025,0.53-1.95,0.53c-0.505,0-0.892-0.034-1.136-0.067V182.329z M255.81,184.65
		h0.664c0.766,0,1.22-0.412,1.22-0.959c0-0.655-0.496-0.925-1.236-0.925c-0.336,0-0.529,0.025-0.647,0.051V184.65z M255.81,187.357
		c0.151,0.025,0.354,0.033,0.614,0.033c0.757,0,1.454-0.277,1.454-1.102c0-0.765-0.664-1.093-1.463-1.093h-0.605V187.357z"/>
	<path d="M260.362,182.245v5.667h-0.739v-5.667H260.362z"/>
	<path d="M262.556,186.13l-0.589,1.782h-0.757l1.934-5.667h0.875l1.934,5.667h-0.782l-0.605-1.782H262.556z M264.422,185.558
		l-0.563-1.631c-0.126-0.37-0.21-0.706-0.294-1.034h-0.017c-0.084,0.328-0.169,0.682-0.286,1.026l-0.555,1.639H264.422z"/>
	<path d="M266.688,187.021c0.327,0.211,0.798,0.37,1.303,0.37c0.748,0,1.186-0.395,1.186-0.967c0-0.521-0.303-0.832-1.067-1.118
		c-0.925-0.336-1.497-0.824-1.497-1.614c0-0.883,0.731-1.538,1.833-1.538c0.571,0,1,0.134,1.244,0.277l-0.201,0.597
		c-0.177-0.109-0.556-0.27-1.068-0.27c-0.773,0-1.067,0.463-1.067,0.85c0,0.529,0.345,0.79,1.126,1.093
		c0.959,0.37,1.438,0.833,1.438,1.665c0,0.874-0.64,1.64-1.977,1.64c-0.546,0-1.143-0.168-1.445-0.37L266.688,187.021z"/>
</g>
<g>
	<path d="M7.467,58.068c0.503-0.084,1.163-0.156,2.003-0.156c1.031,0,1.787,0.24,2.267,0.672c0.432,0.384,0.708,0.972,0.708,1.69
		c0,0.732-0.216,1.308-0.624,1.728C11.257,62.59,10.37,62.89,9.35,62.89c-0.312,0-0.6-0.013-0.839-0.072v3.238H7.467V58.068z
		 M8.511,61.966c0.228,0.061,0.516,0.084,0.863,0.084c1.259,0,2.027-0.624,2.027-1.715c0-1.079-0.768-1.596-1.907-1.596
		c-0.456,0-0.804,0.036-0.983,0.084V61.966z"/>
	<path d="M13.579,70.052v-5.667h0.807l1.808,2.867c0.412,0.664,0.748,1.261,1.009,1.842l0.025-0.009
		c-0.067-0.757-0.084-1.446-0.084-2.329v-2.371h0.689v5.667h-0.74l-1.799-2.875c-0.395-0.631-0.773-1.278-1.051-1.893l-0.025,0.009
		c0.042,0.715,0.051,1.396,0.051,2.337v2.422H13.579z"/>
	<path d="M20.796,67.513v0.538h-2.077v-0.538H20.796z"/>
	<path d="M23.03,65.276h-0.017l-0.95,0.513l-0.143-0.563l1.194-0.639h0.63v5.465H23.03V65.276z"/>
</g>
<g>
	<path d="M409.468,58.068c0.503-0.084,1.162-0.156,2.002-0.156c1.031,0,1.787,0.24,2.268,0.672c0.432,0.384,0.707,0.972,0.707,1.69
		c0,0.732-0.216,1.308-0.623,1.728c-0.564,0.588-1.451,0.888-2.471,0.888c-0.312,0-0.6-0.013-0.84-0.072v3.238h-1.043V58.068z
		 M410.511,61.966c0.228,0.061,0.516,0.084,0.863,0.084c1.26,0,2.027-0.624,2.027-1.715c0-1.079-0.768-1.596-1.907-1.596
		c-0.456,0-0.804,0.036-0.983,0.084V61.966z"/>
	<path d="M415.579,70.052v-5.667h0.807l1.808,2.867c0.411,0.664,0.748,1.261,1.009,1.842l0.025-0.009
		c-0.067-0.757-0.084-1.446-0.084-2.329v-2.371h0.689v5.667h-0.74l-1.799-2.875c-0.396-0.631-0.773-1.278-1.051-1.893l-0.025,0.009
		c0.041,0.715,0.051,1.396,0.051,2.337v2.422H415.579z"/>
	<path d="M423.241,65.579v1.976h1.9v0.505h-1.9v1.992h-0.538V68.06h-1.899v-0.505h1.899v-1.976H423.241z"/>
	<path d="M427.458,65.276h-0.018l-0.95,0.513l-0.143-0.563l1.194-0.639h0.63v5.465h-0.714V65.276z"/>
</g>
</svg>
