<?xml version="1.0" encoding="utf-8"?>
<!-- Generator: Adobe Illustrator 13.0.0, SVG Export Plug-In . SVG Version: 6.00 Build 14948)  -->
<!DOCTYPE svg PUBLIC "-//W3C//DTD SVG 1.1//EN" "http://www.w3.org/Graphics/SVG/1.1/DTD/svg11.dtd">
<svg version="1.1" id="Layer_1" xmlns="http://www.w3.org/2000/svg" xmlns:xlink="http://www.w3.org/1999/xlink" x="0px" y="0px"
	 width="470.804px" height="162.408px" viewBox="0 0 470.804 162.408" enable-background="new 0 0 470.804 162.408"
	 xml:space="preserve">
<g>
	<g id="g59398" transform="translate(21.16987,-31.23187)">
		<g id="g7045">
			<g id="g7047">
				<path id="path7049" fill="#BFDDFF" stroke="#0092DF" d="M154.679,160.088c0-1.287-1.045-2.332-2.333-2.332
					s-2.333,1.045-2.333,2.332c0,1.289,1.045,2.334,2.333,2.334S154.679,161.377,154.679,160.088z"/>
				<path id="path7051" fill="none" stroke="#0092DF" d="M152.346,157.756v-16.335"/>
			</g>
			<g id="g7053">
				<path id="path7055" fill="#BFDDFF" stroke="#0092DF" d="M149.329,160.088c0-1.287-1.045-2.332-2.333-2.332
					s-2.333,1.045-2.333,2.332c0,1.289,1.045,2.334,2.333,2.334S149.329,161.377,149.329,160.088z"/>
				<path id="path7057" fill="none" stroke="#0092DF" d="M146.996,157.756v-16.335"/>
			</g>
			<g id="g7059">
				<path id="path7061" fill="#BFDDFF" stroke="#0092DF" d="M143.98,160.088c0-1.287-1.045-2.332-2.334-2.332
					c-1.287,0-2.332,1.045-2.332,2.332c0,1.289,1.045,2.334,2.332,2.334C142.935,162.422,143.98,161.377,143.98,160.088z"/>
				<path id="path7063" fill="none" stroke="#0092DF" d="M141.646,157.756v-16.335"/>
			</g>
			<g id="g7065">
				<path id="path7067" fill="#BFDDFF" stroke="#0092DF" d="M170.732,160.088c0-1.287-1.045-2.332-2.334-2.332
					c-1.287,0-2.332,1.045-2.332,2.332c0,1.289,1.045,2.334,2.332,2.334C169.687,162.422,170.732,161.377,170.732,160.088z"/>
				<path id="path7069" fill="none" stroke="#0092DF" d="M168.398,157.756v-16.335"/>
			</g>
			<g id="g7071">
				<path id="path7073" fill="#BFDDFF" stroke="#0092DF" d="M165.38,160.088c0-1.287-1.045-2.332-2.333-2.332
					s-2.333,1.045-2.333,2.332c0,1.289,1.045,2.334,2.333,2.334S165.38,161.377,165.38,160.088z"/>
				<path id="path7075" fill="none" stroke="#0092DF" d="M163.047,157.756v-16.335"/>
			</g>
			<g id="g7077">
				<path id="path7079" fill="#BFDDFF" stroke="#0092DF" d="M160.03,160.088c0-1.287-1.045-2.332-2.334-2.332
					c-1.287,0-2.332,1.045-2.332,2.332c0,1.289,1.045,2.334,2.332,2.334C158.985,162.422,160.03,161.377,160.03,160.088z"/>
				<path id="path7081" fill="none" stroke="#0092DF" d="M157.696,157.756v-16.335"/>
			</g>
			<g id="g7083">
				<path id="path7085" fill="#BFDDFF" stroke="#0092DF" d="M157.355,137.187c0,1.287-1.045,2.333-2.332,2.333
					c-1.289,0-2.334-1.046-2.334-2.333c0-1.288,1.045-2.333,2.334-2.333C156.31,134.854,157.355,135.9,157.355,137.187z"/>
				<path id="path7087" fill="none" stroke="#0092DF" d="M155.023,139.52v16.333"/>
			</g>
			<g id="g7089">
				<path id="path7091" fill="#BFDDFF" stroke="#0092DF" d="M152.004,137.187c0,1.287-1.045,2.333-2.333,2.333
					s-2.333-1.046-2.333-2.333c0-1.288,1.045-2.333,2.333-2.333S152.004,135.9,152.004,137.187z"/>
				<path id="path7093" fill="none" stroke="#0092DF" d="M149.671,139.52v16.333"/>
			</g>
			<g id="g7095">
				<path id="path7097" fill="#BFDDFF" stroke="#0092DF" d="M146.653,137.187c0,1.287-1.045,2.333-2.332,2.333
					c-1.289,0-2.334-1.046-2.334-2.333c0-1.288,1.045-2.333,2.334-2.333C145.608,134.854,146.653,135.9,146.653,137.187z"/>
				<path id="path7099" fill="none" stroke="#0092DF" d="M144.321,139.52v16.333"/>
			</g>
			<g id="g7101">
				<path id="path7103" fill="#BFDDFF" stroke="#0092DF" d="M173.405,137.187c0,1.287-1.045,2.333-2.332,2.333
					c-1.289,0-2.334-1.046-2.334-2.333c0-1.288,1.045-2.333,2.334-2.333C172.36,134.854,173.405,135.9,173.405,137.187z"/>
				<path id="path7105" fill="none" stroke="#0092DF" d="M171.073,139.52v16.333"/>
			</g>
			<g id="g7107">
				<path id="path7109" fill="#BFDDFF" stroke="#0092DF" d="M168.056,137.187c0,1.287-1.045,2.333-2.333,2.333
					s-2.333-1.046-2.333-2.333c0-1.288,1.045-2.333,2.333-2.333S168.056,135.9,168.056,137.187z"/>
				<path id="path7111" fill="none" stroke="#0092DF" d="M165.723,139.52v16.333"/>
			</g>
			<g id="g7113">
				<path id="path7115" fill="#BFDDFF" stroke="#0092DF" d="M162.705,137.187c0,1.287-1.046,2.333-2.333,2.333
					c-1.288,0-2.333-1.046-2.333-2.333c0-1.288,1.045-2.333,2.333-2.333C161.659,134.854,162.705,135.9,162.705,137.187z"/>
				<path id="path7117" fill="none" stroke="#0092DF" d="M160.372,139.52v16.333"/>
			</g>
		</g>
		<g id="g7119">
			<g id="g7121">
				<path id="path7123" fill="#BFDDFF" stroke="#0092DF" d="M122.683,160.088c0-1.287-1.045-2.332-2.332-2.332
					c-1.289,0-2.334,1.045-2.334,2.332c0,1.289,1.045,2.334,2.334,2.334C121.638,162.422,122.683,161.377,122.683,160.088z"/>
				<path id="path7125" fill="none" stroke="#0092DF" d="M120.351,157.756v-16.335"/>
			</g>
			<g id="g7127">
				<path id="path7129" fill="#BFDDFF" stroke="#0092DF" d="M117.333,160.088c0-1.287-1.045-2.332-2.333-2.332
					s-2.333,1.045-2.333,2.332c0,1.289,1.045,2.334,2.333,2.334C116.287,162.422,117.333,161.377,117.333,160.088z"/>
				<path id="path7131" fill="none" stroke="#0092DF" d="M115,157.756v-16.335"/>
			</g>
			<g id="g7133">
				<path id="path7135" fill="#BFDDFF" stroke="#0092DF" d="M111.982,160.088c0-1.287-1.045-2.332-2.332-2.332
					c-1.289,0-2.334,1.045-2.334,2.332c0,1.289,1.045,2.334,2.334,2.334C110.937,162.422,111.982,161.377,111.982,160.088z"/>
				<path id="path7137" fill="none" stroke="#0092DF" d="M109.649,157.756v-16.335"/>
			</g>
			<g id="g7139">
				<path id="path7141" fill="#BFDDFF" stroke="#0092DF" d="M138.733,160.088c0-1.287-1.045-2.332-2.332-2.332
					c-1.289,0-2.334,1.045-2.334,2.332c0,1.289,1.045,2.334,2.334,2.334C137.689,162.422,138.733,161.377,138.733,160.088z"/>
				<path id="path7143" fill="none" stroke="#0092DF" d="M136.401,157.756v-16.335"/>
			</g>
			<g id="g7145">
				<path id="path7147" fill="#BFDDFF" stroke="#0092DF" d="M133.384,160.088c0-1.287-1.045-2.332-2.333-2.332
					s-2.333,1.045-2.333,2.332c0,1.289,1.045,2.334,2.333,2.334S133.384,161.377,133.384,160.088z"/>
				<path id="path7149" fill="none" stroke="#0092DF" d="M131.051,157.756v-16.335"/>
			</g>
			<g id="g7151">
				<path id="path7153" fill="#BFDDFF" stroke="#0092DF" d="M128.032,160.088c0-1.287-1.045-2.332-2.332-2.332
					c-1.288,0-2.334,1.045-2.334,2.332c0,1.289,1.046,2.334,2.334,2.334C126.987,162.422,128.032,161.377,128.032,160.088z"/>
				<path id="path7155" fill="none" stroke="#0092DF" d="M125.7,157.756v-16.335"/>
			</g>
			<g id="g7157">
				<path id="path7159" fill="#BFDDFF" stroke="#0092DF" d="M125.358,137.187c0,1.287-1.045,2.333-2.334,2.333
					c-1.287,0-2.332-1.046-2.332-2.333c0-1.288,1.045-2.333,2.332-2.333C124.314,134.854,125.358,135.9,125.358,137.187z"/>
				<path id="path7161" fill="none" stroke="#0092DF" d="M123.024,139.52v16.333"/>
			</g>
			<g id="g7163">
				<path id="path7165" fill="#BFDDFF" stroke="#0092DF" d="M120.007,137.187c0,1.287-1.045,2.333-2.333,2.333
					s-2.333-1.046-2.333-2.333c0-1.288,1.045-2.333,2.333-2.333S120.007,135.9,120.007,137.187z"/>
				<path id="path7167" fill="none" stroke="#0092DF" d="M117.675,139.52v16.333"/>
			</g>
			<g id="g7169">
				<path id="path7171" fill="#BFDDFF" stroke="#0092DF" d="M114.657,137.187c0,1.287-1.045,2.333-2.334,2.333
					c-1.287,0-2.332-1.046-2.332-2.333c0-1.288,1.045-2.333,2.332-2.333C113.612,134.854,114.657,135.9,114.657,137.187z"/>
				<path id="path7173" fill="none" stroke="#0092DF" d="M112.323,139.52v16.333"/>
			</g>
			<g id="g7175">
				<path id="path7177" fill="#BFDDFF" stroke="#0092DF" d="M141.409,137.187c0,1.287-1.045,2.333-2.334,2.333
					c-1.287,0-2.332-1.046-2.332-2.333c0-1.288,1.045-2.333,2.332-2.333C140.364,134.854,141.409,135.9,141.409,137.187z"/>
				<path id="path7179" fill="none" stroke="#0092DF" d="M139.077,139.52v16.333"/>
			</g>
			<g id="g7181">
				<path id="path7183" fill="#BFDDFF" stroke="#0092DF" d="M136.06,137.187c0,1.287-1.046,2.333-2.334,2.333
					c-1.287,0-2.332-1.046-2.332-2.333c0-1.288,1.045-2.333,2.332-2.333C135.014,134.854,136.06,135.9,136.06,137.187z"/>
				<path id="path7185" fill="none" stroke="#0092DF" d="M133.726,139.52v16.333"/>
			</g>
			<g id="g7187">
				<path id="path7189" fill="#BFDDFF" stroke="#0092DF" d="M130.709,137.187c0,1.287-1.045,2.333-2.333,2.333
					s-2.333-1.046-2.333-2.333c0-1.288,1.045-2.333,2.333-2.333S130.709,135.9,130.709,137.187z"/>
				<path id="path7191" fill="none" stroke="#0092DF" d="M128.376,139.52v16.333"/>
			</g>
		</g>
		<g id="g7193">
			<g id="g7195">
				<path id="path7197" fill="#BFDDFF" stroke="#0092DF" d="M90.687,160.088c0-1.287-1.046-2.332-2.334-2.332
					c-1.287,0-2.332,1.045-2.332,2.332c0,1.289,1.045,2.334,2.332,2.334C89.641,162.422,90.687,161.377,90.687,160.088z"/>
				<path id="path7199" fill="none" stroke="#0092DF" d="M88.353,157.756v-16.335"/>
			</g>
			<g id="g7201">
				<path id="path7203" fill="#BFDDFF" stroke="#0092DF" d="M85.336,160.088c0-1.287-1.045-2.332-2.333-2.332
					s-2.333,1.045-2.333,2.332c0,1.289,1.045,2.334,2.333,2.334S85.336,161.377,85.336,160.088z"/>
				<path id="path7205" fill="none" stroke="#0092DF" d="M83.003,157.756v-16.335"/>
			</g>
			<g id="g7207">
				<path id="path7209" fill="#BFDDFF" stroke="#0092DF" d="M79.985,160.088c0-1.287-1.045-2.332-2.334-2.332
					c-1.288,0-2.333,1.045-2.333,2.332c0,1.289,1.045,2.334,2.333,2.334C78.94,162.422,79.985,161.377,79.985,160.088z"/>
				<path id="path7211" fill="none" stroke="#0092DF" d="M77.651,157.756v-16.335"/>
			</g>
			<g id="g7213">
				<path id="path7215" fill="#BFDDFF" stroke="#0092DF" d="M106.737,160.088c0-1.287-1.045-2.332-2.332-2.332
					c-1.289,0-2.334,1.045-2.334,2.332c0,1.289,1.045,2.334,2.334,2.334C105.692,162.422,106.737,161.377,106.737,160.088z"/>
				<path id="path7217" fill="none" stroke="#0092DF" d="M104.405,157.756v-16.335"/>
			</g>
			<g id="g7219">
				<path id="path7221" fill="#BFDDFF" stroke="#0092DF" d="M101.387,160.088c0-1.287-1.045-2.332-2.333-2.332
					s-2.333,1.045-2.333,2.332c0,1.289,1.045,2.334,2.333,2.334S101.387,161.377,101.387,160.088z"/>
				<path id="path7223" fill="none" stroke="#0092DF" d="M99.054,157.756v-16.335"/>
			</g>
			<g id="g7225">
				<path id="path7227" fill="#BFDDFF" stroke="#0092DF" d="M96.037,160.088c0-1.287-1.046-2.332-2.333-2.332
					c-1.288,0-2.333,1.045-2.333,2.332c0,1.289,1.045,2.334,2.333,2.334C94.991,162.422,96.037,161.377,96.037,160.088z"/>
				<path id="path7229" fill="none" stroke="#0092DF" d="M93.704,157.756v-16.335"/>
			</g>
			<g id="g7231">
				<path id="path7233" fill="#BFDDFF" stroke="#0092DF" d="M93.36,137.187c0,1.287-1.045,2.333-2.332,2.333
					c-1.289,0-2.334-1.046-2.334-2.333c0-1.288,1.045-2.333,2.334-2.333C92.315,134.854,93.36,135.9,93.36,137.187z"/>
				<path id="path7235" fill="none" stroke="#0092DF" d="M91.028,139.52v16.333"/>
			</g>
			<g id="g7237">
				<path id="path7239" fill="#BFDDFF" stroke="#0092DF" d="M88.011,137.187c0,1.287-1.045,2.333-2.333,2.333
					s-2.333-1.046-2.333-2.333c0-1.288,1.045-2.333,2.333-2.333S88.011,135.9,88.011,137.187z"/>
				<path id="path7241" fill="none" stroke="#0092DF" d="M85.678,139.52v16.333"/>
			</g>
			<g id="g7243">
				<path id="path7245" fill="#BFDDFF" stroke="#0092DF" d="M82.661,137.187c0,1.287-1.045,2.333-2.334,2.333
					c-1.287,0-2.332-1.046-2.332-2.333c0-1.288,1.045-2.333,2.332-2.333C81.616,134.854,82.661,135.9,82.661,137.187z"/>
				<path id="path7247" fill="none" stroke="#0092DF" d="M80.327,139.52v16.333"/>
			</g>
			<g id="g7249">
				<path id="path7251" fill="#BFDDFF" stroke="#0092DF" d="M109.413,137.187c0,1.287-1.045,2.333-2.333,2.333
					s-2.333-1.046-2.333-2.333c0-1.288,1.045-2.333,2.333-2.333S109.413,135.9,109.413,137.187z"/>
				<path id="path7253" fill="none" stroke="#0092DF" d="M107.08,139.52v16.333"/>
			</g>
			<g id="g7255">
				<path id="path7257" fill="#BFDDFF" stroke="#0092DF" d="M104.064,137.187c0,1.287-1.045,2.333-2.334,2.333
					c-1.287,0-2.332-1.046-2.332-2.333c0-1.288,1.045-2.333,2.332-2.333C103.019,134.854,104.064,135.9,104.064,137.187z"/>
				<path id="path7259" fill="none" stroke="#0092DF" d="M101.73,139.52v16.333"/>
			</g>
			<g id="g7261">
				<path id="path7263" fill="#BFDDFF" stroke="#0092DF" d="M98.712,137.187c0,1.287-1.045,2.333-2.333,2.333
					s-2.333-1.046-2.333-2.333c0-1.288,1.045-2.333,2.333-2.333S98.712,135.9,98.712,137.187z"/>
				<path id="path7265" fill="none" stroke="#0092DF" d="M96.379,139.52v16.333"/>
			</g>
		</g>
		<g id="g7267">
			<g id="g7269">
				<path id="path7271" fill="#BFDDFF" stroke="#0092DF" d="M58.69,160.088c0-1.287-1.045-2.332-2.333-2.332
					s-2.333,1.045-2.333,2.332c0,1.289,1.045,2.334,2.333,2.334S58.69,161.377,58.69,160.088z"/>
				<path id="path7273" fill="none" stroke="#0092DF" d="M56.357,157.756v-16.335"/>
			</g>
			<g id="g7275">
				<path id="path7277" fill="#BFDDFF" stroke="#0092DF" d="M53.339,160.088c0-1.287-1.045-2.332-2.333-2.332
					s-2.333,1.045-2.333,2.332c0,1.289,1.045,2.334,2.333,2.334S53.339,161.377,53.339,160.088z"/>
				<path id="path7279" fill="none" stroke="#0092DF" d="M51.006,157.756v-16.335"/>
			</g>
			<g id="g7281">
				<path id="path7283" fill="#BFDDFF" stroke="#0092DF" d="M47.989,160.088c0-1.287-1.045-2.332-2.333-2.332
					s-2.333,1.045-2.333,2.332c0,1.289,1.045,2.334,2.333,2.334S47.989,161.377,47.989,160.088z"/>
				<path id="path7285" fill="none" stroke="#0092DF" d="M45.656,157.756v-16.335"/>
			</g>
			<g id="g7287">
				<path id="path7289" fill="#BFDDFF" stroke="#0092DF" d="M74.741,160.088c0-1.287-1.045-2.332-2.333-2.332
					s-2.333,1.045-2.333,2.332c0,1.289,1.045,2.334,2.333,2.334S74.741,161.377,74.741,160.088z"/>
				<path id="path7291" fill="none" stroke="#0092DF" d="M72.408,157.756v-16.335"/>
			</g>
			<g id="g7293">
				<path id="path7295" fill="#BFDDFF" stroke="#0092DF" d="M69.391,160.088c0-1.287-1.045-2.332-2.333-2.332
					c-1.288,0-2.333,1.045-2.333,2.332c0,1.289,1.045,2.334,2.333,2.334C68.346,162.422,69.391,161.377,69.391,160.088z"/>
				<path id="path7297" fill="none" stroke="#0092DF" d="M67.058,157.756v-16.335"/>
			</g>
			<g id="g7299">
				<path id="path7301" fill="#BFDDFF" stroke="#0092DF" d="M64.04,160.088c0-1.287-1.045-2.332-2.333-2.332
					c-1.288,0-2.333,1.045-2.333,2.332c0,1.289,1.045,2.334,2.333,2.334C62.995,162.422,64.04,161.377,64.04,160.088z"/>
				<path id="path7303" fill="none" stroke="#0092DF" d="M61.707,157.756v-16.335"/>
			</g>
			<g id="g7305">
				<path id="path7307" fill="#BFDDFF" stroke="#0092DF" d="M61.365,137.187c0,1.287-1.045,2.333-2.333,2.333
					s-2.333-1.046-2.333-2.333c0-1.288,1.045-2.333,2.333-2.333S61.365,135.9,61.365,137.187z"/>
				<path id="path7309" fill="none" stroke="#0092DF" d="M59.032,139.52v16.333"/>
			</g>
			<g id="g7311">
				<path id="path7313" fill="#BFDDFF" stroke="#0092DF" d="M56.014,137.187c0,1.287-1.045,2.333-2.333,2.333
					c-1.288,0-2.333-1.046-2.333-2.333c0-1.288,1.045-2.333,2.333-2.333C54.969,134.854,56.014,135.9,56.014,137.187z"/>
				<path id="path7315" fill="none" stroke="#0092DF" d="M53.681,139.52v16.333"/>
			</g>
			<g id="g7317">
				<path id="path7319" fill="#BFDDFF" stroke="#0092DF" d="M50.664,137.187c0,1.287-1.045,2.333-2.333,2.333
					c-1.288,0-2.333-1.046-2.333-2.333c0-1.288,1.045-2.333,2.333-2.333C49.619,134.854,50.664,135.9,50.664,137.187z"/>
				<path id="path7321" fill="none" stroke="#0092DF" d="M48.331,139.52v16.333"/>
			</g>
			<g id="g7323">
				<path id="path7325" fill="#BFDDFF" stroke="#0092DF" d="M77.416,137.187c0,1.287-1.045,2.333-2.333,2.333
					s-2.333-1.046-2.333-2.333c0-1.288,1.045-2.333,2.333-2.333S77.416,135.9,77.416,137.187z"/>
				<path id="path7327" fill="none" stroke="#0092DF" d="M75.084,139.52v16.333"/>
			</g>
			<g id="g7329">
				<path id="path7331" fill="#BFDDFF" stroke="#0092DF" d="M72.066,137.187c0,1.287-1.045,2.333-2.333,2.333
					s-2.333-1.046-2.333-2.333c0-1.288,1.045-2.333,2.333-2.333S72.066,135.9,72.066,137.187z"/>
				<path id="path7333" fill="none" stroke="#0092DF" d="M69.733,139.52v16.333"/>
			</g>
			<g id="g7335">
				<path id="path7337" fill="#BFDDFF" stroke="#0092DF" d="M66.715,137.187c0,1.287-1.045,2.333-2.333,2.333
					s-2.333-1.046-2.333-2.333c0-1.288,1.045-2.333,2.333-2.333S66.715,135.9,66.715,137.187z"/>
				<path id="path7339" fill="none" stroke="#0092DF" d="M64.382,139.52v16.333"/>
			</g>
		</g>
		<g id="g7341">
			<g id="g7343">
				<path id="path7345" fill="#BFDDFF" stroke="#0092DF" d="M26.693,160.088c0-1.287-1.045-2.332-2.333-2.332
					s-2.333,1.045-2.333,2.332c0,1.289,1.045,2.334,2.333,2.334S26.693,161.377,26.693,160.088z"/>
				<path id="path7347" fill="none" stroke="#0092DF" d="M24.36,157.756v-16.335"/>
			</g>
			<g id="g7349">
				<path id="path7351" fill="#BFDDFF" stroke="#0092DF" d="M21.343,160.088c0-1.287-1.045-2.332-2.333-2.332
					s-2.333,1.045-2.333,2.332c0,1.289,1.045,2.334,2.333,2.334C20.297,162.422,21.343,161.377,21.343,160.088z"/>
				<path id="path7353" fill="none" stroke="#0092DF" d="M19.01,157.756v-16.335"/>
			</g>
			<g id="g7355">
				<path id="path7357" fill="#BFDDFF" stroke="#0092DF" d="M15.992,160.088c0-1.287-1.045-2.332-2.333-2.332
					c-1.288,0-2.333,1.045-2.333,2.332c0,1.289,1.045,2.334,2.333,2.334C14.947,162.422,15.992,161.377,15.992,160.088z"/>
				<path id="path7359" fill="none" stroke="#0092DF" d="M13.659,157.756v-16.335"/>
			</g>
			<g id="g7361">
				<path id="path7363" fill="#BFDDFF" stroke="#0092DF" d="M42.745,160.088c0-1.287-1.045-2.332-2.333-2.332
					c-1.288,0-2.333,1.045-2.333,2.332c0,1.289,1.045,2.334,2.333,2.334C41.7,162.422,42.745,161.377,42.745,160.088z"/>
				<path id="path7365" fill="none" stroke="#0092DF" d="M40.412,157.756v-16.335"/>
			</g>
			<g id="g7367">
				<path id="path7369" fill="#BFDDFF" stroke="#0092DF" d="M37.394,160.088c0-1.287-1.045-2.332-2.333-2.332
					c-1.288,0-2.333,1.045-2.333,2.332c0,1.289,1.045,2.334,2.333,2.334C36.349,162.422,37.394,161.377,37.394,160.088z"/>
				<path id="path7371" fill="none" stroke="#0092DF" d="M35.061,157.756v-16.335"/>
			</g>
			<g id="g7373">
				<path id="path7375" fill="#BFDDFF" stroke="#0092DF" d="M32.044,160.088c0-1.287-1.045-2.332-2.333-2.332
					s-2.333,1.045-2.333,2.332c0,1.289,1.045,2.334,2.333,2.334S32.044,161.377,32.044,160.088z"/>
				<path id="path7377" fill="none" stroke="#0092DF" d="M29.711,157.756v-16.335"/>
			</g>
			<g id="g7379">
				<path id="path7381" fill="#BFDDFF" stroke="#0092DF" d="M29.368,137.187c0,1.287-1.045,2.333-2.333,2.333
					c-1.288,0-2.333-1.046-2.333-2.333c0-1.288,1.045-2.333,2.333-2.333C28.323,134.854,29.368,135.9,29.368,137.187z"/>
				<path id="path7383" fill="none" stroke="#0092DF" d="M27.035,139.52v16.333"/>
			</g>
			<g id="g7385">
				<path id="path7387" fill="#BFDDFF" stroke="#0092DF" d="M24.018,137.187c0,1.287-1.045,2.333-2.333,2.333
					c-1.288,0-2.333-1.046-2.333-2.333c0-1.288,1.045-2.333,2.333-2.333C22.973,134.854,24.018,135.9,24.018,137.187z"/>
				<path id="path7389" fill="none" stroke="#0092DF" d="M21.685,139.52v16.333"/>
			</g>
			<g id="g7391">
				<path id="path7393" fill="#BFDDFF" stroke="#0092DF" d="M18.668,137.187c0,1.287-1.045,2.333-2.333,2.333
					s-2.333-1.046-2.333-2.333c0-1.288,1.045-2.333,2.333-2.333S18.668,135.9,18.668,137.187z"/>
				<path id="path7395" fill="none" stroke="#0092DF" d="M16.335,139.52v16.333"/>
			</g>
			<g id="g7397">
				<path id="path7399" fill="#BFDDFF" stroke="#0092DF" d="M45.42,137.187c0,1.287-1.045,2.333-2.333,2.333
					s-2.333-1.046-2.333-2.333c0-1.288,1.045-2.333,2.333-2.333S45.42,135.9,45.42,137.187z"/>
				<path id="path7401" fill="none" stroke="#0092DF" d="M43.087,139.52v16.333"/>
			</g>
			<g id="g7403">
				<path id="path7405" fill="#BFDDFF" stroke="#0092DF" d="M40.069,137.187c0,1.287-1.045,2.333-2.333,2.333
					s-2.333-1.046-2.333-2.333c0-1.288,1.045-2.333,2.333-2.333S40.069,135.9,40.069,137.187z"/>
				<path id="path7407" fill="none" stroke="#0092DF" d="M37.736,139.52v16.333"/>
			</g>
			<g id="g7409">
				<path id="path7411" fill="#BFDDFF" stroke="#0092DF" d="M34.719,137.187c0,1.287-1.045,2.333-2.333,2.333
					s-2.333-1.046-2.333-2.333c0-1.288,1.045-2.333,2.333-2.333S34.719,135.9,34.719,137.187z"/>
				<path id="path7413" fill="none" stroke="#0092DF" d="M32.386,139.52v16.333"/>
			</g>
		</g>
		<g id="g7415">
			<g id="g7417">
				<path id="path7419" fill="#BFDDFF" stroke="#0092DF" d="M-5.304,160.088c0-1.287-1.045-2.332-2.333-2.332
					s-2.333,1.045-2.333,2.332c0,1.289,1.045,2.334,2.333,2.334S-5.304,161.377-5.304,160.088z"/>
				<path id="path7421" fill="none" stroke="#0092DF" d="M-7.637,157.756v-16.335"/>
			</g>
			<g id="g7423">
				<path id="path7425" fill="#BFDDFF" stroke="#0092DF" d="M-10.654,160.088c0-1.287-1.045-2.332-2.333-2.332
					c-1.288,0-2.333,1.045-2.333,2.332c0,1.289,1.045,2.334,2.333,2.334C-11.699,162.422-10.654,161.377-10.654,160.088z"/>
				<path id="path7427" fill="none" stroke="#0092DF" d="M-12.987,157.756v-16.335"/>
			</g>
			<g id="g7429">
				<path id="path7431" fill="#BFDDFF" stroke="#0092DF" d="M-16.004,160.088c0-1.287-1.045-2.332-2.333-2.332
					c-1.288,0-2.333,1.045-2.333,2.332c0,1.289,1.045,2.334,2.333,2.334C-17.049,162.422-16.004,161.377-16.004,160.088z"/>
				<path id="path7433" fill="none" stroke="#0092DF" d="M-18.337,157.756v-16.335"/>
			</g>
			<g id="g7435">
				<path id="path7437" fill="#BFDDFF" stroke="#0092DF" d="M10.748,160.088c0-1.287-1.045-2.332-2.333-2.332
					c-1.288,0-2.333,1.045-2.333,2.332c0,1.289,1.045,2.334,2.333,2.334C9.703,162.422,10.748,161.377,10.748,160.088z"/>
				<path id="path7439" fill="none" stroke="#0092DF" d="M8.415,157.756v-16.335"/>
			</g>
			<g id="g7441">
				<path id="path7443" fill="#BFDDFF" stroke="#0092DF" d="M5.398,160.088c0-1.287-1.045-2.332-2.333-2.332
					s-2.333,1.045-2.333,2.332c0,1.289,1.045,2.334,2.333,2.334S5.398,161.377,5.398,160.088z"/>
				<path id="path7445" fill="none" stroke="#0092DF" d="M3.065,157.756v-16.335"/>
			</g>
			<g id="g7447">
				<path id="path7449" fill="#BFDDFF" stroke="#0092DF" d="M0.047,160.088c0-1.287-1.045-2.332-2.333-2.332
					s-2.333,1.045-2.333,2.332c0,1.289,1.045,2.334,2.333,2.334S0.047,161.377,0.047,160.088z"/>
				<path id="path7451" fill="none" stroke="#0092DF" d="M-2.286,157.756v-16.335"/>
			</g>
			<g id="g7453">
				<path id="path7455" fill="#BFDDFF" stroke="#0092DF" d="M-2.628,137.187c0,1.287-1.045,2.333-2.333,2.333
					c-1.288,0-2.333-1.046-2.333-2.333c0-1.288,1.045-2.333,2.333-2.333C-3.673,134.854-2.628,135.9-2.628,137.187z"/>
				<path id="path7457" fill="none" stroke="#0092DF" d="M-4.961,139.52v16.333"/>
			</g>
			<g id="g7459">
				<path id="path7461" fill="#BFDDFF" stroke="#0092DF" d="M-7.979,137.187c0,1.287-1.045,2.333-2.333,2.333
					s-2.333-1.046-2.333-2.333c0-1.288,1.045-2.333,2.333-2.333S-7.979,135.9-7.979,137.187z"/>
				<path id="path7463" fill="none" stroke="#0092DF" d="M-10.312,139.52v16.333"/>
			</g>
			<g id="g7465">
				<path id="path7467" fill="#BFDDFF" stroke="#0092DF" d="M-13.329,137.187c0,1.287-1.045,2.333-2.333,2.333
					s-2.333-1.046-2.333-2.333c0-1.288,1.045-2.333,2.333-2.333S-13.329,135.9-13.329,137.187z"/>
				<path id="path7469" fill="none" stroke="#0092DF" d="M-15.662,139.52v16.333"/>
			</g>
			<g id="g7471">
				<path id="path7473" fill="#BFDDFF" stroke="#0092DF" d="M13.423,137.187c0,1.287-1.045,2.333-2.333,2.333
					s-2.333-1.046-2.333-2.333c0-1.288,1.045-2.333,2.333-2.333S13.423,135.9,13.423,137.187z"/>
				<path id="path7475" fill="none" stroke="#0092DF" d="M11.09,139.52v16.333"/>
			</g>
			<g id="g7477">
				<path id="path7479" fill="#BFDDFF" stroke="#0092DF" d="M8.073,137.187c0,1.287-1.045,2.333-2.333,2.333
					s-2.333-1.046-2.333-2.333c0-1.288,1.045-2.333,2.333-2.333S8.073,135.9,8.073,137.187z"/>
				<path id="path7481" fill="none" stroke="#0092DF" d="M5.74,139.52v16.333"/>
			</g>
			<g id="g7483">
				<path id="path7485" fill="#BFDDFF" stroke="#0092DF" d="M2.722,137.187c0,1.287-1.045,2.333-2.333,2.333
					c-1.288,0-2.333-1.046-2.333-2.333c0-1.288,1.045-2.333,2.333-2.333C1.677,134.854,2.722,135.9,2.722,137.187z"/>
				<path id="path7487" fill="none" stroke="#0092DF" d="M0.389,139.52v16.333"/>
			</g>
		</g>
	</g>
	<g id="g59398_1_" transform="translate(21.16987,-31.23187)">
		<g id="g7045_1_">
			<g id="g7047_1_">
				<path id="path7049_1_" fill="#BFDDFF" stroke="#0092DF" d="M341.404,160.088c0-1.287-1.045-2.332-2.334-2.332
					c-1.287,0-2.332,1.045-2.332,2.332c0,1.289,1.045,2.334,2.332,2.334C340.359,162.422,341.404,161.377,341.404,160.088z"/>
				<path id="path7051_1_" fill="none" stroke="#0092DF" d="M339.07,157.756v-16.335"/>
			</g>
			<g id="g7053_1_">
				<path id="path7055_1_" fill="#BFDDFF" stroke="#0092DF" d="M336.055,160.088c0-1.287-1.045-2.332-2.334-2.332
					c-1.287,0-2.332,1.045-2.332,2.332c0,1.289,1.045,2.334,2.332,2.334C335.01,162.422,336.055,161.377,336.055,160.088z"/>
				<path id="path7057_1_" fill="none" stroke="#0092DF" d="M333.721,157.756v-16.335"/>
			</g>
			<g id="g7059_1_">
				<path id="path7061_1_" fill="#BFDDFF" stroke="#0092DF" d="M330.705,160.088c0-1.287-1.045-2.332-2.334-2.332
					c-1.287,0-2.332,1.045-2.332,2.332c0,1.289,1.045,2.334,2.332,2.334C329.66,162.422,330.705,161.377,330.705,160.088z"/>
				<path id="path7063_1_" fill="none" stroke="#0092DF" d="M328.371,157.756v-16.335"/>
			</g>
			<g id="g7065_1_">
				<path id="path7067_1_" fill="#BFDDFF" stroke="#0092DF" d="M357.457,160.088c0-1.287-1.045-2.332-2.334-2.332
					c-1.287,0-2.332,1.045-2.332,2.332c0,1.289,1.045,2.334,2.332,2.334C356.412,162.422,357.457,161.377,357.457,160.088z"/>
				<path id="path7069_1_" fill="none" stroke="#0092DF" d="M355.123,157.756v-16.335"/>
			</g>
			<g id="g7071_1_">
				<path id="path7073_1_" fill="#BFDDFF" stroke="#0092DF" d="M352.106,160.088c0-1.287-1.045-2.332-2.334-2.332
					c-1.287,0-2.332,1.045-2.332,2.332c0,1.289,1.045,2.334,2.332,2.334C351.061,162.422,352.106,161.377,352.106,160.088z"/>
				<path id="path7075_1_" fill="none" stroke="#0092DF" d="M349.772,157.756v-16.335"/>
			</g>
			<g id="g7077_1_">
				<path id="path7079_1_" fill="#BFDDFF" stroke="#0092DF" d="M346.756,160.088c0-1.287-1.045-2.332-2.334-2.332
					c-1.287,0-2.332,1.045-2.332,2.332c0,1.289,1.045,2.334,2.332,2.334C345.711,162.422,346.756,161.377,346.756,160.088z"/>
				<path id="path7081_1_" fill="none" stroke="#0092DF" d="M344.422,157.756v-16.335"/>
			</g>
			<g id="g7083_1_">
				<path id="path7085_1_" fill="#BFDDFF" stroke="#0092DF" d="M344.08,137.187c0,1.287-1.045,2.333-2.332,2.333
					c-1.289,0-2.334-1.046-2.334-2.333c0-1.288,1.045-2.333,2.334-2.333C343.035,134.854,344.08,135.9,344.08,137.187z"/>
				<path id="path7087_1_" fill="none" stroke="#0092DF" d="M341.748,139.52v16.333"/>
			</g>
			<g id="g7089_1_">
				<path id="path7091_1_" fill="#BFDDFF" stroke="#0092DF" d="M338.729,137.187c0,1.287-1.045,2.333-2.332,2.333
					c-1.289,0-2.334-1.046-2.334-2.333c0-1.288,1.045-2.333,2.334-2.333C337.684,134.854,338.729,135.9,338.729,137.187z"/>
				<path id="path7093_1_" fill="none" stroke="#0092DF" d="M336.397,139.52v16.333"/>
			</g>
			<g id="g7095_1_">
				<path id="path7097_1_" fill="#BFDDFF" stroke="#0092DF" d="M333.379,137.187c0,1.287-1.045,2.333-2.332,2.333
					c-1.289,0-2.334-1.046-2.334-2.333c0-1.288,1.045-2.333,2.334-2.333C332.334,134.854,333.379,135.9,333.379,137.187z"/>
				<path id="path7099_1_" fill="none" stroke="#0092DF" d="M331.047,139.52v16.333"/>
			</g>
			<g id="g7101_1_">
				<path id="path7103_1_" fill="#BFDDFF" stroke="#0092DF" d="M360.131,137.187c0,1.287-1.045,2.333-2.332,2.333
					c-1.289,0-2.334-1.046-2.334-2.333c0-1.288,1.045-2.333,2.334-2.333C359.086,134.854,360.131,135.9,360.131,137.187z"/>
				<path id="path7105_1_" fill="none" stroke="#0092DF" d="M357.799,139.52v16.333"/>
			</g>
			<g id="g7107_1_">
				<path id="path7109_1_" fill="#BFDDFF" stroke="#0092DF" d="M354.781,137.187c0,1.287-1.045,2.333-2.334,2.333
					c-1.287,0-2.332-1.046-2.332-2.333c0-1.288,1.045-2.333,2.332-2.333C353.736,134.854,354.781,135.9,354.781,137.187z"/>
				<path id="path7111_1_" fill="none" stroke="#0092DF" d="M352.447,139.52v16.333"/>
			</g>
			<g id="g7113_1_">
				<path id="path7115_1_" fill="#BFDDFF" stroke="#0092DF" d="M349.43,137.187c0,1.287-1.045,2.333-2.332,2.333
					c-1.289,0-2.334-1.046-2.334-2.333c0-1.288,1.045-2.333,2.334-2.333C348.385,134.854,349.43,135.9,349.43,137.187z"/>
				<path id="path7117_1_" fill="none" stroke="#0092DF" d="M347.098,139.52v16.333"/>
			</g>
		</g>
		<g id="g7119_1_">
			<g id="g7121_1_">
				<path id="path7123_1_" fill="#BFDDFF" stroke="#0092DF" d="M309.408,160.088c0-1.287-1.045-2.332-2.332-2.332
					c-1.289,0-2.334,1.045-2.334,2.332c0,1.289,1.045,2.334,2.334,2.334C308.363,162.422,309.408,161.377,309.408,160.088z"/>
				<path id="path7125_1_" fill="none" stroke="#0092DF" d="M307.076,157.756v-16.335"/>
			</g>
			<g id="g7127_1_">
				<path id="path7129_1_" fill="#BFDDFF" stroke="#0092DF" d="M304.059,160.088c0-1.287-1.045-2.332-2.334-2.332
					c-1.287,0-2.332,1.045-2.332,2.332c0,1.289,1.045,2.334,2.332,2.334S304.059,161.377,304.059,160.088z"/>
				<path id="path7131_1_" fill="none" stroke="#0092DF" d="M301.725,157.756v-16.335"/>
			</g>
			<g id="g7133_1_">
				<path id="path7135_1_" fill="#BFDDFF" stroke="#0092DF" d="M298.707,160.088c0-1.287-1.045-2.332-2.332-2.332
					c-1.289,0-2.334,1.045-2.334,2.332c0,1.289,1.045,2.334,2.334,2.334C297.662,162.422,298.707,161.377,298.707,160.088z"/>
				<path id="path7137_1_" fill="none" stroke="#0092DF" d="M296.375,157.756v-16.335"/>
			</g>
			<g id="g7139_1_">
				<path id="path7141_1_" fill="#BFDDFF" stroke="#0092DF" d="M325.459,160.088c0-1.287-1.045-2.332-2.332-2.332
					c-1.289,0-2.334,1.045-2.334,2.332c0,1.289,1.045,2.334,2.334,2.334C324.414,162.422,325.459,161.377,325.459,160.088z"/>
				<path id="path7143_1_" fill="none" stroke="#0092DF" d="M323.127,157.756v-16.335"/>
			</g>
			<g id="g7145_1_">
				<path id="path7147_1_" fill="#BFDDFF" stroke="#0092DF" d="M320.109,160.088c0-1.287-1.045-2.332-2.334-2.332
					c-1.287,0-2.332,1.045-2.332,2.332c0,1.289,1.045,2.334,2.332,2.334C319.065,162.422,320.109,161.377,320.109,160.088z"/>
				<path id="path7149_1_" fill="none" stroke="#0092DF" d="M317.775,157.756v-16.335"/>
			</g>
			<g id="g7151_1_">
				<path id="path7153_1_" fill="#BFDDFF" stroke="#0092DF" d="M314.758,160.088c0-1.287-1.045-2.332-2.332-2.332
					c-1.289,0-2.334,1.045-2.334,2.332c0,1.289,1.045,2.334,2.334,2.334C313.713,162.422,314.758,161.377,314.758,160.088z"/>
				<path id="path7155_1_" fill="none" stroke="#0092DF" d="M312.426,157.756v-16.335"/>
			</g>
			<g id="g7157_1_">
				<path id="path7159_1_" fill="#BFDDFF" stroke="#0092DF" d="M312.084,137.187c0,1.287-1.045,2.333-2.334,2.333
					c-1.287,0-2.332-1.046-2.332-2.333c0-1.288,1.045-2.333,2.332-2.333C311.039,134.854,312.084,135.9,312.084,137.187z"/>
				<path id="path7161_1_" fill="none" stroke="#0092DF" d="M309.75,139.52v16.333"/>
			</g>
			<g id="g7163_1_">
				<path id="path7165_1_" fill="#BFDDFF" stroke="#0092DF" d="M306.732,137.187c0,1.287-1.045,2.333-2.334,2.333
					c-1.287,0-2.332-1.046-2.332-2.333c0-1.288,1.045-2.333,2.332-2.333C305.688,134.854,306.732,135.9,306.732,137.187z"/>
				<path id="path7167_1_" fill="none" stroke="#0092DF" d="M304.4,139.52v16.333"/>
			</g>
			<g id="g7169_1_">
				<path id="path7171_1_" fill="#BFDDFF" stroke="#0092DF" d="M301.383,137.187c0,1.287-1.045,2.333-2.334,2.333
					c-1.287,0-2.332-1.046-2.332-2.333c0-1.288,1.045-2.333,2.332-2.333C300.338,134.854,301.383,135.9,301.383,137.187z"/>
				<path id="path7173_1_" fill="none" stroke="#0092DF" d="M299.049,139.52v16.333"/>
			</g>
			<g id="g7175_1_">
				<path id="path7177_1_" fill="#BFDDFF" stroke="#0092DF" d="M328.135,137.187c0,1.287-1.045,2.333-2.334,2.333
					c-1.287,0-2.332-1.046-2.332-2.333c0-1.288,1.045-2.333,2.332-2.333C327.09,134.854,328.135,135.9,328.135,137.187z"/>
				<path id="path7179_1_" fill="none" stroke="#0092DF" d="M325.803,139.52v16.333"/>
			</g>
			<g id="g7181_1_">
				<path id="path7183_1_" fill="#BFDDFF" stroke="#0092DF" d="M322.785,137.187c0,1.287-1.047,2.333-2.334,2.333
					s-2.332-1.046-2.332-2.333c0-1.288,1.045-2.333,2.332-2.333S322.785,135.9,322.785,137.187z"/>
				<path id="path7185_1_" fill="none" stroke="#0092DF" d="M320.451,139.52v16.333"/>
			</g>
			<g id="g7187_1_">
				<path id="path7189_1_" fill="#BFDDFF" stroke="#0092DF" d="M317.434,137.187c0,1.287-1.045,2.333-2.332,2.333
					c-1.289,0-2.334-1.046-2.334-2.333c0-1.288,1.045-2.333,2.334-2.333C316.389,134.854,317.434,135.9,317.434,137.187z"/>
				<path id="path7191_1_" fill="none" stroke="#0092DF" d="M315.102,139.52v16.333"/>
			</g>
		</g>
		<g id="g7193_1_">
			<g id="g7195_1_">
				<path id="path7197_1_" fill="#BFDDFF" stroke="#0092DF" d="M277.412,160.088c0-1.287-1.047-2.332-2.334-2.332
					s-2.332,1.045-2.332,2.332c0,1.289,1.045,2.334,2.332,2.334S277.412,161.377,277.412,160.088z"/>
				<path id="path7199_1_" fill="none" stroke="#0092DF" d="M275.078,157.756v-16.335"/>
			</g>
			<g id="g7201_1_">
				<path id="path7203_1_" fill="#BFDDFF" stroke="#0092DF" d="M272.061,160.088c0-1.287-1.045-2.332-2.332-2.332
					c-1.289,0-2.334,1.045-2.334,2.332c0,1.289,1.045,2.334,2.334,2.334C271.016,162.422,272.061,161.377,272.061,160.088z"/>
				<path id="path7205_1_" fill="none" stroke="#0092DF" d="M269.729,157.756v-16.335"/>
			</g>
			<g id="g7207_1_">
				<path id="path7209_1_" fill="#BFDDFF" stroke="#0092DF" d="M266.711,160.088c0-1.287-1.045-2.332-2.334-2.332
					c-1.287,0-2.332,1.045-2.332,2.332c0,1.289,1.045,2.334,2.332,2.334C265.666,162.422,266.711,161.377,266.711,160.088z"/>
				<path id="path7211_1_" fill="none" stroke="#0092DF" d="M264.377,157.756v-16.335"/>
			</g>
			<g id="g7213_1_">
				<path id="path7215_1_" fill="#BFDDFF" stroke="#0092DF" d="M293.463,160.088c0-1.287-1.045-2.332-2.332-2.332
					c-1.289,0-2.334,1.045-2.334,2.332c0,1.289,1.045,2.334,2.334,2.334C292.418,162.422,293.463,161.377,293.463,160.088z"/>
				<path id="path7217_1_" fill="none" stroke="#0092DF" d="M291.131,157.756v-16.335"/>
			</g>
			<g id="g7219_1_">
				<path id="path7221_1_" fill="#BFDDFF" stroke="#0092DF" d="M288.111,160.088c0-1.287-1.045-2.332-2.332-2.332
					c-1.289,0-2.334,1.045-2.334,2.332c0,1.289,1.045,2.334,2.334,2.334C287.066,162.422,288.111,161.377,288.111,160.088z"/>
				<path id="path7223_1_" fill="none" stroke="#0092DF" d="M285.779,157.756v-16.335"/>
			</g>
			<g id="g7225_1_">
				<path id="path7227_1_" fill="#BFDDFF" stroke="#0092DF" d="M282.762,160.088c0-1.287-1.045-2.332-2.332-2.332
					c-1.289,0-2.334,1.045-2.334,2.332c0,1.289,1.045,2.334,2.334,2.334C281.717,162.422,282.762,161.377,282.762,160.088z"/>
				<path id="path7229_1_" fill="none" stroke="#0092DF" d="M280.43,157.756v-16.335"/>
			</g>
			<g id="g7231_1_">
				<path id="path7233_1_" fill="#BFDDFF" stroke="#0092DF" d="M280.086,137.187c0,1.287-1.045,2.333-2.332,2.333
					c-1.289,0-2.334-1.046-2.334-2.333c0-1.288,1.045-2.333,2.334-2.333C279.041,134.854,280.086,135.9,280.086,137.187z"/>
				<path id="path7235_1_" fill="none" stroke="#0092DF" d="M277.754,139.52v16.333"/>
			</g>
			<g id="g7237_1_">
				<path id="path7239_1_" fill="#BFDDFF" stroke="#0092DF" d="M274.736,137.187c0,1.287-1.045,2.333-2.334,2.333
					c-1.287,0-2.332-1.046-2.332-2.333c0-1.288,1.045-2.333,2.332-2.333C273.691,134.854,274.736,135.9,274.736,137.187z"/>
				<path id="path7241_1_" fill="none" stroke="#0092DF" d="M272.402,139.52v16.333"/>
			</g>
			<g id="g7243_1_">
				<path id="path7245_1_" fill="#BFDDFF" stroke="#0092DF" d="M269.387,137.187c0,1.287-1.045,2.333-2.334,2.333
					c-1.287,0-2.332-1.046-2.332-2.333c0-1.288,1.045-2.333,2.332-2.333C268.342,134.854,269.387,135.9,269.387,137.187z"/>
				<path id="path7247_1_" fill="none" stroke="#0092DF" d="M267.053,139.52v16.333"/>
			</g>
			<g id="g7249_1_">
				<path id="path7251_1_" fill="#BFDDFF" stroke="#0092DF" d="M296.139,137.187c0,1.287-1.045,2.333-2.334,2.333
					c-1.287,0-2.332-1.046-2.332-2.333c0-1.288,1.045-2.333,2.332-2.333C295.094,134.854,296.139,135.9,296.139,137.187z"/>
				<path id="path7253_1_" fill="none" stroke="#0092DF" d="M293.805,139.52v16.333"/>
			</g>
			<g id="g7255_1_">
				<path id="path7257_1_" fill="#BFDDFF" stroke="#0092DF" d="M290.789,137.187c0,1.287-1.045,2.333-2.334,2.333
					c-1.287,0-2.332-1.046-2.332-2.333c0-1.288,1.045-2.333,2.332-2.333C289.744,134.854,290.789,135.9,290.789,137.187z"/>
				<path id="path7259_1_" fill="none" stroke="#0092DF" d="M288.455,139.52v16.333"/>
			</g>
			<g id="g7261_1_">
				<path id="path7263_1_" fill="#BFDDFF" stroke="#0092DF" d="M285.438,137.187c0,1.287-1.045,2.333-2.334,2.333
					c-1.287,0-2.332-1.046-2.332-2.333c0-1.288,1.045-2.333,2.332-2.333C284.393,134.854,285.438,135.9,285.438,137.187z"/>
				<path id="path7265_1_" fill="none" stroke="#0092DF" d="M283.104,139.52v16.333"/>
			</g>
		</g>
		<g id="g7267_1_">
			<g id="g7269_1_">
				<path id="path7271_1_" fill="#BFDDFF" stroke="#0092DF" d="M245.416,160.088c0-1.287-1.045-2.332-2.334-2.332
					c-1.287,0-2.332,1.045-2.332,2.332c0,1.289,1.045,2.334,2.332,2.334C244.371,162.422,245.416,161.377,245.416,160.088z"/>
				<path id="path7273_1_" fill="none" stroke="#0092DF" d="M243.082,157.756v-16.335"/>
			</g>
			<g id="g7275_1_">
				<path id="path7277_1_" fill="#BFDDFF" stroke="#0092DF" d="M240.065,160.088c0-1.287-1.045-2.332-2.334-2.332
					c-1.287,0-2.332,1.045-2.332,2.332c0,1.289,1.045,2.334,2.332,2.334C239.02,162.422,240.065,161.377,240.065,160.088z"/>
				<path id="path7279_1_" fill="none" stroke="#0092DF" d="M237.731,157.756v-16.335"/>
			</g>
			<g id="g7281_1_">
				<path id="path7283_1_" fill="#BFDDFF" stroke="#0092DF" d="M234.713,160.088c0-1.287-1.045-2.332-2.332-2.332
					c-1.289,0-2.334,1.045-2.334,2.332c0,1.289,1.045,2.334,2.334,2.334C233.668,162.422,234.713,161.377,234.713,160.088z"/>
				<path id="path7285_1_" fill="none" stroke="#0092DF" d="M232.381,157.756v-16.335"/>
			</g>
			<g id="g7287_1_">
				<path id="path7289_1_" fill="#BFDDFF" stroke="#0092DF" d="M261.467,160.088c0-1.287-1.045-2.332-2.334-2.332
					c-1.287,0-2.332,1.045-2.332,2.332c0,1.289,1.045,2.334,2.332,2.334C260.422,162.422,261.467,161.377,261.467,160.088z"/>
				<path id="path7291_1_" fill="none" stroke="#0092DF" d="M259.133,157.756v-16.335"/>
			</g>
			<g id="g7293_1_">
				<path id="path7295_1_" fill="#BFDDFF" stroke="#0092DF" d="M256.115,160.088c0-1.287-1.045-2.332-2.332-2.332
					s-2.334,1.045-2.334,2.332c0,1.289,1.047,2.334,2.334,2.334S256.115,161.377,256.115,160.088z"/>
				<path id="path7297_1_" fill="none" stroke="#0092DF" d="M253.783,157.756v-16.335"/>
			</g>
			<g id="g7299_1_">
				<path id="path7301_1_" fill="#BFDDFF" stroke="#0092DF" d="M250.766,160.088c0-1.287-1.045-2.332-2.334-2.332
					c-1.287,0-2.332,1.045-2.332,2.332c0,1.289,1.045,2.334,2.332,2.334C249.721,162.422,250.766,161.377,250.766,160.088z"/>
				<path id="path7303_1_" fill="none" stroke="#0092DF" d="M248.432,157.756v-16.335"/>
			</g>
			<g id="g7305_1_">
				<path id="path7307_1_" fill="#BFDDFF" stroke="#0092DF" d="M248.09,137.187c0,1.287-1.045,2.333-2.332,2.333
					c-1.289,0-2.334-1.046-2.334-2.333c0-1.288,1.045-2.333,2.334-2.333C247.045,134.854,248.09,135.9,248.09,137.187z"/>
				<path id="path7309_1_" fill="none" stroke="#0092DF" d="M245.758,139.52v16.333"/>
			</g>
			<g id="g7311_1_">
				<path id="path7313_1_" fill="#BFDDFF" stroke="#0092DF" d="M242.738,137.187c0,1.287-1.045,2.333-2.332,2.333
					s-2.334-1.046-2.334-2.333c0-1.288,1.047-2.333,2.334-2.333S242.738,135.9,242.738,137.187z"/>
				<path id="path7315_1_" fill="none" stroke="#0092DF" d="M240.406,139.52v16.333"/>
			</g>
			<g id="g7317_1_">
				<path id="path7319_1_" fill="#BFDDFF" stroke="#0092DF" d="M237.389,137.187c0,1.287-1.045,2.333-2.332,2.333
					c-1.289,0-2.334-1.046-2.334-2.333c0-1.288,1.045-2.333,2.334-2.333C236.344,134.854,237.389,135.9,237.389,137.187z"/>
				<path id="path7321_1_" fill="none" stroke="#0092DF" d="M235.057,139.52v16.333"/>
			</g>
			<g id="g7323_1_">
				<path id="path7325_1_" fill="#BFDDFF" stroke="#0092DF" d="M264.141,137.187c0,1.287-1.045,2.333-2.332,2.333
					c-1.289,0-2.334-1.046-2.334-2.333c0-1.288,1.045-2.333,2.334-2.333C263.096,134.854,264.141,135.9,264.141,137.187z"/>
				<path id="path7327_1_" fill="none" stroke="#0092DF" d="M261.809,139.52v16.333"/>
			</g>
			<g id="g7329_1_">
				<path id="path7331_1_" fill="#BFDDFF" stroke="#0092DF" d="M258.791,137.187c0,1.287-1.045,2.333-2.332,2.333
					c-1.289,0-2.334-1.046-2.334-2.333c0-1.288,1.045-2.333,2.334-2.333C257.746,134.854,258.791,135.9,258.791,137.187z"/>
				<path id="path7333_1_" fill="none" stroke="#0092DF" d="M256.459,139.52v16.333"/>
			</g>
			<g id="g7335_1_">
				<path id="path7337_1_" fill="#BFDDFF" stroke="#0092DF" d="M253.44,137.187c0,1.287-1.045,2.333-2.332,2.333
					c-1.289,0-2.334-1.046-2.334-2.333c0-1.288,1.045-2.333,2.334-2.333C252.395,134.854,253.44,135.9,253.44,137.187z"/>
				<path id="path7339_1_" fill="none" stroke="#0092DF" d="M251.107,139.52v16.333"/>
			</g>
		</g>
		<g id="g7341_1_">
			<g id="g7343_1_">
				<path id="path7345_1_" fill="#BFDDFF" stroke="#0092DF" d="M213.418,160.088c0-1.287-1.045-2.332-2.334-2.332
					c-1.287,0-2.332,1.045-2.332,2.332c0,1.289,1.045,2.334,2.332,2.334C212.373,162.422,213.418,161.377,213.418,160.088z"/>
				<path id="path7347_1_" fill="none" stroke="#0092DF" d="M211.084,157.756v-16.335"/>
			</g>
			<g id="g7349_1_">
				<path id="path7351_1_" fill="#BFDDFF" stroke="#0092DF" d="M208.068,160.088c0-1.287-1.045-2.332-2.334-2.332
					c-1.287,0-2.332,1.045-2.332,2.332c0,1.289,1.045,2.334,2.332,2.334S208.068,161.377,208.068,160.088z"/>
				<path id="path7353_1_" fill="none" stroke="#0092DF" d="M205.734,157.756v-16.335"/>
			</g>
			<g id="g7355_1_">
				<path id="path7357_1_" fill="#BFDDFF" stroke="#0092DF" d="M202.717,160.088c0-1.287-1.045-2.332-2.334-2.332
					c-1.287,0-2.332,1.045-2.332,2.332c0,1.289,1.045,2.334,2.332,2.334C201.672,162.422,202.717,161.377,202.717,160.088z"/>
				<path id="path7359_1_" fill="none" stroke="#0092DF" d="M200.383,157.756v-16.335"/>
			</g>
			<g id="g7361_1_">
				<path id="path7363_1_" fill="#BFDDFF" stroke="#0092DF" d="M229.469,160.088c0-1.287-1.045-2.332-2.332-2.332
					s-2.332,1.045-2.332,2.332c0,1.289,1.045,2.334,2.332,2.334S229.469,161.377,229.469,160.088z"/>
				<path id="path7365_1_" fill="none" stroke="#0092DF" d="M227.137,157.756v-16.335"/>
			</g>
			<g id="g7367_1_">
				<path id="path7369_1_" fill="#BFDDFF" stroke="#0092DF" d="M224.119,160.088c0-1.287-1.045-2.332-2.334-2.332
					c-1.287,0-2.332,1.045-2.332,2.332c0,1.289,1.045,2.334,2.332,2.334C223.074,162.422,224.119,161.377,224.119,160.088z"/>
				<path id="path7371_1_" fill="none" stroke="#0092DF" d="M221.785,157.756v-16.335"/>
			</g>
			<g id="g7373_1_">
				<path id="path7375_1_" fill="#BFDDFF" stroke="#0092DF" d="M218.77,160.088c0-1.287-1.045-2.332-2.334-2.332
					c-1.287,0-2.332,1.045-2.332,2.332c0,1.289,1.045,2.334,2.332,2.334C217.725,162.422,218.77,161.377,218.77,160.088z"/>
				<path id="path7377_1_" fill="none" stroke="#0092DF" d="M216.436,157.756v-16.335"/>
			</g>
			<g id="g7379_1_">
				<path id="path7381_1_" fill="#BFDDFF" stroke="#0092DF" d="M216.092,137.187c0,1.287-1.045,2.333-2.332,2.333
					s-2.334-1.046-2.334-2.333c0-1.288,1.047-2.333,2.334-2.333S216.092,135.9,216.092,137.187z"/>
				<path id="path7383_1_" fill="none" stroke="#0092DF" d="M213.76,139.52v16.333"/>
			</g>
			<g id="g7385_1_">
				<path id="path7387_1_" fill="#BFDDFF" stroke="#0092DF" d="M210.742,137.187c0,1.287-1.045,2.333-2.332,2.333
					c-1.289,0-2.334-1.046-2.334-2.333c0-1.288,1.045-2.333,2.334-2.333C209.697,134.854,210.742,135.9,210.742,137.187z"/>
				<path id="path7389_1_" fill="none" stroke="#0092DF" d="M208.41,139.52v16.333"/>
			</g>
			<g id="g7391_1_">
				<path id="path7393_1_" fill="#BFDDFF" stroke="#0092DF" d="M205.393,137.187c0,1.287-1.045,2.333-2.332,2.333
					c-1.289,0-2.334-1.046-2.334-2.333c0-1.288,1.045-2.333,2.334-2.333C204.348,134.854,205.393,135.9,205.393,137.187z"/>
				<path id="path7395_1_" fill="none" stroke="#0092DF" d="M203.061,139.52v16.333"/>
			</g>
			<g id="g7397_1_">
				<path id="path7399_1_" fill="#BFDDFF" stroke="#0092DF" d="M232.145,137.187c0,1.287-1.045,2.333-2.332,2.333
					c-1.289,0-2.334-1.046-2.334-2.333c0-1.288,1.045-2.333,2.334-2.333C231.1,134.854,232.145,135.9,232.145,137.187z"/>
				<path id="path7401_1_" fill="none" stroke="#0092DF" d="M229.813,139.52v16.333"/>
			</g>
			<g id="g7403_1_">
				<path id="path7405_1_" fill="#BFDDFF" stroke="#0092DF" d="M226.793,137.187c0,1.287-1.045,2.333-2.332,2.333
					c-1.289,0-2.334-1.046-2.334-2.333c0-1.288,1.045-2.333,2.334-2.333C225.748,134.854,226.793,135.9,226.793,137.187z"/>
				<path id="path7407_1_" fill="none" stroke="#0092DF" d="M224.461,139.52v16.333"/>
			</g>
			<g id="g7409_1_">
				<path id="path7411_1_" fill="#BFDDFF" stroke="#0092DF" d="M221.443,137.187c0,1.287-1.045,2.333-2.332,2.333
					c-1.289,0-2.334-1.046-2.334-2.333c0-1.288,1.045-2.333,2.334-2.333C220.398,134.854,221.443,135.9,221.443,137.187z"/>
				<path id="path7413_1_" fill="none" stroke="#0092DF" d="M219.111,139.52v16.333"/>
			</g>
		</g>
		<g id="g7415_1_">
			<g id="g7417_1_">
				<path id="path7419_1_" fill="#BFDDFF" stroke="#0092DF" d="M181.42,160.088c0-1.287-1.045-2.332-2.332-2.332
					c-1.289,0-2.334,1.045-2.334,2.332c0,1.289,1.045,2.334,2.334,2.334C180.375,162.422,181.42,161.377,181.42,160.088z"/>
				<path id="path7421_1_" fill="none" stroke="#0092DF" d="M179.088,157.756v-16.335"/>
			</g>
			<g id="g7423_1_">
				<path id="path7425_1_" fill="#BFDDFF" stroke="#0092DF" d="M176.07,160.088c0-1.287-1.045-2.332-2.333-2.332
					s-2.333,1.045-2.333,2.332c0,1.289,1.045,2.334,2.333,2.334S176.07,161.377,176.07,160.088z"/>
				<path id="path7427_1_" fill="none" stroke="#0092DF" d="M173.737,157.756v-16.335"/>
			</g>
			<g id="g7429_1_">
				<path id="path7431_1_" fill="#BFDDFF" stroke="#0092DF" d="M170.721,160.088c0-1.287-1.045-2.332-2.333-2.332
					s-2.333,1.045-2.333,2.332c0,1.289,1.045,2.334,2.333,2.334S170.721,161.377,170.721,160.088z"/>
				<path id="path7433_1_" fill="none" stroke="#0092DF" d="M168.388,157.756v-16.335"/>
			</g>
			<g id="g7435_1_">
				<path id="path7437_1_" fill="#BFDDFF" stroke="#0092DF" d="M197.473,160.088c0-1.287-1.045-2.332-2.332-2.332
					c-1.289,0-2.334,1.045-2.334,2.332c0,1.289,1.045,2.334,2.334,2.334C196.428,162.422,197.473,161.377,197.473,160.088z"/>
				<path id="path7439_1_" fill="none" stroke="#0092DF" d="M195.141,157.756v-16.335"/>
			</g>
			<g id="g7441_1_">
				<path id="path7443_1_" fill="#BFDDFF" stroke="#0092DF" d="M192.123,160.088c0-1.287-1.045-2.332-2.334-2.332
					c-1.287,0-2.332,1.045-2.332,2.332c0,1.289,1.045,2.334,2.332,2.334C191.078,162.422,192.123,161.377,192.123,160.088z"/>
				<path id="path7445_1_" fill="none" stroke="#0092DF" d="M189.789,157.756v-16.335"/>
			</g>
			<g id="g7447_1_">
				<path id="path7449_1_" fill="#BFDDFF" stroke="#0092DF" d="M186.772,160.088c0-1.287-1.045-2.332-2.332-2.332
					c-1.289,0-2.334,1.045-2.334,2.332c0,1.289,1.045,2.334,2.334,2.334C185.727,162.422,186.772,161.377,186.772,160.088z"/>
				<path id="path7451_1_" fill="none" stroke="#0092DF" d="M184.44,157.756v-16.335"/>
			</g>
			<g id="g7453_1_">
				<path id="path7455_1_" fill="#BFDDFF" stroke="#0092DF" d="M184.098,137.187c0,1.287-1.047,2.333-2.334,2.333
					s-2.332-1.046-2.332-2.333c0-1.288,1.045-2.333,2.332-2.333S184.098,135.9,184.098,137.187z"/>
				<path id="path7457_1_" fill="none" stroke="#0092DF" d="M181.764,139.52v16.333"/>
			</g>
			<g id="g7459_1_">
				<path id="path7461_1_" fill="#BFDDFF" stroke="#0092DF" d="M178.746,137.187c0,1.287-1.045,2.333-2.334,2.333
					c-1.287,0-2.332-1.046-2.332-2.333c0-1.288,1.045-2.333,2.332-2.333C177.701,134.854,178.746,135.9,178.746,137.187z"/>
				<path id="path7463_1_" fill="none" stroke="#0092DF" d="M176.412,139.52v16.333"/>
			</g>
			<g id="g7465_1_">
				<path id="path7467_1_" fill="#BFDDFF" stroke="#0092DF" d="M173.396,137.187c0,1.287-1.045,2.333-2.333,2.333
					s-2.333-1.046-2.333-2.333c0-1.288,1.045-2.333,2.333-2.333S173.396,135.9,173.396,137.187z"/>
				<path id="path7469_1_" fill="none" stroke="#0092DF" d="M171.063,139.52v16.333"/>
			</g>
			<g id="g7471_1_">
				<path id="path7473_1_" fill="#BFDDFF" stroke="#0092DF" d="M200.148,137.187c0,1.287-1.045,2.333-2.334,2.333
					c-1.287,0-2.332-1.046-2.332-2.333c0-1.288,1.045-2.333,2.332-2.333C199.104,134.854,200.148,135.9,200.148,137.187z"/>
				<path id="path7475_1_" fill="none" stroke="#0092DF" d="M197.815,139.52v16.333"/>
			</g>
			<g id="g7477_1_">
				<path id="path7479_1_" fill="#BFDDFF" stroke="#0092DF" d="M194.797,137.187c0,1.287-1.045,2.333-2.332,2.333
					c-1.289,0-2.334-1.046-2.334-2.333c0-1.288,1.045-2.333,2.334-2.333C193.752,134.854,194.797,135.9,194.797,137.187z"/>
				<path id="path7481_1_" fill="none" stroke="#0092DF" d="M192.465,139.52v16.333"/>
			</g>
			<g id="g7483_1_">
				<path id="path7485_1_" fill="#BFDDFF" stroke="#0092DF" d="M189.447,137.187c0,1.287-1.045,2.333-2.334,2.333
					c-1.287,0-2.332-1.046-2.332-2.333c0-1.288,1.045-2.333,2.332-2.333C188.402,134.854,189.447,135.9,189.447,137.187z"/>
				<path id="path7487_1_" fill="none" stroke="#0092DF" d="M187.113,139.52v16.333"/>
			</g>
		</g>
	</g>
</g>
<g>
	<g>
		<polyline fill="none" stroke="#000000" stroke-width="2" stroke-linecap="round" stroke-linejoin="round" points="53.053,90.097 
			62.569,99.611 62.569,136.195 		"/>
		<polyline fill="none" stroke="#000000" stroke-width="2" stroke-linecap="round" stroke-linejoin="round" points="75.709,90.097 
			66.192,99.611 66.192,136.195 		"/>
	</g>
	<g>
		<polyline fill="none" stroke="#000000" stroke-width="2" stroke-linecap="round" stroke-linejoin="round" points="76.553,90.097 
			86.069,99.611 86.069,136.195 		"/>
		<polyline fill="none" stroke="#000000" stroke-width="2" stroke-linecap="round" stroke-linejoin="round" points="99.209,90.097 
			89.692,99.611 89.692,136.195 		"/>
	</g>
</g>
<g id="g1181_1_">
	
		<radialGradient id="rect78407_2_" cx="9.9336" cy="-516.333" r="13.8289" gradientTransform="matrix(0.7055 0.7087 -0.7087 0.7055 -193.749 436.8708)" gradientUnits="userSpaceOnUse">
		<stop  offset="0" style="stop-color:#D0C4E0"/>
		<stop  offset="0.3949" style="stop-color:#C1D1EB"/>
		<stop  offset="0.5372" style="stop-color:#B9CCE9"/>
		<stop  offset="0.6386" style="stop-color:#AEC3E5"/>
		<stop  offset="0.7206" style="stop-color:#9FB9E0"/>
		<stop  offset="0.7909" style="stop-color:#8DABD9"/>
		<stop  offset="0.8531" style="stop-color:#7596CD"/>
		<stop  offset="0.9093" style="stop-color:#5C80C0"/>
		<stop  offset="0.9593" style="stop-color:#476FB5"/>
		<stop  offset="1" style="stop-color:#4165AE"/>
	</radialGradient>
	<path id="rect78407_1_" fill="url(#rect78407_2_)" stroke="#000000" d="M182.124,64.153l12.557,12.611
		c1.602,1.609,1.598,4.212-0.014,5.813l-12.611,12.556c-1.607,1.602-4.213,1.596-5.814-0.014l-12.553-12.611
		c-1.6-1.607-1.596-4.211,0.014-5.813l12.611-12.555C177.921,62.54,180.524,62.544,182.124,64.153z"/>
</g>
<g>
	<g>
		<polyline fill="none" stroke="#000000" stroke-width="2" stroke-linecap="round" stroke-linejoin="round" points="167.86,90.097 
			177.377,99.611 177.377,136.195 		"/>
		<polyline fill="none" stroke="#000000" stroke-width="2" stroke-linecap="round" stroke-linejoin="round" points="190.517,90.097 
			181,99.611 181,136.195 		"/>
	</g>
	<g>
		<polyline fill="none" stroke="#000000" stroke-width="2" stroke-linecap="round" stroke-linejoin="round" points="191.36,90.097 
			200.877,99.611 200.877,136.195 		"/>
		<polyline fill="none" stroke="#000000" stroke-width="2" stroke-linecap="round" stroke-linejoin="round" points="214.017,90.097 
			204.5,99.611 204.5,136.195 		"/>
	</g>
</g>
<g id="g1181_2_">
	
		<radialGradient id="rect78407_8_" cx="87.1465" cy="-593.8955" r="13.8286" gradientTransform="matrix(0.7055 0.7087 -0.7087 0.7055 -193.749 436.8708)" gradientUnits="userSpaceOnUse">
		<stop  offset="0" style="stop-color:#D0C4E0"/>
		<stop  offset="0.3949" style="stop-color:#C1D1EB"/>
		<stop  offset="0.5372" style="stop-color:#B9CCE9"/>
		<stop  offset="0.6386" style="stop-color:#AEC3E5"/>
		<stop  offset="0.7206" style="stop-color:#9FB9E0"/>
		<stop  offset="0.7909" style="stop-color:#8DABD9"/>
		<stop  offset="0.8531" style="stop-color:#7596CD"/>
		<stop  offset="0.9093" style="stop-color:#5C80C0"/>
		<stop  offset="0.9593" style="stop-color:#476FB5"/>
		<stop  offset="1" style="stop-color:#4165AE"/>
	</radialGradient>
	<path id="rect78407_3_" fill="url(#rect78407_8_)" stroke="#000000" d="M291.566,64.153l12.557,12.611
		c1.602,1.609,1.598,4.212-0.014,5.813l-12.611,12.556c-1.607,1.602-4.213,1.596-5.814-0.014l-12.553-12.611
		c-1.6-1.607-1.596-4.211,0.014-5.813l12.611-12.555C287.363,62.54,289.967,62.544,291.566,64.153z"/>
</g>
<g id="g1181_3_">
	
		<radialGradient id="rect78407_10_" cx="103.7256" cy="-610.5508" r="13.8289" gradientTransform="matrix(0.7055 0.7087 -0.7087 0.7055 -193.749 436.8708)" gradientUnits="userSpaceOnUse">
		<stop  offset="0" style="stop-color:#D0C4E0"/>
		<stop  offset="0.3949" style="stop-color:#C1D1EB"/>
		<stop  offset="0.5372" style="stop-color:#B9CCE9"/>
		<stop  offset="0.6386" style="stop-color:#AEC3E5"/>
		<stop  offset="0.7206" style="stop-color:#9FB9E0"/>
		<stop  offset="0.7909" style="stop-color:#8DABD9"/>
		<stop  offset="0.8531" style="stop-color:#7596CD"/>
		<stop  offset="0.9093" style="stop-color:#5C80C0"/>
		<stop  offset="0.9593" style="stop-color:#476FB5"/>
		<stop  offset="1" style="stop-color:#4165AE"/>
	</radialGradient>
	<path id="rect78407_4_" fill="url(#rect78407_10_)" stroke="#000000" d="M315.066,64.153l12.557,12.611
		c1.602,1.609,1.598,4.212-0.014,5.813l-12.611,12.556c-1.607,1.602-4.213,1.596-5.814-0.014l-12.553-12.611
		c-1.6-1.607-1.596-4.211,0.014-5.813l12.611-12.555C310.863,62.54,313.467,62.544,315.066,64.153z"/>
</g>
<g>
	<g>
		<polyline fill="none" stroke="#000000" stroke-width="2" stroke-linecap="round" stroke-linejoin="round" points="277.303,90.097 
			286.819,99.611 286.819,136.195 		"/>
		<polyline fill="none" stroke="#000000" stroke-width="2" stroke-linecap="round" stroke-linejoin="round" points="299.959,90.097 
			290.442,99.611 290.442,136.195 		"/>
	</g>
	<g>
		<polyline fill="none" stroke="#000000" stroke-width="2" stroke-linecap="round" stroke-linejoin="round" points="300.803,90.097 
			310.319,99.611 310.319,136.195 		"/>
		<polyline fill="none" stroke="#000000" stroke-width="2" stroke-linecap="round" stroke-linejoin="round" points="323.459,90.097 
			313.942,99.611 313.942,136.195 		"/>
	</g>
</g>
<g id="g1181_4_">
	
		<radialGradient id="rect78407_11_" cx="-62.4433" cy="-473.5249" r="13.8289" gradientTransform="matrix(0.7055 0.7087 -0.7087 0.7055 -193.749 436.8708)" gradientUnits="userSpaceOnUse">
		<stop  offset="0" style="stop-color:#D0C4E0"/>
		<stop  offset="0.3949" style="stop-color:#C1D1EB"/>
		<stop  offset="0.5372" style="stop-color:#B9CCE9"/>
		<stop  offset="0.6386" style="stop-color:#AEC3E5"/>
		<stop  offset="0.7206" style="stop-color:#9FB9E0"/>
		<stop  offset="0.7909" style="stop-color:#8DABD9"/>
		<stop  offset="0.8531" style="stop-color:#7596CD"/>
		<stop  offset="0.9093" style="stop-color:#5C80C0"/>
		<stop  offset="0.9593" style="stop-color:#476FB5"/>
		<stop  offset="1" style="stop-color:#4165AE"/>
	</radialGradient>
	<path id="rect78407_5_" fill="url(#rect78407_11_)" stroke="#000000" d="M100.724,43.061l12.557,12.611
		c1.602,1.609,1.598,4.212-0.014,5.813l-12.611,12.556c-1.607,1.602-4.213,1.596-5.814-0.014L82.289,61.417
		c-1.6-1.607-1.596-4.211,0.014-5.813l12.611-12.555C96.521,41.448,99.125,41.452,100.724,43.061z"/>
</g>
<g id="g1181_5_">
	
		<radialGradient id="rect78407_12_" cx="-103.0425" cy="-426.4683" r="13.8289" gradientTransform="matrix(0.7055 0.7087 -0.7087 0.7055 -193.749 436.8708)" gradientUnits="userSpaceOnUse">
		<stop  offset="0" style="stop-color:#D0C4E0"/>
		<stop  offset="0.3949" style="stop-color:#C1D1EB"/>
		<stop  offset="0.5372" style="stop-color:#B9CCE9"/>
		<stop  offset="0.6386" style="stop-color:#AEC3E5"/>
		<stop  offset="0.7206" style="stop-color:#9FB9E0"/>
		<stop  offset="0.7909" style="stop-color:#8DABD9"/>
		<stop  offset="0.8531" style="stop-color:#7596CD"/>
		<stop  offset="0.9093" style="stop-color:#5C80C0"/>
		<stop  offset="0.9593" style="stop-color:#476FB5"/>
		<stop  offset="1" style="stop-color:#4165AE"/>
	</radialGradient>
	<path id="rect78407_6_" fill="url(#rect78407_12_)" stroke="#000000" d="M38.732,47.487l12.557,12.611
		c1.602,1.609,1.598,4.212-0.014,5.813L38.664,78.467c-1.607,1.602-4.213,1.596-5.814-0.014L20.297,65.842
		c-1.6-1.607-1.596-4.211,0.014-5.813l12.611-12.555C34.529,45.874,37.133,45.877,38.732,47.487z"/>
</g>
<g id="g1181_6_">
	
		<radialGradient id="rect78407_13_" cx="-37.7993" cy="-551.54" r="13.8286" gradientTransform="matrix(0.7055 0.7087 -0.7087 0.7055 -193.749 436.8708)" gradientUnits="userSpaceOnUse">
		<stop  offset="0" style="stop-color:#D0C4E0"/>
		<stop  offset="0.3949" style="stop-color:#C1D1EB"/>
		<stop  offset="0.5372" style="stop-color:#B9CCE9"/>
		<stop  offset="0.6386" style="stop-color:#AEC3E5"/>
		<stop  offset="0.7206" style="stop-color:#9FB9E0"/>
		<stop  offset="0.7909" style="stop-color:#8DABD9"/>
		<stop  offset="0.8531" style="stop-color:#7596CD"/>
		<stop  offset="0.9093" style="stop-color:#5C80C0"/>
		<stop  offset="0.9593" style="stop-color:#476FB5"/>
		<stop  offset="1" style="stop-color:#4165AE"/>
	</radialGradient>
	<path id="rect78407_7_" fill="url(#rect78407_13_)" stroke="#000000" d="M173.4,5.486l12.557,12.611
		c1.602,1.609,1.598,4.212-0.014,5.813l-12.611,12.556c-1.607,1.602-4.213,1.596-5.814-0.014l-12.553-12.611
		c-1.6-1.607-1.596-4.211,0.014-5.813l12.611-12.555C169.197,3.873,171.8,3.877,173.4,5.486z"/>
</g>
<g id="g1181_8_">
	
		<radialGradient id="rect78407_14_" cx="41.2554" cy="-614.8877" r="13.8286" gradientTransform="matrix(0.7055 0.7087 -0.7087 0.7055 -193.749 436.8708)" gradientUnits="userSpaceOnUse">
		<stop  offset="0" style="stop-color:#D0C4E0"/>
		<stop  offset="0.3949" style="stop-color:#C1D1EB"/>
		<stop  offset="0.5372" style="stop-color:#B9CCE9"/>
		<stop  offset="0.6386" style="stop-color:#AEC3E5"/>
		<stop  offset="0.7206" style="stop-color:#9FB9E0"/>
		<stop  offset="0.7909" style="stop-color:#8DABD9"/>
		<stop  offset="0.8531" style="stop-color:#7596CD"/>
		<stop  offset="0.9093" style="stop-color:#5C80C0"/>
		<stop  offset="0.9593" style="stop-color:#476FB5"/>
		<stop  offset="1" style="stop-color:#4165AE"/>
	</radialGradient>
	<path id="rect78407_9_" fill="url(#rect78407_14_)" stroke="#000000" d="M274.067,16.82l12.557,12.611
		c1.602,1.609,1.598,4.212-0.014,5.813l-12.611,12.556c-1.607,1.602-4.213,1.596-5.814-0.014l-12.553-12.611
		c-1.6-1.607-1.596-4.211,0.014-5.813l12.611-12.555C269.864,15.207,272.468,15.211,274.067,16.82z"/>
</g>
<g>
	<path d="M25.611,153.783c0.54-0.08,1.169-0.14,1.859-0.14c1.25,0,2.139,0.279,2.729,0.829c0.61,0.55,0.959,1.34,0.959,2.429
		c0,1.1-0.35,1.999-0.969,2.619c-0.64,0.629-1.679,0.969-2.988,0.969c-0.63,0-1.14-0.02-1.589-0.079V153.783z M26.49,159.75
		c0.22,0.04,0.54,0.04,0.88,0.04c1.859,0.01,2.868-1.039,2.868-2.858c0.01-1.609-0.89-2.599-2.729-2.599
		c-0.45,0-0.79,0.04-1.02,0.09V159.75z"/>
	<path d="M32.69,154.703c-0.33,0-0.55-0.26-0.55-0.57c0-0.31,0.23-0.56,0.57-0.56s0.56,0.25,0.56,0.56c0,0.311-0.22,0.57-0.57,0.57
		H32.69z M32.271,160.43v-4.837h0.879v4.837H32.271z"/>
	<path d="M34.95,155.593l0.95,2.708c0.16,0.45,0.29,0.85,0.39,1.249h0.03c0.11-0.399,0.25-0.799,0.41-1.249l0.939-2.708h0.919
		l-1.899,4.837h-0.84l-1.839-4.837H34.95z"/>
	<path d="M42.688,159.271c0,0.42,0.02,0.829,0.07,1.159h-0.79l-0.08-0.609h-0.03c-0.26,0.38-0.79,0.72-1.479,0.72
		c-0.979,0-1.479-0.69-1.479-1.39c0-1.169,1.04-1.809,2.909-1.799v-0.101c0-0.399-0.11-1.129-1.1-1.119
		c-0.459,0-0.929,0.13-1.269,0.36l-0.2-0.59c0.4-0.25,0.99-0.42,1.599-0.42c1.489,0,1.849,1.01,1.849,1.979V159.271z
		 M41.829,157.961c-0.959-0.02-2.049,0.15-2.049,1.09c0,0.579,0.379,0.839,0.819,0.839c0.64,0,1.049-0.399,1.189-0.81
		c0.03-0.09,0.04-0.189,0.04-0.279V157.961z"/>
	<path d="M44.1,153.334h0.879v7.096H44.1V153.334z"/>
	<path d="M46.94,158.161c0.02,1.189,0.77,1.679,1.649,1.679c0.63,0,1.02-0.109,1.339-0.239l0.16,0.619
		c-0.31,0.14-0.85,0.31-1.619,0.31c-1.479,0-2.378-0.989-2.378-2.438c0-1.469,0.87-2.618,2.279-2.618
		c1.579,0,1.989,1.389,1.989,2.278c0,0.18-0.01,0.32-0.03,0.42L46.94,158.161z M49.508,157.531c0.01-0.55-0.23-1.429-1.209-1.429
		c-0.899,0-1.279,0.819-1.349,1.429H49.508z"/>
	<path d="M51.45,156.901c0-0.51-0.01-0.909-0.04-1.309h0.78l0.05,0.789h0.02c0.24-0.449,0.8-0.899,1.599-0.899
		c0.67,0,1.709,0.399,1.709,2.059v2.889h-0.879v-2.788c0-0.78-0.29-1.439-1.119-1.439c-0.57,0-1.02,0.409-1.18,0.899
		c-0.04,0.11-0.06,0.27-0.06,0.41v2.918H51.45V156.901z"/>
	<path d="M58.02,154.433v1.16h1.259v0.669H58.02v2.608c0,0.6,0.17,0.939,0.66,0.939c0.24,0,0.38-0.02,0.51-0.06l0.04,0.67
		c-0.17,0.06-0.44,0.12-0.78,0.12c-0.41,0-0.74-0.141-0.949-0.37c-0.24-0.27-0.34-0.7-0.34-1.27v-2.639h-0.75v-0.669h0.75v-0.89
		L58.02,154.433z"/>
	<path d="M62.81,154.703c-0.33,0-0.55-0.26-0.55-0.57c0-0.31,0.23-0.56,0.57-0.56s0.56,0.25,0.56,0.56c0,0.311-0.22,0.57-0.57,0.57
		H62.81z M62.39,160.43v-4.837h0.879v4.837H62.39z"/>
	<path d="M64.73,156.901c0-0.51-0.01-0.909-0.04-1.309h0.78l0.05,0.789h0.02c0.24-0.449,0.8-0.899,1.599-0.899
		c0.67,0,1.709,0.399,1.709,2.059v2.889h-0.879v-2.788c0-0.78-0.29-1.439-1.119-1.439c-0.57,0-1.02,0.409-1.18,0.899
		c-0.04,0.11-0.06,0.27-0.06,0.41v2.918H64.73V156.901z"/>
	<path d="M70.16,159.54c0.27,0.16,0.729,0.34,1.169,0.34c0.63,0,0.93-0.31,0.93-0.72c0-0.42-0.25-0.649-0.89-0.89
		c-0.879-0.319-1.289-0.789-1.289-1.369c0-0.779,0.64-1.419,1.669-1.419c0.49,0,0.919,0.13,1.179,0.3l-0.209,0.63
		c-0.19-0.11-0.54-0.28-0.99-0.28c-0.52,0-0.799,0.3-0.799,0.66c0,0.409,0.28,0.59,0.909,0.829c0.83,0.31,1.27,0.729,1.27,1.459
		c0,0.86-0.67,1.46-1.799,1.46c-0.529,0-1.019-0.141-1.359-0.34L70.16,159.54z"/>
	<path d="M78.287,159.11c0,0.5,0.01,0.939,0.04,1.319h-0.78l-0.05-0.79h-0.02c-0.22,0.391-0.74,0.9-1.599,0.9
		c-0.76,0-1.669-0.43-1.669-2.119v-2.828h0.879v2.668c0,0.92,0.29,1.549,1.08,1.549c0.589,0,1-0.409,1.159-0.81
		c0.05-0.119,0.08-0.279,0.08-0.449v-2.958h0.879V159.11z"/>
	<path d="M79.749,153.334h0.879v7.096h-0.879V153.334z"/>
	<path d="M82.509,154.703c-0.33,0-0.55-0.26-0.55-0.57c0-0.31,0.23-0.56,0.57-0.56s0.56,0.25,0.56,0.56c0,0.311-0.22,0.57-0.57,0.57
		H82.509z M82.089,160.43v-4.837h0.879v4.837H82.089z"/>
	<path d="M84.429,156.901c0-0.51-0.01-0.909-0.04-1.309h0.78l0.05,0.789h0.02c0.24-0.449,0.8-0.899,1.599-0.899
		c0.67,0,1.709,0.399,1.709,2.059v2.889h-0.879v-2.788c0-0.78-0.29-1.439-1.119-1.439c-0.57,0-1.02,0.409-1.18,0.899
		c-0.04,0.11-0.06,0.27-0.06,0.41v2.918h-0.879V156.901z"/>
	<path d="M92.109,157.102c0-0.569-0.01-1.06-0.04-1.509h0.77l0.04,0.949h0.03c0.22-0.649,0.76-1.06,1.349-1.06
		c0.09,0,0.16,0.01,0.24,0.03v0.819c-0.1-0.01-0.19-0.021-0.31-0.021c-0.62,0-1.06,0.47-1.179,1.12c-0.02,0.13-0.03,0.27-0.03,0.42
		v2.578h-0.879L92.109,157.102z"/>
	<path d="M95.809,158.161c0.02,1.189,0.77,1.679,1.649,1.679c0.63,0,1.02-0.109,1.339-0.239l0.16,0.619
		c-0.31,0.14-0.85,0.31-1.619,0.31c-1.479,0-2.378-0.989-2.378-2.438c0-1.469,0.87-2.618,2.279-2.618
		c1.579,0,1.989,1.389,1.989,2.278c0,0.18-0.01,0.32-0.03,0.42L95.809,158.161z M98.377,157.531c0.01-0.55-0.23-1.429-1.209-1.429
		c-0.899,0-1.279,0.819-1.349,1.429H98.377z"/>
	<path d="M103.767,160.26c-0.23,0.11-0.74,0.28-1.389,0.28c-1.459,0-2.409-0.99-2.409-2.479c0-1.488,1.02-2.578,2.599-2.578
		c0.52,0,0.979,0.13,1.219,0.26l-0.2,0.67c-0.209-0.11-0.54-0.23-1.019-0.23c-1.109,0-1.709,0.83-1.709,1.84
		c0,1.119,0.719,1.809,1.679,1.809c0.5,0,0.83-0.12,1.08-0.229L103.767,160.26z"/>
	<path d="M105.239,158.161c0.02,1.189,0.77,1.679,1.649,1.679c0.63,0,1.02-0.109,1.339-0.239l0.16,0.619
		c-0.31,0.14-0.85,0.31-1.619,0.31c-1.479,0-2.378-0.989-2.378-2.438c0-1.469,0.87-2.618,2.279-2.618
		c1.579,0,1.989,1.389,1.989,2.278c0,0.18-0.01,0.32-0.03,0.42L105.239,158.161z M107.807,157.531c0.01-0.55-0.23-1.429-1.209-1.429
		c-0.899,0-1.279,0.819-1.349,1.429H107.807z"/>
	<path d="M109.749,157.172c0-0.62-0.01-1.12-0.04-1.579h0.79l0.05,0.829h0.02c0.35-0.6,0.929-0.939,1.709-0.939
		c1.179,0,2.059,0.989,2.059,2.459c0,1.738-1.069,2.599-2.199,2.599c-0.649,0-1.199-0.28-1.489-0.76h-0.02v2.628h-0.879V157.172z
		 M110.628,158.461c0,0.12,0.01,0.25,0.04,0.359c0.15,0.61,0.69,1.029,1.31,1.029c0.929,0,1.469-0.759,1.469-1.868
		c0-0.97-0.5-1.8-1.429-1.8c-0.6,0-1.169,0.42-1.339,1.08c-0.02,0.12-0.05,0.25-0.05,0.359V158.461z"/>
	<path d="M116.498,154.433v1.16h1.259v0.669h-1.259v2.608c0,0.6,0.17,0.939,0.66,0.939c0.24,0,0.38-0.02,0.51-0.06l0.04,0.67
		c-0.17,0.06-0.44,0.12-0.78,0.12c-0.41,0-0.74-0.141-0.949-0.37c-0.24-0.27-0.34-0.7-0.34-1.27v-2.639h-0.75v-0.669h0.75v-0.89
		L116.498,154.433z"/>
	<path d="M120.658,160.54c-1.299,0-2.319-0.96-2.319-2.489c0-1.619,1.069-2.568,2.398-2.568c1.389,0,2.329,1.01,2.329,2.479
		c0,1.799-1.25,2.579-2.399,2.579H120.658z M120.688,159.88c0.839,0,1.469-0.789,1.469-1.889c0-0.819-0.41-1.85-1.449-1.85
		c-1.029,0-1.479,0.96-1.479,1.88c0,1.059,0.6,1.858,1.449,1.858H120.688z"/>
	<path d="M124.188,157.102c0-0.569-0.01-1.06-0.04-1.509h0.77l0.04,0.949h0.03c0.22-0.649,0.76-1.06,1.349-1.06
		c0.09,0,0.16,0.01,0.24,0.03v0.819c-0.1-0.01-0.19-0.021-0.31-0.021c-0.62,0-1.059,0.47-1.179,1.12c-0.02,0.13-0.03,0.27-0.03,0.42
		v2.578h-0.879L124.188,157.102z"/>
</g>
<g>
	<path d="M127.822,0.36v6.736h-0.879V0.36H127.822z"/>
	<path d="M129.313,3.568c0-0.51-0.01-0.91-0.04-1.31h0.78l0.05,0.79h0.02c0.24-0.45,0.8-0.899,1.599-0.899
		c0.67,0,1.709,0.4,1.709,2.059v2.888h-0.879V4.308c0-0.779-0.29-1.439-1.119-1.439c-0.57,0-1.02,0.41-1.18,0.899
		c-0.04,0.11-0.06,0.27-0.06,0.41v2.918h-0.879V3.568z"/>
	<path d="M134.743,6.207c0.27,0.16,0.729,0.34,1.169,0.34c0.63,0,0.93-0.31,0.93-0.72c0-0.419-0.25-0.649-0.89-0.889
		c-0.879-0.32-1.289-0.79-1.289-1.369c0-0.78,0.64-1.419,1.669-1.419c0.49,0,0.919,0.13,1.179,0.3l-0.209,0.63
		c-0.19-0.11-0.54-0.28-0.99-0.28c-0.52,0-0.799,0.3-0.799,0.66c0,0.41,0.28,0.59,0.909,0.83c0.83,0.31,1.27,0.73,1.27,1.459
		c0,0.859-0.67,1.459-1.799,1.459c-0.529,0-1.019-0.14-1.359-0.34L134.743,6.207z"/>
	<path d="M142.871,5.777c0,0.5,0.01,0.939,0.04,1.319h-0.78l-0.05-0.79h-0.02c-0.22,0.39-0.74,0.899-1.599,0.899
		c-0.76,0-1.669-0.43-1.669-2.119V2.259h0.879v2.668c0,0.919,0.29,1.549,1.08,1.549c0.589,0,1-0.41,1.159-0.81
		c0.05-0.12,0.08-0.28,0.08-0.45V2.259h0.879V5.777z"/>
	<path d="M144.333,0h0.879v7.096h-0.879V0z"/>
	<path d="M147.092,1.369c-0.33,0-0.55-0.26-0.55-0.569c0-0.31,0.23-0.56,0.57-0.56s0.56,0.25,0.56,0.56
		c0,0.31-0.22,0.569-0.57,0.569H147.092z M146.672,7.096V2.259h0.879v4.837H146.672z"/>
	<path d="M149.012,3.568c0-0.51-0.01-0.91-0.04-1.31h0.78l0.05,0.79h0.02c0.24-0.45,0.8-0.899,1.599-0.899
		c0.67,0,1.709,0.4,1.709,2.059v2.888h-0.879V4.308c0-0.779-0.29-1.439-1.119-1.439c-0.57,0-1.02,0.41-1.18,0.899
		c-0.04,0.11-0.06,0.27-0.06,0.41v2.918h-0.879V3.568z"/>
</g>
<g>
	<path d="M394.286,111.784c0.42-0.08,0.97-0.14,1.669-0.14c0.859,0,1.489,0.2,1.889,0.56c0.37,0.32,0.6,0.81,0.6,1.409
		c0,0.61-0.18,1.089-0.529,1.439c-0.46,0.49-1.209,0.739-2.059,0.739c-0.26,0-0.5-0.01-0.7-0.06v2.699h-0.869V111.784z
		 M395.155,115.022c0.19,0.05,0.44,0.07,0.72,0.07c1.06,0,1.689-0.52,1.689-1.429c0-0.899-0.63-1.329-1.59-1.329
		c-0.379,0-0.669,0.04-0.819,0.07V115.022z"/>
	<path d="M399.526,111.334h0.88v7.096h-0.88V111.334z"/>
	<path d="M405.274,117.271c0,0.419,0.021,0.83,0.07,1.159h-0.79l-0.08-0.61h-0.029c-0.261,0.38-0.79,0.72-1.479,0.72
		c-0.979,0-1.479-0.689-1.479-1.389c0-1.169,1.04-1.809,2.908-1.799v-0.1c0-0.4-0.109-1.129-1.099-1.12c-0.46,0-0.93,0.13-1.27,0.36
		l-0.2-0.589c0.4-0.25,0.989-0.42,1.6-0.42c1.489,0,1.849,1.009,1.849,1.979V117.271z M404.415,115.961
		c-0.96-0.02-2.049,0.15-2.049,1.089c0,0.58,0.38,0.84,0.819,0.84c0.64,0,1.05-0.4,1.189-0.81c0.03-0.09,0.04-0.19,0.04-0.28
		V115.961z"/>
	<path d="M406.566,117.541c0.271,0.16,0.729,0.34,1.17,0.34c0.629,0,0.93-0.31,0.93-0.72c0-0.419-0.25-0.649-0.89-0.889
		c-0.88-0.32-1.29-0.79-1.29-1.369c0-0.78,0.64-1.419,1.67-1.419c0.489,0,0.919,0.13,1.179,0.3l-0.21,0.63
		c-0.189-0.11-0.539-0.28-0.989-0.28c-0.52,0-0.8,0.3-0.8,0.66c0,0.41,0.28,0.59,0.91,0.83c0.829,0.31,1.269,0.73,1.269,1.459
		c0,0.859-0.669,1.459-1.799,1.459c-0.529,0-1.02-0.14-1.359-0.34L406.566,117.541z"/>
	<path d="M410.646,114.902c0-0.51-0.02-0.91-0.04-1.31h0.77l0.04,0.78h0.03c0.27-0.46,0.72-0.89,1.529-0.89
		c0.649,0,1.149,0.4,1.359,0.969h0.02c0.15-0.28,0.35-0.479,0.55-0.629c0.29-0.22,0.6-0.34,1.06-0.34
		c0.649,0,1.599,0.42,1.599,2.099v2.849h-0.859v-2.738c0-0.94-0.35-1.489-1.049-1.489c-0.51,0-0.89,0.37-1.05,0.79
		c-0.04,0.13-0.07,0.29-0.07,0.439v2.999h-0.859v-2.898c0-0.78-0.34-1.329-1.01-1.329c-0.539,0-0.949,0.439-1.089,0.879
		c-0.05,0.13-0.07,0.28-0.07,0.43v2.918h-0.859V114.902z"/>
	<path d="M422.395,117.271c0,0.419,0.02,0.83,0.07,1.159h-0.79l-0.08-0.61h-0.029c-0.261,0.38-0.79,0.72-1.479,0.72
		c-0.979,0-1.479-0.689-1.479-1.389c0-1.169,1.04-1.809,2.908-1.799v-0.1c0-0.4-0.109-1.129-1.099-1.12c-0.46,0-0.93,0.13-1.27,0.36
		l-0.2-0.589c0.4-0.25,0.989-0.42,1.6-0.42c1.489,0,1.849,1.009,1.849,1.979V117.271z M421.535,115.961
		c-0.96-0.02-2.049,0.15-2.049,1.089c0,0.58,0.38,0.84,0.819,0.84c0.64,0,1.05-0.4,1.189-0.81c0.03-0.09,0.04-0.19,0.04-0.28
		V115.961z"/>
	<path d="M425.927,114.902c0-0.51-0.02-0.91-0.04-1.31h0.77l0.04,0.78h0.03c0.27-0.46,0.72-0.89,1.529-0.89
		c0.649,0,1.149,0.4,1.359,0.969h0.02c0.15-0.28,0.35-0.479,0.55-0.629c0.29-0.22,0.6-0.34,1.06-0.34
		c0.649,0,1.599,0.42,1.599,2.099v2.849h-0.859v-2.738c0-0.94-0.35-1.489-1.049-1.489c-0.51,0-0.89,0.37-1.05,0.79
		c-0.04,0.13-0.07,0.29-0.07,0.439v2.999h-0.859v-2.898c0-0.78-0.34-1.329-1.01-1.329c-0.539,0-0.949,0.439-1.089,0.879
		c-0.05,0.13-0.07,0.28-0.07,0.43v2.918h-0.859V114.902z"/>
	<path d="M434.767,116.162c0.02,1.189,0.77,1.679,1.649,1.679c0.629,0,1.019-0.11,1.339-0.24l0.16,0.62
		c-0.311,0.14-0.85,0.31-1.619,0.31c-1.479,0-2.379-0.99-2.379-2.439c0-1.469,0.869-2.619,2.278-2.619
		c1.579,0,1.989,1.39,1.989,2.279c0,0.18-0.01,0.32-0.03,0.42L434.767,116.162z M437.335,115.532c0.01-0.55-0.229-1.429-1.209-1.429
		c-0.899,0-1.279,0.819-1.35,1.429H437.335z"/>
	<path d="M439.276,114.902c0-0.51-0.02-0.91-0.04-1.31h0.77l0.04,0.78h0.03c0.27-0.46,0.72-0.89,1.529-0.89
		c0.649,0,1.149,0.4,1.359,0.969h0.02c0.15-0.28,0.35-0.479,0.55-0.629c0.29-0.22,0.6-0.34,1.06-0.34
		c0.649,0,1.599,0.42,1.599,2.099v2.849h-0.859v-2.738c0-0.94-0.35-1.489-1.049-1.489c-0.51,0-0.89,0.37-1.05,0.79
		c-0.04,0.13-0.07,0.29-0.07,0.439v2.999h-0.859v-2.898c0-0.78-0.34-1.329-1.01-1.329c-0.539,0-0.949,0.439-1.089,0.879
		c-0.05,0.13-0.07,0.28-0.07,0.43v2.918h-0.859V114.902z"/>
	<path d="M447.616,111.334h0.88v3.028h0.02c0.31-0.54,0.87-0.879,1.649-0.879c1.199,0,2.039,1,2.039,2.458
		c0,1.739-1.1,2.599-2.179,2.599c-0.7,0-1.25-0.27-1.619-0.909h-0.021l-0.05,0.799h-0.76c0.03-0.33,0.04-0.819,0.04-1.25V111.334z
		 M448.496,116.491c0,0.11,0.01,0.22,0.029,0.32c0.17,0.61,0.69,1.029,1.319,1.029c0.93,0,1.47-0.75,1.47-1.859
		c0-0.979-0.5-1.809-1.439-1.809c-0.6,0-1.159,0.42-1.329,1.08c-0.03,0.11-0.05,0.23-0.05,0.37V116.491z"/>
	<path d="M453.315,115.102c0-0.57-0.01-1.06-0.04-1.509h0.77l0.04,0.95h0.03c0.22-0.65,0.76-1.06,1.35-1.06
		c0.09,0,0.159,0.01,0.239,0.03v0.82c-0.1-0.01-0.189-0.02-0.31-0.02c-0.619,0-1.06,0.47-1.18,1.119
		c-0.02,0.13-0.029,0.27-0.029,0.42v2.579h-0.88L453.315,115.102z"/>
	<path d="M459.923,117.271c0,0.419,0.021,0.83,0.07,1.159h-0.79l-0.08-0.61h-0.029c-0.261,0.38-0.79,0.72-1.479,0.72
		c-0.979,0-1.479-0.689-1.479-1.389c0-1.169,1.04-1.809,2.908-1.799v-0.1c0-0.4-0.109-1.129-1.099-1.12c-0.46,0-0.93,0.13-1.27,0.36
		l-0.2-0.589c0.4-0.25,0.989-0.42,1.6-0.42c1.489,0,1.849,1.009,1.849,1.979V117.271z M459.063,115.961
		c-0.96-0.02-2.049,0.15-2.049,1.089c0,0.58,0.38,0.84,0.819,0.84c0.64,0,1.05-0.4,1.189-0.81c0.03-0.09,0.04-0.19,0.04-0.28
		V115.961z"/>
	<path d="M461.335,114.902c0-0.51-0.01-0.91-0.04-1.31h0.779l0.051,0.79h0.02c0.24-0.45,0.8-0.899,1.6-0.899
		c0.669,0,1.709,0.4,1.709,2.059v2.888h-0.88v-2.789c0-0.779-0.29-1.439-1.119-1.439c-0.57,0-1.02,0.41-1.18,0.899
		c-0.04,0.11-0.06,0.27-0.06,0.41v2.918h-0.88V114.902z"/>
	<path d="M467.386,116.162c0.02,1.189,0.77,1.679,1.649,1.679c0.629,0,1.019-0.11,1.339-0.24l0.16,0.62
		c-0.311,0.14-0.85,0.31-1.619,0.31c-1.479,0-2.379-0.99-2.379-2.439c0-1.469,0.869-2.619,2.278-2.619
		c1.579,0,1.989,1.39,1.989,2.279c0,0.18-0.01,0.32-0.03,0.42L467.386,116.162z M469.954,115.532c0.01-0.55-0.229-1.429-1.209-1.429
		c-0.899,0-1.279,0.819-1.35,1.429H469.954z"/>
</g>
<g>
	<g>
		<line fill="none" stroke="#000000" x1="114.493" y1="90.097" x2="152.576" y2="90.097"/>
		<polygon points="149.768,93.801 151.34,90.097 149.768,86.393 158.545,90.097 		"/>
		<polygon points="117.302,86.393 115.729,90.097 117.302,93.8 108.524,90.097 		"/>
	</g>
</g>
<g>
	<g>
		<line fill="none" stroke="#000000" x1="226.618" y1="90.097" x2="264.701" y2="90.097"/>
		<polygon points="261.893,93.801 263.465,90.097 261.893,86.393 270.67,90.097 		"/>
		<polygon points="229.427,86.393 227.855,90.097 229.427,93.8 220.649,90.097 		"/>
	</g>
</g>
</svg>
