<?xml version="1.0" encoding="UTF-8" standalone="no"?>
<!DOCTYPE svg PUBLIC "-//W3C//DTD SVG 1.1//EN"
 "http://www.w3.org/Graphics/SVG/1.1/DTD/svg11.dtd">
<!-- Generated by graphviz version 2.30.1 (20140821.0912)
 -->
<!-- Title: G Pages: 1 -->
<svg width="2518pt" height="350pt"
 viewBox="0.00 0.00 2518.00 350.00" xmlns="http://www.w3.org/2000/svg" xmlns:xlink="http://www.w3.org/1999/xlink">
<g id="graph0" class="graph" transform="scale(1 1) rotate(0) translate(4 346)">
<title>G</title>
<polygon fill="white" stroke="white" points="-4,5 -4,-346 2515,-346 2515,5 -4,5"/>
<!-- ATP -->
<g id="ATP [CHEBI:15422]" class="node"><title>ATP</title>
<ellipse fill="none" stroke="black" cx="194" cy="-174" rx="18" ry="18"/>
<text text-anchor="middle" x="194" y="-171.5" font-family="Times,serif" font-size="10.00">ATP</text>
</g>
<!-- reaction_1_intermediate_r -->
<g id="node62" class="node"><title>reaction_1_intermediate_r</title>
<ellipse fill="black" stroke="black" cx="249" cy="-245" rx="0.036" ry="0.036"/>
</g>
<!-- ATP&#45;&gt;reaction_1_intermediate_r -->
<g id="edge48" class="edge"><title>ATP&#45;&gt;reaction_1_intermediate_r</title>
<path fill="none" stroke="black" d="M205.471,-188.027C220.434,-208.072 246.319,-242.748 247.922,-244.895"/>
</g>
<!-- reaction_2_intermediate_r -->
<g id="node65" class="node"><title>reaction_2_intermediate_r</title>
<ellipse fill="black" stroke="black" cx="473" cy="-177" rx="0.036" ry="0.036"/>
</g>
<!-- ATP&#45;&gt;reaction_2_intermediate_r -->
<g id="edge54" class="edge"><title>ATP&#45;&gt;reaction_2_intermediate_r</title>
<path fill="none" stroke="black" d="M212.172,-174C231.559,-174 264.045,-174 292,-174 292,-174 292,-174 338,-174 396.64,-174 469.678,-176.907 471.946,-176.998"/>
</g>
<!-- reaction_9_intermediate_r -->
<g id="node87" class="node"><title>reaction_9_intermediate_r</title>
<ellipse fill="black" stroke="black" cx="473" cy="-82" rx="0.036" ry="0.036"/>
</g>
<!-- ATP&#45;&gt;reaction_9_intermediate_r -->
<g id="edge94" class="edge"><title>ATP&#45;&gt;reaction_9_intermediate_r</title>
<path fill="none" stroke="black" d="M202.66,-157.975C216.506,-131.616 248.365,-82 292,-82 292,-82 292,-82 338,-82 396.625,-82 469.677,-82 471.946,-82"/>
</g>
<!-- ADP -->
<g id="ADP [CHEBI:16761]" class="node"><title>ADP</title>
<ellipse fill="none" stroke="black" cx="703" cy="-76" rx="18" ry="18"/>
<text text-anchor="middle" x="703" y="-73.5" font-family="Times,serif" font-size="10.00">ADP</text>
</g>
<!-- reaction_5_intermediate_r -->
<g id="node75" class="node"><title>reaction_5_intermediate_r</title>
<ellipse fill="black" stroke="black" cx="1319" cy="-38" rx="0.036" ry="0.036"/>
</g>
<!-- ADP&#45;&gt;reaction_5_intermediate_r -->
<g id="edge72" class="edge"><title>ADP&#45;&gt;reaction_5_intermediate_r</title>
<path fill="none" stroke="black" d="M718.845,-66.9945C738.817,-55.7574 775.788,-38 810,-38 810,-38 810,-38 1184,-38 1242.62,-38 1315.68,-38 1317.95,-38"/>
</g>
<!-- reaction_6_intermediate_r -->
<g id="node78" class="node"><title>reaction_6_intermediate_r</title>
<ellipse fill="black" stroke="black" cx="1569" cy="-120" rx="0.036" ry="0.036"/>
</g>
<!-- ADP&#45;&gt;reaction_6_intermediate_r -->
<g id="edge78" class="edge"><title>ADP&#45;&gt;reaction_6_intermediate_r</title>
<path fill="none" stroke="black" d="M721.258,-76C742.237,-76 778.715,-76 810,-76 810,-76 810,-76 1044,-76 1143.28,-76 1163.72,-120 1263,-120 1263,-120 1263,-120 1434,-120 1492.62,-120 1565.68,-120 1567.95,-120"/>
</g>
<!-- AMP -->
<g id="AMP [CHEBI:16027]" class="node"><title>AMP</title>
<ellipse fill="none" stroke="black" cx="392" cy="-128" rx="18" ry="18"/>
<text text-anchor="middle" x="392" y="-125.5" font-family="Times,serif" font-size="10.00">AMP</text>
</g>
<!-- AMPflow_intermediate_r -->
<g id="node56" class="node"><title>AMPflow_intermediate_r</title>
<ellipse fill="black" stroke="black" cx="473" cy="-111" rx="0.036" ry="0.036"/>
</g>
<!-- AMP&#45;&gt;AMPflow_intermediate_r -->
<g id="edge41" class="edge"><title>AMP&#45;&gt;AMPflow_intermediate_r</title>
<path fill="none" stroke="black" d="M409.754,-124.395C432.219,-119.56 469.574,-111.522 471.887,-111.024"/>
</g>
<!-- reaction_2_intermediate_m -->
<g id="node67" class="node"><title>reaction_2_intermediate_m</title>
<ellipse fill="black" stroke="black" cx="613" cy="-147" rx="0.036" ry="0.036"/>
</g>
<!-- AMP&#45;&gt;reaction_2_intermediate_m -->
<g id="edge59" class="edge"><title>AMP&#45;&gt;reaction_2_intermediate_m</title>
<path fill="none" stroke="black" d="M410.185,-129.491C461.005,-133.9 607.331,-146.595 611.891,-146.991"/>
</g>
<!-- AMP&#45;&gt;reaction_9_intermediate_r -->
<g id="edge93" class="edge"><title>AMP&#45;&gt;reaction_9_intermediate_r</title>
<path fill="none" stroke="black" d="M407.859,-119.348C430.029,-106.439 469.439,-83.491 471.881,-82.0693"/>
</g>
<!-- GLC -->
<g id="GLC [CHEBI:17234]" class="node"><title>GLC</title>
<ellipse fill="none" stroke="black" cx="194" cy="-245" rx="18" ry="18"/>
<text text-anchor="middle" x="194" y="-242.5" font-family="Times,serif" font-size="10.00">GLC</text>
</g>
<!-- GLC&#45;&gt;reaction_1_intermediate_r -->
<g id="edge47" class="edge"><title>GLC&#45;&gt;reaction_1_intermediate_r</title>
<path fill="none" stroke="black" d="M212.061,-245C227.071,-245 246.727,-245 247.941,-245"/>
</g>
<!-- F6P -->
<g id="F6P [CHEBI:20935]" class="node"><title>F6P</title>
<ellipse fill="none" stroke="black" cx="392" cy="-296" rx="18" ry="18"/>
<text text-anchor="middle" x="392" y="-293.5" font-family="Times,serif" font-size="10.00">F6P</text>
</g>
<!-- F6Pflow_intermediate_r -->
<g id="node32" class="node"><title>F6Pflow_intermediate_r</title>
<ellipse fill="black" stroke="black" cx="473" cy="-292" rx="0.036" ry="0.036"/>
</g>
<!-- F6P&#45;&gt;F6Pflow_intermediate_r -->
<g id="edge17" class="edge"><title>F6P&#45;&gt;F6Pflow_intermediate_r</title>
<path fill="none" stroke="black" d="M410.142,-295.132C432.65,-293.992 469.601,-292.121 471.888,-292.006"/>
</g>
<!-- F6P&#45;&gt;reaction_2_intermediate_r -->
<g id="edge53" class="edge"><title>F6P&#45;&gt;reaction_2_intermediate_r</title>
<path fill="none" stroke="black" d="M402.687,-281.408C423.453,-250.128 470.5,-179.26 471.965,-177.053"/>
</g>
<!-- reaction_10_intermediate_r -->
<g id="node90" class="node"><title>reaction_10_intermediate_r</title>
<ellipse fill="black" stroke="black" cx="473" cy="-317" rx="0.036" ry="0.036"/>
</g>
<!-- F6P&#45;&gt;reaction_10_intermediate_r -->
<g id="edge98" class="edge"><title>F6P&#45;&gt;reaction_10_intermediate_r</title>
<path fill="none" stroke="black" d="M409.754,-300.454C432.219,-306.425 469.574,-316.355 471.887,-316.97"/>
</g>
<!-- FBP -->
<g id="FBP [CHEBI:16905]" class="node"><title>FBP</title>
<ellipse fill="none" stroke="black" cx="703" cy="-165" rx="18" ry="18"/>
<text text-anchor="middle" x="703" y="-162.5" font-family="Times,serif" font-size="10.00">FBP</text>
</g>
<!-- FBPflow_intermediate_r -->
<g id="node35" class="node"><title>FBPflow_intermediate_r</title>
<ellipse fill="black" stroke="black" cx="767" cy="-180" rx="0.036" ry="0.036"/>
</g>
<!-- FBP&#45;&gt;FBPflow_intermediate_r -->
<g id="edge20" class="edge"><title>FBP&#45;&gt;FBPflow_intermediate_r</title>
<path fill="none" stroke="black" d="M720.615,-169.02C738.406,-173.324 764.32,-179.593 765.922,-179.981"/>
</g>
<!-- reaction_3_intermediate_r -->
<g id="node69" class="node"><title>reaction_3_intermediate_r</title>
<ellipse fill="black" stroke="black" cx="767" cy="-159" rx="0.036" ry="0.036"/>
</g>
<!-- FBP&#45;&gt;reaction_3_intermediate_r -->
<g id="edge61" class="edge"><title>FBP&#45;&gt;reaction_3_intermediate_r</title>
<path fill="none" stroke="black" d="M720.942,-163.36C738.725,-161.639 764.339,-159.161 765.923,-159.007"/>
</g>
<!-- GAP -->
<g id="GAP [CHEBI:29052]" class="node"><title>GAP</title>
<ellipse fill="none" stroke="black" cx="962" cy="-149" rx="18" ry="18"/>
<text text-anchor="middle" x="962" y="-146.5" font-family="Times,serif" font-size="10.00">GAP</text>
</g>
<!-- GAPflow_intermediate_r -->
<g id="node38" class="node"><title>GAPflow_intermediate_r</title>
<ellipse fill="black" stroke="black" cx="1043" cy="-174" rx="0.036" ry="0.036"/>
</g>
<!-- GAP&#45;&gt;GAPflow_intermediate_r -->
<g id="edge23" class="edge"><title>GAP&#45;&gt;GAPflow_intermediate_r</title>
<path fill="none" stroke="black" d="M979.369,-154.18C1001.79,-161.274 1039.55,-173.224 1041.89,-173.964"/>
</g>
<!-- reaction_4_intermediate_r -->
<g id="node72" class="node"><title>reaction_4_intermediate_r</title>
<ellipse fill="black" stroke="black" cx="1043" cy="-149" rx="0.036" ry="0.036"/>
</g>
<!-- GAP&#45;&gt;reaction_4_intermediate_r -->
<g id="edge65" class="edge"><title>GAP&#45;&gt;reaction_4_intermediate_r</title>
<path fill="none" stroke="black" d="M980.142,-149C1002.65,-149 1039.6,-149 1041.89,-149"/>
</g>
<!-- NAD -->
<g id="NAD [CHEBI:15846]" class="node"><title>NAD</title>
<ellipse fill="none" stroke="black" cx="2316" cy="-168" rx="18" ry="18"/>
<text text-anchor="middle" x="2316" y="-165.5" font-family="Times,serif" font-size="10.00">NAD</text>
</g>
<!-- NAD&#45;&gt;reaction_4_intermediate_r -->
<g id="edge66" class="edge"><title>NAD&#45;&gt;reaction_4_intermediate_r</title>
<path fill="none" stroke="black" d="M2305.14,-153.26C2295.59,-140.083 2279.95,-121.179 2262,-110 2224.28,-86.5009 2210.44,-82 2166,-82 1263,-82 1263,-82 1263,-82 1162.8,-82 1047.66,-146.923 1044.09,-148.951"/>
</g>
<!-- NADH -->
<g id="NADH [CHEBI:16908]" class="node"><title>NADH</title>
<ellipse fill="none" stroke="black" cx="1264" cy="-277" rx="18" ry="18"/>
<text text-anchor="middle" x="1264" y="-274.5" font-family="Times,serif" font-size="10.00">NADH</text>
</g>
<!-- reaction_8_intermediate_r -->
<g id="node84" class="node"><title>reaction_8_intermediate_r</title>
<ellipse fill="black" stroke="black" cx="2095" cy="-218" rx="0.036" ry="0.036"/>
</g>
<!-- NADH&#45;&gt;reaction_8_intermediate_r -->
<g id="edge88" class="edge"><title>NADH&#45;&gt;reaction_8_intermediate_r</title>
<path fill="none" stroke="black" d="M1282.16,-275.864C1301.54,-274.682 1334.02,-273 1362,-273 1362,-273 1362,-273 1934,-273 2008.02,-273 2091.35,-219.705 2093.94,-218.04"/>
</g>
<!-- DPG -->
<g id="DPG [CHEBI:16001]" class="node"><title>DPG</title>
<ellipse fill="none" stroke="black" cx="1264" cy="-166" rx="18" ry="18"/>
<text text-anchor="middle" x="1264" y="-163.5" font-family="Times,serif" font-size="10.00">DPG</text>
</g>
<!-- DPGflow_intermediate_r -->
<g id="node41" class="node"><title>DPGflow_intermediate_r</title>
<ellipse fill="black" stroke="black" cx="1319" cy="-166" rx="0.036" ry="0.036"/>
</g>
<!-- DPG&#45;&gt;DPGflow_intermediate_r -->
<g id="edge26" class="edge"><title>DPG&#45;&gt;DPGflow_intermediate_r</title>
<path fill="none" stroke="black" d="M1282.06,-166C1297.07,-166 1316.73,-166 1317.94,-166"/>
</g>
<!-- DPG&#45;&gt;reaction_5_intermediate_r -->
<g id="edge71" class="edge"><title>DPG&#45;&gt;reaction_5_intermediate_r</title>
<path fill="none" stroke="black" d="M1271.82,-149.528C1285.91,-115.498 1317.01,-40.3946 1317.98,-38.0559"/>
</g>
<!-- PEP -->
<g id="PEP [CHEBI:18021]" class="node"><title>PEP</title>
<ellipse fill="none" stroke="black" cx="1514" cy="-36" rx="18" ry="18"/>
<text text-anchor="middle" x="1514" y="-33.5" font-family="Times,serif" font-size="10.00">PEP</text>
</g>
<!-- PEPflow_intermediate_r -->
<g id="node44" class="node"><title>PEPflow_intermediate_r</title>
<ellipse fill="black" stroke="black" cx="1569" cy="-36" rx="0.036" ry="0.036"/>
</g>
<!-- PEP&#45;&gt;PEPflow_intermediate_r -->
<g id="edge29" class="edge"><title>PEP&#45;&gt;PEPflow_intermediate_r</title>
<path fill="none" stroke="black" d="M1532.06,-36C1547.07,-36 1566.73,-36 1567.94,-36"/>
</g>
<!-- PEP&#45;&gt;reaction_6_intermediate_r -->
<g id="edge77" class="edge"><title>PEP&#45;&gt;reaction_6_intermediate_r</title>
<path fill="none" stroke="black" d="M1524.48,-51.0175C1539.24,-74.4239 1566.25,-117.219 1567.92,-119.871"/>
</g>
<!-- PYR -->
<g id="PYR [CHEBI:15361]" class="node"><title>PYR</title>
<ellipse fill="none" stroke="black" cx="1764" cy="-190" rx="18" ry="18"/>
<text text-anchor="middle" x="1764" y="-187.5" font-family="Times,serif" font-size="10.00">PYR</text>
</g>
<!-- PYRflow_intermediate_r -->
<g id="node47" class="node"><title>PYRflow_intermediate_r</title>
<ellipse fill="black" stroke="black" cx="1819" cy="-186" rx="0.036" ry="0.036"/>
</g>
<!-- PYR&#45;&gt;PYRflow_intermediate_r -->
<g id="edge32" class="edge"><title>PYR&#45;&gt;PYRflow_intermediate_r</title>
<path fill="none" stroke="black" d="M1782.06,-188.712C1797.07,-187.58 1816.73,-186.096 1817.94,-186.004"/>
</g>
<!-- reaction_7_intermediate_r -->
<g id="node81" class="node"><title>reaction_7_intermediate_r</title>
<ellipse fill="black" stroke="black" cx="1819" cy="-207" rx="0.036" ry="0.036"/>
</g>
<!-- PYR&#45;&gt;reaction_7_intermediate_r -->
<g id="edge83" class="edge"><title>PYR&#45;&gt;reaction_7_intermediate_r</title>
<path fill="none" stroke="black" d="M1781.48,-195.286C1796.55,-200.12 1816.7,-206.581 1817.94,-206.981"/>
</g>
<!-- ACA -->
<g id="ACA [CHEBI:15343]" class="node"><title>ACA</title>
<ellipse fill="none" stroke="black" cx="2014" cy="-217" rx="18" ry="18"/>
<text text-anchor="middle" x="2014" y="-214.5" font-family="Times,serif" font-size="10.00">ACA</text>
</g>
<!-- ACAflow_intermediate_r -->
<g id="node50" class="node"><title>ACAflow_intermediate_r</title>
<ellipse fill="black" stroke="black" cx="2095" cy="-137" rx="0.036" ry="0.036"/>
</g>
<!-- ACA&#45;&gt;ACAflow_intermediate_r -->
<g id="edge35" class="edge"><title>ACA&#45;&gt;ACAflow_intermediate_r</title>
<path fill="none" stroke="black" d="M2023.05,-201.261C2032,-185.234 2047.89,-160.709 2068,-146 2077.56,-139.008 2093,-137.117 2093.95,-137.005"/>
</g>
<!-- ACA&#45;&gt;reaction_8_intermediate_r -->
<g id="edge87" class="edge"><title>ACA&#45;&gt;reaction_8_intermediate_r</title>
<path fill="none" stroke="black" d="M2032.14,-217.217C2054.65,-217.502 2091.6,-217.97 2093.89,-217.999"/>
</g>
<!-- EtOH -->
<g id="EtOH [CHEBI:16236]" class="node"><title>EtOH</title>
<ellipse fill="none" stroke="black" cx="2316" cy="-222" rx="18" ry="18"/>
<text text-anchor="middle" x="2316" y="-219.5" font-family="Times,serif" font-size="10.00">EtOH</text>
</g>
<!-- EtOHflow_intermediate_r -->
<g id="node53" class="node"><title>EtOHflow_intermediate_r</title>
<ellipse fill="black" stroke="black" cx="2370" cy="-222" rx="0.036" ry="0.036"/>
</g>
<!-- EtOH&#45;&gt;EtOHflow_intermediate_r -->
<g id="edge38" class="edge"><title>EtOH&#45;&gt;EtOHflow_intermediate_r</title>
<path fill="none" stroke="black" d="M2334.03,-222C2348.72,-222 2367.77,-222 2368.94,-222"/>
</g>
<!-- P -->
<g id="P" class="node"><title>P</title>
<ellipse fill="none" stroke="black" cx="703" cy="-324" rx="27" ry="18"/>
<text text-anchor="middle" x="703" y="-321.5" font-family="Times,serif" font-size="10.00">P</text>
</g>
<!-- Pflow_intermediate_r -->
<g id="node59" class="node"><title>Pflow_intermediate_r</title>
<ellipse fill="black" stroke="black" cx="767" cy="-324" rx="0.036" ry="0.036"/>
</g>
<!-- P&#45;&gt;Pflow_intermediate_r -->
<g id="edge44" class="edge"><title>P&#45;&gt;Pflow_intermediate_r</title>
<path fill="none" stroke="black" d="M730.294,-324C746.664,-324 764.826,-324 765.946,-324"/>
</g>
<!-- ATPflow -->
<g id="node16" class="node"><title>ATPflow</title>
<polygon fill="none" stroke="black" points="104,-181 90,-181 90,-167 104,-167 104,-181"/>
</g>
<!-- ATPflow_intermediate_p -->
<g id="node18" class="node"><title>ATPflow_intermediate_p</title>
<ellipse fill="black" stroke="black" cx="140" cy="-174" rx="0.036" ry="0.036"/>
</g>
<!-- ATPflow&#45;&gt;ATPflow_intermediate_p -->
<g id="edge2" class="edge"><title>ATPflow&#45;&gt;ATPflow_intermediate_p</title>
<path fill="none" stroke="black" d="M104.05,-174C115.098,-174 137.54,-174 138.932,-174"/>
</g>
<!-- ATPflow_empty -->
<g id="node17" class="node"><title>ATPflow_empty</title>
<text text-anchor="middle" x="27" y="-170.5" font-family="Times,serif" font-size="15.00" fill="blue">Ø</text>
</g>
<!-- ATPflow_empty&#45;&gt;ATPflow -->
<g id="edge1" class="edge"><title>ATPflow_empty&#45;&gt;ATPflow</title>
<path fill="none" stroke="black" d="M54.0961,-174C67.13,-174 81.8045,-174 89.8681,-174"/>
</g>
<!-- ATPflow_intermediate_p&#45;&gt;ATP -->
<g id="edge3" class="edge"><title>ATPflow_intermediate_p&#45;&gt;ATP</title>
<path fill="none" stroke="black" d="M141.149,-174C142.568,-174 153.891,-174 165.595,-174"/>
<polygon fill="black" stroke="black" points="165.739,-177.5 175.739,-174 165.739,-170.5 165.739,-177.5"/>
</g>
<!-- ADPflow -->
<g id="node19" class="node"><title>ADPflow</title>
<polygon fill="none" stroke="black" points="550,-50 536,-50 536,-36 550,-36 550,-50"/>
</g>
<!-- ADPflow_intermediate_p -->
<g id="node21" class="node"><title>ADPflow_intermediate_p</title>
<ellipse fill="black" stroke="black" cx="613" cy="-50" rx="0.036" ry="0.036"/>
</g>
<!-- ADPflow&#45;&gt;ADPflow_intermediate_p -->
<g id="edge5" class="edge"><title>ADPflow&#45;&gt;ADPflow_intermediate_p</title>
<path fill="none" stroke="black" d="M550.275,-43.646C566.583,-45.3248 609.222,-49.714 611.871,-49.9867"/>
</g>
<!-- ADPflow_empty -->
<g id="node20" class="node"><title>ADPflow_empty</title>
<text text-anchor="middle" x="473" y="-42.5" font-family="Times,serif" font-size="15.00" fill="blue">Ø</text>
</g>
<!-- ADPflow_empty&#45;&gt;ADPflow -->
<g id="edge4" class="edge"><title>ADPflow_empty&#45;&gt;ADPflow</title>
<path fill="none" stroke="black" d="M500.096,-44.8487C513.13,-44.2737 527.805,-43.6263 535.868,-43.2705"/>
</g>
<!-- ADPflow_intermediate_p&#45;&gt;ADP -->
<g id="edge6" class="edge"><title>ADPflow_intermediate_p&#45;&gt;ADP</title>
<path fill="none" stroke="black" d="M614.064,-50.0188C615.747,-50.5162 650.396,-60.7533 675.689,-68.2262"/>
<polygon fill="black" stroke="black" points="674.918,-71.6479 685.5,-71.1249 676.901,-64.9348 674.918,-71.6479"/>
</g>
<!-- NADHflow -->
<g id="node22" class="node"><title>NADHflow</title>
<polygon fill="none" stroke="black" points="1120,-284 1106,-284 1106,-270 1120,-270 1120,-284"/>
</g>
<!-- NADHflow_intermediate_p -->
<g id="node24" class="node"><title>NADHflow_intermediate_p</title>
<ellipse fill="black" stroke="black" cx="1183" cy="-277" rx="0.036" ry="0.036"/>
</g>
<!-- NADHflow&#45;&gt;NADHflow_intermediate_p -->
<g id="edge8" class="edge"><title>NADHflow&#45;&gt;NADHflow_intermediate_p</title>
<path fill="none" stroke="black" d="M1120.28,-277C1136.58,-277 1179.22,-277 1181.87,-277"/>
</g>
<!-- NADHflow_empty -->
<g id="node23" class="node"><title>NADHflow_empty</title>
<text text-anchor="middle" x="1043" y="-273.5" font-family="Times,serif" font-size="15.00" fill="blue">Ø</text>
</g>
<!-- NADHflow_empty&#45;&gt;NADHflow -->
<g id="edge7" class="edge"><title>NADHflow_empty&#45;&gt;NADHflow</title>
<path fill="none" stroke="black" d="M1070.1,-277C1083.13,-277 1097.8,-277 1105.87,-277"/>
</g>
<!-- NADHflow_intermediate_p&#45;&gt;NADH -->
<g id="edge9" class="edge"><title>NADHflow_intermediate_p&#45;&gt;NADH</title>
<path fill="none" stroke="black" d="M1184.06,-277C1185.49,-277 1213.65,-277 1235.93,-277"/>
<polygon fill="black" stroke="black" points="1235.94,-280.5 1245.94,-277 1235.94,-273.5 1235.94,-280.5"/>
</g>
<!-- NADflow -->
<g id="node25" class="node"><title>NADflow</title>
<polygon fill="none" stroke="black" points="2172,-180 2158,-180 2158,-166 2172,-166 2172,-180"/>
</g>
<!-- NADflow_intermediate_p -->
<g id="node27" class="node"><title>NADflow_intermediate_p</title>
<ellipse fill="black" stroke="black" cx="2235" cy="-173" rx="0.036" ry="0.036"/>
</g>
<!-- NADflow&#45;&gt;NADflow_intermediate_p -->
<g id="edge11" class="edge"><title>NADflow&#45;&gt;NADflow_intermediate_p</title>
<path fill="none" stroke="black" d="M2172.28,-173C2188.58,-173 2231.22,-173 2233.87,-173"/>
</g>
<!-- NADflow_empty -->
<g id="node26" class="node"><title>NADflow_empty</title>
<text text-anchor="middle" x="2095" y="-169.5" font-family="Times,serif" font-size="15.00" fill="blue">Ø</text>
</g>
<!-- NADflow_empty&#45;&gt;NADflow -->
<g id="edge10" class="edge"><title>NADflow_empty&#45;&gt;NADflow</title>
<path fill="none" stroke="black" d="M2122.1,-173C2135.13,-173 2149.8,-173 2157.87,-173"/>
</g>
<!-- NADflow_intermediate_p&#45;&gt;NAD -->
<g id="edge12" class="edge"><title>NADflow_intermediate_p&#45;&gt;NAD</title>
<path fill="none" stroke="black" d="M2236.06,-172.996C2237.49,-172.905 2265.65,-171.124 2287.93,-169.713"/>
<polygon fill="black" stroke="black" points="2288.18,-173.204 2297.94,-169.08 2287.74,-166.218 2288.18,-173.204"/>
</g>
<!-- GLCflow -->
<g id="node28" class="node"><title>GLCflow</title>
<polygon fill="none" stroke="black" points="104,-252 90,-252 90,-238 104,-238 104,-252"/>
</g>
<!-- GLCflow_intermediate_p -->
<g id="node30" class="node"><title>GLCflow_intermediate_p</title>
<ellipse fill="black" stroke="black" cx="140" cy="-245" rx="0.036" ry="0.036"/>
</g>
<!-- GLCflow&#45;&gt;GLCflow_intermediate_p -->
<g id="edge14" class="edge"><title>GLCflow&#45;&gt;GLCflow_intermediate_p</title>
<path fill="none" stroke="black" d="M104.05,-245C115.098,-245 137.54,-245 138.932,-245"/>
</g>
<!-- GLCflow_empty -->
<g id="node29" class="node"><title>GLCflow_empty</title>
<text text-anchor="middle" x="27" y="-241.5" font-family="Times,serif" font-size="15.00" fill="blue">Ø</text>
</g>
<!-- GLCflow_empty&#45;&gt;GLCflow -->
<g id="edge13" class="edge"><title>GLCflow_empty&#45;&gt;GLCflow</title>
<path fill="none" stroke="black" d="M54.0961,-245C67.13,-245 81.8045,-245 89.8681,-245"/>
</g>
<!-- GLCflow_intermediate_p&#45;&gt;GLC -->
<g id="edge15" class="edge"><title>GLCflow_intermediate_p&#45;&gt;GLC</title>
<path fill="none" stroke="black" d="M141.149,-245C142.568,-245 153.891,-245 165.595,-245"/>
<polygon fill="black" stroke="black" points="165.739,-248.5 175.739,-245 165.739,-241.5 165.739,-248.5"/>
</g>
<!-- F6Pflow -->
<g id="node31" class="node"><title>F6Pflow</title>
<polygon fill="none" stroke="black" points="550,-296 536,-296 536,-282 550,-282 550,-296"/>
</g>
<!-- F6Pflow_empty -->
<g id="node33" class="node"><title>F6Pflow_empty</title>
<text text-anchor="middle" x="613" y="-284.5" font-family="Times,serif" font-size="15.00" fill="blue">Ø</text>
</g>
<!-- F6Pflow&#45;&gt;F6Pflow_empty -->
<g id="edge18" class="edge"><title>F6Pflow&#45;&gt;F6Pflow_empty</title>
<path fill="none" stroke="black" d="M550.275,-288.908C556.278,-288.819 565.849,-288.679 575.68,-288.534"/>
<polygon fill="black" stroke="black" points="575.932,-292.031 585.88,-288.384 575.829,-285.032 575.932,-292.031"/>
</g>
<!-- F6Pflow_intermediate_r&#45;&gt;F6Pflow -->
<g id="edge16" class="edge"><title>F6Pflow_intermediate_r&#45;&gt;F6Pflow</title>
<path fill="none" stroke="black" d="M474.049,-291.998C475.722,-291.924 519.535,-289.991 535.906,-289.269"/>
</g>
<!-- FBPflow -->
<g id="node34" class="node"><title>FBPflow</title>
<polygon fill="none" stroke="black" points="818,-191 804,-191 804,-177 818,-177 818,-191"/>
</g>
<!-- FBPflow_empty -->
<g id="node36" class="node"><title>FBPflow_empty</title>
<text text-anchor="middle" x="881" y="-181.5" font-family="Times,serif" font-size="15.00" fill="blue">Ø</text>
</g>
<!-- FBPflow&#45;&gt;FBPflow_empty -->
<g id="edge21" class="edge"><title>FBPflow&#45;&gt;FBPflow_empty</title>
<path fill="none" stroke="black" d="M818.275,-184.092C824.278,-184.181 833.849,-184.321 843.68,-184.466"/>
<polygon fill="black" stroke="black" points="843.829,-187.968 853.88,-184.616 843.932,-180.969 843.829,-187.968"/>
</g>
<!-- FBPflow_intermediate_r&#45;&gt;FBPflow -->
<g id="edge19" class="edge"><title>FBPflow_intermediate_r&#45;&gt;FBPflow</title>
<path fill="none" stroke="black" d="M768.12,-180.011C769.968,-180.187 792.602,-182.343 803.803,-183.41"/>
</g>
<!-- GAPflow -->
<g id="node37" class="node"><title>GAPflow</title>
<polygon fill="none" stroke="black" points="1120,-190 1106,-190 1106,-176 1120,-176 1120,-190"/>
</g>
<!-- GAPflow_empty -->
<g id="node39" class="node"><title>GAPflow_empty</title>
<text text-anchor="middle" x="1183" y="-181.5" font-family="Times,serif" font-size="15.00" fill="blue">Ø</text>
</g>
<!-- GAPflow&#45;&gt;GAPflow_empty -->
<g id="edge24" class="edge"><title>GAPflow&#45;&gt;GAPflow_empty</title>
<path fill="none" stroke="black" d="M1120.28,-183.185C1126.28,-183.361 1135.85,-183.643 1145.68,-183.932"/>
<polygon fill="black" stroke="black" points="1145.78,-187.436 1155.88,-184.232 1145.99,-180.439 1145.78,-187.436"/>
</g>
<!-- GAPflow_intermediate_r&#45;&gt;GAPflow -->
<g id="edge22" class="edge"><title>GAPflow_intermediate_r&#45;&gt;GAPflow</title>
<path fill="none" stroke="black" d="M1044.05,-174.007C1045.72,-174.228 1089.53,-180.027 1105.91,-182.193"/>
</g>
<!-- DPGflow -->
<g id="node40" class="node"><title>DPGflow</title>
<polygon fill="none" stroke="black" points="1370,-173 1356,-173 1356,-159 1370,-159 1370,-173"/>
</g>
<!-- DPGflow_empty -->
<g id="node42" class="node"><title>DPGflow_empty</title>
<text text-anchor="middle" x="1433" y="-162.5" font-family="Times,serif" font-size="15.00" fill="blue">Ø</text>
</g>
<!-- DPGflow&#45;&gt;DPGflow_empty -->
<g id="edge27" class="edge"><title>DPGflow&#45;&gt;DPGflow_empty</title>
<path fill="none" stroke="black" d="M1370.28,-166C1376.28,-166 1385.85,-166 1395.68,-166"/>
<polygon fill="black" stroke="black" points="1395.88,-169.5 1405.88,-166 1395.88,-162.5 1395.88,-169.5"/>
</g>
<!-- DPGflow_intermediate_r&#45;&gt;DPGflow -->
<g id="edge25" class="edge"><title>DPGflow_intermediate_r&#45;&gt;DPGflow</title>
<path fill="none" stroke="black" d="M1320.12,-166C1321.97,-166 1344.6,-166 1355.8,-166"/>
</g>
<!-- PEPflow -->
<g id="node43" class="node"><title>PEPflow</title>
<polygon fill="none" stroke="black" points="1620,-43 1606,-43 1606,-29 1620,-29 1620,-43"/>
</g>
<!-- PEPflow_empty -->
<g id="node45" class="node"><title>PEPflow_empty</title>
<text text-anchor="middle" x="1683" y="-32.5" font-family="Times,serif" font-size="15.00" fill="blue">Ø</text>
</g>
<!-- PEPflow&#45;&gt;PEPflow_empty -->
<g id="edge30" class="edge"><title>PEPflow&#45;&gt;PEPflow_empty</title>
<path fill="none" stroke="black" d="M1620.28,-36C1626.28,-36 1635.85,-36 1645.68,-36"/>
<polygon fill="black" stroke="black" points="1645.88,-39.5001 1655.88,-36 1645.88,-32.5001 1645.88,-39.5001"/>
</g>
<!-- PEPflow_intermediate_r&#45;&gt;PEPflow -->
<g id="edge28" class="edge"><title>PEPflow_intermediate_r&#45;&gt;PEPflow</title>
<path fill="none" stroke="black" d="M1570.12,-36C1571.97,-36 1594.6,-36 1605.8,-36"/>
</g>
<!-- PYRflow -->
<g id="node46" class="node"><title>PYRflow</title>
<polygon fill="none" stroke="black" points="1870,-189 1856,-189 1856,-175 1870,-175 1870,-189"/>
</g>
<!-- PYRflow_empty -->
<g id="node48" class="node"><title>PYRflow_empty</title>
<text text-anchor="middle" x="1933" y="-177.5" font-family="Times,serif" font-size="15.00" fill="blue">Ø</text>
</g>
<!-- PYRflow&#45;&gt;PYRflow_empty -->
<g id="edge33" class="edge"><title>PYRflow&#45;&gt;PYRflow_empty</title>
<path fill="none" stroke="black" d="M1870.28,-181.908C1876.28,-181.819 1885.85,-181.679 1895.68,-181.534"/>
<polygon fill="black" stroke="black" points="1895.93,-185.031 1905.88,-181.384 1895.83,-178.032 1895.93,-185.031"/>
</g>
<!-- PYRflow_intermediate_r&#45;&gt;PYRflow -->
<g id="edge31" class="edge"><title>PYRflow_intermediate_r&#45;&gt;PYRflow</title>
<path fill="none" stroke="black" d="M1820.12,-185.989C1821.97,-185.813 1844.6,-183.657 1855.8,-182.59"/>
</g>
<!-- ACAflow -->
<g id="node49" class="node"><title>ACAflow</title>
<polygon fill="none" stroke="black" points="2172,-144 2158,-144 2158,-130 2172,-130 2172,-144"/>
</g>
<!-- ACAflow_empty -->
<g id="node51" class="node"><title>ACAflow_empty</title>
<text text-anchor="middle" x="2235" y="-133.5" font-family="Times,serif" font-size="15.00" fill="blue">Ø</text>
</g>
<!-- ACAflow&#45;&gt;ACAflow_empty -->
<g id="edge36" class="edge"><title>ACAflow&#45;&gt;ACAflow_empty</title>
<path fill="none" stroke="black" d="M2172.28,-137C2178.28,-137 2187.85,-137 2197.68,-137"/>
<polygon fill="black" stroke="black" points="2197.88,-140.5 2207.88,-137 2197.88,-133.5 2197.88,-140.5"/>
</g>
<!-- ACAflow_intermediate_r&#45;&gt;ACAflow -->
<g id="edge34" class="edge"><title>ACAflow_intermediate_r&#45;&gt;ACAflow</title>
<path fill="none" stroke="black" d="M2096.05,-137C2097.72,-137 2141.53,-137 2157.91,-137"/>
</g>
<!-- EtOHflow -->
<g id="node52" class="node"><title>EtOHflow</title>
<polygon fill="none" stroke="black" points="2420,-229 2406,-229 2406,-215 2420,-215 2420,-229"/>
</g>
<!-- EtOHflow_empty -->
<g id="node54" class="node"><title>EtOHflow_empty</title>
<text text-anchor="middle" x="2483" y="-218.5" font-family="Times,serif" font-size="15.00" fill="blue">Ø</text>
</g>
<!-- EtOHflow&#45;&gt;EtOHflow_empty -->
<g id="edge39" class="edge"><title>EtOHflow&#45;&gt;EtOHflow_empty</title>
<path fill="none" stroke="black" d="M2420.28,-222C2426.28,-222 2435.85,-222 2445.68,-222"/>
<polygon fill="black" stroke="black" points="2445.88,-225.5 2455.88,-222 2445.88,-218.5 2445.88,-225.5"/>
</g>
<!-- EtOHflow_intermediate_r&#45;&gt;EtOHflow -->
<g id="edge37" class="edge"><title>EtOHflow_intermediate_r&#45;&gt;EtOHflow</title>
<path fill="none" stroke="black" d="M2371.12,-222C2372.92,-222 2395.02,-222 2405.95,-222"/>
</g>
<!-- AMPflow -->
<g id="node55" class="node"><title>AMPflow</title>
<polygon fill="none" stroke="black" points="550,-114 536,-114 536,-100 550,-100 550,-114"/>
</g>
<!-- AMPflow_empty -->
<g id="node57" class="node"><title>AMPflow_empty</title>
<text text-anchor="middle" x="613" y="-107.5" font-family="Times,serif" font-size="15.00" fill="blue">Ø</text>
</g>
<!-- AMPflow&#45;&gt;AMPflow_empty -->
<g id="edge42" class="edge"><title>AMPflow&#45;&gt;AMPflow_empty</title>
<path fill="none" stroke="black" d="M550.275,-107.369C556.278,-107.722 565.849,-108.285 575.68,-108.864"/>
<polygon fill="black" stroke="black" points="575.691,-112.37 585.88,-109.464 576.102,-105.382 575.691,-112.37"/>
</g>
<!-- AMPflow_intermediate_r&#45;&gt;AMPflow -->
<g id="edge40" class="edge"><title>AMPflow_intermediate_r&#45;&gt;AMPflow</title>
<path fill="none" stroke="black" d="M474.049,-110.997C475.722,-110.899 519.535,-108.321 535.906,-107.358"/>
</g>
<!-- Pflow -->
<g id="node58" class="node"><title>Pflow</title>
<polygon fill="none" stroke="black" points="818,-331 804,-331 804,-317 818,-317 818,-331"/>
</g>
<!-- Pflow_empty -->
<g id="node60" class="node"><title>Pflow_empty</title>
<text text-anchor="middle" x="881" y="-320.5" font-family="Times,serif" font-size="15.00" fill="blue">Ø</text>
</g>
<!-- Pflow&#45;&gt;Pflow_empty -->
<g id="edge45" class="edge"><title>Pflow&#45;&gt;Pflow_empty</title>
<path fill="none" stroke="black" d="M818.275,-324C824.278,-324 833.849,-324 843.68,-324"/>
<polygon fill="black" stroke="black" points="843.88,-327.5 853.88,-324 843.88,-320.5 843.88,-327.5"/>
</g>
<!-- Pflow_intermediate_r&#45;&gt;Pflow -->
<g id="edge43" class="edge"><title>Pflow_intermediate_r&#45;&gt;Pflow</title>
<path fill="none" stroke="black" d="M768.12,-324C769.968,-324 792.602,-324 803.803,-324"/>
</g>
<!-- reaction_1 -->
<g id="node61" class="node"><title>reaction_1</title>
<polygon fill="none" stroke="black" points="300,-256 286,-256 286,-242 300,-242 300,-256"/>
</g>
<!-- reaction_1_intermediate_p -->
<g id="node63" class="node"><title>reaction_1_intermediate_p</title>
<ellipse fill="black" stroke="black" cx="337" cy="-250" rx="0.036" ry="0.036"/>
</g>
<!-- reaction_1&#45;&gt;reaction_1_intermediate_p -->
<g id="edge49" class="edge"><title>reaction_1&#45;&gt;reaction_1_intermediate_p</title>
<path fill="none" stroke="black" d="M300.197,-249.148C311.515,-249.417 334.505,-249.964 335.93,-249.998"/>
</g>
<!-- reaction_1_intermediate_r&#45;&gt;reaction_1 -->
<g id="edge46" class="edge"><title>reaction_1_intermediate_r&#45;&gt;reaction_1</title>
<path fill="none" stroke="black" d="M250.12,-245.011C251.968,-245.187 274.602,-247.343 285.803,-248.41"/>
</g>
<!-- reaction_1_intermediate_p&#45;&gt;F6P -->
<g id="edge50" class="edge"><title>reaction_1_intermediate_p&#45;&gt;F6P</title>
<path fill="none" stroke="black" d="M338.152,-250.132C339.878,-251.63 355.973,-265.599 369.952,-277.732"/>
<polygon fill="black" stroke="black" points="367.967,-280.644 377.814,-284.555 372.556,-275.357 367.967,-280.644"/>
</g>
<!-- reaction_1_intermediate_p&#45;&gt;ADP -->
<g id="edge51" class="edge"><title>reaction_1_intermediate_p&#45;&gt;ADP</title>
<path fill="none" stroke="black" d="M338.138,-250.003C343.915,-250.14 529.64,-253.896 640,-174 665.002,-155.9 682.294,-124.331 692.144,-101.918"/>
<polygon fill="black" stroke="black" points="695.394,-103.218 696.029,-92.6419 688.937,-100.514 695.394,-103.218"/>
</g>
<!-- reaction_2 -->
<g id="node64" class="node"><title>reaction_2</title>
<polygon fill="none" stroke="black" points="550,-184 536,-184 536,-170 550,-170 550,-184"/>
</g>
<!-- reaction_2_intermediate_p -->
<g id="node66" class="node"><title>reaction_2_intermediate_p</title>
<ellipse fill="black" stroke="black" cx="613" cy="-165" rx="0.036" ry="0.036"/>
</g>
<!-- reaction_2&#45;&gt;reaction_2_intermediate_p -->
<g id="edge55" class="edge"><title>reaction_2&#45;&gt;reaction_2_intermediate_p</title>
<path fill="none" stroke="black" d="M550.275,-175.893C566.583,-173.015 609.222,-165.49 611.871,-165.023"/>
</g>
<!-- reaction_2&#45;&gt;reaction_2_intermediate_m -->
<g id="edge58" class="edge"><title>reaction_2&#45;&gt;reaction_2_intermediate_m</title>
<path fill="none" stroke="black" d="M550.143,-173.61C558.222,-169.227 572.926,-161.504 586,-156 596.566,-151.552 610.172,-147.534 611.832,-147.049"/>
</g>
<!-- reaction_2_intermediate_r&#45;&gt;reaction_2 -->
<g id="edge52" class="edge"><title>reaction_2_intermediate_r&#45;&gt;reaction_2</title>
<path fill="none" stroke="black" d="M474.049,-177C475.722,-177 519.535,-177 535.906,-177"/>
</g>
<!-- reaction_2_intermediate_p&#45;&gt;FBP -->
<g id="edge56" class="edge"><title>reaction_2_intermediate_p&#45;&gt;FBP</title>
<path fill="none" stroke="black" d="M614.064,-165C615.721,-165 649.346,-165 674.524,-165"/>
<polygon fill="black" stroke="black" points="674.68,-168.5 684.68,-165 674.68,-161.5 674.68,-168.5"/>
</g>
<!-- reaction_2_intermediate_p&#45;&gt;ADP -->
<g id="edge57" class="edge"><title>reaction_2_intermediate_p&#45;&gt;ADP</title>
<path fill="none" stroke="black" d="M614.046,-164.994C614.998,-164.878 630.375,-162.906 640,-156 660.547,-141.258 677.586,-117.809 688.568,-100.101"/>
<polygon fill="black" stroke="black" points="691.618,-101.82 693.745,-91.4404 685.61,-98.2277 691.618,-101.82"/>
</g>
<!-- reaction_3 -->
<g id="node68" class="node"><title>reaction_3</title>
<polygon fill="none" stroke="black" points="818,-158 804,-158 804,-144 818,-144 818,-158"/>
</g>
<!-- reaction_3_intermediate_p -->
<g id="node70" class="node"><title>reaction_3_intermediate_p</title>
<ellipse fill="black" stroke="black" cx="881" cy="-149" rx="0.036" ry="0.036"/>
</g>
<!-- reaction_3&#45;&gt;reaction_3_intermediate_p -->
<g id="edge62" class="edge"><title>reaction_3&#45;&gt;reaction_3_intermediate_p</title>
<path fill="none" stroke="black" d="M818.275,-150.815C834.583,-150.336 877.222,-149.082 879.871,-149.004"/>
</g>
<!-- reaction_3_intermediate_r&#45;&gt;reaction_3 -->
<g id="edge60" class="edge"><title>reaction_3_intermediate_r&#45;&gt;reaction_3</title>
<path fill="none" stroke="black" d="M768.12,-158.977C769.968,-158.625 792.602,-154.314 803.803,-152.18"/>
</g>
<!-- reaction_3_intermediate_p&#45;&gt;GAP -->
<g id="edge63" class="edge"><title>reaction_3_intermediate_p&#45;&gt;GAP</title>
<path fill="none" stroke="black" d="M882.057,-149C883.493,-149 911.648,-149 933.929,-149"/>
<polygon fill="black" stroke="black" points="933.943,-152.5 943.943,-149 933.943,-145.5 933.943,-152.5"/>
</g>
<!-- reaction_4 -->
<g id="node71" class="node"><title>reaction_4</title>
<polygon fill="none" stroke="black" points="1120,-156 1106,-156 1106,-142 1120,-142 1120,-156"/>
</g>
<!-- reaction_4_intermediate_p -->
<g id="node73" class="node"><title>reaction_4_intermediate_p</title>
<ellipse fill="black" stroke="black" cx="1183" cy="-149" rx="0.036" ry="0.036"/>
</g>
<!-- reaction_4&#45;&gt;reaction_4_intermediate_p -->
<g id="edge67" class="edge"><title>reaction_4&#45;&gt;reaction_4_intermediate_p</title>
<path fill="none" stroke="black" d="M1120.28,-149C1136.58,-149 1179.22,-149 1181.87,-149"/>
</g>
<!-- reaction_4_intermediate_r&#45;&gt;reaction_4 -->
<g id="edge64" class="edge"><title>reaction_4_intermediate_r&#45;&gt;reaction_4</title>
<path fill="none" stroke="black" d="M1044.05,-149C1045.72,-149 1089.53,-149 1105.91,-149"/>
</g>
<!-- reaction_4_intermediate_p&#45;&gt;DPG -->
<g id="edge68" class="edge"><title>reaction_4_intermediate_p&#45;&gt;DPG</title>
<path fill="none" stroke="black" d="M1184.06,-149.012C1185.5,-149.323 1213.97,-155.448 1236.3,-160.255"/>
<polygon fill="black" stroke="black" points="1235.81,-163.729 1246.32,-162.412 1237.28,-156.886 1235.81,-163.729"/>
</g>
<!-- reaction_4_intermediate_p&#45;&gt;NADH -->
<g id="edge69" class="edge"><title>reaction_4_intermediate_p&#45;&gt;NADH</title>
<path fill="none" stroke="black" d="M1184.05,-149.002C1185.05,-149.053 1201.27,-149.99 1210,-158 1236.63,-182.435 1250.66,-222.728 1257.45,-249.563"/>
<polygon fill="black" stroke="black" points="1254.08,-250.539 1259.78,-259.47 1260.9,-248.934 1254.08,-250.539"/>
</g>
<!-- reaction_5 -->
<g id="node74" class="node"><title>reaction_5</title>
<polygon fill="none" stroke="black" points="1370,-43 1356,-43 1356,-29 1370,-29 1370,-43"/>
</g>
<!-- reaction_5_intermediate_p -->
<g id="node76" class="node"><title>reaction_5_intermediate_p</title>
<ellipse fill="black" stroke="black" cx="1433" cy="-36" rx="0.036" ry="0.036"/>
</g>
<!-- reaction_5&#45;&gt;reaction_5_intermediate_p -->
<g id="edge73" class="edge"><title>reaction_5&#45;&gt;reaction_5_intermediate_p</title>
<path fill="none" stroke="black" d="M1370.28,-36C1386.58,-36 1429.22,-36 1431.87,-36"/>
</g>
<!-- reaction_5_intermediate_r&#45;&gt;reaction_5 -->
<g id="edge70" class="edge"><title>reaction_5_intermediate_r&#45;&gt;reaction_5</title>
<path fill="none" stroke="black" d="M1320.12,-37.9943C1321.97,-37.9063 1344.6,-36.8285 1355.8,-36.2951"/>
</g>
<!-- reaction_5_intermediate_p&#45;&gt;PEP -->
<g id="edge74" class="edge"><title>reaction_5_intermediate_p&#45;&gt;PEP</title>
<path fill="none" stroke="black" d="M1434.06,-36C1435.49,-36 1463.65,-36 1485.93,-36"/>
<polygon fill="black" stroke="black" points="1485.94,-39.5001 1495.94,-36 1485.94,-32.5001 1485.94,-39.5001"/>
</g>
<!-- reaction_5_intermediate_p&#45;&gt;ATP -->
<g id="edge75" class="edge"><title>reaction_5_intermediate_p&#45;&gt;ATP</title>
<path fill="none" stroke="black" d="M1431.96,-35.9739C1430.14,-34.8838 1371.47,-0 1320,-0 292,-0 292,-0 292,-0 225.947,-0 204.462,-96.8443 197.81,-146.033"/>
<polygon fill="black" stroke="black" points="194.327,-145.68 196.574,-156.034 201.274,-146.539 194.327,-145.68"/>
</g>
<!-- reaction_6 -->
<g id="node77" class="node"><title>reaction_6</title>
<polygon fill="none" stroke="black" points="1620,-165 1606,-165 1606,-151 1620,-151 1620,-165"/>
</g>
<!-- reaction_6_intermediate_p -->
<g id="node79" class="node"><title>reaction_6_intermediate_p</title>
<ellipse fill="black" stroke="black" cx="1683" cy="-190" rx="0.036" ry="0.036"/>
</g>
<!-- reaction_6&#45;&gt;reaction_6_intermediate_p -->
<g id="edge79" class="edge"><title>reaction_6&#45;&gt;reaction_6_intermediate_p</title>
<path fill="none" stroke="black" d="M1620.28,-160.953C1636.58,-168.627 1679.22,-188.693 1681.87,-189.939"/>
</g>
<!-- reaction_6_intermediate_r&#45;&gt;reaction_6 -->
<g id="edge76" class="edge"><title>reaction_6_intermediate_r&#45;&gt;reaction_6</title>
<path fill="none" stroke="black" d="M1570.12,-120.109C1571.97,-121.781 1594.6,-142.259 1605.8,-152.393"/>
</g>
<!-- reaction_6_intermediate_p&#45;&gt;PYR -->
<g id="edge80" class="edge"><title>reaction_6_intermediate_p&#45;&gt;PYR</title>
<path fill="none" stroke="black" d="M1684.06,-190C1685.49,-190 1713.65,-190 1735.93,-190"/>
<polygon fill="black" stroke="black" points="1735.94,-193.5 1745.94,-190 1735.94,-186.5 1735.94,-193.5"/>
</g>
<!-- reaction_6_intermediate_p&#45;&gt;ATP -->
<g id="edge81" class="edge"><title>reaction_6_intermediate_p&#45;&gt;ATP</title>
<path fill="none" stroke="black" d="M1681.96,-190.03C1680.16,-191.271 1622.18,-231 1570,-231 702,-231 702,-231 702,-231 600.315,-231 575.685,-212 474,-212 292,-212 292,-212 292,-212 265.388,-212 237.322,-199.446 218.266,-188.77"/>
<polygon fill="black" stroke="black" points="219.826,-185.627 209.429,-183.589 216.286,-191.666 219.826,-185.627"/>
</g>
<!-- reaction_7 -->
<g id="node80" class="node"><title>reaction_7</title>
<polygon fill="none" stroke="black" points="1870,-222 1856,-222 1856,-208 1870,-208 1870,-222"/>
</g>
<!-- reaction_7_intermediate_p -->
<g id="node82" class="node"><title>reaction_7_intermediate_p</title>
<ellipse fill="black" stroke="black" cx="1933" cy="-217" rx="0.036" ry="0.036"/>
</g>
<!-- reaction_7&#45;&gt;reaction_7_intermediate_p -->
<g id="edge84" class="edge"><title>reaction_7&#45;&gt;reaction_7_intermediate_p</title>
<path fill="none" stroke="black" d="M1870.28,-215.185C1886.58,-215.664 1929.22,-216.918 1931.87,-216.996"/>
</g>
<!-- reaction_7_intermediate_r&#45;&gt;reaction_7 -->
<g id="edge82" class="edge"><title>reaction_7_intermediate_r&#45;&gt;reaction_7</title>
<path fill="none" stroke="black" d="M1820.12,-207.023C1821.97,-207.375 1844.6,-211.686 1855.8,-213.82"/>
</g>
<!-- reaction_7_intermediate_p&#45;&gt;ACA -->
<g id="edge85" class="edge"><title>reaction_7_intermediate_p&#45;&gt;ACA</title>
<path fill="none" stroke="black" d="M1934.06,-217C1935.49,-217 1963.65,-217 1985.93,-217"/>
<polygon fill="black" stroke="black" points="1985.94,-220.5 1995.94,-217 1985.94,-213.5 1985.94,-220.5"/>
</g>
<!-- reaction_8 -->
<g id="node83" class="node"><title>reaction_8</title>
<polygon fill="none" stroke="black" points="2172,-225 2158,-225 2158,-211 2172,-211 2172,-225"/>
</g>
<!-- reaction_8_intermediate_p -->
<g id="node85" class="node"><title>reaction_8_intermediate_p</title>
<ellipse fill="black" stroke="black" cx="2235" cy="-218" rx="0.036" ry="0.036"/>
</g>
<!-- reaction_8&#45;&gt;reaction_8_intermediate_p -->
<g id="edge89" class="edge"><title>reaction_8&#45;&gt;reaction_8_intermediate_p</title>
<path fill="none" stroke="black" d="M2172.28,-218C2188.58,-218 2231.22,-218 2233.87,-218"/>
</g>
<!-- reaction_8_intermediate_r&#45;&gt;reaction_8 -->
<g id="edge86" class="edge"><title>reaction_8_intermediate_r&#45;&gt;reaction_8</title>
<path fill="none" stroke="black" d="M2096.05,-218C2097.72,-218 2141.53,-218 2157.91,-218"/>
</g>
<!-- reaction_8_intermediate_p&#45;&gt;EtOH -->
<g id="edge90" class="edge"><title>reaction_8_intermediate_p&#45;&gt;EtOH</title>
<path fill="none" stroke="black" d="M2236.06,-218.003C2237.49,-218.076 2265.65,-219.501 2287.93,-220.629"/>
<polygon fill="black" stroke="black" points="2287.78,-224.126 2297.94,-221.136 2288.13,-217.135 2287.78,-224.126"/>
</g>
<!-- reaction_8_intermediate_p&#45;&gt;NAD -->
<g id="edge91" class="edge"><title>reaction_8_intermediate_p&#45;&gt;NAD</title>
<path fill="none" stroke="black" d="M2236.06,-217.964C2237.58,-217.003 2268.95,-197.145 2291.68,-182.758"/>
<polygon fill="black" stroke="black" points="2293.61,-185.681 2300.19,-177.375 2289.87,-179.766 2293.61,-185.681"/>
</g>
<!-- reaction_9 -->
<g id="node86" class="node"><title>reaction_9</title>
<polygon fill="none" stroke="black" points="550,-82 536,-82 536,-68 550,-68 550,-82"/>
</g>
<!-- reaction_9_intermediate_p -->
<g id="node88" class="node"><title>reaction_9_intermediate_p</title>
<ellipse fill="black" stroke="black" cx="613" cy="-75" rx="0.036" ry="0.036"/>
</g>
<!-- reaction_9&#45;&gt;reaction_9_intermediate_p -->
<g id="edge95" class="edge"><title>reaction_9&#45;&gt;reaction_9_intermediate_p</title>
<path fill="none" stroke="black" d="M550.275,-75C566.583,-75 609.222,-75 611.871,-75"/>
</g>
<!-- reaction_9_intermediate_r&#45;&gt;reaction_9 -->
<g id="edge92" class="edge"><title>reaction_9_intermediate_r&#45;&gt;reaction_9</title>
<path fill="none" stroke="black" d="M474.049,-81.9949C475.722,-81.8227 519.535,-77.3126 535.906,-75.6274"/>
</g>
<!-- reaction_9_intermediate_p&#45;&gt;ADP -->
<g id="edge96" class="edge"><title>reaction_9_intermediate_p&#45;&gt;ADP</title>
<path fill="none" stroke="black" d="M614.064,-75.0007C615.721,-75.0196 649.346,-75.4017 674.524,-75.6878"/>
<polygon fill="black" stroke="black" points="674.641,-79.1892 684.68,-75.8032 674.72,-72.1897 674.641,-79.1892"/>
</g>
<!-- reaction_10 -->
<g id="node89" class="node"><title>reaction_10</title>
<polygon fill="none" stroke="black" points="550,-330 536,-330 536,-316 550,-316 550,-330"/>
</g>
<!-- reaction_10_intermediate_p -->
<g id="node91" class="node"><title>reaction_10_intermediate_p</title>
<ellipse fill="black" stroke="black" cx="613" cy="-324" rx="0.036" ry="0.036"/>
</g>
<!-- reaction_10&#45;&gt;reaction_10_intermediate_p -->
<g id="edge99" class="edge"><title>reaction_10&#45;&gt;reaction_10_intermediate_p</title>
<path fill="none" stroke="black" d="M550.275,-323.092C566.583,-323.332 609.222,-323.959 611.871,-323.998"/>
</g>
<!-- reaction_10_intermediate_r&#45;&gt;reaction_10 -->
<g id="edge97" class="edge"><title>reaction_10_intermediate_r&#45;&gt;reaction_10</title>
<path fill="none" stroke="black" d="M474.049,-317.004C475.722,-317.152 519.535,-321.018 535.906,-322.462"/>
</g>
<!-- reaction_10_intermediate_p&#45;&gt;P -->
<g id="edge100" class="edge"><title>reaction_10_intermediate_p&#45;&gt;P</title>
<path fill="none" stroke="black" d="M614.064,-324C615.533,-324 642.103,-324 665.654,-324"/>
<polygon fill="black" stroke="black" points="665.821,-327.5 675.82,-324 665.82,-320.5 665.821,-327.5"/>
</g>
</g>
</svg>
