<?xml version="1.0" encoding="utf-8"?>
<!-- Generator: Adobe Illustrator 13.0.0, SVG Export Plug-In . SVG Version: 6.00 Build 14948)  -->
<!DOCTYPE svg PUBLIC "-//W3C//DTD SVG 1.1//EN" "http://www.w3.org/Graphics/SVG/1.1/DTD/svg11.dtd">
<svg version="1.1"
	 id="svg3034" xmlns:rdf="http://www.w3.org/1999/02/22-rdf-syntax-ns#" xmlns:sodipodi="http://inkscape.sourceforge.net/DTD/sodipodi-0.dtd" xmlns:cc="http://web.resource.org/cc/" xmlns:xml="http://www.w3.org/XML/1998/namespace" xmlns:inkscape="http://www.inkscape.org/namespaces/inkscape" xmlns:svg="http://www.w3.org/2000/svg" xmlns:dc="http://purl.org/dc/elements/1.1/" sodipodi:docbase="C:\Documents and Settings\pvil005\Desktop\Repository_diagrams\Signal_Transduction_Pathways" sodipodi:version="0.32" sodipodi:docname="leloup_1999.svg" inkscape:version="0.40+cvs"
	 xmlns="http://www.w3.org/2000/svg" xmlns:xlink="http://www.w3.org/1999/xlink" x="0px" y="0px" width="584px" height="830px"
	 viewBox="129.445 -117.862 584 830" enable-background="new 129.445 -117.862 584 830" xml:space="preserve">
<g>
	<g>
		<line fill="none" stroke="#000000" x1="576.945" y1="636.47" x2="525.363" y2="636.47"/>
		<polygon points="574.136,640.174 575.708,636.47 574.136,632.767 582.914,636.47 		"/>
	</g>
</g>
<sodipodi:namedview  pagecolor="#ffffff" inkscape:cx="416.34470" bordercolor="#666666" borderopacity="1.0" inkscape:zoom="1.0188019" inkscape:cy="486.36647" id="base" inkscape:current-layer="layer1" inkscape:window-x="38" inkscape:window-width="1202" inkscape:window-height="928" inkscape:pageshadow="2" inkscape:pageopacity="0.0" inkscape:window-y="13" inkscape:document-units="px">
	</sodipodi:namedview>
<path id="path11218" sodipodi:cy="567.10571" sodipodi:cx="663.41638" sodipodi:type="arc" sodipodi:ry="70.471161" sodipodi:rx="95.158508" fill="#BFDDFF" stroke="#0092DF" stroke-width="4.6459" d="
	M380.009,126.279c0,42.503-51.011,76.959-113.936,76.959c-62.924,0-113.935-34.456-113.935-76.959l0,0
	c0-42.504,51.011-76.96,113.935-76.96C328.998,49.319,380.009,83.775,380.009,126.279z"/>
<path id="path34811" sodipodi:nodetypes="cc" fill="none" stroke="#000000" d="M230.471,161.332"/>
<g enable-background="new    ">
	<path d="M197.561,75.726v1.16h1.259v0.669h-1.259v2.608c0,0.601,0.17,0.939,0.66,0.939c0.24,0,0.38-0.02,0.51-0.06l0.04,0.67
		c-0.17,0.06-0.44,0.12-0.78,0.12c-0.41,0-0.74-0.141-0.949-0.37c-0.24-0.27-0.34-0.699-0.34-1.27v-2.639h-0.75v-0.669h0.75v-0.89
		L197.561,75.726z"/>
	<path d="M200.231,75.996c-0.33,0-0.55-0.26-0.55-0.57c0-0.31,0.23-0.56,0.57-0.56s0.56,0.25,0.56,0.56c0,0.311-0.22,0.57-0.57,0.57
		H200.231z M199.812,81.723v-4.837h0.879v4.837H199.812z"/>
	<path d="M202.151,78.194c0-0.51-0.02-0.909-0.04-1.309h0.77l0.04,0.779h0.03c0.27-0.46,0.719-0.89,1.529-0.89
		c0.65,0,1.149,0.399,1.359,0.97h0.02c0.15-0.28,0.35-0.48,0.55-0.63c0.29-0.22,0.6-0.34,1.06-0.34c0.649,0,1.599,0.42,1.599,2.099
		v2.849h-0.86v-2.738c0-0.939-0.35-1.489-1.049-1.489c-0.51,0-0.89,0.37-1.049,0.789c-0.04,0.13-0.07,0.29-0.07,0.44v2.998h-0.86
		v-2.898c0-0.779-0.34-1.329-1.009-1.329c-0.54,0-0.95,0.439-1.089,0.879c-0.05,0.131-0.07,0.28-0.07,0.431v2.918h-0.86V78.194z"/>
	<path d="M213.671,75.726v1.16h1.259v0.669h-1.259v2.608c0,0.601,0.17,0.939,0.66,0.939c0.24,0,0.38-0.02,0.51-0.06l0.04,0.67
		c-0.17,0.06-0.44,0.12-0.78,0.12c-0.41,0-0.74-0.141-0.949-0.37c-0.24-0.27-0.34-0.699-0.34-1.27v-2.639h-0.75v-0.669h0.75v-0.89
		L213.671,75.726z"/>
	<path d="M215.932,78.395c0-0.569-0.01-1.06-0.04-1.509h0.77l0.04,0.949h0.03c0.22-0.649,0.76-1.06,1.349-1.06
		c0.09,0,0.16,0.01,0.24,0.03v0.819c-0.1-0.01-0.19-0.021-0.31-0.021c-0.62,0-1.06,0.47-1.179,1.12c-0.02,0.13-0.03,0.27-0.03,0.42
		v2.578h-0.879L215.932,78.395z"/>
	<path d="M222.54,80.563c0,0.42,0.02,0.829,0.07,1.159h-0.79l-0.08-0.609h-0.03c-0.26,0.38-0.79,0.72-1.479,0.72
		c-0.979,0-1.479-0.69-1.479-1.39c0-1.169,1.04-1.809,2.909-1.799v-0.101c0-0.399-0.11-1.129-1.1-1.119
		c-0.459,0-0.929,0.13-1.269,0.36l-0.2-0.59c0.4-0.25,0.99-0.42,1.599-0.42c1.489,0,1.849,1.01,1.849,1.979V80.563z M221.68,79.254
		c-0.959-0.02-2.049,0.15-2.049,1.09c0,0.579,0.379,0.839,0.819,0.839c0.64,0,1.049-0.399,1.189-0.81
		c0.03-0.09,0.04-0.189,0.04-0.279V79.254z"/>
	<path d="M223.951,78.194c0-0.51-0.01-0.909-0.04-1.309h0.78l0.05,0.789h0.02c0.24-0.449,0.8-0.899,1.599-0.899
		c0.67,0,1.709,0.399,1.709,2.059v2.889h-0.879v-2.788c0-0.78-0.29-1.439-1.119-1.439c-0.57,0-1.02,0.409-1.18,0.899
		c-0.04,0.11-0.06,0.27-0.06,0.41v2.918h-0.879V78.194z"/>
	<path d="M229.381,80.833c0.27,0.16,0.729,0.34,1.169,0.34c0.63,0,0.93-0.31,0.93-0.72c0-0.42-0.25-0.649-0.89-0.89
		c-0.879-0.319-1.289-0.789-1.289-1.369c0-0.779,0.64-1.419,1.669-1.419c0.49,0,0.919,0.13,1.179,0.3l-0.209,0.63
		c-0.19-0.11-0.54-0.28-0.99-0.28c-0.52,0-0.799,0.3-0.799,0.66c0,0.409,0.28,0.59,0.909,0.829c0.83,0.31,1.27,0.729,1.27,1.459
		c0,0.86-0.67,1.46-1.799,1.46c-0.53,0-1.02-0.141-1.359-0.34L229.381,80.833z"/>
	<path d="M236.909,81.553c-0.23,0.11-0.74,0.28-1.389,0.28c-1.459,0-2.409-0.99-2.409-2.479c0-1.488,1.02-2.578,2.599-2.578
		c0.52,0,0.979,0.13,1.219,0.26l-0.2,0.67c-0.209-0.11-0.54-0.23-1.019-0.23c-1.109,0-1.709,0.83-1.709,1.84
		c0,1.119,0.719,1.809,1.679,1.809c0.5,0,0.83-0.12,1.08-0.229L236.909,81.553z"/>
	<path d="M237.951,78.395c0-0.569-0.01-1.06-0.04-1.509h0.77l0.04,0.949h0.03c0.22-0.649,0.76-1.06,1.349-1.06
		c0.09,0,0.16,0.01,0.24,0.03v0.819c-0.1-0.01-0.19-0.021-0.31-0.021c-0.62,0-1.06,0.47-1.179,1.12c-0.02,0.13-0.03,0.27-0.03,0.42
		v2.578h-0.879L237.951,78.395z"/>
	<path d="M241.671,75.996c-0.33,0-0.55-0.26-0.55-0.57c0-0.31,0.23-0.56,0.57-0.56s0.56,0.25,0.56,0.56c0,0.311-0.22,0.57-0.57,0.57
		H241.671z M241.251,81.723v-4.837h0.879v4.837H241.251z"/>
	<path d="M243.591,78.465c0-0.62-0.01-1.12-0.04-1.579h0.79l0.05,0.829h0.02c0.35-0.6,0.929-0.939,1.709-0.939
		c1.179,0,2.059,0.989,2.059,2.459c0,1.738-1.069,2.599-2.199,2.599c-0.649,0-1.199-0.28-1.489-0.76h-0.02v2.628h-0.879V78.465z
		 M244.47,79.754c0,0.12,0.01,0.25,0.04,0.359c0.15,0.61,0.69,1.029,1.31,1.029c0.929,0,1.469-0.759,1.469-1.868
		c0-0.97-0.5-1.8-1.429-1.8c-0.6,0-1.169,0.42-1.339,1.08c-0.02,0.12-0.05,0.25-0.05,0.359V79.754z"/>
	<path d="M250.34,75.726v1.16h1.259v0.669h-1.259v2.608c0,0.601,0.17,0.939,0.66,0.939c0.24,0,0.38-0.02,0.51-0.06l0.04,0.67
		c-0.17,0.06-0.44,0.12-0.78,0.12c-0.41,0-0.74-0.141-0.949-0.37c-0.24-0.27-0.34-0.699-0.34-1.27v-2.639h-0.75v-0.669h0.75v-0.89
		L250.34,75.726z"/>
	<path d="M253.011,75.996c-0.33,0-0.55-0.26-0.55-0.57c0-0.31,0.23-0.56,0.57-0.56s0.56,0.25,0.56,0.56c0,0.311-0.22,0.57-0.57,0.57
		H253.011z M252.591,81.723v-4.837h0.879v4.837H252.591z"/>
	<path d="M256.9,81.833c-1.299,0-2.319-0.96-2.319-2.489c0-1.619,1.069-2.568,2.398-2.568c1.389,0,2.329,1.01,2.329,2.479
		c0,1.799-1.25,2.579-2.399,2.579H256.9z M256.93,81.173c0.839,0,1.469-0.789,1.469-1.889c0-0.819-0.41-1.85-1.449-1.85
		c-1.029,0-1.479,0.96-1.479,1.88c0,1.059,0.6,1.858,1.449,1.858H256.93z"/>
	<path d="M260.42,78.194c0-0.51-0.01-0.909-0.04-1.309h0.78l0.05,0.789h0.02c0.24-0.449,0.8-0.899,1.599-0.899
		c0.67,0,1.709,0.399,1.709,2.059v2.889h-0.879v-2.788c0-0.78-0.29-1.439-1.119-1.439c-0.57,0-1.02,0.409-1.18,0.899
		c-0.04,0.11-0.06,0.27-0.06,0.41v2.918h-0.879V78.194z"/>
</g>
<g enable-background="new    ">
	<path d="M196.506,169.386c0-0.62-0.01-1.12-0.04-1.579h0.79l0.05,0.829h0.02c0.35-0.6,0.929-0.939,1.709-0.939
		c1.179,0,2.059,0.989,2.059,2.459c0,1.738-1.069,2.599-2.199,2.599c-0.649,0-1.199-0.28-1.489-0.76h-0.02v2.628h-0.879V169.386z
		 M197.386,170.675c0,0.12,0.01,0.25,0.04,0.359c0.15,0.61,0.69,1.029,1.31,1.029c0.929,0,1.469-0.759,1.469-1.868
		c0-0.97-0.5-1.8-1.429-1.8c-0.6,0-1.169,0.42-1.339,1.08c-0.02,0.12-0.05,0.25-0.05,0.359V170.675z"/>
	<path d="M202.706,170.375c0.02,1.189,0.77,1.679,1.649,1.679c0.63,0,1.02-0.109,1.339-0.239l0.16,0.619
		c-0.31,0.14-0.85,0.31-1.619,0.31c-1.479,0-2.378-0.989-2.378-2.438c0-1.469,0.87-2.618,2.279-2.618
		c1.579,0,1.989,1.389,1.989,2.278c0,0.18-0.01,0.32-0.03,0.42L202.706,170.375z M205.274,169.745c0.01-0.55-0.23-1.429-1.209-1.429
		c-0.899,0-1.279,0.819-1.349,1.429H205.274z"/>
	<path d="M207.226,169.315c0-0.569-0.01-1.06-0.04-1.509h0.77l0.04,0.949h0.03c0.22-0.649,0.76-1.06,1.349-1.06
		c0.09,0,0.16,0.01,0.24,0.03v0.819c-0.1-0.01-0.19-0.021-0.31-0.021c-0.62,0-1.059,0.47-1.179,1.12c-0.02,0.13-0.03,0.27-0.03,0.42
		v2.578h-0.879L207.226,169.315z"/>
	<path d="M213.666,166.646v1.16h1.259v0.669h-1.259v2.608c0,0.601,0.17,0.939,0.66,0.939c0.24,0,0.38-0.02,0.51-0.06l0.04,0.67
		c-0.17,0.06-0.44,0.12-0.78,0.12c-0.41,0-0.74-0.141-0.949-0.37c-0.24-0.27-0.34-0.699-0.34-1.27v-2.639h-0.75v-0.669h0.75v-0.89
		L213.666,166.646z"/>
	<path d="M215.926,169.315c0-0.569-0.01-1.06-0.04-1.509h0.77l0.04,0.949h0.03c0.22-0.649,0.76-1.06,1.349-1.06
		c0.09,0,0.16,0.01,0.24,0.03v0.819c-0.1-0.01-0.19-0.021-0.31-0.021c-0.62,0-1.059,0.47-1.179,1.12c-0.02,0.13-0.03,0.27-0.03,0.42
		v2.578h-0.879L215.926,169.315z"/>
	<path d="M222.535,171.484c0,0.42,0.02,0.829,0.07,1.159h-0.79l-0.08-0.609h-0.03c-0.26,0.38-0.79,0.72-1.479,0.72
		c-0.979,0-1.479-0.69-1.479-1.39c0-1.169,1.04-1.809,2.909-1.799v-0.101c0-0.399-0.11-1.129-1.1-1.119
		c-0.459,0-0.929,0.13-1.269,0.36l-0.2-0.59c0.4-0.25,0.99-0.42,1.599-0.42c1.489,0,1.849,1.01,1.849,1.979V171.484z
		 M221.675,170.175c-0.959-0.02-2.049,0.15-2.049,1.09c0,0.579,0.379,0.839,0.819,0.839c0.64,0,1.049-0.399,1.189-0.81
		c0.03-0.09,0.04-0.189,0.04-0.279V170.175z"/>
	<path d="M223.946,169.115c0-0.51-0.01-0.909-0.04-1.309h0.78l0.05,0.789h0.02c0.24-0.449,0.8-0.899,1.599-0.899
		c0.67,0,1.709,0.399,1.709,2.059v2.889h-0.879v-2.788c0-0.78-0.29-1.439-1.119-1.439c-0.57,0-1.02,0.409-1.18,0.899
		c-0.04,0.11-0.06,0.27-0.06,0.41v2.918h-0.879V169.115z"/>
	<path d="M229.376,171.754c0.27,0.16,0.729,0.34,1.169,0.34c0.63,0,0.93-0.31,0.93-0.72c0-0.42-0.25-0.649-0.89-0.89
		c-0.879-0.319-1.289-0.789-1.289-1.369c0-0.779,0.64-1.419,1.669-1.419c0.49,0,0.919,0.13,1.179,0.3l-0.209,0.63
		c-0.19-0.11-0.54-0.28-0.99-0.28c-0.52,0-0.799,0.3-0.799,0.66c0,0.409,0.28,0.59,0.909,0.829c0.83,0.31,1.27,0.729,1.27,1.459
		c0,0.86-0.67,1.46-1.799,1.46c-0.529,0-1.019-0.141-1.359-0.34L229.376,171.754z"/>
	<path d="M236.904,172.474c-0.23,0.11-0.74,0.28-1.389,0.28c-1.459,0-2.409-0.99-2.409-2.479c0-1.488,1.02-2.578,2.599-2.578
		c0.52,0,0.979,0.13,1.219,0.26l-0.2,0.67c-0.21-0.11-0.54-0.23-1.02-0.23c-1.109,0-1.709,0.83-1.709,1.84
		c0,1.119,0.719,1.809,1.679,1.809c0.5,0,0.83-0.12,1.08-0.229L236.904,172.474z"/>
	<path d="M237.946,169.315c0-0.569-0.01-1.06-0.04-1.509h0.77l0.04,0.949h0.03c0.22-0.649,0.76-1.06,1.349-1.06
		c0.09,0,0.16,0.01,0.24,0.03v0.819c-0.1-0.01-0.19-0.021-0.31-0.021c-0.62,0-1.06,0.47-1.179,1.12c-0.02,0.13-0.03,0.27-0.03,0.42
		v2.578h-0.879L237.946,169.315z"/>
	<path d="M241.666,166.917c-0.33,0-0.55-0.26-0.55-0.57c0-0.31,0.23-0.56,0.57-0.56s0.56,0.25,0.56,0.56
		c0,0.311-0.22,0.57-0.57,0.57H241.666z M241.246,172.644v-4.837h0.879v4.837H241.246z"/>
	<path d="M243.585,169.386c0-0.62-0.01-1.12-0.04-1.579h0.79l0.05,0.829h0.02c0.35-0.6,0.929-0.939,1.709-0.939
		c1.179,0,2.059,0.989,2.059,2.459c0,1.738-1.069,2.599-2.199,2.599c-0.649,0-1.199-0.28-1.489-0.76h-0.02v2.628h-0.879V169.386z
		 M244.465,170.675c0,0.12,0.01,0.25,0.04,0.359c0.15,0.61,0.69,1.029,1.31,1.029c0.929,0,1.469-0.759,1.469-1.868
		c0-0.97-0.5-1.8-1.429-1.8c-0.6,0-1.169,0.42-1.339,1.08c-0.02,0.12-0.05,0.25-0.05,0.359V170.675z"/>
	<path d="M250.335,166.646v1.16h1.259v0.669h-1.259v2.608c0,0.601,0.17,0.939,0.66,0.939c0.24,0,0.38-0.02,0.51-0.06l0.04,0.67
		c-0.17,0.06-0.44,0.12-0.78,0.12c-0.41,0-0.74-0.141-0.949-0.37c-0.24-0.27-0.34-0.699-0.34-1.27v-2.639h-0.75v-0.669h0.75v-0.89
		L250.335,166.646z"/>
	<path d="M253.005,166.917c-0.33,0-0.55-0.26-0.55-0.57c0-0.31,0.23-0.56,0.57-0.56s0.56,0.25,0.56,0.56
		c0,0.311-0.22,0.57-0.57,0.57H253.005z M252.585,172.644v-4.837h0.879v4.837H252.585z"/>
	<path d="M256.895,172.754c-1.299,0-2.319-0.96-2.319-2.489c0-1.619,1.069-2.568,2.398-2.568c1.389,0,2.329,1.01,2.329,2.479
		c0,1.799-1.25,2.579-2.399,2.579H256.895z M256.924,172.094c0.839,0,1.469-0.789,1.469-1.889c0-0.819-0.41-1.85-1.449-1.85
		c-1.029,0-1.479,0.96-1.479,1.88c0,1.059,0.6,1.858,1.449,1.858H256.924z"/>
	<path d="M260.415,169.115c0-0.51-0.01-0.909-0.04-1.309h0.78l0.05,0.789h0.02c0.24-0.449,0.8-0.899,1.599-0.899
		c0.67,0,1.709,0.399,1.709,2.059v2.889h-0.879v-2.788c0-0.78-0.29-1.439-1.119-1.439c-0.57,0-1.02,0.409-1.18,0.899
		c-0.04,0.11-0.06,0.27-0.06,0.41v2.918h-0.879V169.115z"/>
</g>
<path id="path3234" sodipodi:nodetypes="cc" fill="none" stroke="#000000" d="M230.125,82.981"/>
<path id="path3278" sodipodi:nodetypes="cc" d="M220.369,299.79"/>
<path id="path3282" sodipodi:nodetypes="cc" d="M217.295-62.464"/>
<path id="path3284" fill="none" stroke="#000000" d="M338.789,125.757h161.955"/>
<g enable-background="new    ">
	<path d="M587.693,347.75h3.629v0.729h-2.749v2.239h2.538v0.72h-2.538v3.048h-0.88V347.75z"/>
	<path d="M592.704,348.76c-0.33,0-0.55-0.26-0.55-0.57c0-0.31,0.23-0.56,0.57-0.56s0.559,0.25,0.559,0.56
		c0,0.311-0.219,0.57-0.569,0.57H592.704z M592.284,354.486v-4.837h0.88v4.837H592.284z"/>
	<path d="M598.761,353.776c0,1.12-0.229,1.789-0.689,2.219c-0.48,0.43-1.159,0.58-1.77,0.58c-0.579,0-1.219-0.14-1.608-0.399
		l0.22-0.68c0.32,0.21,0.819,0.39,1.419,0.39c0.899,0,1.56-0.47,1.56-1.699v-0.529h-0.02c-0.261,0.449-0.79,0.81-1.54,0.81
		c-1.199,0-2.059-1.02-2.059-2.369c0-1.639,1.069-2.559,2.188-2.559c0.84,0,1.289,0.43,1.51,0.829h0.02l0.03-0.719h0.779
		c-0.03,0.34-0.04,0.729-0.04,1.319V353.776z M597.882,351.548c0-0.14-0.01-0.27-0.051-0.39c-0.16-0.52-0.579-0.939-1.229-0.939
		c-0.84,0-1.439,0.71-1.439,1.839c0,0.939,0.489,1.739,1.43,1.739c0.549,0,1.039-0.34,1.219-0.91c0.05-0.14,0.07-0.31,0.07-0.47
		V351.548z"/>
	<path d="M603.962,348.81h-0.02l-1.129,0.609l-0.17-0.67l1.418-0.759h0.75v6.496h-0.85V348.81z"/>
	<path d="M607.833,354.597c-0.34,0-0.58-0.271-0.58-0.63c0-0.36,0.25-0.63,0.6-0.63s0.59,0.26,0.59,0.63c0,0.359-0.24,0.63-0.6,0.63
		H607.833z"/>
	<path d="M610.933,347.84c0.54-0.08,1.17-0.14,1.859-0.14c1.25,0,2.139,0.279,2.729,0.829c0.609,0.55,0.959,1.34,0.959,2.429
		c0,1.1-0.35,1.999-0.969,2.619c-0.64,0.629-1.68,0.969-2.988,0.969c-0.63,0-1.14-0.02-1.59-0.079V347.84z M611.813,353.807
		c0.22,0.04,0.54,0.04,0.88,0.04c1.859,0.01,2.868-1.039,2.868-2.858c0.011-1.609-0.89-2.599-2.729-2.599
		c-0.45,0-0.79,0.04-1.02,0.09V353.807z"/>
	<path d="M617.603,351.158c0-0.569-0.01-1.06-0.04-1.509h0.77l0.04,0.949h0.029c0.221-0.649,0.76-1.06,1.35-1.06
		c0.09,0,0.16,0.01,0.24,0.03v0.819c-0.1-0.01-0.189-0.021-0.311-0.021c-0.619,0-1.059,0.47-1.179,1.12
		c-0.021,0.13-0.03,0.27-0.03,0.42v2.578h-0.879L617.603,351.158z"/>
	<path d="M622.773,354.597c-1.3,0-2.319-0.96-2.319-2.489c0-1.619,1.069-2.568,2.398-2.568c1.39,0,2.329,1.01,2.329,2.479
		c0,1.799-1.25,2.579-2.398,2.579H622.773z M622.802,353.937c0.84,0,1.469-0.789,1.469-1.889c0-0.819-0.409-1.85-1.449-1.85
		c-1.029,0-1.479,0.96-1.479,1.88c0,1.059,0.6,1.858,1.449,1.858H622.802z"/>
	<path d="M626.173,353.597c0.27,0.16,0.729,0.34,1.169,0.34c0.63,0,0.93-0.31,0.93-0.72c0-0.42-0.25-0.649-0.89-0.89
		c-0.879-0.319-1.289-0.789-1.289-1.369c0-0.779,0.64-1.419,1.669-1.419c0.489,0,0.919,0.13,1.179,0.3l-0.209,0.63
		c-0.189-0.11-0.54-0.28-0.99-0.28c-0.52,0-0.799,0.3-0.799,0.66c0,0.409,0.279,0.59,0.909,0.829c0.829,0.31,1.27,0.729,1.27,1.459
		c0,0.86-0.67,1.46-1.799,1.46c-0.53,0-1.02-0.141-1.359-0.34L626.173,353.597z"/>
	<path d="M632.222,354.597c-1.299,0-2.318-0.96-2.318-2.489c0-1.619,1.068-2.568,2.398-2.568c1.389,0,2.328,1.01,2.328,2.479
		c0,1.799-1.249,2.579-2.398,2.579H632.222z M632.251,353.937c0.84,0,1.47-0.789,1.47-1.889c0-0.819-0.409-1.85-1.449-1.85
		c-1.029,0-1.479,0.96-1.479,1.88c0,1.059,0.6,1.858,1.449,1.858H632.251z"/>
	<path d="M635.743,351.229c0-0.62-0.01-1.12-0.04-1.579h0.789l0.051,0.829h0.02c0.35-0.6,0.93-0.939,1.709-0.939
		c1.18,0,2.059,0.989,2.059,2.459c0,1.738-1.068,2.599-2.198,2.599c-0.649,0-1.199-0.28-1.489-0.76h-0.02v2.628h-0.88V351.229z
		 M636.623,352.518c0,0.12,0.01,0.25,0.039,0.359c0.15,0.61,0.69,1.029,1.311,1.029c0.929,0,1.469-0.759,1.469-1.868
		c0-0.97-0.5-1.8-1.43-1.8c-0.6,0-1.169,0.42-1.339,1.08c-0.021,0.12-0.05,0.25-0.05,0.359V352.518z"/>
	<path d="M641.433,347.391h0.879v3.018h0.02c0.141-0.249,0.36-0.479,0.631-0.619c0.26-0.16,0.569-0.25,0.898-0.25
		c0.65,0,1.689,0.399,1.689,2.068v2.879h-0.879v-2.778c0-0.79-0.29-1.439-1.119-1.439c-0.57,0-1.01,0.399-1.18,0.88
		c-0.051,0.12-0.061,0.25-0.061,0.42v2.918h-0.879V347.391z"/>
	<path d="M647.402,348.76c-0.33,0-0.549-0.26-0.549-0.57c0-0.31,0.229-0.56,0.569-0.56s0.56,0.25,0.56,0.56
		c0,0.311-0.22,0.57-0.57,0.57H647.402z M646.982,354.486v-4.837h0.88v4.837H646.982z"/>
	<path d="M649.322,347.391h0.88v7.096h-0.88V347.391z"/>
	<path d="M655.07,353.327c0,0.42,0.021,0.829,0.07,1.159h-0.789l-0.08-0.609h-0.03c-0.26,0.38-0.79,0.72-1.479,0.72
		c-0.979,0-1.479-0.69-1.479-1.39c0-1.169,1.039-1.809,2.908-1.799v-0.101c0-0.399-0.109-1.129-1.1-1.119
		c-0.459,0-0.93,0.13-1.27,0.36l-0.199-0.59c0.399-0.25,0.989-0.42,1.599-0.42c1.489,0,1.849,1.01,1.849,1.979V353.327z
		 M654.21,352.018c-0.959-0.02-2.049,0.15-2.049,1.09c0,0.579,0.38,0.839,0.82,0.839c0.639,0,1.049-0.399,1.189-0.81
		c0.029-0.09,0.039-0.189,0.039-0.279V352.018z"/>
</g>
<g id="g4133" transform="translate(189.8706,479.2627)">
	
		<radialGradient id="path4135_1_" cx="-30.9673" cy="-744.7988" r="16.1855" gradientTransform="matrix(2.4929 0 0 0.6358 389.1462 631.4278)" gradientUnits="userSpaceOnUse">
		<stop  offset="0" style="stop-color:#A2FF5F"/>
		<stop  offset="0.4082" style="stop-color:#A0FF5F"/>
		<stop  offset="0.5552" style="stop-color:#99FD5F"/>
		<stop  offset="0.66" style="stop-color:#8EFB5E"/>
		<stop  offset="0.7448" style="stop-color:#7DF85E"/>
		<stop  offset="0.8174" style="stop-color:#67F35D"/>
		<stop  offset="0.8817" style="stop-color:#4BEE5C"/>
		<stop  offset="0.9398" style="stop-color:#2BE85B"/>
		<stop  offset="0.9915" style="stop-color:#07E05A"/>
		<stop  offset="1" style="stop-color:#00DF5A"/>
	</radialGradient>
	<path id="path4135" fill="url(#path4135_1_)" stroke="#000000" d="M351.555,157.885c0,5.786-17.738,10.477-39.607,10.477
		c-21.875,0-39.608-4.688-39.608-10.477s17.733-10.477,39.608-10.477C333.816,147.409,351.555,152.098,351.555,157.885z"/>
	<g enable-background="new    ">
		<path d="M282.149,160.035c-0.229,0.11-0.739,0.28-1.39,0.28c-1.459,0-2.408-0.99-2.408-2.479c0-1.488,1.02-2.578,2.599-2.578
			c0.52,0,0.979,0.13,1.22,0.26l-0.2,0.67c-0.21-0.11-0.54-0.23-1.02-0.23c-1.109,0-1.709,0.83-1.709,1.84
			c0,1.119,0.72,1.809,1.679,1.809c0.5,0,0.83-0.12,1.08-0.229L282.149,160.035z"/>
		<path d="M283.681,155.368l1.05,2.858c0.119,0.319,0.24,0.699,0.319,0.989h0.021c0.09-0.29,0.189-0.66,0.31-1.01l0.96-2.838h0.929
			l-1.319,3.447c-0.629,1.659-1.059,2.509-1.658,3.039c-0.44,0.369-0.86,0.52-1.08,0.56l-0.22-0.74c0.22-0.06,0.51-0.199,0.77-0.43
			c0.239-0.189,0.53-0.529,0.739-0.979c0.041-0.09,0.07-0.149,0.07-0.21c0-0.05-0.02-0.119-0.07-0.22l-1.779-4.467H283.681z"/>
		<path d="M289.131,154.208v1.16h1.259v0.669h-1.259v2.608c0,0.601,0.17,0.939,0.659,0.939c0.239,0,0.38-0.02,0.51-0.06l0.04,0.67
			c-0.17,0.06-0.439,0.12-0.779,0.12c-0.41,0-0.74-0.141-0.949-0.37c-0.24-0.27-0.34-0.699-0.34-1.27v-2.639h-0.75v-0.669h0.75
			v-0.89L289.131,154.208z"/>
		<path d="M293.291,160.315c-1.3,0-2.319-0.96-2.319-2.489c0-1.619,1.069-2.568,2.398-2.568c1.39,0,2.329,1.01,2.329,2.479
			c0,1.799-1.25,2.579-2.398,2.579H293.291z M293.32,159.655c0.84,0,1.469-0.789,1.469-1.889c0-0.819-0.409-1.85-1.449-1.85
			c-1.029,0-1.479,0.96-1.479,1.88c0,1.059,0.6,1.858,1.449,1.858H293.32z"/>
		<path d="M296.811,156.947c0-0.62-0.01-1.12-0.039-1.579h0.789l0.051,0.829h0.02c0.35-0.6,0.93-0.939,1.709-0.939
			c1.18,0,2.059,0.989,2.059,2.459c0,1.738-1.069,2.599-2.199,2.599c-0.648,0-1.199-0.28-1.488-0.76h-0.021v2.628h-0.88V156.947z
			 M297.69,158.236c0,0.12,0.011,0.25,0.04,0.359c0.15,0.61,0.689,1.029,1.31,1.029c0.929,0,1.47-0.759,1.47-1.868
			c0-0.97-0.5-1.8-1.43-1.8c-0.6,0-1.17,0.42-1.34,1.08c-0.02,0.12-0.05,0.25-0.05,0.359V158.236z"/>
		<path d="M302.501,153.109h0.88v7.096h-0.88V153.109z"/>
		<path d="M308.249,159.046c0,0.42,0.021,0.829,0.069,1.159h-0.789l-0.08-0.609h-0.029c-0.26,0.38-0.79,0.72-1.479,0.72
			c-0.979,0-1.479-0.69-1.479-1.39c0-1.169,1.039-1.809,2.908-1.799v-0.101c0-0.399-0.109-1.129-1.1-1.119
			c-0.459,0-0.929,0.13-1.269,0.36l-0.2-0.59c0.4-0.25,0.99-0.42,1.6-0.42c1.488,0,1.849,1.01,1.849,1.979V159.046z M307.39,157.736
			c-0.96-0.02-2.049,0.15-2.049,1.09c0,0.579,0.38,0.839,0.819,0.839c0.64,0,1.049-0.399,1.189-0.81
			c0.029-0.09,0.04-0.189,0.04-0.279V157.736z"/>
		<path d="M309.541,159.315c0.27,0.16,0.729,0.34,1.169,0.34c0.63,0,0.93-0.31,0.93-0.72c0-0.42-0.25-0.649-0.89-0.89
			c-0.879-0.319-1.289-0.789-1.289-1.369c0-0.779,0.64-1.419,1.669-1.419c0.489,0,0.919,0.13,1.179,0.3l-0.209,0.63
			c-0.189-0.11-0.54-0.28-0.99-0.28c-0.52,0-0.799,0.3-0.799,0.66c0,0.409,0.279,0.59,0.909,0.829c0.829,0.31,1.27,0.729,1.27,1.459
			c0,0.86-0.67,1.46-1.799,1.46c-0.53,0-1.02-0.141-1.359-0.34L309.541,159.315z"/>
		<path d="M313.621,156.677c0-0.51-0.021-0.909-0.041-1.309h0.77l0.041,0.779h0.029c0.27-0.46,0.72-0.89,1.529-0.89
			c0.65,0,1.149,0.399,1.359,0.97h0.02c0.15-0.28,0.351-0.48,0.551-0.63c0.289-0.22,0.6-0.34,1.059-0.34c0.65,0,1.6,0.42,1.6,2.099
			v2.849h-0.859v-2.738c0-0.939-0.35-1.489-1.05-1.489c-0.51,0-0.89,0.37-1.05,0.789c-0.039,0.13-0.069,0.29-0.069,0.44v2.998h-0.86
			v-2.898c0-0.779-0.34-1.329-1.009-1.329c-0.54,0-0.95,0.439-1.089,0.879c-0.051,0.131-0.07,0.28-0.07,0.431v2.918h-0.859V156.677z
			"/>
		<path d="M322.381,154.479c-0.33,0-0.551-0.26-0.551-0.57c0-0.31,0.23-0.56,0.57-0.56s0.56,0.25,0.56,0.56
			c0,0.311-0.22,0.57-0.569,0.57H322.381z M321.961,160.205v-4.837h0.879v4.837H321.961z"/>
		<path d="M327.748,160.035c-0.229,0.11-0.739,0.28-1.389,0.28c-1.459,0-2.408-0.99-2.408-2.479c0-1.488,1.02-2.578,2.598-2.578
			c0.52,0,0.98,0.13,1.22,0.26l-0.2,0.67c-0.209-0.11-0.539-0.23-1.02-0.23c-1.109,0-1.709,0.83-1.709,1.84
			c0,1.119,0.72,1.809,1.68,1.809c0.5,0,0.829-0.12,1.079-0.229L327.748,160.035z"/>
		<path d="M330.92,153.469h3.629v0.729H331.8v2.239h2.538v0.72H331.8v3.048h-0.88V153.469z"/>
		<path d="M335.801,153.568c0.439-0.09,1.079-0.149,1.669-0.149c0.93,0,1.539,0.18,1.959,0.56c0.329,0.29,0.53,0.75,0.53,1.279
			c0,0.88-0.57,1.469-1.27,1.709v0.03c0.51,0.18,0.819,0.659,0.989,1.359c0.22,0.939,0.38,1.589,0.509,1.849h-0.898
			c-0.11-0.189-0.26-0.77-0.439-1.609c-0.201-0.93-0.57-1.279-1.359-1.309h-0.82v2.918h-0.869V153.568z M336.67,156.627h0.89
			c0.93,0,1.519-0.51,1.519-1.279c0-0.869-0.629-1.249-1.549-1.249c-0.42,0-0.709,0.04-0.859,0.08V156.627z"/>
		<path d="M346.768,161.194c-0.91-0.239-1.799-0.51-2.579-0.779c-0.149-0.05-0.28-0.1-0.409-0.1
			c-1.609-0.061-2.969-1.239-2.969-3.408c0-2.159,1.309-3.549,3.129-3.549c1.838,0,3.027,1.42,3.027,3.408
			c0,1.729-0.799,2.829-1.918,3.229v0.04c0.669,0.17,1.398,0.33,1.969,0.43L346.768,161.194z M343.889,159.605
			c1.379,0,2.159-1.27,2.159-2.799c0-1.349-0.7-2.738-2.129-2.738c-1.47,0-2.188,1.359-2.188,2.818c0,1.43,0.779,2.719,2.148,2.719
			H343.889z"/>
	</g>
</g>
<path id="path4167" sodipodi:nodetypes="cc" d="M242.918-295.627"/>
<path id="path4201" sodipodi:nodetypes="cc" fill="none" stroke="#000000" d="M379.867-110.873"/>
<g enable-background="new    ">
	<path d="M596.182,684.441h3.628v0.729h-2.748v2.239h2.538v0.72h-2.538v3.048h-0.88V684.441z"/>
	<path d="M601.193,685.451c-0.33,0-0.551-0.26-0.551-0.57c0-0.31,0.23-0.56,0.57-0.56s0.56,0.25,0.56,0.56
		c0,0.311-0.22,0.57-0.569,0.57H601.193z M600.773,691.178v-4.837h0.879v4.837H600.773z"/>
	<path d="M607.25,690.468c0,1.12-0.229,1.789-0.689,2.219c-0.479,0.43-1.158,0.58-1.769,0.58c-0.579,0-1.22-0.14-1.608-0.399
		l0.219-0.68c0.32,0.21,0.82,0.39,1.42,0.39c0.899,0,1.559-0.47,1.559-1.699v-0.529h-0.02c-0.26,0.449-0.789,0.81-1.539,0.81
		c-1.199,0-2.059-1.02-2.059-2.369c0-1.639,1.068-2.559,2.188-2.559c0.84,0,1.29,0.43,1.51,0.829h0.02l0.031-0.719h0.779
		c-0.03,0.34-0.041,0.729-0.041,1.319V690.468z M606.371,688.239c0-0.14-0.01-0.27-0.05-0.39c-0.16-0.52-0.579-0.939-1.229-0.939
		c-0.84,0-1.439,0.71-1.439,1.839c0,0.939,0.49,1.739,1.43,1.739c0.549,0,1.039-0.34,1.219-0.91c0.051-0.14,0.07-0.31,0.07-0.47
		V688.239z"/>
	<path d="M610.542,691.178v-0.54l0.689-0.669c1.659-1.579,2.419-2.419,2.419-3.398c0-0.66-0.31-1.27-1.279-1.27
		c-0.59,0-1.079,0.3-1.38,0.55l-0.279-0.619c0.439-0.37,1.09-0.66,1.839-0.66c1.39,0,1.979,0.96,1.979,1.889
		c0,1.2-0.87,2.169-2.239,3.488l-0.51,0.479v0.021h2.909v0.729H610.542z"/>
	<path d="M616.322,691.288c-0.34,0-0.58-0.271-0.58-0.63c0-0.36,0.25-0.63,0.6-0.63c0.351,0,0.59,0.26,0.59,0.63
		c0,0.359-0.239,0.63-0.6,0.63H616.322z"/>
	<path d="M619.433,691.178v-6.736h0.959l2.148,3.408c0.49,0.789,0.89,1.489,1.199,2.188l0.03-0.01
		c-0.08-0.899-0.101-1.719-0.101-2.759v-2.828h0.82v6.736h-0.879l-2.14-3.418c-0.47-0.75-0.919-1.52-1.249-2.249l-0.03,0.01
		c0.05,0.85,0.06,1.659,0.06,2.778v2.879H619.433z"/>
	<path d="M626.472,688.909c0.02,1.189,0.77,1.679,1.648,1.679c0.631,0,1.02-0.109,1.34-0.239l0.16,0.619
		c-0.311,0.14-0.85,0.31-1.619,0.31c-1.479,0-2.379-0.989-2.379-2.438c0-1.469,0.869-2.618,2.279-2.618
		c1.578,0,1.988,1.389,1.988,2.278c0,0.18-0.01,0.32-0.029,0.42L626.472,688.909z M629.041,688.279
		c0.01-0.55-0.23-1.429-1.209-1.429c-0.9,0-1.279,0.819-1.35,1.429H629.041z"/>
	<path d="M635.03,689.858c0,0.5,0.011,0.939,0.04,1.319h-0.779l-0.051-0.79h-0.02c-0.22,0.391-0.74,0.9-1.6,0.9
		c-0.76,0-1.668-0.431-1.668-2.119v-2.828h0.879v2.668c0,0.92,0.29,1.549,1.08,1.549c0.589,0,0.999-0.409,1.158-0.81
		c0.051-0.119,0.08-0.279,0.08-0.449v-2.958h0.88V689.858z"/>
	<path d="M636.501,687.85c0-0.569-0.01-1.06-0.039-1.509h0.77l0.039,0.949h0.03c0.22-0.649,0.76-1.06,1.349-1.06
		c0.091,0,0.16,0.01,0.24,0.03v0.819c-0.1-0.01-0.189-0.021-0.31-0.021c-0.62,0-1.06,0.47-1.179,1.12
		c-0.021,0.13-0.031,0.27-0.031,0.42v2.578h-0.879L636.501,687.85z"/>
	<path d="M641.671,691.288c-1.3,0-2.319-0.96-2.319-2.489c0-1.619,1.069-2.568,2.398-2.568c1.39,0,2.329,1.01,2.329,2.479
		c0,1.799-1.25,2.579-2.398,2.579H641.671z M641.701,690.628c0.84,0,1.469-0.789,1.469-1.889c0-0.819-0.409-1.85-1.449-1.85
		c-1.029,0-1.479,0.96-1.479,1.88c0,1.059,0.6,1.858,1.449,1.858H641.701z"/>
	<path d="M645.072,690.288c0.27,0.16,0.729,0.34,1.169,0.34c0.63,0,0.93-0.31,0.93-0.72c0-0.42-0.25-0.649-0.89-0.89
		c-0.879-0.319-1.289-0.789-1.289-1.369c0-0.779,0.64-1.419,1.669-1.419c0.489,0,0.919,0.13,1.179,0.3l-0.209,0.63
		c-0.189-0.11-0.54-0.28-0.99-0.28c-0.52,0-0.799,0.3-0.799,0.66c0,0.409,0.279,0.59,0.909,0.829c0.829,0.31,1.27,0.729,1.27,1.459
		c0,0.86-0.67,1.46-1.8,1.46c-0.529,0-1.019-0.141-1.358-0.34L645.072,690.288z"/>
	<path d="M649.152,687.92c0-0.62-0.01-1.12-0.041-1.579h0.79l0.05,0.829h0.021c0.35-0.6,0.929-0.939,1.709-0.939
		c1.179,0,2.059,0.989,2.059,2.459c0,1.738-1.069,2.599-2.198,2.599c-0.65,0-1.199-0.28-1.49-0.76h-0.02v2.628h-0.879V687.92z
		 M650.031,689.209c0,0.12,0.01,0.25,0.04,0.359c0.149,0.61,0.69,1.029,1.31,1.029c0.93,0,1.469-0.759,1.469-1.868
		c0-0.97-0.5-1.8-1.429-1.8c-0.601,0-1.169,0.42-1.339,1.08c-0.021,0.12-0.051,0.25-0.051,0.359V689.209z"/>
	<path d="M656.821,691.288c-1.3,0-2.319-0.96-2.319-2.489c0-1.619,1.07-2.568,2.398-2.568c1.39,0,2.33,1.01,2.33,2.479
		c0,1.799-1.25,2.579-2.399,2.579H656.821z M656.851,690.628c0.839,0,1.469-0.789,1.469-1.889c0-0.819-0.41-1.85-1.449-1.85
		c-1.029,0-1.479,0.96-1.479,1.88c0,1.059,0.6,1.858,1.449,1.858H656.851z"/>
	<path d="M660.351,687.85c0-0.569-0.01-1.06-0.039-1.509h0.77l0.039,0.949h0.03c0.22-0.649,0.76-1.06,1.349-1.06
		c0.091,0,0.16,0.01,0.24,0.03v0.819c-0.1-0.01-0.189-0.021-0.31-0.021c-0.62,0-1.06,0.47-1.179,1.12
		c-0.021,0.13-0.031,0.27-0.031,0.42v2.578h-0.879L660.351,687.85z"/>
	<path d="M666.959,690.019c0,0.42,0.021,0.829,0.069,1.159h-0.789l-0.08-0.609h-0.029c-0.26,0.38-0.79,0.72-1.479,0.72
		c-0.979,0-1.479-0.69-1.479-1.39c0-1.169,1.039-1.809,2.908-1.799v-0.101c0-0.399-0.109-1.129-1.1-1.119
		c-0.459,0-0.929,0.13-1.269,0.36l-0.2-0.59c0.4-0.25,0.99-0.42,1.6-0.42c1.488,0,1.849,1.01,1.849,1.979V690.019z M666.1,688.709
		c-0.96-0.02-2.049,0.15-2.049,1.09c0,0.579,0.38,0.839,0.819,0.839c0.64,0,1.049-0.399,1.189-0.81
		c0.029-0.09,0.04-0.189,0.04-0.279V688.709z"/>
</g>
<g>
	<g>
		<path fill="none" stroke="#000000" d="M605.224-16.108c-22.877,29.042-61.215,31.351-86.986,4.942"/>
		<polygon points="522.85,-11.743 519.101,-10.282 517.548,-6.569 514.069,-15.438 		"/>
	</g>
</g>
<g>
	
		<radialGradient id="path3152_1_" cx="184.5439" cy="-178.0449" r="16.186" gradientTransform="matrix(0.9269 0 0 0.6352 245.4229 86.8573)" gradientUnits="userSpaceOnUse">
		<stop  offset="0" style="stop-color:#A2FF5F"/>
		<stop  offset="0.4082" style="stop-color:#A0FF5F"/>
		<stop  offset="0.5552" style="stop-color:#99FD5F"/>
		<stop  offset="0.66" style="stop-color:#8EFB5E"/>
		<stop  offset="0.7448" style="stop-color:#7DF85E"/>
		<stop  offset="0.8174" style="stop-color:#67F35D"/>
		<stop  offset="0.8817" style="stop-color:#4BEE5C"/>
		<stop  offset="0.9398" style="stop-color:#2BE85B"/>
		<stop  offset="0.9915" style="stop-color:#07E05A"/>
		<stop  offset="1" style="stop-color:#00DF5A"/>
	</radialGradient>
	<path id="path3152" fill="url(#path3152_1_)" stroke="#000000" d="M431.205-26.237c0,5.78-6.597,10.467-14.729,10.467
		c-8.134,0-14.727-4.685-14.727-10.467s6.593-10.466,14.727-10.466C424.608-36.702,431.205-32.019,431.205-26.237z"/>
	<g enable-background="new    ">
		<path d="M408.256-29.299h-2.049v-0.739h4.987v0.739h-2.059v5.997h-0.879V-29.299z"/>
		<path d="M412.815-30.038v6.736h-0.879v-6.736H412.815z"/>
		<path d="M420.013-26.26c-0.05-0.939-0.11-2.079-0.11-2.909h-0.02c-0.24,0.78-0.51,1.63-0.85,2.559l-1.189,3.269h-0.66
			l-1.099-3.208c-0.32-0.96-0.58-1.819-0.77-2.619h-0.02c-0.02,0.84-0.07,1.959-0.13,2.979l-0.18,2.889h-0.83l0.47-6.736h1.109
			l1.149,3.258c0.28,0.83,0.5,1.569,0.68,2.27h0.02c0.18-0.68,0.42-1.42,0.72-2.27l1.199-3.258h1.109l0.42,6.736h-0.86
			L420.013-26.26z"/>
		<path d="M424.135-23.191c-1.269,0-2.139-1.189-2.159-3.339c0-2.188,0.949-3.378,2.27-3.378c1.359,0,2.148,1.22,2.148,3.288
			c0,2.209-0.83,3.429-2.248,3.429H424.135z M424.175-23.871c0.89,0,1.319-1.05,1.319-2.709c0-1.599-0.399-2.648-1.319-2.648
			c-0.799,0-1.319,1.02-1.319,2.648c-0.021,1.689,0.5,2.709,1.31,2.709H424.175z"/>
	</g>
</g>
<g>
	<g>
		
			<radialGradient id="path3167_1_" cx="181.4722" cy="-178.0449" r="16.1858" gradientTransform="matrix(0.9269 0 0 0.6352 343.5771 86.8573)" gradientUnits="userSpaceOnUse">
			<stop  offset="0" style="stop-color:#A2FF5F"/>
			<stop  offset="0.4082" style="stop-color:#A0FF5F"/>
			<stop  offset="0.5552" style="stop-color:#99FD5F"/>
			<stop  offset="0.66" style="stop-color:#8EFB5E"/>
			<stop  offset="0.7448" style="stop-color:#7DF85E"/>
			<stop  offset="0.8174" style="stop-color:#67F35D"/>
			<stop  offset="0.8817" style="stop-color:#4BEE5C"/>
			<stop  offset="0.9398" style="stop-color:#2BE85B"/>
			<stop  offset="0.9915" style="stop-color:#07E05A"/>
			<stop  offset="1" style="stop-color:#00DF5A"/>
		</radialGradient>
		<path id="path3167" fill="url(#path3167_1_)" stroke="#000000" d="M526.511-26.237c0,5.78-6.596,10.467-14.729,10.467
			s-14.727-4.685-14.727-10.467s6.594-10.466,14.727-10.466C519.916-36.702,526.511-32.019,526.511-26.237z"/>
		<g enable-background="new    ">
			<path d="M503.563-29.3h-2.049v-0.739h4.987v0.739h-2.059v5.997h-0.88V-29.3z"/>
			<path d="M508.123-30.039v6.736h-0.879v-6.736H508.123z"/>
			<path d="M515.32-26.261c-0.049-0.939-0.109-2.079-0.109-2.909h-0.02c-0.24,0.78-0.51,1.63-0.85,2.559l-1.189,3.269h-0.66
				l-1.1-3.208c-0.319-0.96-0.58-1.819-0.77-2.619h-0.02c-0.02,0.84-0.07,1.959-0.13,2.979l-0.181,2.889h-0.829l0.47-6.736h1.109
				l1.149,3.258c0.28,0.83,0.5,1.569,0.68,2.27h0.021c0.18-0.68,0.42-1.42,0.719-2.27l1.199-3.258h1.109l0.42,6.736h-0.859
				L515.32-26.261z"/>
			<path d="M519.283-28.979h-0.02l-1.13,0.609l-0.17-0.67l1.419-0.759h0.75v6.496h-0.85V-28.979z"/>
		</g>
	</g>
	<path id="path87172" sodipodi:nodetypes="cc" d="M511.785-26.237"/>
</g>
<path id="path3264" sodipodi:nodetypes="cc" d="M425.436-49.038"/>
<path id="path3268" sodipodi:nodetypes="cc" d="M523.589-49.149"/>
<g>
	<g id="g3175" transform="translate(215.4491,-67.85668)">
		
			<radialGradient id="path3177_1_" cx="-37.0502" cy="-110.1882" r="16.186" gradientTransform="matrix(0.9269 0 0 0.6352 425.9826 111.6115)" gradientUnits="userSpaceOnUse">
			<stop  offset="0" style="stop-color:#A2FF5F"/>
			<stop  offset="0.4082" style="stop-color:#A0FF5F"/>
			<stop  offset="0.5552" style="stop-color:#99FD5F"/>
			<stop  offset="0.66" style="stop-color:#8EFB5E"/>
			<stop  offset="0.7448" style="stop-color:#7DF85E"/>
			<stop  offset="0.8174" style="stop-color:#67F35D"/>
			<stop  offset="0.8817" style="stop-color:#4BEE5C"/>
			<stop  offset="0.9398" style="stop-color:#2BE85B"/>
			<stop  offset="0.9915" style="stop-color:#07E05A"/>
			<stop  offset="1" style="stop-color:#00DF5A"/>
		</radialGradient>
		<path id="path3177" fill="url(#path3177_1_)" stroke="#000000" d="M406.369,41.619c0,5.78-6.596,10.467-14.729,10.467
			s-14.727-4.685-14.727-10.467s6.594-10.466,14.727-10.466C399.773,31.155,406.369,35.838,406.369,41.619z"/>
		<g enable-background="new    ">
			<path d="M383.865,39.058h-2.049v-0.739h4.986v0.739h-2.059v5.997h-0.879V39.058z"/>
			<path d="M388.424,38.319v6.736h-0.88v-6.736H388.424z"/>
			<path d="M395.623,42.097c-0.051-0.939-0.11-2.079-0.11-2.909h-0.021c-0.239,0.78-0.51,1.63-0.85,2.559l-1.189,3.269h-0.659
				l-1.099-3.208c-0.32-0.96-0.58-1.819-0.77-2.619h-0.021c-0.021,0.84-0.07,1.959-0.13,2.979l-0.18,2.889h-0.83l0.47-6.736h1.109
				l1.149,3.258c0.279,0.83,0.5,1.569,0.68,2.27h0.02c0.18-0.68,0.42-1.42,0.721-2.27l1.199-3.258h1.109l0.42,6.736h-0.86
				L395.623,42.097z"/>
			<path d="M397.675,45.055v-0.54l0.689-0.669c1.659-1.579,2.419-2.419,2.419-3.398c0-0.66-0.31-1.27-1.279-1.27
				c-0.59,0-1.079,0.3-1.38,0.55l-0.279-0.619c0.439-0.37,1.09-0.66,1.839-0.66c1.39,0,1.979,0.96,1.979,1.889
				c0,1.2-0.87,2.169-2.239,3.488l-0.51,0.479v0.021h2.909v0.729H397.675z"/>
		</g>
	</g>
	<path id="path3266" sodipodi:nodetypes="cc" d="M607.091-26.237"/>
	<path id="path3294" sodipodi:nodetypes="cc" d="M607.091-26.237"/>
</g>
<g enable-background="new    ">
	<path d="M636.659-100.61h0.88v6.007h2.878v0.729h-3.758V-100.61z"/>
	<path d="M641.779-99.601c-0.33,0-0.551-0.26-0.551-0.57c0-0.31,0.23-0.56,0.57-0.56s0.56,0.25,0.56,0.56
		c0,0.311-0.22,0.57-0.569,0.57H641.779z M641.359-93.874v-4.837h0.879v4.837H641.359z"/>
	<path d="M647.835-94.584c0,1.12-0.229,1.789-0.689,2.219c-0.479,0.43-1.158,0.58-1.769,0.58c-0.579,0-1.22-0.14-1.608-0.399
		l0.219-0.68c0.32,0.21,0.82,0.39,1.42,0.39c0.899,0,1.559-0.47,1.559-1.699v-0.529h-0.02c-0.26,0.449-0.789,0.81-1.539,0.81
		c-1.199,0-2.059-1.02-2.059-2.369c0-1.639,1.068-2.559,2.188-2.559c0.84,0,1.29,0.43,1.51,0.829h0.02l0.031-0.719h0.779
		c-0.03,0.34-0.041,0.729-0.041,1.319V-94.584z M646.957-96.813c0-0.14-0.01-0.27-0.05-0.39c-0.16-0.52-0.579-0.939-1.229-0.939
		c-0.84,0-1.439,0.71-1.439,1.839c0,0.939,0.49,1.739,1.43,1.739c0.549,0,1.039-0.34,1.219-0.91c0.051-0.14,0.07-0.31,0.07-0.47
		V-96.813z"/>
	<path d="M649.289-100.97h0.879v3.018h0.02c0.141-0.249,0.36-0.479,0.631-0.619c0.26-0.16,0.569-0.25,0.898-0.25
		c0.65,0,1.689,0.399,1.689,2.068v2.879h-0.879v-2.778c0-0.79-0.291-1.439-1.119-1.439c-0.57,0-1.01,0.399-1.18,0.88
		c-0.051,0.12-0.061,0.25-0.061,0.42v2.918h-0.879V-100.97z"/>
	<path d="M655.857-99.871v1.16h1.26v0.669h-1.26v2.608c0,0.601,0.17,0.939,0.66,0.939c0.24,0,0.38-0.02,0.51-0.06l0.04,0.67
		c-0.17,0.06-0.44,0.12-0.78,0.12c-0.409,0-0.739-0.141-0.949-0.37c-0.24-0.27-0.34-0.699-0.34-1.27v-2.639h-0.75v-0.669h0.75v-0.89
		L655.857-99.871z"/>
</g>
<g>
	<g>
		<path fill="none" stroke="#000000" d="M514.193-36.362c23.238-27.796,61.521-30.348,86.959-4.659"/>
		<polygon points="596.543,-40.411 600.283,-41.899 601.807,-45.623 605.352,-36.78 		"/>
	</g>
</g>
<g>
	<g>
		<path fill="none" stroke="#000000" d="M508.224-16.108c-22.877,29.042-61.215,31.351-86.986,4.942"/>
		<polygon points="425.851,-11.743 422.101,-10.282 420.549,-6.569 417.069,-15.438 		"/>
	</g>
</g>
<g>
	<g>
		<path fill="none" stroke="#000000" d="M417.192-36.362c23.239-27.796,61.522-30.348,86.959-4.659"/>
		<polygon points="499.543,-40.411 503.283,-41.899 504.807,-45.623 508.352,-36.78 		"/>
	</g>
</g>
<g>
	<g>
		<line fill="none" stroke="#000000" x1="669.445" y1="-26.862" x2="621.445" y2="-26.862"/>
		<polygon points="666.636,-23.158 668.208,-26.862 666.636,-30.566 675.414,-26.862 		"/>
	</g>
</g>
<g>
	<g>
		<line fill="#FFFF00" x1="646.644" y1="-35.029" x2="646.644" y2="-90.863"/>
		<polygon fill="#FFFF00" points="642.94,-37.838 646.644,-36.265 650.347,-37.838 646.644,-29.06 		"/>
	</g>
	<g>
		<line fill="none" stroke="#F5FF2B" x1="646.644" y1="-35.029" x2="646.644" y2="-90.863"/>
		<polygon fill="#F5FF2B" points="642.94,-37.838 646.644,-36.265 650.347,-37.838 646.644,-29.06 		"/>
	</g>
</g>
<g id="g3189" transform="translate(17.17704,243.1136)">
	
		<radialGradient id="path3191_1_" cx="166.2321" cy="-421.2503" r="16.1855" gradientTransform="matrix(0.9269 0 0 0.6352 242.2039 309.1392)" gradientUnits="userSpaceOnUse">
		<stop  offset="0" style="stop-color:#A2FF5F"/>
		<stop  offset="0.4082" style="stop-color:#A0FF5F"/>
		<stop  offset="0.5552" style="stop-color:#99FD5F"/>
		<stop  offset="0.66" style="stop-color:#8EFB5E"/>
		<stop  offset="0.7448" style="stop-color:#7DF85E"/>
		<stop  offset="0.8174" style="stop-color:#67F35D"/>
		<stop  offset="0.8817" style="stop-color:#4BEE5C"/>
		<stop  offset="0.9398" style="stop-color:#2BE85B"/>
		<stop  offset="0.9915" style="stop-color:#07E05A"/>
		<stop  offset="1" style="stop-color:#00DF5A"/>
	</radialGradient>
	<path id="path3191" fill="url(#path3191_1_)" stroke="#000000" d="M411.012,41.56c0,5.78-6.596,10.467-14.727,10.467
		c-8.134,0-14.728-4.685-14.728-10.467s6.594-10.466,14.728-10.466C404.416,31.095,411.012,35.779,411.012,41.56z"/>
	<g enable-background="new    ">
		<path d="M387.229,38.349c0.419-0.08,0.969-0.14,1.669-0.14c0.859,0,1.489,0.2,1.889,0.56c0.37,0.319,0.6,0.81,0.6,1.409
			c0,0.609-0.18,1.09-0.53,1.439c-0.46,0.489-1.209,0.739-2.059,0.739c-0.26,0-0.5-0.01-0.7-0.06v2.698h-0.869V38.349z
			 M388.098,41.588c0.19,0.05,0.44,0.07,0.72,0.07c1.06,0,1.689-0.52,1.689-1.43c0-0.899-0.629-1.329-1.589-1.329
			c-0.38,0-0.67,0.04-0.82,0.07V41.588z"/>
		<path d="M396.027,41.838h-2.609v2.429h2.918v0.729h-3.798v-6.736h3.648v0.729h-2.769v2.129h2.609V41.838z"/>
		<path d="M397.469,38.359c0.439-0.09,1.079-0.149,1.669-0.149c0.929,0,1.539,0.18,1.959,0.56c0.33,0.29,0.53,0.75,0.53,1.279
			c0,0.88-0.57,1.469-1.27,1.709v0.03c0.51,0.18,0.82,0.659,0.989,1.359c0.22,0.939,0.38,1.589,0.51,1.849h-0.899
			c-0.11-0.189-0.26-0.77-0.439-1.609c-0.2-0.93-0.57-1.279-1.359-1.309h-0.82v2.918h-0.869V38.359z M398.338,41.418h0.89
			c0.93,0,1.519-0.51,1.519-1.279c0-0.869-0.629-1.249-1.549-1.249c-0.42,0-0.71,0.04-0.86,0.08V41.418z"/>
		<path d="M404.608,45.106c-1.269,0-2.139-1.189-2.159-3.339c0-2.188,0.949-3.378,2.268-3.378c1.359,0,2.149,1.22,2.149,3.288
			c0,2.209-0.829,3.429-2.249,3.429H404.608z M404.648,44.426c0.89,0,1.319-1.05,1.319-2.709c0-1.599-0.4-2.648-1.319-2.648
			c-0.799,0-1.319,1.02-1.319,2.648c-0.02,1.689,0.5,2.709,1.31,2.709H404.648z"/>
	</g>
</g>
<g id="g3197" transform="translate(115.3315,243.1136)">
	
		<radialGradient id="path3199_1_" cx="68.0791" cy="-421.2503" r="16.1858" gradientTransform="matrix(0.9269 0 0 0.6352 333.1835 309.1392)" gradientUnits="userSpaceOnUse">
		<stop  offset="0" style="stop-color:#A2FF5F"/>
		<stop  offset="0.4082" style="stop-color:#A0FF5F"/>
		<stop  offset="0.5552" style="stop-color:#99FD5F"/>
		<stop  offset="0.66" style="stop-color:#8EFB5E"/>
		<stop  offset="0.7448" style="stop-color:#7DF85E"/>
		<stop  offset="0.8174" style="stop-color:#67F35D"/>
		<stop  offset="0.8817" style="stop-color:#4BEE5C"/>
		<stop  offset="0.9398" style="stop-color:#2BE85B"/>
		<stop  offset="0.9915" style="stop-color:#07E05A"/>
		<stop  offset="1" style="stop-color:#00DF5A"/>
	</radialGradient>
	<path id="path3199" fill="url(#path3199_1_)" stroke="#000000" d="M411.014,41.56c0,5.78-6.596,10.467-14.729,10.467
		s-14.727-4.685-14.727-10.467s6.594-10.466,14.727-10.466C404.418,31.095,411.014,35.779,411.014,41.56z"/>
	<g enable-background="new    ">
		<path d="M387.23,38.349c0.419-0.08,0.97-0.14,1.669-0.14c0.859,0,1.489,0.2,1.889,0.56c0.37,0.319,0.6,0.81,0.6,1.409
			c0,0.609-0.18,1.09-0.529,1.439c-0.46,0.489-1.209,0.739-2.059,0.739c-0.26,0-0.5-0.01-0.7-0.06v2.698h-0.869V38.349z
			 M388.099,41.588c0.19,0.05,0.44,0.07,0.72,0.07c1.06,0,1.689-0.52,1.689-1.43c0-0.899-0.63-1.329-1.59-1.329
			c-0.379,0-0.67,0.04-0.819,0.07V41.588z"/>
		<path d="M396.027,41.838h-2.609v2.429h2.919v0.729h-3.798v-6.736h3.648v0.729h-2.77v2.129h2.609V41.838z"/>
		<path d="M397.469,38.359c0.439-0.09,1.08-0.149,1.67-0.149c0.929,0,1.539,0.18,1.959,0.56c0.329,0.29,0.529,0.75,0.529,1.279
			c0,0.88-0.57,1.469-1.27,1.709v0.03c0.51,0.18,0.82,0.659,0.989,1.359c0.22,0.939,0.38,1.589,0.51,1.849h-0.899
			c-0.109-0.189-0.26-0.77-0.439-1.609c-0.2-0.93-0.57-1.279-1.359-1.309h-0.82v2.918h-0.869V38.359z M398.338,41.418h0.891
			c0.93,0,1.519-0.51,1.519-1.279c0-0.869-0.63-1.249-1.549-1.249c-0.42,0-0.71,0.04-0.86,0.08V41.418z"/>
		<path d="M404.448,39.319h-0.021l-1.129,0.609l-0.17-0.67l1.419-0.759h0.749v6.496h-0.849V39.319z"/>
	</g>
</g>
<g id="g3205" transform="translate(213.4860,243.1136)">
	
		<radialGradient id="path3207_1_" cx="-33.3127" cy="-421.2503" r="16.1858" gradientTransform="matrix(0.9269 0 0 0.6352 424.1632 309.1392)" gradientUnits="userSpaceOnUse">
		<stop  offset="0" style="stop-color:#A2FF5F"/>
		<stop  offset="0.4082" style="stop-color:#A0FF5F"/>
		<stop  offset="0.5552" style="stop-color:#99FD5F"/>
		<stop  offset="0.66" style="stop-color:#8EFB5E"/>
		<stop  offset="0.7448" style="stop-color:#7DF85E"/>
		<stop  offset="0.8174" style="stop-color:#67F35D"/>
		<stop  offset="0.8817" style="stop-color:#4BEE5C"/>
		<stop  offset="0.9398" style="stop-color:#2BE85B"/>
		<stop  offset="0.9915" style="stop-color:#07E05A"/>
		<stop  offset="1" style="stop-color:#00DF5A"/>
	</radialGradient>
	<path id="path3207" fill="url(#path3207_1_)" stroke="#000000" d="M408.014,41.56c0,5.78-6.596,10.467-14.729,10.467
		s-14.727-4.685-14.727-10.467s6.594-10.466,14.727-10.466C401.418,31.095,408.014,35.779,408.014,41.56z"/>
	<g enable-background="new    ">
		<path d="M384.229,38.349c0.419-0.08,0.97-0.14,1.669-0.14c0.859,0,1.489,0.2,1.889,0.56c0.37,0.319,0.6,0.81,0.6,1.409
			c0,0.609-0.18,1.09-0.529,1.439c-0.46,0.489-1.209,0.739-2.059,0.739c-0.26,0-0.5-0.01-0.7-0.06v2.698h-0.869V38.349z
			 M385.098,41.588c0.19,0.05,0.44,0.07,0.72,0.07c1.06,0,1.689-0.52,1.689-1.43c0-0.899-0.63-1.329-1.59-1.329
			c-0.379,0-0.67,0.04-0.819,0.07V41.588z"/>
		<path d="M393.027,41.838h-2.609v2.429h2.919v0.729h-3.798v-6.736h3.648v0.729h-2.77v2.129h2.609V41.838z"/>
		<path d="M394.469,38.359c0.439-0.09,1.08-0.149,1.67-0.149c0.929,0,1.539,0.18,1.959,0.56c0.329,0.29,0.529,0.75,0.529,1.279
			c0,0.88-0.57,1.469-1.27,1.709v0.03c0.51,0.18,0.82,0.659,0.989,1.359c0.22,0.939,0.38,1.589,0.51,1.849h-0.899
			c-0.109-0.189-0.26-0.77-0.439-1.609c-0.2-0.93-0.57-1.279-1.359-1.309h-0.82v2.918h-0.869V38.359z M395.338,41.418h0.891
			c0.93,0,1.519-0.51,1.519-1.279c0-0.869-0.63-1.249-1.549-1.249c-0.42,0-0.71,0.04-0.86,0.08V41.418z"/>
		<path d="M399.539,44.996v-0.54l0.689-0.669c1.659-1.579,2.419-2.419,2.419-3.398c0-0.66-0.31-1.27-1.279-1.27
			c-0.59,0-1.079,0.3-1.38,0.55l-0.279-0.619c0.439-0.37,1.09-0.66,1.839-0.66c1.39,0,1.979,0.96,1.979,1.889
			c0,1.2-0.87,2.169-2.239,3.488l-0.51,0.479v0.021h2.909v0.729H399.539z"/>
	</g>
</g>
<path id="path3270" sodipodi:nodetypes="cc" d="M497.978,282.634"/>
<path id="path3272" sodipodi:nodetypes="cc" d="M597.115,282.634"/>
<path id="path3274" sodipodi:nodetypes="cc" d="M524.234,261.338"/>
<path id="path3276" sodipodi:nodetypes="cc" d="M425.097,261.828"/>
<path id="path3292" sodipodi:nodetypes="cc" d="M611.953,258.694"/>
<g>
	<g>
		<g>
			<path fill="none" stroke="#000000" d="M605.21,294.72c-22.877,29.042-61.215,31.351-86.986,4.942"/>
			<polygon points="522.836,299.085 519.087,300.547 517.535,304.259 514.055,295.39 			"/>
		</g>
	</g>
	<g>
		<g>
			<path fill="none" stroke="#000000" d="M514.179,274.466c23.238-27.796,61.521-30.348,86.959-4.659"/>
			<polygon points="596.53,270.417 600.269,268.929 601.793,265.205 605.338,274.048 			"/>
		</g>
	</g>
</g>
<g>
	<g>
		<g>
			<path fill="none" stroke="#000000" d="M508.056,294.72c-22.877,29.042-61.216,31.351-86.987,4.942"/>
			<polygon points="425.681,299.085 421.932,300.547 420.38,304.259 416.9,295.39 			"/>
		</g>
	</g>
	<g>
		<g>
			<path fill="none" stroke="#000000" d="M417.024,274.466c23.238-27.796,61.522-30.348,86.96-4.659"/>
			<polygon points="499.375,270.417 503.115,268.929 504.639,265.205 508.184,274.048 			"/>
		</g>
	</g>
</g>
<g>
	<g>
		<line fill="none" stroke="#000000" x1="672.458" y1="284.549" x2="624.458" y2="284.549"/>
		<polygon points="669.65,288.253 671.222,284.549 669.65,280.845 678.427,284.549 		"/>
	</g>
</g>
<g>
	<g>
		<line fill="none" stroke="#000000" x1="392.485" y1="285.031" x2="259.458" y2="285.031"/>
		<polygon points="389.676,288.735 391.249,285.031 389.676,281.327 398.454,285.031 		"/>
	</g>
</g>
<g>
	<g>
		<line fill="none" stroke="#000000" x1="395.111" y1="-26.302" x2="260.059" y2="-26.302"/>
		<polygon points="392.303,-22.598 393.875,-26.302 392.303,-30.006 401.081,-26.302 		"/>
	</g>
</g>
<g id="path5958_2_" sodipodi:nodetypes="cc">
	<g>
		<path fill="none" stroke="#000000" d="M528.57,129.138c68.375,0,79.376-24,79.376-138.833"/>
		<polygon points="611.65,-6.887 607.946,-8.459 604.242,-6.887 607.946,-15.665 		"/>
	</g>
</g>
<g id="path5958_3_" sodipodi:nodetypes="cc">
	<g>
		<path fill="none" stroke="#000000" d="M528.57,129.138c69.375,0,78.793,22,78.793,138.696"/>
		<polygon points="603.659,265.025 607.363,266.599 611.066,265.025 607.363,273.804 		"/>
		<polygon points="531.378,125.434 529.806,129.138 531.378,132.842 522.601,129.138 		"/>
	</g>
</g>
<g>
	<g id="path5958_6_" sodipodi:nodetypes="cc">
		<g>
			<path fill="none" stroke="#FF0000" d="M288.696,125.084c-40.953-0.231-58.032-39.031-58.032-39.031"/>
		</g>
	</g>
	<g id="path5958_5_" sodipodi:nodetypes="cc">
		<g>
			<path fill="none" stroke="#FF0000" d="M288.628,125.423c-40.952,0.231-58.032,39.033-58.032,39.033"/>
		</g>
	</g>
</g>
<g>
	
		<radialGradient id="path3126_1_" cx="148.002" cy="-177.2349" r="16.1855" gradientTransform="matrix(1.5933 0 0 0.6358 261.3572 238.4431)" gradientUnits="userSpaceOnUse">
		<stop  offset="0" style="stop-color:#A2FF5F"/>
		<stop  offset="0.4082" style="stop-color:#A0FF5F"/>
		<stop  offset="0.5552" style="stop-color:#99FD5F"/>
		<stop  offset="0.66" style="stop-color:#8EFB5E"/>
		<stop  offset="0.7448" style="stop-color:#7DF85E"/>
		<stop  offset="0.8174" style="stop-color:#67F35D"/>
		<stop  offset="0.8817" style="stop-color:#4BEE5C"/>
		<stop  offset="0.9398" style="stop-color:#2BE85B"/>
		<stop  offset="0.9915" style="stop-color:#07E05A"/>
		<stop  offset="1" style="stop-color:#00DF5A"/>
	</radialGradient>
	<path id="path3126" fill="url(#path3126_1_)" stroke="#000000" d="M522.484,125.757c0,5.786-11.338,10.477-25.316,10.477
		c-13.98,0-25.314-4.688-25.314-10.477s11.334-10.476,25.314-10.476C511.146,115.282,522.484,119.97,522.484,125.757z"/>
	<g enable-background="new    ">
		<path d="M480.883,122.045c0.419-0.08,0.97-0.14,1.669-0.14c0.859,0,1.489,0.2,1.889,0.56c0.37,0.319,0.6,0.81,0.6,1.409
			c0,0.609-0.18,1.09-0.529,1.439c-0.46,0.489-1.209,0.739-2.059,0.739c-0.26,0-0.5-0.01-0.7-0.06v2.698h-0.869V122.045z
			 M481.752,125.283c0.19,0.05,0.44,0.07,0.72,0.07c1.06,0,1.689-0.52,1.689-1.43c0-0.899-0.63-1.329-1.59-1.329
			c-0.379,0-0.67,0.04-0.819,0.07V125.283z"/>
		<path d="M489.681,125.533h-2.609v2.429h2.919v0.729h-3.798v-6.736h3.648v0.729h-2.77v2.129h2.609V125.533z"/>
		<path d="M491.123,122.055c0.439-0.09,1.08-0.149,1.67-0.149c0.929,0,1.539,0.18,1.959,0.56c0.329,0.29,0.529,0.75,0.529,1.279
			c0,0.88-0.57,1.469-1.27,1.709v0.03c0.51,0.18,0.82,0.659,0.989,1.359c0.22,0.939,0.38,1.589,0.51,1.849h-0.899
			c-0.109-0.189-0.26-0.77-0.439-1.609c-0.2-0.93-0.57-1.279-1.359-1.309h-0.82v2.918h-0.869V122.055z M491.992,125.113h0.891
			c0.93,0,1.519-0.51,1.519-1.279c0-0.869-0.63-1.249-1.549-1.249c-0.42,0-0.71,0.04-0.86,0.08V125.113z"/>
		<path d="M498.511,125.673v0.64h-2.469v-0.64H498.511z"/>
		<path d="M500.852,122.694h-2.049v-0.739h4.987v0.739h-2.059v5.997h-0.88V122.694z"/>
		<path d="M505.412,121.955v6.736h-0.879v-6.736H505.412z"/>
		<path d="M512.609,125.733c-0.049-0.939-0.109-2.079-0.109-2.909h-0.02c-0.24,0.78-0.51,1.63-0.85,2.559l-1.189,3.269h-0.66
			l-1.1-3.208c-0.319-0.96-0.58-1.819-0.77-2.619h-0.02c-0.02,0.84-0.07,1.959-0.13,2.979l-0.181,2.889h-0.829l0.47-6.736h1.109
			l1.149,3.258c0.28,0.83,0.5,1.569,0.68,2.27h0.021c0.18-0.68,0.42-1.42,0.719-2.27l1.199-3.258h1.109l0.42,6.736h-0.859
			L512.609,125.733z"/>
	</g>
</g>
<path id="path33139" fill="none" stroke="#000000" d="M233.113,86.128l-4.519-0.094"/>
<path id="path33139_1_" fill="none" stroke="#000000" d="M228.593,164.42l4.521,0.024"/>
<g>
	<g>
		<line fill="none" stroke="#000000" x1="230.506" y1="-63.195" x2="230.506" y2="73.304"/>
		<polygon points="234.21,-60.387 230.506,-61.959 226.803,-60.387 230.506,-69.165 		"/>
	</g>
</g>
<g>
	
		<radialGradient id="path16609_1_" cx="166.8306" cy="-177.124" r="16.1855" gradientTransform="matrix(1.5933 0 0 0.6358 48.3836 238.3728)" gradientUnits="userSpaceOnUse">
		<stop  offset="0" style="stop-color:#A2FF5F"/>
		<stop  offset="0.4082" style="stop-color:#A0FF5F"/>
		<stop  offset="0.5552" style="stop-color:#99FD5F"/>
		<stop  offset="0.66" style="stop-color:#8EFB5E"/>
		<stop  offset="0.7448" style="stop-color:#7DF85E"/>
		<stop  offset="0.8174" style="stop-color:#67F35D"/>
		<stop  offset="0.8817" style="stop-color:#4BEE5C"/>
		<stop  offset="0.9398" style="stop-color:#2BE85B"/>
		<stop  offset="0.9915" style="stop-color:#07E05A"/>
		<stop  offset="1" style="stop-color:#00DF5A"/>
	</radialGradient>
	<path id="path16609" fill="url(#path16609_1_)" stroke="#000000" d="M339.51,125.756c0,5.786-11.338,10.478-25.316,10.478
		c-13.981,0-25.315-4.689-25.315-10.478c0-5.787,11.334-10.475,25.315-10.475C328.172,115.282,339.51,119.97,339.51,125.756z"/>
	<g enable-background="new    ">
		<path d="M297.91,122.045c0.419-0.08,0.969-0.14,1.669-0.14c0.859,0,1.489,0.2,1.889,0.56c0.37,0.319,0.6,0.81,0.6,1.409
			c0,0.609-0.18,1.09-0.53,1.439c-0.46,0.489-1.209,0.739-2.059,0.739c-0.26,0-0.5-0.01-0.7-0.06v2.698h-0.869V122.045z
			 M298.779,125.283c0.19,0.05,0.44,0.07,0.72,0.07c1.06,0,1.689-0.52,1.689-1.43c0-0.899-0.629-1.329-1.589-1.329
			c-0.38,0-0.67,0.04-0.82,0.07V125.283z"/>
		<path d="M306.708,125.533h-2.609v2.429h2.918v0.729h-3.798v-6.736h3.648v0.729h-2.769v2.129h2.609V125.533z"/>
		<path d="M308.149,122.055c0.439-0.09,1.079-0.149,1.669-0.149c0.929,0,1.539,0.18,1.959,0.56c0.33,0.29,0.53,0.75,0.53,1.279
			c0,0.88-0.57,1.469-1.27,1.709v0.03c0.51,0.18,0.82,0.659,0.989,1.359c0.22,0.939,0.38,1.589,0.51,1.849h-0.899
			c-0.11-0.189-0.26-0.77-0.439-1.609c-0.2-0.93-0.57-1.279-1.359-1.309h-0.82v2.918h-0.869V122.055z M309.019,125.113h0.89
			c0.93,0,1.519-0.51,1.519-1.279c0-0.869-0.629-1.249-1.549-1.249c-0.42,0-0.71,0.04-0.86,0.08V125.113z"/>
		<path d="M315.538,125.673v0.64h-2.469v-0.64H315.538z"/>
		<path d="M317.878,122.694h-2.049v-0.739h4.987v0.739h-2.059v5.997h-0.879V122.694z"/>
		<path d="M322.438,121.955v6.736h-0.879v-6.736H322.438z"/>
		<path d="M329.636,125.733c-0.05-0.939-0.11-2.079-0.11-2.909h-0.02c-0.24,0.78-0.51,1.63-0.85,2.559l-1.189,3.269h-0.66
			l-1.099-3.208c-0.32-0.96-0.58-1.819-0.77-2.619h-0.02c-0.02,0.84-0.07,1.959-0.13,2.979l-0.18,2.889h-0.83l0.47-6.736h1.109
			l1.149,3.258c0.28,0.83,0.5,1.569,0.68,2.27h0.02c0.18-0.68,0.42-1.42,0.72-2.27l1.199-3.258h1.109l0.42,6.736h-0.86
			L329.636,125.733z"/>
	</g>
</g>
<g>
	<g>
		<line fill="none" stroke="#000000" x1="230.506" y1="321.471" x2="230.506" y2="175.679"/>
		<polygon points="226.802,318.662 230.506,320.235 234.21,318.662 230.506,327.44 		"/>
	</g>
</g>
<path id="path4101" sodipodi:cy="567.10571" sodipodi:cx="663.41638" sodipodi:type="arc" sodipodi:ry="70.471161" sodipodi:rx="95.158508" fill="#BFDDFF" stroke="#0092DF" stroke-width="4.6459" d="
	M549.365,475.749c0,42.503-51.01,76.959-113.936,76.959c-62.925,0-113.936-34.456-113.936-76.959l0,0
	c0-42.504,51.011-76.96,113.936-76.96C498.355,398.789,549.365,433.245,549.365,475.749z"/>
<g>
	<g id="g4103" transform="matrix(1.147869,0.000000,0.000000,1.063231,146.8529,324.9538)">
		
			<radialGradient id="path4105_1_" cx="15.1343" cy="-537.334" r="16.1865" gradientTransform="matrix(1.8289 0 0 0.676 281.5587 503.9691)" gradientUnits="userSpaceOnUse">
			<stop  offset="0" style="stop-color:#A2FF5F"/>
			<stop  offset="0.4082" style="stop-color:#A0FF5F"/>
			<stop  offset="0.5552" style="stop-color:#99FD5F"/>
			<stop  offset="0.66" style="stop-color:#8EFB5E"/>
			<stop  offset="0.7448" style="stop-color:#7DF85E"/>
			<stop  offset="0.8174" style="stop-color:#67F35D"/>
			<stop  offset="0.8817" style="stop-color:#4BEE5C"/>
			<stop  offset="0.9398" style="stop-color:#2BE85B"/>
			<stop  offset="0.9915" style="stop-color:#07E05A"/>
			<stop  offset="1" style="stop-color:#00DF5A"/>
		</radialGradient>
		<path id="path4105" fill="url(#path4105_1_)" stroke="#000000" d="M334.553,140.73c0,5.786-11.337,10.478-25.315,10.478
			c-13.981,0-25.315-4.69-25.315-10.478s11.334-10.476,25.315-10.476C323.215,130.255,334.553,134.943,334.553,140.73z"/>
	</g>
	<g enable-background="new    ">
		<path d="M477.412,473.99c0-0.51-0.01-0.909-0.041-1.309h0.78l0.05,0.789h0.02c0.24-0.449,0.801-0.899,1.6-0.899
			c0.67,0,1.709,0.399,1.709,2.059v2.889h-0.879v-2.788c0-0.78-0.291-1.439-1.119-1.439c-0.57,0-1.02,0.409-1.18,0.899
			c-0.041,0.11-0.061,0.27-0.061,0.41v2.918h-0.879V473.99z"/>
		<path d="M487.009,476.199c0,0.5,0.01,0.939,0.039,1.319h-0.779l-0.05-0.79h-0.021c-0.219,0.391-0.739,0.9-1.599,0.9
			c-0.76,0-1.669-0.431-1.669-2.119v-2.828h0.879v2.668c0,0.92,0.291,1.549,1.08,1.549c0.59,0,1-0.409,1.159-0.81
			c0.05-0.119,0.08-0.279,0.08-0.449v-2.958h0.88V476.199z"/>
		<path d="M491.919,477.349c-0.23,0.11-0.74,0.28-1.39,0.28c-1.46,0-2.409-0.99-2.409-2.479c0-1.488,1.02-2.578,2.6-2.578
			c0.52,0,0.979,0.13,1.219,0.26l-0.199,0.67c-0.211-0.11-0.541-0.23-1.02-0.23c-1.109,0-1.709,0.83-1.709,1.84
			c0,1.119,0.719,1.809,1.678,1.809c0.5,0,0.83-0.12,1.08-0.229L491.919,477.349z"/>
		<path d="M492.951,470.423h0.879v7.096h-0.879V470.423z"/>
		<path d="M495.791,475.25c0.02,1.189,0.77,1.679,1.648,1.679c0.631,0,1.02-0.109,1.34-0.239l0.16,0.619
			c-0.311,0.14-0.85,0.31-1.619,0.31c-1.479,0-2.379-0.989-2.379-2.438c0-1.469,0.869-2.618,2.279-2.618
			c1.578,0,1.988,1.389,1.988,2.278c0,0.18-0.01,0.32-0.029,0.42L495.791,475.25z M498.359,474.62c0.01-0.55-0.23-1.429-1.209-1.429
			c-0.9,0-1.279,0.819-1.35,1.429H498.359z"/>
		<path d="M503.708,476.359c0,0.42,0.02,0.829,0.07,1.159h-0.79l-0.079-0.609h-0.031c-0.26,0.38-0.789,0.72-1.479,0.72
			c-0.979,0-1.479-0.69-1.479-1.39c0-1.169,1.04-1.809,2.909-1.799v-0.101c0-0.399-0.11-1.129-1.1-1.119
			c-0.46,0-0.93,0.13-1.27,0.36l-0.2-0.59c0.399-0.25,0.989-0.42,1.599-0.42c1.49,0,1.85,1.01,1.85,1.979V476.359z M502.849,475.05
			c-0.959-0.02-2.049,0.15-2.049,1.09c0,0.579,0.379,0.839,0.819,0.839c0.64,0,1.05-0.399,1.189-0.81
			c0.03-0.09,0.04-0.189,0.04-0.279V475.05z"/>
		<path d="M505.13,474.19c0-0.569-0.01-1.06-0.04-1.509h0.77l0.04,0.949h0.029c0.221-0.649,0.76-1.06,1.35-1.06
			c0.09,0,0.16,0.01,0.24,0.03v0.819c-0.1-0.01-0.189-0.021-0.311-0.021c-0.619,0-1.059,0.47-1.179,1.12
			c-0.021,0.13-0.03,0.27-0.03,0.42v2.578h-0.879L505.13,474.19z"/>
		<path d="M510.531,470.782h3.627v0.729h-2.748v2.239h2.539v0.72h-2.539v3.048h-0.879V470.782z"/>
		<path d="M515.411,470.882c0.439-0.09,1.079-0.149,1.669-0.149c0.93,0,1.539,0.18,1.959,0.56c0.33,0.29,0.529,0.75,0.529,1.279
			c0,0.88-0.569,1.469-1.27,1.709v0.03c0.51,0.18,0.82,0.659,0.99,1.359c0.22,0.939,0.379,1.589,0.51,1.849h-0.9
			c-0.109-0.189-0.26-0.77-0.439-1.609c-0.199-0.93-0.569-1.279-1.359-1.309h-0.819v2.918h-0.869V470.882z M516.28,473.94h0.89
			c0.93,0,1.52-0.51,1.52-1.279c0-0.869-0.63-1.249-1.549-1.249c-0.42,0-0.711,0.04-0.86,0.08V473.94z"/>
		<path d="M526.376,478.508c-0.908-0.239-1.799-0.51-2.578-0.779c-0.15-0.05-0.279-0.1-0.41-0.1
			c-1.608-0.061-2.968-1.239-2.968-3.408c0-2.159,1.31-3.549,3.128-3.549c1.84,0,3.029,1.42,3.029,3.408
			c0,1.729-0.801,2.829-1.92,3.229v0.04c0.67,0.17,1.399,0.33,1.969,0.43L526.376,478.508z M523.499,476.919
			c1.38,0,2.159-1.27,2.159-2.799c0-1.349-0.699-2.738-2.129-2.738c-1.469,0-2.189,1.359-2.189,2.818c0,1.43,0.78,2.719,2.149,2.719
			H523.499z"/>
	</g>
</g>
<g enable-background="new    ">
	<path d="M368.026,372.677h0.879v6.007h2.878v0.729h-3.758V372.677z"/>
	<path d="M373.146,373.687c-0.33,0-0.55-0.26-0.55-0.57c0-0.31,0.23-0.56,0.57-0.56s0.56,0.25,0.56,0.56
		c0,0.311-0.22,0.57-0.57,0.57H373.146z M372.726,379.413v-4.837h0.879v4.837H372.726z"/>
	<path d="M379.204,378.703c0,1.12-0.229,1.789-0.689,2.219c-0.48,0.43-1.159,0.58-1.769,0.58c-0.58,0-1.219-0.14-1.609-0.399
		l0.22-0.68c0.32,0.21,0.819,0.39,1.419,0.39c0.9,0,1.56-0.47,1.56-1.699v-0.529h-0.02c-0.26,0.449-0.79,0.81-1.54,0.81
		c-1.199,0-2.059-1.02-2.059-2.369c0-1.639,1.069-2.559,2.188-2.559c0.84,0,1.29,0.43,1.509,0.829h0.02l0.03-0.719h0.779
		c-0.03,0.34-0.04,0.729-0.04,1.319V378.703z M378.324,376.475c0-0.14-0.01-0.27-0.05-0.39c-0.16-0.52-0.58-0.939-1.229-0.939
		c-0.839,0-1.439,0.71-1.439,1.839c0,0.939,0.489,1.739,1.429,1.739c0.549,0,1.039-0.34,1.219-0.91c0.05-0.14,0.07-0.31,0.07-0.47
		V376.475z"/>
	<path d="M380.656,372.317h0.879v3.018h0.02c0.14-0.249,0.36-0.479,0.63-0.619c0.26-0.16,0.57-0.25,0.899-0.25
		c0.65,0,1.689,0.399,1.689,2.068v2.879h-0.879v-2.778c0-0.79-0.29-1.439-1.119-1.439c-0.57,0-1.01,0.399-1.18,0.88
		c-0.05,0.12-0.06,0.25-0.06,0.42v2.918h-0.879V372.317z"/>
	<path d="M387.225,373.416v1.16h1.259v0.669h-1.259v2.608c0,0.601,0.17,0.939,0.66,0.939c0.24,0,0.38-0.02,0.51-0.06l0.04,0.67
		c-0.17,0.06-0.44,0.12-0.78,0.12c-0.41,0-0.74-0.141-0.949-0.37c-0.24-0.27-0.34-0.699-0.34-1.27v-2.639h-0.75v-0.669h0.75v-0.89
		L387.225,373.416z"/>
</g>
<g>
	<g>
		<line fill="#FFFF00" x1="378.012" y1="456.638" x2="378.012" y2="383.471"/>
		<polygon fill="#FFFF00" points="374.308,453.829 378.012,455.401 381.715,453.829 378.012,462.606 		"/>
	</g>
	<g>
		<line fill="none" stroke="#F5FF2B" x1="378.012" y1="456.638" x2="378.012" y2="383.471"/>
		<polygon fill="#F5FF2B" points="374.308,453.829 378.012,455.401 381.715,453.829 378.012,462.606 		"/>
	</g>
</g>
<line fill="none" stroke="#FF0000" x1="418.82" y1="474.513" x2="471.695" y2="474.513"/>
<path id="path33139_2_" fill="none" stroke="#000000" d="M418.891,472.32l0.063,4.52"/>
<g>
	<g>
		<line fill="none" stroke="#000000" x1="501.817" y1="620.138" x2="501.817" y2="491.888"/>
		<polygon points="505.521,494.696 501.817,493.124 498.113,494.696 501.817,485.919 		"/>
		<polygon points="498.113,617.329 501.817,618.901 505.521,617.329 501.817,626.106 		"/>
	</g>
</g>
<g>
	<g>
		<line fill="none" stroke="#000000" x1="379.355" y1="659.472" x2="379.355" y2="484.055"/>
		<polygon points="375.651,656.663 379.355,658.235 383.059,656.663 379.355,665.44 		"/>
	</g>
</g>
<g id="g4153" transform="translate(-109.3141,-31.23255)">
	<g id="g4155" transform="matrix(1.147869,0.000000,0.000000,1.063231,146.8529,324.9538)">
		
			<radialGradient id="path4157_1_" cx="105.558" cy="-499.5336" r="16.1855" gradientTransform="matrix(2.3862 0 0 0.6961 45.9015 517.8315)" gradientUnits="userSpaceOnUse">
			<stop  offset="0" style="stop-color:#A2FF5F"/>
			<stop  offset="0.4082" style="stop-color:#A0FF5F"/>
			<stop  offset="0.5552" style="stop-color:#99FD5F"/>
			<stop  offset="0.66" style="stop-color:#8EFB5E"/>
			<stop  offset="0.7448" style="stop-color:#7DF85E"/>
			<stop  offset="0.8174" style="stop-color:#67F35D"/>
			<stop  offset="0.8817" style="stop-color:#4BEE5C"/>
			<stop  offset="0.9398" style="stop-color:#2BE85B"/>
			<stop  offset="0.9915" style="stop-color:#07E05A"/>
			<stop  offset="1" style="stop-color:#00DF5A"/>
		</radialGradient>
		<path id="path4157" fill="url(#path4157_1_)" stroke="#000000" d="M330.813,170.105c0,5.959-14.793,10.789-33.03,10.789
			c-18.241,0-33.028-4.828-33.028-10.789c0-5.959,14.787-10.787,33.028-10.787C316.02,159.32,330.813,164.148,330.813,170.105z"/>
	</g>
	<g enable-background="new    ">
		<path d="M456.511,508.245v-4.168h-0.669v-0.669h0.669v-0.23c0-0.68,0.16-1.299,0.57-1.688c0.33-0.32,0.77-0.45,1.169-0.45
			c0.32,0,0.58,0.07,0.75,0.14l-0.11,0.68c-0.14-0.06-0.31-0.109-0.57-0.109c-0.74,0-0.939,0.659-0.939,1.398v0.261h1.169v0.669
			h-1.16v4.168H456.511z"/>
		<path d="M459.361,504.917c0-0.569-0.01-1.06-0.04-1.509h0.77l0.04,0.949h0.03c0.22-0.649,0.76-1.06,1.349-1.06
			c0.09,0,0.16,0.01,0.24,0.03v0.819c-0.1-0.01-0.19-0.021-0.31-0.021c-0.62,0-1.06,0.47-1.179,1.12c-0.02,0.13-0.03,0.27-0.03,0.42
			v2.578h-0.879L459.361,504.917z"/>
		<path d="M465.809,507.506h-0.02c-0.26,0.47-0.8,0.85-1.579,0.85c-1.129,0-2.049-0.97-2.049-2.449c0-1.809,1.169-2.608,2.188-2.608
			c0.75,0,1.25,0.37,1.489,0.84h0.02l0.03-0.729h0.839c-0.03,0.399-0.04,0.819-0.04,1.329v5.486h-0.879V507.506z M465.809,505.366
			c0-0.13-0.01-0.26-0.04-0.369c-0.14-0.54-0.6-1-1.259-1c-0.91,0-1.459,0.77-1.459,1.859c0,0.97,0.459,1.799,1.429,1.799
			c0.569,0,1.059-0.35,1.259-0.959c0.04-0.12,0.07-0.29,0.07-0.42V505.366z"/>
		<path d="M471.32,502.248v1.16h1.259v0.669h-1.259v2.608c0,0.601,0.17,0.939,0.66,0.939c0.24,0,0.38-0.02,0.51-0.06l0.04,0.67
			c-0.17,0.06-0.44,0.12-0.78,0.12c-0.41,0-0.74-0.141-0.949-0.37c-0.24-0.27-0.34-0.699-0.34-1.27v-2.639h-0.75v-0.669h0.75v-0.89
			L471.32,502.248z"/>
		<path d="M473.581,504.917c0-0.569-0.01-1.06-0.04-1.509h0.77l0.04,0.949h0.03c0.22-0.649,0.76-1.06,1.349-1.06
			c0.09,0,0.16,0.01,0.24,0.03v0.819c-0.1-0.01-0.19-0.021-0.31-0.021c-0.62,0-1.059,0.47-1.179,1.12
			c-0.02,0.13-0.03,0.27-0.03,0.42v2.578h-0.879L473.581,504.917z"/>
		<path d="M480.189,507.086c0,0.42,0.02,0.829,0.07,1.159h-0.79l-0.08-0.609h-0.03c-0.26,0.38-0.79,0.72-1.479,0.72
			c-0.979,0-1.479-0.69-1.479-1.39c0-1.169,1.04-1.809,2.909-1.799v-0.101c0-0.399-0.11-1.129-1.1-1.119
			c-0.459,0-0.929,0.13-1.269,0.36l-0.2-0.59c0.4-0.25,0.99-0.42,1.599-0.42c1.489,0,1.849,1.01,1.849,1.979V507.086z
			 M479.33,505.776c-0.959-0.02-2.049,0.15-2.049,1.09c0,0.579,0.379,0.839,0.819,0.839c0.64,0,1.049-0.399,1.189-0.81
			c0.03-0.09,0.04-0.189,0.04-0.279V505.776z"/>
		<path d="M481.601,504.717c0-0.51-0.01-0.909-0.04-1.309h0.78l0.05,0.789h0.02c0.24-0.449,0.8-0.899,1.599-0.899
			c0.67,0,1.709,0.399,1.709,2.059v2.889h-0.879v-2.788c0-0.78-0.29-1.439-1.119-1.439c-0.57,0-1.02,0.409-1.18,0.899
			c-0.04,0.11-0.06,0.27-0.06,0.41v2.918h-0.879V504.717z"/>
		<path d="M487.031,507.356c0.27,0.16,0.729,0.34,1.169,0.34c0.63,0,0.93-0.31,0.93-0.72c0-0.42-0.25-0.649-0.89-0.89
			c-0.879-0.319-1.289-0.789-1.289-1.369c0-0.779,0.64-1.419,1.669-1.419c0.49,0,0.919,0.13,1.179,0.3l-0.209,0.63
			c-0.19-0.11-0.54-0.28-0.99-0.28c-0.52,0-0.799,0.3-0.799,0.66c0,0.409,0.28,0.59,0.909,0.829c0.83,0.31,1.27,0.729,1.27,1.459
			c0,0.86-0.67,1.46-1.799,1.46c-0.529,0-1.019-0.141-1.359-0.34L487.031,507.356z"/>
		<path d="M494.559,508.075c-0.23,0.11-0.74,0.28-1.389,0.28c-1.459,0-2.409-0.99-2.409-2.479c0-1.488,1.02-2.578,2.599-2.578
			c0.52,0,0.979,0.13,1.219,0.26l-0.2,0.67c-0.21-0.11-0.54-0.23-1.02-0.23c-1.109,0-1.709,0.83-1.709,1.84
			c0,1.119,0.719,1.809,1.679,1.809c0.5,0,0.83-0.12,1.08-0.229L494.559,508.075z"/>
		<path d="M495.601,504.917c0-0.569-0.01-1.06-0.04-1.509h0.77l0.04,0.949h0.03c0.22-0.649,0.76-1.06,1.349-1.06
			c0.09,0,0.16,0.01,0.24,0.03v0.819c-0.1-0.01-0.19-0.021-0.31-0.021c-0.62,0-1.059,0.47-1.179,1.12
			c-0.02,0.13-0.03,0.27-0.03,0.42v2.578h-0.879L495.601,504.917z"/>
		<path d="M499.32,502.519c-0.33,0-0.55-0.26-0.55-0.57c0-0.31,0.23-0.56,0.57-0.56s0.56,0.25,0.56,0.56
			c0,0.311-0.22,0.57-0.57,0.57H499.32z M498.901,508.245v-4.837h0.879v4.837H498.901z"/>
		<path d="M501.24,504.987c0-0.62-0.01-1.12-0.04-1.579h0.79l0.05,0.829h0.02c0.35-0.6,0.929-0.939,1.709-0.939
			c1.179,0,2.059,0.989,2.059,2.459c0,1.738-1.069,2.599-2.199,2.599c-0.649,0-1.199-0.28-1.489-0.76h-0.02v2.628h-0.879V504.987z
			 M502.12,506.276c0,0.12,0.01,0.25,0.04,0.359c0.15,0.61,0.69,1.029,1.31,1.029c0.929,0,1.469-0.759,1.469-1.868
			c0-0.97-0.5-1.8-1.429-1.8c-0.6,0-1.169,0.42-1.339,1.08c-0.02,0.12-0.05,0.25-0.05,0.359V506.276z"/>
		<path d="M507.99,502.248v1.16h1.259v0.669h-1.259v2.608c0,0.601,0.17,0.939,0.66,0.939c0.24,0,0.38-0.02,0.51-0.06l0.04,0.67
			c-0.17,0.06-0.44,0.12-0.78,0.12c-0.41,0-0.74-0.141-0.949-0.37c-0.24-0.27-0.34-0.699-0.34-1.27v-2.639h-0.75v-0.669h0.75v-0.89
			L507.99,502.248z"/>
		<path d="M510.66,502.519c-0.33,0-0.55-0.26-0.55-0.57c0-0.31,0.23-0.56,0.57-0.56s0.56,0.25,0.56,0.56
			c0,0.311-0.22,0.57-0.57,0.57H510.66z M510.24,508.245v-4.837h0.879v4.837H510.24z"/>
		<path d="M514.549,508.356c-1.299,0-2.319-0.96-2.319-2.489c0-1.619,1.069-2.568,2.398-2.568c1.389,0,2.329,1.01,2.329,2.479
			c0,1.799-1.25,2.579-2.399,2.579H514.549z M514.579,507.695c0.839,0,1.469-0.789,1.469-1.889c0-0.819-0.41-1.85-1.449-1.85
			c-1.029,0-1.479,0.96-1.479,1.88c0,1.059,0.6,1.858,1.449,1.858H514.579z"/>
		<path d="M518.07,504.717c0-0.51-0.01-0.909-0.04-1.309h0.78l0.05,0.789h0.02c0.24-0.449,0.8-0.899,1.599-0.899
			c0.67,0,1.709,0.399,1.709,2.059v2.889h-0.879v-2.788c0-0.78-0.29-1.439-1.119-1.439c-0.57,0-1.02,0.409-1.18,0.899
			c-0.04,0.11-0.06,0.27-0.06,0.41v2.918h-0.879V504.717z"/>
	</g>
</g>
<g id="g4123" transform="translate(-12.10012,479.2627)">
	
		<radialGradient id="path4125_1_" cx="239.7432" cy="-744.7988" r="16.1858" gradientTransform="matrix(1.5933 0 0 0.6358 9.4731 631.4278)" gradientUnits="userSpaceOnUse">
		<stop  offset="0" style="stop-color:#A2FF5F"/>
		<stop  offset="0.4082" style="stop-color:#A0FF5F"/>
		<stop  offset="0.5552" style="stop-color:#99FD5F"/>
		<stop  offset="0.66" style="stop-color:#8EFB5E"/>
		<stop  offset="0.7448" style="stop-color:#7DF85E"/>
		<stop  offset="0.8174" style="stop-color:#67F35D"/>
		<stop  offset="0.8817" style="stop-color:#4BEE5C"/>
		<stop  offset="0.9398" style="stop-color:#2BE85B"/>
		<stop  offset="0.9915" style="stop-color:#07E05A"/>
		<stop  offset="1" style="stop-color:#00DF5A"/>
	</radialGradient>
	<path id="path4125" fill="url(#path4125_1_)" stroke="#000000" d="M416.772,157.885c0,5.786-11.338,10.477-25.316,10.477
		c-13.981,0-25.315-4.688-25.315-10.477s11.334-10.477,25.315-10.477C405.433,147.409,416.772,152.098,416.772,157.885z"/>
	<g enable-background="new    ">
		<path d="M372.865,160.899v-4.168h-0.669v-0.669h0.669v-0.23c0-0.68,0.16-1.299,0.57-1.688c0.33-0.32,0.77-0.45,1.169-0.45
			c0.32,0,0.58,0.07,0.75,0.14l-0.11,0.68c-0.14-0.06-0.31-0.109-0.57-0.109c-0.74,0-0.939,0.659-0.939,1.398v0.261h1.169v0.669
			h-1.16v4.168H372.865z"/>
		<path d="M375.715,157.571c0-0.569-0.01-1.06-0.04-1.509h0.77l0.04,0.949h0.03c0.22-0.649,0.76-1.06,1.349-1.06
			c0.09,0,0.16,0.01,0.24,0.03v0.819c-0.1-0.01-0.19-0.021-0.31-0.021c-0.62,0-1.06,0.47-1.179,1.12c-0.02,0.13-0.03,0.27-0.03,0.42
			v2.578h-0.879L375.715,157.571z"/>
		<path d="M382.164,160.16h-0.02c-0.26,0.47-0.8,0.85-1.579,0.85c-1.129,0-2.049-0.97-2.049-2.449c0-1.809,1.169-2.608,2.188-2.608
			c0.75,0,1.25,0.37,1.489,0.84h0.02l0.03-0.729h0.839c-0.03,0.399-0.04,0.819-0.04,1.329v5.486h-0.879V160.16z M382.164,158.021
			c0-0.13-0.01-0.26-0.04-0.369c-0.14-0.54-0.6-1-1.259-1c-0.91,0-1.459,0.77-1.459,1.859c0,0.97,0.459,1.799,1.429,1.799
			c0.569,0,1.059-0.35,1.259-0.959c0.04-0.12,0.07-0.29,0.07-0.42V158.021z"/>
		<path d="M386.615,157.371c0-0.51-0.02-0.909-0.04-1.309h0.77l0.04,0.779h0.03c0.27-0.46,0.719-0.89,1.529-0.89
			c0.65,0,1.149,0.399,1.359,0.97h0.02c0.15-0.28,0.35-0.48,0.55-0.63c0.29-0.22,0.6-0.34,1.06-0.34c0.649,0,1.599,0.42,1.599,2.099
			v2.849h-0.86v-2.738c0-0.939-0.35-1.489-1.049-1.489c-0.51,0-0.89,0.37-1.049,0.789c-0.04,0.13-0.07,0.29-0.07,0.44v2.998h-0.86
			v-2.898c0-0.779-0.34-1.329-1.009-1.329c-0.54,0-0.95,0.439-1.089,0.879c-0.05,0.131-0.07,0.28-0.07,0.431v2.918h-0.86V157.371z"
			/>
		<path d="M394.985,154.263c0.439-0.09,1.079-0.149,1.669-0.149c0.93,0,1.539,0.18,1.959,0.56c0.33,0.29,0.53,0.75,0.53,1.279
			c0,0.88-0.57,1.469-1.27,1.709v0.03c0.51,0.18,0.82,0.659,0.99,1.359c0.22,0.939,0.379,1.589,0.509,1.849h-0.899
			c-0.11-0.189-0.26-0.77-0.439-1.609c-0.2-0.93-0.57-1.279-1.359-1.309h-0.82v2.918h-0.869V154.263z M395.855,157.321h0.89
			c0.93,0,1.519-0.51,1.519-1.279c0-0.869-0.629-1.249-1.549-1.249c-0.42,0-0.71,0.04-0.86,0.08V157.321z"/>
		<path d="M400.365,160.899v-6.736h0.959l2.148,3.408c0.49,0.789,0.89,1.489,1.2,2.188l0.03-0.01c-0.08-0.899-0.1-1.719-0.1-2.759
			v-2.828h0.82v6.736h-0.879l-2.139-3.418c-0.47-0.75-0.919-1.52-1.249-2.249l-0.03,0.01c0.05,0.85,0.06,1.659,0.06,2.778v2.879
			H400.365z"/>
		<path d="M408.035,158.78l-0.7,2.119h-0.899l2.289-6.736h1.049l2.299,6.736h-0.93l-0.719-2.119H408.035z M410.243,158.101
			l-0.669-1.938c-0.14-0.439-0.24-0.84-0.34-1.229h-0.03c-0.09,0.39-0.2,0.81-0.33,1.22l-0.66,1.948H410.243z"/>
	</g>
</g>
<g>
	<g>
		<line fill="none" stroke="#000000" x1="455.945" y1="636.47" x2="404.363" y2="636.47"/>
		<polygon points="453.136,640.174 454.708,636.47 453.136,632.767 461.914,636.47 		"/>
	</g>
</g>
<g id="g3138" transform="translate(17.66781,-104.7056)">
	
		<radialGradient id="path3107_1_" cx="156.5114" cy="-72.3989" r="16.186" gradientTransform="matrix(1.5933 0 0 0.6358 -36.5316 435.7682)" gradientUnits="userSpaceOnUse">
		<stop  offset="0" style="stop-color:#A2FF5F"/>
		<stop  offset="0.4082" style="stop-color:#A0FF5F"/>
		<stop  offset="0.5552" style="stop-color:#99FD5F"/>
		<stop  offset="0.66" style="stop-color:#8EFB5E"/>
		<stop  offset="0.7448" style="stop-color:#7DF85E"/>
		<stop  offset="0.8174" style="stop-color:#67F35D"/>
		<stop  offset="0.8817" style="stop-color:#4BEE5C"/>
		<stop  offset="0.9398" style="stop-color:#2BE85B"/>
		<stop  offset="0.9915" style="stop-color:#07E05A"/>
		<stop  offset="1" style="stop-color:#00DF5A"/>
	</radialGradient>
	<path id="path3107" fill="url(#path3107_1_)" stroke="#000000" d="M238.154,389.736c0,5.786-11.338,10.478-25.316,10.478
		c-13.981,0-25.315-4.689-25.315-10.478s11.334-10.476,25.315-10.476C226.816,379.261,238.154,383.949,238.154,389.736z"/>
	<g enable-background="new    ">
		<path d="M193.121,389.562c0-0.62-0.01-1.12-0.04-1.579h0.79l0.05,0.829h0.02c0.35-0.6,0.929-0.939,1.709-0.939
			c1.179,0,2.059,0.989,2.059,2.459c0,1.738-1.069,2.599-2.199,2.599c-0.649,0-1.199-0.28-1.489-0.76H194v2.628h-0.879V389.562z
			 M194,390.851c0,0.12,0.01,0.25,0.04,0.359c0.15,0.61,0.69,1.029,1.31,1.029c0.929,0,1.469-0.759,1.469-1.868
			c0-0.97-0.5-1.8-1.429-1.8c-0.6,0-1.169,0.42-1.339,1.08c-0.02,0.12-0.05,0.25-0.05,0.359V390.851z"/>
		<path d="M199.32,390.551c0.02,1.189,0.77,1.679,1.649,1.679c0.63,0,1.02-0.109,1.339-0.239l0.16,0.619
			c-0.31,0.14-0.85,0.31-1.619,0.31c-1.479,0-2.378-0.989-2.378-2.438c0-1.469,0.87-2.618,2.279-2.618
			c1.579,0,1.989,1.389,1.989,2.278c0,0.18-0.01,0.32-0.03,0.42L199.32,390.551z M201.889,389.921c0.01-0.55-0.23-1.429-1.209-1.429
			c-0.899,0-1.279,0.819-1.349,1.429H201.889z"/>
		<path d="M203.84,389.492c0-0.569-0.01-1.06-0.04-1.509h0.77l0.04,0.949h0.03c0.22-0.649,0.76-1.06,1.349-1.06
			c0.09,0,0.16,0.01,0.24,0.03v0.819c-0.1-0.01-0.19-0.021-0.31-0.021c-0.62,0-1.059,0.47-1.179,1.12
			c-0.02,0.13-0.03,0.27-0.03,0.42v2.578h-0.879L203.84,389.492z"/>
		<path d="M209.22,389.292c0-0.51-0.02-0.909-0.04-1.309h0.77l0.04,0.779h0.03c0.27-0.46,0.719-0.89,1.529-0.89
			c0.65,0,1.149,0.399,1.359,0.97h0.02c0.15-0.28,0.35-0.48,0.55-0.63c0.29-0.22,0.6-0.34,1.06-0.34c0.649,0,1.599,0.42,1.599,2.099
			v2.849h-0.86v-2.738c0-0.939-0.35-1.489-1.049-1.489c-0.51,0-0.89,0.37-1.049,0.789c-0.04,0.13-0.07,0.29-0.07,0.44v2.998h-0.86
			v-2.898c0-0.779-0.34-1.329-1.009-1.329c-0.54,0-0.95,0.439-1.089,0.879c-0.05,0.131-0.07,0.28-0.07,0.431v2.918h-0.86V389.292z"
			/>
		<path d="M217.59,386.183c0.439-0.09,1.079-0.149,1.669-0.149c0.93,0,1.539,0.18,1.959,0.56c0.33,0.29,0.53,0.75,0.53,1.279
			c0,0.88-0.57,1.469-1.27,1.709v0.03c0.51,0.18,0.82,0.659,0.99,1.359c0.22,0.939,0.379,1.589,0.509,1.849h-0.899
			c-0.11-0.189-0.26-0.77-0.439-1.609c-0.2-0.93-0.57-1.279-1.359-1.309h-0.82v2.918h-0.869V386.183z M218.46,389.242h0.89
			c0.93,0,1.519-0.51,1.519-1.279c0-0.869-0.629-1.249-1.549-1.249c-0.42,0-0.71,0.04-0.86,0.08V389.242z"/>
		<path d="M222.97,392.82v-6.736h0.959l2.148,3.408c0.49,0.789,0.89,1.489,1.2,2.188l0.03-0.01c-0.08-0.899-0.1-1.719-0.1-2.759
			v-2.828h0.82v6.736h-0.879l-2.139-3.418c-0.47-0.75-0.919-1.52-1.249-2.249l-0.03,0.01c0.05,0.85,0.06,1.659,0.06,2.778v2.879
			H222.97z"/>
		<path d="M230.64,390.701l-0.7,2.119h-0.899l2.289-6.736h1.049l2.299,6.736h-0.93l-0.719-2.119H230.64z M232.848,390.021
			l-0.669-1.938c-0.14-0.439-0.24-0.84-0.34-1.229h-0.03c-0.09,0.39-0.2,0.81-0.33,1.22l-0.66,1.948H232.848z"/>
	</g>
</g>
<g>
	
		<radialGradient id="path3103_1_" cx="172.9473" cy="-177.5742" r="16.186" gradientTransform="matrix(1.5933 0 0 0.6358 -45.05 86.6647)" gradientUnits="userSpaceOnUse">
		<stop  offset="0" style="stop-color:#A2FF5F"/>
		<stop  offset="0.4082" style="stop-color:#A0FF5F"/>
		<stop  offset="0.5552" style="stop-color:#99FD5F"/>
		<stop  offset="0.66" style="stop-color:#8EFB5E"/>
		<stop  offset="0.7448" style="stop-color:#7DF85E"/>
		<stop  offset="0.8174" style="stop-color:#67F35D"/>
		<stop  offset="0.8817" style="stop-color:#4BEE5C"/>
		<stop  offset="0.9398" style="stop-color:#2BE85B"/>
		<stop  offset="0.9915" style="stop-color:#07E05A"/>
		<stop  offset="1" style="stop-color:#00DF5A"/>
	</radialGradient>
	<path id="path3103" fill="url(#path3103_1_)" stroke="#000000" d="M255.822-26.237c0,5.786-11.338,10.477-25.316,10.477
		c-13.981,0-25.315-4.688-25.315-10.477s11.334-10.477,25.315-10.477C244.484-36.712,255.822-32.024,255.822-26.237z"/>
	<g enable-background="new    ">
		<path d="M211.031-29.299v1.16h1.259v0.669h-1.259v2.608c0,0.601,0.17,0.939,0.66,0.939c0.24,0,0.38-0.02,0.51-0.06l0.04,0.67
			c-0.17,0.06-0.44,0.12-0.78,0.12c-0.41,0-0.74-0.141-0.949-0.37c-0.24-0.27-0.34-0.699-0.34-1.27v-2.639h-0.75v-0.669h0.75v-0.89
			L211.031-29.299z"/>
		<path d="M213.701-29.028c-0.33,0-0.55-0.26-0.55-0.57c0-0.31,0.23-0.56,0.57-0.56s0.56,0.25,0.56,0.56
			c0,0.311-0.22,0.57-0.57,0.57H213.701z M213.281-23.302v-4.837h0.879v4.837H213.281z"/>
		<path d="M215.621-26.83c0-0.51-0.02-0.909-0.04-1.309h0.77l0.04,0.779h0.03c0.27-0.46,0.719-0.89,1.529-0.89
			c0.65,0,1.149,0.399,1.359,0.97h0.02c0.15-0.28,0.35-0.48,0.55-0.63c0.29-0.22,0.6-0.34,1.06-0.34c0.649,0,1.599,0.42,1.599,2.099
			v2.849h-0.86v-2.738c0-0.939-0.35-1.489-1.049-1.489c-0.51,0-0.89,0.37-1.049,0.789c-0.04,0.13-0.07,0.29-0.07,0.44v2.998h-0.86
			V-26.2c0-0.779-0.34-1.329-1.009-1.329c-0.54,0-0.95,0.439-1.089,0.879c-0.05,0.131-0.07,0.28-0.07,0.431v2.918h-0.86V-26.83z"/>
		<path d="M226.081-26.83c0-0.51-0.02-0.909-0.04-1.309h0.77l0.04,0.779h0.03c0.27-0.46,0.719-0.89,1.529-0.89
			c0.65,0,1.149,0.399,1.359,0.97h0.02c0.15-0.28,0.35-0.48,0.55-0.63c0.29-0.22,0.6-0.34,1.06-0.34c0.649,0,1.599,0.42,1.599,2.099
			v2.849h-0.86v-2.738c0-0.939-0.35-1.489-1.049-1.489c-0.51,0-0.89,0.37-1.049,0.789c-0.04,0.13-0.07,0.29-0.07,0.44v2.998h-0.86
			V-26.2c0-0.779-0.34-1.329-1.009-1.329c-0.54,0-0.95,0.439-1.089,0.879c-0.05,0.131-0.07,0.28-0.07,0.431v2.918h-0.86V-26.83z"/>
		<path d="M234.451-29.938c0.439-0.09,1.079-0.149,1.669-0.149c0.929,0,1.539,0.18,1.959,0.56c0.33,0.29,0.53,0.75,0.53,1.279
			c0,0.88-0.57,1.469-1.27,1.709v0.03c0.51,0.18,0.82,0.659,0.989,1.359c0.22,0.939,0.38,1.589,0.51,1.849h-0.899
			c-0.11-0.189-0.26-0.77-0.439-1.609c-0.2-0.93-0.57-1.279-1.359-1.309h-0.82v2.918h-0.869V-29.938z M235.32-26.88h0.89
			c0.93,0,1.519-0.51,1.519-1.279c0-0.869-0.629-1.249-1.549-1.249c-0.42,0-0.71,0.04-0.86,0.08V-26.88z"/>
		<path d="M239.831-23.302v-6.736h0.959l2.148,3.408c0.49,0.789,0.89,1.489,1.2,2.188l0.03-0.01c-0.08-0.899-0.1-1.719-0.1-2.759
			v-2.828h0.82v6.736h-0.879l-2.139-3.418c-0.47-0.75-0.919-1.52-1.249-2.249l-0.03,0.01c0.05,0.85,0.06,1.659,0.06,2.778v2.879
			H239.831z"/>
		<path d="M247.5-25.421l-0.7,2.119h-0.899l2.289-6.736h1.049l2.299,6.736h-0.929l-0.72-2.119H247.5z M249.709-26.101l-0.669-1.938
			c-0.14-0.439-0.24-0.84-0.34-1.229h-0.03c-0.09,0.39-0.2,0.81-0.33,1.22l-0.66,1.948H249.709z"/>
	</g>
</g>
</svg>
