<?xml version="1.0" encoding="UTF-8" standalone="no"?>
<!DOCTYPE svg PUBLIC "-//W3C//DTD SVG 1.1//EN"
 "http://www.w3.org/Graphics/SVG/1.1/DTD/svg11.dtd">
<!-- Generated by graphviz version 2.30.1 (20140821.0912)
 -->
<!-- Title: G Pages: 1 -->
<svg width="1528pt" height="269pt"
 viewBox="0.00 0.00 1528.00 269.00" xmlns="http://www.w3.org/2000/svg" xmlns:xlink="http://www.w3.org/1999/xlink">
<g id="graph0" class="graph" transform="scale(1 1) rotate(0) translate(4 265)">
<title>G</title>
<polygon fill="white" stroke="white" points="-4,5 -4,-265 1525,-265 1525,5 -4,5"/>
<!-- miR -->
<g id="miR" class="node"><title>miR</title>
<ellipse fill="none" stroke="black" cx="1277" cy="-170" rx="27" ry="18"/>
<text text-anchor="middle" x="1277" y="-167.5" font-family="Times,serif" font-size="10.00">miR</text>
</g>
<!-- miR_degradation_intermediate_r -->
<g id="node26" class="node"><title>miR_degradation_intermediate_r</title>
<ellipse fill="black" stroke="black" cx="1341" cy="-143" rx="0.036" ry="0.036"/>
</g>
<!-- miR&#45;&gt;miR_degradation_intermediate_r -->
<g id="edge27" class="edge"><title>miR&#45;&gt;miR_degradation_intermediate_r</title>
<path fill="none" stroke="black" d="M1300.03,-160.405C1317.3,-152.887 1338.62,-143.601 1339.94,-143.028"/>
</g>
<!-- TF1_mRNA_degradation_via_miR_intermediate_r -->
<g id="node35" class="node"><title>TF1_mRNA_degradation_via_miR_intermediate_r</title>
<ellipse fill="black" stroke="black" cx="1341" cy="-210" rx="0.036" ry="0.036"/>
</g>
<!-- miR&#45;&gt;TF1_mRNA_degradation_via_miR_intermediate_r -->
<g id="edge41" class="edge"><title>miR&#45;&gt;TF1_mRNA_degradation_via_miR_intermediate_r</title>
<path fill="none" stroke="black" d="M1296.94,-182.219C1314.6,-193.614 1338.45,-209.003 1339.93,-209.954"/>
</g>
<!-- miR_gene -->
<g id="miR_gene" class="node"><title>miR_gene</title>
<ellipse fill="none" stroke="black" cx="797" cy="-105" rx="34.9638" ry="18"/>
<text text-anchor="middle" x="797" y="-102.5" font-family="Times,serif" font-size="10.00">miR_gene</text>
</g>
<!-- miR_gene_TF1_binding_intermediate_r -->
<g id="node11" class="node"><title>miR_gene_TF1_binding_intermediate_r</title>
<ellipse fill="black" stroke="black" cx="381" cy="-116" rx="0.036" ry="0.036"/>
</g>
<!-- miR_gene&#45;&gt;miR_gene_TF1_binding_intermediate_r -->
<g id="edge2" class="edge"><title>miR_gene&#45;&gt;miR_gene_TF1_binding_intermediate_r</title>
<path fill="none" stroke="black" d="M771.313,-92.7587C748.661,-82.6657 713.883,-70 682,-70 468,-70 468,-70 468,-70 426.008,-70 384.667,-113.17 382.124,-115.868"/>
</g>
<!-- miR_gene_TF2_binding_intermediate_r -->
<g id="node17" class="node"><title>miR_gene_TF2_binding_intermediate_r</title>
<ellipse fill="black" stroke="black" cx="869" cy="-108" rx="0.036" ry="0.036"/>
</g>
<!-- miR_gene&#45;&gt;miR_gene_TF2_binding_intermediate_r -->
<g id="edge12" class="edge"><title>miR_gene&#45;&gt;miR_gene_TF2_binding_intermediate_r</title>
<path fill="none" stroke="black" d="M831.77,-106.447C849.111,-107.19 866.855,-107.951 867.947,-107.998"/>
</g>
<!-- miR_gene_TF1 -->
<g id="miR_gene_TF1" class="node"><title>miR_gene_TF1</title>
<ellipse fill="none" stroke="black" cx="553" cy="-116" rx="47.1863" ry="18"/>
<text text-anchor="middle" x="553" y="-113.5" font-family="Times,serif" font-size="10.00">miR_gene_TF1</text>
</g>
<!-- miR_gene_TF1_release_intermediate_r -->
<g id="node14" class="node"><title>miR_gene_TF1_release_intermediate_r</title>
<ellipse fill="black" stroke="black" cx="637" cy="-116" rx="0.036" ry="0.036"/>
</g>
<!-- miR_gene_TF1&#45;&gt;miR_gene_TF1_release_intermediate_r -->
<g id="edge7" class="edge"><title>miR_gene_TF1&#45;&gt;miR_gene_TF1_release_intermediate_r</title>
<path fill="none" stroke="black" d="M600.272,-116C618.291,-116 634.928,-116 635.95,-116"/>
</g>
<!-- miR_gene_TF2 -->
<g id="miR_gene_TF2" class="node"><title>miR_gene_TF2</title>
<ellipse fill="none" stroke="black" cx="1041" cy="-143" rx="47.1863" ry="18"/>
<text text-anchor="middle" x="1041" y="-140.5" font-family="Times,serif" font-size="10.00">miR_gene_TF2</text>
</g>
<!-- miR_gene_TF2_release_intermediate_r -->
<g id="node20" class="node"><title>miR_gene_TF2_release_intermediate_r</title>
<ellipse fill="black" stroke="black" cx="1125" cy="-118" rx="0.036" ry="0.036"/>
</g>
<!-- miR_gene_TF2&#45;&gt;miR_gene_TF2_release_intermediate_r -->
<g id="edge17" class="edge"><title>miR_gene_TF2&#45;&gt;miR_gene_TF2_release_intermediate_r</title>
<path fill="none" stroke="black" d="M1078.21,-131.962C1099.49,-125.474 1122.51,-118.453 1123.93,-118.021"/>
</g>
<!-- miR_synthesis_intermediate_r -->
<g id="node23" class="node"><title>miR_synthesis_intermediate_r</title>
<ellipse fill="black" stroke="black" cx="1125" cy="-143" rx="0.036" ry="0.036"/>
</g>
<!-- miR_gene_TF2&#45;&gt;miR_synthesis_intermediate_r -->
<g id="edge22" class="edge"><title>miR_gene_TF2&#45;&gt;miR_synthesis_intermediate_r</title>
<path fill="none" stroke="black" d="M1088.27,-143C1106.29,-143 1122.93,-143 1123.95,-143"/>
</g>
<!-- Signal -->
<g id="Signal" class="node"><title>Signal</title>
<ellipse fill="none" stroke="black" cx="76" cy="-62" rx="27" ry="18"/>
<text text-anchor="middle" x="76" y="-59.5" font-family="Times,serif" font-size="10.00">Signal</text>
</g>
<!-- TF1_transcription_intermediate_r -->
<g id="node29" class="node"><title>TF1_transcription_intermediate_r</title>
<ellipse fill="black" stroke="black" cx="153" cy="-71" rx="0.036" ry="0.036"/>
</g>
<!-- Signal&#45;&gt;TF1_transcription_intermediate_r -->
<g id="edge31" class="edge"><title>Signal&#45;&gt;TF1_transcription_intermediate_r</title>
<path fill="none" stroke="black" d="M102.811,-65.0973C123.828,-67.6193 150.287,-70.7945 151.92,-70.9905"/>
</g>
<!-- TF1 -->
<g id="TF1" class="node"><title>TF1</title>
<ellipse fill="none" stroke="black" cx="317" cy="-135" rx="27" ry="18"/>
<text text-anchor="middle" x="317" y="-132.5" font-family="Times,serif" font-size="10.00">TF1</text>
</g>
<!-- TF1&#45;&gt;miR_gene_TF1_binding_intermediate_r -->
<g id="edge3" class="edge"><title>TF1&#45;&gt;miR_gene_TF1_binding_intermediate_r</title>
<path fill="none" stroke="black" d="M341.794,-127.708C358.731,-122.518 378.708,-116.396 379.94,-116.018"/>
</g>
<!-- TF1_degradation_intermediate_r -->
<g id="node41" class="node"><title>TF1_degradation_intermediate_r</title>
<ellipse fill="black" stroke="black" cx="381" cy="-67" rx="0.036" ry="0.036"/>
</g>
<!-- TF1&#45;&gt;TF1_degradation_intermediate_r -->
<g id="edge50" class="edge"><title>TF1&#45;&gt;TF1_degradation_intermediate_r</title>
<path fill="none" stroke="black" d="M331.76,-119.909C349.455,-100.501 378.138,-69.0422 379.913,-67.0949"/>
</g>
<!-- TF1_mRNA -->
<g id="TF1_mRNA" class="node"><title>TF1_mRNA</title>
<ellipse fill="none" stroke="black" cx="76" cy="-181" rx="40.0582" ry="18"/>
<text text-anchor="middle" x="76" y="-178.5" font-family="Times,serif" font-size="10.00">TF1_mRNA</text>
</g>
<!-- TF1_mRNA_degradation_intermediate_r -->
<g id="node32" class="node"><title>TF1_mRNA_degradation_intermediate_r</title>
<ellipse fill="black" stroke="black" cx="197" cy="-254" rx="0.036" ry="0.036"/>
</g>
<!-- TF1_mRNA&#45;&gt;TF1_mRNA_degradation_intermediate_r -->
<g id="edge36" class="edge"><title>TF1_mRNA&#45;&gt;TF1_mRNA_degradation_intermediate_r</title>
<path fill="none" stroke="black" d="M98.6972,-195.83C113.52,-205.798 133.713,-219.062 152,-230 170.52,-241.077 194.45,-253.216 195.928,-253.964"/>
</g>
<!-- TF1_mRNA&#45;&gt;TF1_mRNA_degradation_via_miR_intermediate_r -->
<g id="edge40" class="edge"><title>TF1_mRNA&#45;&gt;TF1_mRNA_degradation_via_miR_intermediate_r</title>
<path fill="none" stroke="black" d="M104.224,-193.834C127.924,-203.823 163.482,-216 196,-216 196,-216 196,-216 1214,-216 1269.19,-216 1337.82,-210.186 1339.95,-210.004"/>
</g>
<!-- TF1_translation_intermediate_r -->
<g id="node38" class="node"><title>TF1_translation_intermediate_r</title>
<ellipse fill="black" stroke="black" cx="153" cy="-181" rx="0.036" ry="0.036"/>
</g>
<!-- TF1_mRNA&#45;&gt;TF1_translation_intermediate_r -->
<g id="edge45" class="edge"><title>TF1_mRNA&#45;&gt;TF1_translation_intermediate_r</title>
<path fill="none" stroke="black" d="M116.257,-181C133.836,-181 150.9,-181 151.949,-181"/>
</g>
<!-- TF2 -->
<g id="TF2" class="node"><title>TF2</title>
<ellipse fill="none" stroke="black" cx="1277" cy="-61" rx="27" ry="18"/>
<text text-anchor="middle" x="1277" y="-58.5" font-family="Times,serif" font-size="10.00">TF2</text>
</g>
<!-- TF2&#45;&gt;miR_gene_TF2_binding_intermediate_r -->
<g id="edge13" class="edge"><title>TF2&#45;&gt;miR_gene_TF2_binding_intermediate_r</title>
<path fill="none" stroke="black" d="M1252.74,-52.9557C1231.47,-46.3232 1199,-38 1170,-38 1124,-38 1124,-38 1124,-38 1008.73,-38 874.273,-105.83 870.1,-107.949"/>
</g>
<!-- Sink -->
<g id="Sink" class="node"><title>Sink</title>
<ellipse fill="none" stroke="black" cx="1493" cy="-140" rx="27" ry="18"/>
<text text-anchor="middle" x="1493" y="-137.5" font-family="Times,serif" font-size="10.00">Sink</text>
</g>
<!-- miR_gene_TF1_binding -->
<g id="node10" class="node"><title>miR_gene_TF1_binding</title>
<polygon fill="none" stroke="black" points="432,-123 418,-123 418,-109 432,-109 432,-123"/>
</g>
<!-- miR_gene_TF1_binding_intermediate_p -->
<g id="node12" class="node"><title>miR_gene_TF1_binding_intermediate_p</title>
<ellipse fill="black" stroke="black" cx="469" cy="-116" rx="0.036" ry="0.036"/>
</g>
<!-- miR_gene_TF1_binding&#45;&gt;miR_gene_TF1_binding_intermediate_p -->
<g id="edge4" class="edge"><title>miR_gene_TF1_binding&#45;&gt;miR_gene_TF1_binding_intermediate_p</title>
<path fill="none" stroke="black" d="M432.197,-116C443.515,-116 466.505,-116 467.93,-116"/>
</g>
<!-- miR_gene_TF1_binding_intermediate_r&#45;&gt;miR_gene_TF1_binding -->
<g id="edge1" class="edge"><title>miR_gene_TF1_binding_intermediate_r&#45;&gt;miR_gene_TF1_binding</title>
<path fill="none" stroke="black" d="M382.12,-116C383.968,-116 406.602,-116 417.803,-116"/>
</g>
<!-- miR_gene_TF1_binding_intermediate_p&#45;&gt;miR_gene_TF1 -->
<g id="edge5" class="edge"><title>miR_gene_TF1_binding_intermediate_p&#45;&gt;miR_gene_TF1</title>
<path fill="none" stroke="black" d="M470.059,-116C470.957,-116 481.913,-116 495.538,-116"/>
<polygon fill="black" stroke="black" points="495.825,-119.5 505.825,-116 495.825,-112.5 495.825,-119.5"/>
</g>
<!-- miR_gene_TF1_release -->
<g id="node13" class="node"><title>miR_gene_TF1_release</title>
<polygon fill="none" stroke="black" points="688,-123 674,-123 674,-109 688,-109 688,-123"/>
</g>
<!-- miR_gene_TF1_release_intermediate_p -->
<g id="node15" class="node"><title>miR_gene_TF1_release_intermediate_p</title>
<ellipse fill="black" stroke="black" cx="725" cy="-116" rx="0.036" ry="0.036"/>
</g>
<!-- miR_gene_TF1_release&#45;&gt;miR_gene_TF1_release_intermediate_p -->
<g id="edge8" class="edge"><title>miR_gene_TF1_release&#45;&gt;miR_gene_TF1_release_intermediate_p</title>
<path fill="none" stroke="black" d="M688.197,-116C699.515,-116 722.505,-116 723.93,-116"/>
</g>
<!-- miR_gene_TF1_release_intermediate_r&#45;&gt;miR_gene_TF1_release -->
<g id="edge6" class="edge"><title>miR_gene_TF1_release_intermediate_r&#45;&gt;miR_gene_TF1_release</title>
<path fill="none" stroke="black" d="M638.12,-116C639.968,-116 662.602,-116 673.803,-116"/>
</g>
<!-- miR_gene_TF1_release_intermediate_p&#45;&gt;miR_gene -->
<g id="edge9" class="edge"><title>miR_gene_TF1_release_intermediate_p&#45;&gt;miR_gene</title>
<path fill="none" stroke="black" d="M726.051,-115.992C726.939,-115.852 739.36,-113.901 753.495,-111.679"/>
<polygon fill="black" stroke="black" points="754.098,-115.128 763.434,-110.118 753.011,-108.212 754.098,-115.128"/>
</g>
<!-- miR_gene_TF1_release_intermediate_p&#45;&gt;TF1 -->
<g id="edge10" class="edge"><title>miR_gene_TF1_release_intermediate_p&#45;&gt;TF1</title>
<path fill="none" stroke="black" d="M723.876,-116.132C721.333,-118.83 679.992,-162 638,-162 424,-162 424,-162 424,-162 398.541,-162 370.677,-154.595 349.909,-147.542"/>
<polygon fill="black" stroke="black" points="350.92,-144.187 340.326,-144.141 348.579,-150.784 350.92,-144.187"/>
</g>
<!-- miR_gene_TF2_binding -->
<g id="node16" class="node"><title>miR_gene_TF2_binding</title>
<polygon fill="none" stroke="black" points="920,-150 906,-150 906,-136 920,-136 920,-150"/>
</g>
<!-- miR_gene_TF2_binding_intermediate_p -->
<g id="node18" class="node"><title>miR_gene_TF2_binding_intermediate_p</title>
<ellipse fill="black" stroke="black" cx="957" cy="-143" rx="0.036" ry="0.036"/>
</g>
<!-- miR_gene_TF2_binding&#45;&gt;miR_gene_TF2_binding_intermediate_p -->
<g id="edge14" class="edge"><title>miR_gene_TF2_binding&#45;&gt;miR_gene_TF2_binding_intermediate_p</title>
<path fill="none" stroke="black" d="M920.197,-143C931.515,-143 954.505,-143 955.93,-143"/>
</g>
<!-- miR_gene_TF2_binding_intermediate_r&#45;&gt;miR_gene_TF2_binding -->
<g id="edge11" class="edge"><title>miR_gene_TF2_binding_intermediate_r&#45;&gt;miR_gene_TF2_binding</title>
<path fill="none" stroke="black" d="M870.12,-108.1C871.968,-109.64 894.602,-128.501 905.803,-137.836"/>
</g>
<!-- miR_gene_TF2_binding_intermediate_p&#45;&gt;miR_gene_TF2 -->
<g id="edge15" class="edge"><title>miR_gene_TF2_binding_intermediate_p&#45;&gt;miR_gene_TF2</title>
<path fill="none" stroke="black" d="M958.059,-143C958.957,-143 969.913,-143 983.538,-143"/>
<polygon fill="black" stroke="black" points="983.825,-146.5 993.825,-143 983.825,-139.5 983.825,-146.5"/>
</g>
<!-- miR_gene_TF2_release -->
<g id="node19" class="node"><title>miR_gene_TF2_release</title>
<polygon fill="none" stroke="black" points="1176,-118 1162,-118 1162,-104 1176,-104 1176,-118"/>
</g>
<!-- miR_gene_TF2_release_intermediate_p -->
<g id="node21" class="node"><title>miR_gene_TF2_release_intermediate_p</title>
<ellipse fill="black" stroke="black" cx="1213" cy="-76" rx="0.036" ry="0.036"/>
</g>
<!-- miR_gene_TF2_release&#45;&gt;miR_gene_TF2_release_intermediate_p -->
<g id="edge18" class="edge"><title>miR_gene_TF2_release&#45;&gt;miR_gene_TF2_release_intermediate_p</title>
<path fill="none" stroke="black" d="M1176.2,-105.836C1187.52,-96.404 1210.5,-77.2461 1211.93,-76.058"/>
</g>
<!-- miR_gene_TF2_release_intermediate_r&#45;&gt;miR_gene_TF2_release -->
<g id="edge16" class="edge"><title>miR_gene_TF2_release_intermediate_r&#45;&gt;miR_gene_TF2_release</title>
<path fill="none" stroke="black" d="M1126.12,-117.98C1127.97,-117.672 1150.6,-113.9 1161.8,-112.033"/>
</g>
<!-- miR_gene_TF2_release_intermediate_p&#45;&gt;miR_gene -->
<g id="edge19" class="edge"><title>miR_gene_TF2_release_intermediate_p&#45;&gt;miR_gene</title>
<path fill="none" stroke="black" d="M1211.86,-76.0083C1206.03,-76.3546 1018.4,-87.5275 868,-99 859.433,-99.6535 850.282,-100.402 841.515,-101.143"/>
<polygon fill="black" stroke="black" points="841.124,-97.6633 831.459,-102.004 841.721,-104.638 841.124,-97.6633"/>
</g>
<!-- miR_gene_TF2_release_intermediate_p&#45;&gt;TF2 -->
<g id="edge20" class="edge"><title>miR_gene_TF2_release_intermediate_p&#45;&gt;TF2</title>
<path fill="none" stroke="black" d="M1214.04,-75.9891C1214.89,-75.7835 1227.67,-72.6931 1241.4,-69.3715"/>
<polygon fill="black" stroke="black" points="1242.51,-72.7034 1251.41,-66.9499 1240.86,-65.8997 1242.51,-72.7034"/>
</g>
<!-- miR_synthesis -->
<g id="node22" class="node"><title>miR_synthesis</title>
<polygon fill="none" stroke="black" points="1176,-150 1162,-150 1162,-136 1176,-136 1176,-150"/>
</g>
<!-- miR_synthesis_intermediate_p -->
<g id="node24" class="node"><title>miR_synthesis_intermediate_p</title>
<ellipse fill="black" stroke="black" cx="1213" cy="-170" rx="0.036" ry="0.036"/>
</g>
<!-- miR_synthesis&#45;&gt;miR_synthesis_intermediate_p -->
<g id="edge23" class="edge"><title>miR_synthesis&#45;&gt;miR_synthesis_intermediate_p</title>
<path fill="none" stroke="black" d="M1176.2,-146.984C1187.52,-154.26 1210.5,-169.039 1211.93,-169.955"/>
</g>
<!-- miR_synthesis_intermediate_r&#45;&gt;miR_synthesis -->
<g id="edge21" class="edge"><title>miR_synthesis_intermediate_r&#45;&gt;miR_synthesis</title>
<path fill="none" stroke="black" d="M1126.12,-143C1127.97,-143 1150.6,-143 1161.8,-143"/>
</g>
<!-- miR_synthesis_intermediate_p&#45;&gt;miR_gene_TF2 -->
<g id="edge24" class="edge"><title>miR_synthesis_intermediate_p&#45;&gt;miR_gene_TF2</title>
<path fill="none" stroke="black" d="M1211.94,-169.991C1209.76,-169.644 1143.86,-159.177 1094.78,-151.382"/>
<polygon fill="black" stroke="black" points="1095.32,-147.925 1084.9,-149.813 1094.23,-154.839 1095.32,-147.925"/>
</g>
<!-- miR_synthesis_intermediate_p&#45;&gt;miR -->
<g id="edge25" class="edge"><title>miR_synthesis_intermediate_p&#45;&gt;miR</title>
<path fill="none" stroke="black" d="M1214.04,-170C1214.86,-170 1226.73,-170 1239.87,-170"/>
<polygon fill="black" stroke="black" points="1240,-173.5 1250,-170 1240,-166.5 1240,-173.5"/>
</g>
<!-- miR_degradation -->
<g id="node25" class="node"><title>miR_degradation</title>
<polygon fill="none" stroke="black" points="1392,-147 1378,-147 1378,-133 1392,-133 1392,-147"/>
</g>
<!-- miR_degradation_intermediate_p -->
<g id="node27" class="node"><title>miR_degradation_intermediate_p</title>
<ellipse fill="black" stroke="black" cx="1429" cy="-140" rx="0.036" ry="0.036"/>
</g>
<!-- miR_degradation&#45;&gt;miR_degradation_intermediate_p -->
<g id="edge28" class="edge"><title>miR_degradation&#45;&gt;miR_degradation_intermediate_p</title>
<path fill="none" stroke="black" d="M1392.2,-140C1403.52,-140 1426.5,-140 1427.93,-140"/>
</g>
<!-- miR_degradation_intermediate_r&#45;&gt;miR_degradation -->
<g id="edge26" class="edge"><title>miR_degradation_intermediate_r&#45;&gt;miR_degradation</title>
<path fill="none" stroke="black" d="M1342.12,-142.991C1343.97,-142.859 1366.6,-141.243 1377.8,-140.443"/>
</g>
<!-- miR_degradation_intermediate_p&#45;&gt;Sink -->
<g id="edge29" class="edge"><title>miR_degradation_intermediate_p&#45;&gt;Sink</title>
<path fill="none" stroke="black" d="M1430.04,-140C1430.86,-140 1442.73,-140 1455.87,-140"/>
<polygon fill="black" stroke="black" points="1456,-143.5 1466,-140 1456,-136.5 1456,-143.5"/>
</g>
<!-- TF1_transcription -->
<g id="node28" class="node"><title>TF1_transcription</title>
<polygon fill="none" stroke="black" points="204,-97 190,-97 190,-83 204,-83 204,-97"/>
</g>
<!-- TF1_transcription_intermediate_p -->
<g id="node30" class="node"><title>TF1_transcription_intermediate_p</title>
<ellipse fill="black" stroke="black" cx="0" cy="-108" rx="0.036" ry="0.036"/>
</g>
<!-- TF1_transcription&#45;&gt;TF1_transcription_intermediate_p -->
<g id="edge32" class="edge"><title>TF1_transcription&#45;&gt;TF1_transcription_intermediate_p</title>
<path fill="none" stroke="black" d="M189.705,-90.581C156.856,-93.6133 6.4003,-107.502 1.14133,-107.987"/>
</g>
<!-- TF1_transcription_intermediate_r&#45;&gt;TF1_transcription -->
<g id="edge30" class="edge"><title>TF1_transcription_intermediate_r&#45;&gt;TF1_transcription</title>
<path fill="none" stroke="black" d="M154.12,-71.0545C155.968,-71.8903 178.602,-82.1293 189.803,-87.1965"/>
</g>
<!-- TF1_transcription_intermediate_p&#45;&gt;Signal -->
<g id="edge33" class="edge"><title>TF1_transcription_intermediate_p&#45;&gt;Signal</title>
<path fill="none" stroke="black" d="M1.05363,-107.967C2.34222,-107.166 26.6022,-92.0851 46.9877,-79.413"/>
<polygon fill="black" stroke="black" points="49.0512,-82.2515 55.6963,-73.9996 45.3556,-76.3065 49.0512,-82.2515"/>
</g>
<!-- TF1_transcription_intermediate_p&#45;&gt;TF1_mRNA -->
<g id="edge34" class="edge"><title>TF1_transcription_intermediate_p&#45;&gt;TF1_mRNA</title>
<path fill="none" stroke="black" d="M1.05363,-108.053C2.4317,-109.412 30.0823,-136.689 51.1694,-157.491"/>
<polygon fill="black" stroke="black" points="48.7237,-159.995 58.3007,-164.526 53.6396,-155.012 48.7237,-159.995"/>
</g>
<!-- TF1_mRNA_degradation -->
<g id="node31" class="node"><title>TF1_mRNA_degradation</title>
<polygon fill="none" stroke="black" points="254,-261 240,-261 240,-247 254,-247 254,-261"/>
</g>
<!-- TF1_mRNA_degradation_intermediate_p -->
<g id="node33" class="node"><title>TF1_mRNA_degradation_intermediate_p</title>
<ellipse fill="black" stroke="black" cx="317" cy="-254" rx="0.036" ry="0.036"/>
</g>
<!-- TF1_mRNA_degradation&#45;&gt;TF1_mRNA_degradation_intermediate_p -->
<g id="edge37" class="edge"><title>TF1_mRNA_degradation&#45;&gt;TF1_mRNA_degradation_intermediate_p</title>
<path fill="none" stroke="black" d="M254.275,-254C270.583,-254 313.222,-254 315.871,-254"/>
</g>
<!-- TF1_mRNA_degradation_intermediate_r&#45;&gt;TF1_mRNA_degradation -->
<g id="edge35" class="edge"><title>TF1_mRNA_degradation_intermediate_r&#45;&gt;TF1_mRNA_degradation</title>
<path fill="none" stroke="black" d="M198.138,-254C200.293,-254 227.204,-254 239.7,-254"/>
</g>
<!-- TF1_mRNA_degradation_intermediate_p&#45;&gt;Sink -->
<g id="edge38" class="edge"><title>TF1_mRNA_degradation_intermediate_p&#45;&gt;Sink</title>
<path fill="none" stroke="black" d="M318.043,-254C319.837,-254 377.625,-254 424,-254 424,-254 424,-254 1386,-254 1433.47,-254 1465.7,-200.325 1481.26,-166.636"/>
<polygon fill="black" stroke="black" points="1484.54,-167.876 1485.38,-157.314 1478.14,-165.047 1484.54,-167.876"/>
</g>
<!-- TF1_mRNA_degradation_via_miR -->
<g id="node34" class="node"><title>TF1_mRNA_degradation_via_miR</title>
<polygon fill="none" stroke="black" points="1392,-217 1378,-217 1378,-203 1392,-203 1392,-217"/>
</g>
<!-- TF1_mRNA_degradation_via_miR_intermediate_p -->
<g id="node36" class="node"><title>TF1_mRNA_degradation_via_miR_intermediate_p</title>
<ellipse fill="black" stroke="black" cx="1429" cy="-192" rx="0.036" ry="0.036"/>
</g>
<!-- TF1_mRNA_degradation_via_miR&#45;&gt;TF1_mRNA_degradation_via_miR_intermediate_p -->
<g id="edge42" class="edge"><title>TF1_mRNA_degradation_via_miR&#45;&gt;TF1_mRNA_degradation_via_miR_intermediate_p</title>
<path fill="none" stroke="black" d="M1392.2,-207.344C1403.52,-202.494 1426.5,-192.641 1427.93,-192.03"/>
</g>
<!-- TF1_mRNA_degradation_via_miR_intermediate_r&#45;&gt;TF1_mRNA_degradation_via_miR -->
<g id="edge39" class="edge"><title>TF1_mRNA_degradation_via_miR_intermediate_r&#45;&gt;TF1_mRNA_degradation_via_miR</title>
<path fill="none" stroke="black" d="M1342.12,-210C1343.97,-210 1366.6,-210 1377.8,-210"/>
</g>
<!-- TF1_mRNA_degradation_via_miR_intermediate_p&#45;&gt;miR -->
<g id="edge43" class="edge"><title>TF1_mRNA_degradation_via_miR_intermediate_p&#45;&gt;miR</title>
<path fill="none" stroke="black" d="M1427.94,-191.991C1425.64,-191.654 1357,-181.587 1313.4,-175.192"/>
<polygon fill="black" stroke="black" points="1313.85,-171.72 1303.45,-173.732 1312.83,-178.646 1313.85,-171.72"/>
</g>
<!-- TF1_translation -->
<g id="node37" class="node"><title>TF1_translation</title>
<polygon fill="none" stroke="black" points="204,-188 190,-188 190,-174 204,-174 204,-188"/>
</g>
<!-- TF1_translation_intermediate_p -->
<g id="node39" class="node"><title>TF1_translation_intermediate_p</title>
<ellipse fill="black" stroke="black" cx="247" cy="-146" rx="0.036" ry="0.036"/>
</g>
<!-- TF1_translation&#45;&gt;TF1_translation_intermediate_p -->
<g id="edge46" class="edge"><title>TF1_translation&#45;&gt;TF1_translation_intermediate_p</title>
<path fill="none" stroke="black" d="M204.275,-176.424C216.88,-167.234 244.221,-147.297 245.917,-146.06"/>
</g>
<!-- TF1_translation_intermediate_r&#45;&gt;TF1_translation -->
<g id="edge44" class="edge"><title>TF1_translation_intermediate_r&#45;&gt;TF1_translation</title>
<path fill="none" stroke="black" d="M154.12,-181C155.968,-181 178.602,-181 189.803,-181"/>
</g>
<!-- TF1_translation_intermediate_p&#45;&gt;TF1_mRNA -->
<g id="edge47" class="edge"><title>TF1_translation_intermediate_p&#45;&gt;TF1_mRNA</title>
<path fill="none" stroke="black" d="M245.939,-146.013C243.561,-146.505 171.88,-161.35 122.663,-171.543"/>
<polygon fill="black" stroke="black" points="121.923,-168.122 112.841,-173.577 123.343,-174.977 121.923,-168.122"/>
</g>
<!-- TF1_translation_intermediate_p&#45;&gt;TF1 -->
<g id="edge48" class="edge"><title>TF1_translation_intermediate_p&#45;&gt;TF1</title>
<path fill="none" stroke="black" d="M248.049,-145.992C249.035,-145.833 264.652,-143.306 280.665,-140.716"/>
<polygon fill="black" stroke="black" points="281.246,-144.168 290.558,-139.116 280.128,-137.257 281.246,-144.168"/>
</g>
<!-- TF1_degradation -->
<g id="node40" class="node"><title>TF1_degradation</title>
<polygon fill="none" stroke="black" points="432,-41 418,-41 418,-27 432,-27 432,-41"/>
</g>
<!-- TF1_degradation_intermediate_p -->
<g id="node42" class="node"><title>TF1_degradation_intermediate_p</title>
<ellipse fill="black" stroke="black" cx="553" cy="-6" rx="0.036" ry="0.036"/>
</g>
<!-- TF1_degradation&#45;&gt;TF1_degradation_intermediate_p -->
<g id="edge51" class="edge"><title>TF1_degradation&#45;&gt;TF1_degradation_intermediate_p</title>
<path fill="none" stroke="black" d="M432.077,-32.6495C456.853,-27.1438 549.056,-6.65424 551.931,-6.01528"/>
</g>
<!-- TF1_degradation_intermediate_r&#45;&gt;TF1_degradation -->
<g id="edge49" class="edge"><title>TF1_degradation_intermediate_r&#45;&gt;TF1_degradation</title>
<path fill="none" stroke="black" d="M382.12,-66.9053C383.968,-65.4536 406.602,-47.6702 417.803,-38.8693"/>
</g>
<!-- TF1_degradation_intermediate_p&#45;&gt;Sink -->
<g id="edge52" class="edge"><title>TF1_degradation_intermediate_p&#45;&gt;Sink</title>
<path fill="none" stroke="black" d="M554.051,-5.99565C556.182,-5.81396 624.813,-0 680,-0 680,-0 680,-0 1386,-0 1441.93,-0 1472.13,-71.8949 1484.76,-112.643"/>
<polygon fill="black" stroke="black" points="1481.41,-113.666 1487.6,-122.269 1488.13,-111.687 1481.41,-113.666"/>
</g>
</g>
</svg>
