<?xml version="1.0" encoding="UTF-8" standalone="no"?>
<!DOCTYPE svg PUBLIC "-//W3C//DTD SVG 1.1//EN"
 "http://www.w3.org/Graphics/SVG/1.1/DTD/svg11.dtd">
<!-- Generated by graphviz version 2.30.1 (20140821.0912)
 -->
<!-- Title: G Pages: 1 -->
<svg width="1374pt" height="724pt"
 viewBox="0.00 0.00 1374.00 724.00" xmlns="http://www.w3.org/2000/svg" xmlns:xlink="http://www.w3.org/1999/xlink">
<g id="graph0" class="graph" transform="scale(1 1) rotate(0) translate(4 720)">
<title>G</title>
<polygon fill="white" stroke="white" points="-4,5 -4,-720 1371,-720 1371,5 -4,5"/>
<!-- species_1 -->
<g id="species_1" class="node"><title>species_1</title>
<path fill="none" stroke="black" d="M233.5,-111C233.5,-111 188.5,-111 188.5,-111 182.5,-111 176.5,-105 176.5,-99 176.5,-99 176.5,-87 176.5,-87 176.5,-81 182.5,-75 188.5,-75 188.5,-75 233.5,-75 233.5,-75 239.5,-75 245.5,-81 245.5,-87 245.5,-87 245.5,-99 245.5,-99 245.5,-105 239.5,-111 233.5,-111"/>
<text text-anchor="middle" x="211" y="-90.5" font-family="Times,serif" font-size="10.00">plasminogen</text>
</g>
<!-- reaction_1_intermediate_r -->
<g id="node8" class="node"><title>reaction_1_intermediate_r</title>
<ellipse fill="black" stroke="black" cx="309" cy="-186" rx="0.036" ry="0.036"/>
</g>
<!-- species_1&#45;&gt;reaction_1_intermediate_r -->
<g id="edge3" class="edge"><title>species_1&#45;&gt;reaction_1_intermediate_r</title>
<path fill="none" stroke="black" d="M229.97,-111.035C244.017,-125.053 264.096,-144.921 282,-162 292.668,-172.176 306.185,-184.366 307.833,-185.85"/>
</g>
<!-- reaction_1_intermediate_m -->
<g id="node10" class="node"><title>reaction_1_intermediate_m</title>
<ellipse fill="black" stroke="black" cx="797" cy="-158" rx="0.036" ry="0.036"/>
</g>
<!-- species_1&#45;&gt;reaction_1_intermediate_m -->
<g id="edge9" class="edge"><title>species_1&#45;&gt;reaction_1_intermediate_m</title>
<path fill="none" stroke="black" d="M245.266,-111.009C278.041,-127.049 330.031,-148 378,-148 378,-148 378,-148 450,-148 601.438,-148 790.004,-157.69 795.86,-157.993"/>
</g>
<!-- reaction_3_intermediate_r -->
<g id="node16" class="node"><title>reaction_3_intermediate_r</title>
<ellipse fill="black" stroke="black" cx="1225" cy="-186" rx="0.036" ry="0.036"/>
</g>
<!-- species_1&#45;&gt;reaction_3_intermediate_r -->
<g id="edge21" class="edge"><title>species_1&#45;&gt;reaction_3_intermediate_r</title>
<path fill="none" stroke="black" d="M245.598,-98.4725C279.057,-103.442 331.937,-110 378,-110 378,-110 378,-110 912,-110 1052.49,-110 1218.72,-183.644 1223.88,-185.945"/>
</g>
<!-- reaction_3_intermediate_m -->
<g id="node18" class="node"><title>reaction_3_intermediate_m</title>
<ellipse fill="black" stroke="black" cx="1339" cy="-214" rx="0.036" ry="0.036"/>
</g>
<!-- species_1&#45;&gt;reaction_3_intermediate_m -->
<g id="edge27" class="edge"><title>species_1&#45;&gt;reaction_3_intermediate_m</title>
<path fill="none" stroke="black" d="M230.049,-74.6262C258.697,-47.5231 317.548,-0 378,-0 378,-0 378,-0 1226,-0 1331.67,-0 1337.83,-207.365 1338,-213.845"/>
</g>
<!-- reaction_5_intermediate_r -->
<g id="node24" class="node"><title>reaction_5_intermediate_r</title>
<ellipse fill="black" stroke="black" cx="309" cy="-77" rx="0.036" ry="0.036"/>
</g>
<!-- species_1&#45;&gt;reaction_5_intermediate_r -->
<g id="edge34" class="edge"><title>species_1&#45;&gt;reaction_5_intermediate_r</title>
<path fill="none" stroke="black" d="M245.576,-87.404C272.395,-82.9342 305.836,-77.3607 307.899,-77.0168"/>
</g>
<!-- reaction_5_intermediate_m -->
<g id="node26" class="node"><title>reaction_5_intermediate_m</title>
<ellipse fill="black" stroke="black" cx="449" cy="-28" rx="0.036" ry="0.036"/>
</g>
<!-- species_1&#45;&gt;reaction_5_intermediate_m -->
<g id="edge37" class="edge"><title>species_1&#45;&gt;reaction_5_intermediate_m</title>
<path fill="none" stroke="black" d="M245.584,-80.1865C257.049,-76.0316 270.004,-71.5763 282,-68 353.59,-46.6569 445.09,-28.5733 447.932,-28.0134"/>
</g>
<!-- species_2 -->
<g id="species_2" class="node"><title>species_2</title>
<path fill="none" stroke="black" d="M651,-425C651,-425 621,-425 621,-425 615,-425 609,-419 609,-413 609,-413 609,-401 609,-401 609,-395 615,-389 621,-389 621,-389 651,-389 651,-389 657,-389 663,-395 663,-401 663,-401 663,-413 663,-413 663,-419 657,-425 651,-425"/>
<text text-anchor="middle" x="636" y="-404.5" font-family="Times,serif" font-size="10.00">plasmin</text>
</g>
<!-- reaction_2_intermediate_r -->
<g id="node12" class="node"><title>reaction_2_intermediate_r</title>
<ellipse fill="black" stroke="black" cx="797" cy="-270" rx="0.036" ry="0.036"/>
</g>
<!-- species_2&#45;&gt;reaction_2_intermediate_r -->
<g id="edge11" class="edge"><title>species_2&#45;&gt;reaction_2_intermediate_r</title>
<path fill="none" stroke="black" d="M658.114,-388.807C700.689,-352.123 793.055,-272.537 795.931,-270.059"/>
</g>
<!-- reaction_2_intermediate_m -->
<g id="node14" class="node"><title>reaction_2_intermediate_m</title>
<ellipse fill="black" stroke="black" cx="911" cy="-280" rx="0.036" ry="0.036"/>
</g>
<!-- species_2&#45;&gt;reaction_2_intermediate_m -->
<g id="edge17" class="edge"><title>species_2&#45;&gt;reaction_2_intermediate_m</title>
<path fill="none" stroke="black" d="M663.026,-389.884C699.757,-366.402 769.534,-324.244 834,-299 865.407,-286.702 907.287,-280.4 909.874,-280.018"/>
</g>
<!-- reaction_6_intermediate_r -->
<g id="node28" class="node"><title>reaction_6_intermediate_r</title>
<ellipse fill="black" stroke="black" cx="797" cy="-534" rx="0.036" ry="0.036"/>
</g>
<!-- species_2&#45;&gt;reaction_6_intermediate_r -->
<g id="edge39" class="edge"><title>species_2&#45;&gt;reaction_6_intermediate_r</title>
<path fill="none" stroke="black" d="M659.781,-425.196C703.059,-459.764 793.129,-531.707 795.933,-533.946"/>
</g>
<!-- reaction_6_intermediate_m -->
<g id="node30" class="node"><title>reaction_6_intermediate_m</title>
<ellipse fill="black" stroke="black" cx="911" cy="-496" rx="0.036" ry="0.036"/>
</g>
<!-- species_2&#45;&gt;reaction_6_intermediate_m -->
<g id="edge42" class="edge"><title>species_2&#45;&gt;reaction_6_intermediate_m</title>
<path fill="none" stroke="black" d="M663.186,-421.282C694.048,-437.496 747.307,-463.56 796,-478 844.409,-492.356 907.978,-495.891 909.953,-495.997"/>
</g>
<!-- reaction_8_intermediate_r -->
<g id="node36" class="node"><title>reaction_8_intermediate_r</title>
<ellipse fill="black" stroke="black" cx="797" cy="-579" rx="0.036" ry="0.036"/>
</g>
<!-- species_2&#45;&gt;reaction_8_intermediate_r -->
<g id="edge49" class="edge"><title>species_2&#45;&gt;reaction_8_intermediate_r</title>
<path fill="none" stroke="black" d="M653.715,-425.082C693.9,-468.552 792.844,-575.586 795.926,-578.92"/>
</g>
<!-- reaction_8_intermediate_m -->
<g id="node38" class="node"><title>reaction_8_intermediate_m</title>
<ellipse fill="black" stroke="black" cx="1225" cy="-579" rx="0.036" ry="0.036"/>
</g>
<!-- species_2&#45;&gt;reaction_8_intermediate_m -->
<g id="edge54" class="edge"><title>species_2&#45;&gt;reaction_8_intermediate_m</title>
<path fill="none" stroke="black" d="M663.264,-419.368C701.335,-436.132 774.475,-464 840,-464 840,-464 840,-464 912,-464 1057.48,-464 1218.87,-575.434 1223.88,-578.917"/>
</g>
<!-- species_3 -->
<g id="species_3" class="node"><title>species_3</title>
<path fill="none" stroke="black" d="M748,-271C748,-271 524,-271 524,-271 518,-271 512,-265 512,-259 512,-259 512,-247 512,-247 512,-241 518,-235 524,-235 524,-235 748,-235 748,-235 754,-235 760,-241 760,-247 760,-247 760,-259 760,-259 760,-265 754,-271 748,-271"/>
<text text-anchor="middle" x="636" y="-250.5" font-family="Times,serif" font-size="10.00">single intact chain urokinase&#45;type plasminogen activator</text>
</g>
<!-- species_3&#45;&gt;reaction_1_intermediate_r -->
<g id="edge2" class="edge"><title>species_3&#45;&gt;reaction_1_intermediate_r</title>
<path fill="none" stroke="black" d="M547.371,-234.935C452.255,-215.326 313.34,-186.689 310.059,-186.012"/>
</g>
<!-- species_3&#45;&gt;reaction_1_intermediate_m -->
<g id="edge8" class="edge"><title>species_3&#45;&gt;reaction_1_intermediate_m</title>
<path fill="none" stroke="black" d="M736.033,-234.969C744.58,-231.165 752.727,-226.564 760,-221 784.812,-202.017 795.336,-160.69 795.969,-158.125"/>
</g>
<!-- species_3&#45;&gt;reaction_2_intermediate_r -->
<g id="edge12" class="edge"><title>species_3&#45;&gt;reaction_2_intermediate_r</title>
<path fill="none" stroke="black" d="M760.317,-266.185C780.402,-268.332 795.06,-269.899 795.956,-269.995"/>
</g>
<!-- species_3&#45;&gt;reaction_2_intermediate_m -->
<g id="edge18" class="edge"><title>species_3&#45;&gt;reaction_2_intermediate_m</title>
<path fill="none" stroke="black" d="M760.188,-256.464C789.116,-258.416 819.743,-261.414 848,-266 875.013,-270.384 907.874,-279.413 909.901,-279.973"/>
</g>
<!-- reaction_4_intermediate_r -->
<g id="node20" class="node"><title>reaction_4_intermediate_r</title>
<ellipse fill="black" stroke="black" cx="797" cy="-176" rx="0.036" ry="0.036"/>
</g>
<!-- species_3&#45;&gt;reaction_4_intermediate_r -->
<g id="edge29" class="edge"><title>species_3&#45;&gt;reaction_4_intermediate_r</title>
<path fill="none" stroke="black" d="M732.004,-235C741.852,-231.193 751.391,-226.582 760,-221 780.818,-207.5 795.086,-177.925 795.958,-176.09"/>
</g>
<!-- reaction_4_intermediate_m -->
<g id="node22" class="node"><title>reaction_4_intermediate_m</title>
<ellipse fill="black" stroke="black" cx="911" cy="-204" rx="0.036" ry="0.036"/>
</g>
<!-- species_3&#45;&gt;reaction_4_intermediate_m -->
<g id="edge32" class="edge"><title>species_3&#45;&gt;reaction_4_intermediate_m</title>
<path fill="none" stroke="black" d="M737.492,-234.963C814.117,-221.21 907.046,-204.53 909.931,-204.012"/>
</g>
<!-- species_4 -->
<g id="species_4" class="node"><title>species_4</title>
<path fill="none" stroke="black" d="M1176,-317C1176,-317 986,-317 986,-317 980,-317 974,-311 974,-305 974,-305 974,-293 974,-293 974,-287 980,-281 986,-281 986,-281 1176,-281 1176,-281 1182,-281 1188,-287 1188,-293 1188,-293 1188,-305 1188,-305 1188,-311 1182,-317 1176,-317"/>
<text text-anchor="middle" x="1081" y="-296.5" font-family="Times,serif" font-size="10.00">two&#45;chain urokinase&#45;type plasminogen activator</text>
</g>
<!-- species_4&#45;&gt;reaction_3_intermediate_r -->
<g id="edge20" class="edge"><title>species_4&#45;&gt;reaction_3_intermediate_r</title>
<path fill="none" stroke="black" d="M1104.81,-280.845C1144.33,-249.401 1221.54,-187.958 1223.94,-186.046"/>
</g>
<!-- species_4&#45;&gt;reaction_3_intermediate_m -->
<g id="edge26" class="edge"><title>species_4&#45;&gt;reaction_3_intermediate_m</title>
<path fill="none" stroke="black" d="M1127.04,-280.968C1163.18,-266.87 1215.39,-247.327 1262,-233 1294.24,-223.09 1335.34,-214.55 1337.88,-214.025"/>
</g>
<!-- reaction_7_intermediate_r -->
<g id="node32" class="node"><title>reaction_7_intermediate_r</title>
<ellipse fill="black" stroke="black" cx="1225" cy="-402" rx="0.036" ry="0.036"/>
</g>
<!-- species_4&#45;&gt;reaction_7_intermediate_r -->
<g id="edge44" class="edge"><title>species_4&#45;&gt;reaction_7_intermediate_r</title>
<path fill="none" stroke="black" d="M1107.06,-317.177C1147.19,-346.284 1221.63,-400.28 1223.94,-401.96"/>
</g>
<!-- reaction_7_intermediate_m -->
<g id="node34" class="node"><title>reaction_7_intermediate_m</title>
<ellipse fill="black" stroke="black" cx="1339" cy="-360" rx="0.036" ry="0.036"/>
</g>
<!-- species_4&#45;&gt;reaction_7_intermediate_m -->
<g id="edge47" class="edge"><title>species_4&#45;&gt;reaction_7_intermediate_m</title>
<path fill="none" stroke="black" d="M1157.77,-317.054C1232.08,-334.761 1334.73,-359.222 1337.92,-359.982"/>
</g>
<!-- species_5 -->
<g id="species_5" class="node"><title>species_5</title>
<ellipse fill="none" stroke="black" cx="636" cy="-635" rx="27" ry="18"/>
<text text-anchor="middle" x="636" y="-632.5" font-family="Times,serif" font-size="10.00">x</text>
</g>
<!-- species_5&#45;&gt;reaction_8_intermediate_r -->
<g id="edge50" class="edge"><title>species_5&#45;&gt;reaction_8_intermediate_r</title>
<path fill="none" stroke="black" d="M660.12,-626.857C703.529,-611.568 793.143,-580.006 795.933,-579.023"/>
</g>
<!-- species_5&#45;&gt;reaction_8_intermediate_m -->
<g id="edge55" class="edge"><title>species_5&#45;&gt;reaction_8_intermediate_m</title>
<path fill="none" stroke="black" d="M662.565,-631.063C700.981,-625.498 775.931,-616 840,-616 840,-616 840,-616 912,-616 1035.09,-616 1068.07,-620.704 1188,-593 1204.2,-589.257 1222.8,-579.627 1223.94,-579.029"/>
</g>
<!-- reaction_10_intermediate_r -->
<g id="node44" class="node"><title>reaction_10_intermediate_r</title>
<ellipse fill="black" stroke="black" cx="797" cy="-685" rx="0.036" ry="0.036"/>
</g>
<!-- species_5&#45;&gt;reaction_10_intermediate_r -->
<g id="edge64" class="edge"><title>species_5&#45;&gt;reaction_10_intermediate_r</title>
<path fill="none" stroke="black" d="M660.804,-642.486C704.467,-656.216 793.173,-684.111 795.934,-684.979"/>
</g>
<!-- reaction_10_intermediate_m -->
<g id="node46" class="node"><title>reaction_10_intermediate_m</title>
<ellipse fill="black" stroke="black" cx="911" cy="-662" rx="0.036" ry="0.036"/>
</g>
<!-- species_5&#45;&gt;reaction_10_intermediate_m -->
<g id="edge67" class="edge"><title>species_5&#45;&gt;reaction_10_intermediate_m</title>
<path fill="none" stroke="black" d="M663.176,-637.589C730.438,-644.241 904.449,-661.451 909.87,-661.987"/>
</g>
<!-- species_6 -->
<g id="species_6" class="node"><title>species_6</title>
<path fill="none" stroke="black" d="M1097.5,-680C1097.5,-680 1064.5,-680 1064.5,-680 1058.5,-680 1052.5,-674 1052.5,-668 1052.5,-668 1052.5,-656 1052.5,-656 1052.5,-650 1058.5,-644 1064.5,-644 1064.5,-644 1097.5,-644 1097.5,-644 1103.5,-644 1109.5,-650 1109.5,-656 1109.5,-656 1109.5,-668 1109.5,-668 1109.5,-674 1103.5,-680 1097.5,-680"/>
<text text-anchor="middle" x="1081" y="-659.5" font-family="Times,serif" font-size="10.00">x&#45;plasmin</text>
</g>
<!-- species_6&#45;&gt;reaction_8_intermediate_m -->
<g id="edge56" class="edge"><title>species_6&#45;&gt;reaction_8_intermediate_m</title>
<path fill="none" stroke="black" d="M1109.9,-658.681C1132.67,-654.843 1164.77,-646.751 1188,-630 1209.8,-614.281 1223.15,-581.155 1223.96,-579.1"/>
</g>
<!-- reaction_9_intermediate_r -->
<g id="node40" class="node"><title>reaction_9_intermediate_r</title>
<ellipse fill="black" stroke="black" cx="1225" cy="-598" rx="0.036" ry="0.036"/>
</g>
<!-- species_6&#45;&gt;reaction_9_intermediate_r -->
<g id="edge58" class="edge"><title>species_6&#45;&gt;reaction_9_intermediate_r</title>
<path fill="none" stroke="black" d="M1109.87,-657.038C1132.05,-652.297 1163.34,-643.793 1188,-630 1206.1,-619.878 1222.92,-599.336 1223.95,-598.062"/>
</g>
<!-- reaction_9_intermediate_m -->
<g id="node42" class="node"><title>reaction_9_intermediate_m</title>
<ellipse fill="black" stroke="black" cx="1339" cy="-608" rx="0.036" ry="0.036"/>
</g>
<!-- species_6&#45;&gt;reaction_9_intermediate_m -->
<g id="edge62" class="edge"><title>species_6&#45;&gt;reaction_9_intermediate_m</title>
<path fill="none" stroke="black" d="M1109.88,-656.118C1175.2,-642.341 1332.97,-609.061 1337.88,-608.025"/>
</g>
<!-- reaction_11_intermediate_r -->
<g id="node48" class="node"><title>reaction_11_intermediate_r</title>
<ellipse fill="black" stroke="black" cx="1225" cy="-662" rx="0.036" ry="0.036"/>
</g>
<!-- species_6&#45;&gt;reaction_11_intermediate_r -->
<g id="edge69" class="edge"><title>species_6&#45;&gt;reaction_11_intermediate_r</title>
<path fill="none" stroke="black" d="M1109.72,-662C1150.4,-662 1221.73,-662 1223.95,-662"/>
</g>
<!-- reaction_11_intermediate_m -->
<g id="node50" class="node"><title>reaction_11_intermediate_m</title>
<ellipse fill="black" stroke="black" cx="1339" cy="-697" rx="0.036" ry="0.036"/>
</g>
<!-- species_6&#45;&gt;reaction_11_intermediate_m -->
<g id="edge72" class="edge"><title>species_6&#45;&gt;reaction_11_intermediate_m</title>
<path fill="none" stroke="black" d="M1109.88,-665.812C1175.2,-674.742 1332.97,-696.312 1337.88,-696.984"/>
</g>
<!-- reaction_1 -->
<g id="node7" class="node"><title>reaction_1</title>
<polygon fill="none" stroke="black" points="386,-229 372,-229 372,-215 386,-215 386,-229"/>
</g>
<!-- reaction_1_intermediate_p -->
<g id="node9" class="node"><title>reaction_1_intermediate_p</title>
<ellipse fill="black" stroke="black" cx="449" cy="-271" rx="0.036" ry="0.036"/>
</g>
<!-- reaction_1&#45;&gt;reaction_1_intermediate_p -->
<g id="edge4" class="edge"><title>reaction_1&#45;&gt;reaction_1_intermediate_p</title>
<path fill="none" stroke="black" d="M385.821,-229.183C393.334,-238.03 407.209,-252.99 422,-262 432.117,-268.163 447.033,-270.831 447.955,-270.992"/>
</g>
<!-- reaction_1&#45;&gt;reaction_1_intermediate_m -->
<g id="edge7" class="edge"><title>reaction_1&#45;&gt;reaction_1_intermediate_m</title>
<path fill="none" stroke="black" d="M386.203,-221.046C437.548,-213.146 790.424,-158.858 795.935,-158.01"/>
</g>
<!-- reaction_1_intermediate_r&#45;&gt;reaction_1 -->
<g id="edge1" class="edge"><title>reaction_1_intermediate_r&#45;&gt;reaction_1</title>
<path fill="none" stroke="black" d="M310.049,-186.026C311.722,-186.912 355.535,-210.107 371.906,-218.774"/>
</g>
<!-- reaction_1_intermediate_p&#45;&gt;species_2 -->
<g id="edge5" class="edge"><title>reaction_1_intermediate_p&#45;&gt;species_2</title>
<path fill="none" stroke="black" d="M450.134,-271.099C454.207,-274.093 550.091,-344.581 602.121,-382.83"/>
<polygon fill="black" stroke="black" points="600.249,-385.798 610.38,-388.901 604.396,-380.158 600.249,-385.798"/>
</g>
<!-- reaction_1_intermediate_p&#45;&gt;species_3 -->
<g id="edge6" class="edge"><title>reaction_1_intermediate_p&#45;&gt;species_3</title>
<path fill="none" stroke="black" d="M450.134,-270.987C452.028,-270.803 473.77,-268.687 501.723,-265.967"/>
<polygon fill="black" stroke="black" points="502.233,-269.434 511.847,-264.982 501.555,-262.467 502.233,-269.434"/>
</g>
<!-- reaction_2 -->
<g id="node11" class="node"><title>reaction_2</title>
<polygon fill="none" stroke="black" points="848,-322 834,-322 834,-308 848,-308 848,-322"/>
</g>
<!-- reaction_2_intermediate_p -->
<g id="node13" class="node"><title>reaction_2_intermediate_p</title>
<ellipse fill="black" stroke="black" cx="911" cy="-315" rx="0.036" ry="0.036"/>
</g>
<!-- reaction_2&#45;&gt;reaction_2_intermediate_p -->
<g id="edge13" class="edge"><title>reaction_2&#45;&gt;reaction_2_intermediate_p</title>
<path fill="none" stroke="black" d="M848.275,-315C864.583,-315 907.222,-315 909.871,-315"/>
</g>
<!-- reaction_2&#45;&gt;reaction_2_intermediate_m -->
<g id="edge16" class="edge"><title>reaction_2&#45;&gt;reaction_2_intermediate_m</title>
<path fill="none" stroke="black" d="M848.275,-311.77C864.583,-303.376 907.222,-281.43 909.871,-280.067"/>
</g>
<!-- reaction_2_intermediate_r&#45;&gt;reaction_2 -->
<g id="edge10" class="edge"><title>reaction_2_intermediate_r&#45;&gt;reaction_2</title>
<path fill="none" stroke="black" d="M798.12,-270.129C799.968,-272.109 822.602,-296.359 833.803,-308.36"/>
</g>
<!-- reaction_2_intermediate_p&#45;&gt;species_4 -->
<g id="edge14" class="edge"><title>reaction_2_intermediate_p&#45;&gt;species_4</title>
<path fill="none" stroke="black" d="M912.122,-314.988C913.953,-314.814 936.212,-312.694 963.957,-310.052"/>
<polygon fill="black" stroke="black" points="964.352,-313.53 973.975,-309.098 963.689,-306.562 964.352,-313.53"/>
</g>
<!-- reaction_2_intermediate_p&#45;&gt;species_2 -->
<g id="edge15" class="edge"><title>reaction_2_intermediate_p&#45;&gt;species_2</title>
<path fill="none" stroke="black" d="M909.87,-315.044C904.693,-316.789 745.732,-370.358 672.862,-394.915"/>
<polygon fill="black" stroke="black" points="671.535,-391.668 663.176,-398.179 673.771,-398.302 671.535,-391.668"/>
</g>
<!-- reaction_3 -->
<g id="node15" class="node"><title>reaction_3</title>
<polygon fill="none" stroke="black" points="1276,-256 1262,-256 1262,-242 1276,-242 1276,-256"/>
</g>
<!-- reaction_3_intermediate_p -->
<g id="node17" class="node"><title>reaction_3_intermediate_p</title>
<ellipse fill="black" stroke="black" cx="1339" cy="-284" rx="0.036" ry="0.036"/>
</g>
<!-- reaction_3&#45;&gt;reaction_3_intermediate_p -->
<g id="edge22" class="edge"><title>reaction_3&#45;&gt;reaction_3_intermediate_p</title>
<path fill="none" stroke="black" d="M1276.28,-252.23C1292.58,-260.624 1335.22,-282.57 1337.87,-283.933"/>
</g>
<!-- reaction_3&#45;&gt;reaction_3_intermediate_m -->
<g id="edge25" class="edge"><title>reaction_3&#45;&gt;reaction_3_intermediate_m</title>
<path fill="none" stroke="black" d="M1276.28,-245.77C1292.58,-237.376 1335.22,-215.43 1337.87,-214.067"/>
</g>
<!-- reaction_3_intermediate_r&#45;&gt;reaction_3 -->
<g id="edge19" class="edge"><title>reaction_3_intermediate_r&#45;&gt;reaction_3</title>
<path fill="none" stroke="black" d="M1226.03,-186.046C1227.03,-187.551 1252.58,-225.877 1263.32,-241.979"/>
</g>
<!-- reaction_3_intermediate_p&#45;&gt;species_2 -->
<g id="edge23" class="edge"><title>reaction_3_intermediate_p&#45;&gt;species_2</title>
<path fill="none" stroke="black" d="M1337.94,-284.02C1335.43,-284.866 1254.71,-312.053 1188,-326 995.652,-366.215 761.432,-393.629 673.056,-403.221"/>
<polygon fill="black" stroke="black" points="672.582,-399.752 663.014,-404.302 673.332,-406.711 672.582,-399.752"/>
</g>
<!-- reaction_3_intermediate_p&#45;&gt;species_4 -->
<g id="edge24" class="edge"><title>reaction_3_intermediate_p&#45;&gt;species_4</title>
<path fill="none" stroke="black" d="M1337.94,-284.003C1335.64,-284.138 1265.01,-288.277 1198.54,-292.172"/>
<polygon fill="black" stroke="black" points="1198.12,-288.69 1188.34,-292.769 1198.53,-295.678 1198.12,-288.69"/>
</g>
<!-- reaction_4 -->
<g id="node19" class="node"><title>reaction_4</title>
<polygon fill="none" stroke="black" points="848,-176 834,-176 834,-162 848,-162 848,-176"/>
</g>
<!-- reaction_4_empty -->
<g id="node21" class="node"><title>reaction_4_empty</title>
<text text-anchor="middle" x="911" y="-164.5" font-family="Times,serif" font-size="15.00" fill="blue">Ø</text>
</g>
<!-- reaction_4&#45;&gt;reaction_4_empty -->
<g id="edge30" class="edge"><title>reaction_4&#45;&gt;reaction_4_empty</title>
<path fill="none" stroke="black" d="M848.275,-168.908C854.278,-168.819 863.849,-168.679 873.68,-168.534"/>
<polygon fill="black" stroke="black" points="873.932,-172.031 883.88,-168.384 873.829,-165.032 873.932,-172.031"/>
</g>
<!-- reaction_4&#45;&gt;reaction_4_intermediate_m -->
<g id="edge31" class="edge"><title>reaction_4&#45;&gt;reaction_4_intermediate_m</title>
<path fill="none" stroke="black" d="M848.019,-173.322C855.964,-178.884 870.524,-188.593 884,-195 894.354,-199.922 908.146,-203.525 909.829,-203.957"/>
</g>
<!-- reaction_4_intermediate_r&#45;&gt;reaction_4 -->
<g id="edge28" class="edge"><title>reaction_4_intermediate_r&#45;&gt;reaction_4</title>
<path fill="none" stroke="black" d="M798.12,-175.98C799.968,-175.672 822.602,-171.9 833.803,-170.033"/>
</g>
<!-- reaction_5 -->
<g id="node23" class="node"><title>reaction_5</title>
<polygon fill="none" stroke="black" points="386,-80 372,-80 372,-66 386,-66 386,-80"/>
</g>
<!-- reaction_5_empty -->
<g id="node25" class="node"><title>reaction_5_empty</title>
<text text-anchor="middle" x="449" y="-60.5" font-family="Times,serif" font-size="15.00" fill="blue">Ø</text>
</g>
<!-- reaction_5&#45;&gt;reaction_5_empty -->
<g id="edge35" class="edge"><title>reaction_5&#45;&gt;reaction_5_empty</title>
<path fill="none" stroke="black" d="M386.275,-72.1694C392.278,-71.3749 401.849,-70.1082 411.68,-68.8071"/>
<polygon fill="black" stroke="black" points="412.425,-72.239 421.88,-67.4571 411.507,-65.2995 412.425,-72.239"/>
</g>
<!-- reaction_5&#45;&gt;reaction_5_intermediate_m -->
<g id="edge36" class="edge"><title>reaction_5&#45;&gt;reaction_5_intermediate_m</title>
<path fill="none" stroke="black" d="M386.241,-66.2924C393.965,-58.3345 407.839,-45.1255 422,-37 432.275,-31.1043 447.043,-28.1852 447.956,-28.0085"/>
</g>
<!-- reaction_5_intermediate_r&#45;&gt;reaction_5 -->
<g id="edge33" class="edge"><title>reaction_5_intermediate_r&#45;&gt;reaction_5</title>
<path fill="none" stroke="black" d="M310.049,-76.9971C311.722,-76.8987 355.535,-74.3215 371.906,-73.3585"/>
</g>
<!-- reaction_6 -->
<g id="node27" class="node"><title>reaction_6</title>
<polygon fill="none" stroke="black" points="848,-544 834,-544 834,-530 848,-530 848,-544"/>
</g>
<!-- reaction_6_empty -->
<g id="node29" class="node"><title>reaction_6_empty</title>
<text text-anchor="middle" x="911" y="-528.5" font-family="Times,serif" font-size="15.00" fill="blue">Ø</text>
</g>
<!-- reaction_6&#45;&gt;reaction_6_empty -->
<g id="edge40" class="edge"><title>reaction_6&#45;&gt;reaction_6_empty</title>
<path fill="none" stroke="black" d="M848.275,-536.539C854.278,-536.097 863.849,-535.393 873.68,-534.671"/>
<polygon fill="black" stroke="black" points="874.163,-538.145 883.88,-533.921 873.65,-531.163 874.163,-538.145"/>
</g>
<!-- reaction_6&#45;&gt;reaction_6_intermediate_m -->
<g id="edge41" class="edge"><title>reaction_6&#45;&gt;reaction_6_intermediate_m</title>
<path fill="none" stroke="black" d="M848.11,-531.332C855.921,-524.335 870.104,-512.45 884,-505 894.44,-499.402 909.053,-496.204 909.956,-496.009"/>
</g>
<!-- reaction_6_intermediate_r&#45;&gt;reaction_6 -->
<g id="edge38" class="edge"><title>reaction_6_intermediate_r&#45;&gt;reaction_6</title>
<path fill="none" stroke="black" d="M798.12,-534.009C799.968,-534.141 822.602,-535.757 833.803,-536.557"/>
</g>
<!-- reaction_7 -->
<g id="node31" class="node"><title>reaction_7</title>
<polygon fill="none" stroke="black" points="1276,-402 1262,-402 1262,-388 1276,-388 1276,-402"/>
</g>
<!-- reaction_7_empty -->
<g id="node33" class="node"><title>reaction_7_empty</title>
<text text-anchor="middle" x="1339" y="-392.5" font-family="Times,serif" font-size="15.00" fill="blue">Ø</text>
</g>
<!-- reaction_7&#45;&gt;reaction_7_empty -->
<g id="edge45" class="edge"><title>reaction_7&#45;&gt;reaction_7_empty</title>
<path fill="none" stroke="black" d="M1276.28,-395.092C1282.28,-395.181 1291.85,-395.321 1301.68,-395.466"/>
<polygon fill="black" stroke="black" points="1301.83,-398.968 1311.88,-395.616 1301.93,-391.969 1301.83,-398.968"/>
</g>
<!-- reaction_7&#45;&gt;reaction_7_intermediate_m -->
<g id="edge46" class="edge"><title>reaction_7&#45;&gt;reaction_7_intermediate_m</title>
<path fill="none" stroke="black" d="M1276.02,-390.678C1283.96,-385.116 1298.52,-375.407 1312,-369 1322.35,-364.078 1336.15,-360.475 1337.83,-360.043"/>
</g>
<!-- reaction_7_intermediate_r&#45;&gt;reaction_7 -->
<g id="edge43" class="edge"><title>reaction_7_intermediate_r&#45;&gt;reaction_7</title>
<path fill="none" stroke="black" d="M1226.12,-401.98C1227.97,-401.672 1250.6,-397.9 1261.8,-396.033"/>
</g>
<!-- reaction_8 -->
<g id="node35" class="node"><title>reaction_8</title>
<polygon fill="none" stroke="black" points="848,-586 834,-586 834,-572 848,-572 848,-586"/>
</g>
<!-- reaction_8_intermediate_p -->
<g id="node37" class="node"><title>reaction_8_intermediate_p</title>
<ellipse fill="black" stroke="black" cx="911" cy="-644" rx="0.036" ry="0.036"/>
</g>
<!-- reaction_8&#45;&gt;reaction_8_intermediate_p -->
<g id="edge51" class="edge"><title>reaction_8&#45;&gt;reaction_8_intermediate_p</title>
<path fill="none" stroke="black" d="M848.275,-584.999C864.583,-600.587 907.222,-641.344 909.871,-643.876"/>
</g>
<!-- reaction_8&#45;&gt;reaction_8_intermediate_m -->
<g id="edge53" class="edge"><title>reaction_8&#45;&gt;reaction_8_intermediate_m</title>
<path fill="none" stroke="black" d="M848,-579C896.219,-579 1218.9,-579 1223.94,-579"/>
</g>
<!-- reaction_8_intermediate_r&#45;&gt;reaction_8 -->
<g id="edge48" class="edge"><title>reaction_8_intermediate_r&#45;&gt;reaction_8</title>
<path fill="none" stroke="black" d="M798.12,-579C799.968,-579 822.602,-579 833.803,-579"/>
</g>
<!-- reaction_8_intermediate_p&#45;&gt;species_6 -->
<g id="edge52" class="edge"><title>reaction_8_intermediate_p&#45;&gt;species_6</title>
<path fill="none" stroke="black" d="M912.122,-644.013C915.621,-644.388 993.727,-652.757 1042.15,-657.945"/>
<polygon fill="black" stroke="black" points="1041.98,-661.446 1052.29,-659.031 1042.72,-654.486 1041.98,-661.446"/>
</g>
<!-- reaction_9 -->
<g id="node39" class="node"><title>reaction_9</title>
<polygon fill="none" stroke="black" points="1276,-599 1262,-599 1262,-585 1276,-585 1276,-599"/>
</g>
<!-- reaction_9_intermediate_p -->
<g id="node41" class="node"><title>reaction_9_intermediate_p</title>
<ellipse fill="black" stroke="black" cx="1339" cy="-517" rx="0.036" ry="0.036"/>
</g>
<!-- reaction_9&#45;&gt;reaction_9_intermediate_p -->
<g id="edge59" class="edge"><title>reaction_9&#45;&gt;reaction_9_intermediate_p</title>
<path fill="none" stroke="black" d="M1276.03,-585.344C1292.16,-567.563 1335.2,-520.093 1337.87,-517.144"/>
</g>
<!-- reaction_9&#45;&gt;reaction_9_intermediate_m -->
<g id="edge61" class="edge"><title>reaction_9&#45;&gt;reaction_9_intermediate_m</title>
<path fill="none" stroke="black" d="M1276.28,-593.477C1292.58,-597.314 1335.22,-607.346 1337.87,-607.97"/>
</g>
<!-- reaction_9_intermediate_r&#45;&gt;reaction_9 -->
<g id="edge57" class="edge"><title>reaction_9_intermediate_r&#45;&gt;reaction_9</title>
<path fill="none" stroke="black" d="M1226.12,-597.983C1227.97,-597.719 1250.6,-594.485 1261.8,-592.885"/>
</g>
<!-- reaction_9_intermediate_p&#45;&gt;species_2 -->
<g id="edge60" class="edge"><title>reaction_9_intermediate_p&#45;&gt;species_2</title>
<path fill="none" stroke="black" d="M1337.94,-516.975C1335.46,-515.925 1255.4,-482.195 1188,-466 1067.48,-437.039 1035.95,-426 912,-426 840,-426 840,-426 840,-426 781.387,-426 713.668,-418.051 673.145,-412.436"/>
<polygon fill="black" stroke="black" points="673.596,-408.965 663.205,-411.029 672.616,-415.896 673.596,-408.965"/>
</g>
<!-- reaction_10 -->
<g id="node43" class="node"><title>reaction_10</title>
<polygon fill="none" stroke="black" points="848,-696 834,-696 834,-682 848,-682 848,-696"/>
</g>
<!-- reaction_10_empty -->
<g id="node45" class="node"><title>reaction_10_empty</title>
<text text-anchor="middle" x="911" y="-694.5" font-family="Times,serif" font-size="15.00" fill="blue">Ø</text>
</g>
<!-- reaction_10&#45;&gt;reaction_10_empty -->
<g id="edge65" class="edge"><title>reaction_10&#45;&gt;reaction_10_empty</title>
<path fill="none" stroke="black" d="M848.275,-689.831C854.278,-690.625 863.849,-691.892 873.68,-693.193"/>
<polygon fill="black" stroke="black" points="873.507,-696.7 883.88,-694.543 874.425,-689.761 873.507,-696.7"/>
</g>
<!-- reaction_10&#45;&gt;reaction_10_intermediate_m -->
<g id="edge66" class="edge"><title>reaction_10&#45;&gt;reaction_10_intermediate_m</title>
<path fill="none" stroke="black" d="M848.204,-686.175C856.35,-682.506 871.126,-675.98 884,-671 894.692,-666.864 908.188,-662.573 909.833,-662.053"/>
</g>
<!-- reaction_10_intermediate_r&#45;&gt;reaction_10 -->
<g id="edge63" class="edge"><title>reaction_10_intermediate_r&#45;&gt;reaction_10</title>
<path fill="none" stroke="black" d="M798.12,-685.011C799.968,-685.187 822.602,-687.343 833.803,-688.41"/>
</g>
<!-- reaction_11 -->
<g id="node47" class="node"><title>reaction_11</title>
<polygon fill="none" stroke="black" points="1276,-669 1262,-669 1262,-655 1276,-655 1276,-669"/>
</g>
<!-- reaction_11_empty -->
<g id="node49" class="node"><title>reaction_11_empty</title>
<text text-anchor="middle" x="1339" y="-657.5" font-family="Times,serif" font-size="15.00" fill="blue">Ø</text>
</g>
<!-- reaction_11&#45;&gt;reaction_11_empty -->
<g id="edge70" class="edge"><title>reaction_11&#45;&gt;reaction_11_empty</title>
<path fill="none" stroke="black" d="M1276.28,-661.908C1282.28,-661.819 1291.85,-661.679 1301.68,-661.534"/>
<polygon fill="black" stroke="black" points="1301.93,-665.031 1311.88,-661.384 1301.83,-658.032 1301.93,-665.031"/>
</g>
<!-- reaction_11&#45;&gt;reaction_11_intermediate_m -->
<g id="edge71" class="edge"><title>reaction_11&#45;&gt;reaction_11_intermediate_m</title>
<path fill="none" stroke="black" d="M1276.02,-666.322C1283.96,-671.884 1298.52,-681.593 1312,-688 1322.35,-692.922 1336.15,-696.525 1337.83,-696.957"/>
</g>
<!-- reaction_11_intermediate_r&#45;&gt;reaction_11 -->
<g id="edge68" class="edge"><title>reaction_11_intermediate_r&#45;&gt;reaction_11</title>
<path fill="none" stroke="black" d="M1226.12,-662C1227.97,-662 1250.6,-662 1261.8,-662"/>
</g>
<!-- reaction_12 -->
<g id="node51" class="node"><title>reaction_12</title>
<polygon fill="none" stroke="black" points="386,-261 372,-261 372,-247 386,-247 386,-261"/>
</g>
<!-- reaction_12_intermediate_p -->
<g id="node53" class="node"><title>reaction_12_intermediate_p</title>
<ellipse fill="black" stroke="black" cx="449" cy="-253" rx="0.036" ry="0.036"/>
</g>
<!-- reaction_12&#45;&gt;reaction_12_intermediate_p -->
<g id="edge74" class="edge"><title>reaction_12&#45;&gt;reaction_12_intermediate_p</title>
<path fill="none" stroke="black" d="M386.275,-253.908C402.583,-253.668 445.222,-253.041 447.871,-253.002"/>
</g>
<!-- reaction_12_empty -->
<g id="node52" class="node"><title>reaction_12_empty</title>
<text text-anchor="middle" x="309" y="-250.5" font-family="Times,serif" font-size="15.00" fill="blue">Ø</text>
</g>
<!-- reaction_12_empty&#45;&gt;reaction_12 -->
<g id="edge73" class="edge"><title>reaction_12_empty&#45;&gt;reaction_12</title>
<path fill="none" stroke="black" d="M336.096,-254C349.13,-254 363.805,-254 371.868,-254"/>
</g>
<!-- reaction_12_intermediate_p&#45;&gt;species_3 -->
<g id="edge75" class="edge"><title>reaction_12_intermediate_p&#45;&gt;species_3</title>
<path fill="none" stroke="black" d="M450.134,-253C452.028,-253 473.77,-253 501.723,-253"/>
<polygon fill="black" stroke="black" points="501.847,-256.5 511.847,-253 501.847,-249.5 501.847,-256.5"/>
</g>
<!-- reaction_13 -->
<g id="node54" class="node"><title>reaction_13</title>
<polygon fill="none" stroke="black" points="104,-100 90,-100 90,-86 104,-86 104,-100"/>
</g>
<!-- reaction_13_intermediate_p -->
<g id="node56" class="node"><title>reaction_13_intermediate_p</title>
<ellipse fill="black" stroke="black" cx="140" cy="-93" rx="0.036" ry="0.036"/>
</g>
<!-- reaction_13&#45;&gt;reaction_13_intermediate_p -->
<g id="edge77" class="edge"><title>reaction_13&#45;&gt;reaction_13_intermediate_p</title>
<path fill="none" stroke="black" d="M104.05,-93C115.098,-93 137.54,-93 138.932,-93"/>
</g>
<!-- reaction_13_empty -->
<g id="node55" class="node"><title>reaction_13_empty</title>
<text text-anchor="middle" x="27" y="-89.5" font-family="Times,serif" font-size="15.00" fill="blue">Ø</text>
</g>
<!-- reaction_13_empty&#45;&gt;reaction_13 -->
<g id="edge76" class="edge"><title>reaction_13_empty&#45;&gt;reaction_13</title>
<path fill="none" stroke="black" d="M54.0961,-93C67.13,-93 81.8045,-93 89.8681,-93"/>
</g>
<!-- reaction_13_intermediate_p&#45;&gt;species_1 -->
<g id="edge78" class="edge"><title>reaction_13_intermediate_p&#45;&gt;species_1</title>
<path fill="none" stroke="black" d="M141.05,-93C141.883,-93 152.998,-93 166.069,-93"/>
<polygon fill="black" stroke="black" points="166.309,-96.5001 176.309,-93 166.308,-89.5001 166.309,-96.5001"/>
</g>
<!-- reaction_14 -->
<g id="node57" class="node"><title>reaction_14</title>
<polygon fill="none" stroke="black" points="386,-642 372,-642 372,-628 386,-628 386,-642"/>
</g>
<!-- reaction_14_intermediate_p -->
<g id="node59" class="node"><title>reaction_14_intermediate_p</title>
<ellipse fill="black" stroke="black" cx="449" cy="-635" rx="0.036" ry="0.036"/>
</g>
<!-- reaction_14&#45;&gt;reaction_14_intermediate_p -->
<g id="edge80" class="edge"><title>reaction_14&#45;&gt;reaction_14_intermediate_p</title>
<path fill="none" stroke="black" d="M386.275,-635C402.583,-635 445.222,-635 447.871,-635"/>
</g>
<!-- reaction_14_empty -->
<g id="node58" class="node"><title>reaction_14_empty</title>
<text text-anchor="middle" x="309" y="-631.5" font-family="Times,serif" font-size="15.00" fill="blue">Ø</text>
</g>
<!-- reaction_14_empty&#45;&gt;reaction_14 -->
<g id="edge79" class="edge"><title>reaction_14_empty&#45;&gt;reaction_14</title>
<path fill="none" stroke="black" d="M336.096,-635C349.13,-635 363.805,-635 371.868,-635"/>
</g>
<!-- reaction_14_intermediate_p&#45;&gt;species_5 -->
<g id="edge81" class="edge"><title>reaction_14_intermediate_p&#45;&gt;species_5</title>
<path fill="none" stroke="black" d="M450.134,-635C454.116,-635 545.837,-635 598.557,-635"/>
<polygon fill="black" stroke="black" points="598.856,-638.5 608.856,-635 598.856,-631.5 598.856,-638.5"/>
</g>
</g>
</svg>
