<?xml version="1.0" encoding="utf-8"?>
<!-- Generator: Adobe Illustrator 14.0.0, SVG Export Plug-In . SVG Version: 6.00 Build 43363)  -->
<!DOCTYPE svg PUBLIC "-//W3C//DTD SVG 1.1//EN" "http://www.w3.org/Graphics/SVG/1.1/DTD/svg11.dtd">
<svg version="1.1" id="Layer_1" xmlns="http://www.w3.org/2000/svg" xmlns:xlink="http://www.w3.org/1999/xlink" x="0px" y="0px"
	 width="475px" height="421px" viewBox="0 0 475 421" enable-background="new 0 0 475 421" xml:space="preserve">
<g>
	
		<radialGradient id="path16609_14_" cx="286.0205" cy="-48.2437" r="16.1858" gradientTransform="matrix(1.5933 0 0 0.6358 -56.5069 382.1696)" gradientUnits="userSpaceOnUse">
		<stop  offset="0" style="stop-color:#FDFBE1"/>
		<stop  offset="0.1203" style="stop-color:#FEFBDC"/>
		<stop  offset="0.2662" style="stop-color:#FFFACC"/>
		<stop  offset="0.4255" style="stop-color:#FEF6B3"/>
		<stop  offset="0.5943" style="stop-color:#FEF091"/>
		<stop  offset="0.7706" style="stop-color:#FEEA64"/>
		<stop  offset="0.9506" style="stop-color:#FEE22D"/>
		<stop  offset="1" style="stop-color:#FEE01B"/>
	</radialGradient>
	<path id="path16609_11_" fill="url(#path16609_14_)" stroke="#010101" d="M424.525,351.494c0,5.787-11.338,10.479-25.316,10.479
		c-13.98,0-25.314-4.689-25.314-10.479c0-5.787,11.334-10.475,25.314-10.475C413.188,341.02,424.525,345.707,424.525,351.494z"/>
	<g>
		<path d="M400.863,354.766c-0.372,0.192-1.152,0.384-2.135,0.384c-2.279,0-3.982-1.439-3.982-4.102
			c0-2.543,1.715-4.246,4.222-4.246c0.995,0,1.644,0.216,1.919,0.36l-0.264,0.852c-0.384-0.192-0.947-0.336-1.619-0.336
			c-1.895,0-3.154,1.211-3.154,3.334c0,1.991,1.139,3.25,3.094,3.25c0.648,0,1.296-0.132,1.716-0.336L400.863,354.766z"/>
		<path d="M402.15,346.502h1.055v8.516h-1.055V346.502z"/>
	</g>
</g>
<g>
	
		<radialGradient id="path16609_15_" cx="286.0205" cy="-471.3335" r="16.1858" gradientTransform="matrix(1.5933 0 0 0.6358 -56.5069 382.1696)" gradientUnits="userSpaceOnUse">
		<stop  offset="0" style="stop-color:#FDFBE1"/>
		<stop  offset="0.1203" style="stop-color:#FEFBDC"/>
		<stop  offset="0.2662" style="stop-color:#FFFACC"/>
		<stop  offset="0.4255" style="stop-color:#FEF6B3"/>
		<stop  offset="0.5943" style="stop-color:#FEF091"/>
		<stop  offset="0.7706" style="stop-color:#FEEA64"/>
		<stop  offset="0.9506" style="stop-color:#FEE22D"/>
		<stop  offset="1" style="stop-color:#FEE01B"/>
	</radialGradient>
	<path id="path16609_10_" fill="url(#path16609_15_)" stroke="#010101" d="M424.525,82.495c0,5.786-11.338,10.478-25.316,10.478
		c-13.98,0-25.314-4.689-25.314-10.478s11.334-10.476,25.314-10.476C413.188,72.02,424.525,76.708,424.525,82.495z"/>
	<g>
		<path d="M387.971,75.936v3.382h3.91v-3.382h1.055v8.083h-1.055v-3.79h-3.91v3.79h-1.056v-8.083H387.971z"/>
		<path d="M400.388,83.768c-0.372,0.192-1.151,0.384-2.135,0.384c-2.278,0-3.981-1.439-3.981-4.102c0-2.542,1.715-4.246,4.221-4.246
			c0.996,0,1.644,0.216,1.92,0.36l-0.264,0.852c-0.385-0.192-0.948-0.336-1.619-0.336c-1.896,0-3.154,1.211-3.154,3.334
			c0,1.991,1.139,3.25,3.094,3.25c0.647,0,1.295-0.132,1.715-0.336L400.388,83.768z"/>
		<path d="M408.367,79.894c0,2.771-1.691,4.258-3.754,4.258c-2.146,0-3.635-1.667-3.635-4.114c0-2.566,1.584-4.246,3.742-4.246
			C406.939,75.792,408.367,77.483,408.367,79.894z M402.082,80.014c0,1.739,0.936,3.286,2.591,3.286s2.591-1.523,2.591-3.358
			c0-1.619-0.84-3.298-2.578-3.298C402.946,76.644,402.082,78.25,402.082,80.014z"/>
		<path d="M409.277,87.317c0.174,0.104,0.572,0.279,1.006,0.279c0.783,0,1.034-0.496,1.027-0.88
			c-0.008-0.636-0.58-0.909-1.174-0.909h-0.343v-0.461h0.343c0.447,0,1.013-0.231,1.013-0.769c0-0.363-0.23-0.685-0.796-0.685
			c-0.364,0-0.713,0.161-0.909,0.3l-0.167-0.447c0.244-0.175,0.705-0.35,1.194-0.35c0.895,0,1.3,0.531,1.3,1.083
			c0,0.475-0.287,0.874-0.838,1.076v0.014c0.559,0.104,1.006,0.524,1.013,1.16c0,0.727-0.573,1.363-1.656,1.363
			c-0.511,0-0.958-0.161-1.181-0.307L409.277,87.317z"/>
	</g>
</g>
<g>
	
		<radialGradient id="path16609_16_" cx="80.3008" cy="-471.3335" r="16.1858" gradientTransform="matrix(1.5933 0 0 0.6358 -56.5069 382.1696)" gradientUnits="userSpaceOnUse">
		<stop  offset="0" style="stop-color:#FDFBE1"/>
		<stop  offset="0.1203" style="stop-color:#FEFBDC"/>
		<stop  offset="0.2662" style="stop-color:#FFFACC"/>
		<stop  offset="0.4255" style="stop-color:#FEF6B3"/>
		<stop  offset="0.5943" style="stop-color:#FEF091"/>
		<stop  offset="0.7706" style="stop-color:#FEEA64"/>
		<stop  offset="0.9506" style="stop-color:#FEE22D"/>
		<stop  offset="1" style="stop-color:#FEE01B"/>
	</radialGradient>
	<path id="path16609_9_" fill="url(#path16609_16_)" stroke="#010101" d="M96.752,82.495c0,5.786-11.338,10.478-25.316,10.478
		c-13.98,0-25.314-4.689-25.314-10.478s11.334-10.476,25.314-10.476C85.414,72.02,96.752,76.708,96.752,82.495z"/>
	<g>
		<path d="M58.925,75.936v3.382h3.91v-3.382h1.056v8.083h-1.056v-3.79h-3.91v3.79h-1.056v-8.083H58.925z"/>
		<path d="M71.342,83.768c-0.372,0.192-1.151,0.384-2.135,0.384c-2.279,0-3.982-1.439-3.982-4.102c0-2.542,1.715-4.246,4.222-4.246
			c0.996,0,1.643,0.216,1.919,0.36l-0.264,0.852c-0.384-0.192-0.948-0.336-1.619-0.336c-1.895,0-3.154,1.211-3.154,3.334
			c0,1.991,1.139,3.25,3.094,3.25c0.647,0,1.295-0.132,1.715-0.336L71.342,83.768z"/>
		<path d="M79.321,79.894c0,2.771-1.691,4.258-3.754,4.258c-2.147,0-3.634-1.667-3.634-4.114c0-2.566,1.583-4.246,3.742-4.246
			C77.894,75.792,79.321,77.483,79.321,79.894z M73.037,80.014c0,1.739,0.936,3.286,2.59,3.286c1.655,0,2.591-1.523,2.591-3.358
			c0-1.619-0.839-3.298-2.579-3.298C73.9,76.644,73.037,78.25,73.037,80.014z"/>
		<path d="M80.231,87.317c0.174,0.104,0.573,0.279,1.006,0.279c0.783,0,1.034-0.496,1.027-0.88c-0.007-0.636-0.58-0.909-1.174-0.909
			h-0.342v-0.461h0.342c0.447,0,1.013-0.231,1.013-0.769c0-0.363-0.23-0.685-0.796-0.685c-0.364,0-0.713,0.161-0.909,0.3
			l-0.167-0.447c0.245-0.175,0.706-0.35,1.195-0.35c0.895,0,1.3,0.531,1.3,1.083c0,0.475-0.287,0.874-0.838,1.076v0.014
			c0.559,0.104,1.006,0.524,1.013,1.16c0,0.727-0.573,1.363-1.656,1.363c-0.51,0-0.958-0.161-1.181-0.307L80.231,87.317z"/>
	</g>
</g>
<g>
	
		<radialGradient id="path16609_17_" cx="106.2168" cy="-471.3335" r="16.1858" gradientTransform="matrix(1.5933 0 0 0.6358 -56.5069 382.1696)" gradientUnits="userSpaceOnUse">
		<stop  offset="0" style="stop-color:#C2DA65"/>
		<stop  offset="0.4082" style="stop-color:#C2DA65"/>
		<stop  offset="0.5552" style="stop-color:#BDD967"/>
		<stop  offset="0.66" style="stop-color:#B9D766"/>
		<stop  offset="0.7448" style="stop-color:#B1D466"/>
		<stop  offset="0.8174" style="stop-color:#A8D166"/>
		<stop  offset="0.8817" style="stop-color:#9DCE66"/>
		<stop  offset="0.9398" style="stop-color:#93CA65"/>
		<stop  offset="0.9915" style="stop-color:#89C762"/>
		<stop  offset="1" style="stop-color:#87C763"/>
	</radialGradient>
	<path id="path16609" fill="url(#path16609_17_)" stroke="#010101" d="M138.043,82.495c0,5.786-11.338,10.478-25.316,10.478
		c-13.981,0-25.315-4.689-25.315-10.478s11.334-10.476,25.315-10.476C126.705,72.02,138.043,76.708,138.043,82.495z"/>
	<g>
		<path d="M113.541,86.018l-1.043-1.787c-0.419-0.684-0.671-1.127-0.923-1.595h-0.024c-0.228,0.468-0.468,0.9-0.875,1.607
			l-0.972,1.775h-1.199l2.471-4.09l-2.375-3.994h1.211l1.067,1.895c0.3,0.527,0.528,0.936,0.744,1.367h0.036
			c0.228-0.48,0.432-0.852,0.731-1.367l1.092-1.895h1.211l-2.458,3.934l2.519,4.15H113.541z"/>
		<path d="M117.25,77.718c-0.276,1.007-0.792,2.303-1.115,2.854l-0.672,0.072c0.252-0.708,0.576-1.943,0.708-2.807L117.25,77.718z"
			/>
	</g>
</g>
<g>
	
		<radialGradient id="path16609_18_" cx="259.3955" cy="-471.3335" r="16.1858" gradientTransform="matrix(1.5933 0 0 0.6358 -56.5069 382.1696)" gradientUnits="userSpaceOnUse">
		<stop  offset="0" style="stop-color:#C2DA65"/>
		<stop  offset="0.4082" style="stop-color:#C2DA65"/>
		<stop  offset="0.5552" style="stop-color:#BDD967"/>
		<stop  offset="0.66" style="stop-color:#B9D766"/>
		<stop  offset="0.7448" style="stop-color:#B1D466"/>
		<stop  offset="0.8174" style="stop-color:#A8D166"/>
		<stop  offset="0.8817" style="stop-color:#9DCE66"/>
		<stop  offset="0.9398" style="stop-color:#93CA65"/>
		<stop  offset="0.9915" style="stop-color:#89C762"/>
		<stop  offset="1" style="stop-color:#87C763"/>
	</radialGradient>
	<path id="path16609_1_" fill="url(#path16609_18_)" stroke="#010101" d="M382.104,82.495c0,5.786-11.338,10.478-25.316,10.478
		c-13.98,0-25.314-4.689-25.314-10.478s11.334-10.476,25.314-10.476C370.766,72.02,382.104,76.708,382.104,82.495z"/>
	<g>
		<path d="M357.601,86.018l-1.044-1.787c-0.419-0.684-0.671-1.127-0.923-1.595h-0.024c-0.228,0.468-0.467,0.9-0.875,1.607
			l-0.972,1.775h-1.199l2.471-4.09l-2.374-3.994h1.211l1.066,1.895c0.301,0.527,0.528,0.936,0.744,1.367h0.036
			c0.228-0.48,0.432-0.852,0.731-1.367l1.092-1.895h1.211l-2.459,3.934l2.52,4.15H357.601z"/>
		<path d="M361.311,77.718c-0.275,1.007-0.791,2.303-1.115,2.854l-0.672,0.072c0.252-0.708,0.576-1.943,0.707-2.807L361.311,77.718z
			"/>
		<path d="M363.099,77.718c-0.276,1.007-0.792,2.303-1.115,2.854l-0.672,0.072c0.252-0.708,0.575-1.943,0.708-2.807L363.099,77.718z
			"/>
	</g>
</g>
<g>
	
		<radialGradient id="path16609_19_" cx="106.2168" cy="-259.2817" r="16.1858" gradientTransform="matrix(1.5933 0 0 0.6358 -56.5069 382.1696)" gradientUnits="userSpaceOnUse">
		<stop  offset="0" style="stop-color:#C2DA65"/>
		<stop  offset="0.4082" style="stop-color:#C2DA65"/>
		<stop  offset="0.5552" style="stop-color:#BDD967"/>
		<stop  offset="0.66" style="stop-color:#B9D766"/>
		<stop  offset="0.7448" style="stop-color:#B1D466"/>
		<stop  offset="0.8174" style="stop-color:#A8D166"/>
		<stop  offset="0.8817" style="stop-color:#9DCE66"/>
		<stop  offset="0.9398" style="stop-color:#93CA65"/>
		<stop  offset="0.9915" style="stop-color:#89C762"/>
		<stop  offset="1" style="stop-color:#87C763"/>
	</radialGradient>
	<path id="path16609_3_" fill="url(#path16609_19_)" stroke="#010101" d="M138.043,217.317c0,5.786-11.338,10.478-25.316,10.478
		c-13.981,0-25.315-4.689-25.315-10.478s11.334-10.476,25.315-10.476C126.705,206.843,138.043,211.53,138.043,217.317z"/>
	<g>
		<path d="M113.541,220.84l-1.043-1.787c-0.419-0.684-0.671-1.127-0.923-1.596h-0.024c-0.228,0.469-0.468,0.9-0.875,1.607
			l-0.972,1.775h-1.199l2.471-4.09l-2.375-3.994h1.211l1.067,1.896c0.3,0.527,0.528,0.936,0.744,1.367h0.036
			c0.228-0.479,0.432-0.852,0.731-1.367l1.092-1.896h1.211l-2.458,3.934l2.519,4.15H113.541z"/>
		<path d="M117.25,212.541c-0.276,1.007-0.792,2.303-1.115,2.854l-0.672,0.072c0.252-0.707,0.576-1.943,0.708-2.807L117.25,212.541z
			"/>
	</g>
</g>
<g>
	
		<radialGradient id="path16609_20_" cx="259.3955" cy="-259.2817" r="16.1858" gradientTransform="matrix(1.5933 0 0 0.6358 -56.5069 382.1696)" gradientUnits="userSpaceOnUse">
		<stop  offset="0" style="stop-color:#C2DA65"/>
		<stop  offset="0.4082" style="stop-color:#C2DA65"/>
		<stop  offset="0.5552" style="stop-color:#BDD967"/>
		<stop  offset="0.66" style="stop-color:#B9D766"/>
		<stop  offset="0.7448" style="stop-color:#B1D466"/>
		<stop  offset="0.8174" style="stop-color:#A8D166"/>
		<stop  offset="0.8817" style="stop-color:#9DCE66"/>
		<stop  offset="0.9398" style="stop-color:#93CA65"/>
		<stop  offset="0.9915" style="stop-color:#89C762"/>
		<stop  offset="1" style="stop-color:#87C763"/>
	</radialGradient>
	<path id="path16609_2_" fill="url(#path16609_20_)" stroke="#010101" d="M382.104,217.317c0,5.786-11.338,10.478-25.316,10.478
		c-13.98,0-25.314-4.689-25.314-10.478s11.334-10.476,25.314-10.476C370.766,206.843,382.104,211.53,382.104,217.317z"/>
	<g>
		<path d="M357.601,220.84l-1.044-1.787c-0.419-0.684-0.671-1.127-0.923-1.596h-0.024c-0.228,0.469-0.467,0.9-0.875,1.607
			l-0.972,1.775h-1.199l2.471-4.09l-2.374-3.994h1.211l1.066,1.896c0.301,0.527,0.528,0.936,0.744,1.367h0.036
			c0.228-0.479,0.432-0.852,0.731-1.367l1.092-1.896h1.211l-2.459,3.934l2.52,4.15H357.601z"/>
		<path d="M361.311,212.541c-0.275,1.007-0.791,2.303-1.115,2.854l-0.672,0.072c0.252-0.707,0.576-1.943,0.707-2.807
			L361.311,212.541z"/>
		<path d="M363.099,212.541c-0.276,1.007-0.792,2.303-1.115,2.854l-0.672,0.072c0.252-0.707,0.575-1.943,0.708-2.807
			L363.099,212.541z"/>
	</g>
</g>
<g>
	
		<radialGradient id="path16609_21_" cx="259.3955" cy="-48.2437" r="16.1858" gradientTransform="matrix(1.5933 0 0 0.6358 -56.5069 382.1696)" gradientUnits="userSpaceOnUse">
		<stop  offset="0" style="stop-color:#C2DA65"/>
		<stop  offset="0.4082" style="stop-color:#C2DA65"/>
		<stop  offset="0.5552" style="stop-color:#BDD967"/>
		<stop  offset="0.66" style="stop-color:#B9D766"/>
		<stop  offset="0.7448" style="stop-color:#B1D466"/>
		<stop  offset="0.8174" style="stop-color:#A8D166"/>
		<stop  offset="0.8817" style="stop-color:#9DCE66"/>
		<stop  offset="0.9398" style="stop-color:#93CA65"/>
		<stop  offset="0.9915" style="stop-color:#89C762"/>
		<stop  offset="1" style="stop-color:#87C763"/>
	</radialGradient>
	<path id="path16609_4_" fill="url(#path16609_21_)" stroke="#010101" d="M382.104,351.495c0,5.786-11.338,10.478-25.316,10.478
		c-13.98,0-25.314-4.689-25.314-10.478s11.334-10.476,25.314-10.476C370.766,341.021,382.104,345.708,382.104,351.495z"/>
	<g>
		<path d="M357.601,355.018l-1.044-1.787c-0.419-0.684-0.671-1.127-0.923-1.596h-0.024c-0.228,0.469-0.467,0.9-0.875,1.607
			l-0.972,1.775h-1.199l2.471-4.09l-2.374-3.994h1.211l1.066,1.896c0.301,0.527,0.528,0.936,0.744,1.367h0.036
			c0.228-0.479,0.432-0.852,0.731-1.367l1.092-1.896h1.211l-2.459,3.934l2.52,4.15H357.601z"/>
		<path d="M361.311,346.719c-0.275,1.007-0.791,2.303-1.115,2.854l-0.672,0.072c0.252-0.707,0.576-1.943,0.707-2.807
			L361.311,346.719z"/>
		<path d="M363.099,346.719c-0.276,1.007-0.792,2.303-1.115,2.854l-0.672,0.072c0.252-0.707,0.575-1.943,0.708-2.807
			L363.099,346.719z"/>
	</g>
</g>
<g>
	<g>
		<g>
			<line fill="none" stroke="#010101" x1="154.73" y1="90.679" x2="317.533" y2="90.679"/>
			<polygon fill="#010101" points="157.539,86.976 155.966,90.679 157.539,94.383 148.761,90.679 			"/>
		</g>
	</g>
	<g>
		<g>
			<line fill="none" stroke="#010101" x1="312.35" y1="80.313" x2="149.547" y2="80.313"/>
			<polygon fill="#010101" points="309.541,84.016 311.113,80.313 309.541,76.609 318.318,80.313 			"/>
		</g>
	</g>
</g>
<g>
	<g>
		<g>
			<line fill="none" stroke="#010101" x1="154.73" y1="356.679" x2="317.533" y2="356.679"/>
			<polygon fill="#010101" points="157.539,352.976 155.966,356.679 157.539,360.383 148.761,356.679 			"/>
		</g>
	</g>
	<g>
		<g>
			<line fill="none" stroke="#010101" x1="312.35" y1="346.313" x2="149.547" y2="346.313"/>
			<polygon fill="#010101" points="309.541,350.017 311.113,346.313 309.541,342.609 318.318,346.313 			"/>
		</g>
	</g>
</g>
<g>
	<path fill="none" stroke="#010101" d="M356.1,137.551c0,6.722,10.784,40.334,61.833,40.334"/>
	<g>
		<g>
			<line fill="none" stroke="#010101" x1="356.1" y1="101.999" x2="356.1" y2="197.581"/>
			<polygon fill="#010101" points="352.396,194.772 356.1,196.345 359.804,194.772 356.1,203.55 			"/>
			<polygon fill="#010101" points="359.803,104.808 356.1,103.235 352.396,104.808 356.1,96.03 			"/>
		</g>
	</g>
</g>
<g>
	<path fill="none" stroke="#010101" d="M355.1,297.029c0-6.723,10.784-40.335,61.833-40.335"/>
	<g>
		<g>
			<line fill="none" stroke="#010101" x1="355.1" y1="332.581" x2="355.1" y2="236.999"/>
			<polygon fill="#010101" points="358.803,239.808 355.1,238.234 351.396,239.808 355.1,231.029 			"/>
			<polygon fill="#010101" points="351.396,329.772 355.1,331.346 358.804,329.772 355.1,338.551 			"/>
		</g>
	</g>
</g>
<g>
	<path fill="none" stroke="#010101" d="M112.728,297.029c0-6.723-10.784-40.335-61.833-40.335"/>
	<g>
		<g>
			<line fill="none" stroke="#010101" x1="112.728" y1="332.581" x2="112.728" y2="236.999"/>
			<polygon fill="#010101" points="116.431,239.808 112.728,238.234 109.023,239.808 112.728,231.029 			"/>
			<polygon fill="#010101" points="109.024,329.772 112.728,331.346 116.432,329.772 112.728,338.551 			"/>
		</g>
	</g>
</g>
<g>
	<path fill="none" stroke="#010101" d="M112.728,137.551c0,6.723-10.784,40.335-61.833,40.335"/>
	<g>
		<g>
			<line fill="none" stroke="#010101" x1="112.728" y1="101.999" x2="112.728" y2="197.581"/>
			<polygon fill="#010101" points="109.024,194.772 112.728,196.346 116.432,194.772 112.728,203.551 			"/>
			<polygon fill="#010101" points="116.431,104.808 112.728,103.235 109.023,104.808 112.728,96.03 			"/>
		</g>
	</g>
</g>
<line fill="none" stroke="#010101" stroke-dasharray="3,3" x1="226.641" y1="16" x2="226.641" y2="407"/>
<g>
	
		<radialGradient id="path16609_22_" cx="80.3008" cy="-47.519" r="16.1858" gradientTransform="matrix(1.5933 0 0 0.6358 -56.5069 382.1696)" gradientUnits="userSpaceOnUse">
		<stop  offset="0" style="stop-color:#FDFBE1"/>
		<stop  offset="0.1203" style="stop-color:#FEFBDC"/>
		<stop  offset="0.2662" style="stop-color:#FFFACC"/>
		<stop  offset="0.4255" style="stop-color:#FEF6B3"/>
		<stop  offset="0.5943" style="stop-color:#FEF091"/>
		<stop  offset="0.7706" style="stop-color:#FEEA64"/>
		<stop  offset="0.9506" style="stop-color:#FEE22D"/>
		<stop  offset="1" style="stop-color:#FEE01B"/>
	</radialGradient>
	<path id="path16609_6_" fill="url(#path16609_22_)" stroke="#010101" d="M96.752,351.955c0,5.787-11.338,10.479-25.315,10.479
		c-13.981,0-25.315-4.689-25.315-10.479c0-5.787,11.334-10.475,25.315-10.475C85.414,341.48,96.752,346.168,96.752,351.955z"/>
	<g>
		<path d="M71.817,355.227c-0.372,0.192-1.151,0.384-2.135,0.384c-2.279,0-3.982-1.439-3.982-4.102c0-2.543,1.715-4.246,4.222-4.246
			c0.996,0,1.643,0.216,1.919,0.36l-0.264,0.852c-0.384-0.192-0.948-0.336-1.619-0.336c-1.895,0-3.154,1.211-3.154,3.334
			c0,1.991,1.139,3.25,3.094,3.25c0.648,0,1.295-0.132,1.715-0.336L71.817,355.227z"/>
		<path d="M73.104,346.963h1.056v8.516h-1.056V346.963z"/>
	</g>
</g>
<g>
	
		<radialGradient id="path16609_23_" cx="57.25" cy="-322.4062" r="16.186" gradientTransform="matrix(1.5933 0 0 0.6358 -56.5069 382.1696)" gradientUnits="userSpaceOnUse">
		<stop  offset="0" style="stop-color:#FDFBE1"/>
		<stop  offset="0.1203" style="stop-color:#FEFBDC"/>
		<stop  offset="0.2662" style="stop-color:#FFFACC"/>
		<stop  offset="0.4255" style="stop-color:#FEF6B3"/>
		<stop  offset="0.5943" style="stop-color:#FEF091"/>
		<stop  offset="0.7706" style="stop-color:#FEEA64"/>
		<stop  offset="0.9506" style="stop-color:#FEE22D"/>
		<stop  offset="1" style="stop-color:#FEE01B"/>
	</radialGradient>
	<path id="path16609_7_" fill="url(#path16609_23_)" stroke="#010101" d="M60.024,177.182c0,5.787-11.338,10.479-25.316,10.479
		c-13.98,0-25.314-4.689-25.314-10.479c0-5.787,11.334-10.475,25.314-10.475C48.687,166.707,60.024,171.395,60.024,177.182z"/>
	<g>
		<path d="M21.456,170.623v3.383h3.91v-3.383h1.056v8.084h-1.056v-3.79h-3.91v3.79H20.4v-8.084H21.456z"/>
		<path d="M33.873,178.455c-0.372,0.191-1.151,0.384-2.135,0.384c-2.279,0-3.982-1.438-3.982-4.102c0-2.542,1.715-4.245,4.222-4.245
			c0.996,0,1.643,0.215,1.919,0.359l-0.264,0.852c-0.384-0.192-0.948-0.336-1.619-0.336c-1.895,0-3.154,1.211-3.154,3.334
			c0,1.991,1.139,3.25,3.094,3.25c0.647,0,1.295-0.132,1.715-0.336L33.873,178.455z"/>
		<path d="M41.853,174.581c0,2.771-1.691,4.258-3.754,4.258c-2.147,0-3.634-1.667-3.634-4.114c0-2.566,1.583-4.245,3.742-4.245
			C40.425,170.479,41.853,172.17,41.853,174.581z M35.568,174.701c0,1.739,0.936,3.286,2.59,3.286c1.655,0,2.591-1.522,2.591-3.358
			c0-1.619-0.839-3.298-2.579-3.298C36.432,171.331,35.568,172.938,35.568,174.701z"/>
		<path d="M42.762,182.004c0.174,0.105,0.573,0.279,1.006,0.279c0.783,0,1.034-0.496,1.027-0.88
			c-0.007-0.636-0.58-0.909-1.174-0.909h-0.342v-0.461h0.342c0.447,0,1.013-0.23,1.013-0.769c0-0.363-0.23-0.685-0.796-0.685
			c-0.364,0-0.713,0.16-0.909,0.301l-0.167-0.447c0.245-0.176,0.706-0.35,1.195-0.35c0.895,0,1.3,0.531,1.3,1.083
			c0,0.476-0.287,0.874-0.838,1.076v0.015c0.559,0.104,1.006,0.523,1.013,1.159c0,0.728-0.573,1.362-1.656,1.362
			c-0.51,0-0.958-0.16-1.181-0.307L42.762,182.004z"/>
	</g>
</g>
<g>
	
		<radialGradient id="path16609_24_" cx="57.25" cy="-196.937" r="16.1858" gradientTransform="matrix(1.5933 0 0 0.6358 -56.5069 382.1696)" gradientUnits="userSpaceOnUse">
		<stop  offset="0" style="stop-color:#FDFBE1"/>
		<stop  offset="0.1203" style="stop-color:#FEFBDC"/>
		<stop  offset="0.2662" style="stop-color:#FFFACC"/>
		<stop  offset="0.4255" style="stop-color:#FEF6B3"/>
		<stop  offset="0.5943" style="stop-color:#FEF091"/>
		<stop  offset="0.7706" style="stop-color:#FEEA64"/>
		<stop  offset="0.9506" style="stop-color:#FEE22D"/>
		<stop  offset="1" style="stop-color:#FEE01B"/>
	</radialGradient>
	<path id="path16609_8_" fill="url(#path16609_24_)" stroke="#010101" d="M60.024,256.955c0,5.787-11.338,10.479-25.316,10.479
		c-13.981,0-25.315-4.689-25.315-10.479c0-5.787,11.334-10.475,25.315-10.475C48.687,246.48,60.024,251.168,60.024,256.955z"/>
	<g>
		<path d="M36.361,260.227c-0.372,0.192-1.151,0.384-2.135,0.384c-2.279,0-3.982-1.439-3.982-4.102c0-2.543,1.715-4.246,4.222-4.246
			c0.996,0,1.643,0.216,1.919,0.36l-0.264,0.852c-0.384-0.192-0.948-0.336-1.619-0.336c-1.895,0-3.154,1.211-3.154,3.334
			c0,1.991,1.139,3.25,3.094,3.25c0.648,0,1.295-0.132,1.715-0.336L36.361,260.227z"/>
		<path d="M37.648,251.963h1.056v8.516h-1.056V251.963z"/>
	</g>
</g>
<g>
	<path d="M197.358,64.031c0.503-0.084,1.163-0.156,2.003-0.156c1.031,0,1.787,0.24,2.267,0.672c0.432,0.384,0.708,0.971,0.708,1.691
		c0,0.731-0.216,1.307-0.624,1.727c-0.564,0.587-1.451,0.888-2.471,0.888c-0.312,0-0.6-0.012-0.839-0.072v3.238h-1.043V64.031z
		 M198.402,67.929c0.228,0.06,0.516,0.084,0.863,0.084c1.259,0,2.027-0.624,2.027-1.715c0-1.08-0.768-1.595-1.907-1.595
		c-0.456,0-0.804,0.036-0.983,0.084V67.929z"/>
	<path d="M203.362,71.374c0.266-0.062,0.692-0.104,1.111-0.104c0.608,0,1,0.104,1.286,0.342c0.245,0.182,0.398,0.461,0.398,0.832
		c0,0.461-0.308,0.86-0.797,1.035v0.021c0.447,0.104,0.972,0.475,0.972,1.174c0,0.405-0.161,0.72-0.406,0.943
		c-0.321,0.301-0.853,0.44-1.621,0.44c-0.419,0-0.741-0.028-0.943-0.056V71.374z M203.97,73.303h0.552
		c0.636,0,1.013-0.343,1.013-0.797c0-0.545-0.413-0.769-1.027-0.769c-0.28,0-0.44,0.021-0.538,0.042V73.303z M203.97,75.553
		c0.126,0.021,0.293,0.028,0.51,0.028c0.629,0,1.209-0.231,1.209-0.916c0-0.636-0.552-0.909-1.216-0.909h-0.503V75.553z"/>
	<path d="M208.817,63.719c-0.276,1.007-0.792,2.303-1.115,2.854l-0.672,0.072c0.252-0.708,0.576-1.943,0.708-2.807L208.817,63.719z"
		/>
</g>
<g>
	<path d="M196.465,101.012c0.503-0.084,1.163-0.156,2.003-0.156c1.031,0,1.787,0.24,2.267,0.672
		c0.432,0.384,0.708,0.971,0.708,1.691c0,0.731-0.216,1.307-0.624,1.727c-0.564,0.587-1.451,0.888-2.471,0.888
		c-0.312,0-0.6-0.012-0.839-0.072V109h-1.043V101.012z M197.508,104.91c0.228,0.06,0.516,0.084,0.863,0.084
		c1.259,0,2.027-0.624,2.027-1.715c0-1.08-0.768-1.595-1.907-1.595c-0.456,0-0.804,0.036-0.983,0.084V104.91z"/>
	<path d="M202.468,108.355c0.266-0.062,0.692-0.104,1.111-0.104c0.608,0,1,0.104,1.286,0.342c0.245,0.182,0.398,0.461,0.398,0.832
		c0,0.461-0.308,0.86-0.797,1.035v0.021c0.447,0.104,0.972,0.475,0.972,1.174c0,0.405-0.161,0.72-0.406,0.943
		c-0.321,0.301-0.853,0.44-1.621,0.44c-0.419,0-0.741-0.028-0.943-0.056V108.355z M203.076,110.285h0.552
		c0.636,0,1.013-0.343,1.013-0.797c0-0.545-0.413-0.769-1.027-0.769c-0.28,0-0.44,0.021-0.538,0.042V110.285z M203.076,112.535
		c0.126,0.021,0.293,0.028,0.51,0.028c0.629,0,1.209-0.231,1.209-0.916c0-0.636-0.552-0.909-1.216-0.909h-0.503V112.535z"/>
	<path d="M207.924,100.701c-0.276,1.007-0.792,2.303-1.115,2.854l-0.672,0.072c0.252-0.708,0.576-1.943,0.708-2.807L207.924,100.701
		z"/>
	<path d="M209.712,100.701c-0.276,1.007-0.792,2.303-1.115,2.854l-0.672,0.072c0.252-0.708,0.576-1.943,0.708-2.807L209.712,100.701
		z"/>
</g>
<g>
	<path d="M253.359,328.594c0.503-0.084,1.162-0.156,2.002-0.156c1.031,0,1.787,0.24,2.268,0.672
		c0.432,0.384,0.707,0.971,0.707,1.691c0,0.73-0.216,1.307-0.623,1.727c-0.564,0.588-1.451,0.888-2.471,0.888
		c-0.312,0-0.6-0.013-0.84-0.072v3.238h-1.043V328.594z M254.402,332.491c0.228,0.06,0.516,0.084,0.863,0.084
		c1.26,0,2.027-0.624,2.027-1.715c0-1.079-0.768-1.595-1.907-1.595c-0.456,0-0.804,0.035-0.983,0.084V332.491z"/>
	<path d="M262.646,340.43c-0.217,0.112-0.67,0.225-1.244,0.225c-1.327,0-2.32-0.839-2.32-2.391c0-1.481,1-2.474,2.461-2.474
		c0.58,0,0.957,0.126,1.117,0.21l-0.153,0.496c-0.224-0.112-0.552-0.195-0.943-0.195c-1.104,0-1.838,0.705-1.838,1.942
		c0,1.16,0.664,1.894,1.804,1.894c0.377,0,0.754-0.076,0.998-0.195L262.646,340.43z"/>
	<path d="M265.084,328.281c-0.276,1.008-0.792,2.303-1.115,2.855l-0.672,0.071c0.252-0.708,0.575-1.942,0.707-2.807L265.084,328.281
		z"/>
</g>
<g>
	<path d="M252.465,365.691c0.503-0.084,1.162-0.156,2.002-0.156c1.031,0,1.787,0.24,2.268,0.672
		c0.432,0.384,0.707,0.971,0.707,1.691c0,0.73-0.216,1.307-0.623,1.727c-0.564,0.588-1.451,0.888-2.471,0.888
		c-0.312,0-0.6-0.013-0.84-0.072v3.238h-1.043V365.691z M253.508,369.589c0.228,0.06,0.516,0.084,0.863,0.084
		c1.26,0,2.027-0.624,2.027-1.715c0-1.079-0.768-1.595-1.907-1.595c-0.456,0-0.804,0.035-0.983,0.084V369.589z"/>
	<path d="M261.752,377.527c-0.217,0.112-0.67,0.225-1.244,0.225c-1.327,0-2.32-0.839-2.32-2.391c0-1.481,1-2.474,2.461-2.474
		c0.58,0,0.957,0.126,1.117,0.21l-0.153,0.496c-0.224-0.112-0.552-0.195-0.943-0.195c-1.104,0-1.838,0.705-1.838,1.942
		c0,1.16,0.664,1.894,1.804,1.894c0.377,0,0.754-0.076,0.998-0.195L261.752,377.527z"/>
	<path d="M264.189,365.379c-0.276,1.008-0.792,2.303-1.115,2.855l-0.672,0.071c0.252-0.708,0.575-1.942,0.707-2.807L264.189,365.379
		z"/>
	<path d="M265.977,365.379c-0.275,1.008-0.791,2.303-1.115,2.855l-0.672,0.071c0.252-0.708,0.576-1.942,0.708-2.807L265.977,365.379
		z"/>
</g>
<g>
	<path d="M118.912,169.1h1.043v3.898h0.036c0.216-0.312,0.432-0.6,0.636-0.863l2.471-3.035h1.295l-2.926,3.431l3.154,4.653h-1.235
		l-2.651-3.97l-0.779,0.888v3.082h-1.043V169.1z"/>
	<path d="M125.035,176.539c0.266-0.062,0.692-0.104,1.111-0.104c0.608,0,1,0.104,1.286,0.343c0.245,0.182,0.398,0.461,0.398,0.831
		c0,0.462-0.308,0.86-0.797,1.034v0.021c0.447,0.104,0.972,0.475,0.972,1.174c0,0.405-0.161,0.72-0.406,0.943
		c-0.321,0.301-0.853,0.44-1.621,0.44c-0.419,0-0.741-0.028-0.943-0.056V176.539z M125.643,178.469h0.552
		c0.636,0,1.013-0.344,1.013-0.797c0-0.545-0.413-0.77-1.027-0.77c-0.28,0-0.44,0.021-0.538,0.043V178.469z M125.643,180.719
		c0.126,0.021,0.293,0.027,0.51,0.027c0.629,0,1.209-0.23,1.209-0.915c0-0.636-0.552-0.909-1.216-0.909h-0.503V180.719z"/>
	<path d="M130.491,168.885c-0.276,1.007-0.792,2.303-1.115,2.854l-0.672,0.072c0.252-0.707,0.576-1.943,0.708-2.807L130.491,168.885
		z"/>
</g>
<g>
	<path d="M337.656,169.1h1.044v3.898h0.036c0.216-0.312,0.432-0.6,0.635-0.863l2.471-3.035h1.296l-2.927,3.431l3.154,4.653h-1.234
		l-2.651-3.97l-0.779,0.888v3.082h-1.044V169.1z"/>
	<path d="M343.78,176.539c0.266-0.062,0.692-0.104,1.11-0.104c0.609,0,1,0.104,1.287,0.343c0.244,0.182,0.398,0.461,0.398,0.831
		c0,0.462-0.309,0.86-0.797,1.034v0.021c0.447,0.104,0.971,0.475,0.971,1.174c0,0.405-0.16,0.72-0.405,0.943
		c-0.321,0.301-0.853,0.44-1.621,0.44c-0.419,0-0.741-0.028-0.943-0.056V176.539z M344.389,178.469h0.552
		c0.636,0,1.013-0.344,1.013-0.797c0-0.545-0.412-0.77-1.027-0.77c-0.279,0-0.439,0.021-0.537,0.043V178.469z M344.389,180.719
		c0.125,0.021,0.293,0.027,0.51,0.027c0.629,0,1.209-0.23,1.209-0.915c0-0.636-0.553-0.909-1.217-0.909h-0.502V180.719z"/>
	<path d="M349.236,168.885c-0.276,1.007-0.792,2.303-1.115,2.854l-0.672,0.072c0.252-0.707,0.575-1.943,0.707-2.807L349.236,168.885
		z"/>
	<path d="M351.023,168.885c-0.275,1.007-0.791,2.303-1.115,2.854l-0.672,0.072c0.252-0.707,0.576-1.943,0.708-2.807L351.023,168.885
		z"/>
</g>
<g>
	<path d="M118.912,268.777h1.043v3.898h0.036c0.216-0.312,0.432-0.6,0.636-0.863l2.471-3.035h1.295l-2.926,3.431l3.154,4.653h-1.235
		l-2.651-3.97l-0.779,0.888v3.082h-1.043V268.777z"/>
	<path d="M128.32,280.711c-0.217,0.111-0.671,0.224-1.244,0.224c-1.328,0-2.32-0.839-2.32-2.39c0-1.482,1-2.475,2.46-2.475
		c0.58,0,0.958,0.126,1.118,0.209l-0.154,0.497c-0.224-0.112-0.552-0.196-0.943-0.196c-1.104,0-1.838,0.706-1.838,1.943
		c0,1.16,0.664,1.894,1.803,1.894c0.377,0,0.754-0.077,0.999-0.195L128.32,280.711z"/>
	<path d="M130.756,268.562c-0.276,1.007-0.792,2.303-1.115,2.854l-0.672,0.072c0.252-0.707,0.576-1.943,0.708-2.807L130.756,268.562
		z"/>
</g>
<g>
	<path d="M337.656,268.777h1.044v3.898h0.036c0.216-0.312,0.432-0.6,0.635-0.863l2.471-3.035h1.296l-2.927,3.431l3.154,4.653h-1.234
		l-2.651-3.97l-0.779,0.888v3.082h-1.044V268.777z"/>
	<path d="M347.064,280.711c-0.217,0.111-0.67,0.224-1.244,0.224c-1.327,0-2.32-0.839-2.32-2.39c0-1.482,1-2.475,2.461-2.475
		c0.58,0,0.957,0.126,1.117,0.209l-0.153,0.497c-0.224-0.112-0.552-0.196-0.943-0.196c-1.104,0-1.838,0.706-1.838,1.943
		c0,1.16,0.664,1.894,1.804,1.894c0.377,0,0.754-0.077,0.998-0.195L347.064,280.711z"/>
	<path d="M349.502,268.562c-0.276,1.007-0.792,2.303-1.115,2.854l-0.672,0.072c0.252-0.707,0.575-1.943,0.707-2.807L349.502,268.562
		z"/>
	<path d="M351.289,268.562c-0.275,1.007-0.791,2.303-1.115,2.854l-0.672,0.072c0.252-0.707,0.576-1.943,0.708-2.807L351.289,268.562
		z"/>
</g>
<g>
	<path d="M123.085,19.21h-3.13v2.915h3.502V23h-4.558v-8.083h4.378v0.875h-3.322v2.555h3.13V19.21z"/>
	<path d="M125.271,17.195l0.828,1.247c0.228,0.324,0.408,0.612,0.6,0.936h0.024c0.192-0.336,0.384-0.636,0.588-0.947l0.803-1.235
		h1.151l-1.979,2.806L129.313,23h-1.188l-0.864-1.307c-0.228-0.336-0.419-0.66-0.624-1.008h-0.024
		c-0.192,0.348-0.384,0.66-0.612,1.008L125.163,23H124l2.062-2.962l-1.967-2.842H125.271z"/>
	<path d="M131.763,15.804v1.392h1.511v0.803h-1.511v3.13c0,0.72,0.204,1.127,0.792,1.127c0.288,0,0.456-0.024,0.612-0.072
		l0.048,0.803c-0.204,0.072-0.528,0.144-0.936,0.144c-0.492,0-0.888-0.168-1.14-0.444c-0.288-0.324-0.408-0.839-0.408-1.523v-3.167
		h-0.899v-0.803h0.899v-1.08L131.763,15.804z"/>
	<path d="M134.979,20.29c0.024,1.427,0.923,2.015,1.991,2.015c0.755,0,1.223-0.132,1.607-0.3l0.192,0.756
		c-0.372,0.168-1.019,0.372-1.943,0.372c-1.787,0-2.854-1.188-2.854-2.938s1.032-3.118,2.723-3.118c1.907,0,2.399,1.655,2.399,2.723
		c0,0.216-0.012,0.372-0.036,0.492H134.979z M138.073,19.534c0.012-0.66-0.276-1.703-1.463-1.703c-1.08,0-1.535,0.971-1.619,1.703
		H138.073z"/>
	<path d="M140.403,19.006c0-0.684-0.012-1.271-0.048-1.811h0.923l0.048,1.151h0.036c0.264-0.78,0.912-1.271,1.619-1.271
		c0.108,0,0.192,0.012,0.288,0.024v0.996c-0.108-0.024-0.216-0.024-0.36-0.024c-0.744,0-1.271,0.552-1.416,1.343
		c-0.024,0.144-0.036,0.324-0.036,0.492V23h-1.056V19.006z"/>
	<path d="M144.375,18.766c0-0.611-0.012-1.091-0.048-1.571h0.936l0.06,0.959h0.024c0.288-0.54,0.959-1.08,1.919-1.08
		c0.803,0,2.051,0.48,2.051,2.471V23h-1.056v-3.346c0-0.936-0.348-1.715-1.343-1.715c-0.684,0-1.223,0.492-1.415,1.079
		c-0.048,0.132-0.072,0.312-0.072,0.492V23h-1.056V18.766z"/>
	<path d="M155.112,21.609c0,0.503,0.024,0.995,0.084,1.391h-0.947l-0.084-0.731h-0.036c-0.324,0.456-0.947,0.863-1.775,0.863
		c-1.175,0-1.775-0.828-1.775-1.667c0-1.403,1.247-2.171,3.49-2.159v-0.12c0-0.468-0.132-1.343-1.319-1.331
		c-0.552,0-1.116,0.156-1.523,0.432l-0.24-0.708c0.479-0.3,1.187-0.504,1.919-0.504c1.775,0,2.207,1.211,2.207,2.363V21.609z
		 M154.093,20.038c-1.151-0.024-2.458,0.18-2.458,1.307c0,0.696,0.456,1.008,0.983,1.008c0.768,0,1.259-0.48,1.427-0.972
		c0.036-0.12,0.048-0.24,0.048-0.336V20.038z"/>
	<path d="M156.819,14.485h1.056V23h-1.056V14.485z"/>
</g>
<g>
	<path d="M275.955,14.917V23h-1.056v-8.083H275.955z"/>
	<path d="M277.864,18.766c0-0.611-0.013-1.091-0.049-1.571h0.936l0.061,0.959h0.023c0.288-0.54,0.96-1.08,1.919-1.08
		c0.804,0,2.051,0.48,2.051,2.471V23h-1.055v-3.346c0-0.936-0.348-1.715-1.344-1.715c-0.684,0-1.224,0.492-1.415,1.079
		c-0.048,0.132-0.072,0.312-0.072,0.492V23h-1.055V18.766z"/>
	<path d="M285.747,15.804v1.392h1.512v0.803h-1.512v3.13c0,0.72,0.204,1.127,0.792,1.127c0.288,0,0.456-0.024,0.611-0.072
		l0.048,0.803c-0.203,0.072-0.527,0.144-0.936,0.144c-0.491,0-0.887-0.168-1.139-0.444c-0.288-0.324-0.408-0.839-0.408-1.523v-3.167
		h-0.899v-0.803h0.899v-1.08L285.747,15.804z"/>
	<path d="M288.963,20.29c0.024,1.427,0.924,2.015,1.991,2.015c0.756,0,1.224-0.132,1.607-0.3l0.191,0.756
		c-0.372,0.168-1.02,0.372-1.942,0.372c-1.787,0-2.854-1.188-2.854-2.938s1.031-3.118,2.723-3.118c1.906,0,2.398,1.655,2.398,2.723
		c0,0.216-0.013,0.372-0.036,0.492H288.963z M292.058,19.534c0.012-0.66-0.276-1.703-1.463-1.703c-1.08,0-1.535,0.971-1.619,1.703
		H292.058z"/>
	<path d="M294.388,19.006c0-0.684-0.013-1.271-0.049-1.811h0.924l0.048,1.151h0.036c0.264-0.78,0.911-1.271,1.619-1.271
		c0.108,0,0.192,0.012,0.288,0.024v0.996c-0.108-0.024-0.216-0.024-0.36-0.024c-0.743,0-1.271,0.552-1.415,1.343
		c-0.023,0.144-0.036,0.324-0.036,0.492V23h-1.055V19.006z"/>
	<path d="M298.359,18.766c0-0.611-0.013-1.091-0.049-1.571h0.936l0.061,0.959h0.023c0.288-0.54,0.96-1.08,1.919-1.08
		c0.804,0,2.051,0.48,2.051,2.471V23h-1.055v-3.346c0-0.936-0.349-1.715-1.344-1.715c-0.684,0-1.224,0.492-1.415,1.079
		c-0.048,0.132-0.072,0.312-0.072,0.492V23h-1.055V18.766z"/>
	<path d="M309.097,21.609c0,0.503,0.024,0.995,0.084,1.391h-0.947l-0.084-0.731h-0.036c-0.324,0.456-0.947,0.863-1.775,0.863
		c-1.175,0-1.774-0.828-1.774-1.667c0-1.403,1.247-2.171,3.49-2.159v-0.12c0-0.468-0.132-1.343-1.319-1.331
		c-0.552,0-1.115,0.156-1.523,0.432l-0.24-0.708c0.48-0.3,1.188-0.504,1.919-0.504c1.775,0,2.207,1.211,2.207,2.363V21.609z
		 M308.077,20.038c-1.151-0.024-2.458,0.18-2.458,1.307c0,0.696,0.455,1.008,0.983,1.008c0.768,0,1.259-0.48,1.427-0.972
		c0.036-0.12,0.048-0.24,0.048-0.336V20.038z"/>
	<path d="M310.804,14.485h1.055V23h-1.055V14.485z"/>
</g>
<g>
	
		<radialGradient id="path16609_25_" cx="106.2168" cy="-48.2437" r="16.1858" gradientTransform="matrix(1.5933 0 0 0.6358 -56.5069 382.1696)" gradientUnits="userSpaceOnUse">
		<stop  offset="0" style="stop-color:#C2DA65"/>
		<stop  offset="0.4082" style="stop-color:#C2DA65"/>
		<stop  offset="0.5552" style="stop-color:#BDD967"/>
		<stop  offset="0.66" style="stop-color:#B9D766"/>
		<stop  offset="0.7448" style="stop-color:#B1D466"/>
		<stop  offset="0.8174" style="stop-color:#A8D166"/>
		<stop  offset="0.8817" style="stop-color:#9DCE66"/>
		<stop  offset="0.9398" style="stop-color:#93CA65"/>
		<stop  offset="0.9915" style="stop-color:#89C762"/>
		<stop  offset="1" style="stop-color:#87C763"/>
	</radialGradient>
	<path id="path16609_5_" fill="url(#path16609_25_)" stroke="#010101" d="M138.043,351.495c0,5.786-11.338,10.478-25.316,10.478
		c-13.981,0-25.315-4.689-25.315-10.478s11.334-10.476,25.315-10.476C126.705,341.021,138.043,345.708,138.043,351.495z"/>
	<g>
		<path d="M113.541,355.018l-1.043-1.787c-0.419-0.684-0.671-1.127-0.923-1.596h-0.024c-0.228,0.469-0.468,0.9-0.875,1.607
			l-0.972,1.775h-1.199l2.471-4.09l-2.375-3.994h1.211l1.067,1.896c0.3,0.527,0.528,0.936,0.744,1.367h0.036
			c0.228-0.479,0.432-0.852,0.731-1.367l1.092-1.896h1.211l-2.458,3.934l2.519,4.15H113.541z"/>
		<path d="M117.25,346.719c-0.276,1.007-0.792,2.303-1.115,2.854l-0.672,0.072c0.252-0.707,0.576-1.943,0.708-2.807L117.25,346.719z
			"/>
	</g>
</g>
<g>
	
		<radialGradient id="path16609_26_" cx="308.6553" cy="-196.937" r="16.1858" gradientTransform="matrix(1.5933 0 0 0.6358 -56.5069 382.1696)" gradientUnits="userSpaceOnUse">
		<stop  offset="0" style="stop-color:#FDFBE1"/>
		<stop  offset="0.1203" style="stop-color:#FEFBDC"/>
		<stop  offset="0.2662" style="stop-color:#FFFACC"/>
		<stop  offset="0.4255" style="stop-color:#FEF6B3"/>
		<stop  offset="0.5943" style="stop-color:#FEF091"/>
		<stop  offset="0.7706" style="stop-color:#FEEA64"/>
		<stop  offset="0.9506" style="stop-color:#FEE22D"/>
		<stop  offset="1" style="stop-color:#FEE01B"/>
	</radialGradient>
	<path id="path16609_12_" fill="url(#path16609_26_)" stroke="#010101" d="M460.588,256.955c0,5.787-11.338,10.479-25.316,10.479
		c-13.98,0-25.314-4.689-25.314-10.479c0-5.787,11.334-10.475,25.314-10.475C449.25,246.48,460.588,251.168,460.588,256.955z"/>
	<g>
		<path d="M436.924,260.227c-0.371,0.192-1.15,0.384-2.135,0.384c-2.278,0-3.981-1.439-3.981-4.102c0-2.543,1.716-4.246,4.222-4.246
			c0.996,0,1.643,0.216,1.919,0.36l-0.264,0.852c-0.384-0.192-0.948-0.336-1.619-0.336c-1.896,0-3.154,1.211-3.154,3.334
			c0,1.991,1.14,3.25,3.095,3.25c0.647,0,1.295-0.132,1.715-0.336L436.924,260.227z"/>
		<path d="M438.211,251.963h1.057v8.516h-1.057V251.963z"/>
	</g>
</g>
<g>
	
		<radialGradient id="path16609_27_" cx="308.6553" cy="-322.4062" r="16.186" gradientTransform="matrix(1.5933 0 0 0.6358 -56.5069 382.1696)" gradientUnits="userSpaceOnUse">
		<stop  offset="0" style="stop-color:#FDFBE1"/>
		<stop  offset="0.1203" style="stop-color:#FEFBDC"/>
		<stop  offset="0.2662" style="stop-color:#FFFACC"/>
		<stop  offset="0.4255" style="stop-color:#FEF6B3"/>
		<stop  offset="0.5943" style="stop-color:#FEF091"/>
		<stop  offset="0.7706" style="stop-color:#FEEA64"/>
		<stop  offset="0.9506" style="stop-color:#FEE22D"/>
		<stop  offset="1" style="stop-color:#FEE01B"/>
	</radialGradient>
	<path id="path16609_13_" fill="url(#path16609_27_)" stroke="#010101" d="M460.588,177.182c0,5.787-11.338,10.479-25.316,10.479
		c-13.98,0-25.314-4.689-25.314-10.479c0-5.787,11.334-10.475,25.314-10.475C449.25,166.707,460.588,171.395,460.588,177.182z"/>
	<g>
		<path d="M422.02,170.623v3.383h3.909v-3.383h1.056v8.084h-1.056v-3.79h-3.909v3.79h-1.057v-8.084H422.02z"/>
		<path d="M434.436,178.455c-0.371,0.191-1.15,0.384-2.135,0.384c-2.278,0-3.981-1.438-3.981-4.102c0-2.542,1.716-4.245,4.222-4.245
			c0.996,0,1.643,0.215,1.919,0.359l-0.264,0.852c-0.384-0.192-0.948-0.336-1.619-0.336c-1.896,0-3.154,1.211-3.154,3.334
			c0,1.991,1.14,3.25,3.095,3.25c0.646,0,1.295-0.132,1.715-0.336L434.436,178.455z"/>
		<path d="M442.416,174.581c0,2.771-1.691,4.258-3.754,4.258c-2.147,0-3.635-1.667-3.635-4.114c0-2.566,1.584-4.245,3.742-4.245
			C440.988,170.479,442.416,172.17,442.416,174.581z M436.131,174.701c0,1.739,0.936,3.286,2.59,3.286
			c1.656,0,2.592-1.522,2.592-3.358c0-1.619-0.84-3.298-2.579-3.298S436.131,172.938,436.131,174.701z"/>
		<path d="M443.325,182.004c0.175,0.105,0.573,0.279,1.007,0.279c0.782,0,1.033-0.496,1.027-0.88
			c-0.008-0.636-0.58-0.909-1.175-0.909h-0.343v-0.461h0.343c0.447,0,1.013-0.23,1.013-0.769c0-0.363-0.23-0.685-0.796-0.685
			c-0.364,0-0.713,0.16-0.909,0.301l-0.167-0.447c0.245-0.176,0.706-0.35,1.194-0.35c0.895,0,1.301,0.531,1.301,1.083
			c0,0.476-0.287,0.874-0.839,1.076v0.015c0.56,0.104,1.007,0.523,1.013,1.159c0,0.728-0.572,1.362-1.656,1.362
			c-0.51,0-0.957-0.16-1.181-0.307L443.325,182.004z"/>
	</g>
</g>
</svg>
