<?xml version="1.0" encoding="UTF-8" standalone="no"?>
<!DOCTYPE svg PUBLIC "-//W3C//DTD SVG 1.1//EN"
 "http://www.w3.org/Graphics/SVG/1.1/DTD/svg11.dtd">
<!-- Generated by graphviz version 2.30.1 (20140821.0912)
 -->
<!-- Title: G Pages: 1 -->
<svg width="1742pt" height="347pt"
 viewBox="0.00 0.00 1742.00 347.00" xmlns="http://www.w3.org/2000/svg" xmlns:xlink="http://www.w3.org/1999/xlink">
<g id="graph0" class="graph" transform="scale(1 1) rotate(0) translate(4 343)">
<title>G</title>
<polygon fill="white" stroke="white" points="-4,5 -4,-343 1739,-343 1739,5 -4,5"/>
<!-- species_0000001 -->
<g id="species_0000001 [CHEBI:18421]" class="node"><title>species_0000001</title>
<ellipse fill="none" stroke="black" cx="196" cy="-215" rx="18" ry="18"/>
<text text-anchor="middle" x="196" y="-212.5" font-family="Times,serif" font-size="10.00">O2*&#45;</text>
</g>
<!-- reaction_0_intermediate_r -->
<g id="node14" class="node"><title>reaction_0_intermediate_r</title>
<ellipse fill="black" stroke="black" cx="589" cy="-133" rx="0.036" ry="0.036"/>
</g>
<!-- species_0000001&#45;&gt;reaction_0_intermediate_r -->
<g id="edge5" class="edge"><title>species_0000001&#45;&gt;reaction_0_intermediate_r</title>
<path fill="none" stroke="black" d="M205.633,-199.697C214.725,-185.059 230.431,-163.555 250,-152 287.452,-129.885 302.506,-133 346,-133 346,-133 346,-133 418,-133 492.375,-133 585.053,-133 587.931,-133"/>
</g>
<!-- reaction_1_intermediate_r -->
<g id="node17" class="node"><title>reaction_1_intermediate_r</title>
<ellipse fill="black" stroke="black" cx="277" cy="-215" rx="0.036" ry="0.036"/>
</g>
<!-- species_0000001&#45;&gt;reaction_1_intermediate_r -->
<g id="edge9" class="edge"><title>species_0000001&#45;&gt;reaction_1_intermediate_r</title>
<path fill="none" stroke="black" d="M214.142,-215C236.65,-215 273.601,-215 275.888,-215"/>
</g>
<!-- reaction_2_intermediate_r -->
<g id="node20" class="node"><title>reaction_2_intermediate_r</title>
<ellipse fill="black" stroke="black" cx="1345" cy="-159" rx="0.036" ry="0.036"/>
</g>
<!-- species_0000001&#45;&gt;reaction_2_intermediate_r -->
<g id="edge14" class="edge"><title>species_0000001&#45;&gt;reaction_2_intermediate_r</title>
<path fill="none" stroke="black" d="M200.311,-197.406C211.091,-146.057 250.177,-0 346,-0 346,-0 346,-0 1218,-0 1306.76,-0 1342.87,-154.07 1343.97,-158.885"/>
</g>
<!-- reaction_3_intermediate_r -->
<g id="node23" class="node"><title>reaction_3_intermediate_r</title>
<ellipse fill="black" stroke="black" cx="589" cy="-266" rx="0.036" ry="0.036"/>
</g>
<!-- species_0000001&#45;&gt;reaction_3_intermediate_r -->
<g id="edge19" class="edge"><title>species_0000001&#45;&gt;reaction_3_intermediate_r</title>
<path fill="none" stroke="black" d="M204.176,-231.282C212.792,-249.212 228.776,-277.895 250,-296 285.568,-326.341 299.249,-339 346,-339 346,-339 346,-339 418,-339 498.942,-339 585.258,-268.263 587.936,-266.053"/>
</g>
<!-- fast_intermediate_r -->
<g id="node61" class="node"><title>fast_intermediate_r</title>
<ellipse fill="black" stroke="black" cx="277" cy="-287" rx="0.036" ry="0.036"/>
</g>
<!-- species_0000001&#45;&gt;fast_intermediate_r -->
<g id="edge67" class="edge"><title>species_0000001&#45;&gt;fast_intermediate_r</title>
<path fill="none" stroke="black" d="M206.173,-230.004C215.564,-244.206 231.391,-265.205 250,-278 259.762,-284.711 275.01,-286.866 275.954,-286.994"/>
</g>
<!-- species_0000002 -->
<g id="species_0000002" class="node"><title>species_0000002</title>
<path fill="none" stroke="black" d="M540,-197C540,-197 492,-197 492,-197 486,-197 480,-191 480,-185 480,-185 480,-173 480,-173 480,-167 486,-161 492,-161 492,-161 540,-161 540,-161 546,-161 552,-167 552,-173 552,-173 552,-185 552,-185 552,-191 546,-197 540,-197"/>
<text text-anchor="middle" x="516" y="-176.5" font-family="Times,serif" font-size="10.00">Cu(II)ZnSOD</text>
</g>
<!-- species_0000002&#45;&gt;reaction_0_intermediate_r -->
<g id="edge6" class="edge"><title>species_0000002&#45;&gt;reaction_0_intermediate_r</title>
<path fill="none" stroke="black" d="M545.061,-160.82C564.287,-148.364 586.56,-133.933 587.933,-133.043"/>
</g>
<!-- reaction_4_intermediate_m -->
<g id="node28" class="node"><title>reaction_4_intermediate_m</title>
<ellipse fill="black" stroke="black" cx="743" cy="-216" rx="0.036" ry="0.036"/>
</g>
<!-- species_0000002&#45;&gt;reaction_4_intermediate_m -->
<g id="edge28" class="edge"><title>species_0000002&#45;&gt;reaction_4_intermediate_m</title>
<path fill="none" stroke="black" d="M552.156,-184.781C614.449,-195.025 738.06,-215.352 741.908,-215.985"/>
</g>
<!-- reaction_11_intermediate_r -->
<g id="node49" class="node"><title>reaction_11_intermediate_r</title>
<ellipse fill="black" stroke="black" cx="589" cy="-158" rx="0.036" ry="0.036"/>
</g>
<!-- species_0000002&#45;&gt;reaction_11_intermediate_r -->
<g id="edge52" class="edge"><title>species_0000002&#45;&gt;reaction_11_intermediate_r</title>
<path fill="none" stroke="black" d="M552.084,-168.623C569.413,-163.498 586.873,-158.333 587.948,-158.015"/>
</g>
<!-- species_0000006 -->
<g id="species_0000006 [CHEBI:16240]" class="node"><title>species_0000006</title>
<ellipse fill="none" stroke="black" cx="516" cy="-245" rx="18" ry="18"/>
<text text-anchor="middle" x="516" y="-242.5" font-family="Times,serif" font-size="10.00">H2O2</text>
</g>
<!-- species_0000006&#45;&gt;reaction_3_intermediate_r -->
<g id="edge20" class="edge"><title>species_0000006&#45;&gt;reaction_3_intermediate_r</title>
<path fill="none" stroke="black" d="M533.467,-249.871C553.786,-255.88 585.915,-265.383 587.903,-265.971"/>
</g>
<!-- reaction_4_intermediate_r -->
<g id="node26" class="node"><title>reaction_4_intermediate_r</title>
<ellipse fill="black" stroke="black" cx="589" cy="-245" rx="0.036" ry="0.036"/>
</g>
<!-- species_0000006&#45;&gt;reaction_4_intermediate_r -->
<g id="edge24" class="edge"><title>species_0000006&#45;&gt;reaction_4_intermediate_r</title>
<path fill="none" stroke="black" d="M534.187,-245C554.543,-245 585.961,-245 587.905,-245"/>
</g>
<!-- reaction_5_intermediate_r -->
<g id="node30" class="node"><title>reaction_5_intermediate_r</title>
<ellipse fill="black" stroke="black" cx="589" cy="-227" rx="0.036" ry="0.036"/>
</g>
<!-- species_0000006&#45;&gt;reaction_5_intermediate_r -->
<g id="edge30" class="edge"><title>species_0000006&#45;&gt;reaction_5_intermediate_r</title>
<path fill="none" stroke="black" d="M533.826,-240.734C554.166,-235.578 585.938,-227.523 587.904,-227.024"/>
</g>
<!-- species_0000007 -->
<g id="species_0000007" class="node"><title>species_0000007</title>
<ellipse fill="none" stroke="black" cx="1281" cy="-206" rx="27" ry="18"/>
<text text-anchor="middle" x="1281" y="-203.5" font-family="Times,serif" font-size="10.00">LOO*</text>
</g>
<!-- species_0000007&#45;&gt;reaction_2_intermediate_r -->
<g id="edge15" class="edge"><title>species_0000007&#45;&gt;reaction_2_intermediate_r</title>
<path fill="none" stroke="black" d="M1299.6,-192.657C1317.36,-179.196 1342.38,-160.229 1343.92,-159.057"/>
</g>
<!-- reaction_13_intermediate_r -->
<g id="node55" class="node"><title>reaction_13_intermediate_r</title>
<ellipse fill="black" stroke="black" cx="1345" cy="-222" rx="0.036" ry="0.036"/>
</g>
<!-- species_0000007&#45;&gt;reaction_13_intermediate_r -->
<g id="edge59" class="edge"><title>species_0000007&#45;&gt;reaction_13_intermediate_r</title>
<path fill="none" stroke="black" d="M1306.5,-212.324C1323.29,-216.656 1342.74,-221.675 1343.94,-221.985"/>
</g>
<!-- reaction_14_intermediate_r -->
<g id="node58" class="node"><title>reaction_14_intermediate_r</title>
<ellipse fill="black" stroke="black" cx="1345" cy="-199" rx="0.036" ry="0.036"/>
</g>
<!-- species_0000007&#45;&gt;reaction_14_intermediate_r -->
<g id="edge64" class="edge"><title>species_0000007&#45;&gt;reaction_14_intermediate_r</title>
<path fill="none" stroke="black" d="M1307.93,-203.072C1324.39,-201.214 1342.81,-199.134 1343.94,-199.006"/>
</g>
<!-- species_0000008 -->
<g id="species_0000008 [CHEBI:29191]" class="node"><title>species_0000008</title>
<ellipse fill="none" stroke="black" cx="824" cy="-248" rx="18" ry="18"/>
<text text-anchor="middle" x="824" y="-245.5" font-family="Times,serif" font-size="10.00">HO*</text>
</g>
<!-- reaction_6_intermediate_r -->
<g id="node34" class="node"><title>reaction_6_intermediate_r</title>
<ellipse fill="black" stroke="black" cx="879" cy="-230" rx="0.036" ry="0.036"/>
</g>
<!-- species_0000008&#45;&gt;reaction_6_intermediate_r -->
<g id="edge35" class="edge"><title>species_0000008&#45;&gt;reaction_6_intermediate_r</title>
<path fill="none" stroke="black" d="M841.19,-242.502C856.289,-237.374 876.679,-230.449 877.939,-230.021"/>
</g>
<!-- reaction_8_intermediate_r -->
<g id="node40" class="node"><title>reaction_8_intermediate_r</title>
<ellipse fill="black" stroke="black" cx="879" cy="-257" rx="0.036" ry="0.036"/>
</g>
<!-- species_0000008&#45;&gt;reaction_8_intermediate_r -->
<g id="edge42" class="edge"><title>species_0000008&#45;&gt;reaction_8_intermediate_r</title>
<path fill="none" stroke="black" d="M842.061,-250.897C857.071,-253.446 876.727,-256.784 877.941,-256.99"/>
</g>
<!-- species_0000009 -->
<g id="species_0000009 [CHEBI:61051]" class="node"><title>species_0000009</title>
<ellipse fill="none" stroke="black" cx="1540" cy="-195" rx="18" ry="18"/>
<text text-anchor="middle" x="1540" y="-192.5" font-family="Times,serif" font-size="10.00">LOOH</text>
</g>
<!-- reaction_9_intermediate_r -->
<g id="node43" class="node"><title>reaction_9_intermediate_r</title>
<ellipse fill="black" stroke="black" cx="1594" cy="-195" rx="0.036" ry="0.036"/>
</g>
<!-- species_0000009&#45;&gt;reaction_9_intermediate_r -->
<g id="edge46" class="edge"><title>species_0000009&#45;&gt;reaction_9_intermediate_r</title>
<path fill="none" stroke="black" d="M1558.03,-195C1572.72,-195 1591.77,-195 1592.94,-195"/>
</g>
<!-- species_0000011 -->
<g id="species_0000011 [CHEBI:18059]" class="node"><title>species_0000011</title>
<ellipse fill="none" stroke="black" cx="1074" cy="-262" rx="18" ry="18"/>
<text text-anchor="middle" x="1074" y="-259.5" font-family="Times,serif" font-size="10.00">L*</text>
</g>
<!-- reaction_12_intermediate_r -->
<g id="node52" class="node"><title>reaction_12_intermediate_r</title>
<ellipse fill="black" stroke="black" cx="1129" cy="-225" rx="0.036" ry="0.036"/>
</g>
<!-- species_0000011&#45;&gt;reaction_12_intermediate_r -->
<g id="edge55" class="edge"><title>species_0000011&#45;&gt;reaction_12_intermediate_r</title>
<path fill="none" stroke="black" d="M1089.2,-252.085C1104.41,-241.467 1126.56,-226.003 1127.93,-225.047"/>
</g>
<!-- species_0000016 -->
<g id="species_0000016" class="node"><title>species_0000016</title>
<path fill="none" stroke="black" d="M44,-287C44,-287 12,-287 12,-287 6,-287 -3.55271e-15,-281 -3.55271e-15,-275 -3.55271e-15,-275 -3.55271e-15,-263 -3.55271e-15,-263 -3.55271e-15,-257 6,-251 12,-251 12,-251 44,-251 44,-251 50,-251 56,-257 56,-263 56,-263 56,-275 56,-275 56,-281 50,-287 44,-287"/>
<text text-anchor="middle" x="28" y="-266.5" font-family="Times,serif" font-size="10.00">SODtotal</text>
</g>
<!-- species_0000017 -->
<g id="species_0000017" class="node"><title>species_0000017</title>
<path fill="none" stroke="black" d="M668,-139C668,-139 638,-139 638,-139 632,-139 626,-133 626,-127 626,-127 626,-115 626,-115 626,-109 632,-103 638,-103 638,-103 668,-103 668,-103 674,-103 680,-109 680,-115 680,-115 680,-127 680,-127 680,-133 674,-139 668,-139"/>
<text text-anchor="middle" x="653" y="-118.5" font-family="Times,serif" font-size="10.00">Cat</text>
</g>
<!-- reaction_5_intermediate_m -->
<g id="node32" class="node"><title>reaction_5_intermediate_m</title>
<ellipse fill="black" stroke="black" cx="743" cy="-136" rx="0.036" ry="0.036"/>
</g>
<!-- species_0000017&#45;&gt;reaction_5_intermediate_m -->
<g id="edge33" class="edge"><title>species_0000017&#45;&gt;reaction_5_intermediate_m</title>
<path fill="none" stroke="black" d="M680.403,-125.5C705.514,-129.781 739.78,-135.622 741.897,-135.982"/>
</g>
<!-- reaction_0000001 -->
<g id="node10" class="node"><title>reaction_0000001</title>
<polygon fill="none" stroke="black" points="106,-222 92,-222 92,-208 106,-208 106,-222"/>
</g>
<!-- reaction_0000001_intermediate_p -->
<g id="node12" class="node"><title>reaction_0000001_intermediate_p</title>
<ellipse fill="black" stroke="black" cx="142" cy="-215" rx="0.036" ry="0.036"/>
</g>
<!-- reaction_0000001&#45;&gt;reaction_0000001_intermediate_p -->
<g id="edge2" class="edge"><title>reaction_0000001&#45;&gt;reaction_0000001_intermediate_p</title>
<path fill="none" stroke="black" d="M106.05,-215C117.098,-215 139.54,-215 140.932,-215"/>
</g>
<!-- reaction_0000001_empty -->
<g id="node11" class="node"><title>reaction_0000001_empty</title>
<text text-anchor="middle" x="28" y="-211.5" font-family="Times,serif" font-size="15.00" fill="blue">Ø</text>
</g>
<!-- reaction_0000001_empty&#45;&gt;reaction_0000001 -->
<g id="edge1" class="edge"><title>reaction_0000001_empty&#45;&gt;reaction_0000001</title>
<path fill="none" stroke="black" d="M55.0859,-215C68.5194,-215 83.7655,-215 91.9824,-215"/>
</g>
<!-- reaction_0000001_intermediate_p&#45;&gt;species_0000001 -->
<g id="edge3" class="edge"><title>reaction_0000001_intermediate_p&#45;&gt;species_0000001</title>
<path fill="none" stroke="black" d="M143.149,-215C144.568,-215 155.891,-215 167.595,-215"/>
<polygon fill="black" stroke="black" points="167.739,-218.5 177.739,-215 167.739,-211.5 167.739,-218.5"/>
</g>
<!-- reaction_0 -->
<g id="node13" class="node"><title>reaction_0</title>
<polygon fill="none" stroke="black" points="660,-53 646,-53 646,-39 660,-39 660,-53"/>
</g>
<!-- reaction_0_empty -->
<g id="node15" class="node"><title>reaction_0_empty</title>
<text text-anchor="middle" x="743" y="-42.5" font-family="Times,serif" font-size="15.00" fill="blue">Ø</text>
</g>
<!-- reaction_0&#45;&gt;reaction_0_empty -->
<g id="edge7" class="edge"><title>reaction_0&#45;&gt;reaction_0_empty</title>
<path fill="none" stroke="black" d="M660.049,-46C669.439,-46 688.239,-46 705.466,-46"/>
<polygon fill="black" stroke="black" points="705.891,-49.5001 715.891,-46 705.891,-42.5001 705.891,-49.5001"/>
</g>
<!-- reaction_0_intermediate_r&#45;&gt;reaction_0 -->
<g id="edge4" class="edge"><title>reaction_0_intermediate_r&#45;&gt;reaction_0</title>
<path fill="none" stroke="black" d="M590.035,-132.87C590.764,-130.208 602.783,-87.2133 626,-62 631.601,-55.9177 640.03,-51.3068 645.761,-48.6326"/>
</g>
<!-- reaction_1 -->
<g id="node16" class="node"><title>reaction_1</title>
<polygon fill="none" stroke="black" points="354,-222 340,-222 340,-208 354,-208 354,-222"/>
</g>
<!-- reaction_1_intermediate_p -->
<g id="node18" class="node"><title>reaction_1_intermediate_p</title>
<ellipse fill="black" stroke="black" cx="417" cy="-215" rx="0.036" ry="0.036"/>
</g>
<!-- reaction_1&#45;&gt;reaction_1_intermediate_p -->
<g id="edge10" class="edge"><title>reaction_1&#45;&gt;reaction_1_intermediate_p</title>
<path fill="none" stroke="black" d="M354.275,-215C370.583,-215 413.222,-215 415.871,-215"/>
</g>
<!-- reaction_1_intermediate_r&#45;&gt;reaction_1 -->
<g id="edge8" class="edge"><title>reaction_1_intermediate_r&#45;&gt;reaction_1</title>
<path fill="none" stroke="black" d="M278.049,-215C279.722,-215 323.535,-215 339.906,-215"/>
</g>
<!-- reaction_1_intermediate_p&#45;&gt;species_0000006 -->
<g id="edge11" class="edge"><title>reaction_1_intermediate_p&#45;&gt;species_0000006</title>
<path fill="none" stroke="black" d="M418.07,-215.022C419.991,-215.616 460.865,-228.257 488.915,-236.932"/>
<polygon fill="black" stroke="black" points="487.985,-240.308 498.573,-239.919 490.053,-233.621 487.985,-240.308"/>
</g>
<!-- reaction_1_intermediate_p&#45;&gt;species_0000002 -->
<g id="edge12" class="edge"><title>reaction_1_intermediate_p&#45;&gt;species_0000002</title>
<path fill="none" stroke="black" d="M418.07,-214.974C419.59,-214.41 445.473,-204.804 470.108,-195.661"/>
<polygon fill="black" stroke="black" points="471.635,-198.828 479.792,-192.067 469.199,-192.265 471.635,-198.828"/>
</g>
<!-- reaction_2 -->
<g id="node19" class="node"><title>reaction_2</title>
<polygon fill="none" stroke="black" points="1396,-166 1382,-166 1382,-152 1396,-152 1396,-166"/>
</g>
<!-- reaction_2_intermediate_p -->
<g id="node21" class="node"><title>reaction_2_intermediate_p</title>
<ellipse fill="black" stroke="black" cx="1459" cy="-159" rx="0.036" ry="0.036"/>
</g>
<!-- reaction_2&#45;&gt;reaction_2_intermediate_p -->
<g id="edge16" class="edge"><title>reaction_2&#45;&gt;reaction_2_intermediate_p</title>
<path fill="none" stroke="black" d="M1396.28,-159C1412.58,-159 1455.22,-159 1457.87,-159"/>
</g>
<!-- reaction_2_intermediate_r&#45;&gt;reaction_2 -->
<g id="edge13" class="edge"><title>reaction_2_intermediate_r&#45;&gt;reaction_2</title>
<path fill="none" stroke="black" d="M1346.12,-159C1347.97,-159 1370.6,-159 1381.8,-159"/>
</g>
<!-- reaction_2_intermediate_p&#45;&gt;species_0000009 -->
<g id="edge17" class="edge"><title>reaction_2_intermediate_p&#45;&gt;species_0000009</title>
<path fill="none" stroke="black" d="M1460.17,-159.048C1461.83,-159.529 1475.45,-163.512 1486,-168 1495.63,-172.097 1505.94,-177.181 1514.89,-181.829"/>
<polygon fill="black" stroke="black" points="1513.48,-185.047 1523.96,-186.634 1516.76,-178.861 1513.48,-185.047"/>
</g>
<!-- reaction_3 -->
<g id="node22" class="node"><title>reaction_3</title>
<polygon fill="none" stroke="black" points="660,-273 646,-273 646,-259 660,-259 660,-273"/>
</g>
<!-- reaction_3_intermediate_p -->
<g id="node24" class="node"><title>reaction_3_intermediate_p</title>
<ellipse fill="black" stroke="black" cx="743" cy="-263" rx="0.036" ry="0.036"/>
</g>
<!-- reaction_3&#45;&gt;reaction_3_intermediate_p -->
<g id="edge21" class="edge"><title>reaction_3&#45;&gt;reaction_3_intermediate_p</title>
<path fill="none" stroke="black" d="M660.049,-265.794C679.62,-265.127 740.071,-263.066 741.955,-263.002"/>
</g>
<!-- reaction_3_intermediate_r&#45;&gt;reaction_3 -->
<g id="edge18" class="edge"><title>reaction_3_intermediate_r&#45;&gt;reaction_3</title>
<path fill="none" stroke="black" d="M590.045,-266C591.541,-266 629.995,-266 645.555,-266"/>
</g>
<!-- reaction_3_intermediate_p&#45;&gt;species_0000008 -->
<g id="edge22" class="edge"><title>reaction_3_intermediate_p&#45;&gt;species_0000008</title>
<path fill="none" stroke="black" d="M744.057,-262.989C745.493,-262.716 773.648,-257.371 795.929,-253.14"/>
<polygon fill="black" stroke="black" points="796.772,-256.543 805.943,-251.239 795.466,-249.666 796.772,-256.543"/>
</g>
<!-- reaction_4 -->
<g id="node25" class="node"><title>reaction_4</title>
<polygon fill="none" stroke="black" points="660,-241 646,-241 646,-227 660,-227 660,-241"/>
</g>
<!-- reaction_4_intermediate_p -->
<g id="node27" class="node"><title>reaction_4_intermediate_p</title>
<ellipse fill="black" stroke="black" cx="743" cy="-241" rx="0.036" ry="0.036"/>
</g>
<!-- reaction_4&#45;&gt;reaction_4_intermediate_p -->
<g id="edge25" class="edge"><title>reaction_4&#45;&gt;reaction_4_intermediate_p</title>
<path fill="none" stroke="black" d="M660.049,-234.481C679.62,-236.038 740.071,-240.847 741.955,-240.996"/>
</g>
<!-- reaction_4&#45;&gt;reaction_4_intermediate_m -->
<g id="edge27" class="edge"><title>reaction_4&#45;&gt;reaction_4_intermediate_m</title>
<path fill="none" stroke="black" d="M660.049,-232.763C679.62,-228.76 740.071,-216.395 741.955,-216.009"/>
</g>
<!-- reaction_4_intermediate_r&#45;&gt;reaction_4 -->
<g id="edge23" class="edge"><title>reaction_4_intermediate_r&#45;&gt;reaction_4</title>
<path fill="none" stroke="black" d="M590.045,-244.992C591.541,-244.727 629.995,-237.904 645.555,-235.143"/>
</g>
<!-- reaction_4_intermediate_p&#45;&gt;species_0000008 -->
<g id="edge26" class="edge"><title>reaction_4_intermediate_p&#45;&gt;species_0000008</title>
<path fill="none" stroke="black" d="M744.057,-241.005C745.493,-241.132 773.648,-243.627 795.929,-245.601"/>
<polygon fill="black" stroke="black" points="795.673,-249.092 805.943,-246.489 796.291,-242.12 795.673,-249.092"/>
</g>
<!-- reaction_5 -->
<g id="node29" class="node"><title>reaction_5</title>
<polygon fill="none" stroke="black" points="660,-171 646,-171 646,-157 660,-157 660,-171"/>
</g>
<!-- reaction_5_empty -->
<g id="node31" class="node"><title>reaction_5_empty</title>
<text text-anchor="middle" x="743" y="-168.5" font-family="Times,serif" font-size="15.00" fill="blue">Ø</text>
</g>
<!-- reaction_5&#45;&gt;reaction_5_empty -->
<g id="edge31" class="edge"><title>reaction_5&#45;&gt;reaction_5_empty</title>
<path fill="none" stroke="black" d="M660.049,-164.55C669.439,-165.404 688.239,-167.113 705.466,-168.679"/>
<polygon fill="black" stroke="black" points="705.615,-172.207 715.891,-169.626 706.249,-165.235 705.615,-172.207"/>
</g>
<!-- reaction_5&#45;&gt;reaction_5_intermediate_m -->
<g id="edge32" class="edge"><title>reaction_5&#45;&gt;reaction_5_intermediate_m</title>
<path fill="none" stroke="black" d="M660.049,-162.075C679.62,-155.848 740.071,-136.614 741.955,-136.014"/>
</g>
<!-- reaction_5_intermediate_r&#45;&gt;reaction_5 -->
<g id="edge29" class="edge"><title>reaction_5_intermediate_r&#45;&gt;reaction_5</title>
<path fill="none" stroke="black" d="M590.045,-226.954C591.541,-225.434 629.995,-186.36 645.555,-170.549"/>
</g>
<!-- reaction_6 -->
<g id="node33" class="node"><title>reaction_6</title>
<polygon fill="none" stroke="black" points="930,-234 916,-234 916,-220 930,-220 930,-234"/>
</g>
<!-- reaction_6_empty -->
<g id="node35" class="node"><title>reaction_6_empty</title>
<text text-anchor="middle" x="993" y="-222.5" font-family="Times,serif" font-size="15.00" fill="blue">Ø</text>
</g>
<!-- reaction_6&#45;&gt;reaction_6_empty -->
<g id="edge36" class="edge"><title>reaction_6&#45;&gt;reaction_6_empty</title>
<path fill="none" stroke="black" d="M930.275,-226.908C936.278,-226.819 945.849,-226.679 955.68,-226.534"/>
<polygon fill="black" stroke="black" points="955.932,-230.031 965.88,-226.384 955.829,-223.032 955.932,-230.031"/>
</g>
<!-- reaction_6_intermediate_r&#45;&gt;reaction_6 -->
<g id="edge34" class="edge"><title>reaction_6_intermediate_r&#45;&gt;reaction_6</title>
<path fill="none" stroke="black" d="M880.12,-229.991C881.968,-229.859 904.602,-228.243 915.803,-227.443"/>
</g>
<!-- reaction_7 -->
<g id="node36" class="node"><title>reaction_7</title>
<polygon fill="none" stroke="black" points="354,-258 340,-258 340,-244 354,-244 354,-258"/>
</g>
<!-- reaction_7_intermediate_p -->
<g id="node38" class="node"><title>reaction_7_intermediate_p</title>
<ellipse fill="black" stroke="black" cx="417" cy="-251" rx="0.036" ry="0.036"/>
</g>
<!-- reaction_7&#45;&gt;reaction_7_intermediate_p -->
<g id="edge38" class="edge"><title>reaction_7&#45;&gt;reaction_7_intermediate_p</title>
<path fill="none" stroke="black" d="M354.275,-251C370.583,-251 413.222,-251 415.871,-251"/>
</g>
<!-- reaction_7_empty -->
<g id="node37" class="node"><title>reaction_7_empty</title>
<text text-anchor="middle" x="277" y="-247.5" font-family="Times,serif" font-size="15.00" fill="blue">Ø</text>
</g>
<!-- reaction_7_empty&#45;&gt;reaction_7 -->
<g id="edge37" class="edge"><title>reaction_7_empty&#45;&gt;reaction_7</title>
<path fill="none" stroke="black" d="M304.096,-251C317.13,-251 331.805,-251 339.868,-251"/>
</g>
<!-- reaction_7_intermediate_p&#45;&gt;species_0000011 -->
<g id="edge39" class="edge"><title>reaction_7_intermediate_p&#45;&gt;species_0000011</title>
<path fill="none" stroke="black" d="M418.138,-251.048C420.972,-252.036 466.514,-267.91 480,-272 527.561,-286.424 538.3,-301 588,-301 588,-301 588,-301 924,-301 968.729,-301 1018.62,-284.348 1047.83,-272.806"/>
<polygon fill="black" stroke="black" points="1049.31,-275.982 1057.26,-268.972 1046.68,-269.497 1049.31,-275.982"/>
</g>
<!-- reaction_7_intermediate_p&#45;&gt;species_0000006 -->
<g id="edge40" class="edge"><title>reaction_7_intermediate_p&#45;&gt;species_0000006</title>
<path fill="none" stroke="black" d="M418.07,-250.996C419.963,-250.879 459.649,-248.424 487.646,-246.692"/>
<polygon fill="black" stroke="black" points="487.935,-250.181 497.7,-246.07 487.503,-243.194 487.935,-250.181"/>
</g>
<!-- reaction_8 -->
<g id="node39" class="node"><title>reaction_8</title>
<polygon fill="none" stroke="black" points="930,-267 916,-267 916,-253 930,-253 930,-267"/>
</g>
<!-- reaction_8_intermediate_p -->
<g id="node41" class="node"><title>reaction_8_intermediate_p</title>
<ellipse fill="black" stroke="black" cx="993" cy="-262" rx="0.036" ry="0.036"/>
</g>
<!-- reaction_8&#45;&gt;reaction_8_intermediate_p -->
<g id="edge43" class="edge"><title>reaction_8&#45;&gt;reaction_8_intermediate_p</title>
<path fill="none" stroke="black" d="M930.275,-260.185C946.583,-260.664 989.222,-261.918 991.871,-261.996"/>
</g>
<!-- reaction_8_intermediate_r&#45;&gt;reaction_8 -->
<g id="edge41" class="edge"><title>reaction_8_intermediate_r&#45;&gt;reaction_8</title>
<path fill="none" stroke="black" d="M880.12,-257.009C881.968,-257.141 904.602,-258.757 915.803,-259.557"/>
</g>
<!-- reaction_8_intermediate_p&#45;&gt;species_0000011 -->
<g id="edge44" class="edge"><title>reaction_8_intermediate_p&#45;&gt;species_0000011</title>
<path fill="none" stroke="black" d="M994.057,-262C995.493,-262 1023.65,-262 1045.93,-262"/>
<polygon fill="black" stroke="black" points="1045.94,-265.5 1055.94,-262 1045.94,-258.5 1045.94,-265.5"/>
</g>
<!-- reaction_9 -->
<g id="node42" class="node"><title>reaction_9</title>
<polygon fill="none" stroke="black" points="1644,-202 1630,-202 1630,-188 1644,-188 1644,-202"/>
</g>
<!-- reaction_9_empty -->
<g id="node44" class="node"><title>reaction_9_empty</title>
<text text-anchor="middle" x="1707" y="-191.5" font-family="Times,serif" font-size="15.00" fill="blue">Ø</text>
</g>
<!-- reaction_9&#45;&gt;reaction_9_empty -->
<g id="edge47" class="edge"><title>reaction_9&#45;&gt;reaction_9_empty</title>
<path fill="none" stroke="black" d="M1644.28,-195C1650.28,-195 1659.85,-195 1669.68,-195"/>
<polygon fill="black" stroke="black" points="1669.88,-198.5 1679.88,-195 1669.88,-191.5 1669.88,-198.5"/>
</g>
<!-- reaction_9_intermediate_r&#45;&gt;reaction_9 -->
<g id="edge45" class="edge"><title>reaction_9_intermediate_r&#45;&gt;reaction_9</title>
<path fill="none" stroke="black" d="M1595.12,-195C1596.92,-195 1619.02,-195 1629.95,-195"/>
</g>
<!-- reaction_10 -->
<g id="node45" class="node"><title>reaction_10</title>
<polygon fill="none" stroke="black" points="354,-186 340,-186 340,-172 354,-172 354,-186"/>
</g>
<!-- reaction_10_intermediate_p -->
<g id="node47" class="node"><title>reaction_10_intermediate_p</title>
<ellipse fill="black" stroke="black" cx="417" cy="-179" rx="0.036" ry="0.036"/>
</g>
<!-- reaction_10&#45;&gt;reaction_10_intermediate_p -->
<g id="edge49" class="edge"><title>reaction_10&#45;&gt;reaction_10_intermediate_p</title>
<path fill="none" stroke="black" d="M354.275,-179C370.583,-179 413.222,-179 415.871,-179"/>
</g>
<!-- reaction_10_empty -->
<g id="node46" class="node"><title>reaction_10_empty</title>
<text text-anchor="middle" x="277" y="-175.5" font-family="Times,serif" font-size="15.00" fill="blue">Ø</text>
</g>
<!-- reaction_10_empty&#45;&gt;reaction_10 -->
<g id="edge48" class="edge"><title>reaction_10_empty&#45;&gt;reaction_10</title>
<path fill="none" stroke="black" d="M304.096,-179C317.13,-179 331.805,-179 339.868,-179"/>
</g>
<!-- reaction_10_intermediate_p&#45;&gt;species_0000002 -->
<g id="edge50" class="edge"><title>reaction_10_intermediate_p&#45;&gt;species_0000002</title>
<path fill="none" stroke="black" d="M418.07,-179C419.583,-179 445.244,-179 469.781,-179"/>
<polygon fill="black" stroke="black" points="469.792,-182.5 479.792,-179 469.792,-175.5 469.792,-182.5"/>
</g>
<!-- reaction_11 -->
<g id="node48" class="node"><title>reaction_11</title>
<polygon fill="none" stroke="black" points="660,-85 646,-85 646,-71 660,-71 660,-85"/>
</g>
<!-- reaction_11_empty -->
<g id="node50" class="node"><title>reaction_11_empty</title>
<text text-anchor="middle" x="743" y="-96.5" font-family="Times,serif" font-size="15.00" fill="blue">Ø</text>
</g>
<!-- reaction_11&#45;&gt;reaction_11_empty -->
<g id="edge53" class="edge"><title>reaction_11&#45;&gt;reaction_11_empty</title>
<path fill="none" stroke="black" d="M660.049,-79.5121C669.527,-81.8818 688.594,-86.6486 705.953,-90.9883"/>
<polygon fill="black" stroke="black" points="705.341,-94.4428 715.891,-93.4728 707.039,-87.6518 705.341,-94.4428"/>
</g>
<!-- reaction_11_intermediate_r&#45;&gt;reaction_11 -->
<g id="edge51" class="edge"><title>reaction_11_intermediate_r&#45;&gt;reaction_11</title>
<path fill="none" stroke="black" d="M590.039,-157.883C590.845,-155.487 604.087,-116.79 626,-94 631.731,-88.0399 640.132,-83.4022 645.821,-80.6885"/>
</g>
<!-- reaction_12 -->
<g id="node51" class="node"><title>reaction_12</title>
<polygon fill="none" stroke="black" points="1180,-219 1166,-219 1166,-205 1180,-205 1180,-219"/>
</g>
<!-- reaction_12_intermediate_p -->
<g id="node53" class="node"><title>reaction_12_intermediate_p</title>
<ellipse fill="black" stroke="black" cx="1217" cy="-208" rx="0.036" ry="0.036"/>
</g>
<!-- reaction_12&#45;&gt;reaction_12_intermediate_p -->
<g id="edge56" class="edge"><title>reaction_12&#45;&gt;reaction_12_intermediate_p</title>
<path fill="none" stroke="black" d="M1180.2,-211.41C1191.52,-210.332 1214.5,-208.142 1215.93,-208.007"/>
</g>
<!-- reaction_12_intermediate_r&#45;&gt;reaction_12 -->
<g id="edge54" class="edge"><title>reaction_12_intermediate_r&#45;&gt;reaction_12</title>
<path fill="none" stroke="black" d="M1130.12,-224.963C1131.97,-224.391 1154.6,-217.385 1165.8,-213.918"/>
</g>
<!-- reaction_12_intermediate_p&#45;&gt;species_0000007 -->
<g id="edge57" class="edge"><title>reaction_12_intermediate_p&#45;&gt;species_0000007</title>
<path fill="none" stroke="black" d="M1218.04,-207.999C1218.86,-207.972 1230.73,-207.589 1243.87,-207.165"/>
<polygon fill="black" stroke="black" points="1244.12,-210.659 1254,-206.839 1243.89,-203.663 1244.12,-210.659"/>
</g>
<!-- reaction_13 -->
<g id="node54" class="node"><title>reaction_13</title>
<polygon fill="none" stroke="black" points="1396,-234 1382,-234 1382,-220 1396,-220 1396,-234"/>
</g>
<!-- reaction_13_intermediate_p -->
<g id="node56" class="node"><title>reaction_13_intermediate_p</title>
<ellipse fill="black" stroke="black" cx="1459" cy="-231" rx="0.036" ry="0.036"/>
</g>
<!-- reaction_13&#45;&gt;reaction_13_intermediate_p -->
<g id="edge60" class="edge"><title>reaction_13&#45;&gt;reaction_13_intermediate_p</title>
<path fill="none" stroke="black" d="M1396.28,-227.369C1412.58,-228.328 1455.22,-230.837 1457.87,-230.992"/>
</g>
<!-- reaction_13_intermediate_r&#45;&gt;reaction_13 -->
<g id="edge58" class="edge"><title>reaction_13_intermediate_r&#45;&gt;reaction_13</title>
<path fill="none" stroke="black" d="M1346.12,-222.014C1347.97,-222.234 1370.6,-224.929 1381.8,-226.262"/>
</g>
<!-- reaction_13_intermediate_p&#45;&gt;species_0000011 -->
<g id="edge61" class="edge"><title>reaction_13_intermediate_p&#45;&gt;species_0000011</title>
<path fill="none" stroke="black" d="M1457.96,-231.022C1456.12,-231.961 1396.84,-262 1346,-262 1172,-262 1172,-262 1172,-262 1148.52,-262 1121.85,-262 1102.42,-262"/>
<polygon fill="black" stroke="black" points="1102.17,-258.5 1092.17,-262 1102.17,-265.5 1102.17,-258.5"/>
</g>
<!-- reaction_13_intermediate_p&#45;&gt;species_0000009 -->
<g id="edge62" class="edge"><title>reaction_13_intermediate_p&#45;&gt;species_0000009</title>
<path fill="none" stroke="black" d="M1460.17,-230.952C1461.83,-230.471 1475.45,-226.488 1486,-222 1495.63,-217.903 1505.94,-212.819 1514.89,-208.171"/>
<polygon fill="black" stroke="black" points="1516.76,-211.139 1523.96,-203.366 1513.48,-204.953 1516.76,-211.139"/>
</g>
<!-- reaction_14 -->
<g id="node57" class="node"><title>reaction_14</title>
<polygon fill="none" stroke="black" points="1396,-202 1382,-202 1382,-188 1396,-188 1396,-202"/>
</g>
<!-- reaction_14_empty -->
<g id="node59" class="node"><title>reaction_14_empty</title>
<text text-anchor="middle" x="1459" y="-191.5" font-family="Times,serif" font-size="15.00" fill="blue">Ø</text>
</g>
<!-- reaction_14&#45;&gt;reaction_14_empty -->
<g id="edge65" class="edge"><title>reaction_14&#45;&gt;reaction_14_empty</title>
<path fill="none" stroke="black" d="M1396.28,-195C1402.28,-195 1411.85,-195 1421.68,-195"/>
<polygon fill="black" stroke="black" points="1421.88,-198.5 1431.88,-195 1421.88,-191.5 1421.88,-198.5"/>
</g>
<!-- reaction_14_intermediate_r&#45;&gt;reaction_14 -->
<g id="edge63" class="edge"><title>reaction_14_intermediate_r&#45;&gt;reaction_14</title>
<path fill="none" stroke="black" d="M1346.12,-198.989C1347.97,-198.813 1370.6,-196.657 1381.8,-195.59"/>
</g>
<!-- fast -->
<g id="node60" class="node"><title>fast</title>
<polygon fill="none" stroke="black" points="354,-294 340,-294 340,-280 354,-280 354,-294"/>
</g>
<!-- fast_empty -->
<g id="node62" class="node"><title>fast_empty</title>
<text text-anchor="middle" x="417" y="-283.5" font-family="Times,serif" font-size="15.00" fill="blue">Ø</text>
</g>
<!-- fast&#45;&gt;fast_empty -->
<g id="edge68" class="edge"><title>fast&#45;&gt;fast_empty</title>
<path fill="none" stroke="black" d="M354.275,-287C360.278,-287 369.849,-287 379.68,-287"/>
<polygon fill="black" stroke="black" points="379.88,-290.5 389.88,-287 379.88,-283.5 379.88,-290.5"/>
</g>
<!-- fast_intermediate_r&#45;&gt;fast -->
<g id="edge66" class="edge"><title>fast_intermediate_r&#45;&gt;fast</title>
<path fill="none" stroke="black" d="M278.049,-287C279.722,-287 323.535,-287 339.906,-287"/>
</g>
</g>
</svg>
