<?xml version="1.0" encoding="UTF-8" standalone="no"?>
<!DOCTYPE svg PUBLIC "-//W3C//DTD SVG 1.1//EN"
 "http://www.w3.org/Graphics/SVG/1.1/DTD/svg11.dtd">
<!-- Generated by graphviz version 2.24.0 (20090616.2323)
 -->
<!-- Title: G Pages: 1 -->
<svg width="398pt" height="98pt"
 viewBox="0.00 0.00 398.00 98.00" xmlns="http://www.w3.org/2000/svg" xmlns:xlink="http://www.w3.org/1999/xlink">
<g id="graph1" class="graph" transform="scale(1 1) rotate(0) translate(4 94)">
<title>G</title>
<polygon fill="white" stroke="white" points="-4,5 -4,-94 395,-94 395,5 -4,5"/>
<!-- c -->
<g id="node1" class="node"><title>c</title>
<ellipse fill="none" stroke="black" cx="283" cy="-18" rx="107.112" ry="18"/>
<text text-anchor="middle" x="283" y="-15.5" font-family="Times Roman,serif" font-size="10.00">cytosolic free ca concentration</text>
</g>
<!-- cer -->
<g id="node2" class="node"><title>cer</title>
<ellipse fill="none" stroke="black" cx="283" cy="-72" rx="73.8704" ry="18"/>
<text text-anchor="middle" x="283" y="-69.5" font-family="Times Roman,serif" font-size="10.00">ER ca concentration</text>
</g>
<!-- reaction_0000005 -->
<g id="node3" class="node"><title>reaction_0000005</title>
<polygon fill="none" stroke="black" points="104,-25 90,-25 90,-11 104,-11 104,-25"/>
</g>
<!-- reaction_0000005_intermediate_p -->
<g id="node6" class="node"><title>reaction_0000005_intermediate_p</title>
<ellipse fill="black" stroke="black" cx="140" cy="-18" rx="0.036" ry="0.036"/>
</g>
<!-- reaction_0000005&#45;&gt;reaction_0000005_intermediate_p -->
<g id="edge4" class="edge"><title>reaction_0000005&#45;&gt;reaction_0000005_intermediate_p</title>
<path fill="none" stroke="black" d="M104.101,-18C115.932,-18 138.531,-18 139.932,-18"/>
</g>
<!-- reaction_0000005_empty -->
<g id="node4" class="node"><title>reaction_0000005_empty</title>
<text text-anchor="middle" x="27" y="-13.5" font-family="Times Roman,serif" font-size="15.00" fill="blue">Ø</text>
</g>
<!-- reaction_0000005_empty&#45;&gt;reaction_0000005 -->
<g id="edge2" class="edge"><title>reaction_0000005_empty&#45;&gt;reaction_0000005</title>
<path fill="none" stroke="black" d="M54.2643,-18C67.1627,-18 81.5367,-18 89.8947,-18"/>
</g>
<!-- reaction_0000005_intermediate_p&#45;&gt;c -->
<g id="edge6" class="edge"><title>reaction_0000005_intermediate_p&#45;&gt;c</title>
<path fill="none" stroke="black" d="M140.104,-18C141.228,-18 151.395,-18 165.835,-18"/>
<polygon fill="black" stroke="black" points="165.889,-21.5001 175.889,-18 165.889,-14.5001 165.889,-21.5001"/>
</g>
<!-- reaction_0000006 -->
<g id="node9" class="node"><title>reaction_0000006</title>
<polygon fill="none" stroke="black" points="104,-79 90,-79 90,-65 104,-65 104,-79"/>
</g>
<!-- reaction_0000006_intermediate_p -->
<g id="node12" class="node"><title>reaction_0000006_intermediate_p</title>
<ellipse fill="black" stroke="black" cx="140" cy="-72" rx="0.036" ry="0.036"/>
</g>
<!-- reaction_0000006&#45;&gt;reaction_0000006_intermediate_p -->
<g id="edge10" class="edge"><title>reaction_0000006&#45;&gt;reaction_0000006_intermediate_p</title>
<path fill="none" stroke="black" d="M104.101,-72C115.932,-72 138.531,-72 139.932,-72"/>
</g>
<!-- reaction_0000006_empty -->
<g id="node10" class="node"><title>reaction_0000006_empty</title>
<text text-anchor="middle" x="27" y="-67.5" font-family="Times Roman,serif" font-size="15.00" fill="blue">Ø</text>
</g>
<!-- reaction_0000006_empty&#45;&gt;reaction_0000006 -->
<g id="edge8" class="edge"><title>reaction_0000006_empty&#45;&gt;reaction_0000006</title>
<path fill="none" stroke="black" d="M54.2643,-72C67.1627,-72 81.5367,-72 89.8947,-72"/>
</g>
<!-- reaction_0000006_intermediate_p&#45;&gt;cer -->
<g id="edge12" class="edge"><title>reaction_0000006_intermediate_p&#45;&gt;cer</title>
<path fill="none" stroke="black" d="M140.104,-72C141.965,-72 168.637,-72 198.443,-72"/>
<polygon fill="black" stroke="black" points="198.64,-75.5001 208.64,-72 198.64,-68.5001 198.64,-75.5001"/>
</g>
</g>
</svg>
