<?xml version="1.0" encoding="UTF-8" standalone="no"?>
<!DOCTYPE svg PUBLIC "-//W3C//DTD SVG 1.1//EN"
 "http://www.w3.org/Graphics/SVG/1.1/DTD/svg11.dtd">
<!-- Generated by graphviz version 2.24.0 (20090616.2323)
 -->
<!-- Title: G Pages: 1 -->
<svg width="652pt" height="136pt"
 viewBox="0.00 0.00 652.00 136.00" xmlns="http://www.w3.org/2000/svg" xmlns:xlink="http://www.w3.org/1999/xlink">
<g id="graph1" class="graph" transform="scale(1 1) rotate(0) translate(4 132)">
<title>G</title>
<polygon fill="white" stroke="white" points="-4,5 -4,-132 649,-132 649,5 -4,5"/>
<!-- R -->
<g id="node1" class="node"><title>R</title>
<ellipse fill="none" stroke="black" cx="288" cy="-110" rx="18" ry="18"/>
<text text-anchor="middle" x="288" y="-107.5" font-family="Times Roman,serif" font-size="10.00">R</text>
</g>
<!-- r2_intermediate_r -->
<g id="node14" class="node"><title>r2_intermediate_r</title>
<ellipse fill="black" stroke="black" cx="342" cy="-108" rx="0.036" ry="0.036"/>
</g>
<!-- R&#45;&gt;r2_intermediate_r -->
<g id="edge14" class="edge"><title>R&#45;&gt;r2_intermediate_r</title>
<path fill="none" stroke="black" d="M306.282,-109.323C321.458,-108.761 340.751,-108.046 341.942,-108.002"/>
</g>
<!-- X -->
<g id="node2" class="node"><title>X</title>
<ellipse fill="none" stroke="black" cx="396" cy="-42" rx="18" ry="18"/>
<text text-anchor="middle" x="396" y="-39.5" font-family="Times Roman,serif" font-size="10.00">X</text>
</g>
<!-- r2_intermediate_m -->
<g id="node19" class="node"><title>r2_intermediate_m</title>
<ellipse fill="black" stroke="black" cx="477" cy="-62" rx="0.036" ry="0.036"/>
</g>
<!-- X&#45;&gt;r2_intermediate_m -->
<g id="edge20" class="edge"><title>X&#45;&gt;r2_intermediate_m</title>
<path fill="none" stroke="black" d="M413.576,-46.3397C436.654,-52.038 474.54,-61.3927 476.886,-61.9718"/>
</g>
<!-- r4_intermediate_r -->
<g id="node32" class="node"><title>r4_intermediate_r</title>
<ellipse fill="black" stroke="black" cx="477" cy="-42" rx="0.036" ry="0.036"/>
</g>
<!-- X&#45;&gt;r4_intermediate_r -->
<g id="edge34" class="edge"><title>X&#45;&gt;r4_intermediate_r</title>
<path fill="none" stroke="black" d="M414.38,-42C437.532,-42 474.594,-42 476.888,-42"/>
</g>
<!-- S -->
<g id="node3" class="node"><title>S</title>
<ellipse fill="none" stroke="black" cx="117" cy="-65" rx="27" ry="18"/>
<text text-anchor="middle" x="117" y="-62.5" font-family="Times Roman,serif" font-size="10.00">S</text>
</g>
<!-- r1_intermediate_m -->
<g id="node10" class="node"><title>r1_intermediate_m</title>
<ellipse fill="black" stroke="black" cx="207" cy="-92" rx="0.036" ry="0.036"/>
</g>
<!-- S&#45;&gt;r1_intermediate_m -->
<g id="edge10" class="edge"><title>S&#45;&gt;r1_intermediate_m</title>
<path fill="none" stroke="black" d="M142.07,-72.521C167.868,-80.2604 204.618,-91.2853 206.889,-91.9668"/>
</g>
<!-- r3_intermediate_m -->
<g id="node28" class="node"><title>r3_intermediate_m</title>
<ellipse fill="black" stroke="black" cx="342" cy="-60" rx="0.036" ry="0.036"/>
</g>
<!-- S&#45;&gt;r3_intermediate_m -->
<g id="edge30" class="edge"><title>S&#45;&gt;r3_intermediate_m</title>
<path fill="none" stroke="black" d="M144.14,-64.3969C203.048,-63.0878 337.706,-60.0954 341.9,-60.0022"/>
</g>
<!-- r1 -->
<g id="node4" class="node"><title>r1</title>
<polygon fill="none" stroke="black" points="124,-116 110,-116 110,-102 124,-102 124,-116"/>
</g>
<!-- r1_intermediate_p -->
<g id="node7" class="node"><title>r1_intermediate_p</title>
<ellipse fill="black" stroke="black" cx="207" cy="-110" rx="0.036" ry="0.036"/>
</g>
<!-- r1&#45;&gt;r1_intermediate_p -->
<g id="edge4" class="edge"><title>r1&#45;&gt;r1_intermediate_p</title>
<path fill="none" stroke="black" d="M124.062,-109.078C144.947,-109.311 205.081,-109.979 206.955,-110"/>
</g>
<!-- r1&#45;&gt;r1_intermediate_m -->
<g id="edge8" class="edge"><title>r1&#45;&gt;r1_intermediate_m</title>
<path fill="none" stroke="black" d="M135.995,-105.412C161.917,-100.516 205.367,-92.3085 206.955,-92.0085"/>
<polygon fill="none" stroke="black" points="135.854,-105.439 130.7,-110.483 124.062,-107.666 129.215,-102.622 135.854,-105.439"/>
</g>
<!-- r1_empty -->
<g id="node5" class="node"><title>r1_empty</title>
<text text-anchor="middle" x="27" y="-104.5" font-family="Times Roman,serif" font-size="15.00" fill="blue">Ø</text>
</g>
<!-- r1_empty&#45;&gt;r1 -->
<g id="edge2" class="edge"><title>r1_empty&#45;&gt;r1</title>
<path fill="none" stroke="black" d="M54.003,-109C73.2642,-109 97.7921,-109 109.766,-109"/>
</g>
<!-- r1_intermediate_p&#45;&gt;R -->
<g id="edge6" class="edge"><title>r1_intermediate_p&#45;&gt;R</title>
<path fill="none" stroke="black" d="M207.059,-110C208.514,-110 236.754,-110 259.471,-110"/>
<polygon fill="black" stroke="black" points="259.721,-113.5 269.721,-110 259.721,-106.5 259.721,-113.5"/>
</g>
<!-- r2 -->
<g id="node13" class="node"><title>r2</title>
<polygon fill="none" stroke="black" points="403,-106 389,-106 389,-92 403,-92 403,-106"/>
</g>
<!-- r2_empty -->
<g id="node17" class="node"><title>r2_empty</title>
<text text-anchor="middle" x="477" y="-94.5" font-family="Times Roman,serif" font-size="15.00" fill="blue">Ø</text>
</g>
<!-- r2&#45;&gt;r2_empty -->
<g id="edge16" class="edge"><title>r2&#45;&gt;r2_empty</title>
<path fill="none" stroke="black" d="M403.188,-99C411.457,-99 425.67,-99 439.429,-99"/>
<polygon fill="black" stroke="black" points="439.757,-102.5 449.757,-99 439.757,-95.5001 439.757,-102.5"/>
</g>
<!-- r2&#45;&gt;r2_intermediate_m -->
<g id="edge18" class="edge"><title>r2&#45;&gt;r2_intermediate_m</title>
<path fill="none" stroke="black" d="M414.125,-89.3184C424.497,-83.9347 437.831,-77.2772 450,-72 461.373,-67.0679 476.05,-62.307 476.956,-62.0142"/>
<polygon fill="none" stroke="black" points="413.83,-89.4739 410.391,-95.812 403.217,-95.0751 406.656,-88.737 413.83,-89.4739"/>
</g>
<!-- r2_intermediate_r&#45;&gt;r2 -->
<g id="edge12" class="edge"><title>r2_intermediate_r&#45;&gt;r2</title>
<path fill="none" stroke="black" d="M342.155,-107.974C344.58,-107.57 374.855,-102.524 388.913,-100.181"/>
</g>
<!-- r3 -->
<g id="node22" class="node"><title>r3</title>
<polygon fill="none" stroke="black" points="295,-36 281,-36 281,-22 295,-22 295,-36"/>
</g>
<!-- r3_intermediate_p -->
<g id="node25" class="node"><title>r3_intermediate_p</title>
<ellipse fill="black" stroke="black" cx="342" cy="-37" rx="0.036" ry="0.036"/>
</g>
<!-- r3&#45;&gt;r3_intermediate_p -->
<g id="edge24" class="edge"><title>r3&#45;&gt;r3_intermediate_p</title>
<path fill="none" stroke="black" d="M295.06,-30.0459C309.239,-32.1466 339.998,-36.7035 341.907,-36.9862"/>
</g>
<!-- r3&#45;&gt;r3_intermediate_m -->
<g id="edge28" class="edge"><title>r3&#45;&gt;r3_intermediate_m</title>
<path fill="none" stroke="black" d="M305.819,-39.2297C320.932,-47.9055 340.401,-59.082 341.907,-59.9465"/>
<polygon fill="none" stroke="black" points="305.467,-39.0272 298.272,-39.509 295.06,-33.0527 302.255,-32.5709 305.467,-39.0272"/>
</g>
<!-- r3_empty -->
<g id="node23" class="node"><title>r3_empty</title>
<text text-anchor="middle" x="207" y="-13.5" font-family="Times Roman,serif" font-size="15.00" fill="blue">Ø</text>
</g>
<!-- r3_empty&#45;&gt;r3 -->
<g id="edge22" class="edge"><title>r3_empty&#45;&gt;r3</title>
<path fill="none" stroke="black" d="M234.423,-21.7241C250.762,-23.943 270.282,-26.5938 280.66,-28.0032"/>
</g>
<!-- r3_intermediate_p&#45;&gt;X -->
<g id="edge26" class="edge"><title>r3_intermediate_p&#45;&gt;X</title>
<path fill="none" stroke="black" d="M342.155,-37.0143C343.643,-37.1522 355.626,-38.2616 367.91,-39.399"/>
<polygon fill="black" stroke="black" points="367.795,-42.9033 378.075,-40.3403 368.44,-35.9331 367.795,-42.9033"/>
</g>
<!-- r4 -->
<g id="node31" class="node"><title>r4</title>
<polygon fill="none" stroke="black" points="554,-49 540,-49 540,-35 554,-35 554,-49"/>
</g>
<!-- r4_empty -->
<g id="node35" class="node"><title>r4_empty</title>
<text text-anchor="middle" x="617" y="-37.5" font-family="Times Roman,serif" font-size="15.00" fill="blue">Ø</text>
</g>
<!-- r4&#45;&gt;r4_empty -->
<g id="edge36" class="edge"><title>r4&#45;&gt;r4_empty</title>
<path fill="none" stroke="black" d="M554.228,-42C560.45,-42 569.94,-42 579.672,-42"/>
<polygon fill="black" stroke="black" points="579.773,-45.5001 589.773,-42 579.773,-38.5001 579.773,-45.5001"/>
</g>
<!-- r4_intermediate_r&#45;&gt;r4 -->
<g id="edge32" class="edge"><title>r4_intermediate_r&#45;&gt;r4</title>
<path fill="none" stroke="black" d="M477.051,-42C478.748,-42 522.582,-42 539.98,-42"/>
</g>
</g>
</svg>
