<?xml version="1.0" encoding="UTF-8" standalone="no"?>
<!DOCTYPE svg PUBLIC "-//W3C//DTD SVG 1.1//EN"
 "http://www.w3.org/Graphics/SVG/1.1/DTD/svg11.dtd">
<!-- Generated by graphviz version 2.24.0 (20090616.2323)
 -->
<!-- Title: G Pages: 1 -->
<svg width="1246pt" height="743pt"
 viewBox="0.00 0.00 1246.00 743.00" xmlns="http://www.w3.org/2000/svg" xmlns:xlink="http://www.w3.org/1999/xlink">
<g id="graph1" class="graph" transform="scale(1 1) rotate(0) translate(4 739)">
<title>G</title>
<polygon fill="white" stroke="white" points="-4,5 -4,-739 1243,-739 1243,5 -4,5"/>
<!-- M -->
<g id="node1" class="node"><title>M</title>
<ellipse fill="none" stroke="black" cx="252" cy="-614" rx="18" ry="18"/>
<text text-anchor="middle" x="252" y="-611.5" font-family="Times Roman,serif" font-size="10.00">M</text>
</g>
<!-- r3_intermediate_r -->
<g id="node23" class="node"><title>r3_intermediate_r</title>
<ellipse fill="black" stroke="black" cx="307" cy="-614" rx="0.036" ry="0.036"/>
</g>
<!-- M&#45;&gt;r3_intermediate_r -->
<g id="edge20" class="edge"><title>M&#45;&gt;r3_intermediate_r</title>
<path fill="none" stroke="black" d="M270.009,-614C285.548,-614 305.695,-614 306.939,-614"/>
</g>
<!-- r4_intermediate_m -->
<g id="node34" class="node"><title>r4_intermediate_m</title>
<ellipse fill="black" stroke="black" cx="307" cy="-510" rx="0.036" ry="0.036"/>
</g>
<!-- M&#45;&gt;r4_intermediate_m -->
<g id="edge32" class="edge"><title>M&#45;&gt;r4_intermediate_m</title>
<path fill="none" stroke="black" d="M260.594,-597.75C275.579,-569.414 305.082,-513.628 306.911,-510.169"/>
</g>
<!-- TF -->
<g id="node2" class="node"><title>TF</title>
<polyline fill="none" stroke="black" points="1190,-318 1160,-318 "/>
<path fill="none" stroke="black" d="M1160,-318C1154,-318 1148,-312 1148,-306"/>
<polyline fill="none" stroke="black" points="1148,-306 1148,-294 "/>
<path fill="none" stroke="black" d="M1148,-294C1148,-288 1154,-282 1160,-282"/>
<polyline fill="none" stroke="black" points="1160,-282 1190,-282 "/>
<path fill="none" stroke="black" d="M1190,-282C1196,-282 1202,-288 1202,-294"/>
<polyline fill="none" stroke="black" points="1202,-294 1202,-306 "/>
<path fill="none" stroke="black" d="M1202,-306C1202,-312 1196,-318 1190,-318"/>
<text text-anchor="middle" x="1175" y="-297.5" font-family="Times Roman,serif" font-size="10.00">TF</text>
</g>
<!-- r2_intermediate_m -->
<g id="node19" class="node"><title>r2_intermediate_m</title>
<ellipse fill="black" stroke="black" cx="1238" cy="-486" rx="0.036" ry="0.036"/>
</g>
<!-- TF&#45;&gt;r2_intermediate_m -->
<g id="edge16" class="edge"><title>TF&#45;&gt;r2_intermediate_m</title>
<path fill="none" stroke="black" d="M1181.16,-318.173C1196.76,-364.244 1236.73,-482.236 1237.97,-485.912"/>
</g>
<!-- r12_intermediate_r -->
<g id="node88" class="node"><title>r12_intermediate_r</title>
<ellipse fill="black" stroke="black" cx="755" cy="-315" rx="0.036" ry="0.036"/>
</g>
<!-- TF&#45;&gt;r12_intermediate_r -->
<g id="edge94" class="edge"><title>TF&#45;&gt;r12_intermediate_r</title>
<path fill="none" stroke="black" d="M1149.71,-318.037C1128.63,-331.291 1097.26,-347 1067,-347 959,-347 959,-347 959,-347 884.438,-347 864.21,-349.579 792,-331 775.191,-326.675 756.226,-315.714 755.057,-315.033"/>
</g>
<!-- CP -->
<g id="node3" class="node"><title>CP</title>
<polyline fill="none" stroke="black" points="386,-265 356,-265 "/>
<path fill="none" stroke="black" d="M356,-265C350,-265 344,-259 344,-253"/>
<polyline fill="none" stroke="black" points="344,-253 344,-241 "/>
<path fill="none" stroke="black" d="M344,-241C344,-235 350,-229 356,-229"/>
<polyline fill="none" stroke="black" points="356,-229 386,-229 "/>
<path fill="none" stroke="black" d="M386,-229C392,-229 398,-235 398,-241"/>
<polyline fill="none" stroke="black" points="398,-241 398,-253 "/>
<path fill="none" stroke="black" d="M398,-253C398,-259 392,-265 386,-265"/>
<text text-anchor="middle" x="371" y="-244.5" font-family="Times Roman,serif" font-size="10.00">CP</text>
</g>
<!-- r5_intermediate_r -->
<g id="node38" class="node"><title>r5_intermediate_r</title>
<ellipse fill="black" stroke="black" cx="461" cy="-27" rx="0.036" ry="0.036"/>
</g>
<!-- CP&#45;&gt;r5_intermediate_r -->
<g id="edge36" class="edge"><title>CP&#45;&gt;r5_intermediate_r</title>
<path fill="none" stroke="black" d="M373.374,-228.983C378.871,-192.509 395.097,-108.434 434,-50 442.463,-37.2884 459.868,-27.6206 460.947,-27.0287"/>
</g>
<!-- r6_intermediate_r -->
<g id="node44" class="node"><title>r6_intermediate_r</title>
<ellipse fill="black" stroke="black" cx="461" cy="-292" rx="0.036" ry="0.036"/>
</g>
<!-- CP&#45;&gt;r6_intermediate_r -->
<g id="edge42" class="edge"><title>CP&#45;&gt;r6_intermediate_r</title>
<path fill="none" stroke="black" d="M398.003,-260.501C423.685,-273.342 458.729,-290.865 460.895,-291.947"/>
</g>
<!-- r8_intermediate_r -->
<g id="node58" class="node"><title>r8_intermediate_r</title>
<ellipse fill="black" stroke="black" cx="461" cy="-229" rx="0.036" ry="0.036"/>
</g>
<!-- CP&#45;&gt;r8_intermediate_r -->
<g id="edge58" class="edge"><title>CP&#45;&gt;r8_intermediate_r</title>
<path fill="none" stroke="black" d="M398.003,-241.599C423.685,-236.463 458.729,-229.454 460.895,-229.021"/>
</g>
<!-- r9_intermediate_r -->
<g id="node68" class="node"><title>r9_intermediate_r</title>
<ellipse fill="black" stroke="black" cx="461" cy="-265" rx="0.036" ry="0.036"/>
</g>
<!-- CP&#45;&gt;r9_intermediate_r -->
<g id="edge70" class="edge"><title>CP&#45;&gt;r9_intermediate_r</title>
<path fill="none" stroke="black" d="M398.003,-252.401C423.685,-257.537 458.729,-264.546 460.895,-264.979"/>
</g>
<!-- r13_intermediate_m -->
<g id="node101" class="node"><title>r13_intermediate_m</title>
<ellipse fill="black" stroke="black" cx="1023" cy="-439" rx="0.036" ry="0.036"/>
</g>
<!-- CP&#45;&gt;r13_intermediate_m -->
<g id="edge108" class="edge"><title>CP&#45;&gt;r13_intermediate_m</title>
<path fill="none" stroke="black" d="M375.777,-265.235C394.149,-333.352 462.646,-569 531,-569 531,-569 531,-569 869,-569 957.171,-569 1020.98,-443.031 1022.95,-439.094"/>
</g>
<!-- r17_intermediate_m -->
<g id="node132" class="node"><title>r17_intermediate_m</title>
<ellipse fill="black" stroke="black" cx="1111" cy="-140" rx="0.036" ry="0.036"/>
</g>
<!-- CP&#45;&gt;r17_intermediate_m -->
<g id="edge146" class="edge"><title>CP&#45;&gt;r17_intermediate_m</title>
<path fill="none" stroke="black" d="M374.853,-228.854C381.877,-199.818 399.346,-142.665 434,-108 467.469,-74.5211 483.661,-64 531,-64 531,-64 531,-64 1023,-64 1073.87,-64 1109.86,-137.644 1110.97,-139.945"/>
</g>
<!-- CP2 -->
<g id="node4" class="node"><title>CP2</title>
<polyline fill="none" stroke="black" points="706,-332 676,-332 "/>
<path fill="none" stroke="black" d="M676,-332C670,-332 664,-326 664,-320"/>
<polyline fill="none" stroke="black" points="664,-320 664,-308 "/>
<path fill="none" stroke="black" d="M664,-308C664,-302 670,-296 676,-296"/>
<polyline fill="none" stroke="black" points="676,-296 706,-296 "/>
<path fill="none" stroke="black" d="M706,-296C712,-296 718,-302 718,-308"/>
<polyline fill="none" stroke="black" points="718,-308 718,-320 "/>
<path fill="none" stroke="black" d="M718,-320C718,-326 712,-332 706,-332"/>
<text text-anchor="middle" x="691" y="-311.5" font-family="Times Roman,serif" font-size="10.00">CP2</text>
</g>
<!-- r7_intermediate_r -->
<g id="node51" class="node"><title>r7_intermediate_r</title>
<ellipse fill="black" stroke="black" cx="755" cy="-217" rx="0.036" ry="0.036"/>
</g>
<!-- CP2&#45;&gt;r7_intermediate_r -->
<g id="edge50" class="edge"><title>CP2&#45;&gt;r7_intermediate_r</title>
<path fill="none" stroke="black" d="M703.038,-295.755C720.998,-268.535 752.926,-220.144 754.904,-217.146"/>
</g>
<!-- r8_intermediate_m -->
<g id="node63" class="node"><title>r8_intermediate_m</title>
<ellipse fill="black" stroke="black" cx="1023" cy="-232" rx="0.036" ry="0.036"/>
</g>
<!-- CP2&#45;&gt;r8_intermediate_m -->
<g id="edge64" class="edge"><title>CP2&#45;&gt;r8_intermediate_m</title>
<path fill="none" stroke="black" d="M718.22,-298.757C729.18,-292.88 742.038,-286.31 754,-281 863.337,-232.468 1018.08,-232.003 1022.89,-232"/>
</g>
<!-- r11_intermediate_r -->
<g id="node82" class="node"><title>r11_intermediate_r</title>
<ellipse fill="black" stroke="black" cx="755" cy="-290" rx="0.036" ry="0.036"/>
</g>
<!-- CP2&#45;&gt;r11_intermediate_r -->
<g id="edge86" class="edge"><title>CP2&#45;&gt;r11_intermediate_r</title>
<path fill="none" stroke="black" d="M718.142,-303.822C735.04,-297.485 753.788,-290.454 754.944,-290.021"/>
</g>
<!-- CP2&#45;&gt;r12_intermediate_r -->
<g id="edge92" class="edge"><title>CP2&#45;&gt;r12_intermediate_r</title>
<path fill="none" stroke="black" d="M718.142,-314.424C735.04,-314.688 753.788,-314.981 754.944,-314.999"/>
</g>
<!-- r13_intermediate_r -->
<g id="node96" class="node"><title>r13_intermediate_r</title>
<ellipse fill="black" stroke="black" cx="755" cy="-410" rx="0.036" ry="0.036"/>
</g>
<!-- CP2&#45;&gt;r13_intermediate_r -->
<g id="edge102" class="edge"><title>CP2&#45;&gt;r13_intermediate_r</title>
<path fill="none" stroke="black" d="M703.038,-332.057C720.998,-358.997 752.926,-406.888 754.904,-409.855"/>
</g>
<!-- r14_intermediate_r -->
<g id="node106" class="node"><title>r14_intermediate_r</title>
<ellipse fill="black" stroke="black" cx="755" cy="-359" rx="0.036" ry="0.036"/>
</g>
<!-- CP2&#45;&gt;r14_intermediate_r -->
<g id="edge114" class="edge"><title>CP2&#45;&gt;r14_intermediate_r</title>
<path fill="none" stroke="black" d="M716.662,-332.044C733.911,-344.172 753.719,-358.1 754.941,-358.958"/>
</g>
<!-- CP2&#45;&gt;r17_intermediate_m -->
<g id="edge144" class="edge"><title>CP2&#45;&gt;r17_intermediate_m</title>
<path fill="none" stroke="black" d="M693.526,-295.708C700.829,-251.034 726.292,-140 799,-140 799,-140 799,-140 1023,-140 1060.89,-140 1107.95,-140 1110.86,-140"/>
</g>
<!-- IC -->
<g id="node5" class="node"><title>IC</title>
<polyline fill="none" stroke="black" points="974,-304 944,-304 "/>
<path fill="none" stroke="black" d="M944,-304C938,-304 932,-298 932,-292"/>
<polyline fill="none" stroke="black" points="932,-292 932,-280 "/>
<path fill="none" stroke="black" d="M932,-280C932,-274 938,-268 944,-268"/>
<polyline fill="none" stroke="black" points="944,-268 974,-268 "/>
<path fill="none" stroke="black" d="M974,-268C980,-268 986,-274 986,-280"/>
<polyline fill="none" stroke="black" points="986,-280 986,-292 "/>
<path fill="none" stroke="black" d="M986,-292C986,-298 980,-304 974,-304"/>
<text text-anchor="middle" x="959" y="-283.5" font-family="Times Roman,serif" font-size="10.00">IC</text>
</g>
<!-- IC&#45;&gt;r8_intermediate_m -->
<g id="edge66" class="edge"><title>IC&#45;&gt;r8_intermediate_m</title>
<path fill="none" stroke="black" d="M980.667,-267.718C998.654,-252.542 1021.52,-233.249 1022.93,-232.058"/>
</g>
<!-- r10_intermediate_r -->
<g id="node74" class="node"><title>r10_intermediate_r</title>
<ellipse fill="black" stroke="black" cx="1023" cy="-309" rx="0.036" ry="0.036"/>
</g>
<!-- IC&#45;&gt;r10_intermediate_r -->
<g id="edge76" class="edge"><title>IC&#45;&gt;r10_intermediate_r</title>
<path fill="none" stroke="black" d="M986.142,-295.754C1003.04,-301.827 1021.79,-308.565 1022.94,-308.98"/>
</g>
<!-- IC&#45;&gt;r13_intermediate_m -->
<g id="edge110" class="edge"><title>IC&#45;&gt;r13_intermediate_m</title>
<path fill="none" stroke="black" d="M966.593,-304.152C983.281,-344.047 1021.77,-436.066 1022.97,-438.931"/>
</g>
<!-- r15_intermediate_r -->
<g id="node112" class="node"><title>r15_intermediate_r</title>
<ellipse fill="black" stroke="black" cx="1023" cy="-286" rx="0.036" ry="0.036"/>
</g>
<!-- IC&#45;&gt;r15_intermediate_r -->
<g id="edge120" class="edge"><title>IC&#45;&gt;r15_intermediate_r</title>
<path fill="none" stroke="black" d="M986.142,-286C1003.04,-286 1021.79,-286 1022.94,-286"/>
</g>
<!-- r16_intermediate_r -->
<g id="node119" class="node"><title>r16_intermediate_r</title>
<ellipse fill="black" stroke="black" cx="1023" cy="-268" rx="0.036" ry="0.036"/>
</g>
<!-- IC&#45;&gt;r16_intermediate_r -->
<g id="edge128" class="edge"><title>IC&#45;&gt;r16_intermediate_r</title>
<path fill="none" stroke="black" d="M986.142,-278.366C1003.04,-273.614 1021.79,-268.341 1022.94,-268.016"/>
</g>
<!-- r17_intermediate_r -->
<g id="node126" class="node"><title>r17_intermediate_r</title>
<ellipse fill="black" stroke="black" cx="1023" cy="-250" rx="0.036" ry="0.036"/>
</g>
<!-- IC&#45;&gt;r17_intermediate_r -->
<g id="edge136" class="edge"><title>IC&#45;&gt;r17_intermediate_r</title>
<path fill="none" stroke="black" d="M986.142,-270.733C1003.04,-261.228 1021.79,-250.681 1022.94,-250.032"/>
</g>
<!-- CPtot -->
<g id="node6" class="node"><title>CPtot</title>
<ellipse fill="none" stroke="black" cx="29" cy="-717" rx="28.9326" ry="18"/>
<text text-anchor="middle" x="29" y="-714.5" font-family="Times Roman,serif" font-size="10.00">CPtot</text>
</g>
<!-- r1 -->
<g id="node7" class="node"><title>r1</title>
<polygon fill="none" stroke="black" points="108,-620 94,-620 94,-606 108,-606 108,-620"/>
</g>
<!-- r1_intermediate_p -->
<g id="node10" class="node"><title>r1_intermediate_p</title>
<ellipse fill="black" stroke="black" cx="171" cy="-613" rx="0.036" ry="0.036"/>
</g>
<!-- r1&#45;&gt;r1_intermediate_p -->
<g id="edge4" class="edge"><title>r1&#45;&gt;r1_intermediate_p</title>
<path fill="none" stroke="black" d="M108.228,-613C125.554,-613 168.221,-613 170.871,-613"/>
</g>
<!-- r1_empty -->
<g id="node8" class="node"><title>r1_empty</title>
<text text-anchor="middle" x="29" y="-604.5" font-family="Times Roman,serif" font-size="15.00" fill="blue">Ø</text>
</g>
<!-- r1_empty&#45;&gt;r1 -->
<g id="edge2" class="edge"><title>r1_empty&#45;&gt;r1</title>
<path fill="none" stroke="black" d="M56.2201,-610.512C69.7598,-611.264 85.0641,-612.115 93.8186,-612.601"/>
</g>
<!-- r1_intermediate_p&#45;&gt;M -->
<g id="edge6" class="edge"><title>r1_intermediate_p&#45;&gt;M</title>
<path fill="none" stroke="black" d="M171.059,-613.001C172.514,-613.019 200.754,-613.367 223.471,-613.648"/>
<polygon fill="black" stroke="black" points="223.679,-617.151 233.721,-613.774 223.765,-610.151 223.679,-617.151"/>
</g>
<!-- r2 -->
<g id="node13" class="node"><title>r2</title>
<polygon fill="none" stroke="black" points="108,-668 94,-668 94,-654 108,-654 108,-668"/>
</g>
<!-- r2_intermediate_p -->
<g id="node16" class="node"><title>r2_intermediate_p</title>
<ellipse fill="black" stroke="black" cx="171" cy="-632" rx="0.036" ry="0.036"/>
</g>
<!-- r2&#45;&gt;r2_intermediate_p -->
<g id="edge10" class="edge"><title>r2&#45;&gt;r2_intermediate_p</title>
<path fill="none" stroke="black" d="M108.228,-658.006C125.554,-650.828 168.221,-633.151 170.871,-632.054"/>
</g>
<!-- r2&#45;&gt;r2_intermediate_m -->
<g id="edge14" class="edge"><title>r2&#45;&gt;r2_intermediate_m</title>
<path fill="none" stroke="black" d="M120.306,-661C149.02,-661 204.68,-661 252,-661 252,-661 252,-661 1111,-661 1205.6,-661 1237.02,-491.426 1237.98,-486.127"/>
<polygon fill="none" stroke="black" points="120.229,-661 114.229,-665 108.229,-661 114.23,-657 120.229,-661"/>
</g>
<!-- r2_empty -->
<g id="node14" class="node"><title>r2_empty</title>
<text text-anchor="middle" x="29" y="-658.5" font-family="Times Roman,serif" font-size="15.00" fill="blue">Ø</text>
</g>
<!-- r2_empty&#45;&gt;r2 -->
<g id="edge8" class="edge"><title>r2_empty&#45;&gt;r2</title>
<path fill="none" stroke="black" d="M56.2201,-662.244C69.7598,-661.868 85.0641,-661.443 93.8186,-661.199"/>
</g>
<!-- r2_intermediate_p&#45;&gt;M -->
<g id="edge12" class="edge"><title>r2_intermediate_p&#45;&gt;M</title>
<path fill="none" stroke="black" d="M171.059,-631.987C172.529,-631.66 201.334,-625.259 224.167,-620.185"/>
<polygon fill="black" stroke="black" points="225.115,-623.56 234.118,-617.974 223.597,-616.727 225.115,-623.56"/>
</g>
<!-- r3 -->
<g id="node22" class="node"><title>r3</title>
<polygon fill="none" stroke="black" points="378,-621 364,-621 364,-607 378,-607 378,-621"/>
</g>
<!-- r3_empty -->
<g id="node26" class="node"><title>r3_empty</title>
<text text-anchor="middle" x="461" y="-610.5" font-family="Times Roman,serif" font-size="15.00" fill="blue">Ø</text>
</g>
<!-- r3&#45;&gt;r3_empty -->
<g id="edge22" class="edge"><title>r3&#45;&gt;r3_empty</title>
<path fill="none" stroke="black" d="M378.062,-614.078C387.877,-614.188 406.359,-614.393 423.389,-614.582"/>
<polygon fill="black" stroke="black" points="423.676,-618.085 433.715,-614.697 423.754,-611.086 423.676,-618.085"/>
</g>
<!-- r3_intermediate_r&#45;&gt;r3 -->
<g id="edge18" class="edge"><title>r3_intermediate_r&#45;&gt;r3</title>
<path fill="none" stroke="black" d="M307.046,-614C308.576,-614 347.51,-614 363.868,-614"/>
</g>
<!-- r4 -->
<g id="node28" class="node"><title>r4</title>
<polygon fill="none" stroke="black" points="259,-443 245,-443 245,-429 259,-429 259,-443"/>
</g>
<!-- r4_intermediate_p -->
<g id="node31" class="node"><title>r4_intermediate_p</title>
<ellipse fill="black" stroke="black" cx="307" cy="-290" rx="0.036" ry="0.036"/>
</g>
<!-- r4&#45;&gt;r4_intermediate_p -->
<g id="edge26" class="edge"><title>r4&#45;&gt;r4_intermediate_p</title>
<path fill="none" stroke="black" d="M254.653,-428.958C265.468,-400.25 305.715,-293.411 306.97,-290.08"/>
</g>
<!-- r4&#45;&gt;r4_intermediate_m -->
<g id="edge30" class="edge"><title>r4&#45;&gt;r4_intermediate_m</title>
<path fill="none" stroke="black" d="M264.632,-452.996C280.275,-474.043 305.097,-507.44 306.896,-509.861"/>
<polygon fill="none" stroke="black" points="264.432,-452.727 257.642,-450.297 257.274,-443.095 264.063,-445.525 264.432,-452.727"/>
</g>
<!-- r4_empty -->
<g id="node29" class="node"><title>r4_empty</title>
<text text-anchor="middle" x="171" y="-431.5" font-family="Times Roman,serif" font-size="15.00" fill="blue">Ø</text>
</g>
<!-- r4_empty&#45;&gt;r4 -->
<g id="edge24" class="edge"><title>r4_empty&#45;&gt;r4</title>
<path fill="none" stroke="black" d="M198.423,-436C214.762,-436 234.282,-436 244.66,-436"/>
</g>
<!-- r4_intermediate_p&#45;&gt;CP -->
<g id="edge28" class="edge"><title>r4_intermediate_p&#45;&gt;CP</title>
<path fill="none" stroke="black" d="M307.046,-289.969C307.932,-289.374 321.374,-280.343 335.706,-270.713"/>
<polygon fill="black" stroke="black" points="337.811,-273.516 344.16,-265.033 333.907,-267.705 337.811,-273.516"/>
</g>
<!-- r5 -->
<g id="node37" class="node"><title>r5</title>
<polygon fill="none" stroke="black" points="538,-31 524,-31 524,-17 538,-17 538,-31"/>
</g>
<!-- r5_empty -->
<g id="node41" class="node"><title>r5_empty</title>
<text text-anchor="middle" x="601" y="-13.5" font-family="Times Roman,serif" font-size="15.00" fill="blue">Ø</text>
</g>
<!-- r5&#45;&gt;r5_empty -->
<g id="edge38" class="edge"><title>r5&#45;&gt;r5_empty</title>
<path fill="none" stroke="black" d="M538.228,-23.3805C544.45,-22.8472 553.94,-22.0337 563.672,-21.1996"/>
<polygon fill="black" stroke="black" points="564.109,-24.675 573.773,-20.3337 563.511,-17.7006 564.109,-24.675"/>
</g>
<!-- r5_intermediate_r&#45;&gt;r5 -->
<g id="edge34" class="edge"><title>r5_intermediate_r&#45;&gt;r5</title>
<path fill="none" stroke="black" d="M461.051,-26.9978C462.748,-26.9251 506.582,-25.0465 523.98,-24.3009"/>
</g>
<!-- r6 -->
<g id="node43" class="node"><title>r6</title>
<polygon fill="none" stroke="black" points="538,-319 524,-319 524,-305 538,-305 538,-319"/>
</g>
<!-- r6_intermediate_p -->
<g id="node47" class="node"><title>r6_intermediate_p</title>
<ellipse fill="black" stroke="black" cx="601" cy="-314" rx="0.036" ry="0.036"/>
</g>
<!-- r6&#45;&gt;r6_intermediate_p -->
<g id="edge44" class="edge"><title>r6&#45;&gt;r6_intermediate_p</title>
<path fill="none" stroke="black" d="M538.228,-312.207C555.554,-312.702 598.221,-313.921 600.871,-313.996"/>
</g>
<!-- r6_intermediate_r&#45;&gt;r6 -->
<g id="edge40" class="edge"><title>r6_intermediate_r&#45;&gt;r6</title>
<path fill="none" stroke="black" d="M461.051,-292.014C462.748,-292.499 506.582,-305.023 523.98,-309.994"/>
</g>
<!-- r6_intermediate_p&#45;&gt;CP2 -->
<g id="edge46" class="edge"><title>r6_intermediate_p&#45;&gt;CP2</title>
<path fill="none" stroke="black" d="M601.065,-314C602.565,-314 629.648,-314 653.704,-314"/>
<polygon fill="black" stroke="black" points="653.745,-317.5 663.745,-314 653.745,-310.5 653.745,-317.5"/>
</g>
<!-- r7 -->
<g id="node50" class="node"><title>r7</title>
<polygon fill="none" stroke="black" points="806,-220 792,-220 792,-206 806,-206 806,-220"/>
</g>
<!-- r7_intermediate_p -->
<g id="node54" class="node"><title>r7_intermediate_p</title>
<ellipse fill="black" stroke="black" cx="869" cy="-107" rx="0.036" ry="0.036"/>
</g>
<!-- r7&#45;&gt;r7_intermediate_p -->
<g id="edge52" class="edge"><title>r7&#45;&gt;r7_intermediate_p</title>
<path fill="none" stroke="black" d="M803.811,-205.714C819.379,-182.14 867.465,-109.324 868.964,-107.054"/>
</g>
<!-- r7_intermediate_r&#45;&gt;r7 -->
<g id="edge48" class="edge"><title>r7_intermediate_r&#45;&gt;r7</title>
<path fill="none" stroke="black" d="M755.126,-216.989C757.022,-216.816 779.795,-214.746 791.759,-213.658"/>
</g>
<!-- r7_intermediate_p&#45;&gt;CP -->
<g id="edge54" class="edge"><title>r7_intermediate_p&#45;&gt;CP</title>
<path fill="none" stroke="black" d="M868.954,-106.996C867.025,-106.845 804.923,-102 755,-102 531,-102 531,-102 531,-102 461.471,-102 408.705,-178.111 384.909,-220.048"/>
<polygon fill="black" stroke="black" points="381.775,-218.482 380.012,-228.929 387.905,-221.862 381.775,-218.482"/>
</g>
<!-- r8 -->
<g id="node57" class="node"><title>r8</title>
<polygon fill="none" stroke="black" points="538,-231 524,-231 524,-217 538,-217 538,-231"/>
</g>
<!-- r8_empty -->
<g id="node61" class="node"><title>r8_empty</title>
<text text-anchor="middle" x="601" y="-219.5" font-family="Times Roman,serif" font-size="15.00" fill="blue">Ø</text>
</g>
<!-- r8&#45;&gt;r8_empty -->
<g id="edge60" class="edge"><title>r8&#45;&gt;r8_empty</title>
<path fill="none" stroke="black" d="M538.228,-224C544.45,-224 553.94,-224 563.672,-224"/>
<polygon fill="black" stroke="black" points="563.773,-227.5 573.773,-224 563.773,-220.5 563.773,-227.5"/>
</g>
<!-- r8&#45;&gt;r8_intermediate_m -->
<g id="edge62" class="edge"><title>r8&#45;&gt;r8_intermediate_m</title>
<path fill="none" stroke="black" d="M548.105,-211.044C555.674,-205.913 564.909,-200.431 574,-197 623.289,-178.4 638.319,-178 691,-178 691,-178 691,-178 869,-178 940.397,-178 1020.46,-230.326 1022.94,-231.961"/>
<polygon fill="none" stroke="black" points="547.858,-211.223 545.337,-217.979 538.131,-218.251 540.652,-211.495 547.858,-211.223"/>
</g>
<!-- r8_intermediate_r&#45;&gt;r8 -->
<g id="edge56" class="edge"><title>r8_intermediate_r&#45;&gt;r8</title>
<path fill="none" stroke="black" d="M461.051,-228.996C462.748,-228.875 506.582,-225.744 523.98,-224.501"/>
</g>
<!-- r9 -->
<g id="node67" class="node"><title>r9</title>
<polygon fill="none" stroke="black" points="538,-281 524,-281 524,-267 538,-267 538,-281"/>
</g>
<!-- r9_empty -->
<g id="node71" class="node"><title>r9_empty</title>
<text text-anchor="middle" x="601" y="-273.5" font-family="Times Roman,serif" font-size="15.00" fill="blue">Ø</text>
</g>
<!-- r9&#45;&gt;r9_empty -->
<g id="edge72" class="edge"><title>r9&#45;&gt;r9_empty</title>
<path fill="none" stroke="black" d="M538.228,-274.413C544.45,-274.769 553.94,-275.311 563.672,-275.867"/>
<polygon fill="black" stroke="black" points="563.59,-279.368 573.773,-276.444 563.989,-272.379 563.59,-279.368"/>
</g>
<!-- r9_intermediate_r&#45;&gt;r9 -->
<g id="edge68" class="edge"><title>r9_intermediate_r&#45;&gt;r9</title>
<path fill="none" stroke="black" d="M461.051,-265.007C462.748,-265.225 506.582,-270.861 523.98,-273.097"/>
</g>
<!-- r10 -->
<g id="node73" class="node"><title>r10</title>
<polygon fill="none" stroke="black" points="1074,-319 1060,-319 1060,-305 1074,-305 1074,-319"/>
</g>
<!-- r10_intermediate_p -->
<g id="node77" class="node"><title>r10_intermediate_p</title>
<ellipse fill="black" stroke="black" cx="1111" cy="-312" rx="0.036" ry="0.036"/>
</g>
<!-- r10&#45;&gt;r10_intermediate_p -->
<g id="edge78" class="edge"><title>r10&#45;&gt;r10_intermediate_p</title>
<path fill="none" stroke="black" d="M1074.27,-312C1086.37,-312 1109.5,-312 1110.93,-312"/>
</g>
<!-- r10_intermediate_r&#45;&gt;r10 -->
<g id="edge74" class="edge"><title>r10_intermediate_r&#45;&gt;r10</title>
<path fill="none" stroke="black" d="M1023.13,-309.009C1025.02,-309.138 1047.79,-310.691 1059.76,-311.506"/>
</g>
<!-- r10_intermediate_p&#45;&gt;TF -->
<g id="edge82" class="edge"><title>r10_intermediate_p&#45;&gt;TF</title>
<path fill="none" stroke="black" d="M1111.05,-311.991C1111.89,-311.833 1124.21,-309.523 1137.81,-306.973"/>
<polygon fill="black" stroke="black" points="1138.61,-310.384 1147.79,-305.101 1137.32,-303.504 1138.61,-310.384"/>
</g>
<!-- r10_intermediate_p&#45;&gt;CP2 -->
<g id="edge80" class="edge"><title>r10_intermediate_p&#45;&gt;CP2</title>
<path fill="none" stroke="black" d="M1110.97,-312.159C1109.88,-318.79 1074.63,-531 1023,-531 799,-531 799,-531 799,-531 715.609,-531 696.607,-400.972 692.277,-342.221"/>
<polygon fill="black" stroke="black" points="695.763,-341.882 691.627,-332.128 688.777,-342.332 695.763,-341.882"/>
</g>
<!-- r11 -->
<g id="node81" class="node"><title>r11</title>
<polygon fill="none" stroke="black" points="806,-290 792,-290 792,-276 806,-276 806,-290"/>
</g>
<!-- r11_empty -->
<g id="node85" class="node"><title>r11_empty</title>
<text text-anchor="middle" x="869" y="-278.5" font-family="Times Roman,serif" font-size="15.00" fill="blue">Ø</text>
</g>
<!-- r11&#45;&gt;r11_empty -->
<g id="edge88" class="edge"><title>r11&#45;&gt;r11_empty</title>
<path fill="none" stroke="black" d="M806.228,-283C812.45,-283 821.94,-283 831.672,-283"/>
<polygon fill="black" stroke="black" points="831.773,-286.5 841.773,-283 831.773,-279.5 831.773,-286.5"/>
</g>
<!-- r11_intermediate_r&#45;&gt;r11 -->
<g id="edge84" class="edge"><title>r11_intermediate_r&#45;&gt;r11</title>
<path fill="none" stroke="black" d="M755.126,-289.98C757.022,-289.678 779.795,-286.055 791.759,-284.152"/>
</g>
<!-- r12 -->
<g id="node87" class="node"><title>r12</title>
<polygon fill="none" stroke="black" points="806,-322 792,-322 792,-308 806,-308 806,-322"/>
</g>
<!-- r12_intermediate_p -->
<g id="node92" class="node"><title>r12_intermediate_p</title>
<ellipse fill="black" stroke="black" cx="869" cy="-319" rx="0.036" ry="0.036"/>
</g>
<!-- r12&#45;&gt;r12_intermediate_p -->
<g id="edge96" class="edge"><title>r12&#45;&gt;r12_intermediate_p</title>
<path fill="none" stroke="black" d="M806.228,-315.413C823.554,-316.403 866.221,-318.841 868.871,-318.993"/>
</g>
<!-- r12_intermediate_r&#45;&gt;r12 -->
<g id="edge90" class="edge"><title>r12_intermediate_r&#45;&gt;r12</title>
<path fill="none" stroke="black" d="M755.126,-315C757.022,-315 779.795,-315 791.759,-315"/>
</g>
<!-- r12_intermediate_p&#45;&gt;IC -->
<g id="edge98" class="edge"><title>r12_intermediate_p&#45;&gt;IC</title>
<path fill="none" stroke="black" d="M869.172,-318.946C870.873,-318.408 884.832,-313.987 896,-310 904.57,-306.941 913.744,-303.527 922.366,-300.255"/>
<polygon fill="black" stroke="black" points="923.713,-303.487 931.804,-296.648 921.214,-296.948 923.713,-303.487"/>
</g>
<!-- r13 -->
<g id="node95" class="node"><title>r13</title>
<polygon fill="none" stroke="black" points="806,-446 792,-446 792,-432 806,-432 806,-446"/>
</g>
<!-- r13_empty -->
<g id="node99" class="node"><title>r13_empty</title>
<text text-anchor="middle" x="869" y="-480.5" font-family="Times Roman,serif" font-size="15.00" fill="blue">Ø</text>
</g>
<!-- r13&#45;&gt;r13_empty -->
<g id="edge104" class="edge"><title>r13&#45;&gt;r13_empty</title>
<path fill="none" stroke="black" d="M806.228,-443.75C812.777,-448.054 822.948,-454.737 833.21,-461.481"/>
<polygon fill="black" stroke="black" points="831.494,-464.541 841.773,-467.108 835.338,-458.691 831.494,-464.541"/>
</g>
<!-- r13&#45;&gt;r13_intermediate_m -->
<g id="edge106" class="edge"><title>r13&#45;&gt;r13_intermediate_m</title>
<path fill="none" stroke="black" d="M818.76,-439C872.552,-439 1017.93,-439 1022.87,-439"/>
<polygon fill="none" stroke="black" points="818.453,-439 812.453,-443 806.453,-439 812.453,-435 818.453,-439"/>
</g>
<!-- r13_intermediate_r&#45;&gt;r13 -->
<g id="edge100" class="edge"><title>r13_intermediate_r&#45;&gt;r13</title>
<path fill="none" stroke="black" d="M755.126,-410.083C757.022,-411.332 779.795,-426.342 791.759,-434.227"/>
</g>
<!-- r14 -->
<g id="node105" class="node"><title>r14</title>
<polygon fill="none" stroke="black" points="806,-396 792,-396 792,-382 806,-382 806,-396"/>
</g>
<!-- r14_empty -->
<g id="node109" class="node"><title>r14_empty</title>
<text text-anchor="middle" x="869" y="-388.5" font-family="Times Roman,serif" font-size="15.00" fill="blue">Ø</text>
</g>
<!-- r14&#45;&gt;r14_empty -->
<g id="edge116" class="edge"><title>r14&#45;&gt;r14_empty</title>
<path fill="none" stroke="black" d="M806.228,-389.413C812.45,-389.769 821.94,-390.311 831.672,-390.867"/>
<polygon fill="black" stroke="black" points="831.59,-394.368 841.773,-391.444 831.989,-387.379 831.59,-394.368"/>
</g>
<!-- r14_intermediate_r&#45;&gt;r14 -->
<g id="edge112" class="edge"><title>r14_intermediate_r&#45;&gt;r14</title>
<path fill="none" stroke="black" d="M755.126,-359.086C757.022,-360.378 779.795,-375.905 791.759,-384.063"/>
</g>
<!-- r15 -->
<g id="node111" class="node"><title>r15</title>
<polygon fill="none" stroke="black" points="1074,-287 1060,-287 1060,-273 1074,-273 1074,-287"/>
</g>
<!-- r15_intermediate_p -->
<g id="node115" class="node"><title>r15_intermediate_p</title>
<ellipse fill="black" stroke="black" cx="1111" cy="-289" rx="0.036" ry="0.036"/>
</g>
<!-- r15&#45;&gt;r15_intermediate_p -->
<g id="edge122" class="edge"><title>r15&#45;&gt;r15_intermediate_p</title>
<path fill="none" stroke="black" d="M1074.27,-281.486C1086.37,-283.963 1109.5,-288.692 1110.93,-288.986"/>
</g>
<!-- r15_intermediate_r&#45;&gt;r15 -->
<g id="edge118" class="edge"><title>r15_intermediate_r&#45;&gt;r15</title>
<path fill="none" stroke="black" d="M1023.13,-285.983C1025.02,-285.724 1047.79,-282.619 1059.76,-280.987"/>
</g>
<!-- r15_intermediate_p&#45;&gt;TF -->
<g id="edge124" class="edge"><title>r15_intermediate_p&#45;&gt;TF</title>
<path fill="none" stroke="black" d="M1111.05,-289.008C1111.89,-289.154 1124.21,-291.27 1137.81,-293.608"/>
<polygon fill="black" stroke="black" points="1137.35,-297.079 1147.79,-295.324 1138.53,-290.181 1137.35,-297.079"/>
</g>
<!-- r16 -->
<g id="node118" class="node"><title>r16</title>
<polygon fill="none" stroke="black" points="1074,-255 1060,-255 1060,-241 1074,-241 1074,-255"/>
</g>
<!-- r16_intermediate_p -->
<g id="node122" class="node"><title>r16_intermediate_p</title>
<ellipse fill="black" stroke="black" cx="1111" cy="-261" rx="0.036" ry="0.036"/>
</g>
<!-- r16&#45;&gt;r16_intermediate_p -->
<g id="edge130" class="edge"><title>r16&#45;&gt;r16_intermediate_p</title>
<path fill="none" stroke="black" d="M1074.27,-250.147C1086.37,-253.724 1109.5,-260.556 1110.93,-260.979"/>
</g>
<!-- r16_intermediate_r&#45;&gt;r16 -->
<g id="edge126" class="edge"><title>r16_intermediate_r&#45;&gt;r16</title>
<path fill="none" stroke="black" d="M1023.13,-267.943C1025.02,-267.081 1047.79,-256.73 1059.76,-251.291"/>
</g>
<!-- r16_intermediate_p&#45;&gt;TF -->
<g id="edge132" class="edge"><title>r16_intermediate_p&#45;&gt;TF</title>
<path fill="none" stroke="black" d="M1111.05,-261.028C1111.92,-261.559 1124.94,-269.492 1139,-278.063"/>
<polygon fill="black" stroke="black" points="1137.43,-281.207 1147.79,-283.422 1141.08,-275.229 1137.43,-281.207"/>
</g>
<!-- r17 -->
<g id="node125" class="node"><title>r17</title>
<polygon fill="none" stroke="black" points="1074,-223 1060,-223 1060,-209 1074,-209 1074,-223"/>
</g>
<!-- r17_intermediate_p -->
<g id="node129" class="node"><title>r17_intermediate_p</title>
<ellipse fill="black" stroke="black" cx="1111" cy="-222" rx="0.036" ry="0.036"/>
</g>
<!-- r17&#45;&gt;r17_intermediate_p -->
<g id="edge138" class="edge"><title>r17&#45;&gt;r17_intermediate_p</title>
<path fill="none" stroke="black" d="M1074.27,-216.991C1086.37,-218.642 1109.5,-221.795 1110.93,-221.99"/>
</g>
<!-- r17&#45;&gt;r17_intermediate_m -->
<g id="edge142" class="edge"><title>r17&#45;&gt;r17_intermediate_m</title>
<path fill="none" stroke="black" d="M1077.09,-198.57C1089.6,-176.959 1109.47,-142.643 1110.92,-140.144"/>
<polygon fill="none" stroke="black" points="1077.07,-198.601 1077.53,-205.798 1071.06,-208.986 1070.61,-201.79 1077.07,-198.601"/>
</g>
<!-- r17_intermediate_r&#45;&gt;r17 -->
<g id="edge134" class="edge"><title>r17_intermediate_r&#45;&gt;r17</title>
<path fill="none" stroke="black" d="M1023.13,-249.902C1025.02,-248.438 1047.79,-230.841 1059.76,-221.595"/>
</g>
<!-- r17_intermediate_p&#45;&gt;TF -->
<g id="edge140" class="edge"><title>r17_intermediate_p&#45;&gt;TF</title>
<path fill="none" stroke="black" d="M1111.05,-222.057C1112.22,-223.486 1135.41,-251.747 1153.53,-273.831"/>
<polygon fill="black" stroke="black" points="1150.88,-276.116 1159.92,-281.626 1156.29,-271.675 1150.88,-276.116"/>
</g>
</g>
</svg>
