<?xml version="1.0" encoding="UTF-8" standalone="no"?>
<!DOCTYPE svg PUBLIC "-//W3C//DTD SVG 1.1//EN"
 "http://www.w3.org/Graphics/SVG/1.1/DTD/svg11.dtd">
<!-- Generated by graphviz version 2.24.0 (20090616.2323)
 -->
<!-- Title: G Pages: 1 -->
<svg width="996pt" height="245pt"
 viewBox="0.00 0.00 996.00 244.51" xmlns="http://www.w3.org/2000/svg" xmlns:xlink="http://www.w3.org/1999/xlink">
<g id="graph1" class="graph" transform="scale(1 1) rotate(0) translate(4 240.513)">
<title>G</title>
<polygon fill="white" stroke="white" points="-4,5 -4,-240.513 993,-240.513 993,5 -4,5"/>
<!-- stat_sol -->
<g id="node1" class="node"><title>stat_sol</title>
<polyline fill="none" stroke="black" points="50,-155.513 18,-155.513 "/>
<path fill="none" stroke="black" d="M18,-155.513C12,-155.513 6,-149.513 6,-143.513"/>
<polyline fill="none" stroke="black" points="6,-143.513 6,-131.513 "/>
<path fill="none" stroke="black" d="M6,-131.513C6,-125.513 12,-119.513 18,-119.513"/>
<polyline fill="none" stroke="black" points="18,-119.513 50,-119.513 "/>
<path fill="none" stroke="black" d="M50,-119.513C56,-119.513 62,-125.513 62,-131.513"/>
<polyline fill="none" stroke="black" points="62,-131.513 62,-143.513 "/>
<path fill="none" stroke="black" d="M62,-143.513C62,-149.513 56,-155.513 50,-155.513"/>
<text text-anchor="middle" x="34" y="-135.013" font-family="Times Roman,serif" font-size="10.00">stat_sol</text>
</g>
<!-- statPhosphorylation_intermediate_r -->
<g id="node28" class="node"><title>statPhosphorylation_intermediate_r</title>
<ellipse fill="black" stroke="black" cx="104" cy="-189.513" rx="0.036" ry="0.036"/>
</g>
<!-- stat_sol&#45;&gt;statPhosphorylation_intermediate_r -->
<g id="edge24" class="edge"><title>stat_sol&#45;&gt;statPhosphorylation_intermediate_r</title>
<path fill="none" stroke="black" d="M66.9419,-161.984C84.4433,-174.985 102.633,-188.498 103.927,-189.458"/>
<polygon fill="black" stroke="black" points="68.5972,-158.854 58.4826,-155.7 64.4229,-164.473 68.5972,-158.854"/>
</g>
<!-- stat_export_intermediate_r -->
<g id="node53" class="node"><title>stat_export_intermediate_r</title>
<ellipse fill="black" stroke="black" cx="104" cy="-137.513" rx="0.036" ry="0.036"/>
</g>
<!-- stat_sol&#45;&gt;stat_export_intermediate_r -->
<g id="edge54" class="edge"><title>stat_sol&#45;&gt;stat_export_intermediate_r</title>
<path fill="none" stroke="black" d="M73.0493,-137.513C88.4931,-137.513 102.871,-137.513 103.937,-137.513"/>
<polygon fill="black" stroke="black" points="72.8759,-134.013 62.8758,-137.513 72.8758,-141.013 72.8759,-134.013"/>
</g>
<!-- stat_import_intermediate_r -->
<g id="node60" class="node"><title>stat_import_intermediate_r</title>
<ellipse fill="black" stroke="black" cx="104" cy="-112.513" rx="0.036" ry="0.036"/>
</g>
<!-- stat_sol&#45;&gt;stat_import_intermediate_r -->
<g id="edge62" class="edge"><title>stat_sol&#45;&gt;stat_import_intermediate_r</title>
<path fill="none" stroke="black" d="M72.6078,-123.724C88.218,-118.149 102.861,-112.92 103.937,-112.535"/>
<polygon fill="black" stroke="black" points="71.116,-120.541 62.8758,-127.2 73.4704,-127.133 71.116,-120.541"/>
</g>
<!-- Pstat_sol -->
<g id="node2" class="node"><title>Pstat_sol</title>
<polyline fill="none" stroke="black" points="440,-236.513 402,-236.513 "/>
<path fill="none" stroke="black" d="M402,-236.513C396,-236.513 390,-230.513 390,-224.513"/>
<polyline fill="none" stroke="black" points="390,-224.513 390,-212.513 "/>
<path fill="none" stroke="black" d="M390,-212.513C390,-206.513 396,-200.513 402,-200.513"/>
<polyline fill="none" stroke="black" points="402,-200.513 440,-200.513 "/>
<path fill="none" stroke="black" d="M440,-200.513C446,-200.513 452,-206.513 452,-212.513"/>
<polyline fill="none" stroke="black" points="452,-212.513 452,-224.513 "/>
<path fill="none" stroke="black" d="M452,-224.513C452,-230.513 446,-236.513 440,-236.513"/>
<text text-anchor="middle" x="421" y="-216.013" font-family="Times Roman,serif" font-size="10.00">Pstat_sol</text>
</g>
<!-- PstatDimerisation_intermediate_r -->
<g id="node11" class="node"><title>PstatDimerisation_intermediate_r</title>
<ellipse fill="black" stroke="black" cx="508" cy="-215.513" rx="0.036" ry="0.036"/>
</g>
<!-- Pstat_sol&#45;&gt;PstatDimerisation_intermediate_r -->
<g id="edge4" class="edge"><title>Pstat_sol&#45;&gt;PstatDimerisation_intermediate_r</title>
<path fill="none" stroke="black" d="M462.971,-217.066C484.417,-216.326 506.359,-215.569 507.912,-215.516"/>
<polygon fill="black" stroke="black" points="462.775,-213.57 452.902,-217.413 463.016,-220.566 462.775,-213.57"/>
</g>
<!-- statKinase_sol -->
<g id="node3" class="node"><title>statKinase_sol</title>
<ellipse fill="none" stroke="black" cx="218" cy="-180.513" rx="54.9037" ry="18"/>
<text text-anchor="middle" x="218" y="-178.013" font-family="Times Roman,serif" font-size="10.00">statKinase_sol</text>
</g>
<!-- statPhosphorylation_intermediate_m -->
<g id="node35" class="node"><title>statPhosphorylation_intermediate_m</title>
<ellipse fill="black" stroke="black" cx="333" cy="-193.513" rx="0.036" ry="0.036"/>
</g>
<!-- statKinase_sol&#45;&gt;statPhosphorylation_intermediate_m -->
<g id="edge34" class="edge"><title>statKinase_sol&#45;&gt;statPhosphorylation_intermediate_m</title>
<path fill="none" stroke="black" d="M270.452,-186.442C299.834,-189.764 330.988,-193.285 332.907,-193.502"/>
</g>
<!-- PstatDimer_sol -->
<g id="node4" class="node"><title>PstatDimer_sol</title>
<polyline fill="none" stroke="black" points="714,-182.513 644,-182.513 "/>
<path fill="none" stroke="black" d="M644,-182.513C638,-182.513 632,-176.513 632,-170.513"/>
<polyline fill="none" stroke="black" points="632,-170.513 632,-158.513 "/>
<path fill="none" stroke="black" d="M632,-158.513C632,-152.513 638,-146.513 644,-146.513"/>
<polyline fill="none" stroke="black" points="644,-146.513 714,-146.513 "/>
<path fill="none" stroke="black" d="M714,-146.513C720,-146.513 726,-152.513 726,-158.513"/>
<polyline fill="none" stroke="black" points="726,-158.513 726,-170.513 "/>
<path fill="none" stroke="black" d="M726,-170.513C726,-176.513 720,-182.513 714,-182.513"/>
<text text-anchor="middle" x="679" y="-162.013" font-family="Times Roman,serif" font-size="10.00">PstatDimer_sol</text>
</g>
<!-- PstatDimer__import_intermediate_r -->
<g id="node46" class="node"><title>PstatDimer__import_intermediate_r</title>
<ellipse fill="black" stroke="black" cx="763" cy="-160.513" rx="0.036" ry="0.036"/>
</g>
<!-- PstatDimer_sol&#45;&gt;PstatDimer__import_intermediate_r -->
<g id="edge46" class="edge"><title>PstatDimer_sol&#45;&gt;PstatDimer__import_intermediate_r</title>
<path fill="none" stroke="black" d="M736.538,-161.773C750.688,-161.099 762.098,-160.556 762.949,-160.515"/>
<polygon fill="black" stroke="black" points="736.223,-158.284 726.401,-162.256 736.556,-165.276 736.223,-158.284"/>
</g>
<!-- PstatDimer_nuc -->
<g id="node5" class="node"><title>PstatDimer_nuc</title>
<polyline fill="none" stroke="black" points="975,-150.513 901,-150.513 "/>
<path fill="none" stroke="black" d="M901,-150.513C895,-150.513 889,-144.513 889,-138.513"/>
<polyline fill="none" stroke="black" points="889,-138.513 889,-126.513 "/>
<path fill="none" stroke="black" d="M889,-126.513C889,-120.513 895,-114.513 901,-114.513"/>
<polyline fill="none" stroke="black" points="901,-114.513 975,-114.513 "/>
<path fill="none" stroke="black" d="M975,-114.513C981,-114.513 987,-120.513 987,-126.513"/>
<polyline fill="none" stroke="black" points="987,-126.513 987,-138.513 "/>
<path fill="none" stroke="black" d="M987,-138.513C987,-144.513 981,-150.513 975,-150.513"/>
<text text-anchor="middle" x="938" y="-130.013" font-family="Times Roman,serif" font-size="10.00">PstatDimer_nuc</text>
</g>
<!-- stat_nuc -->
<g id="node6" class="node"><title>stat_nuc</title>
<polyline fill="none" stroke="black" points="439,-123.513 403,-123.513 "/>
<path fill="none" stroke="black" d="M403,-123.513C397,-123.513 391,-117.513 391,-111.513"/>
<polyline fill="none" stroke="black" points="391,-111.513 391,-99.5128 "/>
<path fill="none" stroke="black" d="M391,-99.5128C391,-93.5128 397,-87.5128 403,-87.5128"/>
<polyline fill="none" stroke="black" points="403,-87.5128 439,-87.5128 "/>
<path fill="none" stroke="black" d="M439,-87.5128C445,-87.5128 451,-93.5128 451,-99.5128"/>
<polyline fill="none" stroke="black" points="451,-99.5128 451,-111.513 "/>
<path fill="none" stroke="black" d="M451,-111.513C451,-117.513 445,-123.513 439,-123.513"/>
<text text-anchor="middle" x="421" y="-103.013" font-family="Times Roman,serif" font-size="10.00">stat_nuc</text>
</g>
<!-- Pstat_nuc -->
<g id="node7" class="node"><title>Pstat_nuc</title>
<polyline fill="none" stroke="black" points="56,-38.5128 12,-38.5128 "/>
<path fill="none" stroke="black" d="M12,-38.5128C6,-38.5128 2.96059e-14,-32.5128 2.36848e-14,-26.5128"/>
<polyline fill="none" stroke="black" points="2.36848e-14,-26.5128 1.18424e-14,-14.5128 "/>
<path fill="none" stroke="black" d="M1.18424e-14,-14.5128C5.92119e-15,-8.51285 6,-2.51285 12,-2.51285"/>
<polyline fill="none" stroke="black" points="12,-2.51285 56,-2.51285 "/>
<path fill="none" stroke="black" d="M56,-2.51285C62,-2.51285 68,-8.51285 68,-14.5128"/>
<polyline fill="none" stroke="black" points="68,-14.5128 68,-26.5128 "/>
<path fill="none" stroke="black" d="M68,-26.5128C68,-32.5128 62,-38.5128 56,-38.5128"/>
<text text-anchor="middle" x="34" y="-18.0128" font-family="Times Roman,serif" font-size="10.00">Pstat_nuc</text>
</g>
<!-- statDephosphorylation_intermediate_r -->
<g id="node18" class="node"><title>statDephosphorylation_intermediate_r</title>
<ellipse fill="black" stroke="black" cx="104" cy="-38.5128" rx="0.036" ry="0.036"/>
</g>
<!-- Pstat_nuc&#45;&gt;statDephosphorylation_intermediate_r -->
<g id="edge12" class="edge"><title>Pstat_nuc&#45;&gt;statDephosphorylation_intermediate_r</title>
<path fill="none" stroke="black" d="M78.1721,-31.8714C91.5954,-35.3231 103.082,-38.2768 103.948,-38.4994"/>
<polygon fill="black" stroke="black" points="78.7364,-28.4027 68.1798,-29.3019 76.993,-35.1821 78.7364,-28.4027"/>
</g>
<!-- PstatDimerisationNuc_intermediate_r -->
<g id="node39" class="node"><title>PstatDimerisationNuc_intermediate_r</title>
<ellipse fill="black" stroke="black" cx="104" cy="-2.51285" rx="0.036" ry="0.036"/>
</g>
<!-- Pstat_nuc&#45;&gt;PstatDimerisationNuc_intermediate_r -->
<g id="edge38" class="edge"><title>Pstat_nuc&#45;&gt;PstatDimerisationNuc_intermediate_r</title>
<path fill="none" stroke="black" d="M78.1721,-9.15431C91.5954,-5.7026 103.082,-2.74886 103.948,-2.5263"/>
<polygon fill="black" stroke="black" points="76.993,-5.84356 68.1798,-11.7238 78.7364,-12.623 76.993,-5.84356"/>
</g>
<!-- statPhosphatase_nuc -->
<g id="node8" class="node"><title>statPhosphatase_nuc</title>
<ellipse fill="none" stroke="black" cx="218" cy="-30.5128" rx="77.0636" ry="18"/>
<text text-anchor="middle" x="218" y="-28.0128" font-family="Times Roman,serif" font-size="10.00">statPhosphatase_nuc</text>
</g>
<!-- statDephosphorylation_intermediate_m -->
<g id="node24" class="node"><title>statDephosphorylation_intermediate_m</title>
<ellipse fill="black" stroke="black" cx="333" cy="-42.5128" rx="0.036" ry="0.036"/>
</g>
<!-- statPhosphatase_nuc&#45;&gt;statDephosphorylation_intermediate_m -->
<g id="edge20" class="edge"><title>statPhosphatase_nuc&#45;&gt;statDephosphorylation_intermediate_m</title>
<path fill="none" stroke="black" d="M288.867,-37.9077C311.793,-40.2999 331.718,-42.379 332.941,-42.5066"/>
</g>
<!-- species_test -->
<g id="node9" class="node"><title>species_test</title>
<ellipse fill="none" stroke="black" cx="421" cy="-164.513" rx="49.9784" ry="18"/>
<text text-anchor="middle" x="421" y="-162.013" font-family="Times Roman,serif" font-size="10.00">species_test</text>
</g>
<!-- PstatDimerisation -->
<g id="node10" class="node"><title>PstatDimerisation</title>
<polygon fill="none" stroke="black" points="558,-185.513 544,-185.513 544,-171.513 558,-171.513 558,-185.513"/>
</g>
<!-- PstatDimerisation_intermediate_p -->
<g id="node14" class="node"><title>PstatDimerisation_intermediate_p</title>
<ellipse fill="black" stroke="black" cx="595" cy="-169.513" rx="0.036" ry="0.036"/>
</g>
<!-- PstatDimerisation&#45;&gt;PstatDimerisation_intermediate_p -->
<g id="edge6" class="edge"><title>PstatDimerisation&#45;&gt;PstatDimerisation_intermediate_p</title>
<path fill="none" stroke="black" d="M558.266,-177.027C570.372,-174.55 593.497,-169.82 594.93,-169.527"/>
</g>
<!-- PstatDimerisation_intermediate_r&#45;&gt;PstatDimerisation -->
<g id="edge2" class="edge"><title>PstatDimerisation_intermediate_r&#45;&gt;PstatDimerisation</title>
<path fill="none" stroke="black" d="M508.123,-215.407C509.976,-213.813 532.231,-194.663 543.924,-184.602"/>
</g>
<!-- PstatDimerisation_intermediate_p&#45;&gt;PstatDimer_sol -->
<g id="edge8" class="edge"><title>PstatDimerisation_intermediate_p&#45;&gt;PstatDimer_sol</title>
<path fill="none" stroke="black" d="M595.061,-169.509C595.989,-169.454 607.422,-168.773 621.568,-167.931"/>
<polygon fill="black" stroke="black" points="621.924,-171.417 631.699,-167.328 621.508,-164.429 621.924,-171.417"/>
</g>
<!-- statDephosphorylation -->
<g id="node17" class="node"><title>statDephosphorylation</title>
<polygon fill="none" stroke="black" points="225,-80.5128 211,-80.5128 211,-66.5128 225,-66.5128 225,-80.5128"/>
</g>
<!-- statDephosphorylation_intermediate_p -->
<g id="node21" class="node"><title>statDephosphorylation_intermediate_p</title>
<ellipse fill="black" stroke="black" cx="333" cy="-80.5128" rx="0.036" ry="0.036"/>
</g>
<!-- statDephosphorylation&#45;&gt;statDephosphorylation_intermediate_p -->
<g id="edge14" class="edge"><title>statDephosphorylation&#45;&gt;statDephosphorylation_intermediate_p</title>
<path fill="none" stroke="black" d="M225.194,-73.9507C249.977,-75.4593 330.432,-80.3565 332.94,-80.5092"/>
</g>
<!-- statDephosphorylation&#45;&gt;statDephosphorylation_intermediate_m -->
<g id="edge18" class="edge"><title>statDephosphorylation&#45;&gt;statDephosphorylation_intermediate_m</title>
<path fill="none" stroke="black" d="M237.317,-70.5625C253.252,-67.8884 276.351,-63.4564 296,-57.5128 312.454,-52.5358 331.752,-43.1246 332.942,-42.5413"/>
<polygon fill="none" stroke="black" points="237.275,-70.569 231.978,-75.4617 225.424,-72.4537 230.721,-67.561 237.275,-70.569"/>
</g>
<!-- statDephosphorylation_intermediate_r&#45;&gt;statDephosphorylation -->
<g id="edge10" class="edge"><title>statDephosphorylation_intermediate_r&#45;&gt;statDephosphorylation</title>
<path fill="none" stroke="black" d="M104.055,-38.55C105.184,-39.3124 123.5,-51.6025 140,-57.5128 165.247,-66.5566 197.023,-71.0819 210.933,-72.7434"/>
</g>
<!-- statDephosphorylation_intermediate_p&#45;&gt;stat_nuc -->
<g id="edge16" class="edge"><title>statDephosphorylation_intermediate_p&#45;&gt;stat_nuc</title>
<path fill="none" stroke="black" d="M333.064,-80.531C334.442,-80.9225 357.918,-87.5919 380.265,-93.9404"/>
<polygon fill="black" stroke="black" points="379.461,-97.3503 390.036,-96.7164 381.374,-90.6167 379.461,-97.3503"/>
</g>
<!-- statPhosphorylation -->
<g id="node27" class="node"><title>statPhosphorylation</title>
<polygon fill="none" stroke="black" points="225,-230.513 211,-230.513 211,-216.513 225,-216.513 225,-230.513"/>
</g>
<!-- statPhosphorylation_intermediate_p -->
<g id="node31" class="node"><title>statPhosphorylation_intermediate_p</title>
<ellipse fill="black" stroke="black" cx="333" cy="-218.513" rx="0.036" ry="0.036"/>
</g>
<!-- statPhosphorylation&#45;&gt;statPhosphorylation_intermediate_p -->
<g id="edge26" class="edge"><title>statPhosphorylation&#45;&gt;statPhosphorylation_intermediate_p</title>
<path fill="none" stroke="black" d="M225.194,-223.2C249.977,-222.123 330.432,-218.625 332.94,-218.515"/>
</g>
<!-- statPhosphorylation&#45;&gt;statPhosphorylation_intermediate_m -->
<g id="edge32" class="edge"><title>statPhosphorylation&#45;&gt;statPhosphorylation_intermediate_m</title>
<path fill="none" stroke="black" d="M237.281,-220.44C253.194,-217.695 276.283,-213.226 296,-207.513 312.36,-202.773 331.746,-194.078 332.942,-193.539"/>
<polygon fill="none" stroke="black" points="237.248,-220.446 231.978,-225.369 225.408,-222.398 230.677,-217.475 237.248,-220.446"/>
</g>
<!-- statPhosphorylation_intermediate_r&#45;&gt;statPhosphorylation -->
<g id="edge22" class="edge"><title>statPhosphorylation_intermediate_r&#45;&gt;statPhosphorylation</title>
<path fill="none" stroke="black" d="M104.055,-189.548C105.191,-190.266 123.622,-201.848 140,-207.513 165.345,-216.279 197.07,-220.947 210.951,-222.694"/>
</g>
<!-- statPhosphorylation_intermediate_p&#45;&gt;Pstat_sol -->
<g id="edge28" class="edge"><title>statPhosphorylation_intermediate_p&#45;&gt;Pstat_sol</title>
<path fill="none" stroke="black" d="M333.064,-218.513C334.412,-218.513 356.896,-218.513 378.788,-218.513"/>
<polygon fill="black" stroke="black" points="379.059,-222.013 389.059,-218.513 379.059,-215.013 379.059,-222.013"/>
</g>
<!-- statPhosphorylation_intermediate_p&#45;&gt;species_test -->
<g id="edge30" class="edge"><title>statPhosphorylation_intermediate_p&#45;&gt;species_test</title>
<path fill="none" stroke="black" d="M333.057,-218.466C334.231,-217.505 353.277,-201.966 370,-191.513 374.035,-188.991 378.329,-186.475 382.646,-184.05"/>
<polygon fill="black" stroke="black" points="384.371,-187.096 391.466,-179.227 381.012,-180.954 384.371,-187.096"/>
</g>
<!-- PstatDimerisationNuc -->
<g id="node38" class="node"><title>PstatDimerisationNuc</title>
<polygon fill="none" stroke="black" points="428,-30.5128 414,-30.5128 414,-16.5128 428,-16.5128 428,-30.5128"/>
</g>
<!-- PstatDimerisationNuc_intermediate_p -->
<g id="node42" class="node"><title>PstatDimerisationNuc_intermediate_p</title>
<ellipse fill="black" stroke="black" cx="508" cy="-97.5128" rx="0.036" ry="0.036"/>
</g>
<!-- PstatDimerisationNuc&#45;&gt;PstatDimerisationNuc_intermediate_p -->
<g id="edge40" class="edge"><title>PstatDimerisationNuc&#45;&gt;PstatDimerisationNuc_intermediate_p</title>
<path fill="none" stroke="black" d="M428.12,-29.5686C448.248,-46.6896 504.344,-94.4027 507.83,-97.3681"/>
</g>
<!-- PstatDimerisationNuc_intermediate_r&#45;&gt;PstatDimerisationNuc -->
<g id="edge36" class="edge"><title>PstatDimerisationNuc_intermediate_r&#45;&gt;PstatDimerisationNuc</title>
<path fill="none" stroke="black" d="M104.078,-2.50854C107.337,-2.32902 212.281,3.36182 296,-3.51285 341.341,-7.23602 395.085,-18.0146 413.998,-22.0044"/>
</g>
<!-- PstatDimerisationNuc_intermediate_p&#45;&gt;PstatDimer_nuc -->
<g id="edge42" class="edge"><title>PstatDimerisationNuc_intermediate_p&#45;&gt;PstatDimer_nuc</title>
<path fill="none" stroke="black" d="M508.137,-97.5674C510.956,-98.6818 556.659,-116.513 595,-116.513 595,-116.513 595,-116.513 807,-116.513 830.445,-116.513 856.078,-119.069 878.404,-122.138"/>
<polygon fill="black" stroke="black" points="878.013,-125.618 888.409,-123.577 879.009,-118.689 878.013,-125.618"/>
</g>
<!-- PstatDimer__import -->
<g id="node45" class="node"><title>PstatDimer__import</title>
<polygon fill="none" stroke="black" points="814,-161.513 800,-161.513 800,-147.513 814,-147.513 814,-161.513"/>
</g>
<!-- PstatDimer__import_intermediate_p -->
<g id="node49" class="node"><title>PstatDimer__import_intermediate_p</title>
<ellipse fill="black" stroke="black" cx="851" cy="-149.513" rx="0.036" ry="0.036"/>
</g>
<!-- PstatDimer__import&#45;&gt;PstatDimer__import_intermediate_p -->
<g id="edge48" class="edge"><title>PstatDimer__import&#45;&gt;PstatDimer__import_intermediate_p</title>
<path fill="none" stroke="black" d="M814.266,-153.687C826.372,-152.311 849.497,-149.684 850.93,-149.521"/>
</g>
<!-- PstatDimer__import_intermediate_r&#45;&gt;PstatDimer__import -->
<g id="edge44" class="edge"><title>PstatDimer__import_intermediate_r&#45;&gt;PstatDimer__import</title>
<path fill="none" stroke="black" d="M763.126,-160.496C765.022,-160.237 787.795,-157.132 799.759,-155.5"/>
</g>
<!-- PstatDimer__import_intermediate_p&#45;&gt;PstatDimer_nuc -->
<g id="edge50" class="edge"><title>PstatDimer__import_intermediate_p&#45;&gt;PstatDimer_nuc</title>
<path fill="none" stroke="black" d="M851.063,-149.501C852.017,-149.314 863.678,-147.035 878.168,-144.204"/>
<polygon fill="black" stroke="black" points="878.871,-147.633 888.014,-142.28 877.528,-140.763 878.871,-147.633"/>
</g>
<!-- stat_export -->
<g id="node52" class="node"><title>stat_export</title>
<polygon fill="none" stroke="black" points="225,-144.513 211,-144.513 211,-130.513 225,-130.513 225,-144.513"/>
</g>
<!-- stat_export_intermediate_p -->
<g id="node56" class="node"><title>stat_export_intermediate_p</title>
<ellipse fill="black" stroke="black" cx="333" cy="-130.513" rx="0.036" ry="0.036"/>
</g>
<!-- stat_export&#45;&gt;stat_export_intermediate_p -->
<g id="edge56" class="edge"><title>stat_export&#45;&gt;stat_export_intermediate_p</title>
<path fill="none" stroke="black" d="M225.194,-137.075C249.977,-135.566 330.432,-130.669 332.94,-130.516"/>
</g>
<!-- stat_export_intermediate_r&#45;&gt;stat_export -->
<g id="edge52" class="edge"><title>stat_export_intermediate_r&#45;&gt;stat_export</title>
<path fill="none" stroke="black" d="M104.083,-137.513C106.995,-137.513 186.092,-137.513 210.739,-137.513"/>
</g>
<!-- stat_export_intermediate_p&#45;&gt;stat_nuc -->
<g id="edge58" class="edge"><title>stat_export_intermediate_p&#45;&gt;stat_nuc</title>
<path fill="none" stroke="black" d="M333.064,-130.495C334.442,-130.103 357.918,-123.434 380.265,-117.085"/>
<polygon fill="black" stroke="black" points="381.374,-120.409 390.036,-114.309 379.461,-113.675 381.374,-120.409"/>
</g>
<!-- stat_import -->
<g id="node59" class="node"><title>stat_import</title>
<polygon fill="none" stroke="black" points="225,-112.513 211,-112.513 211,-98.5128 225,-98.5128 225,-112.513"/>
</g>
<!-- stat_import_intermediate_p -->
<g id="node63" class="node"><title>stat_import_intermediate_p</title>
<ellipse fill="black" stroke="black" cx="333" cy="-105.513" rx="0.036" ry="0.036"/>
</g>
<!-- stat_import&#45;&gt;stat_import_intermediate_p -->
<g id="edge64" class="edge"><title>stat_import&#45;&gt;stat_import_intermediate_p</title>
<path fill="none" stroke="black" d="M225.194,-105.513C249.977,-105.513 330.432,-105.513 332.94,-105.513"/>
</g>
<!-- stat_import_intermediate_r&#45;&gt;stat_import -->
<g id="edge60" class="edge"><title>stat_import_intermediate_r&#45;&gt;stat_import</title>
<path fill="none" stroke="black" d="M104.083,-112.508C106.995,-112.329 186.092,-107.472 210.739,-105.959"/>
</g>
<!-- stat_import_intermediate_p&#45;&gt;stat_nuc -->
<g id="edge66" class="edge"><title>stat_import_intermediate_p&#45;&gt;stat_nuc</title>
<path fill="none" stroke="black" d="M333.064,-105.513C334.436,-105.513 357.708,-105.513 379.964,-105.513"/>
<polygon fill="black" stroke="black" points="380.036,-109.013 390.036,-105.513 380.036,-102.013 380.036,-109.013"/>
</g>
</g>
</svg>
