<?xml version="1.0" encoding="UTF-8" standalone="no"?>
<!DOCTYPE svg PUBLIC "-//W3C//DTD SVG 1.1//EN"
 "http://www.w3.org/Graphics/SVG/1.1/DTD/svg11.dtd">
<!-- Generated by graphviz version 2.24.0 (20090616.2323)
 -->
<!-- Title: G Pages: 1 -->
<svg width="1594pt" height="230pt"
 viewBox="0.00 0.00 1594.00 230.00" xmlns="http://www.w3.org/2000/svg" xmlns:xlink="http://www.w3.org/1999/xlink">
<g id="graph1" class="graph" transform="scale(1 1) rotate(0) translate(4 226)">
<title>G</title>
<polygon fill="white" stroke="white" points="-4,5 -4,-226 1591,-226 1591,5 -4,5"/>
<!-- S -->
<g id="node1" class="node"><title>S</title>
<ellipse fill="none" stroke="black" cx="27" cy="-194" rx="27" ry="18"/>
<text text-anchor="middle" x="27" y="-191.5" font-family="Times Roman,serif" font-size="10.00">S</text>
</g>
<!-- reaction1_intermediate_r -->
<g id="node13" class="node"><title>reaction1_intermediate_r</title>
<ellipse fill="black" stroke="black" cx="90" cy="-194" rx="0.036" ry="0.036"/>
</g>
<!-- S&#45;&gt;reaction1_intermediate_r -->
<g id="edge4" class="edge"><title>S&#45;&gt;reaction1_intermediate_r</title>
<path fill="none" stroke="black" d="M64.2115,-194C77.3137,-194 89.0519,-194 89.9454,-194"/>
<polygon fill="black" stroke="black" points="64.0833,-190.5 54.0833,-194 64.0833,-197.5 64.0833,-190.5"/>
</g>
<!-- U -->
<g id="node2" class="node"><title>U</title>
<ellipse fill="none" stroke="black" cx="945" cy="-84" rx="27" ry="18"/>
<text text-anchor="middle" x="945" y="-81.5" font-family="Times Roman,serif" font-size="10.00">U</text>
</g>
<!-- reaction6_intermediate_r -->
<g id="node51" class="node"><title>reaction6_intermediate_r</title>
<ellipse fill="black" stroke="black" cx="1009" cy="-138" rx="0.036" ry="0.036"/>
</g>
<!-- U&#45;&gt;reaction6_intermediate_r -->
<g id="edge50" class="edge"><title>U&#45;&gt;reaction6_intermediate_r</title>
<path fill="none" stroke="black" d="M969.514,-104.684C986.925,-119.374 1007.47,-136.707 1008.92,-137.931"/>
<polygon fill="black" stroke="black" points="971.715,-101.962 961.815,-98.1879 967.201,-107.312 971.715,-101.962"/>
</g>
<!-- reaction9_intermediate_r -->
<g id="node73" class="node"><title>reaction9_intermediate_r</title>
<ellipse fill="black" stroke="black" cx="1009" cy="-84" rx="0.036" ry="0.036"/>
</g>
<!-- U&#45;&gt;reaction9_intermediate_r -->
<g id="edge76" class="edge"><title>U&#45;&gt;reaction9_intermediate_r</title>
<path fill="none" stroke="black" d="M982.505,-84C995.931,-84 1008.02,-84 1008.94,-84"/>
<polygon fill="black" stroke="black" points="982.142,-80.5001 972.142,-84 982.142,-87.5001 982.142,-80.5001"/>
</g>
<!-- T -->
<g id="node3" class="node"><title>T</title>
<ellipse fill="none" stroke="black" cx="241" cy="-160" rx="27" ry="18"/>
<text text-anchor="middle" x="241" y="-157.5" font-family="Times Roman,serif" font-size="10.00">T</text>
</g>
<!-- reaction2_intermediate_r -->
<g id="node21" class="node"><title>reaction2_intermediate_r</title>
<ellipse fill="black" stroke="black" cx="305" cy="-141" rx="0.036" ry="0.036"/>
</g>
<!-- T&#45;&gt;reaction2_intermediate_r -->
<g id="edge14" class="edge"><title>T&#45;&gt;reaction2_intermediate_r</title>
<path fill="none" stroke="black" d="M275.884,-149.644C290.295,-145.365 303.919,-141.321 304.939,-141.018"/>
<polygon fill="black" stroke="black" points="274.518,-146.398 265.927,-152.6 276.51,-153.109 274.518,-146.398"/>
</g>
<!-- STU -->
<g id="node4" class="node"><title>STU</title>
<ellipse fill="none" stroke="black" cx="1383" cy="-174" rx="27" ry="18"/>
<text text-anchor="middle" x="1383" y="-171.5" font-family="Times Roman,serif" font-size="10.00">STU</text>
</g>
<!-- STU&#45;&gt;reaction1_intermediate_r -->
<g id="edge6" class="edge"><title>STU&#45;&gt;reaction1_intermediate_r</title>
<path fill="none" stroke="black" d="M1356.58,-193.178C1335.55,-206.548 1304.8,-222 1275,-222 177,-222 177,-222 177,-222 137.649,-222 92.8931,-195.723 90.1343,-194.08"/>
<polygon fill="black" stroke="black" points="1358.56,-196.065 1364.97,-187.626 1354.7,-190.228 1358.56,-196.065"/>
</g>
<!-- reaction4_intermediate_r -->
<g id="node37" class="node"><title>reaction4_intermediate_r</title>
<ellipse fill="black" stroke="black" cx="1446" cy="-174" rx="0.036" ry="0.036"/>
</g>
<!-- STU&#45;&gt;reaction4_intermediate_r -->
<g id="edge34" class="edge"><title>STU&#45;&gt;reaction4_intermediate_r</title>
<path fill="none" stroke="black" d="M1410.08,-174C1426.62,-174 1444.82,-174 1445.95,-174"/>
</g>
<!-- STUS -->
<g id="node5" class="node"><title>STUS</title>
<ellipse fill="none" stroke="black" cx="241" cy="-106" rx="27" ry="18"/>
<text text-anchor="middle" x="241" y="-103.5" font-family="Times Roman,serif" font-size="10.00">STUS</text>
</g>
<!-- STUS&#45;&gt;reaction2_intermediate_r -->
<g id="edge16" class="edge"><title>STUS&#45;&gt;reaction2_intermediate_r</title>
<path fill="none" stroke="black" d="M271.168,-122.498C287.138,-131.232 303.719,-140.3 304.929,-140.961"/>
<polygon fill="black" stroke="black" points="272.409,-119.188 261.956,-117.46 269.05,-125.329 272.409,-119.188"/>
</g>
<!-- STUS&#45;&gt;reaction9_intermediate_r -->
<g id="edge78" class="edge"><title>STUS&#45;&gt;reaction9_intermediate_r</title>
<path fill="none" stroke="black" d="M257.83,-81.1151C276.8,-56.3473 310.115,-22 349,-22 349,-22 349,-22 785,-22 869.554,-22 894.377,-23.4733 972,-57 990.105,-64.8196 1007.86,-82.8276 1008.95,-83.9455"/>
<polygon fill="black" stroke="black" points="254.839,-79.2749 251.733,-89.4043 260.478,-83.4225 254.839,-79.2749"/>
</g>
<!-- STUST -->
<g id="node6" class="node"><title>STUST</title>
<ellipse fill="none" stroke="black" cx="459" cy="-141" rx="28.9326" ry="18"/>
<text text-anchor="middle" x="459" y="-138.5" font-family="Times Roman,serif" font-size="10.00">STUST</text>
</g>
<!-- reaction3_intermediate_r -->
<g id="node29" class="node"><title>reaction3_intermediate_r</title>
<ellipse fill="black" stroke="black" cx="525" cy="-141" rx="0.036" ry="0.036"/>
</g>
<!-- STUST&#45;&gt;reaction3_intermediate_r -->
<g id="edge24" class="edge"><title>STUST&#45;&gt;reaction3_intermediate_r</title>
<path fill="none" stroke="black" d="M498.197,-141C511.845,-141 524.026,-141 524.944,-141"/>
<polygon fill="black" stroke="black" points="498.141,-137.5 488.141,-141 498.141,-144.5 498.141,-137.5"/>
</g>
<!-- STUSU -->
<g id="node7" class="node"><title>STUSU</title>
<ellipse fill="none" stroke="black" cx="1164" cy="-84" rx="29.0474" ry="18"/>
<text text-anchor="middle" x="1164" y="-81.5" font-family="Times Roman,serif" font-size="10.00">STUSU</text>
</g>
<!-- reaction10_intermediate_r -->
<g id="node81" class="node"><title>reaction10_intermediate_r</title>
<ellipse fill="black" stroke="black" cx="1231" cy="-89" rx="0.036" ry="0.036"/>
</g>
<!-- STUSU&#45;&gt;reaction10_intermediate_r -->
<g id="edge86" class="edge"><title>STUSU&#45;&gt;reaction10_intermediate_r</title>
<path fill="none" stroke="black" d="M1203.79,-86.9695C1217.65,-88.0034 1230.01,-88.9262 1230.94,-88.9958"/>
<polygon fill="black" stroke="black" points="1203.81,-83.4616 1193.58,-86.2076 1203.29,-90.4422 1203.81,-83.4616"/>
</g>
<!-- SU -->
<g id="node8" class="node"><title>SU</title>
<ellipse fill="none" stroke="black" cx="1383" cy="-110" rx="27" ry="18"/>
<text text-anchor="middle" x="1383" y="-107.5" font-family="Times Roman,serif" font-size="10.00">SU</text>
</g>
<!-- reaction5_intermediate_r -->
<g id="node43" class="node"><title>reaction5_intermediate_r</title>
<ellipse fill="black" stroke="black" cx="741" cy="-126" rx="0.036" ry="0.036"/>
</g>
<!-- SU&#45;&gt;reaction5_intermediate_r -->
<g id="edge40" class="edge"><title>SU&#45;&gt;reaction5_intermediate_r</title>
<path fill="none" stroke="black" d="M1371.14,-83.2821C1354.66,-50.7238 1321.53,-0 1275,-0 1009,-0 1009,-0 1009,-0 961.277,-3.55271e-15 954.928,-26.7696 918,-57 899.998,-71.7368 902.254,-83.5533 882,-95 827.013,-126.077 743.653,-126.01 741.062,-126"/>
<polygon fill="black" stroke="black" points="1368.02,-84.8587 1375.53,-92.3266 1374.32,-81.802 1368.02,-84.8587"/>
</g>
<!-- reaction8_intermediate_r -->
<g id="node67" class="node"><title>reaction8_intermediate_r</title>
<ellipse fill="black" stroke="black" cx="1446" cy="-110" rx="0.036" ry="0.036"/>
</g>
<!-- SU&#45;&gt;reaction8_intermediate_r -->
<g id="edge70" class="edge"><title>SU&#45;&gt;reaction8_intermediate_r</title>
<path fill="none" stroke="black" d="M1410.08,-110C1426.62,-110 1444.82,-110 1445.95,-110"/>
</g>
<!-- ST -->
<g id="node9" class="node"><title>ST</title>
<ellipse fill="none" stroke="black" cx="677" cy="-126" rx="27" ry="18"/>
<text text-anchor="middle" x="677" y="-123.5" font-family="Times Roman,serif" font-size="10.00">ST</text>
</g>
<!-- ST&#45;&gt;reaction5_intermediate_r -->
<g id="edge42" class="edge"><title>ST&#45;&gt;reaction5_intermediate_r</title>
<path fill="none" stroke="black" d="M714.505,-126C727.931,-126 740.023,-126 740.944,-126"/>
<polygon fill="black" stroke="black" points="714.142,-122.5 704.142,-126 714.142,-129.5 714.142,-122.5"/>
</g>
<!-- reaction11_intermediate_r -->
<g id="node89" class="node"><title>reaction11_intermediate_r</title>
<ellipse fill="black" stroke="black" cx="741" cy="-90" rx="0.036" ry="0.036"/>
</g>
<!-- ST&#45;&gt;reaction11_intermediate_r -->
<g id="edge96" class="edge"><title>ST&#45;&gt;reaction11_intermediate_r</title>
<path fill="none" stroke="black" d="M697.956,-114.212C716.038,-104.041 739.482,-90.8539 740.929,-90.0397"/>
</g>
<!-- SUST -->
<g id="node10" class="node"><title>SUST</title>
<ellipse fill="none" stroke="black" cx="945" cy="-138" rx="27" ry="18"/>
<text text-anchor="middle" x="945" y="-135.5" font-family="Times Roman,serif" font-size="10.00">SUST</text>
</g>
<!-- SUST&#45;&gt;reaction6_intermediate_r -->
<g id="edge52" class="edge"><title>SUST&#45;&gt;reaction6_intermediate_r</title>
<path fill="none" stroke="black" d="M982.505,-138C995.931,-138 1008.02,-138 1008.94,-138"/>
<polygon fill="black" stroke="black" points="982.142,-134.5 972.142,-138 982.142,-141.5 982.142,-134.5"/>
</g>
<!-- SUSTU -->
<g id="node11" class="node"><title>SUSTU</title>
<ellipse fill="none" stroke="black" cx="1164" cy="-138" rx="29.0474" ry="18"/>
<text text-anchor="middle" x="1164" y="-135.5" font-family="Times Roman,serif" font-size="10.00">SUSTU</text>
</g>
<!-- reaction7_intermediate_r -->
<g id="node59" class="node"><title>reaction7_intermediate_r</title>
<ellipse fill="black" stroke="black" cx="1231" cy="-138" rx="0.036" ry="0.036"/>
</g>
<!-- SUSTU&#45;&gt;reaction7_intermediate_r -->
<g id="edge60" class="edge"><title>SUSTU&#45;&gt;reaction7_intermediate_r</title>
<path fill="none" stroke="black" d="M1203.79,-138C1217.65,-138 1230.01,-138 1230.94,-138"/>
<polygon fill="black" stroke="black" points="1203.58,-134.5 1193.58,-138 1203.58,-141.5 1203.58,-134.5"/>
</g>
<!-- reaction1 -->
<g id="node12" class="node"><title>reaction1</title>
<polygon fill="none" stroke="black" points="140,-174 126,-174 126,-160 140,-160 140,-174"/>
</g>
<!-- reaction1_intermediate_p -->
<g id="node17" class="node"><title>reaction1_intermediate_p</title>
<ellipse fill="black" stroke="black" cx="177" cy="-127" rx="0.036" ry="0.036"/>
</g>
<!-- reaction1&#45;&gt;reaction1_intermediate_p -->
<g id="edge8" class="edge"><title>reaction1&#45;&gt;reaction1_intermediate_p</title>
<path fill="none" stroke="black" d="M140.266,-160.395C152.372,-149.389 175.497,-128.367 176.93,-127.064"/>
</g>
<!-- reaction1_intermediate_r&#45;&gt;reaction1 -->
<g id="edge2" class="edge"><title>reaction1_intermediate_r&#45;&gt;reaction1</title>
<path fill="none" stroke="black" d="M90.1234,-193.923C91.9756,-192.76 114.231,-178.785 125.924,-171.443"/>
</g>
<!-- reaction1_intermediate_p&#45;&gt;STUS -->
<g id="edge10" class="edge"><title>reaction1_intermediate_p&#45;&gt;STUS</title>
<path fill="none" stroke="black" d="M177.046,-126.985C177.959,-126.685 192.202,-122.012 207.014,-117.152"/>
<polygon fill="black" stroke="black" points="208.286,-120.418 216.696,-113.975 206.103,-113.767 208.286,-120.418"/>
</g>
<!-- reaction2 -->
<g id="node20" class="node"><title>reaction2</title>
<polygon fill="none" stroke="black" points="356,-148 342,-148 342,-134 356,-134 356,-148"/>
</g>
<!-- reaction2_intermediate_p -->
<g id="node25" class="node"><title>reaction2_intermediate_p</title>
<ellipse fill="black" stroke="black" cx="393" cy="-141" rx="0.036" ry="0.036"/>
</g>
<!-- reaction2&#45;&gt;reaction2_intermediate_p -->
<g id="edge18" class="edge"><title>reaction2&#45;&gt;reaction2_intermediate_p</title>
<path fill="none" stroke="black" d="M356.266,-141C368.372,-141 391.497,-141 392.93,-141"/>
</g>
<!-- reaction2_intermediate_r&#45;&gt;reaction2 -->
<g id="edge12" class="edge"><title>reaction2_intermediate_r&#45;&gt;reaction2</title>
<path fill="none" stroke="black" d="M305.126,-141C307.022,-141 329.795,-141 341.759,-141"/>
</g>
<!-- reaction2_intermediate_p&#45;&gt;STUST -->
<g id="edge20" class="edge"><title>reaction2_intermediate_p&#45;&gt;STUST</title>
<path fill="none" stroke="black" d="M393.048,-141C393.902,-141 406.079,-141 419.741,-141"/>
<polygon fill="black" stroke="black" points="419.811,-144.5 429.811,-141 419.811,-137.5 419.811,-144.5"/>
</g>
<!-- reaction3 -->
<g id="node28" class="node"><title>reaction3</title>
<polygon fill="none" stroke="black" points="576,-148 562,-148 562,-134 576,-134 576,-148"/>
</g>
<!-- reaction3_intermediate_p -->
<g id="node32" class="node"><title>reaction3_intermediate_p</title>
<ellipse fill="black" stroke="black" cx="613" cy="-141" rx="0.036" ry="0.036"/>
</g>
<!-- reaction3&#45;&gt;reaction3_intermediate_p -->
<g id="edge26" class="edge"><title>reaction3&#45;&gt;reaction3_intermediate_p</title>
<path fill="none" stroke="black" d="M576.266,-141C588.372,-141 611.497,-141 612.93,-141"/>
</g>
<!-- reaction3_intermediate_r&#45;&gt;reaction3 -->
<g id="edge22" class="edge"><title>reaction3_intermediate_r&#45;&gt;reaction3</title>
<path fill="none" stroke="black" d="M525.126,-141C527.022,-141 549.795,-141 561.759,-141"/>
</g>
<!-- reaction3_intermediate_p&#45;&gt;STU -->
<g id="edge30" class="edge"><title>reaction3_intermediate_p&#45;&gt;STU</title>
<path fill="none" stroke="black" d="M613.05,-141.031C615.123,-142.333 681.925,-184 741,-184 741,-184 741,-184 1275,-184 1298.84,-184 1325.52,-181.554 1346.39,-179.081"/>
<polygon fill="black" stroke="black" points="1346.94,-182.54 1356.43,-177.838 1346.08,-175.594 1346.94,-182.54"/>
</g>
<!-- reaction3_intermediate_p&#45;&gt;ST -->
<g id="edge28" class="edge"><title>reaction3_intermediate_p&#45;&gt;ST</title>
<path fill="none" stroke="black" d="M613.046,-140.989C613.926,-140.783 627.181,-137.676 641.396,-134.345"/>
<polygon fill="black" stroke="black" points="642.314,-137.725 651.251,-132.035 640.716,-130.909 642.314,-137.725"/>
</g>
<!-- reaction4 -->
<g id="node36" class="node"><title>reaction4</title>
<polygon fill="none" stroke="black" points="1496,-181 1482,-181 1482,-167 1496,-167 1496,-181"/>
</g>
<!-- reaction4_empty -->
<g id="node40" class="node"><title>reaction4_empty</title>
<text text-anchor="middle" x="1559" y="-169.5" font-family="Times Roman,serif" font-size="15.00" fill="blue">Ø</text>
</g>
<!-- reaction4&#45;&gt;reaction4_empty -->
<g id="edge36" class="edge"><title>reaction4&#45;&gt;reaction4_empty</title>
<path fill="none" stroke="black" d="M1496.23,-174C1502.45,-174 1511.94,-174 1521.67,-174"/>
<polygon fill="black" stroke="black" points="1521.77,-177.5 1531.77,-174 1521.77,-170.5 1521.77,-177.5"/>
</g>
<!-- reaction4_intermediate_r&#45;&gt;reaction4 -->
<g id="edge32" class="edge"><title>reaction4_intermediate_r&#45;&gt;reaction4</title>
<path fill="none" stroke="black" d="M1446.12,-174C1447.98,-174 1470.23,-174 1481.92,-174"/>
</g>
<!-- reaction5 -->
<g id="node42" class="node"><title>reaction5</title>
<polygon fill="none" stroke="black" points="792,-156 778,-156 778,-142 792,-142 792,-156"/>
</g>
<!-- reaction5_intermediate_p -->
<g id="node47" class="node"><title>reaction5_intermediate_p</title>
<ellipse fill="black" stroke="black" cx="855" cy="-145" rx="0.036" ry="0.036"/>
</g>
<!-- reaction5&#45;&gt;reaction5_intermediate_p -->
<g id="edge44" class="edge"><title>reaction5&#45;&gt;reaction5_intermediate_p</title>
<path fill="none" stroke="black" d="M792.228,-148.587C809.554,-147.597 852.221,-145.159 854.871,-145.007"/>
</g>
<!-- reaction5_intermediate_r&#45;&gt;reaction5 -->
<g id="edge38" class="edge"><title>reaction5_intermediate_r&#45;&gt;reaction5</title>
<path fill="none" stroke="black" d="M741.126,-126.066C743.022,-127.057 765.795,-138.961 777.759,-145.215"/>
</g>
<!-- reaction5_intermediate_p&#45;&gt;SUST -->
<g id="edge46" class="edge"><title>reaction5_intermediate_p&#45;&gt;SUST</title>
<path fill="none" stroke="black" d="M855.065,-144.995C856.565,-144.878 883.648,-142.772 907.704,-140.901"/>
<polygon fill="black" stroke="black" points="908.047,-144.385 917.745,-140.12 907.504,-137.406 908.047,-144.385"/>
</g>
<!-- reaction6 -->
<g id="node50" class="node"><title>reaction6</title>
<polygon fill="none" stroke="black" points="1060,-145 1046,-145 1046,-131 1060,-131 1060,-145"/>
</g>
<!-- reaction6_intermediate_p -->
<g id="node55" class="node"><title>reaction6_intermediate_p</title>
<ellipse fill="black" stroke="black" cx="1097" cy="-138" rx="0.036" ry="0.036"/>
</g>
<!-- reaction6&#45;&gt;reaction6_intermediate_p -->
<g id="edge54" class="edge"><title>reaction6&#45;&gt;reaction6_intermediate_p</title>
<path fill="none" stroke="black" d="M1060.27,-138C1072.37,-138 1095.5,-138 1096.93,-138"/>
</g>
<!-- reaction6_intermediate_r&#45;&gt;reaction6 -->
<g id="edge48" class="edge"><title>reaction6_intermediate_r&#45;&gt;reaction6</title>
<path fill="none" stroke="black" d="M1009.13,-138C1011.02,-138 1033.79,-138 1045.76,-138"/>
</g>
<!-- reaction6_intermediate_p&#45;&gt;SUSTU -->
<g id="edge56" class="edge"><title>reaction6_intermediate_p&#45;&gt;SUSTU</title>
<path fill="none" stroke="black" d="M1097.05,-138C1097.92,-138 1110.28,-138 1124.15,-138"/>
<polygon fill="black" stroke="black" points="1124.37,-141.5 1134.37,-138 1124.37,-134.5 1124.37,-141.5"/>
</g>
<!-- reaction7 -->
<g id="node58" class="node"><title>reaction7</title>
<polygon fill="none" stroke="black" points="1282,-145 1268,-145 1268,-131 1282,-131 1282,-145"/>
</g>
<!-- reaction7_intermediate_p -->
<g id="node62" class="node"><title>reaction7_intermediate_p</title>
<ellipse fill="black" stroke="black" cx="1319" cy="-138" rx="0.036" ry="0.036"/>
</g>
<!-- reaction7&#45;&gt;reaction7_intermediate_p -->
<g id="edge62" class="edge"><title>reaction7&#45;&gt;reaction7_intermediate_p</title>
<path fill="none" stroke="black" d="M1282.27,-138C1294.37,-138 1317.5,-138 1318.93,-138"/>
</g>
<!-- reaction7_intermediate_r&#45;&gt;reaction7 -->
<g id="edge58" class="edge"><title>reaction7_intermediate_r&#45;&gt;reaction7</title>
<path fill="none" stroke="black" d="M1231.13,-138C1233.02,-138 1255.79,-138 1267.76,-138"/>
</g>
<!-- reaction7_intermediate_p&#45;&gt;STU -->
<g id="edge64" class="edge"><title>reaction7_intermediate_p&#45;&gt;STU</title>
<path fill="none" stroke="black" d="M1319.05,-138.026C1320.05,-138.59 1337.14,-148.203 1353.4,-157.349"/>
<polygon fill="black" stroke="black" points="1351.81,-160.469 1362.24,-162.321 1355.24,-154.368 1351.81,-160.469"/>
</g>
<!-- reaction7_intermediate_p&#45;&gt;SU -->
<g id="edge66" class="edge"><title>reaction7_intermediate_p&#45;&gt;SU</title>
<path fill="none" stroke="black" d="M1319.05,-137.98C1319.99,-137.566 1335.27,-130.88 1350.66,-124.149"/>
<polygon fill="black" stroke="black" points="1352.37,-127.222 1360.13,-120.007 1349.56,-120.809 1352.37,-127.222"/>
</g>
<!-- reaction8 -->
<g id="node66" class="node"><title>reaction8</title>
<polygon fill="none" stroke="black" points="1496,-117 1482,-117 1482,-103 1496,-103 1496,-117"/>
</g>
<!-- reaction8_empty -->
<g id="node70" class="node"><title>reaction8_empty</title>
<text text-anchor="middle" x="1559" y="-105.5" font-family="Times Roman,serif" font-size="15.00" fill="blue">Ø</text>
</g>
<!-- reaction8&#45;&gt;reaction8_empty -->
<g id="edge72" class="edge"><title>reaction8&#45;&gt;reaction8_empty</title>
<path fill="none" stroke="black" d="M1496.23,-110C1502.45,-110 1511.94,-110 1521.67,-110"/>
<polygon fill="black" stroke="black" points="1521.77,-113.5 1531.77,-110 1521.77,-106.5 1521.77,-113.5"/>
</g>
<!-- reaction8_intermediate_r&#45;&gt;reaction8 -->
<g id="edge68" class="edge"><title>reaction8_intermediate_r&#45;&gt;reaction8</title>
<path fill="none" stroke="black" d="M1446.12,-110C1447.98,-110 1470.23,-110 1481.92,-110"/>
</g>
<!-- reaction9 -->
<g id="node72" class="node"><title>reaction9</title>
<polygon fill="none" stroke="black" points="1060,-91 1046,-91 1046,-77 1060,-77 1060,-91"/>
</g>
<!-- reaction9_intermediate_p -->
<g id="node77" class="node"><title>reaction9_intermediate_p</title>
<ellipse fill="black" stroke="black" cx="1097" cy="-84" rx="0.036" ry="0.036"/>
</g>
<!-- reaction9&#45;&gt;reaction9_intermediate_p -->
<g id="edge80" class="edge"><title>reaction9&#45;&gt;reaction9_intermediate_p</title>
<path fill="none" stroke="black" d="M1060.27,-84C1072.37,-84 1095.5,-84 1096.93,-84"/>
</g>
<!-- reaction9_intermediate_r&#45;&gt;reaction9 -->
<g id="edge74" class="edge"><title>reaction9_intermediate_r&#45;&gt;reaction9</title>
<path fill="none" stroke="black" d="M1009.13,-84C1011.02,-84 1033.79,-84 1045.76,-84"/>
</g>
<!-- reaction9_intermediate_p&#45;&gt;STUSU -->
<g id="edge82" class="edge"><title>reaction9_intermediate_p&#45;&gt;STUSU</title>
<path fill="none" stroke="black" d="M1097.05,-84C1097.92,-84 1110.28,-84 1124.15,-84"/>
<polygon fill="black" stroke="black" points="1124.37,-87.5001 1134.37,-84 1124.37,-80.5001 1124.37,-87.5001"/>
</g>
<!-- reaction10 -->
<g id="node80" class="node"><title>reaction10</title>
<polygon fill="none" stroke="black" points="1282,-107 1268,-107 1268,-93 1282,-93 1282,-107"/>
</g>
<!-- reaction10_intermediate_p -->
<g id="node84" class="node"><title>reaction10_intermediate_p</title>
<ellipse fill="black" stroke="black" cx="1319" cy="-110" rx="0.036" ry="0.036"/>
</g>
<!-- reaction10&#45;&gt;reaction10_intermediate_p -->
<g id="edge88" class="edge"><title>reaction10&#45;&gt;reaction10_intermediate_p</title>
<path fill="none" stroke="black" d="M1282.27,-101.651C1294.37,-104.403 1317.5,-109.658 1318.93,-109.984"/>
</g>
<!-- reaction10_intermediate_r&#45;&gt;reaction10 -->
<g id="edge84" class="edge"><title>reaction10_intermediate_r&#45;&gt;reaction10</title>
<path fill="none" stroke="black" d="M1231.13,-89.0316C1233.02,-89.5054 1255.79,-95.1986 1267.76,-98.1897"/>
</g>
<!-- reaction10_intermediate_p&#45;&gt;STU -->
<g id="edge90" class="edge"><title>reaction10_intermediate_p&#45;&gt;STU</title>
<path fill="none" stroke="black" d="M1319.05,-110.046C1320.2,-111.199 1342.6,-133.601 1360.57,-151.57"/>
<polygon fill="black" stroke="black" points="1358.38,-154.328 1367.92,-158.924 1363.33,-149.378 1358.38,-154.328"/>
</g>
<!-- reaction10_intermediate_p&#45;&gt;SU -->
<g id="edge92" class="edge"><title>reaction10_intermediate_p&#45;&gt;SU</title>
<path fill="none" stroke="black" d="M1319.05,-110C1319.88,-110 1331.97,-110 1345.41,-110"/>
<polygon fill="black" stroke="black" points="1345.79,-113.5 1355.79,-110 1345.79,-106.5 1345.79,-113.5"/>
</g>
<!-- reaction11 -->
<g id="node88" class="node"><title>reaction11</title>
<polygon fill="none" stroke="black" points="792,-80 778,-80 778,-66 792,-66 792,-80"/>
</g>
<!-- reaction11_empty -->
<g id="node92" class="node"><title>reaction11_empty</title>
<text text-anchor="middle" x="855" y="-63.5" font-family="Times Roman,serif" font-size="15.00" fill="blue">Ø</text>
</g>
<!-- reaction11&#45;&gt;reaction11_empty -->
<g id="edge98" class="edge"><title>reaction11&#45;&gt;reaction11_empty</title>
<path fill="none" stroke="black" d="M792.228,-72.4837C798.45,-72.0393 807.94,-71.3614 817.672,-70.6663"/>
<polygon fill="black" stroke="black" points="818.048,-74.1484 827.773,-69.9448 817.549,-67.1662 818.048,-74.1484"/>
</g>
<!-- reaction11_intermediate_r&#45;&gt;reaction11 -->
<g id="edge94" class="edge"><title>reaction11_intermediate_r&#45;&gt;reaction11</title>
<path fill="none" stroke="black" d="M741.126,-89.9512C743.022,-89.219 765.795,-80.4203 777.759,-75.7977"/>
</g>
</g>
</svg>
