<?xml version="1.0" encoding="utf-8"?>
<!-- Generator: Adobe Illustrator 14.0.0, SVG Export Plug-In . SVG Version: 6.00 Build 43363)  -->
<!DOCTYPE svg PUBLIC "-//W3C//DTD SVG 1.1//EN" "http://www.w3.org/Graphics/SVG/1.1/DTD/svg11.dtd">
<svg version="1.1" id="Layer_1" xmlns="http://www.w3.org/2000/svg" xmlns:xlink="http://www.w3.org/1999/xlink" x="0px" y="0px"
	 width="364px" height="525px" viewBox="0 0 364 525" enable-background="new 0 0 364 525" xml:space="preserve">
<line fill="none" stroke="#000000" x1="222.341" y1="195.88" x2="222.341" y2="117.571"/>
<polygon points="218.638,193.072 222.341,194.645 226.045,193.072 222.341,201.85 "/>
<line fill="none" stroke="#000000" x1="222.499" y1="348.571" x2="222.499" y2="271.974"/>
<polygon points="218.796,345.763 222.499,347.335 226.203,345.763 222.499,354.54 "/>
<g>
	<defs>
		<rect id="SVGID_1_" width="364" height="525"/>
	</defs>
	<clipPath id="SVGID_2_">
		<use xlink:href="#SVGID_1_"  overflow="visible"/>
	</clipPath>
	<path clip-path="url(#SVGID_2_)" fill="none" stroke="#000000" stroke-dasharray="3,3" d="M222.341,492.64
		C90.568,470.396-27.733,348.571,24.185,191.564c9.744-29.469,55.208-103.426,133.082-138.089"/>
	<polygon clip-path="url(#SVGID_2_)" points="156.207,58.001 156.138,53.978 153.194,51.234 162.721,51.048 	"/>
</g>
<line fill="none" stroke="#000000" x1="221.499" y1="518.905" x2="221.499" y2="466.374"/>
<polygon points="217.796,516.097 221.499,517.669 225.203,516.097 221.499,524.874 "/>
<g>
	<defs>
		<path id="SVGID_3_" d="M277.568,133.849c0,5.788,11.335,10.478,25.315,10.478c13.977,0,25.314-4.692,25.314-10.478
			c0-5.787-11.338-10.475-25.314-10.476C288.903,123.373,277.568,128.061,277.568,133.849"/>
	</defs>
	<clipPath id="SVGID_4_">
		<use xlink:href="#SVGID_3_"  overflow="visible"/>
	</clipPath>
	
		<radialGradient id="SVGID_5_" cx="9.765625e-04" cy="525.0195" r="1.0004" gradientTransform="matrix(25.7888 0 0 -10.2909 302.8594 5536.7769)" gradientUnits="userSpaceOnUse">
		<stop  offset="0" style="stop-color:#A2FF5F"/>
		<stop  offset="0.4082" style="stop-color:#A0FF5F"/>
		<stop  offset="0.5552" style="stop-color:#99FD5F"/>
		<stop  offset="0.66" style="stop-color:#8EFB5E"/>
		<stop  offset="0.7448" style="stop-color:#7DF85E"/>
		<stop  offset="0.8174" style="stop-color:#67F35D"/>
		<stop  offset="0.8817" style="stop-color:#4BEE5C"/>
		<stop  offset="0.9398" style="stop-color:#2BE85B"/>
		<stop  offset="0.9915" style="stop-color:#07E05A"/>
		<stop  offset="1" style="stop-color:#00DF5A"/>
	</radialGradient>
	<rect x="277.568" y="123.373" clip-path="url(#SVGID_4_)" fill="url(#SVGID_5_)" width="50.63" height="20.954"/>
</g>
<g>
	<defs>
		<rect id="SVGID_6_" width="364" height="525"/>
	</defs>
	<clipPath id="SVGID_7_">
		<use xlink:href="#SVGID_6_"  overflow="visible"/>
	</clipPath>
	<path clip-path="url(#SVGID_7_)" fill="none" stroke="#000000" d="M328.198,133.849c0,5.786-11.338,10.478-25.314,10.478
		c-13.981,0-25.315-4.69-25.315-10.478s11.334-10.476,25.315-10.476C316.86,123.374,328.198,128.062,328.198,133.849z"/>
</g>
<g>
	<path d="M289.495,130.489h1.056v7.208h3.454v0.875h-4.51V130.489z"/>
	<path d="M296.215,130.489v3.382h3.91v-3.382h1.055v8.083h-1.055v-3.79h-3.91v3.79h-1.056v-8.083H296.215z"/>
	<path d="M302.995,130.597c0.528-0.096,1.296-0.168,2.003-0.168c1.115,0,1.848,0.216,2.339,0.66c0.396,0.36,0.636,0.912,0.636,1.547
		c0,1.055-0.672,1.763-1.511,2.051v0.036c0.611,0.216,0.983,0.792,1.175,1.631c0.264,1.127,0.456,1.907,0.624,2.219h-1.079
		c-0.133-0.24-0.312-0.923-0.528-1.931c-0.239-1.115-0.684-1.535-1.631-1.571h-0.983v3.502h-1.044V130.597z M304.039,134.279h1.067
		c1.115,0,1.823-0.612,1.823-1.535c0-1.043-0.756-1.5-1.859-1.5c-0.504,0-0.852,0.036-1.031,0.084V134.279z"/>
	<path d="M310.495,130.489v3.382h3.91v-3.382h1.055v8.083h-1.055v-3.79h-3.91v3.79h-1.056v-8.083H310.495z"/>
</g>
<g>
	<defs>
		<path id="SVGID_8_" d="M277.568,306.849c0,5.789,11.335,10.479,25.315,10.479c13.978,0,25.315-4.691,25.315-10.479
			c0-5.788-11.338-10.475-25.315-10.475C288.903,296.374,277.568,301.061,277.568,306.849"/>
	</defs>
	<clipPath id="SVGID_9_">
		<use xlink:href="#SVGID_8_"  overflow="visible"/>
	</clipPath>
	
		<radialGradient id="SVGID_10_" cx="9.765625e-04" cy="525.0215" r="0.9999" gradientTransform="matrix(25.7888 0 0 -10.2909 302.8594 5709.7769)" gradientUnits="userSpaceOnUse">
		<stop  offset="0" style="stop-color:#A2FF5F"/>
		<stop  offset="0.4082" style="stop-color:#A0FF5F"/>
		<stop  offset="0.5552" style="stop-color:#99FD5F"/>
		<stop  offset="0.66" style="stop-color:#8EFB5E"/>
		<stop  offset="0.7448" style="stop-color:#7DF85E"/>
		<stop  offset="0.8174" style="stop-color:#67F35D"/>
		<stop  offset="0.8817" style="stop-color:#4BEE5C"/>
		<stop  offset="0.9398" style="stop-color:#2BE85B"/>
		<stop  offset="0.9915" style="stop-color:#07E05A"/>
		<stop  offset="1" style="stop-color:#00DF5A"/>
	</radialGradient>
	<rect x="277.568" y="296.374" clip-path="url(#SVGID_9_)" fill="url(#SVGID_10_)" width="50.631" height="20.953"/>
</g>
<g>
	<defs>
		<rect id="SVGID_11_" width="364" height="525"/>
	</defs>
	<clipPath id="SVGID_12_">
		<use xlink:href="#SVGID_11_"  overflow="visible"/>
	</clipPath>
	<path clip-path="url(#SVGID_12_)" fill="none" stroke="#000000" d="M328.199,306.849c0,5.787-11.338,10.479-25.315,10.479
		c-13.981,0-25.315-4.689-25.315-10.479c0-5.787,11.334-10.475,25.315-10.475C316.861,296.374,328.199,301.062,328.199,306.849z"/>
</g>
<g>
	<path d="M296.393,303.488h1.056v7.208h3.454v0.876h-4.51V303.488z"/>
	<path d="M303.112,303.488v3.383h3.91v-3.383h1.055v8.084h-1.055v-3.79h-3.91v3.79h-1.056v-8.084H303.112z"/>
</g>
<g>
	<defs>
		<path id="SVGID_13_" d="M257.928,476.848c0,5.79,20.128,10.479,44.956,10.479c24.822,0,44.956-4.691,44.956-10.479
			c0-5.787-20.134-10.474-44.956-10.474C278.056,466.374,257.928,471.061,257.928,476.848"/>
	</defs>
	<clipPath id="SVGID_14_">
		<use xlink:href="#SVGID_13_"  overflow="visible"/>
	</clipPath>
	
		<radialGradient id="SVGID_15_" cx="-0.0059" cy="525.0195" r="1.0002" gradientTransform="matrix(45.7961 0 0 -10.2909 303.1875 5879.7769)" gradientUnits="userSpaceOnUse">
		<stop  offset="0" style="stop-color:#A2FF5F"/>
		<stop  offset="0.4082" style="stop-color:#A0FF5F"/>
		<stop  offset="0.5552" style="stop-color:#99FD5F"/>
		<stop  offset="0.66" style="stop-color:#8EFB5E"/>
		<stop  offset="0.7448" style="stop-color:#7DF85E"/>
		<stop  offset="0.8174" style="stop-color:#67F35D"/>
		<stop  offset="0.8817" style="stop-color:#4BEE5C"/>
		<stop  offset="0.9398" style="stop-color:#2BE85B"/>
		<stop  offset="0.9915" style="stop-color:#07E05A"/>
		<stop  offset="1" style="stop-color:#00DF5A"/>
	</radialGradient>
	<rect x="257.928" y="466.374" clip-path="url(#SVGID_14_)" fill="url(#SVGID_15_)" width="89.912" height="20.953"/>
</g>
<g>
	<defs>
		<rect id="SVGID_16_" width="364" height="525"/>
	</defs>
	<clipPath id="SVGID_17_">
		<use xlink:href="#SVGID_16_"  overflow="visible"/>
	</clipPath>
	<path clip-path="url(#SVGID_17_)" fill="none" stroke="#000000" d="M347.84,476.849c0,5.787-20.134,10.479-44.956,10.479
		c-24.828,0-44.955-4.689-44.955-10.479c0-5.787,20.127-10.475,44.955-10.475C327.706,466.374,347.84,471.062,347.84,476.849z"/>
</g>
<g>
	<path d="M274.999,473.376v1.392h1.512v0.804h-1.512v3.13c0,0.72,0.204,1.128,0.792,1.128c0.288,0,0.456-0.024,0.611-0.072
		l0.048,0.804c-0.203,0.071-0.527,0.144-0.936,0.144c-0.491,0-0.887-0.168-1.139-0.443c-0.288-0.324-0.408-0.84-0.408-1.523v-3.166
		h-0.899v-0.804h0.899v-1.079L274.999,473.376z"/>
	<path d="M278.228,477.861c0.024,1.428,0.924,2.016,1.991,2.016c0.756,0,1.224-0.132,1.607-0.3l0.191,0.755
		c-0.372,0.168-1.02,0.372-1.942,0.372c-1.787,0-2.854-1.188-2.854-2.938s1.031-3.118,2.723-3.118c1.906,0,2.398,1.655,2.398,2.723
		c0,0.216-0.012,0.372-0.036,0.491H278.228z M281.322,477.106c0.012-0.66-0.276-1.703-1.463-1.703c-1.08,0-1.535,0.972-1.619,1.703
		H281.322z"/>
	<path d="M283.508,479.505c0.324,0.191,0.876,0.408,1.403,0.408c0.756,0,1.115-0.372,1.115-0.864c0-0.504-0.3-0.768-1.067-1.055
		c-1.056-0.384-1.547-0.948-1.547-1.644c0-0.936,0.768-1.703,2.003-1.703c0.588,0,1.104,0.156,1.415,0.36l-0.252,0.768
		c-0.228-0.145-0.647-0.349-1.188-0.349c-0.623,0-0.959,0.36-0.959,0.792c0,0.479,0.336,0.695,1.091,0.995
		c0.996,0.372,1.523,0.876,1.523,1.739c0,1.031-0.804,1.751-2.159,1.751c-0.635,0-1.223-0.168-1.631-0.407L283.508,479.505z"/>
	<path d="M289.675,473.376v1.392h1.512v0.804h-1.512v3.13c0,0.72,0.204,1.128,0.792,1.128c0.288,0,0.456-0.024,0.611-0.072
		l0.048,0.804c-0.203,0.071-0.527,0.144-0.936,0.144c-0.491,0-0.887-0.168-1.139-0.443c-0.288-0.324-0.408-0.84-0.408-1.523v-3.166
		h-0.899v-0.804h0.899v-1.079L289.675,473.376z"/>
	<path d="M297.557,477.622c0,2.146-1.499,3.082-2.891,3.082c-1.56,0-2.782-1.151-2.782-2.986c0-1.931,1.283-3.07,2.878-3.07
		C296.429,474.647,297.557,475.858,297.557,477.622z M292.963,477.682c0,1.271,0.72,2.231,1.751,2.231
		c1.008,0,1.763-0.948,1.763-2.255c0-0.983-0.491-2.219-1.738-2.219C293.503,475.439,292.963,476.591,292.963,477.682z"/>
	<path d="M298.747,479.505c0.324,0.191,0.876,0.408,1.403,0.408c0.756,0,1.115-0.372,1.115-0.864c0-0.504-0.3-0.768-1.067-1.055
		c-1.056-0.384-1.547-0.948-1.547-1.644c0-0.936,0.768-1.703,2.003-1.703c0.588,0,1.104,0.156,1.415,0.36l-0.252,0.768
		c-0.228-0.145-0.647-0.349-1.188-0.349c-0.623,0-0.959,0.36-0.959,0.792c0,0.479,0.336,0.695,1.091,0.995
		c0.996,0.372,1.523,0.876,1.523,1.739c0,1.031-0.804,1.751-2.158,1.751c-0.636,0-1.224-0.168-1.632-0.407L298.747,479.505z"/>
	<path d="M304.914,473.376v1.392h1.512v0.804h-1.512v3.13c0,0.72,0.204,1.128,0.792,1.128c0.288,0,0.456-0.024,0.611-0.072
		l0.048,0.804c-0.203,0.071-0.527,0.144-0.936,0.144c-0.491,0-0.887-0.168-1.139-0.443c-0.288-0.324-0.408-0.84-0.408-1.523v-3.166
		h-0.899v-0.804h0.899v-1.079L304.914,473.376z"/>
	<path d="M308.142,477.861c0.024,1.428,0.924,2.016,1.991,2.016c0.756,0,1.224-0.132,1.607-0.3l0.191,0.755
		c-0.372,0.168-1.02,0.372-1.942,0.372c-1.787,0-2.854-1.188-2.854-2.938s1.031-3.118,2.723-3.118c1.906,0,2.398,1.655,2.398,2.723
		c0,0.216-0.012,0.372-0.036,0.491H308.142z M311.236,477.106c0.012-0.66-0.276-1.703-1.463-1.703c-1.08,0-1.535,0.972-1.619,1.703
		H311.236z"/>
	<path d="M313.566,476.578c0-0.684-0.013-1.271-0.049-1.811h0.924l0.048,1.151h0.036c0.264-0.779,0.911-1.271,1.619-1.271
		c0.108,0,0.191,0.012,0.288,0.024v0.995c-0.108-0.024-0.216-0.024-0.36-0.024c-0.743,0-1.271,0.552-1.415,1.344
		c-0.023,0.144-0.036,0.324-0.036,0.491v3.095h-1.055V476.578z"/>
	<path d="M322.636,477.622c0,2.146-1.499,3.082-2.891,3.082c-1.56,0-2.782-1.151-2.782-2.986c0-1.931,1.283-3.07,2.878-3.07
		C321.508,474.647,322.636,475.858,322.636,477.622z M318.042,477.682c0,1.271,0.72,2.231,1.751,2.231
		c1.008,0,1.763-0.948,1.763-2.255c0-0.983-0.491-2.219-1.738-2.219C318.582,475.439,318.042,476.591,318.042,477.682z"/>
	<path d="M323.971,476.339c0-0.612-0.013-1.092-0.049-1.571h0.936l0.061,0.959h0.023c0.288-0.539,0.96-1.079,1.919-1.079
		c0.804,0,2.051,0.479,2.051,2.471v3.454h-1.055v-3.346c0-0.936-0.349-1.716-1.344-1.716c-0.684,0-1.224,0.492-1.415,1.08
		c-0.048,0.132-0.072,0.312-0.072,0.491v3.49h-1.055V476.339z"/>
	<path d="M331.218,477.861c0.024,1.428,0.924,2.016,1.991,2.016c0.756,0,1.224-0.132,1.607-0.3l0.191,0.755
		c-0.372,0.168-1.02,0.372-1.942,0.372c-1.787,0-2.854-1.188-2.854-2.938s1.031-3.118,2.723-3.118c1.906,0,2.398,1.655,2.398,2.723
		c0,0.216-0.012,0.372-0.036,0.491H331.218z M334.312,477.106c0.012-0.66-0.276-1.703-1.463-1.703c-1.08,0-1.535,0.972-1.619,1.703
		H334.312z"/>
</g>
<g>
	<defs>
		<rect id="SVGID_18_" width="364" height="525"/>
	</defs>
	<clipPath id="SVGID_19_">
		<use xlink:href="#SVGID_18_"  overflow="visible"/>
	</clipPath>
	<polyline clip-path="url(#SVGID_19_)" fill="#4A6ED6" points="220.845,41.411 221.161,41.816 221.413,42.134 221.626,42.469 
		221.835,42.809 222.055,43.063 222.341,43.341 222.744,43.664 223.196,43.951 223.676,44.191 223.992,44.342 224.396,44.45 
		224.882,44.586 225.4,44.639 225.836,44.676 226.233,44.676 226.651,44.621 226.962,44.51 227.206,44.347 227.391,44.049 
		227.462,43.644 227.49,43.167 227.429,42.758 227.358,42.375 227.341,41.974 227.198,41.562 227.017,41.211 226.771,40.858 
		226.445,40.561 226.13,40.307 225.806,40.05 225.476,39.71 225.267,39.392 224.833,39.142 224.562,38.914 224.176,38.702 
		223.86,38.456 	"/>
	<path clip-path="url(#SVGID_19_)" fill="none" stroke="#000000" d="M198.062,48.597c0.452,1.959,1.996,3.921,3.047,4.879"/>
	<path clip-path="url(#SVGID_19_)" fill="#FFFFFF" d="M202.659,49.973c-1.89-0.093-4.901,0.834-6.506,1.731
		c-0.973,0.54-5.675,2.524-4.186,4.171c0.812,0.898,2.041-0.647,2.603-1.167c0.989-0.918,1.772-1.253,3.101-1.606
		c2.316-0.607,4.389-0.615,6.773-0.691"/>
	<path clip-path="url(#SVGID_19_)" fill="none" stroke="#000000" d="M202.659,49.973c-1.89-0.093-4.901,0.834-6.506,1.731
		c-0.973,0.54-5.675,2.524-4.186,4.171c0.812,0.898,2.041-0.647,2.603-1.167c0.989-0.918,1.772-1.253,3.101-1.606
		c2.316-0.607,4.389-0.615,6.773-0.691"/>
	<path clip-path="url(#SVGID_19_)" fill="none" stroke="#000000" d="M181.36,51.482c0.328-0.949,0.594-1.989,0.359-2.991
		c-0.771,0.55-0.589,1.79-0.982,2.559c-0.447,0.877-1.54,1.512-2.432,1.836c-1.849,0.671-4.504-0.192-3.966-2.597
		c0.531-2.377,3.058-3.45,4.48-5.234c1.653-2.074,2.656-4.67,3.463-7.174c1.204-3.743,1.558-8.872-2.348-11.192
		c-1.932-1.147-3.769-0.311-5.668,0.448c-2.389,0.955-4.675,0.597-7.171,0.703"/>
	<path clip-path="url(#SVGID_19_)" fill="none" stroke="#000000" d="M209.03,18.016c-3.402-0.262-6.727-0.365-10.137-0.271
		c-2.825,0.076-6.784,1.138-8.846,3.112c-1.822,1.755-5.354,4.605-4.354,7.471c0.22,0.632,1.264,0.862,1.841,0.505
		c0.725-0.447,1.18-1.109,1.692-1.768c0.992-1.291,1.996-2.527,3.428-3.388c4.188-2.502,9.939-2.94,14.672-1.934
		c2.443,0.521,4.564,1.481,6.744,2.645c2.176,1.156,4.5,1.872,6.369,3.503"/>
	<path clip-path="url(#SVGID_19_)" fill="none" stroke="#000000" d="M238.333,34.737c-2.09,2.299-5.234,3.377-8.418,3.508
		c-3.344,0.127-5.979-2.555-8.414-4.415c-0.904-0.694-2.082-3.01-3.441-2.014c-0.738,0.537-0.357,0.923,0.262,1.371
		c0.648,0.465,1.163,1.18,1.724,1.743c1.929,1.959,4.566,4.733,7.454,5.328c2.241,0.458,4.652,0.636,6.938,0.351
		c1.033-0.131,1.958-1.03,2.785-1.57c0.979-0.62,1.98-1.189,2.938-1.805"/>
	<path clip-path="url(#SVGID_19_)" fill="#C44D3E" d="M218.724,31.551c-3.215-5.135-10.248-8.662-16.396-8.649
		c-1.512,0-3.174,0.025-4.641,0.375c-1.637,0.397-3.02,1.219-4.445,2.081c-1.1,0.667-2.492,2.559-2.492,4.012
		c0,1.811-0.016,2.05,0.957,3.552c2.424,3.75,8.516,3.26,12.426,3.563c2.199,0.167,4.121,0.65,6.226,1.228
		c2.105,0.568,4.427,0.321,6.538-0.108"/>
	<path clip-path="url(#SVGID_19_)" fill="none" stroke="#000000" d="M218.724,31.551c-3.215-5.135-10.248-8.662-16.396-8.649
		c-1.512,0-3.174,0.025-4.641,0.375c-1.637,0.397-3.02,1.219-4.445,2.081c-1.1,0.667-2.492,2.559-2.492,4.012
		c0,1.811-0.016,2.05,0.957,3.552c2.424,3.75,8.516,3.26,12.426,3.563c2.199,0.167,4.121,0.65,6.226,1.228
		c2.105,0.568,4.427,0.321,6.538-0.108"/>
	<path clip-path="url(#SVGID_19_)" fill="none" stroke="#000000" d="M198.448,45.571c0.365,0.896,0.577,1.712,0.109,2.608
		c-0.322,0.614-1.699,1.533-2.38,1.752c-1.717,0.521-3.909-0.897-5.042-2.024"/>
	<path clip-path="url(#SVGID_19_)" fill="#FFFFFF" d="M201.385,27.463c-1.576-0.071-3.295,0.203-3.955,1.779
		c-0.587,1.403,2.085,2.341,3.079,2.309c1.128-0.035,3.985-0.041,4.091-1.672C204.722,28.197,202.91,27.531,201.385,27.463"/>
	<path clip-path="url(#SVGID_19_)" fill="none" stroke="#000000" d="M201.385,27.463c-1.576-0.071-3.295,0.203-3.955,1.779
		c-0.587,1.403,2.085,2.341,3.079,2.309c1.128-0.035,3.985-0.041,4.091-1.672C204.722,28.197,202.91,27.531,201.385,27.463z"/>
	<path clip-path="url(#SVGID_19_)" fill="none" stroke="#000000" d="M226.43,44.665c0.263,0.429,0.396,1.096,0.386,1.596
		c-0.012,0.312-0.07,0.562-0.18,0.843c-0.152,0.397-0.119,0.387,0.18,0.429c0.33,0.051,0.646,0.345,0.717,0.532
		c0.131,0.322,0.068,0.406,0.196,0.739c0.181,0.438,0.167,1.128,0.113,1.606c-0.313,2.67-2.457,3.578-4.575,4.923"/>
	<path clip-path="url(#SVGID_19_)" fill="none" stroke="#000000" d="M268.169,84.76c2.521,0.688,5.775,1.534,7.984,2.94"/>
	<path clip-path="url(#SVGID_19_)" fill="none" stroke="#000000" d="M268.909,79.4c1.303,0.167,2.762,0.23,4.045,0.564
		c1.285,0.323,3.146,1.168,4.352,1.689"/>
	<path clip-path="url(#SVGID_19_)" fill="none" stroke="#000000" d="M276.677,79.389c-2.438-1.617-5.438-2.428-8.359-2.742"/>
	<path clip-path="url(#SVGID_19_)" fill="none" stroke="#000000" d="M274.903,75.562c-1.863-1.48-4.354-2.271-6.734-2.377"/>
	<path clip-path="url(#SVGID_19_)" fill="none" stroke="#000000" d="M266.394,70.203c1.424-0.082,5.691,0.688,6.799,1.721"/>
	<path clip-path="url(#SVGID_19_)" fill="none" stroke="#000000" d="M265.587,67.242c1.668,0,3.361-0.105,5.211,0.438"/>
	<path clip-path="url(#SVGID_19_)" fill="none" stroke="#000000" d="M268.831,64.906c-1.385-0.49-2.447-0.564-3.908-0.417"/>
	<path clip-path="url(#SVGID_19_)" fill="none" stroke="#000000" d="M265.558,60.526c-0.916,0-2.242-0.262-3.037,0.25"/>
	<path clip-path="url(#SVGID_19_)" fill="none" stroke="#000000" d="M267.187,62.903c-0.934-0.219-2.391-0.271-3.295,0.104"/>
	<path clip-path="url(#SVGID_19_)" fill="none" stroke="#000000" d="M276.636,85.804c-2.068-1.565-4.432-2.275-6.871-2.983"/>
	<path clip-path="url(#SVGID_19_)" fill="none" stroke="#000000" d="M196.675,3.572c3.018,1.121,5.968,2.315,8.943,3.524
		c1.574,0.643,3.006,1.596,4.576,2.207c1.544,0.609,3.253,1.026,4.852,1.511c3.06,0.925,6.225,2.487,8.946,4.114
		c1.448,0.875,2.812,1.83,4.149,2.847c1.169,0.88,2.824,1.737,3.772,2.808c2.144,2.435,4.023,5.176,4.72,8.361
		c0.599,2.758,1.699,7.395-2.22,8.229c-3.536,0.75-6.615,0.238-9.731-1.575c-1.172-0.682-2.09-2.577-2.606-3.753
		c-0.593-1.359-0.883-2.959-1.763-4.184c-1.893-2.633-4.572-5.016-7.045-7.158c-2.421-2.086-5.768-2.993-8.685-4.306
		c-1.522-0.689-3.019-1.275-4.434-2.149c-0.687-0.422-1.305-0.949-1.94-1.439c-0.605-0.468-1.504-0.699-2.209-1
		c-2.83-1.216-5.975-2.368-9.072-2.734c-3.436-0.406-6.76-0.595-10.203-0.15c-3.19,0.406-6.443,2.074-8.783,4.139
		c-1.066,0.944-2.111,2.295-2.215,3.724c-0.103,1.423-0.332,3.316,0.623,4.547c0.928,1.198,1.827,2.55,3.301,3.137
		c1.561,0.626,3.087,1.018,4.804,1.018c3.34,0,6.953-0.048,8.395,3.33c0.284,0.651,0.689,1.274,1.039,1.895
		c0.354,0.64,1.415,0.734,1.979,1.088c1.129,0.703,2.206,2.748,1.168,3.932c-0.395,0.449-1.414,0.688-1.982,0.755
		c-1.017,0.111-1.354,0.049-1.675,1.023c-0.507,1.555-1.114,3.092-1.688,4.626c-0.549,1.475-1.342,2.73-2.422,3.905
		c-0.312,0.334-1.283,1.24-0.209,1.168c0.581-0.055,1.586-0.97,2.021-1.315c0.649-0.521,1.421-1.187,1.754-1.945
		c0.168-0.375,0.658-0.283,0.658,0.126c0,0.433-0.033,0.886-0.136,1.318c-0.202,0.855-0.681,2.087-0.419,2.941
		c0.284,0.96-0.124,1.856-0.555,2.69c0.999-0.959,2.146-2.408,3.399-3.044c1.453-0.731,3.146-0.438,4.635-1.022
		c1.502-0.563,2.967-1.294,4.234-2.258c1.121-0.844,2.165-2.238,3.688-2.358c3.149-0.238,6.346,0.132,9.511,0.132
		c3.365,0,6.821,1.542,8.927,4.067c0.49,0.584,0.72,1.292,1.121,1.939c0.439,0.709,0.945,1.336,1.332,2.086
		c0.759,1.449,1.09,3.025,1.426,4.608c0.625,2.942,0.729,6.112,0.729,9.114c0,6.601-0.493,13.067-1.206,19.628
		c-0.479,4.451-1.398,8.863-2.112,13.285c-0.68,4.192-2.207,8.299-1.946,12.597"/>
	<path clip-path="url(#SVGID_19_)" fill="none" stroke="#000000" d="M208.587,109.496c0.01-2.662-0.809-5.286-1.571-7.807
		c-0.806-2.664-1.427-5.381-2.06-8.091c-0.674-2.893-3.518-9.631,0.859-11.13c-0.727-0.09-1.688-0.331-2.422-0.193
		c-0.211,0.04-0.425-0.038-0.248,0.143c0.44,0.451,2.154,0.169,2.67,0.05c-4.804-0.589-8.491-4.785-10.334-9.011
		c-1.734-3.978-3.087-9.04-1.904-13.342c0.706-2.571,2.552-4.698,4.946-5.852c1.349-0.651,2.798-0.86,4.284-0.75
		c0.941,0.069,2.949,0.983,3.729,0.182c-0.84-0.661-1.875-1.046-2.609-1.845c-1.456-1.465-1.735-3.141-2.57-4.816
		c-1.113-1.955-3.896-1.675-5.846-1.117c-3.619,0.558-6.125,3.072-9.744,3.91c-1.113,0.279-1.95,1.116-2.833,2.071"/>
	<path clip-path="url(#SVGID_19_)" fill="none" stroke="#000000" d="M221.555,96.702c-1.503-0.051-0.378,5.025-0.354,6.017
		c0.044,2.295,0.024,4.547-0.257,6.832"/>
	<path clip-path="url(#SVGID_19_)" fill="none" stroke="#000000" d="M210.636,26.4c1.296,1.094,2.688,1.986,3.812,3.264
		c1.132,1.292,1.902,2.799,2.525,4.374c0.357,0.902-0.007,1.132-0.239,1.919c-0.257,0.839,0.146,1.951,0.745,2.519
		c0.418,0.412,1.584,0.125,2.147,0.376c0.887,0.395,1.519,0.713,2.034,1.517c-1.3-0.834-2.535-1.742-4.23-1.142
		c-1.737,0.611-2.449,1.891-1.757,3.618c0.255,0.657,0.804,1.058,1.222,1.616c0.568,0.767,1.061,1.548,1.557,2.353
		c0.811,1.323,1.487,2.785,2.106,4.202c1.295,2.981,1.109,5.892,1.435,9.05c0.328,3.182,1.548,6.331,3.221,9.095
		c0.567,0.937,1.312,1.928,2.308,2.49c0.627,0.345,1.226,0.668,1.899,0.929c0.564,0.23,1.206,0.271,1.66,0.711
		c-0.457,0.353-1.602,0.417-2.189,0.604c-0.625,0.198-1.363,0.918-1.712,1.458c-0.851,1.295-2.056,2.558-2.575,3.996
		c-0.58,1.626-1.01,3.201-1.251,4.91c-0.206,1.451-0.663,2.881-0.87,4.307c-0.229,1.637-0.494,3.266-0.787,4.891
		c-0.126,0.69-0.277,1.397-0.236,2.085c0.041,0.711,0.175,2.025,0.864,0.898c0.679-1.105,0.916-3.003,1.043-4.255
		c0.161-1.625,0.437-3.233,0.628-4.859c0.252-2.106,0.234-4.13,1.072-6.132c0.895-2.147,1.971-4.046,3.905-5.463
		c-0.803,1.073-2.114,2.315-2.257,3.69c-0.033,0.271,0.064,0.544,0.017,0.813c-0.042,0.24-0.586,0.418-0.808,0.605
		c-0.373,0.314-0.988,1.272-1.107,1.732c-0.159,0.615,0.141,1.271,0.055,1.857c-0.119,0.875-0.5,1.313-0.022,2.158
		c0.313,0.554,0.783,1.408,1.464,1.511c0.741,0.126,1.582,0.25,1.39-0.751c0.019,1.462,2.051,0.366,2.485-0.229
		c0.689-0.96,0.438-1.887,0.119-2.898c1.209,0.259,1.246-1.191,1.473-2.045c0.262-1.041,0.308-1.899-0.199-2.836
		c0.333,0.409,0.538,0.937,1.157,0.687c0.151-0.06,0.175-0.417,0.34-0.52c0.259-0.167,0.531-0.334,0.782-0.513
		c0.967-0.635,1.513-1.239,2.098-2.197c-0.172,0.812-0.369,1.251-1.065,1.792c-0.399,0.334-1.435,0.762-1.673,1.211
		c-0.396,0.751-0.904,1.208-1.164,2.086c-0.283,0.946,0.531,0.573,1.076,0.426c0.13-0.032,0.684-0.606,0.715-0.052
		c0.014,0.199-0.673,0.396-0.802,0.46c-0.316,0.167-0.721,0.112-1.026,0.334c-0.366,0.27-0.238,0.477-0.438,0.854
		c-0.207,0.374-0.954,1.335-0.207,1.648c0.732,0.312,1.213,0,1.919-0.062c-0.119,0.456-0.716,0.583-1.187,0.623
		c-0.783,0.083-0.723,0.126-1.195,0.711c-0.32,0.396-0.723,0.708-0.98,1.148c-0.303,0.53,0.506,0.667,0.593,1.084
		c-0.961-0.022-2.044-0.897-1.109,0.625c0.517,0.854,0.704,2.315,1.909,2.439c0.86,0.084,0.916,0.127,0.719,0.94
		c-0.113,0.501,0.197,1.126,0.752,1.355c1.62,0.647,1.771-1.252,2.883-1.272c0.086,0.449-0.4,0.626-0.523,1.145
		c-0.12,0.526,0.109,1.024,0.36,1.462c0.196,0.346,1.164,0.187,1.513,0.167c0.403-0.043,1.023,0.616,1.393,0.814
		c0.619,0.312,2.676,0.112,2.959-0.667c0.35-0.941-1.176-1.784-0.988-2.503c1.414,0.5,1.315-2.565,1.205-3.265
		c-0.217-1.438-1.205-2.408-2.654-2.574c0.023-0.044,0.043-0.106,0.065-0.158c1.7,0.574,0.839-2.293,1.718-2.555
		c0.22,0.989-0.672,1.961-0.086,2.931c0.522,0.866,1.045,2.45,2.35,1.802c0.023,0.105,0.044,0.21,0.066,0.315
		c-1.336-0.022-0.709,1.169-0.979,1.825c-0.369,0.929-0.847,1.783-0.567,2.804c0.221,0.751,1.297,1.668,2.111,1.804
		c1.385,0.219,1.646-0.457,1.646-1.656c0.086,0.957,0.055,1.688,1.281,1.25c1.053-0.377,1.905-0.584,2.449-1.565
		c0.48-0.834,0.533-1.708,0.533-2.649c0-0.854-1.732-1.053-1.131-1.813c0.521-0.667,0.664-1.648,0.293-2.441
		c-0.172-0.376-0.271-0.636-0.719-0.636c-0.738,0-0.088-0.51,0.066-0.845c0.413-0.98,0.021-1.814-0.524-2.648
		c-0.609-0.939-1.305-0.898-2.142-1.398c0.359-0.261,0.674-0.271,0.77-0.731c0.067-0.291-0.236-0.918-0.303-1.188
		c-0.195-0.647-0.327-1.751-0.086-2.376c0.389,0.104,0.403,1.478,0.564,1.919c0.089,0.207,0.393,0.488,0.373,0.686
		c-0.048,0.347-0.09,0.708-0.048,1.064c0.057,0.459,0.567,1.587,1.169,1.587c0.586,0,0.746-1.419,0.834-1.795
		c0.393,0.302-0.239,1.544,0.761,1.053c-0.4,0.313-0.936,0.334-1.11,0.794c-0.14,0.364,0.058,0.927,0.144,1.302
		c0.251,1.043,0.448,2.233,1.86,1.94c-1.436,0.666-0.262,1.576-0.52,2.629c-0.131,0.541-0.079,1.125,0.215,1.625
		c0.283,0.448,0.957,0.48,0.861,1.001c-0.033,0.147-0.795,0.211-0.707,0.878c0.062,0.529,0.188,1.168,0.803,1.394
		c0.461,0.159,1.111,0.461,1.611,0.231c0.717-0.344,0.609-0.667,0.893-1.335c0.457,0.23,1.09,0.48,1.611,0.313
		c0.555-0.166,0.891-0.865,1.48-0.98c0.926-0.167,2.914-0.772,2.371-1.909c-0.064-0.156-0.525-0.574-0.525-0.656
		c-0.02-0.271,0.275-0.562,0.395-0.189c0.172,0.627,0.688,1.085,1.373,1.085c0.607,0,1.119-0.437,1.584-0.791
		c0.742-0.575,0.413-1.024-0.084-1.7c0.697,0.552,1.521,1.073,2.152,0.093c0.285-0.417,0.295-0.918,0.609-1.335
		c0.238-0.333,0.654-0.479,0.852-0.855c0.445-0.791,0.607-1.731-0.312-2.293c-1.32-0.793-1.361,0.844-2.189,0.937
		c0-1.187-0.262-1.878-1.614-1.648c-0.25,0.044-0.343,0.271-0.628,0.271c-0.436,0-0.01-0.394-0.369-0.541
		c-0.439-0.188-1.003,0.188-1.438,0.207c-0.021-1.001-1.113-3.544-2.549-2.273c0.565-1.656-2.045-0.886-2.99-1.751
		c0.64-0.302,1.229,0.386,1.939,0.271c0.803-0.145,0.99-0.896,1.664-1.125c-0.048,0.666-0.471,1.616,0.389,2.022
		c1.045,0.499,1.025-1.148,1.764-0.648c-1.109,1.815,1.611,3.619,2.611,1.649c0.152,0.802,0.174,1.085,0.936,1.522
		c0.664,0.365,1,0.126,1.557-0.251c0.117,0.46,0.78,0.616,1.221,0.647c0.074,0,0.51-0.092,0.662-0.102
		c0.238-0.021,0.477,0.082,0.715,0.039c0.949-0.103,1.691-1.292,1.277-2.188c-0.143-0.302-1.035-0.668-0.664-0.855
		c0.541-0.25,0.727-0.521,0.903-1.053c0.108-0.325,0.237-0.929,0.041-1.232c-0.358-0.572-0.794-0.365-1.22-0.822
		c0.654-0.397,0.625-1.502,0.525-2.149c-0.164-1.001-0.969-1.054-1.904-1.001c-0.883,0.031-1.725,0.187-2.535-0.126
		c-0.947-0.374-1.414,0.063-2.157,0.615c-0.161,0.115-0.14,0.887-0.599,0.532c-0.453-0.334-0.727-0.345-1.314-0.406
		c-0.914-0.094-1.664,0.259-2.535,0.406c-0.852,0.148-1.818,0.104-2.664,0.115c-0.414,0.012-0.818-0.135-1.189,0.074
		c-0.325,0.187-0.148,0.562-0.48,0.665c-0.062-1.01-0.324-0.77-1.148-1.062c0.695,0,0.705-0.583,0.758-1.106
		c0.85,0.345,1.311,1.001,2.375,1.001c0.912,0,2.699,0.293,3.23-0.592c0.295-0.493,0.543-0.032,0.99,0.114
		c0.5,0.167,1.086,0.105,1.611,0.105c0.523,0,1.195-0.128,1.434-0.68c0.154-0.374,0.164-0.97,0.457-1.228
		c0.479,1.334,3.072,1.302,4.258,1.031c0.77-0.168,1.227-1.126,1.002-1.837c-0.32-0.978-1.199-1.125-2.103-1.001
		c0.823-0.374,1.065-0.625,1.134-1.523c0.053-0.667-0.311-1.291-1.006-1.489c-0.648-0.188-1.346,0.198-1.955,0.448
		c-0.711,0.271-1.566-0.114-2.221,0.228c-0.619,0.326-0.719,0.918-1.457,1.148c-0.412,0.145-0.674,0.126-1.092,0.187
		c-0.148,0.023-1.018,0.376-1.053,0.356c-0.752-0.106-0.967-0.782-1.881-0.73c-0.764,0.031-1.645,0.04-2.387,0.207
		c0.318-0.311,0.309-0.708,0.559-1.062c0.233,1.209,2.785,0.354,3.439-0.054c0.062,0.971,1.408,0.971,2.164,0.699
		c0.88-0.291,1.923-1.085,2.426-1.868c0.197,1.026,2.043,0.378,2.635,0.096c0.193-0.096,0.52-0.98,0.52-1.21
		c0-0.605-0.336-0.875-0.881-1.062c0.74,0.04,0.664-0.712,0.381-1.17c-0.398-0.647-0.936-0.519-1.613-0.416
		c-0.584,0.083-1.191,0.104-1.783,0.146c-0.871,0.061-0.629-0.167-1.261-0.627c0.503,0.104,0.808,0.417,1.308,0.417
		c0.496,0,0.957-0.135,1.455-0.187c1.533-0.186,0.928-1.064,0.1-1.855c-0.609-0.584,0.426-2.181-1.145-2.307
		c-0.91-0.072-2.043,0.388-3.045,0.365c1.154-0.373,3.023-1.084,1.447-2.335c-0.793-0.625-2.5-1.585-3.057-0.156
		c-0.262,0.636-0.94,0.219-1.297,0.668c-0.443,0.543-0.443,1.096-0.553,1.721c-0.049,0.26-0.566,0.178-0.828,0.209
		c-0.304,0.02-0.588,0.354-0.826,0.529c-0.535,0.396-0.185,1.222-0.033,1.7c-1.145,0.21-1.621,0.44-2.492,1.231
		c-0.654,0.585-0.414,1.649-0.174,2.336c-0.848,0.127-1.362-0.564-2.284-0.082c-1.196,0.615-0.185,1.064-0.587,1.834
		c-1.092-0.729-1.938,0.636-2.275,1.439c-0.433,1.033-0.707,1.993-1.602,2.752c0.395-0.666,1.873-2.73,0.885-3.23
		c-1.111-0.563-2.928,0.938-3.602,1.585c0.401-0.834,0.684-1.21,1.543-1.585c0.85-0.377,1.752-0.305,2.566-0.71
		c0.852-0.428,1.263-0.918,1.418-1.835c0.172-1.189-1.023-0.875-1.816-0.804c0.728-0.281,0.555-0.814,0.555-1.429
		c0.695,1.274,2.217,1.647,3.6,1.055c1.611-0.69,1.678-2.275-0.273-2.441c0.568,0.094,0.568-0.323,1.08,0
		c0.389,0.26,1.01-0.136,1.371-0.282c0.814-0.344,1.574-1.793,0.371-2.106c0.803,0.157,1.771,0.271,2.164-0.688
		c0.457-1.179-0.676-1.596-1.611-1.596c0.348-0.115,0.611-0.303,0.336-0.585c1.557,1.242,3.34-0.175,4.82-0.957
		c1-0.533,1.119-1.566,0.502-2.452c-0.252-0.377-0.969-0.468-1.391-0.468c-0.482,0-0.656,0.563-1.221,0.477
		c0.303-0.386,1.35-0.78,1.107-1.28c-0.334-0.71-0.758-1.212-1.498-1.564c-0.812-0.377-0.992-0.21-1.438,0.519
		c-0.107,0.189-1.014,1.566-1.219,1.212c-0.197-0.325,0.888-1.481,1.053-1.752c0.207-0.325,0.533-0.273,0.342-0.752
		c-0.086-0.166-0.635-0.416-0.816-0.531c-0.514-0.345-1.131-0.513-1.578,0.009c-0.328,0.388-0.578,1.545-0.991,1.545
		c-0.034-0.354-0.011-1.002,0.237-1.253c0.264-0.248,1.012-0.802,0.557-1.167c-0.818-0.627-1.828-1.784-2.459-0.397
		c-0.197,0.461-0.11,1.022-0.393,1.439c-0.109,0.166-0.029,0.513-0.215,0.544c-0.243,0.019-0.655,0.019-0.775,0.229
		c-0.598,1.063-0.271,1.927,0.166,2.98c-1.219-0.29-1.645,2.944-0.505,3.194c-0.271,0.227-0.89,2.23-1.043,1.168
		c-0.097-0.814,0.446-1.545,0.153-2.443c-0.068-0.249-0.59-0.81-0.393-1c0.306-0.292,0.686-0.645,0.83-1.022
		c0.193-0.521,0.278-0.874,0.174-1.438c-0.068-0.437-0.459-1.002-0.223-1.482c0.284-0.541,0.395-0.135,0.831-0.437
		c0.53-0.376,0.626-0.626,0.839-1.251c0.227-0.711,0.51-1.691-0.123-2.306c-2.48-2.378-1.282,1.784-2.875,2.19
		c0.473-1.073,0.809-2.388,0.224-3.499c-0.31-0.601-0.698-1.121-1.419-0.89c-0.324,0.099-0.435,1.392-0.521,1.731
		c-0.151-0.882-0.151-2.133-1.195-2.466c-1.264-0.402-1.48,0.139-1.457,1.303c-0.536-0.704-0.766-1.081-1.722-1.005
		c-0.762,0.051-2.179,0.27-1.437,1.244c0.501,0.663,1.001,1.319,1.262,2.092c0.261,0.729,1.113,1.554,1.113,2.293
		c-0.436-0.687-1.48-1.335-1.611-2.126c-0.186-1.024-0.502-1.882-1.459-2.467c-0.719-0.438-1.873-0.532-2.611-0.079
		c-1.09,0.664,0.238,1.407,0.807,2.169c-1.004-0.875-1.612-1.887-2.748-0.708c-1.143,1.189-0.479,1.585,0.732,2.408
		c1.066,0.732,1.263,1.618,2.731,1.795c0.384,0.052,0.305,1.177,0.479,1.471c0.284,0.5,0.652,1.104,1.305,1.144
		c-0.771,0.358-0.095,1.669,0.198,2.213c0.237,0.438,2.021,1.398,2.021,1.564c0,0.311-0.564,0.585-0.564,0.979
		c0,0.409,0.09,0.94-0.174,1.294c-0.617,0.823-0.044,1.794,0.119,2.649c0.032,0.124,0.293,0.271,0.285,0.375
		c-0.046,0.261-0.316,0.179-0.393,0.325c-0.23,0.446-0.326,0.405-0.445,0.946c-0.098,0.523,0,0.556-0.395,0.917
		c-0.444,0.418-0.912,0.45-0.477-0.227c0.499-0.75,0.618-1.66,0.737-2.525c0.174-1.125-0.651-1.272-1.132-1.979
		c0.611-0.147,0.83-0.043,1.275-0.524c0.359-0.373,0.369-1.084,0.141-1.542c-0.564-1.084-1.512-1.94-2.697-2.336
		c0.608-0.25,0.74-1.044,0.654-1.605c-0.143-0.93-0.578-0.941-1.48-1.001c0.13-0.303,0.435-0.814,0.358-1.128
		c-0.12-0.521-0.478-0.374-0.913-0.624c-0.828-0.481-1.081-0.752-1.667-1.482c-0.65-0.814-1.624-0.961-2.604-0.961
		c-1.051,0-1.178,1.608-0.326,2.025c-0.315,0.335-0.844,0.208-1.251,0.521c-0.378,0.27-0.312,0.982-0.307,1.376
		c0.01,0.491,0,1.064,0.283,1.493c0.294,0.469,0.81,0.615,1.022,1.136c0.332,0.835,0.601,2.428,1.552,2.877
		c0.712,0.355,2.317,0.313,2.351,1.294c-0.427-0.46-0.642-0.667-1.297-0.731c-0.716-0.062-0.857,0.565-1.076,1.085
		c-0.266,0.647-0.336,1.053,0.045,1.628c0.303,0.457,1.087,0.614,0.999,1.261c-0.276-0.428-0.684-0.72-1.048-1.063
		c-0.441-0.428-0.758-0.198-1.218-0.365c0.842-0.563,0.886-1.313,0.886-2.231c0-0.951-0.834-1.241-1.002-2.106
		c-0.145-0.752-0.404-1.963-1.432-2.046c-1.222-0.104-1.277,0.489-1.277,1.491c-0.497-0.407-0.555-0.501-1.176-0.259
		c-0.593,0.249-0.658,0.397-0.762,0.981c-0.189,1.084,0.326,1.866,0.326,2.939c0,0.898,0.115,1.772,0.18,2.669
		c0.088,1.232,0.152,1.69,1.432,1.793c-0.283,0.357-0.892,0.116-0.892,0.606c0,0.417-0.062,1.126,0.128,1.503
		c0.261,0.5,0.561,0.978,0.884,1.437c0.554,0.805,0.877,0.125,1.375,0.606c-1.62,0.626,0.137,1.604,0,2.482
		c-1.026-0.584-0.892-1.461-1.337-2.356c-0.273-0.564-0.898-2.336-1.547-2.359c0.322-0.584,0.441-2.774-0.609-2.555
		c0.545-0.313,0.277-1.125,0.277-1.647c0-0.72-0.32-0.803-0.994-0.948c0.61-0.698,1.016-2.796-0.331-2.962
		c-1.312-0.167-1.132,2.399-1.165,3.066c-0.24-1.668-0.289-3.463,0.684-4.922c1.036-1.586,2.818-2.733,1.977-4.798
		c-0.301-0.729-0.886-1.335-1.225-2.044c-0.389-0.834-0.545-1.627-0.826-2.502c-0.654-1.971-2.365-1.977-4.212-2.097
		c1.96-0.234,0.827-2.288-0.059-2.967c1.312-0.396,2.218,1.643,2.898,2.405c0.859,0.959,2.334,1.554,3.639,1.627
		c0.658,0.043,1.384,0.043,1.661-0.569c0.25-0.527,0.016-1.449-0.045-2.012c-0.161-1.451-1.424-1.742-2.225-2.779"/>
	<path clip-path="url(#SVGID_19_)" fill="none" stroke="#000000" d="M216.619,109.55c-0.159-3.016,0.337-6.394,1.399-9.229
		c0.576-1.565,0.752-3.193,1.027-4.82c0.113-0.686,0.619-1.334,1.061-1.855c0.516-0.638,0.5-1.211,0.5-1.981
		c0-0.689,0.348-1.233,0.408-1.908c0.082-0.928,0.146-1.847,0.146-2.785c0-1.492,0.388-3.317,0.975-4.694
		c0.537-1.272,0.763-3.108,0.882-4.482c0.042-0.606,0.392-1.785,0.217-2.336c-0.341-1.064-0.249-1.149,0.919-1.441
		c1.6-0.386,3.358-0.438,4.99-0.25"/>
	<path clip-path="url(#SVGID_19_)" fill="none" stroke="#000000" d="M221.716,96.804c-0.28,0.616-0.336,1.252-0.223,1.908
		c0.142,0.795,0.784,1.108,0.838,1.95c0.113,1.826,1.022,2.952,2.376,4.183c2.603,2.355,6.417,0.509,9.313,0
		c0.678-0.115,1.525,0.063,2.212,0.084c0.794,0.02,1.62-0.063,2.403,0c1.666,0.165,3.353,0.396,5.006,0.333
		c0.826-0.021,1.308-0.208,2.111-0.061c0.762,0.124,1.521-0.034,2.197-0.376c0.598-0.313,1.427,0.061,2.111-0.127
		c0.664-0.186,1.979-0.372,2.459-0.832c0.634-0.605,1.154-0.605,2.025-0.772c0.76-0.147,1.412-0.752,2.164-0.961
		c1.535-0.438,3.146-0.561,4.666-1.022c0.697-0.218,1.242-0.803,1.873-0.98c0.785-0.251,1.6-0.449,2.338-0.804
		c1.58-0.759,3.123-1.521,4.605-2.427c2.523-1.566,4.479-4.882,5.514-7.488c0.559-1.398,0.752-3.046,1.23-4.494
		c0.521-1.639,0.631-2.931,0.014-4.547c-0.461-1.189-0.623-2.775-1.322-3.817c-0.301-0.47-0.889-1.011-0.889-1.565
		c0-0.637-0.459-1.408-0.727-1.993c-0.299-0.624-0.863-1.041-1.133-1.679c-0.297-0.667-0.623-1.312-0.947-1.97
		c-0.307-0.593-0.696-1.145-1.135-1.668c-0.478-0.563-0.748-1.253-1.215-1.836c-0.883-1.085-1.775-2.126-2.639-3.252
		c-0.455-0.627-0.889-1.242-1.311-1.878c-0.416-0.604-1.092-1.022-1.647-1.522c-0.521-0.458-0.956-0.803-1.675-0.917
		c-0.176-0.023-0.541-1.419-0.76-1.659c-0.979-1.093-2.535-1.46-3.832-2.012"/>
	<path clip-path="url(#SVGID_19_)" fill="none" stroke="#000000" d="M223.312,93.062c2.479,0.187,4.465-0.469,6.316-2.064"/>
	<path clip-path="url(#SVGID_19_)" fill="none" stroke="#000000" d="M222.157,96.65c2.961,0.333,8.198,0.06,10.168-2.547"/>
	<path clip-path="url(#SVGID_19_)" fill="none" stroke="#000000" d="M222.341,100.341c4.938,0.595,10.223-0.731,12.857-5.132"/>
	<path clip-path="url(#SVGID_19_)" fill="none" stroke="#000000" d="M226.081,103.051c4.092-0.291,8.271-2.126,10.5-5.558"/>
	<path clip-path="url(#SVGID_19_)" fill="none" stroke="#000000" d="M231.521,104.656c2.326-0.999,3.981-2.209,5.701-4.024"/>
	<path clip-path="url(#SVGID_19_)" fill="none" stroke="#000000" d="M233.797,104.875c1.705-0.958,3.532-2.366,4.71-3.898
		c1.066-1.419,2.827-3.107,2.827-4.975"/>
	<path clip-path="url(#SVGID_19_)" fill="none" stroke="#000000" d="M240.257,105.094c1.969-1.667,3.059-4.253,3.059-6.755"/>
	<path clip-path="url(#SVGID_19_)" fill="none" stroke="#000000" d="M245.536,96.107c0.604,2.188,1.621,7.256-0.404,9.021"/>
	<path clip-path="url(#SVGID_19_)" fill="none" stroke="#000000" d="M248.124,104.773c2.285-2.868,1.723-6.435,0.11-9.459"/>
	<path clip-path="url(#SVGID_19_)" fill="none" stroke="#000000" d="M250.78,104.491c0.182-1.564,0.172-3.118-0.111-4.671"/>
	<path clip-path="url(#SVGID_19_)" fill="none" stroke="#000000" d="M250.89,95.584c1.062,2.106,2.883,5.714,1.781,8.157"/>
	<path clip-path="url(#SVGID_19_)" fill="none" stroke="#000000" d="M256.175,102.26c0.373-2.19-0.061-3.817-1.139-5.609"/>
	<path clip-path="url(#SVGID_19_)" fill="none" stroke="#000000" d="M258.013,95.001c0.973,1.668,1.965,4.267,1.387,6.507"/>
	<path clip-path="url(#SVGID_19_)" fill="none" stroke="#000000" d="M260.876,92.332c1.025,1.958,2.211,5.348,1.98,7.945"/>
	<path clip-path="url(#SVGID_19_)" fill="none" stroke="#000000" d="M263.892,92.332c0.666,1.481,1.141,2.921,1.252,4.525"/>
	<path clip-path="url(#SVGID_19_)" fill="none" stroke="#000000" d="M265.077,91.06c1.762,1.563,2.852,4.327,3.102,6.945"/>
	<path clip-path="url(#SVGID_19_)" fill="none" stroke="#000000" d="M266.177,89.225c2.068,1.478,4.449,4.107,5.43,6.484"/>
	<path clip-path="url(#SVGID_19_)" fill="none" stroke="#000000" d="M266.995,87.242c2.762,1.084,5.275,3.15,6.908,5.571"/>
	<path clip-path="url(#SVGID_19_)" fill="none" stroke="#000000" d="M270.667,87.449c1.266,0.525,3.496,1.566,4.717,2.484"/>
	<path clip-path="url(#SVGID_19_)" fill="none" stroke="#000000" d="M222.827,59.963c0.588,3.044,1.223,6.443,3.383,8.863
		c1.021,1.137,1.947,2.607,3.701,2.607c0.744,0,1.031-0.939,0.723-1.531c-0.468-0.909-0.619-1.45-0.404-2.431
		c0.434-1.908-1.908-1.794-2.027-3.44c-0.064-0.803,0.175-1.251-0.07-2.087c-0.078-0.249-0.506-0.5-0.729-0.647
		c-0.467-0.292-0.349-0.667-0.258-1.167c0.125-0.647,0.518-1.522,0.258-2.182c-0.158-0.384-0.333-0.717-0.333-1.134
		c0-0.188,0.755-0.125,0.965-0.188c-0.021,0.009,0.659-0.762,0.57-0.146c-0.071,0.48,0.16,0.488,0.315,0.938
		c0.326,0.948-0.299,1.378-0.299,2.274c0,0.584,0.158,1.033,0.342,1.605c0.218,0.656,0.82,0.23,1.283,0.291
		c1.17,0.128,0.757,1.461,1.066,2.336c0.358,1.053,2.492,0.647,2.795-0.29c0.393-1.188,0.416-1.983-0.129-3.108
		c-0.196-0.396-0.499-0.626-0.674-1.043c-0.219-0.584,0.803-0.521,1.076-0.791c0.991-0.993-0.1-2.066-0.883-2.651
		c-0.912-0.666-1.623-0.813-1.827-2.065c-0.104-0.667,0.147-0.759,0.274-1.376c0.118-0.563-0.188-1.074,0.072-1.627
		c0.449,0.011,0.592,0.241,0.829,0.553c0.185,0.249,0.72,0.031,0.949,0.282c0.357,0.416-0.165,0.667,0.454,1.002
		c0.273,0.146,0.205,0.793,0.25,1.094c0.088,0.99,3.438,2.324,2.471,3.578c-0.294,0.376-1.558,0-1.229,1.02
		c0.28,0.878,0.629,1.648,0.697,2.576c0.018,0.366-0.088,0.648-0.188,0.99c-0.074,0.293-0.543,0.378-0.642,0.66
		c-0.262,0.779-0.544,1.625-0.01,2.365c0.942,1.294,3.253-0.084,3.679-1.304c0.312-0.906,0.792-0.927,1.467-1.574
		c0.587-0.564,0.434-1.481,0.434-2.189c0-0.667-0.682-0.96-0.412-1.775c0.24-0.769,0.675-1.625,0.719-2.419
		c0.043-0.739,0.098-1.375-0.765-1.709c-0.901-0.365-1.457-0.887-1.457-1.867c0-1.406-1.849-0.989-1.849-2.097
		c0-0.52,0.045-1.26-0.488-1.604c-0.512-0.314-1.273-0.041-1.359-0.772c0.303-0.103,0.663-0.271,0.879-0.5
		c-0.031,0.039,0.143-1.085,0.427-0.545c0.366,0.72,0.684,1.481,1.175,2.141c0.586,0.811,2.719,3.283,3.504,1.303
		c0.564-1.418-2.09-3.161-1.402-4.14c0.66-0.949,0.792,0.542,1.095,0.97c0.686,0.907,0.979,0.239,1.786-0.043
		c0.34-0.124,0.666,0.125,0.547,0.521c-0.197,0.666-0.482,0.083-0.918,0.439c-0.51,0.396-0.184,1.71-0.086,2.209
		c0.174,0.939,0.654,0.961,1.534,0.783c0.325-0.071,0.401,0.596,0.444,0.795c0.087,0.415-0.65,0.592-0.87,0.802
		c-0.597,0.584-0.562,1.251-0.206,1.939c0.447,0.855,0.221,1.386-0.207,2.22c-0.217,0.407-0.403,0.636-0.357,1.097
		c0.055,0.394,0.305,0.477,0.402,0.834c0.264,0.875-0.098,1.458,1.1,1.647c1.949,0.312,2.035-1.585,3.099-2.627
		c1.231-1.169,1.592-2.065,0.394-3.485c1.383-0.54,1.63-1.418,1.108-2.68c0.513,0,1.003-0.01,1.525-0.053
		c0.565-0.06,0.128,0.752,0.304,0.963c0.869,1.082,1.457,0.236,2.59-0.065c-0.195,2.106,1.479,1.179,2.893,1.49
		c-0.107,0.91-0.957,0.806-1.631,1.056c-1.064,0.417-1.457-0.449-2.436-0.493c-0.793-0.031-1.545,0.565-1.861,1.161
		c-0.514,1.001,0.25,1.041,0.664,1.77c0.697,1.21-0.828,0.522-1.318,1.254c-0.444,0.666,0.816,1.624-0.631,1.624
		c-0.469,0-0.793,0.043-1.252,0.179c-0.336,0.093-0.467,0.521-0.783,0.678c-0.848,0.426-1.74-0.21-2.424,0.624
		c-0.221,0.272-0.24,0.751-0.556,0.91c-0.468,0.219-0.806,0.334-1.317,0.426c-0.84,0.146-0.945,1.323-0.794,1.919
		c0.206,0.793-0.349,1.084-0.88,1.71c-0.601,0.697-1.013,1.335-1.447,2.128c-0.469,0.864,0.411,1.354,1,1.71
		c0.76,0.478,1.446-0.981,1.871-0.741c0.84,0.48-0.52,1.116-0.457,1.636c0.087,0.69,0.149,1.752,1.24,1.629
		c1.057-0.127,2.034-0.355,2.764-1.181c0.217-0.25,0.445-0.489,0.674-0.738c0.133-0.147-0.13-0.378-0.11-0.544
		c0.048-0.28-0.159-0.573,0.196-0.573c0.309,0,0.611-0.156,0.906-0.261c0.967-0.334,1.49-1.375,1.49-2.313
		c0-0.918,0.086-0.44,0.663-0.397c0.751,0.041,0.89-0.083,1.556-0.501c0.412-0.271,0.555-0.793,0.771-1.211
		c0.099-0.207,0.036-1.375,0.339-1.479c0.482-0.146,0.6,0.791,0.871,0.918c0.283,0.135,1.254-0.054,1.479-0.209
		c0.957-0.647,0.305-2.023,0.305-2.869c0-0.927,0.652-2.22,1.109-3.074c0.063,0.437-0.303,0.896-0.182,1.25
		c0.16,0.564,0.664,0.354,0.791,1.042c0.176,1.023,1.906-0.021,2.785,0.042c-0.846,0.25-1.242,0.407-1.848,1.002
		c-0.596,0.564,0.479,1.335-0.283,1.981c-0.947,0.772,0.439,1.251,0.988,1.355c0.896,0.167,1.537,0.074,2.396-0.166
		c0.032,0.103,0.056,0.186,0.077,0.291c-0.85-0.125-0.586,1.127-1.34,1.127c-0.793,0-1.51-0.437-2.364-0.491
		c-0.245-0.021-0.669,0.054-0.8,0.261c-0.285,0.46-0.467,0.417-1.027,0.501c-0.236,0.043-0.387-0.365-0.63-0.438
		c-0.543-0.178-0.835-0.251-1.411-0.21c-1.156,0.084-2.918,1.899-3.07,3.004c-0.109,0.793,0.543,1.366,1.326,1.441
		c0.439,0.04,0.809-0.023,1.242-0.084c0.326-0.051,0.764,0.355,1.057,0.478c1.574,0.719,3.1-0.02,4.658-0.394
		c0.855-0.21,1.393-0.023,2.174-0.564c0.469-0.312,1.492-1.095,2.035-1.095c1.588,0-0.654,0.948-0.086,1.553
		c0.758,0.814,1.324,0.575,2.402,0.73c0.229,0.043,0.75,0.461,0.382,0.583c-0.284,0.085-0.62,0.044-0.915,0.044
		c-0.912,0-1.521,0.041-2.264-0.563c-0.457-0.355-1.01-0.898-1.662-0.438c-0.449,0.311-0.568,1.792-1.438,1.605
		c-0.859-0.178-1.428-0.397-2.318-0.397c-0.324,0-0.555,0.397-0.889,0.438c-0.492,0.063-0.98,0.126-1.482,0.189
		c-0.891,0.104-1.383-0.063-1.938-0.73s-1.477-0.711-2.295-0.877c-0.729-0.167-0.721,1.211-0.688,1.584
		c0.088,0.878-0.696,1.482-0.555,2.193c0.098,0.52,0.881,1.146,1.274,1.624c0.608,0.731,1.272,0.834,2.2,0.461
		c0.561-0.23,1.141-1.168,1.805-0.96c0.879,0.293,1.369,0.604,2.324,0.604c0.721,0,1.27-0.311,1.895-0.365
		c0.514-0.052,2.113,0.094,2.375-0.363c0.871-1.503,2.543-1.001,4.113-1.147c0.348-0.021,0.816-0.021,0.631,0.457
		c-0.134,0.377-0.521,0.24-0.805,0.293c-0.34,0.04-0.721-0.02-1.035,0.063c-0.424,0.123-0.686,0.417-1.143,0.458
		c-0.567,0.062-1.512,0.281-1.523,0.96c0,0.501,1.055,1.688,1.523,1.73c0.826,0.094,1.447-0.103,2.24-0.103
		c0.315,0,0.762,0.375,0.524,0.709c-0.11,0.166-0.39,0.271-0.349,0.458c0.045,0.25,0.076,0.428-0.176,0.604
		c-0.15,0.106-0.762-0.042-0.957,0c-0.578,0.106-0.371,0.472-0.969,0.145c-0.25-0.145-0.119-0.623-0.314-0.896
		c-0.312-0.417-0.48-0.583-1.078-0.521c-0.236,0.021-0.684,0.397-0.883,0.21c-0.348-0.334-0.379-0.417-0.434-0.898
		c-0.107-0.949-1.291-0.845-1.791-0.365c-0.535,0.512-0.822-0.551-1.43-0.761c-0.508-0.157-1.697-0.146-2.109,0.25
		c-0.328,0.313-1.393,0.022-1.959,0.147c-1.023,0.23-1.588,0.519-1.588,1.574c0,0.844,0.867,1.073,1.588,1.158
		c0.293,0.02,0.758-0.127,0.955,0.063c0.284,0.27,0,0.771,0.327,1.094c0.677,0.635,1.198,0.678,2.125,0.773
		c0.358,0.029,0.226,0.49-0.087,0.405c-0.449-0.134-0.959-0.314-1.43-0.324c-2.651-0.052-1.195,2.952-0.086,2.284
		c0.695-0.395,1.383-0.895,1.738,0.032c0.264,0.636,1.203,1.075,1.742,0.595c0.525-0.437,1.328-1.419,1.463-0.251
		c0.041,0.271,2.055,0.585,2.391,0.648c0.412,0.061,0.326,0.583,0.195,0.834c-0.141,0.251-0.672,0.251-0.955,0.271
		c-0.588,0.041-0.633,0.092-1.021,0.52c-0.264,0.294-0.59-0.406-0.744-0.54c-0.586-0.566-1.172-1.064-1.848-0.418
		c-0.248,0.228,0.164,0.783-0.227,0.875c-0.523,0.126-0.926,0.021-1.359,0.365c-0.35,0.283,0.191,2.138-0.309,2.138
		c-1.066,0-1.205-0.501-1.205-1.398c0-0.667,0.139-1.562-0.371-2.064c-0.771-0.74-1.25,0.542-1.566,1.105
		c-0.205,0.386-0.196,1.503-0.885,1.418c-0.955-0.103-0.443-1.032-0.172-1.604c0.25-0.501,0.869-0.878,1.066-1.419
		c0.131-0.357,0.174-1.544-0.436-1.544c-1.086,0-0.65-0.584-1.021-1.157c-0.438-0.668-0.829-0.826-1.044-1.618
		c-0.328-1.178-0.374-3.836-2.525-2.751c-0.088-0.825,0.196-2.546-1.111-2.546c-0.871,0-2.742,0.21-2.816,1.251
		c-0.087,1.169,0.92,2.129,0.574,3.234c-0.191,0.626-0.76,0.437-0.836,1.263c-0.053,0.656,0.771,0.865,1.238,1.052
		c0.566,0.207,0.893,0.272,0.883,0.98c0,0.479-0.59,0.939,0.215,1.251c0.698,0.292,0.241,0.637,0.241,1.169
		c0,0.907,0.217,0.707,0.695,1.396c0.437,0.626,0.622,0.69,0.263,1.357c-0.381,0.686-0.662,0.593-0.717,1.438
		c-0.066,1.105,1.674,1.648,1.086,2.734c-0.609-0.168-0.904-0.815-1.434-1.128c-0.48-0.27-1.438,0.104-1.817,0.501
		c-0.303,0.293-0.62,1.605-1.146,1.512c-0.543-0.105,0.492-1.577,0.697-1.909c0.457-0.688,2.101-2.669,1.428-3.504
		c-0.5-0.626-0.513-1.189-1.068-1.772c-0.436-0.469-1.558,0.166-1.687,0.636c-0.956-0.594,0.915-2.555,0.403-3.62
		c-0.186-0.394-0.688-1.752-1.219-1.752c-0.686,0-1.524,0.146-1.883,0.784c-0.348,0.595-0.307,1.354-0.742,1.826
		c-0.586,0.645-1.412,0.385-1.914,1.144c-0.326,0.481-0.358,1.418-0.184,1.974c0.314,1.02,0.815,0.759,1.589,1.207
		c0.38,0.219,1.38,0.93,0.771,1.376c-0.349,0.254-0.5-0.072-0.849,0.325c-0.315,0.334-0.315,0.585-0.389,1.054
		c-0.134,0.739,0.348,1.032,0.607,1.71c0.119,0.323,0.413,0.656,0.043,0.843c-0.284,0.136-0.772-0.249-0.936-0.417
		c-0.219-0.186-0.673-0.219-0.838-0.437c-0.216-0.281,0.033-0.762-0.078-1.063c-0.105-0.292-0.541-0.47-0.609-0.792
		c-0.063-0.377-0.127-0.71-0.127-1.086c0-1-0.633-1.105-1.546-1.23c-1.013-0.126-0.349,1.188-1.044,1.418
		c-0.175-0.438-0.154-0.699-0.623-0.751c-0.248-0.02-0.869-0.125-0.838-0.428c0.101-0.981-0.119-1.45,0.719-2.094
		c0.239-0.191,0.796-0.108,1.09-0.116c0.391-0.031,0.499-0.345,0.738-0.636c0.371-0.48,0.674-1.564,0.393-2.149
		c-0.348-0.73-1.098-0.625-0.314-1.532c0.596-0.708,1.021-1.324,0.248-2.067c-0.739-0.698,2.438-2.636,2.592-3.22
		c0.468-1.983-0.938-3.036-2.633-1.773c-0.285,0.187-1.416,1.367-1.458,1.064c-0.088-0.897-0.079-1.585-1.2-1.48
		c-0.959,0.071-0.521,1.23-1.102,1.708c-0.633,0.501-0.951,1.107-0.812,1.898c0.141,0.815,0.174,1.545,0.174,2.379
		c0,0.208-1.775-0.126-1.95,0.561c-0.242,0.91,0.151,2.086,0.271,3.026c0.2,1.523-0.881-0.084-1.454,0.041
		c-0.139,0.021-1.08,0.417-1.147,0.398c-0.543-0.178-0.277-1.074-0.074-1.348c0.275-0.385,0.631-0.405,0.738-0.886
		c0.104-0.437,0.084-0.885,0.275-1.293c0.379-0.804,1.709-1.105,1.424-2.147c-0.203-0.731-0.587-0.418-0.066-1.168
		c0.294-0.417,0.658-0.814,0.991-1.21c0.538-0.636,1.44-1.125,1.44-2.003c0-0.75-1.84-0.54-2.015,0.127"/>
	<line clip-path="url(#SVGID_19_)" fill="none" stroke="#000000" x1="181.36" y1="51.482" x2="182.933" y2="51.898"/>
	<path clip-path="url(#SVGID_19_)" fill="#F9F26C" d="M221.96,258.687c-10.184,2.49-22.704,1.955-33.346-0.324
		c-8.149-1.701-11.8-5.287-14.291-11.606c-1.578-4.049-0.907-12.547,1.584-16.211c7.318-10.674,20.938-10.447,31.736-13.166
		c10.969-2.661,25.978-11.072,29.728-20.423"/>
	<path clip-path="url(#SVGID_19_)" fill="none" stroke="#000000" d="M221.96,258.687c-10.184,2.49-22.704,1.955-33.346-0.324
		c-8.149-1.701-11.8-5.287-14.291-11.606c-1.578-4.049-0.907-12.547,1.584-16.211c7.318-10.674,20.938-10.447,31.736-13.166
		c10.969-2.661,25.978-11.072,29.728-20.423"/>
	<polygon clip-path="url(#SVGID_19_)" fill="#B4F367" points="237.159,198.203 241.319,200.703 244.081,202.337 247.292,204.521 
		246.6,207.855 245.931,211.294 245.523,213.473 245.282,215.576 245.424,218.008 245.985,220.327 247.292,223.064 249.141,225.792 
		251.401,228.37 253.569,231.019 255.661,233.358 257.19,235.999 258.69,239.355 259.04,242.622 259.089,244.19 259.04,247.31 
		258.288,250.733 256.28,253.999 253.569,256.263 250.401,258.451 246.141,260.083 242.093,261.177 236.843,261.804 
		232.312,262.103 227.434,261.89 224.272,260.709 222.952,259.464 221.851,257.288 221.404,254.789 221.642,252.603 
		221.994,249.333 222.442,245.976 222.442,242.474 222.501,238.649 222.821,234.668 223.169,231.55 223.681,227.187 
		225.023,223.616 226.606,220.022 228.608,215.81 230.322,212.933 232.312,208.807 234.608,203.97 236.253,200.703 	"/>
	<path clip-path="url(#SVGID_19_)" fill="none" stroke="#000000" d="M248.524,201.664c1.561,6.674-5.384,12.936-3.068,19.197
		c6.945,8.347,16.203,16.696,13.889,27.131c-4.629,12.522-23.148,18.783-34.723,12.522c-2.316-2.087-4.631-6.261-4.631-8.349
		c2.314-18.783,4.631-37.565,17.432-55.239"/>
	<path clip-path="url(#SVGID_19_)" fill="none" stroke="#000000" d="M222.719,379.8c2.219,0,4.53-0.865,6.725-0.342
		c2.13,0.506,2.738,3.68,2.861,5.59c0.143,2.183-1.06,4.332-1.945,6.284c-0.787,1.735-1.717,4.127-3.129,5.438
		c-0.719,0.668-1.546,1.713-2.46,2.1c-1.012,0.428-2.503,0.229-3.583,0.229c-1.09,0-2.123,0.135-3.125-0.321
		c-0.719-0.327-1.531-1.958-1.978-2.571c-1.221-1.68-2.249-3.577-3.395-5.313c-1.11-1.683-1.961-4.181-1.579-6.243
		c0.502-2.713,1.611-4.695,4.618-5.079C218.021,379.28,220.418,379.8,222.719,379.8z"/>
	<path clip-path="url(#SVGID_19_)" fill="none" stroke="#000000" d="M195.291,407c0.564,4.519-0.075,8.806-0.634,13.278
		c-0.569,4.551-0.555,9.098-0.781,13.67c-0.112,2.232,0.3,4.507,0.621,6.707c0.255,1.739,0.657,4.444,1.612,5.945
		c1.252,1.967,2.615,3.949,4.271,5.605c1.698,1.699,3.645,2.619,5.858,3.457c4.387,1.656,8.762,2.287,13.417,2.533
		c2.152,0.113,4.288,0.955,6.257,1.766c1.981,0.816,4.269,1.027,6.392,0.707c4.412-0.668,8.596-3.201,11.418-6.695
		c3.166-3.92,3.831-7.928,4.487-12.774c0.658-4.877-0.297-10.328-0.987-15.167c-0.745-5.209-0.823-9.906,0.188-15.082"/>
	<path clip-path="url(#SVGID_19_)" fill="none" stroke="#000000" d="M213.146,414.901c0.844,2.005,1.52,3.82,1.52,6.024
		c0,2.325,0.034,4.732,0.303,7.044c0.28,2.398,0.651,4.318,0.317,6.744c-0.327,2.385-0.227,4.344,0.249,6.721
		c0.414,2.072,1.623,4.062,2.473,5.987c0.704,1.591,0.963,4.86,2.849,5.427c1.996,0.598,4.641,1.074,6.389-0.404
		c1.4-1.184,1.035-4.025,1.688-5.766c0.88-2.348,2.035-5.182,1.368-7.734c-0.318-1.224-0.995-2.561-0.953-3.815
		c0.051-1.507,0.146-3.005,0.249-4.509c0.174-2.551,0.512-5.053,0.353-7.614c-0.177-2.817-0.145-5.327,0.367-8.104"/>
	<path clip-path="url(#SVGID_19_)" fill="none" stroke="#000000" d="M220.364,450.61c0.509-1.277,2.058-1.139,3.425-1.139
		c0.726,0,3.055,0.779,2.881,1.825C226.353,453.2,219.719,452.229,220.364,450.61z"/>
	<path clip-path="url(#SVGID_19_)" fill="#628FF1" d="M233.356,430.553c4.637-2.474,7.424,3.206,7.833,7.296
		c0.45,4.505,0.109,9.325-3.359,12.562c-1.631,1.521-3.822,1.869-5.791,0.777c-1.85-1.027-1.984-4.396-1.768-6.203
		c0.271-2.254,0.237-4.305,0.159-6.568c-0.064-1.859-0.641-4.709,0.747-6.166C231.911,431.481,232.422,431.052,233.356,430.553"/>
	<path clip-path="url(#SVGID_19_)" fill="none" stroke="#000000" d="M233.356,430.553c4.637-2.474,7.424,3.206,7.833,7.296
		c0.45,4.505,0.109,9.325-3.359,12.562c-1.631,1.521-3.822,1.869-5.791,0.777c-1.85-1.027-1.984-4.396-1.768-6.203
		c0.271-2.254,0.237-4.305,0.159-6.568c-0.064-1.859-0.641-4.709,0.747-6.166C231.911,431.481,232.422,431.052,233.356,430.553z"/>
	<path clip-path="url(#SVGID_19_)" fill="#628FF1" d="M207.22,424.854c-2.035,1.178-3.188,2.834-3.875,5.167
		c-0.562,1.896-0.646,4.274-0.411,6.227c0.402,3.351,2.236,10.974,7.174,8.817c2.059-0.9,3.585-2.509,4.254-4.635
		c0.636-2.021,0.125-4.426,0.196-6.572c0.077-2.328,0.032-11.207-4.487-10.332C208.983,423.737,208.179,424.3,207.22,424.854"/>
	<path clip-path="url(#SVGID_19_)" fill="none" stroke="#000000" d="M207.22,424.854c-2.035,1.178-3.188,2.834-3.875,5.167
		c-0.562,1.896-0.646,4.274-0.411,6.227c0.402,3.351,2.236,10.974,7.174,8.817c2.059-0.9,3.585-2.509,4.254-4.635
		c0.636-2.021,0.125-4.426,0.196-6.572c0.077-2.328,0.032-11.207-4.487-10.332C208.983,423.737,208.179,424.3,207.22,424.854z"/>
	<path clip-path="url(#SVGID_19_)" fill="none" stroke="#000000" d="M206.231,444.609c0.448,1.466,0.219,2.926,0.875,4.368
		c0.389,0.855,0.49,4.373,1.404,4.521c1.629,0.264,1.732-3.316,1.808-4.213c0.146-1.751,0.366-3.206,0.851-4.904"/>
	<path clip-path="url(#SVGID_19_)" fill="none" stroke="#000000" d="M231.837,451.067c0.396,1.188,1.183,2.242,1.52,3.418
		c0.315,1.104-0.324,2.766,1.102,3.154c1.873,0.51,1.915-5.424,2.545-6.648"/>
	<path clip-path="url(#SVGID_19_)" fill="#2441ED" d="M232.9,432.908c-0.065,0.515-0.236,1.258-0.152,1.596
		c0.326,1.302,1.72,0.956,1.938-0.569c0.104-0.729,0.162-1.813-0.404-2.38C233.123,430.396,233.005,432.073,232.9,432.908"/>
	<path clip-path="url(#SVGID_19_)" fill="none" stroke="#000000" d="M232.9,432.908c-0.065,0.515-0.236,1.258-0.152,1.596
		c0.326,1.302,1.72,0.956,1.938-0.569c0.104-0.729,0.162-1.813-0.404-2.38C233.123,430.396,233.005,432.073,232.9,432.908z"/>
	<path clip-path="url(#SVGID_19_)" fill="#2441ED" d="M210.486,426.222c0.072,0.879-0.375,1.381-0.003,2.311
		c0.38,0.949,1.124,0.604,1.446-0.182c0.294-0.717,0.13-1.57-0.168-2.226C211.449,425.438,210.409,425.276,210.486,426.222"/>
	<path clip-path="url(#SVGID_19_)" fill="none" stroke="#000000" d="M210.486,426.222c0.072,0.879-0.375,1.381-0.003,2.311
		c0.38,0.949,1.124,0.604,1.446-0.182c0.294-0.717,0.13-1.57-0.168-2.226C211.449,425.438,210.409,425.276,210.486,426.222z"/>
	<path clip-path="url(#SVGID_19_)" fill="none" stroke="#000000" d="M220.136,379.647c-0.057,0.83,0.272,1.635,0.217,2.445
		c-0.063,0.872-0.217,1.744-0.217,2.618c0,0.858,0.146,1.664,0.409,2.485c0.415,1.305,0.544,1.568,1.956,1.568
		c1.669,0,1.51-3.187,1.51-4.224c0-1.562,0.425-3.278,0.152-4.817"/>
	<path clip-path="url(#SVGID_19_)" fill="#FFFFFF" d="M224.467,446.913c0.104-2.197-0.774-4.094-0.936-6.242
		c-0.166-2.209-0.28-4.451-0.28-6.668c0-4.521-0.102-9.045-0.102-13.566c0-4.525-0.025-9.064,0.052-13.589
		c0.014-0.849-0.243-2.462,0.551-2.858c1.057-0.529,1.786,0.061,2.844,0.115c2.35,0.124,3.046-3.861,0.556-3.893
		c-0.833-0.01-1.663,0.842-1.953,1.564c-0.34,0.851-1.062,1.236-1.896,1.576c0.131-4.168,0.195-8.509,1.245-12.576
		c0.558-2.161,2.004-3.797,2.289-6.134c0.307-2.509,0.481-4.456,2.076-6.487c2.868-3.647,3.452-8.1,5.192-12.249
		c1.509-3.595,3.926-7.8,8.25-8.097c4.353-0.301,8.29,2.779,10.104,6.624c1.008,2.132,1.409,4.295,1.899,6.589
		c0.478,2.221,1.221,4.346,1.566,6.594c0.664,4.32,0.87,8.688-1.312,12.643c-2.046,3.704-5.899,6.17-8.262,9.668
		c-1.237,1.834-2.662,3.834-2.952,6.094c-0.279,2.178-0.496,4.332-0.496,6.529c0,2.307,0.162,4.604,0.224,6.908
		c0.057,2.179,0.051,4.344,0.882,6.385c0.875,2.148,1.584,4.234,2.016,6.518c0.372,1.965-0.122,4.035,0.121,6.044
		c0.128,1.058,0.283,2.073,0.305,3.14c0.011,0.6,0.002,1.104-0.15,1.678c-0.167,0.627-0.957,0.188-1-0.314
		c-0.185-2.115,0.794-4.044,0.086-6.048c-0.322-0.915-0.253-1.901-0.253-2.86c0-1.225-0.357-2.365-0.658-3.547
		c-0.527-2.071-0.89-4.451-2.516-5.968c-0.728-0.68-1.862-0.782-2.778-0.542c-1.57,0.414-0.31,1.404,0,2.128
		c0.162,0.377-0.115,0.954-0.582,0.988c-0.531,0.038-0.721-0.761-1.12-0.927c-0.375-0.157-0.859-0.354-1.21-0.062
		c-0.655,0.548,0.483,0.501,0.658,0.634c0.282,0.211,0.846,0.158,0.71,0.633c-0.158,0.553-0.998-0.16-1.317,0.025
		c-1.195,0.688,1.131,1.423,1.754,1.201c0.48-0.171,0.896-0.377,1.277-0.725c0.082-0.075,0.616-0.922,0.666-0.934
		c0.567-0.123,1.753,1.312,1.976,1.773c0.605,1.256-0.473,1.391-1.469,1.723c-0.374,0.125-1.856,1.371-1.772,1.723
		c0.319,1.337,1.591-0.615,1.873-0.659c1.568-0.245-0.011,1.528-0.201,1.823c-0.222,0.343-0.877,1.42,0.227,1.039
		c0.114-0.039,1.646-2.242,1.646-1.241c0,0.753-1.471,1.192-1.823,1.723c-0.888,1.331,1.705-0.3,1.722-0.305
		c0.447-0.111,1.064-0.134,1.064,0.431c0,0.593-0.572,0.693-0.852,1.133c-0.363,0.569-1.81,1.375-1.073,1.881
		c0.18,0.124,0.529-0.418,0.811-0.354c0.429,0.099,0.717,0.454,0.862,0.854c0.559,1.536-0.647,0.464-1.394,0.464
		c-1.07,0,0.245,0.951,0.201,1.215c-0.064,0.389-0.633,0.396-0.633,0.861c0,0.562,0.593,0.233,0.861,0.051
		c0.388-0.263,0.296-0.701,0.709-1.013c0.45-0.341,0.743,0.128,1.114-0.507c0.41-0.701-0.801-2.479-0.405-2.785
		c0.561-0.437,1.332,1.477,1.304,1.842c-0.034,0.449-0.023,0.961-0.265,1.349c-0.24,0.386-0.883,0.122-1.194,0.55
		c-0.357,0.491-0.43,0.951-0.572,1.547c-0.07,0.293,0.135,1.018-0.032,1.247c-0.56,0.769-1.394-0.923-1.772-0.355
		c-0.317,0.478,0.811,0.944,0.646,1.653c-0.035,0.154-1.691,1.036-0.697,1.284c0.354,0.089,1.898-1.353,2.178-1.722
		c0.582-0.766-0.051-2.175,0.558-2.685c0.915-0.767,0.851,0.949,0.707,1.45c-0.298,1.043-1.004,1.252-1.112,2.501
		c-0.102,1.157,0.072,1.874-1.311,1.874c-1.438,0-0.919,1.229-0.919,2c0,0.861-1.426,1.252-1.367,1.697
		c0.129,0.975,1.766-0.357,1.863-0.779c0.103-0.441-0.007-1.203,0.314-1.551c0.403-0.436,0.742-0.101,1.165-0.253
		c1.346-0.483,0.614-1.071,1.241-1.95c0.586-0.82,0.603,1.182,0.254,1.672c-0.468,0.654-1.409,1.191-1.849,1.898
		c-0.26,0.416-0.128,1.047-0.355,1.469c-0.218,0.408-0.785,0.596-0.911,1.064c-0.393,1.459,0.935-0.35,1.063-0.404
		c-0.134,1.207,0.76,1.086,0.76-0.096c0-1.262-0.28-1.67,0.968-2.086c2.062-0.686,2.722-2.836,3.055-4.832
		c0.701-4.205,0.182-8.394,0.182-12.615c0-4.53-2.381-8.603-2.381-13.186c0-4.475-0.281-9.091,0.811-13.482
		c1.052-4.232,4.426-7.369,7.305-10.461c3.042-3.267,5.184-7.152,5.277-11.746c0.089-4.265-0.104-9.268-1.489-13.326
		c-1.438-4.213-1.858-8.607-5.622-11.573c-3.243-2.556-7.99-4.568-12.023-2.669c-4.464,2.1-5.559,5.771-7.382,10.025
		c-0.879,2.051-1.101,4.261-2.015,6.32c-0.437,0.982-0.884,1.947-1.271,2.952c-0.142,0.37-1.423,2.644-1.824,2.669
		c-0.611,0.04-0.719-1.805-0.415-2.195c0.275-0.354,0.766-0.678,0.873-1.104c0.171-0.688-0.163-1.283-0.053-1.918
		c0.165-0.949,1.146-1.383,1.429-2.348c0.347-1.177-0.59-1.926-0.404-2.912c0.203-1.084,0.457-1.855,0.343-2.996
		c-0.109-1.099-1.157-1.508-1.479-2.602c-0.946-3.219-3.013-0.627-3.69,1.254c-0.281,0.781-0.163,2.119,0.527,2.654
		c0.812,0.633-0.093,1.669,0.487,2.537c0.465,0.699-0.415,1.798-0.78,2.406c-0.443,0.738,0.253,2.232,0.326,3.019
		c0.109,1.161,0.077,2.155,0.452,3.277c0.399,1.201,0.865,1.821,0.865,3.134c0,0.952,0.01,1.91-0.102,2.858
		c-0.133,1.133-0.859,1.962-1.036,3.03c-0.17,1.014-0.101,2.054-0.969,2.748c-1.047,0.838-0.321,1.928-0.882,2.909
		c-0.602,1.052-0.935-0.954-1.068-1.356c-0.368-1.104-0.334-2.248-0.654-3.329c-0.27-0.912-1.066-1.61-1.23-2.56
		c-0.194-1.129-0.273-2.244-0.215-3.392c0.113-2.116,2.111-3.359,2.23-5.497c0.052-0.936-0.514-1.736-0.657-2.666
		c-0.126-0.814,0.738-1.912,0.542-2.962c-0.199-1.067-1.173-1.569-0.375-2.708c0.706-1.01,0.285-1.932,0.009-2.96
		c-0.333-1.243-0.275-5.288-2.564-4.231c-2.181,1.006-0.701,3.951-1.233,5.549c-0.339,1.014-0.948,1.579-1.064,2.786
		c-0.059,0.61-0.074,1.095-0.016,1.708c0.067,0.716,0.628,0.878,0.877,1.433c0.39,0.87,0.325,1.869,0.81,2.735
		c0.621,1.108,1.115,1.447,1.115,2.812c0,0.3-0.521,2.265-0.826,1.411c-0.424-1.187-0.775-2.4-1.163-3.6
		c-0.651-2.021-2.119-3.744-2.675-5.829c-1.128-4.23-4.358-8.101-7.16-11.39c-2.803-3.291-8.806-2.875-12.048-0.783
		c-3.734,2.409-6.397,5.884-8.151,9.895c-1.812,4.139-1.845,8.484-2.257,12.886c-0.438,4.664,2.341,8.079,4.889,11.597
		c1.276,1.764,2.619,3.517,4.015,5.188c1.372,1.644,3.033,3.184,3.799,5.217c1.575,4.184,1.229,9,0.658,13.346
		c-0.57,4.33-0.662,8.716-1.253,13.051c-0.564,4.136-1.109,8.81,0.531,12.709c0.376,0.895,0.671,1.757,0.671,2.734
		c0,1.069-0.074,2.521,0.786,3.267c0.807,0.7,1.863,0.813,2.692,1.586c0.371,0.347,1.737,1.981,2.144,2.036
		c1.306,0.174-0.64-1.502-0.83-1.692c-0.727-0.728-1.038-1.762-0.955-2.76c0.122-1.462,1.262,0.749,1.381,0.956
		c0.163,0.284,2.255,2.391,2.102,1.166c-0.1-0.801-1.449-1.388-1.532-2.463c-0.018-0.244-0.352-1.146-0.114-1.336
		c0.483-0.383,1.007,0.352,1.19,0.684c0.258,0.464,0.735,0.365,0.735-0.184c0-0.437-0.396-0.846-0.701-1.151
		c-0.773-0.772-2.05-0.562-2.264-1.95c-0.187-1.217,1.237,0.154,1.906,0.042c1.491-0.248-0.222-1.239-1.038-1.239
		c-0.222,0-0.973,0.051-1.095-0.254c-0.23-0.578,0.851-0.307,1.114-0.354c1.559-0.281,0.684-1.235-0.552-1.152
		c-0.99,0.065-1.776-0.99-0.917-1.634c0.299-0.224,1.122,0.139,1.418-0.151c0.208-0.204,0.381-1.294,0.051-1.469
		c-0.642-0.339-1.139,1.773-2.077,0.456c-0.798-1.124,0.547-1.886,1.267-2.279c0.668-0.366,1.501-1.09,0.102-1.014
		c-0.254,0.014-0.85,0.559-1.013,0.506c-0.55-0.177-0.496-0.934-0.178-1.316c0.266-0.318-0.11-0.727,0.127-0.963
		c0.293-0.293,0.547,0.467,0.759,0.608c0.303,0.201,0.809,0.349,1.039,0.025c0.437-0.61-0.667-0.321-0.836-0.685
		c-0.658-1.411,1.257-0.74,1.545-1.316c0.312-0.621-1.615-1.146-2.085-0.676c-0.963,0.963-1.024,0.559-1.218-0.789
		c-0.205-1.432,0.892-1.113,1.715-0.514c1.066,0.774,0.44,0.098,1.158-0.021c0.226-0.039,0.891,0.184,0.911,0.176
		c0.424-0.143,1.106-0.842,0.254-1.012c-0.968-0.193-1.946,0.393-2.533-0.76c-0.603-1.183,0.594-1.958,1.62-1.268
		c0.433,0.291,0.998,2.145,1.85,1.293c0.324-0.324-0.423-0.593-0.481-0.911c-0.135-0.74-0.375-0.821-1.089-0.989
		c-1.144-0.269-1.29-1.245,0.02-1.354c0.708-0.06,1.865,1.303,1.981,1.937c0.075,0.413,0.349,1.146,0.836,0.658
		c0.425-0.425-0.271-0.797-0.278-1.19c-0.022-1.181,0.536-0.379,1.062,0.279c0.447,0.558,0.98-0.414-0.102-1.039
		c-0.598-0.346-2.362-0.176-2.583-0.963c-0.131-0.471,0.551-1.005,0.912-1.062c0.59-0.094,0.837,0.258,1.266,0.633
		c0.751,0.656,1.607-0.381,2.678-0.381c1.077,0,1.479-1.113,0.241-1.113c-0.749,0-2.486,0.529-3.044,0.051
		c-0.683-0.585,0.367-2.103-1.198-1.922c-1.256,0.145-2.066,0.758-2.983,1.595c-1.798,1.642-2.717,2.946-3.157,5.37
		c-0.358,1.965,0.059,4.264-0.484,6.165c-0.607,2.124-0.057,4.103,0.322,6.188c0.357,1.963,1.385,4.232,0.94,6.232
		c-0.214,0.963-1.041-1.719-1.117-1.986c-0.294-1.027-0.583-2.054-0.883-3.078c-0.57-1.941-0.219-4.152-0.015-6.129
		c0.214-2.07,0.358-4.005,0.274-6.095c-0.176-4.429,0.915-8.874,1.284-13.28c0.368-4.393,0.211-8.863-1.367-13.018
		c-0.786-2.071-2.363-3.643-3.649-5.443c-1.252-1.754-2.464-3.5-3.792-5.2c-2.873-3.677-4.477-7.806-4.368-12.468
		c0.105-4.551,1.266-8.877,3.653-12.754c1.991-3.238,6.141-6.935,10.081-6.935c2.344,0,4.18,0.56,5.66,2.472
		c1.296,1.675,2.78,3.34,3.836,5.174c1.715,2.979,2.899,6.203,4.438,9.281c1.517,3.034,1.937,6.136,2.374,9.459
		c0.227,1.732,0.592,3.209,1.647,4.637c0.904,1.225,0.824,3.098,0.999,4.578c0.38,3.227,1.363,6.801,0.9,10.035
		c-1.219-0.459-0.979-1.432-1.772-2.179c-0.702-0.659-2.287-0.807-3.091-0.253c-0.647,0.448-1.132,1.916-0.234,2.395
		c1.097,0.584,1.777,0.385,2.92,0.291c0.865-0.072,2.258,0.016,2.292,1.143c0.038,1.241,0.151,2.479,0.189,3.72
		c0.071,2.286-0.051,4.585-0.051,6.873c0,4.403,0.71,8.796,0.71,13.204c0,4.549,0.202,9.096,0.202,13.643
		c0,1.521-0.296,3.053-0.254,4.574"/>
	<path clip-path="url(#SVGID_19_)" fill="none" stroke="#000000" d="M224.467,446.913c0.104-2.197-0.774-4.094-0.936-6.242
		c-0.166-2.209-0.28-4.451-0.28-6.668c0-4.521-0.102-9.045-0.102-13.566c0-4.525-0.025-9.064,0.052-13.589
		c0.014-0.849-0.243-2.462,0.551-2.858c1.057-0.529,1.786,0.061,2.844,0.115c2.35,0.124,3.046-3.861,0.556-3.893
		c-0.833-0.01-1.663,0.842-1.953,1.564c-0.34,0.851-1.062,1.236-1.896,1.576c0.131-4.168,0.195-8.509,1.245-12.576
		c0.558-2.161,2.004-3.797,2.289-6.134c0.307-2.509,0.481-4.456,2.076-6.487c2.868-3.647,3.452-8.1,5.192-12.249
		c1.509-3.595,3.926-7.8,8.25-8.097c4.353-0.301,8.29,2.779,10.104,6.624c1.008,2.132,1.409,4.295,1.899,6.589
		c0.478,2.221,1.221,4.346,1.566,6.594c0.664,4.32,0.87,8.688-1.312,12.643c-2.046,3.704-5.899,6.17-8.262,9.668
		c-1.237,1.834-2.662,3.834-2.952,6.094c-0.279,2.178-0.496,4.332-0.496,6.529c0,2.307,0.162,4.604,0.224,6.908
		c0.057,2.179,0.051,4.344,0.882,6.385c0.875,2.148,1.584,4.234,2.016,6.518c0.372,1.965-0.122,4.035,0.121,6.044
		c0.128,1.058,0.283,2.073,0.305,3.14c0.011,0.6,0.002,1.104-0.15,1.678c-0.167,0.627-0.957,0.188-1-0.314
		c-0.185-2.115,0.794-4.044,0.086-6.048c-0.322-0.915-0.253-1.901-0.253-2.86c0-1.225-0.357-2.365-0.658-3.547
		c-0.527-2.071-0.89-4.451-2.516-5.968c-0.728-0.68-1.862-0.782-2.778-0.542c-1.57,0.414-0.31,1.404,0,2.128
		c0.162,0.377-0.115,0.954-0.582,0.988c-0.531,0.038-0.721-0.761-1.12-0.927c-0.375-0.157-0.859-0.354-1.21-0.062
		c-0.655,0.548,0.483,0.501,0.658,0.634c0.282,0.211,0.846,0.158,0.71,0.633c-0.158,0.553-0.998-0.16-1.317,0.025
		c-1.195,0.688,1.131,1.423,1.754,1.201c0.48-0.171,0.896-0.377,1.277-0.725c0.082-0.075,0.616-0.922,0.666-0.934
		c0.567-0.123,1.753,1.312,1.976,1.773c0.605,1.256-0.473,1.391-1.469,1.723c-0.374,0.125-1.856,1.371-1.772,1.723
		c0.319,1.337,1.591-0.615,1.873-0.659c1.568-0.245-0.011,1.528-0.201,1.823c-0.222,0.343-0.877,1.42,0.227,1.039
		c0.114-0.039,1.646-2.242,1.646-1.241c0,0.753-1.471,1.192-1.823,1.723c-0.888,1.331,1.705-0.3,1.722-0.305
		c0.447-0.111,1.064-0.134,1.064,0.431c0,0.593-0.572,0.693-0.852,1.133c-0.363,0.569-1.81,1.375-1.073,1.881
		c0.18,0.124,0.529-0.418,0.811-0.354c0.429,0.099,0.717,0.454,0.862,0.854c0.559,1.536-0.647,0.464-1.394,0.464
		c-1.07,0,0.245,0.951,0.201,1.215c-0.064,0.389-0.633,0.396-0.633,0.861c0,0.562,0.593,0.233,0.861,0.051
		c0.388-0.263,0.296-0.701,0.709-1.013c0.45-0.341,0.743,0.128,1.114-0.507c0.41-0.701-0.801-2.479-0.405-2.785
		c0.561-0.437,1.332,1.477,1.304,1.842c-0.034,0.449-0.023,0.961-0.265,1.349c-0.24,0.386-0.883,0.122-1.194,0.55
		c-0.357,0.491-0.43,0.951-0.572,1.547c-0.07,0.293,0.135,1.018-0.032,1.247c-0.56,0.769-1.394-0.923-1.772-0.355
		c-0.317,0.478,0.811,0.944,0.646,1.653c-0.035,0.154-1.691,1.036-0.697,1.284c0.354,0.089,1.898-1.353,2.178-1.722
		c0.582-0.766-0.051-2.175,0.558-2.685c0.915-0.767,0.851,0.949,0.707,1.45c-0.298,1.043-1.004,1.252-1.112,2.501
		c-0.102,1.157,0.072,1.874-1.311,1.874c-1.438,0-0.919,1.229-0.919,2c0,0.861-1.426,1.252-1.367,1.697
		c0.129,0.975,1.766-0.357,1.863-0.779c0.103-0.441-0.007-1.203,0.314-1.551c0.403-0.436,0.742-0.101,1.165-0.253
		c1.346-0.483,0.614-1.071,1.241-1.95c0.586-0.82,0.603,1.182,0.254,1.672c-0.468,0.654-1.409,1.191-1.849,1.898
		c-0.26,0.416-0.128,1.047-0.355,1.469c-0.218,0.408-0.785,0.596-0.911,1.064c-0.393,1.459,0.935-0.35,1.063-0.404
		c-0.134,1.207,0.76,1.086,0.76-0.096c0-1.262-0.28-1.67,0.968-2.086c2.062-0.686,2.722-2.836,3.055-4.832
		c0.701-4.205,0.182-8.394,0.182-12.615c0-4.53-2.381-8.603-2.381-13.186c0-4.475-0.281-9.091,0.811-13.482
		c1.052-4.232,4.426-7.369,7.305-10.461c3.042-3.267,5.184-7.152,5.277-11.746c0.089-4.265-0.104-9.268-1.489-13.326
		c-1.438-4.213-1.858-8.607-5.622-11.573c-3.243-2.556-7.99-4.568-12.023-2.669c-4.464,2.1-5.559,5.771-7.382,10.025
		c-0.879,2.051-1.101,4.261-2.015,6.32c-0.437,0.982-0.884,1.947-1.271,2.952c-0.142,0.37-1.423,2.644-1.824,2.669
		c-0.611,0.04-0.719-1.805-0.415-2.195c0.275-0.354,0.766-0.678,0.873-1.104c0.171-0.688-0.163-1.283-0.053-1.918
		c0.165-0.949,1.146-1.383,1.429-2.348c0.347-1.177-0.59-1.926-0.404-2.912c0.203-1.084,0.457-1.855,0.343-2.996
		c-0.109-1.099-1.157-1.508-1.479-2.602c-0.946-3.219-3.013-0.627-3.69,1.254c-0.281,0.781-0.163,2.119,0.527,2.654
		c0.812,0.633-0.093,1.669,0.487,2.537c0.465,0.699-0.415,1.798-0.78,2.406c-0.443,0.738,0.253,2.232,0.326,3.019
		c0.109,1.161,0.077,2.155,0.452,3.277c0.399,1.201,0.865,1.821,0.865,3.134c0,0.952,0.01,1.91-0.102,2.858
		c-0.133,1.133-0.859,1.962-1.036,3.03c-0.17,1.014-0.101,2.054-0.969,2.748c-1.047,0.838-0.321,1.928-0.882,2.909
		c-0.602,1.052-0.935-0.954-1.068-1.356c-0.368-1.104-0.334-2.248-0.654-3.329c-0.27-0.912-1.066-1.61-1.23-2.56
		c-0.194-1.129-0.273-2.244-0.215-3.392c0.113-2.116,2.111-3.359,2.23-5.497c0.052-0.936-0.514-1.736-0.657-2.666
		c-0.126-0.814,0.738-1.912,0.542-2.962c-0.199-1.067-1.173-1.569-0.375-2.708c0.706-1.01,0.285-1.932,0.009-2.96
		c-0.333-1.243-0.275-5.288-2.564-4.231c-2.181,1.006-0.701,3.951-1.233,5.549c-0.339,1.014-0.948,1.579-1.064,2.786
		c-0.059,0.61-0.074,1.095-0.016,1.708c0.067,0.716,0.628,0.878,0.877,1.433c0.39,0.87,0.325,1.869,0.81,2.735
		c0.621,1.108,1.115,1.447,1.115,2.812c0,0.3-0.521,2.265-0.826,1.411c-0.424-1.187-0.775-2.4-1.163-3.6
		c-0.651-2.021-2.119-3.744-2.675-5.829c-1.128-4.23-4.358-8.101-7.16-11.39c-2.803-3.291-8.806-2.875-12.048-0.783
		c-3.734,2.409-6.397,5.884-8.151,9.895c-1.812,4.139-1.845,8.484-2.257,12.886c-0.438,4.664,2.341,8.079,4.889,11.597
		c1.276,1.764,2.619,3.517,4.015,5.188c1.372,1.644,3.033,3.184,3.799,5.217c1.575,4.184,1.229,9,0.658,13.346
		c-0.57,4.33-0.662,8.716-1.253,13.051c-0.564,4.136-1.109,8.81,0.531,12.709c0.376,0.895,0.671,1.757,0.671,2.734
		c0,1.069-0.074,2.521,0.786,3.267c0.807,0.7,1.863,0.813,2.692,1.586c0.371,0.347,1.737,1.981,2.144,2.036
		c1.306,0.174-0.64-1.502-0.83-1.692c-0.727-0.728-1.038-1.762-0.955-2.76c0.122-1.462,1.262,0.749,1.381,0.956
		c0.163,0.284,2.255,2.391,2.102,1.166c-0.1-0.801-1.449-1.388-1.532-2.463c-0.018-0.244-0.352-1.146-0.114-1.336
		c0.483-0.383,1.007,0.352,1.19,0.684c0.258,0.464,0.735,0.365,0.735-0.184c0-0.437-0.396-0.846-0.701-1.151
		c-0.773-0.772-2.05-0.562-2.264-1.95c-0.187-1.217,1.237,0.154,1.906,0.042c1.491-0.248-0.222-1.239-1.038-1.239
		c-0.222,0-0.973,0.051-1.095-0.254c-0.23-0.578,0.851-0.307,1.114-0.354c1.559-0.281,0.684-1.235-0.552-1.152
		c-0.99,0.065-1.776-0.99-0.917-1.634c0.299-0.224,1.122,0.139,1.418-0.151c0.208-0.204,0.381-1.294,0.051-1.469
		c-0.642-0.339-1.139,1.773-2.077,0.456c-0.798-1.124,0.547-1.886,1.267-2.279c0.668-0.366,1.501-1.09,0.102-1.014
		c-0.254,0.014-0.85,0.559-1.013,0.506c-0.55-0.177-0.496-0.934-0.178-1.316c0.266-0.318-0.11-0.727,0.127-0.963
		c0.293-0.293,0.547,0.467,0.759,0.608c0.303,0.201,0.809,0.349,1.039,0.025c0.437-0.61-0.667-0.321-0.836-0.685
		c-0.658-1.411,1.257-0.74,1.545-1.316c0.312-0.621-1.615-1.146-2.085-0.676c-0.963,0.963-1.024,0.559-1.218-0.789
		c-0.205-1.432,0.892-1.113,1.715-0.514c1.066,0.774,0.44,0.098,1.158-0.021c0.226-0.039,0.891,0.184,0.911,0.176
		c0.424-0.143,1.106-0.842,0.254-1.012c-0.968-0.193-1.946,0.393-2.533-0.76c-0.603-1.183,0.594-1.958,1.62-1.268
		c0.433,0.291,0.998,2.145,1.85,1.293c0.324-0.324-0.423-0.593-0.481-0.911c-0.135-0.74-0.375-0.821-1.089-0.989
		c-1.144-0.269-1.29-1.245,0.02-1.354c0.708-0.06,1.865,1.303,1.981,1.937c0.075,0.413,0.349,1.146,0.836,0.658
		c0.425-0.425-0.271-0.797-0.278-1.19c-0.022-1.181,0.536-0.379,1.062,0.279c0.447,0.558,0.98-0.414-0.102-1.039
		c-0.598-0.346-2.362-0.176-2.583-0.963c-0.131-0.471,0.551-1.005,0.912-1.062c0.59-0.094,0.837,0.258,1.266,0.633
		c0.751,0.656,1.607-0.381,2.678-0.381c1.077,0,1.479-1.113,0.241-1.113c-0.749,0-2.486,0.529-3.044,0.051
		c-0.683-0.585,0.367-2.103-1.198-1.922c-1.256,0.145-2.066,0.758-2.983,1.595c-1.798,1.642-2.717,2.946-3.157,5.37
		c-0.358,1.965,0.059,4.264-0.484,6.165c-0.607,2.124-0.057,4.103,0.322,6.188c0.357,1.963,1.385,4.232,0.94,6.232
		c-0.214,0.963-1.041-1.719-1.117-1.986c-0.294-1.027-0.583-2.054-0.883-3.078c-0.57-1.941-0.219-4.152-0.015-6.129
		c0.214-2.07,0.358-4.005,0.274-6.095c-0.176-4.429,0.915-8.874,1.284-13.28c0.368-4.393,0.211-8.863-1.367-13.018
		c-0.786-2.071-2.363-3.643-3.649-5.443c-1.252-1.754-2.464-3.5-3.792-5.2c-2.873-3.677-4.477-7.806-4.368-12.468
		c0.105-4.551,1.266-8.877,3.653-12.754c1.991-3.238,6.141-6.935,10.081-6.935c2.344,0,4.18,0.56,5.66,2.472
		c1.296,1.675,2.78,3.34,3.836,5.174c1.715,2.979,2.899,6.203,4.438,9.281c1.517,3.034,1.937,6.136,2.374,9.459
		c0.227,1.732,0.592,3.209,1.647,4.637c0.904,1.225,0.824,3.098,0.999,4.578c0.38,3.227,1.363,6.801,0.9,10.035
		c-1.219-0.459-0.979-1.432-1.772-2.179c-0.702-0.659-2.287-0.807-3.091-0.253c-0.647,0.448-1.132,1.916-0.234,2.395
		c1.097,0.584,1.777,0.385,2.92,0.291c0.865-0.072,2.258,0.016,2.292,1.143c0.038,1.241,0.151,2.479,0.189,3.72
		c0.071,2.286-0.051,4.585-0.051,6.873c0,4.403,0.71,8.796,0.71,13.204c0,4.549,0.202,9.096,0.202,13.643
		c0,1.521-0.296,3.053-0.254,4.574"/>
	<path clip-path="url(#SVGID_19_)" fill="#FFFF3C" d="M30.862,236.471c0,3.603-2.925,6.524-6.529,6.524
		c-3.606,0-6.528-2.921-6.528-6.524c0-3.602,2.922-6.523,6.528-6.523C27.938,229.948,30.862,232.869,30.862,236.471"/>
	<circle clip-path="url(#SVGID_19_)" fill="none" stroke="#000000" cx="24.334" cy="236.471" r="6.529"/>
</g>
<g>
	<path fill="#CB2228" d="M26.17,235.54v0.587h-5.997v-0.587H26.17z"/>
</g>
<g>
	<path d="M247.955,26.917v3.382h3.91v-3.382h1.055V35h-1.055v-3.79h-3.91V35h-1.056v-8.083H247.955z"/>
	<path d="M255.191,29.195l1.259,3.43c0.144,0.384,0.288,0.839,0.384,1.187h0.024c0.107-0.348,0.228-0.792,0.371-1.211l1.151-3.406
		h1.115l-1.583,4.138c-0.755,1.991-1.271,2.998-1.99,3.634c-0.528,0.444-1.032,0.624-1.296,0.672l-0.264-0.875
		c0.264-0.084,0.611-0.252,0.924-0.516c0.288-0.228,0.636-0.635,0.888-1.175c0.048-0.108,0.084-0.192,0.084-0.251
		c0-0.06-0.024-0.144-0.084-0.276l-2.135-5.349H255.191z"/>
	<path d="M260.46,31.09c0-0.744-0.024-1.343-0.049-1.895h0.936l0.061,0.995h0.023c0.42-0.708,1.115-1.115,2.063-1.115
		c1.415,0,2.471,1.188,2.471,2.938c0,2.087-1.283,3.118-2.651,3.118c-0.768,0-1.438-0.336-1.786-0.912h-0.024v3.154h-1.043V31.09z
		 M261.503,32.637c0,0.156,0.012,0.3,0.048,0.432c0.192,0.732,0.828,1.235,1.583,1.235c1.115,0,1.764-0.911,1.764-2.243
		c0-1.151-0.612-2.146-1.728-2.146c-0.72,0-1.403,0.503-1.595,1.295c-0.036,0.132-0.072,0.288-0.072,0.42V32.637z"/>
	<path d="M272.541,32.05c0,2.146-1.499,3.082-2.891,3.082c-1.56,0-2.782-1.151-2.782-2.986c0-1.931,1.283-3.07,2.878-3.07
		C271.413,29.075,272.541,30.287,272.541,32.05z M267.947,32.109c0,1.271,0.72,2.231,1.751,2.231c1.008,0,1.763-0.947,1.763-2.255
		c0-0.983-0.491-2.219-1.738-2.219C268.487,29.867,267.947,31.018,267.947,32.109z"/>
	<path d="M275.146,27.804v1.392h1.512v0.803h-1.512v3.13c0,0.72,0.204,1.127,0.792,1.127c0.288,0,0.456-0.024,0.611-0.072
		l0.048,0.803c-0.203,0.072-0.527,0.144-0.936,0.144c-0.491,0-0.887-0.168-1.139-0.444c-0.288-0.324-0.408-0.839-0.408-1.523v-3.167
		h-0.899v-0.803h0.899v-1.08L275.146,27.804z"/>
	<path d="M277.848,26.485h1.055v3.634h0.024c0.168-0.3,0.432-0.576,0.756-0.755c0.312-0.18,0.684-0.288,1.079-0.288
		c0.779,0,2.026,0.48,2.026,2.471V35h-1.055v-3.334c0-0.936-0.349-1.715-1.344-1.715c-0.684,0-1.211,0.48-1.415,1.043
		c-0.06,0.156-0.072,0.312-0.072,0.504V35h-1.055V26.485z"/>
	<path d="M288.585,33.609c0,0.503,0.024,0.995,0.084,1.391h-0.947l-0.084-0.731h-0.036c-0.324,0.456-0.947,0.863-1.775,0.863
		c-1.175,0-1.774-0.828-1.774-1.667c0-1.403,1.247-2.171,3.49-2.159v-0.12c0-0.468-0.132-1.343-1.319-1.331
		c-0.552,0-1.115,0.156-1.523,0.432l-0.24-0.708c0.48-0.3,1.188-0.504,1.919-0.504c1.775,0,2.207,1.211,2.207,2.363V33.609z
		 M287.565,32.038c-1.151-0.024-2.458,0.18-2.458,1.307c0,0.696,0.455,1.008,0.983,1.008c0.768,0,1.259-0.48,1.427-0.972
		c0.036-0.12,0.048-0.24,0.048-0.336V32.038z"/>
	<path d="M290.292,26.485h1.055V35h-1.055V26.485z"/>
	<path d="M297.201,33.609c0,0.503,0.024,0.995,0.084,1.391h-0.947l-0.084-0.731h-0.036c-0.323,0.456-0.947,0.863-1.775,0.863
		c-1.175,0-1.774-0.828-1.774-1.667c0-1.403,1.247-2.171,3.49-2.159v-0.12c0-0.468-0.132-1.343-1.319-1.331
		c-0.552,0-1.115,0.156-1.523,0.432l-0.24-0.708c0.48-0.3,1.188-0.504,1.919-0.504c1.775,0,2.207,1.211,2.207,2.363V33.609z
		 M296.182,32.038c-1.151-0.024-2.458,0.18-2.458,1.307c0,0.696,0.455,1.008,0.983,1.008c0.768,0,1.259-0.48,1.427-0.972
		c0.036-0.12,0.048-0.24,0.048-0.336V32.038z"/>
	<path d="M298.908,30.766c0-0.611-0.024-1.091-0.049-1.571h0.924l0.048,0.947h0.036c0.324-0.552,0.863-1.067,1.835-1.067
		c0.779,0,1.379,0.48,1.631,1.164h0.024c0.18-0.336,0.42-0.576,0.659-0.756c0.349-0.264,0.72-0.408,1.271-0.408
		c0.779,0,1.919,0.504,1.919,2.519V35h-1.031v-3.274c0-1.127-0.42-1.787-1.26-1.787c-0.611,0-1.067,0.443-1.259,0.947
		c-0.048,0.156-0.084,0.336-0.084,0.528V35h-1.031v-3.478c0-0.923-0.408-1.583-1.212-1.583c-0.647,0-1.139,0.527-1.307,1.055
		c-0.061,0.144-0.084,0.336-0.084,0.516V35h-1.031V30.766z"/>
	<path d="M313.772,33.405c0,0.612,0.013,1.14,0.049,1.595h-0.936l-0.061-0.947h-0.023c-0.265,0.468-0.888,1.079-1.919,1.079
		c-0.912,0-2.003-0.516-2.003-2.542v-3.394h1.055v3.202c0,1.104,0.349,1.859,1.296,1.859c0.707,0,1.199-0.492,1.391-0.971
		c0.061-0.144,0.097-0.336,0.097-0.54v-3.55h1.055V33.405z"/>
	<path d="M315.384,33.933c0.324,0.192,0.876,0.408,1.403,0.408c0.756,0,1.115-0.372,1.115-0.863c0-0.504-0.3-0.768-1.067-1.056
		c-1.056-0.384-1.547-0.947-1.547-1.643c0-0.936,0.768-1.703,2.003-1.703c0.588,0,1.104,0.156,1.415,0.36l-0.252,0.768
		c-0.228-0.144-0.647-0.348-1.188-0.348c-0.623,0-0.959,0.36-0.959,0.792c0,0.479,0.336,0.695,1.091,0.995
		c0.996,0.372,1.523,0.876,1.523,1.739c0,1.031-0.804,1.751-2.158,1.751c-0.636,0-1.224-0.168-1.632-0.408L315.384,33.933z"/>
</g>
<g>
	<path d="M163.912,200.012c0.503-0.084,1.163-0.156,2.003-0.156c1.031,0,1.787,0.24,2.267,0.672
		c0.432,0.384,0.708,0.971,0.708,1.691c0,0.731-0.216,1.307-0.624,1.727c-0.564,0.587-1.451,0.888-2.471,0.888
		c-0.312,0-0.6-0.012-0.839-0.072V208h-1.043V200.012z M164.955,203.91c0.228,0.06,0.516,0.084,0.863,0.084
		c1.259,0,2.027-0.624,2.027-1.715c0-1.08-0.768-1.595-1.907-1.595c-0.456,0-0.804,0.036-0.983,0.084V203.91z"/>
	<path d="M171.243,200.564c0,0.36-0.252,0.648-0.671,0.648c-0.384,0-0.636-0.288-0.636-0.648s0.264-0.66,0.66-0.66
		C170.979,199.904,171.243,200.192,171.243,200.564z M170.067,208v-5.805h1.056V208H170.067z"/>
	<path d="M174.147,200.804v1.392h1.511v0.803h-1.511v3.13c0,0.72,0.204,1.127,0.792,1.127c0.288,0,0.456-0.024,0.611-0.072
		l0.048,0.803c-0.204,0.072-0.528,0.144-0.936,0.144c-0.492,0-0.888-0.168-1.14-0.444c-0.288-0.324-0.408-0.839-0.408-1.523v-3.167
		h-0.899v-0.803h0.899v-1.08L174.147,200.804z"/>
	<path d="M181.705,206.405c0,0.612,0.012,1.14,0.048,1.595h-0.936l-0.06-0.947h-0.024c-0.264,0.468-0.887,1.079-1.919,1.079
		c-0.911,0-2.003-0.516-2.003-2.542v-3.394h1.056v3.202c0,1.104,0.348,1.859,1.295,1.859c0.708,0,1.199-0.492,1.391-0.971
		c0.06-0.144,0.096-0.336,0.096-0.54v-3.55h1.056V206.405z"/>
	<path d="M184.635,200.564c0,0.36-0.252,0.648-0.672,0.648c-0.383,0-0.635-0.288-0.635-0.648s0.264-0.66,0.659-0.66
		C184.371,199.904,184.635,200.192,184.635,200.564z M183.459,208v-5.805h1.057V208H183.459z"/>
	<path d="M187.539,200.804v1.392h1.512v0.803h-1.512v3.13c0,0.72,0.203,1.127,0.791,1.127c0.288,0,0.456-0.024,0.612-0.072
		l0.048,0.803c-0.204,0.072-0.527,0.144-0.936,0.144c-0.492,0-0.888-0.168-1.14-0.444c-0.288-0.324-0.407-0.839-0.407-1.523v-3.167
		h-0.9v-0.803h0.9v-1.08L187.539,200.804z"/>
	<path d="M194.316,206.609c0,0.503,0.024,0.995,0.084,1.391h-0.947l-0.084-0.731h-0.035c-0.324,0.456-0.947,0.863-1.775,0.863
		c-1.176,0-1.775-0.828-1.775-1.667c0-1.403,1.248-2.171,3.49-2.159v-0.12c0-0.468-0.132-1.343-1.319-1.331
		c-0.552,0-1.115,0.156-1.522,0.432l-0.24-0.708c0.479-0.3,1.188-0.504,1.919-0.504c1.774,0,2.206,1.211,2.206,2.363V206.609z
		 M193.298,205.038c-1.151-0.024-2.459,0.18-2.459,1.307c0,0.696,0.456,1.008,0.983,1.008c0.768,0,1.26-0.48,1.428-0.972
		c0.035-0.12,0.048-0.24,0.048-0.336V205.038z"/>
	<path d="M196.024,204.006c0-0.684-0.013-1.271-0.049-1.811h0.924l0.048,1.151h0.036c0.264-0.78,0.911-1.271,1.619-1.271
		c0.108,0,0.192,0.012,0.288,0.024v0.996c-0.108-0.024-0.216-0.024-0.36-0.024c-0.743,0-1.271,0.552-1.415,1.343
		c-0.023,0.144-0.036,0.324-0.036,0.492V208h-1.055V204.006z"/>
	<path d="M200.632,202.195l1.259,3.43c0.144,0.384,0.288,0.839,0.384,1.187h0.024c0.107-0.348,0.228-0.792,0.371-1.211l1.151-3.406
		h1.116l-1.584,4.138c-0.755,1.991-1.271,2.998-1.99,3.634c-0.528,0.444-1.031,0.624-1.296,0.672l-0.264-0.875
		c0.264-0.084,0.611-0.252,0.924-0.516c0.288-0.228,0.636-0.635,0.888-1.175c0.048-0.108,0.084-0.192,0.084-0.251
		c0-0.06-0.024-0.144-0.084-0.276l-2.135-5.349H200.632z"/>
</g>
<g>
	<path d="M160.458,405.804H158v-0.888h5.985v0.888h-2.471V413h-1.055V405.804z"/>
	<path d="M164.587,410.289c0.024,1.428,0.923,2.016,1.991,2.016c0.755,0,1.223-0.132,1.607-0.3l0.192,0.755
		c-0.372,0.168-1.019,0.372-1.943,0.372c-1.787,0-2.854-1.188-2.854-2.938s1.032-3.118,2.723-3.118c1.907,0,2.399,1.655,2.399,2.723
		c0,0.216-0.012,0.372-0.036,0.491H164.587z M167.681,409.534c0.012-0.66-0.276-1.703-1.463-1.703c-1.079,0-1.535,0.972-1.619,1.703
		H167.681z"/>
	<path d="M169.867,411.933c0.324,0.191,0.875,0.408,1.403,0.408c0.756,0,1.115-0.372,1.115-0.864c0-0.504-0.3-0.768-1.067-1.055
		c-1.055-0.384-1.547-0.948-1.547-1.644c0-0.936,0.768-1.703,2.003-1.703c0.587,0,1.103,0.156,1.415,0.36l-0.252,0.768
		c-0.228-0.145-0.647-0.349-1.187-0.349c-0.624,0-0.959,0.36-0.959,0.792c0,0.479,0.335,0.695,1.091,0.995
		c0.995,0.372,1.523,0.876,1.523,1.739c0,1.031-0.803,1.751-2.159,1.751c-0.636,0-1.223-0.168-1.631-0.407L169.867,411.933z"/>
	<path d="M176.034,405.804v1.392h1.511v0.804h-1.511v3.13c0,0.72,0.204,1.128,0.792,1.128c0.288,0,0.456-0.024,0.612-0.072
		l0.048,0.804c-0.204,0.071-0.528,0.144-0.936,0.144c-0.492,0-0.888-0.168-1.14-0.443c-0.288-0.324-0.408-0.84-0.408-1.523v-3.166
		h-0.899v-0.804h0.899v-1.079L176.034,405.804z"/>
	<path d="M179.25,410.289c0.024,1.428,0.923,2.016,1.991,2.016c0.755,0,1.223-0.132,1.607-0.3l0.192,0.755
		c-0.372,0.168-1.019,0.372-1.943,0.372c-1.787,0-2.854-1.188-2.854-2.938s1.032-3.118,2.723-3.118c1.907,0,2.399,1.655,2.399,2.723
		c0,0.216-0.013,0.372-0.036,0.491H179.25z M182.345,409.534c0.012-0.66-0.276-1.703-1.463-1.703c-1.08,0-1.535,0.972-1.619,1.703
		H182.345z"/>
	<path d="M184.53,411.933c0.324,0.191,0.876,0.408,1.403,0.408c0.756,0,1.115-0.372,1.115-0.864c0-0.504-0.3-0.768-1.067-1.055
		c-1.056-0.384-1.547-0.948-1.547-1.644c0-0.936,0.768-1.703,2.003-1.703c0.588,0,1.104,0.156,1.415,0.36l-0.252,0.768
		c-0.228-0.145-0.647-0.349-1.187-0.349c-0.625,0-0.96,0.36-0.96,0.792c0,0.479,0.335,0.695,1.091,0.995
		c0.996,0.372,1.523,0.876,1.523,1.739c0,1.031-0.803,1.751-2.158,1.751c-0.637,0-1.224-0.168-1.632-0.407L184.53,411.933z"/>
</g>
</svg>
