<?xml version="1.0" encoding="UTF-8" standalone="no"?>
<!DOCTYPE svg PUBLIC "-//W3C//DTD SVG 1.1//EN"
 "http://www.w3.org/Graphics/SVG/1.1/DTD/svg11.dtd">
<!-- Generated by graphviz version 2.24.0 (20090616.2323)
 -->
<!-- Title: G Pages: 1 -->
<svg width="968pt" height="207pt"
 viewBox="0.00 0.00 968.00 207.00" xmlns="http://www.w3.org/2000/svg" xmlns:xlink="http://www.w3.org/1999/xlink">
<g id="graph1" class="graph" transform="scale(1 1) rotate(0) translate(4 203)">
<title>G</title>
<polygon fill="white" stroke="white" points="-4,5 -4,-203 965,-203 965,5 -4,5"/>
<!-- Enz -->
<g id="node1" class="node"><title>Enz</title>
<polyline fill="none" stroke="black" points="476,-146 372,-146 "/>
<path fill="none" stroke="black" d="M372,-146C366,-146 360,-140 360,-134"/>
<polyline fill="none" stroke="black" points="360,-134 360,-122 "/>
<path fill="none" stroke="black" d="M360,-122C360,-116 366,-110 372,-110"/>
<polyline fill="none" stroke="black" points="372,-110 476,-110 "/>
<path fill="none" stroke="black" d="M476,-110C482,-110 488,-116 488,-122"/>
<polyline fill="none" stroke="black" points="488,-122 488,-134 "/>
<path fill="none" stroke="black" d="M488,-134C488,-140 482,-146 476,-146"/>
<text text-anchor="middle" x="424" y="-125.5" font-family="Times Roman,serif" font-size="10.00">Anthranilate synthase</text>
</g>
<!-- Enzyme_dilution_intermediate_r -->
<g id="node15" class="node"><title>Enzyme_dilution_intermediate_r</title>
<ellipse fill="black" stroke="black" cx="524" cy="-128" rx="0.036" ry="0.036"/>
</g>
<!-- Enz&#45;&gt;Enzyme_dilution_intermediate_r -->
<g id="edge14" class="edge"><title>Enz&#45;&gt;Enzyme_dilution_intermediate_r</title>
<path fill="none" stroke="black" d="M498.403,-128C512.494,-128 523.159,-128 523.953,-128"/>
<polygon fill="black" stroke="black" points="498.18,-124.5 488.18,-128 498.18,-131.5 498.18,-124.5"/>
</g>
<!-- tryptophan_synthesis_intermediate_m -->
<g id="node26" class="node"><title>tryptophan_synthesis_intermediate_m</title>
<ellipse fill="black" stroke="black" cx="524" cy="-82" rx="0.036" ry="0.036"/>
</g>
<!-- Enz&#45;&gt;tryptophan_synthesis_intermediate_m -->
<g id="edge26" class="edge"><title>Enz&#45;&gt;tryptophan_synthesis_intermediate_m</title>
<path fill="none" stroke="black" d="M463.236,-109.952C490.376,-97.4672 521.958,-82.9394 523.905,-82.0436"/>
</g>
<!-- Ts -->
<g id="node2" class="node"><title>Ts</title>
<ellipse fill="none" stroke="black" cx="645" cy="-42" rx="84.951" ry="18"/>
<text text-anchor="middle" x="645" y="-39.5" font-family="Times Roman,serif" font-size="10.00">Synthesized tryptophan</text>
</g>
<!-- tryptophan_consumption_intermediate_r -->
<g id="node31" class="node"><title>tryptophan_consumption_intermediate_r</title>
<ellipse fill="black" stroke="black" cx="793" cy="-26" rx="0.036" ry="0.036"/>
</g>
<!-- Ts&#45;&gt;tryptophan_consumption_intermediate_r -->
<g id="edge32" class="edge"><title>Ts&#45;&gt;tryptophan_consumption_intermediate_r</title>
<path fill="none" stroke="black" d="M731.024,-32.7001C762.485,-29.2989 790.967,-26.2197 792.896,-26.0112"/>
<polygon fill="black" stroke="black" points="730.3,-29.2579 720.734,-33.8125 731.053,-36.2173 730.3,-29.2579"/>
</g>
<!-- tryptophan_dilution_intermediate_r -->
<g id="node37" class="node"><title>tryptophan_dilution_intermediate_r</title>
<ellipse fill="black" stroke="black" cx="793" cy="-59" rx="0.036" ry="0.036"/>
</g>
<!-- Ts&#45;&gt;tryptophan_dilution_intermediate_r -->
<g id="edge38" class="edge"><title>Ts&#45;&gt;tryptophan_dilution_intermediate_r</title>
<path fill="none" stroke="black" d="M729.835,-51.7445C761.755,-55.4111 790.927,-58.7619 792.894,-58.9879"/>
<polygon fill="black" stroke="black" points="730.201,-48.2637 719.867,-50.5996 729.402,-55.218 730.201,-48.2637"/>
</g>
<!-- Tt -->
<g id="node3" class="node"><title>Tt</title>
<ellipse fill="none" stroke="black" cx="173" cy="-83" rx="60.9431" ry="18"/>
<text text-anchor="middle" x="173" y="-80.5" font-family="Times Roman,serif" font-size="10.00">Total tryptophan</text>
</g>
<!-- Enzyme_synthesis_intermediate_m -->
<g id="node11" class="node"><title>Enzyme_synthesis_intermediate_m</title>
<ellipse fill="black" stroke="black" cx="297" cy="-110" rx="0.036" ry="0.036"/>
</g>
<!-- Tt&#45;&gt;Enzyme_synthesis_intermediate_m -->
<g id="edge10" class="edge"><title>Tt&#45;&gt;Enzyme_synthesis_intermediate_m</title>
<path fill="none" stroke="black" d="M222.364,-93.7487C255.863,-101.043 294.502,-109.456 296.884,-109.975"/>
</g>
<!-- Tt&#45;&gt;tryptophan_synthesis_intermediate_m -->
<g id="edge28" class="edge"><title>Tt&#45;&gt;tryptophan_synthesis_intermediate_m</title>
<path fill="none" stroke="black" d="M234.14,-82.8258C333.132,-82.5438 518.106,-82.0168 523.862,-82.0004"/>
</g>
<!-- To -->
<g id="node4" class="node"><title>To</title>
<ellipse fill="none" stroke="black" cx="38" cy="-181" rx="37.0501" ry="18"/>
<text text-anchor="middle" x="38" y="-178.5" font-family="Times Roman,serif" font-size="10.00">exog. Trp</text>
</g>
<!-- Enzyme_synthesis -->
<g id="node5" class="node"><title>Enzyme_synthesis</title>
<polygon fill="none" stroke="black" points="180,-134 166,-134 166,-120 180,-120 180,-134"/>
</g>
<!-- Enzyme_synthesis_intermediate_p -->
<g id="node8" class="node"><title>Enzyme_synthesis_intermediate_p</title>
<ellipse fill="black" stroke="black" cx="297" cy="-128" rx="0.036" ry="0.036"/>
</g>
<!-- Enzyme_synthesis&#45;&gt;Enzyme_synthesis_intermediate_p -->
<g id="edge4" class="edge"><title>Enzyme_synthesis&#45;&gt;Enzyme_synthesis_intermediate_p</title>
<path fill="none" stroke="black" d="M180.022,-127.057C205.844,-127.265 294.18,-127.977 296.934,-127.999"/>
</g>
<!-- Enzyme_synthesis&#45;&gt;Enzyme_synthesis_intermediate_m -->
<g id="edge8" class="edge"><title>Enzyme_synthesis&#45;&gt;Enzyme_synthesis_intermediate_m</title>
<path fill="none" stroke="black" d="M192.346,-124.348C226.59,-119.653 294.524,-110.339 296.934,-110.009"/>
<polygon fill="none" stroke="black" points="191.911,-124.407 186.51,-129.185 180.022,-126.037 185.423,-121.259 191.911,-124.407"/>
</g>
<!-- Enzyme_synthesis_empty -->
<g id="node6" class="node"><title>Enzyme_synthesis_empty</title>
<text text-anchor="middle" x="38" y="-122.5" font-family="Times Roman,serif" font-size="15.00" fill="blue">Ø</text>
</g>
<!-- Enzyme_synthesis_empty&#45;&gt;Enzyme_synthesis -->
<g id="edge2" class="edge"><title>Enzyme_synthesis_empty&#45;&gt;Enzyme_synthesis</title>
<path fill="none" stroke="black" d="M65.3193,-127C97.0621,-127 147.444,-127 165.914,-127"/>
</g>
<!-- Enzyme_synthesis_intermediate_p&#45;&gt;Enz -->
<g id="edge6" class="edge"><title>Enzyme_synthesis_intermediate_p&#45;&gt;Enz</title>
<path fill="none" stroke="black" d="M297.092,-128C298.757,-128 322.771,-128 349.468,-128"/>
<polygon fill="black" stroke="black" points="349.791,-131.5 359.791,-128 349.791,-124.5 349.791,-131.5"/>
</g>
<!-- Enzyme_dilution -->
<g id="node14" class="node"><title>Enzyme_dilution</title>
<polygon fill="none" stroke="black" points="652,-135 638,-135 638,-121 652,-121 652,-135"/>
</g>
<!-- Enzyme_dilution_empty -->
<g id="node18" class="node"><title>Enzyme_dilution_empty</title>
<text text-anchor="middle" x="793" y="-123.5" font-family="Times Roman,serif" font-size="15.00" fill="blue">Ø</text>
</g>
<!-- Enzyme_dilution&#45;&gt;Enzyme_dilution_empty -->
<g id="edge16" class="edge"><title>Enzyme_dilution&#45;&gt;Enzyme_dilution_empty</title>
<path fill="none" stroke="black" d="M652.138,-128C670.506,-128 720.421,-128 755.595,-128"/>
<polygon fill="black" stroke="black" points="755.986,-131.5 765.986,-128 755.986,-124.5 755.986,-131.5"/>
</g>
<!-- Enzyme_dilution_intermediate_r&#45;&gt;Enzyme_dilution -->
<g id="edge12" class="edge"><title>Enzyme_dilution_intermediate_r&#45;&gt;Enzyme_dilution</title>
<path fill="none" stroke="black" d="M524.088,-128C527.194,-128 611.912,-128 637.653,-128"/>
</g>
<!-- tryptophan_synthesis -->
<g id="node20" class="node"><title>tryptophan_synthesis</title>
<polygon fill="none" stroke="black" points="431,-49 417,-49 417,-35 431,-35 431,-49"/>
</g>
<!-- tryptophan_synthesis_intermediate_p -->
<g id="node23" class="node"><title>tryptophan_synthesis_intermediate_p</title>
<ellipse fill="black" stroke="black" cx="524" cy="-42" rx="0.036" ry="0.036"/>
</g>
<!-- tryptophan_synthesis&#45;&gt;tryptophan_synthesis_intermediate_p -->
<g id="edge20" class="edge"><title>tryptophan_synthesis&#45;&gt;tryptophan_synthesis_intermediate_p</title>
<path fill="none" stroke="black" d="M431.192,-42C453.763,-42 521.828,-42 523.949,-42"/>
</g>
<!-- tryptophan_synthesis&#45;&gt;tryptophan_synthesis_intermediate_m -->
<g id="edge24" class="edge"><title>tryptophan_synthesis&#45;&gt;tryptophan_synthesis_intermediate_m</title>
<path fill="none" stroke="black" d="M442.716,-49.4863C471.142,-60.8566 522.118,-81.2471 523.949,-81.9797"/>
<polygon fill="none" stroke="black" points="442.333,-49.3335 435.277,-50.819 431.192,-44.8767 438.248,-43.3912 442.333,-49.3335"/>
</g>
<!-- tryptophan_synthesis_empty -->
<g id="node21" class="node"><title>tryptophan_synthesis_empty</title>
<text text-anchor="middle" x="297" y="-31.5" font-family="Times Roman,serif" font-size="15.00" fill="blue">Ø</text>
</g>
<!-- tryptophan_synthesis_empty&#45;&gt;tryptophan_synthesis -->
<g id="edge18" class="edge"><title>tryptophan_synthesis_empty&#45;&gt;tryptophan_synthesis</title>
<path fill="none" stroke="black" d="M324.245,-37.2872C353.836,-38.6852 399.223,-40.8294 416.748,-41.6574"/>
</g>
<!-- tryptophan_synthesis_intermediate_p&#45;&gt;Ts -->
<g id="edge22" class="edge"><title>tryptophan_synthesis_intermediate_p&#45;&gt;Ts</title>
<path fill="none" stroke="black" d="M524.088,-42C525.128,-42 535.334,-42 549.414,-42"/>
<polygon fill="black" stroke="black" points="549.716,-45.5001 559.716,-42 549.716,-38.5001 549.716,-45.5001"/>
</g>
<!-- tryptophan_consumption -->
<g id="node30" class="node"><title>tryptophan_consumption</title>
<polygon fill="none" stroke="black" points="870,-30 856,-30 856,-16 870,-16 870,-30"/>
</g>
<!-- tryptophan_consumption_empty -->
<g id="node34" class="node"><title>tryptophan_consumption_empty</title>
<text text-anchor="middle" x="933" y="-13.5" font-family="Times Roman,serif" font-size="15.00" fill="blue">Ø</text>
</g>
<!-- tryptophan_consumption&#45;&gt;tryptophan_consumption_empty -->
<g id="edge34" class="edge"><title>tryptophan_consumption&#45;&gt;tryptophan_consumption_empty</title>
<path fill="none" stroke="black" d="M870.228,-22.4837C876.45,-22.0393 885.94,-21.3614 895.672,-20.6663"/>
<polygon fill="black" stroke="black" points="896.048,-24.1484 905.773,-19.9448 895.549,-17.1662 896.048,-24.1484"/>
</g>
<!-- tryptophan_consumption_intermediate_r&#45;&gt;tryptophan_consumption -->
<g id="edge30" class="edge"><title>tryptophan_consumption_intermediate_r&#45;&gt;tryptophan_consumption</title>
<path fill="none" stroke="black" d="M793.051,-25.9978C794.748,-25.9251 838.582,-24.0465 855.98,-23.3009"/>
</g>
<!-- tryptophan_dilution -->
<g id="node36" class="node"><title>tryptophan_dilution</title>
<polygon fill="none" stroke="black" points="870,-73 856,-73 856,-59 870,-59 870,-73"/>
</g>
<!-- tryptophan_dilution_empty -->
<g id="node40" class="node"><title>tryptophan_dilution_empty</title>
<text text-anchor="middle" x="933" y="-67.5" font-family="Times Roman,serif" font-size="15.00" fill="blue">Ø</text>
</g>
<!-- tryptophan_dilution&#45;&gt;tryptophan_dilution_empty -->
<g id="edge40" class="edge"><title>tryptophan_dilution&#45;&gt;tryptophan_dilution_empty</title>
<path fill="none" stroke="black" d="M870.228,-66.6195C876.45,-67.1528 885.94,-67.9663 895.672,-68.8004"/>
<polygon fill="black" stroke="black" points="895.511,-72.2994 905.773,-69.6663 896.109,-65.325 895.511,-72.2994"/>
</g>
<!-- tryptophan_dilution_intermediate_r&#45;&gt;tryptophan_dilution -->
<g id="edge36" class="edge"><title>tryptophan_dilution_intermediate_r&#45;&gt;tryptophan_dilution</title>
<path fill="none" stroke="black" d="M793.051,-59.0051C794.748,-59.1748 838.582,-63.5582 855.98,-65.298"/>
</g>
</g>
</svg>
