<?xml version="1.0" encoding="UTF-8" standalone="no"?>
<!DOCTYPE svg PUBLIC "-//W3C//DTD SVG 1.1//EN"
 "http://www.w3.org/Graphics/SVG/1.1/DTD/svg11.dtd">
<!-- Generated by graphviz version 2.24.0 (20090616.2323)
 -->
<!-- Title: G Pages: 1 -->
<svg width="832pt" height="433pt"
 viewBox="0.00 0.00 832.00 432.51" xmlns="http://www.w3.org/2000/svg" xmlns:xlink="http://www.w3.org/1999/xlink">
<g id="graph1" class="graph" transform="scale(1 1) rotate(0) translate(4 428.508)">
<title>G</title>
<polygon fill="white" stroke="white" points="-4,5 -4,-428.508 829,-428.508 829,5 -4,5"/>
<!-- OCT4_Gene -->
<g id="node1" class="node"><title>OCT4_Gene</title>
<polyline fill="none" stroke="black" points="64,-419 12,-419 "/>
<path fill="none" stroke="black" d="M12,-419C6,-419 2.96059e-14,-413 2.36848e-14,-407"/>
<polyline fill="none" stroke="black" points="2.36848e-14,-407 1.18424e-14,-395 "/>
<path fill="none" stroke="black" d="M1.18424e-14,-395C5.92119e-15,-389 6,-383 12,-383"/>
<polyline fill="none" stroke="black" points="12,-383 64,-383 "/>
<path fill="none" stroke="black" d="M64,-383C70,-383 76,-389 76,-395"/>
<polyline fill="none" stroke="black" points="76,-395 76,-407 "/>
<path fill="none" stroke="black" d="M76,-407C76,-413 70,-419 64,-419"/>
<text text-anchor="middle" x="38" y="-398.5" font-family="Times Roman,serif" font-size="10.00">OCT4_Gene</text>
</g>
<!-- J0_intermediate_r -->
<g id="node14" class="node"><title>J0_intermediate_r</title>
<ellipse fill="black" stroke="black" cx="112" cy="-401" rx="0.036" ry="0.036"/>
</g>
<!-- OCT4_Gene&#45;&gt;J0_intermediate_r -->
<g id="edge4" class="edge"><title>OCT4_Gene&#45;&gt;J0_intermediate_r</title>
<path fill="none" stroke="black" d="M76.3005,-401C93.7928,-401 110.897,-401 111.949,-401"/>
</g>
<!-- NANOG_Gene -->
<g id="node2" class="node"><title>NANOG_Gene</title>
<polyline fill="none" stroke="black" points="314,-202 252,-202 "/>
<path fill="none" stroke="black" d="M252,-202C246,-202 240,-196 240,-190"/>
<polyline fill="none" stroke="black" points="240,-190 240,-178 "/>
<path fill="none" stroke="black" d="M240,-178C240,-172 246,-166 252,-166"/>
<polyline fill="none" stroke="black" points="252,-166 314,-166 "/>
<path fill="none" stroke="black" d="M314,-166C320,-166 326,-172 326,-178"/>
<polyline fill="none" stroke="black" points="326,-178 326,-190 "/>
<path fill="none" stroke="black" d="M326,-190C326,-196 320,-202 314,-202"/>
<text text-anchor="middle" x="283" y="-181.5" font-family="Times Roman,serif" font-size="10.00">NANOG_Gene</text>
</g>
<!-- J2_intermediate_r -->
<g id="node33" class="node"><title>J2_intermediate_r</title>
<ellipse fill="black" stroke="black" cx="367" cy="-184" rx="0.036" ry="0.036"/>
</g>
<!-- NANOG_Gene&#45;&gt;J2_intermediate_r -->
<g id="edge28" class="edge"><title>NANOG_Gene&#45;&gt;J2_intermediate_r</title>
<path fill="none" stroke="black" d="M326.476,-184C346.332,-184 365.748,-184 366.942,-184"/>
</g>
<!-- SOX2_Gene -->
<g id="node3" class="node"><title>SOX2_Gene</title>
<polyline fill="none" stroke="black" points="63,-344 13,-344 "/>
<path fill="none" stroke="black" d="M13,-344C7,-344 1,-338 1,-332"/>
<polyline fill="none" stroke="black" points="1,-332 1,-320 "/>
<path fill="none" stroke="black" d="M1,-320C1,-314 7,-308 13,-308"/>
<polyline fill="none" stroke="black" points="13,-308 63,-308 "/>
<path fill="none" stroke="black" d="M63,-308C69,-308 75,-314 75,-320"/>
<polyline fill="none" stroke="black" points="75,-320 75,-332 "/>
<path fill="none" stroke="black" d="M75,-332C75,-338 69,-344 63,-344"/>
<text text-anchor="middle" x="38" y="-323.5" font-family="Times Roman,serif" font-size="10.00">SOX2_Gene</text>
</g>
<!-- J6_intermediate_r -->
<g id="node66" class="node"><title>J6_intermediate_r</title>
<ellipse fill="black" stroke="black" cx="112" cy="-326" rx="0.036" ry="0.036"/>
</g>
<!-- SOX2_Gene&#45;&gt;J6_intermediate_r -->
<g id="edge68" class="edge"><title>SOX2_Gene&#45;&gt;J6_intermediate_r</title>
<path fill="none" stroke="black" d="M75.8671,-326C93.5047,-326 110.879,-326 111.948,-326"/>
</g>
<!-- targetGene -->
<g id="node4" class="node"><title>targetGene</title>
<ellipse fill="none" stroke="black" cx="283" cy="-88" rx="46.7846" ry="18"/>
<text text-anchor="middle" x="283" y="-85.5" font-family="Times Roman,serif" font-size="10.00">targetGene</text>
</g>
<!-- J8_intermediate_r -->
<g id="node85" class="node"><title>J8_intermediate_r</title>
<ellipse fill="black" stroke="black" cx="367" cy="-88" rx="0.036" ry="0.036"/>
</g>
<!-- targetGene&#45;&gt;J8_intermediate_r -->
<g id="edge92" class="edge"><title>targetGene&#45;&gt;J8_intermediate_r</title>
<path fill="none" stroke="black" d="M330.401,-88C348.859,-88 365.902,-88 366.949,-88"/>
</g>
<!-- degradation -->
<g id="node5" class="node"><title>degradation</title>
<ellipse fill="none" stroke="black" cx="777" cy="-236" rx="46.7846" ry="18"/>
<text text-anchor="middle" x="777" y="-233.5" font-family="Times Roman,serif" font-size="10.00">degradation</text>
</g>
<!-- p53 -->
<g id="node6" class="node"><title>p53</title>
<polyline fill="none" stroke="black" points="545,-118 515,-118 "/>
<path fill="none" stroke="black" d="M515,-118C509,-118 503,-112 503,-106"/>
<polyline fill="none" stroke="black" points="503,-106 503,-94 "/>
<path fill="none" stroke="black" d="M503,-94C503,-88 509,-82 515,-82"/>
<polyline fill="none" stroke="black" points="515,-82 545,-82 "/>
<path fill="none" stroke="black" d="M545,-82C551,-82 557,-88 557,-94"/>
<polyline fill="none" stroke="black" points="557,-94 557,-106 "/>
<path fill="none" stroke="black" d="M557,-106C557,-112 551,-118 545,-118"/>
<text text-anchor="middle" x="530" y="-97.5" font-family="Times Roman,serif" font-size="10.00">p53</text>
</g>
<!-- J2_intermediate_m -->
<g id="node39" class="node"><title>J2_intermediate_m</title>
<ellipse fill="black" stroke="black" cx="605" cy="-146" rx="0.036" ry="0.036"/>
</g>
<!-- p53&#45;&gt;J2_intermediate_m -->
<g id="edge38" class="edge"><title>p53&#45;&gt;J2_intermediate_m</title>
<path fill="none" stroke="black" d="M557.077,-116.607C577.888,-129.371 603.352,-144.989 604.923,-145.953"/>
</g>
<!-- A -->
<g id="node7" class="node"><title>A</title>
<ellipse fill="none" stroke="black" cx="530" cy="-376" rx="27" ry="18"/>
<text text-anchor="middle" x="530" y="-373.5" font-family="Times Roman,serif" font-size="10.00">A</text>
</g>
<!-- J0_intermediate_m -->
<g id="node20" class="node"><title>J0_intermediate_m</title>
<ellipse fill="black" stroke="black" cx="605" cy="-339" rx="0.036" ry="0.036"/>
</g>
<!-- A&#45;&gt;J0_intermediate_m -->
<g id="edge12" class="edge"><title>A&#45;&gt;J0_intermediate_m</title>
<path fill="none" stroke="black" d="M552.097,-365.099C573.529,-354.526 603.085,-339.945 604.911,-339.044"/>
</g>
<!-- J6_intermediate_m -->
<g id="node72" class="node"><title>J6_intermediate_m</title>
<ellipse fill="black" stroke="black" cx="605" cy="-294" rx="0.036" ry="0.036"/>
</g>
<!-- A&#45;&gt;J6_intermediate_m -->
<g id="edge76" class="edge"><title>A&#45;&gt;J6_intermediate_m</title>
<path fill="none" stroke="black" d="M548.172,-362.154C554.722,-356.796 561.978,-350.413 568,-344 586.333,-324.477 603.869,-295.856 604.948,-294.086"/>
</g>
<!-- OCT4 -->
<g id="node8" class="node"><title>OCT4</title>
<polyline fill="none" stroke="black" points="298,-394 268,-394 "/>
<path fill="none" stroke="black" d="M268,-394C262,-394 256,-388 256,-382"/>
<polyline fill="none" stroke="black" points="256,-382 256,-370 "/>
<path fill="none" stroke="black" d="M256,-370C256,-364 262,-358 268,-358"/>
<polyline fill="none" stroke="black" points="268,-358 298,-358 "/>
<path fill="none" stroke="black" d="M298,-358C304,-358 310,-364 310,-370"/>
<polyline fill="none" stroke="black" points="310,-370 310,-382 "/>
<path fill="none" stroke="black" d="M310,-382C310,-388 304,-394 298,-394"/>
<text text-anchor="middle" x="283" y="-373.5" font-family="Times Roman,serif" font-size="10.00">OCT4</text>
</g>
<!-- J1_intermediate_r -->
<g id="node26" class="node"><title>J1_intermediate_r</title>
<ellipse fill="black" stroke="black" cx="367" cy="-380" rx="0.036" ry="0.036"/>
</g>
<!-- OCT4&#45;&gt;J1_intermediate_r -->
<g id="edge20" class="edge"><title>OCT4&#45;&gt;J1_intermediate_r</title>
<path fill="none" stroke="black" d="M310.041,-377.288C333.829,-378.42 364.982,-379.904 366.906,-379.996"/>
</g>
<!-- J4_intermediate_r -->
<g id="node51" class="node"><title>J4_intermediate_r</title>
<ellipse fill="black" stroke="black" cx="367" cy="-275" rx="0.036" ry="0.036"/>
</g>
<!-- OCT4&#45;&gt;J4_intermediate_r -->
<g id="edge50" class="edge"><title>OCT4&#45;&gt;J4_intermediate_r</title>
<path fill="none" stroke="black" d="M298.018,-357.943C321.424,-329.8 364.219,-278.344 366.871,-275.155"/>
</g>
<!-- SOX2 -->
<g id="node9" class="node"><title>SOX2</title>
<polyline fill="none" stroke="black" points="298,-293 268,-293 "/>
<path fill="none" stroke="black" d="M268,-293C262,-293 256,-287 256,-281"/>
<polyline fill="none" stroke="black" points="256,-281 256,-269 "/>
<path fill="none" stroke="black" d="M256,-269C256,-263 262,-257 268,-257"/>
<polyline fill="none" stroke="black" points="268,-257 298,-257 "/>
<path fill="none" stroke="black" d="M298,-257C304,-257 310,-263 310,-269"/>
<polyline fill="none" stroke="black" points="310,-269 310,-281 "/>
<path fill="none" stroke="black" d="M310,-281C310,-287 304,-293 298,-293"/>
<text text-anchor="middle" x="283" y="-272.5" font-family="Times Roman,serif" font-size="10.00">SOX2</text>
</g>
<!-- SOX2&#45;&gt;J4_intermediate_r -->
<g id="edge52" class="edge"><title>SOX2&#45;&gt;J4_intermediate_r</title>
<path fill="none" stroke="black" d="M310.041,-275C333.829,-275 364.982,-275 366.906,-275"/>
</g>
<!-- J7_intermediate_r -->
<g id="node78" class="node"><title>J7_intermediate_r</title>
<ellipse fill="black" stroke="black" cx="367" cy="-230" rx="0.036" ry="0.036"/>
</g>
<!-- SOX2&#45;&gt;J7_intermediate_r -->
<g id="edge84" class="edge"><title>SOX2&#45;&gt;J7_intermediate_r</title>
<path fill="none" stroke="black" d="M310.041,-260.514C333.829,-247.77 364.982,-231.081 366.906,-230.05"/>
</g>
<!-- NANOG -->
<g id="node10" class="node"><title>NANOG</title>
<polyline fill="none" stroke="black" points="545,-302 515,-302 "/>
<path fill="none" stroke="black" d="M515,-302C509,-302 503,-296 503,-290"/>
<polyline fill="none" stroke="black" points="503,-290 503,-278 "/>
<path fill="none" stroke="black" d="M503,-278C503,-272 509,-266 515,-266"/>
<polyline fill="none" stroke="black" points="515,-266 545,-266 "/>
<path fill="none" stroke="black" d="M545,-266C551,-266 557,-272 557,-278"/>
<polyline fill="none" stroke="black" points="557,-278 557,-290 "/>
<path fill="none" stroke="black" d="M557,-290C557,-296 551,-302 545,-302"/>
<text text-anchor="middle" x="530" y="-281.5" font-family="Times Roman,serif" font-size="10.00">NANOG</text>
</g>
<!-- NANOG&#45;&gt;J0_intermediate_m -->
<g id="edge16" class="edge"><title>NANOG&#45;&gt;J0_intermediate_m</title>
<path fill="none" stroke="black" d="M554.558,-302.009C575.747,-317.548 603.221,-337.695 604.917,-338.939"/>
</g>
<!-- J3_intermediate_r -->
<g id="node44" class="node"><title>J3_intermediate_r</title>
<ellipse fill="black" stroke="black" cx="605" cy="-274" rx="0.036" ry="0.036"/>
</g>
<!-- NANOG&#45;&gt;J3_intermediate_r -->
<g id="edge42" class="edge"><title>NANOG&#45;&gt;J3_intermediate_r</title>
<path fill="none" stroke="black" d="M557.077,-280.39C577.888,-277.615 603.352,-274.22 604.923,-274.01"/>
</g>
<!-- NANOG&#45;&gt;J6_intermediate_m -->
<g id="edge80" class="edge"><title>NANOG&#45;&gt;J6_intermediate_m</title>
<path fill="none" stroke="black" d="M557.077,-287.61C577.888,-290.385 603.352,-293.78 604.923,-293.99"/>
</g>
<!-- J8_intermediate_m -->
<g id="node91" class="node"><title>J8_intermediate_m</title>
<ellipse fill="black" stroke="black" cx="605" cy="-218" rx="0.036" ry="0.036"/>
</g>
<!-- NANOG&#45;&gt;J8_intermediate_m -->
<g id="edge102" class="edge"><title>NANOG&#45;&gt;J8_intermediate_m</title>
<path fill="none" stroke="black" d="M557.073,-265.75C560.833,-262.933 564.577,-259.97 568,-257 585.482,-241.83 603.816,-219.451 604.945,-218.067"/>
</g>
<!-- OCT4_SOX2 -->
<g id="node11" class="node"><title>OCT4_SOX2</title>
<polyline fill="none" stroke="black" points="555,-248 505,-248 "/>
<path fill="none" stroke="black" d="M505,-248C499,-248 493,-242 493,-236"/>
<polyline fill="none" stroke="black" points="493,-236 493,-224 "/>
<path fill="none" stroke="black" d="M493,-224C493,-218 499,-212 505,-212"/>
<polyline fill="none" stroke="black" points="505,-212 555,-212 "/>
<path fill="none" stroke="black" d="M555,-212C561,-212 567,-218 567,-224"/>
<polyline fill="none" stroke="black" points="567,-224 567,-236 "/>
<path fill="none" stroke="black" d="M567,-236C567,-242 561,-248 555,-248"/>
<text text-anchor="middle" x="530" y="-227.5" font-family="Times Roman,serif" font-size="10.00">OCT4_SOX2</text>
</g>
<!-- OCT4_SOX2&#45;&gt;J0_intermediate_m -->
<g id="edge14" class="edge"><title>OCT4_SOX2&#45;&gt;J0_intermediate_m</title>
<path fill="none" stroke="black" d="M559.223,-248.242C562.413,-250.941 565.429,-253.875 568,-257 592.609,-286.911 604.262,-335.825 604.966,-338.852"/>
</g>
<!-- OCT4_SOX2&#45;&gt;J2_intermediate_m -->
<g id="edge36" class="edge"><title>OCT4_SOX2&#45;&gt;J2_intermediate_m</title>
<path fill="none" stroke="black" d="M546.274,-211.773C567.643,-187.84 602.723,-148.551 604.894,-146.119"/>
</g>
<!-- J5_intermediate_r -->
<g id="node59" class="node"><title>J5_intermediate_r</title>
<ellipse fill="black" stroke="black" cx="605" cy="-236" rx="0.036" ry="0.036"/>
</g>
<!-- OCT4_SOX2&#45;&gt;J5_intermediate_r -->
<g id="edge60" class="edge"><title>OCT4_SOX2&#45;&gt;J5_intermediate_r</title>
<path fill="none" stroke="black" d="M567.5,-233C585.664,-234.453 603.828,-235.906 604.946,-235.996"/>
</g>
<!-- OCT4_SOX2&#45;&gt;J6_intermediate_m -->
<g id="edge78" class="edge"><title>OCT4_SOX2&#45;&gt;J6_intermediate_m</title>
<path fill="none" stroke="black" d="M556.598,-248.033C560.503,-250.928 564.415,-253.97 568,-257 585.208,-271.541 603.799,-292.632 604.944,-293.936"/>
</g>
<!-- OCT4_SOX2&#45;&gt;J8_intermediate_m -->
<g id="edge100" class="edge"><title>OCT4_SOX2&#45;&gt;J8_intermediate_m</title>
<path fill="none" stroke="black" d="M567.5,-224C585.664,-221.094 603.828,-218.188 604.946,-218.009"/>
</g>
<!-- Protein -->
<g id="node12" class="node"><title>Protein</title>
<ellipse fill="none" stroke="black" cx="530" cy="-46" rx="32.1242" ry="18"/>
<text text-anchor="middle" x="530" y="-43.5" font-family="Times Roman,serif" font-size="10.00">Protein</text>
</g>
<!-- J9_intermediate_r -->
<g id="node96" class="node"><title>J9_intermediate_r</title>
<ellipse fill="black" stroke="black" cx="605" cy="-87" rx="0.036" ry="0.036"/>
</g>
<!-- Protein&#45;&gt;J9_intermediate_r -->
<g id="edge106" class="edge"><title>Protein&#45;&gt;J9_intermediate_r</title>
<path fill="none" stroke="black" d="M553.319,-58.7479C574.648,-70.4074 603.153,-85.9906 604.914,-86.9531"/>
</g>
<!-- J0 -->
<g id="node13" class="node"><title>J0</title>
<polygon fill="none" stroke="black" points="162,-408 148,-408 148,-394 162,-394 162,-408"/>
</g>
<!-- J0_intermediate_p -->
<g id="node17" class="node"><title>J0_intermediate_p</title>
<ellipse fill="black" stroke="black" cx="199" cy="-385" rx="0.036" ry="0.036"/>
</g>
<!-- J0&#45;&gt;J0_intermediate_p -->
<g id="edge6" class="edge"><title>J0&#45;&gt;J0_intermediate_p</title>
<path fill="none" stroke="black" d="M162.266,-398.358C174.372,-393.955 197.497,-385.547 198.93,-385.025"/>
</g>
<!-- J0&#45;&gt;J0_intermediate_m -->
<g id="edge10" class="edge"><title>J0&#45;&gt;J0_intermediate_m</title>
<path fill="none" stroke="black" d="M173.99,-406.1C198.844,-412.316 243.851,-422 283,-422 283,-422 283,-422 455,-422 505.927,-422 526.159,-432.032 568,-403 594.15,-384.855 604.358,-341.803 604.97,-339.13"/>
<polygon fill="none" stroke="black" points="173.762,-406.04 166.947,-408.398 162.15,-403.014 168.965,-400.656 173.762,-406.04"/>
</g>
<!-- J0_intermediate_r&#45;&gt;J0 -->
<g id="edge2" class="edge"><title>J0_intermediate_r&#45;&gt;J0</title>
<path fill="none" stroke="black" d="M112.123,-401C113.976,-401 136.231,-401 147.924,-401"/>
</g>
<!-- J0_intermediate_p&#45;&gt;OCT4 -->
<g id="edge8" class="edge"><title>J0_intermediate_p&#45;&gt;OCT4</title>
<path fill="none" stroke="black" d="M199.061,-384.993C200.408,-384.849 223.856,-382.337 245.627,-380.004"/>
<polygon fill="black" stroke="black" points="246.179,-383.465 255.749,-378.92 245.433,-376.505 246.179,-383.465"/>
</g>
<!-- J1 -->
<g id="node25" class="node"><title>J1</title>
<polygon fill="none" stroke="black" points="418,-389 404,-389 404,-375 418,-375 418,-389"/>
</g>
<!-- J1_intermediate_p -->
<g id="node29" class="node"><title>J1_intermediate_p</title>
<ellipse fill="black" stroke="black" cx="649" cy="-378" rx="0.036" ry="0.036"/>
</g>
<!-- J1&#45;&gt;J1_intermediate_p -->
<g id="edge22" class="edge"><title>J1&#45;&gt;J1_intermediate_p</title>
<path fill="none" stroke="black" d="M418.032,-384.471C431.942,-389.213 464.043,-399.435 492,-403 525.506,-407.273 534.6,-408.037 568,-403 604.09,-397.557 646.272,-379.198 648.873,-378.056"/>
</g>
<!-- J1_intermediate_r&#45;&gt;J1 -->
<g id="edge18" class="edge"><title>J1_intermediate_r&#45;&gt;J1</title>
<path fill="none" stroke="black" d="M367.126,-380.006C369.022,-380.092 391.795,-381.127 403.759,-381.671"/>
</g>
<!-- J1_intermediate_p&#45;&gt;degradation -->
<g id="edge24" class="edge"><title>J1_intermediate_p&#45;&gt;degradation</title>
<path fill="none" stroke="black" d="M649.093,-377.897C651.925,-374.756 718.891,-300.465 754.768,-260.664"/>
<polygon fill="black" stroke="black" points="757.405,-262.966 761.5,-253.195 752.205,-258.279 757.405,-262.966"/>
</g>
<!-- J2 -->
<g id="node32" class="node"><title>J2</title>
<polygon fill="none" stroke="black" points="418,-191 404,-191 404,-177 418,-177 418,-191"/>
</g>
<!-- J2_intermediate_p -->
<g id="node36" class="node"><title>J2_intermediate_p</title>
<ellipse fill="black" stroke="black" cx="455" cy="-266" rx="0.036" ry="0.036"/>
</g>
<!-- J2&#45;&gt;J2_intermediate_p -->
<g id="edge30" class="edge"><title>J2&#45;&gt;J2_intermediate_p</title>
<path fill="none" stroke="black" d="M414.905,-191.277C425.337,-210.718 453.185,-262.618 454.916,-265.843"/>
</g>
<!-- J2&#45;&gt;J2_intermediate_m -->
<g id="edge34" class="edge"><title>J2&#45;&gt;J2_intermediate_m</title>
<path fill="none" stroke="black" d="M430.302,-180.219C478.524,-170.774 600.716,-146.839 604.89,-146.021"/>
<polygon fill="none" stroke="black" points="430.144,-180.25 425.025,-185.329 418.368,-182.557 423.487,-177.478 430.144,-180.25"/>
</g>
<!-- J2_intermediate_r&#45;&gt;J2 -->
<g id="edge26" class="edge"><title>J2_intermediate_r&#45;&gt;J2</title>
<path fill="none" stroke="black" d="M367.126,-184C369.022,-184 391.795,-184 403.759,-184"/>
</g>
<!-- J2_intermediate_p&#45;&gt;NANOG -->
<g id="edge32" class="edge"><title>J2_intermediate_p&#45;&gt;NANOG</title>
<path fill="none" stroke="black" d="M455.054,-266.013C456.182,-266.284 474.678,-270.723 493.011,-275.123"/>
<polygon fill="black" stroke="black" points="492.237,-278.536 502.777,-277.467 493.87,-271.729 492.237,-278.536"/>
</g>
<!-- J3 -->
<g id="node43" class="node"><title>J3</title>
<polygon fill="none" stroke="black" points="656,-278 642,-278 642,-264 656,-264 656,-278"/>
</g>
<!-- J3_intermediate_p -->
<g id="node47" class="node"><title>J3_intermediate_p</title>
<ellipse fill="black" stroke="black" cx="693" cy="-262" rx="0.036" ry="0.036"/>
</g>
<!-- J3&#45;&gt;J3_intermediate_p -->
<g id="edge44" class="edge"><title>J3&#45;&gt;J3_intermediate_p</title>
<path fill="none" stroke="black" d="M656.266,-269.514C668.372,-267.037 691.497,-262.308 692.93,-262.014"/>
</g>
<!-- J3_intermediate_r&#45;&gt;J3 -->
<g id="edge40" class="edge"><title>J3_intermediate_r&#45;&gt;J3</title>
<path fill="none" stroke="black" d="M605.126,-273.991C607.022,-273.862 629.795,-272.309 641.759,-271.494"/>
</g>
<!-- J3_intermediate_p&#45;&gt;degradation -->
<g id="edge46" class="edge"><title>J3_intermediate_p&#45;&gt;degradation</title>
<path fill="none" stroke="black" d="M693.061,-261.981C694.225,-261.621 711.916,-256.145 730.758,-250.313"/>
<polygon fill="black" stroke="black" points="731.814,-253.65 740.332,-247.35 729.744,-246.963 731.814,-253.65"/>
</g>
<!-- J4 -->
<g id="node50" class="node"><title>J4</title>
<polygon fill="none" stroke="black" points="418,-278 404,-278 404,-264 418,-264 418,-278"/>
</g>
<!-- J4_intermediate_p -->
<g id="node55" class="node"><title>J4_intermediate_p</title>
<ellipse fill="black" stroke="black" cx="455" cy="-239" rx="0.036" ry="0.036"/>
</g>
<!-- J4&#45;&gt;J4_intermediate_p -->
<g id="edge54" class="edge"><title>J4&#45;&gt;J4_intermediate_p</title>
<path fill="none" stroke="black" d="M418.266,-265.716C430.372,-256.911 453.497,-240.093 454.93,-239.051"/>
</g>
<!-- J4_intermediate_r&#45;&gt;J4 -->
<g id="edge48" class="edge"><title>J4_intermediate_r&#45;&gt;J4</title>
<path fill="none" stroke="black" d="M367.126,-274.989C369.022,-274.816 391.795,-272.746 403.759,-271.658"/>
</g>
<!-- J4_intermediate_p&#45;&gt;OCT4_SOX2 -->
<g id="edge56" class="edge"><title>J4_intermediate_p&#45;&gt;OCT4_SOX2</title>
<path fill="none" stroke="black" d="M455.054,-238.993C455.955,-238.885 467.937,-237.448 482.066,-235.752"/>
<polygon fill="black" stroke="black" points="482.569,-239.217 492.081,-234.55 481.735,-232.267 482.569,-239.217"/>
</g>
<!-- J5 -->
<g id="node58" class="node"><title>J5</title>
<polygon fill="none" stroke="black" points="656,-243 642,-243 642,-229 656,-229 656,-243"/>
</g>
<!-- J5_intermediate_p -->
<g id="node62" class="node"><title>J5_intermediate_p</title>
<ellipse fill="black" stroke="black" cx="693" cy="-236" rx="0.036" ry="0.036"/>
</g>
<!-- J5&#45;&gt;J5_intermediate_p -->
<g id="edge62" class="edge"><title>J5&#45;&gt;J5_intermediate_p</title>
<path fill="none" stroke="black" d="M656.266,-236C668.372,-236 691.497,-236 692.93,-236"/>
</g>
<!-- J5_intermediate_r&#45;&gt;J5 -->
<g id="edge58" class="edge"><title>J5_intermediate_r&#45;&gt;J5</title>
<path fill="none" stroke="black" d="M605.126,-236C607.022,-236 629.795,-236 641.759,-236"/>
</g>
<!-- J5_intermediate_p&#45;&gt;degradation -->
<g id="edge64" class="edge"><title>J5_intermediate_p&#45;&gt;degradation</title>
<path fill="none" stroke="black" d="M693.061,-236C693.989,-236 705.422,-236 719.568,-236"/>
<polygon fill="black" stroke="black" points="719.699,-239.5 729.699,-236 719.698,-232.5 719.699,-239.5"/>
</g>
<!-- J6 -->
<g id="node65" class="node"><title>J6</title>
<polygon fill="none" stroke="black" points="162,-333 148,-333 148,-319 162,-319 162,-333"/>
</g>
<!-- J6_intermediate_p -->
<g id="node69" class="node"><title>J6_intermediate_p</title>
<ellipse fill="black" stroke="black" cx="199" cy="-293" rx="0.036" ry="0.036"/>
</g>
<!-- J6&#45;&gt;J6_intermediate_p -->
<g id="edge70" class="edge"><title>J6&#45;&gt;J6_intermediate_p</title>
<path fill="none" stroke="black" d="M162.266,-320.551C174.372,-311.471 197.497,-294.128 198.93,-293.052"/>
</g>
<!-- J6&#45;&gt;J6_intermediate_m -->
<g id="edge74" class="edge"><title>J6&#45;&gt;J6_intermediate_m</title>
<path fill="none" stroke="black" d="M174.494,-326.988C199.584,-328.172 244.528,-330 283,-330 283,-330 283,-330 455,-330 505.927,-330 519.327,-325.984 568,-311 584.756,-305.842 603.771,-294.724 604.943,-294.034"/>
<polygon fill="none" stroke="black" points="174.2,-326.974 168.011,-330.674 162.215,-326.384 168.404,-322.683 174.2,-326.974"/>
</g>
<!-- J6_intermediate_r&#45;&gt;J6 -->
<g id="edge66" class="edge"><title>J6_intermediate_r&#45;&gt;J6</title>
<path fill="none" stroke="black" d="M112.123,-326C113.976,-326 136.231,-326 147.924,-326"/>
</g>
<!-- J6_intermediate_p&#45;&gt;SOX2 -->
<g id="edge72" class="edge"><title>J6_intermediate_p&#45;&gt;SOX2</title>
<path fill="none" stroke="black" d="M199.061,-292.987C200.414,-292.697 224.069,-287.628 245.922,-282.945"/>
<polygon fill="black" stroke="black" points="246.705,-286.357 255.749,-280.839 245.238,-279.512 246.705,-286.357"/>
</g>
<!-- J7 -->
<g id="node77" class="node"><title>J7</title>
<polygon fill="none" stroke="black" points="418,-38 404,-38 404,-24 418,-24 418,-38"/>
</g>
<!-- J7_intermediate_p -->
<g id="node81" class="node"><title>J7_intermediate_p</title>
<ellipse fill="black" stroke="black" cx="693" cy="-64" rx="0.036" ry="0.036"/>
</g>
<!-- J7&#45;&gt;J7_intermediate_p -->
<g id="edge86" class="edge"><title>J7&#45;&gt;J7_intermediate_p</title>
<path fill="none" stroke="black" d="M418.076,-27.7992C436.253,-19.8788 486.234,-0 530,-0 530,-0 530,-0 605,-0 652.605,-0 691.759,-62.0156 692.971,-63.9536"/>
</g>
<!-- J7_intermediate_r&#45;&gt;J7 -->
<g id="edge82" class="edge"><title>J7_intermediate_r&#45;&gt;J7</title>
<path fill="none" stroke="black" d="M367.032,-229.856C368.208,-224.536 401.574,-73.6291 409.379,-38.3334"/>
</g>
<!-- J7_intermediate_p&#45;&gt;degradation -->
<g id="edge88" class="edge"><title>J7_intermediate_p&#45;&gt;degradation</title>
<path fill="none" stroke="black" d="M693.061,-64.1247C694.957,-68.0076 740.679,-161.628 763.827,-209.026"/>
<polygon fill="black" stroke="black" points="760.735,-210.67 768.268,-218.12 767.025,-207.598 760.735,-210.67"/>
</g>
<!-- J8 -->
<g id="node84" class="node"><title>J8</title>
<polygon fill="none" stroke="black" points="418,-95 404,-95 404,-81 418,-81 418,-95"/>
</g>
<!-- J8_intermediate_p -->
<g id="node88" class="node"><title>J8_intermediate_p</title>
<ellipse fill="black" stroke="black" cx="455" cy="-74" rx="0.036" ry="0.036"/>
</g>
<!-- J8&#45;&gt;J8_intermediate_p -->
<g id="edge94" class="edge"><title>J8&#45;&gt;J8_intermediate_p</title>
<path fill="none" stroke="black" d="M418.266,-85.6882C430.372,-81.8361 453.497,-74.4783 454.93,-74.0222"/>
</g>
<!-- J8&#45;&gt;J8_intermediate_m -->
<g id="edge98" class="edge"><title>J8&#45;&gt;J8_intermediate_m</title>
<path fill="none" stroke="black" d="M428.476,-99.7109C475.358,-131.127 600.662,-215.093 604.89,-217.926"/>
<polygon fill="none" stroke="black" points="428.337,-99.6176 421.126,-99.6004 418.368,-92.9374 425.579,-92.9546 428.337,-99.6176"/>
</g>
<!-- J8_intermediate_r&#45;&gt;J8 -->
<g id="edge90" class="edge"><title>J8_intermediate_r&#45;&gt;J8</title>
<path fill="none" stroke="black" d="M367.126,-88C369.022,-88 391.795,-88 403.759,-88"/>
</g>
<!-- J8_intermediate_p&#45;&gt;Protein -->
<g id="edge96" class="edge"><title>J8_intermediate_p&#45;&gt;Protein</title>
<path fill="none" stroke="black" d="M455.054,-73.9797C456.188,-73.5567 474.849,-66.5898 493.264,-59.7148"/>
<polygon fill="black" stroke="black" points="494.633,-62.9396 502.777,-56.1631 492.185,-56.3817 494.633,-62.9396"/>
</g>
<!-- J9 -->
<g id="node95" class="node"><title>J9</title>
<polygon fill="none" stroke="black" points="656,-153 642,-153 642,-139 656,-139 656,-153"/>
</g>
<!-- J9_intermediate_p -->
<g id="node99" class="node"><title>J9_intermediate_p</title>
<ellipse fill="black" stroke="black" cx="693" cy="-182" rx="0.036" ry="0.036"/>
</g>
<!-- J9&#45;&gt;J9_intermediate_p -->
<g id="edge108" class="edge"><title>J9&#45;&gt;J9_intermediate_p</title>
<path fill="none" stroke="black" d="M656.266,-151.945C668.372,-161.85 691.497,-180.77 692.93,-181.943"/>
</g>
<!-- J9_intermediate_r&#45;&gt;J9 -->
<g id="edge104" class="edge"><title>J9_intermediate_r&#45;&gt;J9</title>
<path fill="none" stroke="black" d="M605.126,-87.1693C607.122,-89.8458 632.276,-123.575 643.572,-138.721"/>
</g>
<!-- J9_intermediate_p&#45;&gt;degradation -->
<g id="edge110" class="edge"><title>J9_intermediate_p&#45;&gt;degradation</title>
<path fill="none" stroke="black" d="M693.061,-182.039C694.506,-182.968 721.395,-200.254 744.355,-215.014"/>
<polygon fill="black" stroke="black" points="742.596,-218.044 752.901,-220.508 746.382,-212.156 742.596,-218.044"/>
</g>
</g>
</svg>
