<?xml version="1.0" encoding="UTF-8" standalone="no"?>
<!DOCTYPE svg PUBLIC "-//W3C//DTD SVG 1.1//EN"
 "http://www.w3.org/Graphics/SVG/1.1/DTD/svg11.dtd">
<!-- Generated by graphviz version 2.24.0 (20090616.2323)
 -->
<!-- Title: G Pages: 1 -->
<svg width="418pt" height="430pt"
 viewBox="0.00 0.00 418.00 430.00" xmlns="http://www.w3.org/2000/svg" xmlns:xlink="http://www.w3.org/1999/xlink">
<g id="graph1" class="graph" transform="scale(1 1) rotate(0) translate(4 426)">
<title>G</title>
<polygon fill="white" stroke="white" points="-4,5 -4,-426 415,-426 415,5 -4,5"/>
<!-- species_1 -->
<g id="node1" class="node"><title>species_1</title>
<polyline fill="none" stroke="black" points="220,-386 190,-386 "/>
<path fill="none" stroke="black" d="M190,-386C184,-386 178,-380 178,-374"/>
<polyline fill="none" stroke="black" points="178,-374 178,-362 "/>
<path fill="none" stroke="black" d="M178,-362C178,-356 184,-350 190,-350"/>
<polyline fill="none" stroke="black" points="190,-350 220,-350 "/>
<path fill="none" stroke="black" d="M220,-350C226,-350 232,-356 232,-362"/>
<polyline fill="none" stroke="black" points="232,-362 232,-374 "/>
<path fill="none" stroke="black" d="M232,-374C232,-380 226,-386 220,-386"/>
<text text-anchor="middle" x="205" y="-365.5" font-family="Times Roman,serif" font-size="10.00">Xi</text>
</g>
<!-- reaction_2_intermediate_r -->
<g id="node16" class="node"><title>reaction_2_intermediate_r</title>
<ellipse fill="black" stroke="black" cx="269" cy="-400" rx="0.036" ry="0.036"/>
</g>
<!-- species_1&#45;&gt;reaction_2_intermediate_r -->
<g id="edge16" class="edge"><title>species_1&#45;&gt;reaction_2_intermediate_r</title>
<path fill="none" stroke="black" d="M232.142,-381.571C249.04,-390.02 267.788,-399.394 268.944,-399.972"/>
</g>
<!-- reaction_2_intermediate_m -->
<g id="node21" class="node"><title>reaction_2_intermediate_m</title>
<ellipse fill="black" stroke="black" cx="383" cy="-368" rx="0.036" ry="0.036"/>
</g>
<!-- species_1&#45;&gt;reaction_2_intermediate_m -->
<g id="edge22" class="edge"><title>species_1&#45;&gt;reaction_2_intermediate_m</title>
<path fill="none" stroke="black" d="M232.034,-368C281.051,-368 379.851,-368 382.926,-368"/>
</g>
<!-- reaction_3_intermediate_m -->
<g id="node30" class="node"><title>reaction_3_intermediate_m</title>
<ellipse fill="black" stroke="black" cx="269" cy="-248" rx="0.036" ry="0.036"/>
</g>
<!-- species_1&#45;&gt;reaction_3_intermediate_m -->
<g id="edge36" class="edge"><title>species_1&#45;&gt;reaction_3_intermediate_m</title>
<path fill="none" stroke="black" d="M212.342,-349.741C228.627,-315.228 266.532,-245.438 268.885,-247.566"/>
</g>
<!-- species_1&#45;&gt;reaction_3_intermediate_m -->
<g id="edge42" class="edge"><title>species_1&#45;&gt;reaction_3_intermediate_m</title>
<path fill="none" stroke="black" d="M217.644,-349.796C236.004,-318.092 267.981,-256.4 268.976,-248.343"/>
</g>
<!-- reaction_5_intermediate_m -->
<g id="node53" class="node"><title>reaction_5_intermediate_m</title>
<ellipse fill="black" stroke="black" cx="269" cy="-340" rx="0.036" ry="0.036"/>
</g>
<!-- species_1&#45;&gt;reaction_5_intermediate_m -->
<g id="edge62" class="edge"><title>species_1&#45;&gt;reaction_5_intermediate_m</title>
<path fill="none" stroke="black" d="M231.031,-349.967C248.196,-341.844 267.737,-335.354 268.941,-339.559"/>
</g>
<!-- species_1&#45;&gt;reaction_5_intermediate_m -->
<g id="edge64" class="edge"><title>species_1&#45;&gt;reaction_5_intermediate_m</title>
<path fill="none" stroke="black" d="M232.142,-362.806C249.312,-355.789 268.394,-345.291 268.986,-340.237"/>
</g>
<!-- species_2 -->
<g id="node2" class="node"><title>species_2</title>
<polyline fill="none" stroke="black" points="220,-294 190,-294 "/>
<path fill="none" stroke="black" d="M190,-294C184,-294 178,-288 178,-282"/>
<polyline fill="none" stroke="black" points="178,-282 178,-270 "/>
<path fill="none" stroke="black" d="M178,-270C178,-264 184,-258 190,-258"/>
<polyline fill="none" stroke="black" points="190,-258 220,-258 "/>
<path fill="none" stroke="black" d="M220,-258C226,-258 232,-264 232,-270"/>
<polyline fill="none" stroke="black" points="232,-270 232,-282 "/>
<path fill="none" stroke="black" d="M232,-282C232,-288 226,-294 220,-294"/>
<text text-anchor="middle" x="205" y="-273.5" font-family="Times Roman,serif" font-size="10.00">Yi</text>
</g>
<!-- species_2&#45;&gt;reaction_3_intermediate_m -->
<g id="edge32" class="edge"><title>species_2&#45;&gt;reaction_3_intermediate_m</title>
<path fill="none" stroke="black" d="M231.031,-257.967C248.196,-249.844 267.737,-243.354 268.941,-247.559"/>
</g>
<!-- species_2&#45;&gt;reaction_3_intermediate_m -->
<g id="edge38" class="edge"><title>species_2&#45;&gt;reaction_3_intermediate_m</title>
<path fill="none" stroke="black" d="M232.142,-270.806C249.312,-263.789 268.394,-253.291 268.986,-248.237"/>
</g>
<!-- reaction_4_intermediate_r -->
<g id="node39" class="node"><title>reaction_4_intermediate_r</title>
<ellipse fill="black" stroke="black" cx="269" cy="-307" rx="0.036" ry="0.036"/>
</g>
<!-- species_2&#45;&gt;reaction_4_intermediate_r -->
<g id="edge46" class="edge"><title>species_2&#45;&gt;reaction_4_intermediate_r</title>
<path fill="none" stroke="black" d="M232.142,-289.147C249.04,-297.332 267.788,-306.413 268.944,-306.973"/>
</g>
<!-- reaction_4_intermediate_m -->
<g id="node44" class="node"><title>reaction_4_intermediate_m</title>
<ellipse fill="black" stroke="black" cx="383" cy="-276" rx="0.036" ry="0.036"/>
</g>
<!-- species_2&#45;&gt;reaction_4_intermediate_m -->
<g id="edge52" class="edge"><title>species_2&#45;&gt;reaction_4_intermediate_m</title>
<path fill="none" stroke="black" d="M232.034,-276C281.051,-276 379.851,-276 382.926,-276"/>
</g>
<!-- reaction_7_intermediate_m -->
<g id="node72" class="node"><title>reaction_7_intermediate_m</title>
<ellipse fill="black" stroke="black" cx="269" cy="-174" rx="0.036" ry="0.036"/>
</g>
<!-- species_2&#45;&gt;reaction_7_intermediate_m -->
<g id="edge84" class="edge"><title>species_2&#45;&gt;reaction_7_intermediate_m</title>
<path fill="none" stroke="black" d="M213.367,-257.934C230.173,-227.462 266.628,-170.727 268.89,-173.539"/>
</g>
<!-- species_2&#45;&gt;reaction_7_intermediate_m -->
<g id="edge90" class="edge"><title>species_2&#45;&gt;reaction_7_intermediate_m</title>
<path fill="none" stroke="black" d="M220.167,-257.667C238.797,-230.2 268.068,-181.697 268.978,-174.32"/>
</g>
<!-- species_3 -->
<g id="node3" class="node"><title>species_3</title>
<polyline fill="none" stroke="black" points="220,-72 190,-72 "/>
<path fill="none" stroke="black" d="M190,-72C184,-72 178,-66 178,-60"/>
<polyline fill="none" stroke="black" points="178,-60 178,-48 "/>
<path fill="none" stroke="black" d="M178,-48C178,-42 184,-36 190,-36"/>
<polyline fill="none" stroke="black" points="190,-36 220,-36 "/>
<path fill="none" stroke="black" d="M220,-36C226,-36 232,-42 232,-48"/>
<polyline fill="none" stroke="black" points="232,-48 232,-60 "/>
<path fill="none" stroke="black" d="M232,-60C232,-66 226,-72 220,-72"/>
<text text-anchor="middle" x="205" y="-51.5" font-family="Times Roman,serif" font-size="10.00">Xj</text>
</g>
<!-- reaction_1_intermediate_m -->
<g id="node11" class="node"><title>reaction_1_intermediate_m</title>
<ellipse fill="black" stroke="black" cx="269" cy="-82" rx="0.036" ry="0.036"/>
</g>
<!-- species_3&#45;&gt;reaction_1_intermediate_m -->
<g id="edge10" class="edge"><title>species_3&#45;&gt;reaction_1_intermediate_m</title>
<path fill="none" stroke="black" d="M232.142,-59.1941C249.312,-66.2107 268.394,-76.7088 268.986,-81.7635"/>
</g>
<!-- species_3&#45;&gt;reaction_1_intermediate_m -->
<g id="edge12" class="edge"><title>species_3&#45;&gt;reaction_1_intermediate_m</title>
<path fill="none" stroke="black" d="M231.031,-72.0332C248.196,-80.1559 267.737,-86.6455 268.941,-82.4406"/>
</g>
<!-- reaction_6_intermediate_r -->
<g id="node58" class="node"><title>reaction_6_intermediate_r</title>
<ellipse fill="black" stroke="black" cx="269" cy="-22" rx="0.036" ry="0.036"/>
</g>
<!-- species_3&#45;&gt;reaction_6_intermediate_r -->
<g id="edge68" class="edge"><title>species_3&#45;&gt;reaction_6_intermediate_r</title>
<path fill="none" stroke="black" d="M232.142,-40.4291C249.04,-31.9801 267.788,-22.6058 268.944,-22.0281"/>
</g>
<!-- reaction_6_intermediate_m -->
<g id="node63" class="node"><title>reaction_6_intermediate_m</title>
<ellipse fill="black" stroke="black" cx="383" cy="-54" rx="0.036" ry="0.036"/>
</g>
<!-- species_3&#45;&gt;reaction_6_intermediate_m -->
<g id="edge74" class="edge"><title>species_3&#45;&gt;reaction_6_intermediate_m</title>
<path fill="none" stroke="black" d="M232.034,-54C281.051,-54 379.851,-54 382.926,-54"/>
</g>
<!-- species_3&#45;&gt;reaction_7_intermediate_m -->
<g id="edge88" class="edge"><title>species_3&#45;&gt;reaction_7_intermediate_m</title>
<path fill="none" stroke="black" d="M217.644,-72.2044C236.004,-103.908 267.981,-165.6 268.976,-173.657"/>
</g>
<!-- species_3&#45;&gt;reaction_7_intermediate_m -->
<g id="edge94" class="edge"><title>species_3&#45;&gt;reaction_7_intermediate_m</title>
<path fill="none" stroke="black" d="M212.342,-72.2595C228.627,-106.772 266.532,-176.562 268.885,-174.434"/>
</g>
<!-- species_4 -->
<g id="node4" class="node"><title>species_4</title>
<polyline fill="none" stroke="black" points="220,-164 190,-164 "/>
<path fill="none" stroke="black" d="M190,-164C184,-164 178,-158 178,-152"/>
<polyline fill="none" stroke="black" points="178,-152 178,-140 "/>
<path fill="none" stroke="black" d="M178,-140C178,-134 184,-128 190,-128"/>
<polyline fill="none" stroke="black" points="190,-128 220,-128 "/>
<path fill="none" stroke="black" d="M220,-128C226,-128 232,-134 232,-140"/>
<polyline fill="none" stroke="black" points="232,-140 232,-152 "/>
<path fill="none" stroke="black" d="M232,-152C232,-158 226,-164 220,-164"/>
<text text-anchor="middle" x="205" y="-143.5" font-family="Times Roman,serif" font-size="10.00">Yj</text>
</g>
<!-- species_4&#45;&gt;reaction_3_intermediate_m -->
<g id="edge34" class="edge"><title>species_4&#45;&gt;reaction_3_intermediate_m</title>
<path fill="none" stroke="black" d="M220.167,-164.333C238.797,-191.8 268.068,-240.303 268.978,-247.68"/>
</g>
<!-- species_4&#45;&gt;reaction_3_intermediate_m -->
<g id="edge40" class="edge"><title>species_4&#45;&gt;reaction_3_intermediate_m</title>
<path fill="none" stroke="black" d="M213.367,-164.066C230.173,-194.538 266.628,-251.273 268.89,-248.461"/>
</g>
<!-- species_4&#45;&gt;reaction_7_intermediate_m -->
<g id="edge86" class="edge"><title>species_4&#45;&gt;reaction_7_intermediate_m</title>
<path fill="none" stroke="black" d="M232.142,-151.194C249.312,-158.211 268.394,-168.709 268.986,-173.763"/>
</g>
<!-- species_4&#45;&gt;reaction_7_intermediate_m -->
<g id="edge92" class="edge"><title>species_4&#45;&gt;reaction_7_intermediate_m</title>
<path fill="none" stroke="black" d="M231.031,-164.033C248.196,-172.156 267.737,-178.646 268.941,-174.441"/>
</g>
<!-- reaction_8_intermediate_r -->
<g id="node81" class="node"><title>reaction_8_intermediate_r</title>
<ellipse fill="black" stroke="black" cx="269" cy="-115" rx="0.036" ry="0.036"/>
</g>
<!-- species_4&#45;&gt;reaction_8_intermediate_r -->
<g id="edge98" class="edge"><title>species_4&#45;&gt;reaction_8_intermediate_r</title>
<path fill="none" stroke="black" d="M232.142,-132.853C249.04,-124.668 267.788,-115.587 268.944,-115.027"/>
</g>
<!-- reaction_8_intermediate_m -->
<g id="node86" class="node"><title>reaction_8_intermediate_m</title>
<ellipse fill="black" stroke="black" cx="383" cy="-146" rx="0.036" ry="0.036"/>
</g>
<!-- species_4&#45;&gt;reaction_8_intermediate_m -->
<g id="edge104" class="edge"><title>species_4&#45;&gt;reaction_8_intermediate_m</title>
<path fill="none" stroke="black" d="M232.034,-146C281.051,-146 379.851,-146 382.926,-146"/>
</g>
<!-- reaction_1 -->
<g id="node5" class="node"><title>reaction_1</title>
<polygon fill="none" stroke="black" points="104,-245 90,-245 90,-231 104,-231 104,-245"/>
</g>
<!-- reaction_1_intermediate_p -->
<g id="node8" class="node"><title>reaction_1_intermediate_p</title>
<ellipse fill="black" stroke="black" cx="141" cy="-359" rx="0.036" ry="0.036"/>
</g>
<!-- reaction_1&#45;&gt;reaction_1_intermediate_p -->
<g id="edge4" class="edge"><title>reaction_1&#45;&gt;reaction_1_intermediate_p</title>
<path fill="none" stroke="black" d="M99.6206,-245.207C108.945,-270.849 140.008,-356.273 140.977,-358.936"/>
</g>
<!-- reaction_1&#45;&gt;reaction_1_intermediate_m -->
<g id="edge8" class="edge"><title>reaction_1&#45;&gt;reaction_1_intermediate_m</title>
<path fill="none" stroke="black" d="M100.795,-218.967C106.098,-196.786 117.689,-160.219 140,-137 182.51,-92.7606 266.329,-82.3228 268.938,-82.0075"/>
<polygon fill="none" stroke="black" points="100.745,-219.195 103.391,-225.903 98.2168,-230.926 95.5709,-224.218 100.745,-219.195"/>
</g>
<!-- reaction_1_empty -->
<g id="node6" class="node"><title>reaction_1_empty</title>
<text text-anchor="middle" x="27" y="-233.5" font-family="Times Roman,serif" font-size="15.00" fill="blue">Ø</text>
</g>
<!-- reaction_1_empty&#45;&gt;reaction_1 -->
<g id="edge2" class="edge"><title>reaction_1_empty&#45;&gt;reaction_1</title>
<path fill="none" stroke="black" d="M54.2643,-238C67.1627,-238 81.5367,-238 89.8947,-238"/>
</g>
<!-- reaction_1_intermediate_p&#45;&gt;species_1 -->
<g id="edge6" class="edge"><title>reaction_1_intermediate_p&#45;&gt;species_1</title>
<path fill="none" stroke="black" d="M141.046,-359.007C141.893,-359.126 154.209,-360.857 167.809,-362.77"/>
<polygon fill="black" stroke="black" points="167.404,-366.247 177.794,-364.174 168.379,-359.316 167.404,-366.247"/>
</g>
<!-- reaction_2 -->
<g id="node15" class="node"><title>reaction_2</title>
<polygon fill="none" stroke="black" points="320,-410 306,-410 306,-396 320,-396 320,-410"/>
</g>
<!-- reaction_2_empty -->
<g id="node19" class="node"><title>reaction_2_empty</title>
<text text-anchor="middle" x="383" y="-399.5" font-family="Times Roman,serif" font-size="15.00" fill="blue">Ø</text>
</g>
<!-- reaction_2&#45;&gt;reaction_2_empty -->
<g id="edge18" class="edge"><title>reaction_2&#45;&gt;reaction_2_empty</title>
<path fill="none" stroke="black" d="M320.228,-403.103C326.45,-403.192 335.94,-403.328 345.672,-403.467"/>
<polygon fill="black" stroke="black" points="345.724,-406.968 355.773,-403.611 345.824,-399.968 345.724,-406.968"/>
</g>
<!-- reaction_2&#45;&gt;reaction_2_intermediate_m -->
<g id="edge20" class="edge"><title>reaction_2&#45;&gt;reaction_2_intermediate_m</title>
<path fill="none" stroke="black" d="M330.181,-391.408C337.864,-386.544 347.165,-381.082 356,-377 367.124,-371.861 382.034,-368.233 382.955,-368.011"/>
<polygon fill="none" stroke="black" points="330.063,-391.485 327.244,-398.123 320.034,-398.074 322.852,-391.437 330.063,-391.485"/>
</g>
<!-- reaction_2_intermediate_r&#45;&gt;reaction_2 -->
<g id="edge14" class="edge"><title>reaction_2_intermediate_r&#45;&gt;reaction_2</title>
<path fill="none" stroke="black" d="M269.126,-400.009C271.022,-400.138 293.795,-401.691 305.759,-402.506"/>
</g>
<!-- reaction_3 -->
<g id="node24" class="node"><title>reaction_3</title>
<polygon fill="none" stroke="black" points="104,-283 90,-283 90,-269 104,-269 104,-283"/>
</g>
<!-- reaction_3_intermediate_p -->
<g id="node27" class="node"><title>reaction_3_intermediate_p</title>
<ellipse fill="black" stroke="black" cx="141" cy="-276" rx="0.036" ry="0.036"/>
</g>
<!-- reaction_3&#45;&gt;reaction_3_intermediate_p -->
<g id="edge26" class="edge"><title>reaction_3&#45;&gt;reaction_3_intermediate_p</title>
<path fill="none" stroke="black" d="M104.266,-276C116.372,-276 139.497,-276 140.93,-276"/>
</g>
<!-- reaction_3&#45;&gt;reaction_3_intermediate_m -->
<g id="edge30" class="edge"><title>reaction_3&#45;&gt;reaction_3_intermediate_m</title>
<path fill="none" stroke="black" d="M115.883,-267.84C132.032,-261.319 156.072,-252.682 178,-249 216.642,-242.511 265.816,-247.656 268.852,-247.984"/>
<polygon fill="none" stroke="black" points="115.458,-268.019 111.474,-274.03 104.394,-272.665 108.377,-266.654 115.458,-268.019"/>
</g>
<!-- reaction_3_empty -->
<g id="node25" class="node"><title>reaction_3_empty</title>
<text text-anchor="middle" x="27" y="-287.5" font-family="Times Roman,serif" font-size="15.00" fill="blue">Ø</text>
</g>
<!-- reaction_3_empty&#45;&gt;reaction_3 -->
<g id="edge24" class="edge"><title>reaction_3_empty&#45;&gt;reaction_3</title>
<path fill="none" stroke="black" d="M54.2643,-285.768C67.1627,-282.82 81.5367,-279.534 89.8947,-277.624"/>
</g>
<!-- reaction_3_intermediate_p&#45;&gt;species_2 -->
<g id="edge28" class="edge"><title>reaction_3_intermediate_p&#45;&gt;species_2</title>
<path fill="none" stroke="black" d="M141.046,-276C141.885,-276 153.971,-276 167.414,-276"/>
<polygon fill="black" stroke="black" points="167.794,-279.5 177.794,-276 167.794,-272.5 167.794,-279.5"/>
</g>
<!-- reaction_4 -->
<g id="node38" class="node"><title>reaction_4</title>
<polygon fill="none" stroke="black" points="320,-318 306,-318 306,-304 320,-304 320,-318"/>
</g>
<!-- reaction_4_empty -->
<g id="node42" class="node"><title>reaction_4_empty</title>
<text text-anchor="middle" x="383" y="-307.5" font-family="Times Roman,serif" font-size="15.00" fill="blue">Ø</text>
</g>
<!-- reaction_4&#45;&gt;reaction_4_empty -->
<g id="edge48" class="edge"><title>reaction_4&#45;&gt;reaction_4_empty</title>
<path fill="none" stroke="black" d="M320.228,-311.103C326.45,-311.192 335.94,-311.328 345.672,-311.467"/>
<polygon fill="black" stroke="black" points="345.724,-314.968 355.773,-311.611 345.824,-307.968 345.724,-314.968"/>
</g>
<!-- reaction_4&#45;&gt;reaction_4_intermediate_m -->
<g id="edge50" class="edge"><title>reaction_4&#45;&gt;reaction_4_intermediate_m</title>
<path fill="none" stroke="black" d="M330.181,-299.408C337.864,-294.544 347.165,-289.082 356,-285 367.124,-279.861 382.034,-276.233 382.955,-276.011"/>
<polygon fill="none" stroke="black" points="330.063,-299.485 327.244,-306.123 320.034,-306.074 322.852,-299.437 330.063,-299.485"/>
</g>
<!-- reaction_4_intermediate_r&#45;&gt;reaction_4 -->
<g id="edge44" class="edge"><title>reaction_4_intermediate_r&#45;&gt;reaction_4</title>
<path fill="none" stroke="black" d="M269.126,-307.011C271.022,-307.184 293.795,-309.254 305.759,-310.342"/>
</g>
<!-- reaction_5 -->
<g id="node47" class="node"><title>reaction_5</title>
<polygon fill="none" stroke="black" points="104,-191 90,-191 90,-177 104,-177 104,-191"/>
</g>
<!-- reaction_5_intermediate_p -->
<g id="node50" class="node"><title>reaction_5_intermediate_p</title>
<ellipse fill="black" stroke="black" cx="141" cy="-63" rx="0.036" ry="0.036"/>
</g>
<!-- reaction_5&#45;&gt;reaction_5_intermediate_p -->
<g id="edge56" class="edge"><title>reaction_5&#45;&gt;reaction_5_intermediate_p</title>
<path fill="none" stroke="black" d="M99.6206,-176.793C108.945,-151.151 140.008,-65.7269 140.977,-63.0637"/>
</g>
<!-- reaction_5&#45;&gt;reaction_5_intermediate_m -->
<g id="edge60" class="edge"><title>reaction_5&#45;&gt;reaction_5_intermediate_m</title>
<path fill="none" stroke="black" d="M100.795,-203.033C106.098,-225.214 117.689,-261.781 140,-285 182.51,-329.239 266.329,-339.677 268.938,-339.993"/>
<polygon fill="none" stroke="black" points="100.745,-202.805 95.5709,-197.782 98.2168,-191.074 103.391,-196.097 100.745,-202.805"/>
</g>
<!-- reaction_5_empty -->
<g id="node48" class="node"><title>reaction_5_empty</title>
<text text-anchor="middle" x="27" y="-179.5" font-family="Times Roman,serif" font-size="15.00" fill="blue">Ø</text>
</g>
<!-- reaction_5_empty&#45;&gt;reaction_5 -->
<g id="edge54" class="edge"><title>reaction_5_empty&#45;&gt;reaction_5</title>
<path fill="none" stroke="black" d="M54.2643,-184C67.1627,-184 81.5367,-184 89.8947,-184"/>
</g>
<!-- reaction_5_intermediate_p&#45;&gt;species_3 -->
<g id="edge58" class="edge"><title>reaction_5_intermediate_p&#45;&gt;species_3</title>
<path fill="none" stroke="black" d="M141.046,-62.9935C141.893,-62.8744 154.209,-61.1425 167.809,-59.2299"/>
<polygon fill="black" stroke="black" points="168.379,-62.6843 177.794,-57.8258 167.404,-55.7525 168.379,-62.6843"/>
</g>
<!-- reaction_6 -->
<g id="node57" class="node"><title>reaction_6</title>
<polygon fill="none" stroke="black" points="320,-26 306,-26 306,-12 320,-12 320,-26"/>
</g>
<!-- reaction_6_empty -->
<g id="node61" class="node"><title>reaction_6_empty</title>
<text text-anchor="middle" x="383" y="-13.5" font-family="Times Roman,serif" font-size="15.00" fill="blue">Ø</text>
</g>
<!-- reaction_6&#45;&gt;reaction_6_empty -->
<g id="edge70" class="edge"><title>reaction_6&#45;&gt;reaction_6_empty</title>
<path fill="none" stroke="black" d="M320.228,-18.8967C326.45,-18.8079 335.94,-18.6723 345.672,-18.5333"/>
<polygon fill="black" stroke="black" points="345.824,-22.0315 355.773,-18.389 345.724,-15.0322 345.824,-22.0315"/>
</g>
<!-- reaction_6&#45;&gt;reaction_6_intermediate_m -->
<g id="edge72" class="edge"><title>reaction_6&#45;&gt;reaction_6_intermediate_m</title>
<path fill="none" stroke="black" d="M330.181,-30.5922C337.864,-35.4562 347.165,-40.9181 356,-45 367.124,-50.1393 382.034,-53.7675 382.955,-53.9892"/>
<polygon fill="none" stroke="black" points="330.063,-30.5145 322.852,-30.5632 320.034,-23.9256 327.244,-23.8769 330.063,-30.5145"/>
</g>
<!-- reaction_6_intermediate_r&#45;&gt;reaction_6 -->
<g id="edge66" class="edge"><title>reaction_6_intermediate_r&#45;&gt;reaction_6</title>
<path fill="none" stroke="black" d="M269.126,-21.9914C271.022,-21.8622 293.795,-20.3095 305.759,-19.4937"/>
</g>
<!-- reaction_7 -->
<g id="node66" class="node"><title>reaction_7</title>
<polygon fill="none" stroke="black" points="104,-153 90,-153 90,-139 104,-139 104,-153"/>
</g>
<!-- reaction_7_intermediate_p -->
<g id="node69" class="node"><title>reaction_7_intermediate_p</title>
<ellipse fill="black" stroke="black" cx="141" cy="-146" rx="0.036" ry="0.036"/>
</g>
<!-- reaction_7&#45;&gt;reaction_7_intermediate_p -->
<g id="edge78" class="edge"><title>reaction_7&#45;&gt;reaction_7_intermediate_p</title>
<path fill="none" stroke="black" d="M104.266,-146C116.372,-146 139.497,-146 140.93,-146"/>
</g>
<!-- reaction_7&#45;&gt;reaction_7_intermediate_m -->
<g id="edge82" class="edge"><title>reaction_7&#45;&gt;reaction_7_intermediate_m</title>
<path fill="none" stroke="black" d="M115.883,-154.16C132.032,-160.681 156.072,-169.318 178,-173 216.642,-179.489 265.816,-174.344 268.852,-174.016"/>
<polygon fill="none" stroke="black" points="115.458,-153.981 108.377,-155.346 104.394,-149.335 111.474,-147.97 115.458,-153.981"/>
</g>
<!-- reaction_7_empty -->
<g id="node67" class="node"><title>reaction_7_empty</title>
<text text-anchor="middle" x="27" y="-125.5" font-family="Times Roman,serif" font-size="15.00" fill="blue">Ø</text>
</g>
<!-- reaction_7_empty&#45;&gt;reaction_7 -->
<g id="edge76" class="edge"><title>reaction_7_empty&#45;&gt;reaction_7</title>
<path fill="none" stroke="black" d="M54.2643,-136.232C67.1627,-139.18 81.5367,-142.466 89.8947,-144.376"/>
</g>
<!-- reaction_7_intermediate_p&#45;&gt;species_4 -->
<g id="edge80" class="edge"><title>reaction_7_intermediate_p&#45;&gt;species_4</title>
<path fill="none" stroke="black" d="M141.046,-146C141.885,-146 153.971,-146 167.414,-146"/>
<polygon fill="black" stroke="black" points="167.794,-149.5 177.794,-146 167.794,-142.5 167.794,-149.5"/>
</g>
<!-- reaction_8 -->
<g id="node80" class="node"><title>reaction_8</title>
<polygon fill="none" stroke="black" points="320,-118 306,-118 306,-104 320,-104 320,-118"/>
</g>
<!-- reaction_8_empty -->
<g id="node84" class="node"><title>reaction_8_empty</title>
<text text-anchor="middle" x="383" y="-105.5" font-family="Times Roman,serif" font-size="15.00" fill="blue">Ø</text>
</g>
<!-- reaction_8&#45;&gt;reaction_8_empty -->
<g id="edge100" class="edge"><title>reaction_8&#45;&gt;reaction_8_empty</title>
<path fill="none" stroke="black" d="M320.228,-110.897C326.45,-110.808 335.94,-110.672 345.672,-110.533"/>
<polygon fill="black" stroke="black" points="345.824,-114.032 355.773,-110.389 345.724,-107.032 345.824,-114.032"/>
</g>
<!-- reaction_8&#45;&gt;reaction_8_intermediate_m -->
<g id="edge102" class="edge"><title>reaction_8&#45;&gt;reaction_8_intermediate_m</title>
<path fill="none" stroke="black" d="M330.181,-122.592C337.864,-127.456 347.165,-132.918 356,-137 367.124,-142.139 382.034,-145.767 382.955,-145.989"/>
<polygon fill="none" stroke="black" points="330.063,-122.515 322.852,-122.563 320.034,-115.926 327.244,-115.877 330.063,-122.515"/>
</g>
<!-- reaction_8_intermediate_r&#45;&gt;reaction_8 -->
<g id="edge96" class="edge"><title>reaction_8_intermediate_r&#45;&gt;reaction_8</title>
<path fill="none" stroke="black" d="M269.126,-114.989C271.022,-114.816 293.795,-112.746 305.759,-111.658"/>
</g>
</g>
</svg>
