<?xml version="1.0" encoding="UTF-8" standalone="no"?>
<!DOCTYPE svg PUBLIC "-//W3C//DTD SVG 1.1//EN"
 "http://www.w3.org/Graphics/SVG/1.1/DTD/svg11.dtd">
<!-- Generated by graphviz version 2.24.0 (20090616.2323)
 -->
<!-- Title: G Pages: 1 -->
<svg width="706pt" height="240pt"
 viewBox="0.00 0.00 706.00 240.00" xmlns="http://www.w3.org/2000/svg" xmlns:xlink="http://www.w3.org/1999/xlink">
<g id="graph1" class="graph" transform="scale(1 1) rotate(0) translate(4 236)">
<title>G</title>
<polygon fill="white" stroke="white" points="-4,5 -4,-236 703,-236 703,5 -4,5"/>
<!-- M -->
<g id="node1" class="node"><title>M</title>
<polyline fill="none" stroke="black" points="42,-91 12,-91 "/>
<path fill="none" stroke="black" d="M12,-91C6,-91 2.07242e-14,-85 1.65793e-14,-79"/>
<polyline fill="none" stroke="black" points="1.65793e-14,-79 8.28967e-15,-67 "/>
<path fill="none" stroke="black" d="M8.28967e-15,-67C4.14483e-15,-61 6,-55 12,-55"/>
<polyline fill="none" stroke="black" points="12,-55 42,-55 "/>
<path fill="none" stroke="black" d="M42,-55C48,-55 54,-61 54,-67"/>
<polyline fill="none" stroke="black" points="54,-67 54,-79 "/>
<path fill="none" stroke="black" d="M54,-79C54,-85 48,-91 42,-91"/>
<text text-anchor="middle" x="27" y="-70.5" font-family="Times Roman,serif" font-size="10.00">M</text>
</g>
<!-- v1_intermediate_r -->
<g id="node8" class="node"><title>v1_intermediate_r</title>
<ellipse fill="black" stroke="black" cx="91" cy="-166" rx="0.036" ry="0.036"/>
</g>
<!-- M&#45;&gt;v1_intermediate_r -->
<g id="edge4" class="edge"><title>M&#45;&gt;v1_intermediate_r</title>
<path fill="none" stroke="black" d="M39.6443,-91.3738C57.713,-117.63 88.9697,-163.05 90.9056,-165.863"/>
</g>
<!-- v2_intermediate_m -->
<g id="node24" class="node"><title>v2_intermediate_m</title>
<ellipse fill="black" stroke="black" cx="483" cy="-154" rx="0.036" ry="0.036"/>
</g>
<!-- M&#45;&gt;v2_intermediate_m -->
<g id="edge26" class="edge"><title>M&#45;&gt;v2_intermediate_m</title>
<path fill="none" stroke="black" d="M54.3211,-84.8494C80.2401,-95.0032 120.538,-108 157,-108 157,-108 157,-108 351,-108 394.058,-108 406.577,-109.683 446,-127 464.056,-134.931 481.852,-152.835 482.947,-153.946"/>
</g>
<!-- v3_intermediate_m -->
<g id="node35" class="node"><title>v3_intermediate_m</title>
<ellipse fill="black" stroke="black" cx="698" cy="-63" rx="0.036" ry="0.036"/>
</g>
<!-- M&#45;&gt;v3_intermediate_m -->
<g id="edge40" class="edge"><title>M&#45;&gt;v3_intermediate_m</title>
<path fill="none" stroke="black" d="M45.0133,-54.9551C68.5946,-33.3377 112.22,-0 157,-0 157,-0 157,-0 611,-0 657.994,-0 696.771,-61.0466 697.971,-62.9543"/>
</g>
<!-- Mp -->
<g id="node2" class="node"><title>Mp</title>
<polyline fill="none" stroke="black" points="302,-215 272,-215 "/>
<path fill="none" stroke="black" d="M272,-215C266,-215 260,-209 260,-203"/>
<polyline fill="none" stroke="black" points="260,-203 260,-191 "/>
<path fill="none" stroke="black" d="M260,-191C260,-185 266,-179 272,-179"/>
<polyline fill="none" stroke="black" points="272,-179 302,-179 "/>
<path fill="none" stroke="black" d="M302,-179C308,-179 314,-185 314,-191"/>
<polyline fill="none" stroke="black" points="314,-191 314,-203 "/>
<path fill="none" stroke="black" d="M314,-203C314,-209 308,-215 302,-215"/>
<text text-anchor="middle" x="287" y="-194.5" font-family="Times Roman,serif" font-size="10.00">Mp</text>
</g>
<!-- v2_intermediate_r -->
<g id="node18" class="node"><title>v2_intermediate_r</title>
<ellipse fill="black" stroke="black" cx="351" cy="-197" rx="0.036" ry="0.036"/>
</g>
<!-- Mp&#45;&gt;v2_intermediate_r -->
<g id="edge16" class="edge"><title>Mp&#45;&gt;v2_intermediate_r</title>
<path fill="none" stroke="black" d="M314.142,-197C331.04,-197 349.788,-197 350.944,-197"/>
</g>
<!-- v4_intermediate_r -->
<g id="node40" class="node"><title>v4_intermediate_r</title>
<ellipse fill="black" stroke="black" cx="351" cy="-158" rx="0.036" ry="0.036"/>
</g>
<!-- Mp&#45;&gt;v4_intermediate_r -->
<g id="edge44" class="edge"><title>Mp&#45;&gt;v4_intermediate_r</title>
<path fill="none" stroke="black" d="M314.142,-180.46C331.04,-170.163 349.788,-158.738 350.944,-158.034"/>
</g>
<!-- Mpp -->
<g id="node3" class="node"><title>Mpp</title>
<polyline fill="none" stroke="black" points="562,-188 532,-188 "/>
<path fill="none" stroke="black" d="M532,-188C526,-188 520,-182 520,-176"/>
<polyline fill="none" stroke="black" points="520,-176 520,-164 "/>
<path fill="none" stroke="black" d="M520,-164C520,-158 526,-152 532,-152"/>
<polyline fill="none" stroke="black" points="532,-152 562,-152 "/>
<path fill="none" stroke="black" d="M562,-152C568,-152 574,-158 574,-164"/>
<polyline fill="none" stroke="black" points="574,-164 574,-176 "/>
<path fill="none" stroke="black" d="M574,-176C574,-182 568,-188 562,-188"/>
<text text-anchor="middle" x="547" y="-167.5" font-family="Times Roman,serif" font-size="10.00">Mpp</text>
</g>
<!-- v3_intermediate_r -->
<g id="node29" class="node"><title>v3_intermediate_r</title>
<ellipse fill="black" stroke="black" cx="611" cy="-170" rx="0.036" ry="0.036"/>
</g>
<!-- Mpp&#45;&gt;v3_intermediate_r -->
<g id="edge30" class="edge"><title>Mpp&#45;&gt;v3_intermediate_r</title>
<path fill="none" stroke="black" d="M574.142,-170C591.04,-170 609.788,-170 610.944,-170"/>
</g>
<!-- v4_intermediate_m -->
<g id="node46" class="node"><title>v4_intermediate_m</title>
<ellipse fill="black" stroke="black" cx="611" cy="-109" rx="0.036" ry="0.036"/>
</g>
<!-- Mpp&#45;&gt;v4_intermediate_m -->
<g id="edge54" class="edge"><title>Mpp&#45;&gt;v4_intermediate_m</title>
<path fill="none" stroke="black" d="M566.202,-151.698C584.465,-134.292 609.385,-110.539 610.925,-109.071"/>
</g>
<!-- MAPKK1 -->
<g id="node4" class="node"><title>MAPKK1</title>
<polyline fill="none" stroke="black" points="174,-172 140,-172 "/>
<path fill="none" stroke="black" d="M140,-172C134,-172 128,-166 128,-160"/>
<polyline fill="none" stroke="black" points="128,-160 128,-148 "/>
<path fill="none" stroke="black" d="M128,-148C128,-142 134,-136 140,-136"/>
<polyline fill="none" stroke="black" points="140,-136 174,-136 "/>
<path fill="none" stroke="black" d="M174,-136C180,-136 186,-142 186,-148"/>
<polyline fill="none" stroke="black" points="186,-148 186,-160 "/>
<path fill="none" stroke="black" d="M186,-160C186,-166 180,-172 174,-172"/>
<text text-anchor="middle" x="157" y="-151.5" font-family="Times Roman,serif" font-size="10.00">MAPKK1</text>
</g>
<!-- v1_intermediate_m -->
<g id="node14" class="node"><title>v1_intermediate_m</title>
<ellipse fill="black" stroke="black" cx="223" cy="-167" rx="0.036" ry="0.036"/>
</g>
<!-- MAPKK1&#45;&gt;v1_intermediate_m -->
<g id="edge12" class="edge"><title>MAPKK1&#45;&gt;v1_intermediate_m</title>
<path fill="none" stroke="black" d="M186.141,-159.74C203.269,-163.114 221.803,-166.764 222.944,-166.989"/>
</g>
<!-- MAPKK2 -->
<g id="node5" class="node"><title>MAPKK2</title>
<polyline fill="none" stroke="black" points="434,-172 400,-172 "/>
<path fill="none" stroke="black" d="M400,-172C394,-172 388,-166 388,-160"/>
<polyline fill="none" stroke="black" points="388,-160 388,-148 "/>
<path fill="none" stroke="black" d="M388,-148C388,-142 394,-136 400,-136"/>
<polyline fill="none" stroke="black" points="400,-136 434,-136 "/>
<path fill="none" stroke="black" d="M434,-136C440,-136 446,-142 446,-148"/>
<polyline fill="none" stroke="black" points="446,-148 446,-160 "/>
<path fill="none" stroke="black" d="M446,-160C446,-166 440,-172 434,-172"/>
<text text-anchor="middle" x="417" y="-151.5" font-family="Times Roman,serif" font-size="10.00">MAPKK2</text>
</g>
<!-- MAPKK2&#45;&gt;v2_intermediate_m -->
<g id="edge24" class="edge"><title>MAPKK2&#45;&gt;v2_intermediate_m</title>
<path fill="none" stroke="black" d="M446.141,-154C463.269,-154 481.803,-154 482.944,-154"/>
</g>
<!-- MKP3 -->
<g id="node6" class="node"><title>MKP3</title>
<polyline fill="none" stroke="black" points="562,-81 532,-81 "/>
<path fill="none" stroke="black" d="M532,-81C526,-81 520,-75 520,-69"/>
<polyline fill="none" stroke="black" points="520,-69 520,-57 "/>
<path fill="none" stroke="black" d="M520,-57C520,-51 526,-45 532,-45"/>
<polyline fill="none" stroke="black" points="532,-45 562,-45 "/>
<path fill="none" stroke="black" d="M562,-45C568,-45 574,-51 574,-57"/>
<polyline fill="none" stroke="black" points="574,-57 574,-69 "/>
<path fill="none" stroke="black" d="M574,-69C574,-75 568,-81 562,-81"/>
<text text-anchor="middle" x="547" y="-60.5" font-family="Times Roman,serif" font-size="10.00">MKP3</text>
</g>
<!-- MKP3&#45;&gt;v3_intermediate_m -->
<g id="edge38" class="edge"><title>MKP3&#45;&gt;v3_intermediate_m</title>
<path fill="none" stroke="black" d="M574.345,-63C617.179,-63 695.505,-63 697.942,-63"/>
</g>
<!-- MKP3&#45;&gt;v4_intermediate_m -->
<g id="edge52" class="edge"><title>MKP3&#45;&gt;v4_intermediate_m</title>
<path fill="none" stroke="black" d="M572.294,-81.1804C589.625,-93.6364 609.702,-108.067 610.94,-108.957"/>
</g>
<!-- v1 -->
<g id="node7" class="node"><title>v1</title>
<polygon fill="none" stroke="black" points="164,-204 150,-204 150,-190 164,-190 164,-204"/>
</g>
<!-- v1_intermediate_p -->
<g id="node11" class="node"><title>v1_intermediate_p</title>
<ellipse fill="black" stroke="black" cx="223" cy="-197" rx="0.036" ry="0.036"/>
</g>
<!-- v1&#45;&gt;v1_intermediate_p -->
<g id="edge6" class="edge"><title>v1&#45;&gt;v1_intermediate_p</title>
<path fill="none" stroke="black" d="M164.063,-197C180.557,-197 220.405,-197 222.879,-197"/>
</g>
<!-- v1&#45;&gt;v1_intermediate_m -->
<g id="edge10" class="edge"><title>v1&#45;&gt;v1_intermediate_m</title>
<path fill="none" stroke="black" d="M175.134,-188.757C193.929,-180.214 220.859,-167.973 222.879,-167.055"/>
<polygon fill="none" stroke="black" points="174.988,-188.824 171.181,-194.948 164.063,-193.789 167.87,-187.665 174.988,-188.824"/>
</g>
<!-- v1_intermediate_r&#45;&gt;v1 -->
<g id="edge2" class="edge"><title>v1_intermediate_r&#45;&gt;v1</title>
<path fill="none" stroke="black" d="M91.0478,-166.022C92.6248,-166.763 132.776,-185.622 149.645,-193.545"/>
</g>
<!-- v1_intermediate_p&#45;&gt;Mp -->
<g id="edge8" class="edge"><title>v1_intermediate_p&#45;&gt;Mp</title>
<path fill="none" stroke="black" d="M223.046,-197C223.885,-197 235.971,-197 249.414,-197"/>
<polygon fill="black" stroke="black" points="249.794,-200.5 259.794,-197 249.794,-193.5 249.794,-200.5"/>
</g>
<!-- v2 -->
<g id="node17" class="node"><title>v2</title>
<polygon fill="none" stroke="black" points="424,-204 410,-204 410,-190 424,-190 424,-204"/>
</g>
<!-- v2_intermediate_p -->
<g id="node21" class="node"><title>v2_intermediate_p</title>
<ellipse fill="black" stroke="black" cx="483" cy="-185" rx="0.036" ry="0.036"/>
</g>
<!-- v2&#45;&gt;v2_intermediate_p -->
<g id="edge18" class="edge"><title>v2&#45;&gt;v2_intermediate_p</title>
<path fill="none" stroke="black" d="M424.063,-195.716C440.557,-192.717 480.405,-185.472 482.879,-185.022"/>
</g>
<!-- v2&#45;&gt;v2_intermediate_m -->
<g id="edge22" class="edge"><title>v2&#45;&gt;v2_intermediate_m</title>
<path fill="none" stroke="black" d="M435.045,-187.506C438.72,-185.444 442.524,-183.215 446,-181 462.632,-170.403 481.763,-154.999 482.943,-154.046"/>
<polygon fill="none" stroke="black" points="434.859,-187.606 431.477,-193.974 424.297,-193.301 427.68,-186.933 434.859,-187.606"/>
</g>
<!-- v2_intermediate_r&#45;&gt;v2 -->
<g id="edge14" class="edge"><title>v2_intermediate_r&#45;&gt;v2</title>
<path fill="none" stroke="black" d="M351.048,-197C352.625,-197 392.776,-197 409.645,-197"/>
</g>
<!-- v2_intermediate_p&#45;&gt;Mpp -->
<g id="edge20" class="edge"><title>v2_intermediate_p&#45;&gt;Mpp</title>
<path fill="none" stroke="black" d="M483.046,-184.989C483.893,-184.791 496.209,-181.904 509.809,-178.717"/>
<polygon fill="black" stroke="black" points="510.857,-182.066 519.794,-176.376 509.26,-175.251 510.857,-182.066"/>
</g>
<!-- v3 -->
<g id="node28" class="node"><title>v3</title>
<polygon fill="none" stroke="black" points="662,-177 648,-177 648,-163 662,-163 662,-177"/>
</g>
<!-- v3_intermediate_p -->
<g id="node32" class="node"><title>v3_intermediate_p</title>
<ellipse fill="black" stroke="black" cx="698" cy="-201" rx="0.036" ry="0.036"/>
</g>
<!-- v3&#45;&gt;v3_intermediate_p -->
<g id="edge32" class="edge"><title>v3&#45;&gt;v3_intermediate_p</title>
<path fill="none" stroke="black" d="M662.101,-175.119C673.932,-183.649 696.531,-199.941 697.932,-200.951"/>
</g>
<!-- v3&#45;&gt;v3_intermediate_m -->
<g id="edge36" class="edge"><title>v3&#45;&gt;v3_intermediate_m</title>
<path fill="none" stroke="black" d="M662.374,-151.65C674.444,-121.617 697.168,-65.0696 697.978,-63.0553"/>
<polygon fill="none" stroke="black" points="662.296,-151.845 663.77,-158.904 657.821,-162.979 656.347,-155.921 662.296,-151.845"/>
</g>
<!-- v3_intermediate_r&#45;&gt;v3 -->
<g id="edge28" class="edge"><title>v3_intermediate_r&#45;&gt;v3</title>
<path fill="none" stroke="black" d="M611.126,-170C613.022,-170 635.795,-170 647.759,-170"/>
</g>
<!-- v3_intermediate_p&#45;&gt;Mp -->
<g id="edge34" class="edge"><title>v3_intermediate_p&#45;&gt;Mp</title>
<path fill="none" stroke="black" d="M697.867,-201.089C695.133,-202.907 650.765,-232 611,-232 417,-232 417,-232 417,-232 384.811,-232 349.632,-221.871 323.996,-212.511"/>
<polygon fill="black" stroke="black" points="324.913,-209.115 314.321,-208.849 322.435,-215.662 324.913,-209.115"/>
</g>
<!-- v4 -->
<g id="node39" class="node"><title>v4</title>
<polygon fill="none" stroke="black" points="424,-80 410,-80 410,-66 424,-66 424,-80"/>
</g>
<!-- v4_intermediate_p -->
<g id="node43" class="node"><title>v4_intermediate_p</title>
<ellipse fill="black" stroke="black" cx="483" cy="-55" rx="0.036" ry="0.036"/>
</g>
<!-- v4&#45;&gt;v4_intermediate_p -->
<g id="edge46" class="edge"><title>v4&#45;&gt;v4_intermediate_p</title>
<path fill="none" stroke="black" d="M424.063,-71.0737C440.557,-66.5753 480.405,-55.7078 482.879,-55.0329"/>
</g>
<!-- v4&#45;&gt;v4_intermediate_m -->
<g id="edge50" class="edge"><title>v4&#45;&gt;v4_intermediate_m</title>
<path fill="none" stroke="black" d="M436.302,-76.5818C484.524,-85.5303 606.716,-108.205 610.89,-108.98"/>
<polygon fill="none" stroke="black" points="436.167,-76.5568 429.538,-79.3949 424.368,-74.3673 430.997,-71.5292 436.167,-76.5568"/>
</g>
<!-- v4_intermediate_r&#45;&gt;v4 -->
<g id="edge42" class="edge"><title>v4_intermediate_r&#45;&gt;v4</title>
<path fill="none" stroke="black" d="M351.048,-157.938C352.687,-155.827 396.017,-100.023 411.536,-80.0373"/>
</g>
<!-- v4_intermediate_p&#45;&gt;M -->
<g id="edge48" class="edge"><title>v4_intermediate_p&#45;&gt;M</title>
<path fill="none" stroke="black" d="M482.947,-54.9877C480.727,-54.4729 409.227,-38 351,-38 157,-38 157,-38 157,-38 124.811,-38 89.6322,-48.1292 63.9963,-57.4893"/>
<polygon fill="black" stroke="black" points="62.435,-54.3378 54.3211,-61.1506 64.9126,-60.8847 62.435,-54.3378"/>
</g>
</g>
</svg>
