<?xml version="1.0" encoding="UTF-8" standalone="no"?>
<!DOCTYPE svg PUBLIC "-//W3C//DTD SVG 1.1//EN"
 "http://www.w3.org/Graphics/SVG/1.1/DTD/svg11.dtd">
<!-- Generated by graphviz version 2.30.1 (20140821.0912)
 -->
<!-- Title: G Pages: 1 -->
<svg width="1242pt" height="550pt"
 viewBox="0.00 0.00 1242.00 550.00" xmlns="http://www.w3.org/2000/svg" xmlns:xlink="http://www.w3.org/1999/xlink">
<g id="graph0" class="graph" transform="scale(1 1) rotate(0) translate(4 546)">
<title>G</title>
<polygon fill="white" stroke="white" points="-4,5 -4,-546 1239,-546 1239,5 -4,5"/>
<!-- R1 -->
<g id="R1 [CHEBI:33699]" class="node"><title>R1</title>
<ellipse fill="none" stroke="black" cx="248" cy="-524" rx="18" ry="18"/>
<text text-anchor="middle" x="248" y="-521.5" font-family="Times,serif" font-size="10.00">R1</text>
</g>
<!-- React2_intermediate_r -->
<g id="node13" class="node"><title>React2_intermediate_r</title>
<ellipse fill="black" stroke="black" cx="329" cy="-524" rx="0.036" ry="0.036"/>
</g>
<!-- R1&#45;&gt;React2_intermediate_r -->
<g id="edge5" class="edge"><title>R1&#45;&gt;React2_intermediate_r</title>
<path fill="none" stroke="black" d="M266.142,-524C288.65,-524 325.601,-524 327.888,-524"/>
</g>
<!-- React3_intermediate_m -->
<g id="node18" class="node"><title>React3_intermediate_m</title>
<ellipse fill="black" stroke="black" cx="329" cy="-502" rx="0.036" ry="0.036"/>
</g>
<!-- R1&#45;&gt;React3_intermediate_m -->
<g id="edge11" class="edge"><title>R1&#45;&gt;React3_intermediate_m</title>
<path fill="none" stroke="black" d="M265.754,-519.334C288.219,-513.078 325.574,-502.675 327.887,-502.031"/>
</g>
<!-- P1 -->
<g id="P1 [CHEBI:36080]" class="node"><title>P1</title>
<ellipse fill="none" stroke="black" cx="410" cy="-481" rx="18" ry="18"/>
<text text-anchor="middle" x="410" y="-478.5" font-family="Times,serif" font-size="10.00">P1</text>
</g>
<!-- React4_intermediate_r -->
<g id="node20" class="node"><title>React4_intermediate_r</title>
<ellipse fill="black" stroke="black" cx="491" cy="-481" rx="0.036" ry="0.036"/>
</g>
<!-- P1&#45;&gt;React4_intermediate_r -->
<g id="edge13" class="edge"><title>P1&#45;&gt;React4_intermediate_r</title>
<path fill="none" stroke="black" d="M428.142,-481C450.65,-481 487.601,-481 489.888,-481"/>
</g>
<!-- React5_intermediate_m -->
<g id="node25" class="node"><title>React5_intermediate_m</title>
<ellipse fill="black" stroke="black" cx="491" cy="-460" rx="0.036" ry="0.036"/>
</g>
<!-- P1&#45;&gt;React5_intermediate_m -->
<g id="edge19" class="edge"><title>P1&#45;&gt;React5_intermediate_m</title>
<path fill="none" stroke="black" d="M427.754,-476.546C450.219,-470.575 487.574,-460.645 489.887,-460.03"/>
</g>
<!-- P1_prime -->
<g id="P1_prime [CHEBI:36080]" class="node"><title>P1_prime</title>
<ellipse fill="none" stroke="black" cx="587" cy="-364" rx="32.9303" ry="18"/>
<text text-anchor="middle" x="587" y="-361.5" font-family="Times,serif" font-size="10.00">P1_prime</text>
</g>
<!-- React8_intermediate_r -->
<g id="node35" class="node"><title>React8_intermediate_r</title>
<ellipse fill="black" stroke="black" cx="683" cy="-364" rx="0.036" ry="0.036"/>
</g>
<!-- P1_prime&#45;&gt;React8_intermediate_r -->
<g id="edge31" class="edge"><title>P1_prime&#45;&gt;React8_intermediate_r</title>
<path fill="none" stroke="black" d="M620.087,-364C646.467,-364 679.84,-364 681.9,-364"/>
</g>
<!-- React14_intermediate_m -->
<g id="node57" class="node"><title>React14_intermediate_m</title>
<ellipse fill="black" stroke="black" cx="683" cy="-336" rx="0.036" ry="0.036"/>
</g>
<!-- P1_prime&#45;&gt;React14_intermediate_m -->
<g id="edge56" class="edge"><title>P1_prime&#45;&gt;React14_intermediate_m</title>
<path fill="none" stroke="black" d="M616.203,-355.599C643.026,-347.609 679.628,-336.706 681.89,-336.033"/>
</g>
<!-- React19_intermediate_m -->
<g id="node75" class="node"><title>React19_intermediate_m</title>
<ellipse fill="black" stroke="black" cx="683" cy="-256" rx="0.036" ry="0.036"/>
</g>
<!-- P1_prime&#45;&gt;React19_intermediate_m -->
<g id="edge77" class="edge"><title>P1_prime&#45;&gt;React19_intermediate_m</title>
<path fill="none" stroke="black" d="M607.478,-349.742C611.93,-345.92 616.404,-341.57 620,-337 642.127,-308.886 629.107,-288.596 656,-265 664.904,-257.187 680.957,-256.065 681.952,-256.003"/>
</g>
<!-- R2 -->
<g id="R2 [CHEBI:33699]" class="node"><title>R2</title>
<ellipse fill="none" stroke="black" cx="410" cy="-65" rx="18" ry="18"/>
<text text-anchor="middle" x="410" y="-62.5" font-family="Times,serif" font-size="10.00">R2</text>
</g>
<!-- React10_intermediate_r -->
<g id="node41" class="node"><title>React10_intermediate_r</title>
<ellipse fill="black" stroke="black" cx="491" cy="-20" rx="0.036" ry="0.036"/>
</g>
<!-- R2&#45;&gt;React10_intermediate_r -->
<g id="edge37" class="edge"><title>R2&#45;&gt;React10_intermediate_r</title>
<path fill="none" stroke="black" d="M426.232,-56.3235C448.471,-43.6557 487.467,-21.443 489.882,-20.0671"/>
</g>
<!-- React11_intermediate_m -->
<g id="node46" class="node"><title>React11_intermediate_m</title>
<ellipse fill="black" stroke="black" cx="491" cy="-101" rx="0.036" ry="0.036"/>
</g>
<!-- R2&#45;&gt;React11_intermediate_m -->
<g id="edge43" class="edge"><title>R2&#45;&gt;React11_intermediate_m</title>
<path fill="none" stroke="black" d="M426.608,-72.1124C448.911,-82.2761 487.494,-99.858 489.883,-100.947"/>
</g>
<!-- P2 -->
<g id="P2 [CHEBI:36080]" class="node"><title>P2</title>
<ellipse fill="none" stroke="black" cx="587" cy="-182" rx="18" ry="18"/>
<text text-anchor="middle" x="587" y="-179.5" font-family="Times,serif" font-size="10.00">P2</text>
</g>
<!-- React12_intermediate_r -->
<g id="node48" class="node"><title>React12_intermediate_r</title>
<ellipse fill="black" stroke="black" cx="683" cy="-182" rx="0.036" ry="0.036"/>
</g>
<!-- P2&#45;&gt;React12_intermediate_r -->
<g id="edge45" class="edge"><title>P2&#45;&gt;React12_intermediate_r</title>
<path fill="none" stroke="black" d="M605.241,-182C631.53,-182 678.921,-182 681.857,-182"/>
</g>
<!-- React13_intermediate_m -->
<g id="node53" class="node"><title>React13_intermediate_m</title>
<ellipse fill="black" stroke="black" cx="683" cy="-200" rx="0.036" ry="0.036"/>
</g>
<!-- P2&#45;&gt;React13_intermediate_m -->
<g id="edge51" class="edge"><title>P2&#45;&gt;React13_intermediate_m</title>
<path fill="none" stroke="black" d="M604.805,-185.218C630.998,-190.234 678.888,-199.404 681.855,-199.972"/>
</g>
<!-- P2_prime -->
<g id="P2_prime [CHEBI:36080]" class="node"><title>P2_prime</title>
<ellipse fill="none" stroke="black" cx="779" cy="-274" rx="32.9303" ry="18"/>
<text text-anchor="middle" x="779" y="-271.5" font-family="Times,serif" font-size="10.00">P2_prime</text>
</g>
<!-- React6_intermediate_m -->
<g id="node29" class="node"><title>React6_intermediate_m</title>
<ellipse fill="black" stroke="black" cx="875" cy="-405" rx="0.036" ry="0.036"/>
</g>
<!-- P2_prime&#45;&gt;React6_intermediate_m -->
<g id="edge24" class="edge"><title>P2_prime&#45;&gt;React6_intermediate_m</title>
<path fill="none" stroke="black" d="M786.723,-291.866C796.814,-316.711 817.952,-361.914 848,-391 857.135,-399.843 872.971,-404.691 873.952,-404.986"/>
</g>
<!-- React15_intermediate_r -->
<g id="node59" class="node"><title>React15_intermediate_r</title>
<ellipse fill="black" stroke="black" cx="875" cy="-274" rx="0.036" ry="0.036"/>
</g>
<!-- P2_prime&#45;&gt;React15_intermediate_r -->
<g id="edge58" class="edge"><title>P2_prime&#45;&gt;React15_intermediate_r</title>
<path fill="none" stroke="black" d="M812.087,-274C838.467,-274 871.84,-274 873.9,-274"/>
</g>
<!-- React16_intermediate_m -->
<g id="node64" class="node"><title>React16_intermediate_m</title>
<ellipse fill="black" stroke="black" cx="875" cy="-200" rx="0.036" ry="0.036"/>
</g>
<!-- P2_prime&#45;&gt;React16_intermediate_m -->
<g id="edge64" class="edge"><title>P2_prime&#45;&gt;React16_intermediate_m</title>
<path fill="none" stroke="black" d="M798.571,-259.38C825.11,-238.488 871.018,-202.348 873.861,-200.109"/>
</g>
<!-- P3_prime -->
<g id="P3_prime [CHEBI:36080]" class="node"><title>P3_prime</title>
<ellipse fill="none" stroke="black" cx="971" cy="-155" rx="32.9303" ry="18"/>
<text text-anchor="middle" x="971" y="-152.5" font-family="Times,serif" font-size="10.00">P3_prime</text>
</g>
<!-- React7_intermediate_m -->
<g id="node33" class="node"><title>React7_intermediate_m</title>
<ellipse fill="black" stroke="black" cx="1067" cy="-201" rx="0.036" ry="0.036"/>
</g>
<!-- P3_prime&#45;&gt;React7_intermediate_m -->
<g id="edge29" class="edge"><title>P3_prime&#45;&gt;React7_intermediate_m</title>
<path fill="none" stroke="black" d="M996.207,-166.846C1023.19,-180.05 1063.39,-199.724 1065.88,-200.941"/>
</g>
<!-- React17_intermediate_r -->
<g id="node66" class="node"><title>React17_intermediate_r</title>
<ellipse fill="black" stroke="black" cx="1067" cy="-155" rx="0.036" ry="0.036"/>
</g>
<!-- P3_prime&#45;&gt;React17_intermediate_r -->
<g id="edge66" class="edge"><title>P3_prime&#45;&gt;React17_intermediate_r</title>
<path fill="none" stroke="black" d="M1004.09,-155C1030.47,-155 1063.84,-155 1065.9,-155"/>
</g>
<!-- P4_prime -->
<g id="P4_prime [CHEBI:36080]" class="node"><title>P4_prime</title>
<ellipse fill="none" stroke="black" cx="779" cy="-36" rx="32.9303" ry="18"/>
<text text-anchor="middle" x="779" y="-33.5" font-family="Times,serif" font-size="10.00">P4_prime</text>
</g>
<!-- React18_intermediate_m -->
<g id="node71" class="node"><title>React18_intermediate_m</title>
<ellipse fill="black" stroke="black" cx="875" cy="-68" rx="0.036" ry="0.036"/>
</g>
<!-- P4_prime&#45;&gt;React18_intermediate_m -->
<g id="edge72" class="edge"><title>P4_prime&#45;&gt;React18_intermediate_m</title>
<path fill="none" stroke="black" d="M807.441,-45.3417C834.32,-54.4918 871.585,-67.1779 873.888,-67.9618"/>
</g>
<!-- React20_intermediate_r -->
<g id="node77" class="node"><title>React20_intermediate_r</title>
<ellipse fill="black" stroke="black" cx="875" cy="-36" rx="0.036" ry="0.036"/>
</g>
<!-- P4_prime&#45;&gt;React20_intermediate_r -->
<g id="edge79" class="edge"><title>P4_prime&#45;&gt;React20_intermediate_r</title>
<path fill="none" stroke="black" d="M812.087,-36C838.467,-36 871.84,-36 873.9,-36"/>
</g>
<!-- React1 -->
<g id="node9" class="node"><title>React1</title>
<polygon fill="none" stroke="black" points="104,-531 90,-531 90,-517 104,-517 104,-531"/>
</g>
<!-- React1_intermediate_p -->
<g id="node11" class="node"><title>React1_intermediate_p</title>
<ellipse fill="black" stroke="black" cx="167" cy="-524" rx="0.036" ry="0.036"/>
</g>
<!-- React1&#45;&gt;React1_intermediate_p -->
<g id="edge2" class="edge"><title>React1&#45;&gt;React1_intermediate_p</title>
<path fill="none" stroke="black" d="M104.275,-524C120.583,-524 163.222,-524 165.871,-524"/>
</g>
<!-- React1_empty -->
<g id="node10" class="node"><title>React1_empty</title>
<text text-anchor="middle" x="27" y="-520.5" font-family="Times,serif" font-size="15.00" fill="blue">Ø</text>
</g>
<!-- React1_empty&#45;&gt;React1 -->
<g id="edge1" class="edge"><title>React1_empty&#45;&gt;React1</title>
<path fill="none" stroke="black" d="M54.0961,-524C67.13,-524 81.8045,-524 89.8681,-524"/>
</g>
<!-- React1_intermediate_p&#45;&gt;R1 -->
<g id="edge3" class="edge"><title>React1_intermediate_p&#45;&gt;R1</title>
<path fill="none" stroke="black" d="M168.057,-524C169.493,-524 197.648,-524 219.929,-524"/>
<polygon fill="black" stroke="black" points="219.943,-527.5 229.943,-524 219.943,-520.5 219.943,-527.5"/>
</g>
<!-- React2 -->
<g id="node12" class="node"><title>React2</title>
<polygon fill="none" stroke="black" points="417,-531 403,-531 403,-517 417,-517 417,-531"/>
</g>
<!-- React2_empty -->
<g id="node14" class="node"><title>React2_empty</title>
<text text-anchor="middle" x="491" y="-520.5" font-family="Times,serif" font-size="15.00" fill="blue">Ø</text>
</g>
<!-- React2&#45;&gt;React2_empty -->
<g id="edge6" class="edge"><title>React2&#45;&gt;React2_empty</title>
<path fill="none" stroke="black" d="M417.199,-524C425.219,-524 439.832,-524 453.873,-524"/>
<polygon fill="black" stroke="black" points="453.893,-527.5 463.893,-524 453.893,-520.5 453.893,-527.5"/>
</g>
<!-- React2_intermediate_r&#45;&gt;React2 -->
<g id="edge4" class="edge"><title>React2_intermediate_r&#45;&gt;React2</title>
<path fill="none" stroke="black" d="M330.057,-524C332.038,-524 384.876,-524 402.981,-524"/>
</g>
<!-- React3 -->
<g id="node15" class="node"><title>React3</title>
<polygon fill="none" stroke="black" points="255,-488 241,-488 241,-474 255,-474 255,-488"/>
</g>
<!-- React3_intermediate_p -->
<g id="node17" class="node"><title>React3_intermediate_p</title>
<ellipse fill="black" stroke="black" cx="329" cy="-481" rx="0.036" ry="0.036"/>
</g>
<!-- React3&#45;&gt;React3_intermediate_p -->
<g id="edge8" class="edge"><title>React3&#45;&gt;React3_intermediate_p</title>
<path fill="none" stroke="black" d="M255.199,-481C273.241,-481 324.649,-481 327.844,-481"/>
</g>
<!-- React3&#45;&gt;React3_intermediate_m -->
<g id="edge10" class="edge"><title>React3&#45;&gt;React3_intermediate_m</title>
<path fill="none" stroke="black" d="M255.199,-482.648C273.241,-487.444 324.649,-501.109 327.844,-501.959"/>
</g>
<!-- React3_empty -->
<g id="node16" class="node"><title>React3_empty</title>
<text text-anchor="middle" x="167" y="-477.5" font-family="Times,serif" font-size="15.00" fill="blue">Ø</text>
</g>
<!-- React3_empty&#45;&gt;React3 -->
<g id="edge7" class="edge"><title>React3_empty&#45;&gt;React3</title>
<path fill="none" stroke="black" d="M194.306,-481C210.824,-481 230.819,-481 240.76,-481"/>
</g>
<!-- React3_intermediate_p&#45;&gt;P1 -->
<g id="edge9" class="edge"><title>React3_intermediate_p&#45;&gt;P1</title>
<path fill="none" stroke="black" d="M330.057,-481C331.493,-481 359.648,-481 381.929,-481"/>
<polygon fill="black" stroke="black" points="381.943,-484.5 391.943,-481 381.943,-477.5 381.943,-484.5"/>
</g>
<!-- React4 -->
<g id="node19" class="node"><title>React4</title>
<polygon fill="none" stroke="black" points="594,-488 580,-488 580,-474 594,-474 594,-488"/>
</g>
<!-- React4_empty -->
<g id="node21" class="node"><title>React4_empty</title>
<text text-anchor="middle" x="683" y="-477.5" font-family="Times,serif" font-size="15.00" fill="blue">Ø</text>
</g>
<!-- React4&#45;&gt;React4_empty -->
<g id="edge14" class="edge"><title>React4&#45;&gt;React4_empty</title>
<path fill="none" stroke="black" d="M594.168,-481C604.554,-481 626.29,-481 645.54,-481"/>
<polygon fill="black" stroke="black" points="645.597,-484.5 655.597,-481 645.597,-477.5 645.597,-484.5"/>
</g>
<!-- React4_intermediate_r&#45;&gt;React4 -->
<g id="edge12" class="edge"><title>React4_intermediate_r&#45;&gt;React4</title>
<path fill="none" stroke="black" d="M492.068,-481C494.459,-481 559.088,-481 579.728,-481"/>
</g>
<!-- React5 -->
<g id="node22" class="node"><title>React5</title>
<polygon fill="none" stroke="black" points="417,-445 403,-445 403,-431 417,-431 417,-445"/>
</g>
<!-- React5_intermediate_p -->
<g id="node24" class="node"><title>React5_intermediate_p</title>
<ellipse fill="black" stroke="black" cx="491" cy="-438" rx="0.036" ry="0.036"/>
</g>
<!-- React5&#45;&gt;React5_intermediate_p -->
<g id="edge16" class="edge"><title>React5&#45;&gt;React5_intermediate_p</title>
<path fill="none" stroke="black" d="M417.199,-438C435.241,-438 486.649,-438 489.844,-438"/>
</g>
<!-- React5&#45;&gt;React5_intermediate_m -->
<g id="edge18" class="edge"><title>React5&#45;&gt;React5_intermediate_m</title>
<path fill="none" stroke="black" d="M417.199,-439.726C435.241,-444.751 486.649,-459.067 489.844,-459.957"/>
</g>
<!-- React5_empty -->
<g id="node23" class="node"><title>React5_empty</title>
<text text-anchor="middle" x="329" y="-434.5" font-family="Times,serif" font-size="15.00" fill="blue">Ø</text>
</g>
<!-- React5_empty&#45;&gt;React5 -->
<g id="edge15" class="edge"><title>React5_empty&#45;&gt;React5</title>
<path fill="none" stroke="black" d="M356.306,-438C372.824,-438 392.819,-438 402.76,-438"/>
</g>
<!-- React5_intermediate_p&#45;&gt;P1_prime -->
<g id="edge17" class="edge"><title>React5_intermediate_p&#45;&gt;P1_prime</title>
<path fill="none" stroke="black" d="M492.068,-437.946C493.902,-436.503 532.364,-406.224 559.496,-384.865"/>
<polygon fill="black" stroke="black" points="561.806,-387.501 567.499,-378.565 557.476,-382 561.806,-387.501"/>
</g>
<!-- React6 -->
<g id="node26" class="node"><title>React6</title>
<polygon fill="none" stroke="black" points="417,-390 403,-390 403,-376 417,-376 417,-390"/>
</g>
<!-- React6_intermediate_p -->
<g id="node28" class="node"><title>React6_intermediate_p</title>
<ellipse fill="black" stroke="black" cx="491" cy="-382" rx="0.036" ry="0.036"/>
</g>
<!-- React6&#45;&gt;React6_intermediate_p -->
<g id="edge21" class="edge"><title>React6&#45;&gt;React6_intermediate_p</title>
<path fill="none" stroke="black" d="M417.199,-382.922C435.241,-382.693 486.649,-382.042 489.844,-382.002"/>
</g>
<!-- React6&#45;&gt;React6_intermediate_m -->
<g id="edge23" class="edge"><title>React6&#45;&gt;React6_intermediate_m</title>
<path fill="none" stroke="black" d="M417.302,-384.689C439.933,-390.6 519.291,-410 586,-410 586,-410 586,-410 684,-410 767.154,-410 870.707,-405.155 873.923,-405.004"/>
</g>
<!-- React6_empty -->
<g id="node27" class="node"><title>React6_empty</title>
<text text-anchor="middle" x="329" y="-379.5" font-family="Times,serif" font-size="15.00" fill="blue">Ø</text>
</g>
<!-- React6_empty&#45;&gt;React6 -->
<g id="edge20" class="edge"><title>React6_empty&#45;&gt;React6</title>
<path fill="none" stroke="black" d="M356.306,-383C372.824,-383 392.819,-383 402.76,-383"/>
</g>
<!-- React6_intermediate_p&#45;&gt;P1_prime -->
<g id="edge22" class="edge"><title>React6_intermediate_p&#45;&gt;P1_prime</title>
<path fill="none" stroke="black" d="M492.068,-381.987C493.607,-381.692 520.947,-376.457 545.735,-371.71"/>
<polygon fill="black" stroke="black" points="546.597,-375.109 555.761,-369.791 545.281,-368.234 546.597,-375.109"/>
</g>
<!-- React7 -->
<g id="node30" class="node"><title>React7</title>
<polygon fill="none" stroke="black" points="417,-290 403,-290 403,-276 417,-276 417,-290"/>
</g>
<!-- React7_intermediate_p -->
<g id="node32" class="node"><title>React7_intermediate_p</title>
<ellipse fill="black" stroke="black" cx="491" cy="-364" rx="0.036" ry="0.036"/>
</g>
<!-- React7&#45;&gt;React7_intermediate_p -->
<g id="edge26" class="edge"><title>React7&#45;&gt;React7_intermediate_p</title>
<path fill="none" stroke="black" d="M414.333,-290.038C421.45,-304.339 439.503,-336.961 464,-355 473.539,-362.024 488.997,-363.885 489.953,-363.995"/>
</g>
<!-- React7&#45;&gt;React7_intermediate_m -->
<g id="edge28" class="edge"><title>React7&#45;&gt;React7_intermediate_m</title>
<path fill="none" stroke="black" d="M417.004,-277.576C426.324,-269.489 445.167,-254.426 464,-247 515.051,-226.871 531.124,-228 586,-228 586,-228 586,-228 876,-228 959.96,-228 1062.73,-201.837 1065.92,-201.02"/>
</g>
<!-- React7_empty -->
<g id="node31" class="node"><title>React7_empty</title>
<text text-anchor="middle" x="329" y="-279.5" font-family="Times,serif" font-size="15.00" fill="blue">Ø</text>
</g>
<!-- React7_empty&#45;&gt;React7 -->
<g id="edge25" class="edge"><title>React7_empty&#45;&gt;React7</title>
<path fill="none" stroke="black" d="M356.306,-283C372.824,-283 392.819,-283 402.76,-283"/>
</g>
<!-- React7_intermediate_p&#45;&gt;P1_prime -->
<g id="edge27" class="edge"><title>React7_intermediate_p&#45;&gt;P1_prime</title>
<path fill="none" stroke="black" d="M492.068,-364C493.566,-364 519.512,-364 543.754,-364"/>
<polygon fill="black" stroke="black" points="543.963,-367.5 553.963,-364 543.963,-360.5 543.963,-367.5"/>
</g>
<!-- React8 -->
<g id="node34" class="node"><title>React8</title>
<polygon fill="none" stroke="black" points="786,-371 772,-371 772,-357 786,-357 786,-371"/>
</g>
<!-- React8_empty -->
<g id="node36" class="node"><title>React8_empty</title>
<text text-anchor="middle" x="875" y="-360.5" font-family="Times,serif" font-size="15.00" fill="blue">Ø</text>
</g>
<!-- React8&#45;&gt;React8_empty -->
<g id="edge32" class="edge"><title>React8&#45;&gt;React8_empty</title>
<path fill="none" stroke="black" d="M786.168,-364C796.554,-364 818.29,-364 837.54,-364"/>
<polygon fill="black" stroke="black" points="837.597,-367.5 847.597,-364 837.597,-360.5 837.597,-367.5"/>
</g>
<!-- React8_intermediate_r&#45;&gt;React8 -->
<g id="edge30" class="edge"><title>React8_intermediate_r&#45;&gt;React8</title>
<path fill="none" stroke="black" d="M684.068,-364C686.459,-364 751.088,-364 771.728,-364"/>
</g>
<!-- React9 -->
<g id="node37" class="node"><title>React9</title>
<polygon fill="none" stroke="black" points="255,-72 241,-72 241,-58 255,-58 255,-72"/>
</g>
<!-- React9_intermediate_p -->
<g id="node39" class="node"><title>React9_intermediate_p</title>
<ellipse fill="black" stroke="black" cx="329" cy="-65" rx="0.036" ry="0.036"/>
</g>
<!-- React9&#45;&gt;React9_intermediate_p -->
<g id="edge34" class="edge"><title>React9&#45;&gt;React9_intermediate_p</title>
<path fill="none" stroke="black" d="M255.199,-65C273.241,-65 324.649,-65 327.844,-65"/>
</g>
<!-- React9_empty -->
<g id="node38" class="node"><title>React9_empty</title>
<text text-anchor="middle" x="167" y="-61.5" font-family="Times,serif" font-size="15.00" fill="blue">Ø</text>
</g>
<!-- React9_empty&#45;&gt;React9 -->
<g id="edge33" class="edge"><title>React9_empty&#45;&gt;React9</title>
<path fill="none" stroke="black" d="M194.306,-65C210.824,-65 230.819,-65 240.76,-65"/>
</g>
<!-- React9_intermediate_p&#45;&gt;R2 -->
<g id="edge35" class="edge"><title>React9_intermediate_p&#45;&gt;R2</title>
<path fill="none" stroke="black" d="M330.057,-65C331.493,-65 359.648,-65 381.929,-65"/>
<polygon fill="black" stroke="black" points="381.943,-68.5001 391.943,-65 381.943,-61.5001 381.943,-68.5001"/>
</g>
<!-- React10 -->
<g id="node40" class="node"><title>React10</title>
<polygon fill="none" stroke="black" points="594,-26 580,-26 580,-12 594,-12 594,-26"/>
</g>
<!-- React10_empty -->
<g id="node42" class="node"><title>React10_empty</title>
<text text-anchor="middle" x="683" y="-14.5" font-family="Times,serif" font-size="15.00" fill="blue">Ø</text>
</g>
<!-- React10&#45;&gt;React10_empty -->
<g id="edge38" class="edge"><title>React10&#45;&gt;React10_empty</title>
<path fill="none" stroke="black" d="M594.168,-18.9344C604.554,-18.8239 626.29,-18.5927 645.54,-18.3879"/>
<polygon fill="black" stroke="black" points="645.635,-21.8872 655.597,-18.2809 645.56,-14.8876 645.635,-21.8872"/>
</g>
<!-- React10_intermediate_r&#45;&gt;React10 -->
<g id="edge36" class="edge"><title>React10_intermediate_r&#45;&gt;React10</title>
<path fill="none" stroke="black" d="M492.068,-19.9993C494.459,-19.9738 559.088,-19.2863 579.728,-19.0667"/>
</g>
<!-- React11 -->
<g id="node43" class="node"><title>React11</title>
<polygon fill="none" stroke="black" points="417,-150 403,-150 403,-136 417,-136 417,-150"/>
</g>
<!-- React11_intermediate_p -->
<g id="node45" class="node"><title>React11_intermediate_p</title>
<ellipse fill="black" stroke="black" cx="491" cy="-179" rx="0.036" ry="0.036"/>
</g>
<!-- React11&#45;&gt;React11_intermediate_p -->
<g id="edge40" class="edge"><title>React11&#45;&gt;React11_intermediate_p</title>
<path fill="none" stroke="black" d="M417.199,-145.825C435.241,-154.046 486.649,-177.473 489.844,-178.929"/>
</g>
<!-- React11&#45;&gt;React11_intermediate_m -->
<g id="edge42" class="edge"><title>React11&#45;&gt;React11_intermediate_m</title>
<path fill="none" stroke="black" d="M417.058,-139.109C426.757,-132.96 446.466,-120.791 464,-112 474.515,-106.728 488.166,-101.673 489.831,-101.062"/>
</g>
<!-- React11_empty -->
<g id="node44" class="node"><title>React11_empty</title>
<text text-anchor="middle" x="329" y="-139.5" font-family="Times,serif" font-size="15.00" fill="blue">Ø</text>
</g>
<!-- React11_empty&#45;&gt;React11 -->
<g id="edge39" class="edge"><title>React11_empty&#45;&gt;React11</title>
<path fill="none" stroke="black" d="M356.306,-143C372.824,-143 392.819,-143 402.76,-143"/>
</g>
<!-- React11_intermediate_p&#45;&gt;P2 -->
<g id="edge41" class="edge"><title>React11_intermediate_p&#45;&gt;P2</title>
<path fill="none" stroke="black" d="M492.068,-179.002C493.884,-179.06 531.614,-180.264 558.694,-181.129"/>
<polygon fill="black" stroke="black" points="558.7,-184.63 568.807,-181.451 558.924,-177.634 558.7,-184.63"/>
</g>
<!-- React12 -->
<g id="node47" class="node"><title>React12</title>
<polygon fill="none" stroke="black" points="786,-180 772,-180 772,-166 786,-166 786,-180"/>
</g>
<!-- React12_empty -->
<g id="node49" class="node"><title>React12_empty</title>
<text text-anchor="middle" x="875" y="-160.5" font-family="Times,serif" font-size="15.00" fill="blue">Ø</text>
</g>
<!-- React12&#45;&gt;React12_empty -->
<g id="edge46" class="edge"><title>React12&#45;&gt;React12_empty</title>
<path fill="none" stroke="black" d="M786.168,-172.409C796.554,-171.415 818.29,-169.334 837.54,-167.491"/>
<polygon fill="black" stroke="black" points="837.976,-170.965 847.597,-166.528 837.309,-163.997 837.976,-170.965"/>
</g>
<!-- React12_intermediate_r&#45;&gt;React12 -->
<g id="edge44" class="edge"><title>React12_intermediate_r&#45;&gt;React12</title>
<path fill="none" stroke="black" d="M684.068,-181.993C686.459,-181.765 751.088,-175.577 771.728,-173.601"/>
</g>
<!-- React13 -->
<g id="node50" class="node"><title>React13</title>
<polygon fill="none" stroke="black" points="594,-281 580,-281 580,-267 594,-267 594,-281"/>
</g>
<!-- React13_intermediate_p -->
<g id="node52" class="node"><title>React13_intermediate_p</title>
<ellipse fill="black" stroke="black" cx="683" cy="-274" rx="0.036" ry="0.036"/>
</g>
<!-- React13&#45;&gt;React13_intermediate_p -->
<g id="edge48" class="edge"><title>React13&#45;&gt;React13_intermediate_p</title>
<path fill="none" stroke="black" d="M594.168,-274C614.753,-274 679.92,-274 681.951,-274"/>
</g>
<!-- React13&#45;&gt;React13_intermediate_m -->
<g id="edge50" class="edge"><title>React13&#45;&gt;React13_intermediate_m</title>
<path fill="none" stroke="black" d="M594.168,-269.145C614.753,-252.939 679.92,-201.637 681.951,-200.038"/>
</g>
<!-- React13_empty -->
<g id="node51" class="node"><title>React13_empty</title>
<text text-anchor="middle" x="491" y="-270.5" font-family="Times,serif" font-size="15.00" fill="blue">Ø</text>
</g>
<!-- React13_empty&#45;&gt;React13 -->
<g id="edge47" class="edge"><title>React13_empty&#45;&gt;React13</title>
<path fill="none" stroke="black" d="M518.184,-274C539.262,-274 567.339,-274 579.702,-274"/>
</g>
<!-- React13_intermediate_p&#45;&gt;P2_prime -->
<g id="edge49" class="edge"><title>React13_intermediate_p&#45;&gt;P2_prime</title>
<path fill="none" stroke="black" d="M684.068,-274C685.566,-274 711.512,-274 735.754,-274"/>
<polygon fill="black" stroke="black" points="735.963,-277.5 745.963,-274 735.963,-270.5 735.963,-277.5"/>
</g>
<!-- React14 -->
<g id="node54" class="node"><title>React14</title>
<polygon fill="none" stroke="black" points="594,-328 580,-328 580,-314 594,-314 594,-328"/>
</g>
<!-- React14_intermediate_p -->
<g id="node56" class="node"><title>React14_intermediate_p</title>
<ellipse fill="black" stroke="black" cx="683" cy="-307" rx="0.036" ry="0.036"/>
</g>
<!-- React14&#45;&gt;React14_intermediate_p -->
<g id="edge53" class="edge"><title>React14&#45;&gt;React14_intermediate_p</title>
<path fill="none" stroke="black" d="M594.168,-320.081C614.753,-317.015 679.92,-307.31 681.951,-307.007"/>
</g>
<!-- React14&#45;&gt;React14_intermediate_m -->
<g id="edge55" class="edge"><title>React14&#45;&gt;React14_intermediate_m</title>
<path fill="none" stroke="black" d="M594.168,-321.984C614.753,-325.269 679.92,-335.668 681.951,-335.992"/>
</g>
<!-- React14_empty -->
<g id="node55" class="node"><title>React14_empty</title>
<text text-anchor="middle" x="491" y="-324.5" font-family="Times,serif" font-size="15.00" fill="blue">Ø</text>
</g>
<!-- React14_empty&#45;&gt;React14 -->
<g id="edge52" class="edge"><title>React14_empty&#45;&gt;React14</title>
<path fill="none" stroke="black" d="M518.184,-326.05C539.262,-324.48 567.339,-322.39 579.702,-321.469"/>
</g>
<!-- React14_intermediate_p&#45;&gt;P2_prime -->
<g id="edge54" class="edge"><title>React14_intermediate_p&#45;&gt;P2_prime</title>
<path fill="none" stroke="black" d="M684.068,-306.976C685.675,-306.412 715.41,-295.973 740.998,-286.99"/>
<polygon fill="black" stroke="black" points="742.259,-290.257 750.535,-283.642 739.94,-283.652 742.259,-290.257"/>
</g>
<!-- React15 -->
<g id="node58" class="node"><title>React15</title>
<polygon fill="none" stroke="black" points="978,-281 964,-281 964,-267 978,-267 978,-281"/>
</g>
<!-- React15_empty -->
<g id="node60" class="node"><title>React15_empty</title>
<text text-anchor="middle" x="1067" y="-270.5" font-family="Times,serif" font-size="15.00" fill="blue">Ø</text>
</g>
<!-- React15&#45;&gt;React15_empty -->
<g id="edge59" class="edge"><title>React15&#45;&gt;React15_empty</title>
<path fill="none" stroke="black" d="M978.168,-274C988.554,-274 1010.29,-274 1029.54,-274"/>
<polygon fill="black" stroke="black" points="1029.6,-277.5 1039.6,-274 1029.6,-270.5 1029.6,-277.5"/>
</g>
<!-- React15_intermediate_r&#45;&gt;React15 -->
<g id="edge57" class="edge"><title>React15_intermediate_r&#45;&gt;React15</title>
<path fill="none" stroke="black" d="M876.068,-274C878.459,-274 943.088,-274 963.728,-274"/>
</g>
<!-- React16 -->
<g id="node61" class="node"><title>React16</title>
<polygon fill="none" stroke="black" points="786,-135 772,-135 772,-121 786,-121 786,-135"/>
</g>
<!-- React16_intermediate_p -->
<g id="node63" class="node"><title>React16_intermediate_p</title>
<ellipse fill="black" stroke="black" cx="875" cy="-128" rx="0.036" ry="0.036"/>
</g>
<!-- React16&#45;&gt;React16_intermediate_p -->
<g id="edge61" class="edge"><title>React16&#45;&gt;React16_intermediate_p</title>
<path fill="none" stroke="black" d="M786.168,-128C806.753,-128 871.92,-128 873.951,-128"/>
</g>
<!-- React16&#45;&gt;React16_intermediate_m -->
<g id="edge63" class="edge"><title>React16&#45;&gt;React16_intermediate_m</title>
<path fill="none" stroke="black" d="M786.41,-133.739C792.896,-139.562 803.194,-148.853 812,-157 828.155,-171.946 829.181,-179.59 848,-191 858.13,-197.142 873.033,-199.83 873.955,-199.992"/>
</g>
<!-- React16_empty -->
<g id="node62" class="node"><title>React16_empty</title>
<text text-anchor="middle" x="683" y="-124.5" font-family="Times,serif" font-size="15.00" fill="blue">Ø</text>
</g>
<!-- React16_empty&#45;&gt;React16 -->
<g id="edge60" class="edge"><title>React16_empty&#45;&gt;React16</title>
<path fill="none" stroke="black" d="M710.184,-128C731.262,-128 759.339,-128 771.702,-128"/>
</g>
<!-- React16_intermediate_p&#45;&gt;P3_prime -->
<g id="edge62" class="edge"><title>React16_intermediate_p&#45;&gt;P3_prime</title>
<path fill="none" stroke="black" d="M876.068,-128.02C877.648,-128.473 906.429,-136.74 931.719,-144.004"/>
<polygon fill="black" stroke="black" points="930.956,-147.427 941.534,-146.824 932.889,-140.699 930.956,-147.427"/>
</g>
<!-- React17 -->
<g id="node65" class="node"><title>React17</title>
<polygon fill="none" stroke="black" points="1144,-162 1130,-162 1130,-148 1144,-148 1144,-162"/>
</g>
<!-- React17_empty -->
<g id="node67" class="node"><title>React17_empty</title>
<text text-anchor="middle" x="1207" y="-151.5" font-family="Times,serif" font-size="15.00" fill="blue">Ø</text>
</g>
<!-- React17&#45;&gt;React17_empty -->
<g id="edge67" class="edge"><title>React17&#45;&gt;React17_empty</title>
<path fill="none" stroke="black" d="M1144.28,-155C1150.28,-155 1159.85,-155 1169.68,-155"/>
<polygon fill="black" stroke="black" points="1169.88,-158.5 1179.88,-155 1169.88,-151.5 1169.88,-158.5"/>
</g>
<!-- React17_intermediate_r&#45;&gt;React17 -->
<g id="edge65" class="edge"><title>React17_intermediate_r&#45;&gt;React17</title>
<path fill="none" stroke="black" d="M1068.05,-155C1069.72,-155 1113.53,-155 1129.91,-155"/>
</g>
<!-- React18 -->
<g id="node68" class="node"><title>React18</title>
<polygon fill="none" stroke="black" points="594,-146 580,-146 580,-132 594,-132 594,-146"/>
</g>
<!-- React18_intermediate_p -->
<g id="node70" class="node"><title>React18_intermediate_p</title>
<ellipse fill="black" stroke="black" cx="683" cy="-164" rx="0.036" ry="0.036"/>
</g>
<!-- React18&#45;&gt;React18_intermediate_p -->
<g id="edge69" class="edge"><title>React18&#45;&gt;React18_intermediate_p</title>
<path fill="none" stroke="black" d="M594.168,-140.64C614.753,-146.115 679.92,-163.447 681.951,-163.987"/>
</g>
<!-- React18&#45;&gt;React18_intermediate_m -->
<g id="edge71" class="edge"><title>React18&#45;&gt;React18_intermediate_m</title>
<path fill="none" stroke="black" d="M594.019,-134.64C605.467,-126.581 631.435,-109.412 656,-101 747.259,-69.7502 870.093,-68.0466 873.909,-68.001"/>
</g>
<!-- React18_empty -->
<g id="node69" class="node"><title>React18_empty</title>
<text text-anchor="middle" x="491" y="-135.5" font-family="Times,serif" font-size="15.00" fill="blue">Ø</text>
</g>
<!-- React18_empty&#45;&gt;React18 -->
<g id="edge68" class="edge"><title>React18_empty&#45;&gt;React18</title>
<path fill="none" stroke="black" d="M518.184,-139C539.262,-139 567.339,-139 579.702,-139"/>
</g>
<!-- React18_intermediate_p&#45;&gt;P2_prime -->
<g id="edge70" class="edge"><title>React18_intermediate_p&#45;&gt;P2_prime</title>
<path fill="none" stroke="black" d="M684.047,-164.005C685.013,-164.102 700.611,-165.777 710,-173 735.508,-192.624 754.727,-224.63 766.116,-247.349"/>
<polygon fill="black" stroke="black" points="763.012,-248.971 770.512,-256.454 769.316,-245.927 763.012,-248.971"/>
</g>
<!-- React19 -->
<g id="node72" class="node"><title>React19</title>
<polygon fill="none" stroke="black" points="594,-69 580,-69 580,-55 594,-55 594,-69"/>
</g>
<!-- React19_intermediate_p -->
<g id="node74" class="node"><title>React19_intermediate_p</title>
<ellipse fill="black" stroke="black" cx="683" cy="-54" rx="0.036" ry="0.036"/>
</g>
<!-- React19&#45;&gt;React19_intermediate_p -->
<g id="edge74" class="edge"><title>React19&#45;&gt;React19_intermediate_p</title>
<path fill="none" stroke="black" d="M594.168,-61.4751C614.753,-59.7231 679.92,-54.177 681.951,-54.0041"/>
</g>
<!-- React19&#45;&gt;React19_intermediate_m -->
<g id="edge76" class="edge"><title>React19&#45;&gt;React19_intermediate_m</title>
<path fill="none" stroke="black" d="M591.947,-69.0365C598.199,-80.2875 610.632,-103.089 620,-123 637.641,-160.493 637.944,-171.705 656,-209 666.077,-229.815 681.03,-254.409 681.955,-255.926"/>
</g>
<!-- React19_empty -->
<g id="node73" class="node"><title>React19_empty</title>
<text text-anchor="middle" x="491" y="-58.5" font-family="Times,serif" font-size="15.00" fill="blue">Ø</text>
</g>
<!-- React19_empty&#45;&gt;React19 -->
<g id="edge73" class="edge"><title>React19_empty&#45;&gt;React19</title>
<path fill="none" stroke="black" d="M518.184,-62C539.262,-62 567.339,-62 579.702,-62"/>
</g>
<!-- React19_intermediate_p&#45;&gt;P4_prime -->
<g id="edge75" class="edge"><title>React19_intermediate_p&#45;&gt;P4_prime</title>
<path fill="none" stroke="black" d="M684.068,-53.987C685.607,-53.6922 712.947,-48.457 737.735,-43.7104"/>
<polygon fill="black" stroke="black" points="738.597,-47.1089 747.761,-41.7905 737.281,-40.2338 738.597,-47.1089"/>
</g>
<!-- React20 -->
<g id="node76" class="node"><title>React20</title>
<polygon fill="none" stroke="black" points="978,-43 964,-43 964,-29 978,-29 978,-43"/>
</g>
<!-- React20_empty -->
<g id="node78" class="node"><title>React20_empty</title>
<text text-anchor="middle" x="1067" y="-32.5" font-family="Times,serif" font-size="15.00" fill="blue">Ø</text>
</g>
<!-- React20&#45;&gt;React20_empty -->
<g id="edge80" class="edge"><title>React20&#45;&gt;React20_empty</title>
<path fill="none" stroke="black" d="M978.168,-36C988.554,-36 1010.29,-36 1029.54,-36"/>
<polygon fill="black" stroke="black" points="1029.6,-39.5001 1039.6,-36 1029.6,-32.5001 1029.6,-39.5001"/>
</g>
<!-- React20_intermediate_r&#45;&gt;React20 -->
<g id="edge78" class="edge"><title>React20_intermediate_r&#45;&gt;React20</title>
<path fill="none" stroke="black" d="M876.068,-36C878.459,-36 943.088,-36 963.728,-36"/>
</g>
</g>
</svg>
