<?xml version="1.0" encoding="UTF-8" standalone="no"?>
<!DOCTYPE svg PUBLIC "-//W3C//DTD SVG 1.1//EN"
 "http://www.w3.org/Graphics/SVG/1.1/DTD/svg11.dtd">
<!-- Generated by graphviz version 2.24.0 (20090616.2323)
 -->
<!-- Title: G Pages: 1 -->
<svg width="688pt" height="203pt"
 viewBox="0.00 0.00 688.00 203.00" xmlns="http://www.w3.org/2000/svg" xmlns:xlink="http://www.w3.org/1999/xlink">
<g id="graph1" class="graph" transform="scale(1 1) rotate(0) translate(4 199)">
<title>G</title>
<polygon fill="white" stroke="white" points="-4,5 -4,-199 685,-199 685,5 -4,5"/>
<!-- x1 -->
<g id="node1" class="node"><title>x1</title>
<polyline fill="none" stroke="black" points="312,-144 282,-144 "/>
<path fill="none" stroke="black" d="M282,-144C276,-144 270,-138 270,-132"/>
<polyline fill="none" stroke="black" points="270,-132 270,-120 "/>
<path fill="none" stroke="black" d="M270,-120C270,-114 276,-108 282,-108"/>
<polyline fill="none" stroke="black" points="282,-108 312,-108 "/>
<path fill="none" stroke="black" d="M312,-108C318,-108 324,-114 324,-120"/>
<polyline fill="none" stroke="black" points="324,-120 324,-132 "/>
<path fill="none" stroke="black" d="M324,-132C324,-138 318,-144 312,-144"/>
<text text-anchor="middle" x="297" y="-123.5" font-family="Times Roman,serif" font-size="10.00">x1</text>
</g>
<!-- reaction_0000003_intermediate_m -->
<g id="node30" class="node"><title>reaction_0000003_intermediate_m</title>
<ellipse fill="black" stroke="black" cx="360" cy="-153" rx="0.036" ry="0.036"/>
</g>
<!-- x1&#45;&gt;reaction_0000003_intermediate_m -->
<g id="edge30" class="edge"><title>x1&#45;&gt;reaction_0000003_intermediate_m</title>
<path fill="none" stroke="black" d="M324.083,-137.607C340.625,-144.696 358.824,-152.496 359.945,-152.977"/>
</g>
<!-- reaction_0000004_intermediate_m -->
<g id="node39" class="node"><title>reaction_0000004_intermediate_m</title>
<ellipse fill="black" stroke="black" cx="360" cy="-105" rx="0.036" ry="0.036"/>
</g>
<!-- x1&#45;&gt;reaction_0000004_intermediate_m -->
<g id="edge40" class="edge"><title>x1&#45;&gt;reaction_0000004_intermediate_m</title>
<path fill="none" stroke="black" d="M324.083,-116.972C340.625,-111.458 358.824,-105.392 359.945,-105.018"/>
</g>
<!-- reaction_0000005_intermediate_r -->
<g id="node43" class="node"><title>reaction_0000005_intermediate_r</title>
<ellipse fill="black" stroke="black" cx="360" cy="-126" rx="0.036" ry="0.036"/>
</g>
<!-- x1&#45;&gt;reaction_0000005_intermediate_r -->
<g id="edge44" class="edge"><title>x1&#45;&gt;reaction_0000005_intermediate_r</title>
<path fill="none" stroke="black" d="M324.083,-126C340.625,-126 358.824,-126 359.945,-126"/>
</g>
<!-- x2 -->
<g id="node2" class="node"><title>x2</title>
<ellipse fill="none" stroke="black" cx="423" cy="-174" rx="27" ry="18"/>
<text text-anchor="middle" x="423" y="-171.5" font-family="Times Roman,serif" font-size="10.00">x2</text>
</g>
<!-- reaction_0000006_intermediate_r -->
<g id="node49" class="node"><title>reaction_0000006_intermediate_r</title>
<ellipse fill="black" stroke="black" cx="513" cy="-174" rx="0.036" ry="0.036"/>
</g>
<!-- x2&#45;&gt;reaction_0000006_intermediate_r -->
<g id="edge50" class="edge"><title>x2&#45;&gt;reaction_0000006_intermediate_r</title>
<path fill="none" stroke="black" d="M450.003,-174C475.685,-174 510.729,-174 512.895,-174"/>
</g>
<!-- y2 -->
<g id="node3" class="node"><title>y2</title>
<ellipse fill="none" stroke="black" cx="423" cy="-72" rx="27" ry="18"/>
<text text-anchor="middle" x="423" y="-69.5" font-family="Times Roman,serif" font-size="10.00">y2</text>
</g>
<!-- reaction_0000007_intermediate_r -->
<g id="node55" class="node"><title>reaction_0000007_intermediate_r</title>
<ellipse fill="black" stroke="black" cx="513" cy="-72" rx="0.036" ry="0.036"/>
</g>
<!-- y2&#45;&gt;reaction_0000007_intermediate_r -->
<g id="edge56" class="edge"><title>y2&#45;&gt;reaction_0000007_intermediate_r</title>
<path fill="none" stroke="black" d="M450.003,-72C475.685,-72 510.729,-72 512.895,-72"/>
</g>
<!-- x0 -->
<g id="node4" class="node"><title>x0</title>
<polyline fill="none" stroke="black" points="132,-122 102,-122 "/>
<path fill="none" stroke="black" d="M102,-122C96,-122 90,-116 90,-110"/>
<polyline fill="none" stroke="black" points="90,-110 90,-98 "/>
<path fill="none" stroke="black" d="M90,-98C90,-92 96,-86 102,-86"/>
<polyline fill="none" stroke="black" points="102,-86 132,-86 "/>
<path fill="none" stroke="black" d="M132,-86C138,-86 144,-92 144,-98"/>
<polyline fill="none" stroke="black" points="144,-98 144,-110 "/>
<path fill="none" stroke="black" d="M144,-110C144,-116 138,-122 132,-122"/>
<text text-anchor="middle" x="117" y="-101.5" font-family="Times Roman,serif" font-size="10.00">x0</text>
</g>
<!-- reaction_0000001_intermediate_m -->
<g id="node12" class="node"><title>reaction_0000001_intermediate_m</title>
<ellipse fill="black" stroke="black" cx="207" cy="-123" rx="0.036" ry="0.036"/>
</g>
<!-- x0&#45;&gt;reaction_0000001_intermediate_m -->
<g id="edge10" class="edge"><title>x0&#45;&gt;reaction_0000001_intermediate_m</title>
<path fill="none" stroke="black" d="M144.003,-109.701C169.685,-115.122 204.729,-122.521 206.895,-122.978"/>
</g>
<!-- y0 -->
<g id="node5" class="node"><title>y0</title>
<polyline fill="none" stroke="black" points="132,-36 102,-36 "/>
<path fill="none" stroke="black" d="M102,-36C96,-36 90,-30 90,-24"/>
<polyline fill="none" stroke="black" points="90,-24 90,-12 "/>
<path fill="none" stroke="black" d="M90,-12C90,-6 96,-1.61846e-14 102,-1.46056e-14"/>
<polyline fill="none" stroke="black" points="102,-1.46056e-14 132,-6.71068e-15 "/>
<path fill="none" stroke="black" d="M132,-6.71068e-15C138,-5.1317e-15 144,-6 144,-12"/>
<polyline fill="none" stroke="black" points="144,-12 144,-24 "/>
<path fill="none" stroke="black" d="M144,-24C144,-30 138,-36 132,-36"/>
<text text-anchor="middle" x="117" y="-15.5" font-family="Times Roman,serif" font-size="10.00">y0</text>
</g>
<!-- reaction_0000002_intermediate_m -->
<g id="node21" class="node"><title>reaction_0000002_intermediate_m</title>
<ellipse fill="black" stroke="black" cx="207" cy="-28" rx="0.036" ry="0.036"/>
</g>
<!-- y0&#45;&gt;reaction_0000002_intermediate_m -->
<g id="edge20" class="edge"><title>y0&#45;&gt;reaction_0000002_intermediate_m</title>
<path fill="none" stroke="black" d="M144.003,-21.0003C169.685,-23.8538 204.729,-27.7477 206.895,-27.9883"/>
</g>
<!-- reaction_0000001 -->
<g id="node6" class="node"><title>reaction_0000001</title>
<polygon fill="none" stroke="black" points="124,-154 110,-154 110,-140 124,-140 124,-154"/>
</g>
<!-- reaction_0000001_intermediate_p -->
<g id="node9" class="node"><title>reaction_0000001_intermediate_p</title>
<ellipse fill="black" stroke="black" cx="207" cy="-141" rx="0.036" ry="0.036"/>
</g>
<!-- reaction_0000001&#45;&gt;reaction_0000001_intermediate_p -->
<g id="edge4" class="edge"><title>reaction_0000001&#45;&gt;reaction_0000001_intermediate_p</title>
<path fill="none" stroke="black" d="M124.062,-146.529C144.947,-145.137 205.081,-141.128 206.955,-141.003"/>
</g>
<!-- reaction_0000001&#45;&gt;reaction_0000001_intermediate_m -->
<g id="edge8" class="edge"><title>reaction_0000001&#45;&gt;reaction_0000001_intermediate_m</title>
<path fill="none" stroke="black" d="M135.995,-141.935C161.917,-135.022 205.367,-123.436 206.955,-123.012"/>
<polygon fill="none" stroke="black" points="135.657,-142.025 130.89,-147.436 124.062,-145.117 128.829,-139.706 135.657,-142.025"/>
</g>
<!-- reaction_0000001_empty -->
<g id="node7" class="node"><title>reaction_0000001_empty</title>
<text text-anchor="middle" x="27" y="-142.5" font-family="Times Roman,serif" font-size="15.00" fill="blue">Ø</text>
</g>
<!-- reaction_0000001_empty&#45;&gt;reaction_0000001 -->
<g id="edge2" class="edge"><title>reaction_0000001_empty&#45;&gt;reaction_0000001</title>
<path fill="none" stroke="black" d="M54.003,-147C73.2642,-147 97.7921,-147 109.766,-147"/>
</g>
<!-- reaction_0000001_intermediate_p&#45;&gt;x1 -->
<g id="edge6" class="edge"><title>reaction_0000001_intermediate_p&#45;&gt;x1</title>
<path fill="none" stroke="black" d="M207.065,-140.989C208.565,-140.739 235.648,-136.225 259.704,-132.216"/>
<polygon fill="black" stroke="black" points="260.457,-135.639 269.745,-130.542 259.306,-128.734 260.457,-135.639"/>
</g>
<!-- reaction_0000002 -->
<g id="node15" class="node"><title>reaction_0000002</title>
<polygon fill="none" stroke="black" points="124,-68 110,-68 110,-54 124,-54 124,-68"/>
</g>
<!-- reaction_0000002_intermediate_p -->
<g id="node18" class="node"><title>reaction_0000002_intermediate_p</title>
<ellipse fill="black" stroke="black" cx="207" cy="-105" rx="0.036" ry="0.036"/>
</g>
<!-- reaction_0000002&#45;&gt;reaction_0000002_intermediate_p -->
<g id="edge14" class="edge"><title>reaction_0000002&#45;&gt;reaction_0000002_intermediate_p</title>
<path fill="none" stroke="black" d="M124.341,-65.3044C138.439,-73.5331 168.891,-91.113 180,-96 191.217,-100.934 206.04,-104.755 206.955,-104.989"/>
</g>
<!-- reaction_0000002&#45;&gt;reaction_0000002_intermediate_m -->
<g id="edge18" class="edge"><title>reaction_0000002&#45;&gt;reaction_0000002_intermediate_m</title>
<path fill="none" stroke="black" d="M135.638,-54.1661C161.516,-44.6775 205.359,-28.6016 206.955,-28.0164"/>
<polygon fill="none" stroke="black" points="135.329,-54.2794 131.072,-60.1005 124.062,-58.4105 128.318,-52.5895 135.329,-54.2794"/>
</g>
<!-- reaction_0000002_empty -->
<g id="node16" class="node"><title>reaction_0000002_empty</title>
<text text-anchor="middle" x="27" y="-56.5" font-family="Times Roman,serif" font-size="15.00" fill="blue">Ø</text>
</g>
<!-- reaction_0000002_empty&#45;&gt;reaction_0000002 -->
<g id="edge12" class="edge"><title>reaction_0000002_empty&#45;&gt;reaction_0000002</title>
<path fill="none" stroke="black" d="M54.003,-61C73.2642,-61 97.7921,-61 109.766,-61"/>
</g>
<!-- reaction_0000002_intermediate_p&#45;&gt;x1 -->
<g id="edge16" class="edge"><title>reaction_0000002_intermediate_p&#45;&gt;x1</title>
<path fill="none" stroke="black" d="M207.065,-105.015C208.565,-105.365 235.648,-111.685 259.704,-117.298"/>
<polygon fill="black" stroke="black" points="259.211,-120.777 269.745,-119.641 260.802,-113.96 259.211,-120.777"/>
</g>
<!-- reaction_0000003 -->
<g id="node24" class="node"><title>reaction_0000003</title>
<polygon fill="none" stroke="black" points="304,-181 290,-181 290,-167 304,-167 304,-181"/>
</g>
<!-- reaction_0000003_intermediate_p -->
<g id="node27" class="node"><title>reaction_0000003_intermediate_p</title>
<ellipse fill="black" stroke="black" cx="360" cy="-174" rx="0.036" ry="0.036"/>
</g>
<!-- reaction_0000003&#45;&gt;reaction_0000003_intermediate_p -->
<g id="edge24" class="edge"><title>reaction_0000003&#45;&gt;reaction_0000003_intermediate_p</title>
<path fill="none" stroke="black" d="M304.227,-174C320.258,-174 357.571,-174 359.887,-174"/>
</g>
<!-- reaction_0000003&#45;&gt;reaction_0000003_intermediate_m -->
<g id="edge28" class="edge"><title>reaction_0000003&#45;&gt;reaction_0000003_intermediate_m</title>
<path fill="none" stroke="black" d="M315.636,-167.788C333.498,-161.834 358.023,-153.659 359.887,-153.038"/>
<polygon fill="none" stroke="black" points="315.611,-167.796 311.184,-173.488 304.227,-171.591 308.654,-165.899 315.611,-167.796"/>
</g>
<!-- reaction_0000003_empty -->
<g id="node25" class="node"><title>reaction_0000003_empty</title>
<text text-anchor="middle" x="207" y="-172.5" font-family="Times Roman,serif" font-size="15.00" fill="blue">Ø</text>
</g>
<!-- reaction_0000003_empty&#45;&gt;reaction_0000003 -->
<g id="edge22" class="edge"><title>reaction_0000003_empty&#45;&gt;reaction_0000003</title>
<path fill="none" stroke="black" d="M234.003,-176.1C253.264,-175.458 277.792,-174.64 289.766,-174.241"/>
</g>
<!-- reaction_0000003_intermediate_p&#45;&gt;x2 -->
<g id="edge26" class="edge"><title>reaction_0000003_intermediate_p&#45;&gt;x2</title>
<path fill="none" stroke="black" d="M360.046,-174C360.865,-174 372.597,-174 385.716,-174"/>
<polygon fill="black" stroke="black" points="385.86,-177.5 395.86,-174 385.859,-170.5 385.86,-177.5"/>
</g>
<!-- reaction_0000004 -->
<g id="node33" class="node"><title>reaction_0000004</title>
<polygon fill="none" stroke="black" points="304,-79 290,-79 290,-65 304,-65 304,-79"/>
</g>
<!-- reaction_0000004_intermediate_p -->
<g id="node36" class="node"><title>reaction_0000004_intermediate_p</title>
<ellipse fill="black" stroke="black" cx="360" cy="-72" rx="0.036" ry="0.036"/>
</g>
<!-- reaction_0000004&#45;&gt;reaction_0000004_intermediate_p -->
<g id="edge34" class="edge"><title>reaction_0000004&#45;&gt;reaction_0000004_intermediate_p</title>
<path fill="none" stroke="black" d="M304.227,-72C320.258,-72 357.571,-72 359.887,-72"/>
</g>
<!-- reaction_0000004&#45;&gt;reaction_0000004_intermediate_m -->
<g id="edge38" class="edge"><title>reaction_0000004&#45;&gt;reaction_0000004_intermediate_m</title>
<path fill="none" stroke="black" d="M314.86,-81.3553C332.779,-90.7414 357.996,-103.95 359.887,-104.941"/>
<polygon fill="none" stroke="black" points="314.857,-81.3537 307.686,-82.1129 304.227,-75.7855 311.398,-75.0263 314.857,-81.3537"/>
</g>
<!-- reaction_0000004_empty -->
<g id="node34" class="node"><title>reaction_0000004_empty</title>
<text text-anchor="middle" x="207" y="-64.5" font-family="Times Roman,serif" font-size="15.00" fill="blue">Ø</text>
</g>
<!-- reaction_0000004_empty&#45;&gt;reaction_0000004 -->
<g id="edge32" class="edge"><title>reaction_0000004_empty&#45;&gt;reaction_0000004</title>
<path fill="none" stroke="black" d="M234.003,-69.9001C253.264,-70.5421 277.792,-71.3597 289.766,-71.7589"/>
</g>
<!-- reaction_0000004_intermediate_p&#45;&gt;y2 -->
<g id="edge36" class="edge"><title>reaction_0000004_intermediate_p&#45;&gt;y2</title>
<path fill="none" stroke="black" d="M360.046,-72C360.865,-72 372.597,-72 385.716,-72"/>
<polygon fill="black" stroke="black" points="385.86,-75.5001 395.86,-72 385.859,-68.5001 385.86,-75.5001"/>
</g>
<!-- reaction_0000005 -->
<g id="node42" class="node"><title>reaction_0000005</title>
<polygon fill="none" stroke="black" points="430,-133 416,-133 416,-119 430,-119 430,-133"/>
</g>
<!-- reaction_0000005_empty -->
<g id="node46" class="node"><title>reaction_0000005_empty</title>
<text text-anchor="middle" x="513" y="-121.5" font-family="Times Roman,serif" font-size="15.00" fill="blue">Ø</text>
</g>
<!-- reaction_0000005&#45;&gt;reaction_0000005_empty -->
<g id="edge46" class="edge"><title>reaction_0000005&#45;&gt;reaction_0000005_empty</title>
<path fill="none" stroke="black" d="M430.062,-126C439.877,-126 458.359,-126 475.389,-126"/>
<polygon fill="black" stroke="black" points="475.715,-129.5 485.715,-126 475.715,-122.5 475.715,-129.5"/>
</g>
<!-- reaction_0000005_intermediate_r&#45;&gt;reaction_0000005 -->
<g id="edge42" class="edge"><title>reaction_0000005_intermediate_r&#45;&gt;reaction_0000005</title>
<path fill="none" stroke="black" d="M360.046,-126C361.551,-126 399.877,-126 415.979,-126"/>
</g>
<!-- reaction_0000006 -->
<g id="node48" class="node"><title>reaction_0000006</title>
<polygon fill="none" stroke="black" points="590,-181 576,-181 576,-167 590,-167 590,-181"/>
</g>
<!-- reaction_0000006_empty -->
<g id="node52" class="node"><title>reaction_0000006_empty</title>
<text text-anchor="middle" x="653" y="-169.5" font-family="Times Roman,serif" font-size="15.00" fill="blue">Ø</text>
</g>
<!-- reaction_0000006&#45;&gt;reaction_0000006_empty -->
<g id="edge52" class="edge"><title>reaction_0000006&#45;&gt;reaction_0000006_empty</title>
<path fill="none" stroke="black" d="M590.228,-174C596.45,-174 605.94,-174 615.672,-174"/>
<polygon fill="black" stroke="black" points="615.773,-177.5 625.773,-174 615.773,-170.5 615.773,-177.5"/>
</g>
<!-- reaction_0000006_intermediate_r&#45;&gt;reaction_0000006 -->
<g id="edge48" class="edge"><title>reaction_0000006_intermediate_r&#45;&gt;reaction_0000006</title>
<path fill="none" stroke="black" d="M513.051,-174C514.748,-174 558.582,-174 575.98,-174"/>
</g>
<!-- reaction_0000007 -->
<g id="node54" class="node"><title>reaction_0000007</title>
<polygon fill="none" stroke="black" points="590,-79 576,-79 576,-65 590,-65 590,-79"/>
</g>
<!-- reaction_0000007_empty -->
<g id="node58" class="node"><title>reaction_0000007_empty</title>
<text text-anchor="middle" x="653" y="-67.5" font-family="Times Roman,serif" font-size="15.00" fill="blue">Ø</text>
</g>
<!-- reaction_0000007&#45;&gt;reaction_0000007_empty -->
<g id="edge58" class="edge"><title>reaction_0000007&#45;&gt;reaction_0000007_empty</title>
<path fill="none" stroke="black" d="M590.228,-72C596.45,-72 605.94,-72 615.672,-72"/>
<polygon fill="black" stroke="black" points="615.773,-75.5001 625.773,-72 615.773,-68.5001 615.773,-75.5001"/>
</g>
<!-- reaction_0000007_intermediate_r&#45;&gt;reaction_0000007 -->
<g id="edge54" class="edge"><title>reaction_0000007_intermediate_r&#45;&gt;reaction_0000007</title>
<path fill="none" stroke="black" d="M513.051,-72C514.748,-72 558.582,-72 575.98,-72"/>
</g>
</g>
</svg>
