<?xml version="1.0" encoding="UTF-8" standalone="no"?>
<!DOCTYPE svg PUBLIC "-//W3C//DTD SVG 1.1//EN"
 "http://www.w3.org/Graphics/SVG/1.1/DTD/svg11.dtd">
<!-- Generated by graphviz version 2.24.0 (20090616.2323)
 -->
<!-- Title: G Pages: 1 -->
<svg width="2292pt" height="658pt"
 viewBox="0.00 0.00 2292.00 658.00" xmlns="http://www.w3.org/2000/svg" xmlns:xlink="http://www.w3.org/1999/xlink">
<g id="graph1" class="graph" transform="scale(1 1) rotate(0) translate(4 654)">
<title>G</title>
<polygon fill="white" stroke="white" points="-4,5 -4,-654 2289,-654 2289,5 -4,5"/>
<!-- RuBP -->
<g id="node1" class="node"><title>RuBP</title>
<ellipse fill="none" stroke="black" cx="18" cy="-66" rx="18" ry="18"/>
<text text-anchor="middle" x="18" y="-63.5" font-family="Times Roman,serif" font-size="10.00">RuBP</text>
</g>
<!-- RuBisCO_intermediate_r -->
<g id="node24" class="node"><title>RuBisCO_intermediate_r</title>
<ellipse fill="black" stroke="black" cx="73" cy="-153" rx="0.036" ry="0.036"/>
</g>
<!-- RuBP&#45;&gt;RuBisCO_intermediate_r -->
<g id="edge4" class="edge"><title>RuBP&#45;&gt;RuBisCO_intermediate_r</title>
<path fill="none" stroke="black" d="M27.8329,-81.5539C43.1585,-105.796 71.179,-150.12 72.9153,-152.866"/>
</g>
<!-- PGA -->
<g id="node2" class="node"><title>PGA</title>
<ellipse fill="none" stroke="black" cx="216" cy="-308" rx="18" ry="18"/>
<text text-anchor="middle" x="216" y="-305.5" font-family="Times Roman,serif" font-size="10.00">PGA</text>
</g>
<!-- PGA_red_intermediate_r -->
<g id="node32" class="node"><title>PGA_red_intermediate_r</title>
<ellipse fill="black" stroke="black" cx="271" cy="-316" rx="0.036" ry="0.036"/>
</g>
<!-- PGA&#45;&gt;PGA_red_intermediate_r -->
<g id="edge14" class="edge"><title>PGA&#45;&gt;PGA_red_intermediate_r</title>
<path fill="none" stroke="black" d="M234.009,-310.619C249.548,-312.88 269.695,-315.81 270.939,-315.991"/>
</g>
<!-- TP -->
<g id="node3" class="node"><title>TP</title>
<polyline fill="none" stroke="black" points="438,-334 408,-334 "/>
<path fill="none" stroke="black" d="M408,-334C402,-334 396,-328 396,-322"/>
<polyline fill="none" stroke="black" points="396,-322 396,-310 "/>
<path fill="none" stroke="black" d="M396,-310C396,-304 402,-298 408,-298"/>
<polyline fill="none" stroke="black" points="408,-298 438,-298 "/>
<path fill="none" stroke="black" d="M438,-298C444,-298 450,-304 450,-310"/>
<polyline fill="none" stroke="black" points="450,-310 450,-322 "/>
<path fill="none" stroke="black" d="M450,-322C450,-328 444,-334 438,-334"/>
<text text-anchor="middle" x="423" y="-313.5" font-family="Times Roman,serif" font-size="10.00">TP</text>
</g>
<!-- FBP_A_ase_intermediate_r -->
<g id="node42" class="node"><title>FBP_A_ase_intermediate_r</title>
<ellipse fill="black" stroke="black" cx="487" cy="-289" rx="0.036" ry="0.036"/>
</g>
<!-- TP&#45;&gt;FBP_A_ase_intermediate_r -->
<g id="edge28" class="edge"><title>TP&#45;&gt;FBP_A_ase_intermediate_r</title>
<path fill="none" stroke="black" d="M459.714,-300.511C473.452,-294.716 486.005,-289.42 486.944,-289.024"/>
<polygon fill="black" stroke="black" points="457.995,-297.438 450.142,-304.55 460.716,-303.887 457.995,-297.438"/>
</g>
<!-- SBP_A_ase_intermediate_r -->
<g id="node58" class="node"><title>SBP_A_ase_intermediate_r</title>
<ellipse fill="black" stroke="black" cx="919" cy="-137" rx="0.036" ry="0.036"/>
</g>
<!-- TP&#45;&gt;SBP_A_ase_intermediate_r -->
<g id="edge50" class="edge"><title>TP&#45;&gt;SBP_A_ase_intermediate_r</title>
<path fill="none" stroke="black" d="M424.211,-297.718C428.591,-247.993 448.085,-114 531,-114 531,-114 531,-114 791,-114 847.897,-114 916.809,-136.287 918.949,-136.983"/>
</g>
<!-- TK2_Ru5P_E_intermediate_r -->
<g id="node75" class="node"><title>TK2_Ru5P_E_intermediate_r</title>
<ellipse fill="black" stroke="black" cx="1351" cy="-198" rx="0.036" ry="0.036"/>
</g>
<!-- TP&#45;&gt;TK2_Ru5P_E_intermediate_r -->
<g id="edge72" class="edge"><title>TP&#45;&gt;TK2_Ru5P_E_intermediate_r</title>
<path fill="none" stroke="black" d="M450.064,-317.558C471.902,-318.681 503.419,-320 531,-320 531,-320 531,-320 1007,-320 1149.83,-320 1186.35,-289.079 1314,-225 1331.62,-216.152 1349.83,-199.108 1350.95,-198.052"/>
</g>
<!-- TPT_intermediate_r -->
<g id="node118" class="node"><title>TPT_intermediate_r</title>
<ellipse fill="black" stroke="black" cx="487" cy="-381" rx="0.036" ry="0.036"/>
</g>
<!-- TP&#45;&gt;TPT_intermediate_r -->
<g id="edge126" class="edge"><title>TP&#45;&gt;TPT_intermediate_r</title>
<path fill="none" stroke="black" d="M440.828,-334.106C459.173,-352.738 485.306,-379.279 486.921,-380.92"/>
</g>
<!-- HeP -->
<g id="node4" class="node"><title>HeP</title>
<ellipse fill="none" stroke="black" cx="639" cy="-244" rx="18" ry="18"/>
<text text-anchor="middle" x="639" y="-241.5" font-family="Times Roman,serif" font-size="10.00">HeP</text>
</g>
<!-- F6P_TK1_intermediate_r -->
<g id="node50" class="node"><title>F6P_TK1_intermediate_r</title>
<ellipse fill="black" stroke="black" cx="703" cy="-212" rx="0.036" ry="0.036"/>
</g>
<!-- HeP&#45;&gt;F6P_TK1_intermediate_r -->
<g id="edge38" class="edge"><title>HeP&#45;&gt;F6P_TK1_intermediate_r</title>
<path fill="none" stroke="black" d="M655.15,-235.925C673.517,-226.742 701.204,-212.898 702.917,-212.042"/>
</g>
<!-- Starch_S_intermediate_r -->
<g id="node100" class="node"><title>Starch_S_intermediate_r</title>
<ellipse fill="black" stroke="black" cx="1981" cy="-249" rx="0.036" ry="0.036"/>
</g>
<!-- HeP&#45;&gt;Starch_S_intermediate_r -->
<g id="edge104" class="edge"><title>HeP&#45;&gt;Starch_S_intermediate_r</title>
<path fill="none" stroke="black" d="M657.345,-244C678.832,-244 715.5,-244 747,-244 747,-244 747,-244 1179,-244 1257.29,-244 1272.71,-282 1351,-282 1351,-282 1351,-282 1494,-282 1559.76,-282 1571.24,-320 1637,-320 1637,-320 1637,-320 1701,-320 1810.76,-320 1843.11,-319.222 1944,-276 1962.13,-268.234 1979.86,-250.176 1980.95,-249.055"/>
</g>
<!-- TPGA -->
<g id="node5" class="node"><title>TPGA</title>
<ellipse fill="none" stroke="black" cx="1287" cy="-198" rx="27" ry="18"/>
<text text-anchor="middle" x="1287" y="-195.5" font-family="Times Roman,serif" font-size="10.00">TPGA</text>
</g>
<!-- TPGA&#45;&gt;TK2_Ru5P_E_intermediate_r -->
<g id="edge70" class="edge"><title>TPGA&#45;&gt;TK2_Ru5P_E_intermediate_r</title>
<path fill="none" stroke="black" d="M1314.14,-198C1331.04,-198 1349.79,-198 1350.94,-198"/>
</g>
<!-- E4P -->
<g id="node6" class="node"><title>E4P</title>
<ellipse fill="none" stroke="black" cx="855" cy="-160" rx="27" ry="18"/>
<text text-anchor="middle" x="855" y="-157.5" font-family="Times Roman,serif" font-size="10.00">E4P</text>
</g>
<!-- E4P&#45;&gt;SBP_A_ase_intermediate_r -->
<g id="edge48" class="edge"><title>E4P&#45;&gt;SBP_A_ase_intermediate_r</title>
<path fill="none" stroke="black" d="M878.831,-151.436C896.459,-145.101 917.63,-137.492 918.936,-137.023"/>
</g>
<!-- S7P -->
<g id="node7" class="node"><title>S7P</title>
<ellipse fill="none" stroke="black" cx="1071" cy="-160" rx="27" ry="18"/>
<text text-anchor="middle" x="1071" y="-157.5" font-family="Times Roman,serif" font-size="10.00">S7P</text>
</g>
<!-- S7P_TK1_R5P_I_intermediate_r -->
<g id="node67" class="node"><title>S7P_TK1_R5P_I_intermediate_r</title>
<ellipse fill="black" stroke="black" cx="1135" cy="-160" rx="0.036" ry="0.036"/>
</g>
<!-- S7P&#45;&gt;S7P_TK1_R5P_I_intermediate_r -->
<g id="edge60" class="edge"><title>S7P&#45;&gt;S7P_TK1_R5P_I_intermediate_r</title>
<path fill="none" stroke="black" d="M1098.14,-160C1115.04,-160 1133.79,-160 1134.94,-160"/>
</g>
<!-- Ru5P -->
<g id="node8" class="node"><title>Ru5P</title>
<ellipse fill="none" stroke="black" cx="1494" cy="-182" rx="18" ry="18"/>
<text text-anchor="middle" x="1494" y="-179.5" font-family="Times Roman,serif" font-size="10.00">Ru5P</text>
</g>
<!-- Ru5P_K_intermediate_r -->
<g id="node83" class="node"><title>Ru5P_K_intermediate_r</title>
<ellipse fill="black" stroke="black" cx="1549" cy="-182" rx="0.036" ry="0.036"/>
</g>
<!-- Ru5P&#45;&gt;Ru5P_K_intermediate_r -->
<g id="edge80" class="edge"><title>Ru5P&#45;&gt;Ru5P_K_intermediate_r</title>
<path fill="none" stroke="black" d="M1512.01,-182C1527.55,-182 1547.7,-182 1548.94,-182"/>
</g>
<!-- GG -->
<g id="node9" class="node"><title>GG</title>
<ellipse fill="none" stroke="black" cx="2133" cy="-227" rx="27" ry="18"/>
<text text-anchor="middle" x="2133" y="-224.5" font-family="Times Roman,serif" font-size="10.00">GG</text>
</g>
<!-- Starch_P_intermediate_r -->
<g id="node110" class="node"><title>Starch_P_intermediate_r</title>
<ellipse fill="black" stroke="black" cx="2197" cy="-227" rx="0.036" ry="0.036"/>
</g>
<!-- GG&#45;&gt;Starch_P_intermediate_r -->
<g id="edge116" class="edge"><title>GG&#45;&gt;Starch_P_intermediate_r</title>
<path fill="none" stroke="black" d="M2160.14,-227C2177.04,-227 2195.79,-227 2196.94,-227"/>
</g>
<!-- ATP -->
<g id="node10" class="node"><title>ATP</title>
<ellipse fill="none" stroke="black" cx="1917" cy="-249" rx="27" ry="18"/>
<text text-anchor="middle" x="1917" y="-246.5" font-family="Times Roman,serif" font-size="10.00">ATP</text>
</g>
<!-- ATP&#45;&gt;PGA_red_intermediate_r -->
<g id="edge16" class="edge"><title>ATP&#45;&gt;PGA_red_intermediate_r</title>
<path fill="none" stroke="black" d="M1899,-262.803C1806.32,-333.315 1381.29,-650 1223,-650 359,-650 359,-650 359,-650 282.844,-650 271.18,-321.198 271.002,-316.061"/>
</g>
<!-- ATP&#45;&gt;Ru5P_K_intermediate_r -->
<g id="edge82" class="edge"><title>ATP&#45;&gt;Ru5P_K_intermediate_r</title>
<path fill="none" stroke="black" d="M1893.01,-240.567C1863.49,-230.53 1811.68,-214.001 1766,-205 1672.33,-186.542 1552.8,-182.136 1549.09,-182.003"/>
</g>
<!-- ATP&#45;&gt;Starch_S_intermediate_r -->
<g id="edge102" class="edge"><title>ATP&#45;&gt;Starch_S_intermediate_r</title>
<path fill="none" stroke="black" d="M1944.14,-249C1961.04,-249 1979.79,-249 1980.94,-249"/>
</g>
<!-- ADP -->
<g id="node11" class="node"><title>ADP</title>
<ellipse fill="none" stroke="black" cx="1701" cy="-138" rx="27" ry="18"/>
<text text-anchor="middle" x="1701" y="-135.5" font-family="Times Roman,serif" font-size="10.00">ADP</text>
</g>
<!-- ATP_S_intermediate_r -->
<g id="node92" class="node"><title>ATP_S_intermediate_r</title>
<ellipse fill="black" stroke="black" cx="1765" cy="-214" rx="0.036" ry="0.036"/>
</g>
<!-- ADP&#45;&gt;ATP_S_intermediate_r -->
<g id="edge92" class="edge"><title>ADP&#45;&gt;ATP_S_intermediate_r</title>
<path fill="none" stroke="black" d="M1714.26,-153.747C1732.42,-175.312 1763.01,-211.641 1764.91,-213.89"/>
</g>
<!-- UTP -->
<g id="node12" class="node"><title>UTP</title>
<ellipse fill="none" stroke="black" cx="1287" cy="-404" rx="18" ry="18"/>
<text text-anchor="middle" x="1287" y="-401.5" font-family="Times Roman,serif" font-size="10.00">UTP</text>
</g>
<!-- Suc_S_intermediate_r -->
<g id="node135" class="node"><title>Suc_S_intermediate_r</title>
<ellipse fill="black" stroke="black" cx="919" cy="-442" rx="0.036" ry="0.036"/>
</g>
<!-- UTP&#45;&gt;Suc_S_intermediate_r -->
<g id="edge150" class="edge"><title>UTP&#45;&gt;Suc_S_intermediate_r</title>
<path fill="none" stroke="black" d="M1268.66,-404C1247.17,-404 1210.5,-404 1179,-404 1071,-404 1071,-404 1071,-404 1002.45,-404 921.571,-440.822 919.06,-441.972"/>
</g>
<!-- UDP -->
<g id="node13" class="node"><title>UDP</title>
<ellipse fill="none" stroke="black" cx="1071" cy="-504" rx="18" ry="18"/>
<text text-anchor="middle" x="1071" y="-501.5" font-family="Times Roman,serif" font-size="10.00">UDP</text>
</g>
<!-- UTP_S_intermediate_r -->
<g id="node145" class="node"><title>UTP_S_intermediate_r</title>
<ellipse fill="black" stroke="black" cx="1135" cy="-450" rx="0.036" ry="0.036"/>
</g>
<!-- UDP&#45;&gt;UTP_S_intermediate_r -->
<g id="edge162" class="edge"><title>UDP&#45;&gt;UTP_S_intermediate_r</title>
<path fill="none" stroke="black" d="M1084.89,-492.283C1103.12,-476.897 1133.06,-451.64 1134.91,-450.076"/>
</g>
<!-- Pi -->
<g id="node14" class="node"><title>Pi</title>
<ellipse fill="none" stroke="black" cx="2133" cy="-173" rx="18" ry="18"/>
<text text-anchor="middle" x="2133" y="-170.5" font-family="Times Roman,serif" font-size="10.00">Pi</text>
</g>
<!-- Pi&#45;&gt;ATP_S_intermediate_r -->
<g id="edge94" class="edge"><title>Pi&#45;&gt;ATP_S_intermediate_r</title>
<path fill="none" stroke="black" d="M2115.05,-174.608C2093.64,-176.385 2056.74,-179 2025,-179 1917,-179 1917,-179 1917,-179 1848.76,-179 1767.58,-212.915 1765.06,-213.975"/>
</g>
<!-- Pi&#45;&gt;Starch_P_intermediate_r -->
<g id="edge118" class="edge"><title>Pi&#45;&gt;Starch_P_intermediate_r</title>
<path fill="none" stroke="black" d="M2146.89,-184.717C2165.12,-200.103 2195.06,-225.36 2196.91,-226.924"/>
</g>
<!-- CO2 -->
<g id="node15" class="node"><title>CO2</title>
<ellipse fill="none" stroke="black" cx="18" cy="-153" rx="18" ry="18"/>
<text text-anchor="middle" x="18" y="-150.5" font-family="Times Roman,serif" font-size="10.00">CO2</text>
</g>
<!-- CO2&#45;&gt;RuBisCO_intermediate_r -->
<g id="edge6" class="edge"><title>CO2&#45;&gt;RuBisCO_intermediate_r</title>
<path fill="none" stroke="black" d="M36.0091,-153C51.5481,-153 71.6954,-153 72.9394,-153"/>
</g>
<!-- TPc -->
<g id="node16" class="node"><title>TPc</title>
<ellipse fill="none" stroke="black" cx="639" cy="-404" rx="27" ry="18"/>
<text text-anchor="middle" x="639" y="-401.5" font-family="Times Roman,serif" font-size="10.00">TPc</text>
</g>
<!-- FBPc_A_ase_intermediate_r -->
<g id="node127" class="node"><title>FBPc_A_ase_intermediate_r</title>
<ellipse fill="black" stroke="black" cx="703" cy="-404" rx="0.036" ry="0.036"/>
</g>
<!-- TPc&#45;&gt;FBPc_A_ase_intermediate_r -->
<g id="edge138" class="edge"><title>TPc&#45;&gt;FBPc_A_ase_intermediate_r</title>
<path fill="none" stroke="black" d="M666.142,-404C683.04,-404 701.788,-404 702.944,-404"/>
</g>
<!-- HePc -->
<g id="node17" class="node"><title>HePc</title>
<ellipse fill="none" stroke="black" cx="855" cy="-442" rx="18" ry="18"/>
<text text-anchor="middle" x="855" y="-439.5" font-family="Times Roman,serif" font-size="10.00">HePc</text>
</g>
<!-- HePc&#45;&gt;Suc_S_intermediate_r -->
<g id="edge148" class="edge"><title>HePc&#45;&gt;Suc_S_intermediate_r</title>
<path fill="none" stroke="black" d="M873.169,-442C891.499,-442 917.326,-442 918.922,-442"/>
</g>
<!-- Suc -->
<g id="node18" class="node"><title>Suc</title>
<ellipse fill="none" stroke="black" cx="1071" cy="-558" rx="18" ry="18"/>
<text text-anchor="middle" x="1071" y="-555.5" font-family="Times Roman,serif" font-size="10.00">Suc</text>
</g>
<!-- Respi_intermediate_r -->
<g id="node153" class="node"><title>Respi_intermediate_r</title>
<ellipse fill="black" stroke="black" cx="1135" cy="-559" rx="0.036" ry="0.036"/>
</g>
<!-- Suc&#45;&gt;Respi_intermediate_r -->
<g id="edge172" class="edge"><title>Suc&#45;&gt;Respi_intermediate_r</title>
<path fill="none" stroke="black" d="M1089.17,-558.284C1107.5,-558.57 1133.33,-558.974 1134.92,-558.999"/>
</g>
<!-- Diffu_intermediate_r -->
<g id="node160" class="node"><title>Diffu_intermediate_r</title>
<ellipse fill="black" stroke="black" cx="1135" cy="-533" rx="0.036" ry="0.036"/>
</g>
<!-- Suc&#45;&gt;Diffu_intermediate_r -->
<g id="edge180" class="edge"><title>Suc&#45;&gt;Diffu_intermediate_r</title>
<path fill="none" stroke="black" d="M1097.41,-547.684C1114.38,-541.054 1133.52,-533.578 1134.92,-533.032"/>
<polygon fill="black" stroke="black" points="1095.86,-544.533 1087.82,-551.432 1098.4,-551.053 1095.86,-544.533"/>
</g>
<!-- Transl_intermediate_r -->
<g id="node167" class="node"><title>Transl_intermediate_r</title>
<ellipse fill="black" stroke="black" cx="1135" cy="-502" rx="0.036" ry="0.036"/>
</g>
<!-- Suc&#45;&gt;Transl_intermediate_r -->
<g id="edge188" class="edge"><title>Suc&#45;&gt;Transl_intermediate_r</title>
<path fill="none" stroke="black" d="M1092.37,-539.303C1110.31,-523.604 1133.28,-503.502 1134.91,-502.08"/>
<polygon fill="black" stroke="black" points="1089.79,-536.905 1084.57,-546.124 1094.4,-542.173 1089.79,-536.905"/>
</g>
<!-- Pic -->
<g id="node19" class="node"><title>Pic</title>
<ellipse fill="none" stroke="black" cx="1071" cy="-450" rx="18" ry="18"/>
<text text-anchor="middle" x="1071" y="-447.5" font-family="Times Roman,serif" font-size="10.00">Pic</text>
</g>
<!-- Pic&#45;&gt;TPT_intermediate_r -->
<g id="edge128" class="edge"><title>Pic&#45;&gt;TPT_intermediate_r</title>
<path fill="none" stroke="black" d="M1055.5,-459.199C1035.05,-470.445 997.586,-488 963,-488 575,-488 575,-488 575,-488 514.389,-488 487.834,-384.318 487.019,-381.078"/>
</g>
<!-- Pic&#45;&gt;UTP_S_intermediate_r -->
<g id="edge164" class="edge"><title>Pic&#45;&gt;UTP_S_intermediate_r</title>
<path fill="none" stroke="black" d="M1089.17,-450C1107.5,-450 1133.33,-450 1134.92,-450"/>
</g>
<!-- SucV -->
<g id="node20" class="node"><title>SucV</title>
<ellipse fill="none" stroke="black" cx="1287" cy="-512" rx="18" ry="18"/>
<text text-anchor="middle" x="1287" y="-509.5" font-family="Times Roman,serif" font-size="10.00">SucV</text>
</g>
<!-- E -->
<g id="node21" class="node"><title>E</title>
<ellipse fill="none" stroke="black" cx="1287" cy="-458" rx="27" ry="18"/>
<text text-anchor="middle" x="1287" y="-455.5" font-family="Times Roman,serif" font-size="10.00">E</text>
</g>
<!-- Resp -->
<g id="node22" class="node"><title>Resp</title>
<ellipse fill="none" stroke="black" cx="1287" cy="-566" rx="27" ry="18"/>
<text text-anchor="middle" x="1287" y="-563.5" font-family="Times Roman,serif" font-size="10.00">Resp</text>
</g>
<!-- RuBisCO -->
<g id="node23" class="node"><title>RuBisCO</title>
<polygon fill="none" stroke="black" points="124,-293 110,-293 110,-279 124,-279 124,-293"/>
</g>
<!-- RuBisCO_intermediate_p -->
<g id="node28" class="node"><title>RuBisCO_intermediate_p</title>
<ellipse fill="black" stroke="black" cx="161" cy="-303" rx="0.036" ry="0.036"/>
</g>
<!-- RuBisCO&#45;&gt;RuBisCO_intermediate_p -->
<g id="edge8" class="edge"><title>RuBisCO&#45;&gt;RuBisCO_intermediate_p</title>
<path fill="none" stroke="black" d="M124.266,-288.807C136.372,-293.485 159.497,-302.419 160.93,-302.973"/>
</g>
<!-- RuBisCO_intermediate_r&#45;&gt;RuBisCO -->
<g id="edge2" class="edge"><title>RuBisCO_intermediate_r&#45;&gt;RuBisCO</title>
<path fill="none" stroke="black" d="M73.0319,-153.096C74.1717,-156.542 105.538,-251.355 114.582,-278.69"/>
</g>
<!-- RuBisCO_intermediate_p&#45;&gt;PGA -->
<g id="edge10" class="edge"><title>RuBisCO_intermediate_p&#45;&gt;PGA</title>
<path fill="none" stroke="black" d="M161.158,-303.014C162.699,-303.154 175.285,-304.299 188.011,-305.456"/>
<polygon fill="black" stroke="black" points="187.763,-308.947 198.039,-306.367 188.396,-301.976 187.763,-308.947"/>
</g>
<!-- PGA_red -->
<g id="node31" class="node"><title>PGA_red</title>
<polygon fill="none" stroke="black" points="322,-323 308,-323 308,-309 322,-309 322,-323"/>
</g>
<!-- PGA_red_intermediate_p -->
<g id="node36" class="node"><title>PGA_red_intermediate_p</title>
<ellipse fill="black" stroke="black" cx="359" cy="-316" rx="0.036" ry="0.036"/>
</g>
<!-- PGA_red&#45;&gt;PGA_red_intermediate_p -->
<g id="edge18" class="edge"><title>PGA_red&#45;&gt;PGA_red_intermediate_p</title>
<path fill="none" stroke="black" d="M322.266,-316C334.372,-316 357.497,-316 358.93,-316"/>
</g>
<!-- PGA_red_intermediate_r&#45;&gt;PGA_red -->
<g id="edge12" class="edge"><title>PGA_red_intermediate_r&#45;&gt;PGA_red</title>
<path fill="none" stroke="black" d="M271.126,-316C273.022,-316 295.795,-316 307.759,-316"/>
</g>
<!-- PGA_red_intermediate_p&#45;&gt;TP -->
<g id="edge20" class="edge"><title>PGA_red_intermediate_p&#45;&gt;TP</title>
<path fill="none" stroke="black" d="M359.046,-316C359.885,-316 371.971,-316 385.414,-316"/>
<polygon fill="black" stroke="black" points="385.794,-319.5 395.794,-316 385.794,-312.5 385.794,-319.5"/>
</g>
<!-- PGA_red_intermediate_p&#45;&gt;ADP -->
<g id="edge22" class="edge"><title>PGA_red_intermediate_p&#45;&gt;ADP</title>
<path fill="none" stroke="black" d="M359.01,-316.054C359.881,-320.607 415.895,-612 487,-612 487,-612 487,-612 1223,-612 1264.32,-612 1278.48,-614.097 1314,-593 1502.93,-480.801 1644.23,-242.631 1687.32,-163.88"/>
<polygon fill="black" stroke="black" points="1690.39,-165.546 1692.08,-155.086 1684.24,-162.212 1690.39,-165.546"/>
</g>
<!-- PGA_red_intermediate_p&#45;&gt;Pi -->
<g id="edge24" class="edge"><title>PGA_red_intermediate_p&#45;&gt;Pi</title>
<path fill="none" stroke="black" d="M359.011,-315.949C359.938,-311.673 419.52,-38 487,-38 487,-38 487,-38 1351,-38 1416.76,-38 1428.24,-0 1494,-0 1494,-0 1494,-0 2025,-0 2092.62,-0 2119.46,-96.2877 2128.73,-145.194"/>
<polygon fill="black" stroke="black" points="2125.3,-145.904 2130.49,-155.138 2132.19,-144.68 2125.3,-145.904"/>
</g>
<!-- FBP_A_ase -->
<g id="node41" class="node"><title>FBP_A_ase</title>
<polygon fill="none" stroke="black" points="538,-272 524,-272 524,-258 538,-258 538,-272"/>
</g>
<!-- FBP_A_ase_intermediate_p -->
<g id="node45" class="node"><title>FBP_A_ase_intermediate_p</title>
<ellipse fill="black" stroke="black" cx="575" cy="-244" rx="0.036" ry="0.036"/>
</g>
<!-- FBP_A_ase&#45;&gt;FBP_A_ase_intermediate_p -->
<g id="edge30" class="edge"><title>FBP_A_ase&#45;&gt;FBP_A_ase_intermediate_p</title>
<path fill="none" stroke="black" d="M538.266,-261.532C550.372,-255.754 573.497,-244.718 574.93,-244.033"/>
</g>
<!-- FBP_A_ase_intermediate_r&#45;&gt;FBP_A_ase -->
<g id="edge26" class="edge"><title>FBP_A_ase_intermediate_r&#45;&gt;FBP_A_ase</title>
<path fill="none" stroke="black" d="M487.126,-288.931C489.022,-287.897 511.795,-275.476 523.759,-268.95"/>
</g>
<!-- FBP_A_ase_intermediate_p&#45;&gt;HeP -->
<g id="edge32" class="edge"><title>FBP_A_ase_intermediate_p&#45;&gt;HeP</title>
<path fill="none" stroke="black" d="M575.046,-244C576.081,-244 594.231,-244 610.931,-244"/>
<polygon fill="black" stroke="black" points="610.975,-247.5 620.975,-244 610.975,-240.5 610.975,-247.5"/>
</g>
<!-- FBP_A_ase_intermediate_p&#45;&gt;Pi -->
<g id="edge34" class="edge"><title>FBP_A_ase_intermediate_p&#45;&gt;Pi</title>
<path fill="none" stroke="black" d="M575.048,-243.878C577.046,-238.791 641.811,-76 747,-76 747,-76 747,-76 1351,-76 1416.76,-76 1428.24,-38 1494,-38 1494,-38 1494,-38 2025,-38 2079.81,-38 2111.38,-106.687 2124.97,-146.073"/>
<polygon fill="black" stroke="black" points="2121.67,-147.224 2128.12,-155.627 2128.32,-145.034 2121.67,-147.224"/>
</g>
<!-- F6P_TK1 -->
<g id="node49" class="node"><title>F6P_TK1</title>
<polygon fill="none" stroke="black" points="754,-214 740,-214 740,-200 754,-200 754,-214"/>
</g>
<!-- F6P_TK1_intermediate_p -->
<g id="node53" class="node"><title>F6P_TK1_intermediate_p</title>
<ellipse fill="black" stroke="black" cx="791" cy="-206" rx="0.036" ry="0.036"/>
</g>
<!-- F6P_TK1&#45;&gt;F6P_TK1_intermediate_p -->
<g id="edge40" class="edge"><title>F6P_TK1&#45;&gt;F6P_TK1_intermediate_p</title>
<path fill="none" stroke="black" d="M754.266,-206.835C766.372,-206.56 789.497,-206.034 790.93,-206.002"/>
</g>
<!-- F6P_TK1_intermediate_r&#45;&gt;F6P_TK1 -->
<g id="edge36" class="edge"><title>F6P_TK1_intermediate_r&#45;&gt;F6P_TK1</title>
<path fill="none" stroke="black" d="M703.126,-211.986C705.022,-211.77 727.795,-209.182 739.759,-207.823"/>
</g>
<!-- F6P_TK1_intermediate_p&#45;&gt;TPGA -->
<g id="edge42" class="edge"><title>F6P_TK1_intermediate_p&#45;&gt;TPGA</title>
<path fill="none" stroke="black" d="M791.052,-206C793.219,-206 863,-206 919,-206 919,-206 919,-206 1179,-206 1202.64,-206 1229.12,-204.07 1249.94,-202.105"/>
<polygon fill="black" stroke="black" points="1250.36,-205.581 1259.97,-201.116 1249.67,-198.615 1250.36,-205.581"/>
</g>
<!-- F6P_TK1_intermediate_p&#45;&gt;E4P -->
<g id="edge44" class="edge"><title>F6P_TK1_intermediate_p&#45;&gt;E4P</title>
<path fill="none" stroke="black" d="M791.046,-205.967C792.113,-205.2 811.389,-191.345 828.501,-179.046"/>
<polygon fill="black" stroke="black" points="830.561,-181.876 836.639,-173.197 826.476,-176.191 830.561,-181.876"/>
</g>
<!-- SBP_A_ase -->
<g id="node57" class="node"><title>SBP_A_ase</title>
<polygon fill="none" stroke="black" points="970,-144 956,-144 956,-130 970,-130 970,-144"/>
</g>
<!-- SBP_A_ase_intermediate_p -->
<g id="node62" class="node"><title>SBP_A_ase_intermediate_p</title>
<ellipse fill="black" stroke="black" cx="1007" cy="-137" rx="0.036" ry="0.036"/>
</g>
<!-- SBP_A_ase&#45;&gt;SBP_A_ase_intermediate_p -->
<g id="edge52" class="edge"><title>SBP_A_ase&#45;&gt;SBP_A_ase_intermediate_p</title>
<path fill="none" stroke="black" d="M970.266,-137C982.372,-137 1005.5,-137 1006.93,-137"/>
</g>
<!-- SBP_A_ase_intermediate_r&#45;&gt;SBP_A_ase -->
<g id="edge46" class="edge"><title>SBP_A_ase_intermediate_r&#45;&gt;SBP_A_ase</title>
<path fill="none" stroke="black" d="M919.126,-137C921.022,-137 943.795,-137 955.759,-137"/>
</g>
<!-- SBP_A_ase_intermediate_p&#45;&gt;S7P -->
<g id="edge54" class="edge"><title>SBP_A_ase_intermediate_p&#45;&gt;S7P</title>
<path fill="none" stroke="black" d="M1007.05,-137.017C1007.97,-137.347 1022.4,-142.533 1037.32,-147.895"/>
<polygon fill="black" stroke="black" points="1036.46,-151.306 1047.05,-151.395 1038.83,-144.719 1036.46,-151.306"/>
</g>
<!-- SBP_A_ase_intermediate_p&#45;&gt;Pi -->
<g id="edge56" class="edge"><title>SBP_A_ase_intermediate_p&#45;&gt;Pi</title>
<path fill="none" stroke="black" d="M1007.05,-136.983C1009.19,-136.287 1078.1,-114 1135,-114 1135,-114 1135,-114 1439,-114 1509.5,-114 1522.5,-76 1593,-76 1593,-76 1593,-76 2025,-76 2068.21,-76 2101.98,-119.505 2119.58,-148.244"/>
<polygon fill="black" stroke="black" points="2116.63,-150.135 2124.71,-156.982 2122.66,-146.588 2116.63,-150.135"/>
</g>
<!-- S7P_TK1_R5P_I -->
<g id="node66" class="node"><title>S7P_TK1_R5P_I</title>
<polygon fill="none" stroke="black" points="1186,-167 1172,-167 1172,-153 1186,-153 1186,-167"/>
</g>
<!-- S7P_TK1_R5P_I_intermediate_p -->
<g id="node70" class="node"><title>S7P_TK1_R5P_I_intermediate_p</title>
<ellipse fill="black" stroke="black" cx="1223" cy="-160" rx="0.036" ry="0.036"/>
</g>
<!-- S7P_TK1_R5P_I&#45;&gt;S7P_TK1_R5P_I_intermediate_p -->
<g id="edge62" class="edge"><title>S7P_TK1_R5P_I&#45;&gt;S7P_TK1_R5P_I_intermediate_p</title>
<path fill="none" stroke="black" d="M1186.27,-160C1198.37,-160 1221.5,-160 1222.93,-160"/>
</g>
<!-- S7P_TK1_R5P_I_intermediate_r&#45;&gt;S7P_TK1_R5P_I -->
<g id="edge58" class="edge"><title>S7P_TK1_R5P_I_intermediate_r&#45;&gt;S7P_TK1_R5P_I</title>
<path fill="none" stroke="black" d="M1135.13,-160C1137.02,-160 1159.79,-160 1171.76,-160"/>
</g>
<!-- S7P_TK1_R5P_I_intermediate_p&#45;&gt;TPGA -->
<g id="edge64" class="edge"><title>S7P_TK1_R5P_I_intermediate_p&#45;&gt;TPGA</title>
<path fill="none" stroke="black" d="M1223.05,-160.028C1224.06,-160.627 1241.36,-170.899 1257.71,-180.608"/>
<polygon fill="black" stroke="black" points="1256.2,-183.783 1266.59,-185.879 1259.77,-177.764 1256.2,-183.783"/>
</g>
<!-- S7P_TK1_R5P_I_intermediate_p&#45;&gt;Ru5P -->
<g id="edge66" class="edge"><title>S7P_TK1_R5P_I_intermediate_p&#45;&gt;Ru5P</title>
<path fill="none" stroke="black" d="M1223.05,-159.994C1225.22,-159.752 1294.89,-152 1351,-152 1351,-152 1351,-152 1395,-152 1420.81,-152 1448.84,-161.455 1468.47,-169.749"/>
<polygon fill="black" stroke="black" points="1467.08,-172.963 1477.64,-173.802 1469.91,-166.56 1467.08,-172.963"/>
</g>
<!-- TK2_Ru5P_E -->
<g id="node74" class="node"><title>TK2_Ru5P_E</title>
<polygon fill="none" stroke="black" points="1402,-199 1388,-199 1388,-185 1402,-185 1402,-199"/>
</g>
<!-- TK2_Ru5P_E_intermediate_p -->
<g id="node79" class="node"><title>TK2_Ru5P_E_intermediate_p</title>
<ellipse fill="black" stroke="black" cx="1439" cy="-187" rx="0.036" ry="0.036"/>
</g>
<!-- TK2_Ru5P_E&#45;&gt;TK2_Ru5P_E_intermediate_p -->
<g id="edge74" class="edge"><title>TK2_Ru5P_E&#45;&gt;TK2_Ru5P_E_intermediate_p</title>
<path fill="none" stroke="black" d="M1402.27,-191.174C1414.37,-189.799 1437.5,-187.171 1438.93,-187.008"/>
</g>
<!-- TK2_Ru5P_E_intermediate_r&#45;&gt;TK2_Ru5P_E -->
<g id="edge68" class="edge"><title>TK2_Ru5P_E_intermediate_r&#45;&gt;TK2_Ru5P_E</title>
<path fill="none" stroke="black" d="M1351.13,-197.983C1353.02,-197.724 1375.79,-194.619 1387.76,-192.987"/>
</g>
<!-- TK2_Ru5P_E_intermediate_p&#45;&gt;Ru5P -->
<g id="edge76" class="edge"><title>TK2_Ru5P_E_intermediate_p&#45;&gt;Ru5P</title>
<path fill="none" stroke="black" d="M1439.16,-186.986C1440.7,-186.846 1453.29,-185.701 1466.01,-184.544"/>
<polygon fill="black" stroke="black" points="1466.4,-188.024 1476.04,-183.633 1465.76,-181.053 1466.4,-188.024"/>
</g>
<!-- Ru5P_K -->
<g id="node82" class="node"><title>Ru5P_K</title>
<polygon fill="none" stroke="black" points="1600,-156 1586,-156 1586,-142 1600,-142 1600,-156"/>
</g>
<!-- Ru5P_K_intermediate_p -->
<g id="node87" class="node"><title>Ru5P_K_intermediate_p</title>
<ellipse fill="black" stroke="black" cx="1637" cy="-138" rx="0.036" ry="0.036"/>
</g>
<!-- Ru5P_K&#45;&gt;Ru5P_K_intermediate_p -->
<g id="edge84" class="edge"><title>Ru5P_K&#45;&gt;Ru5P_K_intermediate_p</title>
<path fill="none" stroke="black" d="M1600.27,-147.184C1612.37,-144.157 1635.5,-138.376 1636.93,-138.017"/>
</g>
<!-- Ru5P_K_intermediate_r&#45;&gt;Ru5P_K -->
<g id="edge78" class="edge"><title>Ru5P_K_intermediate_r&#45;&gt;Ru5P_K</title>
<path fill="none" stroke="black" d="M1549.13,-181.905C1551.02,-180.484 1573.79,-163.404 1585.76,-154.431"/>
</g>
<!-- Ru5P_K_intermediate_p&#45;&gt;RuBP -->
<g id="edge86" class="edge"><title>Ru5P_K_intermediate_p&#45;&gt;RuBP</title>
<path fill="none" stroke="black" d="M1636.89,-137.9C1632.47,-133.721 1489.93,-0 1351,-0 117,-0 117,-0 117,-0 84.5018,-0 54.5578,-24.9261 36.3022,-44.1418"/>
<polygon fill="black" stroke="black" points="33.5859,-41.9264 29.446,-51.679 38.7641,-46.6368 33.5859,-41.9264"/>
</g>
<!-- Ru5P_K_intermediate_p&#45;&gt;ADP -->
<g id="edge88" class="edge"><title>Ru5P_K_intermediate_p&#45;&gt;ADP</title>
<path fill="none" stroke="black" d="M1637.05,-138C1637.88,-138 1649.97,-138 1663.41,-138"/>
<polygon fill="black" stroke="black" points="1663.79,-141.5 1673.79,-138 1663.79,-134.5 1663.79,-141.5"/>
</g>
<!-- ATP_S -->
<g id="node91" class="node"><title>ATP_S</title>
<polygon fill="none" stroke="black" points="1816,-256 1802,-256 1802,-242 1816,-242 1816,-256"/>
</g>
<!-- ATP_S_intermediate_p -->
<g id="node96" class="node"><title>ATP_S_intermediate_p</title>
<ellipse fill="black" stroke="black" cx="1853" cy="-249" rx="0.036" ry="0.036"/>
</g>
<!-- ATP_S&#45;&gt;ATP_S_intermediate_p -->
<g id="edge96" class="edge"><title>ATP_S&#45;&gt;ATP_S_intermediate_p</title>
<path fill="none" stroke="black" d="M1816.27,-249C1828.37,-249 1851.5,-249 1852.93,-249"/>
</g>
<!-- ATP_S_intermediate_r&#45;&gt;ATP_S -->
<g id="edge90" class="edge"><title>ATP_S_intermediate_r&#45;&gt;ATP_S</title>
<path fill="none" stroke="black" d="M1765.13,-214.1C1767.02,-215.608 1789.79,-233.723 1801.76,-243.24"/>
</g>
<!-- ATP_S_intermediate_p&#45;&gt;ATP -->
<g id="edge98" class="edge"><title>ATP_S_intermediate_p&#45;&gt;ATP</title>
<path fill="none" stroke="black" d="M1853.05,-249C1853.88,-249 1865.97,-249 1879.41,-249"/>
<polygon fill="black" stroke="black" points="1879.79,-252.5 1889.79,-249 1879.79,-245.5 1879.79,-252.5"/>
</g>
<!-- Starch_S -->
<g id="node99" class="node"><title>Starch_S</title>
<polygon fill="none" stroke="black" points="2032,-229 2018,-229 2018,-215 2032,-215 2032,-229"/>
</g>
<!-- Starch_S_intermediate_p -->
<g id="node104" class="node"><title>Starch_S_intermediate_p</title>
<ellipse fill="black" stroke="black" cx="2069" cy="-214" rx="0.036" ry="0.036"/>
</g>
<!-- Starch_S&#45;&gt;Starch_S_intermediate_p -->
<g id="edge106" class="edge"><title>Starch_S&#45;&gt;Starch_S_intermediate_p</title>
<path fill="none" stroke="black" d="M2032.27,-220.679C2044.37,-218.478 2067.5,-214.273 2068.93,-214.013"/>
</g>
<!-- Starch_S_intermediate_r&#45;&gt;Starch_S -->
<g id="edge100" class="edge"><title>Starch_S_intermediate_r&#45;&gt;Starch_S</title>
<path fill="none" stroke="black" d="M1981.13,-248.923C1983.02,-247.76 2005.79,-233.785 2017.76,-226.443"/>
</g>
<!-- Starch_S_intermediate_p&#45;&gt;GG -->
<g id="edge108" class="edge"><title>Starch_S_intermediate_p&#45;&gt;GG</title>
<path fill="none" stroke="black" d="M2069.05,-214.009C2069.91,-214.185 2082.75,-216.792 2096.69,-219.625"/>
<polygon fill="black" stroke="black" points="2096.39,-223.135 2106.89,-221.696 2097.78,-216.275 2096.39,-223.135"/>
</g>
<!-- Starch_S_intermediate_p&#45;&gt;ADP -->
<g id="edge110" class="edge"><title>Starch_S_intermediate_p&#45;&gt;ADP</title>
<path fill="none" stroke="black" d="M2068.97,-213.945C2067.86,-211.644 2031.87,-138 1981,-138 1809,-138 1809,-138 1809,-138 1785.42,-138 1758.95,-138 1738.11,-138"/>
<polygon fill="black" stroke="black" points="1738.07,-134.5 1728.07,-138 1738.07,-141.5 1738.07,-134.5"/>
</g>
<!-- Starch_S_intermediate_p&#45;&gt;Pi -->
<g id="edge112" class="edge"><title>Starch_S_intermediate_p&#45;&gt;Pi</title>
<path fill="none" stroke="black" d="M2069.05,-213.97C2070.16,-213.256 2091.17,-199.796 2108.81,-188.496"/>
<polygon fill="black" stroke="black" points="2111.07,-191.204 2117.6,-182.863 2107.3,-185.31 2111.07,-191.204"/>
</g>
<!-- Starch_P -->
<g id="node109" class="node"><title>Starch_P</title>
<polygon fill="none" stroke="black" points="2248,-305 2234,-305 2234,-291 2248,-291 2248,-305"/>
</g>
<!-- Starch_P_intermediate_p -->
<g id="node114" class="node"><title>Starch_P_intermediate_p</title>
<ellipse fill="black" stroke="black" cx="2284" cy="-348" rx="0.036" ry="0.036"/>
</g>
<!-- Starch_P&#45;&gt;Starch_P_intermediate_p -->
<g id="edge120" class="edge"><title>Starch_P&#45;&gt;Starch_P_intermediate_p</title>
<path fill="none" stroke="black" d="M2247.34,-305.378C2258.93,-318.851 2282.47,-346.22 2283.93,-347.917"/>
</g>
<!-- Starch_P_intermediate_r&#45;&gt;Starch_P -->
<g id="edge114" class="edge"><title>Starch_P_intermediate_r&#45;&gt;Starch_P</title>
<path fill="none" stroke="black" d="M2197.03,-227.051C2198.1,-228.773 2225.65,-273.233 2236.59,-290.879"/>
</g>
<!-- Starch_P_intermediate_p&#45;&gt;HeP -->
<g id="edge122" class="edge"><title>Starch_P_intermediate_p&#45;&gt;HeP</title>
<path fill="none" stroke="black" d="M2283.88,-348.143C2281.35,-351.076 2240.2,-398 2197,-398 1981,-398 1981,-398 1981,-398 1827.08,-398 1790.92,-358 1637,-358 1593,-358 1593,-358 1593,-358 1427.69,-358 1388.31,-320 1223,-320 1179,-320 1179,-320 1179,-320 1100.71,-320 1085.29,-282 1007,-282 747,-282 747,-282 747,-282 717.008,-282 684.851,-268.798 663.501,-257.958"/>
<polygon fill="black" stroke="black" points="664.975,-254.778 654.498,-253.199 661.703,-260.966 664.975,-254.778"/>
</g>
<!-- TPT -->
<g id="node117" class="node"><title>TPT</title>
<polygon fill="none" stroke="black" points="538,-388 524,-388 524,-374 538,-374 538,-388"/>
</g>
<!-- TPT_intermediate_p -->
<g id="node122" class="node"><title>TPT_intermediate_p</title>
<ellipse fill="black" stroke="black" cx="575" cy="-381" rx="0.036" ry="0.036"/>
</g>
<!-- TPT&#45;&gt;TPT_intermediate_p -->
<g id="edge130" class="edge"><title>TPT&#45;&gt;TPT_intermediate_p</title>
<path fill="none" stroke="black" d="M538.266,-381C550.372,-381 573.497,-381 574.93,-381"/>
</g>
<!-- TPT_intermediate_r&#45;&gt;TPT -->
<g id="edge124" class="edge"><title>TPT_intermediate_r&#45;&gt;TPT</title>
<path fill="none" stroke="black" d="M487.126,-381C489.022,-381 511.795,-381 523.759,-381"/>
</g>
<!-- TPT_intermediate_p&#45;&gt;Pi -->
<g id="edge134" class="edge"><title>TPT_intermediate_p&#45;&gt;Pi</title>
<path fill="none" stroke="black" d="M575.051,-380.983C577.191,-380.287 646.103,-358 703,-358 703,-358 703,-358 1223,-358 1371.77,-358 1400.23,-434 1549,-434 1549,-434 1549,-434 1809,-434 1892.22,-434 1897.78,-360 1981,-360 1981,-360 1981,-360 2025,-360 2104.7,-360 2059.23,-264.543 2106,-200 2107.94,-197.316 2110.16,-194.65 2112.47,-192.098"/>
<polygon fill="black" stroke="black" points="2115.02,-194.492 2119.47,-184.879 2110,-189.616 2115.02,-194.492"/>
</g>
<!-- TPT_intermediate_p&#45;&gt;TPc -->
<g id="edge132" class="edge"><title>TPT_intermediate_p&#45;&gt;TPc</title>
<path fill="none" stroke="black" d="M575.046,-381.017C575.965,-381.347 590.396,-386.533 605.317,-391.895"/>
<polygon fill="black" stroke="black" points="604.461,-395.306 615.055,-395.395 606.828,-388.719 604.461,-395.306"/>
</g>
<!-- FBPc_A_ase -->
<g id="node126" class="node"><title>FBPc_A_ase</title>
<polygon fill="none" stroke="black" points="754,-411 740,-411 740,-397 754,-397 754,-411"/>
</g>
<!-- FBPc_A_ase_intermediate_p -->
<g id="node130" class="node"><title>FBPc_A_ase_intermediate_p</title>
<ellipse fill="black" stroke="black" cx="791" cy="-404" rx="0.036" ry="0.036"/>
</g>
<!-- FBPc_A_ase&#45;&gt;FBPc_A_ase_intermediate_p -->
<g id="edge140" class="edge"><title>FBPc_A_ase&#45;&gt;FBPc_A_ase_intermediate_p</title>
<path fill="none" stroke="black" d="M754.266,-404C766.372,-404 789.497,-404 790.93,-404"/>
</g>
<!-- FBPc_A_ase_intermediate_r&#45;&gt;FBPc_A_ase -->
<g id="edge136" class="edge"><title>FBPc_A_ase_intermediate_r&#45;&gt;FBPc_A_ase</title>
<path fill="none" stroke="black" d="M703.126,-404C705.022,-404 727.795,-404 739.759,-404"/>
</g>
<!-- FBPc_A_ase_intermediate_p&#45;&gt;HePc -->
<g id="edge142" class="edge"><title>FBPc_A_ase_intermediate_p&#45;&gt;HePc</title>
<path fill="none" stroke="black" d="M791.046,-404.028C792.155,-404.686 812.93,-417.021 830.505,-427.456"/>
<polygon fill="black" stroke="black" points="828.897,-430.572 839.282,-432.668 832.471,-424.553 828.897,-430.572"/>
</g>
<!-- FBPc_A_ase_intermediate_p&#45;&gt;Pic -->
<g id="edge144" class="edge"><title>FBPc_A_ase_intermediate_p&#45;&gt;Pic</title>
<path fill="none" stroke="black" d="M791.147,-404.014C794.16,-404.304 842.987,-409.036 882,-415 939.645,-423.813 1006.66,-436.903 1043.39,-444.324"/>
<polygon fill="black" stroke="black" points="1042.85,-447.785 1053.34,-446.347 1044.24,-440.926 1042.85,-447.785"/>
</g>
<!-- Suc_S -->
<g id="node134" class="node"><title>Suc_S</title>
<polygon fill="none" stroke="black" points="970,-530 956,-530 956,-516 970,-516 970,-530"/>
</g>
<!-- Suc_S_intermediate_p -->
<g id="node139" class="node"><title>Suc_S_intermediate_p</title>
<ellipse fill="black" stroke="black" cx="1007" cy="-520" rx="0.036" ry="0.036"/>
</g>
<!-- Suc_S&#45;&gt;Suc_S_intermediate_p -->
<g id="edge152" class="edge"><title>Suc_S&#45;&gt;Suc_S_intermediate_p</title>
<path fill="none" stroke="black" d="M970.266,-522.505C982.372,-521.679 1005.5,-520.103 1006.93,-520.005"/>
</g>
<!-- Suc_S_intermediate_r&#45;&gt;Suc_S -->
<g id="edge146" class="edge"><title>Suc_S_intermediate_r&#45;&gt;Suc_S</title>
<path fill="none" stroke="black" d="M919.032,-442.059C920.114,-444.052 948.464,-496.24 959.057,-515.741"/>
</g>
<!-- Suc_S_intermediate_p&#45;&gt;UDP -->
<g id="edge156" class="edge"><title>Suc_S_intermediate_p&#45;&gt;UDP</title>
<path fill="none" stroke="black" d="M1007.05,-519.988C1008.09,-519.728 1026.45,-515.137 1043.23,-510.941"/>
<polygon fill="black" stroke="black" points="1044.46,-514.243 1053.31,-508.422 1042.76,-507.452 1044.46,-514.243"/>
</g>
<!-- Suc_S_intermediate_p&#45;&gt;Suc -->
<g id="edge154" class="edge"><title>Suc_S_intermediate_p&#45;&gt;Suc</title>
<path fill="none" stroke="black" d="M1007.05,-520.028C1008.16,-520.686 1028.93,-533.021 1046.5,-543.456"/>
<polygon fill="black" stroke="black" points="1044.9,-546.572 1055.28,-548.668 1048.47,-540.553 1044.9,-546.572"/>
</g>
<!-- Suc_S_intermediate_p&#45;&gt;Pic -->
<g id="edge158" class="edge"><title>Suc_S_intermediate_p&#45;&gt;Pic</title>
<path fill="none" stroke="black" d="M1007.06,-519.929C1008.24,-518.474 1027.39,-494.905 1044,-477 1046.07,-474.768 1048.27,-472.467 1050.48,-470.195"/>
<polygon fill="black" stroke="black" points="1053.34,-472.284 1057.89,-462.717 1048.37,-467.356 1053.34,-472.284"/>
</g>
<!-- UTP_S -->
<g id="node144" class="node"><title>UTP_S</title>
<polygon fill="none" stroke="black" points="1186,-452 1172,-452 1172,-438 1186,-438 1186,-452"/>
</g>
<!-- UTP_S_intermediate_p -->
<g id="node149" class="node"><title>UTP_S_intermediate_p</title>
<ellipse fill="black" stroke="black" cx="1223" cy="-439" rx="0.036" ry="0.036"/>
</g>
<!-- UTP_S&#45;&gt;UTP_S_intermediate_p -->
<g id="edge166" class="edge"><title>UTP_S&#45;&gt;UTP_S_intermediate_p</title>
<path fill="none" stroke="black" d="M1186.27,-444.009C1198.37,-442.358 1221.5,-439.205 1222.93,-439.01"/>
</g>
<!-- UTP_S_intermediate_r&#45;&gt;UTP_S -->
<g id="edge160" class="edge"><title>UTP_S_intermediate_r&#45;&gt;UTP_S</title>
<path fill="none" stroke="black" d="M1135.13,-449.986C1137.02,-449.77 1159.79,-447.182 1171.76,-445.823"/>
</g>
<!-- UTP_S_intermediate_p&#45;&gt;UTP -->
<g id="edge168" class="edge"><title>UTP_S_intermediate_p&#45;&gt;UTP</title>
<path fill="none" stroke="black" d="M1223.05,-438.975C1224.14,-438.377 1244.31,-427.344 1261.72,-417.828"/>
<polygon fill="black" stroke="black" points="1263.86,-420.642 1270.96,-412.773 1260.51,-414.5 1263.86,-420.642"/>
</g>
<!-- Respi -->
<g id="node152" class="node"><title>Respi</title>
<polygon fill="none" stroke="black" points="1186,-568 1172,-568 1172,-554 1186,-554 1186,-568"/>
</g>
<!-- Respi_intermediate_p -->
<g id="node156" class="node"><title>Respi_intermediate_p</title>
<ellipse fill="black" stroke="black" cx="1223" cy="-562" rx="0.036" ry="0.036"/>
</g>
<!-- Respi&#45;&gt;Respi_intermediate_p -->
<g id="edge174" class="edge"><title>Respi&#45;&gt;Respi_intermediate_p</title>
<path fill="none" stroke="black" d="M1186.27,-561.165C1198.37,-561.44 1221.5,-561.966 1222.93,-561.998"/>
</g>
<!-- Respi_intermediate_r&#45;&gt;Respi -->
<g id="edge170" class="edge"><title>Respi_intermediate_r&#45;&gt;Respi</title>
<path fill="none" stroke="black" d="M1135.13,-559.006C1137.02,-559.092 1159.79,-560.127 1171.76,-560.671"/>
</g>
<!-- Respi_intermediate_p&#45;&gt;Resp -->
<g id="edge176" class="edge"><title>Respi_intermediate_p&#45;&gt;Resp</title>
<path fill="none" stroke="black" d="M1223.05,-562.003C1223.89,-562.056 1236.21,-562.826 1249.81,-563.676"/>
<polygon fill="black" stroke="black" points="1249.6,-567.169 1259.79,-564.3 1250.03,-560.183 1249.6,-567.169"/>
</g>
<!-- Diffu -->
<g id="node159" class="node"><title>Diffu</title>
<polygon fill="none" stroke="black" points="1186,-534 1172,-534 1172,-520 1186,-520 1186,-534"/>
</g>
<!-- Diffu_intermediate_p -->
<g id="node163" class="node"><title>Diffu_intermediate_p</title>
<ellipse fill="black" stroke="black" cx="1223" cy="-516" rx="0.036" ry="0.036"/>
</g>
<!-- Diffu&#45;&gt;Diffu_intermediate_p -->
<g id="edge182" class="edge"><title>Diffu&#45;&gt;Diffu_intermediate_p</title>
<path fill="none" stroke="black" d="M1186.27,-525.184C1198.37,-522.157 1221.5,-516.376 1222.93,-516.017"/>
</g>
<!-- Diffu_intermediate_r&#45;&gt;Diffu -->
<g id="edge178" class="edge"><title>Diffu_intermediate_r&#45;&gt;Diffu</title>
<path fill="none" stroke="black" d="M1135.13,-532.983C1137.02,-532.724 1159.79,-529.619 1171.76,-527.987"/>
</g>
<!-- Diffu_intermediate_p&#45;&gt;SucV -->
<g id="edge184" class="edge"><title>Diffu_intermediate_p&#45;&gt;SucV</title>
<path fill="none" stroke="black" d="M1223.05,-515.997C1224.08,-515.932 1242.23,-514.798 1258.93,-513.754"/>
<polygon fill="black" stroke="black" points="1259.21,-517.244 1268.98,-513.127 1258.78,-510.257 1259.21,-517.244"/>
</g>
<!-- Transl -->
<g id="node166" class="node"><title>Transl</title>
<polygon fill="none" stroke="black" points="1186,-497 1172,-497 1172,-483 1186,-483 1186,-497"/>
</g>
<!-- Transl_intermediate_p -->
<g id="node170" class="node"><title>Transl_intermediate_p</title>
<ellipse fill="black" stroke="black" cx="1223" cy="-489" rx="0.036" ry="0.036"/>
</g>
<!-- Transl&#45;&gt;Transl_intermediate_p -->
<g id="edge190" class="edge"><title>Transl&#45;&gt;Transl_intermediate_p</title>
<path fill="none" stroke="black" d="M1186.27,-489.835C1198.37,-489.56 1221.5,-489.034 1222.93,-489.002"/>
</g>
<!-- Transl_intermediate_r&#45;&gt;Transl -->
<g id="edge186" class="edge"><title>Transl_intermediate_r&#45;&gt;Transl</title>
<path fill="none" stroke="black" d="M1135.13,-501.966C1137.02,-501.449 1159.79,-495.238 1171.76,-491.975"/>
</g>
<!-- Transl_intermediate_p&#45;&gt;E -->
<g id="edge192" class="edge"><title>Transl_intermediate_p&#45;&gt;E</title>
<path fill="none" stroke="black" d="M1223.05,-488.978C1224.01,-488.509 1239.98,-480.776 1255.71,-473.155"/>
<polygon fill="black" stroke="black" points="1257.36,-476.246 1264.83,-468.736 1254.31,-469.946 1257.36,-476.246"/>
</g>
</g>
</svg>
