<?xml version="1.0" encoding="UTF-8" standalone="no"?>
<!DOCTYPE svg PUBLIC "-//W3C//DTD SVG 1.1//EN"
 "http://www.w3.org/Graphics/SVG/1.1/DTD/svg11.dtd">
<!-- Generated by graphviz version 2.30.1 (20140821.0912)
 -->
<!-- Title: G Pages: 1 -->
<svg width="926pt" height="299pt"
 viewBox="0.00 0.00 926.00 299.00" xmlns="http://www.w3.org/2000/svg" xmlns:xlink="http://www.w3.org/1999/xlink">
<g id="graph0" class="graph" transform="scale(1 1) rotate(0) translate(4 295)">
<title>G</title>
<polygon fill="white" stroke="white" points="-4,5 -4,-295 923,-295 923,5 -4,5"/>
<!-- Glucose -->
<g id="Glucose [CHEBI:17234]" class="node"><title>Glucose</title>
<ellipse fill="none" stroke="black" cx="30" cy="-223" rx="29.3664" ry="18"/>
<text text-anchor="middle" x="30" y="-220.5" font-family="Times,serif" font-size="10.00">Glucose</text>
</g>
<!-- v1a_intermediate_r -->
<g id="node8" class="node"><title>v1a_intermediate_r</title>
<ellipse fill="black" stroke="black" cx="97" cy="-223" rx="0.036" ry="0.036"/>
</g>
<!-- Glucose&#45;&gt;v1a_intermediate_r -->
<g id="edge3" class="edge"><title>Glucose&#45;&gt;v1a_intermediate_r</title>
<path fill="none" stroke="black" d="M59.6992,-223C76.5676,-223 94.8209,-223 95.9453,-223"/>
</g>
<!-- v3_intermediate_r -->
<g id="node20" class="node"><title>v3_intermediate_r</title>
<ellipse fill="black" stroke="black" cx="97" cy="-130" rx="0.036" ry="0.036"/>
</g>
<!-- Glucose&#45;&gt;v3_intermediate_r -->
<g id="edge20" class="edge"><title>Glucose&#45;&gt;v3_intermediate_r</title>
<path fill="none" stroke="black" d="M42.6207,-206.373C60.7327,-180.459 93.8479,-133.079 95.8999,-130.143"/>
</g>
<!-- Lysine -->
<g id="Lysine [CHEBI:25094]" class="node"><title>Lysine</title>
<ellipse fill="none" stroke="black" cx="619" cy="-273" rx="27" ry="18"/>
<text text-anchor="middle" x="619" y="-270.5" font-family="Times,serif" font-size="10.00">Lysine</text>
</g>
<!-- Lysine&#45;&gt;v1a_intermediate_r -->
<g id="edge2" class="edge"><title>Lysine&#45;&gt;v1a_intermediate_r</title>
<path fill="none" stroke="black" d="M593.05,-278.158C580.75,-280.444 565.661,-282.869 552,-284 528.082,-285.98 521.931,-285.814 498,-284 321.483,-270.618 104.886,-224.473 98.1606,-223.034"/>
</g>
<!-- v5_intermediate_r -->
<g id="node26" class="node"><title>v5_intermediate_r</title>
<ellipse fill="black" stroke="black" cx="713" cy="-145" rx="0.036" ry="0.036"/>
</g>
<!-- Lysine&#45;&gt;v5_intermediate_r -->
<g id="edge28" class="edge"><title>Lysine&#45;&gt;v5_intermediate_r</title>
<path fill="none" stroke="black" d="M631.652,-256.789C656.021,-222.884 710.27,-147.407 711.96,-145.056"/>
</g>
<!-- Schiff -->
<g id="Schiff" class="node"><title>Schiff</title>
<ellipse fill="none" stroke="black" cx="301" cy="-159" rx="27" ry="18"/>
<text text-anchor="middle" x="301" y="-156.5" font-family="Times,serif" font-size="10.00">Schiff</text>
</g>
<!-- v1b_intermediate_r -->
<g id="node11" class="node"><title>v1b_intermediate_r</title>
<ellipse fill="black" stroke="black" cx="365" cy="-200" rx="0.036" ry="0.036"/>
</g>
<!-- Schiff&#45;&gt;v1b_intermediate_r -->
<g id="edge7" class="edge"><title>Schiff&#45;&gt;v1b_intermediate_r</title>
<path fill="none" stroke="black" d="M320.939,-171.524C338.602,-183.205 362.455,-198.978 363.928,-199.953"/>
</g>
<!-- v2a_intermediate_r -->
<g id="node14" class="node"><title>v2a_intermediate_r</title>
<ellipse fill="black" stroke="black" cx="365" cy="-79" rx="0.036" ry="0.036"/>
</g>
<!-- Schiff&#45;&gt;v2a_intermediate_r -->
<g id="edge12" class="edge"><title>Schiff&#45;&gt;v2a_intermediate_r</title>
<path fill="none" stroke="black" d="M314.249,-143.195C331.753,-120.609 362.033,-81.5379 363.909,-79.118"/>
</g>
<!-- v6_intermediate_r -->
<g id="node32" class="node"><title>v6_intermediate_r</title>
<ellipse fill="black" stroke="black" cx="432" cy="-158" rx="0.036" ry="0.036"/>
</g>
<!-- Schiff&#45;&gt;v6_intermediate_r -->
<g id="edge36" class="edge"><title>Schiff&#45;&gt;v6_intermediate_r</title>
<path fill="none" stroke="black" d="M328.105,-158.798C365.21,-158.51 428.969,-158.016 430.953,-158"/>
</g>
<!-- v7a_intermediate_m -->
<g id="node37" class="node"><title>v7a_intermediate_m</title>
<ellipse fill="black" stroke="black" cx="365" cy="-218" rx="0.036" ry="0.036"/>
</g>
<!-- Schiff&#45;&gt;v7a_intermediate_m -->
<g id="edge43" class="edge"><title>Schiff&#45;&gt;v7a_intermediate_m</title>
<path fill="none" stroke="black" d="M317.326,-173.584C335.112,-190.51 362.24,-216.325 363.918,-217.922"/>
</g>
<!-- v7b_intermediate_m -->
<g id="node41" class="node"><title>v7b_intermediate_m</title>
<ellipse fill="black" stroke="black" cx="365" cy="-61" rx="0.036" ry="0.036"/>
</g>
<!-- Schiff&#45;&gt;v7b_intermediate_m -->
<g id="edge48" class="edge"><title>Schiff&#45;&gt;v7b_intermediate_m</title>
<path fill="none" stroke="black" d="M312.517,-142.376C329.654,-115.29 361.904,-64.3136 363.903,-61.1541"/>
</g>
<!-- v7c_intermediate_r -->
<g id="node43" class="node"><title>v7c_intermediate_r</title>
<ellipse fill="black" stroke="black" cx="365" cy="-182" rx="0.036" ry="0.036"/>
</g>
<!-- Schiff&#45;&gt;v7c_intermediate_r -->
<g id="edge50" class="edge"><title>Schiff&#45;&gt;v7c_intermediate_r</title>
<path fill="none" stroke="black" d="M325.087,-167.564C342.163,-173.899 362.673,-181.508 363.938,-181.977"/>
</g>
<!-- Amadori -->
<g id="Amadori" class="node"><title>Amadori</title>
<ellipse fill="none" stroke="black" cx="619" cy="-61" rx="31.3996" ry="18"/>
<text text-anchor="middle" x="619" y="-58.5" font-family="Times,serif" font-size="10.00">Amadori</text>
</g>
<!-- v2b_intermediate_r -->
<g id="node17" class="node"><title>v2b_intermediate_r</title>
<ellipse fill="black" stroke="black" cx="713" cy="-72" rx="0.036" ry="0.036"/>
</g>
<!-- Amadori&#45;&gt;v2b_intermediate_r -->
<g id="edge16" class="edge"><title>Amadori&#45;&gt;v2b_intermediate_r</title>
<path fill="none" stroke="black" d="M649.616,-64.541C675.67,-67.6562 709.79,-71.7358 711.897,-71.9877"/>
</g>
<!-- v4_intermediate_r -->
<g id="node23" class="node"><title>v4_intermediate_r</title>
<ellipse fill="black" stroke="black" cx="713" cy="-54" rx="0.036" ry="0.036"/>
</g>
<!-- Amadori&#45;&gt;v4_intermediate_r -->
<g id="edge24" class="edge"><title>Amadori&#45;&gt;v4_intermediate_r</title>
<path fill="none" stroke="black" d="M650.124,-58.7079C676.117,-56.7302 709.818,-54.166 711.899,-54.0077"/>
</g>
<!-- Glyoxal -->
<g id="Glyoxal [CHEBI:34779]" class="node"><title>Glyoxal</title>
<ellipse fill="none" stroke="black" cx="432" cy="-27" rx="29.3664" ry="18"/>
<text text-anchor="middle" x="432" y="-24.5" font-family="Times,serif" font-size="10.00">Glyoxal</text>
</g>
<!-- Glyoxal&#45;&gt;v5_intermediate_r -->
<g id="edge29" class="edge"><title>Glyoxal&#45;&gt;v5_intermediate_r</title>
<path fill="none" stroke="black" d="M449.657,-41.6468C462.233,-52.1003 480.295,-65.8703 498,-75 585.551,-120.148 708.101,-144.24 711.909,-144.982"/>
</g>
<!-- v5b_intermediate_r -->
<g id="node29" class="node"><title>v5b_intermediate_r</title>
<ellipse fill="black" stroke="black" cx="525" cy="-22" rx="0.036" ry="0.036"/>
</g>
<!-- Glyoxal&#45;&gt;v5b_intermediate_r -->
<g id="edge33" class="edge"><title>Glyoxal&#45;&gt;v5b_intermediate_r</title>
<path fill="none" stroke="black" d="M461.793,-25.418C487.62,-23.9989 521.787,-22.1216 523.897,-22.0056"/>
</g>
<!-- CML -->
<g id="CML" class="node"><title>CML</title>
<ellipse fill="none" stroke="black" cx="891" cy="-145" rx="27" ry="18"/>
<text text-anchor="middle" x="891" y="-142.5" font-family="Times,serif" font-size="10.00">CML</text>
</g>
<!-- v1a -->
<g id="node7" class="node"><title>v1a</title>
<polygon fill="none" stroke="black" points="148,-201 134,-201 134,-187 148,-187 148,-201"/>
</g>
<!-- v1a_intermediate_p -->
<g id="node9" class="node"><title>v1a_intermediate_p</title>
<ellipse fill="black" stroke="black" cx="211" cy="-165" rx="0.036" ry="0.036"/>
</g>
<!-- v1a&#45;&gt;v1a_intermediate_p -->
<g id="edge4" class="edge"><title>v1a&#45;&gt;v1a_intermediate_p</title>
<path fill="none" stroke="black" d="M148.275,-191.324C164.583,-184.369 207.222,-166.185 209.871,-165.055"/>
</g>
<!-- v1a_intermediate_r&#45;&gt;v1a -->
<g id="edge1" class="edge"><title>v1a_intermediate_r&#45;&gt;v1a</title>
<path fill="none" stroke="black" d="M98.1205,-222.917C99.9681,-221.641 122.602,-206.013 133.803,-198.279"/>
</g>
<!-- v1a_intermediate_p&#45;&gt;Schiff -->
<g id="edge5" class="edge"><title>v1a_intermediate_p&#45;&gt;Schiff</title>
<path fill="none" stroke="black" d="M212.064,-164.996C213.533,-164.895 240.103,-163.084 263.654,-161.478"/>
<polygon fill="black" stroke="black" points="264.082,-164.957 273.82,-160.785 263.606,-157.973 264.082,-164.957"/>
</g>
<!-- v1b -->
<g id="node10" class="node"><title>v1b</title>
<polygon fill="none" stroke="black" points="439,-231 425,-231 425,-217 439,-217 439,-231"/>
</g>
<!-- v1b_intermediate_p -->
<g id="node12" class="node"><title>v1b_intermediate_p</title>
<ellipse fill="black" stroke="black" cx="525" cy="-259" rx="0.036" ry="0.036"/>
</g>
<!-- v1b&#45;&gt;v1b_intermediate_p -->
<g id="edge8" class="edge"><title>v1b&#45;&gt;v1b_intermediate_p</title>
<path fill="none" stroke="black" d="M439.056,-226.534C450.505,-231.299 476.135,-241.848 498,-250 508.742,-254.005 522.194,-258.411 523.834,-258.946"/>
</g>
<!-- v1b_intermediate_r&#45;&gt;v1b -->
<g id="edge6" class="edge"><title>v1b_intermediate_r&#45;&gt;v1b</title>
<path fill="none" stroke="black" d="M366.047,-200.017C367.631,-200.602 408.724,-215.775 424.716,-221.68"/>
</g>
<!-- v1b_intermediate_p&#45;&gt;Lysine -->
<g id="edge9" class="edge"><title>v1b_intermediate_p&#45;&gt;Lysine</title>
<path fill="none" stroke="black" d="M526.067,-259.01C527.654,-259.252 557.293,-263.762 582.493,-267.597"/>
<polygon fill="black" stroke="black" points="582.159,-271.086 592.571,-269.13 583.212,-264.166 582.159,-271.086"/>
</g>
<!-- v1b_intermediate_p&#45;&gt;Glucose -->
<g id="edge10" class="edge"><title>v1b_intermediate_p&#45;&gt;Glucose</title>
<path fill="none" stroke="black" d="M523.874,-259.022C518.613,-259.961 349.172,-290 212,-290 140,-290 140,-290 140,-290 105.531,-290 72.8001,-265.383 52.3647,-245.992"/>
<polygon fill="black" stroke="black" points="54.7327,-243.411 45.1566,-238.878 49.8157,-248.394 54.7327,-243.411"/>
</g>
<!-- v2a -->
<g id="node13" class="node"><title>v2a</title>
<polygon fill="none" stroke="black" points="439,-78 425,-78 425,-64 439,-64 439,-78"/>
</g>
<!-- v2a_intermediate_p -->
<g id="node15" class="node"><title>v2a_intermediate_p</title>
<ellipse fill="black" stroke="black" cx="525" cy="-66" rx="0.036" ry="0.036"/>
</g>
<!-- v2a&#45;&gt;v2a_intermediate_p -->
<g id="edge13" class="edge"><title>v2a&#45;&gt;v2a_intermediate_p</title>
<path fill="none" stroke="black" d="M439.255,-70.6563C459.493,-69.5443 522.005,-66.1096 523.953,-66.0026"/>
</g>
<!-- v2a_intermediate_r&#45;&gt;v2a -->
<g id="edge11" class="edge"><title>v2a_intermediate_r&#45;&gt;v2a</title>
<path fill="none" stroke="black" d="M366.047,-78.9942C367.631,-78.7993 408.724,-73.7416 424.716,-71.7734"/>
</g>
<!-- v2a_intermediate_p&#45;&gt;Amadori -->
<g id="edge14" class="edge"><title>v2a_intermediate_p&#45;&gt;Amadori</title>
<path fill="none" stroke="black" d="M526.067,-65.9964C527.552,-65.9156 553.591,-64.5005 577.576,-63.1969"/>
<polygon fill="black" stroke="black" points="577.857,-66.6869 587.653,-62.6493 577.477,-59.6972 577.857,-66.6869"/>
</g>
<!-- v2b -->
<g id="node16" class="node"><title>v2b</title>
<polygon fill="none" stroke="black" points="790,-79 776,-79 776,-65 790,-65 790,-79"/>
</g>
<!-- v2b_intermediate_p -->
<g id="node18" class="node"><title>v2b_intermediate_p</title>
<ellipse fill="black" stroke="black" cx="827" cy="-95" rx="0.036" ry="0.036"/>
</g>
<!-- v2b&#45;&gt;v2b_intermediate_p -->
<g id="edge17" class="edge"><title>v2b&#45;&gt;v2b_intermediate_p</title>
<path fill="none" stroke="black" d="M790.197,-75.3937C801.515,-81.5916 824.505,-94.1811 825.93,-94.9619"/>
</g>
<!-- v2b_intermediate_r&#45;&gt;v2b -->
<g id="edge15" class="edge"><title>v2b_intermediate_r&#45;&gt;v2b</title>
<path fill="none" stroke="black" d="M714.049,-72C715.722,-72 759.535,-72 775.906,-72"/>
</g>
<!-- v2b_intermediate_p&#45;&gt;Schiff -->
<g id="edge18" class="edge"><title>v2b_intermediate_p&#45;&gt;Schiff</title>
<path fill="none" stroke="black" d="M825.955,-95.0087C824.067,-95.3721 763.28,-107 714,-107 431,-107 431,-107 431,-107 393.795,-107 354.645,-125.837 329.369,-140.836"/>
<polygon fill="black" stroke="black" points="327.407,-137.933 320.714,-146.146 331.068,-143.9 327.407,-137.933"/>
</g>
<!-- v3 -->
<g id="node19" class="node"><title>v3</title>
<polygon fill="none" stroke="black" points="308,-32 294,-32 294,-18 308,-18 308,-32"/>
</g>
<!-- v3_intermediate_p -->
<g id="node21" class="node"><title>v3_intermediate_p</title>
<ellipse fill="black" stroke="black" cx="365" cy="-25" rx="0.036" ry="0.036"/>
</g>
<!-- v3&#45;&gt;v3_intermediate_p -->
<g id="edge21" class="edge"><title>v3&#45;&gt;v3_intermediate_p</title>
<path fill="none" stroke="black" d="M308.171,-25C323.364,-25 361.515,-25 363.884,-25"/>
</g>
<!-- v3_intermediate_r&#45;&gt;v3 -->
<g id="edge19" class="edge"><title>v3_intermediate_r&#45;&gt;v3</title>
<path fill="none" stroke="black" d="M98.0277,-129.955C99.1869,-128.092 136.654,-68.2816 184,-44 222.133,-24.4436 275.762,-24.1866 293.804,-24.7256"/>
</g>
<!-- v3_intermediate_p&#45;&gt;Glyoxal -->
<g id="edge22" class="edge"><title>v3_intermediate_p&#45;&gt;Glyoxal</title>
<path fill="none" stroke="black" d="M366.047,-25.0014C366.88,-25.0271 378.649,-25.3892 391.944,-25.7983"/>
<polygon fill="black" stroke="black" points="392.151,-29.3062 402.254,-26.1155 392.366,-22.3095 392.151,-29.3062"/>
</g>
<!-- v4 -->
<g id="node22" class="node"><title>v4</title>
<polygon fill="none" stroke="black" points="790,-47 776,-47 776,-33 790,-33 790,-47"/>
</g>
<!-- v4_intermediate_p -->
<g id="node24" class="node"><title>v4_intermediate_p</title>
<ellipse fill="black" stroke="black" cx="827" cy="-53" rx="0.036" ry="0.036"/>
</g>
<!-- v4&#45;&gt;v4_intermediate_p -->
<g id="edge25" class="edge"><title>v4&#45;&gt;v4_intermediate_p</title>
<path fill="none" stroke="black" d="M790.197,-41.9182C801.515,-45.4214 824.505,-52.5372 825.93,-52.9785"/>
</g>
<!-- v4_intermediate_r&#45;&gt;v4 -->
<g id="edge23" class="edge"><title>v4_intermediate_r&#45;&gt;v4</title>
<path fill="none" stroke="black" d="M714.049,-53.9899C715.722,-53.6454 759.535,-44.6252 775.906,-41.2547"/>
</g>
<!-- v4_intermediate_p&#45;&gt;CML -->
<g id="edge26" class="edge"><title>v4_intermediate_p&#45;&gt;CML</title>
<path fill="none" stroke="black" d="M828.045,-53.0667C829.27,-54.8852 855.296,-93.5033 873.221,-120.103"/>
<polygon fill="black" stroke="black" points="870.451,-122.255 878.942,-128.592 876.256,-118.343 870.451,-122.255"/>
</g>
<!-- v5 -->
<g id="node25" class="node"><title>v5</title>
<polygon fill="none" stroke="black" points="790,-152 776,-152 776,-138 790,-138 790,-152"/>
</g>
<!-- v5_intermediate_p -->
<g id="node27" class="node"><title>v5_intermediate_p</title>
<ellipse fill="black" stroke="black" cx="827" cy="-145" rx="0.036" ry="0.036"/>
</g>
<!-- v5&#45;&gt;v5_intermediate_p -->
<g id="edge30" class="edge"><title>v5&#45;&gt;v5_intermediate_p</title>
<path fill="none" stroke="black" d="M790.197,-145C801.515,-145 824.505,-145 825.93,-145"/>
</g>
<!-- v5_intermediate_r&#45;&gt;v5 -->
<g id="edge27" class="edge"><title>v5_intermediate_r&#45;&gt;v5</title>
<path fill="none" stroke="black" d="M714.049,-145C715.722,-145 759.535,-145 775.906,-145"/>
</g>
<!-- v5_intermediate_p&#45;&gt;CML -->
<g id="edge31" class="edge"><title>v5_intermediate_p&#45;&gt;CML</title>
<path fill="none" stroke="black" d="M828.045,-145C828.863,-145 840.734,-145 853.87,-145"/>
<polygon fill="black" stroke="black" points="853.998,-148.5 863.998,-145 853.998,-141.5 853.998,-148.5"/>
</g>
<!-- v5b -->
<g id="node28" class="node"><title>v5b</title>
<polygon fill="none" stroke="black" points="626,-25 612,-25 612,-11 626,-11 626,-25"/>
</g>
<!-- v5b_empty -->
<g id="node30" class="node"><title>v5b_empty</title>
<text text-anchor="middle" x="713" y="-14.5" font-family="Times,serif" font-size="15.00" fill="blue">Ø</text>
</g>
<!-- v5b&#45;&gt;v5b_empty -->
<g id="edge34" class="edge"><title>v5b&#45;&gt;v5b_empty</title>
<path fill="none" stroke="black" d="M626.036,-18C636.088,-18 656.999,-18 675.679,-18"/>
<polygon fill="black" stroke="black" points="675.744,-21.5001 685.744,-18 675.744,-14.5001 675.744,-21.5001"/>
</g>
<!-- v5b_intermediate_r&#45;&gt;v5b -->
<g id="edge32" class="edge"><title>v5b_intermediate_r&#45;&gt;v5b</title>
<path fill="none" stroke="black" d="M526.067,-21.9971C528.406,-21.8954 591.66,-19.1452 611.861,-18.2669"/>
</g>
<!-- v6 -->
<g id="node31" class="node"><title>v6</title>
<polygon fill="none" stroke="black" points="532,-187 518,-187 518,-173 532,-173 532,-187"/>
</g>
<!-- v6_intermediate_p -->
<g id="node33" class="node"><title>v6_intermediate_p</title>
<ellipse fill="black" stroke="black" cx="619" cy="-180" rx="0.036" ry="0.036"/>
</g>
<!-- v6&#45;&gt;v6_intermediate_p -->
<g id="edge37" class="edge"><title>v6&#45;&gt;v6_intermediate_p</title>
<path fill="none" stroke="black" d="M532.036,-180C552.184,-180 615.964,-180 617.952,-180"/>
</g>
<!-- v6_intermediate_r&#45;&gt;v6 -->
<g id="edge35" class="edge"><title>v6_intermediate_r&#45;&gt;v6</title>
<path fill="none" stroke="black" d="M433.066,-158.016C435.38,-158.575 497.946,-173.701 517.928,-178.532"/>
</g>
<!-- v6_intermediate_p&#45;&gt;CML -->
<g id="edge38" class="edge"><title>v6_intermediate_p&#45;&gt;CML</title>
<path fill="none" stroke="black" d="M620.069,-179.994C622.954,-179.726 715.843,-171.071 790,-161 811.462,-158.085 835.424,-154.271 854.511,-151.098"/>
<polygon fill="black" stroke="black" points="855.283,-154.517 864.566,-149.41 854.125,-147.613 855.283,-154.517"/>
</g>
<!-- v7a -->
<g id="node34" class="node"><title>v7a</title>
<polygon fill="none" stroke="black" points="308,-224 294,-224 294,-210 308,-210 308,-224"/>
</g>
<!-- v7a_intermediate_p -->
<g id="node36" class="node"><title>v7a_intermediate_p</title>
<ellipse fill="black" stroke="black" cx="432" cy="-253" rx="0.036" ry="0.036"/>
</g>
<!-- v7a&#45;&gt;v7a_intermediate_p -->
<g id="edge40" class="edge"><title>v7a&#45;&gt;v7a_intermediate_p</title>
<path fill="none" stroke="black" d="M308.222,-218.736C333.588,-225.815 427.986,-252.159 430.93,-252.98"/>
</g>
<!-- v7a&#45;&gt;v7a_intermediate_m -->
<g id="edge42" class="edge"><title>v7a&#45;&gt;v7a_intermediate_m</title>
<path fill="none" stroke="black" d="M308.171,-217.1C323.364,-217.345 361.515,-217.96 363.884,-217.998"/>
</g>
<!-- v7a_empty -->
<g id="node35" class="node"><title>v7a_empty</title>
<text text-anchor="middle" x="211" y="-202.5" font-family="Times,serif" font-size="15.00" fill="blue">Ø</text>
</g>
<!-- v7a_empty&#45;&gt;v7a -->
<g id="edge39" class="edge"><title>v7a_empty&#45;&gt;v7a</title>
<path fill="none" stroke="black" d="M238.403,-209.3C257.641,-211.705 282.253,-214.782 293.665,-216.208"/>
</g>
<!-- v7a_intermediate_p&#45;&gt;Lysine -->
<g id="edge41" class="edge"><title>v7a_intermediate_p&#45;&gt;Lysine</title>
<path fill="none" stroke="black" d="M433.103,-253.032C435.22,-253.683 469.537,-264.157 498,-268 525.9,-271.767 557.751,-272.952 581.624,-273.23"/>
<polygon fill="black" stroke="black" points="581.635,-276.73 591.659,-273.299 581.684,-269.73 581.635,-276.73"/>
</g>
<!-- v7b -->
<g id="node38" class="node"><title>v7b</title>
<polygon fill="none" stroke="black" points="308,-68 294,-68 294,-54 308,-54 308,-68"/>
</g>
<!-- v7b_intermediate_p -->
<g id="node40" class="node"><title>v7b_intermediate_p</title>
<ellipse fill="black" stroke="black" cx="365" cy="-43" rx="0.036" ry="0.036"/>
</g>
<!-- v7b&#45;&gt;v7b_intermediate_p -->
<g id="edge45" class="edge"><title>v7b&#45;&gt;v7b_intermediate_p</title>
<path fill="none" stroke="black" d="M308.171,-59.2083C323.364,-54.7977 361.515,-43.7215 363.884,-43.0336"/>
</g>
<!-- v7b&#45;&gt;v7b_intermediate_m -->
<g id="edge47" class="edge"><title>v7b&#45;&gt;v7b_intermediate_m</title>
<path fill="none" stroke="black" d="M308.171,-61C323.364,-61 361.515,-61 363.884,-61"/>
</g>
<!-- v7b_empty -->
<g id="node39" class="node"><title>v7b_empty</title>
<text text-anchor="middle" x="211" y="-67.5" font-family="Times,serif" font-size="15.00" fill="blue">Ø</text>
</g>
<!-- v7b_empty&#45;&gt;v7b -->
<g id="edge44" class="edge"><title>v7b_empty&#45;&gt;v7b</title>
<path fill="none" stroke="black" d="M238.403,-67.9997C257.641,-65.8135 282.253,-63.0167 293.665,-61.7199"/>
</g>
<!-- v7b_intermediate_p&#45;&gt;Glyoxal -->
<g id="edge46" class="edge"><title>v7b_intermediate_p&#45;&gt;Glyoxal</title>
<path fill="none" stroke="black" d="M366.047,-42.9884C366.934,-42.77 380.215,-39.501 394.537,-35.9754"/>
<polygon fill="black" stroke="black" points="395.606,-39.3168 404.48,-33.528 393.933,-32.5197 395.606,-39.3168"/>
</g>
<!-- v7c -->
<g id="node42" class="node"><title>v7c</title>
<polygon fill="none" stroke="black" points="439,-194 425,-194 425,-180 439,-180 439,-194"/>
</g>
<!-- v7c_empty -->
<g id="node44" class="node"><title>v7c_empty</title>
<text text-anchor="middle" x="525" y="-219.5" font-family="Times,serif" font-size="15.00" fill="blue">Ø</text>
</g>
<!-- v7c&#45;&gt;v7c_empty -->
<g id="edge51" class="edge"><title>v7c&#45;&gt;v7c_empty</title>
<path fill="none" stroke="black" d="M439.255,-189.474C449.376,-193.479 470.072,-201.666 488.476,-208.947"/>
<polygon fill="black" stroke="black" points="487.238,-212.221 497.824,-212.645 489.813,-205.711 487.238,-212.221"/>
</g>
<!-- v7c_intermediate_r&#45;&gt;v7c -->
<g id="edge49" class="edge"><title>v7c_intermediate_r&#45;&gt;v7c</title>
<path fill="none" stroke="black" d="M366.047,-182.004C367.631,-182.125 408.724,-185.286 424.716,-186.517"/>
</g>
</g>
</svg>
