<?xml version="1.0" encoding="UTF-8" standalone="no"?>
<!DOCTYPE svg PUBLIC "-//W3C//DTD SVG 1.1//EN"
 "http://www.w3.org/Graphics/SVG/1.1/DTD/svg11.dtd">
<!-- Generated by graphviz version 2.24.0 (20090616.2323)
 -->
<!-- Title: G Pages: 1 -->
<svg width="1638pt" height="353pt"
 viewBox="0.00 0.00 1638.00 353.00" xmlns="http://www.w3.org/2000/svg" xmlns:xlink="http://www.w3.org/1999/xlink">
<g id="graph1" class="graph" transform="scale(1 1) rotate(0) translate(4 349)">
<title>G</title>
<polygon fill="white" stroke="white" points="-4,5 -4,-349 1635,-349 1635,5 -4,5"/>
<!-- aspp -->
<g id="node1" class="node"><title>aspp</title>
<ellipse fill="none" stroke="black" cx="314" cy="-175" rx="70.1769" ry="18"/>
<text text-anchor="middle" x="314" y="-172.5" font-family="Times Roman,serif" font-size="10.00">Aspartyl phosphate</text>
</g>
<!-- vasd_intermediate_r -->
<g id="node25" class="node"><title>vasd_intermediate_r</title>
<ellipse fill="black" stroke="black" cx="421" cy="-175" rx="0.036" ry="0.036"/>
</g>
<!-- aspp&#45;&gt;vasd_intermediate_r -->
<g id="edge22" class="edge"><title>aspp&#45;&gt;vasd_intermediate_r</title>
<path fill="none" stroke="black" d="M394.32,-175C409.059,-175 420.135,-175 420.952,-175"/>
<polygon fill="black" stroke="black" points="394.177,-171.5 384.177,-175 394.177,-178.5 394.177,-171.5"/>
</g>
<!-- asa -->
<g id="node2" class="node"><title>asa</title>
<ellipse fill="none" stroke="black" cx="662" cy="-165" rx="102.919" ry="18"/>
<text text-anchor="middle" x="662" y="-162.5" font-family="Times Roman,serif" font-size="10.00">Aspartate beta&#45;semialdehyde</text>
</g>
<!-- vhdh_intermediate_r -->
<g id="node35" class="node"><title>vhdh_intermediate_r</title>
<ellipse fill="black" stroke="black" cx="803" cy="-171" rx="0.036" ry="0.036"/>
</g>
<!-- asa&#45;&gt;vhdh_intermediate_r -->
<g id="edge36" class="edge"><title>asa&#45;&gt;vhdh_intermediate_r</title>
<path fill="none" stroke="black" d="M773.017,-169.724C789.884,-170.442 802.067,-170.96 802.949,-170.998"/>
<polygon fill="black" stroke="black" points="772.735,-166.209 762.595,-169.281 772.437,-173.203 772.735,-166.209"/>
</g>
<!-- hs -->
<g id="node3" class="node"><title>hs</title>
<ellipse fill="none" stroke="black" cx="975" cy="-205" rx="46.7846" ry="18"/>
<text text-anchor="middle" x="975" y="-202.5" font-family="Times Roman,serif" font-size="10.00">Homoserine</text>
</g>
<!-- vhk_intermediate_r -->
<g id="node56" class="node"><title>vhk_intermediate_r</title>
<ellipse fill="black" stroke="black" cx="1059" cy="-171" rx="0.036" ry="0.036"/>
</g>
<!-- hs&#45;&gt;vhk_intermediate_r -->
<g id="edge62" class="edge"><title>hs&#45;&gt;vhk_intermediate_r</title>
<path fill="none" stroke="black" d="M1017.23,-187.906C1037.4,-179.743 1057.5,-171.608 1058.92,-171.032"/>
<polygon fill="black" stroke="black" points="1015.67,-184.761 1007.72,-191.757 1018.3,-191.25 1015.67,-184.761"/>
</g>
<!-- hsp -->
<g id="node4" class="node"><title>hsp</title>
<ellipse fill="none" stroke="black" cx="1267" cy="-203" rx="81.9887" ry="18"/>
<text text-anchor="middle" x="1267" y="-200.5" font-family="Times Roman,serif" font-size="10.00">O&#45;Phospho&#45;homoserine</text>
</g>
<!-- vtsy_intermediate_r -->
<g id="node48" class="node"><title>vtsy_intermediate_r</title>
<ellipse fill="black" stroke="black" cx="1387" cy="-203" rx="0.036" ry="0.036"/>
</g>
<!-- hsp&#45;&gt;vtsy_intermediate_r -->
<g id="edge52" class="edge"><title>hsp&#45;&gt;vtsy_intermediate_r</title>
<path fill="none" stroke="black" d="M1360.09,-203C1375.14,-203 1386.14,-203 1386.95,-203"/>
<polygon fill="black" stroke="black" points="1359.69,-199.5 1349.69,-203 1359.69,-206.5 1359.69,-199.5"/>
</g>
<!-- phos -->
<g id="node5" class="node"><title>phos</title>
<ellipse fill="none" stroke="black" cx="1553" cy="-111" rx="18" ry="18"/>
<text text-anchor="middle" x="1553" y="-108.5" font-family="Times Roman,serif" font-size="10.00">Phos</text>
</g>
<!-- thr -->
<g id="node6" class="node"><title>thr</title>
<ellipse fill="none" stroke="black" cx="1553" cy="-203" rx="40.1272" ry="18"/>
<text text-anchor="middle" x="1553" y="-200.5" font-family="Times Roman,serif" font-size="10.00">Threonine</text>
</g>
<!-- vak_intermediate_m -->
<g id="node21" class="node"><title>vak_intermediate_m</title>
<ellipse fill="black" stroke="black" cx="1630" cy="-217" rx="0.036" ry="0.036"/>
</g>
<!-- thr&#45;&gt;vak_intermediate_m -->
<g id="edge16" class="edge"><title>thr&#45;&gt;vak_intermediate_m</title>
<path fill="none" stroke="black" d="M1590.6,-209.836C1609.53,-213.279 1628.76,-216.774 1629.94,-216.99"/>
</g>
<!-- vhdh_intermediate_m -->
<g id="node43" class="node"><title>vhdh_intermediate_m</title>
<ellipse fill="black" stroke="black" cx="1630" cy="-249" rx="0.036" ry="0.036"/>
</g>
<!-- thr&#45;&gt;vhdh_intermediate_m -->
<g id="edge48" class="edge"><title>thr&#45;&gt;vhdh_intermediate_m</title>
<path fill="none" stroke="black" d="M1577.36,-217.555C1599.22,-230.61 1628.13,-247.881 1629.91,-248.948"/>
</g>
<!-- vhk_intermediate_m -->
<g id="node64" class="node"><title>vhk_intermediate_m</title>
<ellipse fill="black" stroke="black" cx="1630" cy="-185" rx="0.036" ry="0.036"/>
</g>
<!-- thr&#45;&gt;vhk_intermediate_m -->
<g id="edge74" class="edge"><title>thr&#45;&gt;vhk_intermediate_m</title>
<path fill="none" stroke="black" d="M1589.25,-194.527C1608.59,-190.004 1628.7,-185.303 1629.94,-185.014"/>
</g>
<!-- asp -->
<g id="node7" class="node"><title>asp</title>
<ellipse fill="none" stroke="black" cx="41" cy="-293" rx="41.2443" ry="18"/>
<text text-anchor="middle" x="41" y="-290.5" font-family="Times Roman,serif" font-size="10.00">Aspartate</text>
</g>
<!-- vak_intermediate_r -->
<g id="node13" class="node"><title>vak_intermediate_r</title>
<ellipse fill="black" stroke="black" cx="119" cy="-241" rx="0.036" ry="0.036"/>
</g>
<!-- asp&#45;&gt;vak_intermediate_r -->
<g id="edge6" class="edge"><title>asp&#45;&gt;vak_intermediate_r</title>
<path fill="none" stroke="black" d="M71.9872,-272.342C92.983,-258.345 117.217,-242.189 118.906,-241.062"/>
<polygon fill="black" stroke="black" points="69.9399,-269.5 63.5608,-277.959 73.8228,-275.325 69.9399,-269.5"/>
</g>
<!-- asp&#45;&gt;vhdh_intermediate_m -->
<g id="edge46" class="edge"><title>asp&#45;&gt;vhdh_intermediate_m</title>
<path fill="none" stroke="black" d="M62.7453,-308.602C86.2723,-323.919 125.47,-345 163,-345 163,-345 163,-345 1475,-345 1533.08,-345 1547.56,-325.875 1594,-291 1613.05,-276.699 1628.98,-250.69 1629.95,-249.079"/>
</g>
<!-- nadp -->
<g id="node8" class="node"><title>nadp</title>
<ellipse fill="none" stroke="black" cx="975" cy="-259" rx="18" ry="18"/>
<text text-anchor="middle" x="975" y="-256.5" font-family="Times Roman,serif" font-size="10.00">NADP</text>
</g>
<!-- nadph -->
<g id="node9" class="node"><title>nadph</title>
<ellipse fill="none" stroke="black" cx="314" cy="-231" rx="18" ry="18"/>
<text text-anchor="middle" x="314" y="-228.5" font-family="Times Roman,serif" font-size="10.00">NADPH</text>
</g>
<!-- nadph&#45;&gt;vasd_intermediate_r -->
<g id="edge20" class="edge"><title>nadph&#45;&gt;vasd_intermediate_r</title>
<path fill="none" stroke="black" d="M340.78,-221.625C354.121,-216.529 370.289,-209.698 384,-202 401.196,-192.345 419.798,-176.058 420.944,-175.049"/>
<polygon fill="black" stroke="black" points="339.376,-218.413 331.216,-225.17 341.809,-224.977 339.376,-218.413"/>
</g>
<!-- nadph&#45;&gt;vhdh_intermediate_r -->
<g id="edge34" class="edge"><title>nadph&#45;&gt;vhdh_intermediate_r</title>
<path fill="none" stroke="black" d="M342.334,-232.677C414.759,-236.092 611.818,-239.889 766,-192 783.493,-186.567 801.817,-171.952 802.945,-171.044"/>
<polygon fill="black" stroke="black" points="342.353,-229.173 332.188,-232.161 341.997,-236.164 342.353,-229.173"/>
</g>
<!-- vnadph_endo_intermediate_r -->
<g id="node68" class="node"><title>vnadph_endo_intermediate_r</title>
<ellipse fill="black" stroke="black" cx="465" cy="-270" rx="0.036" ry="0.036"/>
</g>
<!-- nadph&#45;&gt;vnadph_endo_intermediate_r -->
<g id="edge78" class="edge"><title>nadph&#45;&gt;vnadph_endo_intermediate_r</title>
<path fill="none" stroke="black" d="M341.421,-238.082C384.217,-249.136 462.306,-269.304 464.932,-269.982"/>
<polygon fill="black" stroke="black" points="342.175,-234.662 331.617,-235.55 340.424,-241.44 342.175,-234.662"/>
</g>
<!-- adp -->
<g id="node10" class="node"><title>adp</title>
<ellipse fill="none" stroke="black" cx="1267" cy="-73" rx="18" ry="18"/>
<text text-anchor="middle" x="1267" y="-70.5" font-family="Times Roman,serif" font-size="10.00">ADP</text>
</g>
<!-- atp -->
<g id="node11" class="node"><title>atp</title>
<ellipse fill="none" stroke="black" cx="41" cy="-43" rx="18" ry="18"/>
<text text-anchor="middle" x="41" y="-40.5" font-family="Times Roman,serif" font-size="10.00">ATP</text>
</g>
<!-- atp&#45;&gt;vak_intermediate_r -->
<g id="edge4" class="edge"><title>atp&#45;&gt;vak_intermediate_r</title>
<path fill="none" stroke="black" d="M51.363,-69.3061C72.2304,-122.277 117.464,-237.102 118.962,-240.903"/>
<polygon fill="black" stroke="black" points="54.572,-67.9026 47.6502,-59.8814 48.0591,-70.4683 54.572,-67.9026"/>
</g>
<!-- atp&#45;&gt;vhk_intermediate_r -->
<g id="edge64" class="edge"><title>atp&#45;&gt;vhk_intermediate_r</title>
<path fill="none" stroke="black" d="M69.3148,-43C94.0412,-43 130.897,-43 163,-43 163,-43 163,-43 891,-43 983.403,-43 1056.68,-167.031 1058.95,-170.907"/>
<polygon fill="black" stroke="black" points="69.1891,-39.5001 59.1891,-43 69.189,-46.5001 69.1891,-39.5001"/>
</g>
<!-- vatpase_intermediate_r -->
<g id="node75" class="node"><title>vatpase_intermediate_r</title>
<ellipse fill="black" stroke="black" cx="119" cy="-11" rx="0.036" ry="0.036"/>
</g>
<!-- atp&#45;&gt;vatpase_intermediate_r -->
<g id="edge86" class="edge"><title>atp&#45;&gt;vatpase_intermediate_r</title>
<path fill="none" stroke="black" d="M67.4205,-32.1608C89.2355,-23.2111 116.931,-11.8487 118.89,-11.0452"/>
<polygon fill="black" stroke="black" points="65.8481,-29.0228 57.9248,-36.0565 68.505,-35.4989 65.8481,-29.0228"/>
</g>
<!-- vak -->
<g id="node12" class="node"><title>vak</title>
<polygon fill="none" stroke="black" points="170,-248 156,-248 156,-234 170,-234 170,-248"/>
</g>
<!-- vak_intermediate_p -->
<g id="node17" class="node"><title>vak_intermediate_p</title>
<ellipse fill="black" stroke="black" cx="207" cy="-175" rx="0.036" ry="0.036"/>
</g>
<!-- vak&#45;&gt;vak_intermediate_p -->
<g id="edge8" class="edge"><title>vak&#45;&gt;vak_intermediate_p</title>
<path fill="none" stroke="black" d="M167.709,-233.937C178.705,-217.443 205.27,-177.595 206.92,-175.121"/>
</g>
<!-- vak&#45;&gt;vak_intermediate_m -->
<g id="edge14" class="edge"><title>vak&#45;&gt;vak_intermediate_m</title>
<path fill="none" stroke="black" d="M179.731,-253.804C206.531,-272.997 261.429,-307 314,-307 314,-307 314,-307 1475,-307 1553.42,-307 1627.64,-219.791 1629.95,-217.065"/>
<polygon fill="none" stroke="black" points="179.693,-253.775 172.491,-253.414 170.055,-246.627 177.257,-246.988 179.693,-253.775"/>
</g>
<!-- vak_intermediate_r&#45;&gt;vak -->
<g id="edge2" class="edge"><title>vak_intermediate_r&#45;&gt;vak</title>
<path fill="none" stroke="black" d="M119.126,-241C121.022,-241 143.795,-241 155.759,-241"/>
</g>
<!-- vak_intermediate_p&#45;&gt;aspp -->
<g id="edge10" class="edge"><title>vak_intermediate_p&#45;&gt;aspp</title>
<path fill="none" stroke="black" d="M207.078,-175C208.1,-175 219.129,-175 233.746,-175"/>
<polygon fill="black" stroke="black" points="233.8,-178.5 243.8,-175 233.8,-171.5 233.8,-178.5"/>
</g>
<!-- vak_intermediate_p&#45;&gt;adp -->
<g id="edge12" class="edge"><title>vak_intermediate_p&#45;&gt;adp</title>
<path fill="none" stroke="black" d="M207.08,-174.932C210.44,-172.085 318.741,-81 421,-81 421,-81 421,-81 1103,-81 1150.64,-81 1205.96,-77.5911 1238.64,-75.2238"/>
<polygon fill="black" stroke="black" points="1239.1,-78.6995 1248.81,-74.4673 1238.58,-71.7188 1239.1,-78.6995"/>
</g>
<!-- vasd -->
<g id="node24" class="node"><title>vasd</title>
<polygon fill="none" stroke="black" points="472,-179 458,-179 458,-165 472,-165 472,-179"/>
</g>
<!-- vasd_intermediate_p -->
<g id="node29" class="node"><title>vasd_intermediate_p</title>
<ellipse fill="black" stroke="black" cx="515" cy="-166" rx="0.036" ry="0.036"/>
</g>
<!-- vasd&#45;&gt;vasd_intermediate_p -->
<g id="edge24" class="edge"><title>vasd&#45;&gt;vasd_intermediate_p</title>
<path fill="none" stroke="black" d="M472.378,-171.115C485.851,-169.498 513.22,-166.214 514.917,-166.01"/>
</g>
<!-- vasd_intermediate_r&#45;&gt;vasd -->
<g id="edge18" class="edge"><title>vasd_intermediate_r&#45;&gt;vasd</title>
<path fill="none" stroke="black" d="M421.126,-174.991C423.022,-174.862 445.795,-173.309 457.759,-172.494"/>
</g>
<!-- vasd_intermediate_p&#45;&gt;asa -->
<g id="edge30" class="edge"><title>vasd_intermediate_p&#45;&gt;asa</title>
<path fill="none" stroke="black" d="M515.107,-165.999C516.432,-165.99 529.988,-165.898 548.374,-165.773"/>
<polygon fill="black" stroke="black" points="548.414,-169.273 558.39,-165.705 548.367,-162.273 548.414,-169.273"/>
</g>
<!-- vasd_intermediate_p&#45;&gt;phos -->
<g id="edge28" class="edge"><title>vasd_intermediate_p&#45;&gt;phos</title>
<path fill="none" stroke="black" d="M515.062,-165.94C516.338,-164.721 537.08,-145.103 558,-138 661.418,-102.889 693.784,-119 803,-119 803,-119 803,-119 1431,-119 1463.17,-119 1500.02,-116.196 1524.72,-113.908"/>
<polygon fill="black" stroke="black" points="1525.22,-117.376 1534.84,-112.937 1524.55,-110.408 1525.22,-117.376"/>
</g>
<!-- vasd_intermediate_p&#45;&gt;nadp -->
<g id="edge26" class="edge"><title>vasd_intermediate_p&#45;&gt;nadp</title>
<path fill="none" stroke="black" d="M515.064,-166.053C516.376,-167.134 537.688,-184.549 558,-192 697.835,-243.293 878.308,-255.37 946.884,-258.171"/>
<polygon fill="black" stroke="black" points="946.782,-261.669 956.906,-258.545 947.044,-254.674 946.782,-261.669"/>
</g>
<!-- vhdh -->
<g id="node34" class="node"><title>vhdh</title>
<polygon fill="none" stroke="black" points="854,-178 840,-178 840,-164 854,-164 854,-178"/>
</g>
<!-- vhdh_intermediate_p -->
<g id="node39" class="node"><title>vhdh_intermediate_p</title>
<ellipse fill="black" stroke="black" cx="891" cy="-187" rx="0.036" ry="0.036"/>
</g>
<!-- vhdh&#45;&gt;vhdh_intermediate_p -->
<g id="edge38" class="edge"><title>vhdh&#45;&gt;vhdh_intermediate_p</title>
<path fill="none" stroke="black" d="M854.266,-173.642C866.372,-178.045 889.497,-186.453 890.93,-186.975"/>
</g>
<!-- vhdh&#45;&gt;vhdh_intermediate_m -->
<g id="edge44" class="edge"><title>vhdh&#45;&gt;vhdh_intermediate_m</title>
<path fill="none" stroke="black" d="M866.373,-170.08C898.842,-168.915 966.178,-168.114 1022,-178 1096.46,-191.187 1109.92,-214.832 1184,-230 1272.77,-248.177 1296.38,-249 1387,-249 1387,-249 1387,-249 1475,-249 1542.81,-249 1627.31,-249 1629.94,-249"/>
<polygon fill="none" stroke="black" points="866.064,-170.093 860.24,-174.345 854.075,-170.604 859.899,-166.352 866.064,-170.093"/>
</g>
<!-- vhdh_intermediate_r&#45;&gt;vhdh -->
<g id="edge32" class="edge"><title>vhdh_intermediate_r&#45;&gt;vhdh</title>
<path fill="none" stroke="black" d="M803.126,-171C805.022,-171 827.795,-171 839.759,-171"/>
</g>
<!-- vhdh_intermediate_p&#45;&gt;hs -->
<g id="edge40" class="edge"><title>vhdh_intermediate_p&#45;&gt;hs</title>
<path fill="none" stroke="black" d="M891.061,-187.013C892.116,-187.239 906.731,-190.371 923.479,-193.96"/>
<polygon fill="black" stroke="black" points="922.988,-197.434 933.5,-196.107 924.455,-190.589 922.988,-197.434"/>
</g>
<!-- vhdh_intermediate_p&#45;&gt;nadp -->
<g id="edge42" class="edge"><title>vhdh_intermediate_p&#45;&gt;nadp</title>
<path fill="none" stroke="black" d="M891.05,-187.082C892.079,-188.756 908.848,-215.802 928,-232 934.466,-237.469 942.195,-242.43 949.5,-246.564"/>
<polygon fill="black" stroke="black" points="947.93,-249.694 958.398,-251.334 951.238,-243.524 947.93,-249.694"/>
</g>
<!-- vtsy -->
<g id="node47" class="node"><title>vtsy</title>
<polygon fill="none" stroke="black" points="1438,-210 1424,-210 1424,-196 1438,-196 1438,-210"/>
</g>
<!-- vtsy_intermediate_p -->
<g id="node51" class="node"><title>vtsy_intermediate_p</title>
<ellipse fill="black" stroke="black" cx="1475" cy="-203" rx="0.036" ry="0.036"/>
</g>
<!-- vtsy&#45;&gt;vtsy_intermediate_p -->
<g id="edge54" class="edge"><title>vtsy&#45;&gt;vtsy_intermediate_p</title>
<path fill="none" stroke="black" d="M1438.27,-203C1450.37,-203 1473.5,-203 1474.93,-203"/>
</g>
<!-- vtsy_intermediate_r&#45;&gt;vtsy -->
<g id="edge50" class="edge"><title>vtsy_intermediate_r&#45;&gt;vtsy</title>
<path fill="none" stroke="black" d="M1387.13,-203C1389.02,-203 1411.79,-203 1423.76,-203"/>
</g>
<!-- vtsy_intermediate_p&#45;&gt;phos -->
<g id="edge58" class="edge"><title>vtsy_intermediate_p&#45;&gt;phos</title>
<path fill="none" stroke="black" d="M1475.06,-202.933C1476.66,-201.04 1512.09,-159.249 1534.63,-132.672"/>
<polygon fill="black" stroke="black" points="1537.36,-134.864 1541.15,-124.973 1532.02,-130.337 1537.36,-134.864"/>
</g>
<!-- vtsy_intermediate_p&#45;&gt;thr -->
<g id="edge56" class="edge"><title>vtsy_intermediate_p&#45;&gt;thr</title>
<path fill="none" stroke="black" d="M1475.06,-203C1475.97,-203 1487.86,-203 1502.1,-203"/>
<polygon fill="black" stroke="black" points="1502.22,-206.5 1512.22,-203 1502.22,-199.5 1502.22,-206.5"/>
</g>
<!-- vhk -->
<g id="node55" class="node"><title>vhk</title>
<polygon fill="none" stroke="black" points="1110,-178 1096,-178 1096,-164 1110,-164 1110,-178"/>
</g>
<!-- vhk_intermediate_p -->
<g id="node60" class="node"><title>vhk_intermediate_p</title>
<ellipse fill="black" stroke="black" cx="1147" cy="-185" rx="0.036" ry="0.036"/>
</g>
<!-- vhk&#45;&gt;vhk_intermediate_p -->
<g id="edge66" class="edge"><title>vhk&#45;&gt;vhk_intermediate_p</title>
<path fill="none" stroke="black" d="M1110.27,-173.312C1122.37,-177.164 1145.5,-184.522 1146.93,-184.978"/>
</g>
<!-- vhk&#45;&gt;vhk_intermediate_m -->
<g id="edge72" class="edge"><title>vhk&#45;&gt;vhk_intermediate_m</title>
<path fill="none" stroke="black" d="M1122.2,-168.293C1152.78,-164.223 1214.46,-157 1267,-157 1267,-157 1267,-157 1475,-157 1543.91,-157 1627.35,-184.132 1629.94,-184.98"/>
<polygon fill="none" stroke="black" points="1122.06,-168.312 1116.66,-173.092 1110.17,-169.948 1115.57,-165.167 1122.06,-168.312"/>
</g>
<!-- vhk_intermediate_r&#45;&gt;vhk -->
<g id="edge60" class="edge"><title>vhk_intermediate_r&#45;&gt;vhk</title>
<path fill="none" stroke="black" d="M1059.13,-171C1061.02,-171 1083.79,-171 1095.76,-171"/>
</g>
<!-- vhk_intermediate_p&#45;&gt;hsp -->
<g id="edge68" class="edge"><title>vhk_intermediate_p&#45;&gt;hsp</title>
<path fill="none" stroke="black" d="M1147.09,-185.013C1148.5,-185.224 1166.86,-187.978 1188.8,-191.271"/>
<polygon fill="black" stroke="black" points="1188.33,-194.739 1198.74,-192.761 1189.37,-187.816 1188.33,-194.739"/>
</g>
<!-- vhk_intermediate_p&#45;&gt;adp -->
<g id="edge70" class="edge"><title>vhk_intermediate_p&#45;&gt;adp</title>
<path fill="none" stroke="black" d="M1147.09,-184.919C1149.74,-182.441 1212.51,-123.86 1246.14,-92.465"/>
<polygon fill="black" stroke="black" points="1248.7,-94.8632 1253.63,-85.4813 1243.93,-89.7458 1248.7,-94.8632"/>
</g>
<!-- vnadph_endo -->
<g id="node67" class="node"><title>vnadph_endo</title>
<polygon fill="none" stroke="black" points="522,-278 508,-278 508,-264 522,-264 522,-278"/>
</g>
<!-- vnadph_endo_intermediate_p -->
<g id="node71" class="node"><title>vnadph_endo_intermediate_p</title>
<ellipse fill="black" stroke="black" cx="662" cy="-277" rx="0.036" ry="0.036"/>
</g>
<!-- vnadph_endo&#45;&gt;vnadph_endo_intermediate_p -->
<g id="edge80" class="edge"><title>vnadph_endo&#45;&gt;vnadph_endo_intermediate_p</title>
<path fill="none" stroke="black" d="M522.09,-271.289C550.995,-272.469 658.565,-276.86 661.92,-276.997"/>
</g>
<!-- vnadph_endo_intermediate_r&#45;&gt;vnadph_endo -->
<g id="edge76" class="edge"><title>vnadph_endo_intermediate_r&#45;&gt;vnadph_endo</title>
<path fill="none" stroke="black" d="M465.143,-270.003C467.343,-270.047 494.288,-270.586 507.622,-270.852"/>
</g>
<!-- vnadph_endo_intermediate_p&#45;&gt;nadp -->
<g id="edge82" class="edge"><title>vnadph_endo_intermediate_p&#45;&gt;nadp</title>
<path fill="none" stroke="black" d="M662.057,-276.997C665.965,-276.772 869.686,-265.056 946.291,-260.651"/>
<polygon fill="black" stroke="black" points="946.85,-264.125 956.632,-260.056 946.448,-257.136 946.85,-264.125"/>
</g>
<!-- vatpase -->
<g id="node74" class="node"><title>vatpase</title>
<polygon fill="none" stroke="black" points="170,-14 156,-14 156,-6.21725e-15 170,-2.66454e-15 170,-14"/>
</g>
<!-- vatpase_intermediate_p -->
<g id="node78" class="node"><title>vatpase_intermediate_p</title>
<ellipse fill="black" stroke="black" cx="1147" cy="-27" rx="0.036" ry="0.036"/>
</g>
<!-- vatpase&#45;&gt;vatpase_intermediate_p -->
<g id="edge88" class="edge"><title>vatpase&#45;&gt;vatpase_intermediate_p</title>
<path fill="none" stroke="black" d="M170.229,-6.83633C191.972,-6.35867 258.681,-5 314,-5 314,-5 314,-5 1059,-5 1098.05,-5 1144.03,-25.6465 1146.86,-26.9369"/>
</g>
<!-- vatpase_intermediate_r&#45;&gt;vatpase -->
<g id="edge84" class="edge"><title>vatpase_intermediate_r&#45;&gt;vatpase</title>
<path fill="none" stroke="black" d="M119.126,-10.9885C121.022,-10.8162 143.795,-8.74595 155.759,-7.65828"/>
</g>
<!-- vatpase_intermediate_p&#45;&gt;phos -->
<g id="edge92" class="edge"><title>vatpase_intermediate_p&#45;&gt;phos</title>
<path fill="none" stroke="black" d="M1147.1,-27C1151.16,-27 1282,-27 1387,-27 1387,-27 1387,-27 1431,-27 1474.44,-27 1513.66,-63.5671 1535.33,-88.4481"/>
<polygon fill="black" stroke="black" points="1532.87,-90.9634 1541.98,-96.3683 1538.23,-86.4605 1532.87,-90.9634"/>
</g>
<!-- vatpase_intermediate_p&#45;&gt;adp -->
<g id="edge90" class="edge"><title>vatpase_intermediate_p&#45;&gt;adp</title>
<path fill="none" stroke="black" d="M1147.09,-27.0333C1149.59,-27.9941 1205.69,-49.497 1240.26,-62.748"/>
<polygon fill="black" stroke="black" points="1239.2,-66.0919 1249.79,-66.4032 1241.71,-59.5557 1239.2,-66.0919"/>
</g>
</g>
</svg>
