<?xml version="1.0" encoding="UTF-8" standalone="no"?>
<!DOCTYPE svg PUBLIC "-//W3C//DTD SVG 1.1//EN"
 "http://www.w3.org/Graphics/SVG/1.1/DTD/svg11.dtd">
<!-- Generated by graphviz version 2.24.0 (20090616.2323)
 -->
<!-- Title: G Pages: 1 -->
<svg width="1102pt" height="457pt"
 viewBox="0.00 0.00 1102.00 457.00" xmlns="http://www.w3.org/2000/svg" xmlns:xlink="http://www.w3.org/1999/xlink">
<g id="graph1" class="graph" transform="scale(1 1) rotate(0) translate(4 453)">
<title>G</title>
<polygon fill="white" stroke="white" points="-4,5 -4,-453 1099,-453 1099,5 -4,5"/>
<!-- A -->
<g id="node1" class="node"><title>A</title>
<ellipse fill="none" stroke="black" cx="18" cy="-247" rx="18" ry="18"/>
<text text-anchor="middle" x="18" y="-244.5" font-family="Times Roman,serif" font-size="10.00">A</text>
</g>
<!-- Reaction1_intermediate_r -->
<g id="node11" class="node"><title>Reaction1_intermediate_r</title>
<ellipse fill="black" stroke="black" cx="505" cy="-423" rx="0.036" ry="0.036"/>
</g>
<!-- A&#45;&gt;Reaction1_intermediate_r -->
<g id="edge4" class="edge"><title>A&#45;&gt;Reaction1_intermediate_r</title>
<path fill="none" stroke="black" d="M19.6649,-265.172C24.8811,-310.14 45.1314,-423 117,-423 117,-423 117,-423 377,-423 433,-423 502.781,-423 504.948,-423"/>
</g>
<!-- Reaction2_intermediate_r -->
<g id="node19" class="node"><title>Reaction2_intermediate_r</title>
<ellipse fill="black" stroke="black" cx="73" cy="-247" rx="0.036" ry="0.036"/>
</g>
<!-- A&#45;&gt;Reaction2_intermediate_r -->
<g id="edge14" class="edge"><title>A&#45;&gt;Reaction2_intermediate_r</title>
<path fill="none" stroke="black" d="M36.0091,-247C51.5481,-247 71.6954,-247 72.9394,-247"/>
</g>
<!-- Reaction5_intermediate_r -->
<g id="node42" class="node"><title>Reaction5_intermediate_r</title>
<ellipse fill="black" stroke="black" cx="73" cy="-210" rx="0.036" ry="0.036"/>
</g>
<!-- A&#45;&gt;Reaction5_intermediate_r -->
<g id="edge38" class="edge"><title>A&#45;&gt;Reaction5_intermediate_r</title>
<path fill="none" stroke="black" d="M33.029,-236.89C48.8046,-226.277 71.5268,-210.991 72.9316,-210.046"/>
</g>
<!-- Reaction11_intermediate_r -->
<g id="node90" class="node"><title>Reaction11_intermediate_r</title>
<ellipse fill="black" stroke="black" cx="73" cy="-350" rx="0.036" ry="0.036"/>
</g>
<!-- A&#45;&gt;Reaction11_intermediate_r -->
<g id="edge96" class="edge"><title>A&#45;&gt;Reaction11_intermediate_r</title>
<path fill="none" stroke="black" d="M26.5938,-263.094C41.5791,-291.157 71.0815,-346.407 72.9108,-349.833"/>
</g>
<!-- C -->
<g id="node2" class="node"><title>C</title>
<ellipse fill="none" stroke="black" cx="648" cy="-431" rx="18" ry="18"/>
<text text-anchor="middle" x="648" y="-428.5" font-family="Times Roman,serif" font-size="10.00">C</text>
</g>
<!-- Reaction3_intermediate_r -->
<g id="node27" class="node"><title>Reaction3_intermediate_r</title>
<ellipse fill="black" stroke="black" cx="703" cy="-428" rx="0.036" ry="0.036"/>
</g>
<!-- C&#45;&gt;Reaction3_intermediate_r -->
<g id="edge22" class="edge"><title>C&#45;&gt;Reaction3_intermediate_r</title>
<path fill="none" stroke="black" d="M666.009,-430.018C681.548,-429.17 701.695,-428.071 702.939,-428.003"/>
</g>
<!-- DA -->
<g id="node3" class="node"><title>DA</title>
<ellipse fill="none" stroke="black" cx="441" cy="-140" rx="27" ry="18"/>
<text text-anchor="middle" x="441" y="-137.5" font-family="Times Roman,serif" font-size="10.00">DA</text>
</g>
<!-- DA&#45;&gt;Reaction5_intermediate_r -->
<g id="edge40" class="edge"><title>DA&#45;&gt;Reaction5_intermediate_r</title>
<path fill="none" stroke="black" d="M426.052,-155.079C406.478,-173.143 370.254,-201 333,-201 289,-201 289,-201 289,-201 194.418,-201 76.7416,-209.721 73.0873,-209.993"/>
</g>
<!-- Reaction7_intermediate_r -->
<g id="node58" class="node"><title>Reaction7_intermediate_r</title>
<ellipse fill="black" stroke="black" cx="505" cy="-109" rx="0.036" ry="0.036"/>
</g>
<!-- DA&#45;&gt;Reaction7_intermediate_r -->
<g id="edge58" class="edge"><title>DA&#45;&gt;Reaction7_intermediate_r</title>
<path fill="none" stroke="black" d="M463.025,-129.332C480.96,-120.645 503.538,-109.708 504.932,-109.033"/>
</g>
<!-- DAp -->
<g id="node4" class="node"><title>DAp</title>
<ellipse fill="none" stroke="black" cx="225" cy="-82" rx="27" ry="18"/>
<text text-anchor="middle" x="225" y="-79.5" font-family="Times Roman,serif" font-size="10.00">DAp</text>
</g>
<!-- Reaction6_intermediate_r -->
<g id="node50" class="node"><title>Reaction6_intermediate_r</title>
<ellipse fill="black" stroke="black" cx="289" cy="-102" rx="0.036" ry="0.036"/>
</g>
<!-- DAp&#45;&gt;Reaction6_intermediate_r -->
<g id="edge48" class="edge"><title>DAp&#45;&gt;Reaction6_intermediate_r</title>
<path fill="none" stroke="black" d="M249.561,-89.6753C267.045,-95.1392 287.666,-101.583 288.938,-101.981"/>
</g>
<!-- Reaction8_intermediate_r -->
<g id="node66" class="node"><title>Reaction8_intermediate_r</title>
<ellipse fill="black" stroke="black" cx="289" cy="-39" rx="0.036" ry="0.036"/>
</g>
<!-- DAp&#45;&gt;Reaction8_intermediate_r -->
<g id="edge68" class="edge"><title>DAp&#45;&gt;Reaction8_intermediate_r</title>
<path fill="none" stroke="black" d="M244.202,-69.0986C262.465,-56.8285 287.385,-40.0849 288.925,-39.0504"/>
</g>
<!-- DR -->
<g id="node5" class="node"><title>DR</title>
<ellipse fill="none" stroke="black" cx="441" cy="-347" rx="27" ry="18"/>
<text text-anchor="middle" x="441" y="-344.5" font-family="Times Roman,serif" font-size="10.00">DR</text>
</g>
<!-- DR&#45;&gt;Reaction11_intermediate_r -->
<g id="edge98" class="edge"><title>DR&#45;&gt;Reaction11_intermediate_r</title>
<path fill="none" stroke="black" d="M420.245,-359.023C399.04,-370.156 364.803,-385 333,-385 161,-385 161,-385 161,-385 120.224,-385 75.8656,-352.153 73.133,-350.1"/>
</g>
<!-- Reaction13_intermediate_r -->
<g id="node106" class="node"><title>Reaction13_intermediate_r</title>
<ellipse fill="black" stroke="black" cx="505" cy="-315" rx="0.036" ry="0.036"/>
</g>
<!-- DR&#45;&gt;Reaction13_intermediate_r -->
<g id="edge116" class="edge"><title>DR&#45;&gt;Reaction13_intermediate_r</title>
<path fill="none" stroke="black" d="M462.667,-336.166C480.654,-327.173 503.52,-315.74 504.931,-315.034"/>
</g>
<!-- DRp -->
<g id="node6" class="node"><title>DRp</title>
<ellipse fill="none" stroke="black" cx="225" cy="-301" rx="27" ry="18"/>
<text text-anchor="middle" x="225" y="-298.5" font-family="Times Roman,serif" font-size="10.00">DRp</text>
</g>
<!-- Reaction12_intermediate_r -->
<g id="node98" class="node"><title>Reaction12_intermediate_r</title>
<ellipse fill="black" stroke="black" cx="289" cy="-309" rx="0.036" ry="0.036"/>
</g>
<!-- DRp&#45;&gt;Reaction12_intermediate_r -->
<g id="edge106" class="edge"><title>DRp&#45;&gt;Reaction12_intermediate_r</title>
<path fill="none" stroke="black" d="M251.771,-304.346C268.761,-306.47 287.771,-308.846 288.943,-308.993"/>
</g>
<!-- Reaction14_intermediate_r -->
<g id="node114" class="node"><title>Reaction14_intermediate_r</title>
<ellipse fill="black" stroke="black" cx="289" cy="-245" rx="0.036" ry="0.036"/>
</g>
<!-- DRp&#45;&gt;Reaction14_intermediate_r -->
<g id="edge126" class="edge"><title>DRp&#45;&gt;Reaction14_intermediate_r</title>
<path fill="none" stroke="black" d="M241.482,-286.579C259.852,-270.505 287.225,-246.553 288.918,-245.072"/>
</g>
<!-- MA -->
<g id="node7" class="node"><title>MA</title>
<ellipse fill="none" stroke="black" cx="648" cy="-73" rx="18" ry="18"/>
<text text-anchor="middle" x="648" y="-70.5" font-family="Times Roman,serif" font-size="10.00">MA</text>
</g>
<!-- Reaction9_intermediate_r -->
<g id="node74" class="node"><title>Reaction9_intermediate_r</title>
<ellipse fill="black" stroke="black" cx="703" cy="-98" rx="0.036" ry="0.036"/>
</g>
<!-- MA&#45;&gt;Reaction9_intermediate_r -->
<g id="edge78" class="edge"><title>MA&#45;&gt;Reaction9_intermediate_r</title>
<path fill="none" stroke="black" d="M664.502,-80.5008C680.196,-87.6346 701.612,-97.3693 702.936,-97.9707"/>
</g>
<!-- Reaction10_intermediate_r -->
<g id="node82" class="node"><title>Reaction10_intermediate_r</title>
<ellipse fill="black" stroke="black" cx="703" cy="-73" rx="0.036" ry="0.036"/>
</g>
<!-- MA&#45;&gt;Reaction10_intermediate_r -->
<g id="edge86" class="edge"><title>MA&#45;&gt;Reaction10_intermediate_r</title>
<path fill="none" stroke="black" d="M666.009,-73C681.548,-73 701.695,-73 702.939,-73"/>
</g>
<!-- MR -->
<g id="node8" class="node"><title>MR</title>
<ellipse fill="none" stroke="black" cx="648" cy="-312" rx="18" ry="18"/>
<text text-anchor="middle" x="648" y="-309.5" font-family="Times Roman,serif" font-size="10.00">MR</text>
</g>
<!-- Reaction15_intermediate_r -->
<g id="node122" class="node"><title>Reaction15_intermediate_r</title>
<ellipse fill="black" stroke="black" cx="703" cy="-287" rx="0.036" ry="0.036"/>
</g>
<!-- MR&#45;&gt;Reaction15_intermediate_r -->
<g id="edge136" class="edge"><title>MR&#45;&gt;Reaction15_intermediate_r</title>
<path fill="none" stroke="black" d="M664.502,-304.499C680.196,-297.365 701.612,-287.631 702.936,-287.029"/>
</g>
<!-- Reaction16_intermediate_r -->
<g id="node130" class="node"><title>Reaction16_intermediate_r</title>
<ellipse fill="black" stroke="black" cx="703" cy="-312" rx="0.036" ry="0.036"/>
</g>
<!-- MR&#45;&gt;Reaction16_intermediate_r -->
<g id="edge144" class="edge"><title>MR&#45;&gt;Reaction16_intermediate_r</title>
<path fill="none" stroke="black" d="M666.009,-312C681.548,-312 701.695,-312 702.939,-312"/>
</g>
<!-- R -->
<g id="node9" class="node"><title>R</title>
<ellipse fill="none" stroke="black" cx="855" cy="-385" rx="18" ry="18"/>
<text text-anchor="middle" x="855" y="-382.5" font-family="Times Roman,serif" font-size="10.00">R</text>
</g>
<!-- R&#45;&gt;Reaction1_intermediate_r -->
<g id="edge6" class="edge"><title>R&#45;&gt;Reaction1_intermediate_r</title>
<path fill="none" stroke="black" d="M836.655,-385C815.168,-385 778.5,-385 747,-385 593,-385 593,-385 593,-385 551.73,-385 507.835,-420.662 505.132,-422.891"/>
</g>
<!-- Reaction4_intermediate_r -->
<g id="node34" class="node"><title>Reaction4_intermediate_r</title>
<ellipse fill="black" stroke="black" cx="918" cy="-385" rx="0.036" ry="0.036"/>
</g>
<!-- R&#45;&gt;Reaction4_intermediate_r -->
<g id="edge30" class="edge"><title>R&#45;&gt;Reaction4_intermediate_r</title>
<path fill="none" stroke="black" d="M873.222,-385C891.247,-385 916.372,-385 917.924,-385"/>
</g>
<!-- Reaction1 -->
<g id="node10" class="node"><title>Reaction1</title>
<polygon fill="none" stroke="black" points="556,-432 542,-432 542,-418 556,-418 556,-432"/>
</g>
<!-- Reaction1_intermediate_p -->
<g id="node15" class="node"><title>Reaction1_intermediate_p</title>
<ellipse fill="black" stroke="black" cx="593" cy="-429" rx="0.036" ry="0.036"/>
</g>
<!-- Reaction1&#45;&gt;Reaction1_intermediate_p -->
<g id="edge8" class="edge"><title>Reaction1&#45;&gt;Reaction1_intermediate_p</title>
<path fill="none" stroke="black" d="M556.266,-425.661C568.372,-426.761 591.497,-428.863 592.93,-428.994"/>
</g>
<!-- Reaction1_intermediate_r&#45;&gt;Reaction1 -->
<g id="edge2" class="edge"><title>Reaction1_intermediate_r&#45;&gt;Reaction1</title>
<path fill="none" stroke="black" d="M505.126,-423.006C507.022,-423.092 529.795,-424.127 541.759,-424.671"/>
</g>
<!-- Reaction1_intermediate_p&#45;&gt;C -->
<g id="edge10" class="edge"><title>Reaction1_intermediate_p&#45;&gt;C</title>
<path fill="none" stroke="black" d="M593.158,-429.006C594.674,-429.061 606.878,-429.505 619.389,-429.96"/>
<polygon fill="black" stroke="black" points="619.622,-433.47 629.743,-430.336 619.877,-426.475 619.622,-433.47"/>
</g>
<!-- Reaction2 -->
<g id="node18" class="node"><title>Reaction2</title>
<polygon fill="none" stroke="black" points="124,-254 110,-254 110,-240 124,-240 124,-254"/>
</g>
<!-- Reaction2_intermediate_p -->
<g id="node22" class="node"><title>Reaction2_intermediate_p</title>
<ellipse fill="black" stroke="black" cx="161" cy="-247" rx="0.036" ry="0.036"/>
</g>
<!-- Reaction2&#45;&gt;Reaction2_intermediate_p -->
<g id="edge16" class="edge"><title>Reaction2&#45;&gt;Reaction2_intermediate_p</title>
<path fill="none" stroke="black" d="M124.266,-247C136.372,-247 159.497,-247 160.93,-247"/>
</g>
<!-- Reaction2_intermediate_r&#45;&gt;Reaction2 -->
<g id="edge12" class="edge"><title>Reaction2_intermediate_r&#45;&gt;Reaction2</title>
<path fill="none" stroke="black" d="M73.1262,-247C75.0215,-247 97.7945,-247 109.759,-247"/>
</g>
<!-- Reaction2_empty -->
<g id="node24" class="node"><title>Reaction2_empty</title>
<text text-anchor="middle" x="225" y="-242.5" font-family="Times Roman,serif" font-size="15.00" fill="blue">Ø</text>
</g>
<!-- Reaction2_intermediate_p&#45;&gt;Reaction2_empty -->
<g id="edge18" class="edge"><title>Reaction2_intermediate_p&#45;&gt;Reaction2_empty</title>
<path fill="none" stroke="black" d="M161.046,-247C161.885,-247 173.971,-247 187.414,-247"/>
<polygon fill="black" stroke="black" points="187.794,-250.5 197.794,-247 187.794,-243.5 187.794,-250.5"/>
</g>
<!-- Reaction3 -->
<g id="node26" class="node"><title>Reaction3</title>
<polygon fill="none" stroke="black" points="754,-430 740,-430 740,-416 754,-416 754,-430"/>
</g>
<!-- Reaction3_intermediate_p -->
<g id="node30" class="node"><title>Reaction3_intermediate_p</title>
<ellipse fill="black" stroke="black" cx="791" cy="-418" rx="0.036" ry="0.036"/>
</g>
<!-- Reaction3&#45;&gt;Reaction3_intermediate_p -->
<g id="edge24" class="edge"><title>Reaction3&#45;&gt;Reaction3_intermediate_p</title>
<path fill="none" stroke="black" d="M754.266,-422.174C766.372,-420.799 789.497,-418.171 790.93,-418.008"/>
</g>
<!-- Reaction3_intermediate_r&#45;&gt;Reaction3 -->
<g id="edge20" class="edge"><title>Reaction3_intermediate_r&#45;&gt;Reaction3</title>
<path fill="none" stroke="black" d="M703.126,-427.986C705.022,-427.77 727.795,-425.182 739.759,-423.823"/>
</g>
<!-- Reaction3_intermediate_p&#45;&gt;R -->
<g id="edge26" class="edge"><title>Reaction3_intermediate_p&#45;&gt;R</title>
<path fill="none" stroke="black" d="M791.046,-417.976C792.139,-417.413 812.314,-407.01 829.715,-398.037"/>
<polygon fill="black" stroke="black" points="831.674,-400.965 838.958,-393.271 828.466,-394.744 831.674,-400.965"/>
</g>
<!-- Reaction4 -->
<g id="node33" class="node"><title>Reaction4</title>
<polygon fill="none" stroke="black" points="968,-392 954,-392 954,-378 968,-378 968,-392"/>
</g>
<!-- Reaction4_intermediate_p -->
<g id="node37" class="node"><title>Reaction4_intermediate_p</title>
<ellipse fill="black" stroke="black" cx="1004" cy="-385" rx="0.036" ry="0.036"/>
</g>
<!-- Reaction4&#45;&gt;Reaction4_intermediate_p -->
<g id="edge32" class="edge"><title>Reaction4&#45;&gt;Reaction4_intermediate_p</title>
<path fill="none" stroke="black" d="M968.101,-385C979.932,-385 1002.53,-385 1003.93,-385"/>
</g>
<!-- Reaction4_intermediate_r&#45;&gt;Reaction4 -->
<g id="edge28" class="edge"><title>Reaction4_intermediate_r&#45;&gt;Reaction4</title>
<path fill="none" stroke="black" d="M918.123,-385C919.976,-385 942.231,-385 953.924,-385"/>
</g>
<!-- Reaction4_empty -->
<g id="node39" class="node"><title>Reaction4_empty</title>
<text text-anchor="middle" x="1067" y="-380.5" font-family="Times Roman,serif" font-size="15.00" fill="blue">Ø</text>
</g>
<!-- Reaction4_intermediate_p&#45;&gt;Reaction4_empty -->
<g id="edge34" class="edge"><title>Reaction4_intermediate_p&#45;&gt;Reaction4_empty</title>
<path fill="none" stroke="black" d="M1004.05,-385C1004.87,-385 1016.6,-385 1029.72,-385"/>
<polygon fill="black" stroke="black" points="1029.86,-388.5 1039.86,-385 1029.86,-381.5 1029.86,-388.5"/>
</g>
<!-- Reaction5 -->
<g id="node41" class="node"><title>Reaction5</title>
<polygon fill="none" stroke="black" points="124,-182 110,-182 110,-168 124,-168 124,-182"/>
</g>
<!-- Reaction5_intermediate_p -->
<g id="node46" class="node"><title>Reaction5_intermediate_p</title>
<ellipse fill="black" stroke="black" cx="161" cy="-173" rx="0.036" ry="0.036"/>
</g>
<!-- Reaction5&#45;&gt;Reaction5_intermediate_p -->
<g id="edge42" class="edge"><title>Reaction5&#45;&gt;Reaction5_intermediate_p</title>
<path fill="none" stroke="black" d="M124.266,-174.67C136.372,-174.119 159.497,-173.068 160.93,-173.003"/>
</g>
<!-- Reaction5_intermediate_r&#45;&gt;Reaction5 -->
<g id="edge36" class="edge"><title>Reaction5_intermediate_r&#45;&gt;Reaction5</title>
<path fill="none" stroke="black" d="M73.1262,-209.9C75.0215,-208.392 97.7945,-190.277 109.759,-180.76"/>
</g>
<!-- Reaction5_intermediate_p&#45;&gt;DAp -->
<g id="edge44" class="edge"><title>Reaction5_intermediate_p&#45;&gt;DAp</title>
<path fill="none" stroke="black" d="M161.046,-172.934C162.305,-171.145 188.888,-133.347 207.381,-107.052"/>
<polygon fill="black" stroke="black" points="210.404,-108.838 213.294,-98.6445 204.678,-104.811 210.404,-108.838"/>
</g>
<!-- Reaction6 -->
<g id="node49" class="node"><title>Reaction6</title>
<polygon fill="none" stroke="black" points="340,-112 326,-112 326,-98 340,-98 340,-112"/>
</g>
<!-- Reaction6_intermediate_p -->
<g id="node53" class="node"><title>Reaction6_intermediate_p</title>
<ellipse fill="black" stroke="black" cx="377" cy="-140" rx="0.036" ry="0.036"/>
</g>
<!-- Reaction6&#45;&gt;Reaction6_intermediate_p -->
<g id="edge50" class="edge"><title>Reaction6&#45;&gt;Reaction6_intermediate_p</title>
<path fill="none" stroke="black" d="M340.266,-110.78C352.372,-120.41 375.497,-138.804 376.93,-139.944"/>
</g>
<!-- Reaction6_intermediate_r&#45;&gt;Reaction6 -->
<g id="edge46" class="edge"><title>Reaction6_intermediate_r&#45;&gt;Reaction6</title>
<path fill="none" stroke="black" d="M289.126,-102.009C291.022,-102.138 313.795,-103.691 325.759,-104.506"/>
</g>
<!-- Reaction6_intermediate_p&#45;&gt;A -->
<g id="edge52" class="edge"><title>Reaction6_intermediate_p&#45;&gt;A</title>
<path fill="none" stroke="black" d="M376.859,-140C373.954,-140 326.889,-140 289,-140 117,-140 117,-140 117,-140 73.1935,-140 43.366,-188.918 28.6409,-220.602"/>
<polygon fill="black" stroke="black" points="25.4126,-219.248 24.5572,-229.809 31.8113,-222.087 25.4126,-219.248"/>
</g>
<!-- Reaction6_intermediate_p&#45;&gt;DA -->
<g id="edge54" class="edge"><title>Reaction6_intermediate_p&#45;&gt;DA</title>
<path fill="none" stroke="black" d="M377.046,-140C377.885,-140 389.971,-140 403.414,-140"/>
<polygon fill="black" stroke="black" points="403.794,-143.5 413.794,-140 403.794,-136.5 403.794,-143.5"/>
</g>
<!-- Reaction7 -->
<g id="node57" class="node"><title>Reaction7</title>
<polygon fill="none" stroke="black" points="556,-112 542,-112 542,-98 556,-98 556,-112"/>
</g>
<!-- Reaction7_intermediate_p -->
<g id="node61" class="node"><title>Reaction7_intermediate_p</title>
<ellipse fill="black" stroke="black" cx="593" cy="-105" rx="0.036" ry="0.036"/>
</g>
<!-- Reaction7&#45;&gt;Reaction7_intermediate_p -->
<g id="edge60" class="edge"><title>Reaction7&#45;&gt;Reaction7_intermediate_p</title>
<path fill="none" stroke="black" d="M556.266,-105C568.372,-105 591.497,-105 592.93,-105"/>
</g>
<!-- Reaction7_intermediate_r&#45;&gt;Reaction7 -->
<g id="edge56" class="edge"><title>Reaction7_intermediate_r&#45;&gt;Reaction7</title>
<path fill="none" stroke="black" d="M505.126,-108.989C507.022,-108.816 529.795,-106.746 541.759,-105.658"/>
</g>
<!-- Reaction7_intermediate_p&#45;&gt;DA -->
<g id="edge62" class="edge"><title>Reaction7_intermediate_p&#45;&gt;DA</title>
<path fill="none" stroke="black" d="M592.943,-105.032C591.764,-105.678 572.652,-116.104 556,-121 530.41,-128.524 500.684,-133.337 477.865,-136.236"/>
<polygon fill="black" stroke="black" points="477.416,-132.765 467.907,-137.436 478.254,-139.714 477.416,-132.765"/>
</g>
<!-- Reaction7_intermediate_p&#45;&gt;MA -->
<g id="edge64" class="edge"><title>Reaction7_intermediate_p&#45;&gt;MA</title>
<path fill="none" stroke="black" d="M593.158,-104.908C594.843,-103.928 609.729,-95.2668 623.566,-87.216"/>
<polygon fill="black" stroke="black" points="625.475,-90.1546 632.359,-82.1004 621.955,-84.1041 625.475,-90.1546"/>
</g>
<!-- Reaction8 -->
<g id="node65" class="node"><title>Reaction8</title>
<polygon fill="none" stroke="black" points="340,-42 326,-42 326,-28 340,-28 340,-42"/>
</g>
<!-- Reaction8_intermediate_p -->
<g id="node69" class="node"><title>Reaction8_intermediate_p</title>
<ellipse fill="black" stroke="black" cx="377" cy="-70" rx="0.036" ry="0.036"/>
</g>
<!-- Reaction8&#45;&gt;Reaction8_intermediate_p -->
<g id="edge70" class="edge"><title>Reaction8&#45;&gt;Reaction8_intermediate_p</title>
<path fill="none" stroke="black" d="M340.266,-40.7795C352.372,-50.4099 375.497,-68.8042 376.93,-69.9444"/>
</g>
<!-- Reaction8_intermediate_r&#45;&gt;Reaction8 -->
<g id="edge66" class="edge"><title>Reaction8_intermediate_r&#45;&gt;Reaction8</title>
<path fill="none" stroke="black" d="M289.126,-38.9885C291.022,-38.8162 313.795,-36.746 325.759,-35.6583"/>
</g>
<!-- Reaction8_intermediate_p&#45;&gt;DAp -->
<g id="edge72" class="edge"><title>Reaction8_intermediate_p&#45;&gt;DAp</title>
<path fill="none" stroke="black" d="M376.941,-70.0047C374.645,-70.1859 306.182,-75.5909 261.949,-79.083"/>
<polygon fill="black" stroke="black" points="261.518,-75.606 251.825,-79.8823 262.069,-82.5843 261.518,-75.606"/>
</g>
<!-- Reaction8_intermediate_p&#45;&gt;MA -->
<g id="edge74" class="edge"><title>Reaction8_intermediate_p&#45;&gt;MA</title>
<path fill="none" stroke="black" d="M377.052,-70C379.219,-70 449,-70 505,-70 505,-70 505,-70 549,-70 572.794,-70 599.79,-70.8765 619.575,-71.682"/>
<polygon fill="black" stroke="black" points="619.618,-75.1869 629.758,-72.1161 619.917,-68.1933 619.618,-75.1869"/>
</g>
<!-- Reaction9 -->
<g id="node73" class="node"><title>Reaction9</title>
<polygon fill="none" stroke="black" points="754,-112 740,-112 740,-98 754,-98 754,-112"/>
</g>
<!-- Reaction9_intermediate_p -->
<g id="node77" class="node"><title>Reaction9_intermediate_p</title>
<ellipse fill="black" stroke="black" cx="791" cy="-105" rx="0.036" ry="0.036"/>
</g>
<!-- Reaction9&#45;&gt;Reaction9_intermediate_p -->
<g id="edge80" class="edge"><title>Reaction9&#45;&gt;Reaction9_intermediate_p</title>
<path fill="none" stroke="black" d="M754.266,-105C766.372,-105 789.497,-105 790.93,-105"/>
</g>
<!-- Reaction9_intermediate_r&#45;&gt;Reaction9 -->
<g id="edge76" class="edge"><title>Reaction9_intermediate_r&#45;&gt;Reaction9</title>
<path fill="none" stroke="black" d="M703.126,-98.0201C705.022,-98.3216 727.795,-101.945 739.759,-103.848"/>
</g>
<!-- Reaction9_empty -->
<g id="node79" class="node"><title>Reaction9_empty</title>
<text text-anchor="middle" x="855" y="-100.5" font-family="Times Roman,serif" font-size="15.00" fill="blue">Ø</text>
</g>
<!-- Reaction9_intermediate_p&#45;&gt;Reaction9_empty -->
<g id="edge82" class="edge"><title>Reaction9_intermediate_p&#45;&gt;Reaction9_empty</title>
<path fill="none" stroke="black" d="M791.046,-105C791.885,-105 803.971,-105 817.414,-105"/>
<polygon fill="black" stroke="black" points="817.794,-108.5 827.794,-105 817.794,-101.5 817.794,-108.5"/>
</g>
<!-- Reaction10 -->
<g id="node81" class="node"><title>Reaction10</title>
<polygon fill="none" stroke="black" points="754,-80 740,-80 740,-66 754,-66 754,-80"/>
</g>
<!-- Reaction10_intermediate_p -->
<g id="node85" class="node"><title>Reaction10_intermediate_p</title>
<ellipse fill="black" stroke="black" cx="791" cy="-38" rx="0.036" ry="0.036"/>
</g>
<!-- Reaction10&#45;&gt;Reaction10_intermediate_p -->
<g id="edge88" class="edge"><title>Reaction10&#45;&gt;Reaction10_intermediate_p</title>
<path fill="none" stroke="black" d="M754.266,-67.2205C766.372,-57.5901 789.497,-39.1958 790.93,-38.0556"/>
</g>
<!-- Reaction10_intermediate_r&#45;&gt;Reaction10 -->
<g id="edge84" class="edge"><title>Reaction10_intermediate_r&#45;&gt;Reaction10</title>
<path fill="none" stroke="black" d="M703.126,-73C705.022,-73 727.795,-73 739.759,-73"/>
</g>
<!-- Reaction10_intermediate_p&#45;&gt;A -->
<g id="edge90" class="edge"><title>Reaction10_intermediate_p&#45;&gt;A</title>
<path fill="none" stroke="black" d="M790.868,-37.891C788.165,-35.6621 744.27,-0 703,-0 117,-0 117,-0 117,-0 70.1747,-0 35.4307,-154.877 22.9958,-219.351"/>
<polygon fill="black" stroke="black" points="19.5456,-218.76 21.1282,-229.236 26.4239,-220.06 19.5456,-218.76"/>
</g>
<!-- Reaction10_intermediate_p&#45;&gt;MA -->
<g id="edge92" class="edge"><title>Reaction10_intermediate_p&#45;&gt;MA</title>
<path fill="none" stroke="black" d="M790.937,-38.0155C788.497,-38.6127 716.233,-56.2996 675.413,-66.2905"/>
<polygon fill="black" stroke="black" points="674.416,-62.9312 665.535,-68.7083 676.08,-69.7305 674.416,-62.9312"/>
</g>
<!-- Reaction11 -->
<g id="node89" class="node"><title>Reaction11</title>
<polygon fill="none" stroke="black" points="124,-357 110,-357 110,-343 124,-343 124,-357"/>
</g>
<!-- Reaction11_intermediate_p -->
<g id="node94" class="node"><title>Reaction11_intermediate_p</title>
<ellipse fill="black" stroke="black" cx="161" cy="-348" rx="0.036" ry="0.036"/>
</g>
<!-- Reaction11&#45;&gt;Reaction11_intermediate_p -->
<g id="edge100" class="edge"><title>Reaction11&#45;&gt;Reaction11_intermediate_p</title>
<path fill="none" stroke="black" d="M124.266,-349.67C136.372,-349.119 159.497,-348.068 160.93,-348.003"/>
</g>
<!-- Reaction11_intermediate_r&#45;&gt;Reaction11 -->
<g id="edge94" class="edge"><title>Reaction11_intermediate_r&#45;&gt;Reaction11</title>
<path fill="none" stroke="black" d="M73.1262,-350C75.0215,-350 97.7945,-350 109.759,-350"/>
</g>
<!-- Reaction11_intermediate_p&#45;&gt;DRp -->
<g id="edge102" class="edge"><title>Reaction11_intermediate_p&#45;&gt;DRp</title>
<path fill="none" stroke="black" d="M161.046,-347.966C162.113,-347.182 181.389,-333.027 198.501,-320.46"/>
<polygon fill="black" stroke="black" points="200.65,-323.224 206.639,-314.484 196.507,-317.582 200.65,-323.224"/>
</g>
<!-- Reaction12 -->
<g id="node97" class="node"><title>Reaction12</title>
<polygon fill="none" stroke="black" points="340,-319 326,-319 326,-305 340,-305 340,-319"/>
</g>
<!-- Reaction12_intermediate_p -->
<g id="node101" class="node"><title>Reaction12_intermediate_p</title>
<ellipse fill="black" stroke="black" cx="377" cy="-347" rx="0.036" ry="0.036"/>
</g>
<!-- Reaction12&#45;&gt;Reaction12_intermediate_p -->
<g id="edge108" class="edge"><title>Reaction12&#45;&gt;Reaction12_intermediate_p</title>
<path fill="none" stroke="black" d="M340.266,-317.78C352.372,-327.41 375.497,-345.804 376.93,-346.944"/>
</g>
<!-- Reaction12_intermediate_r&#45;&gt;Reaction12 -->
<g id="edge104" class="edge"><title>Reaction12_intermediate_r&#45;&gt;Reaction12</title>
<path fill="none" stroke="black" d="M289.126,-309.009C291.022,-309.138 313.795,-310.691 325.759,-311.506"/>
</g>
<!-- Reaction12_intermediate_p&#45;&gt;A -->
<g id="edge110" class="edge"><title>Reaction12_intermediate_p&#45;&gt;A</title>
<path fill="none" stroke="black" d="M376.926,-347.001C373.826,-347.054 274.018,-348.573 198,-328 139.895,-312.275 76.7799,-279.993 42.8884,-261.279"/>
<polygon fill="black" stroke="black" points="44.1754,-257.989 33.739,-256.163 40.759,-264.099 44.1754,-257.989"/>
</g>
<!-- Reaction12_intermediate_p&#45;&gt;DR -->
<g id="edge112" class="edge"><title>Reaction12_intermediate_p&#45;&gt;DR</title>
<path fill="none" stroke="black" d="M377.046,-347C377.885,-347 389.971,-347 403.414,-347"/>
<polygon fill="black" stroke="black" points="403.794,-350.5 413.794,-347 403.794,-343.5 403.794,-350.5"/>
</g>
<!-- Reaction13 -->
<g id="node105" class="node"><title>Reaction13</title>
<polygon fill="none" stroke="black" points="556,-319 542,-319 542,-305 556,-305 556,-319"/>
</g>
<!-- Reaction13_intermediate_p -->
<g id="node109" class="node"><title>Reaction13_intermediate_p</title>
<ellipse fill="black" stroke="black" cx="593" cy="-312" rx="0.036" ry="0.036"/>
</g>
<!-- Reaction13&#45;&gt;Reaction13_intermediate_p -->
<g id="edge118" class="edge"><title>Reaction13&#45;&gt;Reaction13_intermediate_p</title>
<path fill="none" stroke="black" d="M556.266,-312C568.372,-312 591.497,-312 592.93,-312"/>
</g>
<!-- Reaction13_intermediate_r&#45;&gt;Reaction13 -->
<g id="edge114" class="edge"><title>Reaction13_intermediate_r&#45;&gt;Reaction13</title>
<path fill="none" stroke="black" d="M505.126,-314.991C507.022,-314.862 529.795,-313.309 541.759,-312.494"/>
</g>
<!-- Reaction13_intermediate_p&#45;&gt;DR -->
<g id="edge120" class="edge"><title>Reaction13_intermediate_p&#45;&gt;DR</title>
<path fill="none" stroke="black" d="M592.943,-312.032C591.764,-312.678 572.652,-323.104 556,-328 530.41,-335.524 500.684,-340.337 477.865,-343.236"/>
<polygon fill="black" stroke="black" points="477.416,-339.765 467.907,-344.436 478.254,-346.714 477.416,-339.765"/>
</g>
<!-- Reaction13_intermediate_p&#45;&gt;MR -->
<g id="edge122" class="edge"><title>Reaction13_intermediate_p&#45;&gt;MR</title>
<path fill="none" stroke="black" d="M593.158,-312C594.674,-312 606.878,-312 619.389,-312"/>
<polygon fill="black" stroke="black" points="619.743,-315.5 629.743,-312 619.743,-308.5 619.743,-315.5"/>
</g>
<!-- Reaction14 -->
<g id="node113" class="node"><title>Reaction14</title>
<polygon fill="none" stroke="black" points="340,-249 326,-249 326,-235 340,-235 340,-249"/>
</g>
<!-- Reaction14_intermediate_p -->
<g id="node117" class="node"><title>Reaction14_intermediate_p</title>
<ellipse fill="black" stroke="black" cx="377" cy="-277" rx="0.036" ry="0.036"/>
</g>
<!-- Reaction14&#45;&gt;Reaction14_intermediate_p -->
<g id="edge128" class="edge"><title>Reaction14&#45;&gt;Reaction14_intermediate_p</title>
<path fill="none" stroke="black" d="M340.266,-247.78C352.372,-257.41 375.497,-275.804 376.93,-276.944"/>
</g>
<!-- Reaction14_intermediate_r&#45;&gt;Reaction14 -->
<g id="edge124" class="edge"><title>Reaction14_intermediate_r&#45;&gt;Reaction14</title>
<path fill="none" stroke="black" d="M289.126,-244.991C291.022,-244.862 313.795,-243.309 325.759,-242.494"/>
</g>
<!-- Reaction14_intermediate_p&#45;&gt;DRp -->
<g id="edge130" class="edge"><title>Reaction14_intermediate_p&#45;&gt;DRp</title>
<path fill="none" stroke="black" d="M376.94,-277.009C374.633,-277.374 305.808,-288.241 261.59,-295.223"/>
<polygon fill="black" stroke="black" points="260.808,-291.803 251.476,-296.82 261.9,-298.717 260.808,-291.803"/>
</g>
<!-- Reaction14_intermediate_p&#45;&gt;MR -->
<g id="edge132" class="edge"><title>Reaction14_intermediate_p&#45;&gt;MR</title>
<path fill="none" stroke="black" d="M377.052,-277C379.219,-277 449,-277 505,-277 505,-277 505,-277 549,-277 575.512,-277 603.851,-288.295 623.385,-298.052"/>
<polygon fill="black" stroke="black" points="621.997,-301.276 632.481,-302.804 625.239,-295.072 621.997,-301.276"/>
</g>
<!-- Reaction15 -->
<g id="node121" class="node"><title>Reaction15</title>
<polygon fill="none" stroke="black" points="754,-287 740,-287 740,-273 754,-273 754,-287"/>
</g>
<!-- Reaction15_intermediate_p -->
<g id="node125" class="node"><title>Reaction15_intermediate_p</title>
<ellipse fill="black" stroke="black" cx="791" cy="-280" rx="0.036" ry="0.036"/>
</g>
<!-- Reaction15&#45;&gt;Reaction15_intermediate_p -->
<g id="edge138" class="edge"><title>Reaction15&#45;&gt;Reaction15_intermediate_p</title>
<path fill="none" stroke="black" d="M754.266,-280C766.372,-280 789.497,-280 790.93,-280"/>
</g>
<!-- Reaction15_intermediate_r&#45;&gt;Reaction15 -->
<g id="edge134" class="edge"><title>Reaction15_intermediate_r&#45;&gt;Reaction15</title>
<path fill="none" stroke="black" d="M703.126,-286.98C705.022,-286.678 727.795,-283.055 739.759,-281.152"/>
</g>
<!-- Reaction15_empty -->
<g id="node127" class="node"><title>Reaction15_empty</title>
<text text-anchor="middle" x="855" y="-275.5" font-family="Times Roman,serif" font-size="15.00" fill="blue">Ø</text>
</g>
<!-- Reaction15_intermediate_p&#45;&gt;Reaction15_empty -->
<g id="edge140" class="edge"><title>Reaction15_intermediate_p&#45;&gt;Reaction15_empty</title>
<path fill="none" stroke="black" d="M791.046,-280C791.885,-280 803.971,-280 817.414,-280"/>
<polygon fill="black" stroke="black" points="817.794,-283.5 827.794,-280 817.794,-276.5 817.794,-283.5"/>
</g>
<!-- Reaction16 -->
<g id="node129" class="node"><title>Reaction16</title>
<polygon fill="none" stroke="black" points="754,-319 740,-319 740,-305 754,-305 754,-319"/>
</g>
<!-- Reaction16_intermediate_p -->
<g id="node133" class="node"><title>Reaction16_intermediate_p</title>
<ellipse fill="black" stroke="black" cx="791" cy="-347" rx="0.036" ry="0.036"/>
</g>
<!-- Reaction16&#45;&gt;Reaction16_intermediate_p -->
<g id="edge146" class="edge"><title>Reaction16&#45;&gt;Reaction16_intermediate_p</title>
<path fill="none" stroke="black" d="M754.266,-317.78C766.372,-327.41 789.497,-345.804 790.93,-346.944"/>
</g>
<!-- Reaction16_intermediate_r&#45;&gt;Reaction16 -->
<g id="edge142" class="edge"><title>Reaction16_intermediate_r&#45;&gt;Reaction16</title>
<path fill="none" stroke="black" d="M703.126,-312C705.022,-312 727.795,-312 739.759,-312"/>
</g>
<!-- Reaction16_intermediate_p&#45;&gt;MR -->
<g id="edge148" class="edge"><title>Reaction16_intermediate_p&#45;&gt;MR</title>
<path fill="none" stroke="black" d="M790.937,-346.984C788.497,-346.387 716.233,-328.7 675.413,-318.709"/>
<polygon fill="black" stroke="black" points="676.08,-315.269 665.535,-316.292 674.416,-322.069 676.08,-315.269"/>
</g>
<!-- Reaction16_intermediate_p&#45;&gt;R -->
<g id="edge150" class="edge"><title>Reaction16_intermediate_p&#45;&gt;R</title>
<path fill="none" stroke="black" d="M791.046,-347.028C792.155,-347.686 812.93,-360.021 830.505,-370.456"/>
<polygon fill="black" stroke="black" points="828.897,-373.572 839.282,-375.668 832.471,-367.553 828.897,-373.572"/>
</g>
</g>
</svg>
