<?xml version="1.0" encoding="UTF-8" standalone="no"?>
<!DOCTYPE svg PUBLIC "-//W3C//DTD SVG 1.1//EN"
 "http://www.w3.org/Graphics/SVG/1.1/DTD/svg11.dtd">
<!-- Generated by graphviz version 2.30.1 (20140821.0912)
 -->
<!-- Title: G Pages: 1 -->
<svg width="1340pt" height="141pt"
 viewBox="0.00 0.00 1340.00 141.00" xmlns="http://www.w3.org/2000/svg" xmlns:xlink="http://www.w3.org/1999/xlink">
<g id="graph0" class="graph" transform="scale(1 1) rotate(0) translate(4 137)">
<title>G</title>
<polygon fill="white" stroke="white" points="-4,5 -4,-137 1337,-137 1337,5 -4,5"/>
<!-- GLC -->
<g id="GLC [CHEBI:17234]" class="node"><title>GLC</title>
<ellipse fill="none" stroke="black" cx="59" cy="-115" rx="58.7329" ry="18"/>
<text text-anchor="middle" x="59" y="-112.5" font-family="Times,serif" font-size="10.00">intracellular glucose</text>
</g>
<!-- vgk_intermediate_r -->
<g id="node9" class="node"><title>vgk_intermediate_r</title>
<ellipse fill="black" stroke="black" cx="154" cy="-115" rx="0.036" ry="0.036"/>
</g>
<!-- GLC&#45;&gt;vgk_intermediate_r -->
<g id="edge2" class="edge"><title>GLC&#45;&gt;vgk_intermediate_r</title>
<path fill="none" stroke="black" d="M118.106,-115C136.317,-115 151.991,-115 152.953,-115"/>
</g>
<!-- G6P_F6P -->
<g id="G6P_F6P [CHEBI:4170] [CHEBI:14314] [CHEBI:15946]" class="node"><title>G6P_F6P</title>
<ellipse fill="none" stroke="black" cx="309" cy="-115" rx="32.9303" ry="18"/>
<text text-anchor="middle" x="309" y="-112.5" font-family="Times,serif" font-size="10.00">G6P_F6P</text>
</g>
<!-- vpfk_intermediate_r -->
<g id="node12" class="node"><title>vpfk_intermediate_r</title>
<ellipse fill="black" stroke="black" cx="378" cy="-115" rx="0.036" ry="0.036"/>
</g>
<!-- G6P_F6P&#45;&gt;vpfk_intermediate_r -->
<g id="edge6" class="edge"><title>G6P_F6P&#45;&gt;vpfk_intermediate_r</title>
<path fill="none" stroke="black" d="M342.322,-115C358.92,-115 375.904,-115 376.949,-115"/>
</g>
<!-- F6P -->
<g id="F6P [CHEBI:15946]" class="node"><title>F6P</title>
<ellipse fill="none" stroke="black" cx="474" cy="-72" rx="60.0873" ry="18"/>
<text text-anchor="middle" x="474" y="-69.5" font-family="Times,serif" font-size="10.00">fructose&#45;6&#45;phosphate</text>
</g>
<!-- vpfk_intermediate_m -->
<g id="node14" class="node"><title>vpfk_intermediate_m</title>
<ellipse fill="black" stroke="black" cx="570" cy="-85" rx="0.036" ry="0.036"/>
</g>
<!-- F6P&#45;&gt;vpfk_intermediate_m -->
<g id="edge10" class="edge"><title>F6P&#45;&gt;vpfk_intermediate_m</title>
<path fill="none" stroke="black" d="M528.863,-79.4491C549.209,-82.263 567.802,-84.8344 568.944,-84.9923"/>
</g>
<!-- FBP -->
<g id="FBP [CHEBI:16905]" class="node"><title>FBP</title>
<ellipse fill="none" stroke="black" cx="676" cy="-115" rx="69.4245" ry="18"/>
<text text-anchor="middle" x="676" y="-112.5" font-family="Times,serif" font-size="10.00">fructose&#45;1,6&#45;biphosphate</text>
</g>
<!-- vfba_intermediate_r -->
<g id="node16" class="node"><title>vfba_intermediate_r</title>
<ellipse fill="black" stroke="black" cx="782" cy="-115" rx="0.036" ry="0.036"/>
</g>
<!-- FBP&#45;&gt;vfba_intermediate_r -->
<g id="edge12" class="edge"><title>FBP&#45;&gt;vfba_intermediate_r</title>
<path fill="none" stroke="black" d="M745.5,-115C764.363,-115 779.995,-115 780.953,-115"/>
</g>
<!-- G3P -->
<g id="G3P [CHEBI:29052]" class="node"><title>G3P</title>
<ellipse fill="none" stroke="black" cx="898" cy="-18" rx="75.198" ry="18"/>
<text text-anchor="middle" x="898" y="-15.5" font-family="Times,serif" font-size="10.00">glyceraldehyde&#45;&#45;phosphate</text>
</g>
<!-- vfba_intermediate_m -->
<g id="node18" class="node"><title>vfba_intermediate_m</title>
<ellipse fill="black" stroke="black" cx="1015" cy="-72" rx="0.036" ry="0.036"/>
</g>
<!-- G3P&#45;&gt;vfba_intermediate_m -->
<g id="edge16" class="edge"><title>G3P&#45;&gt;vfba_intermediate_m</title>
<path fill="none" stroke="black" d="M947.22,-31.7849C957.631,-35.4969 968.39,-39.9184 978,-45 995.128,-54.057 1012.86,-70.9049 1013.95,-71.9491"/>
</g>
<!-- vgapdh_intermediate_m -->
<g id="node22" class="node"><title>vgapdh_intermediate_m</title>
<ellipse fill="black" stroke="black" cx="1305" cy="-29" rx="0.036" ry="0.036"/>
</g>
<!-- G3P&#45;&gt;vgapdh_intermediate_m -->
<g id="edge22" class="edge"><title>G3P&#45;&gt;vgapdh_intermediate_m</title>
<path fill="none" stroke="black" d="M971.795,-21.7254C1010.46,-23.3972 1058.8,-25 1102,-25 1102,-25 1102,-25 1192,-25 1241.03,-25 1302.06,-28.876 1303.95,-28.9971"/>
</g>
<!-- DHAP -->
<g id="DHAP [CHEBI:16108]" class="node"><title>DHAP</title>
<ellipse fill="none" stroke="black" cx="898" cy="-72" rx="80.1164" ry="18"/>
<text text-anchor="middle" x="898" y="-69.5" font-family="Times,serif" font-size="10.00">dihydroxyacetone&#45;phosphate</text>
</g>
<!-- DHAP&#45;&gt;vfba_intermediate_m -->
<g id="edge17" class="edge"><title>DHAP&#45;&gt;vfba_intermediate_m</title>
<path fill="none" stroke="black" d="M978.244,-72C997.541,-72 1013.01,-72 1013.95,-72"/>
</g>
<!-- DHAP_G3P -->
<g id="DHAP_G3P [CHEBI:16108] [CHEBI:29052] [CHEBI:16108]" class="node"><title>DHAP_G3P</title>
<ellipse fill="none" stroke="black" cx="1103" cy="-77" rx="50.7503" ry="18"/>
<text text-anchor="middle" x="1103" y="-74.5" font-family="Times,serif" font-size="10.00">DHAP&#45;G3P pool</text>
</g>
<!-- vgapdh_intermediate_r -->
<g id="node20" class="node"><title>vgapdh_intermediate_r</title>
<ellipse fill="black" stroke="black" cx="1191" cy="-75" rx="0.036" ry="0.036"/>
</g>
<!-- DHAP_G3P&#45;&gt;vgapdh_intermediate_r -->
<g id="edge19" class="edge"><title>DHAP_G3P&#45;&gt;vgapdh_intermediate_r</title>
<path fill="none" stroke="black" d="M1153.53,-75.8482C1172.05,-75.4175 1188.91,-75.0253 1189.95,-75.0012"/>
</g>
<!-- vgk -->
<g id="node8" class="node"><title>vgk</title>
<polygon fill="none" stroke="black" points="204,-122 190,-122 190,-108 204,-108 204,-122"/>
</g>
<!-- vgk_intermediate_p -->
<g id="node10" class="node"><title>vgk_intermediate_p</title>
<ellipse fill="black" stroke="black" cx="240" cy="-115" rx="0.036" ry="0.036"/>
</g>
<!-- vgk&#45;&gt;vgk_intermediate_p -->
<g id="edge3" class="edge"><title>vgk&#45;&gt;vgk_intermediate_p</title>
<path fill="none" stroke="black" d="M204.05,-115C215.098,-115 237.54,-115 238.932,-115"/>
</g>
<!-- vgk_intermediate_r&#45;&gt;vgk -->
<g id="edge1" class="edge"><title>vgk_intermediate_r&#45;&gt;vgk</title>
<path fill="none" stroke="black" d="M155.118,-115C156.921,-115 179.016,-115 189.95,-115"/>
</g>
<!-- vgk_intermediate_p&#45;&gt;G6P_F6P -->
<g id="edge4" class="edge"><title>vgk_intermediate_p&#45;&gt;G6P_F6P</title>
<path fill="none" stroke="black" d="M241.049,-115C241.863,-115 252.819,-115 265.64,-115"/>
<polygon fill="black" stroke="black" points="265.671,-118.5 275.671,-115 265.671,-111.5 265.671,-118.5"/>
</g>
<!-- vpfk -->
<g id="node11" class="node"><title>vpfk</title>
<polygon fill="none" stroke="black" points="481,-122 467,-122 467,-108 481,-108 481,-122"/>
</g>
<!-- vpfk_intermediate_p -->
<g id="node13" class="node"><title>vpfk_intermediate_p</title>
<ellipse fill="black" stroke="black" cx="570" cy="-115" rx="0.036" ry="0.036"/>
</g>
<!-- vpfk&#45;&gt;vpfk_intermediate_p -->
<g id="edge7" class="edge"><title>vpfk&#45;&gt;vpfk_intermediate_p</title>
<path fill="none" stroke="black" d="M481.168,-115C501.753,-115 566.92,-115 568.951,-115"/>
</g>
<!-- vpfk&#45;&gt;vpfk_intermediate_m -->
<g id="edge9" class="edge"><title>vpfk&#45;&gt;vpfk_intermediate_m</title>
<path fill="none" stroke="black" d="M481.272,-113.552C492.128,-110.99 515.077,-105.327 534,-99 549.393,-93.8535 567.809,-85.5397 568.945,-85.0251"/>
</g>
<!-- vpfk_intermediate_r&#45;&gt;vpfk -->
<g id="edge5" class="edge"><title>vpfk_intermediate_r&#45;&gt;vpfk</title>
<path fill="none" stroke="black" d="M379.068,-115C381.459,-115 446.088,-115 466.728,-115"/>
</g>
<!-- vpfk_intermediate_p&#45;&gt;FBP -->
<g id="edge8" class="edge"><title>vpfk_intermediate_p&#45;&gt;FBP</title>
<path fill="none" stroke="black" d="M571.075,-115C572.055,-115 582.479,-115 596.378,-115"/>
<polygon fill="black" stroke="black" points="596.482,-118.5 606.482,-115 596.482,-111.5 596.482,-118.5"/>
</g>
<!-- vfba -->
<g id="node15" class="node"><title>vfba</title>
<polygon fill="none" stroke="black" points="905,-122 891,-122 891,-108 905,-108 905,-122"/>
</g>
<!-- vfba_intermediate_p -->
<g id="node17" class="node"><title>vfba_intermediate_p</title>
<ellipse fill="black" stroke="black" cx="1015" cy="-90" rx="0.036" ry="0.036"/>
</g>
<!-- vfba&#45;&gt;vfba_intermediate_p -->
<g id="edge13" class="edge"><title>vfba&#45;&gt;vfba_intermediate_p</title>
<path fill="none" stroke="black" d="M905.166,-113.849C918.496,-111.341 950.975,-105.112 978,-99 993.584,-95.4759 1012.76,-90.3335 1013.94,-90.0155"/>
</g>
<!-- vfba&#45;&gt;vfba_intermediate_m -->
<g id="edge15" class="edge"><title>vfba&#45;&gt;vfba_intermediate_m</title>
<path fill="none" stroke="black" d="M905.021,-114.682C918.61,-113.777 952.464,-110.455 978,-99 995.678,-91.0702 1012.89,-73.1655 1013.95,-72.0542"/>
</g>
<!-- vfba_intermediate_r&#45;&gt;vfba -->
<g id="edge11" class="edge"><title>vfba_intermediate_r&#45;&gt;vfba</title>
<path fill="none" stroke="black" d="M783.083,-115C786.036,-115 867.304,-115 890.734,-115"/>
</g>
<!-- vfba_intermediate_p&#45;&gt;DHAP_G3P -->
<g id="edge14" class="edge"><title>vfba_intermediate_p&#45;&gt;DHAP_G3P</title>
<path fill="none" stroke="black" d="M1016.06,-89.9906C1017.07,-89.8378 1030.25,-87.8461 1045.99,-85.4662"/>
<polygon fill="black" stroke="black" points="1046.68,-88.9026 1056.04,-83.9472 1045.63,-81.9812 1046.68,-88.9026"/>
</g>
<!-- vgapdh -->
<g id="node19" class="node"><title>vgapdh</title>
<polygon fill="none" stroke="black" points="1242,-74 1228,-74 1228,-60 1242,-60 1242,-74"/>
</g>
<!-- vgapdh_empty -->
<g id="node21" class="node"><title>vgapdh_empty</title>
<text text-anchor="middle" x="1305" y="-63.5" font-family="Times,serif" font-size="15.00" fill="blue">Ø</text>
</g>
<!-- vgapdh&#45;&gt;vgapdh_empty -->
<g id="edge20" class="edge"><title>vgapdh&#45;&gt;vgapdh_empty</title>
<path fill="none" stroke="black" d="M1242.28,-67C1248.28,-67 1257.85,-67 1267.68,-67"/>
<polygon fill="black" stroke="black" points="1267.88,-70.5001 1277.88,-67 1267.88,-63.5001 1267.88,-70.5001"/>
</g>
<!-- vgapdh&#45;&gt;vgapdh_intermediate_m -->
<g id="edge21" class="edge"><title>vgapdh&#45;&gt;vgapdh_intermediate_m</title>
<path fill="none" stroke="black" d="M1242.06,-62.6317C1250.05,-56.9848 1264.66,-47.0424 1278,-40 1288.4,-34.5078 1302.15,-29.6455 1303.83,-29.0592"/>
</g>
<!-- vgapdh_intermediate_r&#45;&gt;vgapdh -->
<g id="edge18" class="edge"><title>vgapdh_intermediate_r&#45;&gt;vgapdh</title>
<path fill="none" stroke="black" d="M1192.12,-74.9771C1193.97,-74.6251 1216.6,-70.314 1227.8,-68.1804"/>
</g>
</g>
</svg>
