<?xml version="1.0" encoding="UTF-8" standalone="no"?>
<!DOCTYPE svg PUBLIC "-//W3C//DTD SVG 1.1//EN"
 "http://www.w3.org/Graphics/SVG/1.1/DTD/svg11.dtd">
<!-- Generated by graphviz version 2.24.0 (20090616.2323)
 -->
<!-- Title: G Pages: 1 -->
<svg width="1248pt" height="491pt"
 viewBox="0.00 0.00 1248.00 491.00" xmlns="http://www.w3.org/2000/svg" xmlns:xlink="http://www.w3.org/1999/xlink">
<g id="graph1" class="graph" transform="scale(1 1) rotate(0) translate(4 487)">
<title>G</title>
<polygon fill="white" stroke="white" points="-4,5 -4,-487 1245,-487 1245,5 -4,5"/>
<!-- I -->
<g id="node1" class="node"><title>I</title>
<polyline fill="none" stroke="black" points="382,-179 352,-179 "/>
<path fill="none" stroke="black" d="M352,-179C346,-179 340,-173 340,-167"/>
<polyline fill="none" stroke="black" points="340,-167 340,-155 "/>
<path fill="none" stroke="black" d="M340,-155C340,-149 346,-143 352,-143"/>
<polyline fill="none" stroke="black" points="352,-143 382,-143 "/>
<path fill="none" stroke="black" d="M382,-143C388,-143 394,-149 394,-155"/>
<polyline fill="none" stroke="black" points="394,-155 394,-167 "/>
<path fill="none" stroke="black" d="M394,-167C394,-173 388,-179 382,-179"/>
<text text-anchor="middle" x="367" y="-158.5" font-family="Times Roman,serif" font-size="10.00">Aux/IAA</text>
</g>
<!-- reac_DIA_intermediate_r -->
<g id="node8" class="node"><title>reac_DIA_intermediate_r</title>
<ellipse fill="black" stroke="black" cx="457" cy="-276" rx="0.036" ry="0.036"/>
</g>
<!-- I&#45;&gt;reac_DIA_intermediate_r -->
<g id="edge6" class="edge"><title>I&#45;&gt;reac_DIA_intermediate_r</title>
<path fill="none" stroke="black" d="M387.525,-187.226C413.637,-220.592 455.552,-274.15 456.963,-275.953"/>
<polygon fill="black" stroke="black" points="390.18,-184.94 381.261,-179.222 384.668,-189.254 390.18,-184.94"/>
</g>
<!-- reac_DII_intermediate_r -->
<g id="node16" class="node"><title>reac_DII_intermediate_r</title>
<ellipse fill="black" stroke="black" cx="457" cy="-95" rx="0.036" ry="0.036"/>
</g>
<!-- I&#45;&gt;reac_DII_intermediate_r -->
<g id="edge14" class="edge"><title>I&#45;&gt;reac_DII_intermediate_r</title>
<path fill="none" stroke="black" d="M386.466,-135.294C398.509,-123.506 414.57,-110.202 430,-100 441.099,-92.6614 456.51,-86.2047 456.989,-94.5895"/>
<polygon fill="black" stroke="black" points="383.65,-133.169 379.179,-142.774 388.664,-138.053 383.65,-133.169"/>
</g>
<!-- I&#45;&gt;reac_DII_intermediate_r -->
<g id="edge16" class="edge"><title>I&#45;&gt;reac_DII_intermediate_r</title>
<path fill="none" stroke="black" d="M402.093,-138.561C410.926,-131.612 420.58,-124.228 430,-118 441.099,-110.661 456.51,-104.205 456.989,-95.4201"/>
<polygon fill="black" stroke="black" points="399.913,-135.823 394.243,-144.773 404.257,-141.312 399.913,-135.823"/>
</g>
<!-- reac_degrI_intermediate_r -->
<g id="node24" class="node"><title>reac_degrI_intermediate_r</title>
<ellipse fill="black" stroke="black" cx="527" cy="-161" rx="0.036" ry="0.036"/>
</g>
<!-- I&#45;&gt;reac_degrI_intermediate_r -->
<g id="edge24" class="edge"><title>I&#45;&gt;reac_degrI_intermediate_r</title>
<path fill="none" stroke="black" d="M394.142,-161C439.077,-161 524.285,-161 526.937,-161"/>
</g>
<!-- reac_prodR_intermediate_m -->
<g id="node97" class="node"><title>reac_prodR_intermediate_m</title>
<ellipse fill="black" stroke="black" cx="1100" cy="-349" rx="0.036" ry="0.036"/>
</g>
<!-- I&#45;&gt;reac_prodR_intermediate_m -->
<g id="edge108" class="edge"><title>I&#45;&gt;reac_prodR_intermediate_m</title>
<path fill="none" stroke="black" d="M370.606,-179.112C382.442,-232.741 425.324,-387 527,-387 527,-387 527,-387 947,-387 1015.97,-387 1097.41,-350.178 1099.94,-349.028"/>
</g>
<!-- A -->
<g id="node2" class="node"><title>A</title>
<polyline fill="none" stroke="black" points="1052,-265 1022,-265 "/>
<path fill="none" stroke="black" d="M1022,-265C1016,-265 1010,-259 1010,-253"/>
<polyline fill="none" stroke="black" points="1010,-253 1010,-241 "/>
<path fill="none" stroke="black" d="M1010,-241C1010,-235 1016,-229 1022,-229"/>
<polyline fill="none" stroke="black" points="1022,-229 1052,-229 "/>
<path fill="none" stroke="black" d="M1052,-229C1058,-229 1064,-235 1064,-241"/>
<polyline fill="none" stroke="black" points="1064,-241 1064,-253 "/>
<path fill="none" stroke="black" d="M1064,-253C1064,-259 1058,-265 1052,-265"/>
<text text-anchor="middle" x="1037" y="-244.5" font-family="Times Roman,serif" font-size="10.00">ARF</text>
</g>
<!-- A&#45;&gt;reac_DIA_intermediate_r -->
<g id="edge4" class="edge"><title>A&#45;&gt;reac_DIA_intermediate_r</title>
<path fill="none" stroke="black" d="M1012.17,-272.15C979.58,-302.353 919.183,-349 857,-349 571,-349 571,-349 571,-349 511.776,-349 458.684,-278.263 457.039,-276.053"/>
<polygon fill="black" stroke="black" points="1014.61,-274.657 1019.46,-265.236 1009.79,-269.579 1014.61,-274.657"/>
</g>
<!-- reac_degrA_intermediate_r -->
<g id="node33" class="node"><title>reac_degrA_intermediate_r</title>
<ellipse fill="black" stroke="black" cx="1100" cy="-247" rx="0.036" ry="0.036"/>
</g>
<!-- A&#45;&gt;reac_degrA_intermediate_r -->
<g id="edge34" class="edge"><title>A&#45;&gt;reac_degrA_intermediate_r</title>
<path fill="none" stroke="black" d="M1064.08,-247C1080.62,-247 1098.82,-247 1099.95,-247"/>
</g>
<!-- A&#45;&gt;reac_prodR_intermediate_m -->
<g id="edge104" class="edge"><title>A&#45;&gt;reac_prodR_intermediate_m</title>
<path fill="none" stroke="black" d="M1048.26,-265.236C1065.82,-293.658 1097.91,-345.623 1099.9,-348.843"/>
</g>
<!-- D_II -->
<g id="node3" class="node"><title>D_II</title>
<polyline fill="none" stroke="black" points="692,-95 620,-95 "/>
<path fill="none" stroke="black" d="M620,-95C614,-95 608,-89 608,-83"/>
<polyline fill="none" stroke="black" points="608,-83 608,-71 "/>
<path fill="none" stroke="black" d="M608,-71C608,-65 614,-59 620,-59"/>
<polyline fill="none" stroke="black" points="620,-59 692,-59 "/>
<path fill="none" stroke="black" d="M692,-59C698,-59 704,-65 704,-71"/>
<polyline fill="none" stroke="black" points="704,-71 704,-83 "/>
<path fill="none" stroke="black" d="M704,-83C704,-89 698,-95 692,-95"/>
<text text-anchor="middle" x="656" y="-74.5" font-family="Times Roman,serif" font-size="10.00">Aux/IAA:Aux/IAA</text>
</g>
<!-- reac_degrDII_intermediate_r -->
<g id="node45" class="node"><title>reac_degrDII_intermediate_r</title>
<ellipse fill="black" stroke="black" cx="767" cy="-18" rx="0.036" ry="0.036"/>
</g>
<!-- D_II&#45;&gt;reac_degrDII_intermediate_r -->
<g id="edge46" class="edge"><title>D_II&#45;&gt;reac_degrDII_intermediate_r</title>
<path fill="none" stroke="black" d="M683.186,-58.7819C699.248,-48.5426 720.248,-36.0426 740,-27 751.142,-21.8992 766.035,-18.2349 766.955,-18.0109"/>
</g>
<!-- reac_DIIxI_intermediate_r -->
<g id="node61" class="node"><title>reac_DIIxI_intermediate_r</title>
<ellipse fill="black" stroke="black" cx="767" cy="-90" rx="0.036" ry="0.036"/>
</g>
<!-- D_II&#45;&gt;reac_DIIxI_intermediate_r -->
<g id="edge64" class="edge"><title>D_II&#45;&gt;reac_DIIxI_intermediate_r</title>
<path fill="none" stroke="black" d="M704.041,-82.6264C733.102,-86.03 764.943,-89.7591 766.905,-89.9888"/>
</g>
<!-- D_IA -->
<g id="node4" class="node"><title>D_IA</title>
<polyline fill="none" stroke="black" points="683,-294 629,-294 "/>
<path fill="none" stroke="black" d="M629,-294C623,-294 617,-288 617,-282"/>
<polyline fill="none" stroke="black" points="617,-282 617,-270 "/>
<path fill="none" stroke="black" d="M617,-270C617,-264 623,-258 629,-258"/>
<polyline fill="none" stroke="black" points="629,-258 683,-258 "/>
<path fill="none" stroke="black" d="M683,-258C689,-258 695,-264 695,-270"/>
<polyline fill="none" stroke="black" points="695,-270 695,-282 "/>
<path fill="none" stroke="black" d="M695,-282C695,-288 689,-294 683,-294"/>
<text text-anchor="middle" x="656" y="-273.5" font-family="Times Roman,serif" font-size="10.00">Aux/IAA:ARF</text>
</g>
<!-- reac_degrDIA_intermediate_r -->
<g id="node39" class="node"><title>reac_degrDIA_intermediate_r</title>
<ellipse fill="black" stroke="black" cx="767" cy="-276" rx="0.036" ry="0.036"/>
</g>
<!-- D_IA&#45;&gt;reac_degrDIA_intermediate_r -->
<g id="edge40" class="edge"><title>D_IA&#45;&gt;reac_degrDIA_intermediate_r</title>
<path fill="none" stroke="black" d="M695.134,-276C726.093,-276 764.514,-276 766.885,-276"/>
</g>
<!-- reac_DIAxA_intermediate_r -->
<g id="node51" class="node"><title>reac_DIAxA_intermediate_r</title>
<ellipse fill="black" stroke="black" cx="767" cy="-251" rx="0.036" ry="0.036"/>
</g>
<!-- D_IA&#45;&gt;reac_DIAxA_intermediate_r -->
<g id="edge52" class="edge"><title>D_IA&#45;&gt;reac_DIAxA_intermediate_r</title>
<path fill="none" stroke="black" d="M695.134,-267.186C726.093,-260.213 764.514,-251.56 766.885,-251.026"/>
</g>
<!-- D_IA&#45;&gt;reac_prodR_intermediate_m -->
<g id="edge106" class="edge"><title>D_IA&#45;&gt;reac_prodR_intermediate_m</title>
<path fill="none" stroke="black" d="M695.312,-286.978C735.577,-297.243 800.149,-311 857,-311 857,-311 857,-311 947,-311 1015.97,-311 1097.41,-347.822 1099.94,-348.972"/>
</g>
<!-- R -->
<g id="node5" class="node"><title>R</title>
<ellipse fill="none" stroke="black" cx="248" cy="-433" rx="18" ry="18"/>
<text text-anchor="middle" x="248" y="-430.5" font-family="Times Roman,serif" font-size="10.00">mRNA</text>
</g>
<!-- reac_degrR_intermediate_r -->
<g id="node71" class="node"><title>reac_degrR_intermediate_r</title>
<ellipse fill="black" stroke="black" cx="303" cy="-433" rx="0.036" ry="0.036"/>
</g>
<!-- R&#45;&gt;reac_degrR_intermediate_r -->
<g id="edge76" class="edge"><title>R&#45;&gt;reac_degrR_intermediate_r</title>
<path fill="none" stroke="black" d="M266.009,-433C281.548,-433 301.695,-433 302.939,-433"/>
</g>
<!-- reac_prodI_intermediate_m -->
<g id="node82" class="node"><title>reac_prodI_intermediate_m</title>
<ellipse fill="black" stroke="black" cx="303" cy="-403" rx="0.036" ry="0.036"/>
</g>
<!-- R&#45;&gt;reac_prodI_intermediate_m -->
<g id="edge88" class="edge"><title>R&#45;&gt;reac_prodI_intermediate_m</title>
<path fill="none" stroke="black" d="M263.908,-424.323C279.644,-415.739 301.578,-403.775 302.934,-403.036"/>
</g>
<!-- aux -->
<g id="node6" class="node"><title>aux</title>
<polyline fill="none" stroke="black" points="872,-219 842,-219 "/>
<path fill="none" stroke="black" d="M842,-219C836,-219 830,-213 830,-207"/>
<polyline fill="none" stroke="black" points="830,-207 830,-195 "/>
<path fill="none" stroke="black" d="M830,-195C830,-189 836,-183 842,-183"/>
<polyline fill="none" stroke="black" points="842,-183 872,-183 "/>
<path fill="none" stroke="black" d="M872,-183C878,-183 884,-189 884,-195"/>
<polyline fill="none" stroke="black" points="884,-195 884,-207 "/>
<path fill="none" stroke="black" d="M884,-207C884,-213 878,-219 872,-219"/>
<text text-anchor="middle" x="857" y="-198.5" font-family="Times Roman,serif" font-size="10.00">auxin</text>
</g>
<!-- reac_degrI_intermediate_m -->
<g id="node29" class="node"><title>reac_degrI_intermediate_m</title>
<ellipse fill="black" stroke="black" cx="947" cy="-193" rx="0.036" ry="0.036"/>
</g>
<!-- aux&#45;&gt;reac_degrI_intermediate_m -->
<g id="edge30" class="edge"><title>aux&#45;&gt;reac_degrI_intermediate_m</title>
<path fill="none" stroke="black" d="M884.003,-198.6C909.685,-196.317 944.729,-193.202 946.895,-193.009"/>
</g>
<!-- reac_DIAxA_intermediate_m -->
<g id="node57" class="node"><title>reac_DIAxA_intermediate_m</title>
<ellipse fill="black" stroke="black" cx="947" cy="-211" rx="0.036" ry="0.036"/>
</g>
<!-- aux&#45;&gt;reac_DIAxA_intermediate_m -->
<g id="edge60" class="edge"><title>aux&#45;&gt;reac_DIAxA_intermediate_m</title>
<path fill="none" stroke="black" d="M884.003,-204C909.685,-206.854 944.729,-210.748 946.895,-210.988"/>
</g>
<!-- reac_DIIxI_intermediate_m -->
<g id="node67" class="node"><title>reac_DIIxI_intermediate_m</title>
<ellipse fill="black" stroke="black" cx="947" cy="-117" rx="0.036" ry="0.036"/>
</g>
<!-- aux&#45;&gt;reac_DIIxI_intermediate_m -->
<g id="edge72" class="edge"><title>aux&#45;&gt;reac_DIIxI_intermediate_m</title>
<path fill="none" stroke="black" d="M875.552,-182.94C878.43,-179.999 881.331,-176.949 884,-174 900.954,-155.266 900.147,-145.629 920,-130 930.138,-122.019 945.972,-117.301 946.952,-117.014"/>
</g>
<!-- reac_DIA -->
<g id="node7" class="node"><title>reac_DIA</title>
<polygon fill="none" stroke="black" points="534,-283 520,-283 520,-269 534,-269 534,-283"/>
</g>
<!-- reac_DIA_intermediate_p -->
<g id="node12" class="node"><title>reac_DIA_intermediate_p</title>
<ellipse fill="black" stroke="black" cx="571" cy="-276" rx="0.036" ry="0.036"/>
</g>
<!-- reac_DIA&#45;&gt;reac_DIA_intermediate_p -->
<g id="edge8" class="edge"><title>reac_DIA&#45;&gt;reac_DIA_intermediate_p</title>
<path fill="none" stroke="black" d="M534.266,-276C546.372,-276 569.497,-276 570.93,-276"/>
</g>
<!-- reac_DIA_intermediate_r&#45;&gt;reac_DIA -->
<g id="edge2" class="edge"><title>reac_DIA_intermediate_r&#45;&gt;reac_DIA</title>
<path fill="none" stroke="black" d="M457.051,-276C458.748,-276 502.582,-276 519.98,-276"/>
</g>
<!-- reac_DIA_intermediate_p&#45;&gt;D_IA -->
<g id="edge10" class="edge"><title>reac_DIA_intermediate_p&#45;&gt;D_IA</title>
<path fill="none" stroke="black" d="M571.062,-276C572.19,-276 588.65,-276 606.784,-276"/>
<polygon fill="black" stroke="black" points="606.944,-279.5 616.944,-276 606.944,-272.5 606.944,-279.5"/>
</g>
<!-- reac_DII -->
<g id="node15" class="node"><title>reac_DII</title>
<polygon fill="none" stroke="black" points="534,-92 520,-92 520,-78 534,-78 534,-92"/>
</g>
<!-- reac_DII_intermediate_p -->
<g id="node20" class="node"><title>reac_DII_intermediate_p</title>
<ellipse fill="black" stroke="black" cx="571" cy="-80" rx="0.036" ry="0.036"/>
</g>
<!-- reac_DII&#45;&gt;reac_DII_intermediate_p -->
<g id="edge18" class="edge"><title>reac_DII&#45;&gt;reac_DII_intermediate_p</title>
<path fill="none" stroke="black" d="M534.266,-84.1744C546.372,-82.7986 569.497,-80.1708 570.93,-80.0079"/>
</g>
<!-- reac_DII_intermediate_r&#45;&gt;reac_DII -->
<g id="edge12" class="edge"><title>reac_DII_intermediate_r&#45;&gt;reac_DII</title>
<path fill="none" stroke="black" d="M457.051,-94.9928C458.748,-94.7503 502.582,-88.4883 519.98,-86.0029"/>
</g>
<!-- reac_DII_intermediate_p&#45;&gt;D_II -->
<g id="edge20" class="edge"><title>reac_DII_intermediate_p&#45;&gt;D_II</title>
<path fill="none" stroke="black" d="M571.062,-79.9978C571.993,-79.965 583.37,-79.5634 597.511,-79.0643"/>
<polygon fill="black" stroke="black" points="597.779,-82.5571 607.649,-78.7065 597.532,-75.5615 597.779,-82.5571"/>
</g>
<!-- reac_degrI -->
<g id="node23" class="node"><title>reac_degrI</title>
<polygon fill="none" stroke="black" points="864,-165 850,-165 850,-151 864,-151 864,-165"/>
</g>
<!-- reac_degrI_empty -->
<g id="node27" class="node"><title>reac_degrI_empty</title>
<text text-anchor="middle" x="947" y="-152.5" font-family="Times Roman,serif" font-size="15.00" fill="blue">Ø</text>
</g>
<!-- reac_degrI&#45;&gt;reac_degrI_empty -->
<g id="edge26" class="edge"><title>reac_degrI&#45;&gt;reac_degrI_empty</title>
<path fill="none" stroke="black" d="M864.062,-157.922C873.877,-157.812 892.359,-157.607 909.389,-157.418"/>
<polygon fill="black" stroke="black" points="909.754,-160.914 919.715,-157.303 909.676,-153.915 909.754,-160.914"/>
</g>
<!-- reac_degrI&#45;&gt;reac_degrI_intermediate_m -->
<g id="edge28" class="edge"><title>reac_degrI&#45;&gt;reac_degrI_intermediate_m</title>
<path fill="none" stroke="black" d="M875.456,-166.014C887.943,-171.338 904.858,-178.36 920,-184 931.483,-188.277 946.057,-192.714 946.956,-192.987"/>
<polygon fill="none" stroke="black" points="875.326,-165.958 868.233,-167.257 864.306,-161.21 871.399,-159.91 875.326,-165.958"/>
</g>
<!-- reac_degrI_intermediate_r&#45;&gt;reac_degrI -->
<g id="edge22" class="edge"><title>reac_degrI_intermediate_r&#45;&gt;reac_degrI</title>
<path fill="none" stroke="black" d="M527.06,-160.999C531.69,-160.957 802.365,-158.497 849.909,-158.064"/>
</g>
<!-- reac_degrA -->
<g id="node32" class="node"><title>reac_degrA</title>
<polygon fill="none" stroke="black" points="1150,-254 1136,-254 1136,-240 1150,-240 1150,-254"/>
</g>
<!-- reac_degrA_empty -->
<g id="node36" class="node"><title>reac_degrA_empty</title>
<text text-anchor="middle" x="1213" y="-242.5" font-family="Times Roman,serif" font-size="15.00" fill="blue">Ø</text>
</g>
<!-- reac_degrA&#45;&gt;reac_degrA_empty -->
<g id="edge36" class="edge"><title>reac_degrA&#45;&gt;reac_degrA_empty</title>
<path fill="none" stroke="black" d="M1150.23,-247C1156.45,-247 1165.94,-247 1175.67,-247"/>
<polygon fill="black" stroke="black" points="1175.77,-250.5 1185.77,-247 1175.77,-243.5 1175.77,-250.5"/>
</g>
<!-- reac_degrA_intermediate_r&#45;&gt;reac_degrA -->
<g id="edge32" class="edge"><title>reac_degrA_intermediate_r&#45;&gt;reac_degrA</title>
<path fill="none" stroke="black" d="M1100.12,-247C1101.98,-247 1124.23,-247 1135.92,-247"/>
</g>
<!-- reac_degrDIA -->
<g id="node38" class="node"><title>reac_degrDIA</title>
<polygon fill="none" stroke="black" points="864,-283 850,-283 850,-269 864,-269 864,-283"/>
</g>
<!-- reac_degrDIA_empty -->
<g id="node42" class="node"><title>reac_degrDIA_empty</title>
<text text-anchor="middle" x="947" y="-260.5" font-family="Times Roman,serif" font-size="15.00" fill="blue">Ø</text>
</g>
<!-- reac_degrDIA&#45;&gt;reac_degrDIA_empty -->
<g id="edge42" class="edge"><title>reac_degrDIA&#45;&gt;reac_degrDIA_empty</title>
<path fill="none" stroke="black" d="M864.062,-275.137C873.877,-273.937 892.359,-271.678 909.389,-269.597"/>
<polygon fill="black" stroke="black" points="910.213,-273.022 919.715,-268.335 909.364,-266.074 910.213,-273.022"/>
</g>
<!-- reac_degrDIA_intermediate_r&#45;&gt;reac_degrDIA -->
<g id="edge38" class="edge"><title>reac_degrDIA_intermediate_r&#45;&gt;reac_degrDIA</title>
<path fill="none" stroke="black" d="M767.065,-276C769.311,-276 828.951,-276 849.848,-276"/>
</g>
<!-- reac_degrDII -->
<g id="node44" class="node"><title>reac_degrDII</title>
<polygon fill="none" stroke="black" points="864,-25 850,-25 850,-11 864,-11 864,-25"/>
</g>
<!-- reac_degrDII_empty -->
<g id="node48" class="node"><title>reac_degrDII_empty</title>
<text text-anchor="middle" x="947" y="-13.5" font-family="Times Roman,serif" font-size="15.00" fill="blue">Ø</text>
</g>
<!-- reac_degrDII&#45;&gt;reac_degrDII_empty -->
<g id="edge48" class="edge"><title>reac_degrDII&#45;&gt;reac_degrDII_empty</title>
<path fill="none" stroke="black" d="M864.062,-18C873.877,-18 892.359,-18 909.389,-18"/>
<polygon fill="black" stroke="black" points="909.715,-21.5001 919.715,-18 909.715,-14.5001 909.715,-21.5001"/>
</g>
<!-- reac_degrDII_intermediate_r&#45;&gt;reac_degrDII -->
<g id="edge44" class="edge"><title>reac_degrDII_intermediate_r&#45;&gt;reac_degrDII</title>
<path fill="none" stroke="black" d="M767.065,-18C769.311,-18 828.951,-18 849.848,-18"/>
</g>
<!-- reac_DIAxA -->
<g id="node50" class="node"><title>reac_DIAxA</title>
<polygon fill="none" stroke="black" points="864,-251 850,-251 850,-237 864,-237 864,-251"/>
</g>
<!-- reac_DIAxA_intermediate_p -->
<g id="node54" class="node"><title>reac_DIAxA_intermediate_p</title>
<ellipse fill="black" stroke="black" cx="947" cy="-229" rx="0.036" ry="0.036"/>
</g>
<!-- reac_DIAxA&#45;&gt;reac_DIAxA_intermediate_p -->
<g id="edge54" class="edge"><title>reac_DIAxA&#45;&gt;reac_DIAxA_intermediate_p</title>
<path fill="none" stroke="black" d="M864.062,-242.823C884.947,-239.342 945.081,-229.32 946.955,-229.007"/>
</g>
<!-- reac_DIAxA&#45;&gt;reac_DIAxA_intermediate_m -->
<g id="edge58" class="edge"><title>reac_DIAxA&#45;&gt;reac_DIAxA_intermediate_m</title>
<path fill="none" stroke="black" d="M875.514,-236.711C888.026,-231.844 904.947,-225.373 920,-220 931.168,-216.013 945.127,-211.592 946.828,-211.054"/>
<polygon fill="none" stroke="black" points="875.507,-236.714 871.38,-242.627 864.334,-241.091 868.462,-235.178 875.507,-236.714"/>
</g>
<!-- reac_DIAxA_intermediate_r&#45;&gt;reac_DIAxA -->
<g id="edge50" class="edge"><title>reac_DIAxA_intermediate_r&#45;&gt;reac_DIAxA</title>
<path fill="none" stroke="black" d="M767.065,-250.995C769.311,-250.82 828.951,-246.182 849.848,-244.556"/>
</g>
<!-- reac_DIAxA_intermediate_p&#45;&gt;A -->
<g id="edge56" class="edge"><title>reac_DIAxA_intermediate_p&#45;&gt;A</title>
<path fill="none" stroke="black" d="M947.065,-229.013C948.565,-229.313 975.648,-234.73 999.704,-239.541"/>
<polygon fill="black" stroke="black" points="999.253,-243.02 1009.75,-241.549 1000.63,-236.156 999.253,-243.02"/>
</g>
<!-- reac_DIIxI -->
<g id="node60" class="node"><title>reac_DIIxI</title>
<polygon fill="none" stroke="black" points="864,-95 850,-95 850,-81 864,-81 864,-95"/>
</g>
<!-- reac_DIIxI_intermediate_p -->
<g id="node64" class="node"><title>reac_DIIxI_intermediate_p</title>
<ellipse fill="black" stroke="black" cx="947" cy="-92" rx="0.036" ry="0.036"/>
</g>
<!-- reac_DIIxI&#45;&gt;reac_DIIxI_intermediate_p -->
<g id="edge66" class="edge"><title>reac_DIIxI&#45;&gt;reac_DIIxI_intermediate_p</title>
<path fill="none" stroke="black" d="M864.062,-88.3139C884.947,-89.2421 945.081,-91.9147 946.955,-91.998"/>
</g>
<!-- reac_DIIxI&#45;&gt;reac_DIIxI_intermediate_m -->
<g id="edge70" class="edge"><title>reac_DIIxI&#45;&gt;reac_DIIxI_intermediate_m</title>
<path fill="none" stroke="black" d="M875.638,-94.0056C901.516,-102.344 945.359,-116.471 946.955,-116.986"/>
<polygon fill="none" stroke="black" points="875.484,-93.956 868.546,-95.923 864.062,-90.2756 871,-88.3085 875.484,-93.956"/>
</g>
<!-- reac_DIIxI_intermediate_r&#45;&gt;reac_DIIxI -->
<g id="edge62" class="edge"><title>reac_DIIxI_intermediate_r&#45;&gt;reac_DIIxI</title>
<path fill="none" stroke="black" d="M767.065,-89.9986C769.311,-89.9486 828.951,-88.6233 849.848,-88.1589"/>
</g>
<!-- reac_DIIxI_intermediate_p&#45;&gt;I -->
<g id="edge68" class="edge"><title>reac_DIIxI_intermediate_p&#45;&gt;I</title>
<path fill="none" stroke="black" d="M946.928,-92.0225C943.916,-92.9612 846.909,-123 767,-123 527,-123 527,-123 527,-123 483.977,-123 436.165,-136.167 404.109,-146.999"/>
<polygon fill="black" stroke="black" points="402.578,-143.826 394.281,-150.415 404.875,-150.438 402.578,-143.826"/>
</g>
<!-- reac_degrR -->
<g id="node70" class="node"><title>reac_degrR</title>
<polygon fill="none" stroke="black" points="374,-440 360,-440 360,-426 374,-426 374,-440"/>
</g>
<!-- reac_degrR_empty -->
<g id="node74" class="node"><title>reac_degrR_empty</title>
<text text-anchor="middle" x="457" y="-428.5" font-family="Times Roman,serif" font-size="15.00" fill="blue">Ø</text>
</g>
<!-- reac_degrR&#45;&gt;reac_degrR_empty -->
<g id="edge78" class="edge"><title>reac_degrR&#45;&gt;reac_degrR_empty</title>
<path fill="none" stroke="black" d="M374.062,-433C383.877,-433 402.359,-433 419.389,-433"/>
<polygon fill="black" stroke="black" points="419.715,-436.5 429.715,-433 419.715,-429.5 419.715,-436.5"/>
</g>
<!-- reac_degrR_intermediate_r&#45;&gt;reac_degrR -->
<g id="edge74" class="edge"><title>reac_degrR_intermediate_r&#45;&gt;reac_degrR</title>
<path fill="none" stroke="black" d="M303.046,-433C304.576,-433 343.51,-433 359.868,-433"/>
</g>
<!-- reac_prodI -->
<g id="node76" class="node"><title>reac_prodI</title>
<polygon fill="none" stroke="black" points="255,-340 241,-340 241,-326 255,-326 255,-340"/>
</g>
<!-- reac_prodI_intermediate_p -->
<g id="node79" class="node"><title>reac_prodI_intermediate_p</title>
<ellipse fill="black" stroke="black" cx="303" cy="-275" rx="0.036" ry="0.036"/>
</g>
<!-- reac_prodI&#45;&gt;reac_prodI_intermediate_p -->
<g id="edge82" class="edge"><title>reac_prodI&#45;&gt;reac_prodI_intermediate_p</title>
<path fill="none" stroke="black" d="M254.744,-325.888C268.972,-310.884 300.92,-277.193 302.903,-275.102"/>
</g>
<!-- reac_prodI&#45;&gt;reac_prodI_intermediate_m -->
<g id="edge86" class="edge"><title>reac_prodI&#45;&gt;reac_prodI_intermediate_m</title>
<path fill="none" stroke="black" d="M261.105,-349.679C276.777,-369.625 301.134,-400.625 302.898,-402.871"/>
<polygon fill="none" stroke="black" points="261.093,-349.663 254.24,-347.417 253.679,-340.228 260.531,-342.474 261.093,-349.663"/>
</g>
<!-- reac_prodI_empty -->
<g id="node77" class="node"><title>reac_prodI_empty</title>
<text text-anchor="middle" x="167" y="-328.5" font-family="Times Roman,serif" font-size="15.00" fill="blue">Ø</text>
</g>
<!-- reac_prodI_empty&#45;&gt;reac_prodI -->
<g id="edge80" class="edge"><title>reac_prodI_empty&#45;&gt;reac_prodI</title>
<path fill="none" stroke="black" d="M194.423,-333C210.762,-333 230.282,-333 240.66,-333"/>
</g>
<!-- reac_prodI_intermediate_p&#45;&gt;I -->
<g id="edge84" class="edge"><title>reac_prodI_intermediate_p&#45;&gt;I</title>
<path fill="none" stroke="black" d="M303.046,-274.917C304.361,-272.575 333.326,-220.982 351.819,-188.041"/>
<polygon fill="black" stroke="black" points="354.883,-189.733 356.726,-179.3 348.779,-186.307 354.883,-189.733"/>
</g>
<!-- reac_prodA -->
<g id="node85" class="node"><title>reac_prodA</title>
<polygon fill="none" stroke="black" points="864,-62 850,-62 850,-48 864,-48 864,-62"/>
</g>
<!-- reac_prodA_intermediate_p -->
<g id="node88" class="node"><title>reac_prodA_intermediate_p</title>
<ellipse fill="black" stroke="black" cx="947" cy="-59" rx="0.036" ry="0.036"/>
</g>
<!-- reac_prodA&#45;&gt;reac_prodA_intermediate_p -->
<g id="edge92" class="edge"><title>reac_prodA&#45;&gt;reac_prodA_intermediate_p</title>
<path fill="none" stroke="black" d="M864.062,-55.3139C884.947,-56.2421 945.081,-58.9147 946.955,-58.998"/>
</g>
<!-- reac_prodA_empty -->
<g id="node86" class="node"><title>reac_prodA_empty</title>
<text text-anchor="middle" x="767" y="-49.5" font-family="Times Roman,serif" font-size="15.00" fill="blue">Ø</text>
</g>
<!-- reac_prodA_empty&#45;&gt;reac_prodA -->
<g id="edge90" class="edge"><title>reac_prodA_empty&#45;&gt;reac_prodA</title>
<path fill="none" stroke="black" d="M794.003,-54.3C813.264,-54.514 837.792,-54.7866 849.766,-54.9196"/>
</g>
<!-- reac_prodA_intermediate_p&#45;&gt;A -->
<g id="edge94" class="edge"><title>reac_prodA_intermediate_p&#45;&gt;A</title>
<path fill="none" stroke="black" d="M947.052,-59.0314C948.108,-59.6773 965.148,-70.2111 974,-83 1003.73,-125.956 1021.88,-184.846 1030.64,-219.119"/>
<polygon fill="black" stroke="black" points="1027.26,-220.049 1033.05,-228.92 1034.06,-218.372 1027.26,-220.049"/>
</g>
<!-- reac_prodR -->
<g id="node91" class="node"><title>reac_prodR</title>
<polygon fill="none" stroke="black" points="104,-472 90,-472 90,-458 104,-458 104,-472"/>
</g>
<!-- reac_prodR_intermediate_p -->
<g id="node94" class="node"><title>reac_prodR_intermediate_p</title>
<ellipse fill="black" stroke="black" cx="167" cy="-442" rx="0.036" ry="0.036"/>
</g>
<!-- reac_prodR&#45;&gt;reac_prodR_intermediate_p -->
<g id="edge98" class="edge"><title>reac_prodR&#45;&gt;reac_prodR_intermediate_p</title>
<path fill="none" stroke="black" d="M104.228,-462.625C121.554,-456.932 164.221,-442.913 166.871,-442.042"/>
</g>
<!-- reac_prodR&#45;&gt;reac_prodR_intermediate_m -->
<g id="edge102" class="edge"><title>reac_prodR&#45;&gt;reac_prodR_intermediate_m</title>
<path fill="none" stroke="black" d="M116.253,-467.935C144.9,-472.04 200.477,-479 248,-479 248,-479 248,-479 947,-479 1034.84,-479 1098,-353.031 1099.95,-349.094"/>
<polygon fill="none" stroke="black" points="116.077,-467.909 109.555,-470.984 104.208,-466.146 110.73,-463.071 116.077,-467.909"/>
</g>
<!-- reac_prodR_empty -->
<g id="node92" class="node"><title>reac_prodR_empty</title>
<text text-anchor="middle" x="27" y="-460.5" font-family="Times Roman,serif" font-size="15.00" fill="blue">Ø</text>
</g>
<!-- reac_prodR_empty&#45;&gt;reac_prodR -->
<g id="edge96" class="edge"><title>reac_prodR_empty&#45;&gt;reac_prodR</title>
<path fill="none" stroke="black" d="M54.2643,-465C67.1627,-465 81.5367,-465 89.8947,-465"/>
</g>
<!-- reac_prodR_intermediate_p&#45;&gt;R -->
<g id="edge100" class="edge"><title>reac_prodR_intermediate_p&#45;&gt;R</title>
<path fill="none" stroke="black" d="M167.059,-441.993C168.521,-441.831 197.01,-438.666 219.779,-436.136"/>
<polygon fill="black" stroke="black" points="220.169,-439.614 229.721,-435.031 219.396,-432.657 220.169,-439.614"/>
</g>
</g>
</svg>
