<?xml version="1.0" encoding="UTF-8" standalone="no"?>
<!DOCTYPE svg PUBLIC "-//W3C//DTD SVG 1.1//EN"
 "http://www.w3.org/Graphics/SVG/1.1/DTD/svg11.dtd">
<!-- Generated by graphviz version 2.30.1 (20140821.0912)
 -->
<!-- Title: G Pages: 1 -->
<svg width="886pt" height="452pt"
 viewBox="0.00 0.00 886.00 452.00" xmlns="http://www.w3.org/2000/svg" xmlns:xlink="http://www.w3.org/1999/xlink">
<g id="graph0" class="graph" transform="scale(1 1) rotate(0) translate(4 448)">
<title>G</title>
<polygon fill="white" stroke="white" points="-4,5 -4,-448 883,-448 883,5 -4,5"/>
<!-- CaI -->
<g id="CaI [CHEBI:29108]" class="node"><title>CaI</title>
<ellipse fill="none" stroke="black" cx="196" cy="-168" rx="18" ry="18"/>
<text text-anchor="middle" x="196" y="-165.5" font-family="Times,serif" font-size="10.00">CaI</text>
</g>
<!-- kPLC_intermediate_m -->
<g id="node10" class="node"><title>kPLC_intermediate_m</title>
<ellipse fill="black" stroke="black" cx="501" cy="-356" rx="0.036" ry="0.036"/>
</g>
<!-- CaI&#45;&gt;kPLC_intermediate_m -->
<g id="edge5" class="edge"><title>CaI&#45;&gt;kPLC_intermediate_m</title>
<path fill="none" stroke="black" d="M198.113,-185.978C202.047,-232.277 219.43,-352 294,-352 294,-352 294,-352 366,-352 424.651,-352 497.678,-355.876 499.946,-355.997"/>
</g>
<!-- JPump_intermediate_r -->
<g id="node12" class="node"><title>JPump_intermediate_r</title>
<ellipse fill="black" stroke="black" cx="251" cy="-135" rx="0.036" ry="0.036"/>
</g>
<!-- CaI&#45;&gt;JPump_intermediate_r -->
<g id="edge7" class="edge"><title>CaI&#45;&gt;JPump_intermediate_r</title>
<path fill="none" stroke="black" d="M211.763,-158.808C226.956,-149.348 248.597,-135.874 249.935,-135.041"/>
</g>
<!-- inhibition_parameter1_intermediate_m -->
<g id="node24" class="node"><title>inhibition_parameter1_intermediate_m</title>
<ellipse fill="black" stroke="black" cx="501" cy="-210" rx="0.036" ry="0.036"/>
</g>
<!-- CaI&#45;&gt;inhibition_parameter1_intermediate_m -->
<g id="edge24" class="edge"><title>CaI&#45;&gt;inhibition_parameter1_intermediate_m</title>
<path fill="none" stroke="black" d="M211.429,-177.589C229.798,-188.846 262.891,-206 294,-206 294,-206 294,-206 366,-206 424.651,-206 497.678,-209.876 499.946,-209.997"/>
</g>
<!-- mw530793e3_76b2_4483_be11_e94364306712_intermediate_r -->
<g id="node33" class="node"><title>mw530793e3_76b2_4483_be11_e94364306712_intermediate_r</title>
<ellipse fill="black" stroke="black" cx="251" cy="-253" rx="0.036" ry="0.036"/>
</g>
<!-- CaI&#45;&gt;mw530793e3_76b2_4483_be11_e94364306712_intermediate_r -->
<g id="edge34" class="edge"><title>CaI&#45;&gt;mw530793e3_76b2_4483_be11_e94364306712_intermediate_r</title>
<path fill="none" stroke="black" d="M206.475,-183.196C221.244,-206.881 248.245,-250.186 249.918,-252.869"/>
</g>
<!-- mwfaf5e05a_b642_4ee2_a069_3c2fc783fba4_intermediate_r -->
<g id="node36" class="node"><title>mwfaf5e05a_b642_4ee2_a069_3c2fc783fba4_intermediate_r</title>
<ellipse fill="black" stroke="black" cx="251" cy="-44" rx="0.036" ry="0.036"/>
</g>
<!-- CaI&#45;&gt;mwfaf5e05a_b642_4ee2_a069_3c2fc783fba4_intermediate_r -->
<g id="edge37" class="edge"><title>CaI&#45;&gt;mwfaf5e05a_b642_4ee2_a069_3c2fc783fba4_intermediate_r</title>
<path fill="none" stroke="black" d="M203.929,-151.789C218.071,-118.703 249.013,-46.3081 249.977,-44.0539"/>
</g>
<!-- ERtoMito_intermediate_m -->
<g id="node44" class="node"><title>ERtoMito_intermediate_m</title>
<ellipse fill="black" stroke="black" cx="629" cy="-192" rx="0.036" ry="0.036"/>
</g>
<!-- CaI&#45;&gt;ERtoMito_intermediate_m -->
<g id="edge49" class="edge"><title>CaI&#45;&gt;ERtoMito_intermediate_m</title>
<path fill="none" stroke="black" d="M214.172,-168C233.559,-168 266.045,-168 294,-168 294,-168 294,-168 366,-168 481.105,-168 623.473,-191.256 627.894,-191.983"/>
</g>
<!-- IP3 -->
<g id="IP3 [CHEBI:16595]" class="node"><title>IP3</title>
<ellipse fill="none" stroke="black" cx="565" cy="-278" rx="18" ry="18"/>
<text text-anchor="middle" x="565" y="-275.5" font-family="Times,serif" font-size="10.00">IP3</text>
</g>
<!-- JChannel_intermediate_m -->
<g id="node17" class="node"><title>JChannel_intermediate_m</title>
<ellipse fill="black" stroke="black" cx="629" cy="-235" rx="0.036" ry="0.036"/>
</g>
<!-- IP3&#45;&gt;JChannel_intermediate_m -->
<g id="edge16" class="edge"><title>IP3&#45;&gt;JChannel_intermediate_m</title>
<path fill="none" stroke="black" d="M580.38,-268.027C598.123,-255.721 626.179,-236.263 627.915,-235.059"/>
</g>
<!-- kPhosphatase_intermediate_r -->
<g id="node19" class="node"><title>kPhosphatase_intermediate_r</title>
<ellipse fill="black" stroke="black" cx="629" cy="-278" rx="0.036" ry="0.036"/>
</g>
<!-- IP3&#45;&gt;kPhosphatase_intermediate_r -->
<g id="edge18" class="edge"><title>IP3&#45;&gt;kPhosphatase_intermediate_r</title>
<path fill="none" stroke="black" d="M583.27,-278C601.042,-278 626.359,-278 627.924,-278"/>
</g>
<!-- IP3&#45;&gt;ERtoMito_intermediate_m -->
<g id="edge51" class="edge"><title>IP3&#45;&gt;ERtoMito_intermediate_m</title>
<path fill="none" stroke="black" d="M578.769,-265.88C583.188,-261.399 588.025,-256.152 592,-251 610.179,-227.44 626.921,-194.157 627.95,-192.1"/>
</g>
<!-- g -->
<g id="g" class="node"><title>g</title>
<ellipse fill="none" stroke="black" cx="565" cy="-224" rx="27" ry="18"/>
<text text-anchor="middle" x="565" y="-221.5" font-family="Times,serif" font-size="10.00">g</text>
</g>
<!-- g&#45;&gt;JChannel_intermediate_m -->
<g id="edge15" class="edge"><title>g&#45;&gt;JChannel_intermediate_m</title>
<path fill="none" stroke="black" d="M591.218,-228.474C607.846,-231.424 626.776,-234.783 627.943,-234.99"/>
</g>
<!-- inhibition_parameter2_intermediate_r -->
<g id="node26" class="node"><title>inhibition_parameter2_intermediate_r</title>
<ellipse fill="black" stroke="black" cx="629" cy="-217" rx="0.036" ry="0.036"/>
</g>
<!-- g&#45;&gt;inhibition_parameter2_intermediate_r -->
<g id="edge26" class="edge"><title>g&#45;&gt;inhibition_parameter2_intermediate_r</title>
<path fill="none" stroke="black" d="M591.934,-221.072C608.393,-219.214 626.81,-217.134 627.945,-217.006"/>
</g>
<!-- g&#45;&gt;ERtoMito_intermediate_m -->
<g id="edge50" class="edge"><title>g&#45;&gt;ERtoMito_intermediate_m</title>
<path fill="none" stroke="black" d="M586.99,-213.166C604.415,-204.173 626.566,-192.74 627.933,-192.034"/>
</g>
<!-- CaO -->
<g id="CaO [CHEBI:29108]" class="node"><title>CaO</title>
<ellipse fill="none" stroke="black" cx="27" cy="-103" rx="18" ry="18"/>
<text text-anchor="middle" x="27" y="-100.5" font-family="Times,serif" font-size="10.00">CaO</text>
</g>
<!-- CaS -->
<g id="CaS [CHEBI:29108]" class="node"><title>CaS</title>
<ellipse fill="none" stroke="black" cx="446" cy="-122" rx="18" ry="18"/>
<text text-anchor="middle" x="446" y="-119.5" font-family="Times,serif" font-size="10.00">CaS</text>
</g>
<!-- JChannel_intermediate_r -->
<g id="node15" class="node"><title>JChannel_intermediate_r</title>
<ellipse fill="black" stroke="black" cx="501" cy="-138" rx="0.036" ry="0.036"/>
</g>
<!-- CaS&#45;&gt;JChannel_intermediate_r -->
<g id="edge11" class="edge"><title>CaS&#45;&gt;JChannel_intermediate_r</title>
<path fill="none" stroke="black" d="M463.479,-126.975C478.551,-131.525 498.695,-137.606 499.939,-137.982"/>
</g>
<!-- mwbdcd6a40_1ae7_4c86_a99f_1fba0b8beaf7_intermediate_m -->
<g id="node31" class="node"><title>mwbdcd6a40_1ae7_4c86_a99f_1fba0b8beaf7_intermediate_m</title>
<ellipse fill="black" stroke="black" cx="501" cy="-48" rx="0.036" ry="0.036"/>
</g>
<!-- CaS&#45;&gt;mwbdcd6a40_1ae7_4c86_a99f_1fba0b8beaf7_intermediate_m -->
<g id="edge32" class="edge"><title>CaS&#45;&gt;mwbdcd6a40_1ae7_4c86_a99f_1fba0b8beaf7_intermediate_m</title>
<path fill="none" stroke="black" d="M457.219,-107.732C472.139,-86.9005 498.3,-50.3729 499.921,-48.1103"/>
</g>
<!-- ERtoMito_intermediate_r -->
<g id="node42" class="node"><title>ERtoMito_intermediate_r</title>
<ellipse fill="black" stroke="black" cx="501" cy="-116" rx="0.036" ry="0.036"/>
</g>
<!-- CaS&#45;&gt;ERtoMito_intermediate_r -->
<g id="edge45" class="edge"><title>CaS&#45;&gt;ERtoMito_intermediate_r</title>
<path fill="none" stroke="black" d="M464.061,-120.069C479.071,-118.369 498.727,-116.144 499.941,-116.007"/>
</g>
<!-- CaM -->
<g id="CaM [CHEBI:29108]" class="node"><title>CaM</title>
<ellipse fill="none" stroke="black" cx="684" cy="-111" rx="18" ry="18"/>
<text text-anchor="middle" x="684" y="-108.5" font-family="Times,serif" font-size="10.00">CaM</text>
</g>
<!-- mw69f19152_7258_45b0_bf9e_b196f19d7e03_intermediate_r -->
<g id="node39" class="node"><title>mw69f19152_7258_45b0_bf9e_b196f19d7e03_intermediate_r</title>
<ellipse fill="black" stroke="black" cx="765" cy="-143" rx="0.036" ry="0.036"/>
</g>
<!-- CaM&#45;&gt;mw69f19152_7258_45b0_bf9e_b196f19d7e03_intermediate_r -->
<g id="edge41" class="edge"><title>CaM&#45;&gt;mw69f19152_7258_45b0_bf9e_b196f19d7e03_intermediate_r</title>
<path fill="none" stroke="black" d="M700.987,-117.476C723.349,-126.534 761.521,-141.996 763.885,-142.953"/>
</g>
<!-- kPLC -->
<g id="node7" class="node"><title>kPLC</title>
<polygon fill="none" stroke="black" points="453,-394 439,-394 439,-380 453,-380 453,-394"/>
</g>
<!-- kPLC_intermediate_p -->
<g id="node9" class="node"><title>kPLC_intermediate_p</title>
<ellipse fill="black" stroke="black" cx="501" cy="-379" rx="0.036" ry="0.036"/>
</g>
<!-- kPLC&#45;&gt;kPLC_intermediate_p -->
<g id="edge2" class="edge"><title>kPLC&#45;&gt;kPLC_intermediate_p</title>
<path fill="none" stroke="black" d="M453.08,-386.082C466.566,-384.047 497.956,-379.308 499.905,-379.014"/>
</g>
<!-- kPLC&#45;&gt;kPLC_intermediate_m -->
<g id="edge4" class="edge"><title>kPLC&#45;&gt;kPLC_intermediate_m</title>
<path fill="none" stroke="black" d="M453.08,-383.444C466.566,-375.556 497.956,-357.195 499.905,-356.056"/>
</g>
<!-- kPLC_empty -->
<g id="node8" class="node"><title>kPLC_empty</title>
<text text-anchor="middle" x="365" y="-394.5" font-family="Times,serif" font-size="15.00" fill="blue">Ø</text>
</g>
<!-- kPLC_empty&#45;&gt;kPLC -->
<g id="edge1" class="edge"><title>kPLC_empty&#45;&gt;kPLC</title>
<path fill="none" stroke="black" d="M392.306,-394.337C408.824,-392.037 428.819,-389.253 438.76,-387.869"/>
</g>
<!-- kPLC_intermediate_p&#45;&gt;IP3 -->
<g id="edge3" class="edge"><title>kPLC_intermediate_p&#45;&gt;IP3</title>
<path fill="none" stroke="black" d="M502.045,-378.927C503.322,-376.846 531.533,-330.889 549.442,-301.715"/>
<polygon fill="black" stroke="black" points="552.599,-303.263 554.848,-292.91 546.633,-299.601 552.599,-303.263"/>
</g>
<!-- JPump -->
<g id="node11" class="node"><title>JPump</title>
<polygon fill="none" stroke="black" points="302,-137 288,-137 288,-123 302,-123 302,-137"/>
</g>
<!-- JPump_intermediate_p -->
<g id="node13" class="node"><title>JPump_intermediate_p</title>
<ellipse fill="black" stroke="black" cx="365" cy="-125" rx="0.036" ry="0.036"/>
</g>
<!-- JPump&#45;&gt;JPump_intermediate_p -->
<g id="edge8" class="edge"><title>JPump&#45;&gt;JPump_intermediate_p</title>
<path fill="none" stroke="black" d="M302.275,-129.539C318.583,-128.339 361.222,-125.204 363.871,-125.01"/>
</g>
<!-- JPump_intermediate_r&#45;&gt;JPump -->
<g id="edge6" class="edge"><title>JPump_intermediate_r&#45;&gt;JPump</title>
<path fill="none" stroke="black" d="M252.12,-134.986C253.968,-134.766 276.602,-132.071 287.803,-130.738"/>
</g>
<!-- JPump_intermediate_p&#45;&gt;CaS -->
<g id="edge9" class="edge"><title>JPump_intermediate_p&#45;&gt;CaS</title>
<path fill="none" stroke="black" d="M366.057,-124.998C367.493,-124.943 395.648,-123.874 417.929,-123.028"/>
<polygon fill="black" stroke="black" points="418.083,-126.525 427.943,-122.648 417.818,-119.53 418.083,-126.525"/>
</g>
<!-- JChannel -->
<g id="node14" class="node"><title>JChannel</title>
<polygon fill="none" stroke="black" points="572,-150 558,-150 558,-136 572,-136 572,-150"/>
</g>
<!-- JChannel_intermediate_p -->
<g id="node16" class="node"><title>JChannel_intermediate_p</title>
<ellipse fill="black" stroke="black" cx="629" cy="-85" rx="0.036" ry="0.036"/>
</g>
<!-- JChannel&#45;&gt;JChannel_intermediate_p -->
<g id="edge12" class="edge"><title>JChannel&#45;&gt;JChannel_intermediate_p</title>
<path fill="none" stroke="black" d="M572.354,-139.814C577.857,-136.892 585.874,-132.232 592,-127 610.11,-111.531 626.917,-86.6172 627.95,-85.0752"/>
</g>
<!-- JChannel&#45;&gt;JChannel_intermediate_m -->
<g id="edge14" class="edge"><title>JChannel&#45;&gt;JChannel_intermediate_m</title>
<path fill="none" stroke="black" d="M570.865,-150.219C585.253,-171.568 626.678,-233.038 627.969,-234.954"/>
</g>
<!-- JChannel_intermediate_r&#45;&gt;JChannel -->
<g id="edge10" class="edge"><title>JChannel_intermediate_r&#45;&gt;JChannel</title>
<path fill="none" stroke="black" d="M502.045,-138.004C503.541,-138.124 541.995,-141.225 557.555,-142.48"/>
</g>
<!-- JChannel_intermediate_p&#45;&gt;CaI -->
<g id="edge13" class="edge"><title>JChannel_intermediate_p&#45;&gt;CaI</title>
<path fill="none" stroke="black" d="M627.949,-84.9935C625.82,-84.7209 557.265,-76 502,-76 294,-76 294,-76 294,-76 254.967,-76 225.357,-115.702 209.635,-142.944"/>
<polygon fill="black" stroke="black" points="206.419,-141.527 204.66,-151.975 212.551,-144.905 206.419,-141.527"/>
</g>
<!-- kPhosphatase -->
<g id="node18" class="node"><title>kPhosphatase</title>
<polygon fill="none" stroke="black" points="691,-285 677,-285 677,-271 691,-271 691,-285"/>
</g>
<!-- kPhosphatase_empty -->
<g id="node20" class="node"><title>kPhosphatase_empty</title>
<text text-anchor="middle" x="765" y="-274.5" font-family="Times,serif" font-size="15.00" fill="blue">Ø</text>
</g>
<!-- kPhosphatase&#45;&gt;kPhosphatase_empty -->
<g id="edge19" class="edge"><title>kPhosphatase&#45;&gt;kPhosphatase_empty</title>
<path fill="none" stroke="black" d="M691.199,-278C699.219,-278 713.832,-278 727.873,-278"/>
<polygon fill="black" stroke="black" points="727.893,-281.5 737.893,-278 727.893,-274.5 727.893,-281.5"/>
</g>
<!-- kPhosphatase_intermediate_r&#45;&gt;kPhosphatase -->
<g id="edge17" class="edge"><title>kPhosphatase_intermediate_r&#45;&gt;kPhosphatase</title>
<path fill="none" stroke="black" d="M630.152,-278C632.581,-278 663.47,-278 676.868,-278"/>
</g>
<!-- inhibition_parameter1 -->
<g id="node21" class="node"><title>inhibition_parameter1</title>
<polygon fill="none" stroke="black" points="453,-248 439,-248 439,-234 453,-234 453,-248"/>
</g>
<!-- inhibition_parameter1_intermediate_p -->
<g id="node23" class="node"><title>inhibition_parameter1_intermediate_p</title>
<ellipse fill="black" stroke="black" cx="501" cy="-236" rx="0.036" ry="0.036"/>
</g>
<!-- inhibition_parameter1&#45;&gt;inhibition_parameter1_intermediate_p -->
<g id="edge21" class="edge"><title>inhibition_parameter1&#45;&gt;inhibition_parameter1_intermediate_p</title>
<path fill="none" stroke="black" d="M453.08,-240.426C466.566,-239.154 497.956,-236.193 499.905,-236.009"/>
</g>
<!-- inhibition_parameter1&#45;&gt;inhibition_parameter1_intermediate_m -->
<g id="edge23" class="edge"><title>inhibition_parameter1&#45;&gt;inhibition_parameter1_intermediate_m</title>
<path fill="none" stroke="black" d="M453.08,-237.444C466.566,-229.556 497.956,-211.195 499.905,-210.056"/>
</g>
<!-- inhibition_parameter1_empty -->
<g id="node22" class="node"><title>inhibition_parameter1_empty</title>
<text text-anchor="middle" x="365" y="-248.5" font-family="Times,serif" font-size="15.00" fill="blue">Ø</text>
</g>
<!-- inhibition_parameter1_empty&#45;&gt;inhibition_parameter1 -->
<g id="edge20" class="edge"><title>inhibition_parameter1_empty&#45;&gt;inhibition_parameter1</title>
<path fill="none" stroke="black" d="M392.306,-248.337C408.824,-246.037 428.819,-243.253 438.76,-241.869"/>
</g>
<!-- inhibition_parameter1_intermediate_p&#45;&gt;g -->
<g id="edge22" class="edge"><title>inhibition_parameter1_intermediate_p&#45;&gt;g</title>
<path fill="none" stroke="black" d="M502.045,-235.991C502.883,-235.829 515.316,-233.423 528.826,-230.808"/>
<polygon fill="black" stroke="black" points="529.551,-234.233 538.704,-228.896 528.221,-227.36 529.551,-234.233"/>
</g>
<!-- inhibition_parameter2 -->
<g id="node25" class="node"><title>inhibition_parameter2</title>
<polygon fill="none" stroke="black" points="691,-224 677,-224 677,-210 691,-210 691,-224"/>
</g>
<!-- inhibition_parameter2_empty -->
<g id="node27" class="node"><title>inhibition_parameter2_empty</title>
<text text-anchor="middle" x="765" y="-213.5" font-family="Times,serif" font-size="15.00" fill="blue">Ø</text>
</g>
<!-- inhibition_parameter2&#45;&gt;inhibition_parameter2_empty -->
<g id="edge27" class="edge"><title>inhibition_parameter2&#45;&gt;inhibition_parameter2_empty</title>
<path fill="none" stroke="black" d="M691.199,-217C699.219,-217 713.832,-217 727.873,-217"/>
<polygon fill="black" stroke="black" points="727.893,-220.5 737.893,-217 727.893,-213.5 727.893,-220.5"/>
</g>
<!-- inhibition_parameter2_intermediate_r&#45;&gt;inhibition_parameter2 -->
<g id="edge25" class="edge"><title>inhibition_parameter2_intermediate_r&#45;&gt;inhibition_parameter2</title>
<path fill="none" stroke="black" d="M630.152,-217C632.581,-217 663.47,-217 676.868,-217"/>
</g>
<!-- mwbdcd6a40_1ae7_4c86_a99f_1fba0b8beaf7 -->
<g id="node28" class="node"><title>mwbdcd6a40_1ae7_4c86_a99f_1fba0b8beaf7</title>
<polygon fill="none" stroke="black" points="104,-56 90,-56 90,-42 104,-42 104,-56"/>
</g>
<!-- mwbdcd6a40_1ae7_4c86_a99f_1fba0b8beaf7_intermediate_p -->
<g id="node30" class="node"><title>mwbdcd6a40_1ae7_4c86_a99f_1fba0b8beaf7_intermediate_p</title>
<ellipse fill="black" stroke="black" cx="141" cy="-98" rx="0.036" ry="0.036"/>
</g>
<!-- mwbdcd6a40_1ae7_4c86_a99f_1fba0b8beaf7&#45;&gt;mwbdcd6a40_1ae7_4c86_a99f_1fba0b8beaf7_intermediate_p -->
<g id="edge29" class="edge"><title>mwbdcd6a40_1ae7_4c86_a99f_1fba0b8beaf7&#45;&gt;mwbdcd6a40_1ae7_4c86_a99f_1fba0b8beaf7_intermediate_p</title>
<path fill="none" stroke="black" d="M104.197,-56.2301C115.515,-69.4343 138.505,-96.2554 139.93,-97.9189"/>
</g>
<!-- mwbdcd6a40_1ae7_4c86_a99f_1fba0b8beaf7&#45;&gt;mwbdcd6a40_1ae7_4c86_a99f_1fba0b8beaf7_intermediate_m -->
<g id="edge31" class="edge"><title>mwbdcd6a40_1ae7_4c86_a99f_1fba0b8beaf7&#45;&gt;mwbdcd6a40_1ae7_4c86_a99f_1fba0b8beaf7_intermediate_m</title>
<path fill="none" stroke="black" d="M104.04,-43.3791C118.528,-30.5084 156.889,-0 195,-0 195,-0 195,-0 366,-0 410.843,-0 422.947,-5.95737 464,-24 481.054,-31.4953 498.851,-46.9919 499.947,-47.9531"/>
</g>
<!-- mwbdcd6a40_1ae7_4c86_a99f_1fba0b8beaf7_empty -->
<g id="node29" class="node"><title>mwbdcd6a40_1ae7_4c86_a99f_1fba0b8beaf7_empty</title>
<text text-anchor="middle" x="27" y="-45.5" font-family="Times,serif" font-size="15.00" fill="blue">Ø</text>
</g>
<!-- mwbdcd6a40_1ae7_4c86_a99f_1fba0b8beaf7_empty&#45;&gt;mwbdcd6a40_1ae7_4c86_a99f_1fba0b8beaf7 -->
<g id="edge28" class="edge"><title>mwbdcd6a40_1ae7_4c86_a99f_1fba0b8beaf7_empty&#45;&gt;mwbdcd6a40_1ae7_4c86_a99f_1fba0b8beaf7</title>
<path fill="none" stroke="black" d="M54.0961,-49C67.13,-49 81.8045,-49 89.8681,-49"/>
</g>
<!-- mwbdcd6a40_1ae7_4c86_a99f_1fba0b8beaf7_intermediate_p&#45;&gt;CaI -->
<g id="edge30" class="edge"><title>mwbdcd6a40_1ae7_4c86_a99f_1fba0b8beaf7_intermediate_p&#45;&gt;CaI</title>
<path fill="none" stroke="black" d="M142.038,-98.0507C143.031,-99.3621 163.066,-125.823 178.201,-145.813"/>
<polygon fill="black" stroke="black" points="175.492,-148.033 184.319,-153.892 181.072,-143.807 175.492,-148.033"/>
</g>
<!-- mw530793e3_76b2_4483_be11_e94364306712 -->
<g id="node32" class="node"><title>mw530793e3_76b2_4483_be11_e94364306712</title>
<polygon fill="none" stroke="black" points="302,-280 288,-280 288,-266 302,-266 302,-280"/>
</g>
<!-- mw530793e3_76b2_4483_be11_e94364306712_empty -->
<g id="node34" class="node"><title>mw530793e3_76b2_4483_be11_e94364306712_empty</title>
<text text-anchor="middle" x="365" y="-302.5" font-family="Times,serif" font-size="15.00" fill="blue">Ø</text>
</g>
<!-- mw530793e3_76b2_4483_be11_e94364306712&#45;&gt;mw530793e3_76b2_4483_be11_e94364306712_empty -->
<g id="edge35" class="edge"><title>mw530793e3_76b2_4483_be11_e94364306712&#45;&gt;mw530793e3_76b2_4483_be11_e94364306712_empty</title>
<path fill="none" stroke="black" d="M302.275,-276.045C308.468,-279.051 318.457,-283.898 328.612,-288.826"/>
<polygon fill="black" stroke="black" points="327.355,-292.107 337.88,-293.324 330.411,-285.809 327.355,-292.107"/>
</g>
<!-- mw530793e3_76b2_4483_be11_e94364306712_intermediate_r&#45;&gt;mw530793e3_76b2_4483_be11_e94364306712 -->
<g id="edge33" class="edge"><title>mw530793e3_76b2_4483_be11_e94364306712_intermediate_r&#45;&gt;mw530793e3_76b2_4483_be11_e94364306712</title>
<path fill="none" stroke="black" d="M252.12,-253.057C253.968,-253.937 276.602,-264.715 287.803,-270.049"/>
</g>
<!-- mwfaf5e05a_b642_4ee2_a069_3c2fc783fba4 -->
<g id="node35" class="node"><title>mwfaf5e05a_b642_4ee2_a069_3c2fc783fba4</title>
<polygon fill="none" stroke="black" points="302,-47 288,-47 288,-33 302,-33 302,-47"/>
</g>
<!-- mwfaf5e05a_b642_4ee2_a069_3c2fc783fba4_intermediate_p -->
<g id="node37" class="node"><title>mwfaf5e05a_b642_4ee2_a069_3c2fc783fba4_intermediate_p</title>
<ellipse fill="black" stroke="black" cx="446" cy="-33" rx="0.036" ry="0.036"/>
</g>
<!-- mwfaf5e05a_b642_4ee2_a069_3c2fc783fba4&#45;&gt;mwfaf5e05a_b642_4ee2_a069_3c2fc783fba4_intermediate_p -->
<g id="edge38" class="edge"><title>mwfaf5e05a_b642_4ee2_a069_3c2fc783fba4&#45;&gt;mwfaf5e05a_b642_4ee2_a069_3c2fc783fba4_intermediate_p</title>
<path fill="none" stroke="black" d="M302.026,-39.7169C329.465,-38.4278 441.424,-33.168 444.916,-33.0039"/>
</g>
<!-- mwfaf5e05a_b642_4ee2_a069_3c2fc783fba4_intermediate_r&#45;&gt;mwfaf5e05a_b642_4ee2_a069_3c2fc783fba4 -->
<g id="edge36" class="edge"><title>mwfaf5e05a_b642_4ee2_a069_3c2fc783fba4_intermediate_r&#45;&gt;mwfaf5e05a_b642_4ee2_a069_3c2fc783fba4</title>
<path fill="none" stroke="black" d="M252.12,-43.9885C253.968,-43.8126 276.602,-41.657 287.803,-40.5902"/>
</g>
<!-- mwfaf5e05a_b642_4ee2_a069_3c2fc783fba4_intermediate_p&#45;&gt;CaM -->
<g id="edge39" class="edge"><title>mwfaf5e05a_b642_4ee2_a069_3c2fc783fba4_intermediate_p&#45;&gt;CaM</title>
<path fill="none" stroke="black" d="M447.079,-33.004C450.381,-33.1732 556.612,-38.877 630,-76 640.588,-81.356 651.64,-88.3935 660.894,-94.7525"/>
<polygon fill="black" stroke="black" points="658.952,-97.6655 669.142,-100.564 662.984,-91.9433 658.952,-97.6655"/>
</g>
<!-- mw69f19152_7258_45b0_bf9e_b196f19d7e03 -->
<g id="node38" class="node"><title>mw69f19152_7258_45b0_bf9e_b196f19d7e03</title>
<polygon fill="none" stroke="black" points="842,-283 828,-283 828,-269 842,-269 842,-283"/>
</g>
<!-- mw69f19152_7258_45b0_bf9e_b196f19d7e03_intermediate_p -->
<g id="node40" class="node"><title>mw69f19152_7258_45b0_bf9e_b196f19d7e03_intermediate_p</title>
<ellipse fill="black" stroke="black" cx="878" cy="-360" rx="0.036" ry="0.036"/>
</g>
<!-- mw69f19152_7258_45b0_bf9e_b196f19d7e03&#45;&gt;mw69f19152_7258_45b0_bf9e_b196f19d7e03_intermediate_p -->
<g id="edge42" class="edge"><title>mw69f19152_7258_45b0_bf9e_b196f19d7e03&#45;&gt;mw69f19152_7258_45b0_bf9e_b196f19d7e03_intermediate_p</title>
<path fill="none" stroke="black" d="M839.496,-283.162C849.101,-302.841 875.293,-356.503 876.921,-359.837"/>
</g>
<!-- mw69f19152_7258_45b0_bf9e_b196f19d7e03_intermediate_r&#45;&gt;mw69f19152_7258_45b0_bf9e_b196f19d7e03 -->
<g id="edge40" class="edge"><title>mw69f19152_7258_45b0_bf9e_b196f19d7e03_intermediate_r&#45;&gt;mw69f19152_7258_45b0_bf9e_b196f19d7e03</title>
<path fill="none" stroke="black" d="M766.043,-143.075C766.932,-144.609 781.325,-169.485 792,-190 807.033,-218.89 823.666,-253.954 830.637,-268.803"/>
</g>
<!-- mw69f19152_7258_45b0_bf9e_b196f19d7e03_intermediate_p&#45;&gt;CaI -->
<g id="edge43" class="edge"><title>mw69f19152_7258_45b0_bf9e_b196f19d7e03_intermediate_p&#45;&gt;CaI</title>
<path fill="none" stroke="black" d="M876.964,-360.061C875.461,-362.604 826.901,-444 766,-444 294,-444 294,-444 294,-444 241.825,-444 210.92,-266.232 200.749,-196.031"/>
<polygon fill="black" stroke="black" points="204.212,-195.521 199.347,-186.109 197.281,-196.501 204.212,-195.521"/>
</g>
<!-- ERtoMito -->
<g id="node41" class="node"><title>ERtoMito</title>
<polygon fill="none" stroke="black" points="572,-118 558,-118 558,-104 572,-104 572,-118"/>
</g>
<!-- ERtoMito_intermediate_p -->
<g id="node43" class="node"><title>ERtoMito_intermediate_p</title>
<ellipse fill="black" stroke="black" cx="629" cy="-111" rx="0.036" ry="0.036"/>
</g>
<!-- ERtoMito&#45;&gt;ERtoMito_intermediate_p -->
<g id="edge46" class="edge"><title>ERtoMito&#45;&gt;ERtoMito_intermediate_p</title>
<path fill="none" stroke="black" d="M572.171,-111C587.364,-111 625.515,-111 627.884,-111"/>
</g>
<!-- ERtoMito&#45;&gt;ERtoMito_intermediate_m -->
<g id="edge48" class="edge"><title>ERtoMito&#45;&gt;ERtoMito_intermediate_m</title>
<path fill="none" stroke="black" d="M572.188,-113.68C577.884,-116.387 586.289,-121.021 592,-127 614.097,-150.134 627.166,-189.447 627.961,-191.881"/>
</g>
<!-- ERtoMito_intermediate_r&#45;&gt;ERtoMito -->
<g id="edge44" class="edge"><title>ERtoMito_intermediate_r&#45;&gt;ERtoMito</title>
<path fill="none" stroke="black" d="M502.045,-115.996C503.541,-115.876 541.995,-112.775 557.555,-111.52"/>
</g>
<!-- ERtoMito_intermediate_p&#45;&gt;CaM -->
<g id="edge47" class="edge"><title>ERtoMito_intermediate_p&#45;&gt;CaM</title>
<path fill="none" stroke="black" d="M630.152,-111C631.632,-111 643.681,-111 655.9,-111"/>
<polygon fill="black" stroke="black" points="655.975,-114.5 665.975,-111 655.975,-107.5 655.975,-114.5"/>
</g>
</g>
</svg>
