<?xml version="1.0" encoding="UTF-8" standalone="no"?>
<!DOCTYPE svg PUBLIC "-//W3C//DTD SVG 1.1//EN"
 "http://www.w3.org/Graphics/SVG/1.1/DTD/svg11.dtd">
<!-- Generated by graphviz version 2.30.1 (20140821.0912)
 -->
<!-- Title: G Pages: 1 -->
<svg width="536pt" height="680pt"
 viewBox="0.00 0.00 536.00 680.00" xmlns="http://www.w3.org/2000/svg" xmlns:xlink="http://www.w3.org/1999/xlink">
<g id="graph0" class="graph" transform="scale(1 1) rotate(0) translate(4 676)">
<title>G</title>
<polygon fill="white" stroke="white" points="-4,5 -4,-676 533,-676 533,5 -4,5"/>
<!-- x1 -->
<g id="x1" class="node"><title>x1</title>
<ellipse fill="none" stroke="black" cx="275" cy="-18" rx="27" ry="18"/>
<text text-anchor="middle" x="275" y="-15.5" font-family="Times,serif" font-size="10.00">x1</text>
</g>
<!-- x2 -->
<g id="x2" class="node"><title>x2</title>
<ellipse fill="none" stroke="black" cx="275" cy="-72" rx="27" ry="18"/>
<text text-anchor="middle" x="275" y="-69.5" font-family="Times,serif" font-size="10.00">x2</text>
</g>
<!-- ppERKn -->
<g id="ppERKn" class="node"><title>ppERKn</title>
<path fill="none" stroke="black" d="M305.5,-225C305.5,-225 244.5,-225 244.5,-225 238.5,-225 232.5,-219 232.5,-213 232.5,-213 232.5,-201 232.5,-201 232.5,-195 238.5,-189 244.5,-189 244.5,-189 305.5,-189 305.5,-189 311.5,-189 317.5,-195 317.5,-201 317.5,-201 317.5,-213 317.5,-213 317.5,-219 311.5,-225 305.5,-225"/>
<text text-anchor="middle" x="275" y="-204.5" font-family="Times,serif" font-size="10.00">ppERK(nucleus)</text>
</g>
<!-- reaction_4_intermediate_m -->
<g id="node24" class="node"><title>reaction_4_intermediate_m</title>
<ellipse fill="black" stroke="black" cx="357" cy="-198" rx="0.036" ry="0.036"/>
</g>
<!-- ppERKn&#45;&gt;reaction_4_intermediate_m -->
<g id="edge17" class="edge"><title>ppERKn&#45;&gt;reaction_4_intermediate_m</title>
<path fill="none" stroke="black" d="M317.874,-202.289C336.626,-200.18 354.826,-198.132 355.946,-198.006"/>
</g>
<!-- reaction_5_intermediate_m -->
<g id="node28" class="node"><title>reaction_5_intermediate_m</title>
<ellipse fill="black" stroke="black" cx="357" cy="-216" rx="0.036" ry="0.036"/>
</g>
<!-- ppERKn&#45;&gt;reaction_5_intermediate_m -->
<g id="edge22" class="edge"><title>ppERKn&#45;&gt;reaction_5_intermediate_m</title>
<path fill="none" stroke="black" d="M317.874,-211.711C336.626,-213.82 354.826,-215.868 355.946,-215.994"/>
</g>
<!-- reaction_6_intermediate_m -->
<g id="node32" class="node"><title>reaction_6_intermediate_m</title>
<ellipse fill="black" stroke="black" cx="357" cy="-299" rx="0.036" ry="0.036"/>
</g>
<!-- ppERKn&#45;&gt;reaction_6_intermediate_m -->
<g id="edge27" class="edge"><title>ppERKn&#45;&gt;reaction_6_intermediate_m</title>
<path fill="none" stroke="black" d="M291.805,-225.176C314.391,-251.15 353.462,-296.081 355.882,-298.864"/>
</g>
<!-- DUSP -->
<g id="DUSP" class="node"><title>DUSP</title>
<path fill="none" stroke="black" d="M458,-133C458,-133 428,-133 428,-133 422,-133 416,-127 416,-121 416,-121 416,-109 416,-109 416,-103 422,-97 428,-97 428,-97 458,-97 458,-97 464,-97 470,-103 470,-109 470,-109 470,-121 470,-121 470,-127 464,-133 458,-133"/>
<text text-anchor="middle" x="443" y="-112.5" font-family="Times,serif" font-size="10.00">DUSP</text>
</g>
<!-- reaction_3_intermediate_m -->
<g id="node20" class="node"><title>reaction_3_intermediate_m</title>
<ellipse fill="black" stroke="black" cx="528" cy="-161" rx="0.036" ry="0.036"/>
</g>
<!-- DUSP&#45;&gt;reaction_3_intermediate_m -->
<g id="edge12" class="edge"><title>DUSP&#45;&gt;reaction_3_intermediate_m</title>
<path fill="none" stroke="black" d="M470.262,-129.555C493.818,-142.61 524.982,-159.881 526.906,-160.948"/>
</g>
<!-- pRSKn -->
<g id="pRSKn" class="node"><title>pRSKn</title>
<ellipse fill="none" stroke="black" cx="275" cy="-299" rx="27.8353" ry="18"/>
<text text-anchor="middle" x="275" y="-296.5" font-family="Times,serif" font-size="10.00">pRSKn</text>
</g>
<!-- pRSKn&#45;&gt;reaction_6_intermediate_m -->
<g id="edge28" class="edge"><title>pRSKn&#45;&gt;reaction_6_intermediate_m</title>
<path fill="none" stroke="black" d="M303.084,-299C325.568,-299 354.15,-299 355.914,-299"/>
</g>
<!-- cFOSp -->
<g id="cFOSp" class="node"><title>cFOSp</title>
<ellipse fill="none" stroke="black" cx="275" cy="-391" rx="44.978" ry="18"/>
<text text-anchor="middle" x="275" y="-388.5" font-family="Times,serif" font-size="10.00">cFOS preRNA</text>
</g>
<!-- reaction_7_intermediate_m -->
<g id="node36" class="node"><title>reaction_7_intermediate_m</title>
<ellipse fill="black" stroke="black" cx="357" cy="-397" rx="0.036" ry="0.036"/>
</g>
<!-- cFOSp&#45;&gt;reaction_7_intermediate_m -->
<g id="edge33" class="edge"><title>cFOSp&#45;&gt;reaction_7_intermediate_m</title>
<path fill="none" stroke="black" d="M319.278,-394.246C337.539,-395.615 354.882,-396.916 355.948,-396.996"/>
</g>
<!-- cFOS -->
<g id="cFOS" class="node"><title>cFOS</title>
<path fill="none" stroke="black" d="M458,-672C458,-672 428,-672 428,-672 422,-672 416,-666 416,-660 416,-660 416,-648 416,-648 416,-642 422,-636 428,-636 428,-636 458,-636 458,-636 464,-636 470,-642 470,-648 470,-648 470,-660 470,-660 470,-666 464,-672 458,-672"/>
<text text-anchor="middle" x="443" y="-651.5" font-family="Times,serif" font-size="10.00">cFOS</text>
</g>
<!-- reaction_9_intermediate_m -->
<g id="node44" class="node"><title>reaction_9_intermediate_m</title>
<ellipse fill="black" stroke="black" cx="528" cy="-608" rx="0.036" ry="0.036"/>
</g>
<!-- cFOS&#45;&gt;reaction_9_intermediate_m -->
<g id="edge45" class="edge"><title>cFOS&#45;&gt;reaction_9_intermediate_m</title>
<path fill="none" stroke="black" d="M470.262,-639.445C493.818,-626.39 524.982,-609.119 526.906,-608.052"/>
</g>
<!-- pcFOS -->
<g id="pcFOS" class="node"><title>pcFOS</title>
<path fill="none" stroke="black" d="M458,-488C458,-488 428,-488 428,-488 422,-488 416,-482 416,-476 416,-476 416,-464 416,-464 416,-458 422,-452 428,-452 428,-452 458,-452 458,-452 464,-452 470,-458 470,-464 470,-464 470,-476 470,-476 470,-482 464,-488 458,-488"/>
<text text-anchor="middle" x="443" y="-467.5" font-family="Times,serif" font-size="10.00">pc&#45;FOS</text>
</g>
<!-- reaction_8_intermediate_m -->
<g id="node40" class="node"><title>reaction_8_intermediate_m</title>
<ellipse fill="black" stroke="black" cx="528" cy="-493" rx="0.036" ry="0.036"/>
</g>
<!-- pcFOS&#45;&gt;reaction_8_intermediate_m -->
<g id="edge40" class="edge"><title>pcFOS&#45;&gt;reaction_8_intermediate_m</title>
<path fill="none" stroke="black" d="M470.262,-477.277C493.818,-483.805 524.982,-492.441 526.906,-492.974"/>
</g>
<!-- cFOSm -->
<g id="cFOSm" class="node"><title>cFOSm</title>
<path fill="none" stroke="black" d="M465,-434C465,-434 421,-434 421,-434 415,-434 409,-428 409,-422 409,-422 409,-410 409,-410 409,-404 415,-398 421,-398 421,-398 465,-398 465,-398 471,-398 477,-404 477,-410 477,-410 477,-422 477,-422 477,-428 471,-434 465,-434"/>
<text text-anchor="middle" x="443" y="-413.5" font-family="Times,serif" font-size="10.00">cFOSmRNA</text>
</g>
<!-- cFOSm&#45;&gt;reaction_8_intermediate_m -->
<g id="edge38" class="edge"><title>cFOSm&#45;&gt;reaction_8_intermediate_m</title>
<path fill="none" stroke="black" d="M477.099,-432.002C482.363,-435.266 487.536,-438.955 492,-443 511.472,-460.646 526.064,-491.027 526.957,-492.908"/>
</g>
<!-- ppERKc -->
<g id="ppERKc" class="node"><title>ppERKc</title>
<ellipse fill="none" stroke="black" cx="443" cy="-562" rx="48.7185" ry="18"/>
<text text-anchor="middle" x="443" y="-559.5" font-family="Times,serif" font-size="10.00">ppERK(cytosol)</text>
</g>
<!-- ppERKc&#45;&gt;reaction_3_intermediate_m -->
<g id="edge11" class="edge"><title>ppERKc&#45;&gt;reaction_3_intermediate_m</title>
<path fill="none" stroke="black" d="M460.496,-545.071C471.405,-532.781 484.95,-515.18 492,-497 518.93,-427.555 526.876,-165.144 526.999,-161.048"/>
</g>
<!-- ppERKc&#45;&gt;reaction_8_intermediate_m -->
<g id="edge39" class="edge"><title>ppERKc&#45;&gt;reaction_8_intermediate_m</title>
<path fill="none" stroke="black" d="M469.186,-546.741C476.776,-541.744 484.956,-535.94 492,-530 508.764,-515.863 525.894,-494.393 526.949,-493.065"/>
</g>
<!-- ppERKc&#45;&gt;reaction_9_intermediate_m -->
<g id="edge46" class="edge"><title>ppERKc&#45;&gt;reaction_9_intermediate_m</title>
<path fill="none" stroke="black" d="M471.177,-577.062C494.627,-590.058 525.031,-606.909 526.909,-607.949"/>
</g>
<!-- reaction_1 -->
<g id="node11" class="node"><title>reaction_1</title>
<polygon fill="none" stroke="black" points="104,-25 90,-25 90,-11 104,-11 104,-25"/>
</g>
<!-- reaction_1_intermediate_p -->
<g id="node13" class="node"><title>reaction_1_intermediate_p</title>
<ellipse fill="black" stroke="black" cx="167" cy="-18" rx="0.036" ry="0.036"/>
</g>
<!-- reaction_1&#45;&gt;reaction_1_intermediate_p -->
<g id="edge2" class="edge"><title>reaction_1&#45;&gt;reaction_1_intermediate_p</title>
<path fill="none" stroke="black" d="M104.275,-18C120.583,-18 163.222,-18 165.871,-18"/>
</g>
<!-- reaction_1_empty -->
<g id="node12" class="node"><title>reaction_1_empty</title>
<text text-anchor="middle" x="27" y="-14.5" font-family="Times,serif" font-size="15.00" fill="blue">Ø</text>
</g>
<!-- reaction_1_empty&#45;&gt;reaction_1 -->
<g id="edge1" class="edge"><title>reaction_1_empty&#45;&gt;reaction_1</title>
<path fill="none" stroke="black" d="M54.0961,-18C67.13,-18 81.8045,-18 89.8681,-18"/>
</g>
<!-- reaction_1_intermediate_p&#45;&gt;x1 -->
<g id="edge3" class="edge"><title>reaction_1_intermediate_p&#45;&gt;x1</title>
<path fill="none" stroke="black" d="M168.077,-18C170.006,-18 207.877,-18 237.791,-18"/>
<polygon fill="black" stroke="black" points="237.968,-21.5001 247.968,-18 237.968,-14.5001 237.968,-21.5001"/>
</g>
<!-- reaction_2 -->
<g id="node14" class="node"><title>reaction_2</title>
<polygon fill="none" stroke="black" points="104,-79 90,-79 90,-65 104,-65 104,-79"/>
</g>
<!-- reaction_2_intermediate_p -->
<g id="node16" class="node"><title>reaction_2_intermediate_p</title>
<ellipse fill="black" stroke="black" cx="167" cy="-72" rx="0.036" ry="0.036"/>
</g>
<!-- reaction_2&#45;&gt;reaction_2_intermediate_p -->
<g id="edge5" class="edge"><title>reaction_2&#45;&gt;reaction_2_intermediate_p</title>
<path fill="none" stroke="black" d="M104.275,-72C120.583,-72 163.222,-72 165.871,-72"/>
</g>
<!-- reaction_2_empty -->
<g id="node15" class="node"><title>reaction_2_empty</title>
<text text-anchor="middle" x="27" y="-68.5" font-family="Times,serif" font-size="15.00" fill="blue">Ø</text>
</g>
<!-- reaction_2_empty&#45;&gt;reaction_2 -->
<g id="edge4" class="edge"><title>reaction_2_empty&#45;&gt;reaction_2</title>
<path fill="none" stroke="black" d="M54.0961,-72C67.13,-72 81.8045,-72 89.8681,-72"/>
</g>
<!-- reaction_2_intermediate_p&#45;&gt;x2 -->
<g id="edge6" class="edge"><title>reaction_2_intermediate_p&#45;&gt;x2</title>
<path fill="none" stroke="black" d="M168.077,-72C170.006,-72 207.877,-72 237.791,-72"/>
<polygon fill="black" stroke="black" points="237.968,-75.5001 247.968,-72 237.968,-68.5001 237.968,-75.5001"/>
</g>
<!-- reaction_3 -->
<g id="node17" class="node"><title>reaction_3</title>
<polygon fill="none" stroke="black" points="104,-187 90,-187 90,-173 104,-173 104,-187"/>
</g>
<!-- reaction_3_intermediate_p -->
<g id="node19" class="node"><title>reaction_3_intermediate_p</title>
<ellipse fill="black" stroke="black" cx="167" cy="-198" rx="0.036" ry="0.036"/>
</g>
<!-- reaction_3&#45;&gt;reaction_3_intermediate_p -->
<g id="edge8" class="edge"><title>reaction_3&#45;&gt;reaction_3_intermediate_p</title>
<path fill="none" stroke="black" d="M104.275,-181.661C120.583,-185.978 163.222,-197.265 165.871,-197.966"/>
</g>
<!-- reaction_3&#45;&gt;reaction_3_intermediate_m -->
<g id="edge10" class="edge"><title>reaction_3&#45;&gt;reaction_3_intermediate_m</title>
<path fill="none" stroke="black" d="M104.054,-178.868C126.482,-174.778 207.002,-161 274,-161 274,-161 274,-161 358,-161 431.938,-161 524.071,-161 526.932,-161"/>
</g>
<!-- reaction_3_empty -->
<g id="node18" class="node"><title>reaction_3_empty</title>
<text text-anchor="middle" x="27" y="-176.5" font-family="Times,serif" font-size="15.00" fill="blue">Ø</text>
</g>
<!-- reaction_3_empty&#45;&gt;reaction_3 -->
<g id="edge7" class="edge"><title>reaction_3_empty&#45;&gt;reaction_3</title>
<path fill="none" stroke="black" d="M54.0961,-180C67.13,-180 81.8045,-180 89.8681,-180"/>
</g>
<!-- reaction_3_intermediate_p&#45;&gt;ppERKn -->
<g id="edge9" class="edge"><title>reaction_3_intermediate_p&#45;&gt;ppERKn</title>
<path fill="none" stroke="black" d="M168.077,-198.007C169.676,-198.142 195.983,-200.376 221.977,-202.583"/>
<polygon fill="black" stroke="black" points="221.993,-206.097 232.253,-203.455 222.585,-199.122 221.993,-206.097"/>
</g>
<!-- reaction_4 -->
<g id="node21" class="node"><title>reaction_4</title>
<polygon fill="none" stroke="black" points="282,-122 268,-122 268,-108 282,-108 282,-122"/>
</g>
<!-- reaction_4_intermediate_p -->
<g id="node23" class="node"><title>reaction_4_intermediate_p</title>
<ellipse fill="black" stroke="black" cx="357" cy="-115" rx="0.036" ry="0.036"/>
</g>
<!-- reaction_4&#45;&gt;reaction_4_intermediate_p -->
<g id="edge14" class="edge"><title>reaction_4&#45;&gt;reaction_4_intermediate_p</title>
<path fill="none" stroke="black" d="M282.013,-115C300.037,-115 352.575,-115 355.841,-115"/>
</g>
<!-- reaction_4&#45;&gt;reaction_4_intermediate_m -->
<g id="edge16" class="edge"><title>reaction_4&#45;&gt;reaction_4_intermediate_m</title>
<path fill="none" stroke="black" d="M282.013,-121.238C300.037,-139.938 352.575,-194.446 355.841,-197.835"/>
</g>
<!-- reaction_4_empty -->
<g id="node22" class="node"><title>reaction_4_empty</title>
<text text-anchor="middle" x="167" y="-111.5" font-family="Times,serif" font-size="15.00" fill="blue">Ø</text>
</g>
<!-- reaction_4_empty&#45;&gt;reaction_4 -->
<g id="edge13" class="edge"><title>reaction_4_empty&#45;&gt;reaction_4</title>
<path fill="none" stroke="black" d="M194.202,-115C218.725,-115 253.636,-115 267.736,-115"/>
</g>
<!-- reaction_4_intermediate_p&#45;&gt;DUSP -->
<g id="edge15" class="edge"><title>reaction_4_intermediate_p&#45;&gt;DUSP</title>
<path fill="none" stroke="black" d="M358.061,-115C359.425,-115 383.457,-115 405.458,-115"/>
<polygon fill="black" stroke="black" points="405.66,-118.5 415.66,-115 405.66,-111.5 405.66,-118.5"/>
</g>
<!-- reaction_5 -->
<g id="node25" class="node"><title>reaction_5</title>
<polygon fill="none" stroke="black" points="104,-280 90,-280 90,-266 104,-266 104,-280"/>
</g>
<!-- reaction_5_intermediate_p -->
<g id="node27" class="node"><title>reaction_5_intermediate_p</title>
<ellipse fill="black" stroke="black" cx="167" cy="-295" rx="0.036" ry="0.036"/>
</g>
<!-- reaction_5&#45;&gt;reaction_5_intermediate_p -->
<g id="edge19" class="edge"><title>reaction_5&#45;&gt;reaction_5_intermediate_p</title>
<path fill="none" stroke="black" d="M104.275,-275.03C120.583,-280.306 163.222,-294.101 165.871,-294.958"/>
</g>
<!-- reaction_5&#45;&gt;reaction_5_intermediate_m -->
<g id="edge21" class="edge"><title>reaction_5&#45;&gt;reaction_5_intermediate_m</title>
<path fill="none" stroke="black" d="M104.342,-272.56C131.14,-270.561 237.504,-261.226 320,-234 336.456,-228.569 354.814,-216.768 355.945,-216.036"/>
</g>
<!-- reaction_5_empty -->
<g id="node26" class="node"><title>reaction_5_empty</title>
<text text-anchor="middle" x="27" y="-269.5" font-family="Times,serif" font-size="15.00" fill="blue">Ø</text>
</g>
<!-- reaction_5_empty&#45;&gt;reaction_5 -->
<g id="edge18" class="edge"><title>reaction_5_empty&#45;&gt;reaction_5</title>
<path fill="none" stroke="black" d="M54.0961,-273C67.13,-273 81.8045,-273 89.8681,-273"/>
</g>
<!-- reaction_5_intermediate_p&#45;&gt;pRSKn -->
<g id="edge20" class="edge"><title>reaction_5_intermediate_p&#45;&gt;pRSKn</title>
<path fill="none" stroke="black" d="M168.077,-295.003C169.989,-295.075 207.22,-296.48 237.006,-297.604"/>
<polygon fill="black" stroke="black" points="237.037,-301.108 247.162,-297.987 237.301,-294.113 237.037,-301.108"/>
</g>
<!-- reaction_6 -->
<g id="node29" class="node"><title>reaction_6</title>
<polygon fill="none" stroke="black" points="104,-354 90,-354 90,-340 104,-340 104,-354"/>
</g>
<!-- reaction_6_intermediate_p -->
<g id="node31" class="node"><title>reaction_6_intermediate_p</title>
<ellipse fill="black" stroke="black" cx="167" cy="-382" rx="0.036" ry="0.036"/>
</g>
<!-- reaction_6&#45;&gt;reaction_6_intermediate_p -->
<g id="edge24" class="edge"><title>reaction_6&#45;&gt;reaction_6_intermediate_p</title>
<path fill="none" stroke="black" d="M104.275,-350.23C120.583,-358.624 163.222,-380.57 165.871,-381.933"/>
</g>
<!-- reaction_6&#45;&gt;reaction_6_intermediate_m -->
<g id="edge26" class="edge"><title>reaction_6&#45;&gt;reaction_6_intermediate_m</title>
<path fill="none" stroke="black" d="M104.102,-347.595C130.786,-349.961 239.477,-357.131 320,-326 338.071,-319.013 354.915,-300.224 355.95,-299.057"/>
</g>
<!-- reaction_6_empty -->
<g id="node30" class="node"><title>reaction_6_empty</title>
<text text-anchor="middle" x="27" y="-343.5" font-family="Times,serif" font-size="15.00" fill="blue">Ø</text>
</g>
<!-- reaction_6_empty&#45;&gt;reaction_6 -->
<g id="edge23" class="edge"><title>reaction_6_empty&#45;&gt;reaction_6</title>
<path fill="none" stroke="black" d="M54.0961,-347C67.13,-347 81.8045,-347 89.8681,-347"/>
</g>
<!-- reaction_6_intermediate_p&#45;&gt;cFOSp -->
<g id="edge25" class="edge"><title>reaction_6_intermediate_p&#45;&gt;cFOSp</title>
<path fill="none" stroke="black" d="M168.077,-382.007C169.654,-382.14 195.26,-384.315 220.898,-386.491"/>
<polygon fill="black" stroke="black" points="220.793,-389.995 231.053,-387.354 221.385,-383.02 220.793,-389.995"/>
</g>
<!-- reaction_7 -->
<g id="node33" class="node"><title>reaction_7</title>
<polygon fill="none" stroke="black" points="282,-441 268,-441 268,-427 282,-427 282,-441"/>
</g>
<!-- reaction_7_intermediate_p -->
<g id="node35" class="node"><title>reaction_7_intermediate_p</title>
<ellipse fill="black" stroke="black" cx="357" cy="-422" rx="0.036" ry="0.036"/>
</g>
<!-- reaction_7&#45;&gt;reaction_7_intermediate_p -->
<g id="edge30" class="edge"><title>reaction_7&#45;&gt;reaction_7_intermediate_p</title>
<path fill="none" stroke="black" d="M282.013,-433.098C300.037,-430.395 352.575,-422.514 355.841,-422.024"/>
</g>
<!-- reaction_7&#45;&gt;reaction_7_intermediate_m -->
<g id="edge32" class="edge"><title>reaction_7&#45;&gt;reaction_7_intermediate_m</title>
<path fill="none" stroke="black" d="M282.117,-432.16C290.745,-429.478 306.9,-424.142 320,-418 336.247,-410.382 354.801,-397.816 355.944,-397.038"/>
</g>
<!-- reaction_7_empty -->
<g id="node34" class="node"><title>reaction_7_empty</title>
<text text-anchor="middle" x="167" y="-430.5" font-family="Times,serif" font-size="15.00" fill="blue">Ø</text>
</g>
<!-- reaction_7_empty&#45;&gt;reaction_7 -->
<g id="edge29" class="edge"><title>reaction_7_empty&#45;&gt;reaction_7</title>
<path fill="none" stroke="black" d="M194.202,-434C218.725,-434 253.636,-434 267.736,-434"/>
</g>
<!-- reaction_7_intermediate_p&#45;&gt;cFOSm -->
<g id="edge31" class="edge"><title>reaction_7_intermediate_p&#45;&gt;cFOSm</title>
<path fill="none" stroke="black" d="M358.061,-421.996C359.285,-421.908 378.767,-420.517 398.653,-419.096"/>
<polygon fill="black" stroke="black" points="398.955,-422.584 408.68,-418.38 398.456,-415.601 398.955,-422.584"/>
</g>
<!-- reaction_8 -->
<g id="node37" class="node"><title>reaction_8</title>
<polygon fill="none" stroke="black" points="282,-626 268,-626 268,-612 282,-612 282,-626"/>
</g>
<!-- reaction_8_intermediate_p -->
<g id="node39" class="node"><title>reaction_8_intermediate_p</title>
<ellipse fill="black" stroke="black" cx="357" cy="-631" rx="0.036" ry="0.036"/>
</g>
<!-- reaction_8&#45;&gt;reaction_8_intermediate_p -->
<g id="edge35" class="edge"><title>reaction_8&#45;&gt;reaction_8_intermediate_p</title>
<path fill="none" stroke="black" d="M282.013,-619.902C300.037,-622.605 352.575,-630.486 355.841,-630.976"/>
</g>
<!-- reaction_8&#45;&gt;reaction_8_intermediate_m -->
<g id="edge37" class="edge"><title>reaction_8&#45;&gt;reaction_8_intermediate_m</title>
<path fill="none" stroke="black" d="M282.194,-613.497C299.013,-598.808 347.41,-558.215 394,-535 448.616,-507.787 524.583,-493.452 526.944,-493.011"/>
</g>
<!-- reaction_8_empty -->
<g id="node38" class="node"><title>reaction_8_empty</title>
<text text-anchor="middle" x="167" y="-615.5" font-family="Times,serif" font-size="15.00" fill="blue">Ø</text>
</g>
<!-- reaction_8_empty&#45;&gt;reaction_8 -->
<g id="edge34" class="edge"><title>reaction_8_empty&#45;&gt;reaction_8</title>
<path fill="none" stroke="black" d="M194.202,-619C218.725,-619 253.636,-619 267.736,-619"/>
</g>
<!-- reaction_8_intermediate_p&#45;&gt;cFOS -->
<g id="edge36" class="edge"><title>reaction_8_intermediate_p&#45;&gt;cFOS</title>
<path fill="none" stroke="black" d="M358.061,-631.017C359.431,-631.392 383.675,-638.03 405.756,-644.076"/>
<polygon fill="black" stroke="black" points="405.09,-647.523 415.66,-646.788 406.939,-640.771 405.09,-647.523"/>
</g>
<!-- reaction_9 -->
<g id="node41" class="node"><title>reaction_9</title>
<polygon fill="none" stroke="black" points="282,-554 268,-554 268,-540 282,-540 282,-554"/>
</g>
<!-- reaction_9_intermediate_p -->
<g id="node43" class="node"><title>reaction_9_intermediate_p</title>
<ellipse fill="black" stroke="black" cx="357" cy="-492" rx="0.036" ry="0.036"/>
</g>
<!-- reaction_9&#45;&gt;reaction_9_intermediate_p -->
<g id="edge42" class="edge"><title>reaction_9&#45;&gt;reaction_9_intermediate_p</title>
<path fill="none" stroke="black" d="M282.013,-542.866C300.037,-530.475 352.575,-494.355 355.841,-492.11"/>
</g>
<!-- reaction_9&#45;&gt;reaction_9_intermediate_m -->
<g id="edge44" class="edge"><title>reaction_9&#45;&gt;reaction_9_intermediate_m</title>
<path fill="none" stroke="black" d="M282.258,-549.733C299.634,-557.21 350.087,-578.164 394,-589 451.067,-603.082 524.66,-607.851 526.945,-607.997"/>
</g>
<!-- reaction_9_empty -->
<g id="node42" class="node"><title>reaction_9_empty</title>
<text text-anchor="middle" x="167" y="-543.5" font-family="Times,serif" font-size="15.00" fill="blue">Ø</text>
</g>
<!-- reaction_9_empty&#45;&gt;reaction_9 -->
<g id="edge41" class="edge"><title>reaction_9_empty&#45;&gt;reaction_9</title>
<path fill="none" stroke="black" d="M194.202,-547C218.725,-547 253.636,-547 267.736,-547"/>
</g>
<!-- reaction_9_intermediate_p&#45;&gt;pcFOS -->
<g id="edge43" class="edge"><title>reaction_9_intermediate_p&#45;&gt;pcFOS</title>
<path fill="none" stroke="black" d="M358.061,-491.984C359.431,-491.625 383.675,-485.275 405.756,-479.492"/>
<polygon fill="black" stroke="black" points="406.873,-482.818 415.66,-476.899 405.099,-476.047 406.873,-482.818"/>
</g>
</g>
</svg>
