<?xml version="1.0" encoding="utf-8"?>
<!-- Generator: Adobe Illustrator 14.0.0, SVG Export Plug-In . SVG Version: 6.00 Build 43363)  -->
<!DOCTYPE svg PUBLIC "-//W3C//DTD SVG 1.1//EN" "http://www.w3.org/Graphics/SVG/1.1/DTD/svg11.dtd">
<svg version="1.1" id="Layer_1" xmlns="http://www.w3.org/2000/svg" xmlns:xlink="http://www.w3.org/1999/xlink" x="0px" y="0px"
	 width="585px" height="693px" viewBox="0 0 585 693" enable-background="new 0 0 585 693" xml:space="preserve">
<path fill="#F3AC71" d="M576,594c0,6.627-5.373,12-12,12H458.74c-6.627,0-12-5.373-12-12V426c0-6.627,5.373-12,12-12H564
	c6.627,0,12,5.373,12,12V594z"/>
<g>
	<g id="XMLID_1_">
		<g>
			<linearGradient id="SVGID_1_" gradientUnits="userSpaceOnUse" x1="93.3599" y1="418.8486" x2="388.4102" y2="418.8486">
				<stop  offset="0" style="stop-color:#CE7432"/>
				<stop  offset="0.1313" style="stop-color:#F49767"/>
				<stop  offset="0.3215" style="stop-color:#F7C386"/>
				<stop  offset="0.3876" style="stop-color:#F8D392"/>
				<stop  offset="0.5367" style="stop-color:#DFBEA8"/>
				<stop  offset="0.7104" style="stop-color:#C6A9B5"/>
				<stop  offset="0.7812" style="stop-color:#B28FA3"/>
				<stop  offset="0.8737" style="stop-color:#9E7692"/>
				<stop  offset="0.95" style="stop-color:#936789"/>
				<stop  offset="1" style="stop-color:#8F6286"/>
			</linearGradient>
			<path fill="url(#SVGID_1_)" d="M240.89,637.029c67.22-0.891,121.56-211.69,121.56-472.07v-0.65h25.96
				c0,280.78-65.93,508.11-147.52,509.08c-81.6-0.97-147.53-228.3-147.53-509.08h25.97v0.65
				C119.33,425.339,173.66,636.139,240.89,637.029z"/>
		</g>
		<g>
			<path fill="none" stroke="#000000" d="M93.36,164.309c0,280.78,65.93,508.11,147.53,509.08c0.18,0.011,0.35,0.011,0.53,0.011"/>
			<path fill="none" stroke="#000000" d="M388.41,164.309c0,280.78-65.93,508.11-147.52,509.08c-0.18,0.011-0.35,0.011-0.53,0.011"
				/>
			<path fill="none" stroke="#000000" d="M119.33,164.959c0,260.38,54.33,471.18,121.56,472.07c0.14,0.01,0.29,0.01,0.43,0.01"/>
			<path fill="none" stroke="#000000" d="M362.45,164.959c0,260.38-54.34,471.18-121.56,472.07c-0.14,0.01-0.29,0.01-0.43,0.01"/>
			<line fill="none" stroke="#000000" x1="93.36" y1="164.309" x2="119.33" y2="164.309"/>
			<line fill="none" stroke="#000000" x1="362.45" y1="164.309" x2="388.41" y2="164.309"/>
		</g>
	</g>
</g>
<line fill="none" stroke="#000000" stroke-dasharray="3,3" x1="39.886" y1="163.309" x2="441.886" y2="163.309"/>
<line fill="none" stroke="#000000" stroke-dasharray="3,3" x1="39.886" y1="673.399" x2="441.886" y2="673.399"/>
<g>
	<g>
		<path fill="none" stroke="#000000" stroke-width="2" d="M109,263.712c0,23.768,55.635,43,124.389,43"/>
		<polygon points="227.772,314.119 230.917,306.712 227.772,299.304 245.328,306.712 		"/>
	</g>
</g>
<g>
	<g>
		<path fill="none" stroke="#000000" d="M314.088,214.999c0,17.688-92.021,32-205.743,32"/>
		<polygon points="317.791,217.808 314.088,216.235 310.384,217.808 314.088,209.03 		"/>
	</g>
</g>
<g>
	<g>
		<g>
			<path fill="none" stroke="#000000" stroke-width="2" d="M374.812,263.712c0,23.768-55.293,43-123.626,43"/>
			<polygon points="382.219,269.33 374.812,266.184 367.404,269.33 374.812,251.774 			"/>
		</g>
	</g>
</g>
<g>
	<g>
		<path fill="none" stroke="#000000" stroke-width="2" d="M112.389,376.128c0,23.768,53.225,43,119,43"/>
		<polygon points="225.772,426.534 228.917,419.128 225.772,411.72 243.328,419.128 		"/>
	</g>
</g>
<g>
	<g>
		<g>
			<path fill="none" stroke="#000000" stroke-width="2" d="M363.384,376.128c0,23.768-50.988,43-114,43"/>
			<polygon points="370.79,381.745 363.384,378.6 355.976,381.745 363.384,364.189 			"/>
		</g>
	</g>
</g>
<g>
	<g>
		<path fill="none" stroke="#000000" stroke-width="2" d="M141.616,511.681c0,18.7,41.877,33.833,93.63,33.833"/>
		<polygon points="229.629,552.92 232.774,545.514 229.629,538.105 247.185,545.514 		"/>
	</g>
</g>
<g>
	<g>
		<g>
			<path fill="none" stroke="#000000" stroke-width="2" d="M339.101,511.681c0,18.7-40.118,33.833-89.696,33.833"/>
			<polygon points="346.507,517.298 339.101,514.152 331.692,517.298 339.101,499.742 			"/>
		</g>
	</g>
</g>
<g>
	<g>
		<path fill="none" stroke="#000000" d="M169.89,221.853c0-17.688,92.021-32,205.742-32"/>
		<polygon points="166.187,219.044 169.89,220.617 173.594,219.044 169.89,227.822 		"/>
	</g>
</g>
<g>
	<g>
		<path fill="none" stroke="#000000" d="M401.63,221.853c0,23.137,29.123,41.86,65.114,41.86"/>
		<polygon points="405.333,224.661 401.63,223.088 397.926,224.661 401.63,215.883 		"/>
	</g>
</g>
<g>
	<g>
		<line fill="none" stroke="#000000" x1="535.565" y1="263.999" x2="487" y2="263.999"/>
		<polygon points="489.809,260.296 488.236,263.999 489.809,267.703 481.031,263.999 		"/>
	</g>
</g>
<g>
	
		<radialGradient id="path16609_8_" cx="359.5732" cy="-13.2944" r="16.1858" gradientTransform="matrix(1.5933 0 0 0.6358 -96.8518 450.275)" gradientUnits="userSpaceOnUse">
		<stop  offset="0" style="stop-color:#FDFBE1"/>
		<stop  offset="0.1203" style="stop-color:#FEFBDC"/>
		<stop  offset="0.2662" style="stop-color:#FFFACC"/>
		<stop  offset="0.4255" style="stop-color:#FEF6B3"/>
		<stop  offset="0.5943" style="stop-color:#FEF091"/>
		<stop  offset="0.7706" style="stop-color:#FEEA64"/>
		<stop  offset="0.9506" style="stop-color:#FEE22D"/>
		<stop  offset="1" style="stop-color:#FEE01B"/>
	</radialGradient>
	<path id="path16609_1_" fill="url(#path16609_8_)" stroke="#010101" d="M501.371,441.821c0,5.786-11.338,10.478-25.315,10.478
		c-13.981,0-25.315-4.689-25.315-10.478s11.334-10.476,25.315-10.476C490.033,431.347,501.371,436.034,501.371,441.821z"/>
	<g>
		<path d="M463.207,444.984c-0.469,0.181-1.404,0.444-2.496,0.444c-1.223,0-2.23-0.312-3.021-1.067
			c-0.695-0.672-1.127-1.751-1.127-3.01c0-2.411,1.666-4.174,4.377-4.174c0.936,0,1.68,0.203,2.027,0.371l-0.264,0.852
			c-0.432-0.203-0.973-0.348-1.787-0.348c-1.967,0-3.25,1.223-3.25,3.25c0,2.051,1.223,3.262,3.117,3.262
			c0.684,0,1.152-0.096,1.393-0.215v-2.411h-1.631V441.1h2.662V444.984z"/>
		<path d="M464.758,436.83h1.055v8.515h-1.055V436.83z"/>
		<path d="M472.447,443.75c0,0.611,0.012,1.139,0.049,1.595h-0.936l-0.061-0.947h-0.023c-0.266,0.468-0.889,1.079-1.92,1.079
			c-0.912,0-2.002-0.516-2.002-2.543v-3.394h1.055v3.202c0,1.104,0.348,1.859,1.295,1.859c0.707,0,1.199-0.492,1.391-0.972
			c0.061-0.144,0.098-0.336,0.098-0.54v-3.55h1.055V443.75z"/>
		<path d="M478.34,445.141c-0.277,0.133-0.889,0.336-1.668,0.336c-1.752,0-2.891-1.188-2.891-2.963c0-1.787,1.223-3.094,3.119-3.094
			c0.623,0,1.174,0.156,1.463,0.312l-0.24,0.803c-0.252-0.132-0.648-0.275-1.223-0.275c-1.332,0-2.051,0.995-2.051,2.194
			c0,1.343,0.863,2.171,2.014,2.171c0.6,0,0.996-0.144,1.295-0.275L478.34,445.141z"/>
		<path d="M484.76,442.395c0,2.146-1.5,3.082-2.891,3.082c-1.561,0-2.783-1.151-2.783-2.986c0-1.931,1.283-3.07,2.879-3.07
			C483.631,439.42,484.76,440.631,484.76,442.395z M480.166,442.454c0,1.271,0.719,2.231,1.75,2.231
			c1.008,0,1.764-0.947,1.764-2.256c0-0.982-0.492-2.219-1.738-2.219C480.705,440.211,480.166,441.363,480.166,442.454z"/>
		<path d="M485.949,444.277c0.324,0.191,0.877,0.408,1.404,0.408c0.756,0,1.115-0.372,1.115-0.863c0-0.504-0.301-0.768-1.068-1.057
			c-1.055-0.383-1.547-0.947-1.547-1.643c0-0.936,0.768-1.703,2.004-1.703c0.588,0,1.104,0.156,1.414,0.359l-0.252,0.768
			c-0.227-0.144-0.646-0.348-1.188-0.348c-0.623,0-0.959,0.36-0.959,0.792c0,0.479,0.336,0.695,1.092,0.995
			c0.996,0.372,1.523,0.876,1.523,1.739c0,1.031-0.805,1.751-2.158,1.751c-0.637,0-1.225-0.168-1.633-0.408L485.949,444.277z"/>
		<path d="M491.434,442.635c0.023,1.427,0.924,2.014,1.99,2.014c0.756,0,1.225-0.131,1.607-0.299l0.191,0.756
			c-0.371,0.168-1.02,0.371-1.941,0.371c-1.787,0-2.855-1.188-2.855-2.938s1.031-3.118,2.723-3.118c1.906,0,2.398,1.655,2.398,2.723
			c0,0.216-0.012,0.371-0.035,0.492H491.434z M494.527,441.879c0.012-0.66-0.275-1.703-1.463-1.703c-1.08,0-1.535,0.971-1.619,1.703
			H494.527z"/>
	</g>
</g>
<g>
	
		<radialGradient id="path16609_9_" cx="364.6123" cy="186.4463" r="16.186" gradientTransform="matrix(1.5933 0 0 0.6358 -96.8518 450.275)" gradientUnits="userSpaceOnUse">
		<stop  offset="0" style="stop-color:#FDFBE1"/>
		<stop  offset="0.1203" style="stop-color:#FEFBDC"/>
		<stop  offset="0.2662" style="stop-color:#FFFACC"/>
		<stop  offset="0.4255" style="stop-color:#FEF6B3"/>
		<stop  offset="0.5943" style="stop-color:#FEF091"/>
		<stop  offset="0.7706" style="stop-color:#FEEA64"/>
		<stop  offset="0.9506" style="stop-color:#FEE22D"/>
		<stop  offset="1" style="stop-color:#FEE01B"/>
	</radialGradient>
	<path id="path16609_2_" fill="url(#path16609_9_)" stroke="#010101" d="M509.4,568.816c0,5.786-11.338,10.478-25.314,10.478
		c-13.982,0-25.316-4.689-25.316-10.478s11.334-10.476,25.316-10.476C498.062,558.342,509.4,563.029,509.4,568.816z"/>
	<g>
		<path d="M465.869,564.255h1.057v7.208h3.453v0.876h-4.51V564.255z"/>
		<path d="M475.588,570.947c0,0.504,0.023,0.996,0.084,1.392h-0.947l-0.084-0.731h-0.037c-0.322,0.456-0.947,0.863-1.775,0.863
			c-1.174,0-1.773-0.827-1.773-1.667c0-1.403,1.246-2.171,3.49-2.159v-0.119c0-0.468-0.133-1.344-1.32-1.332
			c-0.551,0-1.115,0.156-1.523,0.432l-0.24-0.707c0.48-0.3,1.188-0.504,1.92-0.504c1.775,0,2.207,1.211,2.207,2.362V570.947z
			 M474.568,569.377c-1.152-0.024-2.459,0.18-2.459,1.307c0,0.696,0.455,1.008,0.984,1.008c0.768,0,1.258-0.479,1.426-0.972
			c0.037-0.12,0.049-0.24,0.049-0.336V569.377z"/>
		<path d="M481.432,572.135c-0.277,0.132-0.889,0.336-1.668,0.336c-1.752,0-2.891-1.188-2.891-2.962
			c0-1.787,1.223-3.095,3.119-3.095c0.623,0,1.174,0.156,1.463,0.312l-0.24,0.804c-0.252-0.132-0.648-0.275-1.223-0.275
			c-1.332,0-2.051,0.995-2.051,2.194c0,1.344,0.863,2.171,2.014,2.171c0.6,0,0.996-0.144,1.295-0.275L481.432,572.135z"/>
		<path d="M484.096,565.143v1.392h1.512v0.804h-1.512v3.13c0,0.72,0.205,1.128,0.793,1.128c0.287,0,0.455-0.024,0.611-0.072
			l0.047,0.804c-0.203,0.071-0.527,0.144-0.936,0.144c-0.49,0-0.887-0.168-1.139-0.443c-0.287-0.324-0.408-0.84-0.408-1.523v-3.166
			h-0.898v-0.804h0.898v-1.079L484.096,565.143z"/>
		<path d="M491.979,569.389c0,2.146-1.498,3.082-2.891,3.082c-1.559,0-2.781-1.151-2.781-2.986c0-1.931,1.283-3.07,2.877-3.07
			C490.852,566.414,491.979,567.625,491.979,569.389z M487.385,569.448c0,1.271,0.721,2.231,1.752,2.231
			c1.008,0,1.762-0.948,1.762-2.255c0-0.983-0.49-2.219-1.738-2.219C487.926,567.206,487.385,568.357,487.385,569.448z"/>
		<path d="M493.17,571.271c0.324,0.191,0.875,0.408,1.402,0.408c0.756,0,1.115-0.372,1.115-0.864c0-0.504-0.299-0.768-1.066-1.055
			c-1.057-0.384-1.547-0.948-1.547-1.644c0-0.936,0.768-1.703,2.002-1.703c0.588,0,1.104,0.156,1.416,0.36l-0.252,0.768
			c-0.229-0.145-0.648-0.349-1.188-0.349c-0.623,0-0.959,0.36-0.959,0.792c0,0.479,0.336,0.695,1.09,0.995
			c0.996,0.372,1.523,0.876,1.523,1.739c0,1.031-0.803,1.751-2.158,1.751c-0.635,0-1.223-0.168-1.631-0.407L493.17,571.271z"/>
		<path d="M498.652,569.628c0.025,1.428,0.924,2.016,1.992,2.016c0.756,0,1.223-0.132,1.607-0.3l0.191,0.755
			c-0.373,0.168-1.02,0.372-1.943,0.372c-1.787,0-2.854-1.188-2.854-2.938s1.031-3.118,2.723-3.118c1.906,0,2.398,1.655,2.398,2.723
			c0,0.216-0.012,0.372-0.037,0.491H498.652z M501.748,568.873c0.012-0.66-0.277-1.703-1.463-1.703c-1.08,0-1.535,0.972-1.619,1.703
			H501.748z"/>
	</g>
</g>
<g>
	
		<radialGradient id="path16609_10_" cx="364.6123" cy="219.4019" r="16.1858" gradientTransform="matrix(1.5933 0 0 0.6358 -96.8518 450.275)" gradientUnits="userSpaceOnUse">
		<stop  offset="0" style="stop-color:#FDFBE1"/>
		<stop  offset="0.1203" style="stop-color:#FEFBDC"/>
		<stop  offset="0.2662" style="stop-color:#FFFACC"/>
		<stop  offset="0.4255" style="stop-color:#FEF6B3"/>
		<stop  offset="0.5943" style="stop-color:#FEF091"/>
		<stop  offset="0.7706" style="stop-color:#FEEA64"/>
		<stop  offset="0.9506" style="stop-color:#FEE22D"/>
		<stop  offset="1" style="stop-color:#FEE01B"/>
	</radialGradient>
	<path id="path16609_3_" fill="url(#path16609_10_)" stroke="#010101" d="M509.4,589.77c0,5.786-11.338,10.478-25.314,10.478
		c-13.982,0-25.316-4.689-25.316-10.478s11.334-10.476,25.316-10.476C498.062,579.295,509.4,583.982,509.4,589.77z"/>
	<g>
		<path d="M465.869,585.208h1.057v7.208h3.453v0.876h-4.51V585.208z"/>
		<path d="M475.588,591.9c0,0.504,0.023,0.996,0.084,1.392h-0.947l-0.084-0.731h-0.037c-0.322,0.456-0.947,0.863-1.775,0.863
			c-1.174,0-1.773-0.827-1.773-1.667c0-1.403,1.246-2.171,3.49-2.159v-0.119c0-0.468-0.133-1.344-1.32-1.332
			c-0.551,0-1.115,0.156-1.523,0.432l-0.24-0.707c0.48-0.3,1.188-0.504,1.92-0.504c1.775,0,2.207,1.211,2.207,2.362V591.9z
			 M474.568,590.33c-1.152-0.024-2.459,0.18-2.459,1.307c0,0.696,0.455,1.008,0.984,1.008c0.768,0,1.258-0.479,1.426-0.972
			c0.037-0.12,0.049-0.24,0.049-0.336V590.33z"/>
		<path d="M481.432,593.088c-0.277,0.132-0.889,0.336-1.668,0.336c-1.752,0-2.891-1.188-2.891-2.962
			c0-1.787,1.223-3.095,3.119-3.095c0.623,0,1.174,0.156,1.463,0.312l-0.24,0.804c-0.252-0.132-0.648-0.275-1.223-0.275
			c-1.332,0-2.051,0.995-2.051,2.194c0,1.344,0.863,2.171,2.014,2.171c0.6,0,0.996-0.144,1.295-0.275L481.432,593.088z"/>
		<path d="M484.096,586.096v1.392h1.512v0.804h-1.512v3.13c0,0.72,0.205,1.128,0.793,1.128c0.287,0,0.455-0.024,0.611-0.072
			l0.047,0.804c-0.203,0.071-0.527,0.144-0.936,0.144c-0.49,0-0.887-0.168-1.139-0.443c-0.287-0.324-0.408-0.84-0.408-1.523v-3.166
			h-0.898v-0.804h0.898v-1.079L484.096,586.096z"/>
		<path d="M491.979,590.342c0,2.146-1.498,3.082-2.891,3.082c-1.559,0-2.781-1.151-2.781-2.986c0-1.931,1.283-3.07,2.877-3.07
			C490.852,587.367,491.979,588.578,491.979,590.342z M487.385,590.401c0,1.271,0.721,2.231,1.752,2.231
			c1.008,0,1.762-0.948,1.762-2.255c0-0.983-0.49-2.219-1.738-2.219C487.926,588.159,487.385,589.311,487.385,590.401z"/>
		<path d="M493.17,592.225c0.324,0.191,0.875,0.408,1.402,0.408c0.756,0,1.115-0.372,1.115-0.864c0-0.504-0.299-0.768-1.066-1.055
			c-1.057-0.384-1.547-0.948-1.547-1.644c0-0.936,0.768-1.703,2.002-1.703c0.588,0,1.104,0.156,1.416,0.36l-0.252,0.768
			c-0.229-0.145-0.648-0.349-1.188-0.349c-0.623,0-0.959,0.36-0.959,0.792c0,0.479,0.336,0.695,1.09,0.995
			c0.996,0.372,1.523,0.876,1.523,1.739c0,1.031-0.803,1.751-2.158,1.751c-0.635,0-1.223-0.168-1.631-0.407L493.17,592.225z"/>
		<path d="M498.652,590.581c0.025,1.428,0.924,2.016,1.992,2.016c0.756,0,1.223-0.132,1.607-0.3l0.191,0.755
			c-0.373,0.168-1.02,0.372-1.943,0.372c-1.787,0-2.854-1.188-2.854-2.938s1.031-3.118,2.723-3.118c1.906,0,2.398,1.655,2.398,2.723
			c0,0.216-0.012,0.372-0.037,0.491H498.652z M501.748,589.826c0.012-0.66-0.277-1.703-1.463-1.703c-1.08,0-1.535,0.972-1.619,1.703
			H501.748z"/>
	</g>
</g>
<g>
	
		<radialGradient id="path11134_3_" cx="1205.8057" cy="199.2363" r="22.1562" gradientTransform="matrix(0.3664 0 0 0.3664 71.5125 495.8171)" gradientUnits="userSpaceOnUse">
		<stop  offset="0" style="stop-color:#FDFBE1"/>
		<stop  offset="0.1203" style="stop-color:#FEFBDC"/>
		<stop  offset="0.2662" style="stop-color:#FFFACC"/>
		<stop  offset="0.4255" style="stop-color:#FEF6B3"/>
		<stop  offset="0.5943" style="stop-color:#FEF091"/>
		<stop  offset="0.7706" style="stop-color:#FEEA64"/>
		<stop  offset="0.9506" style="stop-color:#FEE22D"/>
		<stop  offset="1" style="stop-color:#FEE01B"/>
	</radialGradient>
	<path id="path11134_2_" fill="url(#path11134_3_)" stroke="#010101" stroke-width="0.9921" d="M521.438,568.818
		c0,4.482-3.635,8.117-8.117,8.117c-4.484,0-8.119-3.635-8.119-8.117s3.634-8.119,8.119-8.119
		C517.803,560.699,521.438,564.336,521.438,568.818z"/>
	<g>
		<path fill="#010101" d="M510.347,566.74v2.254h2.606v-2.254h0.703v5.389h-0.703v-2.526h-2.606v2.526h-0.704v-5.389H510.347z"/>
		<path fill="#010101" d="M516.106,566.485v1.316h1.266v0.336h-1.266v1.327h-0.358v-1.327h-1.266v-0.336h1.266v-1.316H516.106z"/>
	</g>
</g>
<g>
	
		<radialGradient id="path11134_4_" cx="1205.8057" cy="256.4199" r="22.1562" gradientTransform="matrix(0.3664 0 0 0.3664 71.5125 495.8171)" gradientUnits="userSpaceOnUse">
		<stop  offset="0" style="stop-color:#FDFBE1"/>
		<stop  offset="0.1203" style="stop-color:#FEFBDC"/>
		<stop  offset="0.2662" style="stop-color:#FFFACC"/>
		<stop  offset="0.4255" style="stop-color:#FEF6B3"/>
		<stop  offset="0.5943" style="stop-color:#FEF091"/>
		<stop  offset="0.7706" style="stop-color:#FEEA64"/>
		<stop  offset="0.9506" style="stop-color:#FEE22D"/>
		<stop  offset="1" style="stop-color:#FEE01B"/>
	</radialGradient>
	<path id="path11134_1_" fill="url(#path11134_4_)" stroke="#010101" stroke-width="0.9921" d="M521.438,589.771
		c0,4.482-3.635,8.117-8.117,8.117c-4.484,0-8.119-3.635-8.119-8.117s3.634-8.119,8.119-8.119
		C517.803,581.651,521.438,585.288,521.438,589.771z"/>
	<g>
		<path fill="#010101" d="M510.347,587.692v2.254h2.606v-2.254h0.703v5.389h-0.703v-2.526h-2.606v2.526h-0.704v-5.389H510.347z"/>
		<path fill="#010101" d="M516.106,587.438v1.316h1.266v0.336h-1.266v1.327h-0.358v-1.327h-1.266v-0.336h1.266v-1.316H516.106z"/>
	</g>
</g>
<g>
	<g>
		<g>
			<line fill="none" stroke="#010101" x1="470.873" y1="466.877" x2="470.873" y2="551.573"/>
			<polygon fill="#010101" points="474.576,469.686 470.873,468.112 467.169,469.686 470.873,460.907 			"/>
		</g>
	</g>
	<g>
		<g>
			<line fill="none" stroke="#010101" x1="481.238" y1="545.756" x2="481.238" y2="461.06"/>
			<polygon fill="#010101" points="477.535,542.947 481.238,544.521 484.942,542.947 481.238,551.726 			"/>
		</g>
	</g>
</g>
<g>
	<g>
		
			<radialGradient id="path16609_11_" cx="402.8125" cy="110.6401" r="16.1858" gradientTransform="matrix(1.5933 0 0 0.6358 -96.8518 450.275)" gradientUnits="userSpaceOnUse">
			<stop  offset="0" style="stop-color:#FDFBE1"/>
			<stop  offset="0.1203" style="stop-color:#FEFBDC"/>
			<stop  offset="0.2662" style="stop-color:#FFFACC"/>
			<stop  offset="0.4255" style="stop-color:#FEF6B3"/>
			<stop  offset="0.5943" style="stop-color:#FEF091"/>
			<stop  offset="0.7706" style="stop-color:#FEEA64"/>
			<stop  offset="0.9506" style="stop-color:#FEE22D"/>
			<stop  offset="1" style="stop-color:#FEE01B"/>
		</radialGradient>
		<path id="path16609_4_" fill="url(#path16609_11_)" stroke="#010101" d="M570.265,520.619c0,5.786-11.338,10.478-25.315,10.478
			c-13.981,0-25.315-4.689-25.315-10.478s11.334-10.476,25.315-10.476C558.927,510.145,570.265,514.832,570.265,520.619z"/>
		<g>
			<path d="M537.784,521.6l-0.84,2.543h-1.079l2.759-8.084h1.247l2.759,8.084h-1.115l-0.864-2.543H537.784z M540.446,520.784
				l-0.803-2.326c-0.181-0.528-0.3-1.008-0.42-1.476h-0.024c-0.12,0.468-0.239,0.972-0.407,1.463L538,520.784H540.446z"/>
			<path d="M544.432,516.946h-2.458v-0.888h5.984v0.888h-2.471v7.196h-1.056V516.946z"/>
			<path d="M548.86,516.155c0.504-0.084,1.164-0.156,2.003-0.156c1.032,0,1.787,0.24,2.267,0.672
				c0.433,0.384,0.708,0.972,0.708,1.69c0,0.732-0.216,1.308-0.624,1.728c-0.563,0.588-1.451,0.888-2.47,0.888
				c-0.312,0-0.601-0.013-0.84-0.072v3.238h-1.044V516.155z M549.904,520.053c0.228,0.061,0.516,0.084,0.863,0.084
				c1.26,0,2.027-0.624,2.027-1.715c0-1.079-0.768-1.596-1.907-1.596c-0.456,0-0.804,0.036-0.983,0.084V520.053z"/>
		</g>
	</g>
	<g>
		
			<radialGradient id="path16609_12_" cx="402.8125" cy="135.7319" r="16.1858" gradientTransform="matrix(1.5933 0 0 0.6358 -96.8518 450.275)" gradientUnits="userSpaceOnUse">
			<stop  offset="0" style="stop-color:#FDFBE1"/>
			<stop  offset="0.1203" style="stop-color:#FEFBDC"/>
			<stop  offset="0.2662" style="stop-color:#FFFACC"/>
			<stop  offset="0.4255" style="stop-color:#FEF6B3"/>
			<stop  offset="0.5943" style="stop-color:#FEF091"/>
			<stop  offset="0.7706" style="stop-color:#FEEA64"/>
			<stop  offset="0.9506" style="stop-color:#FEE22D"/>
			<stop  offset="1" style="stop-color:#FEE01B"/>
		</radialGradient>
		<path id="path16609_6_" fill="url(#path16609_12_)" stroke="#010101" d="M570.265,536.572c0,5.786-11.338,10.478-25.315,10.478
			c-13.981,0-25.315-4.689-25.315-10.478s11.334-10.476,25.315-10.476C558.927,526.098,570.265,530.785,570.265,536.572z"/>
		<g>
			<path d="M537.784,537.553l-0.84,2.543h-1.079l2.759-8.084h1.247l2.759,8.084h-1.115l-0.864-2.543H537.784z M540.446,536.737
				l-0.803-2.326c-0.181-0.528-0.3-1.008-0.42-1.476h-0.024c-0.12,0.468-0.239,0.972-0.407,1.463L538,536.737H540.446z"/>
			<path d="M544.432,532.899h-2.458v-0.888h5.984v0.888h-2.471v7.196h-1.056V532.899z"/>
			<path d="M548.86,532.108c0.504-0.084,1.164-0.156,2.003-0.156c1.032,0,1.787,0.24,2.267,0.672
				c0.433,0.384,0.708,0.972,0.708,1.69c0,0.732-0.216,1.308-0.624,1.728c-0.563,0.588-1.451,0.888-2.47,0.888
				c-0.312,0-0.601-0.013-0.84-0.072v3.238h-1.044V532.108z M549.904,536.006c0.228,0.061,0.516,0.084,0.863,0.084
				c1.26,0,2.027-0.624,2.027-1.715c0-1.079-0.768-1.596-1.907-1.596c-0.456,0-0.804,0.036-0.983,0.084V536.006z"/>
		</g>
	</g>
</g>
<g>
	<g>
		
			<radialGradient id="path16609_13_" cx="400.1074" cy="24.5269" r="16.1858" gradientTransform="matrix(1.5933 0 0 0.6358 -96.8518 450.275)" gradientUnits="userSpaceOnUse">
			<stop  offset="0" style="stop-color:#FDFBE1"/>
			<stop  offset="0.1203" style="stop-color:#FEFBDC"/>
			<stop  offset="0.2662" style="stop-color:#FFFACC"/>
			<stop  offset="0.4255" style="stop-color:#FEF6B3"/>
			<stop  offset="0.5943" style="stop-color:#FEF091"/>
			<stop  offset="0.7706" style="stop-color:#FEEA64"/>
			<stop  offset="0.9506" style="stop-color:#FEE22D"/>
			<stop  offset="1" style="stop-color:#FEE01B"/>
		</radialGradient>
		<path id="path16609_5_" fill="url(#path16609_13_)" stroke="#010101" d="M565.955,465.868c0,5.786-11.338,10.478-25.315,10.478
			c-13.981,0-25.315-4.689-25.315-10.478s11.334-10.476,25.315-10.476C554.617,455.394,565.955,460.081,565.955,465.868z"/>
		<g>
			<path d="M531.998,466.848l-0.84,2.543h-1.078l2.758-8.084h1.248l2.758,8.084h-1.115l-0.863-2.543H531.998z M534.66,466.032
				l-0.803-2.327c-0.18-0.527-0.299-1.007-0.42-1.475h-0.023c-0.121,0.468-0.24,0.972-0.408,1.463l-0.791,2.339H534.66z"/>
			<path d="M538.035,461.427c0.635-0.108,1.391-0.18,2.219-0.18c1.5,0,2.566,0.36,3.273,1.007c0.732,0.66,1.152,1.596,1.152,2.902
				c0,1.32-0.42,2.399-1.164,3.143c-0.768,0.756-2.014,1.164-3.586,1.164c-0.756,0-1.367-0.036-1.895-0.096V461.427z
				 M539.078,468.575c0.264,0.036,0.648,0.048,1.057,0.048c2.242,0,3.441-1.247,3.441-3.43c0.012-1.907-1.068-3.119-3.273-3.119
				c-0.541,0-0.949,0.049-1.225,0.108V468.575z"/>
			<path d="M546.027,461.402c0.504-0.084,1.164-0.155,2.002-0.155c1.033,0,1.787,0.239,2.268,0.672
				c0.432,0.384,0.707,0.972,0.707,1.69c0,0.732-0.215,1.308-0.623,1.728c-0.564,0.587-1.451,0.888-2.471,0.888
				c-0.312,0-0.6-0.012-0.84-0.072v3.238h-1.043V461.402z M547.07,465.301c0.229,0.061,0.516,0.084,0.863,0.084
				c1.26,0,2.027-0.623,2.027-1.715c0-1.08-0.768-1.596-1.906-1.596c-0.457,0-0.805,0.037-0.984,0.084V465.301z"/>
		</g>
	</g>
	<g>
		
			<radialGradient id="path16609_14_" cx="400.1074" cy="51.2617" r="16.186" gradientTransform="matrix(1.5933 0 0 0.6358 -96.8518 450.275)" gradientUnits="userSpaceOnUse">
			<stop  offset="0" style="stop-color:#FDFBE1"/>
			<stop  offset="0.1203" style="stop-color:#FEFBDC"/>
			<stop  offset="0.2662" style="stop-color:#FFFACC"/>
			<stop  offset="0.4255" style="stop-color:#FEF6B3"/>
			<stop  offset="0.5943" style="stop-color:#FEF091"/>
			<stop  offset="0.7706" style="stop-color:#FEEA64"/>
			<stop  offset="0.9506" style="stop-color:#FEE22D"/>
			<stop  offset="1" style="stop-color:#FEE01B"/>
		</radialGradient>
		<path id="path16609_7_" fill="url(#path16609_14_)" stroke="#010101" d="M565.955,482.866c0,5.786-11.338,10.478-25.315,10.478
			c-13.981,0-25.315-4.689-25.315-10.478s11.334-10.476,25.315-10.476C554.617,472.392,565.955,477.079,565.955,482.866z"/>
		<g>
			<path d="M531.998,483.846l-0.84,2.543h-1.078l2.758-8.084h1.248l2.758,8.084h-1.115l-0.863-2.543H531.998z M534.66,483.03
				l-0.803-2.327c-0.18-0.527-0.299-1.007-0.42-1.475h-0.023c-0.121,0.468-0.24,0.972-0.408,1.463l-0.791,2.339H534.66z"/>
			<path d="M538.035,478.425c0.635-0.108,1.391-0.18,2.219-0.18c1.5,0,2.566,0.36,3.273,1.007c0.732,0.66,1.152,1.596,1.152,2.902
				c0,1.32-0.42,2.399-1.164,3.143c-0.768,0.756-2.014,1.164-3.586,1.164c-0.756,0-1.367-0.036-1.895-0.096V478.425z
				 M539.078,485.573c0.264,0.036,0.648,0.048,1.057,0.048c2.242,0,3.441-1.247,3.441-3.43c0.012-1.907-1.068-3.119-3.273-3.119
				c-0.541,0-0.949,0.049-1.225,0.108V485.573z"/>
			<path d="M546.027,478.4c0.504-0.084,1.164-0.155,2.002-0.155c1.033,0,1.787,0.239,2.268,0.672
				c0.432,0.384,0.707,0.972,0.707,1.69c0,0.732-0.215,1.308-0.623,1.728c-0.564,0.587-1.451,0.888-2.471,0.888
				c-0.312,0-0.6-0.012-0.84-0.072v3.238h-1.043V478.4z M547.07,482.299c0.229,0.061,0.516,0.084,0.863,0.084
				c1.26,0,2.027-0.623,2.027-1.715c0-1.08-0.768-1.596-1.906-1.596c-0.457,0-0.805,0.037-0.984,0.084V482.299z"/>
		</g>
	</g>
</g>
<g>
	<g>
		<path fill="none" stroke="#010101" d="M509.277,527.651c-38.76-14.901-12.061-44.48-0.504-53.283"/>
		<polygon fill="#010101" points="505.327,530.1 508.124,527.208 507.985,523.187 514.849,529.793 		"/>
	</g>
</g>
<g>
	<g>
		<line fill="none" stroke="#010101" x1="382.021" y1="441.823" x2="435.389" y2="441.823"/>
		<polygon fill="#010101" points="432.58,445.526 434.152,441.823 432.58,438.119 441.357,441.823 		"/>
	</g>
</g>
<g>
	<g>
		<line fill="none" stroke="#010101" x1="435.389" y1="575.339" x2="382.021" y2="575.339"/>
		<polygon fill="#010101" points="384.83,571.636 383.258,575.339 384.83,579.043 376.053,575.339 		"/>
	</g>
</g>
<g>
	<path d="M452.695,158.916v8.083h-1.056v-8.083H452.695z"/>
	<path d="M461.332,163.449c-0.06-1.127-0.132-2.495-0.132-3.49h-0.024c-0.287,0.936-0.611,1.955-1.019,3.07l-1.428,3.922h-0.791
		l-1.319-3.85c-0.384-1.151-0.696-2.183-0.924-3.142h-0.024c-0.023,1.007-0.084,2.351-0.155,3.574l-0.216,3.466h-0.996l0.564-8.083
		h1.331l1.379,3.91c0.336,0.996,0.6,1.883,0.815,2.723h0.024c0.216-0.815,0.504-1.703,0.863-2.723l1.439-3.91h1.331l0.504,8.083
		h-1.031L461.332,163.449z"/>
	<path d="M463.244,167.467l3.334-8.695h0.827l-3.357,8.695H463.244z"/>
	<path d="M475.191,162.873c0,2.771-1.69,4.258-3.754,4.258c-2.146,0-3.634-1.667-3.634-4.114c0-2.566,1.583-4.246,3.742-4.246
		C473.765,158.771,475.191,160.462,475.191,162.873z M468.907,162.993c0,1.739,0.936,3.286,2.591,3.286s2.59-1.523,2.59-3.358
		c0-1.619-0.839-3.298-2.578-3.298S468.907,161.23,468.907,162.993z"/>
	<path d="M483.363,163.449c-0.06-1.127-0.132-2.495-0.132-3.49h-0.024c-0.287,0.936-0.611,1.955-1.019,3.07l-1.428,3.922h-0.791
		l-1.319-3.85c-0.384-1.151-0.696-2.183-0.924-3.142h-0.024c-0.023,1.007-0.084,2.351-0.155,3.574l-0.216,3.466h-0.996l0.564-8.083
		h1.331l1.379,3.91c0.336,0.996,0.6,1.883,0.815,2.723h0.024c0.216-0.815,0.504-1.703,0.863-2.723l1.439-3.91h1.331l0.504,8.083
		h-1.031L483.363,163.449z"/>
	<path d="M488.743,159.035c0.456-0.108,1.188-0.18,1.907-0.18c1.044,0,1.715,0.18,2.207,0.588c0.42,0.312,0.684,0.792,0.684,1.427
		c0,0.792-0.527,1.475-1.367,1.775v0.036c0.768,0.18,1.667,0.815,1.667,2.015c0,0.696-0.276,1.235-0.695,1.619
		c-0.552,0.516-1.464,0.755-2.783,0.755c-0.72,0-1.271-0.048-1.619-0.096V159.035z M489.787,162.346h0.947
		c1.092,0,1.739-0.588,1.739-1.367c0-0.936-0.708-1.319-1.763-1.319c-0.48,0-0.756,0.036-0.924,0.072V162.346z M489.787,166.208
		c0.216,0.036,0.504,0.048,0.875,0.048c1.08,0,2.075-0.396,2.075-1.571c0-1.091-0.947-1.559-2.087-1.559h-0.863V166.208z"/>
	<path d="M500.513,164.049c0,2.146-1.499,3.082-2.891,3.082c-1.56,0-2.782-1.151-2.782-2.986c0-1.931,1.283-3.07,2.878-3.07
		C499.385,161.074,500.513,162.286,500.513,164.049z M495.919,164.108c0,1.271,0.72,2.231,1.751,2.231
		c1.008,0,1.763-0.947,1.763-2.255c0-0.983-0.491-2.219-1.738-2.219C496.459,161.866,495.919,163.017,495.919,164.108z"/>
	<path d="M501.848,163.005c0-0.684-0.013-1.271-0.049-1.811h0.924l0.048,1.151h0.036c0.264-0.78,0.911-1.271,1.619-1.271
		c0.108,0,0.191,0.012,0.288,0.024v0.996c-0.108-0.024-0.216-0.024-0.36-0.024c-0.743,0-1.271,0.552-1.415,1.343
		c-0.023,0.144-0.036,0.324-0.036,0.492v3.094h-1.055V163.005z"/>
	<path d="M510.652,158.484v7.016c0,0.516,0.023,1.103,0.048,1.499h-0.936l-0.048-1.007h-0.036c-0.312,0.647-1.008,1.139-1.955,1.139
		c-1.403,0-2.494-1.188-2.494-2.95c-0.013-1.931,1.199-3.106,2.603-3.106c0.899,0,1.487,0.42,1.751,0.875h0.023v-3.466H510.652z
		 M509.608,163.557c0-0.132-0.012-0.312-0.048-0.444c-0.155-0.66-0.731-1.211-1.523-1.211c-1.091,0-1.738,0.959-1.738,2.231
		c0,1.175,0.588,2.146,1.715,2.146c0.708,0,1.355-0.479,1.547-1.259c0.036-0.144,0.048-0.288,0.048-0.456V163.557z"/>
	<path d="M513.006,164.289c0.024,1.427,0.924,2.015,1.991,2.015c0.756,0,1.224-0.132,1.607-0.3l0.191,0.756
		c-0.372,0.168-1.02,0.372-1.942,0.372c-1.787,0-2.854-1.188-2.854-2.938s1.031-3.118,2.723-3.118c1.906,0,2.398,1.655,2.398,2.723
		c0,0.216-0.013,0.372-0.036,0.492H513.006z M516.101,163.533c0.012-0.66-0.276-1.703-1.463-1.703c-1.08,0-1.535,0.971-1.619,1.703
		H516.101z"/>
	<path d="M518.432,163.005c0-0.684-0.013-1.271-0.049-1.811h0.924l0.048,1.151h0.036c0.264-0.78,0.911-1.271,1.619-1.271
		c0.108,0,0.191,0.012,0.288,0.024v0.996c-0.108-0.024-0.216-0.024-0.36-0.024c-0.743,0-1.271,0.552-1.415,1.343
		c-0.023,0.144-0.036,0.324-0.036,0.492v3.094h-1.055V163.005z"/>
</g>
<g>
	<path fill="#010101" d="M356.665,135.254h4.354v0.875h-3.298v2.687h3.047v0.863h-3.047v3.658h-1.056V135.254z"/>
	<path fill="#010101" d="M363.492,147.334l-1.857-5.667h0.799l0.883,2.791c0.235,0.765,0.445,1.463,0.605,2.119h0.017
		c0.159-0.656,0.387-1.37,0.647-2.11l0.958-2.799h0.782l-2.026,5.667H363.492z"/>
	<path fill="#010101" d="M368.516,140.795l-0.84,2.542h-1.079l2.747-8.083h1.259l2.759,8.083h-1.115l-0.864-2.542H368.516z
		 M371.166,139.979l-0.803-2.327c-0.168-0.527-0.289-1.007-0.408-1.475h-0.036c-0.108,0.468-0.239,0.972-0.396,1.463l-0.792,2.338
		H371.166z"/>
	<path fill="#010101" d="M375.501,143.338l-2.65-8.083h1.14l1.259,3.982c0.336,1.091,0.636,2.087,0.864,3.022h0.023
		c0.228-0.935,0.552-1.955,0.924-3.01l1.367-3.994h1.115l-2.891,8.083H375.501z"/>
	<path fill="#010101" d="M380.422,135.374c0.528-0.108,1.296-0.18,2.004-0.18c1.115,0,1.846,0.216,2.35,0.672
		c0.396,0.348,0.637,0.899,0.637,1.535c0,1.055-0.684,1.763-1.523,2.051v0.036c0.611,0.216,0.982,0.792,1.188,1.631
		c0.264,1.127,0.455,1.907,0.611,2.219h-1.08c-0.131-0.228-0.312-0.923-0.527-1.931c-0.24-1.115-0.684-1.535-1.631-1.571h-0.983
		v3.502h-1.044V135.374z M381.466,139.044h1.067c1.115,0,1.822-0.612,1.822-1.535c0-1.043-0.755-1.5-1.858-1.5
		c-0.504,0-0.852,0.048-1.031,0.096V139.044z"/>
</g>
<g>
	<path fill="#010101" d="M81.665,133.731h4.354v0.875h-3.298v2.687h3.046v0.863h-3.046v3.658h-1.056V133.731z"/>
	<path fill="#010101" d="M88.493,145.811l-1.858-5.667h0.798l0.883,2.791c0.236,0.765,0.446,1.463,0.605,2.119h0.017
		c0.16-0.656,0.387-1.37,0.647-2.11l0.958-2.799h0.782l-2.026,5.667H88.493z"/>
	<path fill="#010101" d="M92.196,133.839c0.648-0.096,1.403-0.168,2.231-0.168c1.499,0,2.566,0.336,3.274,0.996
		c0.732,0.66,1.151,1.607,1.151,2.914c0,1.319-0.419,2.399-1.163,3.143c-0.768,0.755-2.015,1.163-3.586,1.163
		c-0.756,0-1.367-0.024-1.907-0.096V133.839z M93.252,140.999c0.264,0.048,0.647,0.048,1.055,0.048
		c2.231,0.012,3.442-1.247,3.442-3.43c0.012-1.931-1.067-3.118-3.274-3.118c-0.54,0-0.947,0.048-1.223,0.108V140.999z"/>
	<path fill="#010101" d="M102.022,141.814l-2.65-8.083h1.139l1.259,3.982c0.336,1.091,0.636,2.087,0.864,3.022h0.024
		c0.228-0.935,0.552-1.955,0.923-3.01l1.367-3.994h1.116l-2.891,8.083H102.022z"/>
	<path fill="#010101" d="M106.943,133.851c0.528-0.108,1.295-0.18,2.003-0.18c1.115,0,1.847,0.216,2.351,0.672
		c0.396,0.348,0.636,0.899,0.636,1.535c0,1.055-0.684,1.763-1.523,2.051v0.036c0.612,0.216,0.983,0.792,1.188,1.631
		c0.264,1.127,0.456,1.907,0.612,2.219h-1.08c-0.132-0.228-0.312-0.923-0.528-1.931c-0.24-1.115-0.684-1.535-1.631-1.571h-0.983
		v3.502h-1.043V133.851z M107.986,137.521h1.067c1.115,0,1.823-0.612,1.823-1.535c0-1.043-0.755-1.5-1.859-1.5
		c-0.504,0-0.852,0.048-1.031,0.096V137.521z"/>
</g>
<g>
	<path d="M240.123,177.916h1.055v5.409c0,2.146-1.055,2.806-2.446,2.806c-0.396,0-0.864-0.084-1.116-0.192l0.144-0.852
		c0.216,0.084,0.528,0.156,0.888,0.156c0.935,0,1.475-0.42,1.475-2.003V177.916z"/>
	<path fill="#010101" d="M242.639,184.329h0.74v5.053h2.421v0.614h-3.162V184.329z"/>
	<path fill="#010101" d="M247.544,188.213l-0.588,1.782h-0.757l1.926-5.667h0.883l1.934,5.667h-0.782l-0.605-1.782H247.544z
		 M249.403,187.641l-0.563-1.631c-0.118-0.37-0.202-0.706-0.286-1.034h-0.025c-0.076,0.328-0.168,0.681-0.277,1.026l-0.555,1.64
		H249.403z"/>
	<path fill="#010101" d="M255.595,189.818c-0.26,0.135-0.807,0.269-1.497,0.269c-1.597,0-2.791-1.009-2.791-2.875
		c0-1.783,1.202-2.977,2.959-2.977c0.698,0,1.152,0.151,1.345,0.252l-0.185,0.597c-0.269-0.134-0.664-0.235-1.135-0.235
		c-1.329,0-2.211,0.849-2.211,2.337c0,1.396,0.799,2.278,2.169,2.278c0.454,0,0.908-0.092,1.203-0.235L255.595,189.818z"/>
</g>
<g>
	<path d="M239.795,247.629h1.055v5.409c0,2.146-1.055,2.806-2.446,2.806c-0.396,0-0.864-0.084-1.116-0.192l0.144-0.852
		c0.216,0.084,0.528,0.156,0.888,0.156c0.935,0,1.475-0.42,1.475-2.003V247.629z"/>
	<path fill="#010101" d="M246.641,259.457c-0.328,0.126-0.984,0.312-1.749,0.312c-0.858,0-1.564-0.219-2.119-0.749
		c-0.487-0.471-0.79-1.228-0.79-2.11c0-1.69,1.168-2.926,3.069-2.926c0.656,0,1.177,0.143,1.421,0.261l-0.185,0.597
		c-0.303-0.143-0.681-0.244-1.253-0.244c-1.379,0-2.278,0.857-2.278,2.278c0,1.438,0.857,2.287,2.186,2.287
		c0.479,0,0.807-0.067,0.975-0.151v-1.69h-1.143v-0.588h1.866V259.457z"/>
	<path fill="#010101" d="M247.737,254.042h0.74v5.053h2.421v0.614h-3.162V254.042z"/>
	<path fill="#010101" d="M252.141,254.042v3.363c0,1.261,0.563,1.799,1.32,1.799c0.833,0,1.379-0.555,1.379-1.799v-3.363h0.74v3.312
		c0,1.74-0.917,2.446-2.144,2.446c-1.16,0-2.035-0.656-2.035-2.421v-3.337H252.141z"/>
</g>
<g>
	<path fill="#010101" d="M548.819,255.916h1.056v5.409c0,2.146-1.056,2.806-2.447,2.806c-0.396,0-0.863-0.084-1.115-0.192
		l0.145-0.852c0.215,0.084,0.527,0.156,0.887,0.156c0.936,0,1.476-0.42,1.476-2.003V255.916z"/>
	<path fill="#010101" d="M552.588,267.995l-1.857-5.667h0.798l0.883,2.791c0.235,0.765,0.446,1.463,0.605,2.119h0.017
		c0.16-0.656,0.387-1.37,0.647-2.11l0.958-2.799h0.783l-2.027,5.667H552.588z"/>
	<path fill="#010101" d="M557.61,261.457l-0.839,2.542h-1.08l2.746-8.083h1.26l2.758,8.083h-1.115l-0.863-2.542H557.61z
		 M560.261,260.641l-0.804-2.327c-0.168-0.527-0.287-1.007-0.407-1.475h-0.036c-0.107,0.468-0.24,0.972-0.396,1.463l-0.791,2.338
		H560.261z"/>
	<path fill="#010101" d="M563.647,256.035c0.456-0.108,1.187-0.18,1.907-0.18c1.043,0,1.715,0.18,2.207,0.588
		c0.419,0.312,0.684,0.792,0.684,1.427c0,0.792-0.528,1.475-1.367,1.775v0.036c0.768,0.18,1.666,0.815,1.666,2.015
		c0,0.696-0.275,1.223-0.695,1.619c-0.552,0.516-1.463,0.755-2.782,0.755c-0.72,0-1.271-0.048-1.619-0.096V256.035z
		 M564.691,259.346h0.947c1.091,0,1.738-0.588,1.738-1.367c0-0.936-0.707-1.319-1.763-1.319c-0.479,0-0.755,0.036-0.923,0.072
		V259.346z M564.691,263.208c0.215,0.036,0.503,0.048,0.875,0.048c1.079,0,2.074-0.396,2.074-1.571c0-1.091-0.947-1.559-2.086-1.559
		h-0.863V263.208z"/>
	<path fill="#010101" d="M570.02,262.728c0.468,0.3,1.139,0.528,1.859,0.528c1.066,0,1.69-0.552,1.69-1.379
		c0-0.743-0.432-1.187-1.522-1.595c-1.32-0.48-2.136-1.176-2.136-2.303c0-1.259,1.044-2.195,2.614-2.195
		c0.816,0,1.428,0.192,1.775,0.396l-0.287,0.852c-0.252-0.156-0.792-0.384-1.523-0.384c-1.104,0-1.523,0.66-1.523,1.211
		c0,0.755,0.492,1.127,1.607,1.559c1.367,0.54,2.051,1.188,2.051,2.375c0,1.248-0.912,2.339-2.818,2.339
		c-0.779,0-1.631-0.24-2.062-0.528L570.02,262.728z"/>
</g>
<g>
	<path fill="#010101" d="M220.665,328.73h4.354v0.875h-3.298v2.687h3.046v0.863h-3.046v3.658h-1.056V328.73z"/>
	<path fill="#010101" d="M226.98,335.143v5.667h-0.74v-5.667H226.98z"/>
	<path fill="#010101" d="M228.397,335.542c0.467,0.3,1.139,0.528,1.859,0.528c1.067,0,1.691-0.552,1.691-1.379
		c0-0.743-0.432-1.187-1.523-1.595c-1.319-0.48-2.135-1.176-2.135-2.303c0-1.259,1.043-2.195,2.614-2.195
		c0.815,0,1.427,0.192,1.775,0.396l-0.288,0.852c-0.252-0.156-0.792-0.384-1.523-0.384c-1.103,0-1.523,0.66-1.523,1.211
		c0,0.755,0.492,1.127,1.607,1.559c1.367,0.54,2.051,1.188,2.051,2.375c0,1.248-0.912,2.339-2.819,2.339
		c-0.779,0-1.631-0.24-2.062-0.528L228.397,335.542z"/>
	<path fill="#010101" d="M235.488,328.73v3.382h3.91v-3.382h1.056v8.083h-1.056v-3.79h-3.91v3.79h-1.056v-8.083H235.488z"/>
	<path fill="#010101" d="M244.511,328.49c-0.875,1.187-1.499,2.734-1.499,4.917c0,2.135,0.66,3.658,1.499,4.857h-0.815
		c-0.756-0.996-1.571-2.531-1.571-4.869c0.012-2.351,0.815-3.898,1.571-4.905H244.511z"/>
	<path fill="#010101" d="M246.132,331.009l0.828,1.235c0.216,0.335,0.396,0.624,0.588,0.947h0.036
		c0.192-0.336,0.384-0.636,0.588-0.947l0.803-1.235h1.151l-1.979,2.806l2.027,2.999h-1.2l-0.852-1.307
		c-0.228-0.336-0.419-0.66-0.624-1.008h-0.024c-0.192,0.348-0.396,0.66-0.612,1.008l-0.839,1.307h-1.163l2.062-2.962l-1.967-2.842
		H246.132z"/>
	<path fill="#010101" d="M250.561,338.265c0.84-1.188,1.5-2.734,1.5-4.893c0-2.159-0.648-3.682-1.5-4.881h0.815
		c0.756,0.983,1.571,2.53,1.571,4.881c-0.012,2.351-0.815,3.874-1.571,4.893H250.561z"/>
</g>
<g>
	<path d="M18.337,166.831l-1.043-1.787c-0.419-0.684-0.671-1.127-0.923-1.595h-0.024c-0.228,0.468-0.468,0.9-0.875,1.607
		l-0.972,1.775H13.3l2.471-4.09l-2.375-3.994h1.211l1.067,1.895c0.3,0.527,0.528,0.936,0.744,1.367h0.036
		c0.228-0.48,0.432-0.852,0.731-1.367l1.092-1.895h1.211l-2.458,3.934l2.519,4.15H18.337z"/>
	<path d="M20.332,162.789v-0.719h6.188v0.719H20.332z M20.332,165.14v-0.72h6.188v0.72H20.332z"/>
	<path d="M32.737,162.849c0,2.651-0.996,4.114-2.71,4.114c-1.523,0-2.567-1.427-2.591-4.006c0-2.626,1.14-4.054,2.723-4.054
		C31.789,158.903,32.737,160.367,32.737,162.849z M28.503,162.969c0,2.027,0.624,3.178,1.583,3.178c1.067,0,1.583-1.259,1.583-3.25
		c0-1.919-0.48-3.179-1.583-3.179C29.175,159.719,28.503,160.846,28.503,162.969z"/>
</g>
<g>
	<path d="M6.565,661.182h1.056v7.209h3.454v0.875h-4.51V661.182z"/>
	<path d="M11.81,665.224v-0.72h6.189v0.72H11.81z M11.81,667.574v-0.719h6.189v0.719H11.81z"/>
	<path d="M22.284,669.266v-2.135h-3.622v-0.684l3.479-4.978h1.139v4.846h1.091v0.815h-1.091v2.135H22.284z M22.284,666.315v-2.603
		c0-0.408,0.012-0.816,0.036-1.224h-0.036c-0.24,0.456-0.432,0.792-0.647,1.151l-1.907,2.65v0.024H22.284z"/>
	<path d="M25.513,665.031c0-0.611-0.024-1.091-0.048-1.57h0.923l0.048,0.947h0.036c0.324-0.552,0.864-1.067,1.835-1.067
		c0.78,0,1.379,0.479,1.631,1.163h0.024c0.18-0.336,0.419-0.575,0.66-0.756c0.348-0.264,0.719-0.407,1.271-0.407
		c0.78,0,1.919,0.504,1.919,2.519v3.406h-1.031v-3.274c0-1.127-0.42-1.786-1.259-1.786c-0.612,0-1.067,0.443-1.259,0.947
		c-0.048,0.155-0.084,0.336-0.084,0.527v3.586h-1.031v-3.479c0-0.923-0.408-1.582-1.211-1.582c-0.648,0-1.14,0.527-1.308,1.055
		c-0.06,0.145-0.084,0.336-0.084,0.516v3.49h-1.031V665.031z"/>
	<path d="M35.521,665.031c0-0.611-0.024-1.091-0.048-1.57h0.923l0.048,0.947h0.036c0.324-0.552,0.864-1.067,1.835-1.067
		c0.78,0,1.379,0.479,1.631,1.163h0.024c0.18-0.336,0.419-0.575,0.66-0.756c0.348-0.264,0.719-0.407,1.271-0.407
		c0.78,0,1.919,0.504,1.919,2.519v3.406h-1.031v-3.274c0-1.127-0.42-1.786-1.259-1.786c-0.612,0-1.067,0.443-1.259,0.947
		c-0.048,0.155-0.084,0.336-0.084,0.527v3.586h-1.031v-3.479c0-0.923-0.408-1.582-1.211-1.582c-0.648,0-1.14,0.527-1.308,1.055
		c-0.06,0.145-0.084,0.336-0.084,0.516v3.49h-1.031V665.031z"/>
	<path d="M19.392,675.342c-0.875,1.188-1.499,2.734-1.499,4.918c0,2.135,0.66,3.658,1.499,4.857h-0.815
		c-0.756-0.996-1.571-2.531-1.571-4.869c0.012-2.352,0.815-3.898,1.571-4.906H19.392z"/>
	<path d="M20.521,679.672c0-0.684-0.012-1.271-0.048-1.811h0.923l0.048,1.15h0.036c0.264-0.779,0.912-1.271,1.619-1.271
		c0.108,0,0.192,0.013,0.288,0.024v0.995c-0.108-0.023-0.216-0.023-0.36-0.023c-0.744,0-1.271,0.552-1.416,1.344
		c-0.024,0.144-0.036,0.323-0.036,0.491v3.095h-1.056V679.672z"/>
	<path d="M28.463,682.274c0,0.503,0.024,0.995,0.084,1.392H27.6l-0.084-0.732h-0.036c-0.324,0.456-0.947,0.863-1.775,0.863
		c-1.175,0-1.775-0.827-1.775-1.666c0-1.404,1.247-2.172,3.49-2.159v-0.12c0-0.468-0.132-1.344-1.319-1.331
		c-0.552,0-1.116,0.155-1.523,0.432l-0.24-0.708c0.479-0.299,1.187-0.504,1.919-0.504c1.775,0,2.207,1.212,2.207,2.363V682.274z
		 M27.443,680.703c-1.151-0.023-2.458,0.18-2.458,1.307c0,0.696,0.456,1.008,0.983,1.008c0.768,0,1.259-0.479,1.427-0.971
		c0.036-0.121,0.048-0.24,0.048-0.336V680.703z"/>
	<path d="M31.393,676.47v1.392h1.511v0.803h-1.511v3.131c0,0.719,0.204,1.127,0.792,1.127c0.288,0,0.456-0.023,0.612-0.072
		l0.048,0.804c-0.204,0.072-0.528,0.144-0.936,0.144c-0.492,0-0.888-0.168-1.14-0.443c-0.288-0.324-0.408-0.84-0.408-1.523v-3.166
		h-0.899v-0.803h0.899v-1.08L31.393,676.47z"/>
	<path d="M33.458,685.117c0.84-1.188,1.5-2.734,1.5-4.894s-0.648-3.683-1.5-4.882h0.816c0.755,0.984,1.571,2.531,1.571,4.882
		c-0.012,2.351-0.815,3.886-1.571,4.894H33.458z"/>
</g>
<g>
	<g>
		<path fill="#010101" d="M27.464,21.372v8.083h-1.056v-8.083H27.464z"/>
		<path fill="#010101" d="M29.252,25.221c0-0.611-0.012-1.091-0.048-1.571h0.936l0.06,0.947h0.024
			c0.288-0.54,0.959-1.079,1.919-1.079c0.803,0,2.051,0.479,2.051,2.47v3.466h-1.056v-3.346c0-0.936-0.348-1.727-1.343-1.727
			c-0.684,0-1.223,0.492-1.415,1.08c-0.048,0.132-0.072,0.324-0.072,0.492v3.502h-1.056V25.221z"/>
		<path fill="#010101" d="M36.008,29.455v-5.001h-0.804V23.65h0.804v-0.276c0-0.815,0.192-1.559,0.684-2.027
			c0.396-0.384,0.923-0.54,1.403-0.54c0.384,0,0.696,0.084,0.9,0.168l-0.132,0.816c-0.167-0.072-0.372-0.132-0.684-0.132
			c-0.887,0-1.127,0.792-1.127,1.679v0.312h1.403v0.803h-1.391v5.001H36.008z"/>
		<path fill="#010101" d="M39.416,20.94h1.056v8.515h-1.056V20.94z"/>
		<path fill="#010101" d="M44.587,29.587c-1.559,0-2.783-1.151-2.783-2.986c0-1.943,1.284-3.082,2.878-3.082
			c1.667,0,2.794,1.211,2.794,2.974c0,2.159-1.499,3.094-2.878,3.094H44.587z M44.623,28.795c1.007,0,1.763-0.947,1.763-2.267
			c0-0.983-0.492-2.219-1.739-2.219c-1.235,0-1.775,1.151-1.775,2.254c0,1.271,0.72,2.231,1.739,2.231H44.623z"/>
		<path fill="#010101" d="M49.15,23.65l0.779,2.938c0.156,0.647,0.312,1.259,0.42,1.859h0.036c0.132-0.588,0.324-1.211,0.516-1.847
			l0.947-2.95h0.888l0.899,2.902c0.216,0.684,0.384,1.307,0.516,1.895h0.036c0.096-0.588,0.252-1.2,0.444-1.883l0.828-2.914h1.043
			l-1.871,5.805h-0.959l-0.888-2.771c-0.204-0.66-0.372-1.235-0.516-1.919h-0.024c-0.144,0.696-0.324,1.307-0.528,1.931
			l-0.936,2.758h-0.959L48.07,23.65H49.15z"/>
		<path fill="#010101" d="M57.395,28.388c0.324,0.192,0.875,0.408,1.403,0.408c0.756,0,1.115-0.372,1.115-0.863
			c0-0.504-0.3-0.78-1.067-1.068c-1.055-0.384-1.547-0.947-1.547-1.643c0-0.935,0.768-1.703,2.003-1.703
			c0.587,0,1.104,0.156,1.415,0.359l-0.252,0.756c-0.228-0.132-0.647-0.336-1.187-0.336c-0.624,0-0.959,0.36-0.959,0.792
			c0,0.492,0.335,0.708,1.091,0.996c0.996,0.372,1.523,0.875,1.523,1.751c0,1.031-0.803,1.751-2.159,1.751
			c-0.636,0-1.223-0.168-1.631-0.408L57.395,28.388z"/>
		<path fill="#010101" d="M62.734,29.587c-0.408,0-0.696-0.324-0.696-0.744c0-0.444,0.3-0.755,0.708-0.755
			c0.432,0,0.708,0.312,0.708,0.755c0,0.42-0.276,0.744-0.708,0.744H62.734z M62.746,25.354c-0.408,0-0.695-0.324-0.695-0.744
			c0-0.444,0.3-0.756,0.708-0.756c0.432,0,0.708,0.312,0.708,0.756c0,0.419-0.276,0.744-0.708,0.744H62.746z"/>
		<path fill="#010101" d="M62.408,35.771h4.354v0.875h-3.298v2.687h3.046v0.863h-3.046v3.658h-1.056V35.771z"/>
		<path fill="#010101" d="M69.236,47.851l-1.858-5.667h0.798l0.883,2.791c0.236,0.765,0.446,1.463,0.605,2.119h0.017
			c0.16-0.656,0.387-1.37,0.647-2.11l0.958-2.799h0.782l-2.026,5.667H69.236z"/>
		<path fill="#010101" d="M72.939,35.879c0.648-0.096,1.403-0.168,2.231-0.168c1.499,0,2.566,0.336,3.274,0.996
			c0.732,0.66,1.151,1.607,1.151,2.914c0,1.319-0.419,2.399-1.163,3.143c-0.768,0.755-2.015,1.163-3.586,1.163
			c-0.756,0-1.368-0.024-1.907-0.096V35.879z M73.995,43.04c0.264,0.048,0.647,0.048,1.055,0.048
			c2.231,0.012,3.442-1.248,3.442-3.43c0.012-1.931-1.067-3.118-3.274-3.118c-0.54,0-0.947,0.048-1.223,0.108V43.04z"/>
		<path fill="#010101" d="M82.765,43.855l-2.65-8.083h1.139l1.259,3.982c0.336,1.091,0.636,2.086,0.864,3.022H83.4
			c0.228-0.936,0.552-1.955,0.923-3.01l1.367-3.994h1.116l-2.891,8.083H82.765z"/>
		<path fill="#010101" d="M87.686,35.892c0.527-0.108,1.295-0.18,2.003-0.18c1.115,0,1.847,0.216,2.351,0.672
			c0.396,0.348,0.636,0.899,0.636,1.535c0,1.055-0.684,1.763-1.523,2.051v0.036c0.612,0.216,0.983,0.792,1.188,1.631
			c0.264,1.127,0.456,1.907,0.612,2.219h-1.08c-0.132-0.228-0.312-0.923-0.528-1.931c-0.24-1.115-0.684-1.535-1.631-1.571h-0.983
			v3.502h-1.043V35.892z M88.729,39.562h1.067c1.115,0,1.823-0.612,1.823-1.535c0-1.043-0.755-1.5-1.859-1.5
			c-0.504,0-0.852,0.048-1.031,0.096V39.562z"/>
		<path fill="#010101" d="M94.549,43.987c-0.408,0-0.696-0.324-0.696-0.744c0-0.443,0.3-0.755,0.708-0.755
			c0.432,0,0.708,0.312,0.708,0.755c0,0.42-0.276,0.744-0.708,0.744H94.549z M94.561,39.753c-0.408,0-0.695-0.324-0.695-0.744
			c0-0.444,0.3-0.756,0.708-0.756c0.432,0,0.708,0.312,0.708,0.756c0,0.419-0.276,0.744-0.708,0.744H94.561z"/>
		<path fill="#010101" d="M98.3,42.656c0.3,0.18,0.983,0.479,1.727,0.479c1.343,0,1.775-0.852,1.763-1.511
			c-0.012-1.091-0.996-1.559-2.015-1.559h-0.587v-0.792h0.587c0.768,0,1.739-0.396,1.739-1.319c0-0.624-0.396-1.175-1.367-1.175
			c-0.624,0-1.224,0.276-1.559,0.516L98.3,36.527c0.42-0.3,1.211-0.6,2.051-0.6c1.535,0,2.231,0.912,2.231,1.859
			c0,0.816-0.492,1.5-1.439,1.847v0.024c0.959,0.18,1.739,0.899,1.739,1.991c0,1.247-0.983,2.338-2.842,2.338
			c-0.875,0-1.643-0.276-2.027-0.528L98.3,42.656z"/>
		<path fill="#010101" d="M104.983,43.987c-0.408,0-0.696-0.324-0.696-0.755s0.3-0.756,0.72-0.756s0.708,0.312,0.708,0.756
			c0,0.432-0.288,0.755-0.72,0.755H104.983z"/>
		<path fill="#010101" d="M111.749,36.059v0.696l-3.395,7.1h-1.079l3.37-6.896v-0.024h-3.814v-0.875H111.749z"/>
		<path fill="#010101" d="M117.497,36.947h-2.975l-0.3,1.979c0.18-0.024,0.348-0.048,0.636-0.048c0.611,0,1.199,0.132,1.679,0.419
			c0.611,0.336,1.115,1.02,1.115,2.027c0,1.523-1.211,2.663-2.902,2.663c-0.852,0-1.559-0.24-1.943-0.479l0.264-0.804
			c0.324,0.192,0.959,0.432,1.679,0.432c0.983,0,1.847-0.647,1.835-1.703c0-1.031-0.684-1.739-2.231-1.739
			c-0.456,0-0.804,0.036-1.091,0.084l0.504-3.718h3.73V36.947z"/>
		<path fill="#010101" d="M121.879,39.621c0-0.611-0.012-1.091-0.048-1.571h0.936l0.06,0.947h0.024
			c0.288-0.54,0.959-1.079,1.919-1.079c0.803,0,2.051,0.479,2.051,2.47v3.466h-1.056v-3.346c0-0.936-0.348-1.727-1.343-1.727
			c-0.684,0-1.223,0.492-1.415,1.08c-0.048,0.132-0.072,0.324-0.072,0.492v3.502h-1.056V39.621z"/>
		<path fill="#010101" d="M128.539,35.34h1.056v8.515h-1.056V35.34z"/>
		<path fill="#010101" d="M130.459,44.335l3.334-8.695h0.828l-3.358,8.695H130.459z"/>
		<path fill="#010101" d="M138.007,39.621c0-0.611-0.024-1.091-0.048-1.571h0.923l0.048,0.936h0.036
			c0.324-0.552,0.864-1.067,1.835-1.067c0.78,0,1.379,0.479,1.631,1.163h0.024c0.18-0.336,0.419-0.576,0.66-0.755
			c0.348-0.264,0.719-0.408,1.271-0.408c0.78,0,1.919,0.503,1.919,2.519v3.418h-1.031v-3.286c0-1.127-0.42-1.787-1.259-1.787
			c-0.612,0-1.067,0.444-1.259,0.948c-0.048,0.156-0.084,0.348-0.084,0.527v3.598h-1.032v-3.478c0-0.936-0.408-1.595-1.211-1.595
			c-0.648,0-1.14,0.528-1.308,1.056c-0.06,0.156-0.084,0.335-0.084,0.516v3.502h-1.031V39.621z"/>
		<path fill="#010101" d="M148.519,36.983c-0.396,0-0.66-0.312-0.66-0.684c0-0.372,0.276-0.672,0.684-0.672s0.671,0.3,0.671,0.672
			c0,0.372-0.264,0.684-0.684,0.684H148.519z M148.015,43.855V38.05h1.056v5.805H148.015z"/>
		<path fill="#010101" d="M150.823,39.621c0-0.611-0.012-1.091-0.048-1.571h0.936l0.06,0.947h0.024
			c0.288-0.54,0.959-1.079,1.919-1.079c0.803,0,2.051,0.479,2.051,2.47v3.466h-1.056v-3.346c0-0.936-0.348-1.727-1.343-1.727
			c-0.684,0-1.223,0.492-1.415,1.08c-0.048,0.132-0.072,0.324-0.072,0.492v3.502h-1.056V39.621z"/>
		<path fill="#010101" d="M156.595,44.335l3.334-8.695h0.828l-3.358,8.695H156.595z"/>
		<path fill="#010101" d="M165.414,36.659v1.391h1.511v0.803h-1.511v3.13c0,0.72,0.204,1.127,0.792,1.127
			c0.288,0,0.456-0.024,0.611-0.072l0.048,0.803c-0.204,0.072-0.528,0.144-0.936,0.144c-0.492,0-0.888-0.168-1.14-0.444
			c-0.288-0.324-0.408-0.839-0.408-1.523v-3.167h-0.899V38.05h0.899v-1.067L165.414,36.659z"/>
		<path fill="#010101" d="M172.972,42.272c0,0.6,0.012,1.127,0.048,1.583h-0.936l-0.06-0.947H172
			c-0.264,0.467-0.887,1.079-1.919,1.079c-0.911,0-2.003-0.516-2.003-2.542V38.05h1.056v3.202c0,1.104,0.348,1.859,1.295,1.859
			c0.708,0,1.199-0.492,1.391-0.971c0.06-0.144,0.096-0.336,0.096-0.54v-3.55h1.056V42.272z"/>
		<path fill="#010101" d="M174.726,35.34h1.056v3.634h0.024c0.372-0.647,1.043-1.055,1.979-1.055c1.439,0,2.447,1.199,2.447,2.95
			c0,2.087-1.319,3.118-2.614,3.118c-0.84,0-1.5-0.324-1.943-1.091h-0.024l-0.06,0.959h-0.912c0.036-0.396,0.048-0.983,0.048-1.499
			V35.34z M175.782,41.528c0,0.132,0.012,0.264,0.036,0.384c0.204,0.731,0.828,1.235,1.583,1.235c1.116,0,1.763-0.899,1.763-2.231
			c0-1.175-0.6-2.171-1.727-2.171c-0.72,0-1.391,0.504-1.595,1.295c-0.036,0.132-0.06,0.276-0.06,0.444V41.528z"/>
		<path fill="#010101" d="M182.165,41.132c0.024,1.427,0.924,2.015,1.979,2.015c0.755,0,1.223-0.132,1.607-0.288l0.192,0.744
			c-0.372,0.168-1.019,0.372-1.943,0.372c-1.775,0-2.854-1.188-2.854-2.927c0-1.763,1.043-3.142,2.735-3.142
			c1.895,0,2.387,1.667,2.387,2.734c0,0.216-0.012,0.384-0.036,0.504L182.165,41.132z M185.248,40.377
			c0.012-0.66-0.276-1.715-1.451-1.715c-1.08,0-1.535,0.984-1.619,1.715H185.248z"/>
		<path fill="#010101" d="M68.057,58.003c-0.372,0.192-1.151,0.384-2.135,0.384c-2.279,0-3.982-1.439-3.982-4.102
			c0-2.542,1.715-4.246,4.222-4.246c0.996,0,1.643,0.216,1.919,0.36l-0.264,0.852c-0.384-0.192-0.948-0.336-1.619-0.336
			c-1.895,0-3.154,1.211-3.154,3.334c0,1.991,1.139,3.25,3.094,3.25c0.648,0,1.295-0.132,1.715-0.336L68.057,58.003z"/>
		<path fill="#010101" d="M73.429,61.999c-0.328,0.126-0.984,0.312-1.749,0.312c-0.858,0-1.564-0.219-2.119-0.749
			c-0.487-0.471-0.79-1.228-0.79-2.11c0-1.69,1.168-2.926,3.069-2.926c0.656,0,1.177,0.143,1.421,0.261l-0.185,0.597
			c-0.303-0.143-0.681-0.244-1.253-0.244c-1.379,0-2.278,0.857-2.278,2.278c0,1.438,0.857,2.287,2.186,2.287
			c0.479,0,0.807-0.067,0.975-0.151v-1.69h-1.144v-0.588h1.867V61.999z"/>
		<path fill="#010101" d="M74.525,56.584h0.74v5.053h2.421v0.614h-3.162V56.584z"/>
		<path fill="#010101" d="M78.929,56.584v3.363c0,1.261,0.563,1.799,1.32,1.799c0.833,0,1.379-0.555,1.379-1.799v-3.363h0.74v3.312
			c0,1.74-0.917,2.446-2.144,2.446c-1.16,0-2.035-0.656-2.035-2.421v-3.337H78.929z"/>
		<path fill="#010101" d="M86.093,58.387c-0.408,0-0.696-0.324-0.696-0.744c0-0.444,0.3-0.755,0.708-0.755
			c0.432,0,0.708,0.312,0.708,0.755c0,0.42-0.276,0.744-0.708,0.744H86.093z M86.105,54.153c-0.408,0-0.695-0.324-0.695-0.744
			c0-0.444,0.3-0.756,0.708-0.756c0.432,0,0.708,0.312,0.708,0.756c0,0.419-0.276,0.744-0.708,0.744H86.105z"/>
		<path fill="#010101" d="M100.34,51.442h-0.024l-1.355,0.732l-0.204-0.804l1.703-0.912h0.9v7.796h-1.02V51.442z"/>
		<path fill="#010101" d="M106.688,58.387c-1.523,0-2.567-1.427-2.591-4.006c0-2.626,1.14-4.054,2.723-4.054
			c1.631,0,2.579,1.463,2.579,3.946c0,2.651-0.996,4.114-2.699,4.114H106.688z M106.735,57.571c1.067,0,1.583-1.259,1.583-3.25
			c0-1.919-0.479-3.179-1.583-3.179c-0.959,0-1.583,1.224-1.583,3.179c-0.024,2.027,0.6,3.25,1.571,3.25H106.735z"/>
		<path fill="#010101" d="M110.696,54.021c0-0.611-0.024-1.091-0.048-1.571h0.923l0.048,0.936h0.036
			c0.324-0.552,0.864-1.067,1.835-1.067c0.78,0,1.379,0.479,1.631,1.163h0.024c0.18-0.336,0.419-0.576,0.66-0.755
			c0.348-0.264,0.719-0.408,1.271-0.408c0.78,0,1.919,0.503,1.919,2.519v3.418h-1.031v-3.286c0-1.127-0.42-1.787-1.259-1.787
			c-0.612,0-1.067,0.444-1.259,0.947c-0.048,0.156-0.084,0.348-0.084,0.528v3.598h-1.032v-3.478c0-0.936-0.408-1.595-1.211-1.595
			c-0.648,0-1.14,0.528-1.308,1.056c-0.06,0.156-0.084,0.335-0.084,0.516v3.502h-1.031V54.021z"/>
		<path fill="#010101" d="M127.552,54.705c-0.06-1.127-0.132-2.495-0.132-3.49h-0.024c-0.288,0.936-0.612,1.955-1.02,3.07
			l-1.427,3.922h-0.792l-1.319-3.85c-0.384-1.151-0.695-2.183-0.923-3.142h-0.024c-0.024,1.007-0.084,2.351-0.156,3.574
			l-0.216,3.466h-0.995l0.563-8.083h1.331l1.379,3.91c0.336,0.996,0.6,1.883,0.815,2.723h0.024c0.216-0.815,0.503-1.703,0.863-2.723
			l1.439-3.91h1.331l0.504,8.083h-1.032L127.552,54.705z"/>
		<path fill="#010101" d="M68.057,72.403c-0.372,0.192-1.151,0.384-2.135,0.384c-2.279,0-3.982-1.439-3.982-4.102
			c0-2.542,1.715-4.246,4.222-4.246c0.996,0,1.643,0.216,1.919,0.36l-0.264,0.852c-0.384-0.192-0.948-0.336-1.619-0.336
			c-1.895,0-3.154,1.211-3.154,3.334c0,1.991,1.139,3.25,3.094,3.25c0.648,0,1.295-0.132,1.715-0.336L68.057,72.403z"/>
		<path fill="#010101" d="M69.099,70.984h0.74v5.053h2.421v0.614h-3.162V70.984z"/>
		<path fill="#010101" d="M74.005,74.869l-0.588,1.782H72.66l1.926-5.667h0.883l1.934,5.667H76.62l-0.605-1.782H74.005z
			 M75.864,74.297L75.3,72.666c-0.118-0.37-0.202-0.706-0.286-1.034h-0.025c-0.076,0.328-0.168,0.681-0.277,1.026l-0.555,1.64
			H75.864z"/>
		<path fill="#010101" d="M82.056,76.474c-0.26,0.135-0.807,0.269-1.496,0.269c-1.598,0-2.792-1.009-2.792-2.875
			c0-1.783,1.202-2.977,2.959-2.977c0.698,0,1.152,0.151,1.345,0.252l-0.185,0.597c-0.269-0.134-0.664-0.235-1.135-0.235
			c-1.329,0-2.211,0.849-2.211,2.337c0,1.396,0.799,2.278,2.169,2.278c0.454,0,0.908-0.092,1.203-0.235L82.056,76.474z"/>
		<path fill="#010101" d="M85.438,72.787c-0.408,0-0.696-0.324-0.696-0.744c0-0.444,0.3-0.755,0.708-0.755
			c0.432,0,0.708,0.312,0.708,0.755c0,0.42-0.276,0.744-0.708,0.744H85.438z M85.449,68.554c-0.408,0-0.695-0.324-0.695-0.744
			c0-0.444,0.3-0.756,0.708-0.756c0.432,0,0.708,0.312,0.708,0.756c0,0.419-0.276,0.744-0.708,0.744H85.449z"/>
		<path fill="#010101" d="M98.049,72.655v-0.647l0.828-0.804c1.991-1.895,2.902-2.902,2.902-4.078c0-0.792-0.372-1.523-1.535-1.523
			c-0.708,0-1.295,0.36-1.655,0.66l-0.336-0.744c0.528-0.444,1.307-0.792,2.207-0.792c1.667,0,2.375,1.151,2.375,2.267
			c0,1.439-1.043,2.603-2.687,4.186l-0.612,0.576v0.024h3.49v0.875H98.049z"/>
		<path fill="#010101" d="M104.541,68.421c0-0.611-0.024-1.091-0.048-1.571h0.923l0.048,0.936h0.036
			c0.324-0.552,0.864-1.067,1.835-1.067c0.78,0,1.379,0.479,1.631,1.163h0.024c0.18-0.336,0.419-0.576,0.66-0.755
			c0.348-0.264,0.719-0.408,1.271-0.408c0.78,0,1.919,0.503,1.919,2.519v3.418h-1.031v-3.286c0-1.127-0.42-1.787-1.259-1.787
			c-0.612,0-1.067,0.444-1.259,0.947c-0.048,0.156-0.084,0.348-0.084,0.528v3.598h-1.031v-3.478c0-0.936-0.408-1.595-1.211-1.595
			c-0.648,0-1.14,0.528-1.308,1.056c-0.06,0.156-0.084,0.335-0.084,0.516v3.502h-1.031V68.421z"/>
		<path fill="#010101" d="M121.396,69.105c-0.06-1.127-0.132-2.495-0.132-3.49h-0.024c-0.288,0.936-0.612,1.955-1.02,3.07
			l-1.427,3.922h-0.792l-1.319-3.85c-0.384-1.151-0.695-2.183-0.923-3.142h-0.024c-0.024,1.007-0.084,2.351-0.156,3.574
			l-0.216,3.466h-0.995l0.563-8.083h1.332l1.379,3.91c0.336,0.996,0.6,1.883,0.815,2.723h0.024c0.216-0.815,0.503-1.703,0.863-2.723
			l1.439-3.91h1.331l0.504,8.083h-1.032L121.396,69.105z"/>
	</g>
	<path fill="none" stroke="#000000" d="M192.431,72.728c0,5.342-4.562,9.673-10.19,9.673H27.89c-5.628,0-10.19-4.331-10.19-9.673
		V20.334c0-5.342,4.562-9.673,10.19-9.673h154.352c5.627,0,10.19,4.331,10.19,9.673V72.728z"/>
</g>
<g>
	<g>
		<line fill="none" stroke="#000000" x1="96.626" y1="82.4" x2="96.626" y2="119.999"/>
		<polygon points="92.923,117.19 96.626,118.763 100.331,117.19 96.626,125.968 		"/>
	</g>
</g>
</svg>
