<?xml version="1.0" encoding="UTF-8" standalone="no"?>
<!DOCTYPE svg PUBLIC "-//W3C//DTD SVG 1.1//EN"
 "http://www.w3.org/Graphics/SVG/1.1/DTD/svg11.dtd">
<!-- Generated by graphviz version 2.24.0 (20090616.2323)
 -->
<!-- Title: G Pages: 1 -->
<svg width="1152pt" height="246pt"
 viewBox="0.00 0.00 1152.00 246.00" xmlns="http://www.w3.org/2000/svg" xmlns:xlink="http://www.w3.org/1999/xlink">
<g id="graph1" class="graph" transform="scale(1 1) rotate(0) translate(4 242)">
<title>G</title>
<polygon fill="white" stroke="white" points="-4,5 -4,-242 1149,-242 1149,5 -4,5"/>
<!-- RuBP -->
<g id="node1" class="node"><title>RuBP</title>
<ellipse fill="none" stroke="black" cx="37" cy="-215" rx="18" ry="18"/>
<text text-anchor="middle" x="37" y="-212.5" font-family="Times Roman,serif" font-size="10.00">RuBP</text>
</g>
<!-- RuBisCO_intermediate_r -->
<g id="node13" class="node"><title>RuBisCO_intermediate_r</title>
<ellipse fill="black" stroke="black" cx="111" cy="-154" rx="0.036" ry="0.036"/>
</g>
<!-- RuBP&#45;&gt;RuBisCO_intermediate_r -->
<g id="edge6" class="edge"><title>RuBP&#45;&gt;RuBisCO_intermediate_r</title>
<path fill="none" stroke="black" d="M50.9188,-203.526C71.685,-186.408 108.601,-155.977 110.888,-154.092"/>
</g>
<!-- PGA -->
<g id="node2" class="node"><title>PGA</title>
<ellipse fill="none" stroke="black" cx="298" cy="-135" rx="18" ry="18"/>
<text text-anchor="middle" x="298" y="-132.5" font-family="Times Roman,serif" font-size="10.00">PGA</text>
</g>
<!-- PGA_red_intermediate_r -->
<g id="node24" class="node"><title>PGA_red_intermediate_r</title>
<ellipse fill="black" stroke="black" cx="353" cy="-134" rx="0.036" ry="0.036"/>
</g>
<!-- PGA&#45;&gt;PGA_red_intermediate_r -->
<g id="edge18" class="edge"><title>PGA&#45;&gt;PGA_red_intermediate_r</title>
<path fill="none" stroke="black" d="M326.237,-134.487C339.207,-134.251 351.958,-134.019 352.939,-134.001"/>
<polygon fill="black" stroke="black" points="325.944,-130.991 316.009,-134.673 326.071,-137.99 325.944,-130.991"/>
</g>
<!-- TP -->
<g id="node3" class="node"><title>TP</title>
<ellipse fill="none" stroke="black" cx="505" cy="-180" rx="27" ry="18"/>
<text text-anchor="middle" x="505" y="-177.5" font-family="Times Roman,serif" font-size="10.00">TP</text>
</g>
<!-- TP_red_intermediate_r -->
<g id="node34" class="node"><title>TP_red_intermediate_r</title>
<ellipse fill="black" stroke="black" cx="569" cy="-180" rx="0.036" ry="0.036"/>
</g>
<!-- TP&#45;&gt;TP_red_intermediate_r -->
<g id="edge32" class="edge"><title>TP&#45;&gt;TP_red_intermediate_r</title>
<path fill="none" stroke="black" d="M532.142,-180C549.04,-180 567.788,-180 568.944,-180"/>
</g>
<!-- TPT_intermediate_r -->
<g id="node54" class="node"><title>TPT_intermediate_r</title>
<ellipse fill="black" stroke="black" cx="569" cy="-94" rx="0.036" ry="0.036"/>
</g>
<!-- TP&#45;&gt;TPT_intermediate_r -->
<g id="edge58" class="edge"><title>TP&#45;&gt;TPT_intermediate_r</title>
<path fill="none" stroke="black" d="M523.135,-155.631C541.399,-131.088 567.134,-96.5071 568.904,-94.1296"/>
<polygon fill="black" stroke="black" points="520.2,-153.712 517.038,-163.824 525.816,-157.891 520.2,-153.712"/>
</g>
<!-- Ru5P -->
<g id="node4" class="node"><title>Ru5P</title>
<ellipse fill="none" stroke="black" cx="721" cy="-192" rx="18" ry="18"/>
<text text-anchor="middle" x="721" y="-189.5" font-family="Times Roman,serif" font-size="10.00">Ru5P</text>
</g>
<!-- RuBP_reg_intermediate_r -->
<g id="node42" class="node"><title>RuBP_reg_intermediate_r</title>
<ellipse fill="black" stroke="black" cx="785" cy="-192" rx="0.036" ry="0.036"/>
</g>
<!-- Ru5P&#45;&gt;RuBP_reg_intermediate_r -->
<g id="edge42" class="edge"><title>Ru5P&#45;&gt;RuBP_reg_intermediate_r</title>
<path fill="none" stroke="black" d="M739.169,-192C757.499,-192 783.326,-192 784.922,-192"/>
</g>
<!-- Pi -->
<g id="node5" class="node"><title>Pi</title>
<ellipse fill="none" stroke="black" cx="721" cy="-138" rx="18" ry="18"/>
<text text-anchor="middle" x="721" y="-135.5" font-family="Times Roman,serif" font-size="10.00">Pi</text>
</g>
<!-- RuBP_reg_intermediate_m -->
<g id="node50" class="node"><title>RuBP_reg_intermediate_m</title>
<ellipse fill="black" stroke="black" cx="873" cy="-138" rx="0.036" ry="0.036"/>
</g>
<!-- Pi&#45;&gt;RuBP_reg_intermediate_m -->
<g id="edge54" class="edge"><title>Pi&#45;&gt;RuBP_reg_intermediate_m</title>
<path fill="none" stroke="black" d="M739.033,-138C778.667,-138 870.085,-138 872.932,-138"/>
</g>
<!-- ATP_S_intermediate_r -->
<g id="node63" class="node"><title>ATP_S_intermediate_r</title>
<ellipse fill="black" stroke="black" cx="983" cy="-69" rx="0.036" ry="0.036"/>
</g>
<!-- Pi&#45;&gt;ATP_S_intermediate_r -->
<g id="edge72" class="edge"><title>Pi&#45;&gt;ATP_S_intermediate_r</title>
<path fill="none" stroke="black" d="M735.54,-127.331C755.535,-113.742 793.131,-92 829,-92 829,-92 829,-92 873,-92 922.166,-92 981.126,-69.7131 982.956,-69.0167"/>
</g>
<!-- ATP -->
<g id="node6" class="node"><title>ATP</title>
<ellipse fill="none" stroke="black" cx="1126" cy="-69" rx="18" ry="18"/>
<text text-anchor="middle" x="1126" y="-66.5" font-family="Times Roman,serif" font-size="10.00">ATP</text>
</g>
<!-- ATP&#45;&gt;PGA_red_intermediate_r -->
<g id="edge20" class="edge"><title>ATP&#45;&gt;PGA_red_intermediate_r</title>
<path fill="none" stroke="black" d="M1108.45,-46.7525C1090.4,-26.5859 1060.29,-0 1027,-0 441,-0 441,-0 441,-0 370.863,-0 353.537,-129.845 353.012,-133.903"/>
<polygon fill="black" stroke="black" points="1105.81,-49.0539 1114.98,-54.3669 1111.12,-44.4973 1105.81,-49.0539"/>
</g>
<!-- ATP&#45;&gt;RuBP_reg_intermediate_r -->
<g id="edge44" class="edge"><title>ATP&#45;&gt;RuBP_reg_intermediate_r</title>
<path fill="none" stroke="black" d="M1121.6,-86.6672C1111.51,-122.425 1083.16,-200 1027,-200 873,-200 873,-200 873,-200 834.955,-200 788.036,-192.492 785.141,-192.023"/>
</g>
<!-- ADP -->
<g id="node7" class="node"><title>ADP</title>
<ellipse fill="none" stroke="black" cx="928" cy="-46" rx="18" ry="18"/>
<text text-anchor="middle" x="928" y="-43.5" font-family="Times Roman,serif" font-size="10.00">ADP</text>
</g>
<!-- ADP&#45;&gt;ATP_S_intermediate_r -->
<g id="edge70" class="edge"><title>ADP&#45;&gt;ATP_S_intermediate_r</title>
<path fill="none" stroke="black" d="M944.801,-53.0257C960.47,-59.5782 981.629,-68.4267 982.936,-68.9734"/>
</g>
<!-- E_RuBisCO -->
<g id="node8" class="node"><title>E_RuBisCO</title>
<polyline fill="none" stroke="black" points="193,-204 161,-204 "/>
<path fill="none" stroke="black" d="M161,-204C155,-204 149,-198 149,-192"/>
<polyline fill="none" stroke="black" points="149,-192 149,-180 "/>
<path fill="none" stroke="black" d="M149,-180C149,-174 155,-168 161,-168"/>
<polyline fill="none" stroke="black" points="161,-168 193,-168 "/>
<path fill="none" stroke="black" d="M193,-168C199,-168 205,-174 205,-180"/>
<polyline fill="none" stroke="black" points="205,-180 205,-192 "/>
<path fill="none" stroke="black" d="M205,-192C205,-198 199,-204 193,-204"/>
<text text-anchor="middle" x="177" y="-183.5" font-family="Times Roman,serif" font-size="10.00">RuBisCo</text>
</g>
<!-- RuBisCO_intermediate_m -->
<g id="node20" class="node"><title>RuBisCO_intermediate_m</title>
<ellipse fill="black" stroke="black" cx="243" cy="-171" rx="0.036" ry="0.036"/>
</g>
<!-- E_RuBisCO&#45;&gt;RuBisCO_intermediate_m -->
<g id="edge14" class="edge"><title>E_RuBisCO&#45;&gt;RuBisCO_intermediate_m</title>
<path fill="none" stroke="black" d="M205.757,-179.464C222.986,-175.549 241.786,-171.276 242.944,-171.013"/>
</g>
<!-- totRuBP -->
<g id="node9" class="node"><title>totRuBP</title>
<ellipse fill="none" stroke="black" cx="37" cy="-154" rx="36.9352" ry="18"/>
<text text-anchor="middle" x="37" y="-151.5" font-family="Times Roman,serif" font-size="10.00">totRuBP</text>
</g>
<!-- totRuBP&#45;&gt;RuBisCO_intermediate_r -->
<g id="edge4" class="edge"><title>totRuBP&#45;&gt;RuBisCO_intermediate_r</title>
<path fill="none" stroke="black" d="M74,-154C91.9219,-154 109.844,-154 110.946,-154"/>
</g>
<!-- TPc -->
<g id="node10" class="node"><title>TPc</title>
<ellipse fill="none" stroke="black" cx="721" cy="-84" rx="27" ry="18"/>
<text text-anchor="middle" x="721" y="-81.5" font-family="Times Roman,serif" font-size="10.00">TPc</text>
</g>
<!-- Pic -->
<g id="node11" class="node"><title>Pic</title>
<ellipse fill="none" stroke="black" cx="505" cy="-88" rx="18" ry="18"/>
<text text-anchor="middle" x="505" y="-85.5" font-family="Times Roman,serif" font-size="10.00">Pic</text>
</g>
<!-- Pic&#45;&gt;TPT_intermediate_r -->
<g id="edge60" class="edge"><title>Pic&#45;&gt;TPT_intermediate_r</title>
<path fill="none" stroke="black" d="M533.592,-90.6805C549.998,-92.2186 567.613,-93.8699 568.922,-93.9927"/>
<polygon fill="black" stroke="black" points="533.452,-87.1521 523.169,-89.7033 532.798,-94.1215 533.452,-87.1521"/>
</g>
<!-- RuBisCO -->
<g id="node12" class="node"><title>RuBisCO</title>
<polygon fill="none" stroke="black" points="184,-150 170,-150 170,-136 184,-136 184,-150"/>
</g>
<!-- RuBisCO_intermediate_p -->
<g id="node17" class="node"><title>RuBisCO_intermediate_p</title>
<ellipse fill="black" stroke="black" cx="243" cy="-138" rx="0.036" ry="0.036"/>
</g>
<!-- RuBisCO&#45;&gt;RuBisCO_intermediate_p -->
<g id="edge8" class="edge"><title>RuBisCO&#45;&gt;RuBisCO_intermediate_p</title>
<path fill="none" stroke="black" d="M184.063,-142.465C200.557,-141.215 240.405,-138.197 242.879,-138.009"/>
</g>
<!-- RuBisCO&#45;&gt;RuBisCO_intermediate_m -->
<g id="edge12" class="edge"><title>RuBisCO&#45;&gt;RuBisCO_intermediate_m</title>
<path fill="none" stroke="black" d="M195.134,-150.693C213.929,-158.667 240.859,-170.092 242.879,-170.949"/>
<polygon fill="none" stroke="black" points="195.11,-150.683 188.024,-152.022 184.063,-145.996 191.149,-144.657 195.11,-150.683"/>
</g>
<!-- RuBisCO_intermediate_r&#45;&gt;RuBisCO -->
<g id="edge2" class="edge"><title>RuBisCO_intermediate_r&#45;&gt;RuBisCO</title>
<path fill="none" stroke="black" d="M111.048,-153.992C112.625,-153.729 152.776,-147.037 169.645,-144.226"/>
</g>
<!-- RuBisCO_intermediate_p&#45;&gt;PGA -->
<g id="edge10" class="edge"><title>RuBisCO_intermediate_p&#45;&gt;PGA</title>
<path fill="none" stroke="black" d="M243.158,-137.991C244.674,-137.909 256.878,-137.243 269.389,-136.561"/>
<polygon fill="black" stroke="black" points="269.949,-140.035 279.743,-135.996 269.567,-133.046 269.949,-140.035"/>
</g>
<!-- PGA_red -->
<g id="node23" class="node"><title>PGA_red</title>
<polygon fill="none" stroke="black" points="404,-141 390,-141 390,-127 404,-127 404,-141"/>
</g>
<!-- PGA_red_intermediate_p -->
<g id="node28" class="node"><title>PGA_red_intermediate_p</title>
<ellipse fill="black" stroke="black" cx="441" cy="-134" rx="0.036" ry="0.036"/>
</g>
<!-- PGA_red&#45;&gt;PGA_red_intermediate_p -->
<g id="edge22" class="edge"><title>PGA_red&#45;&gt;PGA_red_intermediate_p</title>
<path fill="none" stroke="black" d="M404.266,-134C416.372,-134 439.497,-134 440.93,-134"/>
</g>
<!-- PGA_red_intermediate_r&#45;&gt;PGA_red -->
<g id="edge16" class="edge"><title>PGA_red_intermediate_r&#45;&gt;PGA_red</title>
<path fill="none" stroke="black" d="M353.126,-134C355.022,-134 377.795,-134 389.759,-134"/>
</g>
<!-- PGA_red_intermediate_p&#45;&gt;TP -->
<g id="edge26" class="edge"><title>PGA_red_intermediate_p&#45;&gt;TP</title>
<path fill="none" stroke="black" d="M441.046,-134.033C442.113,-134.8 461.389,-148.655 478.501,-160.954"/>
<polygon fill="black" stroke="black" points="476.476,-163.809 486.639,-166.803 480.561,-158.124 476.476,-163.809"/>
</g>
<!-- PGA_red_intermediate_p&#45;&gt;Pi -->
<g id="edge28" class="edge"><title>PGA_red_intermediate_p&#45;&gt;Pi</title>
<path fill="none" stroke="black" d="M441.052,-134C443.219,-134 513,-134 569,-134 569,-134 569,-134 613,-134 639.966,-134 670.693,-135.261 692.459,-136.367"/>
<polygon fill="black" stroke="black" points="692.492,-139.873 702.663,-136.907 692.862,-132.883 692.492,-139.873"/>
</g>
<!-- PGA_red_intermediate_p&#45;&gt;ADP -->
<g id="edge24" class="edge"><title>PGA_red_intermediate_p&#45;&gt;ADP</title>
<path fill="none" stroke="black" d="M441.026,-133.855C441.556,-130.884 450.482,-83.0093 478,-61 510.578,-34.9439 527.284,-38 569,-38 569,-38 569,-38 829,-38 852.861,-38 879.852,-40.3374 899.617,-42.4853"/>
<polygon fill="black" stroke="black" points="899.457,-45.9896 909.789,-43.643 900.249,-39.0345 899.457,-45.9896"/>
</g>
<!-- TP_red -->
<g id="node33" class="node"><title>TP_red</title>
<polygon fill="none" stroke="black" points="620,-187 606,-187 606,-173 620,-173 620,-187"/>
</g>
<!-- TP_red_intermediate_p -->
<g id="node37" class="node"><title>TP_red_intermediate_p</title>
<ellipse fill="black" stroke="black" cx="657" cy="-180" rx="0.036" ry="0.036"/>
</g>
<!-- TP_red&#45;&gt;TP_red_intermediate_p -->
<g id="edge34" class="edge"><title>TP_red&#45;&gt;TP_red_intermediate_p</title>
<path fill="none" stroke="black" d="M620.266,-180C632.372,-180 655.497,-180 656.93,-180"/>
</g>
<!-- TP_red_intermediate_r&#45;&gt;TP_red -->
<g id="edge30" class="edge"><title>TP_red_intermediate_r&#45;&gt;TP_red</title>
<path fill="none" stroke="black" d="M569.126,-180C571.022,-180 593.795,-180 605.759,-180"/>
</g>
<!-- TP_red_intermediate_p&#45;&gt;Ru5P -->
<g id="edge36" class="edge"><title>TP_red_intermediate_p&#45;&gt;Ru5P</title>
<path fill="none" stroke="black" d="M657.046,-180.009C658.081,-180.203 676.231,-183.606 692.931,-186.737"/>
<polygon fill="black" stroke="black" points="692.502,-190.217 702.975,-188.62 693.792,-183.337 692.502,-190.217"/>
</g>
<!-- TP_red_intermediate_p&#45;&gt;Pi -->
<g id="edge38" class="edge"><title>TP_red_intermediate_p&#45;&gt;Pi</title>
<path fill="none" stroke="black" d="M657.046,-179.97C658.168,-179.233 679.416,-165.289 697.117,-153.673"/>
<polygon fill="black" stroke="black" points="699.484,-156.306 705.924,-147.894 695.643,-150.454 699.484,-156.306"/>
</g>
<!-- RuBP_reg -->
<g id="node41" class="node"><title>RuBP_reg</title>
<polygon fill="none" stroke="black" points="836,-172 822,-172 822,-158 836,-158 836,-172"/>
</g>
<!-- RuBP_reg_intermediate_p -->
<g id="node46" class="node"><title>RuBP_reg_intermediate_p</title>
<ellipse fill="black" stroke="black" cx="873" cy="-165" rx="0.036" ry="0.036"/>
</g>
<!-- RuBP_reg&#45;&gt;RuBP_reg_intermediate_p -->
<g id="edge46" class="edge"><title>RuBP_reg&#45;&gt;RuBP_reg_intermediate_p</title>
<path fill="none" stroke="black" d="M836.266,-165C848.372,-165 871.497,-165 872.93,-165"/>
</g>
<!-- RuBP_reg&#45;&gt;RuBP_reg_intermediate_m -->
<g id="edge52" class="edge"><title>RuBP_reg&#45;&gt;RuBP_reg_intermediate_m</title>
<path fill="none" stroke="black" d="M846.536,-154.239C858.301,-147.02 871.844,-138.709 872.93,-138.043"/>
<polygon fill="none" stroke="black" points="846.494,-154.265 843.472,-160.813 836.266,-160.541 839.288,-153.994 846.494,-154.265"/>
</g>
<!-- RuBP_reg_intermediate_r&#45;&gt;RuBP_reg -->
<g id="edge40" class="edge"><title>RuBP_reg_intermediate_r&#45;&gt;RuBP_reg</title>
<path fill="none" stroke="black" d="M785.126,-191.923C787.022,-190.76 809.795,-176.785 821.759,-169.443"/>
</g>
<!-- RuBP_reg_intermediate_p&#45;&gt;RuBP -->
<g id="edge48" class="edge"><title>RuBP_reg_intermediate_p&#45;&gt;RuBP</title>
<path fill="none" stroke="black" d="M872.973,-165.053C871.835,-167.263 835.023,-238 785,-238 177,-238 177,-238 177,-238 137.468,-238 92.4768,-228.96 64.41,-222.215"/>
<polygon fill="black" stroke="black" points="65.0767,-218.774 54.5284,-219.766 63.3927,-225.569 65.0767,-218.774"/>
</g>
<!-- RuBP_reg_intermediate_p&#45;&gt;ADP -->
<g id="edge50" class="edge"><title>RuBP_reg_intermediate_p&#45;&gt;ADP</title>
<path fill="none" stroke="black" d="M873.04,-164.914C874.194,-162.416 900.164,-106.226 915.986,-71.9931"/>
<polygon fill="black" stroke="black" points="919.323,-73.1157 920.342,-62.5699 912.969,-70.1789 919.323,-73.1157"/>
</g>
<!-- TPT -->
<g id="node53" class="node"><title>TPT</title>
<polygon fill="none" stroke="black" points="620,-101 606,-101 606,-87 620,-87 620,-101"/>
</g>
<!-- TPT_intermediate_p -->
<g id="node58" class="node"><title>TPT_intermediate_p</title>
<ellipse fill="black" stroke="black" cx="657" cy="-94" rx="0.036" ry="0.036"/>
</g>
<!-- TPT&#45;&gt;TPT_intermediate_p -->
<g id="edge62" class="edge"><title>TPT&#45;&gt;TPT_intermediate_p</title>
<path fill="none" stroke="black" d="M620.266,-94C632.372,-94 655.497,-94 656.93,-94"/>
</g>
<!-- TPT_intermediate_r&#45;&gt;TPT -->
<g id="edge56" class="edge"><title>TPT_intermediate_r&#45;&gt;TPT</title>
<path fill="none" stroke="black" d="M569.126,-94C571.022,-94 593.795,-94 605.759,-94"/>
</g>
<!-- TPT_intermediate_p&#45;&gt;Pi -->
<g id="edge66" class="edge"><title>TPT_intermediate_p&#45;&gt;Pi</title>
<path fill="none" stroke="black" d="M657.046,-94.0319C658.178,-94.8101 679.808,-109.68 697.603,-121.914"/>
<polygon fill="black" stroke="black" points="695.701,-124.854 705.924,-127.635 699.666,-119.086 695.701,-124.854"/>
</g>
<!-- TPT_intermediate_p&#45;&gt;TPc -->
<g id="edge64" class="edge"><title>TPT_intermediate_p&#45;&gt;TPc</title>
<path fill="none" stroke="black" d="M657.046,-93.9928C657.905,-93.8585 670.565,-91.8804 684.397,-89.7192"/>
<polygon fill="black" stroke="black" points="685.184,-93.1388 694.524,-88.1369 684.104,-86.2227 685.184,-93.1388"/>
</g>
<!-- ATP_S -->
<g id="node62" class="node"><title>ATP_S</title>
<polygon fill="none" stroke="black" points="1034,-76 1020,-76 1020,-62 1034,-62 1034,-76"/>
</g>
<!-- ATP_S_intermediate_p -->
<g id="node67" class="node"><title>ATP_S_intermediate_p</title>
<ellipse fill="black" stroke="black" cx="1071" cy="-69" rx="0.036" ry="0.036"/>
</g>
<!-- ATP_S&#45;&gt;ATP_S_intermediate_p -->
<g id="edge74" class="edge"><title>ATP_S&#45;&gt;ATP_S_intermediate_p</title>
<path fill="none" stroke="black" d="M1034.27,-69C1046.37,-69 1069.5,-69 1070.93,-69"/>
</g>
<!-- ATP_S_intermediate_r&#45;&gt;ATP_S -->
<g id="edge68" class="edge"><title>ATP_S_intermediate_r&#45;&gt;ATP_S</title>
<path fill="none" stroke="black" d="M983.126,-69C985.022,-69 1007.79,-69 1019.76,-69"/>
</g>
<!-- ATP_S_intermediate_p&#45;&gt;ATP -->
<g id="edge76" class="edge"><title>ATP_S_intermediate_p&#45;&gt;ATP</title>
<path fill="none" stroke="black" d="M1071.16,-69C1072.67,-69 1084.88,-69 1097.39,-69"/>
<polygon fill="black" stroke="black" points="1097.74,-72.5001 1107.74,-69 1097.74,-65.5001 1097.74,-72.5001"/>
</g>
</g>
</svg>
