<?xml version="1.0" encoding="UTF-8" standalone="no"?>
<!DOCTYPE svg PUBLIC "-//W3C//DTD SVG 1.1//EN"
 "http://www.w3.org/Graphics/SVG/1.1/DTD/svg11.dtd">
<!-- Generated by graphviz version 2.30.1 (20140821.0912)
 -->
<!-- Title: G Pages: 1 -->
<svg width="2400pt" height="404pt"
 viewBox="0.00 0.00 2400.00 404.00" xmlns="http://www.w3.org/2000/svg" xmlns:xlink="http://www.w3.org/1999/xlink">
<g id="graph0" class="graph" transform="scale(1 1) rotate(0) translate(4 400)">
<title>G</title>
<polygon fill="white" stroke="white" points="-4,5 -4,-400 2397,-400 2397,5 -4,5"/>
<!-- cp -->
<g id="cp [CHEBI:17672]" class="node"><title>cp</title>
<ellipse fill="none" stroke="black" cx="196" cy="-146" rx="18" ry="18"/>
<text text-anchor="middle" x="196" y="-143.5" font-family="Times,serif" font-size="10.00">cp</text>
</g>
<!-- r2_intermediate_r -->
<g id="node15" class="node"><title>r2_intermediate_r</title>
<ellipse fill="black" stroke="black" cx="251" cy="-146" rx="0.036" ry="0.036"/>
</g>
<!-- cp&#45;&gt;r2_intermediate_r -->
<g id="edge8" class="edge"><title>cp&#45;&gt;r2_intermediate_r</title>
<path fill="none" stroke="black" d="M214.061,-146C229.071,-146 248.727,-146 249.941,-146"/>
</g>
<!-- r2_intermediate_m -->
<g id="node17" class="node"><title>r2_intermediate_m</title>
<ellipse fill="black" stroke="black" cx="2001" cy="-173" rx="0.036" ry="0.036"/>
</g>
<!-- cp&#45;&gt;r2_intermediate_m -->
<g id="edge13" class="edge"><title>cp&#45;&gt;r2_intermediate_m</title>
<path fill="none" stroke="black" d="M202.442,-162.821C213.876,-194.532 243.586,-260 294,-260 294,-260 294,-260 1866,-260 1935.9,-260 1998.03,-175.698 1999.95,-173.063"/>
</g>
<!-- cp_dilution_intermediate_r -->
<g id="node55" class="node"><title>cp_dilution_intermediate_r</title>
<ellipse fill="black" stroke="black" cx="251" cy="-57" rx="0.036" ry="0.036"/>
</g>
<!-- cp&#45;&gt;cp_dilution_intermediate_r -->
<g id="edge68" class="edge"><title>cp&#45;&gt;cp_dilution_intermediate_r</title>
<path fill="none" stroke="black" d="M205.991,-130.902C220.639,-106.304 248.208,-60.0093 249.917,-57.1399"/>
</g>
<!-- cp_dilution_intermediate_m -->
<g id="node57" class="node"><title>cp_dilution_intermediate_m</title>
<ellipse fill="black" stroke="black" cx="365" cy="-54" rx="0.036" ry="0.036"/>
</g>
<!-- cp&#45;&gt;cp_dilution_intermediate_m -->
<g id="edge71" class="edge"><title>cp&#45;&gt;cp_dilution_intermediate_m</title>
<path fill="none" stroke="black" d="M212.2,-137.517C238.011,-123.13 292.081,-93.0628 338,-68 348.8,-62.1053 362.202,-54.9585 363.835,-54.0881"/>
</g>
<!-- ca -->
<g id="ca [CHEBI:15859]" class="node"><title>ca</title>
<ellipse fill="none" stroke="black" cx="446" cy="-152" rx="18" ry="18"/>
<text text-anchor="middle" x="446" y="-149.5" font-family="Times,serif" font-size="10.00">ca</text>
</g>
<!-- r3_intermediate_r -->
<g id="node19" class="node"><title>r3_intermediate_r</title>
<ellipse fill="black" stroke="black" cx="501" cy="-120" rx="0.036" ry="0.036"/>
</g>
<!-- ca&#45;&gt;r3_intermediate_r -->
<g id="edge16" class="edge"><title>ca&#45;&gt;r3_intermediate_r</title>
<path fill="none" stroke="black" d="M461.763,-143.086C476.956,-133.914 498.597,-120.847 499.935,-120.039"/>
</g>
<!-- r3_intermediate_m -->
<g id="node21" class="node"><title>r3_intermediate_m</title>
<ellipse fill="black" stroke="black" cx="615" cy="-143" rx="0.036" ry="0.036"/>
</g>
<!-- ca&#45;&gt;r3_intermediate_m -->
<g id="edge20" class="edge"><title>ca&#45;&gt;r3_intermediate_m</title>
<path fill="none" stroke="black" d="M464.243,-151.071C506.244,-148.807 610.669,-143.18 613.922,-143.004"/>
</g>
<!-- ca_dilution_intermediate_r -->
<g id="node59" class="node"><title>ca_dilution_intermediate_r</title>
<ellipse fill="black" stroke="black" cx="501" cy="-183" rx="0.036" ry="0.036"/>
</g>
<!-- ca&#45;&gt;ca_dilution_intermediate_r -->
<g id="edge73" class="edge"><title>ca&#45;&gt;ca_dilution_intermediate_r</title>
<path fill="none" stroke="black" d="M462.046,-160.8C477.225,-169.679 498.614,-182.189 499.936,-182.962"/>
</g>
<!-- ca_dilution_intermediate_m -->
<g id="node61" class="node"><title>ca_dilution_intermediate_m</title>
<ellipse fill="black" stroke="black" cx="615" cy="-222" rx="0.036" ry="0.036"/>
</g>
<!-- ca&#45;&gt;ca_dilution_intermediate_m -->
<g id="edge76" class="edge"><title>ca&#45;&gt;ca_dilution_intermediate_m</title>
<path fill="none" stroke="black" d="M460.033,-164.002C470.242,-172.842 485.156,-184.569 500,-192 546.117,-215.087 611.906,-221.791 613.951,-221.995"/>
</g>
<!-- dho -->
<g id="dho [CHEBI:17025]" class="node"><title>dho</title>
<ellipse fill="none" stroke="black" cx="696" cy="-152" rx="18" ry="18"/>
<text text-anchor="middle" x="696" y="-149.5" font-family="Times,serif" font-size="10.00">dho</text>
</g>
<!-- r4_intermediate_r -->
<g id="node23" class="node"><title>r4_intermediate_r</title>
<ellipse fill="black" stroke="black" cx="751" cy="-120" rx="0.036" ry="0.036"/>
</g>
<!-- dho&#45;&gt;r4_intermediate_r -->
<g id="edge22" class="edge"><title>dho&#45;&gt;r4_intermediate_r</title>
<path fill="none" stroke="black" d="M711.763,-143.086C726.956,-133.914 748.597,-120.847 749.935,-120.039"/>
</g>
<!-- r4_intermediate_m -->
<g id="node25" class="node"><title>r4_intermediate_m</title>
<ellipse fill="black" stroke="black" cx="865" cy="-143" rx="0.036" ry="0.036"/>
</g>
<!-- dho&#45;&gt;r4_intermediate_m -->
<g id="edge26" class="edge"><title>dho&#45;&gt;r4_intermediate_m</title>
<path fill="none" stroke="black" d="M714.243,-151.071C756.244,-148.807 860.669,-143.18 863.922,-143.004"/>
</g>
<!-- dho_dilution_intermediate_r -->
<g id="node63" class="node"><title>dho_dilution_intermediate_r</title>
<ellipse fill="black" stroke="black" cx="751" cy="-184" rx="0.036" ry="0.036"/>
</g>
<!-- dho&#45;&gt;dho_dilution_intermediate_r -->
<g id="edge78" class="edge"><title>dho&#45;&gt;dho_dilution_intermediate_r</title>
<path fill="none" stroke="black" d="M711.763,-160.914C726.956,-170.086 748.597,-183.153 749.935,-183.961"/>
</g>
<!-- dho_dilution_intermediate_m -->
<g id="node65" class="node"><title>dho_dilution_intermediate_m</title>
<ellipse fill="black" stroke="black" cx="865" cy="-222" rx="0.036" ry="0.036"/>
</g>
<!-- dho&#45;&gt;dho_dilution_intermediate_m -->
<g id="edge81" class="edge"><title>dho&#45;&gt;dho_dilution_intermediate_m</title>
<path fill="none" stroke="black" d="M709.508,-164.046C719.669,-173.212 734.765,-185.492 750,-193 796.162,-215.749 861.908,-221.812 863.951,-221.996"/>
</g>
<!-- oro -->
<g id="oro [CHEBI:16742]" class="node"><title>oro</title>
<ellipse fill="none" stroke="black" cx="946" cy="-152" rx="18" ry="18"/>
<text text-anchor="middle" x="946" y="-149.5" font-family="Times,serif" font-size="10.00">oro</text>
</g>
<!-- r5_intermediate_r -->
<g id="node27" class="node"><title>r5_intermediate_r</title>
<ellipse fill="black" stroke="black" cx="1001" cy="-121" rx="0.036" ry="0.036"/>
</g>
<!-- oro&#45;&gt;r5_intermediate_r -->
<g id="edge28" class="edge"><title>oro&#45;&gt;r5_intermediate_r</title>
<path fill="none" stroke="black" d="M962.046,-143.2C977.225,-134.321 998.614,-121.811 999.936,-121.038"/>
</g>
<!-- r5_intermediate_m -->
<g id="node29" class="node"><title>r5_intermediate_m</title>
<ellipse fill="black" stroke="black" cx="1115" cy="-146" rx="0.036" ry="0.036"/>
</g>
<!-- oro&#45;&gt;r5_intermediate_m -->
<g id="edge32" class="edge"><title>oro&#45;&gt;r5_intermediate_m</title>
<path fill="none" stroke="black" d="M964.243,-151.38C1006.24,-149.871 1110.67,-146.12 1113.92,-146.003"/>
</g>
<!-- oro_dilution_intermediate_r -->
<g id="node67" class="node"><title>oro_dilution_intermediate_r</title>
<ellipse fill="black" stroke="black" cx="1001" cy="-184" rx="0.036" ry="0.036"/>
</g>
<!-- oro&#45;&gt;oro_dilution_intermediate_r -->
<g id="edge83" class="edge"><title>oro&#45;&gt;oro_dilution_intermediate_r</title>
<path fill="none" stroke="black" d="M961.763,-160.914C976.956,-170.086 998.597,-183.153 999.935,-183.961"/>
</g>
<!-- oro_dilution_intermediate_m -->
<g id="node69" class="node"><title>oro_dilution_intermediate_m</title>
<ellipse fill="black" stroke="black" cx="1115" cy="-222" rx="0.036" ry="0.036"/>
</g>
<!-- oro&#45;&gt;oro_dilution_intermediate_m -->
<g id="edge86" class="edge"><title>oro&#45;&gt;oro_dilution_intermediate_m</title>
<path fill="none" stroke="black" d="M959.508,-164.046C969.669,-173.212 984.765,-185.492 1000,-193 1046.16,-215.749 1111.91,-221.812 1113.95,-221.996"/>
</g>
<!-- omp -->
<g id="omp [CHEBI:15842]" class="node"><title>omp</title>
<ellipse fill="none" stroke="black" cx="1196" cy="-152" rx="18" ry="18"/>
<text text-anchor="middle" x="1196" y="-149.5" font-family="Times,serif" font-size="10.00">omp</text>
</g>
<!-- r6_intermediate_r -->
<g id="node31" class="node"><title>r6_intermediate_r</title>
<ellipse fill="black" stroke="black" cx="1251" cy="-120" rx="0.036" ry="0.036"/>
</g>
<!-- omp&#45;&gt;r6_intermediate_r -->
<g id="edge34" class="edge"><title>omp&#45;&gt;r6_intermediate_r</title>
<path fill="none" stroke="black" d="M1211.76,-143.086C1226.96,-133.914 1248.6,-120.847 1249.93,-120.039"/>
</g>
<!-- r6_intermediate_m -->
<g id="node33" class="node"><title>r6_intermediate_m</title>
<ellipse fill="black" stroke="black" cx="1365" cy="-143" rx="0.036" ry="0.036"/>
</g>
<!-- omp&#45;&gt;r6_intermediate_m -->
<g id="edge38" class="edge"><title>omp&#45;&gt;r6_intermediate_m</title>
<path fill="none" stroke="black" d="M1214.24,-151.071C1256.24,-148.807 1360.67,-143.18 1363.92,-143.004"/>
</g>
<!-- omp_dilution_intermediate_r -->
<g id="node71" class="node"><title>omp_dilution_intermediate_r</title>
<ellipse fill="black" stroke="black" cx="1251" cy="-184" rx="0.036" ry="0.036"/>
</g>
<!-- omp&#45;&gt;omp_dilution_intermediate_r -->
<g id="edge88" class="edge"><title>omp&#45;&gt;omp_dilution_intermediate_r</title>
<path fill="none" stroke="black" d="M1211.76,-160.914C1226.96,-170.086 1248.6,-183.153 1249.93,-183.961"/>
</g>
<!-- omp_dilution_intermediate_m -->
<g id="node73" class="node"><title>omp_dilution_intermediate_m</title>
<ellipse fill="black" stroke="black" cx="1365" cy="-222" rx="0.036" ry="0.036"/>
</g>
<!-- omp&#45;&gt;omp_dilution_intermediate_m -->
<g id="edge91" class="edge"><title>omp&#45;&gt;omp_dilution_intermediate_m</title>
<path fill="none" stroke="black" d="M1209.51,-164.046C1219.67,-173.212 1234.76,-185.492 1250,-193 1296.16,-215.749 1361.91,-221.812 1363.95,-221.996"/>
</g>
<!-- ump -->
<g id="ump [CHEBI:16695]" class="node"><title>ump</title>
<ellipse fill="none" stroke="black" cx="1446" cy="-152" rx="18" ry="18"/>
<text text-anchor="middle" x="1446" y="-149.5" font-family="Times,serif" font-size="10.00">ump</text>
</g>
<!-- r10_intermediate_r -->
<g id="node35" class="node"><title>r10_intermediate_r</title>
<ellipse fill="black" stroke="black" cx="1501" cy="-120" rx="0.036" ry="0.036"/>
</g>
<!-- ump&#45;&gt;r10_intermediate_r -->
<g id="edge40" class="edge"><title>ump&#45;&gt;r10_intermediate_r</title>
<path fill="none" stroke="black" d="M1461.76,-143.086C1476.96,-133.914 1498.6,-120.847 1499.93,-120.039"/>
</g>
<!-- r10_intermediate_m -->
<g id="node37" class="node"><title>r10_intermediate_m</title>
<ellipse fill="black" stroke="black" cx="1615" cy="-146" rx="0.036" ry="0.036"/>
</g>
<!-- ump&#45;&gt;r10_intermediate_m -->
<g id="edge44" class="edge"><title>ump&#45;&gt;r10_intermediate_m</title>
<path fill="none" stroke="black" d="M1464.24,-151.38C1506.24,-149.871 1610.67,-146.12 1613.92,-146.003"/>
</g>
<!-- ump_dilution_intermediate_r -->
<g id="node75" class="node"><title>ump_dilution_intermediate_r</title>
<ellipse fill="black" stroke="black" cx="1501" cy="-183" rx="0.036" ry="0.036"/>
</g>
<!-- ump&#45;&gt;ump_dilution_intermediate_r -->
<g id="edge93" class="edge"><title>ump&#45;&gt;ump_dilution_intermediate_r</title>
<path fill="none" stroke="black" d="M1462.05,-160.8C1477.23,-169.679 1498.61,-182.189 1499.94,-182.962"/>
</g>
<!-- ump_dilution_intermediate_m -->
<g id="node77" class="node"><title>ump_dilution_intermediate_m</title>
<ellipse fill="black" stroke="black" cx="1615" cy="-222" rx="0.036" ry="0.036"/>
</g>
<!-- ump&#45;&gt;ump_dilution_intermediate_m -->
<g id="edge96" class="edge"><title>ump&#45;&gt;ump_dilution_intermediate_m</title>
<path fill="none" stroke="black" d="M1460.03,-164.002C1470.24,-172.842 1485.16,-184.569 1500,-192 1546.12,-215.087 1611.91,-221.791 1613.95,-221.995"/>
</g>
<!-- udp -->
<g id="udp [CHEBI:17659]" class="node"><title>udp</title>
<ellipse fill="none" stroke="black" cx="1696" cy="-152" rx="18" ry="18"/>
<text text-anchor="middle" x="1696" y="-149.5" font-family="Times,serif" font-size="10.00">udp</text>
</g>
<!-- r7_intermediate_r -->
<g id="node39" class="node"><title>r7_intermediate_r</title>
<ellipse fill="black" stroke="black" cx="1751" cy="-121" rx="0.036" ry="0.036"/>
</g>
<!-- udp&#45;&gt;r7_intermediate_r -->
<g id="edge46" class="edge"><title>udp&#45;&gt;r7_intermediate_r</title>
<path fill="none" stroke="black" d="M1712.05,-143.2C1727.23,-134.321 1748.61,-121.811 1749.94,-121.038"/>
</g>
<!-- r7_intermediate_m -->
<g id="node41" class="node"><title>r7_intermediate_m</title>
<ellipse fill="black" stroke="black" cx="1865" cy="-143" rx="0.036" ry="0.036"/>
</g>
<!-- udp&#45;&gt;r7_intermediate_m -->
<g id="edge50" class="edge"><title>udp&#45;&gt;r7_intermediate_m</title>
<path fill="none" stroke="black" d="M1714.24,-151.071C1756.24,-148.807 1860.67,-143.18 1863.92,-143.004"/>
</g>
<!-- udp_dilution_intermediate_r -->
<g id="node79" class="node"><title>udp_dilution_intermediate_r</title>
<ellipse fill="black" stroke="black" cx="1751" cy="-184" rx="0.036" ry="0.036"/>
</g>
<!-- udp&#45;&gt;udp_dilution_intermediate_r -->
<g id="edge98" class="edge"><title>udp&#45;&gt;udp_dilution_intermediate_r</title>
<path fill="none" stroke="black" d="M1711.76,-160.914C1726.96,-170.086 1748.6,-183.153 1749.93,-183.961"/>
</g>
<!-- udp_dilution_intermediate_m -->
<g id="node81" class="node"><title>udp_dilution_intermediate_m</title>
<ellipse fill="black" stroke="black" cx="1865" cy="-222" rx="0.036" ry="0.036"/>
</g>
<!-- udp&#45;&gt;udp_dilution_intermediate_m -->
<g id="edge101" class="edge"><title>udp&#45;&gt;udp_dilution_intermediate_m</title>
<path fill="none" stroke="black" d="M1709.51,-164.046C1719.67,-173.212 1734.76,-185.492 1750,-193 1796.16,-215.749 1861.91,-221.812 1863.95,-221.996"/>
</g>
<!-- utp -->
<g id="utp [CHEBI:15713]" class="node"><title>utp</title>
<ellipse fill="none" stroke="black" cx="1946" cy="-306" rx="18" ry="18"/>
<text text-anchor="middle" x="1946" y="-303.5" font-family="Times,serif" font-size="10.00">utp</text>
</g>
<!-- r1_intermediate_m -->
<g id="node13" class="node"><title>r1_intermediate_m</title>
<ellipse fill="black" stroke="black" cx="2001" cy="-384" rx="0.036" ry="0.036"/>
</g>
<!-- utp&#45;&gt;r1_intermediate_m -->
<g id="edge5" class="edge"><title>utp&#45;&gt;r1_intermediate_m</title>
<path fill="none" stroke="black" d="M1959.29,-318.29C1974.7,-338.688 1999.22,-376.604 1999.98,-383.686"/>
</g>
<!-- utp&#45;&gt;r1_intermediate_m -->
<g id="edge6" class="edge"><title>utp&#45;&gt;r1_intermediate_m</title>
<path fill="none" stroke="black" d="M1954.59,-322.076C1968.79,-346.446 1998.09,-388.147 1999.91,-384.497"/>
</g>
<!-- utp&#45;&gt;r2_intermediate_m -->
<g id="edge12" class="edge"><title>utp&#45;&gt;r2_intermediate_m</title>
<path fill="none" stroke="black" d="M1952.43,-289.008C1955.97,-281.37 1960.55,-272.828 1964,-265 1982.63,-222.76 1998.95,-167.574 1999.95,-172.348"/>
</g>
<!-- utp&#45;&gt;r2_intermediate_m -->
<g id="edge14" class="edge"><title>utp&#45;&gt;r2_intermediate_m</title>
<path fill="none" stroke="black" d="M1958.96,-293.407C1960.73,-290.046 1962.48,-286.454 1964,-283 1983.08,-239.738 1999.74,-182.896 2000,-173.22"/>
</g>
<!-- utp_degradation_intermediate_r -->
<g id="node43" class="node"><title>utp_degradation_intermediate_r</title>
<ellipse fill="black" stroke="black" cx="2001" cy="-306" rx="0.036" ry="0.036"/>
</g>
<!-- utp&#45;&gt;utp_degradation_intermediate_r -->
<g id="edge52" class="edge"><title>utp&#45;&gt;utp_degradation_intermediate_r</title>
<path fill="none" stroke="black" d="M1964.06,-306C1979.07,-306 1998.73,-306 1999.94,-306"/>
</g>
<!-- utp_degradation_intermediate_m -->
<g id="node45" class="node"><title>utp_degradation_intermediate_m</title>
<ellipse fill="black" stroke="black" cx="2115" cy="-270" rx="0.036" ry="0.036"/>
</g>
<!-- utp&#45;&gt;utp_degradation_intermediate_m -->
<g id="edge55" class="edge"><title>utp&#45;&gt;utp_degradation_intermediate_m</title>
<path fill="none" stroke="black" d="M1963.93,-302.35C2005.72,-293.341 2110.65,-270.722 2113.92,-270.017"/>
</g>
<!-- r8_intermediate_r -->
<g id="node47" class="node"><title>r8_intermediate_r</title>
<ellipse fill="black" stroke="black" cx="2001" cy="-239" rx="0.036" ry="0.036"/>
</g>
<!-- utp&#45;&gt;r8_intermediate_r -->
<g id="edge57" class="edge"><title>utp&#45;&gt;r8_intermediate_r</title>
<path fill="none" stroke="black" d="M1957.98,-292.118C1973.02,-273.106 1998.35,-241.08 1999.92,-239.097"/>
</g>
<!-- r8_intermediate_m -->
<g id="node49" class="node"><title>r8_intermediate_m</title>
<ellipse fill="black" stroke="black" cx="2115" cy="-210" rx="0.036" ry="0.036"/>
</g>
<!-- utp&#45;&gt;r8_intermediate_m -->
<g id="edge61" class="edge"><title>utp&#45;&gt;r8_intermediate_m</title>
<path fill="none" stroke="black" d="M1955.89,-290.747C1967.7,-270.987 1988.39,-238.104 2000,-230 2041.52,-201.009 2111.76,-209.714 2113.95,-209.993"/>
</g>
<!-- utp_dilution_intermediate_r -->
<g id="node83" class="node"><title>utp_dilution_intermediate_r</title>
<ellipse fill="black" stroke="black" cx="2001" cy="-366" rx="0.036" ry="0.036"/>
</g>
<!-- utp&#45;&gt;utp_dilution_intermediate_r -->
<g id="edge103" class="edge"><title>utp&#45;&gt;utp_dilution_intermediate_r</title>
<path fill="none" stroke="black" d="M1958.5,-319.019C1973.6,-336.114 1998.39,-364.178 1999.93,-365.915"/>
</g>
<!-- utp_dilution_intermediate_m -->
<g id="node85" class="node"><title>utp_dilution_intermediate_m</title>
<ellipse fill="black" stroke="black" cx="2115" cy="-342" rx="0.036" ry="0.036"/>
</g>
<!-- utp&#45;&gt;utp_dilution_intermediate_m -->
<g id="edge106" class="edge"><title>utp&#45;&gt;utp_dilution_intermediate_m</title>
<path fill="none" stroke="black" d="M1963.93,-309.65C2005.72,-318.659 2110.65,-341.278 2113.92,-341.983"/>
</g>
<!-- ctp -->
<g id="ctp [CHEBI:17677]" class="node"><title>ctp</title>
<ellipse fill="none" stroke="black" cx="2196" cy="-236" rx="18" ry="18"/>
<text text-anchor="middle" x="2196" y="-233.5" font-family="Times,serif" font-size="10.00">ctp</text>
</g>
<!-- ctp_degradation_intermediate_r -->
<g id="node51" class="node"><title>ctp_degradation_intermediate_r</title>
<ellipse fill="black" stroke="black" cx="2251" cy="-282" rx="0.036" ry="0.036"/>
</g>
<!-- ctp&#45;&gt;ctp_degradation_intermediate_r -->
<g id="edge63" class="edge"><title>ctp&#45;&gt;ctp_degradation_intermediate_r</title>
<path fill="none" stroke="black" d="M2210.1,-247.371C2225.31,-260.567 2248.5,-280.694 2249.93,-281.939"/>
</g>
<!-- ctp_degradation_intermediate_m -->
<g id="node53" class="node"><title>ctp_degradation_intermediate_m</title>
<ellipse fill="black" stroke="black" cx="2365" cy="-253" rx="0.036" ry="0.036"/>
</g>
<!-- ctp&#45;&gt;ctp_degradation_intermediate_m -->
<g id="edge66" class="edge"><title>ctp&#45;&gt;ctp_degradation_intermediate_m</title>
<path fill="none" stroke="black" d="M2213.93,-237.724C2255.72,-241.978 2360.65,-252.659 2363.92,-252.992"/>
</g>
<!-- ctp_dilution_intermediate_r -->
<g id="node87" class="node"><title>ctp_dilution_intermediate_r</title>
<ellipse fill="black" stroke="black" cx="2251" cy="-219" rx="0.036" ry="0.036"/>
</g>
<!-- ctp&#45;&gt;ctp_dilution_intermediate_r -->
<g id="edge108" class="edge"><title>ctp&#45;&gt;ctp_dilution_intermediate_r</title>
<path fill="none" stroke="black" d="M2213.48,-230.714C2228.55,-225.88 2248.7,-219.419 2249.94,-219.019"/>
</g>
<!-- ctp_dilution_intermediate_m -->
<g id="node89" class="node"><title>ctp_dilution_intermediate_m</title>
<ellipse fill="black" stroke="black" cx="2365" cy="-181" rx="0.036" ry="0.036"/>
</g>
<!-- ctp&#45;&gt;ctp_dilution_intermediate_m -->
<g id="edge111" class="edge"><title>ctp&#45;&gt;ctp_dilution_intermediate_m</title>
<path fill="none" stroke="black" d="M2212.41,-227.425C2222.8,-221.901 2236.94,-214.867 2250,-210 2298.22,-192.03 2361.97,-181.338 2363.95,-181.008"/>
</g>
<!-- r1 -->
<g id="node10" class="node"><title>r1</title>
<polygon fill="none" stroke="black" points="104,-319 90,-319 90,-305 104,-305 104,-319"/>
</g>
<!-- r1_intermediate_p -->
<g id="node12" class="node"><title>r1_intermediate_p</title>
<ellipse fill="black" stroke="black" cx="141" cy="-255" rx="0.036" ry="0.036"/>
</g>
<!-- r1&#45;&gt;r1_intermediate_p -->
<g id="edge2" class="edge"><title>r1&#45;&gt;r1_intermediate_p</title>
<path fill="none" stroke="black" d="M103.491,-304.548C114.52,-289.581 138.443,-257.113 139.928,-255.098"/>
</g>
<!-- r1&#45;&gt;r1_intermediate_m -->
<g id="edge4" class="edge"><title>r1&#45;&gt;r1_intermediate_m</title>
<path fill="none" stroke="black" d="M104.286,-318.989C118.705,-334.21 155.935,-369 195,-369 195,-369 195,-369 1866,-369 1924.99,-369 1997.69,-383.535 1999.95,-383.989"/>
</g>
<!-- r1_empty -->
<g id="node11" class="node"><title>r1_empty</title>
<text text-anchor="middle" x="27" y="-308.5" font-family="Times,serif" font-size="15.00" fill="blue">Ø</text>
</g>
<!-- r1_empty&#45;&gt;r1 -->
<g id="edge1" class="edge"><title>r1_empty&#45;&gt;r1</title>
<path fill="none" stroke="black" d="M54.0961,-312C67.13,-312 81.8045,-312 89.8681,-312"/>
</g>
<!-- r1_intermediate_p&#45;&gt;cp -->
<g id="edge3" class="edge"><title>r1_intermediate_p&#45;&gt;cp</title>
<path fill="none" stroke="black" d="M142.038,-254.921C143.135,-252.666 167.456,-202.648 182.754,-171.186"/>
<polygon fill="black" stroke="black" points="185.951,-172.614 187.176,-162.091 179.656,-169.553 185.951,-172.614"/>
</g>
<!-- r2 -->
<g id="node14" class="node"><title>r2</title>
<polygon fill="none" stroke="black" points="302,-153 288,-153 288,-139 302,-139 302,-153"/>
</g>
<!-- r2_intermediate_p -->
<g id="node16" class="node"><title>r2_intermediate_p</title>
<ellipse fill="black" stroke="black" cx="365" cy="-150" rx="0.036" ry="0.036"/>
</g>
<!-- r2&#45;&gt;r2_intermediate_p -->
<g id="edge9" class="edge"><title>r2&#45;&gt;r2_intermediate_p</title>
<path fill="none" stroke="black" d="M302.275,-146.369C318.583,-147.328 361.222,-149.837 363.871,-149.992"/>
</g>
<!-- r2&#45;&gt;r2_intermediate_m -->
<g id="edge11" class="edge"><title>r2&#45;&gt;r2_intermediate_m</title>
<path fill="none" stroke="black" d="M302.124,-141.19C321.706,-126.306 385.033,-82 445,-82 445,-82 445,-82 1866,-82 1936.87,-82 1998.06,-170.178 1999.95,-172.934"/>
</g>
<!-- r2_intermediate_r&#45;&gt;r2 -->
<g id="edge7" class="edge"><title>r2_intermediate_r&#45;&gt;r2</title>
<path fill="none" stroke="black" d="M252.12,-146C253.968,-146 276.602,-146 287.803,-146"/>
</g>
<!-- r2_intermediate_p&#45;&gt;ca -->
<g id="edge10" class="edge"><title>r2_intermediate_p&#45;&gt;ca</title>
<path fill="none" stroke="black" d="M366.057,-150.001C367.493,-150.038 395.648,-150.751 417.929,-151.315"/>
<polygon fill="black" stroke="black" points="417.858,-154.814 427.943,-151.568 418.035,-147.816 417.858,-154.814"/>
</g>
<!-- r3 -->
<g id="node18" class="node"><title>r3</title>
<polygon fill="none" stroke="black" points="552,-124 538,-124 538,-110 552,-110 552,-124"/>
</g>
<!-- r3_intermediate_p -->
<g id="node20" class="node"><title>r3_intermediate_p</title>
<ellipse fill="black" stroke="black" cx="615" cy="-121" rx="0.036" ry="0.036"/>
</g>
<!-- r3&#45;&gt;r3_intermediate_p -->
<g id="edge17" class="edge"><title>r3&#45;&gt;r3_intermediate_p</title>
<path fill="none" stroke="black" d="M552.275,-117.369C568.583,-118.328 611.222,-120.837 613.871,-120.992"/>
</g>
<!-- r3&#45;&gt;r3_intermediate_m -->
<g id="edge19" class="edge"><title>r3&#45;&gt;r3_intermediate_m</title>
<path fill="none" stroke="black" d="M552.275,-119.399C568.583,-125.635 611.222,-141.938 613.871,-142.951"/>
</g>
<!-- r3_intermediate_r&#45;&gt;r3 -->
<g id="edge15" class="edge"><title>r3_intermediate_r&#45;&gt;r3</title>
<path fill="none" stroke="black" d="M502.12,-119.991C503.968,-119.859 526.602,-118.243 537.803,-117.443"/>
</g>
<!-- r3_intermediate_p&#45;&gt;dho -->
<g id="edge18" class="edge"><title>r3_intermediate_p&#45;&gt;dho</title>
<path fill="none" stroke="black" d="M616.057,-121.022C617.531,-121.601 647.134,-133.217 669.658,-142.056"/>
<polygon fill="black" stroke="black" points="668.491,-145.358 679.079,-145.752 671.048,-138.841 668.491,-145.358"/>
</g>
<!-- r4 -->
<g id="node22" class="node"><title>r4</title>
<polygon fill="none" stroke="black" points="802,-124 788,-124 788,-110 802,-110 802,-124"/>
</g>
<!-- r4_intermediate_p -->
<g id="node24" class="node"><title>r4_intermediate_p</title>
<ellipse fill="black" stroke="black" cx="865" cy="-121" rx="0.036" ry="0.036"/>
</g>
<!-- r4&#45;&gt;r4_intermediate_p -->
<g id="edge23" class="edge"><title>r4&#45;&gt;r4_intermediate_p</title>
<path fill="none" stroke="black" d="M802.275,-117.369C818.583,-118.328 861.222,-120.837 863.871,-120.992"/>
</g>
<!-- r4&#45;&gt;r4_intermediate_m -->
<g id="edge25" class="edge"><title>r4&#45;&gt;r4_intermediate_m</title>
<path fill="none" stroke="black" d="M802.275,-119.399C818.583,-125.635 861.222,-141.938 863.871,-142.951"/>
</g>
<!-- r4_intermediate_r&#45;&gt;r4 -->
<g id="edge21" class="edge"><title>r4_intermediate_r&#45;&gt;r4</title>
<path fill="none" stroke="black" d="M752.12,-119.991C753.968,-119.859 776.602,-118.243 787.803,-117.443"/>
</g>
<!-- r4_intermediate_p&#45;&gt;oro -->
<g id="edge24" class="edge"><title>r4_intermediate_p&#45;&gt;oro</title>
<path fill="none" stroke="black" d="M866.057,-121.022C867.531,-121.601 897.134,-133.217 919.658,-142.056"/>
<polygon fill="black" stroke="black" points="918.491,-145.358 929.079,-145.752 921.048,-138.841 918.491,-145.358"/>
</g>
<!-- r5 -->
<g id="node26" class="node"><title>r5</title>
<polygon fill="none" stroke="black" points="1052,-124 1038,-124 1038,-110 1052,-110 1052,-124"/>
</g>
<!-- r5_intermediate_p -->
<g id="node28" class="node"><title>r5_intermediate_p</title>
<ellipse fill="black" stroke="black" cx="1115" cy="-121" rx="0.036" ry="0.036"/>
</g>
<!-- r5&#45;&gt;r5_intermediate_p -->
<g id="edge29" class="edge"><title>r5&#45;&gt;r5_intermediate_p</title>
<path fill="none" stroke="black" d="M1052.28,-117.369C1068.58,-118.328 1111.22,-120.837 1113.87,-120.992"/>
</g>
<!-- r5&#45;&gt;r5_intermediate_m -->
<g id="edge31" class="edge"><title>r5&#45;&gt;r5_intermediate_m</title>
<path fill="none" stroke="black" d="M1052.28,-119.676C1068.58,-126.631 1111.22,-144.815 1113.87,-145.945"/>
</g>
<!-- r5_intermediate_r&#45;&gt;r5 -->
<g id="edge27" class="edge"><title>r5_intermediate_r&#45;&gt;r5</title>
<path fill="none" stroke="black" d="M1002.12,-120.989C1003.97,-120.813 1026.6,-118.657 1037.8,-117.59"/>
</g>
<!-- r5_intermediate_p&#45;&gt;omp -->
<g id="edge30" class="edge"><title>r5_intermediate_p&#45;&gt;omp</title>
<path fill="none" stroke="black" d="M1116.06,-121.022C1117.53,-121.601 1147.13,-133.217 1169.66,-142.056"/>
<polygon fill="black" stroke="black" points="1168.49,-145.358 1179.08,-145.752 1171.05,-138.841 1168.49,-145.358"/>
</g>
<!-- r6 -->
<g id="node30" class="node"><title>r6</title>
<polygon fill="none" stroke="black" points="1302,-124 1288,-124 1288,-110 1302,-110 1302,-124"/>
</g>
<!-- r6_intermediate_p -->
<g id="node32" class="node"><title>r6_intermediate_p</title>
<ellipse fill="black" stroke="black" cx="1365" cy="-121" rx="0.036" ry="0.036"/>
</g>
<!-- r6&#45;&gt;r6_intermediate_p -->
<g id="edge35" class="edge"><title>r6&#45;&gt;r6_intermediate_p</title>
<path fill="none" stroke="black" d="M1302.28,-117.369C1318.58,-118.328 1361.22,-120.837 1363.87,-120.992"/>
</g>
<!-- r6&#45;&gt;r6_intermediate_m -->
<g id="edge37" class="edge"><title>r6&#45;&gt;r6_intermediate_m</title>
<path fill="none" stroke="black" d="M1302.28,-119.399C1318.58,-125.635 1361.22,-141.938 1363.87,-142.951"/>
</g>
<!-- r6_intermediate_r&#45;&gt;r6 -->
<g id="edge33" class="edge"><title>r6_intermediate_r&#45;&gt;r6</title>
<path fill="none" stroke="black" d="M1252.12,-119.991C1253.97,-119.859 1276.6,-118.243 1287.8,-117.443"/>
</g>
<!-- r6_intermediate_p&#45;&gt;ump -->
<g id="edge36" class="edge"><title>r6_intermediate_p&#45;&gt;ump</title>
<path fill="none" stroke="black" d="M1366.06,-121.022C1367.53,-121.601 1397.13,-133.217 1419.66,-142.056"/>
<polygon fill="black" stroke="black" points="1418.49,-145.358 1429.08,-145.752 1421.05,-138.841 1418.49,-145.358"/>
</g>
<!-- r10 -->
<g id="node34" class="node"><title>r10</title>
<polygon fill="none" stroke="black" points="1552,-124 1538,-124 1538,-110 1552,-110 1552,-124"/>
</g>
<!-- r10_intermediate_p -->
<g id="node36" class="node"><title>r10_intermediate_p</title>
<ellipse fill="black" stroke="black" cx="1615" cy="-121" rx="0.036" ry="0.036"/>
</g>
<!-- r10&#45;&gt;r10_intermediate_p -->
<g id="edge41" class="edge"><title>r10&#45;&gt;r10_intermediate_p</title>
<path fill="none" stroke="black" d="M1552.28,-117.369C1568.58,-118.328 1611.22,-120.837 1613.87,-120.992"/>
</g>
<!-- r10&#45;&gt;r10_intermediate_m -->
<g id="edge43" class="edge"><title>r10&#45;&gt;r10_intermediate_m</title>
<path fill="none" stroke="black" d="M1552.28,-119.676C1568.58,-126.631 1611.22,-144.815 1613.87,-145.945"/>
</g>
<!-- r10_intermediate_r&#45;&gt;r10 -->
<g id="edge39" class="edge"><title>r10_intermediate_r&#45;&gt;r10</title>
<path fill="none" stroke="black" d="M1502.12,-119.991C1503.97,-119.859 1526.6,-118.243 1537.8,-117.443"/>
</g>
<!-- r10_intermediate_p&#45;&gt;udp -->
<g id="edge42" class="edge"><title>r10_intermediate_p&#45;&gt;udp</title>
<path fill="none" stroke="black" d="M1616.06,-121.022C1617.53,-121.601 1647.13,-133.217 1669.66,-142.056"/>
<polygon fill="black" stroke="black" points="1668.49,-145.358 1679.08,-145.752 1671.05,-138.841 1668.49,-145.358"/>
</g>
<!-- r7 -->
<g id="node38" class="node"><title>r7</title>
<polygon fill="none" stroke="black" points="1802,-124 1788,-124 1788,-110 1802,-110 1802,-124"/>
</g>
<!-- r7_intermediate_p -->
<g id="node40" class="node"><title>r7_intermediate_p</title>
<ellipse fill="black" stroke="black" cx="1865" cy="-121" rx="0.036" ry="0.036"/>
</g>
<!-- r7&#45;&gt;r7_intermediate_p -->
<g id="edge47" class="edge"><title>r7&#45;&gt;r7_intermediate_p</title>
<path fill="none" stroke="black" d="M1802.28,-117.369C1818.58,-118.328 1861.22,-120.837 1863.87,-120.992"/>
</g>
<!-- r7&#45;&gt;r7_intermediate_m -->
<g id="edge49" class="edge"><title>r7&#45;&gt;r7_intermediate_m</title>
<path fill="none" stroke="black" d="M1802.28,-119.399C1818.58,-125.635 1861.22,-141.938 1863.87,-142.951"/>
</g>
<!-- r7_intermediate_r&#45;&gt;r7 -->
<g id="edge45" class="edge"><title>r7_intermediate_r&#45;&gt;r7</title>
<path fill="none" stroke="black" d="M1752.12,-120.989C1753.97,-120.813 1776.6,-118.657 1787.8,-117.59"/>
</g>
<!-- r7_intermediate_p&#45;&gt;utp -->
<g id="edge48" class="edge"><title>r7_intermediate_p&#45;&gt;utp</title>
<path fill="none" stroke="black" d="M1866.05,-121.009C1867.09,-121.203 1883.91,-124.452 1892,-134 1927.39,-175.765 1939.17,-240.927 1943.07,-277.897"/>
<polygon fill="black" stroke="black" points="1939.6,-278.341 1944.01,-287.972 1946.57,-277.69 1939.6,-278.341"/>
</g>
<!-- utp_degradation -->
<g id="node42" class="node"><title>utp_degradation</title>
<polygon fill="none" stroke="black" points="2052,-313 2038,-313 2038,-299 2052,-299 2052,-313"/>
</g>
<!-- utp_degradation_empty -->
<g id="node44" class="node"><title>utp_degradation_empty</title>
<text text-anchor="middle" x="2115" y="-302.5" font-family="Times,serif" font-size="15.00" fill="blue">Ø</text>
</g>
<!-- utp_degradation&#45;&gt;utp_degradation_empty -->
<g id="edge53" class="edge"><title>utp_degradation&#45;&gt;utp_degradation_empty</title>
<path fill="none" stroke="black" d="M2052.28,-306C2058.28,-306 2067.85,-306 2077.68,-306"/>
<polygon fill="black" stroke="black" points="2077.88,-309.5 2087.88,-306 2077.88,-302.5 2077.88,-309.5"/>
</g>
<!-- utp_degradation&#45;&gt;utp_degradation_intermediate_m -->
<g id="edge54" class="edge"><title>utp_degradation&#45;&gt;utp_degradation_intermediate_m</title>
<path fill="none" stroke="black" d="M2052.27,-301.291C2060.24,-295.464 2074.59,-285.516 2088,-279 2098.31,-273.99 2112.14,-270.464 2113.83,-270.042"/>
</g>
<!-- utp_degradation_intermediate_r&#45;&gt;utp_degradation -->
<g id="edge51" class="edge"><title>utp_degradation_intermediate_r&#45;&gt;utp_degradation</title>
<path fill="none" stroke="black" d="M2002.12,-306C2003.97,-306 2026.6,-306 2037.8,-306"/>
</g>
<!-- r8 -->
<g id="node46" class="node"><title>r8</title>
<polygon fill="none" stroke="black" points="2052,-243 2038,-243 2038,-229 2052,-229 2052,-243"/>
</g>
<!-- r8_intermediate_p -->
<g id="node48" class="node"><title>r8_intermediate_p</title>
<ellipse fill="black" stroke="black" cx="2115" cy="-236" rx="0.036" ry="0.036"/>
</g>
<!-- r8&#45;&gt;r8_intermediate_p -->
<g id="edge58" class="edge"><title>r8&#45;&gt;r8_intermediate_p</title>
<path fill="none" stroke="black" d="M2052.28,-236C2068.58,-236 2111.22,-236 2113.87,-236"/>
</g>
<!-- r8&#45;&gt;r8_intermediate_m -->
<g id="edge60" class="edge"><title>r8&#45;&gt;r8_intermediate_m</title>
<path fill="none" stroke="black" d="M2052.28,-233.601C2068.58,-227.365 2111.22,-211.062 2113.87,-210.049"/>
</g>
<!-- r8_intermediate_r&#45;&gt;r8 -->
<g id="edge56" class="edge"><title>r8_intermediate_r&#45;&gt;r8</title>
<path fill="none" stroke="black" d="M2002.12,-238.991C2003.97,-238.859 2026.6,-237.243 2037.8,-236.443"/>
</g>
<!-- r8_intermediate_p&#45;&gt;ctp -->
<g id="edge59" class="edge"><title>r8_intermediate_p&#45;&gt;ctp</title>
<path fill="none" stroke="black" d="M2116.06,-236C2117.49,-236 2145.65,-236 2167.93,-236"/>
<polygon fill="black" stroke="black" points="2167.94,-239.5 2177.94,-236 2167.94,-232.5 2167.94,-239.5"/>
</g>
<!-- ctp_degradation -->
<g id="node50" class="node"><title>ctp_degradation</title>
<polygon fill="none" stroke="black" points="2302,-293 2288,-293 2288,-279 2302,-279 2302,-293"/>
</g>
<!-- ctp_degradation_empty -->
<g id="node52" class="node"><title>ctp_degradation_empty</title>
<text text-anchor="middle" x="2365" y="-285.5" font-family="Times,serif" font-size="15.00" fill="blue">Ø</text>
</g>
<!-- ctp_degradation&#45;&gt;ctp_degradation_empty -->
<g id="edge64" class="edge"><title>ctp_degradation&#45;&gt;ctp_degradation_empty</title>
<path fill="none" stroke="black" d="M2302.28,-286.277C2308.28,-286.542 2317.85,-286.964 2327.68,-287.398"/>
<polygon fill="black" stroke="black" points="2327.74,-290.903 2337.88,-287.848 2328.04,-283.91 2327.74,-290.903"/>
</g>
<!-- ctp_degradation&#45;&gt;ctp_degradation_intermediate_m -->
<g id="edge65" class="edge"><title>ctp_degradation&#45;&gt;ctp_degradation_intermediate_m</title>
<path fill="none" stroke="black" d="M2302.07,-282.05C2310.07,-276.957 2324.69,-268.041 2338,-262 2348.44,-257.261 2362.16,-253.497 2363.83,-253.046"/>
</g>
<!-- ctp_degradation_intermediate_r&#45;&gt;ctp_degradation -->
<g id="edge62" class="edge"><title>ctp_degradation_intermediate_r&#45;&gt;ctp_degradation</title>
<path fill="none" stroke="black" d="M2252.12,-282.011C2253.97,-282.187 2276.6,-284.343 2287.8,-285.41"/>
</g>
<!-- cp_dilution -->
<g id="node54" class="node"><title>cp_dilution</title>
<polygon fill="none" stroke="black" points="302,-61 288,-61 288,-47 302,-47 302,-61"/>
</g>
<!-- cp_dilution_empty -->
<g id="node56" class="node"><title>cp_dilution_empty</title>
<text text-anchor="middle" x="365" y="-14.5" font-family="Times,serif" font-size="15.00" fill="blue">Ø</text>
</g>
<!-- cp_dilution&#45;&gt;cp_dilution_empty -->
<g id="edge69" class="edge"><title>cp_dilution&#45;&gt;cp_dilution_empty</title>
<path fill="none" stroke="black" d="M302.275,-50.6777C308.531,-47.3659 318.661,-42.0028 328.923,-36.5704"/>
<polygon fill="black" stroke="black" points="330.679,-39.6006 337.88,-31.8284 327.404,-33.4141 330.679,-39.6006"/>
</g>
<!-- cp_dilution&#45;&gt;cp_dilution_intermediate_m -->
<g id="edge70" class="edge"><title>cp_dilution&#45;&gt;cp_dilution_intermediate_m</title>
<path fill="none" stroke="black" d="M302.275,-54C318.583,-54 361.222,-54 363.871,-54"/>
</g>
<!-- cp_dilution_intermediate_r&#45;&gt;cp_dilution -->
<g id="edge67" class="edge"><title>cp_dilution_intermediate_r&#45;&gt;cp_dilution</title>
<path fill="none" stroke="black" d="M252.12,-56.9914C253.968,-56.8594 276.602,-55.2427 287.803,-54.4427"/>
</g>
<!-- ca_dilution -->
<g id="node58" class="node"><title>ca_dilution</title>
<polygon fill="none" stroke="black" points="552,-194 538,-194 538,-180 552,-180 552,-194"/>
</g>
<!-- ca_dilution_empty -->
<g id="node60" class="node"><title>ca_dilution_empty</title>
<text text-anchor="middle" x="615" y="-182.5" font-family="Times,serif" font-size="15.00" fill="blue">Ø</text>
</g>
<!-- ca_dilution&#45;&gt;ca_dilution_empty -->
<g id="edge74" class="edge"><title>ca_dilution&#45;&gt;ca_dilution_empty</title>
<path fill="none" stroke="black" d="M552.275,-186.908C558.278,-186.819 567.849,-186.679 577.68,-186.534"/>
<polygon fill="black" stroke="black" points="577.932,-190.031 587.88,-186.384 577.829,-183.032 577.932,-190.031"/>
</g>
<!-- ca_dilution&#45;&gt;ca_dilution_intermediate_m -->
<g id="edge75" class="edge"><title>ca_dilution&#45;&gt;ca_dilution_intermediate_m</title>
<path fill="none" stroke="black" d="M552.019,-191.322C559.964,-196.884 574.524,-206.593 588,-213 598.354,-217.922 612.146,-221.525 613.829,-221.957"/>
</g>
<!-- ca_dilution_intermediate_r&#45;&gt;ca_dilution -->
<g id="edge72" class="edge"><title>ca_dilution_intermediate_r&#45;&gt;ca_dilution</title>
<path fill="none" stroke="black" d="M502.12,-183.011C503.968,-183.187 526.602,-185.343 537.803,-186.41"/>
</g>
<!-- dho_dilution -->
<g id="node62" class="node"><title>dho_dilution</title>
<polygon fill="none" stroke="black" points="802,-194 788,-194 788,-180 802,-180 802,-194"/>
</g>
<!-- dho_dilution_empty -->
<g id="node64" class="node"><title>dho_dilution_empty</title>
<text text-anchor="middle" x="865" y="-182.5" font-family="Times,serif" font-size="15.00" fill="blue">Ø</text>
</g>
<!-- dho_dilution&#45;&gt;dho_dilution_empty -->
<g id="edge79" class="edge"><title>dho_dilution&#45;&gt;dho_dilution_empty</title>
<path fill="none" stroke="black" d="M802.275,-186.908C808.278,-186.819 817.849,-186.679 827.68,-186.534"/>
<polygon fill="black" stroke="black" points="827.932,-190.031 837.88,-186.384 827.829,-183.032 827.932,-190.031"/>
</g>
<!-- dho_dilution&#45;&gt;dho_dilution_intermediate_m -->
<g id="edge80" class="edge"><title>dho_dilution&#45;&gt;dho_dilution_intermediate_m</title>
<path fill="none" stroke="black" d="M802.019,-191.322C809.964,-196.884 824.524,-206.593 838,-213 848.354,-217.922 862.146,-221.525 863.829,-221.957"/>
</g>
<!-- dho_dilution_intermediate_r&#45;&gt;dho_dilution -->
<g id="edge77" class="edge"><title>dho_dilution_intermediate_r&#45;&gt;dho_dilution</title>
<path fill="none" stroke="black" d="M752.12,-184.009C753.968,-184.141 776.602,-185.757 787.803,-186.557"/>
</g>
<!-- oro_dilution -->
<g id="node66" class="node"><title>oro_dilution</title>
<polygon fill="none" stroke="black" points="1052,-194 1038,-194 1038,-180 1052,-180 1052,-194"/>
</g>
<!-- oro_dilution_empty -->
<g id="node68" class="node"><title>oro_dilution_empty</title>
<text text-anchor="middle" x="1115" y="-182.5" font-family="Times,serif" font-size="15.00" fill="blue">Ø</text>
</g>
<!-- oro_dilution&#45;&gt;oro_dilution_empty -->
<g id="edge84" class="edge"><title>oro_dilution&#45;&gt;oro_dilution_empty</title>
<path fill="none" stroke="black" d="M1052.28,-186.908C1058.28,-186.819 1067.85,-186.679 1077.68,-186.534"/>
<polygon fill="black" stroke="black" points="1077.93,-190.031 1087.88,-186.384 1077.83,-183.032 1077.93,-190.031"/>
</g>
<!-- oro_dilution&#45;&gt;oro_dilution_intermediate_m -->
<g id="edge85" class="edge"><title>oro_dilution&#45;&gt;oro_dilution_intermediate_m</title>
<path fill="none" stroke="black" d="M1052.02,-191.322C1059.96,-196.884 1074.52,-206.593 1088,-213 1098.35,-217.922 1112.15,-221.525 1113.83,-221.957"/>
</g>
<!-- oro_dilution_intermediate_r&#45;&gt;oro_dilution -->
<g id="edge82" class="edge"><title>oro_dilution_intermediate_r&#45;&gt;oro_dilution</title>
<path fill="none" stroke="black" d="M1002.12,-184.009C1003.97,-184.141 1026.6,-185.757 1037.8,-186.557"/>
</g>
<!-- omp_dilution -->
<g id="node70" class="node"><title>omp_dilution</title>
<polygon fill="none" stroke="black" points="1302,-194 1288,-194 1288,-180 1302,-180 1302,-194"/>
</g>
<!-- omp_dilution_empty -->
<g id="node72" class="node"><title>omp_dilution_empty</title>
<text text-anchor="middle" x="1365" y="-182.5" font-family="Times,serif" font-size="15.00" fill="blue">Ø</text>
</g>
<!-- omp_dilution&#45;&gt;omp_dilution_empty -->
<g id="edge89" class="edge"><title>omp_dilution&#45;&gt;omp_dilution_empty</title>
<path fill="none" stroke="black" d="M1302.28,-186.908C1308.28,-186.819 1317.85,-186.679 1327.68,-186.534"/>
<polygon fill="black" stroke="black" points="1327.93,-190.031 1337.88,-186.384 1327.83,-183.032 1327.93,-190.031"/>
</g>
<!-- omp_dilution&#45;&gt;omp_dilution_intermediate_m -->
<g id="edge90" class="edge"><title>omp_dilution&#45;&gt;omp_dilution_intermediate_m</title>
<path fill="none" stroke="black" d="M1302.02,-191.322C1309.96,-196.884 1324.52,-206.593 1338,-213 1348.35,-217.922 1362.15,-221.525 1363.83,-221.957"/>
</g>
<!-- omp_dilution_intermediate_r&#45;&gt;omp_dilution -->
<g id="edge87" class="edge"><title>omp_dilution_intermediate_r&#45;&gt;omp_dilution</title>
<path fill="none" stroke="black" d="M1252.12,-184.009C1253.97,-184.141 1276.6,-185.757 1287.8,-186.557"/>
</g>
<!-- ump_dilution -->
<g id="node74" class="node"><title>ump_dilution</title>
<polygon fill="none" stroke="black" points="1552,-194 1538,-194 1538,-180 1552,-180 1552,-194"/>
</g>
<!-- ump_dilution_empty -->
<g id="node76" class="node"><title>ump_dilution_empty</title>
<text text-anchor="middle" x="1615" y="-182.5" font-family="Times,serif" font-size="15.00" fill="blue">Ø</text>
</g>
<!-- ump_dilution&#45;&gt;ump_dilution_empty -->
<g id="edge94" class="edge"><title>ump_dilution&#45;&gt;ump_dilution_empty</title>
<path fill="none" stroke="black" d="M1552.28,-186.908C1558.28,-186.819 1567.85,-186.679 1577.68,-186.534"/>
<polygon fill="black" stroke="black" points="1577.93,-190.031 1587.88,-186.384 1577.83,-183.032 1577.93,-190.031"/>
</g>
<!-- ump_dilution&#45;&gt;ump_dilution_intermediate_m -->
<g id="edge95" class="edge"><title>ump_dilution&#45;&gt;ump_dilution_intermediate_m</title>
<path fill="none" stroke="black" d="M1552.02,-191.322C1559.96,-196.884 1574.52,-206.593 1588,-213 1598.35,-217.922 1612.15,-221.525 1613.83,-221.957"/>
</g>
<!-- ump_dilution_intermediate_r&#45;&gt;ump_dilution -->
<g id="edge92" class="edge"><title>ump_dilution_intermediate_r&#45;&gt;ump_dilution</title>
<path fill="none" stroke="black" d="M1502.12,-183.011C1503.97,-183.187 1526.6,-185.343 1537.8,-186.41"/>
</g>
<!-- udp_dilution -->
<g id="node78" class="node"><title>udp_dilution</title>
<polygon fill="none" stroke="black" points="1802,-194 1788,-194 1788,-180 1802,-180 1802,-194"/>
</g>
<!-- udp_dilution_empty -->
<g id="node80" class="node"><title>udp_dilution_empty</title>
<text text-anchor="middle" x="1865" y="-182.5" font-family="Times,serif" font-size="15.00" fill="blue">Ø</text>
</g>
<!-- udp_dilution&#45;&gt;udp_dilution_empty -->
<g id="edge99" class="edge"><title>udp_dilution&#45;&gt;udp_dilution_empty</title>
<path fill="none" stroke="black" d="M1802.28,-186.908C1808.28,-186.819 1817.85,-186.679 1827.68,-186.534"/>
<polygon fill="black" stroke="black" points="1827.93,-190.031 1837.88,-186.384 1827.83,-183.032 1827.93,-190.031"/>
</g>
<!-- udp_dilution&#45;&gt;udp_dilution_intermediate_m -->
<g id="edge100" class="edge"><title>udp_dilution&#45;&gt;udp_dilution_intermediate_m</title>
<path fill="none" stroke="black" d="M1802.02,-191.322C1809.96,-196.884 1824.52,-206.593 1838,-213 1848.35,-217.922 1862.15,-221.525 1863.83,-221.957"/>
</g>
<!-- udp_dilution_intermediate_r&#45;&gt;udp_dilution -->
<g id="edge97" class="edge"><title>udp_dilution_intermediate_r&#45;&gt;udp_dilution</title>
<path fill="none" stroke="black" d="M1752.12,-184.009C1753.97,-184.141 1776.6,-185.757 1787.8,-186.557"/>
</g>
<!-- utp_dilution -->
<g id="node82" class="node"><title>utp_dilution</title>
<polygon fill="none" stroke="black" points="2052,-383 2038,-383 2038,-369 2052,-369 2052,-383"/>
</g>
<!-- utp_dilution_empty -->
<g id="node84" class="node"><title>utp_dilution_empty</title>
<text text-anchor="middle" x="2115" y="-374.5" font-family="Times,serif" font-size="15.00" fill="blue">Ø</text>
</g>
<!-- utp_dilution&#45;&gt;utp_dilution_empty -->
<g id="edge104" class="edge"><title>utp_dilution&#45;&gt;utp_dilution_empty</title>
<path fill="none" stroke="black" d="M2052.28,-376.185C2058.28,-376.361 2067.85,-376.643 2077.68,-376.932"/>
<polygon fill="black" stroke="black" points="2077.78,-380.436 2087.88,-377.232 2077.99,-373.439 2077.78,-380.436"/>
</g>
<!-- utp_dilution&#45;&gt;utp_dilution_intermediate_m -->
<g id="edge105" class="edge"><title>utp_dilution&#45;&gt;utp_dilution_intermediate_m</title>
<path fill="none" stroke="black" d="M2052.05,-371.864C2060.02,-366.536 2074.61,-357.223 2088,-351 2098.4,-346.168 2112.15,-342.486 2113.83,-342.044"/>
</g>
<!-- utp_dilution_intermediate_r&#45;&gt;utp_dilution -->
<g id="edge102" class="edge"><title>utp_dilution_intermediate_r&#45;&gt;utp_dilution</title>
<path fill="none" stroke="black" d="M2002.12,-366.029C2003.97,-366.469 2026.6,-371.858 2037.8,-374.524"/>
</g>
<!-- ctp_dilution -->
<g id="node86" class="node"><title>ctp_dilution</title>
<polygon fill="none" stroke="black" points="2302,-223 2288,-223 2288,-209 2302,-209 2302,-223"/>
</g>
<!-- ctp_dilution_empty -->
<g id="node88" class="node"><title>ctp_dilution_empty</title>
<text text-anchor="middle" x="2365" y="-213.5" font-family="Times,serif" font-size="15.00" fill="blue">Ø</text>
</g>
<!-- ctp_dilution&#45;&gt;ctp_dilution_empty -->
<g id="edge109" class="edge"><title>ctp_dilution&#45;&gt;ctp_dilution_empty</title>
<path fill="none" stroke="black" d="M2302.28,-216.092C2308.28,-216.181 2317.85,-216.321 2327.68,-216.466"/>
<polygon fill="black" stroke="black" points="2327.83,-219.968 2337.88,-216.616 2327.93,-212.969 2327.83,-219.968"/>
</g>
<!-- ctp_dilution&#45;&gt;ctp_dilution_intermediate_m -->
<g id="edge110" class="edge"><title>ctp_dilution&#45;&gt;ctp_dilution_intermediate_m</title>
<path fill="none" stroke="black" d="M2302.02,-211.678C2309.96,-206.116 2324.52,-196.407 2338,-190 2348.35,-185.078 2362.15,-181.475 2363.83,-181.043"/>
</g>
<!-- ctp_dilution_intermediate_r&#45;&gt;ctp_dilution -->
<g id="edge107" class="edge"><title>ctp_dilution_intermediate_r&#45;&gt;ctp_dilution</title>
<path fill="none" stroke="black" d="M2252.12,-218.991C2253.97,-218.859 2276.6,-217.243 2287.8,-216.443"/>
</g>
</g>
</svg>
