<?xml version="1.0" encoding="UTF-8" standalone="no"?>
<!DOCTYPE svg PUBLIC "-//W3C//DTD SVG 1.1//EN"
 "http://www.w3.org/Graphics/SVG/1.1/DTD/svg11.dtd">
<!-- Generated by graphviz version 2.24.0 (20090616.2323)
 -->
<!-- Title: G Pages: 1 -->
<svg width="842pt" height="152pt"
 viewBox="0.00 0.00 842.00 152.00" xmlns="http://www.w3.org/2000/svg" xmlns:xlink="http://www.w3.org/1999/xlink">
<g id="graph1" class="graph" transform="scale(1 1) rotate(0) translate(4 148)">
<title>G</title>
<polygon fill="white" stroke="white" points="-4,5 -4,-148 839,-148 839,5 -4,5"/>
<!-- x -->
<g id="node1" class="node"><title>x</title>
<polyline fill="none" stroke="black" points="466,-46 436,-46 "/>
<path fill="none" stroke="black" d="M436,-46C430,-46 424,-40 424,-34"/>
<polyline fill="none" stroke="black" points="424,-34 424,-22 "/>
<path fill="none" stroke="black" d="M424,-22C424,-16 430,-10 436,-10"/>
<polyline fill="none" stroke="black" points="436,-10 466,-10 "/>
<path fill="none" stroke="black" d="M466,-10C472,-10 478,-16 478,-22"/>
<polyline fill="none" stroke="black" points="478,-22 478,-34 "/>
<path fill="none" stroke="black" d="M478,-34C478,-40 472,-46 466,-46"/>
<text text-anchor="middle" x="451" y="-25.5" font-family="Times Roman,serif" font-size="10.00">p53</text>
</g>
<!-- R2_intermediate_r -->
<g id="node11" class="node"><title>R2_intermediate_r</title>
<ellipse fill="black" stroke="black" cx="514" cy="-26" rx="0.036" ry="0.036"/>
</g>
<!-- x&#45;&gt;R2_intermediate_r -->
<g id="edge10" class="edge"><title>x&#45;&gt;R2_intermediate_r</title>
<path fill="none" stroke="black" d="M478.083,-27.1402C494.625,-26.6151 512.824,-26.0373 513.945,-26.0017"/>
</g>
<!-- R3_intermediate_r -->
<g id="node17" class="node"><title>R3_intermediate_r</title>
<ellipse fill="black" stroke="black" cx="514" cy="-47" rx="0.036" ry="0.036"/>
</g>
<!-- x&#45;&gt;R3_intermediate_r -->
<g id="edge16" class="edge"><title>x&#45;&gt;R3_intermediate_r</title>
<path fill="none" stroke="black" d="M478.083,-36.168C494.625,-41.1567 512.824,-46.6454 513.945,-46.9835"/>
</g>
<!-- R4_intermediate_m -->
<g id="node31" class="node"><title>R4_intermediate_m</title>
<ellipse fill="black" stroke="black" cx="514" cy="-68" rx="0.036" ry="0.036"/>
</g>
<!-- x&#45;&gt;R4_intermediate_m -->
<g id="edge32" class="edge"><title>x&#45;&gt;R4_intermediate_m</title>
<path fill="none" stroke="black" d="M478.083,-45.1957C494.625,-55.6983 512.824,-67.2534 513.945,-67.9654"/>
</g>
<!-- y -->
<g id="node2" class="node"><title>y</title>
<polyline fill="none" stroke="black" points="592,-138 562,-138 "/>
<path fill="none" stroke="black" d="M562,-138C556,-138 550,-132 550,-126"/>
<polyline fill="none" stroke="black" points="550,-126 550,-114 "/>
<path fill="none" stroke="black" d="M550,-114C550,-108 556,-102 562,-102"/>
<polyline fill="none" stroke="black" points="562,-102 592,-102 "/>
<path fill="none" stroke="black" d="M592,-102C598,-102 604,-108 604,-114"/>
<polyline fill="none" stroke="black" points="604,-114 604,-126 "/>
<path fill="none" stroke="black" d="M604,-126C604,-132 598,-138 592,-138"/>
<text text-anchor="middle" x="577" y="-117.5" font-family="Times Roman,serif" font-size="10.00">Mdm2</text>
</g>
<!-- R3_intermediate_m -->
<g id="node22" class="node"><title>R3_intermediate_m</title>
<ellipse fill="black" stroke="black" cx="667" cy="-108" rx="0.036" ry="0.036"/>
</g>
<!-- y&#45;&gt;R3_intermediate_m -->
<g id="edge22" class="edge"><title>y&#45;&gt;R3_intermediate_m</title>
<path fill="none" stroke="black" d="M604.003,-116.4C629.685,-112.975 664.729,-108.303 666.895,-108.014"/>
</g>
<!-- R6_intermediate_r -->
<g id="node42" class="node"><title>R6_intermediate_r</title>
<ellipse fill="black" stroke="black" cx="667" cy="-126" rx="0.036" ry="0.036"/>
</g>
<!-- y&#45;&gt;R6_intermediate_r -->
<g id="edge44" class="edge"><title>y&#45;&gt;R6_intermediate_r</title>
<path fill="none" stroke="black" d="M613.99,-122.466C637.932,-124.062 665,-125.867 666.895,-125.993"/>
<polygon fill="black" stroke="black" points="614.214,-118.973 604.003,-121.8 613.748,-125.958 614.214,-118.973"/>
</g>
<!-- y0 -->
<g id="node3" class="node"><title>y0</title>
<ellipse fill="none" stroke="black" cx="290" cy="-120" rx="59.2102" ry="18"/>
<text text-anchor="middle" x="290" y="-117.5" font-family="Times Roman,serif" font-size="10.00">precursor Mdm2</text>
</g>
<!-- R5_intermediate_r -->
<g id="node35" class="node"><title>R5_intermediate_r</title>
<ellipse fill="black" stroke="black" cx="387" cy="-120" rx="0.036" ry="0.036"/>
</g>
<!-- y0&#45;&gt;R5_intermediate_r -->
<g id="edge36" class="edge"><title>y0&#45;&gt;R5_intermediate_r</title>
<path fill="none" stroke="black" d="M349.775,-120C369.112,-120 385.918,-120 386.95,-120"/>
</g>
<!-- R1 -->
<g id="node4" class="node"><title>R1</title>
<polygon fill="none" stroke="black" points="297,-35 283,-35 283,-21 297,-21 297,-35"/>
</g>
<!-- R1_intermediate_p -->
<g id="node7" class="node"><title>R1_intermediate_p</title>
<ellipse fill="black" stroke="black" cx="387" cy="-28" rx="0.036" ry="0.036"/>
</g>
<!-- R1&#45;&gt;R1_intermediate_p -->
<g id="edge4" class="edge"><title>R1&#45;&gt;R1_intermediate_p</title>
<path fill="none" stroke="black" d="M297.291,-28C319.497,-28 384.912,-28 386.951,-28"/>
</g>
<!-- R1_empty -->
<g id="node5" class="node"><title>R1_empty</title>
<text text-anchor="middle" x="167" y="-23.5" font-family="Times Roman,serif" font-size="15.00" fill="blue">Ø</text>
</g>
<!-- R1_empty&#45;&gt;R1 -->
<g id="edge2" class="edge"><title>R1_empty&#45;&gt;R1</title>
<path fill="none" stroke="black" d="M194.298,-28C222.891,-28 265.947,-28 282.838,-28"/>
</g>
<!-- R1_intermediate_p&#45;&gt;x -->
<g id="edge6" class="edge"><title>R1_intermediate_p&#45;&gt;x</title>
<path fill="none" stroke="black" d="M387.046,-28C387.885,-28 399.971,-28 413.414,-28"/>
<polygon fill="black" stroke="black" points="413.794,-31.5001 423.794,-28 413.794,-24.5001 413.794,-31.5001"/>
</g>
<!-- R2 -->
<g id="node10" class="node"><title>R2</title>
<polygon fill="none" stroke="black" points="584,-32 570,-32 570,-18 584,-18 584,-32"/>
</g>
<!-- R2_empty -->
<g id="node14" class="node"><title>R2_empty</title>
<text text-anchor="middle" x="667" y="-13.5" font-family="Times Roman,serif" font-size="15.00" fill="blue">Ø</text>
</g>
<!-- R2&#45;&gt;R2_empty -->
<g id="edge12" class="edge"><title>R2&#45;&gt;R2_empty</title>
<path fill="none" stroke="black" d="M584.062,-24.4507C593.877,-23.6874 612.359,-22.2499 629.389,-20.9253"/>
<polygon fill="black" stroke="black" points="630.016,-24.3872 639.715,-20.1222 629.473,-17.4083 630.016,-24.3872"/>
</g>
<!-- R2_intermediate_r&#45;&gt;R2 -->
<g id="edge8" class="edge"><title>R2_intermediate_r&#45;&gt;R2</title>
<path fill="none" stroke="black" d="M514.046,-25.9993C515.551,-25.9754 553.877,-25.367 569.979,-25.1114"/>
</g>
<!-- R3 -->
<g id="node16" class="node"><title>R3</title>
<polygon fill="none" stroke="black" points="584,-79 570,-79 570,-65 584,-65 584,-79"/>
</g>
<!-- R3_empty -->
<g id="node20" class="node"><title>R3_empty</title>
<text text-anchor="middle" x="667" y="-67.5" font-family="Times Roman,serif" font-size="15.00" fill="blue">Ø</text>
</g>
<!-- R3&#45;&gt;R3_empty -->
<g id="edge18" class="edge"><title>R3&#45;&gt;R3_empty</title>
<path fill="none" stroke="black" d="M584.062,-72C593.877,-72 612.359,-72 629.389,-72"/>
<polygon fill="black" stroke="black" points="629.715,-75.5001 639.715,-72 629.715,-68.5001 629.715,-75.5001"/>
</g>
<!-- R3&#45;&gt;R3_intermediate_m -->
<g id="edge20" class="edge"><title>R3&#45;&gt;R3_intermediate_m</title>
<path fill="none" stroke="black" d="M595.425,-80.3762C607.899,-85.9279 624.81,-93.2249 640,-99 651.454,-103.355 666.055,-107.718 666.956,-107.987"/>
<polygon fill="none" stroke="black" points="595.231,-80.2889 588.118,-81.4711 584.29,-75.3594 591.404,-74.1772 595.231,-80.2889"/>
</g>
<!-- R3_intermediate_r&#45;&gt;R3 -->
<g id="edge14" class="edge"><title>R3_intermediate_r&#45;&gt;R3</title>
<path fill="none" stroke="black" d="M514.046,-47.0181C515.551,-47.6155 553.877,-62.8243 569.979,-69.214"/>
</g>
<!-- R4 -->
<g id="node25" class="node"><title>R4</title>
<polygon fill="none" stroke="black" points="104,-99 90,-99 90,-85 104,-85 104,-99"/>
</g>
<!-- R4_intermediate_p -->
<g id="node28" class="node"><title>R4_intermediate_p</title>
<ellipse fill="black" stroke="black" cx="167" cy="-111" rx="0.036" ry="0.036"/>
</g>
<!-- R4&#45;&gt;R4_intermediate_p -->
<g id="edge26" class="edge"><title>R4&#45;&gt;R4_intermediate_p</title>
<path fill="none" stroke="black" d="M104.228,-93.9618C121.554,-98.6645 164.221,-110.246 166.871,-110.965"/>
</g>
<!-- R4&#45;&gt;R4_intermediate_m -->
<g id="edge30" class="edge"><title>R4&#45;&gt;R4_intermediate_m</title>
<path fill="none" stroke="black" d="M116.206,-89.015C150.843,-83.8989 226.113,-74 290,-74 290,-74 290,-74 387,-74 442.624,-74 511.801,-68.186 513.949,-68.0043"/>
<polygon fill="none" stroke="black" points="116.203,-89.0154 110.872,-93.8717 104.339,-90.819 109.67,-85.9626 116.203,-89.0154"/>
</g>
<!-- R4_empty -->
<g id="node26" class="node"><title>R4_empty</title>
<text text-anchor="middle" x="27" y="-87.5" font-family="Times Roman,serif" font-size="15.00" fill="blue">Ø</text>
</g>
<!-- R4_empty&#45;&gt;R4 -->
<g id="edge24" class="edge"><title>R4_empty&#45;&gt;R4</title>
<path fill="none" stroke="black" d="M54.2643,-92C67.1627,-92 81.5367,-92 89.8947,-92"/>
</g>
<!-- R4_intermediate_p&#45;&gt;y0 -->
<g id="edge28" class="edge"><title>R4_intermediate_p&#45;&gt;y0</title>
<path fill="none" stroke="black" d="M167.089,-111.007C168.787,-111.131 194.466,-113.01 221.916,-115.018"/>
<polygon fill="black" stroke="black" points="221.839,-118.522 232.068,-115.761 222.35,-111.541 221.839,-118.522"/>
</g>
<!-- R5 -->
<g id="node34" class="node"><title>R5</title>
<polygon fill="none" stroke="black" points="458,-127 444,-127 444,-113 458,-113 458,-127"/>
</g>
<!-- R5_intermediate_p -->
<g id="node38" class="node"><title>R5_intermediate_p</title>
<ellipse fill="black" stroke="black" cx="514" cy="-120" rx="0.036" ry="0.036"/>
</g>
<!-- R5&#45;&gt;R5_intermediate_p -->
<g id="edge38" class="edge"><title>R5&#45;&gt;R5_intermediate_p</title>
<path fill="none" stroke="black" d="M458.227,-120C474.258,-120 511.571,-120 513.887,-120"/>
</g>
<!-- R5_intermediate_r&#45;&gt;R5 -->
<g id="edge34" class="edge"><title>R5_intermediate_r&#45;&gt;R5</title>
<path fill="none" stroke="black" d="M387.046,-120C388.576,-120 427.51,-120 443.868,-120"/>
</g>
<!-- R5_intermediate_p&#45;&gt;y -->
<g id="edge40" class="edge"><title>R5_intermediate_p&#45;&gt;y</title>
<path fill="none" stroke="black" d="M514.046,-120C514.865,-120 526.597,-120 539.716,-120"/>
<polygon fill="black" stroke="black" points="539.86,-123.5 549.86,-120 539.859,-116.5 539.86,-123.5"/>
</g>
<!-- R6 -->
<g id="node41" class="node"><title>R6</title>
<polygon fill="none" stroke="black" points="744,-133 730,-133 730,-119 744,-119 744,-133"/>
</g>
<!-- R6_empty -->
<g id="node45" class="node"><title>R6_empty</title>
<text text-anchor="middle" x="807" y="-121.5" font-family="Times Roman,serif" font-size="15.00" fill="blue">Ø</text>
</g>
<!-- R6&#45;&gt;R6_empty -->
<g id="edge46" class="edge"><title>R6&#45;&gt;R6_empty</title>
<path fill="none" stroke="black" d="M744.228,-126C750.45,-126 759.94,-126 769.672,-126"/>
<polygon fill="black" stroke="black" points="769.773,-129.5 779.773,-126 769.773,-122.5 769.773,-129.5"/>
</g>
<!-- R6_intermediate_r&#45;&gt;R6 -->
<g id="edge42" class="edge"><title>R6_intermediate_r&#45;&gt;R6</title>
<path fill="none" stroke="black" d="M667.051,-126C668.748,-126 712.582,-126 729.98,-126"/>
</g>
</g>
</svg>
