<?xml version="1.0" encoding="utf-8"?>
<!-- Generator: Adobe Illustrator 14.0.0, SVG Export Plug-In . SVG Version: 6.00 Build 43363)  -->
<!DOCTYPE svg PUBLIC "-//W3C//DTD SVG 1.1//EN" "http://www.w3.org/Graphics/SVG/1.1/DTD/svg11.dtd">
<svg version="1.1" id="Layer_1" xmlns="http://www.w3.org/2000/svg" xmlns:xlink="http://www.w3.org/1999/xlink" x="0px" y="0px"
	 width="901.316px" height="592.105px" viewBox="0 0 901.316 592.105" enable-background="new 0 0 901.316 592.105"
	 xml:space="preserve">
<g>
	<ellipse fill="#CDE1F0" stroke="#231F20" cx="183.571" cy="246.927" rx="27.036" ry="16.276"/>
	<ellipse fill="#CDE1F0" stroke="#231F20" cx="196.894" cy="291.586" rx="27.036" ry="16.277"/>
	<ellipse fill="#CDE1F0" stroke="#231F20" cx="247.502" cy="258.896" rx="27.036" ry="16.276"/>
	<ellipse fill="#CDE1F0" stroke="#231F20" cx="258.734" cy="301.067" rx="27.036" ry="16.277"/>
	<ellipse fill="#CDE1F0" stroke="#231F20" cx="134.828" cy="280.752" rx="27.036" ry="16.277"/>
	<ellipse fill="#CDE1F0" stroke="#231F20" cx="160.549" cy="324.787" rx="27.035" ry="16.277"/>
	<ellipse fill="#CDE1F0" stroke="#231F20" cx="228.782" cy="335.048" rx="27.036" ry="16.277"/>
</g>
<g>
	<g>
		<line fill="none" x1="8.746" y1="304.261" x2="87.413" y2="304.261"/>
		<polygon fill="#EF3A40" points="84.604,307.964 86.177,304.261 84.604,300.557 93.382,304.261 		"/>
	</g>
	<g>
		<line fill="none" stroke="#231F20" x1="8.746" y1="304.261" x2="87.413" y2="304.261"/>
		<polygon fill="#231F20" points="84.604,307.964 86.177,304.261 84.604,300.557 93.382,304.261 		"/>
	</g>
</g>
<g>
	<g>
		<line fill="none" x1="495.746" y1="301.261" x2="605.746" y2="301.261"/>
		<polygon fill="#EF3A40" points="602.938,304.964 604.51,301.261 602.938,297.557 611.715,301.261 		"/>
	</g>
	<g>
		<line fill="none" stroke="#231F20" x1="495.746" y1="301.261" x2="605.746" y2="301.261"/>
		<polygon fill="#231F20" points="602.938,304.964 604.51,301.261 602.938,297.557 611.715,301.261 		"/>
	</g>
</g>
<g>
	<g>
		<path fill="none" stroke="#010101" d="M262.247,230.262c17.014-2,38.774-26.5,45.5-52"/>
		<polygon fill="#010101" points="310.612,181.923 307.433,179.457 303.45,180.033 309.27,172.49 		"/>
	</g>
</g>
<g>
	<g>
		<path fill="none" stroke="#010101" d="M622.246,411.261c-31.5,8.5-54.5,46-61,69.5"/>
		<polygon fill="#010101" points="558.426,477.067 561.576,479.569 565.564,479.041 559.654,486.514 		"/>
	</g>
</g>
<g>
	<g>
		<path fill="none" stroke="#010101" d="M626.078,233.261c-44.969-38.395-138-33.736-191.236,0.598"/>
		<polygon fill="#010101" points="435.196,229.225 435.881,233.188 439.21,235.449 429.827,237.094 		"/>
	</g>
</g>
<line fill="none" stroke="#EB2227" stroke-dasharray="3,3" x1="597.024" y1="357.261" x2="549.08" y2="306.928"/>
<g>
	<ellipse fill="#6BA4D3" stroke="#231F20" cx="645.584" cy="276.662" rx="27.035" ry="16.277"/>
	<ellipse fill="#EF3A40" stroke="#231F20" cx="645.582" cy="276.662" rx="13.141" ry="7.91"/>
</g>
<g>
	<ellipse fill="#6BA4D3" stroke="#231F20" cx="687.328" cy="247.17" rx="27.037" ry="16.276"/>
	<ellipse fill="#EF3A40" stroke="#231F20" cx="687.328" cy="247.17" rx="13.141" ry="7.91"/>
</g>
<g>
	<ellipse fill="#6BA4D3" stroke="#231F20" cx="669.639" cy="319.698" rx="27.035" ry="16.276"/>
	<ellipse fill="#EF3A40" stroke="#231F20" cx="669.637" cy="319.698" rx="13.141" ry="7.91"/>
</g>
<g>
	<ellipse fill="#6BA4D3" stroke="#231F20" cx="706.746" cy="287.261" rx="27.037" ry="16.276"/>
	<ellipse fill="#EF3A40" stroke="#231F20" cx="706.746" cy="287.261" rx="13.139" ry="7.91"/>
</g>
<g>
	<ellipse fill="#6BA4D3" stroke="#231F20" cx="733.863" cy="328.625" rx="27.035" ry="16.276"/>
	<ellipse fill="#EF3A40" stroke="#231F20" cx="733.863" cy="328.625" rx="13.139" ry="7.91"/>
</g>
<g>
	<ellipse fill="#6BA4D3" stroke="#231F20" cx="767.156" cy="297.31" rx="27.037" ry="16.276"/>
	<ellipse fill="#EF3A40" stroke="#231F20" cx="767.156" cy="297.31" rx="13.141" ry="7.91"/>
</g>
<g>
	<ellipse fill="#6BA4D3" stroke="#231F20" cx="754.414" cy="258.081" rx="27.035" ry="16.276"/>
	<ellipse fill="#EF3A40" stroke="#231F20" cx="754.412" cy="258.081" rx="13.141" ry="7.91"/>
</g>
<g>
	<ellipse fill="#EF3A40" stroke="#231F20" cx="433.594" cy="324.357" rx="13.141" ry="7.91"/>
	<ellipse fill="#EF3A40" stroke="#231F20" cx="383.844" cy="275.107" rx="13.141" ry="7.91"/>
	<ellipse fill="#EF3A40" stroke="#231F20" cx="467.094" cy="290.357" rx="13.143" ry="7.91"/>
	<ellipse fill="#EF3A40" stroke="#231F20" cx="380.844" cy="319.857" rx="13.141" ry="7.91"/>
	<ellipse fill="#EF3A40" stroke="#231F20" cx="415.094" cy="264.857" rx="13.141" ry="7.91"/>
	<ellipse fill="#EF3A40" stroke="#231F20" cx="411.344" cy="286.357" rx="13.141" ry="7.91"/>
	<ellipse fill="#EF3A40" stroke="#231F20" cx="441.594" cy="279.107" rx="13.14" ry="7.91"/>
	<ellipse fill="#EF3A40" stroke="#231F20" cx="438.844" cy="302.607" rx="13.14" ry="7.91"/>
	<ellipse fill="#EF3A40" stroke="#231F20" cx="408.344" cy="310.107" rx="13.141" ry="7.91"/>
	<ellipse fill="#EF3A40" stroke="#231F20" cx="381.844" cy="297.607" rx="13.141" ry="7.91"/>
	<ellipse fill="#EF3A40" stroke="#231F20" cx="357.094" cy="284.107" rx="13.141" ry="7.91"/>
	<ellipse fill="#EF3A40" stroke="#231F20" cx="445.344" cy="259.607" rx="13.142" ry="7.91"/>
	<ellipse fill="#EF3A40" stroke="#231F20" cx="359.01" cy="260.189" rx="13.141" ry="7.911"/>
	<ellipse fill="#EF3A40" stroke="#231F20" cx="352.677" cy="307.857" rx="13.141" ry="7.91"/>
	<ellipse fill="#EF3A40" stroke="#231F20" cx="464.344" cy="315.523" rx="13.143" ry="7.911"/>
	<ellipse fill="#EF3A40" stroke="#231F20" cx="472.01" cy="270.523" rx="13.143" ry="7.911"/>
	<ellipse fill="#EF3A40" stroke="#231F20" cx="387.51" cy="254.689" rx="13.141" ry="7.911"/>
</g>
<g>
	<path fill="#010101" d="M313.231,283.706v8.459h8.135v2.16h-8.135v8.531h-2.305v-8.531h-8.135v-2.16h8.135v-8.459H313.231z"/>
</g>
<g>
	<g>
		<path fill="none" stroke="#010101" d="M238.855,371.407c63.862,88.965,394.047,85.543,452.475-8.555"/>
		<polygon fill="#010101" points="243.5,371.528 239.576,372.409 237.484,375.848 235.374,366.557 		"/>
	</g>
</g>
<g>
	<g>
		<line fill="none" stroke="#010101" x1="459.746" y1="334.261" x2="491.246" y2="374.261"/>
		<polygon fill="#010101" points="486.6,374.345 490.48,373.29 492.418,369.763 494.939,378.95 		"/>
	</g>
</g>
<line fill="none" stroke="#EB2227" x1="544.08" y1="306.761" x2="554.414" y2="306.761"/>
<g>
	<path fill="#EB2227" d="M535.516,315.721v0.779h-2.963v-0.779H535.516z"/>
	<path fill="#EB2227" d="M537.102,313.55l1.139,3.262c0.191,0.527,0.348,1.007,0.469,1.487h0.035c0.131-0.48,0.299-0.96,0.492-1.487
		l1.127-3.262h1.104l-2.279,5.805h-1.008l-2.207-5.805H537.102z"/>
	<path fill="#EB2227" d="M542.934,316.644c0.023,1.427,0.936,2.015,1.99,2.015c0.756,0,1.211-0.132,1.607-0.3l0.18,0.756
		c-0.373,0.168-1.008,0.372-1.932,0.372c-1.787,0-2.855-1.187-2.855-2.938s1.031-3.13,2.725-3.13c1.895,0,2.396,1.667,2.396,2.734
		c0,0.216-0.023,0.384-0.035,0.492L542.934,316.644L542.934,316.644z M546.027,315.888c0.012-0.671-0.275-1.715-1.463-1.715
		c-1.068,0-1.535,0.983-1.619,1.715H546.027z"/>
</g>
<g>
	<ellipse fill="#32409A" stroke="#000000" cx="714.271" cy="25.797" rx="27.036" ry="16.275"/>
	<ellipse fill="#32409A" stroke="#000000" cx="727.593" cy="70.456" rx="27.036" ry="16.277"/>
	<ellipse fill="#32409A" stroke="#000000" cx="778.201" cy="37.766" rx="27.037" ry="16.276"/>
	<ellipse fill="#32409A" stroke="#000000" cx="789.434" cy="79.937" rx="27.035" ry="16.277"/>
	<ellipse fill="#32409A" stroke="#000000" cx="665.526" cy="59.622" rx="27.037" ry="16.277"/>
	<ellipse fill="#32409A" stroke="#000000" cx="691.249" cy="103.657" rx="27.035" ry="16.277"/>
	<ellipse fill="#32409A" stroke="#000000" cx="759.48" cy="113.918" rx="27.037" ry="16.277"/>
</g>
<g>
	<path d="M686.277,161.842l-2.051-8.084h1.104l0.959,4.09c0.24,1.008,0.456,2.016,0.6,2.795h0.023
		c0.133-0.804,0.385-1.763,0.66-2.807l1.08-4.078h1.091l0.983,4.103c0.229,0.959,0.443,1.919,0.564,2.771h0.023
		c0.168-0.888,0.396-1.787,0.647-2.795l1.067-4.078h1.067l-2.29,8.084h-1.092l-1.02-4.21c-0.252-1.031-0.42-1.822-0.527-2.639
		h-0.024c-0.132,0.804-0.323,1.596-0.624,2.639l-1.15,4.21H686.277z"/>
	<path d="M695.014,153.326h1.056v3.635h0.024c0.168-0.301,0.432-0.576,0.755-0.756c0.312-0.18,0.684-0.288,1.079-0.288
		c0.779,0,2.027,0.479,2.027,2.471v3.454h-1.056v-3.334c0-0.936-0.348-1.715-1.343-1.715c-0.684,0-1.211,0.479-1.416,1.043
		c-0.06,0.156-0.071,0.312-0.071,0.504v3.502h-1.056V153.326z"/>
	<path d="M702.85,154.406c0,0.359-0.252,0.647-0.672,0.647c-0.384,0-0.636-0.288-0.636-0.647c0-0.36,0.264-0.66,0.659-0.66
		C702.586,153.746,702.85,154.034,702.85,154.406z M701.674,161.842v-5.805h1.056v5.805H701.674z"/>
	<path d="M705.754,154.646v1.392h1.511v0.804h-1.511v3.13c0,0.72,0.203,1.128,0.791,1.128c0.287,0,0.455-0.024,0.611-0.072
		l0.049,0.804c-0.205,0.071-0.528,0.144-0.936,0.144c-0.492,0-0.889-0.168-1.141-0.443c-0.287-0.324-0.407-0.84-0.407-1.523v-3.166
		h-0.899v-0.804h0.899v-1.079L705.754,154.646z"/>
	<path d="M708.97,159.131c0.024,1.428,0.923,2.016,1.991,2.016c0.755,0,1.223-0.132,1.606-0.3l0.192,0.755
		c-0.372,0.168-1.02,0.372-1.943,0.372c-1.787,0-2.854-1.188-2.854-2.938s1.032-3.118,2.723-3.118c1.907,0,2.399,1.655,2.399,2.723
		c0,0.216-0.013,0.372-0.037,0.491H708.97z M712.064,158.376c0.012-0.66-0.276-1.703-1.464-1.703c-1.079,0-1.535,0.972-1.619,1.703
		H712.064z"/>
	<path d="M716.974,153.878c0.456-0.107,1.187-0.18,1.907-0.18c1.043,0,1.715,0.18,2.207,0.588c0.419,0.312,0.684,0.791,0.684,1.427
		c0,0.792-0.528,1.476-1.367,1.775v0.036c0.768,0.18,1.666,0.815,1.666,2.015c0,0.695-0.275,1.235-0.695,1.619
		c-0.552,0.516-1.463,0.756-2.782,0.756c-0.72,0-1.271-0.048-1.619-0.097V153.878z M718.018,157.188h0.947
		c1.091,0,1.738-0.588,1.738-1.367c0-0.936-0.707-1.319-1.763-1.319c-0.479,0-0.755,0.036-0.923,0.072V157.188z M718.018,161.05
		c0.215,0.036,0.503,0.049,0.875,0.049c1.079,0,2.074-0.396,2.074-1.571c0-1.092-0.947-1.56-2.086-1.56h-0.863V161.05z"/>
	<path d="M723.441,153.326h1.056v8.516h-1.056V153.326z"/>
	<path d="M731.526,158.892c0,2.146-1.499,3.082-2.89,3.082c-1.56,0-2.783-1.151-2.783-2.986c0-1.931,1.283-3.07,2.879-3.07
		C730.399,155.917,731.526,157.128,731.526,158.892z M726.934,158.951c0,1.271,0.719,2.231,1.75,2.231
		c1.008,0,1.764-0.948,1.764-2.255c0-0.983-0.492-2.219-1.739-2.219C727.473,156.709,726.934,157.86,726.934,158.951z"/>
	<path d="M738.114,158.892c0,2.146-1.499,3.082-2.89,3.082c-1.56,0-2.783-1.151-2.783-2.986c0-1.931,1.283-3.07,2.879-3.07
		C736.987,155.917,738.114,157.128,738.114,158.892z M733.521,158.951c0,1.271,0.719,2.231,1.75,2.231
		c1.008,0,1.764-0.948,1.764-2.255c0-0.983-0.492-2.219-1.739-2.219C734.061,156.709,733.521,157.86,733.521,158.951z"/>
	<path d="M744.451,153.326v7.017c0,0.516,0.023,1.104,0.047,1.499h-0.936l-0.047-1.008h-0.037c-0.312,0.648-1.007,1.14-1.955,1.14
		c-1.402,0-2.494-1.188-2.494-2.95c-0.012-1.931,1.199-3.106,2.603-3.106c0.899,0,1.487,0.42,1.751,0.876h0.024v-3.467H744.451z
		 M743.407,158.399c0-0.132-0.013-0.312-0.048-0.443c-0.156-0.66-0.732-1.212-1.523-1.212c-1.092,0-1.739,0.96-1.739,2.231
		c0,1.175,0.588,2.146,1.716,2.146c0.707,0,1.354-0.479,1.547-1.259c0.035-0.145,0.048-0.288,0.048-0.456V158.399z"/>
	<path d="M754.434,161.59c-0.371,0.192-1.15,0.384-2.135,0.384c-2.278,0-3.981-1.439-3.981-4.102c0-2.543,1.716-4.246,4.222-4.246
		c0.996,0,1.643,0.216,1.919,0.36l-0.264,0.852c-0.384-0.192-0.948-0.336-1.619-0.336c-1.896,0-3.154,1.211-3.154,3.334
		c0,1.991,1.14,3.25,3.095,3.25c0.646,0,1.295-0.132,1.715-0.336L754.434,161.59z"/>
	<path d="M756.177,159.131c0.024,1.428,0.923,2.016,1.991,2.016c0.755,0,1.223-0.132,1.606-0.3l0.192,0.755
		c-0.372,0.168-1.02,0.372-1.943,0.372c-1.787,0-2.854-1.188-2.854-2.938s1.032-3.118,2.723-3.118c1.907,0,2.399,1.655,2.399,2.723
		c0,0.216-0.013,0.372-0.037,0.491H756.177z M759.271,158.376c0.012-0.66-0.276-1.703-1.464-1.703c-1.079,0-1.535,0.972-1.619,1.703
		H759.271z"/>
	<path d="M761.602,153.326h1.055v8.516h-1.055V153.326z"/>
	<path d="M764.433,153.326h1.056v8.516h-1.056V153.326z"/>
	<path d="M767.121,160.774c0.324,0.191,0.875,0.408,1.402,0.408c0.756,0,1.115-0.372,1.115-0.864c0-0.504-0.299-0.768-1.066-1.055
		c-1.056-0.384-1.547-0.948-1.547-1.644c0-0.936,0.768-1.703,2.002-1.703c0.588,0,1.104,0.156,1.416,0.36l-0.252,0.768
		c-0.229-0.145-0.648-0.349-1.188-0.349c-0.624,0-0.959,0.36-0.959,0.792c0,0.479,0.335,0.695,1.091,0.995
		c0.995,0.372,1.522,0.876,1.522,1.739c0,1.031-0.803,1.751-2.158,1.751c-0.636,0-1.223-0.168-1.631-0.407L767.121,160.774z"/>
	<path d="M717.95,167.919c-0.876,1.188-1.499,2.734-1.499,4.917c0,2.135,0.66,3.658,1.499,4.857h-0.815
		c-0.756-0.995-1.571-2.53-1.571-4.869c0.013-2.351,0.815-3.898,1.571-4.905H717.95z"/>
	<path d="M724.608,175.99c-0.372,0.192-1.151,0.384-2.135,0.384c-2.278,0-3.981-1.439-3.981-4.102c0-2.543,1.715-4.246,4.221-4.246
		c0.996,0,1.644,0.216,1.92,0.36l-0.264,0.852c-0.385-0.192-0.948-0.336-1.619-0.336c-1.896,0-3.154,1.211-3.154,3.334
		c0,1.991,1.139,3.25,3.094,3.25c0.648,0,1.295-0.132,1.715-0.336L724.608,175.99z"/>
	<path d="M727.803,169.046h-2.459v-0.888h5.984v0.888h-2.471v7.196h-1.055V169.046z"/>
	<path d="M732.219,168.158h1.057v7.208h3.453v0.876h-4.51V168.158z"/>
	<path d="M737.223,177.693c0.84-1.188,1.5-2.734,1.5-4.894c0-2.158-0.648-3.682-1.5-4.881h0.816c0.756,0.983,1.57,2.53,1.57,4.881
		c-0.012,2.351-0.814,3.886-1.57,4.894H737.223z"/>
</g>
<g>
	<g>
		<path fill="none" stroke="#010101" d="M655.487,116.565C540.842,110.701,623.94-8.1,660.054,15.397"/>
		<polygon fill="#010101" points="655.646,16.875 659.032,14.703 659.819,10.755 664.985,18.761 		"/>
	</g>
</g>
<g>
	<path d="M24.721,278.434v-8.084h1.151l2.579,4.09c0.587,0.948,1.067,1.8,1.439,2.627l0.036-0.012
		c-0.096-1.08-0.12-2.063-0.12-3.322v-3.383h0.983v8.084h-1.055l-2.567-4.102c-0.563-0.899-1.103-1.823-1.499-2.698l-0.036,0.012
		c0.06,1.02,0.072,1.99,0.072,3.334v3.454H24.721z"/>
	<path d="M33.169,275.723c0.024,1.428,0.923,2.016,1.991,2.016c0.755,0,1.223-0.132,1.607-0.3l0.192,0.755
		c-0.372,0.168-1.019,0.372-1.943,0.372c-1.787,0-2.854-1.188-2.854-2.938s1.032-3.118,2.723-3.118c1.907,0,2.399,1.655,2.399,2.723
		c0,0.216-0.012,0.372-0.036,0.491H33.169z M36.263,274.968c0.012-0.66-0.276-1.703-1.463-1.703c-1.08,0-1.535,0.972-1.619,1.703
		H36.263z"/>
	<path d="M39.013,272.629l0.779,2.95c0.156,0.647,0.312,1.247,0.42,1.847h0.036c0.132-0.587,0.324-1.211,0.516-1.835l0.947-2.962
		h0.888l0.899,2.902c0.216,0.695,0.384,1.308,0.516,1.895h0.036c0.096-0.587,0.252-1.199,0.444-1.883l0.828-2.914h1.043
		l-1.871,5.805h-0.959l-0.888-2.771c-0.204-0.647-0.372-1.224-0.516-1.907h-0.024c-0.144,0.696-0.324,1.296-0.528,1.919
		l-0.936,2.759h-0.959l-1.751-5.805H39.013z"/>
	<path d="M55.642,278.182c-0.372,0.192-1.151,0.384-2.135,0.384c-2.279,0-3.982-1.439-3.982-4.102c0-2.543,1.715-4.246,4.222-4.246
		c0.996,0,1.643,0.216,1.919,0.36l-0.264,0.852c-0.384-0.192-0.948-0.336-1.619-0.336c-1.895,0-3.154,1.211-3.154,3.334
		c0,1.991,1.139,3.25,3.094,3.25c0.648,0,1.295-0.132,1.715-0.336L55.642,278.182z"/>
	<path d="M57.385,275.723c0.024,1.428,0.923,2.016,1.991,2.016c0.755,0,1.223-0.132,1.607-0.3l0.192,0.755
		c-0.372,0.168-1.019,0.372-1.943,0.372c-1.787,0-2.854-1.188-2.854-2.938s1.032-3.118,2.723-3.118c1.907,0,2.399,1.655,2.399,2.723
		c0,0.216-0.012,0.372-0.036,0.491H57.385z M60.479,274.968c0.012-0.66-0.276-1.703-1.463-1.703c-1.08,0-1.535,0.972-1.619,1.703
		H60.479z"/>
	<path d="M62.809,269.918h1.056v8.516h-1.056V269.918z"/>
	<path d="M65.641,269.918h1.056v8.516h-1.056V269.918z"/>
	<path d="M68.328,277.366c0.324,0.191,0.875,0.408,1.403,0.408c0.756,0,1.115-0.372,1.115-0.864c0-0.504-0.3-0.768-1.067-1.055
		c-1.055-0.384-1.547-0.948-1.547-1.644c0-0.936,0.768-1.703,2.003-1.703c0.587,0,1.103,0.156,1.415,0.359l-0.252,0.768
		c-0.228-0.144-0.647-0.348-1.187-0.348c-0.624,0-0.959,0.36-0.959,0.792c0,0.479,0.335,0.695,1.091,0.995
		c0.995,0.372,1.523,0.876,1.523,1.739c0,1.031-0.803,1.751-2.159,1.751c-0.636,0-1.223-0.168-1.631-0.407L68.328,277.366z"/>
	<path d="M16.38,292.834v-5.001h-0.804v-0.804h0.804v-0.276c0-0.815,0.192-1.559,0.672-2.026c0.396-0.384,0.923-0.54,1.415-0.54
		c0.384,0,0.696,0.084,0.899,0.168l-0.144,0.815c-0.156-0.071-0.359-0.132-0.671-0.132c-0.899,0-1.127,0.779-1.127,1.68v0.312h1.403
		v0.804h-1.403v5.001H16.38z"/>
	<path d="M19.776,288.84c0-0.684-0.012-1.271-0.048-1.811h0.923l0.048,1.151h0.036c0.264-0.779,0.912-1.271,1.619-1.271
		c0.108,0,0.192,0.012,0.288,0.024v0.995c-0.108-0.024-0.216-0.024-0.36-0.024c-0.744,0-1.271,0.552-1.416,1.344
		c-0.024,0.144-0.036,0.323-0.036,0.491v3.095h-1.056V288.84z"/>
	<path d="M28.833,289.884c0,2.146-1.499,3.082-2.89,3.082c-1.559,0-2.783-1.151-2.783-2.986c0-1.931,1.284-3.07,2.878-3.07
		C27.707,286.909,28.833,288.12,28.833,289.884z M24.24,289.943c0,1.271,0.72,2.231,1.751,2.231c1.007,0,1.763-0.948,1.763-2.255
		c0-0.983-0.492-2.219-1.739-2.219C24.78,287.701,24.24,288.853,24.24,289.943z"/>
	<path d="M30.168,288.601c0-0.612-0.024-1.092-0.048-1.571h0.923l0.048,0.947h0.036c0.324-0.552,0.864-1.067,1.835-1.067
		c0.78,0,1.379,0.479,1.631,1.163h0.024c0.18-0.336,0.419-0.575,0.66-0.755c0.348-0.265,0.719-0.408,1.271-0.408
		c0.78,0,1.919,0.504,1.919,2.519v3.406h-1.031v-3.274c0-1.127-0.42-1.787-1.259-1.787c-0.612,0-1.067,0.444-1.259,0.948
		c-0.048,0.155-0.084,0.335-0.084,0.527v3.586h-1.032v-3.479c0-0.923-0.408-1.583-1.211-1.583c-0.648,0-1.14,0.528-1.308,1.056
		c-0.06,0.144-0.084,0.336-0.084,0.516v3.49h-1.031V288.601z"/>
	<path d="M43.8,285.638h-2.459v-0.888h5.985v0.888h-2.471v7.196H43.8V285.638z"/>
	<path d="M48.108,284.318h1.056v3.635h0.024c0.168-0.3,0.432-0.576,0.755-0.756c0.312-0.18,0.684-0.288,1.08-0.288
		c0.779,0,2.027,0.479,2.027,2.471v3.454h-1.056V289.5c0-0.936-0.348-1.715-1.343-1.715c-0.684,0-1.211,0.479-1.415,1.043
		c-0.06,0.156-0.072,0.312-0.072,0.504v3.502h-1.056V284.318z"/>
	<path d="M54.996,287.029l1.259,3.43c0.144,0.384,0.288,0.84,0.384,1.188h0.024c0.108-0.348,0.228-0.791,0.372-1.211l1.151-3.406
		h1.115l-1.583,4.138c-0.756,1.991-1.271,2.998-1.991,3.634c-0.527,0.444-1.031,0.624-1.295,0.672l-0.264-0.876
		c0.264-0.084,0.612-0.252,0.924-0.516c0.288-0.228,0.635-0.636,0.887-1.175c0.048-0.108,0.084-0.192,0.084-0.252
		c0-0.061-0.024-0.145-0.084-0.276l-2.135-5.349H54.996z"/>
	<path d="M60.265,288.601c0-0.612-0.024-1.092-0.048-1.571h0.923l0.048,0.947h0.036c0.324-0.552,0.864-1.067,1.835-1.067
		c0.78,0,1.379,0.479,1.631,1.163h0.024c0.18-0.336,0.419-0.575,0.66-0.755c0.348-0.265,0.719-0.408,1.271-0.408
		c0.78,0,1.919,0.504,1.919,2.519v3.406h-1.031v-3.274c0-1.127-0.42-1.787-1.259-1.787c-0.612,0-1.067,0.444-1.259,0.948
		c-0.048,0.155-0.084,0.335-0.084,0.527v3.586h-1.031v-3.479c0-0.923-0.408-1.583-1.211-1.583c-0.648,0-1.14,0.528-1.308,1.056
		c-0.06,0.144-0.084,0.336-0.084,0.516v3.49h-1.031V288.601z"/>
	<path d="M75.13,291.239c0,0.611,0.012,1.139,0.048,1.595h-0.936l-0.06-0.947h-0.024c-0.264,0.468-0.887,1.079-1.919,1.079
		c-0.911,0-2.003-0.516-2.003-2.543v-3.394h1.056v3.202c0,1.104,0.348,1.859,1.295,1.859c0.708,0,1.199-0.492,1.391-0.972
		c0.06-0.145,0.096-0.336,0.096-0.54v-3.55h1.056V291.239z"/>
	<path d="M76.74,291.767c0.324,0.191,0.875,0.408,1.403,0.408c0.756,0,1.115-0.372,1.115-0.864c0-0.504-0.3-0.768-1.067-1.055
		c-1.055-0.384-1.547-0.948-1.547-1.644c0-0.936,0.768-1.703,2.003-1.703c0.587,0,1.103,0.156,1.415,0.359l-0.252,0.768
		c-0.228-0.144-0.647-0.348-1.187-0.348c-0.624,0-0.959,0.36-0.959,0.792c0,0.479,0.335,0.695,1.091,0.995
		c0.995,0.372,1.523,0.876,1.523,1.739c0,1.031-0.803,1.751-2.159,1.751c-0.636,0-1.223-0.168-1.631-0.407L76.74,291.767z"/>
</g>
<g>
	<path d="M154.097,198.167v4.797c0,1.799,0.803,2.566,1.883,2.566c1.188,0,1.967-0.792,1.967-2.566v-4.797h1.056v4.725
		c0,2.483-1.308,3.49-3.059,3.49c-1.655,0-2.902-0.936-2.902-3.454v-4.761H154.097z"/>
	<path d="M160.781,202.017c0-0.611-0.012-1.091-0.048-1.571h0.936l0.06,0.959h0.024c0.288-0.54,0.959-1.08,1.919-1.08
		c0.803,0,2.051,0.48,2.051,2.471v3.454h-1.056v-3.346c0-0.936-0.348-1.715-1.343-1.715c-0.684,0-1.223,0.492-1.415,1.079
		c-0.048,0.132-0.072,0.312-0.072,0.492v3.49h-1.056V202.017z"/>
	<path d="M168.616,198.815c0,0.36-0.252,0.648-0.671,0.648c-0.384,0-0.636-0.288-0.636-0.648s0.264-0.66,0.66-0.66
		C168.353,198.155,168.616,198.443,168.616,198.815z M167.441,206.251v-5.805h1.056v5.805H167.441z"/>
	<path d="M170.249,202.017c0-0.611-0.012-1.091-0.048-1.571h0.936l0.06,0.959h0.024c0.288-0.54,0.959-1.08,1.919-1.08
		c0.803,0,2.051,0.48,2.051,2.471v3.454h-1.056v-3.346c0-0.936-0.348-1.715-1.343-1.715c-0.684,0-1.223,0.492-1.415,1.079
		c-0.048,0.132-0.072,0.312-0.072,0.492v3.49h-1.056V202.017z"/>
	<path d="M177.017,206.251v-5.001h-0.804v-0.803h0.804v-0.276c0-0.815,0.192-1.559,0.672-2.027c0.396-0.384,0.923-0.54,1.415-0.54
		c0.384,0,0.696,0.084,0.899,0.168l-0.144,0.816c-0.156-0.072-0.359-0.132-0.671-0.132c-0.899,0-1.127,0.78-1.127,1.679v0.312h1.403
		v0.803h-1.403v5.001H177.017z"/>
	<path d="M180.845,203.541c0.024,1.427,0.923,2.015,1.991,2.015c0.755,0,1.223-0.132,1.607-0.3l0.192,0.756
		c-0.372,0.168-1.019,0.372-1.943,0.372c-1.787,0-2.854-1.188-2.854-2.938s1.032-3.118,2.723-3.118c1.907,0,2.399,1.655,2.399,2.723
		c0,0.216-0.012,0.372-0.036,0.492H180.845z M183.939,202.785c0.012-0.66-0.276-1.703-1.463-1.703c-1.08,0-1.535,0.971-1.619,1.703
		H183.939z"/>
	<path d="M190.406,206.047c-0.276,0.132-0.887,0.336-1.667,0.336c-1.751,0-2.891-1.188-2.891-2.962c0-1.787,1.224-3.094,3.119-3.094
		c0.624,0,1.175,0.156,1.463,0.312l-0.24,0.803c-0.252-0.132-0.647-0.275-1.223-0.275c-1.332,0-2.051,0.995-2.051,2.194
		c0,1.343,0.864,2.171,2.015,2.171c0.6,0,0.996-0.144,1.295-0.276L190.406,206.047z"/>
	<path d="M193.072,199.055v1.392h1.511v0.803h-1.511v3.13c0,0.72,0.204,1.127,0.792,1.127c0.288,0,0.456-0.024,0.612-0.072
		l0.048,0.803c-0.204,0.072-0.528,0.144-0.936,0.144c-0.492,0-0.888-0.168-1.14-0.444c-0.288-0.324-0.408-0.839-0.408-1.523v-3.167
		h-0.899v-0.803h0.899v-1.08L193.072,199.055z"/>
	<path d="M196.288,203.541c0.024,1.427,0.923,2.015,1.991,2.015c0.755,0,1.223-0.132,1.607-0.3l0.192,0.756
		c-0.372,0.168-1.019,0.372-1.943,0.372c-1.787,0-2.854-1.188-2.854-2.938s1.032-3.118,2.723-3.118c1.907,0,2.399,1.655,2.399,2.723
		c0,0.216-0.012,0.372-0.036,0.492H196.288z M199.382,202.785c0.012-0.66-0.276-1.703-1.463-1.703c-1.08,0-1.535,0.971-1.619,1.703
		H199.382z"/>
	<path d="M206.714,197.736v7.016c0,0.516,0.024,1.103,0.048,1.499h-0.936l-0.048-1.007h-0.036c-0.312,0.647-1.007,1.139-1.955,1.139
		c-1.403,0-2.495-1.188-2.495-2.95c-0.012-1.931,1.2-3.106,2.603-3.106c0.9,0,1.487,0.42,1.751,0.875h0.024v-3.466H206.714z
		 M205.67,202.809c0-0.132-0.012-0.312-0.048-0.444c-0.156-0.66-0.731-1.211-1.523-1.211c-1.091,0-1.739,0.959-1.739,2.231
		c0,1.175,0.588,2.146,1.715,2.146c0.708,0,1.355-0.479,1.547-1.259c0.036-0.144,0.048-0.288,0.048-0.456V202.809z"/>
	<path d="M212.104,199.055h-2.459v-0.887h5.985v0.887h-2.471v7.196h-1.055V199.055z"/>
	<path d="M224.713,205.999c-0.372,0.192-1.151,0.384-2.135,0.384c-2.279,0-3.982-1.439-3.982-4.102c0-2.542,1.715-4.246,4.222-4.246
		c0.996,0,1.643,0.216,1.919,0.36l-0.264,0.852c-0.384-0.192-0.948-0.336-1.619-0.336c-1.895,0-3.154,1.211-3.154,3.334
		c0,1.991,1.139,3.25,3.094,3.25c0.648,0,1.295-0.132,1.715-0.336L224.713,205.999z"/>
	<path d="M226.456,203.541c0.024,1.427,0.923,2.015,1.991,2.015c0.755,0,1.223-0.132,1.607-0.3l0.192,0.756
		c-0.372,0.168-1.019,0.372-1.943,0.372c-1.787,0-2.854-1.188-2.854-2.938s1.032-3.118,2.723-3.118c1.907,0,2.399,1.655,2.399,2.723
		c0,0.216-0.012,0.372-0.036,0.492H226.456z M229.55,202.785c0.012-0.66-0.276-1.703-1.463-1.703c-1.08,0-1.535,0.971-1.619,1.703
		H229.55z"/>
	<path d="M231.88,197.736h1.056v8.515h-1.056V197.736z"/>
	<path d="M234.712,197.736h1.056v8.515h-1.056V197.736z"/>
	<path d="M237.4,205.184c0.324,0.192,0.875,0.408,1.403,0.408c0.756,0,1.115-0.372,1.115-0.863c0-0.504-0.3-0.768-1.067-1.056
		c-1.055-0.384-1.547-0.947-1.547-1.643c0-0.936,0.768-1.703,2.003-1.703c0.587,0,1.104,0.156,1.415,0.36l-0.252,0.768
		c-0.228-0.144-0.647-0.348-1.187-0.348c-0.624,0-0.959,0.36-0.959,0.792c0,0.479,0.335,0.695,1.091,0.995
		c0.996,0.372,1.523,0.876,1.523,1.739c0,1.031-0.803,1.751-2.159,1.751c-0.636,0-1.223-0.168-1.631-0.408L237.4,205.184z"/>
</g>
<g>
	<path d="M311.583,208.999c-0.372,0.192-1.151,0.384-2.135,0.384c-2.279,0-3.982-1.439-3.982-4.102c0-2.542,1.715-4.246,4.222-4.246
		c0.996,0,1.643,0.216,1.919,0.36l-0.264,0.851c-0.384-0.191-0.948-0.335-1.619-0.335c-1.895,0-3.154,1.211-3.154,3.334
		c0,1.991,1.139,3.25,3.094,3.25c0.648,0,1.295-0.132,1.715-0.336L311.583,208.999z"/>
	<path d="M313.326,206.541c0.024,1.427,0.923,2.015,1.991,2.015c0.755,0,1.223-0.132,1.607-0.3l0.192,0.756
		c-0.372,0.168-1.019,0.372-1.943,0.372c-1.787,0-2.854-1.187-2.854-2.938c0-1.751,1.032-3.118,2.723-3.118
		c1.907,0,2.399,1.655,2.399,2.723c0,0.216-0.012,0.372-0.036,0.492H313.326z M316.42,205.785c0.012-0.659-0.276-1.703-1.463-1.703
		c-1.08,0-1.535,0.971-1.619,1.703H316.42z"/>
	<path d="M318.75,200.736h1.056v8.515h-1.056V200.736z"/>
	<path d="M321.582,200.736h1.056v8.515h-1.056V200.736z"/>
	<path d="M326.994,201.288c0.636-0.108,1.391-0.18,2.219-0.18c1.499,0,2.566,0.36,3.274,1.007c0.732,0.66,1.151,1.595,1.151,2.902
		c0,1.319-0.419,2.399-1.163,3.143c-0.768,0.755-2.015,1.163-3.586,1.163c-0.756,0-1.367-0.036-1.895-0.096V201.288z
		 M328.038,208.436c0.264,0.036,0.647,0.048,1.055,0.048c2.243,0,3.442-1.248,3.442-3.43c0.012-1.907-1.067-3.118-3.274-3.118
		c-0.54,0-0.947,0.048-1.223,0.108V208.436z"/>
	<path d="M335.585,206.541c0.024,1.427,0.923,2.015,1.991,2.015c0.755,0,1.223-0.132,1.607-0.3l0.192,0.756
		c-0.372,0.168-1.019,0.372-1.943,0.372c-1.787,0-2.854-1.187-2.854-2.938c0-1.751,1.032-3.118,2.723-3.118
		c1.907,0,2.399,1.655,2.399,2.723c0,0.216-0.012,0.372-0.036,0.492H335.585z M338.68,205.785c0.012-0.659-0.276-1.703-1.463-1.703
		c-1.079,0-1.535,0.971-1.619,1.703H338.68z"/>
	<path d="M345.087,207.86c0,0.503,0.024,0.995,0.084,1.391h-0.947l-0.084-0.731h-0.036c-0.324,0.456-0.947,0.863-1.775,0.863
		c-1.175,0-1.775-0.828-1.775-1.667c0-1.403,1.247-2.171,3.49-2.159v-0.12c0-0.468-0.132-1.343-1.319-1.331
		c-0.551,0-1.115,0.156-1.523,0.432l-0.24-0.708c0.479-0.3,1.188-0.504,1.919-0.504c1.775,0,2.207,1.211,2.207,2.363V207.86z
		 M344.068,206.289c-1.151-0.024-2.459,0.18-2.459,1.307c0,0.696,0.456,1.008,0.983,1.008c0.768,0,1.259-0.48,1.427-0.972
		c0.036-0.12,0.048-0.24,0.048-0.336V206.289z"/>
	<path d="M348.017,202.055v1.391h1.511v0.803h-1.511v3.13c0,0.72,0.204,1.127,0.792,1.127c0.288,0,0.456-0.024,0.612-0.072
		l0.048,0.803c-0.204,0.072-0.528,0.144-0.936,0.144c-0.492,0-0.888-0.168-1.14-0.444c-0.288-0.324-0.408-0.839-0.408-1.523v-3.167
		h-0.899v-0.803h0.899v-1.08L348.017,202.055z"/>
	<path d="M350.717,200.736h1.056v3.634h0.024c0.168-0.3,0.432-0.576,0.755-0.755c0.312-0.18,0.684-0.288,1.08-0.288
		c0.779,0,2.027,0.48,2.027,2.471v3.454h-1.056v-3.334c0-0.936-0.348-1.715-1.343-1.715c-0.684,0-1.211,0.48-1.415,1.043
		c-0.06,0.156-0.072,0.312-0.072,0.504v3.502h-1.056V200.736z"/>
</g>
<g>
	<path d="M502.199,196.207l-2.65-8.083h1.14l1.259,3.982c0.336,1.091,0.636,2.075,0.863,3.022h0.024
		c0.228-0.935,0.552-1.955,0.924-3.01l1.367-3.994h1.115l-2.891,8.083H502.199z"/>
	<path d="M508.067,188.771c0,0.36-0.252,0.648-0.672,0.648c-0.384,0-0.636-0.288-0.636-0.648s0.265-0.66,0.66-0.66
		C507.804,188.111,508.067,188.399,508.067,188.771z M506.893,196.207v-5.805h1.055v5.805H506.893z"/>
	<path d="M509.7,192.213c0-0.684-0.013-1.271-0.049-1.811h0.924l0.048,1.151h0.036c0.264-0.78,0.911-1.271,1.619-1.271
		c0.108,0,0.192,0.012,0.288,0.024v0.996c-0.108-0.024-0.216-0.024-0.36-0.024c-0.743,0-1.271,0.552-1.415,1.343
		c-0.023,0.144-0.036,0.324-0.036,0.492v3.094H509.7V192.213z"/>
	<path d="M518.481,194.612c0,0.612,0.013,1.14,0.049,1.595h-0.936l-0.061-0.947h-0.023c-0.265,0.468-0.888,1.079-1.919,1.079
		c-0.912,0-2.003-0.516-2.003-2.542v-3.394h1.055v3.202c0,1.104,0.349,1.859,1.296,1.859c0.707,0,1.199-0.492,1.391-0.971
		c0.061-0.144,0.097-0.336,0.097-0.54v-3.55h1.055V194.612z"/>
	<path d="M520.092,195.14c0.324,0.192,0.876,0.408,1.403,0.408c0.756,0,1.115-0.372,1.115-0.863c0-0.504-0.3-0.768-1.067-1.056
		c-1.056-0.384-1.547-0.947-1.547-1.643c0-0.936,0.768-1.703,2.003-1.703c0.588,0,1.104,0.156,1.415,0.36l-0.252,0.768
		c-0.228-0.144-0.647-0.348-1.188-0.348c-0.623,0-0.959,0.36-0.959,0.792c0,0.479,0.336,0.695,1.091,0.995
		c0.996,0.372,1.523,0.876,1.523,1.739c0,1.031-0.804,1.751-2.159,1.751c-0.635,0-1.223-0.168-1.631-0.408L520.092,195.14z"/>
	<path d="M527.567,188.219c0.504-0.084,1.164-0.156,2.003-0.156c1.032,0,1.787,0.24,2.268,0.672
		c0.432,0.384,0.707,0.971,0.707,1.691c0,0.731-0.216,1.307-0.624,1.727c-0.563,0.587-1.451,0.888-2.47,0.888
		c-0.312,0-0.601-0.012-0.84-0.072v3.238h-1.044V188.219z M528.611,192.117c0.228,0.06,0.516,0.084,0.863,0.084
		c1.26,0,2.027-0.624,2.027-1.715c0-1.08-0.768-1.595-1.907-1.595c-0.456,0-0.804,0.036-0.983,0.084V192.117z"/>
	<path d="M533.725,192.213c0-0.684-0.013-1.271-0.049-1.811h0.924l0.048,1.151h0.036c0.264-0.78,0.911-1.271,1.619-1.271
		c0.108,0,0.191,0.012,0.288,0.024v0.996c-0.108-0.024-0.216-0.024-0.36-0.024c-0.743,0-1.271,0.552-1.415,1.343
		c-0.023,0.144-0.036,0.324-0.036,0.492v3.094h-1.055V192.213z"/>
	<path d="M542.781,193.257c0,2.146-1.499,3.082-2.891,3.082c-1.56,0-2.782-1.151-2.782-2.986c0-1.931,1.283-3.07,2.878-3.07
		C541.653,190.282,542.781,191.494,542.781,193.257z M538.188,193.316c0,1.271,0.72,2.231,1.751,2.231
		c1.008,0,1.763-0.947,1.763-2.255c0-0.983-0.491-2.219-1.738-2.219C538.728,191.074,538.188,192.225,538.188,193.316z"/>
	<path d="M549.117,187.692v7.016c0,0.516,0.023,1.103,0.048,1.499h-0.936l-0.048-1.007h-0.036c-0.312,0.647-1.008,1.139-1.955,1.139
		c-1.403,0-2.494-1.188-2.494-2.95c-0.013-1.931,1.199-3.106,2.603-3.106c0.899,0,1.487,0.42,1.751,0.875h0.023v-3.466H549.117z
		 M548.073,192.765c0-0.132-0.012-0.312-0.048-0.444c-0.155-0.66-0.731-1.211-1.523-1.211c-1.091,0-1.738,0.959-1.738,2.231
		c0,1.175,0.588,2.146,1.715,2.146c0.708,0,1.355-0.479,1.547-1.259c0.036-0.144,0.048-0.288,0.048-0.456V192.765z"/>
	<path d="M555.741,194.612c0,0.612,0.013,1.14,0.049,1.595h-0.936l-0.061-0.947h-0.023c-0.265,0.468-0.888,1.079-1.919,1.079
		c-0.912,0-2.003-0.516-2.003-2.542v-3.394h1.055v3.202c0,1.104,0.349,1.859,1.296,1.859c0.707,0,1.199-0.492,1.391-0.971
		c0.061-0.144,0.097-0.336,0.097-0.54v-3.55h1.055V194.612z"/>
	<path d="M561.634,196.003c-0.276,0.132-0.888,0.336-1.668,0.336c-1.751,0-2.89-1.188-2.89-2.962c0-1.787,1.223-3.094,3.118-3.094
		c0.623,0,1.175,0.156,1.463,0.312l-0.239,0.803c-0.252-0.132-0.648-0.275-1.224-0.275c-1.331,0-2.051,0.995-2.051,2.194
		c0,1.343,0.863,2.171,2.015,2.171c0.6,0,0.995-0.144,1.295-0.276L561.634,196.003z"/>
	<path d="M564.299,189.011v1.392h1.512v0.803h-1.512v3.13c0,0.72,0.204,1.127,0.792,1.127c0.288,0,0.456-0.024,0.611-0.072
		l0.048,0.803c-0.203,0.072-0.527,0.144-0.936,0.144c-0.491,0-0.887-0.168-1.139-0.444c-0.288-0.324-0.408-0.839-0.408-1.523v-3.167
		h-0.899v-0.803h0.899v-1.08L564.299,189.011z"/>
	<path d="M568.175,188.771c0,0.36-0.252,0.648-0.672,0.648c-0.384,0-0.636-0.288-0.636-0.648s0.265-0.66,0.66-0.66
		C567.911,188.111,568.175,188.399,568.175,188.771z M567,196.207v-5.805h1.055v5.805H567z"/>
	<path d="M575.061,193.257c0,2.146-1.499,3.082-2.891,3.082c-1.56,0-2.782-1.151-2.782-2.986c0-1.931,1.283-3.07,2.878-3.07
		C573.933,190.282,575.061,191.494,575.061,193.257z M570.467,193.316c0,1.271,0.72,2.231,1.751,2.231
		c1.008,0,1.763-0.947,1.763-2.255c0-0.983-0.491-2.219-1.738-2.219C571.007,191.074,570.467,192.225,570.467,193.316z"/>
	<path d="M576.396,191.973c0-0.611-0.013-1.091-0.049-1.571h0.936l0.061,0.959h0.023c0.288-0.54,0.96-1.08,1.919-1.08
		c0.804,0,2.051,0.48,2.051,2.471v3.454h-1.055v-3.346c0-0.936-0.348-1.715-1.344-1.715c-0.684,0-1.224,0.492-1.415,1.079
		c-0.048,0.132-0.072,0.312-0.072,0.492v3.49h-1.055V191.973z"/>
</g>
<g>
	<path d="M530.856,278.933v8.083h-1.056v-8.083H530.856z"/>
	<path d="M532.766,282.783c0-0.611-0.013-1.091-0.049-1.571h0.936l0.061,0.959h0.023c0.288-0.54,0.96-1.08,1.919-1.08
		c0.804,0,2.051,0.48,2.051,2.471v3.454h-1.055v-3.346c0-0.936-0.349-1.715-1.344-1.715c-0.684,0-1.224,0.492-1.415,1.079
		c-0.048,0.132-0.072,0.312-0.072,0.492v3.49h-1.055V282.783z"/>
	<path d="M539.532,287.017v-5.001h-0.804v-0.803h0.804v-0.276c0-0.815,0.192-1.559,0.672-2.027c0.396-0.384,0.923-0.54,1.415-0.54
		c0.384,0,0.695,0.084,0.899,0.168l-0.144,0.816c-0.156-0.072-0.36-0.132-0.672-0.132c-0.899,0-1.127,0.78-1.127,1.679v0.312h1.402
		v0.803h-1.402v5.001H539.532z"/>
	<path d="M543.36,284.306c0.024,1.427,0.924,2.015,1.991,2.015c0.756,0,1.224-0.132,1.607-0.3l0.191,0.756
		c-0.372,0.168-1.02,0.372-1.942,0.372c-1.787,0-2.854-1.187-2.854-2.938c0-1.751,1.031-3.118,2.723-3.118
		c1.906,0,2.398,1.655,2.398,2.723c0,0.216-0.012,0.372-0.036,0.492H543.36z M546.455,283.55c0.012-0.659-0.276-1.703-1.463-1.703
		c-1.08,0-1.535,0.971-1.619,1.703H546.455z"/>
	<path d="M552.923,286.812c-0.276,0.132-0.888,0.336-1.668,0.336c-1.751,0-2.89-1.187-2.89-2.962c0-1.787,1.223-3.094,3.118-3.094
		c0.623,0,1.175,0.156,1.463,0.312l-0.239,0.803c-0.252-0.132-0.648-0.276-1.224-0.276c-1.331,0-2.051,0.996-2.051,2.195
		c0,1.343,0.863,2.171,2.015,2.171c0.6,0,0.995-0.144,1.295-0.276L552.923,286.812z"/>
	<path d="M555.588,279.821v1.391h1.512v0.803h-1.512v3.13c0,0.72,0.204,1.127,0.792,1.127c0.288,0,0.456-0.024,0.611-0.072
		l0.048,0.803c-0.203,0.072-0.527,0.144-0.936,0.144c-0.491,0-0.887-0.168-1.139-0.444c-0.288-0.324-0.408-0.839-0.408-1.523v-3.167
		h-0.899v-0.803h0.899v-1.08L555.588,279.821z"/>
	<path d="M559.464,279.581c0,0.36-0.252,0.648-0.672,0.648c-0.384,0-0.636-0.288-0.636-0.648s0.265-0.66,0.66-0.66
		C559.2,278.921,559.464,279.209,559.464,279.581z M558.289,287.017v-5.805h1.055v5.805H558.289z"/>
	<path d="M566.35,284.066c0,2.146-1.499,3.082-2.891,3.082c-1.56,0-2.782-1.151-2.782-2.986c0-1.931,1.283-3.07,2.878-3.07
		C565.222,281.092,566.35,282.303,566.35,284.066z M561.756,284.126c0,1.271,0.72,2.231,1.751,2.231
		c1.008,0,1.763-0.947,1.763-2.255c0-0.983-0.491-2.219-1.738-2.219C562.296,281.883,561.756,283.035,561.756,284.126z"/>
	<path d="M567.685,282.783c0-0.611-0.013-1.091-0.049-1.571h0.936l0.061,0.959h0.023c0.288-0.54,0.96-1.08,1.919-1.08
		c0.804,0,2.051,0.48,2.051,2.471v3.454h-1.055v-3.346c0-0.936-0.348-1.715-1.344-1.715c-0.684,0-1.224,0.492-1.415,1.079
		c-0.048,0.132-0.072,0.312-0.072,0.492v3.49h-1.055V282.783z"/>
</g>
<g>
	<path d="M389.208,346.177h4.354v0.875h-3.298v2.687h3.046v0.863h-3.046v3.658h-1.056V346.177z"/>
	<path d="M394.717,350.268c0-0.684-0.012-1.272-0.048-1.812h0.923l0.048,1.151h0.036c0.264-0.78,0.912-1.271,1.619-1.271
		c0.108,0,0.192,0.012,0.288,0.024v0.996c-0.108-0.023-0.216-0.023-0.36-0.023c-0.744,0-1.271,0.551-1.416,1.343
		c-0.024,0.144-0.036,0.323-0.036,0.491v3.095h-1.056V350.268z"/>
	<path d="M399.108,351.551c0.024,1.427,0.923,2.014,1.991,2.014c0.755,0,1.223-0.131,1.607-0.299l0.192,0.756
		c-0.372,0.168-1.019,0.371-1.943,0.371c-1.787,0-2.854-1.188-2.854-2.938s1.032-3.118,2.723-3.118c1.907,0,2.399,1.655,2.399,2.723
		c0,0.216-0.012,0.371-0.036,0.492H399.108z M402.203,350.795c0.012-0.66-0.276-1.703-1.463-1.703c-1.08,0-1.535,0.971-1.619,1.703
		H402.203z"/>
	<path d="M405.121,351.551c0.024,1.427,0.923,2.014,1.991,2.014c0.755,0,1.223-0.131,1.607-0.299l0.192,0.756
		c-0.372,0.168-1.019,0.371-1.943,0.371c-1.787,0-2.854-1.188-2.854-2.938s1.032-3.118,2.723-3.118c1.907,0,2.399,1.655,2.399,2.723
		c0,0.216-0.012,0.371-0.036,0.492H405.121z M408.215,350.795c0.012-0.66-0.276-1.703-1.463-1.703c-1.079,0-1.535,0.971-1.619,1.703
		H408.215z"/>
	<path d="M414.467,354.261l-2.65-8.083h1.139l1.259,3.982c0.336,1.091,0.636,2.075,0.864,3.022h0.024
		c0.228-0.936,0.552-1.955,0.923-3.011l1.367-3.994h1.116l-2.891,8.083H414.467z"/>
	<path d="M420.336,346.825c0,0.36-0.252,0.648-0.671,0.648c-0.384,0-0.636-0.288-0.636-0.648s0.264-0.66,0.66-0.66
		C420.072,346.165,420.336,346.453,420.336,346.825z M419.161,354.261v-5.805h1.056v5.805H419.161z"/>
	<path d="M421.969,350.268c0-0.684-0.012-1.272-0.048-1.812h0.923l0.048,1.151h0.036c0.264-0.78,0.912-1.271,1.619-1.271
		c0.108,0,0.192,0.012,0.288,0.024v0.996c-0.108-0.023-0.216-0.023-0.36-0.023c-0.744,0-1.271,0.551-1.416,1.343
		c-0.024,0.144-0.036,0.323-0.036,0.491v3.095h-1.056V350.268z"/>
	<path d="M430.75,352.666c0,0.611,0.012,1.139,0.048,1.595h-0.936l-0.06-0.947h-0.024c-0.264,0.468-0.887,1.079-1.919,1.079
		c-0.911,0-2.003-0.516-2.003-2.543v-3.394h1.056v3.202c0,1.104,0.348,1.859,1.295,1.859c0.708,0,1.199-0.492,1.391-0.972
		c0.06-0.144,0.096-0.336,0.096-0.54v-3.55h1.056V352.666z"/>
	<path d="M432.36,353.193c0.324,0.191,0.875,0.408,1.403,0.408c0.756,0,1.115-0.372,1.115-0.863c0-0.504-0.3-0.768-1.067-1.057
		c-1.055-0.383-1.547-0.947-1.547-1.643c0-0.936,0.768-1.703,2.003-1.703c0.587,0,1.103,0.156,1.415,0.36l-0.252,0.767
		c-0.228-0.144-0.647-0.347-1.187-0.347c-0.624,0-0.959,0.36-0.959,0.792c0,0.479,0.335,0.695,1.091,0.995
		c0.995,0.372,1.523,0.876,1.523,1.739c0,1.031-0.803,1.751-2.159,1.751c-0.636,0-1.223-0.168-1.631-0.408L432.36,353.193z"/>
</g>
<g>
	<path d="M471.054,394.592l-2.65-8.084h1.14l1.259,3.982c0.336,1.091,0.636,2.074,0.863,3.021h0.024
		c0.228-0.936,0.552-1.955,0.924-3.01l1.367-3.994h1.115l-2.891,8.084H471.054z"/>
	<path d="M476.922,387.155c0,0.36-0.252,0.647-0.672,0.647c-0.384,0-0.636-0.287-0.636-0.647s0.265-0.659,0.66-0.659
		C476.658,386.496,476.922,386.783,476.922,387.155z M475.747,394.592v-5.805h1.055v5.805H475.747z"/>
	<path d="M478.555,390.598c0-0.684-0.013-1.271-0.049-1.811h0.924l0.048,1.15h0.036c0.264-0.779,0.911-1.271,1.619-1.271
		c0.108,0,0.192,0.013,0.288,0.024v0.995c-0.108-0.023-0.216-0.023-0.36-0.023c-0.743,0-1.271,0.552-1.415,1.344
		c-0.023,0.144-0.036,0.323-0.036,0.491v3.095h-1.055V390.598z"/>
	<path d="M486.496,393.2c0,0.503,0.024,0.995,0.084,1.392h-0.947l-0.084-0.732h-0.036c-0.324,0.456-0.947,0.863-1.775,0.863
		c-1.175,0-1.774-0.827-1.774-1.666c0-1.404,1.247-2.172,3.49-2.159v-0.12c0-0.468-0.132-1.344-1.319-1.331
		c-0.552,0-1.115,0.155-1.523,0.432l-0.24-0.708c0.48-0.299,1.188-0.504,1.919-0.504c1.775,0,2.207,1.212,2.207,2.363V393.2z
		 M485.477,391.629c-1.151-0.023-2.458,0.18-2.458,1.307c0,0.696,0.455,1.008,0.983,1.008c0.768,0,1.259-0.479,1.427-0.971
		c0.036-0.121,0.048-0.24,0.048-0.336V391.629z"/>
	<path d="M488.203,386.076h1.055v8.516h-1.055V386.076z"/>
	<path d="M493.614,386.627c0.636-0.107,1.392-0.18,2.219-0.18c1.5,0,2.567,0.36,3.274,1.008c0.731,0.66,1.151,1.596,1.151,2.902
		c0,1.319-0.42,2.398-1.163,3.143c-0.768,0.756-2.015,1.163-3.586,1.163c-0.756,0-1.367-0.036-1.896-0.096V386.627z
		 M494.658,393.775c0.264,0.036,0.647,0.049,1.056,0.049c2.242,0,3.441-1.248,3.441-3.431c0.013-1.907-1.067-3.118-3.273-3.118
		c-0.54,0-0.948,0.048-1.224,0.107V393.775z"/>
	<path d="M502.206,391.881c0.024,1.428,0.924,2.015,1.991,2.015c0.756,0,1.224-0.132,1.607-0.3l0.191,0.756
		c-0.372,0.168-1.02,0.371-1.942,0.371c-1.787,0-2.854-1.188-2.854-2.938c0-1.752,1.031-3.119,2.723-3.119
		c1.906,0,2.398,1.656,2.398,2.723c0,0.217-0.013,0.372-0.036,0.492H502.206z M505.301,391.125c0.012-0.66-0.276-1.703-1.463-1.703
		c-1.08,0-1.535,0.972-1.619,1.703H505.301z"/>
	<path d="M511.708,393.2c0,0.503,0.024,0.995,0.084,1.392h-0.947l-0.084-0.732h-0.036c-0.323,0.456-0.947,0.863-1.775,0.863
		c-1.175,0-1.774-0.827-1.774-1.666c0-1.404,1.247-2.172,3.49-2.159v-0.12c0-0.468-0.132-1.344-1.319-1.331
		c-0.552,0-1.115,0.155-1.523,0.432l-0.24-0.708c0.48-0.299,1.188-0.504,1.919-0.504c1.775,0,2.207,1.212,2.207,2.363V393.2z
		 M510.688,391.629c-1.151-0.023-2.458,0.18-2.458,1.307c0,0.696,0.455,1.008,0.983,1.008c0.768,0,1.259-0.479,1.427-0.971
		c0.036-0.121,0.048-0.24,0.048-0.336V391.629z"/>
	<path d="M514.637,387.395v1.393h1.512v0.803h-1.512v3.131c0,0.719,0.204,1.127,0.792,1.127c0.288,0,0.456-0.023,0.611-0.072
		l0.048,0.804c-0.203,0.072-0.527,0.144-0.936,0.144c-0.491,0-0.887-0.168-1.139-0.443c-0.288-0.324-0.408-0.84-0.408-1.523v-3.166
		h-0.899v-0.803h0.899v-1.08L514.637,387.395z"/>
	<path d="M517.339,386.076h1.055v3.634h0.024c0.168-0.3,0.432-0.575,0.756-0.755c0.312-0.181,0.684-0.289,1.079-0.289
		c0.779,0,2.026,0.48,2.026,2.471v3.455h-1.055v-3.334c0-0.936-0.349-1.716-1.344-1.716c-0.684,0-1.211,0.479-1.415,1.044
		c-0.06,0.155-0.072,0.312-0.072,0.504v3.502h-1.055V386.076z"/>
</g>
<g>
	<path d="M770.85,342.654v8.084h-1.056v-8.084H770.85z"/>
	<path d="M772.759,346.505c0-0.612-0.013-1.092-0.049-1.571h0.936l0.061,0.959h0.023c0.288-0.539,0.96-1.079,1.919-1.079
		c0.804,0,2.051,0.479,2.051,2.471v3.454h-1.055v-3.346c0-0.936-0.348-1.716-1.344-1.716c-0.684,0-1.224,0.492-1.415,1.08
		c-0.048,0.132-0.072,0.312-0.072,0.491v3.49h-1.055V346.505z"/>
	<path d="M779.525,350.738v-5.001h-0.804v-0.804h0.804v-0.276c0-0.815,0.192-1.559,0.672-2.026c0.396-0.384,0.923-0.54,1.415-0.54
		c0.384,0,0.695,0.084,0.899,0.168l-0.144,0.815c-0.156-0.071-0.36-0.132-0.672-0.132c-0.899,0-1.127,0.779-1.127,1.68v0.312h1.402
		v0.804h-1.402v5.001H779.525z"/>
	<path d="M783.354,348.027c0.024,1.428,0.924,2.016,1.991,2.016c0.756,0,1.224-0.132,1.607-0.3l0.191,0.755
		c-0.372,0.168-1.02,0.372-1.942,0.372c-1.787,0-2.854-1.188-2.854-2.938s1.031-3.118,2.723-3.118c1.906,0,2.398,1.655,2.398,2.723
		c0,0.216-0.013,0.372-0.036,0.491H783.354z M786.448,347.272c0.012-0.66-0.276-1.703-1.463-1.703c-1.08,0-1.535,0.972-1.619,1.703
		H786.448z"/>
	<path d="M792.916,350.534c-0.276,0.132-0.888,0.336-1.668,0.336c-1.751,0-2.89-1.188-2.89-2.962c0-1.787,1.223-3.095,3.118-3.095
		c0.623,0,1.175,0.156,1.463,0.312l-0.24,0.804c-0.251-0.132-0.647-0.275-1.223-0.275c-1.331,0-2.051,0.995-2.051,2.194
		c0,1.344,0.863,2.171,2.015,2.171c0.6,0,0.995-0.144,1.295-0.275L792.916,350.534z"/>
	<path d="M795.581,343.542v1.392h1.512v0.804h-1.512v3.13c0,0.72,0.204,1.128,0.792,1.128c0.288,0,0.456-0.024,0.611-0.072
		l0.048,0.804c-0.203,0.071-0.527,0.144-0.936,0.144c-0.491,0-0.887-0.168-1.139-0.443c-0.288-0.324-0.408-0.84-0.408-1.523v-3.166
		h-0.899v-0.804h0.899v-1.079L795.581,343.542z"/>
	<path d="M798.797,348.027c0.024,1.428,0.924,2.016,1.991,2.016c0.756,0,1.224-0.132,1.607-0.3l0.191,0.755
		c-0.372,0.168-1.02,0.372-1.942,0.372c-1.787,0-2.854-1.188-2.854-2.938s1.031-3.118,2.723-3.118c1.906,0,2.398,1.655,2.398,2.723
		c0,0.216-0.013,0.372-0.036,0.491H798.797z M801.892,347.272c0.012-0.66-0.276-1.703-1.463-1.703c-1.08,0-1.535,0.972-1.619,1.703
		H801.892z"/>
	<path d="M809.223,342.223v7.017c0,0.516,0.023,1.104,0.048,1.499h-0.936l-0.048-1.008h-0.036c-0.312,0.648-1.008,1.14-1.955,1.14
		c-1.403,0-2.494-1.188-2.494-2.95c-0.013-1.931,1.199-3.106,2.603-3.106c0.899,0,1.487,0.42,1.751,0.876h0.023v-3.467H809.223z
		 M808.179,347.296c0-0.132-0.012-0.312-0.048-0.443c-0.155-0.66-0.731-1.212-1.523-1.212c-1.091,0-1.738,0.96-1.738,2.231
		c0,1.175,0.588,2.146,1.715,2.146c0.708,0,1.355-0.479,1.547-1.259c0.036-0.145,0.048-0.288,0.048-0.456V347.296z"/>
	<path d="M814.612,343.542h-2.458v-0.888h5.984v0.888h-2.471v7.196h-1.056V343.542z"/>
	<path d="M827.223,350.486c-0.372,0.192-1.151,0.384-2.135,0.384c-2.279,0-3.982-1.439-3.982-4.102c0-2.543,1.715-4.246,4.222-4.246
		c0.995,0,1.644,0.216,1.919,0.36l-0.264,0.852c-0.384-0.192-0.947-0.336-1.619-0.336c-1.895,0-3.154,1.211-3.154,3.334
		c0,1.991,1.14,3.25,3.095,3.25c0.647,0,1.295-0.132,1.715-0.336L827.223,350.486z"/>
	<path d="M828.965,348.027c0.024,1.428,0.924,2.016,1.991,2.016c0.756,0,1.224-0.132,1.607-0.3l0.191,0.755
		c-0.372,0.168-1.02,0.372-1.942,0.372c-1.787,0-2.854-1.188-2.854-2.938s1.031-3.118,2.723-3.118c1.906,0,2.398,1.655,2.398,2.723
		c0,0.216-0.013,0.372-0.036,0.491H828.965z M832.06,347.272c0.012-0.66-0.276-1.703-1.463-1.703c-1.08,0-1.535,0.972-1.619,1.703
		H832.06z"/>
	<path d="M834.39,342.223h1.055v8.516h-1.055V342.223z"/>
	<path d="M837.222,342.223h1.055v8.516h-1.055V342.223z"/>
	<path d="M839.909,349.671c0.324,0.191,0.876,0.408,1.403,0.408c0.756,0,1.115-0.372,1.115-0.864c0-0.504-0.3-0.768-1.067-1.055
		c-1.056-0.384-1.547-0.948-1.547-1.644c0-0.936,0.768-1.703,2.003-1.703c0.588,0,1.104,0.156,1.415,0.36l-0.252,0.768
		c-0.228-0.145-0.647-0.349-1.188-0.349c-0.623,0-0.959,0.36-0.959,0.792c0,0.479,0.336,0.695,1.091,0.995
		c0.996,0.372,1.523,0.876,1.523,1.739c0,1.031-0.804,1.751-2.158,1.751c-0.636,0-1.224-0.168-1.632-0.407L839.909,349.671z"/>
</g>
<g>
	<path d="M572.028,374.104c-0.372,0.192-1.151,0.384-2.135,0.384c-2.279,0-3.982-1.439-3.982-4.102c0-2.543,1.715-4.246,4.222-4.246
		c0.995,0,1.644,0.216,1.919,0.36l-0.264,0.852c-0.384-0.192-0.947-0.336-1.619-0.336c-1.895,0-3.154,1.211-3.154,3.334
		c0,1.991,1.14,3.25,3.095,3.25c0.647,0,1.295-0.132,1.715-0.336L572.028,374.104z"/>
	<path d="M573.315,365.841h1.055v3.635h0.024c0.168-0.3,0.432-0.576,0.756-0.756c0.312-0.18,0.684-0.288,1.079-0.288
		c0.779,0,2.026,0.479,2.026,2.471v3.454h-1.055v-3.334c0-0.936-0.349-1.715-1.344-1.715c-0.684,0-1.211,0.479-1.415,1.043
		c-0.06,0.156-0.072,0.312-0.072,0.504v3.502h-1.055V365.841z"/>
	<path d="M580.562,371.646c0.024,1.428,0.924,2.016,1.991,2.016c0.756,0,1.224-0.132,1.607-0.3l0.191,0.755
		c-0.372,0.168-1.02,0.372-1.942,0.372c-1.787,0-2.854-1.188-2.854-2.938s1.031-3.118,2.723-3.118c1.906,0,2.398,1.655,2.398,2.723
		c0,0.216-0.012,0.372-0.036,0.491H580.562z M583.657,370.891c0.012-0.66-0.276-1.703-1.463-1.703c-1.08,0-1.535,0.972-1.619,1.703
		H583.657z"/>
	<path d="M585.987,370.123c0-0.612-0.024-1.092-0.049-1.571h0.924l0.048,0.947h0.036c0.324-0.552,0.863-1.067,1.835-1.067
		c0.779,0,1.379,0.479,1.631,1.163h0.024c0.18-0.336,0.42-0.575,0.659-0.755c0.349-0.265,0.72-0.408,1.271-0.408
		c0.779,0,1.919,0.504,1.919,2.519v3.406h-1.031v-3.274c0-1.127-0.42-1.787-1.26-1.787c-0.611,0-1.067,0.444-1.259,0.948
		c-0.048,0.155-0.084,0.335-0.084,0.527v3.586h-1.031v-3.479c0-0.923-0.408-1.583-1.212-1.583c-0.647,0-1.139,0.528-1.307,1.056
		c-0.061,0.144-0.084,0.336-0.084,0.516v3.49h-1.031V370.123z"/>
	<path d="M601.248,371.406c0,2.146-1.499,3.082-2.891,3.082c-1.56,0-2.782-1.151-2.782-2.986c0-1.931,1.283-3.07,2.878-3.07
		C600.12,368.432,601.248,369.643,601.248,371.406z M596.654,371.466c0,1.271,0.72,2.231,1.751,2.231
		c1.008,0,1.763-0.948,1.763-2.255c0-0.983-0.491-2.219-1.738-2.219C597.194,369.224,596.654,370.375,596.654,371.466z"/>
	<path d="M603.854,367.16v1.392h1.512v0.804h-1.512v3.13c0,0.72,0.204,1.128,0.792,1.128c0.288,0,0.456-0.024,0.611-0.072
		l0.048,0.804c-0.203,0.071-0.527,0.144-0.936,0.144c-0.491,0-0.887-0.168-1.139-0.443c-0.288-0.324-0.408-0.84-0.408-1.523v-3.166
		h-0.899v-0.804h0.899v-1.079L603.854,367.16z"/>
	<path d="M606.555,365.841h1.055v3.635h0.024c0.168-0.3,0.432-0.576,0.756-0.756c0.312-0.18,0.684-0.288,1.079-0.288
		c0.779,0,2.026,0.479,2.026,2.471v3.454h-1.055v-3.334c0-0.936-0.348-1.715-1.344-1.715c-0.684,0-1.211,0.479-1.415,1.043
		c-0.06,0.156-0.072,0.312-0.072,0.504v3.502h-1.055V365.841z"/>
	<path d="M613.802,371.646c0.024,1.428,0.924,2.016,1.991,2.016c0.756,0,1.224-0.132,1.607-0.3l0.191,0.755
		c-0.372,0.168-1.02,0.372-1.942,0.372c-1.787,0-2.854-1.188-2.854-2.938s1.031-3.118,2.723-3.118c1.906,0,2.398,1.655,2.398,2.723
		c0,0.216-0.013,0.372-0.036,0.491H613.802z M616.896,370.891c0.012-0.66-0.276-1.703-1.463-1.703c-1.08,0-1.535,0.972-1.619,1.703
		H616.896z"/>
	<path d="M619.227,370.362c0-0.684-0.013-1.271-0.049-1.811h0.924l0.048,1.151h0.036c0.264-0.779,0.911-1.271,1.619-1.271
		c0.108,0,0.192,0.012,0.288,0.024v0.995c-0.108-0.024-0.216-0.024-0.36-0.024c-0.743,0-1.271,0.552-1.415,1.344
		c-0.023,0.144-0.036,0.323-0.036,0.491v3.095h-1.055V370.362z"/>
	<path d="M627.168,372.965c0,0.504,0.024,0.996,0.084,1.392h-0.947l-0.084-0.731h-0.036c-0.324,0.456-0.947,0.863-1.775,0.863
		c-1.175,0-1.774-0.827-1.774-1.667c0-1.403,1.247-2.171,3.49-2.159v-0.119c0-0.468-0.132-1.344-1.319-1.332
		c-0.552,0-1.115,0.156-1.523,0.432l-0.24-0.707c0.48-0.3,1.188-0.504,1.919-0.504c1.775,0,2.207,1.211,2.207,2.362V372.965z
		 M626.148,371.395c-1.151-0.024-2.458,0.18-2.458,1.307c0,0.695,0.455,1.008,0.983,1.008c0.768,0,1.259-0.479,1.427-0.972
		c0.036-0.12,0.048-0.24,0.048-0.336V371.395z"/>
	<path d="M628.875,370.446c0-0.743-0.024-1.343-0.049-1.895h0.936l0.061,0.995h0.023c0.42-0.707,1.115-1.115,2.063-1.115
		c1.415,0,2.471,1.188,2.471,2.938c0,2.087-1.283,3.118-2.651,3.118c-0.768,0-1.438-0.336-1.786-0.911h-0.024v3.154h-1.043V370.446z
		 M629.918,371.994c0,0.155,0.012,0.3,0.048,0.432c0.192,0.731,0.828,1.235,1.583,1.235c1.115,0,1.764-0.912,1.764-2.243
		c0-1.151-0.612-2.146-1.728-2.146c-0.72,0-1.403,0.504-1.595,1.295c-0.036,0.132-0.072,0.288-0.072,0.42V371.994z"/>
	<path d="M636.003,368.552l1.259,3.43c0.144,0.384,0.288,0.84,0.384,1.188h0.024c0.107-0.348,0.228-0.791,0.371-1.211l1.151-3.406
		h1.115l-1.583,4.138c-0.755,1.991-1.271,2.998-1.99,3.634c-0.528,0.444-1.032,0.624-1.296,0.672l-0.264-0.876
		c0.264-0.084,0.611-0.252,0.924-0.516c0.288-0.228,0.636-0.636,0.888-1.175c0.048-0.108,0.084-0.192,0.084-0.252
		c0-0.061-0.024-0.145-0.084-0.276l-2.135-5.349H636.003z"/>
</g>
<g>
	<path d="M519.611,500.414c0.456-0.107,1.188-0.18,1.907-0.18c1.044,0,1.715,0.18,2.207,0.588c0.42,0.312,0.684,0.791,0.684,1.427
		c0,0.792-0.527,1.476-1.367,1.775v0.036c0.768,0.18,1.667,0.815,1.667,2.015c0,0.695-0.276,1.235-0.695,1.619
		c-0.552,0.516-1.464,0.756-2.783,0.756c-0.72,0-1.271-0.048-1.619-0.097V500.414z M520.655,503.725h0.947
		c1.092,0,1.739-0.588,1.739-1.367c0-0.936-0.708-1.319-1.763-1.319c-0.48,0-0.756,0.036-0.924,0.072V503.725z M520.655,507.586
		c0.216,0.036,0.504,0.049,0.875,0.049c1.08,0,2.075-0.396,2.075-1.571c0-1.092-0.947-1.56-2.087-1.56h-0.863V507.586z"/>
	<path d="M530.937,506.783c0,0.611,0.013,1.139,0.049,1.595h-0.936l-0.061-0.947h-0.023c-0.265,0.468-0.888,1.079-1.919,1.079
		c-0.912,0-2.003-0.516-2.003-2.543v-3.394h1.055v3.202c0,1.104,0.349,1.859,1.296,1.859c0.707,0,1.199-0.492,1.391-0.972
		c0.061-0.145,0.097-0.336,0.097-0.54v-3.55h1.055V506.783z"/>
	<path d="M532.692,504.384c0-0.684-0.013-1.271-0.049-1.811h0.924l0.048,1.151h0.036c0.264-0.779,0.911-1.271,1.619-1.271
		c0.108,0,0.191,0.012,0.288,0.024v0.995c-0.108-0.024-0.216-0.024-0.36-0.024c-0.743,0-1.271,0.552-1.415,1.344
		c-0.023,0.144-0.036,0.323-0.036,0.491v3.095h-1.055V504.384z"/>
	<path d="M536.472,507.311c0.324,0.191,0.876,0.408,1.403,0.408c0.756,0,1.115-0.372,1.115-0.864c0-0.504-0.3-0.768-1.067-1.055
		c-1.056-0.384-1.547-0.948-1.547-1.644c0-0.936,0.768-1.703,2.003-1.703c0.588,0,1.104,0.156,1.415,0.359l-0.252,0.768
		c-0.228-0.144-0.647-0.348-1.188-0.348c-0.623,0-0.959,0.36-0.959,0.792c0,0.479,0.336,0.695,1.091,0.995
		c0.996,0.372,1.523,0.876,1.523,1.739c0,1.031-0.804,1.751-2.159,1.751c-0.635,0-1.223-0.168-1.631-0.407L536.472,507.311z"/>
	<path d="M542.639,501.182v1.392h1.512v0.804h-1.512v3.13c0,0.72,0.204,1.128,0.792,1.128c0.288,0,0.456-0.024,0.611-0.072
		l0.048,0.804c-0.203,0.071-0.527,0.144-0.936,0.144c-0.491,0-0.887-0.168-1.139-0.443c-0.288-0.324-0.408-0.84-0.408-1.523v-3.166
		h-0.899v-0.804h0.899v-1.079L542.639,501.182z"/>
	<path d="M546.515,500.942c0,0.359-0.252,0.647-0.672,0.647c-0.384,0-0.636-0.288-0.636-0.647c0-0.36,0.265-0.66,0.66-0.66
		C546.251,500.282,546.515,500.57,546.515,500.942z M545.34,508.378v-5.805h1.055v5.805H545.34z"/>
	<path d="M548.147,504.145c0-0.612-0.013-1.092-0.049-1.571h0.936l0.061,0.959h0.023c0.288-0.539,0.96-1.079,1.919-1.079
		c0.804,0,2.051,0.479,2.051,2.471v3.454h-1.055v-3.346c0-0.936-0.349-1.716-1.344-1.716c-0.684,0-1.224,0.492-1.415,1.08
		c-0.048,0.132-0.072,0.312-0.072,0.491v3.49h-1.055V504.145z"/>
	<path d="M559.772,507.526c0,1.344-0.275,2.146-0.827,2.662c-0.576,0.517-1.392,0.696-2.123,0.696c-0.696,0-1.464-0.168-1.931-0.479
		l0.264-0.816c0.384,0.252,0.983,0.468,1.703,0.468c1.079,0,1.871-0.563,1.871-2.038v-0.636h-0.024
		c-0.312,0.539-0.947,0.971-1.847,0.971c-1.439,0-2.471-1.223-2.471-2.83c0-1.967,1.283-3.07,2.626-3.07
		c1.008,0,1.548,0.516,1.812,0.995h0.023l0.036-0.875h0.936c-0.036,0.407-0.048,0.888-0.048,1.583V507.526z M558.717,504.864
		c0-0.181-0.012-0.336-0.06-0.468c-0.192-0.624-0.695-1.128-1.476-1.128c-1.007,0-1.727,0.852-1.727,2.195
		c0,1.139,0.587,2.087,1.715,2.087c0.659,0,1.247-0.408,1.463-1.08c0.061-0.18,0.084-0.384,0.084-0.563V504.864z"/>
	<path d="M569.061,499.862v7.017c0,0.516,0.023,1.104,0.048,1.499h-0.936l-0.048-1.008h-0.036c-0.312,0.648-1.008,1.14-1.955,1.14
		c-1.403,0-2.494-1.188-2.494-2.95c-0.013-1.931,1.199-3.106,2.603-3.106c0.899,0,1.487,0.42,1.751,0.876h0.023v-3.467H569.061z
		 M568.017,504.936c0-0.132-0.012-0.312-0.048-0.443c-0.155-0.66-0.731-1.212-1.522-1.212c-1.092,0-1.739,0.96-1.739,2.231
		c0,1.175,0.587,2.146,1.715,2.146c0.708,0,1.355-0.479,1.547-1.259c0.036-0.145,0.048-0.288,0.048-0.456V504.936z"/>
	<path d="M575.684,506.783c0,0.611,0.013,1.139,0.049,1.595h-0.936l-0.061-0.947h-0.023c-0.265,0.468-0.888,1.079-1.919,1.079
		c-0.912,0-2.003-0.516-2.003-2.543v-3.394h1.055v3.202c0,1.104,0.349,1.859,1.296,1.859c0.707,0,1.199-0.492,1.391-0.972
		c0.061-0.145,0.097-0.336,0.097-0.54v-3.55h1.055V506.783z"/>
	<path d="M578.026,505.667c0.024,1.428,0.924,2.016,1.991,2.016c0.756,0,1.224-0.132,1.607-0.3l0.191,0.755
		c-0.372,0.168-1.02,0.372-1.942,0.372c-1.787,0-2.854-1.188-2.854-2.938s1.031-3.118,2.723-3.118c1.906,0,2.398,1.655,2.398,2.723
		c0,0.216-0.013,0.372-0.036,0.491H578.026z M581.121,504.912c0.012-0.66-0.276-1.703-1.463-1.703c-1.08,0-1.535,0.972-1.619,1.703
		H581.121z"/>
	<path d="M587.266,501.182v1.392h1.512v0.804h-1.512v3.13c0,0.72,0.204,1.128,0.792,1.128c0.288,0,0.456-0.024,0.611-0.072
		l0.048,0.804c-0.203,0.071-0.527,0.144-0.936,0.144c-0.491,0-0.887-0.168-1.139-0.443c-0.288-0.324-0.408-0.84-0.408-1.523v-3.166
		h-0.899v-0.804h0.899v-1.079L587.266,501.182z"/>
	<path d="M595.148,505.428c0,2.146-1.499,3.082-2.891,3.082c-1.56,0-2.782-1.151-2.782-2.986c0-1.931,1.283-3.07,2.878-3.07
		C594.021,502.453,595.148,503.664,595.148,505.428z M590.555,505.487c0,1.271,0.72,2.231,1.751,2.231
		c1.008,0,1.763-0.948,1.763-2.255c0-0.983-0.491-2.219-1.738-2.219C591.095,503.245,590.555,504.396,590.555,505.487z"/>
	<path d="M511.591,514.263h1.055v8.516h-1.055V514.263z"/>
	<path d="M518.5,521.387c0,0.504,0.024,0.996,0.084,1.392h-0.947l-0.084-0.731h-0.036c-0.324,0.456-0.947,0.863-1.775,0.863
		c-1.175,0-1.774-0.827-1.774-1.667c0-1.403,1.247-2.171,3.49-2.159v-0.119c0-0.468-0.132-1.344-1.319-1.332
		c-0.552,0-1.115,0.156-1.523,0.432l-0.24-0.707c0.48-0.3,1.188-0.504,1.919-0.504c1.775,0,2.207,1.211,2.207,2.362V521.387z
		 M517.48,519.816c-1.151-0.024-2.458,0.18-2.458,1.307c0,0.695,0.455,1.008,0.983,1.008c0.768,0,1.259-0.479,1.427-0.972
		c0.036-0.12,0.048-0.24,0.048-0.336V519.816z"/>
	<path d="M520.207,518.784c0-0.684-0.013-1.271-0.049-1.811h0.924l0.048,1.151h0.036c0.264-0.779,0.911-1.271,1.619-1.271
		c0.108,0,0.192,0.012,0.288,0.024v0.995c-0.108-0.024-0.216-0.024-0.36-0.024c-0.743,0-1.271,0.552-1.415,1.344
		c-0.023,0.144-0.036,0.323-0.036,0.491v3.095h-1.055V518.784z"/>
	<path d="M529,521.927c0,1.344-0.276,2.146-0.827,2.662c-0.576,0.517-1.392,0.696-2.123,0.696c-0.696,0-1.464-0.168-1.932-0.479
		l0.265-0.816c0.384,0.252,0.983,0.468,1.703,0.468c1.079,0,1.87-0.563,1.87-2.038v-0.636h-0.023
		c-0.312,0.539-0.947,0.971-1.847,0.971c-1.439,0-2.471-1.223-2.471-2.83c0-1.967,1.283-3.07,2.626-3.07
		c1.008,0,1.548,0.516,1.812,0.995h0.023l0.036-0.875h0.936c-0.036,0.407-0.048,0.888-0.048,1.583V521.927z M527.944,519.265
		c0-0.181-0.012-0.336-0.06-0.468c-0.192-0.624-0.696-1.128-1.476-1.128c-1.007,0-1.727,0.852-1.727,2.195
		c0,1.139,0.588,2.087,1.715,2.087c0.659,0,1.247-0.408,1.463-1.08c0.061-0.18,0.084-0.384,0.084-0.563V519.265z"/>
	<path d="M531.329,520.067c0.024,1.428,0.924,2.016,1.991,2.016c0.756,0,1.224-0.132,1.607-0.3l0.191,0.755
		c-0.372,0.168-1.02,0.372-1.942,0.372c-1.787,0-2.854-1.188-2.854-2.938s1.031-3.118,2.723-3.118c1.906,0,2.398,1.655,2.398,2.723
		c0,0.216-0.013,0.372-0.036,0.491H531.329z M534.424,519.312c0.012-0.66-0.276-1.703-1.463-1.703c-1.08,0-1.535,0.972-1.619,1.703
		H534.424z"/>
	<path d="M539.706,516.974l1.14,3.25c0.191,0.54,0.348,1.02,0.468,1.499h0.036c0.132-0.479,0.3-0.959,0.491-1.499l1.128-3.25h1.103
		l-2.278,5.805h-1.008l-2.206-5.805H539.706z"/>
	<path d="M546.245,515.343c0,0.359-0.252,0.647-0.672,0.647c-0.384,0-0.636-0.288-0.636-0.647c0-0.36,0.265-0.66,0.66-0.66
		C545.981,514.683,546.245,514.971,546.245,515.343z M545.07,522.778v-5.805h1.055v5.805H545.07z"/>
	<path d="M547.878,518.784c0-0.684-0.013-1.271-0.049-1.811h0.924l0.048,1.151h0.036c0.264-0.779,0.911-1.271,1.619-1.271
		c0.108,0,0.191,0.012,0.288,0.024v0.995c-0.108-0.024-0.216-0.024-0.36-0.024c-0.743,0-1.271,0.552-1.415,1.344
		c-0.023,0.144-0.036,0.323-0.036,0.491v3.095h-1.055V518.784z"/>
	<path d="M555.819,521.387c0,0.504,0.024,0.996,0.084,1.392h-0.947l-0.084-0.731h-0.036c-0.323,0.456-0.947,0.863-1.775,0.863
		c-1.175,0-1.774-0.827-1.774-1.667c0-1.403,1.247-2.171,3.49-2.159v-0.119c0-0.468-0.132-1.344-1.319-1.332
		c-0.552,0-1.115,0.156-1.523,0.432l-0.24-0.707c0.48-0.3,1.188-0.504,1.919-0.504c1.775,0,2.207,1.211,2.207,2.362V521.387z
		 M554.8,519.816c-1.151-0.024-2.458,0.18-2.458,1.307c0,0.695,0.455,1.008,0.983,1.008c0.768,0,1.259-0.479,1.427-0.972
		c0.036-0.12,0.048-0.24,0.048-0.336V519.816z"/>
	<path d="M557.526,514.263h1.055v8.516h-1.055V514.263z"/>
	<path d="M568.155,519.828c0,2.146-1.499,3.082-2.891,3.082c-1.56,0-2.782-1.151-2.782-2.986c0-1.931,1.283-3.07,2.878-3.07
		C567.027,516.854,568.155,518.064,568.155,519.828z M563.562,519.888c0,1.271,0.72,2.231,1.751,2.231
		c1.008,0,1.763-0.948,1.763-2.255c0-0.983-0.491-2.219-1.738-2.219C564.102,517.646,563.562,518.797,563.562,519.888z"/>
	<path d="M569.813,516.974l1.14,3.25c0.191,0.54,0.348,1.02,0.468,1.499h0.036c0.132-0.479,0.3-0.959,0.491-1.499l1.128-3.25h1.103
		l-2.278,5.805h-1.008l-2.206-5.805H569.813z"/>
	<path d="M575.645,520.067c0.024,1.428,0.924,2.016,1.991,2.016c0.756,0,1.224-0.132,1.607-0.3l0.191,0.755
		c-0.372,0.168-1.02,0.372-1.942,0.372c-1.787,0-2.854-1.188-2.854-2.938s1.031-3.118,2.723-3.118c1.906,0,2.398,1.655,2.398,2.723
		c0,0.216-0.012,0.372-0.036,0.491H575.645z M578.739,519.312c0.012-0.66-0.276-1.703-1.463-1.703c-1.08,0-1.535,0.972-1.619,1.703
		H578.739z"/>
	<path d="M581.07,518.784c0-0.684-0.013-1.271-0.049-1.811h0.924l0.048,1.151h0.036c0.264-0.779,0.911-1.271,1.619-1.271
		c0.108,0,0.192,0.012,0.288,0.024v0.995c-0.108-0.024-0.216-0.024-0.36-0.024c-0.743,0-1.271,0.552-1.415,1.344
		c-0.023,0.144-0.036,0.323-0.036,0.491v3.095h-1.055V518.784z"/>
	<path d="M585.042,514.263h1.055v8.516h-1.055V514.263z"/>
	<path d="M593.127,519.828c0,2.146-1.499,3.082-2.891,3.082c-1.56,0-2.782-1.151-2.782-2.986c0-1.931,1.283-3.07,2.878-3.07
		C591.999,516.854,593.127,518.064,593.127,519.828z M588.533,519.888c0,1.271,0.72,2.231,1.751,2.231
		c1.008,0,1.763-0.948,1.763-2.255c0-0.983-0.491-2.219-1.738-2.219C589.073,517.646,588.533,518.797,588.533,519.888z"/>
	<path d="M598.539,521.387c0,0.504,0.024,0.996,0.084,1.392h-0.947l-0.084-0.731h-0.036c-0.324,0.456-0.947,0.863-1.775,0.863
		c-1.175,0-1.774-0.827-1.774-1.667c0-1.403,1.247-2.171,3.49-2.159v-0.119c0-0.468-0.132-1.344-1.319-1.332
		c-0.552,0-1.115,0.156-1.523,0.432l-0.24-0.707c0.48-0.3,1.188-0.504,1.919-0.504c1.775,0,2.207,1.211,2.207,2.362V521.387z
		 M597.52,519.816c-1.151-0.024-2.458,0.18-2.458,1.307c0,0.695,0.455,1.008,0.983,1.008c0.768,0,1.259-0.479,1.427-0.972
		c0.036-0.12,0.048-0.24,0.048-0.336V519.816z"/>
	<path d="M605.246,514.263v7.017c0,0.516,0.023,1.104,0.048,1.499h-0.936l-0.048-1.008h-0.036c-0.312,0.648-1.008,1.14-1.955,1.14
		c-1.403,0-2.494-1.188-2.494-2.95c-0.013-1.931,1.199-3.106,2.603-3.106c0.899,0,1.487,0.42,1.751,0.876h0.023v-3.467H605.246z
		 M604.202,519.336c0-0.132-0.012-0.312-0.048-0.443c-0.155-0.66-0.731-1.212-1.522-1.212c-1.092,0-1.739,0.96-1.739,2.231
		c0,1.175,0.587,2.146,1.715,2.146c0.708,0,1.355-0.479,1.547-1.259c0.036-0.145,0.048-0.288,0.048-0.456V519.336z"/>
</g>
<g>
	<path d="M380.514,458.959c-0.372,0.192-1.151,0.384-2.135,0.384c-2.279,0-3.982-1.439-3.982-4.102c0-2.543,1.715-4.246,4.222-4.246
		c0.996,0,1.643,0.216,1.919,0.36l-0.264,0.852c-0.384-0.192-0.948-0.336-1.619-0.336c-1.895,0-3.154,1.211-3.154,3.334
		c0,1.991,1.139,3.25,3.094,3.25c0.648,0,1.295-0.132,1.715-0.336L380.514,458.959z"/>
	<path d="M382.257,456.5c0.024,1.428,0.923,2.016,1.991,2.016c0.755,0,1.223-0.132,1.607-0.3l0.192,0.755
		c-0.372,0.168-1.019,0.372-1.943,0.372c-1.787,0-2.854-1.188-2.854-2.938s1.032-3.118,2.723-3.118c1.907,0,2.399,1.655,2.399,2.723
		c0,0.216-0.012,0.372-0.036,0.491H382.257z M385.351,455.745c0.012-0.66-0.276-1.703-1.463-1.703c-1.08,0-1.535,0.972-1.619,1.703
		H385.351z"/>
	<path d="M387.681,450.695h1.056v8.516h-1.056V450.695z"/>
	<path d="M390.513,450.695h1.056v8.516h-1.056V450.695z"/>
	<path d="M395.925,451.224c0.503-0.084,1.163-0.156,2.003-0.156c1.031,0,1.787,0.24,2.267,0.672c0.432,0.384,0.708,0.972,0.708,1.69
		c0,0.732-0.216,1.308-0.624,1.728c-0.564,0.588-1.451,0.888-2.471,0.888c-0.312,0-0.6-0.013-0.839-0.072v3.238h-1.043V451.224z
		 M396.968,455.121c0.228,0.061,0.516,0.084,0.863,0.084c1.259,0,2.027-0.624,2.027-1.715c0-1.079-0.768-1.596-1.907-1.596
		c-0.456,0-0.804,0.036-0.983,0.084V455.121z"/>
	<path d="M402.081,455.217c0-0.684-0.012-1.271-0.048-1.811h0.923l0.048,1.151h0.036c0.264-0.779,0.912-1.271,1.619-1.271
		c0.108,0,0.192,0.012,0.288,0.024v0.995c-0.108-0.024-0.216-0.024-0.359-0.024c-0.744,0-1.271,0.552-1.416,1.344
		c-0.024,0.144-0.036,0.324-0.036,0.491v3.095h-1.056V455.217z"/>
	<path d="M411.138,456.261c0,2.146-1.499,3.082-2.89,3.082c-1.559,0-2.783-1.151-2.783-2.986c0-1.931,1.284-3.07,2.878-3.07
		C410.011,453.286,411.138,454.497,411.138,456.261z M406.544,456.32c0,1.271,0.72,2.231,1.751,2.231
		c1.007,0,1.763-0.948,1.763-2.255c0-0.983-0.492-2.219-1.739-2.219C407.084,454.078,406.544,455.229,406.544,456.32z"/>
	<path d="M412.473,450.695h1.056v8.516h-1.056V450.695z"/>
	<path d="M416.479,451.775c0,0.359-0.252,0.647-0.671,0.647c-0.384,0-0.636-0.288-0.636-0.647c0-0.36,0.264-0.66,0.66-0.66
		C416.216,451.115,416.479,451.403,416.479,451.775z M415.304,459.211v-5.805h1.056v5.805H415.304z"/>
	<path d="M418.22,459.211v-5.001h-0.804v-0.804h0.804v-0.276c0-0.815,0.192-1.559,0.672-2.026c0.396-0.384,0.923-0.54,1.415-0.54
		c0.384,0,0.696,0.084,0.899,0.168l-0.144,0.815c-0.156-0.071-0.359-0.132-0.671-0.132c-0.899,0-1.127,0.779-1.127,1.68v0.312h1.403
		v0.804h-1.403v5.001H418.22z"/>
	<path d="M422.048,456.5c0.024,1.428,0.923,2.016,1.991,2.016c0.755,0,1.223-0.132,1.607-0.3l0.192,0.755
		c-0.372,0.168-1.019,0.372-1.943,0.372c-1.787,0-2.854-1.188-2.854-2.938s1.032-3.118,2.723-3.118c1.907,0,2.399,1.655,2.399,2.723
		c0,0.216-0.012,0.372-0.036,0.491H422.048z M425.143,455.745c0.012-0.66-0.276-1.703-1.463-1.703c-1.079,0-1.535,0.972-1.619,1.703
		H425.143z"/>
	<path d="M427.472,455.217c0-0.684-0.012-1.271-0.048-1.811h0.923l0.048,1.151h0.036c0.264-0.779,0.912-1.271,1.619-1.271
		c0.108,0,0.192,0.012,0.288,0.024v0.995c-0.108-0.024-0.216-0.024-0.359-0.024c-0.744,0-1.271,0.552-1.416,1.344
		c-0.024,0.144-0.036,0.324-0.036,0.491v3.095h-1.056V455.217z"/>
	<path d="M435.414,457.819c0,0.504,0.024,0.996,0.084,1.392h-0.947l-0.084-0.731h-0.036c-0.324,0.456-0.947,0.863-1.775,0.863
		c-1.175,0-1.775-0.827-1.775-1.667c0-1.403,1.247-2.171,3.49-2.159v-0.119c0-0.468-0.132-1.344-1.319-1.332
		c-0.551,0-1.115,0.156-1.523,0.432l-0.24-0.707c0.479-0.3,1.188-0.504,1.919-0.504c1.775,0,2.207,1.211,2.207,2.362V457.819z
		 M434.395,456.249c-1.151-0.024-2.459,0.18-2.459,1.307c0,0.696,0.456,1.008,0.983,1.008c0.768,0,1.259-0.479,1.427-0.972
		c0.036-0.12,0.048-0.24,0.048-0.336V456.249z"/>
	<path d="M438.344,452.015v1.392h1.511v0.804h-1.511v3.13c0,0.72,0.204,1.128,0.792,1.128c0.288,0,0.456-0.024,0.611-0.072
		l0.048,0.804c-0.204,0.071-0.528,0.144-0.936,0.144c-0.492,0-0.888-0.168-1.14-0.443c-0.288-0.324-0.408-0.84-0.408-1.523v-3.166
		h-0.899v-0.804h0.899v-1.079L438.344,452.015z"/>
	<path d="M442.22,451.775c0,0.359-0.252,0.647-0.671,0.647c-0.384,0-0.636-0.288-0.636-0.647c0-0.36,0.264-0.66,0.66-0.66
		C441.956,451.115,442.22,451.403,442.22,451.775z M441.044,459.211v-5.805h1.056v5.805H441.044z"/>
	<path d="M449.105,456.261c0,2.146-1.499,3.082-2.89,3.082c-1.559,0-2.783-1.151-2.783-2.986c0-1.931,1.284-3.07,2.878-3.07
		C447.978,453.286,449.105,454.497,449.105,456.261z M444.512,456.32c0,1.271,0.72,2.231,1.751,2.231
		c1.007,0,1.763-0.948,1.763-2.255c0-0.983-0.492-2.219-1.739-2.219C445.051,454.078,444.512,455.229,444.512,456.32z"/>
	<path d="M450.44,454.978c0-0.612-0.012-1.092-0.048-1.571h0.936l0.059,0.959h0.025c0.287-0.539,0.959-1.079,1.918-1.079
		c0.804,0,2.051,0.479,2.051,2.471v3.454h-1.055v-3.346c0-0.936-0.348-1.716-1.344-1.716c-0.684,0-1.223,0.492-1.415,1.08
		c-0.048,0.132-0.071,0.312-0.071,0.491v3.49h-1.056V454.978z"/>
</g>
<g>
	<ellipse fill="#D6C0DD" stroke="#000000" cx="693.537" cy="436.457" rx="27.036" ry="16.275"/>
	<ellipse fill="#D6C0DD" stroke="#000000" cx="706.86" cy="481.116" rx="27.035" ry="16.277"/>
	<ellipse fill="#D6C0DD" stroke="#000000" cx="757.468" cy="448.426" rx="27.037" ry="16.276"/>
	<ellipse fill="#D6C0DD" stroke="#000000" cx="768.7" cy="490.597" rx="27.035" ry="16.277"/>
	<ellipse fill="#D6C0DD" stroke="#000000" cx="644.794" cy="470.282" rx="27.036" ry="16.277"/>
	<ellipse fill="#D6C0DD" stroke="#000000" cx="670.516" cy="514.317" rx="27.035" ry="16.277"/>
	<ellipse fill="#D6C0DD" stroke="#000000" cx="738.747" cy="524.578" rx="27.037" ry="16.277"/>
</g>
<g>
	<path d="M685.15,557.292h1.055v7.208h3.455v0.876h-4.51V557.292z"/>
	<path d="M694.867,563.984c0,0.504,0.024,0.996,0.084,1.392h-0.947l-0.084-0.731h-0.035c-0.324,0.456-0.947,0.863-1.775,0.863
		c-1.176,0-1.775-0.827-1.775-1.667c0-1.403,1.248-2.171,3.49-2.159v-0.119c0-0.468-0.132-1.344-1.318-1.332
		c-0.553,0-1.116,0.156-1.523,0.432l-0.24-0.707c0.479-0.3,1.188-0.504,1.919-0.504c1.774,0,2.206,1.211,2.206,2.362V563.984z
		 M693.848,562.414c-1.15-0.024-2.458,0.18-2.458,1.307c0,0.696,0.456,1.008,0.983,1.008c0.768,0,1.26-0.479,1.428-0.972
		c0.035-0.12,0.047-0.24,0.047-0.336V562.414z"/>
	<path d="M697.797,558.18v1.392h1.512v0.804h-1.512v3.13c0,0.72,0.204,1.128,0.792,1.128c0.288,0,0.456-0.024,0.612-0.072
		l0.047,0.804c-0.203,0.071-0.527,0.144-0.936,0.144c-0.491,0-0.887-0.168-1.139-0.443c-0.288-0.324-0.408-0.84-0.408-1.523v-3.166
		h-0.899v-0.804h0.899v-1.079L697.797,558.18z"/>
	<path d="M701.014,562.665c0.023,1.428,0.924,2.016,1.99,2.016c0.756,0,1.224-0.132,1.607-0.3l0.191,0.755
		c-0.371,0.168-1.019,0.372-1.942,0.372c-1.787,0-2.854-1.188-2.854-2.938s1.031-3.118,2.723-3.118c1.906,0,2.398,1.655,2.398,2.723
		c0,0.216-0.012,0.372-0.035,0.491H701.014z M704.107,561.91c0.012-0.66-0.275-1.703-1.463-1.703c-1.08,0-1.535,0.972-1.619,1.703
		H704.107z"/>
	<path d="M706.438,561.143c0-0.612-0.012-1.092-0.048-1.571h0.936l0.06,0.959h0.024c0.288-0.539,0.96-1.079,1.919-1.079
		c0.803,0,2.051,0.479,2.051,2.471v3.454h-1.056v-3.346c0-0.936-0.348-1.716-1.343-1.716c-0.684,0-1.224,0.492-1.416,1.08
		c-0.047,0.132-0.071,0.312-0.071,0.491v3.49h-1.056V561.143z"/>
	<path d="M714.321,558.18v1.392h1.511v0.804h-1.511v3.13c0,0.72,0.204,1.128,0.792,1.128c0.287,0,0.455-0.024,0.611-0.072
		l0.048,0.804c-0.204,0.071-0.528,0.144-0.936,0.144c-0.491,0-0.888-0.168-1.14-0.443c-0.287-0.324-0.408-0.84-0.408-1.523v-3.166
		h-0.898v-0.804h0.898v-1.079L714.321,558.18z"/>
	<path d="M717.021,556.86h1.056v8.516h-1.056V556.86z"/>
	<path d="M720.237,559.571l1.259,3.43c0.145,0.384,0.289,0.84,0.385,1.188h0.023c0.107-0.348,0.229-0.791,0.372-1.211l1.151-3.406
		h1.115l-1.583,4.138c-0.756,1.991-1.271,2.998-1.991,3.634c-0.527,0.444-1.031,0.624-1.295,0.672l-0.264-0.876
		c0.264-0.084,0.611-0.252,0.924-0.516c0.287-0.228,0.635-0.636,0.887-1.175c0.048-0.108,0.084-0.192,0.084-0.252
		c0-0.061-0.023-0.145-0.084-0.276l-2.135-5.349H720.237z"/>
	<path d="M729.129,557.292v8.084h-1.056v-8.084H729.129z"/>
	<path d="M731.037,561.143c0-0.612-0.012-1.092-0.048-1.571h0.936l0.06,0.959h0.024c0.288-0.539,0.96-1.079,1.919-1.079
		c0.803,0,2.051,0.479,2.051,2.471v3.454h-1.056v-3.346c0-0.936-0.348-1.716-1.343-1.716c-0.684,0-1.224,0.492-1.416,1.08
		c-0.047,0.132-0.071,0.312-0.071,0.491v3.49h-1.056V561.143z"/>
	<path d="M737.805,565.376v-5.001h-0.803v-0.804h0.803v-0.276c0-0.815,0.192-1.559,0.672-2.026c0.396-0.384,0.924-0.54,1.416-0.54
		c0.383,0,0.695,0.084,0.898,0.168l-0.144,0.815c-0.155-0.071-0.359-0.132-0.671-0.132c-0.9,0-1.128,0.779-1.128,1.68v0.312h1.403
		v0.804h-1.403v5.001H737.805z"/>
	<path d="M741.633,562.665c0.023,1.428,0.924,2.016,1.99,2.016c0.756,0,1.224-0.132,1.607-0.3l0.191,0.755
		c-0.371,0.168-1.019,0.372-1.942,0.372c-1.787,0-2.854-1.188-2.854-2.938s1.031-3.118,2.723-3.118c1.906,0,2.398,1.655,2.398,2.723
		c0,0.216-0.012,0.372-0.035,0.491H741.633z M744.727,561.91c0.012-0.66-0.275-1.703-1.463-1.703c-1.08,0-1.535,0.972-1.619,1.703
		H744.727z"/>
	<path d="M751.195,565.172c-0.276,0.132-0.889,0.336-1.668,0.336c-1.75,0-2.891-1.188-2.891-2.962c0-1.787,1.225-3.095,3.119-3.095
		c0.623,0,1.176,0.156,1.463,0.312l-0.24,0.804c-0.252-0.132-0.646-0.275-1.223-0.275c-1.332,0-2.051,0.995-2.051,2.194
		c0,1.344,0.863,2.171,2.015,2.171c0.6,0,0.995-0.144,1.296-0.275L751.195,565.172z"/>
	<path d="M753.86,558.18v1.392h1.511v0.804h-1.511v3.13c0,0.72,0.204,1.128,0.792,1.128c0.287,0,0.455-0.024,0.611-0.072
		l0.048,0.804c-0.204,0.071-0.528,0.144-0.936,0.144c-0.491,0-0.888-0.168-1.14-0.443c-0.287-0.324-0.408-0.84-0.408-1.523v-3.166
		h-0.898v-0.804h0.898v-1.079L753.86,558.18z"/>
	<path d="M757.076,562.665c0.024,1.428,0.924,2.016,1.991,2.016c0.755,0,1.224-0.132,1.606-0.3l0.192,0.755
		c-0.372,0.168-1.019,0.372-1.942,0.372c-1.787,0-2.855-1.188-2.855-2.938s1.032-3.118,2.723-3.118c1.908,0,2.399,1.655,2.399,2.723
		c0,0.216-0.013,0.372-0.036,0.491H757.076z M760.171,561.91c0.012-0.66-0.276-1.703-1.464-1.703c-1.078,0-1.535,0.972-1.619,1.703
		H760.171z"/>
	<path d="M767.502,556.86v7.017c0,0.516,0.023,1.104,0.048,1.499h-0.936l-0.048-1.008h-0.036c-0.312,0.648-1.007,1.14-1.955,1.14
		c-1.403,0-2.495-1.188-2.495-2.95c-0.012-1.931,1.2-3.106,2.604-3.106c0.899,0,1.486,0.42,1.751,0.876h0.024v-3.467H767.502z
		 M766.459,561.934c0-0.132-0.013-0.312-0.049-0.443c-0.156-0.66-0.731-1.212-1.523-1.212c-1.091,0-1.738,0.96-1.738,2.231
		c0,1.175,0.588,2.146,1.715,2.146c0.707,0,1.355-0.479,1.547-1.259c0.036-0.145,0.049-0.288,0.049-0.456V561.934z"/>
	<path d="M706.681,579.524c-0.372,0.192-1.151,0.384-2.135,0.384c-2.278,0-3.981-1.439-3.981-4.102c0-2.543,1.715-4.246,4.221-4.246
		c0.996,0,1.644,0.216,1.92,0.36l-0.264,0.852c-0.385-0.192-0.948-0.336-1.619-0.336c-1.896,0-3.154,1.211-3.154,3.334
		c0,1.991,1.139,3.25,3.094,3.25c0.648,0,1.295-0.132,1.715-0.336L706.681,579.524z"/>
	<path d="M708.004,571.812c0.636-0.107,1.391-0.18,2.219-0.18c1.499,0,2.566,0.359,3.273,1.008c0.732,0.659,1.152,1.595,1.152,2.902
		c0,1.319-0.42,2.398-1.164,3.142c-0.768,0.756-2.015,1.164-3.586,1.164c-0.756,0-1.367-0.036-1.895-0.097V571.812z
		 M709.047,578.961c0.264,0.036,0.648,0.048,1.056,0.048c2.243,0,3.442-1.247,3.442-3.43c0.012-1.907-1.067-3.119-3.274-3.119
		c-0.54,0-0.947,0.049-1.224,0.108V578.961z"/>
	<path d="M718.886,579.776v-2.135h-3.622v-0.684l3.479-4.978h1.139v4.846h1.092v0.815h-1.092v2.135H718.886z M718.886,576.826
		v-2.603c0-0.408,0.013-0.815,0.036-1.224h-0.036c-0.239,0.456-0.432,0.792-0.647,1.151l-1.906,2.65v0.024H718.886z"/>
	<path d="M725.738,572.58h-2.459v-0.888h5.985v0.888h-2.471v7.196h-1.056V572.58z"/>
	<path d="M738.348,579.524c-0.371,0.192-1.15,0.384-2.135,0.384c-2.278,0-3.981-1.439-3.981-4.102c0-2.543,1.716-4.246,4.222-4.246
		c0.996,0,1.643,0.216,1.919,0.36l-0.264,0.852c-0.384-0.192-0.948-0.336-1.619-0.336c-1.896,0-3.154,1.211-3.154,3.334
		c0,1.991,1.14,3.25,3.095,3.25c0.646,0,1.295-0.132,1.715-0.336L738.348,579.524z"/>
	<path d="M740.091,577.065c0.024,1.428,0.923,2.016,1.991,2.016c0.755,0,1.223-0.132,1.606-0.3l0.192,0.755
		c-0.372,0.168-1.02,0.372-1.943,0.372c-1.787,0-2.854-1.188-2.854-2.938s1.032-3.118,2.723-3.118c1.907,0,2.399,1.655,2.399,2.723
		c0,0.216-0.013,0.372-0.037,0.491H740.091z M743.186,576.311c0.012-0.66-0.276-1.703-1.464-1.703c-1.079,0-1.535,0.972-1.619,1.703
		H743.186z"/>
	<path d="M745.516,571.261h1.055v8.516h-1.055V571.261z"/>
	<path d="M748.348,571.261h1.055v8.516h-1.055V571.261z"/>
	<path d="M751.035,578.709c0.324,0.191,0.875,0.408,1.402,0.408c0.756,0,1.115-0.372,1.115-0.864c0-0.504-0.299-0.768-1.066-1.055
		c-1.056-0.384-1.547-0.948-1.547-1.644c0-0.936,0.768-1.703,2.002-1.703c0.588,0,1.104,0.156,1.416,0.36l-0.252,0.768
		c-0.229-0.145-0.648-0.349-1.188-0.349c-0.624,0-0.959,0.36-0.959,0.792c0,0.479,0.335,0.695,1.091,0.995
		c0.995,0.372,1.522,0.876,1.522,1.739c0,1.031-0.803,1.751-2.158,1.751c-0.636,0-1.223-0.168-1.631-0.407L751.035,578.709z"/>
</g>
<g>
	<g>
		<line fill="none" stroke="#000000" x1="727.594" y1="189.685" x2="727.594" y2="234.094"/>
		<polygon points="723.891,231.285 727.594,232.858 731.298,231.285 727.594,240.063 		"/>
	</g>
</g>
<g>
	<path d="M737.57,213.512l-0.84,2.543h-1.079l2.759-8.084h1.247l2.759,8.084h-1.115l-0.864-2.543H737.57z M740.232,212.696
		l-0.803-2.326c-0.181-0.528-0.3-1.008-0.42-1.476h-0.024c-0.12,0.468-0.239,0.972-0.407,1.463l-0.792,2.339H740.232z"/>
	<path d="M744.722,208.858v1.392h1.512v0.804h-1.512v3.13c0,0.72,0.204,1.128,0.792,1.128c0.288,0,0.456-0.024,0.611-0.072
		l0.048,0.804c-0.203,0.071-0.527,0.144-0.936,0.144c-0.491,0-0.887-0.168-1.139-0.443c-0.288-0.324-0.408-0.84-0.408-1.523v-3.166
		h-0.899v-0.804h0.899v-1.079L744.722,208.858z"/>
	<path d="M748.694,208.858v1.392h1.512v0.804h-1.512v3.13c0,0.72,0.204,1.128,0.792,1.128c0.288,0,0.456-0.024,0.611-0.072
		l0.048,0.804c-0.203,0.071-0.527,0.144-0.936,0.144c-0.491,0-0.887-0.168-1.139-0.443c-0.288-0.324-0.408-0.84-0.408-1.523v-3.166
		h-0.899v-0.804h0.899v-1.079L748.694,208.858z"/>
	<path d="M755.473,214.663c0,0.504,0.024,0.996,0.084,1.392h-0.947l-0.084-0.731h-0.036c-0.323,0.456-0.947,0.863-1.775,0.863
		c-1.175,0-1.774-0.827-1.774-1.667c0-1.403,1.247-2.171,3.49-2.159v-0.119c0-0.468-0.132-1.344-1.319-1.332
		c-0.552,0-1.115,0.156-1.523,0.432l-0.24-0.707c0.48-0.3,1.188-0.504,1.919-0.504c1.775,0,2.207,1.211,2.207,2.362V214.663z
		 M754.453,213.093c-1.151-0.024-2.458,0.18-2.458,1.307c0,0.696,0.455,1.008,0.983,1.008c0.768,0,1.259-0.479,1.427-0.972
		c0.036-0.12,0.048-0.24,0.048-0.336V213.093z"/>
	<path d="M761.317,215.851c-0.276,0.132-0.888,0.336-1.668,0.336c-1.751,0-2.89-1.188-2.89-2.962c0-1.787,1.223-3.095,3.118-3.095
		c0.623,0,1.175,0.156,1.463,0.312l-0.239,0.804c-0.252-0.132-0.648-0.275-1.224-0.275c-1.331,0-2.051,0.995-2.051,2.194
		c0,1.344,0.863,2.171,2.015,2.171c0.6,0,0.995-0.144,1.295-0.275L761.317,215.851z"/>
	<path d="M763.599,212.912h0.024c0.144-0.203,0.335-0.455,0.503-0.659l1.716-2.003h1.259l-2.23,2.387l2.555,3.418h-1.296
		l-1.99-2.782l-0.54,0.6v2.183h-1.043v-8.516h1.043V212.912z"/>
	<path d="M774.805,214.663c0,0.504,0.024,0.996,0.084,1.392h-0.947l-0.084-0.731h-0.036c-0.323,0.456-0.947,0.863-1.775,0.863
		c-1.175,0-1.774-0.827-1.774-1.667c0-1.403,1.247-2.171,3.49-2.159v-0.119c0-0.468-0.132-1.344-1.319-1.332
		c-0.552,0-1.115,0.156-1.523,0.432l-0.24-0.707c0.48-0.3,1.188-0.504,1.919-0.504c1.775,0,2.207,1.211,2.207,2.362V214.663z
		 M773.785,213.093c-1.151-0.024-2.458,0.18-2.458,1.307c0,0.696,0.455,1.008,0.983,1.008c0.768,0,1.259-0.479,1.427-0.972
		c0.036-0.12,0.048-0.24,0.048-0.336V213.093z"/>
	<path d="M776.511,211.821c0-0.612-0.013-1.092-0.049-1.571h0.936l0.061,0.959h0.023c0.288-0.539,0.96-1.079,1.919-1.079
		c0.804,0,2.051,0.479,2.051,2.471v3.454h-1.055v-3.346c0-0.936-0.348-1.716-1.344-1.716c-0.684,0-1.224,0.492-1.415,1.08
		c-0.048,0.132-0.072,0.312-0.072,0.491v3.49h-1.055V211.821z"/>
	<path d="M788.172,207.539v7.017c0,0.516,0.023,1.104,0.048,1.499h-0.936l-0.048-1.008H787.2c-0.312,0.648-1.008,1.14-1.955,1.14
		c-1.403,0-2.494-1.188-2.494-2.95c-0.013-1.931,1.199-3.106,2.603-3.106c0.899,0,1.487,0.42,1.751,0.876h0.023v-3.467H788.172z
		 M787.128,212.612c0-0.132-0.012-0.312-0.048-0.443c-0.155-0.66-0.731-1.212-1.523-1.212c-1.091,0-1.738,0.96-1.738,2.231
		c0,1.175,0.588,2.146,1.715,2.146c0.708,0,1.355-0.479,1.547-1.259c0.036-0.145,0.048-0.288,0.048-0.456V212.612z"/>
	<path d="M792.518,207.971h1.044v3.898h0.036c0.216-0.312,0.432-0.6,0.636-0.863l2.471-3.035h1.295l-2.927,3.431l3.154,4.653h-1.235
		l-2.65-3.97l-0.779,0.888v3.082h-1.044V207.971z"/>
	<path d="M800.281,208.619c0,0.359-0.252,0.647-0.672,0.647c-0.384,0-0.636-0.288-0.636-0.647c0-0.36,0.265-0.66,0.66-0.66
		C800.018,207.959,800.281,208.247,800.281,208.619z M799.106,216.055v-5.805h1.055v5.805H799.106z"/>
	<path d="M801.915,207.539h1.055v8.516h-1.055V207.539z"/>
	<path d="M804.746,207.539h1.055v8.516h-1.055V207.539z"/>
</g>
<g>
	<g>
		<line fill="none" stroke="#000000" x1="727.594" y1="362.342" x2="727.594" y2="406.751"/>
		<polygon points="723.891,403.942 727.594,405.515 731.298,403.942 727.594,412.72 		"/>
	</g>
</g>
<g>
	<g>
		<g>
			<line fill="none" x1="818.852" y1="491.284" x2="882.104" y2="491.284"/>
			<polygon fill="#EF3A40" points="879.846,494.987 881.109,491.284 879.846,487.58 886.902,491.284 			"/>
		</g>
		<g>
			<line fill="none" stroke="#231F20" x1="818.852" y1="491.284" x2="882.104" y2="491.284"/>
			<polygon fill="#231F20" points="879.846,494.987 881.109,491.284 879.846,487.58 886.902,491.284 			"/>
		</g>
	</g>
	<g>
		<path d="M825.399,477.788c-0.372,0.192-1.151,0.384-2.135,0.384c-2.278,0-3.981-1.439-3.981-4.102
			c0-2.543,1.715-4.246,4.221-4.246c0.996,0,1.644,0.217,1.92,0.36l-0.264,0.851c-0.385-0.191-0.948-0.335-1.619-0.335
			c-1.896,0-3.154,1.212-3.154,3.334c0,1.991,1.139,3.251,3.094,3.251c0.648,0,1.295-0.133,1.715-0.336L825.399,477.788z"/>
		<path d="M827.143,475.33c0.023,1.427,0.924,2.014,1.99,2.014c0.756,0,1.224-0.131,1.607-0.299l0.191,0.756
			c-0.371,0.168-1.019,0.371-1.942,0.371c-1.787,0-2.854-1.188-2.854-2.938s1.031-3.118,2.723-3.118
			c1.906,0,2.398,1.655,2.398,2.723c0,0.216-0.012,0.371-0.035,0.492H827.143z M830.236,474.574c0.012-0.66-0.275-1.703-1.463-1.703
			c-1.08,0-1.535,0.971-1.619,1.703H830.236z"/>
		<path d="M832.566,469.525h1.056v8.515h-1.056V469.525z"/>
		<path d="M835.398,469.525h1.056v8.515h-1.056V469.525z"/>
		<path d="M840.811,470.076c0.636-0.107,1.391-0.18,2.219-0.18c1.499,0,2.566,0.359,3.273,1.008
			c0.732,0.659,1.152,1.595,1.152,2.902c0,1.318-0.42,2.398-1.164,3.143c-0.768,0.755-2.015,1.162-3.586,1.162
			c-0.756,0-1.367-0.035-1.895-0.096V470.076z M841.854,477.225c0.264,0.035,0.648,0.048,1.056,0.048
			c2.243,0,3.442-1.247,3.442-3.431c0.012-1.906-1.067-3.117-3.274-3.117c-0.54,0-0.947,0.047-1.224,0.107V477.225z"/>
		<path d="M849.402,475.33c0.023,1.427,0.923,2.014,1.99,2.014c0.756,0,1.223-0.131,1.607-0.299l0.191,0.756
			c-0.371,0.168-1.02,0.371-1.943,0.371c-1.787,0-2.854-1.188-2.854-2.938s1.031-3.118,2.723-3.118c1.906,0,2.398,1.655,2.398,2.723
			c0,0.216-0.012,0.371-0.036,0.492H849.402z M852.496,474.574c0.012-0.66-0.275-1.703-1.463-1.703c-1.08,0-1.535,0.971-1.619,1.703
			H852.496z"/>
		<path d="M858.903,476.648c0,0.504,0.024,0.996,0.084,1.392h-0.947l-0.084-0.731h-0.036c-0.324,0.455-0.947,0.863-1.775,0.863
			c-1.175,0-1.774-0.828-1.774-1.667c0-1.403,1.247-2.171,3.489-2.159v-0.119c0-0.469-0.131-1.344-1.318-1.332
			c-0.552,0-1.115,0.156-1.523,0.432l-0.24-0.707c0.48-0.3,1.188-0.504,1.92-0.504c1.774,0,2.206,1.211,2.206,2.363V476.648z
			 M857.885,475.078c-1.152-0.024-2.459,0.18-2.459,1.307c0,0.695,0.455,1.008,0.982,1.008c0.768,0,1.26-0.48,1.428-0.972
			c0.036-0.12,0.049-0.239,0.049-0.336V475.078z"/>
		<path d="M861.834,470.844v1.392h1.511v0.804h-1.511v3.13c0,0.72,0.203,1.128,0.791,1.128c0.287,0,0.455-0.024,0.611-0.072
			l0.049,0.803c-0.205,0.072-0.528,0.145-0.936,0.145c-0.492,0-0.889-0.168-1.141-0.443c-0.287-0.324-0.407-0.84-0.407-1.523v-3.166
			h-0.899v-0.804h0.899v-1.079L861.834,470.844z"/>
		<path d="M864.533,469.525h1.057v3.633h0.023c0.168-0.299,0.432-0.575,0.756-0.755c0.312-0.181,0.684-0.288,1.079-0.288
			c0.779,0,2.026,0.48,2.026,2.471v3.454h-1.055v-3.334c0-0.936-0.348-1.716-1.344-1.716c-0.684,0-1.211,0.48-1.415,1.044
			c-0.06,0.155-0.071,0.312-0.071,0.504v3.502h-1.057V469.525z"/>
	</g>
</g>
<g>
	<g>
		<g>
			<line fill="none" x1="818.852" y1="301.799" x2="882.104" y2="301.799"/>
			<polygon fill="#EF3A40" points="879.846,305.502 881.109,301.799 879.846,298.095 886.902,301.799 			"/>
		</g>
		<g>
			<line fill="none" stroke="#231F20" x1="818.852" y1="301.799" x2="882.104" y2="301.799"/>
			<polygon fill="#231F20" points="879.846,305.502 881.109,301.799 879.846,298.095 886.902,301.799 			"/>
		</g>
	</g>
	<g>
		<path d="M825.399,288.303c-0.372,0.192-1.151,0.384-2.135,0.384c-2.278,0-3.981-1.439-3.981-4.102
			c0-2.542,1.715-4.246,4.221-4.246c0.996,0,1.644,0.216,1.92,0.36l-0.264,0.851c-0.385-0.191-0.948-0.335-1.619-0.335
			c-1.896,0-3.154,1.211-3.154,3.334c0,1.991,1.139,3.25,3.094,3.25c0.648,0,1.295-0.132,1.715-0.336L825.399,288.303z"/>
		<path d="M827.143,285.845c0.023,1.427,0.924,2.015,1.99,2.015c0.756,0,1.224-0.132,1.607-0.3l0.191,0.756
			c-0.371,0.168-1.019,0.372-1.942,0.372c-1.787,0-2.854-1.187-2.854-2.938c0-1.751,1.031-3.118,2.723-3.118
			c1.906,0,2.398,1.655,2.398,2.723c0,0.216-0.012,0.372-0.035,0.492H827.143z M830.236,285.089
			c0.012-0.659-0.275-1.703-1.463-1.703c-1.08,0-1.535,0.971-1.619,1.703H830.236z"/>
		<path d="M832.566,280.04h1.056v8.515h-1.056V280.04z"/>
		<path d="M835.398,280.04h1.056v8.515h-1.056V280.04z"/>
		<path d="M840.811,280.592c0.636-0.108,1.391-0.18,2.219-0.18c1.499,0,2.566,0.36,3.273,1.007c0.732,0.66,1.152,1.595,1.152,2.902
			c0,1.319-0.42,2.399-1.164,3.143c-0.768,0.755-2.015,1.163-3.586,1.163c-0.756,0-1.367-0.036-1.895-0.096V280.592z
			 M841.854,287.74c0.264,0.036,0.648,0.048,1.056,0.048c2.243,0,3.442-1.248,3.442-3.43c0.012-1.907-1.067-3.118-3.274-3.118
			c-0.54,0-0.947,0.048-1.224,0.108V287.74z"/>
		<path d="M849.402,285.845c0.023,1.427,0.923,2.015,1.99,2.015c0.756,0,1.223-0.132,1.607-0.3l0.191,0.756
			c-0.371,0.168-1.02,0.372-1.943,0.372c-1.787,0-2.854-1.187-2.854-2.938c0-1.751,1.031-3.118,2.723-3.118
			c1.906,0,2.398,1.655,2.398,2.723c0,0.216-0.012,0.372-0.036,0.492H849.402z M852.496,285.089
			c0.012-0.659-0.275-1.703-1.463-1.703c-1.08,0-1.535,0.971-1.619,1.703H852.496z"/>
		<path d="M858.903,287.164c0,0.503,0.024,0.995,0.084,1.391h-0.947l-0.084-0.731h-0.036c-0.324,0.456-0.947,0.863-1.775,0.863
			c-1.175,0-1.774-0.828-1.774-1.667c0-1.403,1.247-2.171,3.489-2.159v-0.12c0-0.468-0.131-1.343-1.318-1.331
			c-0.552,0-1.115,0.156-1.523,0.432l-0.24-0.708c0.48-0.3,1.188-0.504,1.92-0.504c1.774,0,2.206,1.211,2.206,2.363V287.164z
			 M857.885,285.593c-1.152-0.024-2.459,0.18-2.459,1.307c0,0.696,0.455,1.008,0.982,1.008c0.768,0,1.26-0.48,1.428-0.972
			c0.036-0.12,0.049-0.24,0.049-0.336V285.593z"/>
		<path d="M861.834,281.359v1.391h1.511v0.803h-1.511v3.13c0,0.72,0.203,1.127,0.791,1.127c0.287,0,0.455-0.024,0.611-0.072
			l0.049,0.803c-0.205,0.072-0.528,0.144-0.936,0.144c-0.492,0-0.889-0.168-1.141-0.444c-0.287-0.324-0.407-0.839-0.407-1.523
			v-3.167h-0.899v-0.803h0.899v-1.08L861.834,281.359z"/>
		<path d="M864.533,280.04h1.057v3.634h0.023c0.168-0.3,0.432-0.576,0.756-0.755c0.312-0.18,0.684-0.288,1.079-0.288
			c0.779,0,2.026,0.48,2.026,2.471v3.454h-1.055v-3.334c0-0.936-0.348-1.715-1.344-1.715c-0.684,0-1.211,0.48-1.415,1.043
			c-0.06,0.156-0.071,0.312-0.071,0.504v3.502h-1.057V280.04z"/>
	</g>
</g>
</svg>
