<?xml version="1.0" encoding="utf-8"?>
<!-- Generator: Adobe Illustrator 14.0.0, SVG Export Plug-In . SVG Version: 6.00 Build 43363)  -->
<!DOCTYPE svg PUBLIC "-//W3C//DTD SVG 1.1//EN" "http://www.w3.org/Graphics/SVG/1.1/DTD/svg11.dtd">
<svg version="1.1" id="Layer_1" xmlns="http://www.w3.org/2000/svg" xmlns:xlink="http://www.w3.org/1999/xlink" x="0px" y="0px"
	 width="658.386px" height="575.785px" viewBox="0 0 658.386 575.785" enable-background="new 0 0 658.386 575.785"
	 xml:space="preserve">
<g id="T">
	<ellipse id="T_path7" fill="#FFF200" stroke="#231F20" cx="223.334" cy="82.612" rx="13.243" ry="7.973"/>
	<ellipse id="T_path6" fill="#FFF200" stroke="#231F20" cx="231.33" cy="107.427" rx="13.243" ry="7.973"/>
	<ellipse id="T_path5" fill="#FFF200" stroke="#231F20" cx="261.182" cy="85.535" rx="13.244" ry="7.973"/>
	<ellipse id="T_path4" fill="#FFF200" stroke="#231F20" cx="268.48" cy="112.072" rx="13.243" ry="7.973"/>
	<ellipse id="T_path3" fill="#FFF200" stroke="#231F20" cx="197.497" cy="102.119" rx="13.243" ry="7.973"/>
	<ellipse id="T_path2" fill="#FFF200" stroke="#231F20" cx="212.057" cy="131.039" rx="13.244" ry="7.973"/>
	<ellipse id="T_path1" fill="#FFF200" stroke="#231F20" cx="248.578" cy="132.635" rx="13.243" ry="7.973"/>
</g>
<g id="I">
	<ellipse id="I_path7" fill="#F7941E" stroke="#231F20" cx="426.582" cy="82.611" rx="13.244" ry="7.973"/>
	<ellipse id="I_path6" fill="#F7941E" stroke="#231F20" cx="434.576" cy="107.426" rx="13.244" ry="7.973"/>
	<ellipse id="I_path5" fill="#F7941E" stroke="#231F20" cx="464.43" cy="85.536" rx="13.244" ry="7.973"/>
	<ellipse id="I_path4" fill="#F7941E" stroke="#231F20" cx="471.727" cy="112.072" rx="13.244" ry="7.973"/>
	<ellipse id="I_path3" fill="#F7941E" stroke="#231F20" cx="400.744" cy="102.12" rx="13.244" ry="7.973"/>
	<ellipse id="I_path2" fill="#F7941E" stroke="#231F20" cx="415.305" cy="131.038" rx="13.242" ry="7.973"/>
	<ellipse id="I_path1" fill="#F7941E" stroke="#231F20" cx="451.824" cy="132.634" rx="13.244" ry="7.974"/>
</g>
<g>
	<g>
		<line fill="none" stroke="#020202" x1="305.039" y1="107.478" x2="356.491" y2="107.478"/>
		<polygon fill="#020202" points="362.459,107.478 353.681,111.182 355.253,107.478 353.681,103.774 		"/>
	</g>
</g>
<path fill="none" stroke="#020202" d="M341.215,107.715c-10.626,0-16.923,29.708-16.923,79.218"/>
<g>
	<path d="M441.073,51.488v8.084h-1.058v-8.084H441.073z"/>
</g>
<g>
	<g>
		<path fill="none" stroke="#231F20" d="M475.716,132.634c23.067,52.301-24.53,75.615-101.007,79.585"/>
		<polygon fill="#231F20" points="377.323,208.375 375.944,212.154 377.706,215.772 368.748,212.528 		"/>
	</g>
</g>
<g>
	<path d="M390.036,16.26v8.084h-1.056V16.26H390.036z"/>
	<path d="M391.946,20.111c0-0.612-0.014-1.092-0.049-1.571h0.936l0.061,0.959h0.023c0.288-0.539,0.96-1.079,1.919-1.079
		c0.804,0,2.051,0.479,2.051,2.471v3.454h-1.055v-3.346c0-0.936-0.348-1.716-1.344-1.716c-0.685,0-1.225,0.492-1.415,1.08
		c-0.048,0.132-0.072,0.312-0.072,0.491v3.49h-1.055V20.111L391.946,20.111z"/>
	<path d="M398.712,24.344v-5.001h-0.804V18.54h0.804v-0.276c0-0.815,0.192-1.559,0.672-2.026c0.396-0.384,0.923-0.54,1.415-0.54
		c0.384,0,0.695,0.084,0.899,0.168l-0.145,0.815c-0.155-0.071-0.359-0.132-0.672-0.132c-0.898,0-1.127,0.779-1.127,1.68v0.312h1.402
		v0.804h-1.402v5.001h-1.043V24.344z"/>
	<path d="M402.54,21.633c0.024,1.428,0.924,2.016,1.991,2.016c0.756,0,1.224-0.132,1.606-0.3l0.191,0.755
		c-0.372,0.168-1.021,0.372-1.942,0.372c-1.787,0-2.854-1.188-2.854-2.938s1.031-3.118,2.723-3.118c1.906,0,2.398,1.655,2.398,2.723
		c0,0.216-0.014,0.372-0.036,0.491L402.54,21.633L402.54,21.633z M405.635,20.878c0.013-0.66-0.275-1.703-1.463-1.703
		c-1.08,0-1.535,0.972-1.619,1.703H405.635z"/>
	<path d="M412.103,24.14c-0.275,0.132-0.888,0.336-1.668,0.336c-1.751,0-2.89-1.188-2.89-2.962c0-1.787,1.223-3.095,3.118-3.095
		c0.623,0,1.175,0.156,1.463,0.312l-0.24,0.804c-0.251-0.132-0.646-0.275-1.223-0.275c-1.331,0-2.051,0.995-2.051,2.194
		c0,1.344,0.862,2.171,2.015,2.171c0.6,0,0.995-0.144,1.295-0.275L412.103,24.14z"/>
	<path d="M414.768,17.148v1.392h1.513v0.804h-1.513v3.13c0,0.72,0.204,1.128,0.792,1.128c0.288,0,0.456-0.024,0.611-0.072
		l0.048,0.804c-0.203,0.071-0.526,0.144-0.936,0.144c-0.491,0-0.887-0.168-1.14-0.443c-0.287-0.324-0.407-0.84-0.407-1.523v-3.166
		h-0.899V18.54h0.899v-1.08L414.768,17.148z"/>
	<path d="M417.984,21.633c0.023,1.428,0.924,2.016,1.99,2.016c0.757,0,1.225-0.132,1.607-0.3l0.191,0.755
		c-0.372,0.168-1.021,0.372-1.942,0.372c-1.787,0-2.854-1.188-2.854-2.938s1.031-3.118,2.724-3.118c1.906,0,2.397,1.655,2.397,2.723
		c0,0.216-0.013,0.372-0.036,0.491L417.984,21.633L417.984,21.633z M421.078,20.878c0.012-0.66-0.276-1.703-1.463-1.703
		c-1.08,0-1.535,0.972-1.619,1.703H421.078z"/>
	<path d="M428.409,15.829v7.017c0,0.516,0.022,1.104,0.048,1.499h-0.936l-0.049-1.008h-0.036c-0.312,0.648-1.008,1.14-1.954,1.14
		c-1.403,0-2.494-1.188-2.494-2.95c-0.014-1.931,1.199-3.106,2.603-3.106c0.899,0,1.487,0.42,1.751,0.876h0.023V15.83
		L428.409,15.829L428.409,15.829z M427.365,20.902c0-0.132-0.013-0.312-0.048-0.443c-0.155-0.66-0.731-1.212-1.523-1.212
		c-1.091,0-1.738,0.96-1.738,2.231c0,1.175,0.588,2.146,1.715,2.146c0.708,0,1.355-0.479,1.548-1.259
		c0.035-0.146,0.048-0.288,0.048-0.456L427.365,20.902L427.365,20.902z"/>
	<path d="M432.756,24.344V16.26h1.151l2.579,4.09c0.588,0.948,1.066,1.8,1.438,2.627l0.035-0.012
		c-0.096-1.08-0.119-2.063-0.119-3.322V16.26h0.983v8.084h-1.057l-2.565-4.102c-0.563-0.899-1.104-1.823-1.499-2.698l-0.036,0.012
		c0.06,1.02,0.071,1.991,0.071,3.334v3.454H432.756z"/>
	<path d="M445.869,21.394c0,2.146-1.499,3.082-2.892,3.082c-1.56,0-2.781-1.151-2.781-2.986c0-1.931,1.282-3.07,2.878-3.07
		C444.741,18.419,445.869,19.63,445.869,21.394z M441.276,21.454c0,1.271,0.72,2.231,1.751,2.231c1.008,0,1.763-0.948,1.763-2.255
		c0-0.983-0.491-2.219-1.738-2.219C441.816,19.211,441.276,20.363,441.276,21.454z"/>
	<path d="M447.204,20.111c0-0.612-0.013-1.092-0.049-1.571h0.936l0.062,0.959h0.022c0.288-0.539,0.96-1.079,1.919-1.079
		c0.805,0,2.051,0.479,2.051,2.471v3.454h-1.055v-3.346c0-0.936-0.349-1.716-1.344-1.716c-0.684,0-1.224,0.492-1.415,1.08
		c-0.048,0.132-0.072,0.312-0.072,0.491v3.49h-1.055V20.111L447.204,20.111z"/>
	<path d="M456.311,20.722v0.768h-2.963v-0.768H456.311z"/>
	<path d="M457.404,23.277c0.323,0.191,0.876,0.408,1.402,0.408c0.757,0,1.115-0.372,1.115-0.864c0-0.504-0.3-0.768-1.066-1.055
		c-1.057-0.384-1.548-0.948-1.548-1.644c0-0.936,0.769-1.703,2.003-1.703c0.589,0,1.104,0.156,1.415,0.36l-0.252,0.768
		c-0.228-0.145-0.646-0.349-1.188-0.349c-0.623,0-0.959,0.36-0.959,0.792c0,0.479,0.336,0.695,1.091,0.995
		c0.996,0.372,1.523,0.876,1.523,1.739c0,1.031-0.805,1.751-2.159,1.751c-0.635,0-1.224-0.168-1.631-0.407L457.404,23.277z"/>
	<path d="M462.3,20.434c0-0.743-0.023-1.343-0.049-1.895h0.936l0.062,0.995h0.023c0.42-0.707,1.114-1.115,2.062-1.115
		c1.415,0,2.471,1.188,2.471,2.938c0,2.087-1.282,3.118-2.65,3.118c-0.769,0-1.438-0.336-1.786-0.911h-0.024v3.154H462.3V20.434z
		 M463.343,21.982c0,0.155,0.013,0.3,0.048,0.432c0.192,0.731,0.828,1.235,1.583,1.235c1.115,0,1.765-0.912,1.765-2.243
		c0-1.151-0.612-2.146-1.729-2.146c-0.72,0-1.402,0.504-1.595,1.295c-0.036,0.132-0.072,0.288-0.072,0.42V21.982L463.343,21.982z"/>
	<path d="M469.715,21.633c0.024,1.428,0.924,2.016,1.991,2.016c0.756,0,1.224-0.132,1.606-0.3l0.191,0.755
		c-0.372,0.168-1.02,0.372-1.941,0.372c-1.787,0-2.854-1.188-2.854-2.938s1.031-3.118,2.723-3.118c1.906,0,2.398,1.655,2.398,2.723
		c0,0.216-0.012,0.372-0.036,0.491L469.715,21.633L469.715,21.633z M472.81,20.878c0.013-0.66-0.275-1.703-1.463-1.703
		c-1.08,0-1.535,0.972-1.619,1.703H472.81z"/>
	<path d="M479.278,24.14c-0.276,0.132-0.889,0.336-1.668,0.336c-1.751,0-2.891-1.188-2.891-2.962c0-1.787,1.224-3.095,3.118-3.095
		c0.623,0,1.175,0.156,1.463,0.312l-0.239,0.804c-0.252-0.132-0.647-0.275-1.224-0.275c-1.331,0-2.051,0.995-2.051,2.194
		c0,1.344,0.863,2.171,2.015,2.171c0.601,0,0.995-0.144,1.295-0.275L479.278,24.14z"/>
	<path d="M481.691,16.909c0,0.359-0.253,0.647-0.673,0.647c-0.384,0-0.636-0.288-0.636-0.647c0-0.36,0.266-0.66,0.66-0.66
		C481.427,16.249,481.691,16.537,481.691,16.909z M480.516,24.344V18.54h1.056v5.805L480.516,24.344L480.516,24.344z"/>
	<path d="M483.431,24.344v-5.001h-0.804V18.54h0.804v-0.324c0-1.522,0.899-2.519,2.53-2.519c0.54,0,1.176,0.168,1.477,0.384
		l-0.301,0.804c-0.264-0.18-0.708-0.336-1.224-0.336c-1.115,0-1.438,0.779-1.438,1.703v0.288h3.37v5.805h-1.056v-5.001h-2.314v5.001
		L483.431,24.344L483.431,24.344z"/>
	<path d="M493.738,24.14c-0.276,0.132-0.889,0.336-1.668,0.336c-1.751,0-2.891-1.188-2.891-2.962c0-1.787,1.224-3.095,3.118-3.095
		c0.623,0,1.175,0.156,1.463,0.312l-0.24,0.804c-0.251-0.132-0.646-0.275-1.223-0.275c-1.331,0-2.051,0.995-2.051,2.194
		c0,1.344,0.863,2.171,2.015,2.171c0.601,0,0.995-0.144,1.295-0.275L493.738,24.14z"/>
	<path d="M416.159,31.548h-2.458V30.66h5.983v0.888h-2.471v7.196h-1.056L416.159,31.548L416.159,31.548z"/>
	<path d="M423.863,37.353c0,0.504,0.023,0.996,0.084,1.392h-0.947l-0.084-0.731h-0.036c-0.323,0.456-0.947,0.863-1.775,0.863
		c-1.175,0-1.773-0.827-1.773-1.667c0-1.403,1.247-2.171,3.49-2.159v-0.119c0-0.468-0.132-1.344-1.319-1.332
		c-0.552,0-1.115,0.156-1.523,0.432l-0.239-0.707c0.479-0.3,1.188-0.504,1.919-0.504c1.774,0,2.207,1.211,2.207,2.362v2.17H423.863z
		 M422.843,35.783c-1.15-0.024-2.458,0.18-2.458,1.307c0,0.696,0.455,1.008,0.983,1.008c0.768,0,1.259-0.479,1.427-0.972
		c0.036-0.12,0.048-0.24,0.048-0.336V35.783z"/>
	<path d="M425.569,34.75c0-0.684-0.014-1.271-0.05-1.811h0.925l0.048,1.151h0.036c0.264-0.779,0.911-1.271,1.619-1.271
		c0.107,0,0.191,0.012,0.287,0.024v0.995c-0.107-0.024-0.216-0.024-0.359-0.024c-0.743,0-1.271,0.552-1.415,1.344
		c-0.023,0.144-0.036,0.324-0.036,0.491v3.095h-1.055V34.75z"/>
	<path d="M434.362,37.893c0,1.344-0.276,2.146-0.827,2.662c-0.576,0.517-1.393,0.696-2.123,0.696c-0.696,0-1.464-0.168-1.933-0.479
		l0.266-0.816c0.384,0.252,0.982,0.468,1.703,0.468c1.079,0,1.87-0.563,1.87-2.038V37.75h-0.023
		c-0.312,0.539-0.947,0.971-1.847,0.971c-1.439,0-2.472-1.223-2.472-2.83c0-1.967,1.283-3.07,2.626-3.07
		c1.009,0,1.549,0.516,1.812,0.995h0.023l0.035-0.875h0.937c-0.036,0.407-0.048,0.888-0.048,1.583V37.893L434.362,37.893z
		 M433.306,35.231c0-0.181-0.012-0.336-0.06-0.468c-0.192-0.624-0.696-1.128-1.477-1.128c-1.007,0-1.727,0.852-1.727,2.195
		c0,1.139,0.588,2.087,1.715,2.087c0.659,0,1.247-0.408,1.463-1.08c0.062-0.18,0.084-0.384,0.084-0.563L433.306,35.231
		L433.306,35.231z"/>
	<path d="M436.692,36.034c0.023,1.428,0.924,2.016,1.99,2.016c0.757,0,1.225-0.132,1.607-0.3l0.191,0.755
		c-0.372,0.168-1.021,0.372-1.942,0.372c-1.787,0-2.854-1.188-2.854-2.938s1.031-3.118,2.724-3.118c1.906,0,2.397,1.655,2.397,2.723
		c0,0.216-0.012,0.372-0.036,0.491L436.692,36.034L436.692,36.034z M439.786,35.279c0.012-0.66-0.276-1.703-1.463-1.703
		c-1.08,0-1.535,0.972-1.619,1.703H439.786z"/>
	<path d="M443.387,31.548v1.392h1.513v0.804h-1.513v3.13c0,0.72,0.204,1.128,0.792,1.128c0.288,0,0.456-0.024,0.611-0.072
		l0.048,0.804c-0.203,0.071-0.527,0.144-0.936,0.144c-0.491,0-0.888-0.168-1.14-0.443c-0.288-0.324-0.407-0.84-0.407-1.523v-3.166
		h-0.899V32.94h0.899v-1.079L443.387,31.548z"/>
	<path d="M454.306,38.493c-0.372,0.192-1.15,0.384-2.135,0.384c-2.279,0-3.981-1.439-3.981-4.102c0-2.543,1.715-4.246,4.222-4.246
		c0.995,0,1.644,0.216,1.919,0.36l-0.264,0.852c-0.385-0.192-0.947-0.336-1.619-0.336c-1.896,0-3.154,1.211-3.154,3.334
		c0,1.991,1.14,3.25,3.095,3.25c0.647,0,1.295-0.132,1.716-0.336L454.306,38.493z"/>
	<path d="M456.047,36.034c0.024,1.428,0.924,2.016,1.991,2.016c0.756,0,1.224-0.132,1.606-0.3l0.191,0.755
		c-0.372,0.168-1.02,0.372-1.942,0.372c-1.786,0-2.854-1.188-2.854-2.938s1.031-3.118,2.723-3.118c1.906,0,2.398,1.655,2.398,2.723
		c0,0.216-0.012,0.372-0.036,0.491L456.047,36.034L456.047,36.034z M459.142,35.279c0.013-0.66-0.275-1.703-1.463-1.703
		c-1.08,0-1.535,0.972-1.619,1.703H459.142z"/>
	<path d="M461.473,30.229h1.056v8.516h-1.056V30.229z"/>
	<path d="M464.305,30.229h1.056v8.516h-1.056V30.229z"/>
	<path d="M466.991,37.677c0.324,0.191,0.876,0.408,1.402,0.408c0.757,0,1.115-0.372,1.115-0.864c0-0.504-0.3-0.768-1.066-1.055
		c-1.057-0.384-1.548-0.948-1.548-1.644c0-0.936,0.769-1.703,2.004-1.703c0.588,0,1.104,0.156,1.415,0.36l-0.253,0.768
		c-0.228-0.146-0.646-0.349-1.188-0.349c-0.623,0-0.959,0.36-0.959,0.792c0,0.479,0.336,0.695,1.091,0.995
		c0.996,0.372,1.523,0.876,1.523,1.739c0,1.031-0.805,1.751-2.159,1.751c-0.635,0-1.223-0.168-1.631-0.407L466.991,37.677z"/>
</g>
<g>
	<path d="M472.007,213.812l-2.649-8.084h1.14l1.259,3.982c0.336,1.09,0.636,2.074,0.863,3.021h0.023
		c0.229-0.936,0.553-1.955,0.925-3.01l1.366-3.994h1.115l-2.891,8.084L472.007,213.812L472.007,213.812z"/>
	<path d="M477.875,206.377c0,0.359-0.252,0.646-0.672,0.646c-0.384,0-0.636-0.287-0.636-0.646c0-0.361,0.265-0.66,0.659-0.66
		C477.612,205.717,477.875,206.004,477.875,206.377z M476.7,213.812v-5.805h1.055v5.805H476.7z"/>
	<path d="M479.509,209.818c0-0.684-0.013-1.271-0.049-1.811h0.924l0.048,1.15h0.036c0.265-0.779,0.911-1.271,1.619-1.271
		c0.108,0,0.192,0.012,0.288,0.025v0.994c-0.108-0.023-0.216-0.023-0.36-0.023c-0.742,0-1.271,0.551-1.415,1.344
		c-0.022,0.143-0.035,0.324-0.035,0.49v3.096h-1.056V209.818z"/>
	<path d="M487.449,212.42c0,0.504,0.023,0.996,0.084,1.393h-0.947l-0.084-0.732h-0.036c-0.323,0.457-0.947,0.863-1.774,0.863
		c-1.176,0-1.774-0.826-1.774-1.666c0-1.404,1.247-2.172,3.49-2.16v-0.119c0-0.467-0.132-1.344-1.319-1.332
		c-0.552,0-1.115,0.156-1.522,0.432l-0.24-0.707c0.479-0.299,1.188-0.504,1.919-0.504c1.774,0,2.207,1.211,2.207,2.363v2.169
		H487.449z M486.43,210.85c-1.15-0.023-2.458,0.18-2.458,1.307c0,0.697,0.455,1.008,0.983,1.008c0.768,0,1.259-0.479,1.427-0.971
		c0.036-0.121,0.048-0.24,0.048-0.336V210.85z"/>
	<path d="M489.156,205.297h1.055v8.516h-1.055V205.297z"/>
	<path d="M494.568,205.824c0.504-0.084,1.164-0.156,2.003-0.156c1.031,0,1.787,0.24,2.268,0.672
		c0.432,0.385,0.707,0.973,0.707,1.691c0,0.732-0.216,1.307-0.624,1.727c-0.562,0.588-1.451,0.889-2.47,0.889
		c-0.312,0-0.602-0.014-0.84-0.072v3.238h-1.044V205.824z M495.612,209.723c0.228,0.061,0.516,0.084,0.862,0.084
		c1.261,0,2.027-0.625,2.027-1.715c0-1.08-0.768-1.596-1.907-1.596c-0.456,0-0.804,0.035-0.982,0.084V209.723z"/>
	<path d="M500.725,209.818c0-0.684-0.013-1.271-0.049-1.811h0.924l0.049,1.15h0.035c0.265-0.779,0.911-1.271,1.619-1.271
		c0.108,0,0.191,0.012,0.288,0.025v0.994c-0.107-0.023-0.216-0.023-0.359-0.023c-0.743,0-1.271,0.551-1.415,1.344
		c-0.023,0.143-0.036,0.324-0.036,0.49v3.096h-1.056V209.818z"/>
	<path d="M509.781,210.861c0,2.146-1.499,3.082-2.892,3.082c-1.56,0-2.781-1.15-2.781-2.986c0-1.93,1.282-3.07,2.878-3.07
		C508.654,207.887,509.781,209.098,509.781,210.861z M505.188,210.922c0,1.271,0.721,2.23,1.752,2.23
		c1.008,0,1.763-0.947,1.763-2.254c0-0.984-0.491-2.219-1.738-2.219C505.728,208.68,505.188,209.83,505.188,210.922z"/>
	<path d="M516.117,205.297v7.016c0,0.516,0.022,1.104,0.048,1.5h-0.937l-0.048-1.008h-0.036c-0.312,0.648-1.008,1.139-1.954,1.139
		c-1.403,0-2.494-1.188-2.494-2.949c-0.014-1.932,1.198-3.107,2.603-3.107c0.899,0,1.487,0.42,1.751,0.877h0.023v-3.467
		L516.117,205.297L516.117,205.297z M515.073,210.369c0-0.131-0.013-0.311-0.048-0.443c-0.155-0.66-0.731-1.211-1.523-1.211
		c-1.091,0-1.738,0.959-1.738,2.23c0,1.176,0.588,2.146,1.715,2.146c0.709,0,1.355-0.479,1.548-1.258
		c0.036-0.145,0.048-0.289,0.048-0.457L515.073,210.369L515.073,210.369z"/>
	<path d="M522.74,212.217c0,0.611,0.013,1.139,0.049,1.596h-0.936l-0.062-0.947h-0.022c-0.266,0.467-0.889,1.078-1.92,1.078
		c-0.911,0-2.003-0.516-2.003-2.543v-3.393h1.056v3.201c0,1.104,0.349,1.859,1.296,1.859c0.707,0,1.199-0.492,1.391-0.971
		c0.062-0.145,0.097-0.336,0.097-0.541v-3.549h1.056L522.74,212.217L522.74,212.217z"/>
	<path d="M528.634,213.607c-0.275,0.133-0.888,0.336-1.668,0.336c-1.751,0-2.89-1.188-2.89-2.961c0-1.787,1.223-3.096,3.118-3.096
		c0.622,0,1.175,0.156,1.463,0.312l-0.239,0.803c-0.252-0.131-0.648-0.275-1.224-0.275c-1.331,0-2.052,0.996-2.052,2.195
		c0,1.344,0.863,2.17,2.016,2.17c0.6,0,0.995-0.143,1.295-0.275L528.634,213.607z"/>
	<path d="M531.299,206.615v1.393h1.512v0.803h-1.512v3.131c0,0.719,0.204,1.127,0.792,1.127c0.288,0,0.456-0.023,0.611-0.072
		l0.048,0.805c-0.203,0.07-0.527,0.143-0.936,0.143c-0.491,0-0.888-0.168-1.14-0.443c-0.288-0.324-0.408-0.84-0.408-1.523v-3.166
		h-0.898v-0.803h0.898v-1.08L531.299,206.615z"/>
	<path d="M535.175,206.377c0,0.359-0.252,0.646-0.672,0.646c-0.384,0-0.636-0.287-0.636-0.646c0-0.361,0.265-0.66,0.66-0.66
		C534.911,205.717,535.175,206.004,535.175,206.377z M534,213.812v-5.805h1.055v5.805H534z"/>
	<path d="M542.061,210.861c0,2.146-1.499,3.082-2.891,3.082c-1.56,0-2.782-1.15-2.782-2.986c0-1.93,1.283-3.07,2.878-3.07
		C540.933,207.887,542.061,209.098,542.061,210.861z M537.467,210.922c0,1.271,0.72,2.23,1.751,2.23
		c1.008,0,1.763-0.947,1.763-2.254c0-0.984-0.49-2.219-1.737-2.219C538.007,208.68,537.467,209.83,537.467,210.922z"/>
	<path d="M543.397,209.578c0-0.611-0.014-1.092-0.05-1.57h0.937l0.061,0.959h0.023c0.288-0.539,0.96-1.08,1.919-1.08
		c0.804,0,2.051,0.48,2.051,2.471v3.455h-1.055v-3.346c0-0.936-0.349-1.717-1.345-1.717c-0.684,0-1.224,0.492-1.414,1.08
		c-0.049,0.133-0.072,0.312-0.072,0.492v3.49h-1.055V209.578z"/>
</g>
<g id="v">
	<ellipse id="v_path4" fill="#F15B2B" stroke="#231F20" cx="323.865" cy="201.06" rx="8.489" ry="5.11"/>
	<ellipse id="v_path2" fill="#F15B2B" stroke="#231F20" cx="341.631" cy="208.328" rx="8.49" ry="5.109"/>
	<ellipse id="v_path3" fill="#F15B2B" stroke="#231F20" cx="322.573" cy="215.596" rx="8.489" ry="5.11"/>
	<ellipse id="v_path1" fill="#F15B2B" stroke="#231F20" cx="306.583" cy="206.874" rx="8.489" ry="5.11"/>
</g>
<g>
	<path d="M323.428,237.674l-2.649-8.084h1.14l1.259,3.982c0.336,1.092,0.637,2.074,0.863,3.022h0.024
		c0.228-0.936,0.552-1.955,0.924-3.012l1.367-3.994h1.114l-2.891,8.084L323.428,237.674L323.428,237.674z"/>
</g>
<g>
	<g>
		<path fill="none" stroke="#231F20" d="M195.198,142.613c-38.917,26.938-38.917-93.896,4.699-71.466"/>
		<polygon fill="#231F20" points="195.707,73.156 198.8,70.582 199.096,66.568 205.207,73.877 		"/>
	</g>
</g>
<g>
	<path d="M332.028,388.479v0.804c0,0.672,0.022,1.68,0.144,2.172h-0.982c-0.145-0.385-0.181-1.199-0.181-2.039v-5.519
		c0-1.653,0.443-2.388,0.899-2.83c0.396-0.384,0.936-0.636,1.703-0.636c1.198,0,2.109,0.84,2.109,2.087
		c0,0.924-0.526,1.606-1.079,1.871v0.062c0.912,0.18,1.775,0.946,1.775,2.277c0,1.605-1.224,2.482-2.495,2.482
		c-0.814,0-1.415-0.265-1.871-0.731H332.028L332.028,388.479z M332.028,387.436c0.264,0.442,0.862,0.959,1.69,0.959
		c0.959,0,1.644-0.707,1.644-1.655c0-1.162-0.805-1.75-1.871-1.787c-0.107,0-0.216,0-0.323,0v-0.72c0.071,0,0.144,0,0.203-0.012
		c0.912-0.072,1.367-0.779,1.367-1.535c0-0.862-0.517-1.415-1.224-1.415c-0.972,0-1.486,0.839-1.486,2.507V387.436L332.028,387.436z
		"/>
</g>
<g>
	<path d="M496.528,185.734c0.289-0.54,0.961-1.08,1.92-1.08c0.803,0,2.051,0.48,2.051,2.471v3.67c0,0.66,0.012,1.68,0.133,2.16
		h-1.008c-0.145-0.361-0.18-1.355-0.18-2.123v-3.599c0-0.936-0.349-1.715-1.345-1.715c-0.684,0-1.225,0.491-1.416,1.079
		c-0.047,0.12-0.071,0.312-0.071,0.48v3.502h-1.056v-4.234c0-0.588-0.034-1.176-0.168-1.57h0.947
		c0.107,0.215,0.168,0.587,0.168,0.959H496.528z"/>
</g>
<g>
	<path d="M237.4,52.377h-2.458v-0.888h5.984v0.888h-2.471v7.196H237.4V52.377z"/>
</g>
<g>
	<path d="M207.983,24.345v-8.084h1.151l2.579,4.09c0.588,0.948,1.066,1.8,1.438,2.627l0.035-0.012
		c-0.096-1.08-0.119-2.063-0.119-3.322v-3.383h0.983v8.084h-1.056l-2.566-4.102c-0.562-0.899-1.104-1.823-1.499-2.698l-0.036,0.012
		c0.061,1.02,0.071,1.991,0.071,3.334v3.454H207.983z"/>
	<path d="M221.096,21.395c0,2.146-1.499,3.082-2.891,3.082c-1.561,0-2.782-1.151-2.782-2.986c0-1.931,1.283-3.07,2.878-3.07
		C219.968,18.42,221.096,19.631,221.096,21.395z M216.502,21.455c0,1.271,0.72,2.231,1.751,2.231c1.008,0,1.763-0.948,1.763-2.255
		c0-0.983-0.491-2.219-1.738-2.219C217.042,19.212,216.502,20.364,216.502,21.455z"/>
	<path d="M222.431,20.112c0-0.612-0.013-1.092-0.049-1.571h0.936l0.062,0.959h0.022c0.288-0.539,0.96-1.079,1.919-1.079
		c0.805,0,2.052,0.479,2.052,2.471v3.454h-1.056V21c0-0.936-0.348-1.716-1.344-1.716c-0.684,0-1.224,0.492-1.415,1.08
		c-0.048,0.132-0.072,0.312-0.072,0.491v3.49h-1.055V20.112L222.431,20.112z"/>
	<path d="M231.538,20.723v0.768h-2.963v-0.768H231.538z"/>
	<path d="M232.63,23.278c0.324,0.191,0.876,0.408,1.403,0.408c0.756,0,1.114-0.372,1.114-0.864c0-0.504-0.3-0.768-1.066-1.055
		c-1.057-0.384-1.547-0.948-1.547-1.644c0-0.936,0.768-1.703,2.003-1.703c0.588,0,1.104,0.156,1.415,0.36l-0.252,0.768
		c-0.229-0.145-0.647-0.349-1.188-0.349c-0.623,0-0.959,0.36-0.959,0.792c0,0.479,0.336,0.695,1.091,0.995
		c0.996,0.372,1.523,0.876,1.523,1.739c0,1.031-0.805,1.751-2.158,1.751c-0.636,0-1.224-0.168-1.632-0.407L232.63,23.278z"/>
	<path d="M237.527,20.435c0-0.743-0.023-1.343-0.049-1.895h0.937l0.061,0.995h0.023c0.42-0.707,1.114-1.115,2.062-1.115
		c1.415,0,2.472,1.188,2.472,2.938c0,2.087-1.283,3.118-2.651,3.118c-0.769,0-1.438-0.336-1.786-0.911h-0.024v3.154h-1.043
		L237.527,20.435L237.527,20.435z M238.57,21.983c0,0.155,0.013,0.3,0.049,0.432c0.191,0.731,0.827,1.235,1.583,1.235
		c1.114,0,1.764-0.912,1.764-2.243c0-1.151-0.612-2.146-1.729-2.146c-0.72,0-1.402,0.504-1.595,1.295
		c-0.036,0.132-0.072,0.288-0.072,0.42V21.983z"/>
	<path d="M244.942,21.634c0.024,1.428,0.925,2.016,1.991,2.016c0.756,0,1.225-0.132,1.607-0.3l0.19,0.755
		c-0.372,0.168-1.02,0.372-1.941,0.372c-1.787,0-2.854-1.188-2.854-2.938s1.031-3.118,2.724-3.118c1.905,0,2.397,1.655,2.397,2.723
		c0,0.216-0.013,0.372-0.036,0.491L244.942,21.634L244.942,21.634z M248.037,20.879c0.012-0.66-0.276-1.703-1.463-1.703
		c-1.08,0-1.535,0.972-1.619,1.703H248.037z"/>
	<path d="M254.504,24.141c-0.276,0.132-0.888,0.336-1.668,0.336c-1.751,0-2.891-1.188-2.891-2.962c0-1.787,1.224-3.095,3.118-3.095
		c0.623,0,1.175,0.156,1.463,0.312l-0.239,0.804c-0.251-0.132-0.647-0.275-1.224-0.275c-1.331,0-2.051,0.995-2.051,2.194
		c0,1.344,0.863,2.171,2.015,2.171c0.601,0,0.995-0.144,1.295-0.275L254.504,24.141z"/>
	<path d="M256.917,16.91c0,0.359-0.252,0.647-0.672,0.647c-0.385,0-0.637-0.288-0.637-0.647c0-0.36,0.266-0.66,0.66-0.66
		C256.654,16.25,256.917,16.538,256.917,16.91z M255.743,24.345V18.54h1.055v5.805H255.743z"/>
	<path d="M258.659,24.345v-5.001h-0.805V18.54h0.805v-0.324c0-1.522,0.898-2.519,2.529-2.519c0.54,0,1.177,0.168,1.477,0.384
		l-0.3,0.804c-0.265-0.18-0.708-0.336-1.225-0.336c-1.115,0-1.438,0.779-1.438,1.703v0.288h3.37v5.805h-1.057v-5.001h-2.313v5.001
		H258.659z"/>
	<path d="M268.964,24.141c-0.276,0.132-0.888,0.336-1.668,0.336c-1.751,0-2.891-1.188-2.891-2.962c0-1.787,1.224-3.095,3.118-3.095
		c0.623,0,1.176,0.156,1.463,0.312l-0.238,0.804c-0.252-0.132-0.648-0.275-1.225-0.275c-1.331,0-2.051,0.995-2.051,2.194
		c0,1.344,0.863,2.171,2.015,2.171c0.601,0,0.995-0.144,1.296-0.275L268.964,24.141z"/>
	<path d="M211.997,31.549h-2.458v-0.888h5.983v0.888h-2.471v7.196h-1.056L211.997,31.549L211.997,31.549z"/>
	<path d="M219.7,37.354c0,0.504,0.023,0.996,0.084,1.392h-0.947l-0.084-0.731h-0.036c-0.323,0.456-0.947,0.863-1.775,0.863
		c-1.175,0-1.773-0.827-1.773-1.667c0-1.403,1.247-2.171,3.49-2.159v-0.119c0-0.468-0.133-1.344-1.319-1.332
		c-0.552,0-1.115,0.156-1.523,0.432l-0.239-0.707c0.479-0.3,1.188-0.504,1.919-0.504c1.774,0,2.207,1.211,2.207,2.362v2.17H219.7z
		 M218.68,35.784c-1.151-0.024-2.458,0.18-2.458,1.307c0,0.696,0.455,1.008,0.983,1.008c0.768,0,1.259-0.479,1.427-0.972
		c0.036-0.12,0.048-0.24,0.048-0.336V35.784L218.68,35.784z"/>
	<path d="M221.406,34.751c0-0.684-0.014-1.271-0.05-1.811h0.925l0.048,1.151h0.036c0.264-0.779,0.91-1.271,1.618-1.271
		c0.108,0,0.192,0.012,0.288,0.024v0.995c-0.107-0.024-0.216-0.024-0.359-0.024c-0.743,0-1.271,0.552-1.415,1.344
		c-0.023,0.144-0.036,0.324-0.036,0.491v3.095h-1.055V34.751L221.406,34.751z"/>
	<path d="M230.199,37.894c0,1.344-0.276,2.146-0.827,2.662c-0.576,0.517-1.393,0.696-2.123,0.696c-0.696,0-1.464-0.168-1.933-0.479
		l0.266-0.816c0.384,0.252,0.982,0.468,1.703,0.468c1.078,0,1.869-0.563,1.869-2.038V37.75h-0.022
		c-0.312,0.539-0.947,0.971-1.847,0.971c-1.439,0-2.472-1.223-2.472-2.83c0-1.967,1.283-3.07,2.626-3.07
		c1.009,0,1.548,0.516,1.812,0.995h0.022l0.036-0.875h0.937c-0.036,0.407-0.048,0.888-0.048,1.583V37.894z M229.143,35.232
		c0-0.181-0.012-0.336-0.06-0.468c-0.192-0.624-0.696-1.128-1.477-1.128c-1.007,0-1.727,0.852-1.727,2.195
		c0,1.139,0.588,2.087,1.715,2.087c0.659,0,1.247-0.408,1.463-1.08c0.062-0.18,0.084-0.384,0.084-0.563L229.143,35.232
		L229.143,35.232z"/>
	<path d="M232.529,36.035c0.024,1.428,0.925,2.016,1.991,2.016c0.756,0,1.225-0.132,1.607-0.3l0.19,0.755
		c-0.372,0.168-1.02,0.372-1.941,0.372c-1.787,0-2.854-1.188-2.854-2.938s1.031-3.118,2.724-3.118c1.905,0,2.397,1.655,2.397,2.723
		c0,0.216-0.012,0.372-0.036,0.491L232.529,36.035L232.529,36.035z M235.624,35.28c0.012-0.66-0.276-1.703-1.463-1.703
		c-1.08,0-1.535,0.972-1.619,1.703H235.624z"/>
	<path d="M239.224,31.549v1.392h1.512v0.804h-1.512v3.13c0,0.72,0.204,1.128,0.792,1.128c0.288,0,0.456-0.024,0.611-0.072
		l0.048,0.804c-0.203,0.071-0.527,0.144-0.937,0.144c-0.49,0-0.887-0.168-1.139-0.443c-0.288-0.324-0.408-0.84-0.408-1.523v-3.166
		h-0.898v-0.804h0.898v-1.079L239.224,31.549z"/>
	<path d="M250.143,38.494c-0.372,0.192-1.15,0.384-2.135,0.384c-2.279,0-3.982-1.439-3.982-4.102c0-2.543,1.716-4.246,4.223-4.246
		c0.995,0,1.644,0.216,1.919,0.36l-0.265,0.852c-0.384-0.192-0.946-0.336-1.618-0.336c-1.896,0-3.154,1.211-3.154,3.334
		c0,1.991,1.14,3.25,3.095,3.25c0.647,0,1.295-0.132,1.715-0.336L250.143,38.494z"/>
	<path d="M251.884,36.035c0.024,1.428,0.924,2.016,1.991,2.016c0.756,0,1.224-0.132,1.606-0.3l0.191,0.755
		c-0.372,0.168-1.021,0.372-1.942,0.372c-1.787,0-2.854-1.188-2.854-2.938s1.031-3.118,2.723-3.118c1.906,0,2.398,1.655,2.398,2.723
		c0,0.216-0.013,0.372-0.036,0.491L251.884,36.035L251.884,36.035z M254.979,35.28c0.013-0.66-0.275-1.703-1.463-1.703
		c-1.08,0-1.535,0.972-1.619,1.703H254.979z"/>
	<path d="M257.31,30.23h1.056v8.516h-1.056V30.23z"/>
	<path d="M260.142,30.23h1.055v8.516h-1.055V30.23z"/>
	<path d="M262.829,37.678c0.323,0.191,0.876,0.408,1.402,0.408c0.757,0,1.115-0.372,1.115-0.864c0-0.504-0.3-0.768-1.066-1.055
		c-1.057-0.384-1.548-0.948-1.548-1.644c0-0.936,0.769-1.703,2.003-1.703c0.589,0,1.104,0.156,1.415,0.36l-0.252,0.768
		c-0.228-0.146-0.646-0.349-1.188-0.349c-0.623,0-0.959,0.36-0.959,0.792c0,0.479,0.336,0.695,1.091,0.995
		c0.996,0.372,1.523,0.876,1.523,1.739c0,1.031-0.805,1.751-2.159,1.751c-0.635,0-1.224-0.168-1.631-0.407L262.829,37.678z"/>
</g>
<g>
	<path d="M13.636,107.272c-0.372,0.192-1.151,0.384-2.135,0.384c-2.279,0-3.982-1.439-3.982-4.102c0-2.543,1.715-4.246,4.223-4.246
		c0.994,0,1.644,0.216,1.919,0.36l-0.265,0.852c-0.384-0.192-0.946-0.336-1.619-0.336c-1.895,0-3.153,1.211-3.153,3.334
		c0,1.991,1.14,3.25,3.095,3.25c0.647,0,1.295-0.132,1.715-0.336L13.636,107.272z"/>
	<path d="M15.378,104.813c0.023,1.428,0.924,2.016,1.991,2.016c0.756,0,1.224-0.132,1.606-0.3l0.191,0.755
		c-0.372,0.168-1.021,0.372-1.942,0.372c-1.787,0-2.854-1.188-2.854-2.938s1.03-3.118,2.723-3.118c1.906,0,2.398,1.655,2.398,2.723
		c0,0.216-0.014,0.372-0.036,0.491L15.378,104.813L15.378,104.813z M18.473,104.059c0.012-0.66-0.276-1.703-1.463-1.703
		c-1.08,0-1.535,0.972-1.619,1.703H18.473z"/>
	<path d="M20.803,99.009h1.055v8.516h-1.055V99.009z"/>
	<path d="M23.635,99.009h1.055v8.516h-1.055V99.009z"/>
	<path d="M29.046,99.561c0.636-0.107,1.392-0.18,2.219-0.18c1.5,0,2.567,0.359,3.274,1.008c0.73,0.659,1.15,1.595,1.15,2.902
		c0,1.319-0.42,2.398-1.163,3.142c-0.768,0.756-2.015,1.164-3.586,1.164c-0.756,0-1.366-0.036-1.896-0.097L29.046,99.561
		L29.046,99.561z M30.09,106.709c0.264,0.036,0.646,0.048,1.056,0.048c2.242,0,3.441-1.247,3.441-3.43
		c0.013-1.907-1.067-3.119-3.273-3.119c-0.54,0-0.947,0.049-1.224,0.108V106.709z"/>
	<path d="M37.638,104.813c0.024,1.428,0.924,2.016,1.991,2.016c0.756,0,1.224-0.132,1.606-0.3l0.191,0.755
		c-0.372,0.168-1.02,0.372-1.942,0.372c-1.786,0-2.854-1.188-2.854-2.938s1.031-3.118,2.723-3.118c1.906,0,2.398,1.655,2.398,2.723
		c0,0.216-0.014,0.372-0.036,0.491L37.638,104.813L37.638,104.813z M40.733,104.059c0.013-0.66-0.275-1.703-1.463-1.703
		c-1.08,0-1.535,0.972-1.619,1.703H40.733z"/>
	<path d="M47.14,106.133c0,0.504,0.024,0.996,0.084,1.392h-0.947l-0.084-0.731h-0.035c-0.323,0.456-0.947,0.863-1.775,0.863
		c-1.175,0-1.774-0.827-1.774-1.667c0-1.403,1.247-2.171,3.49-2.159v-0.119c0-0.468-0.132-1.344-1.319-1.332
		c-0.552,0-1.114,0.156-1.522,0.432l-0.24-0.707c0.48-0.3,1.188-0.504,1.919-0.504c1.775,0,2.207,1.211,2.207,2.362v2.17H47.14z
		 M46.121,104.562c-1.151-0.024-2.458,0.18-2.458,1.307c0,0.696,0.455,1.008,0.982,1.008c0.769,0,1.259-0.479,1.428-0.972
		c0.035-0.12,0.048-0.24,0.048-0.336V104.562z"/>
	<path d="M50.069,100.328v1.392h1.513v0.804h-1.513v3.13c0,0.72,0.204,1.128,0.792,1.128c0.288,0,0.456-0.024,0.611-0.072
		l0.048,0.804c-0.203,0.071-0.526,0.144-0.936,0.144c-0.491,0-0.888-0.168-1.14-0.443c-0.287-0.324-0.407-0.84-0.407-1.523v-3.166
		h-0.899v-0.804h0.899v-1.079L50.069,100.328z"/>
	<path d="M52.771,99.009h1.056v3.635h0.023c0.168-0.301,0.433-0.576,0.756-0.756c0.312-0.18,0.685-0.288,1.079-0.288
		c0.779,0,2.026,0.479,2.026,2.471v3.454h-1.056v-3.334c0-0.936-0.349-1.715-1.344-1.715c-0.684,0-1.211,0.479-1.415,1.043
		c-0.06,0.156-0.071,0.312-0.071,0.504v3.502H52.77L52.771,99.009L52.771,99.009z"/>
</g>
<g>
	<path d="M116.456,80.894v7.017c0,0.516,0.022,1.104,0.048,1.499h-0.937l-0.048-1.008h-0.036c-0.312,0.648-1.008,1.14-1.955,1.14
		c-1.402,0-2.493-1.188-2.493-2.95c-0.014-1.931,1.198-3.106,2.603-3.106c0.899,0,1.487,0.42,1.751,0.876h0.023v-3.467
		L116.456,80.894L116.456,80.894z M115.412,85.967c0-0.132-0.013-0.312-0.049-0.443c-0.154-0.66-0.73-1.212-1.522-1.212
		c-1.091,0-1.738,0.96-1.738,2.231c0,1.175,0.588,2.146,1.715,2.146c0.708,0,1.355-0.479,1.548-1.259
		c0.035-0.145,0.048-0.288,0.048-0.456L115.412,85.967L115.412,85.967z"/>
</g>
<g>
	<path d="M156.593,100.351c-0.252-0.192-0.924-0.492-1.583-0.492c-0.66,0-0.983,0.251-0.983,0.54c0,0.324,0.312,0.552,0.863,0.971
		l0.983,0.78c0.959,0.744,1.535,1.583,1.535,2.734c0,1.799-1.247,2.962-2.818,2.962c-1.499,0-2.819-1.055-2.819-2.926
		c0-1.475,1.021-2.471,2.195-3.022v-0.06l-0.264-0.216c-0.275-0.228-0.743-0.647-0.743-1.199c0-0.636,0.659-1.355,2.025-1.355
		c0.841,0,1.583,0.3,1.919,0.576L156.593,100.351z M154.59,102.39c-0.912,0.48-1.751,1.259-1.751,2.531
		c0,1.355,0.898,2.135,1.811,2.135c0.925,0,1.703-0.78,1.703-2.099c0-0.816-0.372-1.487-1.115-2.063L154.59,102.39z"/>
</g>
<g>
	<g>
		<path fill="none" stroke="#231F20" d="M475.716,308.175c23.067-52.3-24.53-75.614-101.007-79.584"/>
		<polygon fill="#231F20" points="377.706,225.038 375.944,228.655 377.323,232.436 368.748,228.281 		"/>
	</g>
</g>
<g id="x">
	<ellipse id="x_path7" fill="#CDE1F0" stroke="#231F20" cx="223.334" cy="382.081" rx="13.243" ry="7.973"/>
	<ellipse id="x_path6" fill="#CDE1F0" stroke="#231F20" cx="231.33" cy="406.896" rx="13.243" ry="7.973"/>
	<ellipse id="x_path5" fill="#CDE1F0" stroke="#231F20" cx="261.182" cy="385.004" rx="13.244" ry="7.973"/>
	<ellipse id="x_path4" fill="#CDE1F0" stroke="#231F20" cx="268.48" cy="411.54" rx="13.243" ry="7.973"/>
	<ellipse id="x_path3" fill="#CDE1F0" stroke="#231F20" cx="197.497" cy="401.588" rx="13.243" ry="7.973"/>
	<ellipse id="x_path2" fill="#CDE1F0" stroke="#231F20" cx="212.057" cy="430.507" rx="13.244" ry="7.973"/>
	<ellipse id="x_path1" fill="#CDE1F0" stroke="#231F20" cx="248.578" cy="432.104" rx="13.243" ry="7.974"/>
</g>
<g id="y">
	<ellipse id="y_path7" fill="#8EC641" stroke="#231F20" cx="441.582" cy="382.08" rx="13.244" ry="7.973"/>
	<ellipse id="y_path6" fill="#8EC641" stroke="#231F20" cx="449.576" cy="406.895" rx="13.244" ry="7.974"/>
	<ellipse id="y_path5" fill="#8EC641" stroke="#231F20" cx="479.43" cy="385.004" rx="13.244" ry="7.973"/>
	<ellipse id="y_path4" fill="#8EC641" stroke="#231F20" cx="486.727" cy="411.541" rx="13.244" ry="7.973"/>
	<ellipse id="y_path3" fill="#8EC641" stroke="#231F20" cx="415.744" cy="401.588" rx="13.244" ry="7.973"/>
	<ellipse id="y_path2" fill="#8EC641" stroke="#231F20" cx="430.305" cy="430.505" rx="13.242" ry="7.973"/>
	<ellipse id="y_path1" fill="#8EC641" stroke="#231F20" cx="466.824" cy="432.103" rx="13.244" ry="7.975"/>
</g>
<g>
	<g>
		<line fill="none" stroke="#231F20" x1="259.744" y1="452.556" x2="259.744" y2="527.539"/>
		<polygon fill="#231F20" points="256.041,524.732 259.744,526.302 263.448,524.732 259.744,533.507 		"/>
	</g>
</g>
<g>
	<path d="M471.313,359.041v-3.43l-2.568-4.654h1.201l1.139,2.231c0.299,0.61,0.551,1.104,0.803,1.667h0.025
		c0.215-0.527,0.502-1.057,0.813-1.667l1.164-2.231h1.177l-2.699,4.643v3.441H471.313z"/>
</g>
<g>
	<path d="M421.483,314.707v8.084h-1.057v-8.084H421.483z"/>
	<path d="M423.392,318.557c0-0.61-0.013-1.093-0.049-1.57h0.937l0.061,0.96h0.023c0.288-0.539,0.96-1.08,1.919-1.08
		c0.804,0,2.051,0.479,2.051,2.471v3.455h-1.055v-3.346c0-0.938-0.35-1.718-1.345-1.718c-0.684,0-1.224,0.492-1.415,1.08
		c-0.048,0.133-0.071,0.312-0.071,0.491v3.49h-1.056V318.557L423.392,318.557z"/>
	<path d="M430.158,322.791v-5.002h-0.805v-0.803h0.805v-0.277c0-0.813,0.191-1.559,0.672-2.024c0.396-0.386,0.923-0.541,1.415-0.541
		c0.384,0,0.695,0.084,0.898,0.168L433,315.126c-0.156-0.071-0.36-0.133-0.672-0.133c-0.899,0-1.127,0.779-1.127,1.68v0.312h1.401
		v0.803h-1.401v5.002H430.158z"/>
	<path d="M433.987,320.08c0.023,1.428,0.924,2.016,1.99,2.016c0.757,0,1.225-0.133,1.607-0.301l0.191,0.756
		c-0.372,0.168-1.021,0.371-1.942,0.371c-1.787,0-2.854-1.188-2.854-2.938c0-1.752,1.031-3.119,2.724-3.119
		c1.906,0,2.397,1.656,2.397,2.723c0,0.218-0.012,0.373-0.035,0.492H433.987L433.987,320.08z M437.081,319.324
		c0.012-0.66-0.276-1.703-1.463-1.703c-1.08,0-1.535,0.973-1.619,1.703H437.081z"/>
	<path d="M443.549,322.585c-0.275,0.133-0.888,0.336-1.668,0.336c-1.751,0-2.89-1.188-2.89-2.961c0-1.787,1.223-3.096,3.118-3.096
		c0.623,0,1.175,0.156,1.463,0.312l-0.239,0.803c-0.252-0.131-0.648-0.275-1.224-0.275c-1.331,0-2.052,0.996-2.052,2.195
		c0,1.344,0.863,2.17,2.016,2.17c0.6,0,0.995-0.143,1.295-0.275L443.549,322.585z"/>
	<path d="M446.214,315.593v1.394h1.512v0.804h-1.512v3.131c0,0.719,0.204,1.127,0.792,1.127c0.288,0,0.456-0.023,0.611-0.072
		l0.048,0.805c-0.203,0.07-0.527,0.143-0.937,0.143c-0.49,0-0.887-0.168-1.139-0.442c-0.288-0.323-0.408-0.84-0.408-1.522v-3.166
		h-0.898v-0.803h0.898v-1.08L446.214,315.593z"/>
	<path d="M449.43,320.08c0.024,1.428,0.924,2.016,1.991,2.016c0.756,0,1.224-0.133,1.607-0.301l0.19,0.756
		c-0.372,0.168-1.02,0.371-1.941,0.371c-1.787,0-2.854-1.188-2.854-2.938c0-1.752,1.031-3.119,2.724-3.119
		c1.905,0,2.397,1.656,2.397,2.723c0,0.218-0.012,0.373-0.036,0.492H449.43L449.43,320.08z M452.525,319.324
		c0.012-0.66-0.276-1.703-1.464-1.703c-1.079,0-1.534,0.973-1.618,1.703H452.525z"/>
	<path d="M459.856,314.275v7.016c0,0.517,0.022,1.104,0.048,1.5h-0.937l-0.048-1.008h-0.036c-0.312,0.648-1.008,1.139-1.955,1.139
		c-1.402,0-2.494-1.188-2.494-2.948c-0.013-1.933,1.199-3.106,2.604-3.106c0.898,0,1.487,0.42,1.751,0.877h0.022v-3.468
		L459.856,314.275L459.856,314.275z M458.813,319.348c0-0.132-0.013-0.312-0.049-0.442c-0.154-0.66-0.73-1.212-1.521-1.212
		c-1.092,0-1.739,0.959-1.739,2.229c0,1.177,0.587,2.146,1.715,2.146c0.708,0,1.355-0.479,1.547-1.258
		c0.036-0.145,0.048-0.289,0.048-0.457V319.348L458.813,319.348z"/>
	<path d="M465.246,314.707v3.383h3.91v-3.383h1.055v8.084h-1.055V319h-3.91v3.791h-1.056v-8.084H465.246L465.246,314.707z"/>
	<path d="M473.07,314.707v8.084h-1.057v-8.084H473.07z"/>
	<path d="M476.669,322.791l-2.65-8.084h1.141l1.259,3.982c0.336,1.09,0.636,2.074,0.863,3.021h0.023
		c0.229-0.937,0.553-1.955,0.925-3.01l1.366-3.994h1.115l-2.891,8.084H476.669L476.669,322.791z"/>
	<path d="M483.833,319.167v0.769h-2.963v-0.769H483.833z"/>
	<path d="M484.926,321.723c0.324,0.19,0.876,0.407,1.403,0.407c0.756,0,1.115-0.371,1.115-0.862c0-0.504-0.301-0.769-1.067-1.056
		c-1.056-0.385-1.547-0.948-1.547-1.645c0-0.936,0.768-1.703,2.003-1.703c0.588,0,1.104,0.156,1.415,0.361l-0.252,0.768
		c-0.229-0.145-0.647-0.35-1.188-0.35c-0.623,0-0.959,0.361-0.959,0.793c0,0.479,0.336,0.695,1.092,0.994
		c0.995,0.373,1.522,0.877,1.522,1.74c0,1.031-0.804,1.75-2.158,1.75c-0.636,0-1.224-0.168-1.632-0.406L484.926,321.723z"/>
	<path d="M489.823,318.88c0-0.743-0.024-1.344-0.049-1.895h0.936l0.061,0.994h0.023c0.42-0.707,1.115-1.115,2.063-1.115
		c1.415,0,2.471,1.188,2.471,2.939c0,2.086-1.283,3.117-2.651,3.117c-0.768,0-1.438-0.336-1.786-0.91h-0.023v3.154h-1.043
		L489.823,318.88L489.823,318.88z M490.865,320.427c0,0.156,0.012,0.302,0.048,0.433c0.192,0.731,0.828,1.236,1.583,1.236
		c1.115,0,1.764-0.912,1.764-2.244c0-1.149-0.611-2.146-1.728-2.146c-0.72,0-1.403,0.504-1.595,1.295
		c-0.036,0.133-0.072,0.289-0.072,0.42V320.427L490.865,320.427z"/>
	<path d="M497.238,320.08c0.023,1.428,0.924,2.016,1.99,2.016c0.757,0,1.225-0.133,1.607-0.301l0.191,0.756
		c-0.372,0.168-1.021,0.371-1.942,0.371c-1.787,0-2.854-1.188-2.854-2.938c0-1.752,1.03-3.119,2.723-3.119
		c1.906,0,2.397,1.656,2.397,2.723c0,0.218-0.013,0.373-0.035,0.492H497.238L497.238,320.08z M500.332,319.324
		c0.012-0.66-0.276-1.703-1.463-1.703c-1.08,0-1.535,0.973-1.619,1.703H500.332z"/>
	<path d="M506.8,322.585c-0.275,0.133-0.888,0.336-1.668,0.336c-1.751,0-2.89-1.188-2.89-2.961c0-1.787,1.223-3.096,3.118-3.096
		c0.623,0,1.175,0.156,1.463,0.312l-0.24,0.803c-0.251-0.131-0.647-0.275-1.223-0.275c-1.331,0-2.052,0.996-2.052,2.195
		c0,1.344,0.863,2.17,2.016,2.17c0.6,0,0.995-0.143,1.295-0.275L506.8,322.585z"/>
	<path d="M509.213,315.355c0,0.359-0.252,0.646-0.672,0.646c-0.384,0-0.636-0.287-0.636-0.646c0-0.361,0.265-0.66,0.66-0.66
		C508.949,314.695,509.213,314.982,509.213,315.355z M508.038,322.791v-5.805h1.055v5.805H508.038z"/>
	<path d="M510.953,322.791v-5.002h-0.804v-0.803h0.804v-0.324c0-1.523,0.898-2.52,2.53-2.52c0.54,0,1.176,0.168,1.476,0.385
		l-0.3,0.803c-0.264-0.18-0.708-0.336-1.224-0.336c-1.115,0-1.438,0.779-1.438,1.703v0.289h3.37v5.805h-1.057v-5.002h-2.313v5.002
		H510.953z"/>
	<path d="M521.26,322.585c-0.275,0.133-0.888,0.336-1.668,0.336c-1.751,0-2.89-1.188-2.89-2.961c0-1.787,1.223-3.096,3.118-3.096
		c0.623,0,1.175,0.156,1.463,0.312l-0.239,0.803c-0.252-0.131-0.648-0.275-1.224-0.275c-1.331,0-2.052,0.996-2.052,2.195
		c0,1.344,0.863,2.17,2.016,2.17c0.6,0,0.995-0.143,1.295-0.275L521.26,322.585z"/>
	<path d="M447.359,336.939c-0.372,0.191-1.151,0.383-2.136,0.383c-2.278,0-3.981-1.439-3.981-4.102c0-2.543,1.715-4.246,4.222-4.246
		c0.995,0,1.645,0.217,1.919,0.361l-0.264,0.852c-0.384-0.193-0.947-0.336-1.619-0.336c-1.895,0-3.154,1.211-3.154,3.334
		c0,1.99,1.141,3.25,3.096,3.25c0.646,0,1.295-0.133,1.715-0.336L447.359,336.939z"/>
	<path d="M448.681,329.227c0.637-0.106,1.393-0.181,2.22-0.181c1.5,0,2.566,0.359,3.273,1.009c0.731,0.659,1.151,1.596,1.151,2.901
		c0,1.32-0.42,2.398-1.163,3.144c-0.769,0.756-2.016,1.164-3.586,1.164c-0.756,0-1.367-0.037-1.896-0.099L448.681,329.227
		L448.681,329.227z M449.725,336.375c0.265,0.037,0.647,0.049,1.057,0.049c2.242,0,3.44-1.248,3.44-3.43
		c0.014-1.908-1.066-3.119-3.272-3.119c-0.54,0-0.948,0.049-1.225,0.107V336.375z"/>
	<path d="M459.563,337.191v-2.135h-3.622v-0.684l3.479-4.979h1.139v4.847h1.093v0.815h-1.093v2.135L459.563,337.191L459.563,337.191
		z M459.563,334.24v-2.602c0-0.408,0.012-0.816,0.035-1.225h-0.035c-0.239,0.457-0.433,0.793-0.647,1.151l-1.907,2.649v0.023h2.555
		V334.24z"/>
	<path d="M465.875,330.811v2.817h2.71v0.72h-2.71v2.844h-0.768v-2.844h-2.711v-0.72h2.711v-2.817H465.875z"/>
	<path d="M473.568,329.994h-2.458v-0.887h5.983v0.887h-2.471v7.197h-1.056L473.568,329.994L473.568,329.994z"/>
	<path d="M486.178,336.939c-0.372,0.191-1.15,0.383-2.136,0.383c-2.278,0-3.981-1.439-3.981-4.102c0-2.543,1.716-4.246,4.223-4.246
		c0.995,0,1.644,0.217,1.919,0.361l-0.264,0.852c-0.385-0.193-0.947-0.336-1.619-0.336c-1.896,0-3.154,1.211-3.154,3.334
		c0,1.99,1.14,3.25,3.095,3.25c0.647,0,1.295-0.133,1.715-0.336L486.178,336.939z"/>
	<path d="M487.92,334.48c0.024,1.428,0.924,2.016,1.991,2.016c0.756,0,1.224-0.133,1.606-0.301l0.191,0.756
		c-0.372,0.168-1.02,0.371-1.942,0.371c-1.786,0-2.854-1.188-2.854-2.938c0-1.752,1.031-3.119,2.723-3.119
		c1.906,0,2.398,1.656,2.398,2.723c0,0.217-0.012,0.373-0.036,0.492H487.92L487.92,334.48z M491.015,333.725
		c0.013-0.66-0.275-1.703-1.463-1.703c-1.08,0-1.535,0.974-1.619,1.703H491.015z"/>
	<path d="M493.345,328.675h1.056v8.517h-1.056V328.675z"/>
	<path d="M496.177,328.675h1.056v8.517h-1.056V328.675z"/>
	<path d="M498.865,336.123c0.324,0.191,0.876,0.408,1.402,0.408c0.757,0,1.115-0.371,1.115-0.863c0-0.504-0.3-0.768-1.066-1.055
		c-1.057-0.385-1.548-0.949-1.548-1.645c0-0.936,0.769-1.703,2.004-1.703c0.588,0,1.104,0.156,1.414,0.361l-0.252,0.768
		c-0.228-0.145-0.646-0.35-1.188-0.35c-0.623,0-0.959,0.36-0.959,0.793c0,0.479,0.336,0.695,1.091,0.994
		c0.996,0.373,1.523,0.877,1.523,1.739c0,1.031-0.805,1.75-2.159,1.75c-0.635,0-1.223-0.168-1.631-0.405L498.865,336.123z"/>
</g>
<g>
	<g>
		<path fill="none" stroke="#231F20" d="M199.683,442.082c-38.917,26.939-38.917-93.896,4.7-71.465"/>
		<polygon fill="#231F20" points="200.191,372.625 203.284,370.05 203.58,366.037 209.691,373.346 		"/>
	</g>
</g>
<g>
	<path d="M150.23,401.025c0-0.684-0.013-1.271-0.049-1.811h0.924l0.048,1.15h0.036c0.265-0.779,0.911-1.271,1.619-1.271
		c0.108,0,0.191,0.013,0.288,0.025v0.994c-0.108-0.023-0.216-0.023-0.36-0.023c-0.742,0-1.271,0.552-1.415,1.344
		c-0.022,0.145-0.035,0.324-0.035,0.49v3.096h-1.056V401.025L150.23,401.025z"/>
</g>
<g>
	<g>
		<path fill="none" stroke="#231F20" d="M416.324,444.722c-38.916,26.938-38.916-93.896,4.701-71.467"/>
		<polygon fill="#231F20" points="416.834,375.264 419.926,372.69 420.223,368.677 426.334,375.985 		"/>
	</g>
</g>
<g>
	<path d="M244.912,355.52l-1.043-1.787c-0.42-0.685-0.673-1.127-0.925-1.595h-0.023c-0.229,0.468-0.467,0.898-0.875,1.605
		l-0.972,1.775h-1.199l2.471-4.09l-2.375-3.994h1.212l1.067,1.896c0.3,0.526,0.526,0.936,0.743,1.367h0.035
		c0.229-0.48,0.433-0.853,0.731-1.367l1.092-1.896h1.211l-2.459,3.936l2.521,4.148L244.912,355.52L244.912,355.52z"/>
</g>
<g>
	<path d="M185.473,314.707v4.799c0,1.8,0.804,2.566,1.883,2.566c1.188,0,1.968-0.791,1.968-2.566v-4.799h1.056v4.728
		c0,2.481-1.309,3.489-3.06,3.489c-1.654,0-2.901-0.936-2.901-3.455v-4.762H185.473z"/>
	<path d="M192.157,318.559c0-0.613-0.014-1.093-0.05-1.572h0.937l0.061,0.96h0.023c0.288-0.539,0.96-1.078,1.919-1.078
		c0.804,0,2.051,0.479,2.051,2.471v3.453h-1.055v-3.346c0-0.938-0.349-1.716-1.344-1.716c-0.685,0-1.225,0.492-1.415,1.08
		c-0.049,0.131-0.072,0.312-0.072,0.489v3.49h-1.055V318.559L192.157,318.559z"/>
	<path d="M199.992,315.355c0,0.359-0.252,0.648-0.673,0.648c-0.384,0-0.636-0.289-0.636-0.648s0.266-0.66,0.66-0.66
		C199.729,314.695,199.992,314.984,199.992,315.355z M198.817,322.791v-5.805h1.056v5.805H198.817z"/>
	<path d="M201.625,318.559c0-0.613-0.014-1.093-0.049-1.572h0.936l0.062,0.96h0.022c0.288-0.539,0.96-1.078,1.919-1.078
		c0.804,0,2.051,0.479,2.051,2.471v3.453h-1.055v-3.346c0-0.938-0.349-1.716-1.344-1.716c-0.685,0-1.225,0.492-1.415,1.08
		c-0.048,0.131-0.072,0.312-0.072,0.489v3.49h-1.055V318.559L201.625,318.559z"/>
	<path d="M208.393,322.791v-5h-0.804v-0.805h0.804v-0.275c0-0.815,0.192-1.559,0.672-2.026c0.396-0.384,0.923-0.539,1.415-0.539
		c0.384,0,0.695,0.084,0.899,0.168l-0.145,0.813c-0.155-0.069-0.359-0.131-0.672-0.131c-0.898,0-1.127,0.779-1.127,1.68v0.312h1.402
		v0.806h-1.402v5h-1.043V322.791z"/>
	<path d="M212.22,320.08c0.024,1.428,0.924,2.016,1.991,2.016c0.756,0,1.224-0.131,1.606-0.299l0.191,0.754
		c-0.372,0.168-1.021,0.373-1.942,0.373c-1.787,0-2.854-1.188-2.854-2.938c0-1.75,1.031-3.116,2.723-3.116
		c1.906,0,2.398,1.653,2.398,2.723c0,0.215-0.013,0.371-0.036,0.49h-4.078V320.08z M215.314,319.326
		c0.013-0.66-0.275-1.703-1.463-1.703c-1.08,0-1.535,0.971-1.619,1.703H215.314z"/>
	<path d="M221.783,322.587c-0.276,0.131-0.889,0.336-1.668,0.336c-1.752,0-2.891-1.188-2.891-2.963c0-1.787,1.224-3.094,3.118-3.094
		c0.623,0,1.175,0.156,1.463,0.311l-0.24,0.806c-0.251-0.133-0.646-0.274-1.223-0.274c-1.331,0-2.051,0.994-2.051,2.192
		c0,1.345,0.862,2.173,2.015,2.173c0.601,0,0.995-0.146,1.295-0.275L221.783,322.587z"/>
	<path d="M224.447,315.596v1.391h1.513v0.806h-1.513v3.129c0,0.721,0.204,1.129,0.793,1.129c0.287,0,0.455-0.025,0.61-0.072
		l0.048,0.803c-0.203,0.072-0.526,0.145-0.936,0.145c-0.491,0-0.887-0.168-1.139-0.442c-0.288-0.323-0.408-0.84-0.408-1.522v-3.166
		h-0.899v-0.805h0.899v-1.078L224.447,315.596z"/>
	<path d="M227.664,320.08c0.023,1.428,0.924,2.016,1.99,2.016c0.757,0,1.225-0.131,1.607-0.299l0.191,0.754
		c-0.372,0.168-1.021,0.373-1.942,0.373c-1.787,0-2.854-1.188-2.854-2.938c0-1.75,1.03-3.116,2.723-3.116
		c1.906,0,2.397,1.653,2.397,2.723c0,0.215-0.013,0.371-0.035,0.49h-4.078V320.08z M230.759,319.326
		c0.012-0.66-0.276-1.703-1.463-1.703c-1.08,0-1.535,0.971-1.619,1.703H230.759z"/>
	<path d="M238.09,314.275v7.018c0,0.517,0.022,1.104,0.048,1.498h-0.936l-0.049-1.008h-0.035c-0.312,0.648-1.009,1.141-1.955,1.141
		c-1.403,0-2.494-1.188-2.494-2.95c-0.014-1.931,1.199-3.104,2.603-3.104c0.899,0,1.487,0.42,1.751,0.875h0.023v-3.468
		L238.09,314.275L238.09,314.275z M237.046,319.35c0-0.134-0.012-0.312-0.048-0.442c-0.155-0.66-0.731-1.214-1.523-1.214
		c-1.091,0-1.738,0.962-1.738,2.231c0,1.175,0.589,2.146,1.716,2.146c0.708,0,1.354-0.48,1.547-1.26
		c0.036-0.145,0.048-0.287,0.048-0.455L237.046,319.35L237.046,319.35z"/>
	<path d="M243.479,314.707v3.383h3.91v-3.383h1.055v8.084h-1.055v-3.789h-3.91v3.789h-1.056v-8.084H243.479z"/>
	<path d="M251.304,314.707v8.084h-1.056v-8.084H251.304z"/>
	<path d="M254.903,322.791l-2.649-8.084h1.14l1.259,3.982c0.336,1.092,0.637,2.074,0.863,3.023h0.024
		c0.228-0.937,0.552-1.955,0.924-3.012l1.367-3.994h1.114l-2.891,8.084H254.903L254.903,322.791z"/>
	<path d="M262.066,319.169v0.769h-2.963v-0.769H262.066z"/>
	<path d="M263.16,321.725c0.323,0.19,0.876,0.407,1.402,0.407c0.756,0,1.115-0.373,1.115-0.864c0-0.504-0.3-0.769-1.067-1.056
		c-1.056-0.383-1.547-0.946-1.547-1.643c0-0.936,0.769-1.703,2.003-1.703c0.589,0,1.104,0.156,1.415,0.359l-0.252,0.768
		c-0.228-0.145-0.646-0.348-1.188-0.348c-0.623,0-0.959,0.359-0.959,0.791c0,0.48,0.336,0.695,1.091,0.996
		c0.996,0.371,1.523,0.875,1.523,1.738c0,1.031-0.805,1.752-2.159,1.752c-0.636,0-1.224-0.168-1.631-0.408L263.16,321.725z"/>
	<path d="M268.057,318.88c0-0.741-0.023-1.342-0.049-1.895h0.936l0.062,0.996h0.022c0.421-0.707,1.115-1.115,2.063-1.115
		c1.415,0,2.471,1.188,2.471,2.938c0,2.088-1.283,3.118-2.65,3.118c-0.769,0-1.438-0.336-1.786-0.911H269.1v3.153h-1.043V318.88z
		 M269.1,320.43c0,0.153,0.012,0.299,0.048,0.432c0.192,0.729,0.828,1.234,1.583,1.234c1.115,0,1.765-0.912,1.765-2.242
		c0-1.151-0.612-2.146-1.729-2.146c-0.72,0-1.402,0.504-1.595,1.295c-0.036,0.131-0.072,0.287-0.072,0.42V320.43L269.1,320.43z"/>
	<path d="M275.471,320.08c0.024,1.428,0.924,2.016,1.991,2.016c0.756,0,1.224-0.131,1.606-0.299l0.191,0.754
		c-0.372,0.168-1.02,0.373-1.942,0.373c-1.786,0-2.854-1.188-2.854-2.938c0-1.75,1.031-3.116,2.723-3.116
		c1.906,0,2.398,1.653,2.398,2.723c0,0.215-0.013,0.371-0.036,0.49h-4.078V320.08z M278.565,319.326
		c0.013-0.66-0.275-1.703-1.463-1.703c-1.08,0-1.535,0.971-1.619,1.703H278.565z"/>
	<path d="M285.034,322.587c-0.276,0.131-0.889,0.336-1.668,0.336c-1.751,0-2.891-1.188-2.891-2.963c0-1.787,1.224-3.094,3.118-3.094
		c0.623,0,1.175,0.156,1.463,0.311l-0.239,0.806c-0.252-0.133-0.647-0.274-1.224-0.274c-1.331,0-2.051,0.994-2.051,2.192
		c0,1.345,0.863,2.173,2.015,2.173c0.601,0,0.995-0.146,1.295-0.275L285.034,322.587z"/>
	<path d="M287.447,315.355c0,0.359-0.252,0.648-0.672,0.648c-0.384,0-0.636-0.289-0.636-0.648s0.265-0.66,0.66-0.66
		C287.184,314.695,287.447,314.984,287.447,315.355z M286.272,322.791v-5.805h1.056v5.805H286.272z"/>
	<path d="M289.188,322.791v-5h-0.804v-0.805h0.804v-0.324c0-1.521,0.899-2.518,2.53-2.518c0.54,0,1.176,0.168,1.476,0.383
		l-0.3,0.805c-0.264-0.18-0.708-0.336-1.224-0.336c-1.115,0-1.438,0.779-1.438,1.703v0.287h3.37v5.805h-1.056v-5h-2.314v5H289.188
		L289.188,322.791z"/>
	<path d="M299.494,322.587c-0.276,0.131-0.888,0.336-1.668,0.336c-1.751,0-2.891-1.188-2.891-2.963c0-1.787,1.224-3.094,3.118-3.094
		c0.623,0,1.175,0.156,1.463,0.311l-0.239,0.806c-0.251-0.133-0.647-0.274-1.224-0.274c-1.331,0-2.051,0.994-2.051,2.192
		c0,1.345,0.863,2.173,2.015,2.173c0.601,0,0.995-0.146,1.296-0.275L299.494,322.587z"/>
	<path d="M218.471,336.939c-0.372,0.193-1.151,0.385-2.135,0.385c-2.279,0-3.982-1.439-3.982-4.102c0-2.543,1.715-4.246,4.223-4.246
		c0.994,0,1.644,0.215,1.919,0.359l-0.265,0.852c-0.384-0.191-0.946-0.336-1.619-0.336c-1.895,0-3.153,1.211-3.153,3.334
		c0,1.992,1.14,3.25,3.095,3.25c0.647,0,1.295-0.131,1.715-0.336L218.471,336.939z"/>
	<path d="M219.793,329.229c0.636-0.106,1.392-0.181,2.219-0.181c1.5,0,2.567,0.359,3.274,1.009c0.73,0.657,1.15,1.594,1.15,2.901
		c0,1.318-0.42,2.398-1.163,3.142c-0.768,0.756-2.015,1.164-3.586,1.164c-0.756,0-1.367-0.035-1.896-0.097L219.793,329.229
		L219.793,329.229z M220.837,336.376c0.264,0.035,0.646,0.047,1.056,0.047c2.242,0,3.441-1.245,3.441-3.43
		c0.013-1.906-1.067-3.119-3.273-3.119c-0.54,0-0.948,0.049-1.224,0.109V336.376z"/>
	<path d="M230.675,337.191v-2.135h-3.622v-0.684l3.479-4.978h1.139v4.847h1.092v0.813h-1.092v2.135L230.675,337.191L230.675,337.191
		z M230.675,334.242v-2.604c0-0.408,0.012-0.814,0.036-1.223h-0.036c-0.239,0.455-0.432,0.791-0.647,1.149l-1.906,2.649v0.025h2.554
		V334.242z"/>
	<path d="M236.987,330.811v2.817h2.71v0.722h-2.71v2.842h-0.768v-2.842h-2.711v-0.722h2.711v-2.817H236.987z"/>
	<path d="M244.68,329.996h-2.458v-0.889h5.984v0.889h-2.472v7.195h-1.056L244.68,329.996L244.68,329.996z"/>
	<path d="M257.29,336.939c-0.372,0.193-1.151,0.385-2.137,0.385c-2.277,0-3.98-1.439-3.98-4.102c0-2.543,1.715-4.246,4.222-4.246
		c0.995,0,1.645,0.215,1.919,0.359l-0.264,0.852c-0.384-0.191-0.947-0.336-1.619-0.336c-1.895,0-3.154,1.211-3.154,3.334
		c0,1.992,1.141,3.25,3.096,3.25c0.646,0,1.295-0.131,1.715-0.336L257.29,336.939z"/>
	<path d="M259.032,334.48c0.023,1.428,0.924,2.016,1.99,2.016c0.756,0,1.225-0.131,1.607-0.299l0.19,0.754
		c-0.371,0.168-1.02,0.373-1.941,0.373c-1.787,0-2.854-1.188-2.854-2.939c0-1.75,1.031-3.116,2.724-3.116
		c1.905,0,2.397,1.653,2.397,2.724c0,0.215-0.012,0.37-0.036,0.489L259.032,334.48L259.032,334.48z M262.127,333.727
		c0.012-0.66-0.276-1.703-1.463-1.703c-1.08,0-1.535,0.972-1.619,1.703H262.127z"/>
	<path d="M264.457,328.675h1.055v8.517h-1.055V328.675z"/>
	<path d="M267.289,328.675h1.055v8.517h-1.055V328.675z"/>
	<path d="M269.977,336.125c0.324,0.191,0.876,0.408,1.403,0.408c0.756,0,1.115-0.373,1.115-0.865c0-0.504-0.301-0.768-1.067-1.055
		c-1.056-0.383-1.547-0.947-1.547-1.643c0-0.936,0.768-1.703,2.003-1.703c0.588,0,1.104,0.156,1.415,0.359l-0.252,0.768
		c-0.229-0.145-0.647-0.348-1.188-0.348c-0.623,0-0.959,0.359-0.959,0.791c0,0.479,0.336,0.695,1.092,0.996
		c0.995,0.371,1.522,0.875,1.522,1.737c0,1.031-0.804,1.753-2.159,1.753c-0.635,0-1.223-0.168-1.631-0.408L269.977,336.125z"/>
</g>
<g>
	<path d="M242.068,564.599c-0.372,0.191-1.15,0.385-2.135,0.385c-2.279,0-3.981-1.439-3.981-4.104c0-2.543,1.715-4.246,4.222-4.246
		c0.995,0,1.644,0.217,1.919,0.361l-0.264,0.852c-0.385-0.191-0.947-0.336-1.619-0.336c-1.896,0-3.154,1.211-3.154,3.334
		c0,1.99,1.14,3.25,3.095,3.25c0.647,0,1.295-0.133,1.716-0.336L242.068,564.599z"/>
	<path d="M243.81,562.14c0.024,1.43,0.924,2.018,1.991,2.018c0.756,0,1.224-0.133,1.607-0.303l0.19,0.758
		c-0.372,0.168-1.02,0.369-1.941,0.369c-1.787,0-2.854-1.188-2.854-2.938c0-1.752,1.031-3.119,2.723-3.119
		c1.906,0,2.398,1.656,2.398,2.723c0,0.219-0.013,0.373-0.036,0.492H243.81L243.81,562.14z M246.905,561.384
		c0.013-0.66-0.275-1.703-1.463-1.703c-1.08,0-1.534,0.975-1.618,1.703H246.905z"/>
	<path d="M249.235,556.335h1.056v8.516h-1.056V556.335z"/>
	<path d="M252.067,556.335h1.056v8.516h-1.056V556.335z"/>
	<path d="M257.478,556.886c0.636-0.105,1.393-0.18,2.219-0.18c1.5,0,2.567,0.359,3.274,1.008c0.731,0.66,1.151,1.596,1.151,2.902
		c0,1.32-0.42,2.398-1.163,3.143c-0.769,0.756-2.016,1.164-3.586,1.164c-0.756,0-1.367-0.037-1.896-0.098L257.478,556.886
		L257.478,556.886z M258.522,564.035c0.265,0.037,0.647,0.049,1.057,0.049c2.241,0,3.44-1.248,3.44-3.43
		c0.014-1.908-1.066-3.119-3.272-3.119c-0.54,0-0.948,0.049-1.225,0.107V564.035z"/>
	<path d="M266.07,562.14c0.024,1.43,0.925,2.018,1.991,2.018c0.756,0,1.225-0.133,1.607-0.303l0.19,0.758
		c-0.372,0.168-1.02,0.369-1.941,0.369c-1.787,0-2.854-1.188-2.854-2.938c0-1.752,1.031-3.119,2.724-3.119
		c1.905,0,2.397,1.656,2.397,2.723c0,0.219-0.013,0.373-0.036,0.492H266.07L266.07,562.14z M269.165,561.384
		c0.012-0.66-0.276-1.703-1.463-1.703c-1.08,0-1.535,0.975-1.619,1.703H269.165z"/>
	<path d="M275.572,563.458c0,0.504,0.024,0.996,0.085,1.393h-0.947l-0.084-0.73h-0.036c-0.323,0.457-0.947,0.863-1.775,0.863
		c-1.175,0-1.773-0.826-1.773-1.666c0-1.404,1.247-2.174,3.489-2.16v-0.119c0-0.467-0.132-1.344-1.318-1.332
		c-0.552,0-1.115,0.156-1.523,0.432l-0.239-0.707c0.479-0.299,1.188-0.504,1.919-0.504c1.774,0,2.207,1.211,2.207,2.363v2.168
		H275.572z M274.552,561.888c-1.151-0.021-2.458,0.182-2.458,1.309c0,0.695,0.455,1.008,0.983,1.008c0.768,0,1.259-0.48,1.427-0.971
		c0.036-0.121,0.048-0.24,0.048-0.338V561.888z"/>
	<path d="M278.5,557.654v1.393h1.512v0.803H278.5v3.131c0,0.721,0.204,1.129,0.792,1.129c0.288,0,0.456-0.023,0.61-0.072
		l0.049,0.805c-0.203,0.07-0.527,0.143-0.937,0.143c-0.491,0-0.887-0.168-1.139-0.443c-0.288-0.324-0.408-0.84-0.408-1.523v-3.166
		h-0.899v-0.803h0.899v-1.08L278.5,557.654z"/>
	<path d="M281.203,556.335h1.055v3.635h0.024c0.168-0.301,0.432-0.576,0.756-0.756c0.312-0.18,0.684-0.289,1.079-0.289
		c0.778,0,2.025,0.48,2.025,2.473v3.453h-1.055v-3.334c0-0.936-0.349-1.715-1.344-1.715c-0.685,0-1.211,0.48-1.415,1.043
		c-0.061,0.156-0.072,0.312-0.072,0.504v3.504h-1.055L281.203,556.335L281.203,556.335z"/>
</g>
<g>
	<path d="M245.452,487.677v7.02c0,0.516,0.022,1.104,0.048,1.498h-0.937l-0.048-1.01h-0.036c-0.312,0.648-1.008,1.143-1.955,1.143
		c-1.402,0-2.494-1.189-2.494-2.951c-0.013-1.93,1.199-3.105,2.604-3.105c0.899,0,1.487,0.42,1.751,0.875h0.023v-3.467h1.044
		V487.677z M244.408,492.751c0-0.133-0.013-0.311-0.049-0.443c-0.154-0.658-0.73-1.213-1.522-1.213
		c-1.091,0-1.738,0.961-1.738,2.232c0,1.174,0.588,2.146,1.715,2.146c0.708,0,1.355-0.48,1.547-1.26
		c0.036-0.145,0.049-0.287,0.049-0.455L244.408,492.751L244.408,492.751z"/>
</g>
<g>
	<g>
		<line fill="none" stroke="#020202" x1="568.631" y1="112.072" x2="517.18" y2="112.072"/>
		<polygon fill="#020202" points="565.823,115.775 567.395,112.072 565.823,108.368 574.6,112.072 		"/>
	</g>
</g>
<g>
	<path d="M597.678,115.343c-0.371,0.192-1.149,0.384-2.135,0.384c-2.279,0-3.982-1.439-3.982-4.102c0-2.543,1.716-4.246,4.224-4.246
		c0.994,0,1.643,0.216,1.918,0.36l-0.264,0.852c-0.384-0.192-0.947-0.336-1.619-0.336c-1.896,0-3.154,1.211-3.154,3.334
		c0,1.991,1.141,3.25,3.096,3.25c0.646,0,1.295-0.132,1.716-0.336L597.678,115.343z"/>
	<path d="M599.42,112.884c0.025,1.428,0.924,2.016,1.992,2.016c0.756,0,1.223-0.132,1.606-0.3l0.191,0.755
		c-0.373,0.168-1.021,0.372-1.943,0.372c-1.786,0-2.854-1.188-2.854-2.938s1.031-3.118,2.723-3.118c1.906,0,2.398,1.655,2.398,2.723
		c0,0.216-0.015,0.372-0.037,0.491L599.42,112.884L599.42,112.884z M602.516,112.129c0.013-0.66-0.276-1.703-1.463-1.703
		c-1.08,0-1.535,0.972-1.619,1.703H602.516z"/>
	<path d="M604.846,107.079h1.056v8.516h-1.056V107.079z"/>
	<path d="M607.678,107.079h1.056v8.516h-1.056V107.079z"/>
	<path d="M613.088,107.631c0.637-0.107,1.394-0.18,2.219-0.18c1.5,0,2.568,0.359,3.275,1.008c0.73,0.659,1.15,1.595,1.15,2.902
		c0,1.319-0.42,2.398-1.162,3.142c-0.769,0.756-2.017,1.164-3.586,1.164c-0.756,0-1.367-0.036-1.896-0.097V107.631L613.088,107.631z
		 M614.133,114.779c0.264,0.036,0.646,0.048,1.055,0.048c2.242,0,3.441-1.247,3.441-3.43c0.014-1.907-1.066-3.119-3.273-3.119
		c-0.538,0-0.946,0.049-1.223,0.108V114.779L614.133,114.779z"/>
	<path d="M621.68,112.884c0.025,1.428,0.924,2.016,1.992,2.016c0.756,0,1.223-0.132,1.607-0.3l0.19,0.755
		c-0.373,0.168-1.02,0.372-1.942,0.372c-1.787,0-2.854-1.188-2.854-2.938s1.031-3.118,2.724-3.118c1.905,0,2.397,1.655,2.397,2.723
		c0,0.216-0.014,0.372-0.037,0.491L621.68,112.884L621.68,112.884z M624.776,112.129c0.012-0.66-0.277-1.703-1.463-1.703
		c-1.08,0-1.535,0.972-1.619,1.703H624.776z"/>
	<path d="M631.182,114.203c0,0.504,0.025,0.996,0.084,1.392h-0.946l-0.084-0.73H630.2c-0.324,0.456-0.947,0.863-1.775,0.863
		c-1.176,0-1.774-0.827-1.774-1.667c0-1.403,1.248-2.171,3.489-2.159v-0.119c0-0.468-0.131-1.344-1.317-1.332
		c-0.554,0-1.115,0.156-1.523,0.432l-0.24-0.707c0.48-0.3,1.188-0.504,1.918-0.504c1.775,0,2.207,1.211,2.207,2.362v2.17H631.182z
		 M630.162,112.633c-1.15-0.024-2.457,0.18-2.457,1.307c0,0.696,0.455,1.008,0.982,1.008c0.768,0,1.26-0.479,1.428-0.972
		c0.035-0.12,0.047-0.24,0.047-0.336V112.633z"/>
	<path d="M634.112,108.398v1.392h1.512v0.804h-1.512v3.13c0,0.72,0.203,1.128,0.791,1.128c0.289,0,0.457-0.024,0.61-0.072
		l0.05,0.804c-0.203,0.071-0.527,0.144-0.937,0.144c-0.492,0-0.887-0.168-1.139-0.443c-0.289-0.324-0.408-0.84-0.408-1.523v-3.166
		h-0.9v-0.804h0.9v-1.079L634.112,108.398z"/>
	<path d="M636.813,107.079h1.055v3.635h0.024c0.169-0.301,0.433-0.576,0.757-0.756c0.311-0.18,0.684-0.288,1.077-0.288
		c0.779,0,2.027,0.479,2.027,2.471v3.454h-1.055v-3.334c0-0.936-0.351-1.715-1.345-1.715c-0.684,0-1.211,0.479-1.416,1.043
		c-0.059,0.156-0.071,0.312-0.071,0.504v3.502h-1.056v-8.516H636.813z"/>
</g>
<g>
	<path d="M548.77,93.649c-0.061,0.611-0.155,2.603-0.155,4.162c0,0.684,0.168,0.959,0.576,0.971l-0.084,0.756
		c-0.084,0.036-0.24,0.048-0.359,0.048c-0.516,0-0.937-0.336-0.996-1.223h-0.035c-0.385,0.708-1.057,1.223-1.979,1.223
		c-1.379,0-2.374-1.151-2.374-2.914c0-1.895,1.247-3.143,2.591-3.143c0.84,0,1.475,0.432,1.787,1.14h0.047
		c0.025-0.444,0.061-0.744,0.109-1.02H548.77z M544.428,96.659c0,1.08,0.564,2.087,1.572,2.087c0.73,0,1.367-0.708,1.547-1.463
		c0.06-0.264,0.072-0.492,0.072-0.815c0-0.24,0-0.432-0.049-0.636c-0.146-0.768-0.72-1.475-1.486-1.475
		c-0.973,0-1.656,0.971-1.656,2.279V96.659z"/>
</g>
<g>
	<g>
		<line fill="none" stroke="#020202" x1="355.882" y1="374.494" x2="304.43" y2="374.494"/>
		<polygon fill="#020202" points="353.073,378.199 354.647,374.494 353.073,370.791 361.851,374.494 		"/>
	</g>
</g>
<path fill="none" stroke="#020202" d="M323.684,248.04c0,78.644,6.298,125.831,16.923,125.831"/>
<g>
	<path d="M358.424,467.931c-0.372,0.193-1.15,0.385-2.135,0.385c-2.279,0-3.982-1.439-3.982-4.102c0-2.543,1.716-4.246,4.223-4.246
		c0.995,0,1.644,0.215,1.919,0.359l-0.265,0.852c-0.384-0.191-0.946-0.336-1.618-0.336c-1.896,0-3.154,1.211-3.154,3.334
		c0,1.992,1.14,3.25,3.095,3.25c0.647,0,1.295-0.131,1.715-0.336L358.424,467.931z"/>
	<path d="M360.167,465.472c0.024,1.43,0.924,2.018,1.992,2.018c0.756,0,1.223-0.133,1.606-0.301l0.191,0.756
		c-0.373,0.168-1.02,0.371-1.943,0.371c-1.787,0-2.854-1.188-2.854-2.938s1.031-3.119,2.723-3.119c1.907,0,2.399,1.656,2.399,2.725
		c0,0.215-0.015,0.371-0.037,0.49h-4.078V465.472z M363.262,464.718c0.013-0.66-0.276-1.703-1.463-1.703
		c-1.08,0-1.535,0.973-1.619,1.703H363.262z"/>
	<path d="M365.592,459.667h1.056v8.516h-1.056V459.667z"/>
	<path d="M368.424,459.667h1.055v8.516h-1.055V459.667z"/>
	<path d="M373.834,460.197c0.504-0.084,1.164-0.156,2.004-0.156c1.031,0,1.787,0.24,2.266,0.672c0.435,0.383,0.71,0.971,0.71,1.689
		c0,0.732-0.218,1.309-0.625,1.729c-0.562,0.588-1.451,0.887-2.47,0.887c-0.312,0-0.602-0.012-0.84-0.07v3.236h-1.045V460.197z
		 M374.879,464.093c0.228,0.062,0.516,0.084,0.863,0.084c1.26,0,2.026-0.623,2.026-1.715c0-1.078-0.768-1.596-1.907-1.596
		c-0.455,0-0.804,0.037-0.982,0.084V464.093L374.879,464.093z"/>
	<path d="M379.99,464.189c0-0.684-0.013-1.271-0.049-1.811h0.924l0.049,1.15h0.035c0.264-0.779,0.912-1.271,1.619-1.271
		c0.108,0,0.19,0.012,0.289,0.025v0.994c-0.109-0.023-0.218-0.023-0.361-0.023c-0.742,0-1.271,0.551-1.414,1.344
		c-0.023,0.145-0.037,0.324-0.037,0.49v3.096h-1.055V464.189L379.99,464.189z"/>
	<path d="M389.049,465.234c0,2.145-1.5,3.082-2.891,3.082c-1.562,0-2.783-1.152-2.783-2.986c0-1.932,1.283-3.07,2.879-3.07
		C387.92,462.259,389.049,463.47,389.049,465.234z M384.455,465.292c0,1.271,0.719,2.232,1.75,2.232
		c1.008,0,1.764-0.949,1.764-2.256c0-0.982-0.492-2.219-1.737-2.219C384.994,463.05,384.455,464.203,384.455,465.292z"/>
	<path d="M390.383,459.667h1.055v8.516h-1.055V459.667z"/>
	<path d="M394.391,460.748c0,0.359-0.252,0.646-0.672,0.646c-0.385,0-0.637-0.287-0.637-0.646s0.266-0.66,0.66-0.66
		C394.127,460.087,394.391,460.376,394.391,460.748z M393.215,468.183v-5.805h1.055v5.805H393.215z"/>
	<path d="M396.131,468.183v-5h-0.805v-0.805h0.805v-0.275c0-0.814,0.191-1.559,0.672-2.025c0.396-0.385,0.922-0.541,1.414-0.541
		c0.385,0,0.695,0.084,0.9,0.168l-0.146,0.814c-0.155-0.07-0.358-0.131-0.672-0.131c-0.897,0-1.127,0.779-1.127,1.68v0.312h1.402
		v0.803h-1.402v5.002h-1.042V468.183z"/>
	<path d="M399.957,465.472c0.025,1.43,0.924,2.018,1.992,2.018c0.756,0,1.223-0.133,1.606-0.301l0.191,0.756
		c-0.373,0.168-1.021,0.371-1.943,0.371c-1.787,0-2.854-1.188-2.854-2.938s1.031-3.119,2.723-3.119c1.906,0,2.398,1.656,2.398,2.725
		c0,0.215-0.015,0.371-0.037,0.49h-4.077V465.472z M403.053,464.718c0.013-0.66-0.276-1.703-1.463-1.703
		c-1.08,0-1.535,0.973-1.619,1.703H403.053z"/>
	<path d="M405.383,464.189c0-0.684-0.012-1.271-0.049-1.811h0.924l0.049,1.15h0.035c0.265-0.779,0.912-1.271,1.619-1.271
		c0.109,0,0.191,0.012,0.289,0.025v0.994c-0.109-0.023-0.217-0.023-0.361-0.023c-0.741,0-1.271,0.551-1.414,1.344
		c-0.022,0.145-0.036,0.324-0.036,0.49v3.096h-1.056V464.189L405.383,464.189z"/>
	<path d="M413.324,466.792c0,0.504,0.022,0.996,0.084,1.391h-0.947l-0.084-0.73h-0.037c-0.324,0.457-0.947,0.863-1.774,0.863
		c-1.175,0-1.773-0.826-1.773-1.666c0-1.404,1.246-2.172,3.49-2.16v-0.119c0-0.467-0.133-1.344-1.32-1.332
		c-0.551,0-1.115,0.156-1.522,0.432l-0.24-0.707c0.479-0.299,1.188-0.504,1.92-0.504c1.774,0,2.207,1.211,2.207,2.363v2.17H413.324z
		 M412.305,465.222c-1.151-0.023-2.459,0.18-2.459,1.307c0,0.695,0.455,1.008,0.984,1.008c0.768,0,1.258-0.479,1.426-0.971
		c0.037-0.121,0.049-0.24,0.049-0.338V465.222z"/>
	<path d="M416.254,460.988v1.391h1.512v0.805h-1.512v3.129c0,0.721,0.203,1.129,0.791,1.129c0.289,0,0.457-0.023,0.611-0.072
		l0.049,0.805c-0.203,0.07-0.527,0.145-0.937,0.145c-0.491,0-0.887-0.168-1.139-0.443c-0.289-0.324-0.408-0.84-0.408-1.523v-3.166
		h-0.899v-0.805h0.899v-1.08L416.254,460.988z"/>
	<path d="M420.129,460.748c0,0.359-0.252,0.646-0.672,0.646c-0.383,0-0.635-0.287-0.635-0.646s0.264-0.66,0.66-0.66
		C419.865,460.087,420.129,460.376,420.129,460.748z M418.955,468.183v-5.805h1.055v5.805H418.955z"/>
	<path d="M427.016,465.234c0,2.145-1.498,3.082-2.891,3.082c-1.559,0-2.781-1.152-2.781-2.986c0-1.932,1.283-3.07,2.877-3.07
		C425.889,462.259,427.016,463.47,427.016,465.234z M422.422,465.292c0,1.271,0.721,2.232,1.752,2.232
		c1.008,0,1.762-0.949,1.762-2.256c0-0.982-0.489-2.219-1.737-2.219C422.963,463.05,422.422,464.203,422.422,465.292z"/>
	<path d="M428.352,463.951c0-0.613-0.014-1.092-0.049-1.572h0.937l0.061,0.959h0.023c0.287-0.539,0.959-1.078,1.918-1.078
		c0.805,0,2.051,0.479,2.051,2.471v3.453h-1.055v-3.346c0-0.936-0.349-1.715-1.345-1.715c-0.684,0-1.223,0.492-1.414,1.08
		c-0.049,0.131-0.071,0.311-0.071,0.49v3.49h-1.056V463.951L428.352,463.951z"/>
</g>
<g>
	<path d="M148.058,467.931c-0.372,0.193-1.15,0.385-2.135,0.385c-2.279,0-3.982-1.439-3.982-4.102c0-2.543,1.716-4.246,4.223-4.246
		c0.995,0,1.644,0.215,1.919,0.359l-0.265,0.852c-0.384-0.191-0.946-0.336-1.618-0.336c-1.896,0-3.154,1.211-3.154,3.334
		c0,1.992,1.14,3.25,3.095,3.25c0.647,0,1.295-0.131,1.715-0.336L148.058,467.931z"/>
	<path d="M149.8,465.472c0.024,1.43,0.924,2.018,1.991,2.018c0.756,0,1.224-0.133,1.606-0.301l0.191,0.756
		c-0.372,0.168-1.021,0.371-1.942,0.371c-1.787,0-2.854-1.188-2.854-2.938s1.031-3.119,2.723-3.119c1.906,0,2.398,1.656,2.398,2.725
		c0,0.215-0.014,0.371-0.036,0.49H149.8V465.472z M152.895,464.718c0.013-0.66-0.275-1.703-1.463-1.703
		c-1.08,0-1.535,0.973-1.619,1.703H152.895z"/>
	<path d="M155.225,459.667h1.055v8.516h-1.055V459.667z"/>
	<path d="M158.057,459.667h1.055v8.516h-1.055V459.667z"/>
	<path d="M163.468,460.197c0.504-0.084,1.164-0.156,2.003-0.156c1.032,0,1.787,0.24,2.267,0.672
		c0.434,0.383,0.708,0.971,0.708,1.689c0,0.732-0.216,1.309-0.624,1.729c-0.562,0.588-1.45,0.887-2.47,0.887
		c-0.312,0-0.601-0.012-0.84-0.07v3.236h-1.044V460.197z M164.512,464.093c0.229,0.062,0.516,0.084,0.863,0.084
		c1.26,0,2.026-0.623,2.026-1.715c0-1.078-0.768-1.596-1.906-1.596c-0.456,0-0.805,0.037-0.983,0.084V464.093z"/>
	<path d="M169.625,464.189c0-0.684-0.014-1.271-0.049-1.811h0.924l0.048,1.15h0.036c0.264-0.779,0.911-1.271,1.619-1.271
		c0.107,0,0.19,0.012,0.288,0.025v0.994c-0.108-0.023-0.217-0.023-0.36-0.023c-0.743,0-1.271,0.551-1.415,1.344
		c-0.023,0.145-0.036,0.324-0.036,0.49v3.096h-1.055V464.189L169.625,464.189z"/>
	<path d="M178.682,465.234c0,2.145-1.499,3.082-2.891,3.082c-1.561,0-2.782-1.152-2.782-2.986c0-1.932,1.283-3.07,2.878-3.07
		C177.554,462.259,178.682,463.47,178.682,465.234z M174.088,465.292c0,1.271,0.72,2.232,1.751,2.232
		c1.008,0,1.763-0.949,1.763-2.256c0-0.982-0.491-2.219-1.738-2.219C174.628,463.05,174.088,464.203,174.088,465.292z"/>
	<path d="M180.017,459.667h1.055v8.516h-1.055V459.667z"/>
	<path d="M184.024,460.748c0,0.359-0.252,0.646-0.672,0.646c-0.384,0-0.636-0.287-0.636-0.646s0.265-0.66,0.66-0.66
		C183.76,460.087,184.024,460.376,184.024,460.748z M182.849,468.183v-5.805h1.055v5.805H182.849z"/>
	<path d="M185.764,468.183v-5h-0.804v-0.805h0.804v-0.275c0-0.814,0.192-1.559,0.672-2.025c0.396-0.385,0.923-0.541,1.415-0.541
		c0.384,0,0.695,0.084,0.899,0.168l-0.145,0.814c-0.155-0.07-0.359-0.131-0.672-0.131c-0.898,0-1.127,0.779-1.127,1.68v0.312h1.402
		v0.803h-1.402v5.002h-1.043V468.183z"/>
	<path d="M189.591,465.472c0.024,1.43,0.924,2.018,1.991,2.018c0.756,0,1.224-0.133,1.606-0.301l0.191,0.756
		c-0.372,0.168-1.021,0.371-1.942,0.371c-1.787,0-2.854-1.188-2.854-2.938s1.031-3.119,2.723-3.119c1.906,0,2.398,1.656,2.398,2.725
		c0,0.215-0.014,0.371-0.036,0.49h-4.078V465.472z M192.686,464.718c0.013-0.66-0.275-1.703-1.463-1.703
		c-1.08,0-1.535,0.973-1.619,1.703H192.686z"/>
	<path d="M195.017,464.189c0-0.684-0.013-1.271-0.049-1.811h0.924l0.048,1.15h0.036c0.265-0.779,0.911-1.271,1.619-1.271
		c0.108,0,0.191,0.012,0.288,0.025v0.994c-0.108-0.023-0.216-0.023-0.36-0.023c-0.743,0-1.271,0.551-1.415,1.344
		c-0.022,0.145-0.036,0.324-0.036,0.49v3.096h-1.055V464.189L195.017,464.189z"/>
	<path d="M202.958,466.792c0,0.504,0.023,0.996,0.084,1.391h-0.947l-0.084-0.73h-0.036c-0.324,0.457-0.947,0.863-1.774,0.863
		c-1.176,0-1.774-0.826-1.774-1.666c0-1.404,1.247-2.172,3.49-2.16v-0.119c0-0.467-0.132-1.344-1.319-1.332
		c-0.552,0-1.115,0.156-1.522,0.432l-0.24-0.707c0.479-0.299,1.188-0.504,1.919-0.504c1.774,0,2.207,1.211,2.207,2.363v2.17H202.958
		z M201.938,465.222c-1.15-0.023-2.458,0.18-2.458,1.307c0,0.695,0.455,1.008,0.983,1.008c0.768,0,1.259-0.479,1.427-0.971
		c0.036-0.121,0.048-0.24,0.048-0.338V465.222L201.938,465.222z"/>
	<path d="M205.887,460.988v1.391h1.512v0.805h-1.512v3.129c0,0.721,0.204,1.129,0.792,1.129c0.288,0,0.456-0.023,0.611-0.072
		l0.048,0.805c-0.203,0.07-0.527,0.145-0.937,0.145c-0.49,0-0.887-0.168-1.139-0.443c-0.288-0.324-0.408-0.84-0.408-1.523v-3.166
		h-0.898v-0.805h0.898v-1.08L205.887,460.988z"/>
	<path d="M209.763,460.748c0,0.359-0.252,0.646-0.672,0.646c-0.384,0-0.636-0.287-0.636-0.646s0.265-0.66,0.66-0.66
		C209.5,460.087,209.763,460.376,209.763,460.748z M208.588,468.183v-5.805h1.055v5.805H208.588z"/>
	<path d="M216.65,465.234c0,2.145-1.499,3.082-2.891,3.082c-1.56,0-2.782-1.152-2.782-2.986c0-1.932,1.283-3.07,2.878-3.07
		C215.522,462.259,216.65,463.47,216.65,465.234z M212.056,465.292c0,1.271,0.72,2.232,1.751,2.232c1.008,0,1.763-0.949,1.763-2.256
		c0-0.982-0.49-2.219-1.737-2.219C212.596,463.05,212.056,464.203,212.056,465.292z"/>
	<path d="M217.985,463.951c0-0.613-0.013-1.092-0.049-1.572h0.937l0.061,0.959h0.023c0.288-0.539,0.96-1.078,1.919-1.078
		c0.804,0,2.051,0.479,2.051,2.471v3.453h-1.055v-3.346c0-0.936-0.349-1.715-1.345-1.715c-0.684,0-1.224,0.492-1.415,1.08
		c-0.048,0.131-0.071,0.311-0.071,0.49v3.49h-1.056V463.951L217.985,463.951z"/>
</g>
<g>
	<path d="M148.059,165.903c-0.372,0.192-1.15,0.384-2.135,0.384c-2.279,0-3.982-1.439-3.982-4.102c0-2.543,1.716-4.246,4.223-4.246
		c0.995,0,1.644,0.216,1.919,0.36l-0.265,0.852c-0.384-0.192-0.946-0.336-1.618-0.336c-1.896,0-3.154,1.211-3.154,3.334
		c0,1.991,1.14,3.25,3.095,3.25c0.647,0,1.295-0.132,1.715-0.336L148.059,165.903z"/>
	<path d="M149.801,163.444c0.024,1.428,0.924,2.016,1.991,2.016c0.756,0,1.224-0.132,1.606-0.3l0.191,0.755
		c-0.372,0.168-1.021,0.372-1.942,0.372c-1.787,0-2.854-1.188-2.854-2.938s1.031-3.118,2.723-3.118c1.906,0,2.398,1.655,2.398,2.723
		c0,0.216-0.014,0.372-0.036,0.491L149.801,163.444L149.801,163.444z M152.896,162.689c0.013-0.66-0.275-1.703-1.463-1.703
		c-1.08,0-1.535,0.972-1.619,1.703H152.896z"/>
	<path d="M155.226,157.64h1.055v8.516h-1.055V157.64z"/>
	<path d="M158.058,157.64h1.055v8.516h-1.055V157.64z"/>
	<path d="M163.469,158.168c0.504-0.084,1.164-0.156,2.003-0.156c1.032,0,1.787,0.24,2.267,0.672c0.434,0.384,0.708,0.972,0.708,1.69
		c0,0.732-0.216,1.308-0.623,1.728c-0.563,0.588-1.451,0.888-2.471,0.888c-0.312,0-0.601-0.013-0.84-0.072v3.238h-1.044V158.168z
		 M164.513,162.065c0.229,0.061,0.516,0.084,0.863,0.084c1.26,0,2.026-0.624,2.026-1.715c0-1.079-0.768-1.596-1.906-1.596
		c-0.456,0-0.805,0.036-0.983,0.084V162.065z"/>
	<path d="M169.625,162.161c0-0.684-0.014-1.271-0.049-1.811h0.924l0.048,1.151h0.036c0.264-0.779,0.911-1.271,1.619-1.271
		c0.107,0,0.19,0.012,0.288,0.024v0.995c-0.108-0.024-0.217-0.024-0.36-0.024c-0.743,0-1.271,0.552-1.415,1.344
		c-0.023,0.144-0.036,0.324-0.036,0.491v3.095h-1.055V162.161L169.625,162.161z"/>
	<path d="M178.683,163.205c0,2.146-1.499,3.082-2.891,3.082c-1.561,0-2.782-1.151-2.782-2.986c0-1.931,1.283-3.07,2.878-3.07
		C177.555,160.23,178.683,161.441,178.683,163.205z M174.089,163.265c0,1.271,0.72,2.231,1.751,2.231
		c1.008,0,1.763-0.948,1.763-2.255c0-0.983-0.491-2.219-1.737-2.219C174.629,161.022,174.089,162.174,174.089,163.265z"/>
	<path d="M180.018,157.64h1.056v8.516h-1.056V157.64z"/>
	<path d="M184.024,158.72c0,0.359-0.252,0.647-0.672,0.647c-0.384,0-0.636-0.288-0.636-0.647c0-0.36,0.265-0.66,0.66-0.66
		C183.761,158.06,184.024,158.348,184.024,158.72z M182.85,166.155v-5.805h1.055v5.805H182.85z"/>
	<path d="M185.765,166.155v-5.001h-0.804v-0.804h0.804v-0.276c0-0.815,0.192-1.559,0.672-2.026c0.396-0.384,0.923-0.54,1.415-0.54
		c0.384,0,0.695,0.084,0.899,0.168l-0.145,0.815c-0.155-0.071-0.359-0.132-0.672-0.132c-0.898,0-1.127,0.779-1.127,1.68v0.312h1.402
		v0.804h-1.402v5.001L185.765,166.155L185.765,166.155z"/>
	<path d="M189.592,163.444c0.024,1.428,0.924,2.016,1.991,2.016c0.756,0,1.224-0.132,1.606-0.3l0.191,0.755
		c-0.372,0.168-1.021,0.372-1.942,0.372c-1.787,0-2.854-1.188-2.854-2.938s1.031-3.118,2.723-3.118c1.906,0,2.398,1.655,2.398,2.723
		c0,0.216-0.014,0.372-0.036,0.491L189.592,163.444L189.592,163.444z M192.687,162.689c0.013-0.66-0.275-1.703-1.463-1.703
		c-1.08,0-1.535,0.972-1.619,1.703H192.687z"/>
	<path d="M195.018,162.161c0-0.684-0.013-1.271-0.049-1.811h0.924l0.048,1.151h0.036c0.265-0.779,0.911-1.271,1.619-1.271
		c0.108,0,0.191,0.012,0.288,0.024v0.995c-0.108-0.024-0.216-0.024-0.36-0.024c-0.742,0-1.271,0.552-1.415,1.344
		c-0.022,0.144-0.035,0.324-0.035,0.491v3.095h-1.056V162.161L195.018,162.161z"/>
	<path d="M202.958,164.764c0,0.504,0.023,0.996,0.084,1.392h-0.947l-0.084-0.731h-0.036c-0.324,0.456-0.947,0.863-1.774,0.863
		c-1.176,0-1.774-0.827-1.774-1.667c0-1.403,1.247-2.171,3.49-2.159v-0.119c0-0.468-0.132-1.344-1.319-1.332
		c-0.552,0-1.115,0.156-1.522,0.432l-0.24-0.707c0.479-0.3,1.188-0.504,1.919-0.504c1.774,0,2.207,1.211,2.207,2.362v2.17H202.958z
		 M201.938,163.193c-1.15-0.024-2.458,0.18-2.458,1.307c0,0.696,0.455,1.008,0.983,1.008c0.768,0,1.259-0.479,1.427-0.972
		c0.036-0.12,0.048-0.24,0.048-0.336V163.193L201.938,163.193z"/>
	<path d="M205.888,158.959v1.392h1.512v0.804h-1.512v3.13c0,0.72,0.204,1.128,0.792,1.128c0.288,0,0.456-0.024,0.611-0.072
		l0.048,0.804c-0.203,0.071-0.527,0.144-0.937,0.144c-0.49,0-0.887-0.168-1.139-0.443c-0.288-0.324-0.408-0.84-0.408-1.523v-3.166
		h-0.898v-0.804h0.898v-1.079L205.888,158.959z"/>
	<path d="M209.764,158.72c0,0.359-0.252,0.647-0.672,0.647c-0.384,0-0.636-0.288-0.636-0.647c0-0.36,0.265-0.66,0.66-0.66
		C209.5,158.06,209.764,158.348,209.764,158.72z M208.589,166.155v-5.805h1.055v5.805H208.589z"/>
	<path d="M216.65,163.205c0,2.146-1.499,3.082-2.891,3.082c-1.56,0-2.782-1.151-2.782-2.986c0-1.931,1.283-3.07,2.878-3.07
		C215.522,160.23,216.65,161.441,216.65,163.205z M212.057,163.265c0,1.271,0.72,2.231,1.751,2.231c1.008,0,1.763-0.948,1.763-2.255
		c0-0.983-0.49-2.219-1.737-2.219C212.597,161.022,212.057,162.174,212.057,163.265z"/>
	<path d="M217.985,161.922c0-0.612-0.013-1.092-0.049-1.571h0.937l0.061,0.959h0.023c0.288-0.539,0.96-1.079,1.919-1.079
		c0.804,0,2.051,0.479,2.051,2.471v3.454h-1.055v-3.346c0-0.936-0.349-1.716-1.345-1.716c-0.684,0-1.224,0.492-1.415,1.08
		c-0.048,0.132-0.071,0.312-0.071,0.491v3.49h-1.056V161.922L217.985,161.922z"/>
</g>
<g id="a">
	<rect id="a_path1" x="535.923" y="393.851" fill="#FFFFFF" stroke="#231F20" width="18" height="21.544"/>
	<g>
		<path d="M547.147,406.126c0,0.504,0.023,0.996,0.084,1.394h-0.947l-0.084-0.731h-0.036c-0.323,0.457-0.947,0.862-1.775,0.862
			c-1.175,0-1.773-0.825-1.773-1.666c0-1.403,1.247-2.172,3.489-2.159v-0.119c0-0.467-0.132-1.344-1.318-1.332
			c-0.552,0-1.115,0.156-1.523,0.432l-0.24-0.707c0.48-0.299,1.188-0.504,1.92-0.504c1.774,0,2.207,1.211,2.207,2.363v2.168H547.147
			z M546.126,404.557c-1.151-0.022-2.458,0.18-2.458,1.308c0,0.694,0.455,1.008,0.983,1.008c0.768,0,1.259-0.479,1.427-0.972
			c0.036-0.121,0.048-0.239,0.048-0.336V404.557L546.126,404.557z"/>
	</g>
</g>
<g>
	<g>
		<line fill="none" stroke="#020202" x1="568.631" y1="418.5" x2="517.18" y2="418.5"/>
		<polygon fill="#020202" points="565.823,422.203 567.395,418.5 565.823,414.796 574.6,418.5 		"/>
	</g>
</g>
<g>
	<path d="M597.678,421.771c-0.371,0.191-1.149,0.385-2.135,0.385c-2.279,0-3.982-1.439-3.982-4.103c0-2.544,1.716-4.246,4.224-4.246
		c0.994,0,1.643,0.216,1.918,0.36l-0.264,0.852c-0.384-0.191-0.947-0.336-1.619-0.336c-1.896,0-3.154,1.211-3.154,3.334
		c0,1.99,1.141,3.25,3.096,3.25c0.646,0,1.295-0.133,1.716-0.336L597.678,421.771z"/>
	<path d="M599.42,419.312c0.025,1.428,0.924,2.016,1.992,2.016c0.756,0,1.223-0.132,1.606-0.3l0.191,0.755
		c-0.373,0.168-1.021,0.373-1.943,0.373c-1.786,0-2.854-1.189-2.854-2.939s1.031-3.117,2.723-3.117c1.906,0,2.398,1.654,2.398,2.723
		c0,0.217-0.015,0.372-0.037,0.491L599.42,419.312L599.42,419.312z M602.516,418.557c0.013-0.66-0.276-1.703-1.463-1.703
		c-1.08,0-1.535,0.972-1.619,1.703H602.516z"/>
	<path d="M604.846,413.507h1.056v8.516h-1.056V413.507z"/>
	<path d="M607.678,413.507h1.056v8.516h-1.056V413.507z"/>
	<path d="M613.088,414.059c0.637-0.106,1.394-0.181,2.219-0.181c1.5,0,2.568,0.359,3.275,1.009c0.73,0.659,1.15,1.595,1.15,2.901
		c0,1.319-0.42,2.398-1.162,3.143c-0.769,0.756-2.017,1.164-3.586,1.164c-0.756,0-1.367-0.037-1.896-0.098V414.059L613.088,414.059z
		 M614.133,421.207c0.264,0.037,0.646,0.049,1.055,0.049c2.242,0,3.441-1.248,3.441-3.43c0.014-1.908-1.066-3.119-3.273-3.119
		c-0.538,0-0.946,0.049-1.223,0.107V421.207L614.133,421.207z"/>
	<path d="M621.68,419.312c0.025,1.428,0.924,2.016,1.992,2.016c0.756,0,1.223-0.132,1.607-0.3l0.19,0.755
		c-0.373,0.168-1.02,0.373-1.942,0.373c-1.787,0-2.854-1.189-2.854-2.939s1.031-3.117,2.724-3.117c1.905,0,2.397,1.654,2.397,2.723
		c0,0.217-0.014,0.372-0.037,0.491L621.68,419.312L621.68,419.312z M624.776,418.557c0.012-0.66-0.277-1.703-1.463-1.703
		c-1.08,0-1.535,0.972-1.619,1.703H624.776z"/>
	<path d="M631.182,420.63c0,0.504,0.025,0.996,0.084,1.393h-0.946l-0.084-0.73H630.2c-0.324,0.455-0.947,0.863-1.775,0.863
		c-1.176,0-1.774-0.828-1.774-1.668c0-1.402,1.248-2.171,3.489-2.158v-0.119c0-0.469-0.131-1.344-1.317-1.332
		c-0.554,0-1.115,0.156-1.523,0.432l-0.24-0.707c0.48-0.3,1.188-0.504,1.918-0.504c1.775,0,2.207,1.211,2.207,2.361v2.17H631.182z
		 M630.162,419.061c-1.15-0.024-2.457,0.181-2.457,1.308c0,0.695,0.455,1.008,0.982,1.008c0.768,0,1.26-0.479,1.428-0.973
		c0.035-0.119,0.047-0.24,0.047-0.336V419.061z"/>
	<path d="M634.112,414.826v1.393h1.512v0.804h-1.512v3.13c0,0.721,0.203,1.128,0.791,1.128c0.289,0,0.457-0.024,0.61-0.071
		l0.05,0.803c-0.203,0.072-0.527,0.145-0.937,0.145c-0.492,0-0.887-0.168-1.139-0.443c-0.289-0.323-0.408-0.84-0.408-1.522v-3.166
		h-0.9v-0.804h0.9v-1.079L634.112,414.826z"/>
	<path d="M636.813,413.507h1.055v3.635h0.024c0.169-0.301,0.433-0.576,0.757-0.756c0.311-0.18,0.684-0.288,1.077-0.288
		c0.779,0,2.027,0.479,2.027,2.471v3.454h-1.055v-3.334c0-0.936-0.351-1.715-1.345-1.715c-0.684,0-1.211,0.479-1.416,1.043
		c-0.059,0.156-0.071,0.312-0.071,0.504v3.502h-1.056v-8.516H636.813z"/>
</g>
<g>
	<g>
		<line fill="none" stroke="#020202" x1="139.879" y1="104.003" x2="88.428" y2="104.003"/>
		<polygon fill="#020202" points="82.459,104.003 91.237,100.299 89.665,104.003 91.237,107.706 		"/>
	</g>
</g>
<g>
	<path d="M152.476,236.195l-2.649-8.084h1.14l1.259,3.982c0.336,1.091,0.636,2.074,0.863,3.022h0.023
		c0.229-0.936,0.553-1.955,0.925-3.011l1.366-3.994h1.115l-2.891,8.084L152.476,236.195L152.476,236.195z"/>
	<path d="M158.344,228.76c0,0.359-0.252,0.647-0.672,0.647c-0.384,0-0.636-0.288-0.636-0.647c0-0.36,0.265-0.66,0.659-0.66
		C158.08,228.1,158.344,228.388,158.344,228.76z M157.169,236.195v-5.805h1.055v5.805H157.169z"/>
	<path d="M159.978,232.201c0-0.684-0.013-1.271-0.049-1.811h0.924l0.048,1.151h0.036c0.265-0.779,0.911-1.271,1.619-1.271
		c0.108,0,0.192,0.012,0.288,0.024v0.995c-0.108-0.024-0.216-0.024-0.36-0.024c-0.742,0-1.271,0.552-1.415,1.344
		c-0.022,0.144-0.035,0.324-0.035,0.491v3.095h-1.056V232.201L159.978,232.201z"/>
	<path d="M167.918,234.804c0,0.504,0.023,0.996,0.084,1.392h-0.947l-0.084-0.731h-0.036c-0.323,0.456-0.947,0.863-1.774,0.863
		c-1.176,0-1.774-0.827-1.774-1.667c0-1.403,1.247-2.171,3.49-2.159v-0.119c0-0.468-0.132-1.344-1.319-1.332
		c-0.552,0-1.115,0.156-1.522,0.432l-0.24-0.707c0.479-0.3,1.188-0.504,1.919-0.504c1.774,0,2.207,1.211,2.207,2.362v2.17H167.918z
		 M166.898,233.233c-1.15-0.024-2.458,0.18-2.458,1.307c0,0.696,0.455,1.008,0.983,1.008c0.768,0,1.259-0.479,1.427-0.972
		c0.036-0.12,0.048-0.24,0.048-0.336V233.233L166.898,233.233z"/>
	<path d="M169.625,227.68h1.055v8.516h-1.055V227.68z"/>
	<path d="M175.036,228.231c0.636-0.107,1.392-0.18,2.219-0.18c1.5,0,2.566,0.359,3.273,1.008c0.731,0.659,1.151,1.595,1.151,2.902
		c0,1.319-0.42,2.398-1.163,3.142c-0.768,0.756-2.015,1.164-3.586,1.164c-0.756,0-1.367-0.036-1.896-0.097L175.036,228.231
		L175.036,228.231z M176.08,235.38c0.264,0.036,0.646,0.048,1.056,0.048c2.242,0,3.441-1.247,3.441-3.43
		c0.013-1.907-1.067-3.119-3.273-3.119c-0.54,0-0.948,0.049-1.224,0.108V235.38z"/>
	<path d="M183.628,233.484c0.023,1.428,0.924,2.016,1.991,2.016c0.756,0,1.224-0.132,1.606-0.3l0.191,0.755
		c-0.372,0.168-1.021,0.372-1.942,0.372c-1.787,0-2.854-1.188-2.854-2.938s1.03-3.118,2.723-3.118c1.906,0,2.398,1.655,2.398,2.723
		c0,0.216-0.013,0.372-0.036,0.491L183.628,233.484L183.628,233.484z M186.723,232.729c0.012-0.66-0.276-1.703-1.463-1.703
		c-1.08,0-1.535,0.972-1.619,1.703H186.723z"/>
	<path d="M193.19,235.991c-0.275,0.132-0.888,0.336-1.668,0.336c-1.751,0-2.89-1.188-2.89-2.962c0-1.787,1.223-3.095,3.118-3.095
		c0.623,0,1.175,0.156,1.463,0.312l-0.239,0.804c-0.252-0.132-0.647-0.275-1.224-0.275c-1.331,0-2.051,0.995-2.051,2.194
		c0,1.344,0.862,2.171,2.015,2.171c0.6,0,0.995-0.144,1.295-0.275L193.19,235.991z"/>
	<path d="M198.506,234.804c0,0.504,0.023,0.996,0.084,1.392h-0.947l-0.084-0.731h-0.036c-0.322,0.456-0.946,0.863-1.774,0.863
		c-1.175,0-1.774-0.827-1.774-1.667c0-1.403,1.247-2.171,3.49-2.159v-0.119c0-0.468-0.132-1.344-1.319-1.332
		c-0.552,0-1.115,0.156-1.522,0.432l-0.24-0.707c0.479-0.3,1.188-0.504,1.919-0.504c1.775,0,2.207,1.211,2.207,2.362v2.17H198.506z
		 M197.486,233.233c-1.15-0.024-2.458,0.18-2.458,1.307c0,0.696,0.455,1.008,0.983,1.008c0.768,0,1.259-0.479,1.427-0.972
		c0.036-0.12,0.048-0.24,0.048-0.336V233.233L197.486,233.233z"/>
	<path d="M200.5,230.391l1.259,3.43c0.144,0.384,0.288,0.84,0.384,1.188h0.024c0.106-0.348,0.228-0.791,0.371-1.211l1.15-3.406
		h1.115l-1.583,4.138c-0.755,1.991-1.271,2.998-1.99,3.634c-0.527,0.444-1.031,0.624-1.296,0.672l-0.264-0.876
		c0.264-0.084,0.611-0.252,0.924-0.516c0.288-0.228,0.636-0.636,0.888-1.175c0.049-0.108,0.084-0.192,0.084-0.252
		c0-0.061-0.023-0.145-0.084-0.276l-2.135-5.349L200.5,230.391L200.5,230.391z"/>
</g>
<g>
	<path fill="#F15B2B" stroke="#231F20" d="M177.098,191.314c4.688-1.442,8.49,1.692,8.49,5.111c0,5.734-3.802,12.309-8.49,5.109
		c-4.688,1.302-8.49-6.468-8.49-5.109C168.608,194.861,172.409,188.704,177.098,191.314z"/>
	<path fill="#F15B2B" stroke="#231F20" d="M194.865,198.584c4.688-4.138,8.49,3.094,8.49,5.109c0,3.665-3.802,3.248-8.49,5.109
		c-4.688-0.44-8.49-7.045-8.49-5.109C186.375,199.79,190.176,204.785,194.865,198.584z"/>
	<path fill="#F15B2B" stroke="#231F20" d="M175.806,205.852c4.688,3.849,8.488,7.719,8.488,5.109c0,1.049-3.8,4.851-8.488,5.11
		c-4.688,1.52-8.489,0.095-8.489-5.11C167.317,209.619,171.118,205.67,175.806,205.852z"/>
	<path fill="#F15B2B" stroke="#231F20" d="M159.816,197.129c4.688-0.339,8.489,0.742,8.489,5.11c0,1.647-3.801,5.778-8.489,5.11
		c-4.688-4.617-8.488-3.638-8.488-5.11C151.327,202.947,155.127,196.634,159.816,197.129z"/>
</g>
<g>
	<g>
		<line fill="none" stroke="#020202" x1="283.283" y1="208.803" x2="231.832" y2="208.803"/>
		<polygon fill="#020202" points="225.863,208.803 234.641,205.099 233.068,208.803 234.641,212.506 		"/>
	</g>
</g>
</svg>
