<?xml version="1.0" encoding="utf-8"?>
<!-- Generator: Adobe Illustrator 14.0.0, SVG Export Plug-In . SVG Version: 6.00 Build 43363)  -->
<!DOCTYPE svg PUBLIC "-//W3C//DTD SVG 1.1//EN" "http://www.w3.org/Graphics/SVG/1.1/DTD/svg11.dtd">
<svg version="1.1"
	 id="lemaire" xmlns:cc="http://web.resource.org/cc/" xmlns:inkscape="http://www.inkscape.org/namespaces/inkscape" xmlns:rdf="http://www.w3.org/1999/02/22-rdf-syntax-ns#" xmlns:svg="http://www.w3.org/2000/svg" xmlns:sodipodi="http://sodipodi.sourceforge.net/DTD/sodipodi-0.dtd" xmlns:dc="http://purl.org/dc/elements/1.1/" inkscape:output_extension="org.inkscape.output.svg.inkscape"
	 xmlns="http://www.w3.org/2000/svg" xmlns:xlink="http://www.w3.org/1999/xlink" x="0px" y="0px" width="531.5px" height="423.5px"
	 viewBox="-7.5 0 531.5 423.5" enable-background="new -7.5 0 531.5 423.5" xml:space="preserve">
<g id="B">
	<ellipse id="B_path1" fill="#EF4136" stroke="#000000" cx="89.805" cy="154.169" rx="53.342" ry="35.994"/>
	<g>
		<path d="M47.511,154.99l-0.805,2.711h-1.035l2.634-8.617h1.206l2.645,8.617h-1.069l-0.827-2.711H47.511z M50.052,154.121
			l-0.76-2.48c-0.172-0.563-0.287-1.074-0.401-1.572h-0.022c-0.115,0.512-0.241,1.035-0.392,1.561l-0.759,2.492L50.052,154.121
			L50.052,154.121z"/>
		<path d="M57.085,157.471c-0.264,0.153-0.851,0.37-1.598,0.37c-1.679,0-2.771-1.278-2.771-3.17c0-1.905,1.175-3.286,2.989-3.286
			c0.599,0,1.127,0.167,1.402,0.32l-0.229,0.869c-0.24-0.153-0.62-0.294-1.173-0.294c-1.275,0-1.966,1.049-1.966,2.34
			c0,1.432,0.828,2.314,1.932,2.314c0.574,0,0.954-0.167,1.242-0.308L57.085,157.471z"/>
		<path d="M59.635,150.03v1.483h1.448v0.856h-1.448v3.337c0,0.768,0.194,1.202,0.759,1.202c0.274,0,0.438-0.025,0.586-0.077
			l0.046,0.844c-0.195,0.089-0.506,0.166-0.896,0.166c-0.472,0-0.851-0.179-1.093-0.485c-0.288-0.333-0.391-0.882-0.391-1.61v-3.376
			h-0.863v-0.856h0.863v-1.138L59.635,150.03z"/>
		<path d="M63.346,149.775c0.012,0.383-0.241,0.689-0.645,0.689c-0.355,0-0.609-0.307-0.609-0.689c0-0.396,0.266-0.704,0.634-0.704
			C63.104,149.071,63.346,149.378,63.346,149.775z M62.219,157.701v-6.188h1.012v6.188H62.219z"/>
		<path d="M65.3,151.513l1.093,3.478c0.185,0.563,0.334,1.074,0.447,1.586h0.034c0.127-0.512,0.288-1.023,0.473-1.586l1.08-3.478
			h1.059l-2.186,6.188h-0.966l-2.116-6.188H65.3z"/>
		<path d="M70.884,154.811c0.023,1.522,0.897,2.148,1.909,2.148c0.725,0,1.161-0.141,1.54-0.319l0.173,0.805
			c-0.356,0.179-0.966,0.396-1.852,0.396c-1.713,0-2.735-1.265-2.735-3.131c0-1.867,0.988-3.337,2.609-3.337
			c1.816,0,2.299,1.776,2.299,2.915c0,0.23-0.021,0.409-0.034,0.523H70.884L70.884,154.811z M73.85,154.006
			c0.012-0.716-0.266-1.828-1.403-1.828c-1.022,0-1.472,1.049-1.552,1.828H73.85z"/>
		<path d="M83.55,154.556c0,2.288-1.426,3.285-2.771,3.285c-1.506,0-2.667-1.227-2.667-3.184c0-2.07,1.219-3.285,2.76-3.285
			C82.469,151.372,83.55,152.663,83.55,154.556z M79.135,154.619c0,1.355,0.701,2.378,1.69,2.378c0.966,0,1.69-1.011,1.69-2.404
			c0-1.049-0.472-2.377-1.667-2.377S79.135,153.444,79.135,154.619z"/>
		<path d="M84.685,156.55c0.299,0.218,0.828,0.447,1.333,0.447c0.734,0,1.08-0.409,1.08-0.921c0-0.537-0.288-0.831-1.034-1.138
			c-1.001-0.397-1.473-1.011-1.473-1.752c0-0.997,0.725-1.815,1.921-1.815c0.562,0,1.058,0.179,1.367,0.384l-0.253,0.818
			c-0.22-0.153-0.621-0.358-1.139-0.358c-0.598,0-0.931,0.384-0.931,0.844c0,0.511,0.333,0.741,1.058,1.048
			c0.966,0.409,1.461,0.946,1.461,1.866c0,1.087-0.76,1.867-2.081,1.867c-0.608,0-1.173-0.179-1.562-0.435L84.685,156.55z"/>
		<path d="M90.593,150.03v1.483h1.448v0.856h-1.448v3.337c0,0.768,0.195,1.202,0.76,1.202c0.274,0,0.437-0.025,0.586-0.077
			l0.046,0.844c-0.196,0.089-0.506,0.166-0.897,0.166c-0.471,0-0.851-0.179-1.093-0.485c-0.287-0.333-0.391-0.882-0.391-1.61v-3.376
			H88.74v-0.856h0.862v-1.138L90.593,150.03z"/>
		<path d="M93.672,154.811c0.023,1.522,0.897,2.148,1.909,2.148c0.725,0,1.161-0.141,1.54-0.319l0.172,0.805
			c-0.355,0.179-0.966,0.396-1.851,0.396c-1.713,0-2.736-1.265-2.736-3.131c0-1.867,0.989-3.337,2.609-3.337
			c1.816,0,2.3,1.776,2.3,2.915c0,0.23-0.022,0.409-0.034,0.523H93.672L93.672,154.811z M96.637,154.006
			c0.011-0.716-0.266-1.828-1.403-1.828c-1.022,0-1.472,1.049-1.552,1.828H96.637z"/>
		<path d="M103.901,154.556c0,2.288-1.426,3.285-2.771,3.285c-1.506,0-2.667-1.227-2.667-3.184c0-2.07,1.22-3.285,2.761-3.285
			C102.82,151.372,103.901,152.663,103.901,154.556z M99.486,154.619c0,1.355,0.701,2.378,1.689,2.378
			c0.967,0,1.69-1.011,1.69-2.404c0-1.049-0.472-2.377-1.667-2.377S99.486,153.444,99.486,154.619z"/>
		<path d="M105.174,148.623h1.001v3.887h0.022c0.356-0.69,1-1.138,1.897-1.138c1.38,0,2.355,1.278,2.346,3.158
			c0,2.211-1.254,3.311-2.495,3.311c-0.805,0-1.448-0.345-1.862-1.163h-0.035l-0.046,1.023h-0.873
			c0.023-0.423,0.046-1.049,0.046-1.598L105.174,148.623L105.174,148.623z M106.175,155.22c0,0.141,0.022,0.281,0.047,0.409
			c0.193,0.78,0.781,1.317,1.518,1.317c1.058,0,1.689-0.96,1.689-2.379c0-1.24-0.575-2.301-1.655-2.301
			c-0.689,0-1.333,0.523-1.541,1.38c-0.022,0.128-0.058,0.281-0.058,0.461V155.22z"/>
		<path d="M111.713,148.623h1.013v9.077h-1.013V148.623z"/>
		<path d="M118.333,156.217c0,0.537,0.023,1.062,0.092,1.483h-0.92l-0.08-0.779h-0.033c-0.312,0.484-0.908,0.92-1.701,0.92
			c-1.127,0-1.702-0.882-1.702-1.776c0-1.496,1.195-2.314,3.346-2.301v-0.128c0-0.512-0.126-1.433-1.264-1.433
			c-0.518,0-1.058,0.179-1.449,0.461l-0.229-0.742c0.46-0.332,1.128-0.549,1.828-0.549c1.7,0,2.114,1.291,2.114,2.531
			L118.333,156.217L118.333,156.217z M117.356,154.542c-1.104-0.025-2.357,0.192-2.357,1.394c0,0.729,0.438,1.074,0.954,1.074
			c0.726,0,1.185-0.512,1.346-1.035c0.034-0.115,0.059-0.243,0.059-0.358L117.356,154.542L117.356,154.542z"/>
		<path d="M119.826,156.55c0.299,0.218,0.828,0.447,1.333,0.447c0.735,0,1.081-0.409,1.081-0.921c0-0.537-0.288-0.831-1.035-1.138
			c-1-0.397-1.472-1.011-1.472-1.752c0-0.997,0.724-1.815,1.92-1.815c0.562,0,1.058,0.179,1.368,0.384l-0.253,0.818
			c-0.22-0.153-0.62-0.358-1.139-0.358c-0.598,0-0.932,0.384-0.932,0.844c0,0.511,0.334,0.741,1.059,1.048
			c0.967,0.409,1.46,0.946,1.46,1.866c0,1.087-0.759,1.867-2.08,1.867c-0.608,0-1.174-0.179-1.563-0.435L119.826,156.55z"/>
		<path d="M125.733,150.03v1.483h1.448v0.856h-1.448v3.337c0,0.768,0.193,1.202,0.758,1.202c0.275,0,0.438-0.025,0.586-0.077
			l0.046,0.844c-0.194,0.089-0.506,0.166-0.896,0.166c-0.473,0-0.852-0.179-1.094-0.485c-0.287-0.333-0.391-0.882-0.391-1.61v-3.376
			h-0.863v-0.856h0.863v-1.138L125.733,150.03z"/>
		<path d="M128.18,156.55c0.299,0.218,0.826,0.447,1.333,0.447c0.734,0,1.079-0.409,1.079-0.921c0-0.537-0.287-0.831-1.033-1.138
			c-1.001-0.397-1.473-1.011-1.473-1.752c0-0.997,0.725-1.815,1.92-1.815c0.563,0,1.059,0.179,1.368,0.384l-0.253,0.818
			c-0.22-0.153-0.621-0.358-1.139-0.358c-0.599,0-0.932,0.384-0.932,0.844c0,0.511,0.333,0.741,1.059,1.048
			c0.966,0.409,1.461,0.946,1.461,1.866c0,1.087-0.76,1.867-2.081,1.867c-0.609,0-1.173-0.179-1.563-0.435L128.18,156.55z"/>
	</g>
</g>
<g id="C">
	<ellipse id="C_path1" fill="#EF4136" stroke="#000000" cx="405.366" cy="260.294" rx="53.341" ry="35.992"/>
	<g>
		<path d="M364.988,260.052l-0.806,2.712h-1.033l2.632-8.617h1.208l2.645,8.617h-1.068l-0.828-2.712H364.988z M367.529,259.184
			l-0.76-2.479c-0.172-0.563-0.287-1.075-0.4-1.572h-0.023c-0.114,0.511-0.242,1.035-0.391,1.56l-0.76,2.494h2.334V259.184z"/>
		<path d="M374.562,262.533c-0.266,0.152-0.852,0.369-1.6,0.369c-1.678,0-2.77-1.277-2.77-3.17c0-1.904,1.172-3.287,2.988-3.287
			c0.599,0,1.126,0.168,1.402,0.32l-0.229,0.87c-0.242-0.153-0.622-0.294-1.174-0.294c-1.276,0-1.966,1.049-1.966,2.34
			c0,1.433,0.828,2.313,1.932,2.313c0.574,0,0.954-0.167,1.241-0.308L374.562,262.533z"/>
		<path d="M377.111,255.092v1.482h1.449v0.857h-1.449v3.336c0,0.768,0.194,1.201,0.76,1.201c0.276,0,0.437-0.025,0.586-0.076
			l0.047,0.844c-0.195,0.089-0.506,0.166-0.896,0.166c-0.473,0-0.853-0.18-1.094-0.485c-0.288-0.332-0.392-0.883-0.392-1.61v-3.375
			h-0.862v-0.857h0.862v-1.139L377.111,255.092z"/>
		<path d="M380.824,254.836c0.012,0.384-0.241,0.689-0.645,0.689c-0.355,0-0.608-0.307-0.608-0.689c0-0.396,0.265-0.703,0.632-0.703
			C380.583,254.133,380.824,254.439,380.824,254.836z M379.697,262.764v-6.188h1.012v6.188H379.697z"/>
		<path d="M382.775,256.574l1.094,3.478c0.184,0.563,0.332,1.074,0.448,1.587h0.033c0.126-0.513,0.288-1.023,0.472-1.587l1.08-3.478
			h1.058l-2.184,6.188h-0.967l-2.114-6.188H382.775z"/>
		<path d="M388.362,259.873c0.021,1.521,0.896,2.146,1.906,2.146c0.726,0,1.162-0.141,1.542-0.318l0.173,0.805
			c-0.356,0.18-0.967,0.396-1.852,0.396c-1.713,0-2.735-1.267-2.735-3.133c0-1.865,0.987-3.336,2.608-3.336
			c1.816,0,2.3,1.776,2.3,2.914c0,0.23-0.021,0.409-0.033,0.525H388.362z M391.328,259.068c0.012-0.717-0.266-1.827-1.402-1.827
			c-1.022,0-1.472,1.048-1.553,1.827H391.328z"/>
		<path d="M401.027,259.617c0,2.288-1.427,3.285-2.771,3.285c-1.506,0-2.667-1.228-2.667-3.184c0-2.07,1.219-3.285,2.759-3.285
			C399.946,256.434,401.027,257.725,401.027,259.617z M396.612,259.682c0,1.354,0.7,2.377,1.688,2.377c0.967,0,1.69-1.01,1.69-2.402
			c0-1.049-0.472-2.379-1.666-2.379C397.129,257.277,396.612,258.505,396.612,259.682z"/>
		<path d="M402.162,261.613c0.299,0.217,0.828,0.447,1.334,0.447c0.735,0,1.08-0.41,1.08-0.92c0-0.537-0.288-0.832-1.035-1.14
			c-1-0.396-1.471-1.01-1.471-1.752c0-0.997,0.725-1.815,1.92-1.815c0.562,0,1.057,0.18,1.368,0.385l-0.255,0.817
			c-0.219-0.153-0.619-0.358-1.139-0.358c-0.598,0-0.931,0.385-0.931,0.845c0,0.511,0.333,0.741,1.057,1.048
			c0.967,0.409,1.461,0.945,1.461,1.866c0,1.087-0.76,1.866-2.081,1.866c-0.608,0-1.173-0.18-1.562-0.435L402.162,261.613z"/>
		<path d="M408.069,255.092v1.482h1.448v0.857h-1.448v3.336c0,0.768,0.194,1.201,0.759,1.201c0.275,0,0.438-0.025,0.586-0.076
			l0.047,0.844c-0.195,0.089-0.506,0.166-0.896,0.166c-0.473,0-0.853-0.18-1.093-0.485c-0.288-0.332-0.393-0.883-0.393-1.61v-3.375
			h-0.862v-0.857h0.862v-1.139L408.069,255.092z"/>
		<path d="M411.149,259.873c0.021,1.521,0.896,2.146,1.906,2.146c0.726,0,1.162-0.141,1.542-0.318l0.172,0.805
			c-0.355,0.18-0.966,0.396-1.852,0.396c-1.712,0-2.735-1.267-2.735-3.133c0-1.865,0.988-3.336,2.609-3.336
			c1.816,0,2.3,1.776,2.3,2.914c0,0.23-0.022,0.409-0.034,0.525H411.149z M414.115,259.068c0.012-0.717-0.266-1.827-1.402-1.827
			c-1.022,0-1.472,1.048-1.553,1.827H414.115z"/>
		<path d="M421.378,259.617c0,2.288-1.425,3.285-2.771,3.285c-1.507,0-2.667-1.228-2.667-3.184c0-2.07,1.218-3.285,2.759-3.285
			C420.298,256.434,421.378,257.725,421.378,259.617z M416.965,259.682c0,1.354,0.7,2.377,1.689,2.377
			c0.967,0,1.689-1.01,1.689-2.402c0-1.049-0.471-2.379-1.667-2.379S416.965,258.505,416.965,259.682z"/>
		<path d="M426.617,262.533c-0.265,0.152-0.851,0.369-1.599,0.369c-1.678,0-2.77-1.277-2.77-3.17c0-1.904,1.172-3.287,2.988-3.287
			c0.598,0,1.127,0.168,1.402,0.32l-0.229,0.87c-0.242-0.153-0.621-0.294-1.174-0.294c-1.275,0-1.965,1.049-1.965,2.34
			c0,1.433,0.827,2.313,1.931,2.313c0.575,0,0.954-0.167,1.242-0.308L426.617,262.533z"/>
		<path d="M427.799,253.686h1.012v9.078h-1.012V253.686z"/>
		<path d="M434.421,261.28c0,0.536,0.022,1.061,0.092,1.483h-0.919l-0.081-0.781h-0.034c-0.311,0.486-0.907,0.922-1.7,0.922
			c-1.127,0-1.701-0.883-1.701-1.777c0-1.495,1.195-2.312,3.345-2.301v-0.128c0-0.513-0.126-1.433-1.265-1.433
			c-0.519,0-1.058,0.18-1.449,0.461l-0.229-0.742c0.462-0.332,1.127-0.549,1.827-0.549c1.701,0,2.115,1.291,2.115,2.53V261.28
			L434.421,261.28z M433.443,259.605c-1.104-0.025-2.356,0.19-2.356,1.393c0,0.73,0.438,1.075,0.954,1.075
			c0.725,0,1.184-0.513,1.346-1.036c0.034-0.116,0.058-0.243,0.058-0.357L433.443,259.605L433.443,259.605z"/>
		<path d="M435.913,261.613c0.298,0.217,0.828,0.447,1.334,0.447c0.735,0,1.079-0.41,1.079-0.92c0-0.537-0.287-0.832-1.034-1.14
			c-1-0.396-1.472-1.01-1.472-1.752c0-0.997,0.725-1.815,1.92-1.815c0.563,0,1.058,0.18,1.368,0.385l-0.253,0.817
			c-0.22-0.153-0.621-0.358-1.14-0.358c-0.598,0-0.932,0.385-0.932,0.845c0,0.511,0.334,0.741,1.058,1.048
			c0.966,0.409,1.46,0.945,1.46,1.866c0,1.087-0.759,1.866-2.08,1.866c-0.608,0-1.174-0.18-1.562-0.435L435.913,261.613z"/>
		<path d="M441.82,255.092v1.482h1.448v0.857h-1.448v3.336c0,0.768,0.193,1.201,0.759,1.201c0.276,0,0.437-0.025,0.586-0.076
			l0.047,0.844c-0.195,0.089-0.506,0.166-0.896,0.166c-0.473,0-0.853-0.18-1.094-0.485c-0.287-0.332-0.392-0.883-0.392-1.61v-3.375
			h-0.862v-0.857h0.862v-1.139L441.82,255.092z"/>
		<path d="M444.266,261.613c0.299,0.217,0.827,0.447,1.333,0.447c0.735,0,1.08-0.41,1.08-0.92c0-0.537-0.288-0.832-1.033-1.14
			c-1.002-0.396-1.474-1.01-1.474-1.752c0-0.997,0.727-1.815,1.921-1.815c0.563,0,1.059,0.18,1.368,0.385l-0.254,0.817
			c-0.219-0.153-0.62-0.358-1.139-0.358c-0.599,0-0.932,0.385-0.932,0.845c0,0.511,0.333,0.741,1.059,1.048
			c0.965,0.409,1.46,0.945,1.46,1.866c0,1.087-0.759,1.866-2.081,1.866c-0.609,0-1.173-0.18-1.563-0.435L444.266,261.613z"/>
	</g>
</g>
<g id="R">
	<path id="R_path1" fill="#EF4136" stroke="#000000" d="M143.852,262.198c0,19.878-23.881,35.995-53.341,35.995
		S37.17,282.076,37.17,262.198s23.882-35.99,53.342-35.99S143.852,242.322,143.852,262.198z"/>
	<g>
		<path d="M60.373,250.837c0.506-0.116,1.229-0.18,1.92-0.18c1.069,0,1.761,0.218,2.241,0.702c0.392,0.385,0.609,0.973,0.609,1.637
			c0,1.139-0.645,1.893-1.46,2.199v0.039c0.598,0.229,0.954,0.843,1.138,1.738c0.254,1.201,0.438,2.031,0.598,2.364h-1.034
			c-0.126-0.256-0.299-0.983-0.518-2.06c-0.229-1.188-0.644-1.635-1.552-1.674h-0.942v3.732h-1.001L60.373,250.837L60.373,250.837z
			 M61.373,254.761h1.023c1.068,0,1.747-0.651,1.747-1.636c0-1.111-0.725-1.6-1.781-1.611c-0.483,0-0.828,0.053-0.989,0.104V254.761
			z"/>
		<path d="M67.13,256.449c0.023,1.521,0.897,2.146,1.909,2.146c0.725,0,1.161-0.141,1.54-0.318l0.172,0.805
			c-0.355,0.179-0.965,0.396-1.851,0.396c-1.713,0-2.736-1.267-2.736-3.134c0-1.866,0.989-3.337,2.61-3.337
			c1.815,0,2.299,1.777,2.299,2.915c0,0.229-0.022,0.409-0.034,0.525L67.13,256.449L67.13,256.449z M70.096,255.645
			c0.011-0.717-0.266-1.83-1.403-1.83c-1.022,0-1.472,1.05-1.552,1.83H70.096z"/>
		<path d="M72.186,258.188c0.299,0.219,0.827,0.448,1.333,0.448c0.734,0,1.08-0.409,1.08-0.921c0-0.537-0.288-0.831-1.034-1.138
			c-1.001-0.396-1.473-1.011-1.473-1.752c0-0.998,0.725-1.816,1.921-1.816c0.562,0,1.058,0.181,1.367,0.386l-0.253,0.817
			c-0.22-0.153-0.621-0.358-1.139-0.358c-0.598,0-0.931,0.383-0.931,0.844c0,0.512,0.333,0.742,1.058,1.049
			c0.966,0.409,1.461,0.945,1.461,1.865c0,1.088-0.76,1.867-2.081,1.867c-0.608,0-1.173-0.181-1.562-0.436L72.186,258.188z"/>
		<path d="M76.875,255.17c0-0.793-0.022-1.432-0.046-2.02h0.907l0.046,1.062h0.023c0.412-0.755,1.067-1.203,1.977-1.203
			c1.346,0,2.357,1.267,2.357,3.146c0,2.225-1.22,3.325-2.529,3.325c-0.735,0-1.38-0.358-1.713-0.974h-0.023v3.363h-1L76.875,255.17
			L76.875,255.17z M77.875,256.82c0,0.166,0.022,0.32,0.046,0.461c0.185,0.779,0.793,1.316,1.519,1.316
			c1.068,0,1.688-0.973,1.688-2.392c0-1.24-0.586-2.302-1.654-2.302c-0.689,0-1.333,0.55-1.529,1.394
			c-0.034,0.142-0.068,0.308-0.068,0.461L77.875,256.82L77.875,256.82z"/>
		<path d="M88.448,256.193c0,2.289-1.426,3.287-2.771,3.287c-1.506,0-2.667-1.229-2.667-3.186c0-2.07,1.221-3.286,2.761-3.286
			C87.367,253.009,88.448,254.301,88.448,256.193z M84.033,256.257c0,1.354,0.701,2.378,1.69,2.378c0.966,0,1.689-1.01,1.689-2.404
			c0-1.047-0.471-2.377-1.667-2.377C84.552,253.854,84.033,255.081,84.033,256.257z"/>
		<path d="M89.721,254.825c0-0.64-0.013-1.164-0.047-1.675h0.896l0.058,1.021h0.022c0.274-0.588,0.92-1.164,1.84-1.164
			c0.771,0,1.966,0.512,1.966,2.635v3.694h-1.012v-3.567c0-0.996-0.333-1.828-1.287-1.828c-0.666,0-1.184,0.525-1.356,1.15
			c-0.046,0.143-0.068,0.333-0.068,0.525v3.72h-1.011L89.721,254.825L89.721,254.825z"/>
		<path d="M100.905,250.261v7.479c0,0.55,0.012,1.177,0.046,1.598h-0.908l-0.046-1.074h-0.021c-0.312,0.69-0.989,1.215-1.897,1.215
			c-1.346,0-2.38-1.266-2.38-3.146c-0.012-2.06,1.138-3.325,2.494-3.325c0.852,0,1.426,0.448,1.679,0.946h0.022v-3.694
			L100.905,250.261L100.905,250.261z M99.893,255.669c0-0.142-0.013-0.332-0.046-0.474c-0.149-0.715-0.701-1.305-1.46-1.305
			c-1.047,0-1.667,1.023-1.667,2.392c0,1.253,0.552,2.289,1.644,2.289c0.678,0,1.298-0.498,1.482-1.343
			c0.034-0.153,0.046-0.308,0.046-0.486L99.893,255.669L99.893,255.669z"/>
		<path d="M103.708,251.411c0.012,0.384-0.241,0.69-0.644,0.69c-0.357,0-0.609-0.308-0.609-0.69c0-0.396,0.265-0.702,0.632-0.702
			C103.467,250.709,103.708,251.016,103.708,251.411z M102.581,259.338v-6.188h1.012v6.188H102.581z"/>
		<path d="M105.269,254.825c0-0.64-0.013-1.164-0.046-1.675h0.896l0.058,1.021h0.023c0.275-0.588,0.919-1.164,1.839-1.164
			c0.771,0,1.967,0.512,1.967,2.635v3.694h-1.012v-3.567c0-0.996-0.334-1.828-1.287-1.828c-0.667,0-1.185,0.525-1.356,1.15
			c-0.046,0.143-0.068,0.333-0.068,0.525v3.72h-1.012L105.269,254.825L105.269,254.825z"/>
		<path d="M116.395,258.443c0,1.42-0.253,2.289-0.793,2.824c-0.54,0.563-1.322,0.741-2.023,0.741c-0.666,0-1.4-0.179-1.851-0.511
			l0.253-0.855c0.368,0.256,0.941,0.485,1.632,0.485c1.035,0,1.794-0.603,1.794-2.161v-0.689h-0.022
			c-0.311,0.574-0.908,1.035-1.771,1.035c-1.38,0-2.368-1.305-2.368-3.019c0-2.096,1.229-3.286,2.506-3.286
			c0.966,0,1.495,0.563,1.736,1.075h0.022l0.047-0.935h0.886c-0.023,0.447-0.046,0.946-0.046,1.701L116.395,258.443L116.395,258.443
			z M115.395,255.593c0-0.19-0.013-0.358-0.059-0.512c-0.184-0.651-0.678-1.188-1.414-1.188c-0.966,0-1.655,0.907-1.655,2.34
			c0,1.215,0.552,2.225,1.644,2.225c0.621,0,1.185-0.436,1.402-1.15c0.058-0.19,0.081-0.408,0.081-0.601L115.395,255.593
			L115.395,255.593z"/>
		<path d="M65.374,271.54c0,2.288-1.426,3.286-2.771,3.286c-1.506,0-2.666-1.229-2.666-3.186c0-2.069,1.219-3.285,2.759-3.285
			C64.294,268.357,65.374,269.648,65.374,271.54z M60.959,271.605c0,1.354,0.701,2.377,1.69,2.377c0.966,0,1.69-1.01,1.69-2.403
			c0-1.049-0.472-2.378-1.668-2.378C61.476,269.201,60.959,270.428,60.959,271.605z"/>
		<path d="M66.51,273.535c0.3,0.217,0.828,0.447,1.333,0.447c0.735,0,1.08-0.409,1.08-0.922c0-0.535-0.286-0.83-1.033-1.138
			c-1-0.396-1.473-1.01-1.473-1.752c0-0.997,0.725-1.815,1.92-1.815c0.563,0,1.059,0.181,1.368,0.385l-0.253,0.818
			c-0.219-0.154-0.621-0.358-1.138-0.358c-0.599,0-0.933,0.383-0.933,0.843c0,0.512,0.334,0.742,1.06,1.049
			c0.966,0.409,1.46,0.945,1.46,1.866c0,1.087-0.76,1.866-2.081,1.866c-0.609,0-1.173-0.18-1.563-0.436L66.51,273.535z"/>
		<path d="M72.417,267.014v1.483h1.449v0.856h-1.449v3.336c0,0.769,0.195,1.203,0.759,1.203c0.275,0,0.438-0.025,0.587-0.078
			l0.046,0.845c-0.196,0.089-0.507,0.166-0.896,0.166c-0.472,0-0.852-0.181-1.093-0.486c-0.288-0.332-0.393-0.882-0.393-1.61v-3.375
			h-0.861v-0.856h0.861v-1.138L72.417,267.014z"/>
		<path d="M75.496,271.795c0.022,1.521,0.896,2.148,1.908,2.148c0.724,0,1.162-0.142,1.54-0.319l0.173,0.806
			c-0.355,0.178-0.966,0.396-1.852,0.396c-1.714,0-2.735-1.267-2.735-3.132c0-1.866,0.988-3.338,2.609-3.338
			c1.815,0,2.3,1.777,2.3,2.916c0,0.229-0.023,0.408-0.035,0.523H75.496z M78.462,270.99c0.013-0.717-0.264-1.827-1.401-1.827
			c-1.023,0-1.473,1.048-1.554,1.827H78.462z"/>
		<path d="M85.724,271.54c0,2.288-1.427,3.286-2.771,3.286c-1.506,0-2.666-1.229-2.666-3.186c0-2.069,1.218-3.285,2.759-3.285
			C84.644,268.357,85.724,269.648,85.724,271.54z M81.31,271.605c0,1.354,0.701,2.377,1.689,2.377c0.966,0,1.69-1.01,1.69-2.403
			c0-1.049-0.471-2.378-1.667-2.378S81.31,270.428,81.31,271.605z"/>
		<path d="M86.999,265.609h1v3.887h0.022c0.356-0.691,1.001-1.139,1.896-1.139c1.38,0,2.357,1.277,2.347,3.158
			c0,2.211-1.255,3.312-2.495,3.312c-0.806,0-1.448-0.347-1.862-1.164h-0.034l-0.046,1.022h-0.873
			c0.022-0.422,0.046-1.047,0.046-1.599L86.999,265.609L86.999,265.609z M87.999,272.204c0,0.142,0.022,0.28,0.046,0.409
			c0.195,0.779,0.782,1.316,1.519,1.316c1.058,0,1.688-0.96,1.688-2.378c0-1.239-0.573-2.302-1.654-2.302
			c-0.689,0-1.333,0.523-1.54,1.381c-0.023,0.128-0.059,0.281-0.059,0.461V272.204z"/>
		<path d="M93.537,265.609h1.012v9.076h-1.012V265.609z"/>
		<path d="M100.158,273.202c0,0.536,0.022,1.062,0.092,1.483h-0.92l-0.081-0.78h-0.034c-0.311,0.485-0.907,0.921-1.7,0.921
			c-1.127,0-1.702-0.883-1.702-1.777c0-1.495,1.194-2.312,3.346-2.301v-0.128c0-0.513-0.126-1.433-1.264-1.433
			c-0.519,0-1.059,0.18-1.449,0.461l-0.229-0.741c0.46-0.332,1.127-0.55,1.828-0.55c1.701,0,2.115,1.291,2.115,2.531
			L100.158,273.202L100.158,273.202z M99.181,271.527c-1.104-0.024-2.357,0.191-2.357,1.394c0,0.729,0.438,1.075,0.954,1.075
			c0.725,0,1.185-0.512,1.346-1.036c0.034-0.116,0.059-0.243,0.059-0.358L99.181,271.527L99.181,271.527z"/>
		<path d="M101.649,273.535c0.3,0.217,0.828,0.447,1.333,0.447c0.735,0,1.081-0.409,1.081-0.922c0-0.535-0.288-0.83-1.035-1.138
			c-1-0.396-1.471-1.01-1.471-1.752c0-0.997,0.724-1.815,1.92-1.815c0.562,0,1.058,0.181,1.368,0.385l-0.255,0.818
			c-0.219-0.154-0.619-0.358-1.138-0.358c-0.598,0-0.931,0.383-0.931,0.843c0,0.512,0.333,0.742,1.058,1.049
			c0.966,0.409,1.46,0.945,1.46,1.866c0,1.087-0.759,1.866-2.08,1.866c-0.608,0-1.174-0.18-1.562-0.436L101.649,273.535z"/>
		<path d="M107.557,267.014v1.483h1.447v0.856h-1.447v3.336c0,0.769,0.194,1.203,0.758,1.203c0.275,0,0.438-0.025,0.587-0.078
			l0.046,0.845c-0.196,0.089-0.506,0.166-0.897,0.166c-0.471,0-0.851-0.181-1.093-0.486c-0.287-0.332-0.391-0.882-0.391-1.61v-3.375
			h-0.862v-0.856h0.862v-1.138L107.557,267.014z"/>
		<path d="M110.005,273.535c0.3,0.217,0.828,0.447,1.333,0.447c0.735,0,1.08-0.409,1.08-0.922c0-0.535-0.287-0.83-1.034-1.138
			c-1-0.396-1.472-1.01-1.472-1.752c0-0.997,0.725-1.815,1.92-1.815c0.563,0,1.059,0.181,1.368,0.385l-0.253,0.818
			c-0.219-0.154-0.621-0.358-1.138-0.358c-0.599,0-0.933,0.383-0.933,0.843c0,0.512,0.334,0.742,1.06,1.049
			c0.966,0.409,1.46,0.945,1.46,1.866c0,1.087-0.76,1.866-2.081,1.866c-0.609,0-1.173-0.18-1.563-0.436L110.005,273.535z"/>
	</g>
</g>
<g>
	<path fill="#58B7DD" stroke="#000000" d="M463.26,352.864c0,7.062-5.464,12.791-12.205,12.791h-95.609
		c-6.74,0-12.203-5.728-12.203-12.791v-12.075c0-7.062,5.463-12.789,12.203-12.789h95.61c6.74,0,12.205,5.727,12.205,12.789
		L463.26,352.864L463.26,352.864z"/>
	<g>
		<path d="M353.988,347.314l-0.805,2.711h-1.034l2.633-8.617h1.208l2.645,8.617h-1.069l-0.828-2.711H353.988z M356.53,346.445
			l-0.761-2.48c-0.172-0.562-0.286-1.074-0.4-1.572h-0.023c-0.114,0.512-0.24,1.035-0.391,1.561l-0.759,2.492H356.53L356.53,346.445
			z"/>
		<path d="M359.699,345.855c0-0.793-0.021-1.432-0.046-2.021h0.906l0.048,1.062h0.021c0.414-0.754,1.069-1.201,1.979-1.201
			c1.346,0,2.356,1.266,2.356,3.146c0,2.226-1.219,3.324-2.529,3.324c-0.735,0-1.38-0.358-1.714-0.972h-0.021v3.361h-1V345.855
			L359.699,345.855z M360.7,347.505c0,0.166,0.021,0.319,0.046,0.461c0.185,0.779,0.794,1.316,1.518,1.316
			c1.07,0,1.69-0.974,1.69-2.392c0-1.24-0.586-2.302-1.655-2.302c-0.688,0-1.334,0.55-1.527,1.394
			c-0.034,0.142-0.069,0.308-0.069,0.461L360.7,347.505L360.7,347.505z"/>
		<path d="M371.273,346.878c0,2.288-1.427,3.286-2.771,3.286c-1.506,0-2.667-1.229-2.667-3.184c0-2.07,1.219-3.287,2.759-3.287
			C370.193,343.695,371.273,344.986,371.273,346.878z M366.859,346.943c0,1.354,0.7,2.377,1.688,2.377c0.967,0,1.69-1.01,1.69-2.402
			c0-1.049-0.472-2.379-1.667-2.379C367.375,344.539,366.859,345.766,366.859,346.943z"/>
		<path d="M372.547,345.855c0-0.793-0.021-1.432-0.046-2.021h0.907l0.047,1.062h0.021c0.414-0.754,1.069-1.201,1.979-1.201
			c1.346,0,2.355,1.266,2.355,3.146c0,2.226-1.218,3.324-2.527,3.324c-0.736,0-1.381-0.358-1.714-0.972h-0.022v3.361h-1.001
			L372.547,345.855L372.547,345.855z M373.547,347.505c0,0.166,0.023,0.319,0.047,0.461c0.186,0.779,0.794,1.316,1.519,1.316
			c1.069,0,1.689-0.974,1.689-2.392c0-1.24-0.586-2.302-1.655-2.302c-0.689,0-1.334,0.55-1.528,1.394
			c-0.034,0.142-0.069,0.308-0.069,0.461L373.547,347.505L373.547,347.505z"/>
		<path d="M380.303,342.354v1.482h1.449v0.855h-1.449v3.338c0,0.768,0.194,1.201,0.759,1.201c0.276,0,0.438-0.024,0.587-0.076
			l0.047,0.844c-0.195,0.089-0.506,0.166-0.897,0.166c-0.471,0-0.851-0.18-1.092-0.486c-0.287-0.332-0.392-0.882-0.392-1.609v-3.377
			h-0.862v-0.855h0.862v-1.138L380.303,342.354z"/>
		<path d="M387.856,346.878c0,2.288-1.427,3.286-2.771,3.286c-1.507,0-2.668-1.229-2.668-3.184c0-2.07,1.219-3.287,2.76-3.287
			C386.775,343.695,387.856,344.986,387.856,346.878z M383.441,346.943c0,1.354,0.7,2.377,1.688,2.377
			c0.967,0,1.691-1.01,1.691-2.402c0-1.049-0.472-2.379-1.667-2.379C383.958,344.539,383.441,345.766,383.441,346.943z"/>
		<path d="M390.346,342.354v1.482h1.449v0.855h-1.449v3.338c0,0.768,0.195,1.201,0.761,1.201c0.274,0,0.437-0.024,0.586-0.076
			l0.047,0.844c-0.195,0.089-0.506,0.166-0.897,0.166c-0.472,0-0.851-0.18-1.092-0.486c-0.288-0.332-0.392-0.882-0.392-1.609v-3.377
			h-0.863v-0.855h0.863v-1.138L390.346,342.354z"/>
		<path d="M394.057,342.098c0.014,0.383-0.239,0.689-0.643,0.689c-0.357,0-0.609-0.309-0.609-0.689c0-0.396,0.266-0.703,0.632-0.703
			C393.818,341.395,394.057,341.7,394.057,342.098z M392.931,350.023v-6.188h1.013v6.188H392.931z"/>
		<path d="M399.587,349.794c-0.264,0.153-0.85,0.37-1.598,0.37c-1.679,0-2.771-1.278-2.771-3.171c0-1.904,1.173-3.286,2.989-3.286
			c0.598,0,1.127,0.167,1.403,0.32l-0.229,0.869c-0.242-0.153-0.622-0.293-1.174-0.293c-1.276,0-1.965,1.049-1.965,2.34
			c0,1.432,0.828,2.312,1.931,2.312c0.574,0,0.954-0.167,1.242-0.307L399.587,349.794z"/>
		<path d="M408.242,346.878c0,2.288-1.426,3.286-2.771,3.286c-1.506,0-2.666-1.229-2.666-3.184c0-2.07,1.219-3.287,2.759-3.287
			C407.162,343.695,408.242,344.986,408.242,346.878z M403.827,346.943c0,1.354,0.701,2.377,1.689,2.377
			c0.967,0,1.689-1.01,1.689-2.402c0-1.049-0.47-2.379-1.666-2.379S403.827,345.766,403.827,346.943z"/>
		<path d="M409.378,348.873c0.298,0.217,0.828,0.447,1.333,0.447c0.736,0,1.08-0.409,1.08-0.92c0-0.537-0.287-0.832-1.034-1.14
			c-1.001-0.396-1.472-1.01-1.472-1.752c0-0.997,0.725-1.815,1.92-1.815c0.563,0,1.058,0.181,1.368,0.386l-0.253,0.817
			c-0.22-0.153-0.621-0.358-1.14-0.358c-0.598,0-0.932,0.384-0.932,0.843c0,0.512,0.334,0.742,1.058,1.049
			c0.967,0.409,1.46,0.945,1.46,1.866c0,1.087-0.759,1.866-2.079,1.866c-0.609,0-1.175-0.18-1.564-0.434L409.378,348.873z"/>
		<path d="M415.283,342.354v1.482h1.45v0.855h-1.45v3.338c0,0.768,0.194,1.201,0.76,1.201c0.276,0,0.438-0.024,0.586-0.076
			l0.047,0.844c-0.194,0.089-0.506,0.166-0.896,0.166c-0.473,0-0.853-0.18-1.093-0.486c-0.287-0.332-0.393-0.882-0.393-1.609v-3.377
			h-0.862v-0.855h0.862v-1.138L415.283,342.354z"/>
		<path d="M418.363,347.134c0.022,1.521,0.896,2.148,1.909,2.148c0.724,0,1.16-0.142,1.54-0.32l0.173,0.806
			c-0.356,0.18-0.967,0.396-1.853,0.396c-1.713,0-2.734-1.266-2.734-3.132s0.987-3.337,2.608-3.337c1.816,0,2.299,1.777,2.299,2.914
			c0,0.23-0.021,0.41-0.033,0.524H418.363z M421.33,346.329c0.012-0.716-0.265-1.828-1.402-1.828c-1.022,0-1.473,1.049-1.553,1.828
			H421.33z"/>
		<path d="M428.593,346.878c0,2.288-1.426,3.286-2.771,3.286c-1.507,0-2.668-1.229-2.668-3.184c0-2.07,1.219-3.287,2.76-3.287
			C427.51,343.695,428.593,344.986,428.593,346.878z M424.177,346.943c0,1.354,0.701,2.377,1.689,2.377
			c0.967,0,1.69-1.01,1.69-2.402c0-1.049-0.471-2.379-1.667-2.379C424.694,344.539,424.177,345.766,424.177,346.943z"/>
		<path d="M433.832,349.794c-0.264,0.153-0.85,0.37-1.598,0.37c-1.679,0-2.771-1.278-2.771-3.171c0-1.904,1.173-3.286,2.989-3.286
			c0.598,0,1.127,0.167,1.402,0.32l-0.229,0.869c-0.242-0.153-0.622-0.293-1.174-0.293c-1.276,0-1.965,1.049-1.965,2.34
			c0,1.432,0.828,2.312,1.931,2.312c0.574,0,0.954-0.167,1.242-0.307L433.832,349.794z"/>
		<path d="M435.012,340.947h1.013v9.076h-1.013V340.947z"/>
		<path d="M441.635,348.541c0,0.536,0.022,1.061,0.092,1.482h-0.919l-0.081-0.779h-0.034c-0.312,0.486-0.907,0.921-1.701,0.921
			c-1.126,0-1.701-0.882-1.701-1.776c0-1.496,1.195-2.313,3.346-2.303v-0.128c0-0.511-0.127-1.433-1.265-1.433
			c-0.52,0-1.058,0.181-1.449,0.461l-0.229-0.74c0.461-0.332,1.126-0.551,1.826-0.551c1.701,0,2.115,1.291,2.115,2.531V348.541
			L441.635,348.541z M440.658,346.866c-1.104-0.025-2.357,0.19-2.357,1.393c0,0.729,0.438,1.075,0.955,1.075
			c0.726,0,1.185-0.512,1.345-1.036c0.034-0.114,0.059-0.243,0.059-0.358L440.658,346.866L440.658,346.866z"/>
		<path d="M443.127,348.873c0.299,0.217,0.828,0.447,1.334,0.447c0.736,0,1.08-0.409,1.08-0.92c0-0.537-0.288-0.832-1.035-1.14
			c-1-0.396-1.471-1.01-1.471-1.752c0-0.997,0.725-1.815,1.92-1.815c0.562,0,1.058,0.181,1.368,0.386l-0.253,0.817
			c-0.221-0.153-0.621-0.358-1.14-0.358c-0.598,0-0.932,0.384-0.932,0.843c0,0.512,0.334,0.742,1.058,1.049
			c0.967,0.409,1.46,0.945,1.46,1.866c0,1.087-0.76,1.866-2.081,1.866c-0.607,0-1.173-0.18-1.562-0.434L443.127,348.873z"/>
		<path d="M449.034,342.354v1.482h1.45v0.855h-1.45v3.338c0,0.768,0.194,1.201,0.759,1.201c0.277,0,0.438-0.024,0.587-0.076
			l0.047,0.844c-0.194,0.089-0.506,0.166-0.896,0.166c-0.472,0-0.852-0.18-1.093-0.486c-0.286-0.332-0.392-0.882-0.392-1.609v-3.377
			h-0.862v-0.855h0.862v-1.138L449.034,342.354z"/>
		<path d="M451.481,348.873c0.299,0.217,0.827,0.447,1.334,0.447c0.734,0,1.078-0.409,1.078-0.92c0-0.537-0.286-0.832-1.033-1.14
			c-1-0.396-1.473-1.01-1.473-1.752c0-0.997,0.726-1.815,1.92-1.815c0.564,0,1.059,0.181,1.369,0.386l-0.254,0.817
			c-0.219-0.153-0.621-0.358-1.139-0.358c-0.599,0-0.933,0.384-0.933,0.843c0,0.512,0.334,0.742,1.059,1.049
			c0.966,0.409,1.46,0.945,1.46,1.866c0,1.087-0.759,1.866-2.08,1.866c-0.609,0-1.174-0.18-1.563-0.434L451.481,348.873z"/>
	</g>
</g>
<g>
	<path fill="#58B7DD" stroke="#000000" d="M468.051,156.767c0,7.063-5.465,12.79-12.205,12.79h-95.61
		c-6.74,0-12.206-5.726-12.206-12.79V144.69c0-7.062,5.466-12.788,12.206-12.788h95.61c6.74,0,12.205,5.727,12.205,12.788V156.767z"
		/>
	<g>
		<path d="M364.463,149.529c0,2.966-1.62,4.538-3.598,4.538c-2.047,0-3.483-1.764-3.483-4.372c0-2.735,1.528-4.526,3.6-4.526
			C363.094,145.168,364.463,146.971,364.463,149.529z M358.451,149.668c0,1.842,0.896,3.49,2.473,3.49
			c1.586,0,2.482-1.623,2.482-3.58c0-1.713-0.806-3.503-2.474-3.503C359.278,146.076,358.451,147.777,358.451,149.668z"/>
		<path d="M365.587,152.776c0.298,0.217,0.827,0.447,1.333,0.447c0.736,0,1.08-0.409,1.08-0.921c0-0.537-0.287-0.832-1.034-1.138
			c-1.001-0.397-1.472-1.011-1.472-1.752c0-0.997,0.725-1.815,1.92-1.815c0.564,0,1.058,0.179,1.368,0.384l-0.253,0.818
			c-0.219-0.153-0.621-0.358-1.14-0.358c-0.598,0-0.932,0.384-0.932,0.844c0,0.511,0.334,0.74,1.058,1.048
			c0.967,0.409,1.46,0.946,1.46,1.866c0,1.087-0.759,1.867-2.079,1.867c-0.609,0-1.175-0.179-1.564-0.435L365.587,152.776z"/>
		<path d="M371.493,146.255v1.483h1.45v0.855h-1.45v3.337c0,0.768,0.195,1.202,0.76,1.202c0.276,0,0.438-0.025,0.586-0.077
			l0.047,0.844c-0.194,0.089-0.506,0.166-0.896,0.166c-0.472,0-0.852-0.179-1.092-0.485c-0.287-0.333-0.393-0.882-0.393-1.61v-3.376
			h-0.862v-0.855h0.862v-1.138L371.493,146.255z"/>
		<path d="M374.573,151.036c0.022,1.522,0.896,2.148,1.909,2.148c0.724,0,1.159-0.142,1.54-0.32l0.173,0.806
			c-0.357,0.179-0.968,0.396-1.853,0.396c-1.713,0-2.735-1.265-2.735-3.132c0-1.866,0.988-3.336,2.608-3.336
			c1.817,0,2.3,1.776,2.3,2.915c0,0.23-0.021,0.409-0.033,0.523H374.573L374.573,151.036z M377.54,150.231
			c0.011-0.716-0.265-1.828-1.403-1.828c-1.022,0-1.472,1.049-1.553,1.828H377.54z"/>
		<path d="M384.802,150.781c0,2.289-1.426,3.286-2.771,3.286c-1.506,0-2.667-1.228-2.667-3.184c0-2.07,1.219-3.285,2.759-3.285
			C383.72,147.598,384.802,148.889,384.802,150.781z M380.386,150.845c0,1.355,0.701,2.378,1.689,2.378
			c0.967,0,1.689-1.011,1.689-2.404c0-1.049-0.471-2.377-1.666-2.377C380.905,148.442,380.386,149.668,380.386,150.845z"/>
		<path d="M390.042,153.696c-0.264,0.153-0.851,0.37-1.598,0.37c-1.68,0-2.771-1.277-2.771-3.17c0-1.905,1.173-3.286,2.989-3.286
			c0.598,0,1.126,0.167,1.403,0.32l-0.23,0.869c-0.241-0.153-0.621-0.294-1.173-0.294c-1.276,0-1.965,1.049-1.965,2.34
			c0,1.433,0.827,2.314,1.931,2.314c0.574,0,0.954-0.167,1.242-0.308L390.042,153.696z"/>
		<path d="M391.222,144.849h1.013v9.077h-1.013V144.849z"/>
		<path d="M397.844,152.443c0,0.537,0.023,1.061,0.093,1.483h-0.919l-0.082-0.78h-0.033c-0.312,0.485-0.907,0.921-1.701,0.921
			c-1.126,0-1.701-0.882-1.701-1.776c0-1.496,1.195-2.314,3.345-2.301v-0.128c0-0.512-0.126-1.433-1.264-1.433
			c-0.52,0-1.058,0.179-1.449,0.461l-0.229-0.742c0.461-0.332,1.127-0.549,1.828-0.549c1.7,0,2.114,1.291,2.114,2.531
			L397.844,152.443L397.844,152.443z M396.868,150.768c-1.104-0.025-2.357,0.191-2.357,1.394c0,0.729,0.438,1.074,0.954,1.074
			c0.726,0,1.185-0.512,1.346-1.035c0.034-0.115,0.059-0.243,0.059-0.358L396.868,150.768L396.868,150.768z"/>
		<path d="M399.337,152.776c0.299,0.217,0.828,0.447,1.334,0.447c0.735,0,1.08-0.409,1.08-0.921c0-0.537-0.288-0.832-1.034-1.138
			c-1.001-0.397-1.473-1.011-1.473-1.752c0-0.997,0.725-1.815,1.92-1.815c0.564,0,1.059,0.179,1.369,0.384l-0.254,0.818
			c-0.22-0.153-0.62-0.358-1.14-0.358c-0.598,0-0.932,0.384-0.932,0.844c0,0.511,0.334,0.74,1.059,1.048
			c0.966,0.409,1.46,0.946,1.46,1.866c0,1.087-0.76,1.867-2.08,1.867c-0.609,0-1.174-0.179-1.563-0.435L399.337,152.776z"/>
		<path d="M405.244,146.255v1.483h1.449v0.855h-1.449v3.337c0,0.768,0.195,1.202,0.759,1.202c0.276,0,0.438-0.025,0.587-0.077
			l0.047,0.844c-0.194,0.089-0.506,0.166-0.896,0.166c-0.473,0-0.852-0.179-1.092-0.485c-0.288-0.333-0.393-0.882-0.393-1.61v-3.376
			h-0.863v-0.855h0.863v-1.138L405.244,146.255z"/>
		<path d="M410.264,149.758c0-0.793-0.021-1.433-0.046-2.021h0.907l0.047,1.062h0.022c0.414-0.755,1.068-1.202,1.978-1.202
			c1.345,0,2.356,1.266,2.356,3.145c0,2.225-1.219,3.324-2.529,3.324c-0.735,0-1.38-0.358-1.713-0.972h-0.023v3.362h-1
			L410.264,149.758L410.264,149.758z M411.263,151.407c0,0.166,0.023,0.319,0.047,0.461c0.186,0.779,0.795,1.316,1.519,1.316
			c1.069,0,1.689-0.973,1.689-2.392c0-1.24-0.586-2.301-1.655-2.301c-0.689,0-1.333,0.549-1.527,1.394
			c-0.035,0.14-0.07,0.307-0.07,0.461L411.263,151.407L411.263,151.407z"/>
		<path d="M416.802,149.668c0-0.729-0.012-1.354-0.046-1.931h0.885l0.035,1.215h0.046c0.254-0.832,0.862-1.355,1.541-1.355
			c0.115,0,0.194,0.013,0.287,0.038v1.062c-0.104-0.025-0.207-0.039-0.345-0.039c-0.713,0-1.219,0.602-1.356,1.444
			c-0.021,0.153-0.047,0.332-0.047,0.524v3.298h-1V149.668L416.802,149.668z"/>
		<path d="M421.01,151.036c0.023,1.522,0.897,2.148,1.909,2.148c0.724,0,1.161-0.142,1.54-0.32l0.172,0.806
			c-0.355,0.179-0.965,0.396-1.851,0.396c-1.713,0-2.735-1.265-2.735-3.132c0-1.866,0.988-3.336,2.609-3.336
			c1.815,0,2.299,1.776,2.299,2.915c0,0.23-0.022,0.409-0.034,0.523H421.01L421.01,151.036z M423.975,150.231
			c0.013-0.716-0.266-1.828-1.402-1.828c-1.022,0-1.473,1.049-1.554,1.828H423.975z"/>
		<path d="M430.169,153.696c-0.264,0.153-0.85,0.37-1.598,0.37c-1.679,0-2.771-1.277-2.771-3.17c0-1.905,1.173-3.286,2.989-3.286
			c0.598,0,1.127,0.167,1.403,0.32l-0.23,0.869c-0.241-0.153-0.621-0.294-1.173-0.294c-1.276,0-1.965,1.049-1.965,2.34
			c0,1.433,0.828,2.314,1.931,2.314c0.574,0,0.954-0.167,1.242-0.308L430.169,153.696z"/>
		<path d="M436.008,152.238c0,0.64,0.012,1.202,0.046,1.688h-0.896l-0.059-1.01h-0.021c-0.267,0.498-0.853,1.149-1.84,1.149
			c-0.873,0-1.92-0.537-1.92-2.71v-3.619h1.012v3.428c0,1.176,0.322,1.968,1.241,1.968c0.679,0,1.148-0.524,1.333-1.023
			c0.058-0.166,0.092-0.37,0.092-0.575v-3.797h1.012L436.008,152.238L436.008,152.238z"/>
		<path d="M437.682,149.668c0-0.729-0.012-1.354-0.047-1.931h0.886l0.034,1.215h0.046c0.255-0.832,0.862-1.355,1.541-1.355
			c0.115,0,0.194,0.013,0.288,0.038v1.062c-0.104-0.025-0.207-0.039-0.346-0.039c-0.713,0-1.219,0.602-1.354,1.444
			c-0.023,0.153-0.048,0.332-0.048,0.524v3.298h-1V149.668L437.682,149.668z"/>
		<path d="M441.302,152.776c0.298,0.217,0.827,0.447,1.333,0.447c0.736,0,1.08-0.409,1.08-0.921c0-0.537-0.287-0.832-1.034-1.138
			c-1.001-0.397-1.472-1.011-1.472-1.752c0-0.997,0.725-1.815,1.92-1.815c0.564,0,1.059,0.179,1.368,0.384l-0.253,0.818
			c-0.219-0.153-0.621-0.358-1.139-0.358c-0.599,0-0.933,0.384-0.933,0.844c0,0.511,0.334,0.74,1.059,1.048
			c0.966,0.409,1.46,0.946,1.46,1.866c0,1.087-0.761,1.867-2.081,1.867c-0.608,0-1.173-0.179-1.563-0.435L441.302,152.776z"/>
		<path d="M451.027,150.781c0,2.289-1.427,3.286-2.771,3.286c-1.506,0-2.666-1.228-2.666-3.184c0-2.07,1.218-3.285,2.758-3.285
			C449.947,147.598,451.027,148.889,451.027,150.781z M446.613,150.845c0,1.355,0.701,2.378,1.688,2.378
			c0.967,0,1.69-1.011,1.69-2.404c0-1.049-0.47-2.377-1.667-2.377C447.131,148.442,446.613,149.668,446.613,150.845z"/>
		<path d="M452.301,149.668c0-0.729-0.012-1.354-0.046-1.931h0.884l0.035,1.215h0.047c0.253-0.832,0.862-1.355,1.54-1.355
			c0.116,0,0.195,0.013,0.288,0.038v1.062c-0.104-0.025-0.207-0.039-0.346-0.039c-0.712,0-1.218,0.602-1.355,1.444
			c-0.022,0.153-0.047,0.332-0.047,0.524v3.298h-1V149.668z"/>
		<path d="M455.92,152.776c0.299,0.217,0.828,0.447,1.334,0.447c0.735,0,1.08-0.409,1.08-0.921c0-0.537-0.288-0.832-1.035-1.138
			c-1-0.397-1.472-1.011-1.472-1.752c0-0.997,0.725-1.815,1.92-1.815c0.563,0,1.058,0.179,1.368,0.384l-0.253,0.818
			c-0.22-0.153-0.62-0.358-1.14-0.358c-0.598,0-0.932,0.384-0.932,0.844c0,0.511,0.334,0.74,1.058,1.048
			c0.967,0.409,1.462,0.946,1.462,1.866c0,1.087-0.761,1.867-2.081,1.867c-0.609,0-1.174-0.179-1.563-0.435L455.92,152.776z"/>
	</g>
</g>
<g>
	<path fill="#58B7DD" stroke="#000000" d="M154.909,357.127c0,7.059-6.223,12.792-13.894,12.792H32.179
		c-7.675,0-13.895-5.731-13.895-12.792V345.05c0-7.063,6.22-12.791,13.895-12.791h108.835c7.671,0,13.894,5.728,13.894,12.791
		L154.909,357.127L154.909,357.127z"/>
	<g>
		<path d="M25.906,346.732v5.102c0,1.932,0.77,2.749,1.805,2.749c1.149,0,1.887-0.845,1.887-2.749v-5.102h1.012v5.023
			c0,2.646-1.253,3.734-2.933,3.734c-1.586,0-2.781-1.012-2.781-3.684v-5.074H25.906L25.906,346.732z"/>
		<path d="M32.306,350.836c0-0.639-0.013-1.164-0.047-1.675h0.896l0.058,1.022h0.022c0.276-0.588,0.92-1.164,1.84-1.164
			c0.771,0,1.966,0.512,1.966,2.635v3.693h-1.011v-3.566c0-0.997-0.333-1.828-1.288-1.828c-0.666,0-1.184,0.525-1.355,1.15
			c-0.047,0.142-0.068,0.332-0.068,0.524v3.72h-1.012L32.306,350.836L32.306,350.836z"/>
		<path d="M42.65,355.118c-0.266,0.153-0.853,0.371-1.599,0.371c-1.679,0-2.771-1.279-2.771-3.171c0-1.905,1.173-3.286,2.989-3.286
			c0.598,0,1.127,0.166,1.401,0.319l-0.229,0.871c-0.24-0.154-0.62-0.296-1.172-0.296c-1.276,0-1.966,1.05-1.966,2.341
			c0,1.432,0.827,2.312,1.932,2.312c0.574,0,0.954-0.166,1.242-0.307L42.65,355.118z"/>
		<path d="M48.799,352.204c0,2.288-1.426,3.286-2.771,3.286c-1.506,0-2.666-1.229-2.666-3.186c0-2.07,1.219-3.285,2.759-3.285
			C47.719,349.02,48.799,350.311,48.799,352.204z M44.384,352.268c0,1.354,0.701,2.379,1.69,2.379c0.966,0,1.69-1.011,1.69-2.404
			c0-1.049-0.472-2.378-1.667-2.378S44.384,351.091,44.384,352.268z"/>
		<path d="M50.072,350.836c0-0.639-0.012-1.164-0.046-1.675h0.885l0.046,0.997h0.035c0.31-0.588,0.828-1.139,1.747-1.139
			c0.759,0,1.334,0.512,1.574,1.239h0.022c0.172-0.345,0.392-0.612,0.62-0.805c0.334-0.281,0.701-0.435,1.23-0.435
			c0.734,0,1.827,0.537,1.827,2.685v3.644h-0.987v-3.502c0-1.188-0.392-1.904-1.207-1.904c-0.574,0-1.022,0.473-1.195,1.022
			c-0.046,0.152-0.08,0.356-0.08,0.562v3.824h-0.987v-3.707c0-0.984-0.393-1.701-1.161-1.701c-0.632,0-1.094,0.563-1.254,1.125
			c-0.058,0.166-0.08,0.358-0.08,0.551v3.732h-0.988L50.072,350.836L50.072,350.836z"/>
		<path d="M59.656,350.836c0-0.639-0.012-1.164-0.046-1.675h0.885l0.046,0.997h0.035c0.311-0.588,0.827-1.139,1.747-1.139
			c0.759,0,1.333,0.512,1.574,1.239h0.022c0.172-0.345,0.392-0.612,0.62-0.805c0.334-0.281,0.701-0.435,1.229-0.435
			c0.734,0,1.828,0.537,1.828,2.685v3.644H66.61v-3.502c0-1.188-0.391-1.904-1.207-1.904c-0.574,0-1.022,0.473-1.195,1.022
			c-0.046,0.152-0.08,0.356-0.08,0.562v3.824h-0.988v-3.707c0-0.984-0.392-1.701-1.16-1.701c-0.632,0-1.093,0.563-1.254,1.125
			c-0.059,0.166-0.08,0.358-0.08,0.551v3.732h-0.989V350.836L59.656,350.836z"/>
		<path d="M70.367,347.422c0.011,0.385-0.241,0.691-0.644,0.691c-0.356,0-0.609-0.309-0.609-0.691c0-0.396,0.264-0.701,0.632-0.701
			C70.126,346.719,70.367,347.025,70.367,347.422z M69.24,355.348v-6.188h1.012v6.188H69.24z"/>
		<path d="M73.147,347.678v1.483h1.449v0.856h-1.449v3.336c0,0.768,0.194,1.201,0.759,1.201c0.275,0,0.437-0.025,0.586-0.076
			l0.046,0.844c-0.196,0.09-0.506,0.166-0.896,0.166c-0.473,0-0.853-0.18-1.094-0.485c-0.287-0.332-0.392-0.882-0.392-1.61v-3.375
			h-0.862v-0.856h0.862v-1.138L73.147,347.678z"/>
		<path d="M76.952,347.678v1.483H78.4v0.856h-1.448v3.336c0,0.768,0.194,1.201,0.758,1.201c0.275,0,0.438-0.025,0.586-0.076
			l0.046,0.844c-0.194,0.09-0.506,0.166-0.896,0.166c-0.472,0-0.851-0.18-1.093-0.485c-0.288-0.332-0.393-0.882-0.393-1.61v-3.375
			h-0.861v-0.856h0.861v-1.138L76.952,347.678z"/>
		<path d="M80.031,352.459c0.022,1.521,0.896,2.146,1.908,2.146c0.724,0,1.162-0.141,1.541-0.318l0.172,0.805
			c-0.356,0.18-0.966,0.396-1.853,0.396c-1.712,0-2.734-1.266-2.734-3.133c0-1.866,0.988-3.338,2.608-3.338
			c1.816,0,2.301,1.777,2.301,2.916c0,0.23-0.023,0.409-0.034,0.524L80.031,352.459L80.031,352.459z M82.996,351.654
			c0.012-0.715-0.264-1.827-1.401-1.827c-1.023,0-1.473,1.048-1.553,1.827H82.996z"/>
		<path d="M90.029,346.271v7.479c0,0.55,0.012,1.177,0.046,1.598h-0.908l-0.046-1.072h-0.021c-0.312,0.688-0.989,1.213-1.897,1.213
			c-1.346,0-2.38-1.266-2.38-3.146c-0.012-2.059,1.138-3.323,2.495-3.323c0.851,0,1.425,0.446,1.678,0.944h0.023v-3.694
			L90.029,346.271L90.029,346.271z M89.018,351.68c0-0.142-0.013-0.332-0.046-0.474c-0.149-0.716-0.701-1.304-1.46-1.304
			c-1.047,0-1.667,1.021-1.667,2.39c0,1.253,0.552,2.289,1.645,2.289c0.678,0,1.298-0.498,1.482-1.343
			c0.033-0.153,0.046-0.307,0.046-0.486V351.68z"/>
		<path d="M94.141,351.182c0-0.793-0.022-1.433-0.046-2.021h0.907l0.046,1.062h0.022c0.414-0.755,1.069-1.203,1.978-1.203
			c1.347,0,2.357,1.267,2.357,3.146c0,2.225-1.22,3.325-2.529,3.325c-0.734,0-1.38-0.358-1.714-0.974h-0.021v3.363H94.14
			L94.141,351.182L94.141,351.182z M95.141,352.829c0,0.167,0.022,0.319,0.046,0.461c0.185,0.78,0.793,1.315,1.518,1.315
			c1.069,0,1.69-0.972,1.69-2.391c0-1.24-0.587-2.302-1.655-2.302c-0.689,0-1.333,0.55-1.529,1.394
			c-0.034,0.143-0.068,0.308-0.068,0.461L95.141,352.829L95.141,352.829z"/>
		<path d="M100.679,351.091c0-0.729-0.012-1.354-0.047-1.93h0.887l0.034,1.214h0.046c0.254-0.831,0.861-1.355,1.541-1.355
			c0.113,0,0.194,0.015,0.286,0.039v1.062c-0.103-0.025-0.205-0.039-0.344-0.039c-0.714,0-1.219,0.602-1.356,1.445
			c-0.022,0.152-0.046,0.332-0.046,0.523v3.299h-1L100.679,351.091L100.679,351.091z"/>
		<path d="M109.358,352.204c0,2.288-1.426,3.286-2.771,3.286c-1.507,0-2.667-1.229-2.667-3.186c0-2.07,1.219-3.285,2.76-3.285
			C108.278,349.02,109.358,350.311,109.358,352.204z M104.944,352.268c0,1.354,0.7,2.379,1.689,2.379c0.967,0,1.69-1.011,1.69-2.404
			c0-1.049-0.472-2.378-1.668-2.378S104.944,351.091,104.944,352.268z"/>
		<path d="M115.38,354.453c0,1.42-0.254,2.289-0.793,2.824c-0.54,0.563-1.321,0.742-2.022,0.742c-0.667,0-1.402-0.18-1.853-0.512
			l0.254-0.855c0.368,0.256,0.942,0.486,1.633,0.486c1.034,0,1.794-0.603,1.794-2.162v-0.689h-0.023
			c-0.31,0.574-0.908,1.035-1.771,1.035c-1.381,0-2.368-1.305-2.368-3.018c0-2.098,1.229-3.287,2.506-3.287
			c0.966,0,1.495,0.563,1.736,1.075h0.022l0.046-0.934h0.885c-0.021,0.446-0.046,0.946-0.046,1.7V354.453L115.38,354.453z
			 M114.38,351.604c0-0.191-0.012-0.358-0.058-0.513c-0.184-0.651-0.678-1.188-1.414-1.188c-0.966,0-1.655,0.908-1.655,2.34
			c0,1.215,0.553,2.225,1.645,2.225c0.62,0,1.184-0.435,1.401-1.15c0.059-0.19,0.08-0.408,0.08-0.601L114.38,351.604L114.38,351.604
			z"/>
		<path d="M117.619,352.459c0.023,1.521,0.897,2.146,1.908,2.146c0.725,0,1.162-0.141,1.541-0.318l0.172,0.805
			c-0.356,0.18-0.966,0.396-1.851,0.396c-1.714,0-2.736-1.266-2.736-3.133c0-1.866,0.989-3.338,2.609-3.338
			c1.816,0,2.3,1.777,2.3,2.916c0,0.23-0.022,0.409-0.034,0.524L117.619,352.459L117.619,352.459z M120.585,351.654
			c0.012-0.715-0.265-1.827-1.402-1.827c-1.022,0-1.473,1.048-1.553,1.827H120.585z"/>
		<path d="M122.812,350.836c0-0.639-0.012-1.164-0.046-1.675h0.896l0.059,1.022h0.021c0.275-0.588,0.92-1.164,1.84-1.164
			c0.771,0,1.966,0.512,1.966,2.635v3.693h-1.012v-3.566c0-0.997-0.334-1.828-1.287-1.828c-0.666,0-1.184,0.525-1.355,1.15
			c-0.046,0.142-0.069,0.332-0.069,0.524v3.72h-1.012L122.812,350.836L122.812,350.836z"/>
		<path d="M130.317,347.422c0.012,0.385-0.241,0.691-0.645,0.691c-0.355,0-0.608-0.309-0.608-0.691c0-0.396,0.265-0.701,0.633-0.701
			C130.076,346.719,130.317,347.025,130.317,347.422z M129.19,355.348v-6.188h1.012v6.188H129.19z"/>
		<path d="M133.098,347.678v1.483h1.447v0.856h-1.447v3.336c0,0.768,0.194,1.201,0.758,1.201c0.274,0,0.438-0.025,0.587-0.076
			l0.046,0.844c-0.196,0.09-0.506,0.166-0.897,0.166c-0.472,0-0.851-0.18-1.093-0.485c-0.288-0.332-0.391-0.882-0.391-1.61v-3.375
			h-0.863v-0.856h0.863v-1.138L133.098,347.678z"/>
		<path d="M140.649,352.204c0,2.288-1.425,3.286-2.771,3.286c-1.506,0-2.667-1.229-2.667-3.186c0-2.07,1.219-3.285,2.761-3.285
			C139.569,349.02,140.649,350.311,140.649,352.204z M136.235,352.268c0,1.354,0.7,2.379,1.689,2.379c0.967,0,1.69-1.011,1.69-2.404
			c0-1.049-0.472-2.378-1.668-2.378S136.235,351.091,136.235,352.268z"/>
		<path d="M141.923,351.091c0-0.729-0.012-1.354-0.046-1.93h0.887l0.033,1.214h0.046c0.255-0.831,0.862-1.355,1.541-1.355
			c0.114,0,0.195,0.015,0.287,0.039v1.062c-0.104-0.025-0.206-0.039-0.344-0.039c-0.714,0-1.219,0.602-1.356,1.445
			c-0.022,0.152-0.047,0.332-0.047,0.523v3.299h-1L141.923,351.091L141.923,351.091z"/>
		<path d="M145.543,354.198c0.299,0.218,0.827,0.448,1.333,0.448c0.735,0,1.08-0.41,1.08-0.922c0-0.537-0.288-0.83-1.034-1.138
			c-1.001-0.396-1.472-1.01-1.472-1.752c0-0.998,0.724-1.815,1.92-1.815c0.563,0,1.059,0.18,1.368,0.385l-0.253,0.818
			c-0.22-0.154-0.621-0.359-1.139-0.359c-0.599,0-0.932,0.384-0.932,0.844c0,0.512,0.333,0.742,1.059,1.049
			c0.966,0.409,1.461,0.945,1.461,1.865c0,1.088-0.761,1.867-2.081,1.867c-0.609,0-1.173-0.18-1.563-0.436L145.543,354.198z"/>
	</g>
</g>
<g>
	<path fill="#58B7DD" stroke="#000000" d="M150.758,54.844c0,9.596-5.668,17.375-12.656,17.375H38.926
		c-6.991,0-12.658-7.779-12.658-17.375V38.44c0-9.596,5.668-17.376,12.658-17.376H138.1c6.988,0,12.656,7.78,12.656,17.376
		L150.758,54.844L150.758,54.844z"/>
	<g>
		<path d="M68.398,30.517c0,2.967-1.621,4.539-3.6,4.539c-2.046,0-3.482-1.765-3.482-4.372c0-2.736,1.529-4.526,3.599-4.526
			C67.03,26.157,68.398,27.96,68.398,30.517z M62.385,30.657c0,1.842,0.897,3.49,2.473,3.49c1.587,0,2.482-1.623,2.482-3.58
			c0-1.713-0.804-3.504-2.472-3.504C63.213,27.065,62.385,28.765,62.385,30.657z"/>
		<path d="M69.521,33.765c0.3,0.217,0.828,0.446,1.333,0.446c0.734,0,1.081-0.409,1.081-0.921c0-0.536-0.288-0.831-1.035-1.138
			c-1-0.396-1.472-1.01-1.472-1.752c0-0.997,0.725-1.814,1.92-1.814c0.562,0,1.058,0.179,1.368,0.383l-0.254,0.818
			c-0.219-0.153-0.62-0.358-1.138-0.358c-0.598,0-0.932,0.384-0.932,0.844c0,0.512,0.334,0.741,1.059,1.049
			c0.966,0.409,1.46,0.946,1.46,1.866c0,1.087-0.759,1.866-2.08,1.866c-0.608,0-1.174-0.179-1.562-0.435L69.521,33.765z"/>
		<path d="M75.429,27.244v1.483h1.447v0.856h-1.447v3.337c0,0.768,0.193,1.202,0.758,1.202c0.274,0,0.438-0.025,0.586-0.077
			l0.046,0.843c-0.195,0.09-0.506,0.167-0.896,0.167c-0.472,0-0.851-0.179-1.093-0.485c-0.288-0.333-0.391-0.882-0.391-1.611v-3.375
			h-0.863v-0.857h0.864v-1.138L75.429,27.244z"/>
		<path d="M78.509,32.026c0.022,1.521,0.896,2.148,1.908,2.148c0.725,0,1.162-0.142,1.541-0.32l0.172,0.806
			c-0.355,0.179-0.966,0.396-1.852,0.396c-1.712,0-2.735-1.265-2.735-3.132c0-1.866,0.988-3.337,2.609-3.337
			c1.815,0,2.3,1.777,2.3,2.916c0,0.23-0.022,0.409-0.034,0.523H78.509z M81.473,31.22c0.012-0.716-0.265-1.828-1.402-1.828
			c-1.023,0-1.472,1.049-1.552,1.828H81.473z"/>
		<path d="M88.737,31.77c0,2.289-1.426,3.286-2.771,3.286c-1.507,0-2.667-1.228-2.667-3.184c0-2.07,1.22-3.286,2.76-3.286
			C87.657,28.586,88.737,29.878,88.737,31.77z M84.323,31.834c0,1.354,0.7,2.377,1.69,2.377c0.966,0,1.689-1.01,1.689-2.403
			c0-1.049-0.472-2.378-1.668-2.378S84.323,30.657,84.323,31.834z"/>
		<path d="M93.977,34.685c-0.266,0.153-0.853,0.37-1.6,0.37c-1.678,0-2.771-1.278-2.771-3.17c0-1.905,1.173-3.286,2.989-3.286
			c0.598,0,1.127,0.166,1.401,0.319l-0.229,0.87c-0.242-0.153-0.621-0.294-1.173-0.294c-1.276,0-1.967,1.048-1.967,2.34
			c0,1.432,0.827,2.314,1.932,2.314c0.575,0,0.955-0.167,1.242-0.308L93.977,34.685z"/>
		<path d="M95.733,28.727l1.219,3.656c0.126,0.409,0.264,0.896,0.356,1.266h0.022c0.104-0.37,0.219-0.844,0.356-1.291l1.104-3.631
			h1.069l-1.519,4.41c-0.725,2.122-1.22,3.209-1.908,3.874c-0.494,0.485-0.988,0.678-1.241,0.729l-0.253-0.945
			c0.253-0.09,0.586-0.27,0.886-0.55c0.275-0.242,0.62-0.678,0.851-1.253c0.047-0.115,0.08-0.204,0.08-0.269
			c0-0.063-0.021-0.153-0.067-0.294l-2.059-5.702H95.733z"/>
		<path d="M101.997,27.244v1.483h1.449v0.856h-1.449v3.337c0,0.768,0.195,1.202,0.759,1.202c0.275,0,0.438-0.025,0.586-0.077
			l0.047,0.843c-0.195,0.09-0.507,0.167-0.896,0.167c-0.472,0-0.852-0.179-1.093-0.485c-0.288-0.333-0.393-0.882-0.393-1.611v-3.375
			h-0.861v-0.857h0.861v-1.138L101.997,27.244z"/>
		<path d="M105.077,32.026c0.022,1.521,0.896,2.148,1.908,2.148c0.724,0,1.162-0.142,1.54-0.32l0.173,0.806
			c-0.357,0.179-0.966,0.396-1.852,0.396c-1.714,0-2.735-1.265-2.735-3.132c0-1.866,0.988-3.337,2.609-3.337
			c1.815,0,2.3,1.777,2.3,2.916c0,0.23-0.023,0.409-0.035,0.523H105.077z M108.043,31.22c0.013-0.716-0.264-1.828-1.401-1.828
			c-1.023,0-1.473,1.049-1.554,1.828H108.043z"/>
		<path d="M110.133,33.765c0.3,0.217,0.828,0.446,1.333,0.446c0.735,0,1.08-0.409,1.08-0.921c0-0.536-0.287-0.831-1.033-1.138
			c-1-0.396-1.473-1.01-1.473-1.752c0-0.997,0.725-1.814,1.92-1.814c0.563,0,1.059,0.179,1.368,0.383l-0.253,0.818
			c-0.219-0.153-0.621-0.358-1.138-0.358c-0.599,0-0.933,0.384-0.933,0.844c0,0.512,0.334,0.741,1.06,1.049
			c0.966,0.409,1.46,0.946,1.46,1.866c0,1.087-0.76,1.866-2.081,1.866c-0.609,0-1.173-0.179-1.563-0.435L110.133,33.765z"/>
		<path d="M114.051,36.488c0.241-0.755,0.553-2.122,0.68-3.056l1.126-0.128c-0.265,1.087-0.771,2.506-1.092,3.107L114.051,36.488z"
			/>
		<path d="M63.023,41.184h1.012v9.077h-1.012V41.184z"/>
		<path d="M66.862,42.335c0.012,0.384-0.241,0.69-0.645,0.69c-0.355,0-0.608-0.307-0.608-0.69c0-0.396,0.264-0.703,0.632-0.703
			C66.621,41.632,66.862,41.939,66.862,42.335z M65.735,50.261v-6.188h1.012v6.188H65.735z"/>
		<path d="M68.424,45.748c0-0.64-0.012-1.164-0.046-1.675h0.897l0.058,1.021h0.023c0.274-0.588,0.92-1.163,1.839-1.163
			c0.771,0,1.967,0.512,1.967,2.634v3.694H72.15v-3.567c0-0.996-0.333-1.828-1.287-1.828c-0.667,0-1.185,0.525-1.357,1.151
			c-0.046,0.141-0.067,0.332-0.067,0.524v3.72h-1.013v-4.513L68.424,45.748L68.424,45.748z"/>
		<path d="M75.928,42.335c0.012,0.384-0.241,0.69-0.645,0.69c-0.355,0-0.609-0.307-0.609-0.69c0-0.396,0.265-0.703,0.633-0.703
			C75.687,41.632,75.928,41.939,75.928,42.335z M74.802,50.261v-6.188h1.013v6.188H74.802z"/>
		<path d="M77.491,45.748c0-0.64-0.012-1.164-0.046-1.675h0.896l0.059,1.021h0.022c0.275-0.588,0.92-1.163,1.841-1.163
			c0.77,0,1.966,0.512,1.966,2.634v3.694h-1.013v-3.567c0-0.996-0.334-1.828-1.286-1.828c-0.667,0-1.186,0.525-1.357,1.151
			c-0.046,0.141-0.068,0.332-0.068,0.524v3.72h-1.012L77.491,45.748L77.491,45.748z"/>
		<path d="M88.616,49.365c0,1.42-0.253,2.289-0.793,2.826c-0.54,0.563-1.322,0.741-2.023,0.741c-0.666,0-1.4-0.179-1.85-0.512
			l0.252-0.855c0.368,0.256,0.943,0.485,1.633,0.485c1.034,0,1.793-0.602,1.793-2.16V49.2h-0.021
			c-0.311,0.575-0.908,1.035-1.771,1.035c-1.38,0-2.369-1.304-2.369-3.017c0-2.098,1.23-3.286,2.508-3.286
			c0.966,0,1.493,0.563,1.735,1.074h0.022l0.046-0.934h0.886c-0.022,0.447-0.046,0.945-0.046,1.7L88.616,49.365L88.616,49.365z
			 M87.617,46.515c0-0.191-0.012-0.357-0.058-0.511c-0.185-0.652-0.679-1.189-1.414-1.189c-0.966,0-1.656,0.908-1.656,2.34
			c0,1.215,0.552,2.225,1.644,2.225c0.621,0,1.185-0.435,1.403-1.15c0.057-0.191,0.08-0.409,0.08-0.601L87.617,46.515L87.617,46.515
			z"/>
		<path d="M96.694,50.031c-0.264,0.153-0.852,0.371-1.598,0.371c-1.679,0-2.771-1.278-2.771-3.171c0-1.905,1.173-3.285,2.989-3.285
			c0.598,0,1.127,0.166,1.401,0.319l-0.229,0.87c-0.241-0.153-0.62-0.294-1.172-0.294c-1.276,0-1.967,1.048-1.967,2.34
			c0,1.433,0.827,2.314,1.932,2.314c0.575,0,0.955-0.166,1.242-0.308L96.694,50.031z"/>
		<path d="M98.371,47.372c0.023,1.521,0.897,2.147,1.909,2.147c0.724,0,1.161-0.141,1.54-0.319l0.172,0.805
			c-0.355,0.179-0.966,0.396-1.851,0.396c-1.713,0-2.736-1.266-2.736-3.132c0-1.867,0.989-3.337,2.609-3.337
			c1.816,0,2.3,1.776,2.3,2.915c0,0.23-0.022,0.409-0.034,0.524L98.371,47.372L98.371,47.372z M101.337,46.567
			c0.013-0.716-0.265-1.829-1.402-1.829c-1.022,0-1.473,1.049-1.553,1.829H101.337z"/>
		<path d="M103.565,41.184h1.011v9.077h-1.011V41.184z"/>
		<path d="M106.277,41.184h1.012v9.077h-1.012V41.184z"/>
		<path d="M108.85,49.111c0.299,0.218,0.828,0.447,1.333,0.447c0.734,0,1.08-0.409,1.08-0.921c0-0.537-0.287-0.831-1.034-1.138
			c-1-0.396-1.473-1.01-1.473-1.751c0-0.997,0.725-1.815,1.92-1.815c0.563,0,1.059,0.179,1.368,0.384l-0.253,0.818
			c-0.219-0.153-0.621-0.358-1.138-0.358c-0.598,0-0.932,0.384-0.932,0.844c0,0.512,0.334,0.741,1.059,1.048
			c0.966,0.409,1.46,0.946,1.46,1.866c0,1.087-0.76,1.867-2.081,1.867c-0.609,0-1.173-0.179-1.562-0.435L108.85,49.111z"/>
		<path d="M112.769,51.833c0.239-0.754,0.552-2.121,0.679-3.055l1.126-0.128c-0.264,1.087-0.77,2.506-1.092,3.106L112.769,51.833z"
			/>
		<path d="M42.836,64.125c0,0.537,0.022,1.061,0.093,1.483h-0.921l-0.081-0.78h-0.033c-0.312,0.485-0.908,0.921-1.701,0.921
			c-1.127,0-1.702-0.882-1.702-1.776c0-1.496,1.195-2.314,3.346-2.302v-0.128c0-0.511-0.126-1.432-1.264-1.432
			c-0.518,0-1.058,0.179-1.449,0.461l-0.229-0.742c0.459-0.332,1.127-0.55,1.828-0.55c1.7,0,2.114,1.292,2.114,2.532L42.836,64.125
			L42.836,64.125z M41.858,62.45c-1.104-0.025-2.357,0.191-2.357,1.394c0,0.729,0.438,1.074,0.954,1.074
			c0.726,0,1.186-0.512,1.346-1.035c0.034-0.115,0.059-0.243,0.059-0.358L41.858,62.45L41.858,62.45z"/>
		<path d="M44.465,61.441c0-0.793-0.021-1.433-0.046-2.021h0.908l0.046,1.061h0.022c0.414-0.754,1.068-1.201,1.978-1.201
			c1.347,0,2.357,1.266,2.357,3.145c0,2.225-1.221,3.323-2.529,3.323c-0.735,0-1.38-0.357-1.714-0.971h-0.022v3.362h-1V61.441
			L44.465,61.441z M45.466,63.09c0,0.166,0.022,0.319,0.047,0.461c0.184,0.779,0.792,1.316,1.518,1.316
			c1.068,0,1.689-0.973,1.689-2.392c0-1.24-0.587-2.302-1.655-2.302c-0.689,0-1.333,0.55-1.529,1.395
			c-0.034,0.14-0.068,0.307-0.068,0.46L45.466,63.09L45.466,63.09z"/>
		<path d="M56.039,62.463c0,2.289-1.426,3.286-2.771,3.286c-1.506,0-2.667-1.228-2.667-3.184c0-2.07,1.219-3.285,2.76-3.285
			C54.958,59.281,56.039,60.572,56.039,62.463z M51.624,62.528c0,1.355,0.701,2.377,1.69,2.377c0.966,0,1.689-1.01,1.689-2.403
			c0-1.049-0.472-2.378-1.667-2.378C52.142,60.124,51.624,61.351,51.624,62.528z"/>
		<path d="M57.311,61.441c0-0.793-0.022-1.433-0.046-2.021h0.907l0.047,1.061h0.021c0.414-0.754,1.069-1.201,1.979-1.201
			c1.346,0,2.356,1.266,2.356,3.145c0,2.225-1.22,3.323-2.529,3.323c-0.734,0-1.38-0.357-1.714-0.971h-0.021v3.362h-1V61.441
			L57.311,61.441z M58.312,63.09c0,0.166,0.021,0.319,0.046,0.461c0.184,0.779,0.792,1.316,1.518,1.316
			c1.068,0,1.689-0.973,1.689-2.392c0-1.24-0.586-2.302-1.655-2.302c-0.688,0-1.333,0.55-1.529,1.395
			c-0.033,0.14-0.067,0.307-0.067,0.46L58.312,63.09L58.312,63.09z"/>
		<path d="M65.07,57.937v1.483h1.448v0.856H65.07v3.337c0,0.768,0.194,1.202,0.758,1.202c0.275,0,0.438-0.025,0.586-0.077
			l0.046,0.844c-0.194,0.089-0.505,0.166-0.896,0.166c-0.473,0-0.852-0.179-1.093-0.485c-0.288-0.333-0.392-0.882-0.392-1.61v-3.376
			h-0.863V59.42h0.863v-1.138L65.07,57.937z"/>
		<path d="M72.621,62.463c0,2.289-1.426,3.286-2.77,3.286c-1.506,0-2.667-1.228-2.667-3.184c0-2.07,1.219-3.285,2.76-3.285
			C71.541,59.281,72.621,60.572,72.621,62.463z M68.207,62.528c0,1.355,0.7,2.377,1.69,2.377c0.966,0,1.689-1.01,1.689-2.403
			c0-1.049-0.472-2.378-1.668-2.378C68.723,60.124,68.207,61.351,68.207,62.528z"/>
		<path d="M75.113,57.937v1.483h1.449v0.856h-1.449v3.337c0,0.768,0.195,1.202,0.759,1.202c0.275,0,0.438-0.025,0.586-0.077
			l0.046,0.844c-0.194,0.089-0.506,0.166-0.896,0.166c-0.472,0-0.853-0.179-1.093-0.485c-0.288-0.333-0.393-0.882-0.393-1.61v-3.376
			H73.26V59.42h0.862v-1.138L75.113,57.937z"/>
		<path d="M78.824,57.682c0.012,0.384-0.241,0.69-0.644,0.69c-0.356,0-0.609-0.307-0.609-0.69c0-0.396,0.265-0.703,0.633-0.703
			C78.583,56.979,78.824,57.285,78.824,57.682z M77.698,65.609V59.42h1.011v6.188L77.698,65.609L77.698,65.609z"/>
		<path d="M84.353,65.378c-0.266,0.153-0.853,0.37-1.6,0.37c-1.678,0-2.771-1.278-2.771-3.17c0-1.905,1.173-3.286,2.989-3.286
			c0.598,0,1.127,0.167,1.401,0.32l-0.229,0.869c-0.241-0.153-0.62-0.293-1.172-0.293c-1.276,0-1.967,1.048-1.967,2.34
			c0,1.432,0.828,2.314,1.932,2.314c0.575,0,0.955-0.167,1.242-0.308L84.353,65.378z"/>
		<path d="M93.007,62.463c0,2.289-1.426,3.286-2.771,3.286c-1.506,0-2.667-1.228-2.667-3.184c0-2.07,1.218-3.285,2.76-3.285
			C91.926,59.281,93.007,60.572,93.007,62.463z M88.593,62.528c0,1.355,0.7,2.377,1.69,2.377c0.966,0,1.69-1.01,1.69-2.403
			c0-1.049-0.473-2.378-1.668-2.378C89.109,60.124,88.593,61.351,88.593,62.528z"/>
		<path d="M94.142,64.458c0.3,0.217,0.828,0.446,1.333,0.446c0.734,0,1.081-0.409,1.081-0.92c0-0.537-0.288-0.832-1.035-1.139
			c-1-0.396-1.473-1.01-1.473-1.751c0-0.997,0.726-1.813,1.92-1.813c0.563,0,1.059,0.179,1.369,0.383l-0.254,0.818
			c-0.219-0.153-0.62-0.358-1.138-0.358c-0.598,0-0.932,0.384-0.932,0.844c0,0.512,0.334,0.741,1.059,1.049
			c0.966,0.409,1.46,0.946,1.46,1.866c0,1.087-0.759,1.866-2.081,1.866c-0.608,0-1.173-0.179-1.562-0.435L94.142,64.458z"/>
		<path d="M100.05,57.937v1.483h1.448v0.856h-1.448v3.337c0,0.768,0.195,1.202,0.759,1.202c0.274,0,0.438-0.025,0.587-0.077
			l0.046,0.844c-0.196,0.089-0.506,0.166-0.897,0.166c-0.472,0-0.851-0.179-1.093-0.485c-0.288-0.333-0.391-0.882-0.391-1.61v-3.376
			h-0.863V59.42h0.863v-1.138L100.05,57.937z"/>
		<path d="M103.129,62.719c0.022,1.521,0.896,2.148,1.908,2.148c0.726,0,1.162-0.142,1.541-0.32l0.172,0.806
			c-0.355,0.179-0.966,0.396-1.852,0.396c-1.712,0-2.735-1.266-2.735-3.132c0-1.866,0.988-3.336,2.609-3.336
			c1.815,0,2.3,1.776,2.3,2.915c0,0.23-0.023,0.409-0.034,0.523H103.129z M106.094,61.913c0.012-0.716-0.265-1.828-1.402-1.828
			c-1.023,0-1.472,1.049-1.552,1.828H106.094z"/>
		<path d="M113.357,62.463c0,2.289-1.426,3.286-2.771,3.286c-1.506,0-2.667-1.228-2.667-3.184c0-2.07,1.22-3.285,2.761-3.285
			C112.277,59.281,113.357,60.572,113.357,62.463z M108.943,62.528c0,1.355,0.7,2.377,1.689,2.377c0.967,0,1.69-1.01,1.69-2.403
			c0-1.049-0.472-2.378-1.668-2.378C109.461,60.123,108.943,61.351,108.943,62.528z"/>
		<path d="M114.631,56.531h1v3.887h0.023c0.355-0.69,1-1.138,1.896-1.138c1.381,0,2.357,1.278,2.347,3.157
			c0,2.212-1.253,3.312-2.494,3.312c-0.806,0-1.449-0.345-1.863-1.163h-0.034l-0.046,1.023h-0.873
			c0.022-0.423,0.046-1.049,0.046-1.599L114.631,56.531L114.631,56.531z M115.631,63.128c0,0.141,0.023,0.281,0.046,0.409
			c0.195,0.779,0.782,1.316,1.519,1.316c1.058,0,1.688-0.959,1.688-2.378c0-1.24-0.573-2.302-1.653-2.302
			c-0.69,0-1.334,0.524-1.541,1.381c-0.022,0.128-0.059,0.281-0.059,0.461V63.128z"/>
		<path d="M121.17,56.531h1.013v9.077h-1.013V56.531z"/>
		<path d="M127.791,64.125c0,0.537,0.022,1.061,0.092,1.483h-0.92l-0.08-0.78h-0.034c-0.311,0.485-0.908,0.921-1.701,0.921
			c-1.127,0-1.701-0.882-1.701-1.776c0-1.496,1.195-2.314,3.346-2.302v-0.128c0-0.511-0.127-1.432-1.265-1.432
			c-0.519,0-1.058,0.179-1.448,0.461l-0.229-0.742c0.46-0.332,1.127-0.55,1.828-0.55c1.7,0,2.114,1.292,2.114,2.532L127.791,64.125
			L127.791,64.125z M126.813,62.45c-1.104-0.025-2.356,0.191-2.356,1.394c0,0.729,0.438,1.074,0.954,1.074
			c0.724,0,1.185-0.512,1.345-1.035c0.035-0.115,0.059-0.243,0.059-0.358L126.813,62.45L126.813,62.45z"/>
		<path d="M129.283,64.458c0.299,0.217,0.828,0.446,1.333,0.446c0.735,0,1.08-0.409,1.08-0.92c0-0.537-0.287-0.832-1.034-1.139
			c-1-0.396-1.472-1.01-1.472-1.751c0-0.997,0.724-1.813,1.92-1.813c0.562,0,1.058,0.179,1.368,0.383l-0.253,0.818
			c-0.22-0.153-0.621-0.358-1.14-0.358c-0.598,0-0.931,0.384-0.931,0.844c0,0.512,0.333,0.741,1.059,1.049
			c0.967,0.409,1.46,0.946,1.46,1.866c0,1.087-0.76,1.866-2.081,1.866c-0.608,0-1.173-0.179-1.562-0.435L129.283,64.458z"/>
		<path d="M135.189,57.937v1.483h1.449v0.856h-1.449v3.337c0,0.768,0.194,1.202,0.759,1.202c0.275,0,0.437-0.025,0.586-0.077
			l0.046,0.844c-0.196,0.089-0.506,0.166-0.896,0.166c-0.473,0-0.853-0.179-1.094-0.485c-0.287-0.333-0.392-0.882-0.392-1.61v-3.376
			h-0.862V59.42h0.862v-1.138L135.189,57.937z"/>
		<path d="M137.636,64.458c0.3,0.217,0.827,0.446,1.332,0.446c0.735,0,1.081-0.409,1.081-0.92c0-0.537-0.287-0.832-1.034-1.139
			c-1-0.396-1.473-1.01-1.473-1.751c0-0.997,0.726-1.813,1.921-1.813c0.563,0,1.058,0.179,1.368,0.383l-0.254,0.818
			c-0.219-0.153-0.62-0.358-1.138-0.358c-0.599,0-0.933,0.384-0.933,0.844c0,0.512,0.334,0.741,1.06,1.049
			c0.966,0.409,1.46,0.946,1.46,1.866c0,1.087-0.759,1.866-2.08,1.866c-0.609,0-1.174-0.179-1.563-0.435L137.636,64.458z"/>
	</g>
</g>
<g id="g1177_2_">
	<path id="path30085_2_" fill="none" stroke="#010101" stroke-width="2" stroke-linecap="round" stroke-linejoin="round" d="
		M148.165,236.156l-7.56-2.739l-0.426,0.212l-16.886,10.848"/>
	<path id="path84039_2_" fill="none" stroke="#010101" stroke-width="2" stroke-linecap="round" stroke-linejoin="round" d="
		M140.971,222.053l-1.646,8.655l-0.379,0.308l-16.886,10.85"/>
</g>
<g id="g1177_3_">
	<path id="path30085_3_" fill="none" stroke="#010101" stroke-width="2" stroke-linecap="round" stroke-linejoin="round" d="
		M135.395,122.477l-7.561-2.739l-0.425,0.212l-16.886,10.85"/>
	<path id="path84039_3_" fill="none" stroke="#010101" stroke-width="2" stroke-linecap="round" stroke-linejoin="round" d="
		M128.202,108.372l-1.646,8.654l-0.378,0.308l-16.889,10.851"/>
</g>
<g id="g1181_3_">
	
		<radialGradient id="rect78407_2_" cx="-2268.9124" cy="-1098.2896" r="13.8352" gradientTransform="matrix(0.3959 0.1223 -0.1338 0.4325 914.6542 850.0007)" gradientUnits="userSpaceOnUse">
		<stop  offset="0" style="stop-color:#D0C4E0"/>
		<stop  offset="0.3949" style="stop-color:#C2D2EC"/>
		<stop  offset="0.5372" style="stop-color:#B9CBE9"/>
		<stop  offset="0.6386" style="stop-color:#AEC2E5"/>
		<stop  offset="0.7206" style="stop-color:#9FB9E0"/>
		<stop  offset="0.7909" style="stop-color:#8DABD9"/>
		<stop  offset="0.8531" style="stop-color:#7696CD"/>
		<stop  offset="0.9093" style="stop-color:#5D81C1"/>
		<stop  offset="0.9593" style="stop-color:#4870B6"/>
		<stop  offset="1" style="stop-color:#4266AE"/>
	</radialGradient>
	<path id="rect78407_3_" fill="url(#rect78407_2_)" stroke="#010101" d="M161.542,90.782l7.049,2.176
		c0.898,0.279,1.385,1.299,1.077,2.283l-2.381,7.697c-0.305,0.981-1.277,1.553-2.177,1.276l-7.05-2.178
		c-0.896-0.278-1.38-1.298-1.075-2.28l2.379-7.699C159.67,91.076,160.645,90.504,161.542,90.782z"/>
</g>
<g>
	<path d="M171.052,85.459c0.322-0.062,0.746-0.114,1.284-0.114c0.662,0,1.146,0.175,1.454,0.489c0.285,0.279,0.454,0.708,0.454,1.23
		c0,0.533-0.139,0.952-0.4,1.258c-0.354,0.428-0.931,0.646-1.585,0.646c-0.199,0-0.384-0.009-0.537-0.052v2.356h-0.67V85.459
		L171.052,85.459z M171.72,88.296c0.146,0.044,0.329,0.062,0.553,0.062c0.808,0,1.301-0.445,1.301-1.258
		c0-0.777-0.484-1.152-1.224-1.152c-0.292,0-0.517,0.026-0.632,0.062L171.72,88.296L171.72,88.296z"/>
	<path d="M176.129,86.035h-1.577v-0.646h3.84v0.646h-1.585v5.239h-0.678V86.035z"/>
	<path d="M179.636,85.388v2.463h2.508v-2.463h0.677v5.886h-0.677v-2.76h-2.508v2.76h-0.67v-5.886H179.636z"/>
</g>
<g>
	
		<radialGradient id="path31151_1_" cx="-2197.5999" cy="-1136.2217" r="16.6904" gradientTransform="matrix(0.9112 0 0 -1.0037 2157.1873 -986.7075)" gradientUnits="userSpaceOnUse">
		<stop  offset="0" style="stop-color:#FFDD9E"/>
		<stop  offset="0.2912" style="stop-color:#FFDA9D"/>
		<stop  offset="0.4343" style="stop-color:#FFD297"/>
		<stop  offset="0.545" style="stop-color:#FDC68E"/>
		<stop  offset="0.6392" style="stop-color:#F9B180"/>
		<stop  offset="0.7229" style="stop-color:#F79A72"/>
		<stop  offset="0.799" style="stop-color:#F37C5C"/>
		<stop  offset="0.8695" style="stop-color:#F15C46"/>
		<stop  offset="0.9348" style="stop-color:#EF3C2E"/>
		<stop  offset="0.9951" style="stop-color:#EB2727"/>
		<stop  offset="1" style="stop-color:#EB2727"/>
	</radialGradient>
	<path id="path31151_3_" fill="url(#path31151_1_)" stroke="#010101" d="M166.036,146.581l7.509,7.067l-6.734,6.492
		c-3.036,3.058-8.174,5.065-14.003,5.065c-9.322,0-16.884-5.145-16.884-11.483c0-6.349,7.561-11.491,16.884-11.491
		C158.165,142.23,162.945,143.931,166.036,146.581z"/>
	<g>
		<path d="M142.542,149.591c0.396-0.092,0.964-0.143,1.504-0.143c0.838,0,1.379,0.173,1.758,0.56
			c0.307,0.306,0.478,0.772,0.478,1.302c0,0.905-0.504,1.505-1.145,1.749v0.031c0.469,0.184,0.747,0.671,0.893,1.384
			c0.197,0.955,0.342,1.616,0.468,1.881h-0.811c-0.101-0.203-0.234-0.782-0.405-1.637c-0.181-0.946-0.504-1.302-1.216-1.332h-0.738
			v2.97h-0.783L142.542,149.591L142.542,149.591z M143.326,152.714h0.802c0.837,0,1.369-0.519,1.369-1.302
			c0-0.886-0.566-1.271-1.396-1.281c-0.378,0-0.648,0.041-0.774,0.082L143.326,152.714L143.326,152.714z"/>
		<path d="M148.414,154.198l-0.63,2.156h-0.811l2.062-6.854h0.946l2.069,6.854h-0.837l-0.647-2.156H148.414z M150.405,153.507
			l-0.595-1.974c-0.136-0.446-0.226-0.854-0.315-1.251h-0.018c-0.09,0.407-0.189,0.824-0.308,1.241l-0.594,1.983L150.405,153.507
			L150.405,153.507z"/>
		<path d="M152.945,156.355V149.5h0.855l1.945,3.468c0.45,0.804,0.802,1.526,1.09,2.228l0.019-0.011
			c-0.072-0.915-0.09-1.749-0.09-2.816V149.5h0.737v6.854h-0.793l-1.927-3.479c-0.424-0.762-0.829-1.546-1.135-2.288l-0.027,0.01
			c0.045,0.865,0.063,1.689,0.063,2.828v2.929L152.945,156.355L152.945,156.355z"/>
		<path d="M158.872,149.5h0.784v3.306h0.026c0.163-0.264,0.324-0.508,0.479-0.732l1.855-2.573h0.973l-2.198,2.909l2.369,3.945
			h-0.928l-1.999-3.366l-0.576,0.753v2.613h-0.783V149.5H158.872z"/>
		<path d="M163.754,149.5h0.784v6.112h2.594v0.743h-3.378V149.5L163.754,149.5z"/>
	</g>
</g>
<g>
	<g id="g8433_1_">
		
			<radialGradient id="path8425_2_" cx="-2263.6086" cy="-941.1299" r="9.9078" gradientTransform="matrix(-1.4657 0 0 1.3829 -2981.8755 1454.0951)" gradientUnits="userSpaceOnUse">
			<stop  offset="0" style="stop-color:#AFE0E7"/>
			<stop  offset="0.3652" style="stop-color:#AFE0E9"/>
			<stop  offset="0.5444" style="stop-color:#ACDFED"/>
			<stop  offset="0.6833" style="stop-color:#A2DDF1"/>
			<stop  offset="0.8013" style="stop-color:#9BD0F0"/>
			<stop  offset="0.905" style="stop-color:#95BAE3"/>
			<stop  offset="0.9991" style="stop-color:#9D9CCD"/>
			<stop  offset="1" style="stop-color:#8FAEDB"/>
		</radialGradient>
		<path id="path8425_1_" fill="url(#path8425_2_)" stroke="#010101" d="M319.021,146.564c3.403-2.725,8.977-4.766,15.378-4.766
			c10.237,0,18.541,4.837,18.541,10.806c0,5.97-8.304,10.809-18.541,10.809c-5.889,0-12.155-2.508-15.551-5.001l5.568-5.971
			L319.021,146.564z"/>
	</g>
	<g>
		<path d="M326.616,149.233c0.396-0.092,0.964-0.143,1.505-0.143c0.836,0,1.377,0.174,1.756,0.56
			c0.307,0.306,0.479,0.773,0.479,1.302c0,0.905-0.505,1.505-1.146,1.75v0.03c0.468,0.184,0.748,0.671,0.892,1.384
			c0.198,0.956,0.343,1.616,0.47,1.881h-0.812c-0.099-0.203-0.233-0.782-0.404-1.637c-0.182-0.946-0.506-1.302-1.217-1.332H327.4
			v2.97h-0.783L326.616,149.233L326.616,149.233z M327.4,152.356h0.801c0.838,0,1.369-0.519,1.369-1.302
			c0-0.886-0.566-1.271-1.396-1.281c-0.378,0-0.647,0.041-0.773,0.082V152.356L327.4,152.356z"/>
		<path d="M332.488,153.84l-0.63,2.156h-0.812l2.063-6.854h0.946l2.07,6.854h-0.837l-0.648-2.156H332.488z M334.477,153.149
			l-0.595-1.974c-0.136-0.446-0.225-0.854-0.314-1.251h-0.019c-0.09,0.407-0.188,0.824-0.307,1.241l-0.594,1.983L334.477,153.149
			L334.477,153.149z"/>
		<path d="M337.018,155.996v-6.855h0.855l1.945,3.469c0.45,0.803,0.802,1.525,1.09,2.227l0.018-0.01
			c-0.071-0.915-0.09-1.75-0.09-2.817v-2.868h0.738v6.854h-0.793l-1.928-3.479c-0.425-0.763-0.829-1.547-1.137-2.288l-0.025,0.01
			c0.045,0.864,0.062,1.688,0.062,2.827v2.93H337.018L337.018,155.996z"/>
		<path d="M342.945,149.141h0.783v3.306h0.026c0.162-0.264,0.324-0.508,0.479-0.731l1.854-2.574h0.973l-2.197,2.909l2.37,3.946
			h-0.93l-1.998-3.366l-0.575,0.752v2.614h-0.784L342.945,149.141L342.945,149.141z"/>
	</g>
</g>
<g>
	<g>
		<line fill="none" stroke="#010101" x1="172.519" y1="166.228" x2="224.865" y2="195.762"/>
		<path fill="#010101" d="M226.965,195.982c-0.979-1.021-1.562-1.783-2.294-2.697l-2.031,3.602c0.429,0.03,2.112,0.259,3.494,0.568
			c1.479,0.331,2.772,0.716,3.568,1.042C229.01,197.985,228.011,197.076,226.965,195.982z"/>
		<path fill="#010101" d="M170.421,166.008c0.979,1.022,1.562,1.783,2.294,2.698l2.032-3.603c-0.43-0.03-2.114-0.258-3.495-0.567
			c-1.479-0.332-2.771-0.717-3.566-1.042C168.374,164.005,169.372,164.913,170.421,166.008z"/>
	</g>
</g>
<g>
	<g>
		<line fill="none" stroke="#010101" x1="182.04" y1="152.937" x2="312.914" y2="152.937"/>
		<path fill="#010101" d="M314.848,152.097c-1.354-0.41-2.235-0.786-3.323-1.224v4.136c0.39-0.186,1.969-0.814,3.323-1.224
			c1.451-0.438,2.768-0.737,3.619-0.845C317.616,152.834,316.301,152.534,314.848,152.097z"/>
		<path fill="#010101" d="M180.103,153.778c1.354,0.41,2.235,0.786,3.322,1.223v-4.135c-0.39,0.186-1.969,0.814-3.322,1.223
			c-1.451,0.439-2.768,0.738-3.62,0.846C177.337,153.039,178.653,153.34,180.103,153.778z"/>
	</g>
</g>
<g>
	<g>
		<line fill="none" stroke="#010101" x1="134.687" y1="113.832" x2="149.516" y2="104.624"/>
		<path fill="#010101" d="M150.478,103.236c-1.095,0.294-1.853,0.409-2.774,0.571l1.745,2.812c0.186-0.29,0.994-1.384,1.743-2.233
			c0.801-0.91,1.567-1.67,2.103-2.102C152.67,102.571,151.65,102.922,150.478,103.236z"/>
		<path fill="#010101" d="M133.725,115.22c1.094-0.293,1.852-0.409,2.774-0.571l-1.746-2.812c-0.186,0.291-0.994,1.385-1.741,2.234
			c-0.803,0.91-1.568,1.669-2.104,2.102C131.534,115.886,132.554,115.534,133.725,115.22z"/>
	</g>
</g>
<g id="g1181_1_">
	
		<radialGradient id="rect78407_4_" cx="-2162.8215" cy="-862.9917" r="13.8497" gradientTransform="matrix(0.3959 0.1223 -0.1338 0.4325 914.6542 850.0007)" gradientUnits="userSpaceOnUse">
		<stop  offset="0" style="stop-color:#D0C4E0"/>
		<stop  offset="0.3949" style="stop-color:#C2D2EC"/>
		<stop  offset="0.5372" style="stop-color:#B9CBE9"/>
		<stop  offset="0.6386" style="stop-color:#AEC2E5"/>
		<stop  offset="0.7206" style="stop-color:#9FB9E0"/>
		<stop  offset="0.7909" style="stop-color:#8DABD9"/>
		<stop  offset="0.8531" style="stop-color:#7696CD"/>
		<stop  offset="0.9093" style="stop-color:#5D81C1"/>
		<stop  offset="0.9593" style="stop-color:#4870B6"/>
		<stop  offset="1" style="stop-color:#4266AE"/>
	</radialGradient>
	<path id="rect78407_1_" fill="url(#rect78407_4_)" stroke="#010101" d="M172.076,205.529l7.05,2.176
		c0.898,0.277,1.383,1.299,1.076,2.281l-2.38,7.701c-0.304,0.978-1.278,1.549-2.178,1.272l-7.047-2.179
		c-0.897-0.275-1.382-1.299-1.077-2.28l2.38-7.698C170.203,205.822,171.179,205.249,172.076,205.529z"/>
</g>
<g>
	<path d="M181.585,200.202c0.322-0.061,0.746-0.113,1.284-0.113c0.662,0,1.146,0.175,1.454,0.489
		c0.285,0.279,0.454,0.707,0.454,1.231c0,0.531-0.139,0.951-0.4,1.257c-0.354,0.428-0.931,0.646-1.585,0.646
		c-0.2,0-0.385-0.009-0.538-0.053v2.358h-0.669V200.202L181.585,200.202z M182.254,203.041c0.146,0.044,0.331,0.061,0.555,0.061
		c0.808,0,1.301-0.445,1.301-1.257c0-0.777-0.485-1.153-1.225-1.153c-0.293,0-0.516,0.026-0.631,0.062V203.041L182.254,203.041z"/>
	<path d="M186.663,200.779h-1.578v-0.646h3.84v0.646h-1.585v5.241h-0.677V200.779L186.663,200.779z"/>
	<path d="M190.171,200.133v2.463h2.509v-2.463h0.677v5.887h-0.677v-2.76h-2.509v2.76h-0.669v-5.887H190.171z"/>
</g>
<g>
	<g>
		<line fill="none" stroke="#010101" x1="146.177" y1="227.514" x2="161.009" y2="218.302"/>
		<path fill="#010101" d="M161.969,216.914c-1.094,0.293-1.853,0.409-2.774,0.57l1.745,2.812c0.188-0.29,0.995-1.384,1.743-2.233
			c0.801-0.91,1.567-1.67,2.103-2.103C164.161,216.248,163.139,216.6,161.969,216.914z"/>
		<path fill="#010101" d="M145.216,228.9c1.095-0.293,1.854-0.408,2.775-0.57l-1.745-2.812c-0.188,0.291-0.994,1.385-1.743,2.235
			c-0.801,0.91-1.567,1.669-2.103,2.101C143.025,229.568,144.046,229.215,145.216,228.9z"/>
	</g>
</g>
<g>
	<g>
		<line fill="none" stroke="#010101" x1="89.769" y1="307.357" x2="89.661" y2="328.922"/>
		<path fill="#010101" d="M88.938,305.416c-0.417,1.354-0.798,2.232-1.239,3.316l4.135,0.021c-0.183-0.391-0.804-1.973-1.206-3.33
			c-0.431-1.453-0.724-2.771-0.827-3.624C89.69,302.654,89.384,303.968,88.938,305.416z"/>
	</g>
</g>
<g>
	<g>
		<line fill="none" stroke="#010101" x1="90.088" y1="201.135" x2="89.98" y2="222.702"/>
		<path fill="#010101" d="M89.258,199.195c-0.417,1.354-0.798,2.232-1.239,3.317l4.136,0.021c-0.184-0.391-0.805-1.973-1.207-3.33
			c-0.432-1.453-0.725-2.771-0.827-3.624C90.009,196.432,89.702,197.745,89.258,199.195z"/>
	</g>
</g>
<g>
	<g>
		<line fill="none" stroke="#010101" x1="178.19" y1="52.642" x2="178.083" y2="74.21"/>
		<path fill="#010101" d="M178.914,76.151c0.416-1.353,0.797-2.232,1.239-3.317l-4.136-0.021c0.184,0.391,0.805,1.973,1.207,3.33
			c0.432,1.453,0.725,2.77,0.826,3.624C178.163,78.913,178.469,77.599,178.914,76.151z"/>
	</g>
</g>
<g>
	<path d="M165.085,46.734c0.251,0.173,0.695,0.356,1.12,0.356c0.618,0,0.907-0.325,0.907-0.733c0-0.427-0.241-0.66-0.869-0.904
		c-0.84-0.315-1.236-0.804-1.236-1.394c0-0.793,0.608-1.444,1.612-1.444c0.474,0,0.889,0.143,1.148,0.305l-0.212,0.651
		c-0.185-0.122-0.521-0.284-0.957-0.284c-0.501,0-0.782,0.305-0.782,0.671c0,0.407,0.281,0.59,0.889,0.834
		c0.812,0.325,1.228,0.753,1.228,1.484c0,0.865-0.638,1.485-1.747,1.485c-0.514,0-0.986-0.143-1.313-0.346L165.085,46.734z"/>
	<path d="M169.334,42.726l1.023,2.909c0.106,0.325,0.223,0.712,0.3,1.007h0.019c0.088-0.295,0.185-0.672,0.301-1.027l0.927-2.889
		h0.897l-1.273,3.509c-0.608,1.688-1.024,2.554-1.604,3.082c-0.416,0.386-0.831,0.539-1.043,0.58l-0.213-0.753
		c0.213-0.071,0.493-0.214,0.744-0.438c0.231-0.193,0.521-0.539,0.715-0.997c0.038-0.091,0.068-0.162,0.068-0.213
		c0-0.052-0.021-0.123-0.059-0.234l-1.729-4.536H169.334z"/>
	<path d="M173.574,44.058c0-0.509-0.01-0.925-0.039-1.332h0.753l0.049,0.814h0.02c0.23-0.468,0.771-0.926,1.545-0.926
		c0.647,0,1.652,0.407,1.652,2.096v2.939h-0.852v-2.838c0-0.794-0.28-1.454-1.081-1.454c-0.561,0-0.994,0.416-1.14,0.915
		c-0.038,0.112-0.059,0.265-0.059,0.417v2.96h-0.851L173.574,44.058L173.574,44.058z"/>
	<path d="M179.92,41.546v1.18h1.217v0.683h-1.217v2.654c0,0.61,0.164,0.956,0.639,0.956c0.23,0,0.365-0.021,0.491-0.062l0.039,0.672
		c-0.164,0.071-0.425,0.132-0.753,0.132c-0.396,0-0.715-0.143-0.917-0.387c-0.24-0.265-0.328-0.701-0.328-1.281v-2.685h-0.725
		v-0.683h0.725V41.82L179.92,41.546z"/>
	<path d="M182.093,40.428h0.852v3.071h0.019c0.136-0.254,0.349-0.478,0.608-0.631c0.251-0.152,0.55-0.254,0.869-0.254
		c0.628,0,1.632,0.407,1.632,2.104v2.93h-0.85v-2.828c0-0.794-0.28-1.464-1.082-1.464c-0.551,0-0.985,0.406-1.141,0.895
		c-0.048,0.122-0.058,0.254-0.058,0.427v2.971h-0.852L182.093,40.428L182.093,40.428z"/>
	<path d="M187.927,45.351c0.02,1.21,0.755,1.708,1.604,1.708c0.608,0,0.976-0.111,1.295-0.254l0.146,0.641
		c-0.3,0.143-0.812,0.315-1.555,0.315c-1.438,0-2.299-1.007-2.299-2.492c0-1.484,0.83-2.654,2.191-2.654
		c1.525,0,1.932,1.413,1.932,2.319c0,0.183-0.019,0.325-0.028,0.417H187.927z M190.418,44.709c0.011-0.569-0.222-1.454-1.178-1.454
		c-0.859,0-1.236,0.834-1.304,1.454H190.418z"/>
	<path d="M192.177,46.734c0.252,0.173,0.695,0.356,1.12,0.356c0.618,0,0.907-0.325,0.907-0.733c0-0.427-0.241-0.66-0.869-0.904
		c-0.84-0.315-1.235-0.804-1.235-1.394c0-0.793,0.607-1.444,1.612-1.444c0.475,0,0.89,0.143,1.149,0.305l-0.213,0.651
		c-0.185-0.122-0.521-0.284-0.957-0.284c-0.501,0-0.782,0.305-0.782,0.671c0,0.407,0.281,0.59,0.89,0.834
		c0.812,0.325,1.227,0.753,1.227,1.484c0,0.865-0.638,1.485-1.747,1.485c-0.513,0-0.985-0.143-1.313-0.346L192.177,46.734z"/>
	<path d="M197.063,41.343c0.01,0.305-0.202,0.55-0.541,0.55c-0.299,0-0.513-0.245-0.513-0.55c0-0.314,0.224-0.559,0.531-0.559
		C196.861,40.784,197.063,41.029,197.063,41.343z M196.117,47.649v-4.923h0.85v4.923H196.117z"/>
	<path d="M198.26,46.734c0.253,0.173,0.696,0.356,1.121,0.356c0.618,0,0.906-0.325,0.906-0.733c0-0.427-0.241-0.66-0.869-0.904
		c-0.84-0.315-1.235-0.804-1.235-1.394c0-0.793,0.607-1.444,1.612-1.444c0.474,0,0.89,0.143,1.148,0.305l-0.213,0.651
		c-0.185-0.122-0.521-0.284-0.956-0.284c-0.501,0-0.782,0.305-0.782,0.671c0,0.407,0.281,0.59,0.889,0.834
		c0.812,0.325,1.228,0.753,1.228,1.484c0,0.865-0.637,1.485-1.748,1.485c-0.512,0-0.985-0.143-1.313-0.346L198.26,46.734z"/>
</g>
<g>
	<g>
		<line fill="none" stroke="#010101" x1="405.318" y1="172.401" x2="405.082" y2="217.725"/>
		<path fill="#010101" d="M406.014,219.812c0.469-1.455,0.898-2.401,1.396-3.567l-4.653-0.022c0.207,0.42,0.904,2.123,1.357,3.584
			c0.483,1.562,0.815,2.979,0.932,3.896C405.171,222.784,405.513,221.372,406.014,219.812z"/>
	</g>
</g>
<path fill="none" stroke="#010101" d="M75.104,405.085"/>
<path fill="none" stroke="#010101" d="M0.41,329.064"/>
<path fill="none" stroke="#010101" d="M75.139,405.5"/>
<path fill="none" stroke="#010101" d="M455.934,247.664"/>
<path fill="none" stroke="#010101" d="M464.934,336.664"/>
<path fill="none" stroke="#010101" stroke-dasharray="2" d="M125.54,247.711c0,16.928,2.757,21.316,13.406,21.316"/>
<g>
	<g>
		<path fill="none" stroke="#010101" d="M246.839,250.907c0,14.385-22.179,18.12-107.893,18.12"/>
		<path fill="#010101" d="M245.998,248.973c-0.409,1.354-0.786,2.235-1.222,3.322h4.135c-0.185-0.39-0.812-1.969-1.223-3.322
			c-0.438-1.451-0.737-2.769-0.845-3.621C246.736,246.204,246.436,247.521,245.998,248.973z"/>
	</g>
</g>
<g>
	<g>
		<path fill="none" stroke="#010101" stroke-dasharray="2" d="M107.024,130.835c0,12.411,4.989,15.631,24.262,15.631"/>
		<path fill="#010101" d="M133.222,145.626c-1.355-0.41-2.237-0.786-3.324-1.224v4.136c0.39-0.186,1.969-0.814,3.324-1.224
			c1.449-0.438,2.766-0.737,3.618-0.845C135.989,146.363,134.673,146.064,133.222,145.626z"/>
	</g>
</g>
<path fill="none" d="M401.335,329.773"/>
<path fill="none" d="M101.918,313.43"/>
<path fill="none" stroke="#010101" d="M458.601,264.664"/>
<g>
	<path d="M110.014,307.717c-0.748,1.057-1.291,2.458-1.291,4.409c0,1.92,0.562,3.3,1.291,4.379h-0.707
		c-0.646-0.896-1.343-2.274-1.343-4.379c0.012-2.124,0.697-3.504,1.343-4.409H110.014z"/>
	<path d="M113.602,309.463v2.534h2.314v0.647h-2.314v2.555h-0.656v-2.555h-2.315v-0.647h2.315v-2.534H113.602z"/>
	<path d="M116.536,316.505c0.728-1.067,1.291-2.47,1.291-4.411c0-1.93-0.554-3.31-1.291-4.377h0.696
		c0.656,0.885,1.342,2.264,1.342,4.389c0,2.113-0.686,3.482-1.342,4.399H116.536z"/>
</g>
<g>
	<g>
		<path d="M246.253,410.477h-1.931v-0.697h4.7v0.697h-1.939v5.651h-0.83V410.477z"/>
		<path d="M254.307,415.846c-0.367,0.131-1.094,0.348-1.95,0.348c-0.961,0-1.752-0.244-2.374-0.838
			c-0.547-0.527-0.885-1.375-0.885-2.363c0.009-1.895,1.309-3.278,3.438-3.278c0.734,0,1.31,0.16,1.583,0.291l-0.198,0.669
			c-0.339-0.15-0.763-0.271-1.403-0.271c-1.544,0-2.553,0.961-2.553,2.552c0,1.61,0.972,2.563,2.448,2.563
			c0.537,0,0.905-0.076,1.094-0.171v-1.894h-1.291v-0.659h2.093L254.307,415.846L254.307,415.846z"/>
		<path d="M255.559,409.779h3.42v0.688h-2.601v2.109h2.402v0.678h-2.402v2.874h-0.819V409.779L255.559,409.779z"/>
	</g>
	<g>
		<path fill="#010101" d="M261.25,415.328v0.777c0,0.496-0.062,1.033-0.184,1.613h-0.777c0.083-0.381,0.132-0.64,0.147-0.777
			c0.04-0.428,0.06-0.742,0.06-0.941v-4.699c0-0.549,0.055-0.955,0.163-1.221c0.109-0.266,0.305-0.486,0.589-0.664
			c0.283-0.18,0.623-0.268,1.02-0.268c0.549,0,0.986,0.147,1.314,0.44c0.327,0.295,0.492,0.644,0.492,1.05
			c0,0.26-0.066,0.508-0.2,0.741c-0.133,0.234-0.34,0.438-0.618,0.609c0.821,0.393,1.232,1.002,1.232,1.829
			c0,0.367-0.086,0.712-0.257,1.031c-0.172,0.317-0.408,0.562-0.708,0.729c-0.302,0.167-0.61,0.251-0.931,0.251
			c-0.204,0-0.408-0.035-0.608-0.106C261.783,415.654,261.539,415.521,261.25,415.328z M261.25,414.964
			c0.297,0.209,0.558,0.359,0.777,0.451c0.166,0.067,0.331,0.101,0.496,0.101c0.311,0,0.569-0.127,0.78-0.384
			c0.209-0.256,0.313-0.661,0.313-1.216c0-0.35-0.05-0.655-0.149-0.917c-0.099-0.263-0.274-0.55-0.526-0.862
			c-0.211,0.07-0.395,0.105-0.547,0.105c-0.186,0-0.313-0.027-0.39-0.083c-0.075-0.056-0.112-0.115-0.112-0.181
			c0-0.058,0.027-0.109,0.087-0.155c0.058-0.046,0.151-0.068,0.28-0.068c0.149,0,0.378,0.04,0.681,0.119
			c0.215-0.427,0.322-0.829,0.322-1.21c0-0.387-0.096-0.686-0.285-0.896c-0.19-0.211-0.427-0.316-0.708-0.316
			c-0.355,0-0.632,0.15-0.828,0.449c-0.129,0.199-0.192,0.521-0.192,0.961L261.25,414.964L261.25,414.964z"/>
	</g>
</g>
<g>
	<g>
		<line fill="none" stroke="#010101" x1="89.769" y1="307.357" x2="89.661" y2="328.922"/>
		<path fill="#010101" d="M88.938,305.416c-0.417,1.354-0.798,2.232-1.239,3.316l4.135,0.021c-0.183-0.391-0.804-1.973-1.206-3.33
			c-0.431-1.453-0.724-2.771-0.827-3.624C89.69,302.654,89.384,303.968,88.938,305.416z"/>
	</g>
</g>
<g>
	<g>
		<line fill="none" stroke="#010101" x1="91.755" y1="83.588" x2="91.596" y2="115.101"/>
		<path fill="#010101" d="M90.924,81.648c-0.416,1.353-0.798,2.232-1.238,3.316l4.135,0.021c-0.183-0.39-0.803-1.972-1.206-3.33
			c-0.431-1.452-0.724-2.771-0.826-3.623C91.676,78.885,91.369,80.198,90.924,81.648z"/>
	</g>
</g>
<g>
	<g>
		<line fill="none" stroke="#010101" x1="263.433" y1="245.225" x2="263.31" y2="269.951"/>
		<path fill="#010101" d="M264.14,271.893c0.416-1.354,0.798-2.231,1.239-3.316l-4.136-0.021c0.185,0.392,0.803,1.973,1.206,3.33
			c0.431,1.453,0.725,2.771,0.827,3.624C263.389,274.656,263.695,273.341,264.14,271.893z"/>
	</g>
</g>
<g>
	<path d="M242.855,284.434c0.018,1.217,0.718,1.721,1.527,1.721c0.58,0,0.931-0.113,1.233-0.258l0.138,0.646
		c-0.285,0.144-0.772,0.317-1.481,0.317c-1.371,0-2.191-1.014-2.191-2.508s0.792-2.672,2.09-2.672c1.455,0,1.843,1.424,1.843,2.334
		c0,0.185-0.019,0.327-0.027,0.42H242.855L242.855,284.434z M245.23,283.789c0.009-0.573-0.213-1.463-1.123-1.463
		c-0.82,0-1.181,0.839-1.243,1.463H245.23z"/>
	<path d="M247.014,279.48h0.811v7.267h-0.811V279.48z"/>
	<path d="M250.088,280.402c0.011,0.308-0.191,0.553-0.516,0.553c-0.285,0-0.488-0.245-0.488-0.553c0-0.317,0.213-0.562,0.507-0.562
		C249.894,279.84,250.088,280.085,250.088,280.402z M249.185,286.746v-4.952h0.811v4.952H249.185z"/>
	<path d="M251.34,283.135c0-0.512-0.01-0.932-0.036-1.341h0.707l0.037,0.799h0.028c0.248-0.471,0.663-0.911,1.399-0.911
		c0.605,0,1.066,0.41,1.261,0.993h0.018c0.139-0.276,0.313-0.491,0.497-0.645c0.268-0.226,0.562-0.349,0.985-0.349
		c0.59,0,1.464,0.43,1.464,2.147v2.917h-0.792v-2.805c0-0.95-0.312-1.522-0.967-1.522c-0.462,0-0.82,0.378-0.958,0.817
		c-0.037,0.121-0.064,0.287-0.064,0.449v3.061h-0.792v-2.968c0-0.787-0.312-1.359-0.931-1.359c-0.506,0-0.874,0.449-1.003,0.899
		c-0.046,0.133-0.065,0.287-0.065,0.439v2.988h-0.791v-3.613h0.003V283.135z"/>
	<path d="M259.916,280.402c0.01,0.308-0.192,0.553-0.516,0.553c-0.285,0-0.488-0.245-0.488-0.553c0-0.317,0.213-0.562,0.507-0.562
		C259.722,279.84,259.916,280.085,259.916,280.402z M259.014,286.746v-4.952h0.811v4.952H259.014z"/>
	<path d="M261.167,283.135c0-0.512-0.009-0.932-0.037-1.341h0.72l0.046,0.817h0.019c0.221-0.471,0.736-0.932,1.474-0.932
		c0.616,0,1.573,0.41,1.573,2.108v2.957h-0.81v-2.854c0-0.799-0.268-1.464-1.031-1.464c-0.533,0-0.948,0.421-1.086,0.923
		c-0.037,0.111-0.056,0.266-0.056,0.418v2.979h-0.811L261.167,283.135L261.167,283.135z"/>
	<path d="M269.404,285.561c0,0.43,0.018,0.85,0.074,1.187h-0.736l-0.065-0.624h-0.026c-0.248,0.391-0.729,0.736-1.362,0.736
		c-0.902,0-1.363-0.705-1.363-1.422c0-1.197,0.958-1.854,2.682-1.843v-0.103c0-0.409-0.103-1.146-1.014-1.146
		c-0.415,0-0.847,0.145-1.159,0.368l-0.186-0.594c0.368-0.267,0.903-0.44,1.465-0.44c1.362,0,1.693,1.034,1.693,2.026
		L269.404,285.561L269.404,285.561z M268.621,284.219c-0.884-0.021-1.888,0.154-1.888,1.115c0,0.584,0.351,0.859,0.765,0.859
		c0.581,0,0.949-0.408,1.077-0.828c0.027-0.094,0.046-0.194,0.046-0.287V284.219z"/>
	<path d="M271.65,280.607v1.188h1.159v0.686h-1.159v2.672c0,0.613,0.155,0.963,0.605,0.963c0.222,0,0.352-0.021,0.471-0.062
		l0.037,0.674c-0.156,0.072-0.405,0.135-0.72,0.135c-0.378,0-0.681-0.145-0.874-0.389c-0.229-0.267-0.312-0.707-0.312-1.291v-2.701
		h-0.69v-0.686h0.69v-0.911L271.65,280.607z"/>
	<path d="M274.622,280.402c0.009,0.308-0.192,0.553-0.516,0.553c-0.286,0-0.489-0.245-0.489-0.553c0-0.317,0.212-0.562,0.506-0.562
		C274.427,279.84,274.622,280.085,274.622,280.402z M273.719,286.746v-4.952h0.811v4.952H273.719z"/>
	<path d="M279.905,284.229c0,1.832-1.142,2.631-2.219,2.631c-1.206,0-2.137-0.981-2.137-2.549c0-1.656,0.977-2.629,2.209-2.629
		C279.039,281.682,279.905,282.715,279.905,284.229z M276.37,284.281c0,1.085,0.562,1.902,1.354,1.902
		c0.771,0,1.353-0.809,1.353-1.925c0-0.838-0.377-1.901-1.335-1.901S276.37,283.339,276.37,284.281z"/>
	<path d="M280.924,283.135c0-0.512-0.009-0.932-0.036-1.341h0.719l0.046,0.817h0.019c0.223-0.471,0.736-0.932,1.475-0.932
		c0.616,0,1.572,0.41,1.572,2.108v2.957h-0.81v-2.854c0-0.799-0.267-1.464-1.031-1.464c-0.532,0-0.947,0.421-1.086,0.923
		c-0.036,0.111-0.056,0.266-0.056,0.418v2.979h-0.811L280.924,283.135L280.924,283.135z"/>
</g>
<path fill="none" stroke="#010101" stroke-dasharray="2" d="M352.495,156.727c0,7.401,6.366,9.322,30.963,9.322"/>
<path fill="none" stroke="#010101" stroke-dasharray="2" d="M403.488,171.88c0-4.864-4.313-6.126-20.982-6.126"/>
<ellipse fill="#58B7DD" stroke="#010101" cx="263.443" cy="215.327" rx="34.587" ry="26.002"/>
<g>
	<g>
		<line fill="none" stroke="#010101" x1="407.118" y1="298.161" x2="407.016" y2="318.052"/>
		<path fill="#010101" d="M407.845,319.993c0.417-1.354,0.799-2.233,1.241-3.318l-4.137-0.021c0.184,0.391,0.804,1.973,1.207,3.33
			c0.431,1.453,0.724,2.771,0.826,3.623C407.094,322.755,407.402,321.441,407.845,319.993z"/>
	</g>
</g>
<g>
	<path d="M260.853,215.686c0,2.967-1.621,4.539-3.599,4.539c-2.047,0-3.483-1.765-3.483-4.373c0-2.735,1.528-4.525,3.599-4.525
		C259.486,211.326,260.853,213.129,260.853,215.686z M254.841,215.826c0,1.841,0.897,3.49,2.474,3.49
		c1.587,0,2.481-1.623,2.481-3.58c0-1.713-0.804-3.502-2.472-3.502C255.668,212.234,254.841,213.934,254.841,215.826z"/>
	<path d="M262.149,211.57c0.481-0.09,1.114-0.168,1.92-0.168c0.988,0,1.713,0.258,2.172,0.717c0.427,0.408,0.679,1.037,0.679,1.803
		c0,0.78-0.207,1.395-0.598,1.842c-0.53,0.627-1.392,0.945-2.369,0.945c-0.299,0-0.574-0.014-0.804-0.077v3.452h-1.001
		L262.149,211.57L262.149,211.57z M263.149,215.725c0.218,0.062,0.494,0.088,0.827,0.088c1.207,0,1.941-0.65,1.941-1.84
		c0-1.139-0.724-1.688-1.827-1.688c-0.437,0-0.77,0.038-0.94,0.089L263.149,215.725L263.149,215.725z"/>
	<path d="M274.16,219.7c-0.448,0.179-1.334,0.473-2.38,0.473c-1.172,0-2.138-0.332-2.896-1.138
		c-0.666-0.717-1.079-1.866-1.079-3.209c0.011-2.569,1.598-4.449,4.194-4.449c0.897,0,1.599,0.218,1.932,0.396l-0.241,0.906
		c-0.414-0.203-0.932-0.369-1.713-0.369c-1.887,0-3.115,1.305-3.115,3.465c0,2.187,1.184,3.478,2.989,3.478
		c0.654,0,1.104-0.103,1.333-0.229v-2.569h-1.574v-0.896h2.552L274.16,219.7L274.16,219.7z"/>
</g>
<g>
	<path d="M385.319,312.383c-0.747,1.057-1.29,2.459-1.29,4.41c0,1.92,0.562,3.3,1.29,4.378h-0.706
		c-0.646-0.896-1.344-2.274-1.344-4.378c0.012-2.125,0.697-3.504,1.344-4.41H385.319z"/>
	<path d="M388.907,314.13v2.534h2.314v0.646h-2.314v2.556h-0.656v-2.556h-2.315v-0.646h2.315v-2.534H388.907z"/>
	<path d="M391.841,321.171c0.729-1.067,1.291-2.47,1.291-4.41c0-1.93-0.554-3.311-1.291-4.378h0.697
		c0.655,0.885,1.343,2.266,1.343,4.389c0,2.113-0.688,3.483-1.343,4.399H391.841z"/>
</g>
<g>
	<path d="M68.558,212.115c-0.748,1.058-1.291,2.459-1.291,4.41c0,1.92,0.563,3.3,1.291,4.379h-0.706
		c-0.646-0.896-1.344-2.275-1.344-4.379c0.012-2.125,0.697-3.504,1.344-4.41H68.558z"/>
	<path d="M71.602,216.331v0.7h-2.529v-0.7H71.602z"/>
	<path d="M72.116,220.902c0.727-1.067,1.291-2.469,1.291-4.409c0-1.931-0.554-3.312-1.291-4.378h0.696
		c0.655,0.884,1.343,2.264,1.343,4.389c0,2.113-0.688,3.482-1.343,4.398H72.116z"/>
</g>
<g>
	<g>
		<path d="M246.775,369.626h-1.932v-0.698h4.7v0.698h-1.938v5.651h-0.83V369.626z"/>
		<path d="M254.83,374.994c-0.367,0.133-1.093,0.349-1.951,0.349c-0.96,0-1.752-0.245-2.373-0.838
			c-0.547-0.526-0.886-1.375-0.886-2.364c0.01-1.894,1.311-3.277,3.438-3.277c0.733,0,1.309,0.16,1.583,0.291l-0.198,0.67
			c-0.339-0.151-0.763-0.274-1.404-0.274c-1.544,0-2.552,0.962-2.552,2.554c0,1.61,0.971,2.562,2.448,2.562
			c0.537,0,0.904-0.075,1.093-0.17v-1.893h-1.29v-0.66h2.092V374.994L254.83,374.994z"/>
		<path d="M256.082,368.928h3.42v0.688h-2.6v2.11h2.402v0.678h-2.402v2.873h-0.82V368.928z"/>
	</g>
	<g>
		<path fill="#010101" d="M261.772,374.479v0.776c0,0.496-0.062,1.035-0.186,1.614h-0.775c0.083-0.38,0.132-0.639,0.146-0.776
			c0.04-0.43,0.061-0.743,0.061-0.942v-4.698c0-0.55,0.054-0.956,0.163-1.222c0.108-0.265,0.305-0.486,0.589-0.664
			c0.282-0.178,0.623-0.268,1.019-0.268c0.549,0,0.987,0.146,1.315,0.441c0.327,0.294,0.492,0.644,0.492,1.049
			c0,0.26-0.066,0.507-0.2,0.741c-0.133,0.233-0.34,0.438-0.618,0.608c0.821,0.394,1.231,1.004,1.231,1.83
			c0,0.368-0.086,0.713-0.257,1.03c-0.172,0.319-0.407,0.562-0.709,0.729c-0.301,0.168-0.608,0.25-0.93,0.25
			c-0.204,0-0.408-0.035-0.608-0.104S262.061,374.671,261.772,374.479z M261.772,374.115c0.297,0.209,0.557,0.359,0.776,0.451
			c0.166,0.065,0.331,0.101,0.496,0.101c0.311,0,0.57-0.127,0.78-0.384c0.209-0.258,0.314-0.662,0.314-1.217
			c0-0.351-0.051-0.655-0.149-0.916c-0.1-0.262-0.275-0.551-0.527-0.863c-0.211,0.07-0.394,0.105-0.548,0.105
			c-0.184,0-0.312-0.026-0.388-0.082c-0.076-0.057-0.113-0.115-0.113-0.181c0-0.06,0.028-0.11,0.087-0.155
			c0.059-0.047,0.152-0.07,0.281-0.07c0.149,0,0.377,0.041,0.68,0.121c0.215-0.428,0.322-0.83,0.322-1.211
			c0-0.387-0.095-0.686-0.285-0.896c-0.189-0.211-0.426-0.316-0.708-0.316c-0.354,0-0.632,0.15-0.828,0.45
			c-0.129,0.199-0.191,0.521-0.191,0.962L261.772,374.115L261.772,374.115z"/>
	</g>
</g>
<g>
	<g>
		<path d="M360.205,296.784h-1.931v-0.698h4.699v0.698h-1.938v5.651h-0.83V296.784L360.205,296.784z"/>
		<path d="M368.26,302.154c-0.367,0.132-1.094,0.348-1.951,0.348c-0.961,0-1.752-0.245-2.373-0.837
			c-0.547-0.528-0.885-1.376-0.885-2.365c0.009-1.894,1.31-3.276,3.438-3.276c0.733,0,1.309,0.16,1.582,0.291l-0.197,0.668
			c-0.339-0.15-0.763-0.271-1.404-0.271c-1.545,0-2.552,0.96-2.552,2.552c0,1.611,0.971,2.562,2.448,2.562
			c0.537,0,0.905-0.075,1.094-0.169v-1.895h-1.291v-0.66h2.092L368.26,302.154L368.26,302.154z"/>
		<path d="M369.51,296.087h3.42v0.688h-2.6v2.108h2.402v0.679h-2.402v2.873h-0.82V296.087z"/>
	</g>
	<g>
		<path fill="#010101" d="M375.203,301.637v0.777c0,0.496-0.063,1.034-0.187,1.613h-0.775c0.083-0.381,0.132-0.639,0.146-0.776
			c0.04-0.429,0.061-0.744,0.061-0.942v-4.699c0-0.549,0.054-0.955,0.163-1.221c0.108-0.265,0.305-0.486,0.589-0.664
			c0.283-0.179,0.623-0.268,1.019-0.268c0.549,0,0.987,0.148,1.315,0.441c0.327,0.295,0.492,0.644,0.492,1.049
			c0,0.26-0.066,0.507-0.2,0.742c-0.133,0.233-0.34,0.438-0.618,0.607c0.821,0.393,1.231,1.003,1.231,1.83
			c0,0.368-0.086,0.712-0.257,1.03c-0.172,0.319-0.407,0.562-0.709,0.729c-0.301,0.167-0.608,0.251-0.93,0.251
			c-0.204,0-0.408-0.035-0.608-0.105C375.735,301.962,375.491,301.83,375.203,301.637z M375.203,301.273
			c0.296,0.209,0.557,0.359,0.775,0.451c0.166,0.066,0.331,0.102,0.496,0.102c0.311,0,0.57-0.127,0.78-0.385
			c0.209-0.256,0.314-0.66,0.314-1.215c0-0.351-0.051-0.656-0.149-0.918c-0.1-0.262-0.275-0.55-0.527-0.863
			c-0.211,0.072-0.394,0.106-0.548,0.106c-0.184,0-0.312-0.026-0.389-0.083c-0.075-0.056-0.112-0.115-0.112-0.18
			c0-0.059,0.028-0.11,0.087-0.156s0.152-0.068,0.281-0.068c0.149,0,0.377,0.039,0.68,0.119c0.216-0.428,0.322-0.83,0.322-1.209
			c0-0.388-0.095-0.687-0.285-0.897c-0.188-0.211-0.426-0.317-0.708-0.317c-0.355,0-0.632,0.151-0.828,0.451
			c-0.129,0.199-0.191,0.52-0.191,0.961v4.104h0.002V301.273z"/>
	</g>
</g>
<path fill="none" stroke="#010101" d="M464.267,347.665"/>
<g>
	<g>
		<path fill="none" stroke="#010101" d="M455.934,250.034h40c5.5,0,10,4.5,10,10v135.63c0,5.5-4.5,10-10,10H7.935
			c-5.5,0-10-4.5-10-10v-177c0-5.5,4.5-10,10-10h75.667"/>
		<polygon fill="#010101" points="80.793,212.367 82.366,208.664 80.793,204.96 89.571,208.664 		"/>
	</g>
</g>
<g>
	<g>
		<path fill="none" stroke="#000000" d="M455.934,270.664h17c5.5,0,10,4.5,10,10v93c0,5.5-4.5,10-10,10H182.935c-5.5,0-10-4.5-10-10
			v-43c0-5.5-4.5-10-10-10H96.269"/>
		<polygon points="99.077,316.961 97.505,320.664 99.077,324.368 90.3,320.664 		"/>
	</g>
</g>
<g>
	<g>
		<path fill="none" stroke="#000000" d="M352.756,260.294c0,0-3.56,0-7.91,0c-4.35,0-7.91,4.5-7.91,10v27.37c0,5.5,4.5,10,10,10h55"
			/>
		<polygon points="399.127,311.367 400.699,307.664 399.127,303.96 407.904,307.664 		"/>
	</g>
</g>
<g>
	<path d="M115.004,133.737c-0.747,1.057-1.29,2.459-1.29,4.41c0,1.92,0.563,3.3,1.29,4.378h-0.706
		c-0.646-0.895-1.343-2.274-1.343-4.378c0.011-2.125,0.697-3.504,1.343-4.41H115.004z"/>
	<path d="M118.592,135.484v2.534h2.315v0.646h-2.315v2.556h-0.655v-2.556h-2.315v-0.646h2.315v-2.534H118.592z"/>
	<path d="M121.525,142.525c0.729-1.067,1.291-2.47,1.291-4.41c0-1.93-0.554-3.312-1.291-4.378h0.697
		c0.654,0.884,1.343,2.265,1.343,4.389c0,2.113-0.688,3.483-1.343,4.399H121.525L121.525,142.525z"/>
</g>
<g>
	<path d="M406.346,159.181c-0.747,1.057-1.29,2.459-1.29,4.41c0,1.92,0.563,3.3,1.29,4.378h-0.706
		c-0.646-0.895-1.343-2.274-1.343-4.378c0.011-2.125,0.697-3.504,1.343-4.41H406.346z"/>
	<path d="M409.934,160.928v2.534h2.315v0.646h-2.315v2.556h-0.655v-2.556h-2.315v-0.646h2.315v-2.534H409.934z"/>
	<path d="M412.869,167.969c0.729-1.067,1.291-2.47,1.291-4.41c0-1.93-0.554-3.311-1.291-4.378h0.697
		c0.654,0.884,1.343,2.265,1.343,4.389c0,2.113-0.688,3.483-1.343,4.399H412.869z"/>
</g>
<g>
	<path d="M131.421,251.748c-0.748,1.057-1.291,2.459-1.291,4.41c0,1.92,0.564,3.299,1.291,4.379h-0.706
		c-0.646-0.896-1.343-2.275-1.343-4.379c0.011-2.125,0.697-3.504,1.343-4.41H131.421z"/>
	<path d="M134.465,255.963v0.701h-2.528v-0.701H134.465z"/>
	<path d="M134.979,260.535c0.727-1.068,1.291-2.469,1.291-4.41c0-1.93-0.555-3.311-1.291-4.377h0.695
		c0.656,0.883,1.344,2.264,1.344,4.389c0,2.113-0.688,3.482-1.344,4.398H134.979z"/>
</g>
</svg>
