<?xml version="1.0" encoding="UTF-8" standalone="no"?>
<!DOCTYPE svg PUBLIC "-//W3C//DTD SVG 1.1//EN"
 "http://www.w3.org/Graphics/SVG/1.1/DTD/svg11.dtd">
<!-- Generated by graphviz version 2.24.0 (20090616.2323)
 -->
<!-- Title: G Pages: 1 -->
<svg width="696pt" height="146pt"
 viewBox="0.00 0.00 696.00 146.00" xmlns="http://www.w3.org/2000/svg" xmlns:xlink="http://www.w3.org/1999/xlink">
<g id="graph1" class="graph" transform="scale(1 1) rotate(0) translate(4 142)">
<title>G</title>
<polygon fill="white" stroke="white" points="-4,5 -4,-142 693,-142 693,5 -4,5"/>
<!-- M -->
<g id="node1" class="node"><title>M</title>
<ellipse fill="none" stroke="black" cx="281" cy="-120" rx="27" ry="18"/>
<text text-anchor="middle" x="281" y="-117.5" font-family="Times Roman,serif" font-size="10.00">M</text>
</g>
<!-- TL_intermediate_m -->
<g id="node22" class="node"><title>TL_intermediate_m</title>
<ellipse fill="black" stroke="black" cx="345" cy="-46" rx="0.036" ry="0.036"/>
</g>
<!-- M&#45;&gt;TL_intermediate_m -->
<g id="edge24" class="edge"><title>M&#45;&gt;TL_intermediate_m</title>
<path fill="none" stroke="black" d="M294.573,-104.307C312.772,-83.2633 343.035,-48.272 344.909,-46.1056"/>
</g>
<!-- mRNAD_intermediate_r -->
<g id="node26" class="node"><title>mRNAD_intermediate_r</title>
<ellipse fill="black" stroke="black" cx="345" cy="-120" rx="0.036" ry="0.036"/>
</g>
<!-- M&#45;&gt;mRNAD_intermediate_r -->
<g id="edge28" class="edge"><title>M&#45;&gt;mRNAD_intermediate_r</title>
<path fill="none" stroke="black" d="M308.142,-120C325.04,-120 343.788,-120 344.944,-120"/>
</g>
<!-- P -->
<g id="node2" class="node"><title>P</title>
<polyline fill="none" stroke="black" points="424,-46 394,-46 "/>
<path fill="none" stroke="black" d="M394,-46C388,-46 382,-40 382,-34"/>
<polyline fill="none" stroke="black" points="382,-34 382,-22 "/>
<path fill="none" stroke="black" d="M382,-22C382,-16 388,-10 394,-10"/>
<polyline fill="none" stroke="black" points="394,-10 424,-10 "/>
<path fill="none" stroke="black" d="M424,-10C430,-10 436,-16 436,-22"/>
<polyline fill="none" stroke="black" points="436,-22 436,-34 "/>
<path fill="none" stroke="black" d="M436,-34C436,-40 430,-46 424,-46"/>
<text text-anchor="middle" x="409" y="-25.5" font-family="Times Roman,serif" font-size="10.00">Pt</text>
</g>
<!-- TC_intermediate_m -->
<g id="node11" class="node"><title>TC_intermediate_m</title>
<ellipse fill="black" stroke="black" cx="472" cy="-69" rx="0.036" ry="0.036"/>
</g>
<!-- P&#45;&gt;TC_intermediate_m -->
<g id="edge12" class="edge"><title>P&#45;&gt;TC_intermediate_m</title>
<path fill="none" stroke="black" d="M436.083,-45.6256C452.625,-56.3908 470.824,-68.2347 471.945,-68.9645"/>
</g>
<!-- ProteinD_intermediate_r -->
<g id="node34" class="node"><title>ProteinD_intermediate_r</title>
<ellipse fill="black" stroke="black" cx="472" cy="-26" rx="0.036" ry="0.036"/>
</g>
<!-- P&#45;&gt;ProteinD_intermediate_r -->
<g id="edge36" class="edge"><title>P&#45;&gt;ProteinD_intermediate_r</title>
<path fill="none" stroke="black" d="M436.083,-27.1402C452.625,-26.6151 470.824,-26.0373 471.945,-26.0017"/>
</g>
<!-- DBT_intermediate_r -->
<g id="node42" class="node"><title>DBT_intermediate_r</title>
<ellipse fill="black" stroke="black" cx="472" cy="-46" rx="0.036" ry="0.036"/>
</g>
<!-- P&#45;&gt;DBT_intermediate_r -->
<g id="edge44" class="edge"><title>P&#45;&gt;DBT_intermediate_r</title>
<path fill="none" stroke="black" d="M436.083,-35.7381C452.625,-40.4642 470.824,-45.664 471.945,-45.9844"/>
</g>
<!-- TC -->
<g id="node3" class="node"><title>TC</title>
<polygon fill="none" stroke="black" points="160,-101 146,-101 146,-87 160,-87 160,-101"/>
</g>
<!-- TC_intermediate_p -->
<g id="node8" class="node"><title>TC_intermediate_p</title>
<ellipse fill="black" stroke="black" cx="217" cy="-111" rx="0.036" ry="0.036"/>
</g>
<!-- TC&#45;&gt;TC_intermediate_p -->
<g id="edge6" class="edge"><title>TC&#45;&gt;TC_intermediate_p</title>
<path fill="none" stroke="black" d="M160.342,-95.9501C176.627,-100.276 214.532,-110.344 216.885,-110.97"/>
</g>
<!-- TC&#45;&gt;TC_intermediate_m -->
<g id="edge10" class="edge"><title>TC&#45;&gt;TC_intermediate_m</title>
<path fill="none" stroke="black" d="M172.005,-89.143C196.875,-83.2233 241.898,-74 281,-74 281,-74 281,-74 345,-74 400.606,-74 469.8,-69.155 471.949,-69.0036"/>
<polygon fill="none" stroke="black" points="171.803,-89.1929 166.943,-94.5199 160.156,-92.0823 165.016,-86.7553 171.803,-89.1929"/>
</g>
<!-- TC_intermediate_r -->
<g id="node4" class="node"><title>TC_intermediate_r</title>
<ellipse fill="black" stroke="black" cx="90" cy="-94" rx="0.036" ry="0.036"/>
</g>
<!-- TC_intermediate_r&#45;&gt;TC -->
<g id="edge2" class="edge"><title>TC_intermediate_r&#45;&gt;TC</title>
<path fill="none" stroke="black" d="M90.0457,-94C91.551,-94 129.877,-94 145.979,-94"/>
</g>
<!-- TC_empty -->
<g id="node6" class="node"><title>TC_empty</title>
<text text-anchor="middle" x="27" y="-89.5" font-family="Times Roman,serif" font-size="15.00" fill="blue">Ø</text>
</g>
<!-- TC_empty&#45;&gt;TC_intermediate_r -->
<g id="edge4" class="edge"><title>TC_empty&#45;&gt;TC_intermediate_r</title>
<path fill="none" stroke="black" d="M54.0833,-94C70.6248,-94 88.8241,-94 89.9454,-94"/>
</g>
<!-- TC_intermediate_p&#45;&gt;M -->
<g id="edge8" class="edge"><title>TC_intermediate_p&#45;&gt;M</title>
<path fill="none" stroke="black" d="M217.046,-111.007C217.905,-111.127 230.565,-112.908 244.397,-114.853"/>
<polygon fill="black" stroke="black" points="244.134,-118.35 254.524,-116.277 245.109,-111.418 244.134,-118.35"/>
</g>
<!-- TL -->
<g id="node14" class="node"><title>TL</title>
<polygon fill="none" stroke="black" points="288,-42 274,-42 274,-28 288,-28 288,-42"/>
</g>
<!-- TL_intermediate_p -->
<g id="node19" class="node"><title>TL_intermediate_p</title>
<ellipse fill="black" stroke="black" cx="345" cy="-28" rx="0.036" ry="0.036"/>
</g>
<!-- TL&#45;&gt;TL_intermediate_p -->
<g id="edge18" class="edge"><title>TL&#45;&gt;TL_intermediate_p</title>
<path fill="none" stroke="black" d="M288.342,-34.197C304.627,-32.4158 342.532,-28.2699 344.885,-28.0126"/>
</g>
<!-- TL&#45;&gt;TL_intermediate_m -->
<g id="edge22" class="edge"><title>TL&#45;&gt;TL_intermediate_m</title>
<path fill="none" stroke="black" d="M300.197,-38.2994C318.319,-41.4142 343.001,-45.6564 344.885,-45.9803"/>
<polygon fill="none" stroke="black" points="300.168,-38.2946 293.577,-41.2204 288.342,-36.2618 294.933,-33.336 300.168,-38.2946"/>
</g>
<!-- TL_intermediate_r -->
<g id="node15" class="node"><title>TL_intermediate_r</title>
<ellipse fill="black" stroke="black" cx="217" cy="-35" rx="0.036" ry="0.036"/>
</g>
<!-- TL_intermediate_r&#45;&gt;TL -->
<g id="edge14" class="edge"><title>TL_intermediate_r&#45;&gt;TL</title>
<path fill="none" stroke="black" d="M217.046,-35C218.576,-35 257.51,-35 273.868,-35"/>
</g>
<!-- TL_empty -->
<g id="node17" class="node"><title>TL_empty</title>
<text text-anchor="middle" x="153" y="-30.5" font-family="Times Roman,serif" font-size="15.00" fill="blue">Ø</text>
</g>
<!-- TL_empty&#45;&gt;TL_intermediate_r -->
<g id="edge16" class="edge"><title>TL_empty&#45;&gt;TL_intermediate_r</title>
<path fill="none" stroke="black" d="M180.142,-35C197.04,-35 215.788,-35 216.944,-35"/>
</g>
<!-- TL_intermediate_p&#45;&gt;P -->
<g id="edge20" class="edge"><title>TL_intermediate_p&#45;&gt;P</title>
<path fill="none" stroke="black" d="M345.046,-28C345.885,-28 357.971,-28 371.414,-28"/>
<polygon fill="black" stroke="black" points="371.794,-31.5001 381.794,-28 371.794,-24.5001 371.794,-31.5001"/>
</g>
<!-- mRNAD -->
<g id="node25" class="node"><title>mRNAD</title>
<polygon fill="none" stroke="black" points="416,-127 402,-127 402,-113 416,-113 416,-127"/>
</g>
<!-- mRNAD_intermediate_p -->
<g id="node29" class="node"><title>mRNAD_intermediate_p</title>
<ellipse fill="black" stroke="black" cx="472" cy="-120" rx="0.036" ry="0.036"/>
</g>
<!-- mRNAD&#45;&gt;mRNAD_intermediate_p -->
<g id="edge30" class="edge"><title>mRNAD&#45;&gt;mRNAD_intermediate_p</title>
<path fill="none" stroke="black" d="M416.227,-120C432.258,-120 469.571,-120 471.887,-120"/>
</g>
<!-- mRNAD_intermediate_r&#45;&gt;mRNAD -->
<g id="edge26" class="edge"><title>mRNAD_intermediate_r&#45;&gt;mRNAD</title>
<path fill="none" stroke="black" d="M345.046,-120C346.576,-120 385.51,-120 401.868,-120"/>
</g>
<!-- mRNAD_empty -->
<g id="node31" class="node"><title>mRNAD_empty</title>
<text text-anchor="middle" x="535" y="-115.5" font-family="Times Roman,serif" font-size="15.00" fill="blue">Ø</text>
</g>
<!-- mRNAD_intermediate_p&#45;&gt;mRNAD_empty -->
<g id="edge32" class="edge"><title>mRNAD_intermediate_p&#45;&gt;mRNAD_empty</title>
<path fill="none" stroke="black" d="M472.046,-120C472.865,-120 484.597,-120 497.716,-120"/>
<polygon fill="black" stroke="black" points="497.86,-123.5 507.86,-120 497.859,-116.5 497.86,-123.5"/>
</g>
<!-- ProteinD -->
<g id="node33" class="node"><title>ProteinD</title>
<polygon fill="none" stroke="black" points="542,-32 528,-32 528,-18 542,-18 542,-32"/>
</g>
<!-- ProteinD_intermediate_p -->
<g id="node37" class="node"><title>ProteinD_intermediate_p</title>
<ellipse fill="black" stroke="black" cx="598" cy="-19" rx="0.036" ry="0.036"/>
</g>
<!-- ProteinD&#45;&gt;ProteinD_intermediate_p -->
<g id="edge38" class="edge"><title>ProteinD&#45;&gt;ProteinD_intermediate_p</title>
<path fill="none" stroke="black" d="M542.227,-24.3117C558.258,-22.785 595.571,-19.2314 597.887,-19.0108"/>
</g>
<!-- ProteinD_intermediate_r&#45;&gt;ProteinD -->
<g id="edge34" class="edge"><title>ProteinD_intermediate_r&#45;&gt;ProteinD</title>
<path fill="none" stroke="black" d="M472.046,-25.9993C473.551,-25.9754 511.877,-25.367 527.979,-25.1114"/>
</g>
<!-- ProteinD_empty -->
<g id="node39" class="node"><title>ProteinD_empty</title>
<text text-anchor="middle" x="661" y="-13.5" font-family="Times Roman,serif" font-size="15.00" fill="blue">Ø</text>
</g>
<!-- ProteinD_intermediate_p&#45;&gt;ProteinD_empty -->
<g id="edge40" class="edge"><title>ProteinD_intermediate_p&#45;&gt;ProteinD_empty</title>
<path fill="none" stroke="black" d="M598.046,-18.9993C598.865,-18.9863 610.597,-18.8 623.716,-18.5918"/>
<polygon fill="black" stroke="black" points="623.916,-22.0892 633.86,-18.4308 623.805,-15.09 623.916,-22.0892"/>
</g>
<!-- DBT -->
<g id="node41" class="node"><title>DBT</title>
<polygon fill="none" stroke="black" points="542,-74 528,-74 528,-60 542,-60 542,-74"/>
</g>
<!-- DBT_intermediate_p -->
<g id="node45" class="node"><title>DBT_intermediate_p</title>
<ellipse fill="black" stroke="black" cx="598" cy="-70" rx="0.036" ry="0.036"/>
</g>
<!-- DBT&#45;&gt;DBT_intermediate_p -->
<g id="edge46" class="edge"><title>DBT&#45;&gt;DBT_intermediate_p</title>
<path fill="none" stroke="black" d="M542.227,-67.3441C558.258,-68.1075 595.571,-69.8843 597.887,-69.9946"/>
</g>
<!-- DBT_intermediate_r&#45;&gt;DBT -->
<g id="edge42" class="edge"><title>DBT_intermediate_r&#45;&gt;DBT</title>
<path fill="none" stroke="black" d="M472.046,-46.0152C473.551,-46.517 511.877,-59.2924 527.979,-64.6598"/>
</g>
<!-- DBT_empty -->
<g id="node47" class="node"><title>DBT_empty</title>
<text text-anchor="middle" x="661" y="-67.5" font-family="Times Roman,serif" font-size="15.00" fill="blue">Ø</text>
</g>
<!-- DBT_intermediate_p&#45;&gt;DBT_empty -->
<g id="edge48" class="edge"><title>DBT_intermediate_p&#45;&gt;DBT_empty</title>
<path fill="none" stroke="black" d="M598.046,-70.0014C598.865,-70.0275 610.597,-70.3999 623.716,-70.8164"/>
<polygon fill="black" stroke="black" points="623.753,-74.3192 633.86,-71.1384 623.976,-67.3228 623.753,-74.3192"/>
</g>
</g>
</svg>
