<?xml version="1.0" encoding="UTF-8" standalone="no"?>
<!DOCTYPE svg PUBLIC "-//W3C//DTD SVG 1.1//EN"
 "http://www.w3.org/Graphics/SVG/1.1/DTD/svg11.dtd">
<!-- Generated by graphviz version 2.24.0 (20090616.2323)
 -->
<!-- Title: G Pages: 1 -->
<svg width="822pt" height="272pt"
 viewBox="0.00 0.00 822.00 272.00" xmlns="http://www.w3.org/2000/svg" xmlns:xlink="http://www.w3.org/1999/xlink">
<g id="graph1" class="graph" transform="scale(1 1) rotate(0) translate(4 268)">
<title>G</title>
<polygon fill="white" stroke="white" points="-4,5 -4,-268 819,-268 819,5 -4,5"/>
<!-- Br -->
<g id="node1" class="node"><title>Br</title>
<ellipse fill="none" stroke="black" cx="18" cy="-38" rx="18" ry="18"/>
<text text-anchor="middle" x="18" y="-35.5" font-family="Times Roman,serif" font-size="10.00">Br&#45;</text>
</g>
<!-- Reaction1_intermediate_r -->
<g id="node7" class="node"><title>Reaction1_intermediate_r</title>
<ellipse fill="black" stroke="black" cx="73" cy="-105" rx="0.036" ry="0.036"/>
</g>
<!-- Br&#45;&gt;Reaction1_intermediate_r -->
<g id="edge4" class="edge"><title>Br&#45;&gt;Reaction1_intermediate_r</title>
<path fill="none" stroke="black" d="M29.6641,-52.209C45.3043,-71.2616 71.3113,-102.943 72.9215,-104.904"/>
</g>
<!-- Reaction2_intermediate_r -->
<g id="node16" class="node"><title>Reaction2_intermediate_r</title>
<ellipse fill="black" stroke="black" cx="295" cy="-99" rx="0.036" ry="0.036"/>
</g>
<!-- Br&#45;&gt;Reaction2_intermediate_r -->
<g id="edge16" class="edge"><title>Br&#45;&gt;Reaction2_intermediate_r</title>
<path fill="none" stroke="black" d="M36.2465,-38C56.1106,-38 88.8125,-38 117,-38 117,-38 117,-38 161,-38 225.414,-38 292.858,-97.1086 294.95,-98.9558"/>
</g>
<!-- BrO3 -->
<g id="node2" class="node"><title>BrO3</title>
<ellipse fill="none" stroke="black" cx="447" cy="-180" rx="18" ry="18"/>
<text text-anchor="middle" x="447" y="-177.5" font-family="Times Roman,serif" font-size="10.00">BrO3&#45;</text>
</g>
<!-- BrO3&#45;&gt;Reaction1_intermediate_r -->
<g id="edge6" class="edge"><title>BrO3&#45;&gt;Reaction1_intermediate_r</title>
<path fill="none" stroke="black" d="M437.101,-195.407C420.174,-219.657 383.182,-264 339,-264 161,-264 161,-264 161,-264 81.4941,-264 73.244,-109.93 73.0055,-105.115"/>
</g>
<!-- Reaction3_intermediate_r -->
<g id="node24" class="node"><title>Reaction3_intermediate_r</title>
<ellipse fill="black" stroke="black" cx="511" cy="-157" rx="0.036" ry="0.036"/>
</g>
<!-- BrO3&#45;&gt;Reaction3_intermediate_r -->
<g id="edge26" class="edge"><title>BrO3&#45;&gt;Reaction3_intermediate_r</title>
<path fill="none" stroke="black" d="M464.151,-173.836C482.516,-167.236 509.265,-157.623 510.919,-157.029"/>
</g>
<!-- Ce -->
<g id="node3" class="node"><title>Ce</title>
<ellipse fill="none" stroke="black" cx="663" cy="-95" rx="27.0858" ry="18"/>
<text text-anchor="middle" x="663" y="-92.5" font-family="Times Roman,serif" font-size="10.00">Ce4+</text>
</g>
<!-- Reaction5_intermediate_r -->
<g id="node41" class="node"><title>Reaction5_intermediate_r</title>
<ellipse fill="black" stroke="black" cx="727" cy="-80" rx="0.036" ry="0.036"/>
</g>
<!-- Ce&#45;&gt;Reaction5_intermediate_r -->
<g id="edge48" class="edge"><title>Ce&#45;&gt;Reaction5_intermediate_r</title>
<path fill="none" stroke="black" d="M688.662,-88.9854C705.911,-84.9427 725.719,-80.3001 726.941,-80.0139"/>
</g>
<!-- HBrO2 -->
<g id="node4" class="node"><title>HBrO2</title>
<ellipse fill="none" stroke="black" cx="228" cy="-134" rx="30.1638" ry="18"/>
<text text-anchor="middle" x="228" y="-131.5" font-family="Times Roman,serif" font-size="10.00">HBrO2</text>
</g>
<!-- HBrO2&#45;&gt;Reaction2_intermediate_r -->
<g id="edge18" class="edge"><title>HBrO2&#45;&gt;Reaction2_intermediate_r</title>
<path fill="none" stroke="black" d="M250.683,-122.151C269.513,-112.314 293.45,-99.8095 294.928,-99.0376"/>
</g>
<!-- HBrO2&#45;&gt;Reaction3_intermediate_r -->
<g id="edge28" class="edge"><title>HBrO2&#45;&gt;Reaction3_intermediate_r</title>
<path fill="none" stroke="black" d="M258.151,-134C280.476,-134 311.635,-134 339,-134 339,-134 339,-134 383,-134 439.897,-134 508.809,-156.287 510.949,-156.983"/>
</g>
<!-- Reaction4_intermediate_r -->
<g id="node33" class="node"><title>Reaction4_intermediate_r</title>
<ellipse fill="black" stroke="black" cx="295" cy="-166" rx="0.036" ry="0.036"/>
</g>
<!-- HBrO2&#45;&gt;Reaction4_intermediate_r -->
<g id="edge38" class="edge"><title>HBrO2&#45;&gt;Reaction4_intermediate_r</title>
<path fill="none" stroke="black" d="M251.81,-145.372C270.466,-154.282 293.509,-165.288 294.931,-165.967"/>
</g>
<!-- HOBr -->
<g id="node5" class="node"><title>HOBr</title>
<ellipse fill="none" stroke="black" cx="447" cy="-88" rx="27" ry="18"/>
<text text-anchor="middle" x="447" y="-85.5" font-family="Times Roman,serif" font-size="10.00">HOBr</text>
</g>
<!-- Reaction1 -->
<g id="node6" class="node"><title>Reaction1</title>
<polygon fill="none" stroke="black" points="124,-112 110,-112 110,-98 124,-98 124,-112"/>
</g>
<!-- Reaction1_intermediate_p -->
<g id="node11" class="node"><title>Reaction1_intermediate_p</title>
<ellipse fill="black" stroke="black" cx="161" cy="-105" rx="0.036" ry="0.036"/>
</g>
<!-- Reaction1&#45;&gt;Reaction1_intermediate_p -->
<g id="edge8" class="edge"><title>Reaction1&#45;&gt;Reaction1_intermediate_p</title>
<path fill="none" stroke="black" d="M124.266,-105C136.372,-105 159.497,-105 160.93,-105"/>
</g>
<!-- Reaction1_intermediate_r&#45;&gt;Reaction1 -->
<g id="edge2" class="edge"><title>Reaction1_intermediate_r&#45;&gt;Reaction1</title>
<path fill="none" stroke="black" d="M73.1262,-105C75.0215,-105 97.7945,-105 109.759,-105"/>
</g>
<!-- Reaction1_intermediate_p&#45;&gt;HBrO2 -->
<g id="edge10" class="edge"><title>Reaction1_intermediate_p&#45;&gt;HBrO2</title>
<path fill="none" stroke="black" d="M161.049,-105.021C162.036,-105.448 177.911,-112.32 193.954,-119.264"/>
<polygon fill="black" stroke="black" points="192.74,-122.552 203.307,-123.312 195.52,-116.128 192.74,-122.552"/>
</g>
<!-- Reaction1_intermediate_p&#45;&gt;HOBr -->
<g id="edge12" class="edge"><title>Reaction1_intermediate_p&#45;&gt;HOBr</title>
<path fill="none" stroke="black" d="M161.074,-104.983C164.19,-104.255 264.517,-80.9843 346,-83 367.176,-83.5238 390.827,-84.6646 409.916,-85.7243"/>
<polygon fill="black" stroke="black" points="409.823,-89.2247 420.006,-86.3003 410.222,-82.236 409.823,-89.2247"/>
</g>
<!-- Reaction2 -->
<g id="node15" class="node"><title>Reaction2</title>
<polygon fill="none" stroke="black" points="346,-106 332,-106 332,-92 346,-92 346,-106"/>
</g>
<!-- Reaction2_intermediate_p -->
<g id="node20" class="node"><title>Reaction2_intermediate_p</title>
<ellipse fill="black" stroke="black" cx="383" cy="-96" rx="0.036" ry="0.036"/>
</g>
<!-- Reaction2&#45;&gt;Reaction2_intermediate_p -->
<g id="edge20" class="edge"><title>Reaction2&#45;&gt;Reaction2_intermediate_p</title>
<path fill="none" stroke="black" d="M346.266,-98.5046C358.372,-97.6792 381.497,-96.1025 382.93,-96.0048"/>
</g>
<!-- Reaction2_intermediate_r&#45;&gt;Reaction2 -->
<g id="edge14" class="edge"><title>Reaction2_intermediate_r&#45;&gt;Reaction2</title>
<path fill="none" stroke="black" d="M295.126,-99C297.022,-99 319.795,-99 331.759,-99"/>
</g>
<!-- Reaction2_intermediate_p&#45;&gt;HOBr -->
<g id="edge22" class="edge"><title>Reaction2_intermediate_p&#45;&gt;HOBr</title>
<path fill="none" stroke="black" d="M383.046,-95.9942C383.899,-95.8876 396.386,-94.3267 410.103,-92.6121"/>
<polygon fill="black" stroke="black" points="410.671,-96.0685 420.16,-91.3551 409.803,-89.1225 410.671,-96.0685"/>
</g>
<!-- Reaction3 -->
<g id="node23" class="node"><title>Reaction3</title>
<polygon fill="none" stroke="black" points="562,-164 548,-164 548,-150 562,-150 562,-164"/>
</g>
<!-- Reaction3_intermediate_p -->
<g id="node28" class="node"><title>Reaction3_intermediate_p</title>
<ellipse fill="black" stroke="black" cx="599" cy="-157" rx="0.036" ry="0.036"/>
</g>
<!-- Reaction3&#45;&gt;Reaction3_intermediate_p -->
<g id="edge30" class="edge"><title>Reaction3&#45;&gt;Reaction3_intermediate_p</title>
<path fill="none" stroke="black" d="M562.266,-157C574.372,-157 597.497,-157 598.93,-157"/>
</g>
<!-- Reaction3_intermediate_r&#45;&gt;Reaction3 -->
<g id="edge24" class="edge"><title>Reaction3_intermediate_r&#45;&gt;Reaction3</title>
<path fill="none" stroke="black" d="M511.126,-157C513.022,-157 535.795,-157 547.759,-157"/>
</g>
<!-- Reaction3_intermediate_p&#45;&gt;Ce -->
<g id="edge32" class="edge"><title>Reaction3_intermediate_p&#45;&gt;Ce</title>
<path fill="none" stroke="black" d="M599.046,-156.955C600.192,-155.845 622.344,-134.385 640.259,-117.03"/>
<polygon fill="black" stroke="black" points="642.857,-119.386 647.604,-109.915 637.987,-114.359 642.857,-119.386"/>
</g>
<!-- Reaction3_intermediate_p&#45;&gt;HBrO2 -->
<g id="edge34" class="edge"><title>Reaction3_intermediate_p&#45;&gt;HBrO2</title>
<path fill="none" stroke="black" d="M598.972,-157.05C597.8,-159.139 559.924,-226 511,-226 339,-226 339,-226 339,-226 297.217,-226 262.728,-186.88 243.786,-159.66"/>
<polygon fill="black" stroke="black" points="246.664,-157.667 238.193,-151.304 240.847,-161.561 246.664,-157.667"/>
</g>
<!-- Reaction4 -->
<g id="node32" class="node"><title>Reaction4</title>
<polygon fill="none" stroke="black" points="346,-176 332,-176 332,-162 346,-162 346,-176"/>
</g>
<!-- Reaction4_intermediate_p -->
<g id="node36" class="node"><title>Reaction4_intermediate_p</title>
<ellipse fill="black" stroke="black" cx="383" cy="-169" rx="0.036" ry="0.036"/>
</g>
<!-- Reaction4&#45;&gt;Reaction4_intermediate_p -->
<g id="edge40" class="edge"><title>Reaction4&#45;&gt;Reaction4_intermediate_p</title>
<path fill="none" stroke="black" d="M346.266,-169C358.372,-169 381.497,-169 382.93,-169"/>
</g>
<!-- Reaction4_intermediate_r&#45;&gt;Reaction4 -->
<g id="edge36" class="edge"><title>Reaction4_intermediate_r&#45;&gt;Reaction4</title>
<path fill="none" stroke="black" d="M295.126,-166.009C297.022,-166.138 319.795,-167.691 331.759,-168.506"/>
</g>
<!-- Reaction4_intermediate_p&#45;&gt;BrO3 -->
<g id="edge42" class="edge"><title>Reaction4_intermediate_p&#45;&gt;BrO3</title>
<path fill="none" stroke="black" d="M383.046,-169.008C384.081,-169.186 402.231,-172.305 418.931,-175.176"/>
<polygon fill="black" stroke="black" points="418.527,-178.657 428.975,-176.902 419.713,-171.759 418.527,-178.657"/>
</g>
<!-- Reaction4_intermediate_p&#45;&gt;HOBr -->
<g id="edge44" class="edge"><title>Reaction4_intermediate_p&#45;&gt;HOBr</title>
<path fill="none" stroke="black" d="M383.046,-168.941C384.273,-167.388 409.587,-135.351 427.992,-112.057"/>
<polygon fill="black" stroke="black" points="430.95,-113.959 434.403,-103.943 425.458,-109.619 430.95,-113.959"/>
</g>
<!-- Reaction5 -->
<g id="node40" class="node"><title>Reaction5</title>
<polygon fill="none" stroke="black" points="778,-57 764,-57 764,-43 778,-43 778,-57"/>
</g>
<!-- Reaction5_intermediate_p -->
<g id="node44" class="node"><title>Reaction5_intermediate_p</title>
<ellipse fill="black" stroke="black" cx="814" cy="-25" rx="0.036" ry="0.036"/>
</g>
<!-- Reaction5&#45;&gt;Reaction5_intermediate_p -->
<g id="edge50" class="edge"><title>Reaction5&#45;&gt;Reaction5_intermediate_p</title>
<path fill="none" stroke="black" d="M778.101,-45.8718C789.932,-38.993 812.531,-25.8542 813.932,-25.0397"/>
</g>
<!-- Reaction5_intermediate_r&#45;&gt;Reaction5 -->
<g id="edge46" class="edge"><title>Reaction5_intermediate_r&#45;&gt;Reaction5</title>
<path fill="none" stroke="black" d="M727.126,-79.9139C729.022,-78.6217 751.795,-63.0947 763.759,-54.9371"/>
</g>
<!-- Reaction5_intermediate_p&#45;&gt;Br -->
<g id="edge52" class="edge"><title>Reaction5_intermediate_p&#45;&gt;Br</title>
<path fill="none" stroke="black" d="M813.865,-24.9283C811.083,-23.4619 765.974,-0 727,-0 117,-0 117,-0 117,-0 90.1039,-0 61.6641,-12.3756 42.2019,-23.0019"/>
<polygon fill="black" stroke="black" points="40.3658,-20.0198 33.415,-28.0159 43.8351,-26.0996 40.3658,-20.0198"/>
</g>
</g>
</svg>
