<?xml version="1.0" encoding="utf-8"?>
<!-- Generator: Adobe Illustrator 14.0.0, SVG Export Plug-In . SVG Version: 6.00 Build 43363)  -->
<!DOCTYPE svg PUBLIC "-//W3C//DTD SVG 1.1//EN" "http://www.w3.org/Graphics/SVG/1.1/DTD/svg11.dtd">
<svg version="1.1" id="Layer_1" xmlns="http://www.w3.org/2000/svg" xmlns:xlink="http://www.w3.org/1999/xlink" x="0px" y="0px"
	 width="456px" height="371.334px" viewBox="0 0 456 371.334" enable-background="new 0 0 456 371.334" xml:space="preserve">
<g id="EGF">
	
		<radialGradient id="EGF_path1_1_" cx="154.9773" cy="678.29" r="16.1863" gradientTransform="matrix(1.5933 0 0 -0.6358 -54.7976 548.3032)" gradientUnits="userSpaceOnUse">
		<stop  offset="0" style="stop-color:#C2DA65"/>
		<stop  offset="0.4082" style="stop-color:#C2DA65"/>
		<stop  offset="0.5552" style="stop-color:#BDD967"/>
		<stop  offset="0.66" style="stop-color:#B9D766"/>
		<stop  offset="0.7448" style="stop-color:#B1D466"/>
		<stop  offset="0.8174" style="stop-color:#A8D166"/>
		<stop  offset="0.8817" style="stop-color:#9DCE66"/>
		<stop  offset="0.9398" style="stop-color:#93CA65"/>
		<stop  offset="0.9915" style="stop-color:#89C762"/>
		<stop  offset="1" style="stop-color:#87C763"/>
	</radialGradient>
	<path id="EGF_path1" fill="url(#EGF_path1_1_)" stroke="#010101" d="M217.442,117.045c0,5.786-11.338,10.478-25.316,10.478
		c-13.98,0-25.314-4.689-25.314-10.478s11.334-10.476,25.314-10.476C206.104,106.57,217.442,111.258,217.442,117.045z"/>
	<text transform="matrix(1 0 0 1 182.3757 120.5674)" font-family="'MyriadPro-Regular'" font-size="12">EGF</text>
</g>
<g id="EGFR">
	
		<radialGradient id="EGFR_path1_1_" cx="231.8162" cy="678.292" r="16.1858" gradientTransform="matrix(1.5933 0 0 -0.6358 -54.7976 548.3032)" gradientUnits="userSpaceOnUse">
		<stop  offset="0" style="stop-color:#C2DA65"/>
		<stop  offset="0.4082" style="stop-color:#C2DA65"/>
		<stop  offset="0.5552" style="stop-color:#BDD967"/>
		<stop  offset="0.66" style="stop-color:#B9D766"/>
		<stop  offset="0.7448" style="stop-color:#B1D466"/>
		<stop  offset="0.8174" style="stop-color:#A8D166"/>
		<stop  offset="0.8817" style="stop-color:#9DCE66"/>
		<stop  offset="0.9398" style="stop-color:#93CA65"/>
		<stop  offset="0.9915" style="stop-color:#89C762"/>
		<stop  offset="1" style="stop-color:#87C763"/>
	</radialGradient>
	<path id="EGFR_path1" fill="url(#EGFR_path1_1_)" stroke="#010101" d="M339.869,117.044c0,5.787-11.338,10.478-25.314,10.478
		c-13.981,0-25.315-4.689-25.315-10.478c0-5.788,11.333-10.476,25.315-10.476C328.531,106.57,339.869,111.257,339.869,117.044z"/>
	<text transform="matrix(1 0 0 1 301.5759 120.5674)" font-family="'MyriadPro-Regular'" font-size="12">EGFR</text>
</g>
<g id="pro_EGFR">
	
		<radialGradient id="pro_EGFR_path1_1_" cx="300.2371" cy="678.292" r="16.1863" gradientTransform="matrix(1.5933 0 0 -0.6358 -54.7976 548.3032)" gradientUnits="userSpaceOnUse">
		<stop  offset="0" style="stop-color:#C2DA65"/>
		<stop  offset="0.4082" style="stop-color:#C2DA65"/>
		<stop  offset="0.5552" style="stop-color:#BDD967"/>
		<stop  offset="0.66" style="stop-color:#B9D766"/>
		<stop  offset="0.7448" style="stop-color:#B1D466"/>
		<stop  offset="0.8174" style="stop-color:#A8D166"/>
		<stop  offset="0.8817" style="stop-color:#9DCE66"/>
		<stop  offset="0.9398" style="stop-color:#93CA65"/>
		<stop  offset="0.9915" style="stop-color:#89C762"/>
		<stop  offset="1" style="stop-color:#87C763"/>
	</radialGradient>
	<path id="pro_EGFR_path1" fill="url(#pro_EGFR_path1_1_)" stroke="#010101" d="M448.885,117.044
		c0,5.787-11.338,10.478-25.313,10.478c-13.982,0-25.316-4.689-25.316-10.478c0-5.788,11.334-10.476,25.316-10.476
		C437.547,106.57,448.885,111.257,448.885,117.044z"/>
	<text transform="matrix(1 0 0 1 401.9822 120.5674)" font-family="'MyriadPro-Regular'" font-size="12">proEGFR</text>
</g>
<g id="EGF_EGFR">
	
		<radialGradient id="EGF_EGFR_path1_1_" cx="127.7898" cy="573.915" r="16.1858" gradientTransform="matrix(1.963 0 0 -0.6358 -58.7254 548.3032)" gradientUnits="userSpaceOnUse">
		<stop  offset="0" style="stop-color:#C2DA65"/>
		<stop  offset="0.4082" style="stop-color:#C2DA65"/>
		<stop  offset="0.5552" style="stop-color:#BDD967"/>
		<stop  offset="0.66" style="stop-color:#B9D766"/>
		<stop  offset="0.7448" style="stop-color:#B1D466"/>
		<stop  offset="0.8174" style="stop-color:#A8D166"/>
		<stop  offset="0.8817" style="stop-color:#9DCE66"/>
		<stop  offset="0.9398" style="stop-color:#93CA65"/>
		<stop  offset="0.9915" style="stop-color:#89C762"/>
		<stop  offset="1" style="stop-color:#87C763"/>
	</radialGradient>
	<path id="EGF_EGFR_path1" fill="url(#EGF_EGFR_path1_1_)" stroke="#010101" d="M223.316,183.407
		c0,5.787-13.969,10.478-31.189,10.478c-17.227,0-31.19-4.688-31.19-10.478c0-5.788,13.964-10.476,31.19-10.476
		C209.348,172.933,223.316,177.62,223.316,183.407z"/>
	<text transform="matrix(1 0 0 1 167.5569 186.9297)" font-family="'MyriadPro-Regular'" font-size="12">EGF-EGFR</text>
</g>
<g id="pEGFR">
	
		<radialGradient id="pEGFR_path1_1_" cx="154.9768" cy="480.8916" r="16.186" gradientTransform="matrix(1.5933 0 0 -0.6358 -54.7976 548.3032)" gradientUnits="userSpaceOnUse">
		<stop  offset="0" style="stop-color:#C2DA65"/>
		<stop  offset="0.4082" style="stop-color:#C2DA65"/>
		<stop  offset="0.5552" style="stop-color:#BDD967"/>
		<stop  offset="0.66" style="stop-color:#B9D766"/>
		<stop  offset="0.7448" style="stop-color:#B1D466"/>
		<stop  offset="0.8174" style="stop-color:#A8D166"/>
		<stop  offset="0.8817" style="stop-color:#9DCE66"/>
		<stop  offset="0.9398" style="stop-color:#93CA65"/>
		<stop  offset="0.9915" style="stop-color:#89C762"/>
		<stop  offset="1" style="stop-color:#87C763"/>
	</radialGradient>
	<path id="pEGFR_path1" fill="url(#pEGFR_path1_1_)" stroke="#010101" d="M217.441,242.551c0,5.786-11.338,10.478-25.314,10.478
		c-13.981,0-25.315-4.688-25.315-10.478s11.334-10.476,25.315-10.476C206.104,232.076,217.441,236.765,217.441,242.551z"/>
	<text transform="matrix(1 0 0 1 175.7341 246.0732)" font-family="'MyriadPro-Regular'" font-size="12">pEGFR</text>
</g>
<g>
	<g id="g22085_7_" transform="translate(17.00007,-71.31057)">
		
			<radialGradient id="path20137_15_" cx="16.1218" cy="1911.0342" r="11.9639" gradientTransform="matrix(-0.1239 0.2854 0.2713 0.1178 -240.2562 -114.0882)" gradientUnits="userSpaceOnUse">
			<stop  offset="0" style="stop-color:#AAD152"/>
			<stop  offset="0.4082" style="stop-color:#A9D051"/>
			<stop  offset="0.5552" style="stop-color:#A3CE55"/>
			<stop  offset="0.66" style="stop-color:#9ECC54"/>
			<stop  offset="0.7448" style="stop-color:#92C952"/>
			<stop  offset="0.8174" style="stop-color:#84C34F"/>
			<stop  offset="0.8817" style="stop-color:#77C151"/>
			<stop  offset="0.9398" style="stop-color:#65BD55"/>
			<stop  offset="0.9915" style="stop-color:#58B951"/>
			<stop  offset="1" style="stop-color:#58B951"/>
		</radialGradient>
		<path id="path20137_7_" fill="url(#path20137_15_)" stroke="#010101" d="M274.727,119.047c-1.793-0.778-2.581-2.938-1.764-4.823
			c0.819-1.886,2.937-2.784,4.729-2.005c1.794,0.778,2.583,2.938,1.764,4.824C278.636,118.928,276.52,119.826,274.727,119.047z"/>
	</g>
	<g id="g22085_6_" transform="translate(17.00007,-71.31057)">
		
			<radialGradient id="path20137_16_" cx="222.4138" cy="1217.7061" r="17.835" gradientTransform="matrix(0 0.3111 0.2958 0 -66.3007 76.2175)" gradientUnits="userSpaceOnUse">
			<stop  offset="0" style="stop-color:#AAD152"/>
			<stop  offset="0.4082" style="stop-color:#A9D051"/>
			<stop  offset="0.5552" style="stop-color:#A3CE55"/>
			<stop  offset="0.66" style="stop-color:#9ECC54"/>
			<stop  offset="0.7448" style="stop-color:#92C952"/>
			<stop  offset="0.8174" style="stop-color:#84C34F"/>
			<stop  offset="0.8817" style="stop-color:#77C151"/>
			<stop  offset="0.9398" style="stop-color:#65BD55"/>
			<stop  offset="0.9915" style="stop-color:#58B951"/>
			<stop  offset="1" style="stop-color:#58B951"/>
		</radialGradient>
		<path id="path20137_6_" fill="url(#path20137_16_)" stroke="#010101" d="M293.897,150.96c-2.914,0-5.275-2.485-5.275-5.549
			c0-3.065,2.361-5.55,5.275-5.55s5.274,2.484,5.274,5.55C299.172,148.475,296.811,150.96,293.897,150.96z"/>
	</g>
	<g id="g22085_5_" transform="translate(17.00007,-71.31057)">
		
			<radialGradient id="path20137_17_" cx="134.1315" cy="846.8486" r="25.5405" gradientTransform="matrix(0 0.3111 -0.2958 0 554.886 76.2175)" gradientUnits="userSpaceOnUse">
			<stop  offset="0" style="stop-color:#AAD152"/>
			<stop  offset="0.4082" style="stop-color:#A9D051"/>
			<stop  offset="0.5552" style="stop-color:#A3CE55"/>
			<stop  offset="0.66" style="stop-color:#9ECC54"/>
			<stop  offset="0.7448" style="stop-color:#92C952"/>
			<stop  offset="0.8174" style="stop-color:#84C34F"/>
			<stop  offset="0.8817" style="stop-color:#77C151"/>
			<stop  offset="0.9398" style="stop-color:#65BD55"/>
			<stop  offset="0.9915" style="stop-color:#58B951"/>
			<stop  offset="1" style="stop-color:#58B951"/>
		</radialGradient>
		<path id="path20137_5_" fill="url(#path20137_17_)" stroke="#010101" d="M304.387,125.892c4.175,0,7.556-3.559,7.556-7.945
			c0-4.39-3.381-7.947-7.556-7.947c-4.173,0-7.554,3.557-7.554,7.947C296.834,122.333,300.217,125.892,304.387,125.892z"/>
	</g>
	<g id="g22085_4_" transform="translate(17.00007,-71.31057)">
		
			<radialGradient id="path20137_18_" cx="185.1735" cy="806.5527" r="20.8179" gradientTransform="matrix(0 0.3111 -0.2958 0 554.886 76.2175)" gradientUnits="userSpaceOnUse">
			<stop  offset="0" style="stop-color:#AAD152"/>
			<stop  offset="0.4082" style="stop-color:#A9D051"/>
			<stop  offset="0.5552" style="stop-color:#A3CE55"/>
			<stop  offset="0.66" style="stop-color:#9ECC54"/>
			<stop  offset="0.7448" style="stop-color:#92C952"/>
			<stop  offset="0.8174" style="stop-color:#84C34F"/>
			<stop  offset="0.8817" style="stop-color:#77C151"/>
			<stop  offset="0.9398" style="stop-color:#65BD55"/>
			<stop  offset="0.9915" style="stop-color:#58B951"/>
			<stop  offset="1" style="stop-color:#58B951"/>
		</radialGradient>
		<path id="path20137_4_" fill="url(#path20137_18_)" stroke="#010101" d="M316.308,140.302c3.401,0,6.157-2.9,6.157-6.476
			c0-3.578-2.756-6.478-6.157-6.478c-3.399,0-6.158,2.9-6.158,6.478C310.15,137.401,312.909,140.302,316.308,140.302z"/>
	</g>
	<g id="g22085_3_" transform="translate(17.00007,-71.31057)">
		
			<radialGradient id="path20137_19_" cx="162.9225" cy="889.0791" r="20.8179" gradientTransform="matrix(0 0.3111 -0.2958 0 554.886 76.2175)" gradientUnits="userSpaceOnUse">
			<stop  offset="0" style="stop-color:#AAD152"/>
			<stop  offset="0.4082" style="stop-color:#A9D051"/>
			<stop  offset="0.5552" style="stop-color:#A3CE55"/>
			<stop  offset="0.66" style="stop-color:#9ECC54"/>
			<stop  offset="0.7448" style="stop-color:#92C952"/>
			<stop  offset="0.8174" style="stop-color:#84C34F"/>
			<stop  offset="0.8817" style="stop-color:#77C151"/>
			<stop  offset="0.9398" style="stop-color:#65BD55"/>
			<stop  offset="0.9915" style="stop-color:#58B951"/>
			<stop  offset="1" style="stop-color:#58B951"/>
		</radialGradient>
		<path id="path20137_3_" fill="url(#path20137_19_)" stroke="#010101" d="M291.898,133.38c3.4,0,6.156-2.9,6.156-6.476
			c0-3.578-2.756-6.478-6.156-6.478s-6.159,2.9-6.159,6.478C285.739,130.479,288.497,133.38,291.898,133.38z"/>
	</g>
	<g id="g22085_1_" transform="translate(17.00007,-71.31057)">
		
			<radialGradient id="path20137_20_" cx="185.4343" cy="1241.4961" r="30.5518" gradientTransform="matrix(0 0.3111 0.2958 0 -66.3007 76.2175)" gradientUnits="userSpaceOnUse">
			<stop  offset="0" style="stop-color:#AAD152"/>
			<stop  offset="0.4082" style="stop-color:#A9D051"/>
			<stop  offset="0.5552" style="stop-color:#A3CE55"/>
			<stop  offset="0.66" style="stop-color:#9ECC54"/>
			<stop  offset="0.7448" style="stop-color:#92C952"/>
			<stop  offset="0.8174" style="stop-color:#84C34F"/>
			<stop  offset="0.8817" style="stop-color:#77C151"/>
			<stop  offset="0.9398" style="stop-color:#65BD55"/>
			<stop  offset="0.9915" style="stop-color:#58B951"/>
			<stop  offset="1" style="stop-color:#58B951"/>
		</radialGradient>
		<path id="path20137_1_" fill="url(#path20137_20_)" stroke="#010101" d="M300.931,143.411c-4.986,0-9.034-4.257-9.034-9.504
			c0-5.25,4.048-9.506,9.034-9.506c4.991,0,9.039,4.255,9.039,9.506C309.97,139.154,305.923,143.411,300.931,143.411z"/>
	</g>
	<g id="g22085_2_" transform="translate(17.00007,-71.31057)">
		
			<radialGradient id="path20137_21_" cx="84.1999" cy="2045.9912" r="11.9634" gradientTransform="matrix(-0.1239 0.2854 0.2713 0.1178 -240.2562 -114.0882)" gradientUnits="userSpaceOnUse">
			<stop  offset="0" style="stop-color:#AAD152"/>
			<stop  offset="0.4082" style="stop-color:#A9D051"/>
			<stop  offset="0.5552" style="stop-color:#A3CE55"/>
			<stop  offset="0.66" style="stop-color:#9ECC54"/>
			<stop  offset="0.7448" style="stop-color:#92C952"/>
			<stop  offset="0.8174" style="stop-color:#84C34F"/>
			<stop  offset="0.8817" style="stop-color:#77C151"/>
			<stop  offset="0.9398" style="stop-color:#65BD55"/>
			<stop  offset="0.9915" style="stop-color:#58B951"/>
			<stop  offset="1" style="stop-color:#58B951"/>
		</radialGradient>
		<path id="path20137_2_" fill="url(#path20137_21_)" stroke="#010101" d="M302.906,154.374c-1.793-0.778-2.581-2.938-1.764-4.823
			c0.819-1.886,2.937-2.784,4.729-2.005c1.794,0.778,2.583,2.938,1.764,4.824C306.815,154.254,304.699,155.152,302.906,154.374z"/>
	</g>
</g>
<g>
	<g id="g22085_14_" transform="translate(17.00007,-71.31057)">
		
			<radialGradient id="path20137_22_" cx="518.9108" cy="2233.9619" r="11.9624" gradientTransform="matrix(-0.1239 0.2854 0.2713 0.1178 -240.2562 -114.0882)" gradientUnits="userSpaceOnUse">
			<stop  offset="0" style="stop-color:#AAD152"/>
			<stop  offset="0.4082" style="stop-color:#A9D051"/>
			<stop  offset="0.5552" style="stop-color:#A3CE55"/>
			<stop  offset="0.66" style="stop-color:#9ECC54"/>
			<stop  offset="0.7448" style="stop-color:#92C952"/>
			<stop  offset="0.8174" style="stop-color:#84C34F"/>
			<stop  offset="0.8817" style="stop-color:#77C151"/>
			<stop  offset="0.9398" style="stop-color:#65BD55"/>
			<stop  offset="0.9915" style="stop-color:#58B951"/>
			<stop  offset="1" style="stop-color:#58B951"/>
		</radialGradient>
		<path id="path20137_14_" fill="url(#path20137_22_)" stroke="#010101" d="M300.041,300.583c-1.793-0.777-2.58-2.938-1.762-4.822
			c0.817-1.887,2.936-2.783,4.727-2.006c1.795,0.779,2.584,2.938,1.765,4.824C303.952,300.464,301.834,301.362,300.041,300.583z"/>
	</g>
	<g id="g22085_13_" transform="translate(17.00007,-71.31057)">
		
			<radialGradient id="path20137_23_" cx="805.9431" cy="1303.2852" r="17.8345" gradientTransform="matrix(0 0.3111 0.2958 0 -66.3007 76.2175)" gradientUnits="userSpaceOnUse">
			<stop  offset="0" style="stop-color:#AAD152"/>
			<stop  offset="0.4082" style="stop-color:#A9D051"/>
			<stop  offset="0.5552" style="stop-color:#A3CE55"/>
			<stop  offset="0.66" style="stop-color:#9ECC54"/>
			<stop  offset="0.7448" style="stop-color:#92C952"/>
			<stop  offset="0.8174" style="stop-color:#84C34F"/>
			<stop  offset="0.8817" style="stop-color:#77C151"/>
			<stop  offset="0.9398" style="stop-color:#65BD55"/>
			<stop  offset="0.9915" style="stop-color:#58B951"/>
			<stop  offset="1" style="stop-color:#58B951"/>
		</radialGradient>
		<path id="path20137_13_" fill="url(#path20137_23_)" stroke="#010101" d="M319.211,332.495c-2.914,0-5.274-2.484-5.274-5.549
			c0-3.065,2.36-5.549,5.274-5.549s5.275,2.483,5.275,5.549C324.486,330.011,322.125,332.495,319.211,332.495z"/>
	</g>
	<g id="g22085_12_" transform="translate(17.00007,-71.31057)">
		
			<radialGradient id="path20137_24_" cx="717.6628" cy="761.2656" r="25.54" gradientTransform="matrix(0 0.3111 -0.2958 0 554.886 76.2175)" gradientUnits="userSpaceOnUse">
			<stop  offset="0" style="stop-color:#AAD152"/>
			<stop  offset="0.4082" style="stop-color:#A9D051"/>
			<stop  offset="0.5552" style="stop-color:#A3CE55"/>
			<stop  offset="0.66" style="stop-color:#9ECC54"/>
			<stop  offset="0.7448" style="stop-color:#92C952"/>
			<stop  offset="0.8174" style="stop-color:#84C34F"/>
			<stop  offset="0.8817" style="stop-color:#77C151"/>
			<stop  offset="0.9398" style="stop-color:#65BD55"/>
			<stop  offset="0.9915" style="stop-color:#58B951"/>
			<stop  offset="1" style="stop-color:#58B951"/>
		</radialGradient>
		<path id="path20137_12_" fill="url(#path20137_24_)" stroke="#010101" d="M329.704,307.428c4.174,0,7.555-3.56,7.555-7.944
			c0-4.391-3.381-7.946-7.555-7.946s-7.555,3.557-7.555,7.946C322.149,303.868,325.534,307.428,329.704,307.428z"/>
	</g>
	<g id="g22085_11_" transform="translate(17.00007,-71.31057)">
		
			<radialGradient id="path20137_25_" cx="768.6989" cy="720.9736" r="20.8184" gradientTransform="matrix(0 0.3111 -0.2958 0 554.886 76.2175)" gradientUnits="userSpaceOnUse">
			<stop  offset="0" style="stop-color:#AAD152"/>
			<stop  offset="0.4082" style="stop-color:#A9D051"/>
			<stop  offset="0.5552" style="stop-color:#A3CE55"/>
			<stop  offset="0.66" style="stop-color:#9ECC54"/>
			<stop  offset="0.7448" style="stop-color:#92C952"/>
			<stop  offset="0.8174" style="stop-color:#84C34F"/>
			<stop  offset="0.8817" style="stop-color:#77C151"/>
			<stop  offset="0.9398" style="stop-color:#65BD55"/>
			<stop  offset="0.9915" style="stop-color:#58B951"/>
			<stop  offset="1" style="stop-color:#58B951"/>
		</radialGradient>
		<path id="path20137_11_" fill="url(#path20137_25_)" stroke="#010101" d="M341.623,321.837c3.401,0,6.157-2.9,6.157-6.477
			s-2.756-6.478-6.157-6.478c-3.4,0-6.158,2.9-6.158,6.478C335.465,318.937,338.222,321.837,341.623,321.837z"/>
	</g>
	<g id="g22085_10_" transform="translate(17.00007,-71.31057)">
		
			<radialGradient id="path20137_26_" cx="746.4499" cy="803.501" r="20.8188" gradientTransform="matrix(0 0.3111 -0.2958 0 554.886 76.2175)" gradientUnits="userSpaceOnUse">
			<stop  offset="0" style="stop-color:#AAD152"/>
			<stop  offset="0.4082" style="stop-color:#A9D051"/>
			<stop  offset="0.5552" style="stop-color:#A3CE55"/>
			<stop  offset="0.66" style="stop-color:#9ECC54"/>
			<stop  offset="0.7448" style="stop-color:#92C952"/>
			<stop  offset="0.8174" style="stop-color:#84C34F"/>
			<stop  offset="0.8817" style="stop-color:#77C151"/>
			<stop  offset="0.9398" style="stop-color:#65BD55"/>
			<stop  offset="0.9915" style="stop-color:#58B951"/>
			<stop  offset="1" style="stop-color:#58B951"/>
		</radialGradient>
		<path id="path20137_10_" fill="url(#path20137_26_)" stroke="#010101" d="M317.213,314.915c3.4,0,6.156-2.9,6.156-6.477
			s-2.756-6.478-6.156-6.478c-3.399,0-6.16,2.899-6.16,6.478C311.052,312.015,313.813,314.915,317.213,314.915z"/>
	</g>
	<g id="g22085_9_" transform="translate(17.00007,-71.31057)">
		
			<radialGradient id="path20137_27_" cx="768.9606" cy="1327.0771" r="30.5518" gradientTransform="matrix(0 0.3111 0.2958 0 -66.3007 76.2175)" gradientUnits="userSpaceOnUse">
			<stop  offset="0" style="stop-color:#AAD152"/>
			<stop  offset="0.4082" style="stop-color:#A9D051"/>
			<stop  offset="0.5552" style="stop-color:#A3CE55"/>
			<stop  offset="0.66" style="stop-color:#9ECC54"/>
			<stop  offset="0.7448" style="stop-color:#92C952"/>
			<stop  offset="0.8174" style="stop-color:#84C34F"/>
			<stop  offset="0.8817" style="stop-color:#77C151"/>
			<stop  offset="0.9398" style="stop-color:#65BD55"/>
			<stop  offset="0.9915" style="stop-color:#58B951"/>
			<stop  offset="1" style="stop-color:#58B951"/>
		</radialGradient>
		<path id="path20137_9_" fill="url(#path20137_27_)" stroke="#010101" d="M326.247,324.946c-4.986,0-9.035-4.258-9.035-9.504
			c0-5.25,4.049-9.506,9.035-9.506c4.992,0,9.039,4.256,9.039,9.506C335.286,320.688,331.239,324.946,326.247,324.946z"/>
	</g>
	<g id="g22085_8_" transform="translate(17.00007,-71.31057)">
		
			<radialGradient id="path20137_28_" cx="586.9831" cy="2368.9189" r="11.9653" gradientTransform="matrix(-0.1239 0.2854 0.2713 0.1178 -240.2562 -114.0882)" gradientUnits="userSpaceOnUse">
			<stop  offset="0" style="stop-color:#AAD152"/>
			<stop  offset="0.4082" style="stop-color:#A9D051"/>
			<stop  offset="0.5552" style="stop-color:#A3CE55"/>
			<stop  offset="0.66" style="stop-color:#9ECC54"/>
			<stop  offset="0.7448" style="stop-color:#92C952"/>
			<stop  offset="0.8174" style="stop-color:#84C34F"/>
			<stop  offset="0.8817" style="stop-color:#77C151"/>
			<stop  offset="0.9398" style="stop-color:#65BD55"/>
			<stop  offset="0.9915" style="stop-color:#58B951"/>
			<stop  offset="1" style="stop-color:#58B951"/>
		</radialGradient>
		<path id="path20137_8_" fill="url(#path20137_28_)" stroke="#010101" d="M328.22,335.909c-1.793-0.777-2.582-2.938-1.764-4.822
			c0.82-1.887,2.936-2.784,4.729-2.006c1.793,0.779,2.581,2.938,1.764,4.824C332.129,335.79,330.013,336.688,328.22,335.909z"/>
	</g>
</g>
<g>
	<g>
		<line fill="none" stroke="#010101" x1="398.254" y1="117.044" x2="346.704" y2="117.044"/>
		<polygon fill="#010101" points="349.511,113.341 347.939,117.044 349.511,120.749 340.734,117.044 		"/>
	</g>
</g>
<g>
	<g>
		<line fill="none" stroke="#010101" x1="314.553" y1="106.569" x2="314.553" y2="88.999"/>
		<polygon fill="#010101" points="318.257,91.808 314.553,90.235 310.848,91.808 314.553,83.03 		"/>
	</g>
</g>
<g>
	<g>
		<line fill="none" stroke="#010101" x1="289.307" y1="127.212" x2="224.963" y2="174.305"/>
		<polygon fill="#010101" points="225.042,169.658 225.96,173.575 229.417,175.635 220.146,177.83 		"/>
		<polygon fill="#010101" points="289.228,131.859 288.31,127.942 284.853,125.882 294.125,123.687 		"/>
	</g>
</g>
<g>
	<g>
		<line fill="none" stroke="#010101" x1="223.316" y1="122.567" x2="255.635" y2="152.259"/>
		<polygon fill="#010101" points="227.89,121.741 224.227,123.403 222.878,127.195 218.92,118.529 		"/>
	</g>
</g>
<g>
	<g>
		<line fill="none" stroke="#010101" x1="192.127" y1="193.885" x2="192.127" y2="225.858"/>
		<polygon fill="#010101" points="188.424,223.05 192.127,224.622 195.832,223.05 192.127,231.827 		"/>
	</g>
</g>
<g>
	<g>
		<line fill="none" stroke="#010101" x1="217.441" y1="242.551" x2="316.002" y2="242.552"/>
		<polygon fill="#010101" points="313.194,246.255 314.766,242.552 313.194,238.849 321.971,242.552 		"/>
	</g>
</g>
<g>
	<g id="Akt">
		
			<radialGradient id="Akt_path1_1_" cx="131.6189" cy="400.4014" r="16.1863" gradientTransform="matrix(1.5933 0 0 -0.6358 -54.7976 548.3032)" gradientUnits="userSpaceOnUse">
			<stop  offset="0" style="stop-color:#C2DA65"/>
			<stop  offset="0.4082" style="stop-color:#C2DA65"/>
			<stop  offset="0.5552" style="stop-color:#BDD967"/>
			<stop  offset="0.66" style="stop-color:#B9D766"/>
			<stop  offset="0.7448" style="stop-color:#B1D466"/>
			<stop  offset="0.8174" style="stop-color:#A8D166"/>
			<stop  offset="0.8817" style="stop-color:#9DCE66"/>
			<stop  offset="0.9398" style="stop-color:#93CA65"/>
			<stop  offset="0.9915" style="stop-color:#89C762"/>
			<stop  offset="1" style="stop-color:#87C763"/>
		</radialGradient>
		<path id="Akt_path1" fill="url(#Akt_path1_1_)" stroke="#010101" d="M180.225,293.728c0,5.785-11.338,10.478-25.316,10.478
			c-13.979,0-25.313-4.688-25.313-10.478s11.334-10.477,25.313-10.477C168.887,283.253,180.225,287.94,180.225,293.728z"/>
		<text transform="matrix(1 0 0 1 145.1584 297.25)" font-family="'MyriadPro-Regular'" font-size="12">Akt</text>
	</g>
	<g id="pAkt">
		
			<radialGradient id="pAkt_path1_1_" cx="183.3557" cy="400.4014" r="16.186" gradientTransform="matrix(1.5933 0 0 -0.6358 -54.7976 548.3032)" gradientUnits="userSpaceOnUse">
			<stop  offset="0" style="stop-color:#C2DA65"/>
			<stop  offset="0.4082" style="stop-color:#C2DA65"/>
			<stop  offset="0.5552" style="stop-color:#BDD967"/>
			<stop  offset="0.66" style="stop-color:#B9D766"/>
			<stop  offset="0.7448" style="stop-color:#B1D466"/>
			<stop  offset="0.8174" style="stop-color:#A8D166"/>
			<stop  offset="0.8817" style="stop-color:#9DCE66"/>
			<stop  offset="0.9398" style="stop-color:#93CA65"/>
			<stop  offset="0.9915" style="stop-color:#89C762"/>
			<stop  offset="1" style="stop-color:#87C763"/>
		</radialGradient>
		<path id="pAkt_path1" fill="url(#pAkt_path1_1_)" stroke="#010101" d="M262.658,293.728c0,5.785-11.338,10.478-25.316,10.478
			c-13.979,0-25.313-4.688-25.313-10.478s11.334-10.477,25.313-10.477C251.32,283.253,262.658,287.94,262.658,293.728z"/>
		<text transform="matrix(1 0 0 1 223.8914 297.25)" font-family="'MyriadPro-Regular'" font-size="12">pAkt</text>
	</g>
	<g>
		<g>
			<line fill="none" stroke="#010101" stroke-width="1.0809" x1="178.111" y1="289.728" x2="206.659" y2="289.728"/>
			<polygon fill="#010101" points="203.623,293.729 205.323,289.728 203.623,285.724 213.111,289.728 			"/>
		</g>
	</g>
	<line fill="none" stroke="#010101" x1="192.126" y1="253.028" x2="192.125" y2="289.728"/>
	<g>
		<g>
			<line fill="none" stroke="#010101" x1="214.659" y1="298.251" x2="184.375" y2="298.249"/>
			<polygon fill="#010101" points="187.184,294.546 185.611,298.249 187.184,301.954 178.406,298.249 			"/>
		</g>
	</g>
</g>
<g>
	<g id="S6">
		
			<radialGradient id="S6_path1_1_" cx="159.9578" cy="319.0879" r="16.1858" gradientTransform="matrix(1.5933 0 0 -0.6358 -54.7976 548.3032)" gradientUnits="userSpaceOnUse">
			<stop  offset="0" style="stop-color:#C2DA65"/>
			<stop  offset="0.4082" style="stop-color:#C2DA65"/>
			<stop  offset="0.5552" style="stop-color:#BDD967"/>
			<stop  offset="0.66" style="stop-color:#B9D766"/>
			<stop  offset="0.7448" style="stop-color:#B1D466"/>
			<stop  offset="0.8174" style="stop-color:#A8D166"/>
			<stop  offset="0.8817" style="stop-color:#9DCE66"/>
			<stop  offset="0.9398" style="stop-color:#93CA65"/>
			<stop  offset="0.9915" style="stop-color:#89C762"/>
			<stop  offset="1" style="stop-color:#87C763"/>
		</radialGradient>
		<path id="S6_path1" fill="url(#S6_path1_1_)" stroke="#010101" d="M225.378,345.425c0,5.787-11.338,10.479-25.315,10.479
			c-13.98,0-25.314-4.688-25.314-10.479c0-5.787,11.334-10.475,25.314-10.475C214.041,334.95,225.378,339.638,225.378,345.425z"/>
		<text transform="matrix(1 0 0 1 194.0266 348.9482)" font-family="'MyriadPro-Regular'" font-size="12">S6</text>
	</g>
	<g id="pS6">
		
			<radialGradient id="pS6_path1_1_" cx="211.7756" cy="319.0879" r="16.1855" gradientTransform="matrix(1.5933 0 0 -0.6358 -54.7976 548.3032)" gradientUnits="userSpaceOnUse">
			<stop  offset="0" style="stop-color:#C2DA65"/>
			<stop  offset="0.4082" style="stop-color:#C2DA65"/>
			<stop  offset="0.5552" style="stop-color:#BDD967"/>
			<stop  offset="0.66" style="stop-color:#B9D766"/>
			<stop  offset="0.7448" style="stop-color:#B1D466"/>
			<stop  offset="0.8174" style="stop-color:#A8D166"/>
			<stop  offset="0.8817" style="stop-color:#9DCE66"/>
			<stop  offset="0.9398" style="stop-color:#93CA65"/>
			<stop  offset="0.9915" style="stop-color:#89C762"/>
			<stop  offset="1" style="stop-color:#87C763"/>
		</radialGradient>
		<path id="pS6_path1" fill="url(#pS6_path1_1_)" stroke="#010101" d="M307.939,345.425c0,5.787-11.338,10.479-25.316,10.479
			c-13.979,0-25.313-4.688-25.313-10.479c0-5.787,11.334-10.475,25.313-10.475C296.601,334.95,307.939,339.638,307.939,345.425z"/>
		<text transform="matrix(1 0 0 1 273.1736 348.9482)" font-family="'MyriadPro-Regular'" font-size="12">pS6</text>
	</g>
	<g>
		<g>
			<line fill="none" stroke="#010101" stroke-width="1.0809" x1="223.378" y1="340.903" x2="251.926" y2="340.903"/>
			<polygon fill="#010101" points="248.891,344.907 250.59,340.903 248.891,336.899 258.378,340.903 			"/>
		</g>
	</g>
	<line fill="none" stroke="#010101" x1="237.394" y1="304.205" x2="237.392" y2="340.903"/>
	<g>
		<g>
			<line fill="none" stroke="#010101" x1="259.926" y1="349.429" x2="229.642" y2="349.426"/>
			<polygon fill="#010101" points="232.451,345.724 230.878,349.426 232.451,353.13 223.673,349.426 			"/>
		</g>
	</g>
</g>
<text transform="matrix(1 0 0 1 364.781 112.5234)" font-family="'MyriadPro-Regular'" font-size="12">re1</text>
<text transform="matrix(1 0 0 1 318.5251 100.4795)" font-family="'MyriadPro-Regular'" font-size="12">re2</text>
<text transform="matrix(1 0 0 1 250.7947 138.4131)" font-family="'MyriadPro-Regular'" font-size="12">re3</text>
<text transform="matrix(1 0 0 1 172.7478 214.667)" font-family="'MyriadPro-Regular'" font-size="12">re4</text>
<text transform="matrix(1 0 0 1 250.7947 236.0303)" font-family="'MyriadPro-Regular'" font-size="12">re5</text>
<text transform="matrix(1 0 0 1 172.7478 273.999)" font-family="'MyriadPro-Regular'" font-size="12">re6</text>
<text transform="matrix(1 0 0 1 194.0266 314)" font-family="'MyriadPro-Regular'" font-size="12">re7</text>
<text transform="matrix(1 0 0 1 216.6965 328.667)" font-family="'MyriadPro-Regular'" font-size="12">re8</text>
<text transform="matrix(1 0 0 1 239.4763 363.333)" font-family="'MyriadPro-Regular'" font-size="12">re9</text>
<g id="EGFR_i">
	
		<radialGradient id="EGFR_i_path1_1_" cx="154.9768" cy="771.1338" r="16.186" gradientTransform="matrix(1.5933 0 0 -0.6358 -54.7976 548.3032)" gradientUnits="userSpaceOnUse">
		<stop  offset="0" style="stop-color:#C2DA65"/>
		<stop  offset="0.4082" style="stop-color:#C2DA65"/>
		<stop  offset="0.5552" style="stop-color:#BDD967"/>
		<stop  offset="0.66" style="stop-color:#B9D766"/>
		<stop  offset="0.7448" style="stop-color:#B1D466"/>
		<stop  offset="0.8174" style="stop-color:#A8D166"/>
		<stop  offset="0.8817" style="stop-color:#9DCE66"/>
		<stop  offset="0.9398" style="stop-color:#93CA65"/>
		<stop  offset="0.9915" style="stop-color:#89C762"/>
		<stop  offset="1" style="stop-color:#87C763"/>
	</radialGradient>
	<path id="EGFR_i_path1" fill="url(#EGFR_i_path1_1_)" stroke="#010101" d="M217.441,58.015c0,5.787-11.338,10.478-25.314,10.478
		c-13.981,0-25.315-4.689-25.315-10.478c0-5.788,11.333-10.476,25.315-10.476C206.103,47.541,217.441,52.228,217.441,58.015z"/>
	<text transform="matrix(1 0 0 1 174.7444 61.5391)" font-family="'MyriadPro-Regular'" font-size="12">EGFR_i</text>
</g>
<g>
	<g>
		<line fill="none" stroke="#000000" x1="217.441" y1="58.015" x2="292.073" y2="58.015"/>
		<polygon points="289.264,61.718 290.837,58.015 289.264,54.311 298.042,58.015 		"/>
	</g>
</g>
<g>
	<g>
		<line fill="none" stroke="#010101" x1="284.045" y1="112.433" x2="217.544" y2="68.438"/>
		<polygon fill="#010101" points="221.93,66.899 218.575,69.12 217.843,73.077 212.565,65.145 		"/>
		<polygon fill="#010101" points="279.659,113.972 283.015,111.751 283.746,107.794 289.023,115.727 		"/>
	</g>
</g>
<g id="EGF_EGFR_i">
	
		<radialGradient id="EGF_EGFR_i_path1_1_" cx="58.3684" cy="676.7178" r="16.1865" gradientTransform="matrix(2.1418 0 0 -0.6358 -61.7991 548.3032)" gradientUnits="userSpaceOnUse">
		<stop  offset="0" style="stop-color:#C2DA65"/>
		<stop  offset="0.4082" style="stop-color:#C2DA65"/>
		<stop  offset="0.5552" style="stop-color:#BDD967"/>
		<stop  offset="0.66" style="stop-color:#B9D766"/>
		<stop  offset="0.7448" style="stop-color:#B1D466"/>
		<stop  offset="0.8174" style="stop-color:#A8D166"/>
		<stop  offset="0.8817" style="stop-color:#9DCE66"/>
		<stop  offset="0.9398" style="stop-color:#93CA65"/>
		<stop  offset="0.9915" style="stop-color:#89C762"/>
		<stop  offset="1" style="stop-color:#87C763"/>
	</radialGradient>
	<path id="EGF_EGFR_i_path1" fill="url(#EGF_EGFR_i_path1_1_)" stroke="#010101" stroke-width="1.0445" d="M97.243,118.044
		c0,5.787-15.241,10.479-34.028,10.479c-18.795,0-34.03-4.689-34.03-10.479c0-5.788,15.235-10.476,34.03-10.476
		C82.002,107.569,97.243,112.257,97.243,118.044z"/>
	<text transform="matrix(1 0 0 1 34.2395 121.5674)" font-family="'MyriadPro-Regular'" font-size="12">EGF-EGFR_i</text>
</g>
<g>
	<g>
		<line fill="none" stroke="#010101" x1="161.629" y1="172.756" x2="95.129" y2="128.762"/>
		<polygon fill="#010101" points="99.515,127.223 96.16,129.443 95.428,133.4 90.15,125.468 		"/>
		<polygon fill="#010101" points="157.244,174.294 160.599,172.074 161.331,168.117 166.608,176.049 		"/>
	</g>
</g>
<g>
	<g>
		<line fill="none" stroke="#010101" x1="102.037" y1="112.433" x2="168.537" y2="68.438"/>
		<polygon fill="#010101" points="168.238,73.077 167.507,69.12 164.151,66.899 173.516,65.145 		"/>
		<polygon fill="#010101" points="102.336,107.795 103.068,111.751 106.423,113.973 97.059,115.727 		"/>
	</g>
</g>
<g>
	<g>
		<line fill="none" stroke="#010101" x1="160.909" y1="115.045" x2="134.999" y2="91.156"/>
		<polygon fill="#010101" points="156.334,115.864 160,114.208 161.355,110.418 165.298,119.092 		"/>
	</g>
</g>
<line fill="none" stroke="#010101" x1="130.646" y1="152.259" x2="13.329" y2="152.259"/>
<line fill="none" stroke="#010101" x1="13.329" y1="152.259" x2="13.329" y2="28.001"/>
<g>
	<g>
		<line fill="none" stroke="#010101" x1="13.996" y1="28.001" x2="70.663" y2="28.001"/>
		<polygon fill="#010101" points="67.854,31.705 69.427,28.001 67.854,24.297 76.632,28.001 		"/>
	</g>
</g>
<line fill="none" stroke="#010101" x1="255.447" y1="93.514" x2="255.447" y2="28.001"/>
<g>
	<g>
		<line fill="none" stroke="#010101" x1="255.447" y1="28.001" x2="134.999" y2="28.001"/>
		<polygon fill="#010101" points="137.808,24.298 136.235,28.001 137.808,31.706 129.03,28.001 		"/>
	</g>
</g>
<g id="inhibitor">
	
		<radialGradient id="inhibitor_path1_1_" cx="99.0618" cy="818.3418" r="16.186" gradientTransform="matrix(1.5933 0 0 -0.6358 -54.7976 548.3032)" gradientUnits="userSpaceOnUse">
		<stop  offset="0" style="stop-color:#C2DA65"/>
		<stop  offset="0.4082" style="stop-color:#C2DA65"/>
		<stop  offset="0.5552" style="stop-color:#BDD967"/>
		<stop  offset="0.66" style="stop-color:#B9D766"/>
		<stop  offset="0.7448" style="stop-color:#B1D466"/>
		<stop  offset="0.8174" style="stop-color:#A8D166"/>
		<stop  offset="0.8817" style="stop-color:#9DCE66"/>
		<stop  offset="0.9398" style="stop-color:#93CA65"/>
		<stop  offset="0.9915" style="stop-color:#89C762"/>
		<stop  offset="1" style="stop-color:#87C763"/>
	</radialGradient>
	<path id="inhibitor_path1" fill="url(#inhibitor_path1_1_)" stroke="#010101" d="M128.352,28c0,5.786-11.338,10.478-25.314,10.478
		c-13.981,0-25.315-4.689-25.315-10.478s11.334-10.476,25.315-10.476C117.014,17.526,128.352,22.213,128.352,28z"/>
	<text transform="matrix(1 0 0 1 81.5457 31.5244)" font-family="'MyriadPro-Regular'" font-size="12">inhibitor</text>
</g>
<text transform="matrix(1 0 0 1 145.1584 21.4805)" font-family="'MyriadPro-Regular'" font-size="12">re10</text>
<text transform="matrix(1 0 0 1 42.3293 21.4805)" font-family="'MyriadPro-Regular'" font-size="12">re12</text>
<text transform="matrix(1 0 0 1 225.3787 51.4941)" font-family="'MyriadPro-Regular'" font-size="12">re11</text>
<text transform="matrix(1 0 0 1 124.5291 75.9551)" font-family="'MyriadPro-Regular'" font-size="12">re13</text>
</svg>
