<?xml version="1.0" encoding="UTF-8" standalone="no"?>
<!DOCTYPE svg PUBLIC "-//W3C//DTD SVG 1.1//EN"
 "http://www.w3.org/Graphics/SVG/1.1/DTD/svg11.dtd">
<!-- Generated by graphviz version 2.24.0 (20090616.2323)
 -->
<!-- Title: G Pages: 1 -->
<svg width="626pt" height="98pt"
 viewBox="0.00 0.00 626.00 98.00" xmlns="http://www.w3.org/2000/svg" xmlns:xlink="http://www.w3.org/1999/xlink">
<g id="graph1" class="graph" transform="scale(1 1) rotate(0) translate(4 94)">
<title>G</title>
<polygon fill="white" stroke="white" points="-4,5 -4,-94 623,-94 623,5 -4,5"/>
<!-- S -->
<g id="node1" class="node"><title>S</title>
<ellipse fill="none" stroke="black" cx="203" cy="-36" rx="27" ry="18"/>
<text text-anchor="middle" x="203" y="-33.5" font-family="Times Roman,serif" font-size="10.00">S</text>
</g>
<!-- r2_intermediate_r -->
<g id="node11" class="node"><title>r2_intermediate_r</title>
<ellipse fill="black" stroke="black" cx="266" cy="-52" rx="0.036" ry="0.036"/>
</g>
<!-- S&#45;&gt;r2_intermediate_r -->
<g id="edge10" class="edge"><title>S&#45;&gt;r2_intermediate_r</title>
<path fill="none" stroke="black" d="M238.344,-44.9761C252.16,-48.485 264.974,-51.7395 265.941,-51.9851"/>
<polygon fill="black" stroke="black" points="238.815,-41.4849 228.262,-42.4156 237.092,-48.2695 238.815,-41.4849"/>
</g>
<!-- r3_intermediate_r -->
<g id="node18" class="node"><title>r3_intermediate_r</title>
<ellipse fill="black" stroke="black" cx="266" cy="-27" rx="0.036" ry="0.036"/>
</g>
<!-- S&#45;&gt;r3_intermediate_r -->
<g id="edge18" class="edge"><title>S&#45;&gt;r3_intermediate_r</title>
<path fill="none" stroke="black" d="M239.919,-30.7258C253.135,-28.8379 265.038,-27.1374 265.945,-27.0079"/>
<polygon fill="black" stroke="black" points="239.122,-27.3041 229.718,-32.1832 240.112,-34.2337 239.122,-27.3041"/>
</g>
<!-- N1 -->
<g id="node2" class="node"><title>N1</title>
<ellipse fill="none" stroke="black" cx="415" cy="-72" rx="27" ry="18"/>
<text text-anchor="middle" x="415" y="-69.5" font-family="Times Roman,serif" font-size="10.00">N1</text>
</g>
<!-- r4_intermediate_r -->
<g id="node25" class="node"><title>r4_intermediate_r</title>
<ellipse fill="black" stroke="black" cx="478" cy="-72" rx="0.036" ry="0.036"/>
</g>
<!-- N1&#45;&gt;r4_intermediate_r -->
<g id="edge26" class="edge"><title>N1&#45;&gt;r4_intermediate_r</title>
<path fill="none" stroke="black" d="M452.211,-72C465.314,-72 477.052,-72 477.945,-72"/>
<polygon fill="black" stroke="black" points="452.083,-68.5001 442.083,-72 452.083,-75.5001 452.083,-68.5001"/>
</g>
<!-- N2 -->
<g id="node3" class="node"><title>N2</title>
<ellipse fill="none" stroke="black" cx="415" cy="-18" rx="27" ry="18"/>
<text text-anchor="middle" x="415" y="-15.5" font-family="Times Roman,serif" font-size="10.00">N2</text>
</g>
<!-- r5_intermediate_r -->
<g id="node31" class="node"><title>r5_intermediate_r</title>
<ellipse fill="black" stroke="black" cx="478" cy="-18" rx="0.036" ry="0.036"/>
</g>
<!-- N2&#45;&gt;r5_intermediate_r -->
<g id="edge32" class="edge"><title>N2&#45;&gt;r5_intermediate_r</title>
<path fill="none" stroke="black" d="M452.211,-18C465.314,-18 477.052,-18 477.945,-18"/>
<polygon fill="black" stroke="black" points="452.083,-14.5001 442.083,-18 452.083,-21.5001 452.083,-14.5001"/>
</g>
<!-- r1 -->
<g id="node4" class="node"><title>r1</title>
<polygon fill="none" stroke="black" points="104,-43 90,-43 90,-29 104,-29 104,-43"/>
</g>
<!-- r1_intermediate_p -->
<g id="node7" class="node"><title>r1_intermediate_p</title>
<ellipse fill="black" stroke="black" cx="140" cy="-36" rx="0.036" ry="0.036"/>
</g>
<!-- r1&#45;&gt;r1_intermediate_p -->
<g id="edge4" class="edge"><title>r1&#45;&gt;r1_intermediate_p</title>
<path fill="none" stroke="black" d="M104.101,-36C115.932,-36 138.531,-36 139.932,-36"/>
</g>
<!-- r1_empty -->
<g id="node5" class="node"><title>r1_empty</title>
<text text-anchor="middle" x="27" y="-31.5" font-family="Times Roman,serif" font-size="15.00" fill="blue">Ø</text>
</g>
<!-- r1_empty&#45;&gt;r1 -->
<g id="edge2" class="edge"><title>r1_empty&#45;&gt;r1</title>
<path fill="none" stroke="black" d="M54.2643,-36C67.1627,-36 81.5367,-36 89.8947,-36"/>
</g>
<!-- r1_intermediate_p&#45;&gt;S -->
<g id="edge6" class="edge"><title>r1_intermediate_p&#45;&gt;S</title>
<path fill="none" stroke="black" d="M140.046,-36C140.865,-36 152.597,-36 165.716,-36"/>
<polygon fill="black" stroke="black" points="165.86,-39.5001 175.86,-36 165.859,-32.5001 165.86,-39.5001"/>
</g>
<!-- r2 -->
<g id="node10" class="node"><title>r2</title>
<polygon fill="none" stroke="black" points="316,-74 302,-74 302,-60 316,-60 316,-74"/>
</g>
<!-- r2_intermediate_p -->
<g id="node14" class="node"><title>r2_intermediate_p</title>
<ellipse fill="black" stroke="black" cx="352" cy="-70" rx="0.036" ry="0.036"/>
</g>
<!-- r2&#45;&gt;r2_intermediate_p -->
<g id="edge12" class="edge"><title>r2&#45;&gt;r2_intermediate_p</title>
<path fill="none" stroke="black" d="M316.101,-67.4954C327.932,-68.3208 350.531,-69.8975 351.932,-69.9952"/>
</g>
<!-- r2_intermediate_r&#45;&gt;r2 -->
<g id="edge8" class="edge"><title>r2_intermediate_r&#45;&gt;r2</title>
<path fill="none" stroke="black" d="M266.123,-52.043C267.976,-52.6891 290.231,-60.4527 301.924,-64.5315"/>
</g>
<!-- r2_intermediate_p&#45;&gt;N1 -->
<g id="edge14" class="edge"><title>r2_intermediate_p&#45;&gt;N1</title>
<path fill="none" stroke="black" d="M352.046,-70.0014C352.865,-70.0275 364.597,-70.3999 377.716,-70.8164"/>
<polygon fill="black" stroke="black" points="377.753,-74.3192 387.86,-71.1384 377.976,-67.3228 377.753,-74.3192"/>
</g>
<!-- r3 -->
<g id="node17" class="node"><title>r3</title>
<polygon fill="none" stroke="black" points="316,-31 302,-31 302,-17 316,-17 316,-31"/>
</g>
<!-- r3_intermediate_p -->
<g id="node21" class="node"><title>r3_intermediate_p</title>
<ellipse fill="black" stroke="black" cx="352" cy="-19" rx="0.036" ry="0.036"/>
</g>
<!-- r3&#45;&gt;r3_intermediate_p -->
<g id="edge20" class="edge"><title>r3&#45;&gt;r3_intermediate_p</title>
<path fill="none" stroke="black" d="M316.101,-23.1744C327.932,-21.7986 350.531,-19.1708 351.932,-19.0079"/>
</g>
<!-- r3_intermediate_r&#45;&gt;r3 -->
<g id="edge16" class="edge"><title>r3_intermediate_r&#45;&gt;r3</title>
<path fill="none" stroke="black" d="M266.123,-26.9914C267.976,-26.8622 290.231,-25.3095 301.924,-24.4937"/>
</g>
<!-- r3_intermediate_p&#45;&gt;N2 -->
<g id="edge22" class="edge"><title>r3_intermediate_p&#45;&gt;N2</title>
<path fill="none" stroke="black" d="M352.046,-18.9993C352.865,-18.9863 364.597,-18.8 377.716,-18.5918"/>
<polygon fill="black" stroke="black" points="377.916,-22.0892 387.86,-18.4308 377.805,-15.09 377.916,-22.0892"/>
</g>
<!-- r4 -->
<g id="node24" class="node"><title>r4</title>
<polygon fill="none" stroke="black" points="528,-79 514,-79 514,-65 528,-65 528,-79"/>
</g>
<!-- r4_empty -->
<g id="node28" class="node"><title>r4_empty</title>
<text text-anchor="middle" x="591" y="-67.5" font-family="Times Roman,serif" font-size="15.00" fill="blue">Ø</text>
</g>
<!-- r4&#45;&gt;r4_empty -->
<g id="edge28" class="edge"><title>r4&#45;&gt;r4_empty</title>
<path fill="none" stroke="black" d="M528.228,-72C534.45,-72 543.94,-72 553.672,-72"/>
<polygon fill="black" stroke="black" points="553.773,-75.5001 563.773,-72 553.773,-68.5001 553.773,-75.5001"/>
</g>
<!-- r4_intermediate_r&#45;&gt;r4 -->
<g id="edge24" class="edge"><title>r4_intermediate_r&#45;&gt;r4</title>
<path fill="none" stroke="black" d="M478.123,-72C479.976,-72 502.231,-72 513.924,-72"/>
</g>
<!-- r5 -->
<g id="node30" class="node"><title>r5</title>
<polygon fill="none" stroke="black" points="528,-25 514,-25 514,-11 528,-11 528,-25"/>
</g>
<!-- r5_empty -->
<g id="node34" class="node"><title>r5_empty</title>
<text text-anchor="middle" x="591" y="-13.5" font-family="Times Roman,serif" font-size="15.00" fill="blue">Ø</text>
</g>
<!-- r5&#45;&gt;r5_empty -->
<g id="edge34" class="edge"><title>r5&#45;&gt;r5_empty</title>
<path fill="none" stroke="black" d="M528.228,-18C534.45,-18 543.94,-18 553.672,-18"/>
<polygon fill="black" stroke="black" points="553.773,-21.5001 563.773,-18 553.773,-14.5001 553.773,-21.5001"/>
</g>
<!-- r5_intermediate_r&#45;&gt;r5 -->
<g id="edge30" class="edge"><title>r5_intermediate_r&#45;&gt;r5</title>
<path fill="none" stroke="black" d="M478.123,-18C479.976,-18 502.231,-18 513.924,-18"/>
</g>
</g>
</svg>
