<?xml version="1.0" encoding="UTF-8" standalone="no"?>
<!DOCTYPE svg PUBLIC "-//W3C//DTD SVG 1.1//EN"
 "http://www.w3.org/Graphics/SVG/1.1/DTD/svg11.dtd">
<!-- Generated by graphviz version 2.24.0 (20090616.2323)
 -->
<!-- Title: G Pages: 1 -->
<svg width="854pt" height="1755pt"
 viewBox="0.00 0.00 854.00 1755.00" xmlns="http://www.w3.org/2000/svg" xmlns:xlink="http://www.w3.org/1999/xlink">
<g id="graph1" class="graph" transform="scale(1 1) rotate(0) translate(4 1751)">
<title>G</title>
<polygon fill="white" stroke="white" points="-4,5 -4,-1751 851,-1751 851,5 -4,5"/>
<!-- AUR1 -->
<g id="node1" class="node"><title>AUR1</title>
<ellipse fill="none" stroke="black" cx="133" cy="-61" rx="27" ry="18"/>
<text text-anchor="middle" x="133" y="-58.5" font-family="Times Roman,serif" font-size="10.00">AUR1</text>
</g>
<!-- pp2_v1_intermediate_m -->
<g id="node99" class="node"><title>pp2_v1_intermediate_m</title>
<ellipse fill="black" stroke="black" cx="213" cy="-61" rx="0.036" ry="0.036"/>
</g>
<!-- AUR1&#45;&gt;pp2_v1_intermediate_m -->
<g id="edge78" class="edge"><title>AUR1&#45;&gt;pp2_v1_intermediate_m</title>
<path fill="none" stroke="black" d="M158.312,-54.6719C181.018,-53.3096 211.055,-55.2466 212.91,-60.483"/>
</g>
<!-- AUR1&#45;&gt;pp2_v1_intermediate_m -->
<g id="edge80" class="edge"><title>AUR1&#45;&gt;pp2_v1_intermediate_m</title>
<path fill="none" stroke="black" d="M158.312,-67.3281C181.018,-68.6904 211.055,-66.7534 212.91,-61.517"/>
</g>
<!-- IPTG -->
<g id="node2" class="node"><title>IPTG</title>
<ellipse fill="none" stroke="black" cx="30" cy="-226" rx="27" ry="18"/>
<text text-anchor="middle" x="30" y="-223.5" font-family="Times Roman,serif" font-size="10.00">IPTG</text>
</g>
<!-- ia1_bind_forward_intermediate_r -->
<g id="node71" class="node"><title>ia1_bind_forward_intermediate_r</title>
<ellipse fill="black" stroke="black" cx="133" cy="-226" rx="0.036" ry="0.036"/>
</g>
<!-- IPTG&#45;&gt;ia1_bind_forward_intermediate_r -->
<g id="edge42" class="edge"><title>IPTG&#45;&gt;ia1_bind_forward_intermediate_r</title>
<path fill="none" stroke="black" d="M57.062,-226C86.6255,-226 130.176,-226 132.869,-226"/>
</g>
<!-- ia1_bind_forward_intermediate_m -->
<g id="node78" class="node"><title>ia1_bind_forward_intermediate_m</title>
<ellipse fill="black" stroke="black" cx="846" cy="-208" rx="0.036" ry="0.036"/>
</g>
<!-- IPTG&#45;&gt;ia1_bind_forward_intermediate_m -->
<g id="edge52" class="edge"><title>IPTG&#45;&gt;ia1_bind_forward_intermediate_m</title>
<path fill="none" stroke="black" d="M53.5643,-235.225C88.0177,-247.859 154.418,-269 213,-269 213,-269 213,-269 673,-269 735.736,-269 753.33,-261.913 810,-235 827.502,-226.688 844.879,-209.142 845.948,-208.053"/>
</g>
<!-- LACI -->
<g id="node3" class="node"><title>LACI</title>
<ellipse fill="none" stroke="black" cx="133" cy="-358" rx="27" ry="18"/>
<text text-anchor="middle" x="133" y="-355.5" font-family="Times Roman,serif" font-size="10.00">LACI</text>
</g>
<!-- pp4_v1_intermediate_m -->
<g id="node156" class="node"><title>pp4_v1_intermediate_m</title>
<ellipse fill="black" stroke="black" cx="213" cy="-358" rx="0.036" ry="0.036"/>
</g>
<!-- LACI&#45;&gt;pp4_v1_intermediate_m -->
<g id="edge144" class="edge"><title>LACI&#45;&gt;pp4_v1_intermediate_m</title>
<path fill="none" stroke="black" d="M158.312,-351.672C181.018,-350.31 211.055,-352.247 212.91,-357.483"/>
</g>
<!-- LACI&#45;&gt;pp4_v1_intermediate_m -->
<g id="edge146" class="edge"><title>LACI&#45;&gt;pp4_v1_intermediate_m</title>
<path fill="none" stroke="black" d="M158.312,-364.328C181.018,-365.69 211.055,-363.753 212.91,-358.517"/>
</g>
<!-- LAMDAR -->
<g id="node4" class="node"><title>LAMDAR</title>
<ellipse fill="none" stroke="black" cx="133" cy="-444" rx="36.9352" ry="18"/>
<text text-anchor="middle" x="133" y="-441.5" font-family="Times Roman,serif" font-size="10.00">LAMDAR</text>
</g>
<!-- pp5_v1_intermediate_m -->
<g id="node57" class="node"><title>pp5_v1_intermediate_m</title>
<ellipse fill="black" stroke="black" cx="213" cy="-444" rx="0.036" ry="0.036"/>
</g>
<!-- LAMDAR&#45;&gt;pp5_v1_intermediate_m -->
<g id="edge26" class="edge"><title>LAMDAR&#45;&gt;pp5_v1_intermediate_m</title>
<path fill="none" stroke="black" d="M167.391,-437.309C188.397,-436.862 211.507,-438.941 212.931,-443.546"/>
</g>
<!-- LAMDAR&#45;&gt;pp5_v1_intermediate_m -->
<g id="edge28" class="edge"><title>LAMDAR&#45;&gt;pp5_v1_intermediate_m</title>
<path fill="none" stroke="black" d="M167.391,-450.691C188.397,-451.138 211.507,-449.059 212.931,-444.454"/>
</g>
<!-- SLS1 -->
<g id="node5" class="node"><title>SLS1</title>
<ellipse fill="none" stroke="black" cx="30" cy="-455" rx="27" ry="18"/>
<text text-anchor="middle" x="30" y="-452.5" font-family="Times Roman,serif" font-size="10.00">SLS1</text>
</g>
<!-- SLS4 -->
<g id="node6" class="node"><title>SLS4</title>
<ellipse fill="none" stroke="black" cx="133" cy="-552" rx="27" ry="18"/>
<text text-anchor="middle" x="133" y="-549.5" font-family="Times Roman,serif" font-size="10.00">SLS4</text>
</g>
<!-- pp3_v1_intermediate_m -->
<g id="node137" class="node"><title>pp3_v1_intermediate_m</title>
<ellipse fill="black" stroke="black" cx="213" cy="-552" rx="0.036" ry="0.036"/>
</g>
<!-- SLS4&#45;&gt;pp3_v1_intermediate_m -->
<g id="edge122" class="edge"><title>SLS4&#45;&gt;pp3_v1_intermediate_m</title>
<path fill="none" stroke="black" d="M158.312,-545.672C181.018,-544.31 211.055,-546.247 212.91,-551.483"/>
</g>
<!-- SLS4&#45;&gt;pp3_v1_intermediate_m -->
<g id="edge124" class="edge"><title>SLS4&#45;&gt;pp3_v1_intermediate_m</title>
<path fill="none" stroke="black" d="M158.312,-558.328C181.018,-559.69 211.055,-557.753 212.91,-552.517"/>
</g>
<!-- TETR -->
<g id="node7" class="node"><title>TETR</title>
<ellipse fill="none" stroke="black" cx="133" cy="-638" rx="27" ry="18"/>
<text text-anchor="middle" x="133" y="-635.5" font-family="Times Roman,serif" font-size="10.00">TETR</text>
</g>
<!-- pp6_v1_intermediate_m -->
<g id="node118" class="node"><title>pp6_v1_intermediate_m</title>
<ellipse fill="black" stroke="black" cx="213" cy="-638" rx="0.036" ry="0.036"/>
</g>
<!-- TETR&#45;&gt;pp6_v1_intermediate_m -->
<g id="edge100" class="edge"><title>TETR&#45;&gt;pp6_v1_intermediate_m</title>
<path fill="none" stroke="black" d="M158.312,-631.672C181.018,-630.31 211.055,-632.247 212.91,-637.483"/>
</g>
<!-- TETR&#45;&gt;pp6_v1_intermediate_m -->
<g id="edge102" class="edge"><title>TETR&#45;&gt;pp6_v1_intermediate_m</title>
<path fill="none" stroke="black" d="M158.312,-644.328C181.018,-645.69 211.055,-643.753 212.91,-638.517"/>
</g>
<!-- as1 -->
<g id="node8" class="node"><title>as1</title>
<ellipse fill="none" stroke="black" cx="30" cy="-649" rx="27" ry="18"/>
<text text-anchor="middle" x="30" y="-646.5" font-family="Times Roman,serif" font-size="10.00">as1</text>
</g>
<!-- ia1_ActiveTF -->
<g id="node9" class="node"><title>ia1_ActiveTF</title>
<ellipse fill="none" stroke="black" cx="760" cy="-208" rx="49.8625" ry="18"/>
<text text-anchor="middle" x="760" y="-205.5" font-family="Times Roman,serif" font-size="10.00">ia1_ActiveTF</text>
</g>
<!-- ia1_ActiveTF&#45;&gt;ia1_bind_forward_intermediate_r -->
<g id="edge44" class="edge"><title>ia1_ActiveTF&#45;&gt;ia1_bind_forward_intermediate_r</title>
<path fill="none" stroke="black" d="M717.954,-217.888C687.804,-224.121 646.125,-231 609,-231 303,-231 303,-231 303,-231 228.593,-231 135.946,-226.155 133.069,-226.004"/>
</g>
<!-- ia1_ActiveTF&#45;&gt;ia1_bind_forward_intermediate_m -->
<g id="edge54" class="edge"><title>ia1_ActiveTF&#45;&gt;ia1_bind_forward_intermediate_m</title>
<path fill="none" stroke="black" d="M810.027,-208C828.355,-208 844.932,-208 845.951,-208"/>
</g>
<!-- ia1_InactiveTF -->
<g id="node10" class="node"><title>ia1_InactiveTF</title>
<ellipse fill="none" stroke="black" cx="441" cy="-139" rx="54.7872" ry="18"/>
<text text-anchor="middle" x="441" y="-136.5" font-family="Times Roman,serif" font-size="10.00">ia1_InactiveTF</text>
</g>
<!-- ia1_bind_reverse_intermediate_r -->
<g id="node83" class="node"><title>ia1_bind_reverse_intermediate_r</title>
<ellipse fill="black" stroke="black" cx="539" cy="-155" rx="0.036" ry="0.036"/>
</g>
<!-- ia1_InactiveTF&#45;&gt;ia1_bind_reverse_intermediate_r -->
<g id="edge58" class="edge"><title>ia1_InactiveTF&#45;&gt;ia1_bind_reverse_intermediate_r</title>
<path fill="none" stroke="black" d="M490.287,-147.047C513.928,-150.907 537.481,-154.752 538.93,-154.988"/>
</g>
<!-- ia1_bind_reverse_intermediate_m -->
<g id="node90" class="node"><title>ia1_bind_reverse_intermediate_m</title>
<ellipse fill="black" stroke="black" cx="673" cy="-140" rx="0.036" ry="0.036"/>
</g>
<!-- ia1_InactiveTF&#45;&gt;ia1_bind_reverse_intermediate_m -->
<g id="edge68" class="edge"><title>ia1_InactiveTF&#45;&gt;ia1_bind_reverse_intermediate_m</title>
<path fill="none" stroke="black" d="M496.275,-139.238C563.824,-139.529 669.631,-139.985 672.921,-140"/>
</g>
<!-- ope1 -->
<g id="node11" class="node"><title>ope1</title>
<ellipse fill="none" stroke="black" cx="30" cy="-703" rx="27" ry="18"/>
<text text-anchor="middle" x="30" y="-700.5" font-family="Times Roman,serif" font-size="10.00">ope1</text>
</g>
<!-- p1 -->
<g id="node12" class="node"><title>p1</title>
<ellipse fill="none" stroke="black" cx="30" cy="-757" rx="27" ry="18"/>
<text text-anchor="middle" x="30" y="-754.5" font-family="Times Roman,serif" font-size="10.00">p1</text>
</g>
<!-- p2 -->
<g id="node13" class="node"><title>p2</title>
<ellipse fill="none" stroke="black" cx="30" cy="-811" rx="27" ry="18"/>
<text text-anchor="middle" x="30" y="-808.5" font-family="Times Roman,serif" font-size="10.00">p2</text>
</g>
<!-- p3 -->
<g id="node14" class="node"><title>p3</title>
<ellipse fill="none" stroke="black" cx="30" cy="-865" rx="27" ry="18"/>
<text text-anchor="middle" x="30" y="-862.5" font-family="Times Roman,serif" font-size="10.00">p3</text>
</g>
<!-- pAUR1 -->
<g id="node15" class="node"><title>pAUR1</title>
<ellipse fill="none" stroke="black" cx="30" cy="-919" rx="30.1638" ry="18"/>
<text text-anchor="middle" x="30" y="-916.5" font-family="Times Roman,serif" font-size="10.00">pAUR1</text>
</g>
<!-- pSLS1 -->
<g id="node16" class="node"><title>pSLS1</title>
<ellipse fill="none" stroke="black" cx="30" cy="-973" rx="27.8202" ry="18"/>
<text text-anchor="middle" x="30" y="-970.5" font-family="Times Roman,serif" font-size="10.00">pSLS1</text>
</g>
<!-- pSLS4 -->
<g id="node17" class="node"><title>pSLS4</title>
<ellipse fill="none" stroke="black" cx="30" cy="-1027" rx="27.8202" ry="18"/>
<text text-anchor="middle" x="30" y="-1024.5" font-family="Times Roman,serif" font-size="10.00">pSLS4</text>
</g>
<!-- proAUR1 -->
<g id="node18" class="node"><title>proAUR1</title>
<ellipse fill="none" stroke="black" cx="303" cy="-18" rx="35.8221" ry="18"/>
<text text-anchor="middle" x="303" y="-15.5" font-family="Times Roman,serif" font-size="10.00">proAUR1</text>
</g>
<!-- pp2_v2_intermediate_r -->
<g id="node104" class="node"><title>pp2_v2_intermediate_r</title>
<ellipse fill="black" stroke="black" cx="441" cy="-35" rx="0.036" ry="0.036"/>
</g>
<!-- proAUR1&#45;&gt;pp2_v2_intermediate_r -->
<g id="edge84" class="edge"><title>proAUR1&#45;&gt;pp2_v2_intermediate_r</title>
<path fill="none" stroke="black" d="M338.538,-22.3779C378.788,-27.3362 439.081,-34.7636 440.955,-34.9945"/>
</g>
<!-- pp2_v2_intermediate_m -->
<g id="node109" class="node"><title>pp2_v2_intermediate_m</title>
<ellipse fill="black" stroke="black" cx="609" cy="-3" rx="0.036" ry="0.036"/>
</g>
<!-- proAUR1&#45;&gt;pp2_v2_intermediate_m -->
<g id="edge90" class="edge"><title>proAUR1&#45;&gt;pp2_v2_intermediate_m</title>
<path fill="none" stroke="black" d="M339.607,-16.2055C419.56,-12.2863 603.146,-3.28697 608.863,-3.0067"/>
</g>
<!-- proLACI -->
<g id="node19" class="node"><title>proLACI</title>
<ellipse fill="none" stroke="black" cx="303" cy="-315" rx="33.8573" ry="18"/>
<text text-anchor="middle" x="303" y="-312.5" font-family="Times Roman,serif" font-size="10.00">proLACI</text>
</g>
<!-- pp4_v2_intermediate_r -->
<g id="node161" class="node"><title>pp4_v2_intermediate_r</title>
<ellipse fill="black" stroke="black" cx="441" cy="-342" rx="0.036" ry="0.036"/>
</g>
<!-- proLACI&#45;&gt;pp4_v2_intermediate_r -->
<g id="edge150" class="edge"><title>proLACI&#45;&gt;pp4_v2_intermediate_r</title>
<path fill="none" stroke="black" d="M335.007,-321.262C375.136,-329.114 438.968,-341.602 440.953,-341.991"/>
</g>
<!-- pp4_v2_intermediate_m -->
<g id="node166" class="node"><title>pp4_v2_intermediate_m</title>
<ellipse fill="black" stroke="black" cx="609" cy="-311" rx="0.036" ry="0.036"/>
</g>
<!-- proLACI&#45;&gt;pp4_v2_intermediate_m -->
<g id="edge156" class="edge"><title>proLACI&#45;&gt;pp4_v2_intermediate_m</title>
<path fill="none" stroke="black" d="M337.211,-314.553C415.813,-313.525 603.029,-311.078 608.861,-311.002"/>
</g>
<!-- proLAMDAR -->
<g id="node20" class="node"><title>proLAMDAR</title>
<ellipse fill="none" stroke="black" cx="303" cy="-401" rx="46.7846" ry="18"/>
<text text-anchor="middle" x="303" y="-398.5" font-family="Times Roman,serif" font-size="10.00">proLAMDAR</text>
</g>
<!-- pp5_v2_intermediate_r -->
<g id="node62" class="node"><title>pp5_v2_intermediate_r</title>
<ellipse fill="black" stroke="black" cx="441" cy="-426" rx="0.036" ry="0.036"/>
</g>
<!-- proLAMDAR&#45;&gt;pp5_v2_intermediate_r -->
<g id="edge32" class="edge"><title>proLAMDAR&#45;&gt;pp5_v2_intermediate_r</title>
<path fill="none" stroke="black" d="M345.531,-408.705C384.811,-415.821 437.581,-425.381 440.841,-425.971"/>
</g>
<!-- pp5_v2_intermediate_m -->
<g id="node67" class="node"><title>pp5_v2_intermediate_m</title>
<ellipse fill="black" stroke="black" cx="609" cy="-394" rx="0.036" ry="0.036"/>
</g>
<!-- proLAMDAR&#45;&gt;pp5_v2_intermediate_m -->
<g id="edge38" class="edge"><title>proLAMDAR&#45;&gt;pp5_v2_intermediate_m</title>
<path fill="none" stroke="black" d="M350.142,-399.922C434.636,-397.989 603.614,-394.123 608.874,-394.003"/>
</g>
<!-- proSLS1 -->
<g id="node21" class="node"><title>proSLS1</title>
<ellipse fill="none" stroke="black" cx="303" cy="-1081" rx="33.9733" ry="18"/>
<text text-anchor="middle" x="303" y="-1078.5" font-family="Times Roman,serif" font-size="10.00">proSLS1</text>
</g>
<!-- pp1_v2_intermediate_r -->
<g id="node43" class="node"><title>pp1_v2_intermediate_r</title>
<ellipse fill="black" stroke="black" cx="441" cy="-1098" rx="0.036" ry="0.036"/>
</g>
<!-- proSLS1&#45;&gt;pp1_v2_intermediate_r -->
<g id="edge10" class="edge"><title>proSLS1&#45;&gt;pp1_v2_intermediate_r</title>
<path fill="none" stroke="black" d="M336.759,-1085.16C376.975,-1090.11 439.025,-1097.76 440.954,-1097.99"/>
</g>
<!-- pp1_v2_intermediate_m -->
<g id="node48" class="node"><title>pp1_v2_intermediate_m</title>
<ellipse fill="black" stroke="black" cx="609" cy="-1066" rx="0.036" ry="0.036"/>
</g>
<!-- proSLS1&#45;&gt;pp1_v2_intermediate_m -->
<g id="edge16" class="edge"><title>proSLS1&#45;&gt;pp1_v2_intermediate_m</title>
<path fill="none" stroke="black" d="M337.507,-1079.31C416.284,-1075.45 603.044,-1066.29 608.861,-1066.01"/>
</g>
<!-- proSLS4 -->
<g id="node22" class="node"><title>proSLS4</title>
<ellipse fill="none" stroke="black" cx="303" cy="-509" rx="33.9733" ry="18"/>
<text text-anchor="middle" x="303" y="-506.5" font-family="Times Roman,serif" font-size="10.00">proSLS4</text>
</g>
<!-- pp3_v2_intermediate_r -->
<g id="node142" class="node"><title>pp3_v2_intermediate_r</title>
<ellipse fill="black" stroke="black" cx="441" cy="-525" rx="0.036" ry="0.036"/>
</g>
<!-- proSLS4&#45;&gt;pp3_v2_intermediate_r -->
<g id="edge128" class="edge"><title>proSLS4&#45;&gt;pp3_v2_intermediate_r</title>
<path fill="none" stroke="black" d="M336.759,-512.914C376.975,-517.577 439.025,-524.771 440.954,-524.995"/>
</g>
<!-- pp3_v2_intermediate_m -->
<g id="node147" class="node"><title>pp3_v2_intermediate_m</title>
<ellipse fill="black" stroke="black" cx="609" cy="-493" rx="0.036" ry="0.036"/>
</g>
<!-- proSLS4&#45;&gt;pp3_v2_intermediate_m -->
<g id="edge134" class="edge"><title>proSLS4&#45;&gt;pp3_v2_intermediate_m</title>
<path fill="none" stroke="black" d="M337.507,-507.196C416.284,-503.077 603.044,-493.311 608.861,-493.007"/>
</g>
<!-- proTETR -->
<g id="node23" class="node"><title>proTETR</title>
<ellipse fill="none" stroke="black" cx="303" cy="-595" rx="35.2012" ry="18"/>
<text text-anchor="middle" x="303" y="-592.5" font-family="Times Roman,serif" font-size="10.00">proTETR</text>
</g>
<!-- pp6_v2_intermediate_r -->
<g id="node123" class="node"><title>pp6_v2_intermediate_r</title>
<ellipse fill="black" stroke="black" cx="441" cy="-610" rx="0.036" ry="0.036"/>
</g>
<!-- proTETR&#45;&gt;pp6_v2_intermediate_r -->
<g id="edge106" class="edge"><title>proTETR&#45;&gt;pp6_v2_intermediate_r</title>
<path fill="none" stroke="black" d="M337.823,-598.785C378.066,-603.159 439.058,-609.789 440.955,-609.995"/>
</g>
<!-- pp6_v2_intermediate_m -->
<g id="node128" class="node"><title>pp6_v2_intermediate_m</title>
<ellipse fill="black" stroke="black" cx="609" cy="-578" rx="0.036" ry="0.036"/>
</g>
<!-- proTETR&#45;&gt;pp6_v2_intermediate_m -->
<g id="edge112" class="edge"><title>proTETR&#45;&gt;pp6_v2_intermediate_m</title>
<path fill="none" stroke="black" d="M338.401,-593.033C417.691,-588.628 603.088,-578.328 608.862,-578.008"/>
</g>
<!-- rs1 -->
<g id="node24" class="node"><title>rs1</title>
<ellipse fill="none" stroke="black" cx="30" cy="-1135" rx="27" ry="18"/>
<text text-anchor="middle" x="30" y="-1132.5" font-family="Times Roman,serif" font-size="10.00">rs1</text>
</g>
<!-- rs2 -->
<g id="node25" class="node"><title>rs2</title>
<ellipse fill="none" stroke="black" cx="30" cy="-1189" rx="27" ry="18"/>
<text text-anchor="middle" x="30" y="-1186.5" font-family="Times Roman,serif" font-size="10.00">rs2</text>
</g>
<!-- rs3 -->
<g id="node26" class="node"><title>rs3</title>
<ellipse fill="none" stroke="black" cx="30" cy="-1243" rx="27" ry="18"/>
<text text-anchor="middle" x="30" y="-1240.5" font-family="Times Roman,serif" font-size="10.00">rs3</text>
</g>
<!-- rs4 -->
<g id="node27" class="node"><title>rs4</title>
<ellipse fill="none" stroke="black" cx="30" cy="-1297" rx="27" ry="18"/>
<text text-anchor="middle" x="30" y="-1294.5" font-family="Times Roman,serif" font-size="10.00">rs4</text>
</g>
<!-- rs5 -->
<g id="node28" class="node"><title>rs5</title>
<ellipse fill="none" stroke="black" cx="30" cy="-1351" rx="27" ry="18"/>
<text text-anchor="middle" x="30" y="-1348.5" font-family="Times Roman,serif" font-size="10.00">rs5</text>
</g>
<!-- rs6 -->
<g id="node29" class="node"><title>rs6</title>
<ellipse fill="none" stroke="black" cx="30" cy="-1405" rx="27" ry="18"/>
<text text-anchor="middle" x="30" y="-1402.5" font-family="Times Roman,serif" font-size="10.00">rs6</text>
</g>
<!-- ter1 -->
<g id="node30" class="node"><title>ter1</title>
<ellipse fill="none" stroke="black" cx="30" cy="-1459" rx="27" ry="18"/>
<text text-anchor="middle" x="30" y="-1456.5" font-family="Times Roman,serif" font-size="10.00">ter1</text>
</g>
<!-- ter2 -->
<g id="node31" class="node"><title>ter2</title>
<ellipse fill="none" stroke="black" cx="30" cy="-1513" rx="27" ry="18"/>
<text text-anchor="middle" x="30" y="-1510.5" font-family="Times Roman,serif" font-size="10.00">ter2</text>
</g>
<!-- ter3 -->
<g id="node32" class="node"><title>ter3</title>
<ellipse fill="none" stroke="black" cx="30" cy="-1567" rx="27" ry="18"/>
<text text-anchor="middle" x="30" y="-1564.5" font-family="Times Roman,serif" font-size="10.00">ter3</text>
</g>
<!-- ter4 -->
<g id="node33" class="node"><title>ter4</title>
<ellipse fill="none" stroke="black" cx="30" cy="-1621" rx="27" ry="18"/>
<text text-anchor="middle" x="30" y="-1618.5" font-family="Times Roman,serif" font-size="10.00">ter4</text>
</g>
<!-- ter5 -->
<g id="node34" class="node"><title>ter5</title>
<ellipse fill="none" stroke="black" cx="30" cy="-1675" rx="27" ry="18"/>
<text text-anchor="middle" x="30" y="-1672.5" font-family="Times Roman,serif" font-size="10.00">ter5</text>
</g>
<!-- ter6 -->
<g id="node35" class="node"><title>ter6</title>
<ellipse fill="none" stroke="black" cx="30" cy="-1729" rx="27" ry="18"/>
<text text-anchor="middle" x="30" y="-1726.5" font-family="Times Roman,serif" font-size="10.00">ter6</text>
</g>
<!-- pp1_v1 -->
<g id="node36" class="node"><title>pp1_v1</title>
<polygon fill="none" stroke="black" points="140,-1088 126,-1088 126,-1074 140,-1074 140,-1088"/>
</g>
<!-- pp1_v1_intermediate_p -->
<g id="node39" class="node"><title>pp1_v1_intermediate_p</title>
<ellipse fill="black" stroke="black" cx="213" cy="-1081" rx="0.036" ry="0.036"/>
</g>
<!-- pp1_v1&#45;&gt;pp1_v1_intermediate_p -->
<g id="edge4" class="edge"><title>pp1_v1&#45;&gt;pp1_v1_intermediate_p</title>
<path fill="none" stroke="black" d="M140.099,-1081C159.067,-1081 209.7,-1081 212.846,-1081"/>
</g>
<!-- pp1_v1_empty -->
<g id="node37" class="node"><title>pp1_v1_empty</title>
<text text-anchor="middle" x="30" y="-1076.5" font-family="Times Roman,serif" font-size="15.00" fill="blue">Ø</text>
</g>
<!-- pp1_v1_empty&#45;&gt;pp1_v1 -->
<g id="edge2" class="edge"><title>pp1_v1_empty&#45;&gt;pp1_v1</title>
<path fill="none" stroke="black" d="M57.062,-1081C80.1883,-1081 111.873,-1081 125.864,-1081"/>
</g>
<!-- pp1_v1_intermediate_p&#45;&gt;proSLS1 -->
<g id="edge6" class="edge"><title>pp1_v1_intermediate_p&#45;&gt;proSLS1</title>
<path fill="none" stroke="black" d="M213.065,-1081C214.407,-1081 236.228,-1081 258.037,-1081"/>
<polygon fill="black" stroke="black" points="258.316,-1084.5 268.316,-1081 258.316,-1077.5 258.316,-1084.5"/>
</g>
<!-- pp1_v2 -->
<g id="node42" class="node"><title>pp1_v2</title>
<polygon fill="none" stroke="black" points="546,-1108 532,-1108 532,-1094 546,-1094 546,-1108"/>
</g>
<!-- pp1_v2_empty -->
<g id="node46" class="node"><title>pp1_v2_empty</title>
<text text-anchor="middle" x="609" y="-1097.5" font-family="Times Roman,serif" font-size="15.00" fill="blue">Ø</text>
</g>
<!-- pp1_v2&#45;&gt;pp1_v2_empty -->
<g id="edge12" class="edge"><title>pp1_v2&#45;&gt;pp1_v2_empty</title>
<path fill="none" stroke="black" d="M546.228,-1101.1C552.45,-1101.19 561.94,-1101.33 571.672,-1101.47"/>
<polygon fill="black" stroke="black" points="571.724,-1104.97 581.773,-1101.61 571.824,-1097.97 571.724,-1104.97"/>
</g>
<!-- pp1_v2&#45;&gt;pp1_v2_intermediate_m -->
<g id="edge14" class="edge"><title>pp1_v2&#45;&gt;pp1_v2_intermediate_m</title>
<path fill="none" stroke="black" d="M556.181,-1089.41C563.864,-1084.54 573.165,-1079.08 582,-1075 593.124,-1069.86 608.034,-1066.23 608.955,-1066.01"/>
<polygon fill="none" stroke="black" points="556.063,-1089.49 553.244,-1096.12 546.034,-1096.07 548.852,-1089.44 556.063,-1089.49"/>
</g>
<!-- pp1_v2_intermediate_r&#45;&gt;pp1_v2 -->
<g id="edge8" class="edge"><title>pp1_v2_intermediate_r&#45;&gt;pp1_v2</title>
<path fill="none" stroke="black" d="M441.071,-1098C443.54,-1098.08 509.694,-1100.1 531.848,-1100.78"/>
</g>
<!-- pp5_v1 -->
<g id="node51" class="node"><title>pp5_v1</title>
<polygon fill="none" stroke="black" points="140,-408 126,-408 126,-394 140,-394 140,-408"/>
</g>
<!-- pp5_v1_intermediate_p -->
<g id="node54" class="node"><title>pp5_v1_intermediate_p</title>
<ellipse fill="black" stroke="black" cx="213" cy="-401" rx="0.036" ry="0.036"/>
</g>
<!-- pp5_v1&#45;&gt;pp5_v1_intermediate_p -->
<g id="edge20" class="edge"><title>pp5_v1&#45;&gt;pp5_v1_intermediate_p</title>
<path fill="none" stroke="black" d="M140.099,-401C159.067,-401 209.7,-401 212.846,-401"/>
</g>
<!-- pp5_v1&#45;&gt;pp5_v1_intermediate_m -->
<g id="edge24" class="edge"><title>pp5_v1&#45;&gt;pp5_v1_intermediate_m</title>
<path fill="none" stroke="black" d="M151.769,-408.46C157.691,-410.987 164.2,-413.948 170,-417 189.346,-427.181 211.564,-442.975 212.933,-443.952"/>
<polygon fill="none" stroke="black" points="151.353,-408.29 144.286,-409.724 140.244,-403.752 147.311,-402.318 151.353,-408.29"/>
</g>
<!-- pp5_v1_empty -->
<g id="node52" class="node"><title>pp5_v1_empty</title>
<text text-anchor="middle" x="30" y="-396.5" font-family="Times Roman,serif" font-size="15.00" fill="blue">Ø</text>
</g>
<!-- pp5_v1_empty&#45;&gt;pp5_v1 -->
<g id="edge18" class="edge"><title>pp5_v1_empty&#45;&gt;pp5_v1</title>
<path fill="none" stroke="black" d="M57.062,-401C80.1883,-401 111.873,-401 125.864,-401"/>
</g>
<!-- pp5_v1_intermediate_p&#45;&gt;proLAMDAR -->
<g id="edge22" class="edge"><title>pp5_v1_intermediate_p&#45;&gt;proLAMDAR</title>
<path fill="none" stroke="black" d="M213.065,-401C214.151,-401 228.645,-401 245.691,-401"/>
<polygon fill="black" stroke="black" points="245.941,-404.5 255.941,-401 245.941,-397.5 245.941,-404.5"/>
</g>
<!-- pp5_v2 -->
<g id="node61" class="node"><title>pp5_v2</title>
<polygon fill="none" stroke="black" points="546,-436 532,-436 532,-422 546,-422 546,-436"/>
</g>
<!-- pp5_v2_empty -->
<g id="node65" class="node"><title>pp5_v2_empty</title>
<text text-anchor="middle" x="609" y="-425.5" font-family="Times Roman,serif" font-size="15.00" fill="blue">Ø</text>
</g>
<!-- pp5_v2&#45;&gt;pp5_v2_empty -->
<g id="edge34" class="edge"><title>pp5_v2&#45;&gt;pp5_v2_empty</title>
<path fill="none" stroke="black" d="M546.228,-429.103C552.45,-429.192 561.94,-429.328 571.672,-429.467"/>
<polygon fill="black" stroke="black" points="571.724,-432.968 581.773,-429.611 571.824,-425.968 571.724,-432.968"/>
</g>
<!-- pp5_v2&#45;&gt;pp5_v2_intermediate_m -->
<g id="edge36" class="edge"><title>pp5_v2&#45;&gt;pp5_v2_intermediate_m</title>
<path fill="none" stroke="black" d="M556.181,-417.408C563.864,-412.544 573.165,-407.082 582,-403 593.124,-397.861 608.034,-394.233 608.955,-394.011"/>
<polygon fill="none" stroke="black" points="556.063,-417.485 553.244,-424.123 546.034,-424.074 548.852,-417.437 556.063,-417.485"/>
</g>
<!-- pp5_v2_intermediate_r&#45;&gt;pp5_v2 -->
<g id="edge30" class="edge"><title>pp5_v2_intermediate_r&#45;&gt;pp5_v2</title>
<path fill="none" stroke="black" d="M441.071,-426.002C443.54,-426.078 509.694,-428.103 531.848,-428.781"/>
</g>
<!-- ia1_bind_forward -->
<g id="node70" class="node"><title>ia1_bind_forward</title>
<polygon fill="none" stroke="black" points="220,-146 206,-146 206,-132 220,-132 220,-146"/>
</g>
<!-- ia1_bind_forward_intermediate_p -->
<g id="node75" class="node"><title>ia1_bind_forward_intermediate_p</title>
<ellipse fill="black" stroke="black" cx="303" cy="-139" rx="0.036" ry="0.036"/>
</g>
<!-- ia1_bind_forward&#45;&gt;ia1_bind_forward_intermediate_p -->
<g id="edge46" class="edge"><title>ia1_bind_forward&#45;&gt;ia1_bind_forward_intermediate_p</title>
<path fill="none" stroke="black" d="M220.062,-139C240.947,-139 301.081,-139 302.955,-139"/>
</g>
<!-- ia1_bind_forward&#45;&gt;ia1_bind_forward_intermediate_m -->
<g id="edge50" class="edge"><title>ia1_bind_forward&#45;&gt;ia1_bind_forward_intermediate_m</title>
<path fill="none" stroke="black" d="M231.621,-131.469C270.068,-116.622 361.31,-85 441,-85 441,-85 441,-85 673,-85 765.868,-85 843.538,-204.186 845.943,-207.911"/>
<polygon fill="none" stroke="black" points="231.485,-131.523 227.38,-137.451 220.329,-135.942 224.434,-130.014 231.485,-131.523"/>
</g>
<!-- ia1_bind_forward_intermediate_r&#45;&gt;ia1_bind_forward -->
<g id="edge40" class="edge"><title>ia1_bind_forward_intermediate_r&#45;&gt;ia1_bind_forward</title>
<path fill="none" stroke="black" d="M133.058,-225.937C135.045,-223.776 187.566,-166.659 206.377,-146.203"/>
</g>
<!-- ia1_bind_forward_intermediate_p&#45;&gt;ia1_InactiveTF -->
<g id="edge48" class="edge"><title>ia1_bind_forward_intermediate_p&#45;&gt;ia1_InactiveTF</title>
<path fill="none" stroke="black" d="M303.1,-139C305.232,-139 341.082,-139 375.691,-139"/>
<polygon fill="black" stroke="black" points="375.87,-142.5 385.87,-139 375.87,-135.5 375.87,-142.5"/>
</g>
<!-- ia1_bind_reverse -->
<g id="node82" class="node"><title>ia1_bind_reverse</title>
<polygon fill="none" stroke="black" points="616,-165 602,-165 602,-151 616,-151 616,-165"/>
</g>
<!-- ia1_bind_reverse_intermediate_p -->
<g id="node86" class="node"><title>ia1_bind_reverse_intermediate_p</title>
<ellipse fill="black" stroke="black" cx="673" cy="-193" rx="0.036" ry="0.036"/>
</g>
<!-- ia1_bind_reverse&#45;&gt;ia1_bind_reverse_intermediate_p -->
<g id="edge60" class="edge"><title>ia1_bind_reverse&#45;&gt;ia1_bind_reverse_intermediate_p</title>
<path fill="none" stroke="black" d="M616.342,-162.015C632.627,-170.921 670.532,-191.65 672.885,-192.937"/>
</g>
<!-- ia1_bind_reverse&#45;&gt;ia1_bind_reverse_intermediate_m -->
<g id="edge66" class="edge"><title>ia1_bind_reverse&#45;&gt;ia1_bind_reverse_intermediate_m</title>
<path fill="none" stroke="black" d="M627.932,-152.675C646.077,-147.572 670.992,-140.565 672.885,-140.032"/>
<polygon fill="none" stroke="black" points="627.893,-152.686 623.201,-158.161 616.342,-155.935 621.035,-150.46 627.893,-152.686"/>
</g>
<!-- ia1_bind_reverse_intermediate_r&#45;&gt;ia1_bind_reverse -->
<g id="edge56" class="edge"><title>ia1_bind_reverse_intermediate_r&#45;&gt;ia1_bind_reverse</title>
<path fill="none" stroke="black" d="M539.051,-155.002C540.748,-155.075 584.582,-156.954 601.98,-157.699"/>
</g>
<!-- ia1_bind_reverse_intermediate_p&#45;&gt;IPTG -->
<g id="edge62" class="edge"><title>ia1_bind_reverse_intermediate_p&#45;&gt;IPTG</title>
<path fill="none" stroke="black" d="M672.946,-193C670.677,-193 597.625,-193 539,-193 213,-193 213,-193 213,-193 160.622,-193 101.13,-206.255 64.5801,-215.964"/>
<polygon fill="black" stroke="black" points="63.6361,-212.593 54.9045,-218.594 65.4725,-219.348 63.6361,-212.593"/>
</g>
<!-- ia1_bind_reverse_intermediate_p&#45;&gt;ia1_ActiveTF -->
<g id="edge64" class="edge"><title>ia1_bind_reverse_intermediate_p&#45;&gt;ia1_ActiveTF</title>
<path fill="none" stroke="black" d="M673.063,-193.011C674.117,-193.193 688.238,-195.627 704.804,-198.483"/>
<polygon fill="black" stroke="black" points="704.311,-201.95 714.76,-200.2 705.5,-195.052 704.311,-201.95"/>
</g>
<!-- pp2_v1 -->
<g id="node93" class="node"><title>pp2_v1</title>
<polygon fill="none" stroke="black" points="140,-25 126,-25 126,-11 140,-11 140,-25"/>
</g>
<!-- pp2_v1_intermediate_p -->
<g id="node96" class="node"><title>pp2_v1_intermediate_p</title>
<ellipse fill="black" stroke="black" cx="213" cy="-18" rx="0.036" ry="0.036"/>
</g>
<!-- pp2_v1&#45;&gt;pp2_v1_intermediate_p -->
<g id="edge72" class="edge"><title>pp2_v1&#45;&gt;pp2_v1_intermediate_p</title>
<path fill="none" stroke="black" d="M140.099,-18C159.067,-18 209.7,-18 212.846,-18"/>
</g>
<!-- pp2_v1&#45;&gt;pp2_v1_intermediate_m -->
<g id="edge76" class="edge"><title>pp2_v1&#45;&gt;pp2_v1_intermediate_m</title>
<path fill="none" stroke="black" d="M151.769,-25.4599C157.691,-27.9871 164.2,-30.9476 170,-34 189.346,-44.1805 211.564,-59.9752 212.933,-60.9524"/>
<polygon fill="none" stroke="black" points="151.353,-25.29 144.286,-26.7239 140.244,-20.7519 147.311,-19.318 151.353,-25.29"/>
</g>
<!-- pp2_v1_empty -->
<g id="node94" class="node"><title>pp2_v1_empty</title>
<text text-anchor="middle" x="30" y="-13.5" font-family="Times Roman,serif" font-size="15.00" fill="blue">Ø</text>
</g>
<!-- pp2_v1_empty&#45;&gt;pp2_v1 -->
<g id="edge70" class="edge"><title>pp2_v1_empty&#45;&gt;pp2_v1</title>
<path fill="none" stroke="black" d="M57.062,-18C80.1883,-18 111.873,-18 125.864,-18"/>
</g>
<!-- pp2_v1_intermediate_p&#45;&gt;proAUR1 -->
<g id="edge74" class="edge"><title>pp2_v1_intermediate_p&#45;&gt;proAUR1</title>
<path fill="none" stroke="black" d="M213.065,-18C214.37,-18 235.047,-18 256.245,-18"/>
<polygon fill="black" stroke="black" points="256.28,-21.5001 266.28,-18 256.28,-14.5001 256.28,-21.5001"/>
</g>
<!-- pp2_v2 -->
<g id="node103" class="node"><title>pp2_v2</title>
<polygon fill="none" stroke="black" points="546,-45 532,-45 532,-31 546,-31 546,-45"/>
</g>
<!-- pp2_v2_empty -->
<g id="node107" class="node"><title>pp2_v2_empty</title>
<text text-anchor="middle" x="609" y="-34.5" font-family="Times Roman,serif" font-size="15.00" fill="blue">Ø</text>
</g>
<!-- pp2_v2&#45;&gt;pp2_v2_empty -->
<g id="edge86" class="edge"><title>pp2_v2&#45;&gt;pp2_v2_empty</title>
<path fill="none" stroke="black" d="M546.228,-38.1033C552.45,-38.1921 561.94,-38.3277 571.672,-38.4667"/>
<polygon fill="black" stroke="black" points="571.724,-41.9678 581.773,-38.611 571.824,-34.9685 571.724,-41.9678"/>
</g>
<!-- pp2_v2&#45;&gt;pp2_v2_intermediate_m -->
<g id="edge88" class="edge"><title>pp2_v2&#45;&gt;pp2_v2_intermediate_m</title>
<path fill="none" stroke="black" d="M556.181,-26.4078C563.864,-21.5438 573.165,-16.0819 582,-12 593.124,-6.86067 608.034,-3.2325 608.955,-3.01076"/>
<polygon fill="none" stroke="black" points="556.063,-26.4855 553.244,-33.1231 546.034,-33.0744 548.852,-26.4368 556.063,-26.4855"/>
</g>
<!-- pp2_v2_intermediate_r&#45;&gt;pp2_v2 -->
<g id="edge82" class="edge"><title>pp2_v2_intermediate_r&#45;&gt;pp2_v2</title>
<path fill="none" stroke="black" d="M441.071,-35.0022C443.54,-35.0778 509.694,-37.1029 531.848,-37.7811"/>
</g>
<!-- pp6_v1 -->
<g id="node112" class="node"><title>pp6_v1</title>
<polygon fill="none" stroke="black" points="140,-602 126,-602 126,-588 140,-588 140,-602"/>
</g>
<!-- pp6_v1_intermediate_p -->
<g id="node115" class="node"><title>pp6_v1_intermediate_p</title>
<ellipse fill="black" stroke="black" cx="213" cy="-595" rx="0.036" ry="0.036"/>
</g>
<!-- pp6_v1&#45;&gt;pp6_v1_intermediate_p -->
<g id="edge94" class="edge"><title>pp6_v1&#45;&gt;pp6_v1_intermediate_p</title>
<path fill="none" stroke="black" d="M140.099,-595C159.067,-595 209.7,-595 212.846,-595"/>
</g>
<!-- pp6_v1&#45;&gt;pp6_v1_intermediate_m -->
<g id="edge98" class="edge"><title>pp6_v1&#45;&gt;pp6_v1_intermediate_m</title>
<path fill="none" stroke="black" d="M151.769,-602.46C157.691,-604.987 164.2,-607.948 170,-611 189.346,-621.181 211.564,-636.975 212.933,-637.952"/>
<polygon fill="none" stroke="black" points="151.353,-602.29 144.286,-603.724 140.244,-597.752 147.311,-596.318 151.353,-602.29"/>
</g>
<!-- pp6_v1_empty -->
<g id="node113" class="node"><title>pp6_v1_empty</title>
<text text-anchor="middle" x="30" y="-590.5" font-family="Times Roman,serif" font-size="15.00" fill="blue">Ø</text>
</g>
<!-- pp6_v1_empty&#45;&gt;pp6_v1 -->
<g id="edge92" class="edge"><title>pp6_v1_empty&#45;&gt;pp6_v1</title>
<path fill="none" stroke="black" d="M57.062,-595C80.1883,-595 111.873,-595 125.864,-595"/>
</g>
<!-- pp6_v1_intermediate_p&#45;&gt;proTETR -->
<g id="edge96" class="edge"><title>pp6_v1_intermediate_p&#45;&gt;proTETR</title>
<path fill="none" stroke="black" d="M213.065,-595C214.389,-595 235.634,-595 257.141,-595"/>
<polygon fill="black" stroke="black" points="257.3,-598.5 267.3,-595 257.3,-591.5 257.3,-598.5"/>
</g>
<!-- pp6_v2 -->
<g id="node122" class="node"><title>pp6_v2</title>
<polygon fill="none" stroke="black" points="546,-620 532,-620 532,-606 546,-606 546,-620"/>
</g>
<!-- pp6_v2_empty -->
<g id="node126" class="node"><title>pp6_v2_empty</title>
<text text-anchor="middle" x="609" y="-609.5" font-family="Times Roman,serif" font-size="15.00" fill="blue">Ø</text>
</g>
<!-- pp6_v2&#45;&gt;pp6_v2_empty -->
<g id="edge108" class="edge"><title>pp6_v2&#45;&gt;pp6_v2_empty</title>
<path fill="none" stroke="black" d="M546.228,-613.103C552.45,-613.192 561.94,-613.328 571.672,-613.467"/>
<polygon fill="black" stroke="black" points="571.724,-616.968 581.773,-613.611 571.824,-609.968 571.724,-616.968"/>
</g>
<!-- pp6_v2&#45;&gt;pp6_v2_intermediate_m -->
<g id="edge110" class="edge"><title>pp6_v2&#45;&gt;pp6_v2_intermediate_m</title>
<path fill="none" stroke="black" d="M556.181,-601.408C563.864,-596.544 573.165,-591.082 582,-587 593.124,-581.861 608.034,-578.233 608.955,-578.011"/>
<polygon fill="none" stroke="black" points="556.063,-601.485 553.244,-608.123 546.034,-608.074 548.852,-601.437 556.063,-601.485"/>
</g>
<!-- pp6_v2_intermediate_r&#45;&gt;pp6_v2 -->
<g id="edge104" class="edge"><title>pp6_v2_intermediate_r&#45;&gt;pp6_v2</title>
<path fill="none" stroke="black" d="M441.071,-610.002C443.54,-610.078 509.694,-612.103 531.848,-612.781"/>
</g>
<!-- pp3_v1 -->
<g id="node131" class="node"><title>pp3_v1</title>
<polygon fill="none" stroke="black" points="140,-516 126,-516 126,-502 140,-502 140,-516"/>
</g>
<!-- pp3_v1_intermediate_p -->
<g id="node134" class="node"><title>pp3_v1_intermediate_p</title>
<ellipse fill="black" stroke="black" cx="213" cy="-509" rx="0.036" ry="0.036"/>
</g>
<!-- pp3_v1&#45;&gt;pp3_v1_intermediate_p -->
<g id="edge116" class="edge"><title>pp3_v1&#45;&gt;pp3_v1_intermediate_p</title>
<path fill="none" stroke="black" d="M140.099,-509C159.067,-509 209.7,-509 212.846,-509"/>
</g>
<!-- pp3_v1&#45;&gt;pp3_v1_intermediate_m -->
<g id="edge120" class="edge"><title>pp3_v1&#45;&gt;pp3_v1_intermediate_m</title>
<path fill="none" stroke="black" d="M151.769,-516.46C157.691,-518.987 164.2,-521.948 170,-525 189.346,-535.181 211.564,-550.975 212.933,-551.952"/>
<polygon fill="none" stroke="black" points="151.353,-516.29 144.286,-517.724 140.244,-511.752 147.311,-510.318 151.353,-516.29"/>
</g>
<!-- pp3_v1_empty -->
<g id="node132" class="node"><title>pp3_v1_empty</title>
<text text-anchor="middle" x="30" y="-504.5" font-family="Times Roman,serif" font-size="15.00" fill="blue">Ø</text>
</g>
<!-- pp3_v1_empty&#45;&gt;pp3_v1 -->
<g id="edge114" class="edge"><title>pp3_v1_empty&#45;&gt;pp3_v1</title>
<path fill="none" stroke="black" d="M57.062,-509C80.1883,-509 111.873,-509 125.864,-509"/>
</g>
<!-- pp3_v1_intermediate_p&#45;&gt;proSLS4 -->
<g id="edge118" class="edge"><title>pp3_v1_intermediate_p&#45;&gt;proSLS4</title>
<path fill="none" stroke="black" d="M213.065,-509C214.407,-509 236.228,-509 258.037,-509"/>
<polygon fill="black" stroke="black" points="258.316,-512.5 268.316,-509 258.316,-505.5 258.316,-512.5"/>
</g>
<!-- pp3_v2 -->
<g id="node141" class="node"><title>pp3_v2</title>
<polygon fill="none" stroke="black" points="546,-535 532,-535 532,-521 546,-521 546,-535"/>
</g>
<!-- pp3_v2_empty -->
<g id="node145" class="node"><title>pp3_v2_empty</title>
<text text-anchor="middle" x="609" y="-524.5" font-family="Times Roman,serif" font-size="15.00" fill="blue">Ø</text>
</g>
<!-- pp3_v2&#45;&gt;pp3_v2_empty -->
<g id="edge130" class="edge"><title>pp3_v2&#45;&gt;pp3_v2_empty</title>
<path fill="none" stroke="black" d="M546.228,-528.103C552.45,-528.192 561.94,-528.328 571.672,-528.467"/>
<polygon fill="black" stroke="black" points="571.724,-531.968 581.773,-528.611 571.824,-524.968 571.724,-531.968"/>
</g>
<!-- pp3_v2&#45;&gt;pp3_v2_intermediate_m -->
<g id="edge132" class="edge"><title>pp3_v2&#45;&gt;pp3_v2_intermediate_m</title>
<path fill="none" stroke="black" d="M556.181,-516.408C563.864,-511.544 573.165,-506.082 582,-502 593.124,-496.861 608.034,-493.233 608.955,-493.011"/>
<polygon fill="none" stroke="black" points="556.063,-516.485 553.244,-523.123 546.034,-523.074 548.852,-516.437 556.063,-516.485"/>
</g>
<!-- pp3_v2_intermediate_r&#45;&gt;pp3_v2 -->
<g id="edge126" class="edge"><title>pp3_v2_intermediate_r&#45;&gt;pp3_v2</title>
<path fill="none" stroke="black" d="M441.071,-525.002C443.54,-525.078 509.694,-527.103 531.848,-527.781"/>
</g>
<!-- pp4_v1 -->
<g id="node150" class="node"><title>pp4_v1</title>
<polygon fill="none" stroke="black" points="140,-322 126,-322 126,-308 140,-308 140,-322"/>
</g>
<!-- pp4_v1_intermediate_p -->
<g id="node153" class="node"><title>pp4_v1_intermediate_p</title>
<ellipse fill="black" stroke="black" cx="213" cy="-315" rx="0.036" ry="0.036"/>
</g>
<!-- pp4_v1&#45;&gt;pp4_v1_intermediate_p -->
<g id="edge138" class="edge"><title>pp4_v1&#45;&gt;pp4_v1_intermediate_p</title>
<path fill="none" stroke="black" d="M140.099,-315C159.067,-315 209.7,-315 212.846,-315"/>
</g>
<!-- pp4_v1&#45;&gt;pp4_v1_intermediate_m -->
<g id="edge142" class="edge"><title>pp4_v1&#45;&gt;pp4_v1_intermediate_m</title>
<path fill="none" stroke="black" d="M151.769,-322.46C157.691,-324.987 164.2,-327.948 170,-331 189.346,-341.181 211.564,-356.975 212.933,-357.952"/>
<polygon fill="none" stroke="black" points="151.353,-322.29 144.286,-323.724 140.244,-317.752 147.311,-316.318 151.353,-322.29"/>
</g>
<!-- pp4_v1_empty -->
<g id="node151" class="node"><title>pp4_v1_empty</title>
<text text-anchor="middle" x="30" y="-310.5" font-family="Times Roman,serif" font-size="15.00" fill="blue">Ø</text>
</g>
<!-- pp4_v1_empty&#45;&gt;pp4_v1 -->
<g id="edge136" class="edge"><title>pp4_v1_empty&#45;&gt;pp4_v1</title>
<path fill="none" stroke="black" d="M57.062,-315C80.1883,-315 111.873,-315 125.864,-315"/>
</g>
<!-- pp4_v1_intermediate_p&#45;&gt;proLACI -->
<g id="edge140" class="edge"><title>pp4_v1_intermediate_p&#45;&gt;proLACI</title>
<path fill="none" stroke="black" d="M213.065,-315C214.422,-315 236.728,-315 258.783,-315"/>
<polygon fill="black" stroke="black" points="258.822,-318.5 268.822,-315 258.822,-311.5 258.822,-318.5"/>
</g>
<!-- pp4_v2 -->
<g id="node160" class="node"><title>pp4_v2</title>
<polygon fill="none" stroke="black" points="546,-353 532,-353 532,-339 546,-339 546,-353"/>
</g>
<!-- pp4_v2_empty -->
<g id="node164" class="node"><title>pp4_v2_empty</title>
<text text-anchor="middle" x="609" y="-342.5" font-family="Times Roman,serif" font-size="15.00" fill="blue">Ø</text>
</g>
<!-- pp4_v2&#45;&gt;pp4_v2_empty -->
<g id="edge152" class="edge"><title>pp4_v2&#45;&gt;pp4_v2_empty</title>
<path fill="none" stroke="black" d="M546.228,-346.103C552.45,-346.192 561.94,-346.328 571.672,-346.467"/>
<polygon fill="black" stroke="black" points="571.724,-349.968 581.773,-346.611 571.824,-342.968 571.724,-349.968"/>
</g>
<!-- pp4_v2&#45;&gt;pp4_v2_intermediate_m -->
<g id="edge154" class="edge"><title>pp4_v2&#45;&gt;pp4_v2_intermediate_m</title>
<path fill="none" stroke="black" d="M556.181,-334.408C563.864,-329.544 573.165,-324.082 582,-320 593.124,-314.861 608.034,-311.233 608.955,-311.011"/>
<polygon fill="none" stroke="black" points="556.063,-334.485 553.244,-341.123 546.034,-341.074 548.852,-334.437 556.063,-334.485"/>
</g>
<!-- pp4_v2_intermediate_r&#45;&gt;pp4_v2 -->
<g id="edge148" class="edge"><title>pp4_v2_intermediate_r&#45;&gt;pp4_v2</title>
<path fill="none" stroke="black" d="M441.071,-342.003C443.54,-342.104 509.694,-344.804 531.848,-345.708"/>
</g>
</g>
</svg>
