<?xml version="1.0" encoding="UTF-8" standalone="no"?>
<!DOCTYPE svg PUBLIC "-//W3C//DTD SVG 1.1//EN"
 "http://www.w3.org/Graphics/SVG/1.1/DTD/svg11.dtd">
<!-- Generated by graphviz version 2.24.0 (20090616.2323)
 -->
<!-- Title: G Pages: 1 -->
<svg width="1884pt" height="284pt"
 viewBox="0.00 0.00 1884.00 284.20" xmlns="http://www.w3.org/2000/svg" xmlns:xlink="http://www.w3.org/1999/xlink">
<g id="graph1" class="graph" transform="scale(1 1) rotate(0) translate(4 280.204)">
<title>G</title>
<polygon fill="white" stroke="white" points="-4,5 -4,-280.204 1881,-280.204 1881,5 -4,5"/>
<!-- glc -->
<g id="node1" class="node"><title>glc</title>
<ellipse fill="none" stroke="black" cx="257" cy="-30" rx="33.2417" ry="18"/>
<text text-anchor="middle" x="257" y="-27.5" font-family="Times Roman,serif" font-size="10.00">glucose</text>
</g>
<!-- hxk_intermediate_r -->
<g id="node32" class="node"><title>hxk_intermediate_r</title>
<ellipse fill="black" stroke="black" cx="327" cy="-145" rx="0.036" ry="0.036"/>
</g>
<!-- glc&#45;&gt;hxk_intermediate_r -->
<g id="edge20" class="edge"><title>glc&#45;&gt;hxk_intermediate_r</title>
<path fill="none" stroke="black" d="M267.631,-47.466C286.908,-79.1342 325.762,-142.966 326.971,-144.953"/>
</g>
<!-- g1p -->
<g id="node2" class="node"><title>g1p</title>
<ellipse fill="none" stroke="black" cx="842" cy="-192" rx="73.9861" ry="18"/>
<text text-anchor="middle" x="842" y="-189.5" font-family="Times Roman,serif" font-size="10.00">glucose 1&#45;phosphate</text>
</g>
<!-- ugp_intermediate_r -->
<g id="node79" class="node"><title>ugp_intermediate_r</title>
<ellipse fill="black" stroke="black" cx="957" cy="-138" rx="0.036" ry="0.036"/>
</g>
<!-- g1p&#45;&gt;ugp_intermediate_r -->
<g id="edge82" class="edge"><title>g1p&#45;&gt;ugp_intermediate_r</title>
<path fill="none" stroke="black" d="M889.556,-178.063C899.838,-174.36 910.476,-169.98 920,-165 937.476,-155.861 955.816,-139.09 956.945,-138.051"/>
</g>
<!-- g6p -->
<g id="node3" class="node"><title>g6p</title>
<ellipse fill="none" stroke="black" cx="527" cy="-175" rx="73.9861" ry="18"/>
<text text-anchor="middle" x="527" y="-172.5" font-family="Times Roman,serif" font-size="10.00">glucose 6&#45;phosphate</text>
</g>
<!-- pgi_intermediate_r -->
<g id="node18" class="node"><title>pgi_intermediate_r</title>
<ellipse fill="black" stroke="black" cx="639" cy="-115" rx="0.036" ry="0.036"/>
</g>
<!-- g6p&#45;&gt;pgi_intermediate_r -->
<g id="edge4" class="edge"><title>g6p&#45;&gt;pgi_intermediate_r</title>
<path fill="none" stroke="black" d="M566.852,-153.651C597.934,-137 636.273,-116.461 638.861,-115.074"/>
<polygon fill="black" stroke="black" points="565.063,-150.638 557.901,-158.446 568.369,-156.809 565.063,-150.638"/>
</g>
<!-- pgm_intermediate_r -->
<g id="node45" class="node"><title>pgm_intermediate_r</title>
<ellipse fill="black" stroke="black" cx="639" cy="-178" rx="0.036" ry="0.036"/>
</g>
<!-- g6p&#45;&gt;pgm_intermediate_r -->
<g id="edge38" class="edge"><title>g6p&#45;&gt;pgm_intermediate_r</title>
<path fill="none" stroke="black" d="M611.113,-177.253C626.527,-177.666 638.104,-177.976 638.95,-177.999"/>
<polygon fill="black" stroke="black" points="611.172,-173.753 601.082,-176.984 610.985,-180.751 611.172,-173.753"/>
</g>
<!-- tps_intermediate_r -->
<g id="node61" class="node"><title>tps_intermediate_r</title>
<ellipse fill="black" stroke="black" cx="1217" cy="-165" rx="0.036" ry="0.036"/>
</g>
<!-- g6p&#45;&gt;tps_intermediate_r -->
<g id="edge58" class="edge"><title>g6p&#45;&gt;tps_intermediate_r</title>
<path fill="none" stroke="black" d="M570.037,-189.887C580.55,-193.69 591.726,-197.874 602,-202 638.557,-216.682 643.605,-238 683,-238 683,-238 683,-238 1045,-238 1105.59,-238 1128.5,-250.926 1180,-219 1203.95,-204.15 1216.22,-167.394 1216.96,-165.111"/>
</g>
<!-- trh -->
<g id="node4" class="node"><title>trh</title>
<ellipse fill="none" stroke="black" cx="1709" cy="-158" rx="38.8989" ry="18"/>
<text text-anchor="middle" x="1709" y="-155.5" font-family="Times Roman,serif" font-size="10.00">trehalose</text>
</g>
<!-- nth_intermediate_r -->
<g id="node71" class="node"><title>nth_intermediate_r</title>
<ellipse fill="black" stroke="black" cx="1789" cy="-58" rx="0.036" ry="0.036"/>
</g>
<!-- trh&#45;&gt;nth_intermediate_r -->
<g id="edge72" class="edge"><title>trh&#45;&gt;nth_intermediate_r</title>
<path fill="none" stroke="black" d="M1735.74,-144.359C1741.56,-140.57 1747.37,-136.079 1752,-131 1775.75,-104.969 1788.21,-60.8643 1788.96,-58.1331"/>
</g>
<!-- t6p -->
<g id="node5" class="node"><title>t6p</title>
<ellipse fill="none" stroke="black" cx="1423" cy="-165" rx="80.141" ry="18"/>
<text text-anchor="middle" x="1423" y="-162.5" font-family="Times Roman,serif" font-size="10.00">trehalose 6&#45;phosphate</text>
</g>
<!-- hxk_intermediate_m -->
<g id="node41" class="node"><title>hxk_intermediate_m</title>
<ellipse fill="black" stroke="black" cx="1541" cy="-220" rx="0.036" ry="0.036"/>
</g>
<!-- t6p&#45;&gt;hxk_intermediate_m -->
<g id="edge34" class="edge"><title>t6p&#45;&gt;hxk_intermediate_m</title>
<path fill="none" stroke="black" d="M1473.75,-179.086C1484.02,-182.715 1494.56,-187.026 1504,-192 1521.68,-201.31 1539.83,-218.859 1540.95,-219.947"/>
</g>
<!-- tpp_intermediate_r -->
<g id="node52" class="node"><title>tpp_intermediate_r</title>
<ellipse fill="black" stroke="black" cx="1541" cy="-124" rx="0.036" ry="0.036"/>
</g>
<!-- t6p&#45;&gt;tpp_intermediate_r -->
<g id="edge46" class="edge"><title>t6p&#45;&gt;tpp_intermediate_r</title>
<path fill="none" stroke="black" d="M1468.95,-150.04C1480.42,-146.204 1492.69,-142.024 1504,-138 1520.05,-132.292 1539.73,-124.505 1540.94,-124.023"/>
</g>
<!-- udg -->
<g id="node6" class="node"><title>udg</title>
<ellipse fill="none" stroke="black" cx="1131" cy="-138" rx="48.13" ry="18"/>
<text text-anchor="middle" x="1131" y="-135.5" font-family="Times Roman,serif" font-size="10.00">UDP glucose</text>
</g>
<!-- udg&#45;&gt;tps_intermediate_r -->
<g id="edge60" class="edge"><title>udg&#45;&gt;tps_intermediate_r</title>
<path fill="none" stroke="black" d="M1168.22,-149.686C1190.74,-156.755 1215.41,-164.5 1216.93,-164.977"/>
</g>
<!-- adp -->
<g id="node7" class="node"><title>adp</title>
<ellipse fill="none" stroke="black" cx="527" cy="-229" rx="18" ry="18"/>
<text text-anchor="middle" x="527" y="-226.5" font-family="Times Roman,serif" font-size="10.00">ADP</text>
</g>
<!-- atp -->
<g id="node8" class="node"><title>atp</title>
<ellipse fill="none" stroke="black" cx="257" cy="-145" rx="18" ry="18"/>
<text text-anchor="middle" x="257" y="-142.5" font-family="Times Roman,serif" font-size="10.00">ATP</text>
</g>
<!-- atp&#45;&gt;hxk_intermediate_r -->
<g id="edge22" class="edge"><title>atp&#45;&gt;hxk_intermediate_r</title>
<path fill="none" stroke="black" d="M275.027,-145C295.119,-145 325.058,-145 326.91,-145"/>
</g>
<!-- ppi -->
<g id="node9" class="node"><title>ppi</title>
<ellipse fill="none" stroke="black" cx="1131" cy="-192" rx="48.0158" ry="18"/>
<text text-anchor="middle" x="1131" y="-189.5" font-family="Times Roman,serif" font-size="10.00">diphosphate</text>
</g>
<!-- f6p -->
<g id="node10" class="node"><title>f6p</title>
<ellipse fill="none" stroke="black" cx="842" cy="-84" rx="77.0636" ry="18"/>
<text text-anchor="middle" x="842" y="-81.5" font-family="Times Roman,serif" font-size="10.00">fructose 6&#45;phosphate</text>
</g>
<!-- h -->
<g id="node11" class="node"><title>h</title>
<ellipse fill="none" stroke="black" cx="1423" cy="-57" rx="18" ry="18"/>
<text text-anchor="middle" x="1423" y="-54.5" font-family="Times Roman,serif" font-size="10.00">H+</text>
</g>
<!-- h&#45;&gt;ugp_intermediate_r -->
<g id="edge86" class="edge"><title>h&#45;&gt;ugp_intermediate_r</title>
<path fill="none" stroke="black" d="M1405.66,-61.8271C1376.18,-69.5932 1314.32,-84 1261,-84 1045,-84 1045,-84 1045,-84 1000.55,-84 959.636,-134.678 957.122,-137.845"/>
</g>
<!-- pho -->
<g id="node12" class="node"><title>pho</title>
<ellipse fill="none" stroke="black" cx="1709" cy="-104" rx="41.9758" ry="18"/>
<text text-anchor="middle" x="1709" y="-101.5" font-family="Times Roman,serif" font-size="10.00">phosphate</text>
</g>
<!-- udp -->
<g id="node13" class="node"><title>udp</title>
<ellipse fill="none" stroke="black" cx="1423" cy="-219" rx="18" ry="18"/>
<text text-anchor="middle" x="1423" y="-216.5" font-family="Times Roman,serif" font-size="10.00">UDP</text>
</g>
<!-- utp -->
<g id="node14" class="node"><title>utp</title>
<ellipse fill="none" stroke="black" cx="842" cy="-138" rx="18" ry="18"/>
<text text-anchor="middle" x="842" y="-135.5" font-family="Times Roman,serif" font-size="10.00">UTP</text>
</g>
<!-- utp&#45;&gt;ugp_intermediate_r -->
<g id="edge84" class="edge"><title>utp&#45;&gt;ugp_intermediate_r</title>
<path fill="none" stroke="black" d="M860.222,-138C892.142,-138 954.997,-138 956.953,-138"/>
</g>
<!-- h2o -->
<g id="node15" class="node"><title>h2o</title>
<ellipse fill="none" stroke="black" cx="1423" cy="-111" rx="18" ry="18"/>
<text text-anchor="middle" x="1423" y="-108.5" font-family="Times Roman,serif" font-size="10.00">water</text>
</g>
<!-- h2o&#45;&gt;tpp_intermediate_r -->
<g id="edge48" class="edge"><title>h2o&#45;&gt;tpp_intermediate_r</title>
<path fill="none" stroke="black" d="M1440.92,-112.974C1473.42,-116.554 1538.91,-123.77 1540.95,-123.995"/>
</g>
<!-- h2o&#45;&gt;nth_intermediate_r -->
<g id="edge74" class="edge"><title>h2o&#45;&gt;nth_intermediate_r</title>
<path fill="none" stroke="black" d="M1440.1,-105.328C1481.36,-91.6555 1583.11,-58 1585,-58 1585,-58 1585,-58 1629,-58 1699,-58 1786.23,-58 1788.94,-58"/>
</g>
<!-- glx -->
<g id="node16" class="node"><title>glx</title>
<ellipse fill="none" stroke="black" cx="33" cy="-30" rx="33.2417" ry="18"/>
<text text-anchor="middle" x="33" y="-27.5" font-family="Times Roman,serif" font-size="10.00">glucose</text>
</g>
<!-- hxt_intermediate_r -->
<g id="node25" class="node"><title>hxt_intermediate_r</title>
<ellipse fill="black" stroke="black" cx="102" cy="-30" rx="0.036" ry="0.036"/>
</g>
<!-- glx&#45;&gt;hxt_intermediate_r -->
<g id="edge12" class="edge"><title>glx&#45;&gt;hxt_intermediate_r</title>
<path fill="none" stroke="black" d="M76.6118,-30C89.8089,-30 101.09,-30 101.948,-30"/>
<polygon fill="black" stroke="black" points="76.2874,-26.5001 66.2873,-30 76.2873,-33.5001 76.2874,-26.5001"/>
</g>
<!-- pgi -->
<g id="node17" class="node"><title>pgi</title>
<polygon fill="none" stroke="black" points="690,-114 676,-114 676,-100 690,-100 690,-114"/>
</g>
<!-- pgi_intermediate_p -->
<g id="node21" class="node"><title>pgi_intermediate_p</title>
<ellipse fill="black" stroke="black" cx="727" cy="-91" rx="0.036" ry="0.036"/>
</g>
<!-- pgi&#45;&gt;pgi_intermediate_p -->
<g id="edge6" class="edge"><title>pgi&#45;&gt;pgi_intermediate_p</title>
<path fill="none" stroke="black" d="M690.266,-104.358C702.372,-99.9555 725.497,-91.5467 726.93,-91.0254"/>
</g>
<!-- pgi_intermediate_r&#45;&gt;pgi -->
<g id="edge2" class="edge"><title>pgi_intermediate_r&#45;&gt;pgi</title>
<path fill="none" stroke="black" d="M639.126,-114.977C641.022,-114.632 663.795,-110.492 675.759,-108.317"/>
</g>
<!-- pgi_intermediate_p&#45;&gt;f6p -->
<g id="edge8" class="edge"><title>pgi_intermediate_p&#45;&gt;f6p</title>
<path fill="none" stroke="black" d="M727.083,-90.9949C728.199,-90.927 740.385,-90.1852 756.438,-89.2081"/>
<polygon fill="black" stroke="black" points="757.1,-92.6744 766.868,-88.5732 756.674,-85.6874 757.1,-92.6744"/>
</g>
<!-- hxt -->
<g id="node24" class="node"><title>hxt</title>
<polygon fill="none" stroke="black" points="152,-37 138,-37 138,-23 152,-23 152,-37"/>
</g>
<!-- hxt_intermediate_p -->
<g id="node28" class="node"><title>hxt_intermediate_p</title>
<ellipse fill="black" stroke="black" cx="188" cy="-30" rx="0.036" ry="0.036"/>
</g>
<!-- hxt&#45;&gt;hxt_intermediate_p -->
<g id="edge14" class="edge"><title>hxt&#45;&gt;hxt_intermediate_p</title>
<path fill="none" stroke="black" d="M152.101,-30C163.932,-30 186.531,-30 187.932,-30"/>
</g>
<!-- hxt_intermediate_r&#45;&gt;hxt -->
<g id="edge10" class="edge"><title>hxt_intermediate_r&#45;&gt;hxt</title>
<path fill="none" stroke="black" d="M102.123,-30C103.976,-30 126.231,-30 137.924,-30"/>
</g>
<!-- hxt_intermediate_p&#45;&gt;glc -->
<g id="edge16" class="edge"><title>hxt_intermediate_p&#45;&gt;glc</title>
<path fill="none" stroke="black" d="M188.05,-30C188.889,-30 200.172,-30 213.376,-30"/>
<polygon fill="black" stroke="black" points="213.706,-33.5001 223.706,-30 213.706,-26.5001 213.706,-33.5001"/>
</g>
<!-- hxk -->
<g id="node31" class="node"><title>hxk</title>
<polygon fill="none" stroke="black" points="378,-182 364,-182 364,-168 378,-168 378,-182"/>
</g>
<!-- hxk_intermediate_p -->
<g id="node36" class="node"><title>hxk_intermediate_p</title>
<ellipse fill="black" stroke="black" cx="415" cy="-175" rx="0.036" ry="0.036"/>
</g>
<!-- hxk&#45;&gt;hxk_intermediate_p -->
<g id="edge24" class="edge"><title>hxk&#45;&gt;hxk_intermediate_p</title>
<path fill="none" stroke="black" d="M378.266,-175C390.372,-175 413.497,-175 414.93,-175"/>
</g>
<!-- hxk&#45;&gt;hxk_intermediate_m -->
<g id="edge32" class="edge"><title>hxk&#45;&gt;hxk_intermediate_m</title>
<path fill="none" stroke="black" d="M383.284,-191.745C397.707,-210.205 423.33,-239.47 452,-256 481.887,-273.231 492.502,-276 527,-276 527,-276 527,-276 1305,-276 1394.44,-276 1420.97,-279.266 1504,-246 1522.07,-238.758 1539.85,-221.147 1540.95,-220.053"/>
<polygon fill="none" stroke="black" points="383.217,-191.656 376.409,-189.279 375.986,-182.08 382.794,-184.458 383.217,-191.656"/>
</g>
<!-- hxk_intermediate_r&#45;&gt;hxk -->
<g id="edge18" class="edge"><title>hxk_intermediate_r&#45;&gt;hxk</title>
<path fill="none" stroke="black" d="M327.126,-145.086C329.022,-146.378 351.795,-161.905 363.759,-170.063"/>
</g>
<!-- hxk_intermediate_p&#45;&gt;g6p -->
<g id="edge26" class="edge"><title>hxk_intermediate_p&#45;&gt;g6p</title>
<path fill="none" stroke="black" d="M415.081,-175C416.13,-175 427.231,-175 442.068,-175"/>
<polygon fill="black" stroke="black" points="442.29,-178.5 452.29,-175 442.289,-171.5 442.29,-178.5"/>
</g>
<!-- hxk_intermediate_p&#45;&gt;adp -->
<g id="edge28" class="edge"><title>hxk_intermediate_p&#45;&gt;adp</title>
<path fill="none" stroke="black" d="M415.055,-175.05C416.188,-176.083 434.581,-192.754 452,-202 467.049,-209.988 484.97,-216.538 499.52,-221.185"/>
<polygon fill="black" stroke="black" points="498.842,-224.638 509.429,-224.226 500.896,-217.946 498.842,-224.638"/>
</g>
<!-- hxk_intermediate_p&#45;&gt;h -->
<g id="edge30" class="edge"><title>hxk_intermediate_p&#45;&gt;h</title>
<path fill="none" stroke="black" d="M415.078,-174.901C418.355,-170.752 524.124,-38 639,-38 639,-38 639,-38 1261,-38 1308.32,-38 1362.89,-46.0961 1395.08,-51.7185"/>
<polygon fill="black" stroke="black" points="1394.64,-55.1946 1405.1,-53.5151 1395.88,-48.3045 1394.64,-55.1946"/>
</g>
<!-- pgm -->
<g id="node44" class="node"><title>pgm</title>
<polygon fill="none" stroke="black" points="690,-189 676,-189 676,-175 690,-175 690,-189"/>
</g>
<!-- pgm_intermediate_p -->
<g id="node48" class="node"><title>pgm_intermediate_p</title>
<ellipse fill="black" stroke="black" cx="727" cy="-184" rx="0.036" ry="0.036"/>
</g>
<!-- pgm&#45;&gt;pgm_intermediate_p -->
<g id="edge40" class="edge"><title>pgm&#45;&gt;pgm_intermediate_p</title>
<path fill="none" stroke="black" d="M690.266,-182.33C702.372,-182.881 725.497,-183.932 726.93,-183.997"/>
</g>
<!-- pgm_intermediate_r&#45;&gt;pgm -->
<g id="edge36" class="edge"><title>pgm_intermediate_r&#45;&gt;pgm</title>
<path fill="none" stroke="black" d="M639.126,-178.011C641.022,-178.184 663.795,-180.254 675.759,-181.342"/>
</g>
<!-- pgm_intermediate_p&#45;&gt;g1p -->
<g id="edge42" class="edge"><title>pgm_intermediate_p&#45;&gt;g1p</title>
<path fill="none" stroke="black" d="M727.083,-184.006C728.283,-184.089 742.288,-185.064 760.136,-186.305"/>
<polygon fill="black" stroke="black" points="760.171,-189.816 770.39,-187.018 760.657,-182.833 760.171,-189.816"/>
</g>
<!-- tpp -->
<g id="node51" class="node"><title>tpp</title>
<polygon fill="none" stroke="black" points="1592,-131 1578,-131 1578,-117 1592,-117 1592,-131"/>
</g>
<!-- tpp_intermediate_p -->
<g id="node56" class="node"><title>tpp_intermediate_p</title>
<ellipse fill="black" stroke="black" cx="1629" cy="-124" rx="0.036" ry="0.036"/>
</g>
<!-- tpp&#45;&gt;tpp_intermediate_p -->
<g id="edge50" class="edge"><title>tpp&#45;&gt;tpp_intermediate_p</title>
<path fill="none" stroke="black" d="M1592.27,-124C1604.37,-124 1627.5,-124 1628.93,-124"/>
</g>
<!-- tpp_intermediate_r&#45;&gt;tpp -->
<g id="edge44" class="edge"><title>tpp_intermediate_r&#45;&gt;tpp</title>
<path fill="none" stroke="black" d="M1541.13,-124C1543.02,-124 1565.79,-124 1577.76,-124"/>
</g>
<!-- tpp_intermediate_p&#45;&gt;trh -->
<g id="edge52" class="edge"><title>tpp_intermediate_p&#45;&gt;trh</title>
<path fill="none" stroke="black" d="M1629.06,-124.025C1630.28,-124.545 1650.72,-133.232 1670.63,-141.691"/>
<polygon fill="black" stroke="black" points="1669.39,-144.969 1679.96,-145.659 1672.13,-138.526 1669.39,-144.969"/>
</g>
<!-- tpp_intermediate_p&#45;&gt;pho -->
<g id="edge54" class="edge"><title>tpp_intermediate_p&#45;&gt;pho</title>
<path fill="none" stroke="black" d="M1629.06,-123.986C1630.11,-123.722 1645.33,-119.918 1662.21,-115.699"/>
<polygon fill="black" stroke="black" points="1663.39,-119.011 1672.24,-113.19 1661.69,-112.22 1663.39,-119.011"/>
</g>
<!-- tps -->
<g id="node60" class="node"><title>tps</title>
<polygon fill="none" stroke="black" points="1268,-172 1254,-172 1254,-158 1268,-158 1268,-172"/>
</g>
<!-- tps_intermediate_p -->
<g id="node65" class="node"><title>tps_intermediate_p</title>
<ellipse fill="black" stroke="black" cx="1305" cy="-165" rx="0.036" ry="0.036"/>
</g>
<!-- tps&#45;&gt;tps_intermediate_p -->
<g id="edge62" class="edge"><title>tps&#45;&gt;tps_intermediate_p</title>
<path fill="none" stroke="black" d="M1268.27,-165C1280.37,-165 1303.5,-165 1304.93,-165"/>
</g>
<!-- tps_intermediate_r&#45;&gt;tps -->
<g id="edge56" class="edge"><title>tps_intermediate_r&#45;&gt;tps</title>
<path fill="none" stroke="black" d="M1217.13,-165C1219.02,-165 1241.79,-165 1253.76,-165"/>
</g>
<!-- tps_intermediate_p&#45;&gt;t6p -->
<g id="edge64" class="edge"><title>tps_intermediate_p&#45;&gt;t6p</title>
<path fill="none" stroke="black" d="M1305.09,-165C1306.16,-165 1317.17,-165 1332.07,-165"/>
<polygon fill="black" stroke="black" points="1332.36,-168.5 1342.36,-165 1332.36,-161.5 1332.36,-168.5"/>
</g>
<!-- tps_intermediate_p&#45;&gt;h -->
<g id="edge68" class="edge"><title>tps_intermediate_p&#45;&gt;h</title>
<path fill="none" stroke="black" d="M1305.02,-164.843C1305.49,-161.618 1313.48,-109.627 1342,-84 1356.61,-70.8725 1377.79,-64.1011 1394.83,-60.6229"/>
<polygon fill="black" stroke="black" points="1395.58,-64.0459 1404.81,-58.8554 1394.36,-57.1532 1395.58,-64.0459"/>
</g>
<!-- tps_intermediate_p&#45;&gt;udp -->
<g id="edge66" class="edge"><title>tps_intermediate_p&#45;&gt;udp</title>
<path fill="none" stroke="black" d="M1305.05,-165.051C1306.18,-166.096 1324.47,-182.962 1342,-192 1358.97,-200.749 1379.36,-207.529 1395.44,-212.106"/>
<polygon fill="black" stroke="black" points="1394.74,-215.542 1405.31,-214.795 1396.58,-208.788 1394.74,-215.542"/>
</g>
<!-- nth -->
<g id="node70" class="node"><title>nth</title>
<polygon fill="none" stroke="black" points="1840,-53 1826,-53 1826,-39 1840,-39 1840,-53"/>
</g>
<!-- nth_intermediate_p -->
<g id="node75" class="node"><title>nth_intermediate_p</title>
<ellipse fill="black" stroke="black" cx="1876" cy="-23" rx="0.036" ry="0.036"/>
</g>
<!-- nth&#45;&gt;nth_intermediate_p -->
<g id="edge76" class="edge"><title>nth&#45;&gt;nth_intermediate_p</title>
<path fill="none" stroke="black" d="M1840.1,-42.202C1851.93,-35.8735 1874.53,-23.7858 1875.93,-23.0365"/>
</g>
<!-- nth_intermediate_r&#45;&gt;nth -->
<g id="edge70" class="edge"><title>nth_intermediate_r&#45;&gt;nth</title>
<path fill="none" stroke="black" d="M1789.13,-57.9656C1791.02,-57.4487 1813.79,-51.2379 1825.76,-47.9748"/>
</g>
<!-- nth_intermediate_p&#45;&gt;glc -->
<g id="edge78" class="edge"><title>nth_intermediate_p&#45;&gt;glc</title>
<path fill="none" stroke="black" d="M1875.86,-22.934C1873.07,-21.585 1827.75,-3.55271e-15 1789,-0 371,-0 371,-0 371,-0 344.201,-3.55271e-15 314.991,-7.84912 292.848,-15.5176"/>
<polygon fill="black" stroke="black" points="291.423,-12.3112 283.206,-18.9995 293.8,-18.8951 291.423,-12.3112"/>
</g>
<!-- ugp -->
<g id="node78" class="node"><title>ugp</title>
<polygon fill="none" stroke="black" points="1008,-145 994,-145 994,-131 1008,-131 1008,-145"/>
</g>
<!-- ugp_intermediate_p -->
<g id="node84" class="node"><title>ugp_intermediate_p</title>
<ellipse fill="black" stroke="black" cx="1045" cy="-138" rx="0.036" ry="0.036"/>
</g>
<!-- ugp&#45;&gt;ugp_intermediate_p -->
<g id="edge88" class="edge"><title>ugp&#45;&gt;ugp_intermediate_p</title>
<path fill="none" stroke="black" d="M1008.27,-138C1020.37,-138 1043.5,-138 1044.93,-138"/>
</g>
<!-- ugp_intermediate_r&#45;&gt;ugp -->
<g id="edge80" class="edge"><title>ugp_intermediate_r&#45;&gt;ugp</title>
<path fill="none" stroke="black" d="M957.126,-138C959.022,-138 981.795,-138 993.759,-138"/>
</g>
<!-- ugp_intermediate_p&#45;&gt;udg -->
<g id="edge90" class="edge"><title>ugp_intermediate_p&#45;&gt;udg</title>
<path fill="none" stroke="black" d="M1045.06,-138C1046,-138 1057.52,-138 1071.82,-138"/>
<polygon fill="black" stroke="black" points="1072.08,-141.5 1082.08,-138 1072.08,-134.5 1072.08,-141.5"/>
</g>
<!-- ugp_intermediate_p&#45;&gt;ppi -->
<g id="edge92" class="edge"><title>ugp_intermediate_p&#45;&gt;ppi</title>
<path fill="none" stroke="black" d="M1045.06,-138.046C1046.24,-138.999 1065.37,-154.407 1082,-165 1085.84,-167.443 1089.91,-169.896 1094,-172.273"/>
<polygon fill="black" stroke="black" points="1092.49,-175.438 1102.92,-177.323 1095.94,-169.348 1092.49,-175.438"/>
</g>
</g>
</svg>
