<?xml version="1.0" encoding="UTF-8" standalone="no"?>
<!DOCTYPE svg PUBLIC "-//W3C//DTD SVG 1.1//EN"
 "http://www.w3.org/Graphics/SVG/1.1/DTD/svg11.dtd">
<!-- Generated by graphviz version 2.30.1 (20140821.0912)
 -->
<!-- Title: G Pages: 1 -->
<svg width="1400pt" height="659pt"
 viewBox="0.00 0.00 1400.00 659.00" xmlns="http://www.w3.org/2000/svg" xmlns:xlink="http://www.w3.org/1999/xlink">
<g id="graph0" class="graph" transform="scale(1 1) rotate(0) translate(4 655)">
<title>G</title>
<polygon fill="white" stroke="white" points="-4,5 -4,-655 1397,-655 1397,5 -4,5"/>
<!-- Rec -->
<g id="Rec" class="node"><title>Rec</title>
<path fill="none" stroke="black" d="M222,-125C222,-125 192,-125 192,-125 186,-125 180,-119 180,-113 180,-113 180,-101 180,-101 180,-95 186,-89 192,-89 192,-89 222,-89 222,-89 228,-89 234,-95 234,-101 234,-101 234,-113 234,-113 234,-119 228,-125 222,-125"/>
<text text-anchor="middle" x="207" y="-104.5" font-family="Times,serif" font-size="10.00">Rec</text>
</g>
<!-- reaction_1_intermediate_r -->
<g id="node18" class="node"><title>reaction_1_intermediate_r</title>
<ellipse fill="black" stroke="black" cx="297" cy="-135" rx="0.036" ry="0.036"/>
</g>
<!-- Rec&#45;&gt;reaction_1_intermediate_r -->
<g id="edge2" class="edge"><title>Rec&#45;&gt;reaction_1_intermediate_r</title>
<path fill="none" stroke="black" d="M234.403,-115.401C259.514,-123.391 293.78,-134.294 295.897,-134.967"/>
</g>
<!-- reaction_2_intermediate_r -->
<g id="node22" class="node"><title>reaction_2_intermediate_r</title>
<ellipse fill="black" stroke="black" cx="297" cy="-49" rx="0.036" ry="0.036"/>
</g>
<!-- Rec&#45;&gt;reaction_2_intermediate_r -->
<g id="edge8" class="edge"><title>Rec&#45;&gt;reaction_2_intermediate_r</title>
<path fill="none" stroke="black" d="M234.403,-89.5981C259.514,-73.0477 293.78,-50.4633 295.897,-49.068"/>
</g>
<!-- Rec_i -->
<g id="Rec_i" class="node"><title>Rec_i</title>
<path fill="none" stroke="black" d="M615,-36C615,-36 585,-36 585,-36 579,-36 573,-30 573,-24 573,-24 573,-12 573,-12 573,-6 579,-0 585,-0 585,-0 615,-0 615,-0 621,-0 627,-6 627,-12 627,-12 627,-24 627,-24 627,-30 621,-36 615,-36"/>
<text text-anchor="middle" x="600" y="-15.5" font-family="Times,serif" font-size="10.00">Rec_i</text>
</g>
<!-- reaction_3_intermediate_r -->
<g id="node25" class="node"><title>reaction_3_intermediate_r</title>
<ellipse fill="black" stroke="black" cx="675" cy="-18" rx="0.036" ry="0.036"/>
</g>
<!-- Rec_i&#45;&gt;reaction_3_intermediate_r -->
<g id="edge12" class="edge"><title>Rec_i&#45;&gt;reaction_3_intermediate_r</title>
<path fill="none" stroke="black" d="M627.355,-18C647.611,-18 672.396,-18 673.926,-18"/>
</g>
<!-- IL13_Rec -->
<g id="IL13_Rec" class="node"><title>IL13_Rec</title>
<path fill="none" stroke="black" d="M616.5,-378C616.5,-378 583.5,-378 583.5,-378 577.5,-378 571.5,-372 571.5,-366 571.5,-366 571.5,-354 571.5,-354 571.5,-348 577.5,-342 583.5,-342 583.5,-342 616.5,-342 616.5,-342 622.5,-342 628.5,-348 628.5,-354 628.5,-354 628.5,-366 628.5,-366 628.5,-372 622.5,-378 616.5,-378"/>
<text text-anchor="middle" x="600" y="-357.5" font-family="Times,serif" font-size="10.00">IL13_Rec</text>
</g>
<!-- reaction_4_intermediate_r -->
<g id="node28" class="node"><title>reaction_4_intermediate_r</title>
<ellipse fill="black" stroke="black" cx="675" cy="-374" rx="0.036" ry="0.036"/>
</g>
<!-- IL13_Rec&#45;&gt;reaction_4_intermediate_r -->
<g id="edge16" class="edge"><title>IL13_Rec&#45;&gt;reaction_4_intermediate_r</title>
<path fill="none" stroke="black" d="M628.598,-365.293C648.624,-369.133 672.458,-373.704 673.928,-373.986"/>
</g>
<!-- reaction_5_intermediate_m -->
<g id="node34" class="node"><title>reaction_5_intermediate_m</title>
<ellipse fill="black" stroke="black" cx="675" cy="-406" rx="0.036" ry="0.036"/>
</g>
<!-- IL13_Rec&#45;&gt;reaction_5_intermediate_m -->
<g id="edge26" class="edge"><title>IL13_Rec&#45;&gt;reaction_5_intermediate_m</title>
<path fill="none" stroke="black" d="M628.598,-377.391C648.624,-390.01 672.458,-405.029 673.928,-405.955"/>
</g>
<!-- p_IL13_Rec -->
<g id="p_IL13_Rec" class="node"><title>p_IL13_Rec</title>
<path fill="none" stroke="black" d="M970,-414C970,-414 926,-414 926,-414 920,-414 914,-408 914,-402 914,-402 914,-390 914,-390 914,-384 920,-378 926,-378 926,-378 970,-378 970,-378 976,-378 982,-384 982,-390 982,-390 982,-402 982,-402 982,-408 976,-414 970,-414"/>
<text text-anchor="middle" x="948" y="-393.5" font-family="Times,serif" font-size="10.00">p_IL13_Rec</text>
</g>
<!-- reaction_6_intermediate_m -->
<g id="node38" class="node"><title>reaction_6_intermediate_m</title>
<ellipse fill="black" stroke="black" cx="1018" cy="-442" rx="0.036" ry="0.036"/>
</g>
<!-- p_IL13_Rec&#45;&gt;reaction_6_intermediate_m -->
<g id="edge33" class="edge"><title>p_IL13_Rec&#45;&gt;reaction_6_intermediate_m</title>
<path fill="none" stroke="black" d="M975.875,-414.18C994.289,-426.636 1015.62,-441.067 1016.94,-441.957"/>
</g>
<!-- reaction_7_intermediate_r -->
<g id="node40" class="node"><title>reaction_7_intermediate_r</title>
<ellipse fill="black" stroke="black" cx="1018" cy="-396" rx="0.036" ry="0.036"/>
</g>
<!-- p_IL13_Rec&#45;&gt;reaction_7_intermediate_r -->
<g id="edge36" class="edge"><title>p_IL13_Rec&#45;&gt;reaction_7_intermediate_r</title>
<path fill="none" stroke="black" d="M982.203,-396C998.925,-396 1015.9,-396 1016.95,-396"/>
</g>
<!-- p_IL13_Rec_i -->
<g id="p_IL13_Rec_i" class="node"><title>p_IL13_Rec_i</title>
<path fill="none" stroke="black" d="M1204,-414C1204,-414 1152,-414 1152,-414 1146,-414 1140,-408 1140,-402 1140,-402 1140,-390 1140,-390 1140,-384 1146,-378 1152,-378 1152,-378 1204,-378 1204,-378 1210,-378 1216,-384 1216,-390 1216,-390 1216,-402 1216,-402 1216,-408 1210,-414 1204,-414"/>
<text text-anchor="middle" x="1178" y="-393.5" font-family="Times,serif" font-size="10.00">p_IL13_Rec_i</text>
</g>
<!-- reaction_8_intermediate_r -->
<g id="node43" class="node"><title>reaction_8_intermediate_r</title>
<ellipse fill="black" stroke="black" cx="1252" cy="-396" rx="0.036" ry="0.036"/>
</g>
<!-- p_IL13_Rec_i&#45;&gt;reaction_8_intermediate_r -->
<g id="edge40" class="edge"><title>p_IL13_Rec_i&#45;&gt;reaction_8_intermediate_r</title>
<path fill="none" stroke="black" d="M1216.27,-396C1233.28,-396 1249.93,-396 1250.95,-396"/>
</g>
<!-- JAK2 -->
<g id="JAK2" class="node"><title>JAK2</title>
<path fill="none" stroke="black" d="M765,-585C765,-585 735,-585 735,-585 729,-585 723,-579 723,-573 723,-573 723,-561 723,-561 723,-555 729,-549 735,-549 735,-549 765,-549 765,-549 771,-549 777,-555 777,-561 777,-561 777,-573 777,-573 777,-579 771,-585 765,-585"/>
<text text-anchor="middle" x="750" y="-564.5" font-family="Times,serif" font-size="10.00">JAK2</text>
</g>
<!-- reaction_5_intermediate_r -->
<g id="node32" class="node"><title>reaction_5_intermediate_r</title>
<ellipse fill="black" stroke="black" cx="851" cy="-599" rx="0.036" ry="0.036"/>
</g>
<!-- JAK2&#45;&gt;reaction_5_intermediate_r -->
<g id="edge22" class="edge"><title>JAK2&#45;&gt;reaction_5_intermediate_r</title>
<path fill="none" stroke="black" d="M777.011,-575.408C805.426,-584.592 847.285,-598.123 849.874,-598.959"/>
</g>
<!-- reaction_6_intermediate_r -->
<g id="node36" class="node"><title>reaction_6_intermediate_r</title>
<ellipse fill="black" stroke="black" cx="851" cy="-567" rx="0.036" ry="0.036"/>
</g>
<!-- JAK2&#45;&gt;reaction_6_intermediate_r -->
<g id="edge29" class="edge"><title>JAK2&#45;&gt;reaction_6_intermediate_r</title>
<path fill="none" stroke="black" d="M777.011,-567C805.426,-567 847.285,-567 849.874,-567"/>
</g>
<!-- pJAK2 -->
<g id="pJAK2" class="node"><title>pJAK2</title>
<ellipse fill="none" stroke="black" cx="398" cy="-533" rx="18" ry="18"/>
<text text-anchor="middle" x="398" y="-530.5" font-family="Times,serif" font-size="10.00">pJAK2</text>
</g>
<!-- reaction_4_intermediate_m -->
<g id="node30" class="node"><title>reaction_4_intermediate_m</title>
<ellipse fill="black" stroke="black" cx="851" cy="-414" rx="0.036" ry="0.036"/>
</g>
<!-- pJAK2&#45;&gt;reaction_4_intermediate_m -->
<g id="edge20" class="edge"><title>pJAK2&#45;&gt;reaction_4_intermediate_m</title>
<path fill="none" stroke="black" d="M416.091,-530.672C459.858,-524.495 579.334,-506.276 676,-479 754.209,-456.932 847.049,-415.326 849.931,-414.031"/>
</g>
<!-- reaction_9_intermediate_r -->
<g id="node46" class="node"><title>reaction_9_intermediate_r</title>
<ellipse fill="black" stroke="black" cx="499" cy="-533" rx="0.036" ry="0.036"/>
</g>
<!-- pJAK2&#45;&gt;reaction_9_intermediate_r -->
<g id="edge43" class="edge"><title>pJAK2&#45;&gt;reaction_9_intermediate_r</title>
<path fill="none" stroke="black" d="M416.244,-533C443.722,-533 494.687,-533 497.846,-533"/>
</g>
<!-- reaction_10_intermediate_m -->
<g id="node52" class="node"><title>reaction_10_intermediate_m</title>
<ellipse fill="black" stroke="black" cx="499" cy="-452" rx="0.036" ry="0.036"/>
</g>
<!-- pJAK2&#45;&gt;reaction_10_intermediate_m -->
<g id="edge53" class="edge"><title>pJAK2&#45;&gt;reaction_10_intermediate_m</title>
<path fill="none" stroke="black" d="M413.753,-523.576C420.829,-518.73 429.219,-512.486 436,-506 454.508,-488.295 451.075,-475.77 472,-461 481.678,-454.169 497.005,-452.127 497.954,-452.006"/>
</g>
<!-- SHP1 -->
<g id="SHP1" class="node"><title>SHP1</title>
<path fill="none" stroke="black" d="M42,-599C42,-599 12,-599 12,-599 6,-599 0,-593 0,-587 0,-587 0,-575 0,-575 0,-569 6,-563 12,-563 12,-563 42,-563 42,-563 48,-563 54,-569 54,-575 54,-575 54,-587 54,-587 54,-593 48,-599 42,-599"/>
<text text-anchor="middle" x="27" y="-578.5" font-family="Times,serif" font-size="10.00">SHP1</text>
</g>
<!-- reaction_9_intermediate_m -->
<g id="node48" class="node"><title>reaction_9_intermediate_m</title>
<ellipse fill="black" stroke="black" cx="675" cy="-573" rx="0.036" ry="0.036"/>
</g>
<!-- SHP1&#45;&gt;reaction_9_intermediate_m -->
<g id="edge47" class="edge"><title>SHP1&#45;&gt;reaction_9_intermediate_m</title>
<path fill="none" stroke="black" d="M54.1158,-596.573C87.937,-615.229 149.288,-644 206,-644 206,-644 206,-644 399,-644 523.258,-644 669.356,-575.201 673.892,-573.051"/>
</g>
<!-- reaction_11_intermediate_m -->
<g id="node56" class="node"><title>reaction_11_intermediate_m</title>
<ellipse fill="black" stroke="black" cx="117" cy="-523" rx="0.036" ry="0.036"/>
</g>
<!-- SHP1&#45;&gt;reaction_11_intermediate_m -->
<g id="edge59" class="edge"><title>SHP1&#45;&gt;reaction_11_intermediate_m</title>
<path fill="none" stroke="black" d="M54.4029,-563.598C79.5138,-547.048 113.78,-524.463 115.897,-523.068"/>
</g>
<!-- STAT5 -->
<g id="STAT5" class="node"><title>STAT5</title>
<path fill="none" stroke="black" d="M222,-342C222,-342 192,-342 192,-342 186,-342 180,-336 180,-330 180,-330 180,-318 180,-318 180,-312 186,-306 192,-306 192,-306 222,-306 222,-306 228,-306 234,-312 234,-318 234,-318 234,-330 234,-330 234,-336 228,-342 222,-342"/>
<text text-anchor="middle" x="207" y="-321.5" font-family="Times,serif" font-size="10.00">STAT5</text>
</g>
<!-- reaction_10_intermediate_r -->
<g id="node50" class="node"><title>reaction_10_intermediate_r</title>
<ellipse fill="black" stroke="black" cx="297" cy="-319" rx="0.036" ry="0.036"/>
</g>
<!-- STAT5&#45;&gt;reaction_10_intermediate_r -->
<g id="edge49" class="edge"><title>STAT5&#45;&gt;reaction_10_intermediate_r</title>
<path fill="none" stroke="black" d="M234.403,-322.5C259.514,-321.073 293.78,-319.126 295.897,-319.006"/>
</g>
<!-- pSTAT5 -->
<g id="pSTAT5" class="node"><title>pSTAT5</title>
<ellipse fill="none" stroke="black" cx="600" cy="-268" rx="30.7213" ry="18"/>
<text text-anchor="middle" x="600" y="-265.5" font-family="Times,serif" font-size="10.00">pSTAT5</text>
</g>
<!-- reaction_11_intermediate_r -->
<g id="node54" class="node"><title>reaction_11_intermediate_r</title>
<ellipse fill="black" stroke="black" cx="675" cy="-204" rx="0.036" ry="0.036"/>
</g>
<!-- pSTAT5&#45;&gt;reaction_11_intermediate_r -->
<g id="edge55" class="edge"><title>pSTAT5&#45;&gt;reaction_11_intermediate_r</title>
<path fill="none" stroke="black" d="M620.678,-254.582C626.417,-250.42 632.595,-245.691 638,-241 654.787,-226.432 672.834,-205.366 673.946,-204.063"/>
</g>
<!-- reaction_13_intermediate_m -->
<g id="node64" class="node"><title>reaction_13_intermediate_m</title>
<ellipse fill="black" stroke="black" cx="675" cy="-291" rx="0.036" ry="0.036"/>
</g>
<!-- pSTAT5&#45;&gt;reaction_13_intermediate_m -->
<g id="edge70" class="edge"><title>pSTAT5&#45;&gt;reaction_13_intermediate_m</title>
<path fill="none" stroke="black" d="M627.355,-276.304C647.611,-282.686 672.396,-290.495 673.926,-290.977"/>
</g>
<!-- reaction_16_intermediate_m -->
<g id="node75" class="node"><title>reaction_16_intermediate_m</title>
<ellipse fill="black" stroke="black" cx="675" cy="-161" rx="0.036" ry="0.036"/>
</g>
<!-- pSTAT5&#45;&gt;reaction_16_intermediate_m -->
<g id="edge83" class="edge"><title>pSTAT5&#45;&gt;reaction_16_intermediate_m</title>
<path fill="none" stroke="black" d="M622.193,-255.399C627.841,-251.323 633.591,-246.434 638,-241 661.798,-211.669 673.273,-164.089 673.966,-161.144"/>
</g>
<!-- SOCS3mRNA -->
<g id="SOCS3mRNA [CHEBI:33699]" class="node"><title>SOCS3mRNA</title>
<path fill="none" stroke="black" d="M424,-465C424,-465 372,-465 372,-465 366,-465 360,-459 360,-453 360,-453 360,-441 360,-441 360,-435 366,-429 372,-429 372,-429 424,-429 424,-429 430,-429 436,-435 436,-441 436,-441 436,-453 436,-453 436,-459 430,-465 424,-465"/>
<text text-anchor="middle" x="398" y="-444.5" font-family="Times,serif" font-size="10.00">SOCS3mRNA</text>
</g>
<!-- reaction_14_intermediate_m -->
<g id="node68" class="node"><title>reaction_14_intermediate_m</title>
<ellipse fill="black" stroke="black" cx="499" cy="-434" rx="0.036" ry="0.036"/>
</g>
<!-- SOCS3mRNA&#45;&gt;reaction_14_intermediate_m -->
<g id="edge75" class="edge"><title>SOCS3mRNA&#45;&gt;reaction_14_intermediate_m</title>
<path fill="none" stroke="black" d="M436.146,-442.122C463.359,-438.549 495.895,-434.276 497.902,-434.013"/>
</g>
<!-- DecoyR -->
<g id="DecoyR" class="node"><title>DecoyR</title>
<path fill="none" stroke="black" d="M222,-288C222,-288 192,-288 192,-288 186,-288 180,-282 180,-276 180,-276 180,-264 180,-264 180,-258 186,-252 192,-252 192,-252 222,-252 222,-252 228,-252 234,-258 234,-264 234,-264 234,-276 234,-276 234,-282 228,-288 222,-288"/>
<text text-anchor="middle" x="207" y="-267.5" font-family="Times,serif" font-size="10.00">DecoyR</text>
</g>
<!-- reaction_12_intermediate_r -->
<g id="node58" class="node"><title>reaction_12_intermediate_r</title>
<ellipse fill="black" stroke="black" cx="297" cy="-273" rx="0.036" ry="0.036"/>
</g>
<!-- DecoyR&#45;&gt;reaction_12_intermediate_r -->
<g id="edge61" class="edge"><title>DecoyR&#45;&gt;reaction_12_intermediate_r</title>
<path fill="none" stroke="black" d="M234.403,-270.9C259.514,-271.756 293.78,-272.924 295.897,-272.996"/>
</g>
<!-- IL13_DecoyR -->
<g id="IL13_DecoyR" class="node"><title>IL13_DecoyR</title>
<path fill="none" stroke="black" d="M625.5,-232C625.5,-232 574.5,-232 574.5,-232 568.5,-232 562.5,-226 562.5,-220 562.5,-220 562.5,-208 562.5,-208 562.5,-202 568.5,-196 574.5,-196 574.5,-196 625.5,-196 625.5,-196 631.5,-196 637.5,-202 637.5,-208 637.5,-208 637.5,-220 637.5,-220 637.5,-226 631.5,-232 625.5,-232"/>
<text text-anchor="middle" x="600" y="-211.5" font-family="Times,serif" font-size="10.00">IL13_DecoyR</text>
</g>
<!-- SOCS3 -->
<g id="SOCS3" class="node"><title>SOCS3</title>
<path fill="none" stroke="black" d="M615,-470C615,-470 585,-470 585,-470 579,-470 573,-464 573,-458 573,-458 573,-446 573,-446 573,-440 579,-434 585,-434 585,-434 615,-434 615,-434 621,-434 627,-440 627,-446 627,-446 627,-458 627,-458 627,-464 621,-470 615,-470"/>
<text text-anchor="middle" x="600" y="-449.5" font-family="Times,serif" font-size="10.00">SOCS3</text>
</g>
<!-- SOCS3&#45;&gt;reaction_5_intermediate_m -->
<g id="edge27" class="edge"><title>SOCS3&#45;&gt;reaction_5_intermediate_m</title>
<path fill="none" stroke="black" d="M627.355,-435.393C647.611,-422.629 672.396,-407.011 673.926,-406.047"/>
</g>
<!-- SOCS3&#45;&gt;reaction_6_intermediate_m -->
<g id="edge34" class="edge"><title>SOCS3&#45;&gt;reaction_6_intermediate_m</title>
<path fill="none" stroke="black" d="M627.164,-449.161C656.712,-446.205 706.25,-442 749,-442 749,-442 749,-442 852,-442 924.188,-442 1014.14,-442 1016.93,-442"/>
</g>
<!-- reaction_15_intermediate_r -->
<g id="node70" class="node"><title>reaction_15_intermediate_r</title>
<ellipse fill="black" stroke="black" cx="675" cy="-470" rx="0.036" ry="0.036"/>
</g>
<!-- SOCS3&#45;&gt;reaction_15_intermediate_r -->
<g id="edge77" class="edge"><title>SOCS3&#45;&gt;reaction_15_intermediate_r</title>
<path fill="none" stroke="black" d="M627.355,-458.498C647.611,-463.493 672.396,-469.605 673.926,-469.982"/>
</g>
<!-- CD274mRNA -->
<g id="CD274mRNA [CHEBI:33699]" class="node"><title>CD274mRNA</title>
<path fill="none" stroke="black" d="M776,-79C776,-79 724,-79 724,-79 718,-79 712,-73 712,-67 712,-67 712,-55 712,-55 712,-49 718,-43 724,-43 724,-43 776,-43 776,-43 782,-43 788,-49 788,-55 788,-55 788,-67 788,-67 788,-73 782,-79 776,-79"/>
<text text-anchor="middle" x="750" y="-58.5" font-family="Times,serif" font-size="10.00">CD274mRNA</text>
</g>
<!-- IL13 -->
<g id="IL13" class="node"><title>IL13</title>
<path fill="none" stroke="black" d="M413,-259C413,-259 383,-259 383,-259 377,-259 371,-253 371,-247 371,-247 371,-235 371,-235 371,-229 377,-223 383,-223 383,-223 413,-223 413,-223 419,-223 425,-229 425,-235 425,-235 425,-247 425,-247 425,-253 419,-259 413,-259"/>
<text text-anchor="middle" x="398" y="-238.5" font-family="Times,serif" font-size="10.00">IL13</text>
</g>
<!-- reaction_1_intermediate_m -->
<g id="node20" class="node"><title>reaction_1_intermediate_m</title>
<ellipse fill="black" stroke="black" cx="499" cy="-222" rx="0.036" ry="0.036"/>
</g>
<!-- IL13&#45;&gt;reaction_1_intermediate_m -->
<g id="edge6" class="edge"><title>IL13&#45;&gt;reaction_1_intermediate_m</title>
<path fill="none" stroke="black" d="M425.011,-236.008C453.426,-230.555 495.285,-222.521 497.874,-222.024"/>
</g>
<!-- reaction_12_intermediate_m -->
<g id="node60" class="node"><title>reaction_12_intermediate_m</title>
<ellipse fill="black" stroke="black" cx="499" cy="-258" rx="0.036" ry="0.036"/>
</g>
<!-- IL13&#45;&gt;reaction_12_intermediate_m -->
<g id="edge65" class="edge"><title>IL13&#45;&gt;reaction_12_intermediate_m</title>
<path fill="none" stroke="black" d="M425.011,-245.467C453.426,-250.346 495.285,-257.534 497.874,-257.978"/>
</g>
<!-- reaction_1 -->
<g id="node17" class="node"><title>reaction_1</title>
<polygon fill="none" stroke="black" points="405,-205 391,-205 391,-191 405,-191 405,-205"/>
</g>
<!-- reaction_1_intermediate_p -->
<g id="node19" class="node"><title>reaction_1_intermediate_p</title>
<ellipse fill="black" stroke="black" cx="499" cy="-199" rx="0.036" ry="0.036"/>
</g>
<!-- reaction_1&#45;&gt;reaction_1_intermediate_p -->
<g id="edge3" class="edge"><title>reaction_1&#45;&gt;reaction_1_intermediate_p</title>
<path fill="none" stroke="black" d="M405.193,-198.063C426.528,-198.278 495.789,-198.978 497.948,-198.999"/>
</g>
<!-- reaction_1&#45;&gt;reaction_1_intermediate_m -->
<g id="edge5" class="edge"><title>reaction_1&#45;&gt;reaction_1_intermediate_m</title>
<path fill="none" stroke="black" d="M405.193,-199.501C426.528,-204.673 495.789,-221.464 497.948,-221.987"/>
</g>
<!-- reaction_1_intermediate_r&#45;&gt;reaction_1 -->
<g id="edge1" class="edge"><title>reaction_1_intermediate_r&#45;&gt;reaction_1</title>
<path fill="none" stroke="black" d="M298.072,-135.046C300.613,-136.663 369.928,-180.772 390.989,-194.175"/>
</g>
<!-- reaction_1_intermediate_p&#45;&gt;IL13_Rec -->
<g id="edge4" class="edge"><title>reaction_1_intermediate_p&#45;&gt;IL13_Rec</title>
<path fill="none" stroke="black" d="M500.049,-199.013C501.061,-199.277 517.378,-203.656 526,-213 552.993,-242.251 544.131,-259.435 562,-295 568.394,-307.726 576.101,-321.479 582.822,-333.042"/>
<polygon fill="black" stroke="black" points="579.874,-334.935 587.957,-341.785 585.91,-331.39 579.874,-334.935"/>
</g>
<!-- reaction_2 -->
<g id="node21" class="node"><title>reaction_2</title>
<polygon fill="none" stroke="black" points="405,-43 391,-43 391,-29 405,-29 405,-43"/>
</g>
<!-- reaction_2_intermediate_p -->
<g id="node23" class="node"><title>reaction_2_intermediate_p</title>
<ellipse fill="black" stroke="black" cx="499" cy="-21" rx="0.036" ry="0.036"/>
</g>
<!-- reaction_2&#45;&gt;reaction_2_intermediate_p -->
<g id="edge9" class="edge"><title>reaction_2&#45;&gt;reaction_2_intermediate_p</title>
<path fill="none" stroke="black" d="M405.193,-35.0617C426.528,-31.8291 495.789,-21.335 497.948,-21.0078"/>
</g>
<!-- reaction_2_intermediate_r&#45;&gt;reaction_2 -->
<g id="edge7" class="edge"><title>reaction_2_intermediate_r&#45;&gt;reaction_2</title>
<path fill="none" stroke="black" d="M298.072,-48.9906C300.613,-48.6569 369.928,-39.5549 390.989,-36.7894"/>
</g>
<!-- reaction_2_intermediate_p&#45;&gt;Rec_i -->
<g id="edge10" class="edge"><title>reaction_2_intermediate_p&#45;&gt;Rec_i</title>
<path fill="none" stroke="black" d="M500.072,-20.9978C501.821,-20.9448 535.227,-19.9325 562.742,-19.0987"/>
<polygon fill="black" stroke="black" points="563.031,-22.5917 572.92,-18.7903 562.819,-15.5949 563.031,-22.5917"/>
</g>
<!-- reaction_3 -->
<g id="node24" class="node"><title>reaction_3</title>
<polygon fill="none" stroke="black" points="757,-25 743,-25 743,-11 757,-11 757,-25"/>
</g>
<!-- reaction_3_intermediate_p -->
<g id="node26" class="node"><title>reaction_3_intermediate_p</title>
<ellipse fill="black" stroke="black" cx="851" cy="-63" rx="0.036" ry="0.036"/>
</g>
<!-- reaction_3&#45;&gt;reaction_3_intermediate_p -->
<g id="edge13" class="edge"><title>reaction_3&#45;&gt;reaction_3_intermediate_p</title>
<path fill="none" stroke="black" d="M757.048,-20.5509C764.394,-23.6642 777.15,-29.118 788,-34 814.875,-46.0929 847.865,-61.9716 849.901,-62.9522"/>
</g>
<!-- reaction_3_intermediate_r&#45;&gt;reaction_3 -->
<g id="edge11" class="edge"><title>reaction_3_intermediate_r&#45;&gt;reaction_3</title>
<path fill="none" stroke="black" d="M676.053,-18C677.866,-18 725.792,-18 742.956,-18"/>
</g>
<!-- reaction_3_intermediate_p&#45;&gt;Rec -->
<g id="edge14" class="edge"><title>reaction_3_intermediate_p&#45;&gt;Rec</title>
<path fill="none" stroke="black" d="M849.903,-63.0488C847.917,-64.0484 815.696,-80.1657 788,-88 739.417,-101.742 726.489,-107 676,-107 397,-107 397,-107 397,-107 343.913,-107 282.438,-107 244.381,-107"/>
<polygon fill="black" stroke="black" points="244.295,-103.5 234.295,-107 244.295,-110.5 244.295,-103.5"/>
</g>
<!-- reaction_4 -->
<g id="node27" class="node"><title>reaction_4</title>
<polygon fill="none" stroke="black" points="757,-403 743,-403 743,-389 757,-389 757,-403"/>
</g>
<!-- reaction_4_intermediate_p -->
<g id="node29" class="node"><title>reaction_4_intermediate_p</title>
<ellipse fill="black" stroke="black" cx="851" cy="-396" rx="0.036" ry="0.036"/>
</g>
<!-- reaction_4&#45;&gt;reaction_4_intermediate_p -->
<g id="edge17" class="edge"><title>reaction_4&#45;&gt;reaction_4_intermediate_p</title>
<path fill="none" stroke="black" d="M757.193,-396C778.528,-396 847.789,-396 849.948,-396"/>
</g>
<!-- reaction_4&#45;&gt;reaction_4_intermediate_m -->
<g id="edge19" class="edge"><title>reaction_4&#45;&gt;reaction_4_intermediate_m</title>
<path fill="none" stroke="black" d="M757.193,-397.126C778.528,-401.005 847.789,-413.598 849.948,-413.991"/>
</g>
<!-- reaction_4_intermediate_r&#45;&gt;reaction_4 -->
<g id="edge15" class="edge"><title>reaction_4_intermediate_r&#45;&gt;reaction_4</title>
<path fill="none" stroke="black" d="M676.053,-374.016C677.866,-374.562 725.792,-389.006 742.956,-394.179"/>
</g>
<!-- reaction_4_intermediate_p&#45;&gt;p_IL13_Rec -->
<g id="edge18" class="edge"><title>reaction_4_intermediate_p&#45;&gt;p_IL13_Rec</title>
<path fill="none" stroke="black" d="M852.069,-396C853.568,-396 879.297,-396 903.588,-396"/>
<polygon fill="black" stroke="black" points="903.836,-399.5 913.836,-396 903.836,-392.5 903.836,-399.5"/>
</g>
<!-- reaction_5 -->
<g id="node31" class="node"><title>reaction_5</title>
<polygon fill="none" stroke="black" points="214,-540 200,-540 200,-526 214,-526 214,-540"/>
</g>
<!-- reaction_5_intermediate_p -->
<g id="node33" class="node"><title>reaction_5_intermediate_p</title>
<ellipse fill="black" stroke="black" cx="297" cy="-533" rx="0.036" ry="0.036"/>
</g>
<!-- reaction_5&#45;&gt;reaction_5_intermediate_p -->
<g id="edge23" class="edge"><title>reaction_5&#45;&gt;reaction_5_intermediate_p</title>
<path fill="none" stroke="black" d="M214.049,-533C233.62,-533 294.071,-533 295.955,-533"/>
</g>
<!-- reaction_5&#45;&gt;reaction_5_intermediate_m -->
<g id="edge25" class="edge"><title>reaction_5&#45;&gt;reaction_5_intermediate_m</title>
<path fill="none" stroke="black" d="M209.831,-525.877C215.235,-506.455 233.106,-452.463 270,-429 345.286,-381.121 668.889,-405.61 673.94,-405.995"/>
</g>
<!-- reaction_5_intermediate_r&#45;&gt;reaction_5 -->
<g id="edge21" class="edge"><title>reaction_5_intermediate_r&#45;&gt;reaction_5</title>
<path fill="none" stroke="black" d="M849.944,-598.999C847.605,-598.97 772.282,-598 712,-594 555.172,-583.594 515.72,-581.317 360,-560 302.908,-552.185 234.501,-538.453 214.054,-534.254"/>
</g>
<!-- reaction_5_intermediate_p&#45;&gt;pJAK2 -->
<g id="edge24" class="edge"><title>reaction_5_intermediate_p&#45;&gt;pJAK2</title>
<path fill="none" stroke="black" d="M298.072,-533C300.014,-533 340.944,-533 369.542,-533"/>
<polygon fill="black" stroke="black" points="369.791,-536.5 379.791,-533 369.791,-529.5 369.791,-536.5"/>
</g>
<!-- reaction_6 -->
<g id="node35" class="node"><title>reaction_6</title>
<polygon fill="none" stroke="black" points="955,-574 941,-574 941,-560 955,-560 955,-574"/>
</g>
<!-- reaction_6_intermediate_p -->
<g id="node37" class="node"><title>reaction_6_intermediate_p</title>
<ellipse fill="black" stroke="black" cx="1018" cy="-609" rx="0.036" ry="0.036"/>
</g>
<!-- reaction_6&#45;&gt;reaction_6_intermediate_p -->
<g id="edge30" class="edge"><title>reaction_6&#45;&gt;reaction_6_intermediate_p</title>
<path fill="none" stroke="black" d="M955.275,-570.876C971.583,-580.949 1014.22,-607.284 1016.87,-608.92"/>
</g>
<!-- reaction_6&#45;&gt;reaction_6_intermediate_m -->
<g id="edge32" class="edge"><title>reaction_6&#45;&gt;reaction_6_intermediate_m</title>
<path fill="none" stroke="black" d="M952.851,-559.921C967.011,-533.892 1015.45,-444.843 1016.96,-442.066"/>
</g>
<!-- reaction_6_intermediate_r&#45;&gt;reaction_6 -->
<g id="edge28" class="edge"><title>reaction_6_intermediate_r&#45;&gt;reaction_6</title>
<path fill="none" stroke="black" d="M852.069,-567C854.496,-567 920.41,-567 940.949,-567"/>
</g>
<!-- reaction_6_intermediate_p&#45;&gt;pJAK2 -->
<g id="edge31" class="edge"><title>reaction_6_intermediate_p&#45;&gt;pJAK2</title>
<path fill="none" stroke="black" d="M1016.93,-609.03C1014.21,-610.302 926.489,-651 852,-651 749,-651 749,-651 749,-651 620.151,-651 477.944,-578.303 422.729,-547.03"/>
<polygon fill="black" stroke="black" points="424.161,-543.816 413.746,-541.869 420.674,-549.885 424.161,-543.816"/>
</g>
<!-- reaction_7 -->
<g id="node39" class="node"><title>reaction_7</title>
<polygon fill="none" stroke="black" points="1068,-403 1054,-403 1054,-389 1068,-389 1068,-403"/>
</g>
<!-- reaction_7_intermediate_p -->
<g id="node41" class="node"><title>reaction_7_intermediate_p</title>
<ellipse fill="black" stroke="black" cx="1104" cy="-396" rx="0.036" ry="0.036"/>
</g>
<!-- reaction_7&#45;&gt;reaction_7_intermediate_p -->
<g id="edge37" class="edge"><title>reaction_7&#45;&gt;reaction_7_intermediate_p</title>
<path fill="none" stroke="black" d="M1068.05,-396C1079.1,-396 1101.54,-396 1102.93,-396"/>
</g>
<!-- reaction_7_intermediate_r&#45;&gt;reaction_7 -->
<g id="edge35" class="edge"><title>reaction_7_intermediate_r&#45;&gt;reaction_7</title>
<path fill="none" stroke="black" d="M1019.12,-396C1020.92,-396 1043.02,-396 1053.95,-396"/>
</g>
<!-- reaction_7_intermediate_p&#45;&gt;p_IL13_Rec_i -->
<g id="edge38" class="edge"><title>reaction_7_intermediate_p&#45;&gt;p_IL13_Rec_i</title>
<path fill="none" stroke="black" d="M1105.05,-396C1105.89,-396 1116.63,-396 1129.57,-396"/>
<polygon fill="black" stroke="black" points="1129.77,-399.5 1139.77,-396 1129.77,-392.5 1129.77,-399.5"/>
</g>
<!-- reaction_8 -->
<g id="node42" class="node"><title>reaction_8</title>
<polygon fill="none" stroke="black" points="1302,-403 1288,-403 1288,-389 1302,-389 1302,-403"/>
</g>
<!-- reaction_8_empty -->
<g id="node44" class="node"><title>reaction_8_empty</title>
<text text-anchor="middle" x="1365" y="-392.5" font-family="Times,serif" font-size="15.00" fill="blue">Ø</text>
</g>
<!-- reaction_8&#45;&gt;reaction_8_empty -->
<g id="edge41" class="edge"><title>reaction_8&#45;&gt;reaction_8_empty</title>
<path fill="none" stroke="black" d="M1302.28,-396C1308.28,-396 1317.85,-396 1327.68,-396"/>
<polygon fill="black" stroke="black" points="1327.88,-399.5 1337.88,-396 1327.88,-392.5 1327.88,-399.5"/>
</g>
<!-- reaction_8_intermediate_r&#45;&gt;reaction_8 -->
<g id="edge39" class="edge"><title>reaction_8_intermediate_r&#45;&gt;reaction_8</title>
<path fill="none" stroke="black" d="M1253.12,-396C1254.92,-396 1277.02,-396 1287.95,-396"/>
</g>
<!-- reaction_9 -->
<g id="node45" class="node"><title>reaction_9</title>
<polygon fill="none" stroke="black" points="607,-540 593,-540 593,-526 607,-526 607,-540"/>
</g>
<!-- reaction_9_intermediate_p -->
<g id="node47" class="node"><title>reaction_9_intermediate_p</title>
<ellipse fill="black" stroke="black" cx="675" cy="-539" rx="0.036" ry="0.036"/>
</g>
<!-- reaction_9&#45;&gt;reaction_9_intermediate_p -->
<g id="edge44" class="edge"><title>reaction_9&#45;&gt;reaction_9_intermediate_p</title>
<path fill="none" stroke="black" d="M607.224,-533.512C624.326,-534.917 670.961,-538.75 673.859,-538.988"/>
</g>
<!-- reaction_9&#45;&gt;reaction_9_intermediate_m -->
<g id="edge46" class="edge"><title>reaction_9&#45;&gt;reaction_9_intermediate_m</title>
<path fill="none" stroke="black" d="M607.224,-536.41C624.326,-545.781 670.961,-571.335 673.859,-572.922"/>
</g>
<!-- reaction_9_intermediate_r&#45;&gt;reaction_9 -->
<g id="edge42" class="edge"><title>reaction_9_intermediate_r&#45;&gt;reaction_9</title>
<path fill="none" stroke="black" d="M500.072,-533C502.613,-533 571.928,-533 592.989,-533"/>
</g>
<!-- reaction_9_intermediate_p&#45;&gt;JAK2 -->
<g id="edge45" class="edge"><title>reaction_9_intermediate_p&#45;&gt;JAK2</title>
<path fill="none" stroke="black" d="M676.053,-539.02C677.153,-539.442 695.226,-546.374 713.105,-553.232"/>
<polygon fill="black" stroke="black" points="712.319,-556.679 722.909,-556.993 714.826,-550.144 712.319,-556.679"/>
</g>
<!-- reaction_10 -->
<g id="node49" class="node"><title>reaction_10</title>
<polygon fill="none" stroke="black" points="405,-323 391,-323 391,-309 405,-309 405,-323"/>
</g>
<!-- reaction_10_intermediate_p -->
<g id="node51" class="node"><title>reaction_10_intermediate_p</title>
<ellipse fill="black" stroke="black" cx="499" cy="-297" rx="0.036" ry="0.036"/>
</g>
<!-- reaction_10&#45;&gt;reaction_10_intermediate_p -->
<g id="edge50" class="edge"><title>reaction_10&#45;&gt;reaction_10_intermediate_p</title>
<path fill="none" stroke="black" d="M405.193,-314.811C426.528,-310.717 495.789,-297.424 497.948,-297.01"/>
</g>
<!-- reaction_10&#45;&gt;reaction_10_intermediate_m -->
<g id="edge52" class="edge"><title>reaction_10&#45;&gt;reaction_10_intermediate_m</title>
<path fill="none" stroke="black" d="M401.141,-323.222C407.873,-344.699 430.655,-408.794 472,-443 481.127,-450.551 496.971,-451.918 497.952,-451.996"/>
</g>
<!-- reaction_10_intermediate_r&#45;&gt;reaction_10 -->
<g id="edge48" class="edge"><title>reaction_10_intermediate_r&#45;&gt;reaction_10</title>
<path fill="none" stroke="black" d="M298.072,-318.998C300.613,-318.921 369.928,-316.82 390.989,-316.182"/>
</g>
<!-- reaction_10_intermediate_p&#45;&gt;pSTAT5 -->
<g id="edge51" class="edge"><title>reaction_10_intermediate_p&#45;&gt;pSTAT5</title>
<path fill="none" stroke="black" d="M500.072,-296.979C501.813,-296.469 534.925,-286.769 562.367,-278.731"/>
<polygon fill="black" stroke="black" points="563.539,-282.035 572.152,-275.865 561.571,-275.317 563.539,-282.035"/>
</g>
<!-- reaction_11 -->
<g id="node53" class="node"><title>reaction_11</title>
<polygon fill="none" stroke="black" points="34,-331 20,-331 20,-317 34,-317 34,-331"/>
</g>
<!-- reaction_11_intermediate_p -->
<g id="node55" class="node"><title>reaction_11_intermediate_p</title>
<ellipse fill="black" stroke="black" cx="117" cy="-324" rx="0.036" ry="0.036"/>
</g>
<!-- reaction_11&#45;&gt;reaction_11_intermediate_p -->
<g id="edge56" class="edge"><title>reaction_11&#45;&gt;reaction_11_intermediate_p</title>
<path fill="none" stroke="black" d="M34.0486,-324C53.6196,-324 114.071,-324 115.955,-324"/>
</g>
<!-- reaction_11&#45;&gt;reaction_11_intermediate_m -->
<g id="edge58" class="edge"><title>reaction_11&#45;&gt;reaction_11_intermediate_m</title>
<path fill="none" stroke="black" d="M31.132,-331.083C46.5633,-365.978 113.851,-518.14 115.95,-522.886"/>
</g>
<!-- reaction_11_intermediate_r&#45;&gt;reaction_11 -->
<g id="edge54" class="edge"><title>reaction_11_intermediate_r&#45;&gt;reaction_11</title>
<path fill="none" stroke="black" d="M673.945,-203.966C672.806,-203.278 654.341,-192.175 638,-187 578.651,-168.206 562.254,-163 500,-163 206,-163 206,-163 206,-163 113.079,-163 46.9767,-285.167 31.4787,-316.664"/>
</g>
<!-- reaction_11_intermediate_p&#45;&gt;STAT5 -->
<g id="edge57" class="edge"><title>reaction_11_intermediate_p&#45;&gt;STAT5</title>
<path fill="none" stroke="black" d="M118.064,-324C119.533,-324 146.103,-324 169.654,-324"/>
<polygon fill="black" stroke="black" points="169.821,-327.5 179.82,-324 169.82,-320.5 169.821,-327.5"/>
</g>
<!-- reaction_12 -->
<g id="node57" class="node"><title>reaction_12</title>
<polygon fill="none" stroke="black" points="405,-291 391,-291 391,-277 405,-277 405,-291"/>
</g>
<!-- reaction_12_intermediate_p -->
<g id="node59" class="node"><title>reaction_12_intermediate_p</title>
<ellipse fill="black" stroke="black" cx="499" cy="-278" rx="0.036" ry="0.036"/>
</g>
<!-- reaction_12&#45;&gt;reaction_12_intermediate_p -->
<g id="edge62" class="edge"><title>reaction_12&#45;&gt;reaction_12_intermediate_p</title>
<path fill="none" stroke="black" d="M405.193,-283.625C426.528,-282.332 495.789,-278.134 497.948,-278.003"/>
</g>
<!-- reaction_12&#45;&gt;reaction_12_intermediate_m -->
<g id="edge64" class="edge"><title>reaction_12&#45;&gt;reaction_12_intermediate_m</title>
<path fill="none" stroke="black" d="M405.193,-282.374C426.528,-276.77 495.789,-258.581 497.948,-258.014"/>
</g>
<!-- reaction_12_intermediate_r&#45;&gt;reaction_12 -->
<g id="edge60" class="edge"><title>reaction_12_intermediate_r&#45;&gt;reaction_12</title>
<path fill="none" stroke="black" d="M298.072,-273.008C300.613,-273.29 369.928,-280.992 390.989,-283.332"/>
</g>
<!-- reaction_12_intermediate_p&#45;&gt;IL13_DecoyR -->
<g id="edge63" class="edge"><title>reaction_12_intermediate_p&#45;&gt;IL13_DecoyR</title>
<path fill="none" stroke="black" d="M500.172,-277.944C501.868,-277.391 515.758,-272.785 526,-267 527.143,-266.354 547.134,-251.832 565.905,-238.153"/>
<polygon fill="black" stroke="black" points="568.074,-240.903 574.093,-232.184 563.951,-235.247 568.074,-240.903"/>
</g>
<!-- reaction_13 -->
<g id="node61" class="node"><title>reaction_13</title>
<polygon fill="none" stroke="black" points="214,-407 200,-407 200,-393 214,-393 214,-407"/>
</g>
<!-- reaction_13_intermediate_p -->
<g id="node63" class="node"><title>reaction_13_intermediate_p</title>
<ellipse fill="black" stroke="black" cx="297" cy="-438" rx="0.036" ry="0.036"/>
</g>
<!-- reaction_13&#45;&gt;reaction_13_intermediate_p -->
<g id="edge67" class="edge"><title>reaction_13&#45;&gt;reaction_13_intermediate_p</title>
<path fill="none" stroke="black" d="M214.049,-402.612C233.62,-411.063 294.071,-437.167 295.955,-437.981"/>
</g>
<!-- reaction_13&#45;&gt;reaction_13_intermediate_m -->
<g id="edge69" class="edge"><title>reaction_13&#45;&gt;reaction_13_intermediate_m</title>
<path fill="none" stroke="black" d="M214.235,-398.542C269.101,-385.708 667.702,-292.473 673.926,-291.017"/>
</g>
<!-- reaction_13_empty -->
<g id="node62" class="node"><title>reaction_13_empty</title>
<text text-anchor="middle" x="117" y="-396.5" font-family="Times,serif" font-size="15.00" fill="blue">Ø</text>
</g>
<!-- reaction_13_empty&#45;&gt;reaction_13 -->
<g id="edge66" class="edge"><title>reaction_13_empty&#45;&gt;reaction_13</title>
<path fill="none" stroke="black" d="M144.403,-400C163.641,-400 188.253,-400 199.665,-400"/>
</g>
<!-- reaction_13_intermediate_p&#45;&gt;SOCS3mRNA -->
<g id="edge68" class="edge"><title>reaction_13_intermediate_p&#45;&gt;SOCS3mRNA</title>
<path fill="none" stroke="black" d="M298.072,-438.007C299.595,-438.145 325.112,-440.465 349.846,-442.713"/>
<polygon fill="black" stroke="black" points="349.684,-446.213 359.96,-443.633 350.318,-439.242 349.684,-446.213"/>
</g>
<!-- reaction_14 -->
<g id="node65" class="node"><title>reaction_14</title>
<polygon fill="none" stroke="black" points="405,-497 391,-497 391,-483 405,-483 405,-497"/>
</g>
<!-- reaction_14_intermediate_p -->
<g id="node67" class="node"><title>reaction_14_intermediate_p</title>
<ellipse fill="black" stroke="black" cx="499" cy="-470" rx="0.036" ry="0.036"/>
</g>
<!-- reaction_14&#45;&gt;reaction_14_intermediate_p -->
<g id="edge72" class="edge"><title>reaction_14&#45;&gt;reaction_14_intermediate_p</title>
<path fill="none" stroke="black" d="M405.193,-488.749C426.528,-484.439 495.789,-470.447 497.948,-470.01"/>
</g>
<!-- reaction_14&#45;&gt;reaction_14_intermediate_m -->
<g id="edge74" class="edge"><title>reaction_14&#45;&gt;reaction_14_intermediate_m</title>
<path fill="none" stroke="black" d="M405.042,-488.026C412.603,-485.416 425.798,-480.389 436,-474 453.895,-462.793 453.698,-453.529 472,-443 482.268,-437.093 497.042,-434.184 497.955,-434.009"/>
</g>
<!-- reaction_14_empty -->
<g id="node66" class="node"><title>reaction_14_empty</title>
<text text-anchor="middle" x="297" y="-486.5" font-family="Times,serif" font-size="15.00" fill="blue">Ø</text>
</g>
<!-- reaction_14_empty&#45;&gt;reaction_14 -->
<g id="edge71" class="edge"><title>reaction_14_empty&#45;&gt;reaction_14</title>
<path fill="none" stroke="black" d="M324.011,-490C346.698,-490 377.953,-490 390.952,-490"/>
</g>
<!-- reaction_14_intermediate_p&#45;&gt;SOCS3 -->
<g id="edge73" class="edge"><title>reaction_14_intermediate_p&#45;&gt;SOCS3</title>
<path fill="none" stroke="black" d="M500.072,-469.987C501.821,-469.669 535.227,-463.595 562.742,-458.592"/>
<polygon fill="black" stroke="black" points="563.708,-461.974 572.92,-456.742 562.455,-455.087 563.708,-461.974"/>
</g>
<!-- reaction_15 -->
<g id="node69" class="node"><title>reaction_15</title>
<polygon fill="none" stroke="black" points="757,-531 743,-531 743,-517 757,-517 757,-531"/>
</g>
<!-- reaction_15_empty -->
<g id="node71" class="node"><title>reaction_15_empty</title>
<text text-anchor="middle" x="851" y="-520.5" font-family="Times,serif" font-size="15.00" fill="blue">Ø</text>
</g>
<!-- reaction_15&#45;&gt;reaction_15_empty -->
<g id="edge78" class="edge"><title>reaction_15&#45;&gt;reaction_15_empty</title>
<path fill="none" stroke="black" d="M757.193,-524C768.346,-524 792.599,-524 813.514,-524"/>
<polygon fill="black" stroke="black" points="813.75,-527.5 823.75,-524 813.75,-520.5 813.75,-527.5"/>
</g>
<!-- reaction_15_intermediate_r&#45;&gt;reaction_15 -->
<g id="edge76" class="edge"><title>reaction_15_intermediate_r&#45;&gt;reaction_15</title>
<path fill="none" stroke="black" d="M676.053,-470.039C677.866,-471.38 725.792,-506.832 742.956,-519.529"/>
</g>
<!-- reaction_16 -->
<g id="node72" class="node"><title>reaction_16</title>
<polygon fill="none" stroke="black" points="607,-68 593,-68 593,-54 607,-54 607,-68"/>
</g>
<!-- reaction_16_intermediate_p -->
<g id="node74" class="node"><title>reaction_16_intermediate_p</title>
<ellipse fill="black" stroke="black" cx="675" cy="-61" rx="0.036" ry="0.036"/>
</g>
<!-- reaction_16&#45;&gt;reaction_16_intermediate_p -->
<g id="edge80" class="edge"><title>reaction_16&#45;&gt;reaction_16_intermediate_p</title>
<path fill="none" stroke="black" d="M607.224,-61C624.326,-61 670.961,-61 673.859,-61"/>
</g>
<!-- reaction_16&#45;&gt;reaction_16_intermediate_m -->
<g id="edge82" class="edge"><title>reaction_16&#45;&gt;reaction_16_intermediate_m</title>
<path fill="none" stroke="black" d="M606.25,-68.1918C622.727,-90.7626 672.414,-158.828 673.963,-160.949"/>
</g>
<!-- reaction_16_empty -->
<g id="node73" class="node"><title>reaction_16_empty</title>
<text text-anchor="middle" x="499" y="-57.5" font-family="Times,serif" font-size="15.00" fill="blue">Ø</text>
</g>
<!-- reaction_16_empty&#45;&gt;reaction_16 -->
<g id="edge79" class="edge"><title>reaction_16_empty&#45;&gt;reaction_16</title>
<path fill="none" stroke="black" d="M526.011,-61C548.698,-61 579.953,-61 592.952,-61"/>
</g>
<!-- reaction_16_intermediate_p&#45;&gt;CD274mRNA -->
<g id="edge81" class="edge"><title>reaction_16_intermediate_p&#45;&gt;CD274mRNA</title>
<path fill="none" stroke="black" d="M676.053,-61C676.915,-61 688.187,-61 701.623,-61"/>
<polygon fill="black" stroke="black" points="701.671,-64.5001 711.671,-61 701.671,-57.5001 701.671,-64.5001"/>
</g>
</g>
</svg>
