<?xml version="1.0" encoding="UTF-8" standalone="no"?>
<!DOCTYPE svg PUBLIC "-//W3C//DTD SVG 1.1//EN"
 "http://www.w3.org/Graphics/SVG/1.1/DTD/svg11.dtd">
<!-- Generated by graphviz version 2.24.0 (20090616.2323)
 -->
<!-- Title: G Pages: 1 -->
<svg width="2344pt" height="493pt"
 viewBox="0.00 0.00 2344.00 493.00" xmlns="http://www.w3.org/2000/svg" xmlns:xlink="http://www.w3.org/1999/xlink">
<g id="graph1" class="graph" transform="scale(1 1) rotate(0) translate(4 489)">
<title>G</title>
<polygon fill="white" stroke="white" points="-4,5 -4,-489 2341,-489 2341,5 -4,5"/>
<!-- P0 -->
<g id="node1" class="node"><title>P0</title>
<polyline fill="none" stroke="black" points="559,-421 407,-421 "/>
<path fill="none" stroke="black" d="M407,-421C401,-421 395,-415 395,-409"/>
<polyline fill="none" stroke="black" points="395,-409 395,-397 "/>
<path fill="none" stroke="black" d="M395,-397C395,-391 401,-385 407,-385"/>
<polyline fill="none" stroke="black" points="407,-385 559,-385 "/>
<path fill="none" stroke="black" d="M559,-385C565,-385 571,-391 571,-397"/>
<polyline fill="none" stroke="black" points="571,-397 571,-409 "/>
<path fill="none" stroke="black" d="M571,-409C571,-415 565,-421 559,-421"/>
<text text-anchor="middle" x="483" y="-400.5" font-family="Times Roman,serif" font-size="10.00">PER Protein (unphosphorylated)</text>
</g>
<!-- P0_to_P1_intermediate_r -->
<g id="node12" class="node"><title>P0_to_P1_intermediate_r</title>
<ellipse fill="black" stroke="black" cx="635" cy="-386" rx="0.036" ry="0.036"/>
</g>
<!-- P0&#45;&gt;P0_to_P1_intermediate_r -->
<g id="edge4" class="edge"><title>P0&#45;&gt;P0_to_P1_intermediate_r</title>
<path fill="none" stroke="black" d="M571.859,-393.062C604.082,-389.458 633.129,-386.209 634.913,-386.01"/>
</g>
<!-- P0_degradation_intermediate_r -->
<g id="node68" class="node"><title>P0_degradation_intermediate_r</title>
<ellipse fill="black" stroke="black" cx="635" cy="-455" rx="0.036" ry="0.036"/>
</g>
<!-- P0&#45;&gt;P0_degradation_intermediate_r -->
<g id="edge68" class="edge"><title>P0&#45;&gt;P0_degradation_intermediate_r</title>
<path fill="none" stroke="black" d="M535.736,-421.041C578.265,-435.591 631.551,-453.82 634.84,-454.945"/>
</g>
<!-- T0 -->
<g id="node2" class="node"><title>T0</title>
<polyline fill="none" stroke="black" points="558,-159 408,-159 "/>
<path fill="none" stroke="black" d="M408,-159C402,-159 396,-153 396,-147"/>
<polyline fill="none" stroke="black" points="396,-147 396,-135 "/>
<path fill="none" stroke="black" d="M396,-135C396,-129 402,-123 408,-123"/>
<polyline fill="none" stroke="black" points="408,-123 558,-123 "/>
<path fill="none" stroke="black" d="M558,-123C564,-123 570,-129 570,-135"/>
<polyline fill="none" stroke="black" points="570,-135 570,-147 "/>
<path fill="none" stroke="black" d="M570,-147C570,-153 564,-159 558,-159"/>
<text text-anchor="middle" x="483" y="-138.5" font-family="Times Roman,serif" font-size="10.00">TIM Protein (unphosphorylated)</text>
</g>
<!-- T0_to_T1_intermediate_r -->
<g id="node19" class="node"><title>T0_to_T1_intermediate_r</title>
<ellipse fill="black" stroke="black" cx="635" cy="-114" rx="0.036" ry="0.036"/>
</g>
<!-- T0&#45;&gt;T0_to_T1_intermediate_r -->
<g id="edge12" class="edge"><title>T0&#45;&gt;T0_to_T1_intermediate_r</title>
<path fill="none" stroke="black" d="M570.097,-125.529C602.998,-119.685 633.063,-114.344 634.91,-114.016"/>
</g>
<!-- T0_degradation_intermediate_r -->
<g id="node74" class="node"><title>T0_degradation_intermediate_r</title>
<ellipse fill="black" stroke="black" cx="635" cy="-181" rx="0.036" ry="0.036"/>
</g>
<!-- T0&#45;&gt;T0_degradation_intermediate_r -->
<g id="edge74" class="edge"><title>T0&#45;&gt;T0_degradation_intermediate_r</title>
<path fill="none" stroke="black" d="M551.441,-159.011C590.525,-169.296 632.302,-180.29 634.875,-180.967"/>
</g>
<!-- P1 -->
<g id="node3" class="node"><title>P1</title>
<polyline fill="none" stroke="black" points="1023,-369 851,-369 "/>
<path fill="none" stroke="black" d="M851,-369C845,-369 839,-363 839,-357"/>
<polyline fill="none" stroke="black" points="839,-357 839,-345 "/>
<path fill="none" stroke="black" d="M839,-345C839,-339 845,-333 851,-333"/>
<polyline fill="none" stroke="black" points="851,-333 1023,-333 "/>
<path fill="none" stroke="black" d="M1023,-333C1029,-333 1035,-339 1035,-345"/>
<polyline fill="none" stroke="black" points="1035,-345 1035,-357 "/>
<path fill="none" stroke="black" d="M1035,-357C1035,-363 1029,-369 1023,-369"/>
<text text-anchor="middle" x="937" y="-348.5" font-family="Times Roman,serif" font-size="10.00">PER Protein (mono&#45;phosphorylated)</text>
</g>
<!-- P1_to_P0_intermediate_r -->
<g id="node26" class="node"><title>P1_to_P0_intermediate_r</title>
<ellipse fill="black" stroke="black" cx="1073" cy="-383" rx="0.036" ry="0.036"/>
</g>
<!-- P1&#45;&gt;P1_to_P0_intermediate_r -->
<g id="edge20" class="edge"><title>P1&#45;&gt;P1_to_P0_intermediate_r</title>
<path fill="none" stroke="black" d="M1013.74,-369.057C1043.63,-376.089 1071.22,-382.582 1072.92,-382.981"/>
</g>
<!-- P1_to_P2_intermediate_r -->
<g id="node40" class="node"><title>P1_to_P2_intermediate_r</title>
<ellipse fill="black" stroke="black" cx="1073" cy="-292" rx="0.036" ry="0.036"/>
</g>
<!-- P1&#45;&gt;P1_to_P2_intermediate_r -->
<g id="edge36" class="edge"><title>P1&#45;&gt;P1_to_P2_intermediate_r</title>
<path fill="none" stroke="black" d="M978.543,-332.977C1017.29,-316.169 1069.61,-293.471 1072.84,-292.068"/>
</g>
<!-- P1_degradation_intermediate_r -->
<g id="node80" class="node"><title>P1_degradation_intermediate_r</title>
<ellipse fill="black" stroke="black" cx="1073" cy="-320" rx="0.036" ry="0.036"/>
</g>
<!-- P1&#45;&gt;P1_degradation_intermediate_r -->
<g id="edge80" class="edge"><title>P1&#45;&gt;P1_degradation_intermediate_r</title>
<path fill="none" stroke="black" d="M1016.11,-332.967C1045.1,-326.361 1071.31,-320.385 1072.92,-320.018"/>
</g>
<!-- T1 -->
<g id="node4" class="node"><title>T1</title>
<polyline fill="none" stroke="black" points="1022,-120 852,-120 "/>
<path fill="none" stroke="black" d="M852,-120C846,-120 840,-114 840,-108"/>
<polyline fill="none" stroke="black" points="840,-108 840,-96 "/>
<path fill="none" stroke="black" d="M840,-96C840,-90 846,-84 852,-84"/>
<polyline fill="none" stroke="black" points="852,-84 1022,-84 "/>
<path fill="none" stroke="black" d="M1022,-84C1028,-84 1034,-90 1034,-96"/>
<polyline fill="none" stroke="black" points="1034,-96 1034,-108 "/>
<path fill="none" stroke="black" d="M1034,-108C1034,-114 1028,-120 1022,-120"/>
<text text-anchor="middle" x="937" y="-99.5" font-family="Times Roman,serif" font-size="10.00">TIM Protein (mono&#45;phosphorylated)</text>
</g>
<!-- T1_to_T0_intermediate_r -->
<g id="node33" class="node"><title>T1_to_T0_intermediate_r</title>
<ellipse fill="black" stroke="black" cx="1073" cy="-134" rx="0.036" ry="0.036"/>
</g>
<!-- T1&#45;&gt;T1_to_T0_intermediate_r -->
<g id="edge28" class="edge"><title>T1&#45;&gt;T1_to_T0_intermediate_r</title>
<path fill="none" stroke="black" d="M1013.74,-120.057C1043.63,-127.089 1071.22,-133.582 1072.92,-133.981"/>
</g>
<!-- T1_to_T2_intermediate_r -->
<g id="node47" class="node"><title>T1_to_T2_intermediate_r</title>
<ellipse fill="black" stroke="black" cx="1073" cy="-43" rx="0.036" ry="0.036"/>
</g>
<!-- T1&#45;&gt;T1_to_T2_intermediate_r -->
<g id="edge44" class="edge"><title>T1&#45;&gt;T1_to_T2_intermediate_r</title>
<path fill="none" stroke="black" d="M978.543,-83.9775C1017.29,-67.1689 1069.61,-44.4705 1072.84,-43.0683"/>
</g>
<!-- T1_degradation_intermediate_r -->
<g id="node86" class="node"><title>T1_degradation_intermediate_r</title>
<ellipse fill="black" stroke="black" cx="1073" cy="-71" rx="0.036" ry="0.036"/>
</g>
<!-- T1&#45;&gt;T1_degradation_intermediate_r -->
<g id="edge86" class="edge"><title>T1&#45;&gt;T1_degradation_intermediate_r</title>
<path fill="none" stroke="black" d="M1016.11,-83.9672C1045.1,-77.3605 1071.31,-71.3849 1072.92,-71.0178"/>
</g>
<!-- P2 -->
<g id="node5" class="node"><title>P2</title>
<polyline fill="none" stroke="black" points="1415,-302 1263,-302 "/>
<path fill="none" stroke="black" d="M1263,-302C1257,-302 1251,-296 1251,-290"/>
<polyline fill="none" stroke="black" points="1251,-290 1251,-278 "/>
<path fill="none" stroke="black" d="M1251,-278C1251,-272 1257,-266 1263,-266"/>
<polyline fill="none" stroke="black" points="1263,-266 1415,-266 "/>
<path fill="none" stroke="black" d="M1415,-266C1421,-266 1427,-272 1427,-278"/>
<polyline fill="none" stroke="black" points="1427,-278 1427,-290 "/>
<path fill="none" stroke="black" d="M1427,-290C1427,-296 1421,-302 1415,-302"/>
<text text-anchor="middle" x="1339" y="-281.5" font-family="Times Roman,serif" font-size="10.00">PER Protein (bi&#45;phosphorylated)</text>
</g>
<!-- P2_to_P1_intermediate_r -->
<g id="node54" class="node"><title>P2_to_P1_intermediate_r</title>
<ellipse fill="black" stroke="black" cx="1465" cy="-309" rx="0.036" ry="0.036"/>
</g>
<!-- P2&#45;&gt;P2_to_P1_intermediate_r -->
<g id="edge52" class="edge"><title>P2&#45;&gt;P2_to_P1_intermediate_r</title>
<path fill="none" stroke="black" d="M1427.54,-301.567C1447.89,-305.606 1463.97,-308.795 1464.95,-308.991"/>
</g>
<!-- P2_degradation_intermediate_r -->
<g id="node92" class="node"><title>P2_degradation_intermediate_r</title>
<ellipse fill="black" stroke="black" cx="1465" cy="-284" rx="0.036" ry="0.036"/>
</g>
<!-- P2&#45;&gt;P2_degradation_intermediate_r -->
<g id="edge92" class="edge"><title>P2&#45;&gt;P2_degradation_intermediate_r</title>
<path fill="none" stroke="black" d="M1427.54,-284C1447.89,-284 1463.97,-284 1464.95,-284"/>
</g>
<!-- PT_complex_formation_intermediate_r -->
<g id="node104" class="node"><title>PT_complex_formation_intermediate_r</title>
<ellipse fill="black" stroke="black" cx="1465" cy="-169" rx="0.036" ry="0.036"/>
</g>
<!-- P2&#45;&gt;PT_complex_formation_intermediate_r -->
<g id="edge104" class="edge"><title>P2&#45;&gt;PT_complex_formation_intermediate_r</title>
<path fill="none" stroke="black" d="M1366.35,-259.036C1402.79,-225.778 1462.95,-170.873 1464.95,-169.047"/>
<polygon fill="black" stroke="black" points="1363.99,-256.451 1358.97,-265.778 1368.71,-261.622 1363.99,-256.451"/>
</g>
<!-- T2 -->
<g id="node6" class="node"><title>T2</title>
<polyline fill="none" stroke="black" points="1414,-72 1264,-72 "/>
<path fill="none" stroke="black" d="M1264,-72C1258,-72 1252,-66 1252,-60"/>
<polyline fill="none" stroke="black" points="1252,-60 1252,-48 "/>
<path fill="none" stroke="black" d="M1252,-48C1252,-42 1258,-36 1264,-36"/>
<polyline fill="none" stroke="black" points="1264,-36 1414,-36 "/>
<path fill="none" stroke="black" d="M1414,-36C1420,-36 1426,-42 1426,-48"/>
<polyline fill="none" stroke="black" points="1426,-48 1426,-60 "/>
<path fill="none" stroke="black" d="M1426,-60C1426,-66 1420,-72 1414,-72"/>
<text text-anchor="middle" x="1339" y="-51.5" font-family="Times Roman,serif" font-size="10.00">TIM Protein (bi&#45;phosphorylated)</text>
</g>
<!-- T2_to_T1_intermediate_r -->
<g id="node61" class="node"><title>T2_to_T1_intermediate_r</title>
<ellipse fill="black" stroke="black" cx="1465" cy="-72" rx="0.036" ry="0.036"/>
</g>
<!-- T2&#45;&gt;T2_to_T1_intermediate_r -->
<g id="edge60" class="edge"><title>T2&#45;&gt;T2_to_T1_intermediate_r</title>
<path fill="none" stroke="black" d="M1426.17,-66.4525C1447.15,-69.4505 1463.92,-71.8461 1464.95,-71.9929"/>
</g>
<!-- T2_degradation_intermediate_r -->
<g id="node98" class="node"><title>T2_degradation_intermediate_r</title>
<ellipse fill="black" stroke="black" cx="1465" cy="-47" rx="0.036" ry="0.036"/>
</g>
<!-- T2&#45;&gt;T2_degradation_intermediate_r -->
<g id="edge98" class="edge"><title>T2&#45;&gt;T2_degradation_intermediate_r</title>
<path fill="none" stroke="black" d="M1426.17,-49.1573C1447.15,-47.9915 1463.92,-47.0599 1464.95,-47.0028"/>
</g>
<!-- T2&#45;&gt;PT_complex_formation_intermediate_r -->
<g id="edge106" class="edge"><title>T2&#45;&gt;PT_complex_formation_intermediate_r</title>
<path fill="none" stroke="black" d="M1366.35,-78.9635C1402.79,-112.222 1462.95,-167.127 1464.95,-168.953"/>
<polygon fill="black" stroke="black" points="1368.71,-76.3783 1358.97,-72.2221 1363.99,-81.5486 1368.71,-76.3783"/>
</g>
<!-- CC -->
<g id="node7" class="node"><title>CC</title>
<polyline fill="none" stroke="black" points="1785,-187 1655,-187 "/>
<path fill="none" stroke="black" d="M1655,-187C1649,-187 1643,-181 1643,-175"/>
<polyline fill="none" stroke="black" points="1643,-175 1643,-163 "/>
<path fill="none" stroke="black" d="M1643,-163C1643,-157 1649,-151 1655,-151"/>
<polyline fill="none" stroke="black" points="1655,-151 1785,-151 "/>
<path fill="none" stroke="black" d="M1785,-151C1791,-151 1797,-157 1797,-163"/>
<polyline fill="none" stroke="black" points="1797,-163 1797,-175 "/>
<path fill="none" stroke="black" d="M1797,-175C1797,-181 1791,-187 1785,-187"/>
<text text-anchor="middle" x="1720" y="-166.5" font-family="Times Roman,serif" font-size="10.00">Cytosolic PER&#45;TIM Complex</text>
</g>
<!-- PT_complex_nucleation_intermediate_r -->
<g id="node112" class="node"><title>PT_complex_nucleation_intermediate_r</title>
<ellipse fill="black" stroke="black" cx="1835" cy="-152" rx="0.036" ry="0.036"/>
</g>
<!-- CC&#45;&gt;PT_complex_nucleation_intermediate_r -->
<g id="edge114" class="edge"><title>CC&#45;&gt;PT_complex_nucleation_intermediate_r</title>
<path fill="none" stroke="black" d="M1807.59,-156.052C1822.82,-153.801 1834.13,-152.129 1834.95,-152.007"/>
<polygon fill="black" stroke="black" points="1807.04,-152.595 1797.66,-157.519 1808.07,-159.519 1807.04,-152.595"/>
</g>
<!-- PT_complex_degradation_intermediate_r -->
<g id="node119" class="node"><title>PT_complex_degradation_intermediate_r</title>
<ellipse fill="black" stroke="black" cx="1835" cy="-178" rx="0.036" ry="0.036"/>
</g>
<!-- CC&#45;&gt;PT_complex_degradation_intermediate_r -->
<g id="edge122" class="edge"><title>CC&#45;&gt;PT_complex_degradation_intermediate_r</title>
<path fill="none" stroke="black" d="M1797.66,-175.078C1817.67,-176.644 1833.95,-177.918 1834.95,-177.996"/>
</g>
<!-- Cn -->
<g id="node8" class="node"><title>Cn</title>
<polyline fill="none" stroke="black" points="2147,-164 2025,-164 "/>
<path fill="none" stroke="black" d="M2025,-164C2019,-164 2013,-158 2013,-152"/>
<polyline fill="none" stroke="black" points="2013,-152 2013,-140 "/>
<path fill="none" stroke="black" d="M2013,-140C2013,-134 2019,-128 2025,-128"/>
<polyline fill="none" stroke="black" points="2025,-128 2147,-128 "/>
<path fill="none" stroke="black" d="M2147,-128C2153,-128 2159,-134 2159,-140"/>
<polyline fill="none" stroke="black" points="2159,-140 2159,-152 "/>
<path fill="none" stroke="black" d="M2159,-152C2159,-158 2153,-164 2147,-164"/>
<text text-anchor="middle" x="2086" y="-143.5" font-family="Times Roman,serif" font-size="10.00">Nuclear PER&#45;TIM Complex</text>
</g>
<!-- PTnucl_complex_degradation_intermediate_r -->
<g id="node125" class="node"><title>PTnucl_complex_degradation_intermediate_r</title>
<ellipse fill="black" stroke="black" cx="2196" cy="-146" rx="0.036" ry="0.036"/>
</g>
<!-- Cn&#45;&gt;PTnucl_complex_degradation_intermediate_r -->
<g id="edge128" class="edge"><title>Cn&#45;&gt;PTnucl_complex_degradation_intermediate_r</title>
<path fill="none" stroke="black" d="M2159.68,-146C2179.09,-146 2194.98,-146 2195.95,-146"/>
</g>
<!-- Mp_production_intermediate_m -->
<g id="node136" class="node"><title>Mp_production_intermediate_m</title>
<ellipse fill="black" stroke="black" cx="2196" cy="-202" rx="0.036" ry="0.036"/>
</g>
<!-- Cn&#45;&gt;Mp_production_intermediate_m -->
<g id="edge140" class="edge"><title>Cn&#45;&gt;Mp_production_intermediate_m</title>
<path fill="none" stroke="black" d="M2121.41,-164.027C2152.56,-179.886 2193.36,-200.655 2195.88,-201.938"/>
</g>
<!-- Mt_production_intermediate_m -->
<g id="node145" class="node"><title>Mt_production_intermediate_m</title>
<ellipse fill="black" stroke="black" cx="2196" cy="-66" rx="0.036" ry="0.036"/>
</g>
<!-- Cn&#45;&gt;Mt_production_intermediate_m -->
<g id="edge150" class="edge"><title>Cn&#45;&gt;Mt_production_intermediate_m</title>
<path fill="none" stroke="black" d="M2110.96,-127.847C2142.4,-104.981 2192.73,-68.3759 2195.85,-66.1104"/>
</g>
<!-- Mp -->
<g id="node9" class="node"><title>Mp</title>
<ellipse fill="none" stroke="black" cx="275" cy="-313" rx="43.8243" ry="18"/>
<text text-anchor="middle" x="275" y="-310.5" font-family="Times Roman,serif" font-size="10.00">PER mRNA</text>
</g>
<!-- P0_production_intermediate_m -->
<g id="node154" class="node"><title>P0_production_intermediate_m</title>
<ellipse fill="black" stroke="black" cx="357" cy="-363" rx="0.036" ry="0.036"/>
</g>
<!-- Mp&#45;&gt;P0_production_intermediate_m -->
<g id="edge160" class="edge"><title>Mp&#45;&gt;P0_production_intermediate_m</title>
<path fill="none" stroke="black" d="M299.603,-328.002C323.002,-342.269 354.931,-361.739 356.904,-362.941"/>
</g>
<!-- Mp_degradation_intermediate_r -->
<g id="node167" class="node"><title>Mp_degradation_intermediate_r</title>
<ellipse fill="black" stroke="black" cx="357" cy="-313" rx="0.036" ry="0.036"/>
</g>
<!-- Mp&#45;&gt;Mp_degradation_intermediate_r -->
<g id="edge174" class="edge"><title>Mp&#45;&gt;Mp_degradation_intermediate_r</title>
<path fill="none" stroke="black" d="M319.839,-313C338.384,-313 355.873,-313 356.948,-313"/>
</g>
<!-- Mt -->
<g id="node10" class="node"><title>Mt</title>
<ellipse fill="none" stroke="black" cx="275" cy="-60" rx="41.9758" ry="18"/>
<text text-anchor="middle" x="275" y="-57.5" font-family="Times Roman,serif" font-size="10.00">TIM mRNA</text>
</g>
<!-- T0_production_intermediate_m -->
<g id="node163" class="node"><title>T0_production_intermediate_m</title>
<ellipse fill="black" stroke="black" cx="357" cy="-101" rx="0.036" ry="0.036"/>
</g>
<!-- Mt&#45;&gt;T0_production_intermediate_m -->
<g id="edge170" class="edge"><title>Mt&#45;&gt;T0_production_intermediate_m</title>
<path fill="none" stroke="black" d="M302.761,-73.8807C325.807,-85.4034 355.103,-100.052 356.912,-100.956"/>
</g>
<!-- Mt_degradation_intermediate_r -->
<g id="node173" class="node"><title>Mt_degradation_intermediate_r</title>
<ellipse fill="black" stroke="black" cx="357" cy="-60" rx="0.036" ry="0.036"/>
</g>
<!-- Mt&#45;&gt;Mt_degradation_intermediate_r -->
<g id="edge180" class="edge"><title>Mt&#45;&gt;Mt_degradation_intermediate_r</title>
<path fill="none" stroke="black" d="M317.921,-60C337.141,-60 355.797,-60 356.944,-60"/>
</g>
<!-- P0_to_P1 -->
<g id="node11" class="node"><title>P0_to_P1</title>
<polygon fill="none" stroke="black" points="712,-381 698,-381 698,-367 712,-367 712,-381"/>
</g>
<!-- P0_to_P1_intermediate_p -->
<g id="node15" class="node"><title>P0_to_P1_intermediate_p</title>
<ellipse fill="black" stroke="black" cx="775" cy="-368" rx="0.036" ry="0.036"/>
</g>
<!-- P0_to_P1&#45;&gt;P0_to_P1_intermediate_p -->
<g id="edge6" class="edge"><title>P0_to_P1&#45;&gt;P0_to_P1_intermediate_p</title>
<path fill="none" stroke="black" d="M712.228,-373.38C729.554,-371.895 772.221,-368.238 774.871,-368.011"/>
</g>
<!-- P0_to_P1_intermediate_r&#45;&gt;P0_to_P1 -->
<g id="edge2" class="edge"><title>P0_to_P1_intermediate_r&#45;&gt;P0_to_P1</title>
<path fill="none" stroke="black" d="M635.051,-385.991C636.748,-385.7 680.582,-378.186 697.98,-375.203"/>
</g>
<!-- P0_to_P1_intermediate_p&#45;&gt;P1 -->
<g id="edge8" class="edge"><title>P0_to_P1_intermediate_p&#45;&gt;P1</title>
<path fill="none" stroke="black" d="M775.117,-367.988C776.952,-367.795 800.044,-365.372 828.242,-362.413"/>
<polygon fill="black" stroke="black" points="828.822,-365.871 838.402,-361.347 828.091,-358.91 828.822,-365.871"/>
</g>
<!-- T0_to_T1 -->
<g id="node18" class="node"><title>T0_to_T1</title>
<polygon fill="none" stroke="black" points="712,-117 698,-117 698,-103 712,-103 712,-117"/>
</g>
<!-- T0_to_T1_intermediate_p -->
<g id="node22" class="node"><title>T0_to_T1_intermediate_p</title>
<ellipse fill="black" stroke="black" cx="775" cy="-107" rx="0.036" ry="0.036"/>
</g>
<!-- T0_to_T1&#45;&gt;T0_to_T1_intermediate_p -->
<g id="edge14" class="edge"><title>T0_to_T1&#45;&gt;T0_to_T1_intermediate_p</title>
<path fill="none" stroke="black" d="M712.228,-109.69C729.554,-108.948 772.221,-107.119 774.871,-107.006"/>
</g>
<!-- T0_to_T1_intermediate_r&#45;&gt;T0_to_T1 -->
<g id="edge10" class="edge"><title>T0_to_T1_intermediate_r&#45;&gt;T0_to_T1</title>
<path fill="none" stroke="black" d="M635.051,-113.997C636.748,-113.9 680.582,-111.395 697.98,-110.401"/>
</g>
<!-- T0_to_T1_intermediate_p&#45;&gt;T1 -->
<g id="edge16" class="edge"><title>T0_to_T1_intermediate_p&#45;&gt;T1</title>
<path fill="none" stroke="black" d="M775.117,-106.996C776.977,-106.939 800.695,-106.207 829.431,-105.32"/>
<polygon fill="black" stroke="black" points="829.889,-108.808 839.776,-105.001 829.673,-101.811 829.889,-108.808"/>
</g>
<!-- P1_to_P0 -->
<g id="node25" class="node"><title>P1_to_P0</title>
<polygon fill="none" stroke="black" points="1124,-393 1110,-393 1110,-379 1124,-379 1124,-393"/>
</g>
<!-- P1_to_P0_intermediate_p -->
<g id="node29" class="node"><title>P1_to_P0_intermediate_p</title>
<ellipse fill="black" stroke="black" cx="1187" cy="-403" rx="0.036" ry="0.036"/>
</g>
<!-- P1_to_P0&#45;&gt;P1_to_P0_intermediate_p -->
<g id="edge22" class="edge"><title>P1_to_P0&#45;&gt;P1_to_P0_intermediate_p</title>
<path fill="none" stroke="black" d="M1124.23,-387.755C1141.55,-391.963 1184.22,-402.325 1186.87,-402.969"/>
</g>
<!-- P1_to_P0_intermediate_r&#45;&gt;P1_to_P0 -->
<g id="edge18" class="edge"><title>P1_to_P0_intermediate_r&#45;&gt;P1_to_P0</title>
<path fill="none" stroke="black" d="M1073.13,-383.009C1075.02,-383.138 1097.79,-384.691 1109.76,-385.506"/>
</g>
<!-- P1_to_P0_intermediate_p&#45;&gt;P0 -->
<g id="edge24" class="edge"><title>P1_to_P0_intermediate_p&#45;&gt;P0</title>
<path fill="none" stroke="black" d="M1186.95,-403.013C1185.04,-403.558 1123.49,-421 1073,-421 705,-421 705,-421 705,-421 664.623,-421 620.25,-418.005 581.859,-414.459"/>
<polygon fill="black" stroke="black" points="582.003,-410.957 571.717,-413.497 581.341,-417.926 582.003,-410.957"/>
</g>
<!-- T1_to_T0 -->
<g id="node32" class="node"><title>T1_to_T0</title>
<polygon fill="none" stroke="black" points="1124,-144 1110,-144 1110,-130 1124,-130 1124,-144"/>
</g>
<!-- T1_to_T0_intermediate_p -->
<g id="node36" class="node"><title>T1_to_T0_intermediate_p</title>
<ellipse fill="black" stroke="black" cx="1187" cy="-156" rx="0.036" ry="0.036"/>
</g>
<!-- T1_to_T0&#45;&gt;T1_to_T0_intermediate_p -->
<g id="edge30" class="edge"><title>T1_to_T0&#45;&gt;T1_to_T0_intermediate_p</title>
<path fill="none" stroke="black" d="M1124.23,-138.962C1141.55,-143.665 1184.22,-155.246 1186.87,-155.965"/>
</g>
<!-- T1_to_T0_intermediate_r&#45;&gt;T1_to_T0 -->
<g id="edge26" class="edge"><title>T1_to_T0_intermediate_r&#45;&gt;T1_to_T0</title>
<path fill="none" stroke="black" d="M1073.13,-134.009C1075.02,-134.138 1097.79,-135.691 1109.76,-136.506"/>
</g>
<!-- T1_to_T0_intermediate_p&#45;&gt;T0 -->
<g id="edge32" class="edge"><title>T1_to_T0_intermediate_p&#45;&gt;T0</title>
<path fill="none" stroke="black" d="M1186.92,-155.998C1180.43,-155.86 771.671,-147.151 580.101,-143.069"/>
<polygon fill="black" stroke="black" points="580.103,-139.568 570.03,-142.854 579.953,-146.567 580.103,-139.568"/>
</g>
<!-- P1_to_P2 -->
<g id="node39" class="node"><title>P1_to_P2</title>
<polygon fill="none" stroke="black" points="1124,-283 1110,-283 1110,-269 1124,-269 1124,-283"/>
</g>
<!-- P1_to_P2_intermediate_p -->
<g id="node43" class="node"><title>P1_to_P2_intermediate_p</title>
<ellipse fill="black" stroke="black" cx="1187" cy="-269" rx="0.036" ry="0.036"/>
</g>
<!-- P1_to_P2&#45;&gt;P1_to_P2_intermediate_p -->
<g id="edge38" class="edge"><title>P1_to_P2&#45;&gt;P1_to_P2_intermediate_p</title>
<path fill="none" stroke="black" d="M1124.23,-275.277C1141.55,-273.545 1184.22,-269.278 1186.87,-269.013"/>
</g>
<!-- P1_to_P2_intermediate_r&#45;&gt;P1_to_P2 -->
<g id="edge34" class="edge"><title>P1_to_P2_intermediate_r&#45;&gt;P1_to_P2</title>
<path fill="none" stroke="black" d="M1073.13,-291.954C1075.02,-291.265 1097.79,-282.984 1109.76,-278.633"/>
</g>
<!-- P1_to_P2_intermediate_p&#45;&gt;P2 -->
<g id="edge40" class="edge"><title>P1_to_P2_intermediate_p&#45;&gt;P2</title>
<path fill="none" stroke="black" d="M1187.11,-269.011C1188.9,-269.188 1212.36,-271.502 1240.32,-274.262"/>
<polygon fill="black" stroke="black" points="1240.07,-277.754 1250.37,-275.253 1240.76,-270.788 1240.07,-277.754"/>
</g>
<!-- T1_to_T2 -->
<g id="node46" class="node"><title>T1_to_T2</title>
<polygon fill="none" stroke="black" points="1124,-42 1110,-42 1110,-28 1124,-28 1124,-42"/>
</g>
<!-- T1_to_T2_intermediate_p -->
<g id="node50" class="node"><title>T1_to_T2_intermediate_p</title>
<ellipse fill="black" stroke="black" cx="1187" cy="-29" rx="0.036" ry="0.036"/>
</g>
<!-- T1_to_T2&#45;&gt;T1_to_T2_intermediate_p -->
<g id="edge46" class="edge"><title>T1_to_T2&#45;&gt;T1_to_T2_intermediate_p</title>
<path fill="none" stroke="black" d="M1124.23,-34.3805C1141.55,-32.8954 1184.22,-29.2382 1186.87,-29.0111"/>
</g>
<!-- T1_to_T2_intermediate_r&#45;&gt;T1_to_T2 -->
<g id="edge42" class="edge"><title>T1_to_T2_intermediate_r&#45;&gt;T1_to_T2</title>
<path fill="none" stroke="black" d="M1073.13,-42.9771C1075.02,-42.6325 1097.79,-38.4919 1109.76,-36.3166"/>
</g>
<!-- T1_to_T2_intermediate_p&#45;&gt;T2 -->
<g id="edge48" class="edge"><title>T1_to_T2_intermediate_p&#45;&gt;T2</title>
<path fill="none" stroke="black" d="M1187.11,-29.0181C1188.93,-29.317 1212.99,-33.2748 1241.45,-37.9553"/>
<polygon fill="black" stroke="black" points="1241.23,-41.4668 1251.67,-39.6362 1242.37,-34.5596 1241.23,-41.4668"/>
</g>
<!-- P2_to_P1 -->
<g id="node53" class="node"><title>P2_to_P1</title>
<polygon fill="none" stroke="black" points="1516,-323 1502,-323 1502,-309 1516,-309 1516,-323"/>
</g>
<!-- P2_to_P1_intermediate_p -->
<g id="node57" class="node"><title>P2_to_P1_intermediate_p</title>
<ellipse fill="black" stroke="black" cx="1579" cy="-335" rx="0.036" ry="0.036"/>
</g>
<!-- P2_to_P1&#45;&gt;P2_to_P1_intermediate_p -->
<g id="edge54" class="edge"><title>P2_to_P1&#45;&gt;P2_to_P1_intermediate_p</title>
<path fill="none" stroke="black" d="M1516.23,-317.962C1533.55,-322.665 1576.22,-334.246 1578.87,-334.965"/>
</g>
<!-- P2_to_P1_intermediate_r&#45;&gt;P2_to_P1 -->
<g id="edge50" class="edge"><title>P2_to_P1_intermediate_r&#45;&gt;P2_to_P1</title>
<path fill="none" stroke="black" d="M1465.13,-309.02C1467.02,-309.322 1489.79,-312.945 1501.76,-314.848"/>
</g>
<!-- P2_to_P1_intermediate_p&#45;&gt;P1 -->
<g id="edge56" class="edge"><title>P2_to_P1_intermediate_p&#45;&gt;P1</title>
<path fill="none" stroke="black" d="M1578.95,-335.012C1577.04,-335.496 1515.36,-351 1465,-351 1117,-351 1117,-351 1117,-351 1093.89,-351 1069.12,-351 1045.57,-351"/>
<polygon fill="black" stroke="black" points="1045.56,-347.5 1035.56,-351 1045.56,-354.5 1045.56,-347.5"/>
</g>
<!-- T2_to_T1 -->
<g id="node60" class="node"><title>T2_to_T1</title>
<polygon fill="none" stroke="black" points="1516,-83 1502,-83 1502,-69 1516,-69 1516,-83"/>
</g>
<!-- T2_to_T1_intermediate_p -->
<g id="node64" class="node"><title>T2_to_T1_intermediate_p</title>
<ellipse fill="black" stroke="black" cx="1579" cy="-97" rx="0.036" ry="0.036"/>
</g>
<!-- T2_to_T1&#45;&gt;T2_to_T1_intermediate_p -->
<g id="edge62" class="edge"><title>T2_to_T1&#45;&gt;T2_to_T1_intermediate_p</title>
<path fill="none" stroke="black" d="M1516.23,-78.1683C1533.55,-83.3661 1576.22,-96.1663 1578.87,-96.9612"/>
</g>
<!-- T2_to_T1_intermediate_r&#45;&gt;T2_to_T1 -->
<g id="edge58" class="edge"><title>T2_to_T1_intermediate_r&#45;&gt;T2_to_T1</title>
<path fill="none" stroke="black" d="M1465.13,-72.0115C1467.02,-72.1838 1489.79,-74.254 1501.76,-75.3417"/>
</g>
<!-- T2_to_T1_intermediate_p&#45;&gt;T1 -->
<g id="edge64" class="edge"><title>T2_to_T1_intermediate_p&#45;&gt;T1</title>
<path fill="none" stroke="black" d="M1578.95,-97.0101C1577.04,-97.4341 1515.25,-111 1465,-111 1339,-111 1339,-111 1339,-111 1239.08,-111 1125.23,-108.187 1044.26,-105.706"/>
<polygon fill="black" stroke="black" points="1044.16,-102.201 1034.06,-105.39 1043.94,-109.198 1044.16,-102.201"/>
</g>
<!-- P0_degradation -->
<g id="node67" class="node"><title>P0_degradation</title>
<polygon fill="none" stroke="black" points="712,-468 698,-468 698,-454 712,-454 712,-468"/>
</g>
<!-- P0_degradation_empty -->
<g id="node71" class="node"><title>P0_degradation_empty</title>
<text text-anchor="middle" x="775" y="-462.5" font-family="Times Roman,serif" font-size="15.00" fill="blue">Ø</text>
</g>
<!-- P0_degradation&#45;&gt;P0_degradation_empty -->
<g id="edge70" class="edge"><title>P0_degradation&#45;&gt;P0_degradation_empty</title>
<path fill="none" stroke="black" d="M712.228,-461.62C718.45,-462.153 727.94,-462.966 737.672,-463.8"/>
<polygon fill="black" stroke="black" points="737.511,-467.299 747.773,-464.666 738.109,-460.325 737.511,-467.299"/>
</g>
<!-- P0_degradation_intermediate_r&#45;&gt;P0_degradation -->
<g id="edge66" class="edge"><title>P0_degradation_intermediate_r&#45;&gt;P0_degradation</title>
<path fill="none" stroke="black" d="M635.051,-455.004C636.748,-455.15 680.582,-458.907 697.98,-460.398"/>
</g>
<!-- T0_degradation -->
<g id="node73" class="node"><title>T0_degradation</title>
<polygon fill="none" stroke="black" points="712,-194 698,-194 698,-180 712,-180 712,-194"/>
</g>
<!-- T0_degradation_empty -->
<g id="node77" class="node"><title>T0_degradation_empty</title>
<text text-anchor="middle" x="775" y="-187.5" font-family="Times Roman,serif" font-size="15.00" fill="blue">Ø</text>
</g>
<!-- T0_degradation&#45;&gt;T0_degradation_empty -->
<g id="edge76" class="edge"><title>T0_degradation&#45;&gt;T0_degradation_empty</title>
<path fill="none" stroke="black" d="M712.228,-187.516C718.45,-187.961 727.94,-188.639 737.672,-189.334"/>
<polygon fill="black" stroke="black" points="737.549,-192.834 747.773,-190.055 738.048,-185.852 737.549,-192.834"/>
</g>
<!-- T0_degradation_intermediate_r&#45;&gt;T0_degradation -->
<g id="edge72" class="edge"><title>T0_degradation_intermediate_r&#45;&gt;T0_degradation</title>
<path fill="none" stroke="black" d="M635.051,-181.004C636.748,-181.15 680.582,-184.907 697.98,-186.398"/>
</g>
<!-- P1_degradation -->
<g id="node79" class="node"><title>P1_degradation</title>
<polygon fill="none" stroke="black" points="1124,-320 1110,-320 1110,-306 1124,-306 1124,-320"/>
</g>
<!-- P1_degradation_empty -->
<g id="node83" class="node"><title>P1_degradation_empty</title>
<text text-anchor="middle" x="1187" y="-300.5" font-family="Times Roman,serif" font-size="15.00" fill="blue">Ø</text>
</g>
<!-- P1_degradation&#45;&gt;P1_degradation_empty -->
<g id="edge82" class="edge"><title>P1_degradation&#45;&gt;P1_degradation_empty</title>
<path fill="none" stroke="black" d="M1124.23,-312.174C1130.45,-311.463 1139.94,-310.378 1149.67,-309.266"/>
<polygon fill="black" stroke="black" points="1150.24,-312.725 1159.77,-308.112 1149.44,-305.77 1150.24,-312.725"/>
</g>
<!-- P1_degradation_intermediate_r&#45;&gt;P1_degradation -->
<g id="edge78" class="edge"><title>P1_degradation_intermediate_r&#45;&gt;P1_degradation</title>
<path fill="none" stroke="black" d="M1073.13,-319.98C1075.02,-319.678 1097.79,-316.055 1109.76,-314.152"/>
</g>
<!-- T1_degradation -->
<g id="node85" class="node"><title>T1_degradation</title>
<polygon fill="none" stroke="black" points="1124,-74 1110,-74 1110,-60 1124,-60 1124,-74"/>
</g>
<!-- T1_degradation_empty -->
<g id="node89" class="node"><title>T1_degradation_empty</title>
<text text-anchor="middle" x="1187" y="-60.5" font-family="Times Roman,serif" font-size="15.00" fill="blue">Ø</text>
</g>
<!-- T1_degradation&#45;&gt;T1_degradation_empty -->
<g id="edge88" class="edge"><title>T1_degradation&#45;&gt;T1_degradation_empty</title>
<path fill="none" stroke="black" d="M1124.23,-66.7935C1130.45,-66.6157 1139.94,-66.3446 1149.67,-66.0665"/>
<polygon fill="black" stroke="black" points="1149.88,-69.5622 1159.77,-65.7779 1149.68,-62.565 1149.88,-69.5622"/>
</g>
<!-- T1_degradation_intermediate_r&#45;&gt;T1_degradation -->
<g id="edge84" class="edge"><title>T1_degradation_intermediate_r&#45;&gt;T1_degradation</title>
<path fill="none" stroke="black" d="M1073.13,-70.9885C1075.02,-70.8162 1097.79,-68.746 1109.76,-67.6583"/>
</g>
<!-- P2_degradation -->
<g id="node91" class="node"><title>P2_degradation</title>
<polygon fill="none" stroke="black" points="1516,-291 1502,-291 1502,-277 1516,-277 1516,-291"/>
</g>
<!-- P2_degradation_empty -->
<g id="node95" class="node"><title>P2_degradation_empty</title>
<text text-anchor="middle" x="1579" y="-279.5" font-family="Times Roman,serif" font-size="15.00" fill="blue">Ø</text>
</g>
<!-- P2_degradation&#45;&gt;P2_degradation_empty -->
<g id="edge94" class="edge"><title>P2_degradation&#45;&gt;P2_degradation_empty</title>
<path fill="none" stroke="black" d="M1516.23,-284C1522.45,-284 1531.94,-284 1541.67,-284"/>
<polygon fill="black" stroke="black" points="1541.77,-287.5 1551.77,-284 1541.77,-280.5 1541.77,-287.5"/>
</g>
<!-- P2_degradation_intermediate_r&#45;&gt;P2_degradation -->
<g id="edge90" class="edge"><title>P2_degradation_intermediate_r&#45;&gt;P2_degradation</title>
<path fill="none" stroke="black" d="M1465.13,-284C1467.02,-284 1489.79,-284 1501.76,-284"/>
</g>
<!-- T2_degradation -->
<g id="node97" class="node"><title>T2_degradation</title>
<polygon fill="none" stroke="black" points="1516,-51 1502,-51 1502,-37 1516,-37 1516,-51"/>
</g>
<!-- T2_degradation_empty -->
<g id="node101" class="node"><title>T2_degradation_empty</title>
<text text-anchor="middle" x="1579" y="-41.5" font-family="Times Roman,serif" font-size="15.00" fill="blue">Ø</text>
</g>
<!-- T2_degradation&#45;&gt;T2_degradation_empty -->
<g id="edge100" class="edge"><title>T2_degradation&#45;&gt;T2_degradation_empty</title>
<path fill="none" stroke="black" d="M1516.23,-44.2065C1522.45,-44.3843 1531.94,-44.6554 1541.67,-44.9335"/>
<polygon fill="black" stroke="black" points="1541.68,-48.435 1551.77,-45.2221 1541.88,-41.4378 1541.68,-48.435"/>
</g>
<!-- T2_degradation_intermediate_r&#45;&gt;T2_degradation -->
<g id="edge96" class="edge"><title>T2_degradation_intermediate_r&#45;&gt;T2_degradation</title>
<path fill="none" stroke="black" d="M1465.13,-46.9914C1467.02,-46.8622 1489.79,-45.3095 1501.76,-44.4937"/>
</g>
<!-- PT_complex_formation -->
<g id="node103" class="node"><title>PT_complex_formation</title>
<polygon fill="none" stroke="black" points="1516,-176 1502,-176 1502,-162 1516,-162 1516,-176"/>
</g>
<!-- PT_complex_formation_intermediate_p -->
<g id="node108" class="node"><title>PT_complex_formation_intermediate_p</title>
<ellipse fill="black" stroke="black" cx="1579" cy="-169" rx="0.036" ry="0.036"/>
</g>
<!-- PT_complex_formation&#45;&gt;PT_complex_formation_intermediate_p -->
<g id="edge108" class="edge"><title>PT_complex_formation&#45;&gt;PT_complex_formation_intermediate_p</title>
<path fill="none" stroke="black" d="M1516.23,-169C1533.55,-169 1576.22,-169 1578.87,-169"/>
</g>
<!-- PT_complex_formation_intermediate_r&#45;&gt;PT_complex_formation -->
<g id="edge102" class="edge"><title>PT_complex_formation_intermediate_r&#45;&gt;PT_complex_formation</title>
<path fill="none" stroke="black" d="M1465.13,-169C1467.02,-169 1489.79,-169 1501.76,-169"/>
</g>
<!-- PT_complex_formation_intermediate_p&#45;&gt;CC -->
<g id="edge110" class="edge"><title>PT_complex_formation_intermediate_p&#45;&gt;CC</title>
<path fill="none" stroke="black" d="M1579.1,-169C1580.84,-169 1604.51,-169 1631.96,-169"/>
<polygon fill="black" stroke="black" points="1632.22,-172.5 1642.22,-169 1632.22,-165.5 1632.22,-172.5"/>
</g>
<!-- PT_complex_nucleation -->
<g id="node111" class="node"><title>PT_complex_nucleation</title>
<polygon fill="none" stroke="black" points="1886,-155 1872,-155 1872,-141 1886,-141 1886,-155"/>
</g>
<!-- PT_complex_nucleation_intermediate_p -->
<g id="node115" class="node"><title>PT_complex_nucleation_intermediate_p</title>
<ellipse fill="black" stroke="black" cx="1949" cy="-146" rx="0.036" ry="0.036"/>
</g>
<!-- PT_complex_nucleation&#45;&gt;PT_complex_nucleation_intermediate_p -->
<g id="edge116" class="edge"><title>PT_complex_nucleation&#45;&gt;PT_complex_nucleation_intermediate_p</title>
<path fill="none" stroke="black" d="M1886.23,-147.793C1903.55,-147.298 1946.22,-146.079 1948.87,-146.004"/>
</g>
<!-- PT_complex_nucleation_intermediate_r&#45;&gt;PT_complex_nucleation -->
<g id="edge112" class="edge"><title>PT_complex_nucleation_intermediate_r&#45;&gt;PT_complex_nucleation</title>
<path fill="none" stroke="black" d="M1835.13,-151.989C1837.02,-151.816 1859.79,-149.746 1871.76,-148.658"/>
</g>
<!-- PT_complex_nucleation_intermediate_p&#45;&gt;Cn -->
<g id="edge118" class="edge"><title>PT_complex_nucleation_intermediate_p&#45;&gt;Cn</title>
<path fill="none" stroke="black" d="M1949.1,-146C1950.82,-146 1974.78,-146 2002.18,-146"/>
<polygon fill="black" stroke="black" points="2002.39,-149.5 2012.39,-146 2002.39,-142.5 2002.39,-149.5"/>
</g>
<!-- PT_complex_degradation -->
<g id="node118" class="node"><title>PT_complex_degradation</title>
<polygon fill="none" stroke="black" points="1886,-188 1872,-188 1872,-174 1886,-174 1886,-188"/>
</g>
<!-- PT_complex_degradation_empty -->
<g id="node122" class="node"><title>PT_complex_degradation_empty</title>
<text text-anchor="middle" x="1949" y="-177.5" font-family="Times Roman,serif" font-size="15.00" fill="blue">Ø</text>
</g>
<!-- PT_complex_degradation&#45;&gt;PT_complex_degradation_empty -->
<g id="edge124" class="edge"><title>PT_complex_degradation&#45;&gt;PT_complex_degradation_empty</title>
<path fill="none" stroke="black" d="M1886.23,-181.103C1892.45,-181.192 1901.94,-181.328 1911.67,-181.467"/>
<polygon fill="black" stroke="black" points="1911.72,-184.968 1921.77,-181.611 1911.82,-177.968 1911.72,-184.968"/>
</g>
<!-- PT_complex_degradation_intermediate_r&#45;&gt;PT_complex_degradation -->
<g id="edge120" class="edge"><title>PT_complex_degradation_intermediate_r&#45;&gt;PT_complex_degradation</title>
<path fill="none" stroke="black" d="M1835.13,-178.009C1837.02,-178.138 1859.79,-179.691 1871.76,-180.506"/>
</g>
<!-- PTnucl_complex_degradation -->
<g id="node124" class="node"><title>PTnucl_complex_degradation</title>
<polygon fill="none" stroke="black" points="2246,-153 2232,-153 2232,-139 2246,-139 2246,-153"/>
</g>
<!-- PTnucl_complex_degradation_empty -->
<g id="node128" class="node"><title>PTnucl_complex_degradation_empty</title>
<text text-anchor="middle" x="2309" y="-141.5" font-family="Times Roman,serif" font-size="15.00" fill="blue">Ø</text>
</g>
<!-- PTnucl_complex_degradation&#45;&gt;PTnucl_complex_degradation_empty -->
<g id="edge130" class="edge"><title>PTnucl_complex_degradation&#45;&gt;PTnucl_complex_degradation_empty</title>
<path fill="none" stroke="black" d="M2246.23,-146C2252.45,-146 2261.94,-146 2271.67,-146"/>
<polygon fill="black" stroke="black" points="2271.77,-149.5 2281.77,-146 2271.77,-142.5 2271.77,-149.5"/>
</g>
<!-- PTnucl_complex_degradation_intermediate_r&#45;&gt;PTnucl_complex_degradation -->
<g id="edge126" class="edge"><title>PTnucl_complex_degradation_intermediate_r&#45;&gt;PTnucl_complex_degradation</title>
<path fill="none" stroke="black" d="M2196.12,-146C2197.98,-146 2220.23,-146 2231.92,-146"/>
</g>
<!-- Mp_production -->
<g id="node130" class="node"><title>Mp_production</title>
<polygon fill="none" stroke="black" points="104,-271 90,-271 90,-257 104,-257 104,-271"/>
</g>
<!-- Mp_production_intermediate_p -->
<g id="node133" class="node"><title>Mp_production_intermediate_p</title>
<ellipse fill="black" stroke="black" cx="167" cy="-290" rx="0.036" ry="0.036"/>
</g>
<!-- Mp_production&#45;&gt;Mp_production_intermediate_p -->
<g id="edge134" class="edge"><title>Mp_production&#45;&gt;Mp_production_intermediate_p</title>
<path fill="none" stroke="black" d="M104.228,-266.685C121.554,-273.12 164.221,-288.968 166.871,-289.952"/>
</g>
<!-- Mp_production&#45;&gt;Mp_production_intermediate_m -->
<g id="edge138" class="edge"><title>Mp_production&#45;&gt;Mp_production_intermediate_m</title>
<path fill="none" stroke="black" d="M115.947,-259.386C148.332,-251.916 216.51,-238 275,-238 275,-238 275,-238 1949,-238 2058.2,-238 2191.75,-203.116 2195.9,-202.026"/>
<polygon fill="none" stroke="black" points="115.742,-259.435 110.831,-264.715 104.068,-262.213 108.979,-256.932 115.742,-259.435"/>
</g>
<!-- Mp_production_empty -->
<g id="node131" class="node"><title>Mp_production_empty</title>
<text text-anchor="middle" x="27" y="-259.5" font-family="Times Roman,serif" font-size="15.00" fill="blue">Ø</text>
</g>
<!-- Mp_production_empty&#45;&gt;Mp_production -->
<g id="edge132" class="edge"><title>Mp_production_empty&#45;&gt;Mp_production</title>
<path fill="none" stroke="black" d="M54.2643,-264C67.1627,-264 81.5367,-264 89.8947,-264"/>
</g>
<!-- Mp_production_intermediate_p&#45;&gt;Mp -->
<g id="edge136" class="edge"><title>Mp_production_intermediate_p&#45;&gt;Mp</title>
<path fill="none" stroke="black" d="M167.078,-290.017C168.779,-290.379 197.905,-296.582 225.468,-302.452"/>
<polygon fill="black" stroke="black" points="224.989,-305.928 235.498,-304.588 226.447,-299.081 224.989,-305.928"/>
</g>
<!-- Mt_production -->
<g id="node139" class="node"><title>Mt_production</title>
<polygon fill="none" stroke="black" points="104,-29 90,-29 90,-15 104,-15 104,-29"/>
</g>
<!-- Mt_production_intermediate_p -->
<g id="node142" class="node"><title>Mt_production_intermediate_p</title>
<ellipse fill="black" stroke="black" cx="167" cy="-44" rx="0.036" ry="0.036"/>
</g>
<!-- Mt_production&#45;&gt;Mt_production_intermediate_p -->
<g id="edge144" class="edge"><title>Mt_production&#45;&gt;Mt_production_intermediate_p</title>
<path fill="none" stroke="black" d="M104.228,-24.2715C121.554,-29.7168 164.221,-43.1266 166.871,-43.9594"/>
</g>
<!-- Mt_production&#45;&gt;Mt_production_intermediate_m -->
<g id="edge148" class="edge"><title>Mt_production&#45;&gt;Mt_production_intermediate_m</title>
<path fill="none" stroke="black" d="M115.984,-18.0958C148.426,-11.7747 216.683,-0 275,-0 275,-0 275,-0 1949,-0 2060.85,-0 2191.84,-63.9536 2195.9,-65.9522"/>
<polygon fill="none" stroke="black" points="115.848,-18.1231 110.754,-23.227 104.083,-20.4879 109.177,-15.3839 115.848,-18.1231"/>
</g>
<!-- Mt_production_empty -->
<g id="node140" class="node"><title>Mt_production_empty</title>
<text text-anchor="middle" x="27" y="-17.5" font-family="Times Roman,serif" font-size="15.00" fill="blue">Ø</text>
</g>
<!-- Mt_production_empty&#45;&gt;Mt_production -->
<g id="edge142" class="edge"><title>Mt_production_empty&#45;&gt;Mt_production</title>
<path fill="none" stroke="black" d="M54.2643,-22C67.1627,-22 81.5367,-22 89.8947,-22"/>
</g>
<!-- Mt_production_intermediate_p&#45;&gt;Mt -->
<g id="edge146" class="edge"><title>Mt_production_intermediate_p&#45;&gt;Mt</title>
<path fill="none" stroke="black" d="M167.078,-44.0116C168.762,-44.2611 197.324,-48.4924 224.638,-52.539"/>
<polygon fill="black" stroke="black" points="224.188,-56.0104 234.593,-54.0137 225.214,-49.086 224.188,-56.0104"/>
</g>
<!-- P0_production -->
<g id="node148" class="node"><title>P0_production</title>
<polygon fill="none" stroke="black" points="282,-381 268,-381 268,-367 282,-367 282,-381"/>
</g>
<!-- P0_production_intermediate_p -->
<g id="node151" class="node"><title>P0_production_intermediate_p</title>
<ellipse fill="black" stroke="black" cx="357" cy="-384" rx="0.036" ry="0.036"/>
</g>
<!-- P0_production&#45;&gt;P0_production_intermediate_p -->
<g id="edge154" class="edge"><title>P0_production&#45;&gt;P0_production_intermediate_p</title>
<path fill="none" stroke="black" d="M282.277,-374.887C301.718,-377.258 353.618,-383.588 356.843,-383.981"/>
</g>
<!-- P0_production&#45;&gt;P0_production_intermediate_m -->
<g id="edge158" class="edge"><title>P0_production&#45;&gt;P0_production_intermediate_m</title>
<path fill="none" stroke="black" d="M294.436,-371.393C317.78,-368.261 354.16,-363.381 356.843,-363.021"/>
<polygon fill="none" stroke="black" points="294.17,-371.428 288.756,-376.191 282.277,-373.024 287.692,-368.262 294.17,-371.428"/>
</g>
<!-- P0_production_empty -->
<g id="node149" class="node"><title>P0_production_empty</title>
<text text-anchor="middle" x="167" y="-369.5" font-family="Times Roman,serif" font-size="15.00" fill="blue">Ø</text>
</g>
<!-- P0_production_empty&#45;&gt;P0_production -->
<g id="edge152" class="edge"><title>P0_production_empty&#45;&gt;P0_production</title>
<path fill="none" stroke="black" d="M194.253,-374C218.748,-374 253.068,-374 267.809,-374"/>
</g>
<!-- P0_production_intermediate_p&#45;&gt;P0 -->
<g id="edge156" class="edge"><title>P0_production_intermediate_p&#45;&gt;P0</title>
<path fill="none" stroke="black" d="M357.091,-384.014C358.186,-384.179 369.008,-385.811 383.888,-388.055"/>
<polygon fill="black" stroke="black" points="383.782,-391.578 394.192,-389.608 384.825,-384.656 383.782,-391.578"/>
</g>
<!-- T0_production -->
<g id="node157" class="node"><title>T0_production</title>
<polygon fill="none" stroke="black" points="282,-116 268,-116 268,-102 282,-102 282,-116"/>
</g>
<!-- T0_production_intermediate_p -->
<g id="node160" class="node"><title>T0_production_intermediate_p</title>
<ellipse fill="black" stroke="black" cx="357" cy="-130" rx="0.036" ry="0.036"/>
</g>
<!-- T0_production&#45;&gt;T0_production_intermediate_p -->
<g id="edge164" class="edge"><title>T0_production&#45;&gt;T0_production_intermediate_p</title>
<path fill="none" stroke="black" d="M282.277,-110.864C301.718,-115.842 353.618,-129.134 356.843,-129.96"/>
</g>
<!-- T0_production&#45;&gt;T0_production_intermediate_m -->
<g id="edge168" class="edge"><title>T0_production&#45;&gt;T0_production_intermediate_m</title>
<path fill="none" stroke="black" d="M294.436,-107.104C317.78,-104.826 354.16,-101.277 356.843,-101.015"/>
<polygon fill="none" stroke="black" points="294.22,-107.125 288.637,-111.689 282.277,-108.29 287.86,-103.726 294.22,-107.125"/>
</g>
<!-- T0_production_empty -->
<g id="node158" class="node"><title>T0_production_empty</title>
<text text-anchor="middle" x="167" y="-104.5" font-family="Times Roman,serif" font-size="15.00" fill="blue">Ø</text>
</g>
<!-- T0_production_empty&#45;&gt;T0_production -->
<g id="edge162" class="edge"><title>T0_production_empty&#45;&gt;T0_production</title>
<path fill="none" stroke="black" d="M194.253,-109C218.748,-109 253.068,-109 267.809,-109"/>
</g>
<!-- T0_production_intermediate_p&#45;&gt;T0 -->
<g id="edge166" class="edge"><title>T0_production_intermediate_p&#45;&gt;T0</title>
<path fill="none" stroke="black" d="M357.091,-130.008C358.227,-130.107 369.838,-131.121 385.59,-132.496"/>
<polygon fill="black" stroke="black" points="385.609,-136.011 395.875,-133.394 386.218,-129.037 385.609,-136.011"/>
</g>
<!-- Mp_degradation -->
<g id="node166" class="node"><title>Mp_degradation</title>
<polygon fill="none" stroke="black" points="490,-320 476,-320 476,-306 490,-306 490,-320"/>
</g>
<!-- Mp_degradation_empty -->
<g id="node170" class="node"><title>Mp_degradation_empty</title>
<text text-anchor="middle" x="635" y="-308.5" font-family="Times Roman,serif" font-size="15.00" fill="blue">Ø</text>
</g>
<!-- Mp_degradation&#45;&gt;Mp_degradation_empty -->
<g id="edge176" class="edge"><title>Mp_degradation&#45;&gt;Mp_degradation_empty</title>
<path fill="none" stroke="black" d="M490.331,-313C509.384,-313 561.491,-313 597.667,-313"/>
<polygon fill="black" stroke="black" points="597.867,-316.5 607.867,-313 597.866,-309.5 597.867,-316.5"/>
</g>
<!-- Mp_degradation_intermediate_r&#45;&gt;Mp_degradation -->
<g id="edge172" class="edge"><title>Mp_degradation_intermediate_r&#45;&gt;Mp_degradation</title>
<path fill="none" stroke="black" d="M357.091,-313C360.34,-313 449.36,-313 475.716,-313"/>
</g>
<!-- Mt_degradation -->
<g id="node172" class="node"><title>Mt_degradation</title>
<polygon fill="none" stroke="black" points="490,-67 476,-67 476,-53 490,-53 490,-67"/>
</g>
<!-- Mt_degradation_empty -->
<g id="node176" class="node"><title>Mt_degradation_empty</title>
<text text-anchor="middle" x="635" y="-55.5" font-family="Times Roman,serif" font-size="15.00" fill="blue">Ø</text>
</g>
<!-- Mt_degradation&#45;&gt;Mt_degradation_empty -->
<g id="edge182" class="edge"><title>Mt_degradation&#45;&gt;Mt_degradation_empty</title>
<path fill="none" stroke="black" d="M490.331,-60C509.384,-60 561.491,-60 597.667,-60"/>
<polygon fill="black" stroke="black" points="597.867,-63.5001 607.867,-60 597.866,-56.5001 597.867,-63.5001"/>
</g>
<!-- Mt_degradation_intermediate_r&#45;&gt;Mt_degradation -->
<g id="edge178" class="edge"><title>Mt_degradation_intermediate_r&#45;&gt;Mt_degradation</title>
<path fill="none" stroke="black" d="M357.091,-60C360.34,-60 449.36,-60 475.716,-60"/>
</g>
</g>
</svg>
