<?xml version="1.0" encoding="UTF-8" standalone="no"?>
<!DOCTYPE svg PUBLIC "-//W3C//DTD SVG 1.1//EN"
 "http://www.w3.org/Graphics/SVG/1.1/DTD/svg11.dtd">
<!-- Generated by graphviz version 2.30.1 (20140821.0912)
 -->
<!-- Title: G Pages: 1 -->
<svg width="1312pt" height="294pt"
 viewBox="0.00 0.00 1312.00 294.00" xmlns="http://www.w3.org/2000/svg" xmlns:xlink="http://www.w3.org/1999/xlink">
<g id="graph0" class="graph" transform="scale(1 1) rotate(0) translate(4 290)">
<title>G</title>
<polygon fill="white" stroke="white" points="-4,5 -4,-290 1309,-290 1309,5 -4,5"/>
<!-- DFG -->
<g id="DFG" class="node"><title>DFG</title>
<ellipse fill="none" stroke="black" cx="27" cy="-134" rx="27" ry="18"/>
<text text-anchor="middle" x="27" y="-131.5" font-family="Times,serif" font-size="10.00">DFG</text>
</g>
<!-- v1_intermediate_r -->
<g id="node16" class="node"><title>v1_intermediate_r</title>
<ellipse fill="black" stroke="black" cx="90" cy="-160" rx="0.036" ry="0.036"/>
</g>
<!-- DFG&#45;&gt;v1_intermediate_r -->
<g id="edge2" class="edge"><title>DFG&#45;&gt;v1_intermediate_r</title>
<path fill="none" stroke="black" d="M50.3678,-143.534C67.2331,-150.722 87.6773,-159.436 88.9386,-159.974"/>
</g>
<!-- v2_intermediate_r -->
<g id="node19" class="node"><title>v2_intermediate_r</title>
<ellipse fill="black" stroke="black" cx="90" cy="-102" rx="0.036" ry="0.036"/>
</g>
<!-- DFG&#45;&gt;v2_intermediate_r -->
<g id="edge6" class="edge"><title>DFG&#45;&gt;v2_intermediate_r</title>
<path fill="none" stroke="black" d="M48.6518,-123.166C65.7954,-114.173 87.5891,-102.74 88.9345,-102.034"/>
</g>
<!-- v3_intermediate_r -->
<g id="node22" class="node"><title>v3_intermediate_r</title>
<ellipse fill="black" stroke="black" cx="90" cy="-134" rx="0.036" ry="0.036"/>
</g>
<!-- DFG&#45;&gt;v3_intermediate_r -->
<g id="edge10" class="edge"><title>DFG&#45;&gt;v3_intermediate_r</title>
<path fill="none" stroke="black" d="M54.2235,-134C70.2399,-134 87.8615,-134 88.9472,-134"/>
</g>
<!-- E1 -->
<g id="E1" class="node"><title>E1</title>
<ellipse fill="none" stroke="black" cx="241" cy="-190" rx="27" ry="18"/>
<text text-anchor="middle" x="241" y="-187.5" font-family="Times,serif" font-size="10.00">E1</text>
</g>
<!-- v4_intermediate_r -->
<g id="node25" class="node"><title>v4_intermediate_r</title>
<ellipse fill="black" stroke="black" cx="305" cy="-167" rx="0.036" ry="0.036"/>
</g>
<!-- E1&#45;&gt;v4_intermediate_r -->
<g id="edge15" class="edge"><title>E1&#45;&gt;v4_intermediate_r</title>
<path fill="none" stroke="black" d="M265.087,-181.436C282.163,-175.101 302.673,-167.492 303.938,-167.023"/>
</g>
<!-- v10_intermediate_r -->
<g id="node43" class="node"><title>v10_intermediate_r</title>
<ellipse fill="black" stroke="black" cx="305" cy="-192" rx="0.036" ry="0.036"/>
</g>
<!-- E1&#45;&gt;v10_intermediate_r -->
<g id="edge41" class="edge"><title>E1&#45;&gt;v10_intermediate_r</title>
<path fill="none" stroke="black" d="M268.294,-190.848C284.664,-191.376 302.826,-191.962 303.946,-191.998"/>
</g>
<!-- v11_intermediate_r -->
<g id="node46" class="node"><title>v11_intermediate_r</title>
<ellipse fill="black" stroke="black" cx="305" cy="-224" rx="0.036" ry="0.036"/>
</g>
<!-- E1&#45;&gt;v11_intermediate_r -->
<g id="edge46" class="edge"><title>E1&#45;&gt;v11_intermediate_r</title>
<path fill="none" stroke="black" d="M262.301,-201.133C279.818,-210.739 302.529,-223.194 303.932,-223.963"/>
</g>
<!-- E2 -->
<g id="E2" class="node"><title>E2</title>
<ellipse fill="none" stroke="black" cx="241" cy="-88" rx="27" ry="18"/>
<text text-anchor="middle" x="241" y="-85.5" font-family="Times,serif" font-size="10.00">E2</text>
</g>
<!-- v7_intermediate_r -->
<g id="node34" class="node"><title>v7_intermediate_r</title>
<ellipse fill="black" stroke="black" cx="305" cy="-94" rx="0.036" ry="0.036"/>
</g>
<!-- E2&#45;&gt;v7_intermediate_r -->
<g id="edge28" class="edge"><title>E2&#45;&gt;v7_intermediate_r</title>
<path fill="none" stroke="black" d="M267.934,-90.5098C284.393,-92.1026 302.81,-93.8848 303.945,-93.9947"/>
</g>
<!-- v16_intermediate_r -->
<g id="node61" class="node"><title>v16_intermediate_r</title>
<ellipse fill="black" stroke="black" cx="305" cy="-72" rx="0.036" ry="0.036"/>
</g>
<!-- E2&#45;&gt;v16_intermediate_r -->
<g id="edge70" class="edge"><title>E2&#45;&gt;v16_intermediate_r</title>
<path fill="none" stroke="black" d="M266.504,-81.6764C283.293,-77.3439 302.742,-72.3245 303.942,-72.0151"/>
</g>
<!-- Cn -->
<g id="Cn [CHEBI:23008]" class="node"><title>Cn</title>
<ellipse fill="none" stroke="black" cx="1070" cy="-101" rx="18" ry="18"/>
<text text-anchor="middle" x="1070" y="-98.5" font-family="Times,serif" font-size="10.00">Cn</text>
</g>
<!-- v14_intermediate_r -->
<g id="node55" class="node"><title>v14_intermediate_r</title>
<ellipse fill="black" stroke="black" cx="1125" cy="-147" rx="0.036" ry="0.036"/>
</g>
<!-- Cn&#45;&gt;v14_intermediate_r -->
<g id="edge60" class="edge"><title>Cn&#45;&gt;v14_intermediate_r</title>
<path fill="none" stroke="black" d="M1084.1,-112.371C1099.31,-125.567 1122.5,-145.694 1123.93,-146.939"/>
</g>
<!-- v15_intermediate_r -->
<g id="node58" class="node"><title>v15_intermediate_r</title>
<ellipse fill="black" stroke="black" cx="1125" cy="-101" rx="0.036" ry="0.036"/>
</g>
<!-- Cn&#45;&gt;v15_intermediate_r -->
<g id="edge64" class="edge"><title>Cn&#45;&gt;v15_intermediate_r</title>
<path fill="none" stroke="black" d="M1088.06,-101C1103.07,-101 1122.73,-101 1123.94,-101"/>
</g>
<!-- Gly -->
<g id="Gly [CHEBI:15428]" class="node"><title>Gly</title>
<ellipse fill="none" stroke="black" cx="446" cy="-148" rx="18" ry="18"/>
<text text-anchor="middle" x="446" y="-145.5" font-family="Times,serif" font-size="10.00">Gly</text>
</g>
<!-- Gly&#45;&gt;v14_intermediate_r -->
<g id="edge59" class="edge"><title>Gly&#45;&gt;v14_intermediate_r</title>
<path fill="none" stroke="black" d="M464.171,-147.716C483.557,-147.42 516.044,-147 544,-147 544,-147 544,-147 1010,-147 1059.88,-147 1122.02,-147 1123.95,-147"/>
</g>
<!-- _3DG -->
<g id="_3DG" class="node"><title>_3DG</title>
<ellipse fill="none" stroke="black" cx="851" cy="-208" rx="27" ry="18"/>
<text text-anchor="middle" x="851" y="-205.5" font-family="Times,serif" font-size="10.00">_3DG</text>
</g>
<!-- v5_intermediate_r -->
<g id="node28" class="node"><title>v5_intermediate_r</title>
<ellipse fill="black" stroke="black" cx="915" cy="-186" rx="0.036" ry="0.036"/>
</g>
<!-- _3DG&#45;&gt;v5_intermediate_r -->
<g id="edge20" class="edge"><title>_3DG&#45;&gt;v5_intermediate_r</title>
<path fill="none" stroke="black" d="M875.087,-199.808C892.163,-193.749 912.673,-186.471 913.938,-186.022"/>
</g>
<!-- v6_intermediate_r -->
<g id="node31" class="node"><title>v6_intermediate_r</title>
<ellipse fill="black" stroke="black" cx="915" cy="-212" rx="0.036" ry="0.036"/>
</g>
<!-- _3DG&#45;&gt;v6_intermediate_r -->
<g id="edge24" class="edge"><title>_3DG&#45;&gt;v6_intermediate_r</title>
<path fill="none" stroke="black" d="M877.934,-209.673C894.393,-210.735 912.81,-211.923 913.945,-211.996"/>
</g>
<!-- FA -->
<g id="FA [CHEBI:30751]" class="node"><title>FA</title>
<ellipse fill="none" stroke="black" cx="1277" cy="-154" rx="18" ry="18"/>
<text text-anchor="middle" x="1277" y="-151.5" font-family="Times,serif" font-size="10.00">FA</text>
</g>
<!-- _1DG -->
<g id="_1DG" class="node"><title>_1DG</title>
<ellipse fill="none" stroke="black" cx="851" cy="-56" rx="27" ry="18"/>
<text text-anchor="middle" x="851" y="-53.5" font-family="Times,serif" font-size="10.00">_1DG</text>
</g>
<!-- v8_intermediate_r -->
<g id="node37" class="node"><title>v8_intermediate_r</title>
<ellipse fill="black" stroke="black" cx="915" cy="-68" rx="0.036" ry="0.036"/>
</g>
<!-- _1DG&#45;&gt;v8_intermediate_r -->
<g id="edge33" class="edge"><title>_1DG&#45;&gt;v8_intermediate_r</title>
<path fill="none" stroke="black" d="M877.218,-60.8809C893.846,-64.0993 912.776,-67.7632 913.943,-67.989"/>
</g>
<!-- v9_intermediate_r -->
<g id="node40" class="node"><title>v9_intermediate_r</title>
<ellipse fill="black" stroke="black" cx="959" cy="-41" rx="0.036" ry="0.036"/>
</g>
<!-- _1DG&#45;&gt;v9_intermediate_r -->
<g id="edge37" class="edge"><title>_1DG&#45;&gt;v9_intermediate_r</title>
<path fill="none" stroke="black" d="M877.66,-52.3689C908.05,-48.0684 954.957,-41.4307 957.859,-41.02"/>
</g>
<!-- AA -->
<g id="AA [CHEBI:15366]" class="node"><title>AA</title>
<ellipse fill="none" stroke="black" cx="1277" cy="-46" rx="18" ry="18"/>
<text text-anchor="middle" x="1277" y="-43.5" font-family="Times,serif" font-size="10.00">AA</text>
</g>
<!-- Man -->
<g id="Man [CHEBI:14575]" class="node"><title>Man</title>
<ellipse fill="none" stroke="black" cx="446" cy="-240" rx="18" ry="18"/>
<text text-anchor="middle" x="446" y="-237.5" font-family="Times,serif" font-size="10.00">Man</text>
</g>
<!-- v12_intermediate_r -->
<g id="node49" class="node"><title>v12_intermediate_r</title>
<ellipse fill="black" stroke="black" cx="501" cy="-240" rx="0.036" ry="0.036"/>
</g>
<!-- Man&#45;&gt;v12_intermediate_r -->
<g id="edge51" class="edge"><title>Man&#45;&gt;v12_intermediate_r</title>
<path fill="none" stroke="black" d="M464.061,-240C479.071,-240 498.727,-240 499.941,-240"/>
</g>
<!-- Glu -->
<g id="Glu [CHEBI:17234]" class="node"><title>Glu</title>
<ellipse fill="none" stroke="black" cx="644" cy="-240" rx="18" ry="18"/>
<text text-anchor="middle" x="644" y="-237.5" font-family="Times,serif" font-size="10.00">Glu</text>
</g>
<!-- v13_intermediate_r -->
<g id="node52" class="node"><title>v13_intermediate_r</title>
<ellipse fill="black" stroke="black" cx="699" cy="-237" rx="0.036" ry="0.036"/>
</g>
<!-- Glu&#45;&gt;v13_intermediate_r -->
<g id="edge55" class="edge"><title>Glu&#45;&gt;v13_intermediate_r</title>
<path fill="none" stroke="black" d="M662.061,-239.034C677.071,-238.185 696.727,-237.072 697.941,-237.003"/>
</g>
<!-- MG -->
<g id="MG [CHEBI:17158]" class="node"><title>MG</title>
<ellipse fill="none" stroke="black" cx="1277" cy="-100" rx="18" ry="18"/>
<text text-anchor="middle" x="1277" y="-97.5" font-family="Times,serif" font-size="10.00">MG</text>
</g>
<!-- Mel -->
<g id="Mel" class="node"><title>Mel</title>
<ellipse fill="none" stroke="black" cx="1277" cy="-208" rx="27" ry="18"/>
<text text-anchor="middle" x="1277" y="-205.5" font-family="Times,serif" font-size="10.00">Mel</text>
</g>
<!-- Fru -->
<g id="Fru [CHEBI:28757]" class="node"><title>Fru</title>
<ellipse fill="none" stroke="black" cx="446" cy="-18" rx="18" ry="18"/>
<text text-anchor="middle" x="446" y="-15.5" font-family="Times,serif" font-size="10.00">Fru</text>
</g>
<!-- v1 -->
<g id="node15" class="node"><title>v1</title>
<polygon fill="none" stroke="black" points="140,-183 126,-183 126,-169 140,-169 140,-183"/>
</g>
<!-- v1_intermediate_p -->
<g id="node17" class="node"><title>v1_intermediate_p</title>
<ellipse fill="black" stroke="black" cx="177" cy="-180" rx="0.036" ry="0.036"/>
</g>
<!-- v1&#45;&gt;v1_intermediate_p -->
<g id="edge3" class="edge"><title>v1&#45;&gt;v1_intermediate_p</title>
<path fill="none" stroke="black" d="M140.197,-176.59C151.515,-177.668 174.505,-179.858 175.93,-179.993"/>
</g>
<!-- v1_intermediate_r&#45;&gt;v1 -->
<g id="edge1" class="edge"><title>v1_intermediate_r&#45;&gt;v1</title>
<path fill="none" stroke="black" d="M91.1176,-160.046C92.9212,-160.75 115.016,-169.372 125.95,-173.639"/>
</g>
<!-- v1_intermediate_p&#45;&gt;E1 -->
<g id="edge4" class="edge"><title>v1_intermediate_p&#45;&gt;E1</title>
<path fill="none" stroke="black" d="M178.045,-180.007C178.869,-180.14 190.904,-182.081 204.151,-184.218"/>
<polygon fill="black" stroke="black" points="203.922,-187.726 214.351,-185.863 205.036,-180.815 203.922,-187.726"/>
</g>
<!-- v2 -->
<g id="node18" class="node"><title>v2</title>
<polygon fill="none" stroke="black" points="140,-101 126,-101 126,-87 140,-87 140,-101"/>
</g>
<!-- v2_intermediate_p -->
<g id="node20" class="node"><title>v2_intermediate_p</title>
<ellipse fill="black" stroke="black" cx="177" cy="-91" rx="0.036" ry="0.036"/>
</g>
<!-- v2&#45;&gt;v2_intermediate_p -->
<g id="edge7" class="edge"><title>v2&#45;&gt;v2_intermediate_p</title>
<path fill="none" stroke="black" d="M140.197,-93.5573C151.515,-92.7489 174.505,-91.1068 175.93,-91.005"/>
</g>
<!-- v2_intermediate_r&#45;&gt;v2 -->
<g id="edge5" class="edge"><title>v2_intermediate_r&#45;&gt;v2</title>
<path fill="none" stroke="black" d="M91.1176,-101.977C92.9212,-101.625 115.016,-97.314 125.95,-95.1804"/>
</g>
<!-- v2_intermediate_p&#45;&gt;E2 -->
<g id="edge8" class="edge"><title>v2_intermediate_p&#45;&gt;E2</title>
<path fill="none" stroke="black" d="M178.045,-90.9978C178.863,-90.9582 190.734,-90.3838 203.87,-89.7482"/>
<polygon fill="black" stroke="black" points="204.179,-93.2375 213.998,-89.2581 203.841,-86.2456 204.179,-93.2375"/>
</g>
<!-- v3 -->
<g id="node21" class="node"><title>v3</title>
<polygon fill="none" stroke="black" points="356,-139 342,-139 342,-125 356,-125 356,-139"/>
</g>
<!-- v3_intermediate_p -->
<g id="node23" class="node"><title>v3_intermediate_p</title>
<ellipse fill="black" stroke="black" cx="392" cy="-132" rx="0.036" ry="0.036"/>
</g>
<!-- v3&#45;&gt;v3_intermediate_p -->
<g id="edge11" class="edge"><title>v3&#45;&gt;v3_intermediate_p</title>
<path fill="none" stroke="black" d="M356.05,-132C367.098,-132 389.54,-132 390.932,-132"/>
</g>
<!-- v3_intermediate_r&#45;&gt;v3 -->
<g id="edge9" class="edge"><title>v3_intermediate_r&#45;&gt;v3</title>
<path fill="none" stroke="black" d="M91.1366,-134C93.9422,-134 139.403,-134 176,-134 176,-134 176,-134 242,-134 279.916,-134 325.448,-132.705 341.788,-132.199"/>
</g>
<!-- v3_intermediate_p&#45;&gt;Gly -->
<g id="edge12" class="edge"><title>v3_intermediate_p&#45;&gt;Gly</title>
<path fill="none" stroke="black" d="M393.149,-132.046C394.625,-132.5 406.815,-136.251 419.003,-140.001"/>
<polygon fill="black" stroke="black" points="417.987,-143.35 428.574,-142.946 420.045,-136.66 417.987,-143.35"/>
</g>
<!-- v3_intermediate_p&#45;&gt;Cn -->
<g id="edge13" class="edge"><title>v3_intermediate_p&#45;&gt;Cn</title>
<path fill="none" stroke="black" d="M393.167,-131.914C396.593,-130.154 452.154,-102 500,-102 500,-102 500,-102 960,-102 987.684,-102 1019.32,-101.673 1041.35,-101.394"/>
<polygon fill="black" stroke="black" points="1041.68,-104.89 1051.63,-101.258 1041.59,-97.8903 1041.68,-104.89"/>
</g>
<!-- v4 -->
<g id="node24" class="node"><title>v4</title>
<polygon fill="none" stroke="black" points="356,-171 342,-171 342,-157 356,-157 356,-171"/>
</g>
<!-- v4_intermediate_p -->
<g id="node26" class="node"><title>v4_intermediate_p</title>
<ellipse fill="black" stroke="black" cx="392" cy="-164" rx="0.036" ry="0.036"/>
</g>
<!-- v4&#45;&gt;v4_intermediate_p -->
<g id="edge16" class="edge"><title>v4&#45;&gt;v4_intermediate_p</title>
<path fill="none" stroke="black" d="M356.05,-164C367.098,-164 389.54,-164 390.932,-164"/>
</g>
<!-- v4_intermediate_r&#45;&gt;v4 -->
<g id="edge14" class="edge"><title>v4_intermediate_r&#45;&gt;v4</title>
<path fill="none" stroke="black" d="M306.12,-166.991C307.968,-166.859 330.602,-165.243 341.803,-164.443"/>
</g>
<!-- v4_intermediate_p&#45;&gt;Gly -->
<g id="edge17" class="edge"><title>v4_intermediate_p&#45;&gt;Gly</title>
<path fill="none" stroke="black" d="M393.149,-163.954C394.625,-163.5 406.815,-159.749 419.003,-155.999"/>
<polygon fill="black" stroke="black" points="420.045,-159.34 428.574,-153.054 417.987,-152.65 420.045,-159.34"/>
</g>
<!-- v4_intermediate_p&#45;&gt;_3DG -->
<g id="edge18" class="edge"><title>v4_intermediate_p&#45;&gt;_3DG</title>
<path fill="none" stroke="black" d="M393.167,-164.086C396.593,-165.846 452.154,-194 500,-194 500,-194 500,-194 744,-194 767.82,-194 794.393,-197.518 814.974,-201.026"/>
<polygon fill="black" stroke="black" points="814.392,-204.478 824.851,-202.787 815.62,-197.586 814.392,-204.478"/>
</g>
<!-- v5 -->
<g id="node27" class="node"><title>v5</title>
<polygon fill="none" stroke="black" points="966,-189 952,-189 952,-175 966,-175 966,-189"/>
</g>
<!-- v5_intermediate_p -->
<g id="node29" class="node"><title>v5_intermediate_p</title>
<ellipse fill="black" stroke="black" cx="1009" cy="-178" rx="0.036" ry="0.036"/>
</g>
<!-- v5&#45;&gt;v5_intermediate_p -->
<g id="edge21" class="edge"><title>v5&#45;&gt;v5_intermediate_p</title>
<path fill="none" stroke="black" d="M966.275,-181.477C978.88,-180.427 1006.22,-178.148 1007.92,-178.007"/>
</g>
<!-- v5_intermediate_r&#45;&gt;v5 -->
<g id="edge19" class="edge"><title>v5_intermediate_r&#45;&gt;v5</title>
<path fill="none" stroke="black" d="M916.12,-185.989C917.968,-185.813 940.602,-183.657 951.803,-182.59"/>
</g>
<!-- v5_intermediate_p&#45;&gt;Cn -->
<g id="edge22" class="edge"><title>v5_intermediate_p&#45;&gt;Cn</title>
<path fill="none" stroke="black" d="M1010.04,-177.944C1011.19,-176.45 1035.07,-145.276 1052.09,-123.073"/>
<polygon fill="black" stroke="black" points="1054.9,-125.15 1058.21,-115.084 1049.35,-120.893 1054.9,-125.15"/>
</g>
<!-- v6 -->
<g id="node30" class="node"><title>v6</title>
<polygon fill="none" stroke="black" points="1016,-217 1002,-217 1002,-203 1016,-203 1016,-217"/>
</g>
<!-- v6_intermediate_p -->
<g id="node32" class="node"><title>v6_intermediate_p</title>
<ellipse fill="black" stroke="black" cx="1070" cy="-206" rx="0.036" ry="0.036"/>
</g>
<!-- v6&#45;&gt;v6_intermediate_p -->
<g id="edge25" class="edge"><title>v6&#45;&gt;v6_intermediate_p</title>
<path fill="none" stroke="black" d="M1016.31,-209.572C1031.06,-208.572 1066.68,-206.157 1068.89,-206.007"/>
</g>
<!-- v6_intermediate_r&#45;&gt;v6 -->
<g id="edge23" class="edge"><title>v6_intermediate_r&#45;&gt;v6</title>
<path fill="none" stroke="black" d="M916.067,-211.999C918.406,-211.948 981.66,-210.573 1001.86,-210.133"/>
</g>
<!-- v6_intermediate_p&#45;&gt;FA -->
<g id="edge26" class="edge"><title>v6_intermediate_p&#45;&gt;FA</title>
<path fill="none" stroke="black" d="M1071.06,-205.99C1073.51,-205.572 1152.3,-192.077 1214,-175 1226.08,-171.658 1239.25,-167.299 1250.34,-163.42"/>
<polygon fill="black" stroke="black" points="1251.59,-166.687 1259.84,-160.035 1249.24,-160.093 1251.59,-166.687"/>
</g>
<!-- v7 -->
<g id="node33" class="node"><title>v7</title>
<polygon fill="none" stroke="black" points="356,-104 342,-104 342,-90 356,-90 356,-104"/>
</g>
<!-- v7_intermediate_p -->
<g id="node35" class="node"><title>v7_intermediate_p</title>
<ellipse fill="black" stroke="black" cx="392" cy="-97" rx="0.036" ry="0.036"/>
</g>
<!-- v7&#45;&gt;v7_intermediate_p -->
<g id="edge29" class="edge"><title>v7&#45;&gt;v7_intermediate_p</title>
<path fill="none" stroke="black" d="M356.05,-97C367.098,-97 389.54,-97 390.932,-97"/>
</g>
<!-- v7_intermediate_r&#45;&gt;v7 -->
<g id="edge27" class="edge"><title>v7_intermediate_r&#45;&gt;v7</title>
<path fill="none" stroke="black" d="M306.12,-94.0086C307.968,-94.1406 330.602,-95.7573 341.803,-96.5573"/>
</g>
<!-- v7_intermediate_p&#45;&gt;Gly -->
<g id="edge30" class="edge"><title>v7_intermediate_p&#45;&gt;Gly</title>
<path fill="none" stroke="black" d="M393.149,-97.1463C394.878,-98.8421 411.31,-114.958 425.219,-128.6"/>
<polygon fill="black" stroke="black" points="422.988,-131.313 432.578,-135.817 427.889,-126.316 422.988,-131.313"/>
</g>
<!-- v7_intermediate_p&#45;&gt;_1DG -->
<g id="edge31" class="edge"><title>v7_intermediate_p&#45;&gt;_1DG</title>
<path fill="none" stroke="black" d="M393.166,-96.9053C396.57,-94.9697 451.789,-64 500,-64 500,-64 500,-64 744,-64 767.416,-64 793.66,-62.0348 814.176,-60.0524"/>
<polygon fill="black" stroke="black" points="814.741,-63.5132 824.338,-59.0245 814.036,-56.5488 814.741,-63.5132"/>
</g>
<!-- v8 -->
<g id="node36" class="node"><title>v8</title>
<polygon fill="none" stroke="black" points="966,-74 952,-74 952,-60 966,-60 966,-74"/>
</g>
<!-- v8_intermediate_p -->
<g id="node38" class="node"><title>v8_intermediate_p</title>
<ellipse fill="black" stroke="black" cx="1009" cy="-71" rx="0.036" ry="0.036"/>
</g>
<!-- v8&#45;&gt;v8_intermediate_p -->
<g id="edge34" class="edge"><title>v8&#45;&gt;v8_intermediate_p</title>
<path fill="none" stroke="black" d="M966.275,-67.5229C978.88,-68.5733 1006.22,-70.8517 1007.92,-70.9931"/>
</g>
<!-- v8_intermediate_r&#45;&gt;v8 -->
<g id="edge32" class="edge"><title>v8_intermediate_r&#45;&gt;v8</title>
<path fill="none" stroke="black" d="M916.12,-67.9971C917.968,-67.9531 940.602,-67.4142 951.803,-67.1476"/>
</g>
<!-- v8_intermediate_p&#45;&gt;Cn -->
<g id="edge35" class="edge"><title>v8_intermediate_p&#45;&gt;Cn</title>
<path fill="none" stroke="black" d="M1010.17,-71.0861C1012.05,-72.0424 1029.26,-80.7942 1044.59,-88.586"/>
<polygon fill="black" stroke="black" points="1043.23,-91.8226 1053.73,-93.2352 1046.4,-85.5829 1043.23,-91.8226"/>
</g>
<!-- v9 -->
<g id="node39" class="node"><title>v9</title>
<polygon fill="none" stroke="black" points="1016,-50 1002,-50 1002,-36 1016,-36 1016,-50"/>
</g>
<!-- v9_intermediate_p -->
<g id="node41" class="node"><title>v9_intermediate_p</title>
<ellipse fill="black" stroke="black" cx="1070" cy="-45" rx="0.036" ry="0.036"/>
</g>
<!-- v9&#45;&gt;v9_intermediate_p -->
<g id="edge38" class="edge"><title>v9&#45;&gt;v9_intermediate_p</title>
<path fill="none" stroke="black" d="M1016.31,-43.214C1031.06,-43.7139 1066.68,-44.9214 1068.89,-44.9963"/>
</g>
<!-- v9_intermediate_r&#45;&gt;v9 -->
<g id="edge36" class="edge"><title>v9_intermediate_r&#45;&gt;v9</title>
<path fill="none" stroke="black" d="M960.138,-41.0057C962.293,-41.0956 989.204,-42.2168 1001.7,-42.7375"/>
</g>
<!-- v9_intermediate_p&#45;&gt;AA -->
<g id="edge39" class="edge"><title>v9_intermediate_p&#45;&gt;AA</title>
<path fill="none" stroke="black" d="M1071.15,-45.0007C1075.91,-45.024 1193.94,-45.5997 1248.64,-45.8665"/>
<polygon fill="black" stroke="black" points="1248.66,-49.3666 1258.68,-45.9155 1248.7,-42.3667 1248.66,-49.3666"/>
</g>
<!-- v10 -->
<g id="node42" class="node"><title>v10</title>
<polygon fill="none" stroke="black" points="356,-203 342,-203 342,-189 356,-189 356,-203"/>
</g>
<!-- v10_intermediate_p -->
<g id="node44" class="node"><title>v10_intermediate_p</title>
<ellipse fill="black" stroke="black" cx="392" cy="-196" rx="0.036" ry="0.036"/>
</g>
<!-- v10&#45;&gt;v10_intermediate_p -->
<g id="edge42" class="edge"><title>v10&#45;&gt;v10_intermediate_p</title>
<path fill="none" stroke="black" d="M356.05,-196C367.098,-196 389.54,-196 390.932,-196"/>
</g>
<!-- v10_intermediate_r&#45;&gt;v10 -->
<g id="edge40" class="edge"><title>v10_intermediate_r&#45;&gt;v10</title>
<path fill="none" stroke="black" d="M306.12,-192.011C307.968,-192.187 330.602,-194.343 341.803,-195.41"/>
</g>
<!-- v10_intermediate_p&#45;&gt;Gly -->
<g id="edge43" class="edge"><title>v10_intermediate_p&#45;&gt;Gly</title>
<path fill="none" stroke="black" d="M393.149,-195.862C394.852,-194.29 410.82,-179.551 424.591,-166.839"/>
<polygon fill="black" stroke="black" points="427.347,-169.058 432.321,-159.704 422.599,-163.915 427.347,-169.058"/>
</g>
<!-- v10_intermediate_p&#45;&gt;Man -->
<g id="edge44" class="edge"><title>v10_intermediate_p&#45;&gt;Man</title>
<path fill="none" stroke="black" d="M393.149,-196.126C394.832,-197.55 410.448,-210.764 424.107,-222.321"/>
<polygon fill="black" stroke="black" points="421.908,-225.045 431.803,-228.833 426.429,-219.702 421.908,-225.045"/>
</g>
<!-- v11 -->
<g id="node45" class="node"><title>v11</title>
<polygon fill="none" stroke="black" points="356,-235 342,-235 342,-221 356,-221 356,-235"/>
</g>
<!-- v11_intermediate_p -->
<g id="node47" class="node"><title>v11_intermediate_p</title>
<ellipse fill="black" stroke="black" cx="392" cy="-228" rx="0.036" ry="0.036"/>
</g>
<!-- v11&#45;&gt;v11_intermediate_p -->
<g id="edge47" class="edge"><title>v11&#45;&gt;v11_intermediate_p</title>
<path fill="none" stroke="black" d="M356.05,-228C367.098,-228 389.54,-228 390.932,-228"/>
</g>
<!-- v11_intermediate_r&#45;&gt;v11 -->
<g id="edge45" class="edge"><title>v11_intermediate_r&#45;&gt;v11</title>
<path fill="none" stroke="black" d="M306.12,-224.011C307.968,-224.187 330.602,-226.343 341.803,-227.41"/>
</g>
<!-- v11_intermediate_p&#45;&gt;Gly -->
<g id="edge48" class="edge"><title>v11_intermediate_p&#45;&gt;Gly</title>
<path fill="none" stroke="black" d="M393.038,-227.942C394.042,-226.397 414.914,-194.286 429.895,-171.239"/>
<polygon fill="black" stroke="black" points="432.973,-172.924 435.489,-162.633 427.104,-169.109 432.973,-172.924"/>
</g>
<!-- v11_intermediate_p&#45;&gt;Glu -->
<g id="edge49" class="edge"><title>v11_intermediate_p&#45;&gt;Glu</title>
<path fill="none" stroke="black" d="M393.044,-228.077C393.95,-229.664 408.75,-255.232 428,-267 456.237,-284.262 466.905,-286 500,-286 500,-286 500,-286 546,-286 573.996,-286 602.534,-270.163 621.34,-257.074"/>
<polygon fill="black" stroke="black" points="623.474,-259.849 629.501,-251.135 619.356,-254.189 623.474,-259.849"/>
</g>
<!-- v12 -->
<g id="node48" class="node"><title>v12</title>
<polygon fill="none" stroke="black" points="552,-247 538,-247 538,-233 552,-233 552,-247"/>
</g>
<!-- v12_intermediate_p -->
<g id="node50" class="node"><title>v12_intermediate_p</title>
<ellipse fill="black" stroke="black" cx="589" cy="-240" rx="0.036" ry="0.036"/>
</g>
<!-- v12&#45;&gt;v12_intermediate_p -->
<g id="edge52" class="edge"><title>v12&#45;&gt;v12_intermediate_p</title>
<path fill="none" stroke="black" d="M552.197,-240C563.515,-240 586.505,-240 587.93,-240"/>
</g>
<!-- v12_intermediate_r&#45;&gt;v12 -->
<g id="edge50" class="edge"><title>v12_intermediate_r&#45;&gt;v12</title>
<path fill="none" stroke="black" d="M502.12,-240C503.968,-240 526.602,-240 537.803,-240"/>
</g>
<!-- v12_intermediate_p&#45;&gt;Glu -->
<g id="edge53" class="edge"><title>v12_intermediate_p&#45;&gt;Glu</title>
<path fill="none" stroke="black" d="M590.152,-240C591.632,-240 603.681,-240 615.9,-240"/>
<polygon fill="black" stroke="black" points="615.975,-243.5 625.975,-240 615.975,-236.5 615.975,-243.5"/>
</g>
<!-- v13 -->
<g id="node51" class="node"><title>v13</title>
<polygon fill="none" stroke="black" points="750,-239 736,-239 736,-225 750,-225 750,-239"/>
</g>
<!-- v13_intermediate_p -->
<g id="node53" class="node"><title>v13_intermediate_p</title>
<ellipse fill="black" stroke="black" cx="787" cy="-227" rx="0.036" ry="0.036"/>
</g>
<!-- v13&#45;&gt;v13_intermediate_p -->
<g id="edge56" class="edge"><title>v13&#45;&gt;v13_intermediate_p</title>
<path fill="none" stroke="black" d="M750.197,-231.262C761.515,-229.915 784.505,-227.178 785.93,-227.008"/>
</g>
<!-- v13_intermediate_r&#45;&gt;v13 -->
<g id="edge54" class="edge"><title>v13_intermediate_r&#45;&gt;v13</title>
<path fill="none" stroke="black" d="M700.12,-236.986C701.968,-236.766 724.602,-234.071 735.803,-232.738"/>
</g>
<!-- v13_intermediate_p&#45;&gt;_3DG -->
<g id="edge57" class="edge"><title>v13_intermediate_p&#45;&gt;_3DG</title>
<path fill="none" stroke="black" d="M788.045,-226.986C788.915,-226.72 802.282,-222.623 816.377,-218.304"/>
<polygon fill="black" stroke="black" points="817.571,-221.599 826.107,-215.322 815.52,-214.906 817.571,-221.599"/>
</g>
<!-- v14 -->
<g id="node54" class="node"><title>v14</title>
<polygon fill="none" stroke="black" points="1176,-168 1162,-168 1162,-154 1176,-154 1176,-168"/>
</g>
<!-- v14_intermediate_p -->
<g id="node56" class="node"><title>v14_intermediate_p</title>
<ellipse fill="black" stroke="black" cx="1213" cy="-166" rx="0.036" ry="0.036"/>
</g>
<!-- v14&#45;&gt;v14_intermediate_p -->
<g id="edge61" class="edge"><title>v14&#45;&gt;v14_intermediate_p</title>
<path fill="none" stroke="black" d="M1176.2,-161.738C1187.52,-163.085 1210.5,-165.822 1211.93,-165.992"/>
</g>
<!-- v14_intermediate_r&#45;&gt;v14 -->
<g id="edge58" class="edge"><title>v14_intermediate_r&#45;&gt;v14</title>
<path fill="none" stroke="black" d="M1126.12,-147.04C1127.97,-147.656 1150.6,-155.201 1161.8,-158.934"/>
</g>
<!-- v14_intermediate_p&#45;&gt;Mel -->
<g id="edge62" class="edge"><title>v14_intermediate_p&#45;&gt;Mel</title>
<path fill="none" stroke="black" d="M1214.04,-166.03C1215.06,-166.716 1232.97,-178.85 1249.27,-189.895"/>
<polygon fill="black" stroke="black" points="1247.31,-192.794 1257.56,-195.505 1251.24,-186.999 1247.31,-192.794"/>
</g>
<!-- v15 -->
<g id="node57" class="node"><title>v15</title>
<polygon fill="none" stroke="black" points="1176,-107 1162,-107 1162,-93 1176,-93 1176,-107"/>
</g>
<!-- v15_intermediate_p -->
<g id="node59" class="node"><title>v15_intermediate_p</title>
<ellipse fill="black" stroke="black" cx="1213" cy="-100" rx="0.036" ry="0.036"/>
</g>
<!-- v15&#45;&gt;v15_intermediate_p -->
<g id="edge65" class="edge"><title>v15&#45;&gt;v15_intermediate_p</title>
<path fill="none" stroke="black" d="M1176.2,-100C1187.52,-100 1210.5,-100 1211.93,-100"/>
</g>
<!-- v15_intermediate_r&#45;&gt;v15 -->
<g id="edge63" class="edge"><title>v15_intermediate_r&#45;&gt;v15</title>
<path fill="none" stroke="black" d="M1126.12,-100.997C1127.97,-100.953 1150.6,-100.414 1161.8,-100.148"/>
</g>
<!-- v15_intermediate_p&#45;&gt;AA -->
<g id="edge66" class="edge"><title>v15_intermediate_p&#45;&gt;AA</title>
<path fill="none" stroke="black" d="M1214.04,-99.9609C1215.18,-98.9694 1237.72,-79.3408 1255.29,-64.0409"/>
<polygon fill="black" stroke="black" points="1257.67,-66.6055 1262.91,-57.3984 1253.07,-61.3269 1257.67,-66.6055"/>
</g>
<!-- v15_intermediate_p&#45;&gt;FA -->
<g id="edge67" class="edge"><title>v15_intermediate_p&#45;&gt;FA</title>
<path fill="none" stroke="black" d="M1214.04,-100.039C1215.18,-101.031 1237.72,-120.659 1255.29,-135.959"/>
<polygon fill="black" stroke="black" points="1253.07,-138.673 1262.91,-142.602 1257.67,-133.394 1253.07,-138.673"/>
</g>
<!-- v15_intermediate_p&#45;&gt;MG -->
<g id="edge68" class="edge"><title>v15_intermediate_p&#45;&gt;MG</title>
<path fill="none" stroke="black" d="M1214.04,-100C1215.04,-100 1232.51,-100 1248.64,-100"/>
<polygon fill="black" stroke="black" points="1248.86,-103.5 1258.86,-100 1248.86,-96.5001 1248.86,-103.5"/>
</g>
<!-- v16 -->
<g id="node60" class="node"><title>v16</title>
<polygon fill="none" stroke="black" points="356,-72 342,-72 342,-58 356,-58 356,-72"/>
</g>
<!-- v16_intermediate_p -->
<g id="node62" class="node"><title>v16_intermediate_p</title>
<ellipse fill="black" stroke="black" cx="392" cy="-65" rx="0.036" ry="0.036"/>
</g>
<!-- v16&#45;&gt;v16_intermediate_p -->
<g id="edge71" class="edge"><title>v16&#45;&gt;v16_intermediate_p</title>
<path fill="none" stroke="black" d="M356.05,-65C367.098,-65 389.54,-65 390.932,-65"/>
</g>
<!-- v16_intermediate_r&#45;&gt;v16 -->
<g id="edge69" class="edge"><title>v16_intermediate_r&#45;&gt;v16</title>
<path fill="none" stroke="black" d="M306.12,-71.9799C307.968,-71.672 330.602,-67.8997 341.803,-66.0329"/>
</g>
<!-- v16_intermediate_p&#45;&gt;Gly -->
<g id="edge72" class="edge"><title>v16_intermediate_p&#45;&gt;Gly</title>
<path fill="none" stroke="black" d="M393.038,-65.0602C394.052,-66.6794 415.327,-100.638 430.336,-124.594"/>
<polygon fill="black" stroke="black" points="427.451,-126.581 435.726,-133.197 433.383,-122.865 427.451,-126.581"/>
</g>
<!-- v16_intermediate_p&#45;&gt;Fru -->
<g id="edge73" class="edge"><title>v16_intermediate_p&#45;&gt;Fru</title>
<path fill="none" stroke="black" d="M393.149,-64.8652C394.842,-63.3348 410.634,-49.0619 424.349,-36.6652"/>
<polygon fill="black" stroke="black" points="426.991,-38.9955 432.063,-29.6935 422.297,-33.8023 426.991,-38.9955"/>
</g>
</g>
</svg>
