<?xml version="1.0" encoding="UTF-8" standalone="no"?>
<!DOCTYPE svg PUBLIC "-//W3C//DTD SVG 1.1//EN"
 "http://www.w3.org/Graphics/SVG/1.1/DTD/svg11.dtd">
<!-- Generated by graphviz version 2.24.0 (20090616.2323)
 -->
<!-- Title: G Pages: 1 -->
<svg width="1640pt" height="594pt"
 viewBox="0.00 0.00 1640.00 593.81" xmlns="http://www.w3.org/2000/svg" xmlns:xlink="http://www.w3.org/1999/xlink">
<g id="graph1" class="graph" transform="scale(1 1) rotate(0) translate(4 589.805)">
<title>G</title>
<polygon fill="white" stroke="white" points="-4,5 -4,-589.805 1637,-589.805 1637,5 -4,5"/>
<!-- PAMP -->
<g id="node1" class="node"><title>PAMP</title>
<ellipse fill="none" stroke="black" cx="358" cy="-362.805" rx="27.1978" ry="18"/>
<text text-anchor="middle" x="358" y="-360.305" font-family="Times Roman,serif" font-size="10.00">PAMP</text>
</g>
<!-- PAMP_recognition_intermediate_r -->
<g id="node12" class="node"><title>PAMP_recognition_intermediate_r</title>
<ellipse fill="black" stroke="black" cx="423" cy="-417.805" rx="0.036" ry="0.036"/>
</g>
<!-- PAMP&#45;&gt;PAMP_recognition_intermediate_r -->
<g id="edge6" class="edge"><title>PAMP&#45;&gt;PAMP_recognition_intermediate_r</title>
<path fill="none" stroke="black" d="M382.897,-383.872C400.58,-398.835 421.443,-416.488 422.917,-417.735"/>
<polygon fill="black" stroke="black" points="384.973,-381.044 375.078,-377.256 380.451,-386.387 384.973,-381.044"/>
</g>
<!-- PAMP_recognition_intermediate_m -->
<g id="node19" class="node"><title>PAMP_recognition_intermediate_m</title>
<ellipse fill="black" stroke="black" cx="691" cy="-413.805" rx="0.036" ry="0.036"/>
</g>
<!-- PAMP&#45;&gt;PAMP_recognition_intermediate_m -->
<g id="edge16" class="edge"><title>PAMP&#45;&gt;PAMP_recognition_intermediate_m</title>
<path fill="none" stroke="black" d="M385.5,-363.986C425.165,-365.996 500.631,-370.967 564,-381.805 620.479,-391.466 688.827,-413.115 690.949,-413.789"/>
</g>
<!-- PAMP_removal_intermediate_r -->
<g id="node47" class="node"><title>PAMP_removal_intermediate_r</title>
<ellipse fill="black" stroke="black" cx="423" cy="-327.805" rx="0.036" ry="0.036"/>
</g>
<!-- PAMP&#45;&gt;PAMP_removal_intermediate_r -->
<g id="edge50" class="edge"><title>PAMP&#45;&gt;PAMP_removal_intermediate_r</title>
<path fill="none" stroke="black" d="M379.283,-351.345C397.648,-341.457 421.458,-328.636 422.928,-327.844"/>
</g>
<!-- PAMP_removal_intermediate_m -->
<g id="node52" class="node"><title>PAMP_removal_intermediate_m</title>
<ellipse fill="black" stroke="black" cx="537" cy="-280.805" rx="0.036" ry="0.036"/>
</g>
<!-- PAMP&#45;&gt;PAMP_removal_intermediate_m -->
<g id="edge56" class="edge"><title>PAMP&#45;&gt;PAMP_removal_intermediate_m</title>
<path fill="none" stroke="black" d="M375.634,-348.651C388.037,-339.218 405.333,-327.078 422,-318.805 469.463,-295.248 534.918,-281.247 536.951,-280.816"/>
</g>
<!-- R -->
<g id="node2" class="node"><title>R</title>
<ellipse fill="none" stroke="black" cx="1213" cy="-152.805" rx="27" ry="18"/>
<text text-anchor="middle" x="1213" y="-150.305" font-family="Times Roman,serif" font-size="10.00">R</text>
</g>
<!-- Effector_recognition_intermediate_r -->
<g id="node25" class="node"><title>Effector_recognition_intermediate_r</title>
<ellipse fill="black" stroke="black" cx="1277" cy="-167.805" rx="0.036" ry="0.036"/>
</g>
<!-- R&#45;&gt;Effector_recognition_intermediate_r -->
<g id="edge22" class="edge"><title>R&#45;&gt;Effector_recognition_intermediate_r</title>
<path fill="none" stroke="black" d="M1248.5,-161.125C1262.69,-164.451 1275.95,-167.559 1276.94,-167.791"/>
<polygon fill="black" stroke="black" points="1249.2,-157.694 1238.66,-158.82 1247.6,-164.51 1249.2,-157.694"/>
</g>
<!-- Effector_recognition_intermediate_m -->
<g id="node32" class="node"><title>Effector_recognition_intermediate_m</title>
<ellipse fill="black" stroke="black" cx="1545" cy="-166.805" rx="0.036" ry="0.036"/>
</g>
<!-- R&#45;&gt;Effector_recognition_intermediate_m -->
<g id="edge32" class="edge"><title>R&#45;&gt;Effector_recognition_intermediate_m</title>
<path fill="none" stroke="black" d="M1234.74,-142C1256.14,-132.376 1290.02,-119.805 1321,-119.805 1321,-119.805 1321,-119.805 1391,-119.805 1461.44,-119.805 1542.43,-165.348 1544.94,-166.771"/>
</g>
<!-- R_0 -->
<g id="node3" class="node"><title>R_0</title>
<ellipse fill="none" stroke="black" cx="1481" cy="-241.805" rx="27" ry="18"/>
<text text-anchor="middle" x="1481" y="-239.305" font-family="Times Roman,serif" font-size="10.00">R*</text>
</g>
<!-- R_0&#45;&gt;Effector_recognition_intermediate_m -->
<g id="edge36" class="edge"><title>R_0&#45;&gt;Effector_recognition_intermediate_m</title>
<path fill="none" stroke="black" d="M1494.57,-225.9C1512.77,-204.572 1543.04,-169.108 1544.91,-166.912"/>
</g>
<!-- ETI_intermediate_r -->
<g id="node107" class="node"><title>ETI_intermediate_r</title>
<ellipse fill="black" stroke="black" cx="1545" cy="-276.805" rx="0.036" ry="0.036"/>
</g>
<!-- R_0&#45;&gt;ETI_intermediate_r -->
<g id="edge124" class="edge"><title>R_0&#45;&gt;ETI_intermediate_r</title>
<path fill="none" stroke="black" d="M1501.96,-253.266C1520.04,-263.154 1543.48,-275.975 1544.93,-276.767"/>
</g>
<!-- ETI_intermediate_m -->
<g id="node114" class="node"><title>ETI_intermediate_m</title>
<ellipse fill="black" stroke="black" cx="1632" cy="-203.805" rx="0.036" ry="0.036"/>
</g>
<!-- R_0&#45;&gt;ETI_intermediate_m -->
<g id="edge134" class="edge"><title>R_0&#45;&gt;ETI_intermediate_m</title>
<path fill="none" stroke="black" d="M1506.27,-235.445C1548.59,-224.796 1629.42,-204.454 1631.94,-203.821"/>
</g>
<!-- E_int -->
<g id="node4" class="node"><title>E_int</title>
<ellipse fill="none" stroke="black" cx="1213" cy="-289.805" rx="27" ry="18"/>
<text text-anchor="middle" x="1213" y="-287.305" font-family="Times Roman,serif" font-size="10.00">E_int</text>
</g>
<!-- E_int&#45;&gt;Effector_recognition_intermediate_r -->
<g id="edge24" class="edge"><title>E_int&#45;&gt;Effector_recognition_intermediate_r</title>
<path fill="none" stroke="black" d="M1226.9,-263.31C1245.4,-228.039 1275.94,-169.834 1276.97,-167.857"/>
<polygon fill="black" stroke="black" points="1223.58,-262.103 1222.03,-272.585 1229.78,-265.355 1223.58,-262.103"/>
</g>
<!-- E_int&#45;&gt;Effector_recognition_intermediate_m -->
<g id="edge34" class="edge"><title>E_int&#45;&gt;Effector_recognition_intermediate_m</title>
<path fill="none" stroke="black" d="M1236.73,-281.108C1286.87,-262.717 1407.25,-218.478 1508,-180.805 1523.95,-174.84 1543.72,-167.294 1544.94,-166.828"/>
</g>
<!-- E_int_removal_intermediate_r -->
<g id="node98" class="node"><title>E_int_removal_intermediate_r</title>
<ellipse fill="black" stroke="black" cx="1277" cy="-321.805" rx="0.036" ry="0.036"/>
</g>
<!-- E_int&#45;&gt;E_int_removal_intermediate_r -->
<g id="edge112" class="edge"><title>E_int&#45;&gt;E_int_removal_intermediate_r</title>
<path fill="none" stroke="black" d="M1234.67,-300.639C1252.65,-309.632 1275.52,-321.065 1276.93,-321.771"/>
</g>
<!-- E_int_removal_intermediate_m -->
<g id="node103" class="node"><title>E_int_removal_intermediate_m</title>
<ellipse fill="black" stroke="black" cx="1391" cy="-289.805" rx="0.036" ry="0.036"/>
</g>
<!-- E_int&#45;&gt;E_int_removal_intermediate_m -->
<g id="edge118" class="edge"><title>E_int&#45;&gt;E_int_removal_intermediate_m</title>
<path fill="none" stroke="black" d="M1240.03,-289.805C1289.05,-289.805 1387.85,-289.805 1390.93,-289.805"/>
</g>
<!-- Callose_suppression_intermediate_r -->
<g id="node163" class="node"><title>Callose_suppression_intermediate_r</title>
<ellipse fill="black" stroke="black" cx="983" cy="-329.805" rx="0.036" ry="0.036"/>
</g>
<!-- E_int&#45;&gt;Callose_suppression_intermediate_r -->
<g id="edge196" class="edge"><title>E_int&#45;&gt;Callose_suppression_intermediate_r</title>
<path fill="none" stroke="black" d="M1186.24,-292.764C1153.14,-296.629 1095.13,-304.065 1046,-313.805 1018.55,-319.248 985.16,-329.161 983.1,-329.775"/>
</g>
<!-- Callose_suppression_intermediate_m -->
<g id="node170" class="node"><title>Callose_suppression_intermediate_m</title>
<ellipse fill="black" stroke="black" cx="1277" cy="-345.805" rx="0.036" ry="0.036"/>
</g>
<!-- E_int&#45;&gt;Callose_suppression_intermediate_m -->
<g id="edge206" class="edge"><title>E_int&#45;&gt;Callose_suppression_intermediate_m</title>
<path fill="none" stroke="black" d="M1229.48,-304.227C1247.85,-320.301 1275.22,-344.252 1276.92,-345.733"/>
</g>
<!-- Callose -->
<g id="node5" class="node"><title>Callose</title>
<ellipse fill="none" stroke="black" cx="888" cy="-388.805" rx="32.0105" ry="18"/>
<text text-anchor="middle" x="888" y="-386.305" font-family="Times Roman,serif" font-size="10.00">Callose</text>
</g>
<!-- Effector_translocation_intermediate_m -->
<g id="node125" class="node"><title>Effector_translocation_intermediate_m</title>
<ellipse fill="black" stroke="black" cx="983" cy="-299.805" rx="0.036" ry="0.036"/>
</g>
<!-- Callose&#45;&gt;Effector_translocation_intermediate_m -->
<g id="edge146" class="edge"><title>Callose&#45;&gt;Effector_translocation_intermediate_m</title>
<path fill="none" stroke="black" d="M898.206,-371.514C911.176,-354.973 934.472,-330.81 956,-311.805 967.219,-301.902 982.513,-291.147 982.989,-299.398"/>
</g>
<!-- Callose&#45;&gt;Effector_translocation_intermediate_m -->
<g id="edge150" class="edge"><title>Callose&#45;&gt;Effector_translocation_intermediate_m</title>
<path fill="none" stroke="black" d="M908.48,-374.712C921.65,-362.281 939.353,-344.501 956,-329.805 967.219,-319.902 982.513,-309.147 982.989,-300.229"/>
</g>
<!-- Callose_removal_intermediate_r -->
<g id="node142" class="node"><title>Callose_removal_intermediate_r</title>
<ellipse fill="black" stroke="black" cx="983" cy="-438.805" rx="0.036" ry="0.036"/>
</g>
<!-- Callose&#45;&gt;Callose_removal_intermediate_r -->
<g id="edge168" class="edge"><title>Callose&#45;&gt;Callose_removal_intermediate_r</title>
<path fill="none" stroke="black" d="M911.483,-401.165C938.736,-415.509 980.303,-437.386 982.875,-438.739"/>
</g>
<!-- Callose_removal_intermediate_m -->
<g id="node147" class="node"><title>Callose_removal_intermediate_m</title>
<ellipse fill="black" stroke="black" cx="1123" cy="-411.805" rx="0.036" ry="0.036"/>
</g>
<!-- Callose&#45;&gt;Callose_removal_intermediate_m -->
<g id="edge174" class="edge"><title>Callose&#45;&gt;Callose_removal_intermediate_m</title>
<path fill="none" stroke="black" d="M919.693,-391.907C982.836,-398.087 1118.67,-411.382 1122.9,-411.795"/>
</g>
<!-- PTI_intermediate_r -->
<g id="node151" class="node"><title>PTI_intermediate_r</title>
<ellipse fill="black" stroke="black" cx="983" cy="-543.805" rx="0.036" ry="0.036"/>
</g>
<!-- Callose&#45;&gt;PTI_intermediate_r -->
<g id="edge180" class="edge"><title>Callose&#45;&gt;PTI_intermediate_r</title>
<path fill="none" stroke="black" d="M892.706,-407.004C901.056,-436.167 920.967,-493.742 956,-529.805 965.124,-539.198 981.909,-543.531 982.949,-543.793"/>
</g>
<!-- PTI_intermediate_m -->
<g id="node158" class="node"><title>PTI_intermediate_m</title>
<ellipse fill="black" stroke="black" cx="1123" cy="-550.805" rx="0.036" ry="0.036"/>
</g>
<!-- Callose&#45;&gt;PTI_intermediate_m -->
<g id="edge190" class="edge"><title>Callose&#45;&gt;PTI_intermediate_m</title>
<path fill="none" stroke="black" d="M898.36,-406.106C910.294,-424.832 931.444,-454.588 956,-473.805 1019.36,-523.39 1119.8,-549.967 1122.93,-550.786"/>
</g>
<!-- Callose&#45;&gt;Callose_suppression_intermediate_r -->
<g id="edge194" class="edge"><title>Callose&#45;&gt;Callose_suppression_intermediate_r</title>
<path fill="none" stroke="black" d="M909.557,-375.417C936.71,-358.554 980.179,-331.558 982.869,-329.887"/>
</g>
<!-- Callose&#45;&gt;Callose_suppression_intermediate_m -->
<g id="edge204" class="edge"><title>Callose&#45;&gt;Callose_suppression_intermediate_m</title>
<path fill="none" stroke="black" d="M920.234,-387.23C982.427,-383.85 1123.16,-374.555 1240,-354.805 1256.17,-352.073 1275.73,-346.188 1276.94,-345.823"/>
</g>
<!-- Path -->
<g id="node6" class="node"><title>Path</title>
<ellipse fill="none" stroke="black" cx="76" cy="-358.805" rx="27" ry="18"/>
<text text-anchor="middle" x="76" y="-356.305" font-family="Times Roman,serif" font-size="10.00">Path</text>
</g>
<!-- Pathogen_removal_intermediate_r -->
<g id="node67" class="node"><title>Pathogen_removal_intermediate_r</title>
<ellipse fill="black" stroke="black" cx="153" cy="-536.805" rx="0.036" ry="0.036"/>
</g>
<!-- Path&#45;&gt;Pathogen_removal_intermediate_r -->
<g id="edge74" class="edge"><title>Path&#45;&gt;Pathogen_removal_intermediate_r</title>
<path fill="none" stroke="black" d="M83.5233,-376.197C102.596,-420.286 151.442,-533.203 152.964,-536.721"/>
</g>
<!-- Pathogen_removal_intermediate_m -->
<g id="node72" class="node"><title>Pathogen_removal_intermediate_m</title>
<ellipse fill="black" stroke="black" cx="267" cy="-503.805" rx="0.036" ry="0.036"/>
</g>
<!-- Path&#45;&gt;Pathogen_removal_intermediate_m -->
<g id="edge80" class="edge"><title>Path&#45;&gt;Pathogen_removal_intermediate_m</title>
<path fill="none" stroke="black" d="M81.856,-376.568C91.7506,-403.639 114.453,-454.812 152,-480.805 194.186,-510.01 264.753,-504.005 266.948,-503.81"/>
</g>
<!-- PAMP_production_intermediate_r -->
<g id="node76" class="node"><title>PAMP_production_intermediate_r</title>
<ellipse fill="black" stroke="black" cx="153" cy="-390.805" rx="0.036" ry="0.036"/>
</g>
<!-- Path&#45;&gt;PAMP_production_intermediate_r -->
<g id="edge84" class="edge"><title>Path&#45;&gt;PAMP_production_intermediate_r</title>
<path fill="none" stroke="black" d="M99.1025,-368.406C121.075,-377.538 151.057,-389.998 152.91,-390.768"/>
</g>
<!-- PAMP_production_intermediate_m -->
<g id="node83" class="node"><title>PAMP_production_intermediate_m</title>
<ellipse fill="black" stroke="black" cx="267" cy="-366.805" rx="0.036" ry="0.036"/>
</g>
<!-- Path&#45;&gt;PAMP_production_intermediate_m -->
<g id="edge94" class="edge"><title>Path&#45;&gt;PAMP_production_intermediate_m</title>
<path fill="none" stroke="black" d="M102.961,-359.935C154.787,-362.105 263.533,-366.66 266.919,-366.802"/>
</g>
<!-- Effector_production_intermediate_r -->
<g id="node87" class="node"><title>Effector_production_intermediate_r</title>
<ellipse fill="black" stroke="black" cx="153" cy="-289.805" rx="0.036" ry="0.036"/>
</g>
<!-- Path&#45;&gt;Effector_production_intermediate_r -->
<g id="edge98" class="edge"><title>Path&#45;&gt;Effector_production_intermediate_r</title>
<path fill="none" stroke="black" d="M92.3297,-344.172C114.226,-324.551 150.636,-291.924 152.89,-289.904"/>
</g>
<!-- Effector_production_intermediate_m -->
<g id="node94" class="node"><title>Effector_production_intermediate_m</title>
<ellipse fill="black" stroke="black" cx="267" cy="-303.805" rx="0.036" ry="0.036"/>
</g>
<!-- Path&#45;&gt;Effector_production_intermediate_m -->
<g id="edge108" class="edge"><title>Path&#45;&gt;Effector_production_intermediate_m</title>
<path fill="none" stroke="black" d="M100.97,-351.615C151.934,-336.94 263.445,-304.829 266.917,-303.829"/>
</g>
<!-- Path&#45;&gt;ETI_intermediate_r -->
<g id="edge122" class="edge"><title>Path&#45;&gt;ETI_intermediate_r</title>
<path fill="none" stroke="black" d="M85.0392,-341.453C102.334,-310.924 143.219,-250.805 197,-250.805 197,-250.805 197,-250.805 755,-250.805 800.596,-250.805 811.004,-240.179 856,-232.805 912.321,-223.575 925.927,-213.805 983,-213.805 983,-213.805 983,-213.805 1321,-213.805 1384.97,-213.805 1391.87,-253.607 1454,-268.805 1492.21,-278.151 1541.79,-276.897 1544.85,-276.81"/>
</g>
<!-- Path&#45;&gt;ETI_intermediate_m -->
<g id="edge132" class="edge"><title>Path&#45;&gt;ETI_intermediate_m</title>
<path fill="none" stroke="black" d="M79.788,-340.631C93.147,-279.006 140.323,-81.8054 197,-81.8054 197,-81.8054 197,-81.8054 1545,-81.8054 1610.56,-81.8054 1631.35,-200.023 1631.98,-203.717"/>
</g>
<!-- Path&#45;&gt;PTI_intermediate_r -->
<g id="edge178" class="edge"><title>Path&#45;&gt;PTI_intermediate_r</title>
<path fill="none" stroke="black" d="M92.3578,-373.42C107.025,-385.814 129.622,-403.218 152,-413.805 219.795,-445.878 83.468,-494.805 467,-494.805 467,-494.805 467,-494.805 819,-494.805 893.884,-494.805 980.255,-542.286 982.936,-543.77"/>
</g>
<!-- Path&#45;&gt;PTI_intermediate_m -->
<g id="edge188" class="edge"><title>Path&#45;&gt;PTI_intermediate_m</title>
<path fill="none" stroke="black" d="M77.1353,-376.998C81.5729,-430.864 102.546,-585.805 197,-585.805 197,-585.805 197,-585.805 983,-585.805 1046.14,-585.805 1120.63,-551.891 1122.94,-550.831"/>
</g>
<!-- Path_bulk -->
<g id="node7" class="node"><title>Path_bulk</title>
<ellipse fill="none" stroke="black" cx="76" cy="-38.8054" rx="38.8989" ry="18"/>
<text text-anchor="middle" x="76" y="-36.3054" font-family="Times Roman,serif" font-size="10.00">Path_bulk</text>
</g>
<!-- Pathogen_arrival_intermediate_r -->
<g id="node56" class="node"><title>Pathogen_arrival_intermediate_r</title>
<ellipse fill="black" stroke="black" cx="153" cy="-15.8054" rx="0.036" ry="0.036"/>
</g>
<!-- Path_bulk&#45;&gt;Pathogen_arrival_intermediate_r -->
<g id="edge60" class="edge"><title>Path_bulk&#45;&gt;Pathogen_arrival_intermediate_r</title>
<path fill="none" stroke="black" d="M109.102,-28.9178C129.319,-22.8788 151.563,-16.2347 152.933,-15.8253"/>
</g>
<!-- Pathogen_arrival_intermediate_m -->
<g id="node63" class="node"><title>Pathogen_arrival_intermediate_m</title>
<ellipse fill="black" stroke="black" cx="267" cy="-25.8054" rx="0.036" ry="0.036"/>
</g>
<!-- Path_bulk&#45;&gt;Pathogen_arrival_intermediate_m -->
<g id="edge70" class="edge"><title>Path_bulk&#45;&gt;Pathogen_arrival_intermediate_m</title>
<path fill="none" stroke="black" d="M115.113,-36.1433C170.119,-32.3994 264.01,-26.0089 266.93,-25.8101"/>
</g>
<!-- PRR -->
<g id="node8" class="node"><title>PRR</title>
<ellipse fill="none" stroke="black" cx="627" cy="-319.805" rx="27" ry="18"/>
<text text-anchor="middle" x="627" y="-317.305" font-family="Times Roman,serif" font-size="10.00">PRR*</text>
</g>
<!-- PRR&#45;&gt;PAMP_recognition_intermediate_m -->
<g id="edge18" class="edge"><title>PRR&#45;&gt;PAMP_recognition_intermediate_m</title>
<path fill="none" stroke="black" d="M640.987,-335.347C645.339,-340.45 650.033,-346.242 654,-351.805 672.048,-377.116 689.852,-411.573 690.947,-413.702"/>
</g>
<!-- Callose_production_intermediate_r -->
<g id="node131" class="node"><title>Callose_production_intermediate_r</title>
<ellipse fill="black" stroke="black" cx="691" cy="-344.805" rx="0.036" ry="0.036"/>
</g>
<!-- PRR&#45;&gt;Callose_production_intermediate_r -->
<g id="edge154" class="edge"><title>PRR&#45;&gt;Callose_production_intermediate_r</title>
<path fill="none" stroke="black" d="M650.468,-328.972C668.163,-335.885 689.612,-344.263 690.936,-344.78"/>
</g>
<!-- Callose_production_intermediate_m -->
<g id="node138" class="node"><title>Callose_production_intermediate_m</title>
<ellipse fill="black" stroke="black" cx="819" cy="-374.805" rx="0.036" ry="0.036"/>
</g>
<!-- PRR&#45;&gt;Callose_production_intermediate_m -->
<g id="edge164" class="edge"><title>PRR&#45;&gt;Callose_production_intermediate_m</title>
<path fill="none" stroke="black" d="M646.84,-332.094C658.961,-339.196 674.972,-347.871 690,-353.805 743.184,-374.808 816.662,-374.811 818.945,-374.806"/>
</g>
<!-- PRR_0 -->
<g id="node9" class="node"><title>PRR_0</title>
<ellipse fill="none" stroke="black" cx="358" cy="-418.805" rx="27" ry="18"/>
<text text-anchor="middle" x="358" y="-416.305" font-family="Times Roman,serif" font-size="10.00">PRR</text>
</g>
<!-- PRR_0&#45;&gt;PAMP_recognition_intermediate_r -->
<g id="edge4" class="edge"><title>PRR_0&#45;&gt;PAMP_recognition_intermediate_r</title>
<path fill="none" stroke="black" d="M395.384,-418.23C409.295,-418.016 421.985,-417.821 422.942,-417.806"/>
<polygon fill="black" stroke="black" points="395.134,-414.734 385.189,-418.387 395.242,-421.733 395.134,-414.734"/>
</g>
<!-- PRR_0&#45;&gt;PAMP_recognition_intermediate_m -->
<g id="edge14" class="edge"><title>PRR_0&#45;&gt;PAMP_recognition_intermediate_m</title>
<path fill="none" stroke="black" d="M378.561,-430.621C399.941,-441.775 434.735,-456.805 467,-456.805 467,-456.805 467,-456.805 537,-456.805 606.952,-456.805 688.411,-415.139 690.94,-413.837"/>
</g>
<!-- E -->
<g id="node10" class="node"><title>E</title>
<ellipse fill="none" stroke="black" cx="755" cy="-184.805" rx="27" ry="18"/>
<text text-anchor="middle" x="755" y="-182.305" font-family="Times Roman,serif" font-size="10.00">E</text>
</g>
<!-- Effector_removal_intermediate_r -->
<g id="node38" class="node"><title>Effector_removal_intermediate_r</title>
<ellipse fill="black" stroke="black" cx="819" cy="-166.805" rx="0.036" ry="0.036"/>
</g>
<!-- E&#45;&gt;Effector_removal_intermediate_r -->
<g id="edge40" class="edge"><title>E&#45;&gt;Effector_removal_intermediate_r</title>
<path fill="none" stroke="black" d="M779.927,-177.795C797.336,-172.898 817.684,-167.175 818.939,-166.823"/>
</g>
<!-- Effector_removal_intermediate_m -->
<g id="node43" class="node"><title>Effector_removal_intermediate_m</title>
<ellipse fill="black" stroke="black" cx="983" cy="-131.805" rx="0.036" ry="0.036"/>
</g>
<!-- E&#45;&gt;Effector_removal_intermediate_m -->
<g id="edge46" class="edge"><title>E&#45;&gt;Effector_removal_intermediate_m</title>
<path fill="none" stroke="black" d="M776.71,-174.078C788.653,-168.543 803.876,-162.075 818,-157.805 887.953,-136.661 980.07,-131.951 982.932,-131.809"/>
</g>
<!-- Effector_translocation_intermediate_r -->
<g id="node119" class="node"><title>Effector_translocation_intermediate_r</title>
<ellipse fill="black" stroke="black" cx="819" cy="-184.805" rx="0.036" ry="0.036"/>
</g>
<!-- E&#45;&gt;Effector_translocation_intermediate_r -->
<g id="edge138" class="edge"><title>E&#45;&gt;Effector_translocation_intermediate_r</title>
<path fill="none" stroke="black" d="M782.142,-184.805C799.04,-184.805 817.788,-184.805 818.944,-184.805"/>
</g>
<!-- E&#45;&gt;Effector_translocation_intermediate_m -->
<g id="edge148" class="edge"><title>E&#45;&gt;Effector_translocation_intermediate_m</title>
<path fill="none" stroke="black" d="M770.055,-200.001C788.675,-217.97 822.086,-247.604 856,-264.805 907.4,-290.876 980.669,-299.535 982.946,-299.799"/>
</g>
<!-- PAMP_recognition -->
<g id="node11" class="node"><title>PAMP_recognition</title>
<polygon fill="none" stroke="black" points="474,-424.805 460,-424.805 460,-410.805 474,-410.805 474,-424.805"/>
</g>
<!-- PAMP_recognition_intermediate_p -->
<g id="node16" class="node"><title>PAMP_recognition_intermediate_p</title>
<ellipse fill="black" stroke="black" cx="537" cy="-390.805" rx="0.036" ry="0.036"/>
</g>
<!-- PAMP_recognition&#45;&gt;PAMP_recognition_intermediate_p -->
<g id="edge8" class="edge"><title>PAMP_recognition&#45;&gt;PAMP_recognition_intermediate_p</title>
<path fill="none" stroke="black" d="M474.228,-415.018C491.554,-408.335 534.221,-391.877 536.871,-390.855"/>
</g>
<!-- PAMP_recognition&#45;&gt;PAMP_recognition_intermediate_m -->
<g id="edge12" class="edge"><title>PAMP_recognition&#45;&gt;PAMP_recognition_intermediate_m</title>
<path fill="none" stroke="black" d="M486.76,-417.453C540.552,-416.492 685.934,-413.896 690.871,-413.808"/>
<polygon fill="none" stroke="black" points="486.451,-417.458 480.523,-421.564 474.453,-417.672 480.38,-413.566 486.451,-417.458"/>
</g>
<!-- PAMP_recognition_intermediate_r&#45;&gt;PAMP_recognition -->
<g id="edge2" class="edge"><title>PAMP_recognition_intermediate_r&#45;&gt;PAMP_recognition</title>
<path fill="none" stroke="black" d="M423.126,-417.805C425.022,-417.805 447.795,-417.805 459.759,-417.805"/>
</g>
<!-- PAMP_recognition_intermediate_p&#45;&gt;PRR -->
<g id="edge10" class="edge"><title>PAMP_recognition_intermediate_p&#45;&gt;PRR</title>
<path fill="none" stroke="black" d="M537.065,-390.754C538.814,-389.375 575.33,-360.567 601.287,-340.09"/>
<polygon fill="black" stroke="black" points="603.603,-342.721 609.286,-333.78 599.267,-337.225 603.603,-342.721"/>
</g>
<!-- Effector_recognition -->
<g id="node24" class="node"><title>Effector_recognition</title>
<polygon fill="none" stroke="black" points="1328,-174.805 1314,-174.805 1314,-160.805 1328,-160.805 1328,-174.805"/>
</g>
<!-- Effector_recognition_intermediate_p -->
<g id="node29" class="node"><title>Effector_recognition_intermediate_p</title>
<ellipse fill="black" stroke="black" cx="1391" cy="-185.805" rx="0.036" ry="0.036"/>
</g>
<!-- Effector_recognition&#45;&gt;Effector_recognition_intermediate_p -->
<g id="edge26" class="edge"><title>Effector_recognition&#45;&gt;Effector_recognition_intermediate_p</title>
<path fill="none" stroke="black" d="M1328.23,-169.664C1345.55,-174.119 1388.22,-185.091 1390.87,-185.772"/>
</g>
<!-- Effector_recognition&#45;&gt;Effector_recognition_intermediate_m -->
<g id="edge30" class="edge"><title>Effector_recognition&#45;&gt;Effector_recognition_intermediate_m</title>
<path fill="none" stroke="black" d="M1340.76,-167.717C1394.55,-167.477 1539.93,-166.828 1544.87,-166.806"/>
<polygon fill="none" stroke="black" points="1340.45,-167.718 1334.47,-171.745 1328.45,-167.772 1334.43,-163.745 1340.45,-167.718"/>
</g>
<!-- Effector_recognition_intermediate_r&#45;&gt;Effector_recognition -->
<g id="edge20" class="edge"><title>Effector_recognition_intermediate_r&#45;&gt;Effector_recognition</title>
<path fill="none" stroke="black" d="M1277.13,-167.805C1279.02,-167.805 1301.79,-167.805 1313.76,-167.805"/>
</g>
<!-- Effector_recognition_intermediate_p&#45;&gt;R_0 -->
<g id="edge28" class="edge"><title>Effector_recognition_intermediate_p&#45;&gt;R_0</title>
<path fill="none" stroke="black" d="M1391.04,-185.826C1391.96,-186.251 1406.72,-193.15 1418,-199.805 1430.06,-206.923 1442.99,-215.389 1453.98,-222.849"/>
<polygon fill="black" stroke="black" points="1452.1,-225.802 1462.32,-228.572 1456.06,-220.029 1452.1,-225.802"/>
</g>
<!-- Effector_removal -->
<g id="node37" class="node"><title>Effector_removal</title>
<polygon fill="none" stroke="black" points="895,-173.805 881,-173.805 881,-159.805 895,-159.805 895,-173.805"/>
</g>
<!-- Effector_removal_empty -->
<g id="node41" class="node"><title>Effector_removal_empty</title>
<text text-anchor="middle" x="983" y="-163.305" font-family="Times Roman,serif" font-size="15.00" fill="blue">Ø</text>
</g>
<!-- Effector_removal&#45;&gt;Effector_removal_empty -->
<g id="edge42" class="edge"><title>Effector_removal&#45;&gt;Effector_removal_empty</title>
<path fill="none" stroke="black" d="M895.14,-166.881C905.845,-166.993 926.8,-167.214 945.561,-167.411"/>
<polygon fill="black" stroke="black" points="945.643,-170.912 955.679,-167.518 945.717,-163.913 945.643,-170.912"/>
</g>
<!-- Effector_removal&#45;&gt;Effector_removal_intermediate_m -->
<g id="edge44" class="edge"><title>Effector_removal&#45;&gt;Effector_removal_intermediate_m</title>
<path fill="none" stroke="black" d="M906.68,-159.412C920.296,-154.085 939.22,-146.807 956,-140.805 967.166,-136.812 981.126,-132.396 982.828,-131.86"/>
<polygon fill="none" stroke="black" points="906.274,-159.572 902.157,-165.493 895.109,-163.97 899.225,-158.05 906.274,-159.572"/>
</g>
<!-- Effector_removal_intermediate_r&#45;&gt;Effector_removal -->
<g id="edge38" class="edge"><title>Effector_removal_intermediate_r&#45;&gt;Effector_removal</title>
<path fill="none" stroke="black" d="M819.05,-166.805C820.715,-166.805 863.51,-166.805 880.827,-166.805"/>
</g>
<!-- PAMP_removal -->
<g id="node46" class="node"><title>PAMP_removal</title>
<polygon fill="none" stroke="black" points="474,-330.805 460,-330.805 460,-316.805 474,-316.805 474,-330.805"/>
</g>
<!-- PAMP_removal_empty -->
<g id="node50" class="node"><title>PAMP_removal_empty</title>
<text text-anchor="middle" x="537" y="-312.305" font-family="Times Roman,serif" font-size="15.00" fill="blue">Ø</text>
</g>
<!-- PAMP_removal&#45;&gt;PAMP_removal_empty -->
<g id="edge52" class="edge"><title>PAMP_removal&#45;&gt;PAMP_removal_empty</title>
<path fill="none" stroke="black" d="M474.228,-323.083C480.45,-322.46 489.94,-321.511 499.672,-320.538"/>
<polygon fill="black" stroke="black" points="500.171,-324.006 509.773,-319.528 499.475,-317.041 500.171,-324.006"/>
</g>
<!-- PAMP_removal&#45;&gt;PAMP_removal_intermediate_m -->
<g id="edge54" class="edge"><title>PAMP_removal&#45;&gt;PAMP_removal_intermediate_m</title>
<path fill="none" stroke="black" d="M483.178,-308.809C490.863,-302.285 500.444,-294.969 510,-289.805 520.781,-283.98 536.013,-280.995 536.954,-280.814"/>
<polygon fill="none" stroke="black" points="483.014,-308.956 481.194,-315.933 474.053,-316.938 475.873,-309.96 483.014,-308.956"/>
</g>
<!-- PAMP_removal_intermediate_r&#45;&gt;PAMP_removal -->
<g id="edge48" class="edge"><title>PAMP_removal_intermediate_r&#45;&gt;PAMP_removal</title>
<path fill="none" stroke="black" d="M423.126,-327.794C425.022,-327.622 447.795,-325.551 459.759,-324.464"/>
</g>
<!-- Pathogen_arrival -->
<g id="node55" class="node"><title>Pathogen_arrival</title>
<polygon fill="none" stroke="black" points="204,-15.8054 190,-15.8054 190,-1.80537 204,-1.80537 204,-15.8054"/>
</g>
<!-- Pathogen_arrival_intermediate_p -->
<g id="node59" class="node"><title>Pathogen_arrival_intermediate_p</title>
<ellipse fill="black" stroke="black" cx="0" cy="-38.8054" rx="0.036" ry="0.036"/>
</g>
<!-- Pathogen_arrival&#45;&gt;Pathogen_arrival_intermediate_p -->
<g id="edge62" class="edge"><title>Pathogen_arrival&#45;&gt;Pathogen_arrival_intermediate_p</title>
<path fill="none" stroke="black" d="M189.97,-7.39509C166.991,-3.10164 92.3357,8.33134 36,-11.8054 17.7555,-18.3267 1.07456,-37.5518 0.0498207,-38.747"/>
</g>
<!-- Pathogen_arrival&#45;&gt;Pathogen_arrival_intermediate_m -->
<g id="edge68" class="edge"><title>Pathogen_arrival&#45;&gt;Pathogen_arrival_intermediate_m</title>
<path fill="none" stroke="black" d="M215.928,-13.4023C235.872,-18.2456 264.707,-25.2486 266.871,-25.774"/>
<polygon fill="none" stroke="black" points="215.889,-13.3927 209.114,-15.8637 204.228,-10.5606 211.002,-8.08964 215.889,-13.3927"/>
</g>
<!-- Pathogen_arrival_intermediate_r&#45;&gt;Pathogen_arrival -->
<g id="edge58" class="edge"><title>Pathogen_arrival_intermediate_r&#45;&gt;Pathogen_arrival</title>
<path fill="none" stroke="black" d="M153.126,-15.7853C155.022,-15.4838 177.795,-11.8608 189.759,-9.95736"/>
</g>
<!-- Pathogen_arrival_intermediate_p&#45;&gt;Path -->
<g id="edge66" class="edge"><title>Pathogen_arrival_intermediate_p&#45;&gt;Path</title>
<path fill="none" stroke="black" d="M0.0138435,-38.8637C0.968977,-42.8853 51.0882,-253.913 69.3959,-330.999"/>
<polygon fill="black" stroke="black" points="66.0435,-332.031 71.7596,-340.951 72.8541,-330.413 66.0435,-332.031"/>
</g>
<!-- Pathogen_arrival_intermediate_p&#45;&gt;Path_bulk -->
<g id="edge64" class="edge"><title>Pathogen_arrival_intermediate_p&#45;&gt;Path_bulk</title>
<path fill="none" stroke="black" d="M0.0550842,-38.8054C0.937619,-38.8054 12.3117,-38.8054 26.0009,-38.8054"/>
<polygon fill="black" stroke="black" points="26.2611,-42.3055 36.261,-38.8054 26.261,-35.3055 26.2611,-42.3055"/>
</g>
<!-- Pathogen_removal -->
<g id="node66" class="node"><title>Pathogen_removal</title>
<polygon fill="none" stroke="black" points="204,-546.805 190,-546.805 190,-532.805 204,-532.805 204,-546.805"/>
</g>
<!-- Pathogen_removal_empty -->
<g id="node70" class="node"><title>Pathogen_removal_empty</title>
<text text-anchor="middle" x="267" y="-535.305" font-family="Times Roman,serif" font-size="15.00" fill="blue">Ø</text>
</g>
<!-- Pathogen_removal&#45;&gt;Pathogen_removal_empty -->
<g id="edge76" class="edge"><title>Pathogen_removal&#45;&gt;Pathogen_removal_empty</title>
<path fill="none" stroke="black" d="M204.228,-539.805C210.45,-539.805 219.94,-539.805 229.672,-539.805"/>
<polygon fill="black" stroke="black" points="229.773,-543.305 239.773,-539.805 229.773,-536.305 229.773,-543.305"/>
</g>
<!-- Pathogen_removal&#45;&gt;Pathogen_removal_intermediate_m -->
<g id="edge78" class="edge"><title>Pathogen_removal&#45;&gt;Pathogen_removal_intermediate_m</title>
<path fill="none" stroke="black" d="M214.127,-527.73C221.799,-522.672 231.108,-517.005 240,-512.805 251.08,-507.572 266.031,-504.032 266.955,-503.816"/>
<polygon fill="none" stroke="black" points="213.901,-527.885 211.214,-534.576 204.003,-534.669 206.69,-527.978 213.901,-527.885"/>
</g>
<!-- Pathogen_removal_intermediate_r&#45;&gt;Pathogen_removal -->
<g id="edge72" class="edge"><title>Pathogen_removal_intermediate_r&#45;&gt;Pathogen_removal</title>
<path fill="none" stroke="black" d="M153.126,-536.814C155.022,-536.943 177.795,-538.496 189.759,-539.312"/>
</g>
<!-- PAMP_production -->
<g id="node75" class="node"><title>PAMP_production</title>
<polygon fill="none" stroke="black" points="204,-400.805 190,-400.805 190,-386.805 204,-386.805 204,-400.805"/>
</g>
<!-- PAMP_production_intermediate_p -->
<g id="node79" class="node"><title>PAMP_production_intermediate_p</title>
<ellipse fill="black" stroke="black" cx="267" cy="-393.805" rx="0.036" ry="0.036"/>
</g>
<!-- PAMP_production&#45;&gt;PAMP_production_intermediate_p -->
<g id="edge86" class="edge"><title>PAMP_production&#45;&gt;PAMP_production_intermediate_p</title>
<path fill="none" stroke="black" d="M204.228,-393.805C221.554,-393.805 264.221,-393.805 266.871,-393.805"/>
</g>
<!-- PAMP_production&#45;&gt;PAMP_production_intermediate_m -->
<g id="edge92" class="edge"><title>PAMP_production&#45;&gt;PAMP_production_intermediate_m</title>
<path fill="none" stroke="black" d="M215.643,-386.615C235.595,-378.919 264.697,-367.694 266.871,-366.855"/>
<polygon fill="none" stroke="black" points="215.424,-386.699 211.265,-392.59 204.228,-391.018 208.386,-385.126 215.424,-386.699"/>
</g>
<!-- PAMP_production_intermediate_r&#45;&gt;PAMP_production -->
<g id="edge82" class="edge"><title>PAMP_production_intermediate_r&#45;&gt;PAMP_production</title>
<path fill="none" stroke="black" d="M153.126,-390.814C155.022,-390.943 177.795,-392.496 189.759,-393.312"/>
</g>
<!-- PAMP_production_intermediate_p&#45;&gt;PAMP -->
<g id="edge88" class="edge"><title>PAMP_production_intermediate_p&#45;&gt;PAMP</title>
<path fill="none" stroke="black" d="M267.066,-393.783C268.653,-393.242 298.571,-383.05 323.662,-374.503"/>
<polygon fill="black" stroke="black" points="324.984,-377.75 333.322,-371.212 322.727,-371.124 324.984,-377.75"/>
</g>
<!-- PAMP_production_intermediate_p&#45;&gt;Path -->
<g id="edge90" class="edge"><title>PAMP_production_intermediate_p&#45;&gt;Path</title>
<path fill="none" stroke="black" d="M266.877,-393.864C264.362,-395.061 223.581,-414.15 190,-409.805 158.628,-405.747 125.987,-389.749 103.713,-376.739"/>
<polygon fill="black" stroke="black" points="105.5,-373.73 95.1278,-371.571 101.89,-379.727 105.5,-373.73"/>
</g>
<!-- Effector_production -->
<g id="node86" class="node"><title>Effector_production</title>
<polygon fill="none" stroke="black" points="204,-292.805 190,-292.805 190,-278.805 204,-278.805 204,-292.805"/>
</g>
<!-- Effector_production_intermediate_p -->
<g id="node90" class="node"><title>Effector_production_intermediate_p</title>
<ellipse fill="black" stroke="black" cx="267" cy="-212.805" rx="0.036" ry="0.036"/>
</g>
<!-- Effector_production&#45;&gt;Effector_production_intermediate_p -->
<g id="edge100" class="edge"><title>Effector_production&#45;&gt;Effector_production_intermediate_p</title>
<path fill="none" stroke="black" d="M203.968,-278.539C221.12,-260.651 264.194,-215.732 266.869,-212.942"/>
</g>
<!-- Effector_production&#45;&gt;Effector_production_intermediate_m -->
<g id="edge106" class="edge"><title>Effector_production&#45;&gt;Effector_production_intermediate_m</title>
<path fill="none" stroke="black" d="M215.928,-290.673C235.872,-295.801 264.707,-303.216 266.871,-303.772"/>
<polygon fill="none" stroke="black" points="215.849,-290.652 209.042,-293.032 204.228,-287.664 211.035,-285.284 215.849,-290.652"/>
</g>
<!-- Effector_production_intermediate_r&#45;&gt;Effector_production -->
<g id="edge96" class="edge"><title>Effector_production_intermediate_r&#45;&gt;Effector_production</title>
<path fill="none" stroke="black" d="M153.126,-289.794C155.022,-289.622 177.795,-287.551 189.759,-286.464"/>
</g>
<!-- Effector_production_intermediate_p&#45;&gt;Path -->
<g id="edge104" class="edge"><title>Effector_production_intermediate_p&#45;&gt;Path</title>
<path fill="none" stroke="black" d="M266.948,-212.801C264.751,-212.63 194.136,-207.374 152,-236.805 118.657,-260.095 96.9648,-303.18 85.6033,-331.415"/>
<polygon fill="black" stroke="black" points="82.2086,-330.491 81.8825,-341.081 88.7413,-333.006 82.2086,-330.491"/>
</g>
<!-- Effector_production_intermediate_p&#45;&gt;E -->
<g id="edge102" class="edge"><title>Effector_production_intermediate_p&#45;&gt;E</title>
<path fill="none" stroke="black" d="M267.063,-212.795C269.696,-212.371 354.476,-198.805 423,-198.805 423,-198.805 423,-198.805 627,-198.805 658.043,-198.805 693.072,-194.686 718.628,-190.916"/>
<polygon fill="black" stroke="black" points="719.26,-194.36 728.616,-189.389 718.202,-187.441 719.26,-194.36"/>
</g>
<!-- E_int_removal -->
<g id="node97" class="node"><title>E_int_removal</title>
<polygon fill="none" stroke="black" points="1328,-331.805 1314,-331.805 1314,-317.805 1328,-317.805 1328,-331.805"/>
</g>
<!-- E_int_removal_empty -->
<g id="node101" class="node"><title>E_int_removal_empty</title>
<text text-anchor="middle" x="1391" y="-321.305" font-family="Times Roman,serif" font-size="15.00" fill="blue">Ø</text>
</g>
<!-- E_int_removal&#45;&gt;E_int_removal_empty -->
<g id="edge114" class="edge"><title>E_int_removal&#45;&gt;E_int_removal_empty</title>
<path fill="none" stroke="black" d="M1328.23,-324.909C1334.45,-324.998 1343.94,-325.133 1353.67,-325.272"/>
<polygon fill="black" stroke="black" points="1353.72,-328.773 1363.77,-325.416 1353.82,-321.774 1353.72,-328.773"/>
</g>
<!-- E_int_removal&#45;&gt;E_int_removal_intermediate_m -->
<g id="edge116" class="edge"><title>E_int_removal&#45;&gt;E_int_removal_intermediate_m</title>
<path fill="none" stroke="black" d="M1338.18,-313.213C1345.86,-308.349 1355.16,-302.887 1364,-298.805 1375.12,-293.666 1390.03,-290.038 1390.96,-289.816"/>
<polygon fill="none" stroke="black" points="1338.06,-313.291 1335.24,-319.928 1328.03,-319.88 1330.85,-313.242 1338.06,-313.291"/>
</g>
<!-- E_int_removal_intermediate_r&#45;&gt;E_int_removal -->
<g id="edge110" class="edge"><title>E_int_removal_intermediate_r&#45;&gt;E_int_removal</title>
<path fill="none" stroke="black" d="M1277.13,-321.814C1279.02,-321.943 1301.79,-323.496 1313.76,-324.312"/>
</g>
<!-- ETI -->
<g id="node106" class="node"><title>ETI</title>
<polygon fill="none" stroke="black" points="1596,-283.805 1582,-283.805 1582,-269.805 1596,-269.805 1596,-283.805"/>
</g>
<!-- ETI_intermediate_p -->
<g id="node111" class="node"><title>ETI_intermediate_p</title>
<ellipse fill="black" stroke="black" cx="1632" cy="-258.805" rx="0.036" ry="0.036"/>
</g>
<!-- ETI&#45;&gt;ETI_intermediate_p -->
<g id="edge126" class="edge"><title>ETI&#45;&gt;ETI_intermediate_p</title>
<path fill="none" stroke="black" d="M1596.1,-273.833C1607.93,-268.88 1630.53,-259.42 1631.93,-258.834"/>
</g>
<!-- ETI&#45;&gt;ETI_intermediate_m -->
<g id="edge130" class="edge"><title>ETI&#45;&gt;ETI_intermediate_m</title>
<path fill="none" stroke="black" d="M1599.4,-259.149C1611.66,-238.344 1630.54,-206.285 1631.92,-203.942"/>
<polygon fill="none" stroke="black" points="1599.37,-259.199 1599.77,-266.399 1593.28,-269.539 1592.88,-262.339 1599.37,-259.199"/>
</g>
<!-- ETI_intermediate_r&#45;&gt;ETI -->
<g id="edge120" class="edge"><title>ETI_intermediate_r&#45;&gt;ETI</title>
<path fill="none" stroke="black" d="M1545.13,-276.805C1547.02,-276.805 1569.79,-276.805 1581.76,-276.805"/>
</g>
<!-- ETI_intermediate_p&#45;&gt;R_0 -->
<g id="edge128" class="edge"><title>ETI_intermediate_p&#45;&gt;R_0</title>
<path fill="none" stroke="black" d="M1631.94,-258.799C1629.66,-258.542 1561.65,-250.885 1517.71,-245.938"/>
<polygon fill="black" stroke="black" points="1517.98,-242.446 1507.65,-244.805 1517.19,-249.402 1517.98,-242.446"/>
</g>
<!-- Effector_translocation -->
<g id="node118" class="node"><title>Effector_translocation</title>
<polygon fill="none" stroke="black" points="895,-255.805 881,-255.805 881,-241.805 895,-241.805 895,-255.805"/>
</g>
<!-- Effector_translocation_intermediate_p -->
<g id="node122" class="node"><title>Effector_translocation_intermediate_p</title>
<ellipse fill="black" stroke="black" cx="1053" cy="-251.805" rx="0.036" ry="0.036"/>
</g>
<!-- Effector_translocation&#45;&gt;Effector_translocation_intermediate_p -->
<g id="edge140" class="edge"><title>Effector_translocation&#45;&gt;Effector_translocation_intermediate_p</title>
<path fill="none" stroke="black" d="M895.09,-248.934C926.178,-249.5 1049.08,-251.734 1052.91,-251.804"/>
</g>
<!-- Effector_translocation&#45;&gt;Effector_translocation_intermediate_m -->
<g id="edge144" class="edge"><title>Effector_translocation&#45;&gt;Effector_translocation_intermediate_m</title>
<path fill="none" stroke="black" d="M905.801,-258.361C932.811,-272.862 981.221,-298.85 982.952,-299.78"/>
<polygon fill="none" stroke="black" points="905.713,-258.315 898.535,-259.001 895.14,-252.639 902.319,-251.952 905.713,-258.315"/>
</g>
<!-- Effector_translocation_intermediate_r&#45;&gt;Effector_translocation -->
<g id="edge136" class="edge"><title>Effector_translocation_intermediate_r&#45;&gt;Effector_translocation</title>
<path fill="none" stroke="black" d="M819.05,-184.852C820.715,-186.396 863.51,-226.09 880.827,-242.152"/>
</g>
<!-- Effector_translocation_intermediate_p&#45;&gt;E_int -->
<g id="edge142" class="edge"><title>Effector_translocation_intermediate_p&#45;&gt;E_int</title>
<path fill="none" stroke="black" d="M1053.12,-251.833C1056.46,-252.627 1131.31,-270.404 1177.4,-281.349"/>
<polygon fill="black" stroke="black" points="1176.78,-284.8 1187.32,-283.705 1178.39,-277.989 1176.78,-284.8"/>
</g>
<!-- Callose_production -->
<g id="node130" class="node"><title>Callose_production</title>
<polygon fill="none" stroke="black" points="762,-354.805 748,-354.805 748,-340.805 762,-340.805 762,-354.805"/>
</g>
<!-- Callose_production_intermediate_p -->
<g id="node134" class="node"><title>Callose_production_intermediate_p</title>
<ellipse fill="black" stroke="black" cx="819" cy="-347.805" rx="0.036" ry="0.036"/>
</g>
<!-- Callose_production&#45;&gt;Callose_production_intermediate_p -->
<g id="edge156" class="edge"><title>Callose_production&#45;&gt;Callose_production_intermediate_p</title>
<path fill="none" stroke="black" d="M762.342,-347.805C778.627,-347.805 816.532,-347.805 818.885,-347.805"/>
</g>
<!-- Callose_production&#45;&gt;Callose_production_intermediate_m -->
<g id="edge162" class="edge"><title>Callose_production&#45;&gt;Callose_production_intermediate_m</title>
<path fill="none" stroke="black" d="M773.405,-355.57C791.592,-363.242 816.973,-373.95 818.885,-374.757"/>
<polygon fill="none" stroke="black" points="773.398,-355.567 766.315,-356.92 762.342,-350.903 769.425,-349.549 773.398,-355.567"/>
</g>
<!-- Callose_production_intermediate_r&#45;&gt;Callose_production -->
<g id="edge152" class="edge"><title>Callose_production_intermediate_r&#45;&gt;Callose_production</title>
<path fill="none" stroke="black" d="M691.046,-344.808C692.576,-344.879 731.51,-346.704 747.868,-347.471"/>
</g>
<!-- Callose_production_intermediate_p&#45;&gt;Callose -->
<g id="edge160" class="edge"><title>Callose_production_intermediate_p&#45;&gt;Callose</title>
<path fill="none" stroke="black" d="M819.05,-347.835C820.148,-348.488 839.138,-359.771 856.909,-370.331"/>
<polygon fill="black" stroke="black" points="855.605,-373.628 865.99,-375.727 859.181,-367.61 855.605,-373.628"/>
</g>
<!-- Callose_production_intermediate_p&#45;&gt;PRR -->
<g id="edge158" class="edge"><title>Callose_production_intermediate_p&#45;&gt;PRR</title>
<path fill="none" stroke="black" d="M818.943,-347.772C817.777,-347.082 798.848,-335.977 782,-331.805 742.573,-322.044 695.938,-319.612 664.194,-319.266"/>
<polygon fill="black" stroke="black" points="664.047,-315.765 654.031,-319.221 664.015,-322.765 664.047,-315.765"/>
</g>
<!-- Callose_removal -->
<g id="node141" class="node"><title>Callose_removal</title>
<polygon fill="none" stroke="black" points="1060,-449.805 1046,-449.805 1046,-435.805 1060,-435.805 1060,-449.805"/>
</g>
<!-- Callose_removal_empty -->
<g id="node145" class="node"><title>Callose_removal_empty</title>
<text text-anchor="middle" x="1123" y="-443.305" font-family="Times Roman,serif" font-size="15.00" fill="blue">Ø</text>
</g>
<!-- Callose_removal&#45;&gt;Callose_removal_empty -->
<g id="edge170" class="edge"><title>Callose_removal&#45;&gt;Callose_removal_empty</title>
<path fill="none" stroke="black" d="M1060.23,-443.322C1066.45,-443.766 1075.94,-444.444 1085.67,-445.139"/>
<polygon fill="black" stroke="black" points="1085.55,-448.639 1095.77,-445.861 1086.05,-441.657 1085.55,-448.639"/>
</g>
<!-- Callose_removal&#45;&gt;Callose_removal_intermediate_m -->
<g id="edge172" class="edge"><title>Callose_removal&#45;&gt;Callose_removal_intermediate_m</title>
<path fill="none" stroke="black" d="M1070.93,-432.866C1078.54,-428.85 1087.58,-424.34 1096,-420.805 1107.3,-416.064 1122.05,-412.063 1122.96,-411.817"/>
<polygon fill="none" stroke="black" points="1070.69,-432.996 1067.33,-439.376 1060.14,-438.726 1063.51,-432.347 1070.69,-432.996"/>
</g>
<!-- Callose_removal_intermediate_r&#45;&gt;Callose_removal -->
<g id="edge166" class="edge"><title>Callose_removal_intermediate_r&#45;&gt;Callose_removal</title>
<path fill="none" stroke="black" d="M983.051,-438.808C984.748,-438.905 1028.58,-441.41 1045.98,-442.404"/>
</g>
<!-- PTI -->
<g id="node150" class="node"><title>PTI</title>
<polygon fill="none" stroke="black" points="1060,-557.805 1046,-557.805 1046,-543.805 1060,-543.805 1060,-557.805"/>
</g>
<!-- PTI_intermediate_p -->
<g id="node155" class="node"><title>PTI_intermediate_p</title>
<ellipse fill="black" stroke="black" cx="1123" cy="-508.805" rx="0.036" ry="0.036"/>
</g>
<!-- PTI&#45;&gt;PTI_intermediate_p -->
<g id="edge182" class="edge"><title>PTI&#45;&gt;PTI_intermediate_p</title>
<path fill="none" stroke="black" d="M1060.23,-546.469C1077.55,-536.073 1120.22,-510.473 1122.87,-508.883"/>
</g>
<!-- PTI&#45;&gt;PTI_intermediate_m -->
<g id="edge186" class="edge"><title>PTI&#45;&gt;PTI_intermediate_m</title>
<path fill="none" stroke="black" d="M1072.5,-550.805C1092.42,-550.805 1120.73,-550.805 1122.87,-550.805"/>
<polygon fill="none" stroke="black" points="1072.23,-550.805 1066.23,-554.805 1060.23,-550.805 1066.23,-546.805 1072.23,-550.805"/>
</g>
<!-- PTI_intermediate_r&#45;&gt;PTI -->
<g id="edge176" class="edge"><title>PTI_intermediate_r&#45;&gt;PTI</title>
<path fill="none" stroke="black" d="M983.051,-543.81C984.748,-543.98 1028.58,-548.364 1045.98,-550.103"/>
</g>
<!-- PTI_intermediate_p&#45;&gt;Callose -->
<g id="edge184" class="edge"><title>PTI_intermediate_p&#45;&gt;Callose</title>
<path fill="none" stroke="black" d="M1122.93,-508.79C1119.92,-508.148 1023.02,-487.291 956,-447.805 939.384,-438.015 922.988,-423.956 910.46,-412.017"/>
<polygon fill="black" stroke="black" points="912.79,-409.401 903.192,-404.915 907.898,-414.407 912.79,-409.401"/>
</g>
<!-- Callose_suppression -->
<g id="node162" class="node"><title>Callose_suppression</title>
<polygon fill="none" stroke="black" points="1060,-336.805 1046,-336.805 1046,-322.805 1060,-322.805 1060,-336.805"/>
</g>
<!-- Callose_suppression_intermediate_p -->
<g id="node167" class="node"><title>Callose_suppression_intermediate_p</title>
<ellipse fill="black" stroke="black" cx="1123" cy="-317.805" rx="0.036" ry="0.036"/>
</g>
<!-- Callose_suppression&#45;&gt;Callose_suppression_intermediate_p -->
<g id="edge198" class="edge"><title>Callose_suppression&#45;&gt;Callose_suppression_intermediate_p</title>
<path fill="none" stroke="black" d="M1060.23,-328.566C1077.55,-325.596 1120.22,-318.282 1122.87,-317.828"/>
</g>
<!-- Callose_suppression&#45;&gt;Callose_suppression_intermediate_m -->
<g id="edge202" class="edge"><title>Callose_suppression&#45;&gt;Callose_suppression_intermediate_m</title>
<path fill="none" stroke="black" d="M1072.76,-331.217C1126.55,-335.059 1271.93,-345.444 1276.87,-345.796"/>
<polygon fill="none" stroke="black" points="1072.42,-331.193 1066.15,-334.755 1060.45,-330.338 1066.72,-326.775 1072.42,-331.193"/>
</g>
<!-- Callose_suppression_intermediate_r&#45;&gt;Callose_suppression -->
<g id="edge192" class="edge"><title>Callose_suppression_intermediate_r&#45;&gt;Callose_suppression</title>
<path fill="none" stroke="black" d="M983.051,-329.805C984.748,-329.805 1028.58,-329.805 1045.98,-329.805"/>
</g>
<!-- Callose_suppression_intermediate_p&#45;&gt;E_int -->
<g id="edge200" class="edge"><title>Callose_suppression_intermediate_p&#45;&gt;E_int</title>
<path fill="none" stroke="black" d="M1123.07,-317.785C1124.62,-317.302 1153.61,-308.282 1178.26,-300.612"/>
<polygon fill="black" stroke="black" points="1179.62,-303.857 1188.12,-297.545 1177.54,-297.173 1179.62,-303.857"/>
</g>
</g>
</svg>
