<?xml version="1.0" encoding="UTF-8" standalone="no"?>
<!DOCTYPE svg PUBLIC "-//W3C//DTD SVG 1.1//EN"
 "http://www.w3.org/Graphics/SVG/1.1/DTD/svg11.dtd">
<!-- Generated by graphviz version 2.24.0 (20090616.2323)
 -->
<!-- Title: G Pages: 1 -->
<svg width="650pt" height="219pt"
 viewBox="0.00 0.00 650.00 219.00" xmlns="http://www.w3.org/2000/svg" xmlns:xlink="http://www.w3.org/1999/xlink">
<g id="graph1" class="graph" transform="scale(1 1) rotate(0) translate(4 215)">
<title>G</title>
<polygon fill="white" stroke="white" points="-4,5 -4,-215 647,-215 647,5 -4,5"/>
<!-- ADPi -->
<g id="node1" class="node"><title>ADPi</title>
<ellipse fill="none" stroke="black" cx="18" cy="-93" rx="18" ry="18"/>
<text text-anchor="middle" x="18" y="-90.5" font-family="Times Roman,serif" font-size="10.00">ADPi</text>
</g>
<!-- OxPhos_intermediate_r -->
<g id="node12" class="node"><title>OxPhos_intermediate_r</title>
<ellipse fill="black" stroke="black" cx="73" cy="-47" rx="0.036" ry="0.036"/>
</g>
<!-- ADPi&#45;&gt;OxPhos_intermediate_r -->
<g id="edge4" class="edge"><title>ADPi&#45;&gt;OxPhos_intermediate_r</title>
<path fill="none" stroke="black" d="M39.7486,-74.8103C54.5535,-62.428 71.6865,-48.0985 72.9283,-47.06"/>
<polygon fill="black" stroke="black" points="37.3042,-72.2919 31.8788,-81.3923 41.7951,-77.6614 37.3042,-72.2919"/>
</g>
<!-- ADP_diffusion_intermediate_r -->
<g id="node60" class="node"><title>ADP_diffusion_intermediate_r</title>
<ellipse fill="black" stroke="black" cx="73" cy="-93" rx="0.036" ry="0.036"/>
</g>
<!-- ADPi&#45;&gt;ADP_diffusion_intermediate_r -->
<g id="edge64" class="edge"><title>ADPi&#45;&gt;ADP_diffusion_intermediate_r</title>
<path fill="none" stroke="black" d="M46.2368,-93C59.2067,-93 71.9578,-93 72.9394,-93"/>
<polygon fill="black" stroke="black" points="46.0091,-89.5001 36.0091,-93 46.009,-96.5001 46.0091,-89.5001"/>
</g>
<!-- ATPi -->
<g id="node2" class="node"><title>ATPi</title>
<ellipse fill="none" stroke="black" cx="228" cy="-47" rx="18" ry="18"/>
<text text-anchor="middle" x="228" y="-44.5" font-family="Times Roman,serif" font-size="10.00">ATPi</text>
</g>
<!-- MiCK_intermediate_r -->
<g id="node20" class="node"><title>MiCK_intermediate_r</title>
<ellipse fill="black" stroke="black" cx="283" cy="-121" rx="0.036" ry="0.036"/>
</g>
<!-- ATPi&#45;&gt;MiCK_intermediate_r -->
<g id="edge14" class="edge"><title>ATPi&#45;&gt;MiCK_intermediate_r</title>
<path fill="none" stroke="black" d="M244.941,-69.7932C260.53,-90.7676 281.457,-118.924 282.919,-120.891"/>
<polygon fill="black" stroke="black" points="247.641,-67.5581 238.866,-61.62 242.022,-71.7338 247.641,-67.5581"/>
</g>
<!-- ATP_diffusion_intermediate_r -->
<g id="node74" class="node"><title>ATP_diffusion_intermediate_r</title>
<ellipse fill="black" stroke="black" cx="283" cy="-47" rx="0.036" ry="0.036"/>
</g>
<!-- ATPi&#45;&gt;ATP_diffusion_intermediate_r -->
<g id="edge80" class="edge"><title>ATPi&#45;&gt;ATP_diffusion_intermediate_r</title>
<path fill="none" stroke="black" d="M256.237,-47C269.207,-47 281.958,-47 282.939,-47"/>
<polygon fill="black" stroke="black" points="256.009,-43.5001 246.009,-47 256.009,-50.5001 256.009,-43.5001"/>
</g>
<!-- Cri -->
<g id="node3" class="node"><title>Cri</title>
<ellipse fill="none" stroke="black" cx="228" cy="-139" rx="18" ry="18"/>
<text text-anchor="middle" x="228" y="-136.5" font-family="Times Roman,serif" font-size="10.00">Cri</text>
</g>
<!-- Cri&#45;&gt;MiCK_intermediate_r -->
<g id="edge16" class="edge"><title>Cri&#45;&gt;MiCK_intermediate_r</title>
<path fill="none" stroke="black" d="M254.944,-130.182C268.34,-125.798 281.912,-121.356 282.938,-121.02"/>
<polygon fill="black" stroke="black" points="253.818,-126.868 245.402,-133.305 255.995,-133.521 253.818,-126.868"/>
</g>
<!-- Cr_diffusion_intermediate_r -->
<g id="node53" class="node"><title>Cr_diffusion_intermediate_r</title>
<ellipse fill="black" stroke="black" cx="283" cy="-139" rx="0.036" ry="0.036"/>
</g>
<!-- Cri&#45;&gt;Cr_diffusion_intermediate_r -->
<g id="edge56" class="edge"><title>Cri&#45;&gt;Cr_diffusion_intermediate_r</title>
<path fill="none" stroke="black" d="M256.237,-139C269.207,-139 281.958,-139 282.939,-139"/>
<polygon fill="black" stroke="black" points="256.009,-135.5 246.009,-139 256.009,-142.5 256.009,-135.5"/>
</g>
<!-- PCri -->
<g id="node4" class="node"><title>PCri</title>
<ellipse fill="none" stroke="black" cx="426" cy="-193" rx="18" ry="18"/>
<text text-anchor="middle" x="426" y="-190.5" font-family="Times Roman,serif" font-size="10.00">PCri</text>
</g>
<!-- PCr_diffusion_intermediate_r -->
<g id="node67" class="node"><title>PCr_diffusion_intermediate_r</title>
<ellipse fill="black" stroke="black" cx="481" cy="-191" rx="0.036" ry="0.036"/>
</g>
<!-- PCri&#45;&gt;PCr_diffusion_intermediate_r -->
<g id="edge72" class="edge"><title>PCri&#45;&gt;PCr_diffusion_intermediate_r</title>
<path fill="none" stroke="black" d="M454.237,-191.973C467.207,-191.502 479.958,-191.038 480.939,-191.002"/>
<polygon fill="black" stroke="black" points="453.875,-188.484 444.009,-192.345 454.13,-195.479 453.875,-188.484"/>
</g>
<!-- PCr -->
<g id="node5" class="node"><title>PCr</title>
<ellipse fill="none" stroke="black" cx="624" cy="-149" rx="18" ry="18"/>
<text text-anchor="middle" x="624" y="-146.5" font-family="Times Roman,serif" font-size="10.00">PCr</text>
</g>
<!-- ADP -->
<g id="node6" class="node"><title>ADP</title>
<ellipse fill="none" stroke="black" cx="624" cy="-93" rx="18" ry="18"/>
<text text-anchor="middle" x="624" y="-90.5" font-family="Times Roman,serif" font-size="10.00">ADP</text>
</g>
<!-- ATP -->
<g id="node7" class="node"><title>ATP</title>
<ellipse fill="none" stroke="black" cx="426" cy="-47" rx="18" ry="18"/>
<text text-anchor="middle" x="426" y="-44.5" font-family="Times Roman,serif" font-size="10.00">ATP</text>
</g>
<!-- MMCK_intermediate_r -->
<g id="node29" class="node"><title>MMCK_intermediate_r</title>
<ellipse fill="black" stroke="black" cx="481" cy="-135" rx="0.036" ry="0.036"/>
</g>
<!-- ATP&#45;&gt;MMCK_intermediate_r -->
<g id="edge26" class="edge"><title>ATP&#45;&gt;MMCK_intermediate_r</title>
<path fill="none" stroke="black" d="M441.006,-71.0091C456.722,-96.1547 479.352,-132.363 480.914,-134.863"/>
<polygon fill="black" stroke="black" points="443.848,-68.9534 435.58,-62.3284 437.912,-72.6634 443.848,-68.9534"/>
</g>
<!-- ATPase_intermediate_r -->
<g id="node38" class="node"><title>ATPase_intermediate_r</title>
<ellipse fill="black" stroke="black" cx="481" cy="-47" rx="0.036" ry="0.036"/>
</g>
<!-- ATP&#45;&gt;ATPase_intermediate_r -->
<g id="edge38" class="edge"><title>ATP&#45;&gt;ATPase_intermediate_r</title>
<path fill="none" stroke="black" d="M444.009,-47C459.548,-47 479.695,-47 480.939,-47"/>
</g>
<!-- Cr -->
<g id="node8" class="node"><title>Cr</title>
<ellipse fill="none" stroke="black" cx="426" cy="-139" rx="18" ry="18"/>
<text text-anchor="middle" x="426" y="-136.5" font-family="Times Roman,serif" font-size="10.00">Cr</text>
</g>
<!-- Cr&#45;&gt;MMCK_intermediate_r -->
<g id="edge28" class="edge"><title>Cr&#45;&gt;MMCK_intermediate_r</title>
<path fill="none" stroke="black" d="M454.237,-136.946C467.207,-136.003 479.958,-135.076 480.939,-135.004"/>
<polygon fill="black" stroke="black" points="453.729,-133.474 444.009,-137.69 454.237,-140.456 453.729,-133.474"/>
</g>
<!-- Pi -->
<g id="node9" class="node"><title>Pi</title>
<ellipse fill="none" stroke="black" cx="18" cy="-27" rx="18" ry="18"/>
<text text-anchor="middle" x="18" y="-24.5" font-family="Times Roman,serif" font-size="10.00">Pii</text>
</g>
<!-- Pi&#45;&gt;OxPhos_intermediate_r -->
<g id="edge6" class="edge"><title>Pi&#45;&gt;OxPhos_intermediate_r</title>
<path fill="none" stroke="black" d="M44.6824,-36.7027C58.1592,-41.6033 71.8981,-46.5993 72.9371,-46.9771"/>
<polygon fill="black" stroke="black" points="45.6949,-33.3467 35.1009,-33.2185 43.3027,-39.9253 45.6949,-33.3467"/>
</g>
<!-- Pi_diffusion_intermediate_r -->
<g id="node46" class="node"><title>Pi_diffusion_intermediate_r</title>
<ellipse fill="black" stroke="black" cx="117" cy="-13" rx="0.036" ry="0.036"/>
</g>
<!-- Pi&#45;&gt;Pi_diffusion_intermediate_r -->
<g id="edge48" class="edge"><title>Pi&#45;&gt;Pi_diffusion_intermediate_r</title>
<path fill="none" stroke="black" d="M46.3227,-22.9948C74.5527,-19.0027 114.107,-13.4091 116.849,-13.0213"/>
<polygon fill="black" stroke="black" points="45.5695,-19.5664 36.1581,-24.4322 46.5497,-26.4974 45.5695,-19.5664"/>
</g>
<!-- P -->
<g id="node10" class="node"><title>P</title>
<ellipse fill="none" stroke="black" cx="624" cy="-20" rx="18" ry="18"/>
<text text-anchor="middle" x="624" y="-17.5" font-family="Times Roman,serif" font-size="10.00">Pi</text>
</g>
<!-- OxPhos -->
<g id="node11" class="node"><title>OxPhos</title>
<polygon fill="none" stroke="black" points="124,-54 110,-54 110,-40 124,-40 124,-54"/>
</g>
<!-- OxPhos_intermediate_p -->
<g id="node16" class="node"><title>OxPhos_intermediate_p</title>
<ellipse fill="black" stroke="black" cx="167" cy="-47" rx="0.036" ry="0.036"/>
</g>
<!-- OxPhos&#45;&gt;OxPhos_intermediate_p -->
<g id="edge8" class="edge"><title>OxPhos&#45;&gt;OxPhos_intermediate_p</title>
<path fill="none" stroke="black" d="M124.378,-47C137.851,-47 165.22,-47 166.917,-47"/>
</g>
<!-- OxPhos_intermediate_r&#45;&gt;OxPhos -->
<g id="edge2" class="edge"><title>OxPhos_intermediate_r&#45;&gt;OxPhos</title>
<path fill="none" stroke="black" d="M73.1262,-47C75.0215,-47 97.7945,-47 109.759,-47"/>
</g>
<!-- OxPhos_intermediate_p&#45;&gt;ATPi -->
<g id="edge10" class="edge"><title>OxPhos_intermediate_p&#45;&gt;ATPi</title>
<path fill="none" stroke="black" d="M167.044,-47C167.994,-47 184.081,-47 199.489,-47"/>
<polygon fill="black" stroke="black" points="199.853,-50.5001 209.853,-47 199.853,-43.5001 199.853,-50.5001"/>
</g>
<!-- MiCK -->
<g id="node19" class="node"><title>MiCK</title>
<polygon fill="none" stroke="black" points="334,-170 320,-170 320,-156 334,-156 334,-170"/>
</g>
<!-- MiCK_intermediate_p -->
<g id="node24" class="node"><title>MiCK_intermediate_p</title>
<ellipse fill="black" stroke="black" cx="371" cy="-193" rx="0.036" ry="0.036"/>
</g>
<!-- MiCK&#45;&gt;MiCK_intermediate_p -->
<g id="edge18" class="edge"><title>MiCK&#45;&gt;MiCK_intermediate_p</title>
<path fill="none" stroke="black" d="M334.266,-167.954C346.372,-176.208 369.497,-191.975 370.93,-192.952"/>
</g>
<!-- MiCK_intermediate_r&#45;&gt;MiCK -->
<g id="edge12" class="edge"><title>MiCK_intermediate_r&#45;&gt;MiCK</title>
<path fill="none" stroke="black" d="M283.126,-121.12C285.022,-122.93 307.795,-144.667 319.759,-156.088"/>
</g>
<!-- MiCK_intermediate_p&#45;&gt;ADPi -->
<g id="edge20" class="edge"><title>MiCK_intermediate_p&#45;&gt;ADPi</title>
<path fill="none" stroke="black" d="M370.859,-193.014C367.958,-193.308 320.95,-198 283,-198 117,-198 117,-198 117,-198 73.8197,-198 43.9092,-150.41 28.9723,-119.308"/>
<polygon fill="black" stroke="black" points="31.9965,-117.505 24.6509,-109.87 25.632,-120.419 31.9965,-117.505"/>
</g>
<!-- MiCK_intermediate_p&#45;&gt;PCri -->
<g id="edge22" class="edge"><title>MiCK_intermediate_p&#45;&gt;PCri</title>
<path fill="none" stroke="black" d="M371.158,-193C372.674,-193 384.878,-193 397.389,-193"/>
<polygon fill="black" stroke="black" points="397.743,-196.5 407.743,-193 397.743,-189.5 397.743,-196.5"/>
</g>
<!-- MMCK -->
<g id="node28" class="node"><title>MMCK</title>
<polygon fill="none" stroke="black" points="532,-142 518,-142 518,-128 532,-128 532,-142"/>
</g>
<!-- MMCK_intermediate_p -->
<g id="node33" class="node"><title>MMCK_intermediate_p</title>
<ellipse fill="black" stroke="black" cx="569" cy="-135" rx="0.036" ry="0.036"/>
</g>
<!-- MMCK&#45;&gt;MMCK_intermediate_p -->
<g id="edge30" class="edge"><title>MMCK&#45;&gt;MMCK_intermediate_p</title>
<path fill="none" stroke="black" d="M532.266,-135C544.372,-135 567.497,-135 568.93,-135"/>
</g>
<!-- MMCK_intermediate_r&#45;&gt;MMCK -->
<g id="edge24" class="edge"><title>MMCK_intermediate_r&#45;&gt;MMCK</title>
<path fill="none" stroke="black" d="M481.126,-135C483.022,-135 505.795,-135 517.759,-135"/>
</g>
<!-- MMCK_intermediate_p&#45;&gt;PCr -->
<g id="edge32" class="edge"><title>MMCK_intermediate_p&#45;&gt;PCr</title>
<path fill="none" stroke="black" d="M569.158,-135.04C570.724,-135.439 583.701,-138.742 596.638,-142.035"/>
<polygon fill="black" stroke="black" points="595.778,-145.428 606.333,-144.503 597.505,-138.644 595.778,-145.428"/>
</g>
<!-- MMCK_intermediate_p&#45;&gt;ADP -->
<g id="edge34" class="edge"><title>MMCK_intermediate_p&#45;&gt;ADP</title>
<path fill="none" stroke="black" d="M569.158,-134.88C570.917,-133.536 587.066,-121.204 601.388,-110.267"/>
<polygon fill="black" stroke="black" points="603.663,-112.934 609.486,-104.083 599.415,-107.371 603.663,-112.934"/>
</g>
<!-- ATPase -->
<g id="node37" class="node"><title>ATPase</title>
<polygon fill="none" stroke="black" points="532,-54 518,-54 518,-40 532,-40 532,-54"/>
</g>
<!-- ATPase_intermediate_p -->
<g id="node41" class="node"><title>ATPase_intermediate_p</title>
<ellipse fill="black" stroke="black" cx="569" cy="-47" rx="0.036" ry="0.036"/>
</g>
<!-- ATPase&#45;&gt;ATPase_intermediate_p -->
<g id="edge40" class="edge"><title>ATPase&#45;&gt;ATPase_intermediate_p</title>
<path fill="none" stroke="black" d="M532.266,-47C544.372,-47 567.497,-47 568.93,-47"/>
</g>
<!-- ATPase_intermediate_r&#45;&gt;ATPase -->
<g id="edge36" class="edge"><title>ATPase_intermediate_r&#45;&gt;ATPase</title>
<path fill="none" stroke="black" d="M481.126,-47C483.022,-47 505.795,-47 517.759,-47"/>
</g>
<!-- ATPase_intermediate_p&#45;&gt;ADP -->
<g id="edge42" class="edge"><title>ATPase_intermediate_p&#45;&gt;ADP</title>
<path fill="none" stroke="black" d="M569.158,-47.132C570.955,-48.6348 587.765,-62.6943 602.306,-74.856"/>
<polygon fill="black" stroke="black" points="600.125,-77.5945 610.041,-81.3254 604.616,-72.225 600.125,-77.5945"/>
</g>
<!-- ATPase_intermediate_p&#45;&gt;P -->
<g id="edge44" class="edge"><title>ATPase_intermediate_p&#45;&gt;P</title>
<path fill="none" stroke="black" d="M569.158,-46.9225C570.806,-46.1133 585.09,-39.1014 598.665,-32.4371"/>
<polygon fill="black" stroke="black" points="600.352,-35.508 607.786,-27.9594 597.267,-29.2244 600.352,-35.508"/>
</g>
<!-- Pi_diffusion -->
<g id="node45" class="node"><title>Pi_diffusion</title>
<polygon fill="none" stroke="black" points="174,-14 160,-14 160,-6.21725e-15 174,-2.66454e-15 174,-14"/>
</g>
<!-- Pi_diffusion_intermediate_p -->
<g id="node49" class="node"><title>Pi_diffusion_intermediate_p</title>
<ellipse fill="black" stroke="black" cx="228" cy="-6" rx="0.036" ry="0.036"/>
</g>
<!-- Pi_diffusion&#45;&gt;Pi_diffusion_intermediate_p -->
<g id="edge50" class="edge"><title>Pi_diffusion&#45;&gt;Pi_diffusion_intermediate_p</title>
<path fill="none" stroke="black" d="M174.48,-6.87738C190.26,-6.6187 225.693,-6.03781 227.893,-6.00176"/>
</g>
<!-- Pi_diffusion_intermediate_r&#45;&gt;Pi_diffusion -->
<g id="edge46" class="edge"><title>Pi_diffusion_intermediate_r&#45;&gt;Pi_diffusion</title>
<path fill="none" stroke="black" d="M117.143,-12.9828C119.343,-12.7188 146.288,-9.4855 159.622,-7.88532"/>
</g>
<!-- Pi_diffusion_intermediate_p&#45;&gt;P -->
<g id="edge52" class="edge"><title>Pi_diffusion_intermediate_p&#45;&gt;P</title>
<path fill="none" stroke="black" d="M228.159,-5.98566C231.423,-5.69238 284.321,-1 327,-1 327,-1 327,-1 525,-1 549.626,-1 577.09,-6.74023 596.833,-11.9104"/>
<polygon fill="black" stroke="black" points="596.098,-15.3381 606.668,-14.6062 597.948,-8.58713 596.098,-15.3381"/>
</g>
<!-- Cr_diffusion -->
<g id="node52" class="node"><title>Cr_diffusion</title>
<polygon fill="none" stroke="black" points="334,-138 320,-138 320,-124 334,-124 334,-138"/>
</g>
<!-- Cr_diffusion_intermediate_p -->
<g id="node56" class="node"><title>Cr_diffusion_intermediate_p</title>
<ellipse fill="black" stroke="black" cx="371" cy="-134" rx="0.036" ry="0.036"/>
</g>
<!-- Cr_diffusion&#45;&gt;Cr_diffusion_intermediate_p -->
<g id="edge58" class="edge"><title>Cr_diffusion&#45;&gt;Cr_diffusion_intermediate_p</title>
<path fill="none" stroke="black" d="M334.266,-131.495C346.372,-132.321 369.497,-133.897 370.93,-133.995"/>
</g>
<!-- Cr_diffusion_intermediate_r&#45;&gt;Cr_diffusion -->
<g id="edge54" class="edge"><title>Cr_diffusion_intermediate_r&#45;&gt;Cr_diffusion</title>
<path fill="none" stroke="black" d="M283.126,-138.977C285.022,-138.632 307.795,-134.492 319.759,-132.317"/>
</g>
<!-- Cr_diffusion_intermediate_p&#45;&gt;Cr -->
<g id="edge60" class="edge"><title>Cr_diffusion_intermediate_p&#45;&gt;Cr</title>
<path fill="none" stroke="black" d="M371.158,-134.014C372.699,-134.154 385.285,-135.299 398.011,-136.456"/>
<polygon fill="black" stroke="black" points="397.763,-139.947 408.039,-137.367 398.396,-132.976 397.763,-139.947"/>
</g>
<!-- ADP_diffusion -->
<g id="node59" class="node"><title>ADP_diffusion</title>
<polygon fill="none" stroke="black" points="124,-100 110,-100 110,-86 124,-86 124,-100"/>
</g>
<!-- ADP_diffusion_intermediate_p -->
<g id="node63" class="node"><title>ADP_diffusion_intermediate_p</title>
<ellipse fill="black" stroke="black" cx="167" cy="-93" rx="0.036" ry="0.036"/>
</g>
<!-- ADP_diffusion&#45;&gt;ADP_diffusion_intermediate_p -->
<g id="edge66" class="edge"><title>ADP_diffusion&#45;&gt;ADP_diffusion_intermediate_p</title>
<path fill="none" stroke="black" d="M124.378,-93C137.851,-93 165.22,-93 166.917,-93"/>
</g>
<!-- ADP_diffusion_intermediate_r&#45;&gt;ADP_diffusion -->
<g id="edge62" class="edge"><title>ADP_diffusion_intermediate_r&#45;&gt;ADP_diffusion</title>
<path fill="none" stroke="black" d="M73.1262,-93C75.0215,-93 97.7945,-93 109.759,-93"/>
</g>
<!-- ADP_diffusion_intermediate_p&#45;&gt;ADP -->
<g id="edge68" class="edge"><title>ADP_diffusion_intermediate_p&#45;&gt;ADP</title>
<path fill="none" stroke="black" d="M167.047,-93C169.011,-93 232.25,-93 283,-93 283,-93 283,-93 525,-93 548.783,-93 575.78,-93 595.568,-93"/>
<polygon fill="black" stroke="black" points="595.754,-96.5001 605.753,-93 595.753,-89.5001 595.754,-96.5001"/>
</g>
<!-- PCr_diffusion -->
<g id="node66" class="node"><title>PCr_diffusion</title>
<polygon fill="none" stroke="black" points="532,-182 518,-182 518,-168 532,-168 532,-182"/>
</g>
<!-- PCr_diffusion_intermediate_p -->
<g id="node70" class="node"><title>PCr_diffusion_intermediate_p</title>
<ellipse fill="black" stroke="black" cx="569" cy="-153" rx="0.036" ry="0.036"/>
</g>
<!-- PCr_diffusion&#45;&gt;PCr_diffusion_intermediate_p -->
<g id="edge74" class="edge"><title>PCr_diffusion&#45;&gt;PCr_diffusion_intermediate_p</title>
<path fill="none" stroke="black" d="M532.266,-171.367C544.372,-165.314 567.497,-153.752 568.93,-153.035"/>
</g>
<!-- PCr_diffusion_intermediate_r&#45;&gt;PCr_diffusion -->
<g id="edge70" class="edge"><title>PCr_diffusion_intermediate_r&#45;&gt;PCr_diffusion</title>
<path fill="none" stroke="black" d="M481.126,-190.954C483.022,-190.265 505.795,-181.984 517.759,-177.633"/>
</g>
<!-- PCr_diffusion_intermediate_p&#45;&gt;PCr -->
<g id="edge76" class="edge"><title>PCr_diffusion_intermediate_p&#45;&gt;PCr</title>
<path fill="none" stroke="black" d="M569.158,-152.989C570.699,-152.876 583.285,-151.961 596.011,-151.036"/>
<polygon fill="black" stroke="black" points="596.319,-154.523 606.039,-150.306 595.811,-147.541 596.319,-154.523"/>
</g>
<!-- ATP_diffusion -->
<g id="node73" class="node"><title>ATP_diffusion</title>
<polygon fill="none" stroke="black" points="334,-54 320,-54 320,-40 334,-40 334,-54"/>
</g>
<!-- ATP_diffusion_intermediate_p -->
<g id="node77" class="node"><title>ATP_diffusion_intermediate_p</title>
<ellipse fill="black" stroke="black" cx="371" cy="-47" rx="0.036" ry="0.036"/>
</g>
<!-- ATP_diffusion&#45;&gt;ATP_diffusion_intermediate_p -->
<g id="edge82" class="edge"><title>ATP_diffusion&#45;&gt;ATP_diffusion_intermediate_p</title>
<path fill="none" stroke="black" d="M334.266,-47C346.372,-47 369.497,-47 370.93,-47"/>
</g>
<!-- ATP_diffusion_intermediate_r&#45;&gt;ATP_diffusion -->
<g id="edge78" class="edge"><title>ATP_diffusion_intermediate_r&#45;&gt;ATP_diffusion</title>
<path fill="none" stroke="black" d="M283.126,-47C285.022,-47 307.795,-47 319.759,-47"/>
</g>
<!-- ATP_diffusion_intermediate_p&#45;&gt;ATP -->
<g id="edge84" class="edge"><title>ATP_diffusion_intermediate_p&#45;&gt;ATP</title>
<path fill="none" stroke="black" d="M371.158,-47C372.674,-47 384.878,-47 397.389,-47"/>
<polygon fill="black" stroke="black" points="397.743,-50.5001 407.743,-47 397.743,-43.5001 397.743,-50.5001"/>
</g>
</g>
</svg>
