<?xml version="1.0" encoding="UTF-8" standalone="no"?>
<!DOCTYPE svg PUBLIC "-//W3C//DTD SVG 1.1//EN"
 "http://www.w3.org/Graphics/SVG/1.1/DTD/svg11.dtd">
<!-- Generated by graphviz version 2.24.0 (20090616.2323)
 -->
<!-- Title: G Pages: 1 -->
<svg width="402pt" height="88pt"
 viewBox="0.00 0.00 402.00 88.00" xmlns="http://www.w3.org/2000/svg" xmlns:xlink="http://www.w3.org/1999/xlink">
<g id="graph1" class="graph" transform="scale(1 1) rotate(0) translate(4 84)">
<title>G</title>
<polygon fill="white" stroke="white" points="-4,5 -4,-84 399,-84 399,5 -4,5"/>
<!-- S -->
<g id="node1" class="node"><title>S</title>
<ellipse fill="none" stroke="black" cx="27" cy="-38" rx="27" ry="18"/>
<text text-anchor="middle" x="27" y="-35.5" font-family="Times Roman,serif" font-size="10.00">S</text>
</g>
<!-- re12_intermediate_r -->
<g id="node11" class="node"><title>re12_intermediate_r</title>
<ellipse fill="black" stroke="black" cx="91" cy="-69" rx="0.036" ry="0.036"/>
</g>
<!-- S&#45;&gt;re12_intermediate_r -->
<g id="edge12" class="edge"><title>S&#45;&gt;re12_intermediate_r</title>
<path fill="none" stroke="black" d="M49.0252,-48.6684C66.9596,-57.3554 89.5385,-68.2921 90.9321,-68.9671"/>
</g>
<!-- re12_intermediate_m -->
<g id="node17" class="node"><title>re12_intermediate_m</title>
<ellipse fill="black" stroke="black" cx="179" cy="-42" rx="0.036" ry="0.036"/>
</g>
<!-- S&#45;&gt;re12_intermediate_m -->
<g id="edge20" class="edge"><title>S&#45;&gt;re12_intermediate_m</title>
<path fill="none" stroke="black" d="M54.1746,-38.7151C97.212,-39.8477 176.475,-41.9335 178.941,-41.9984"/>
</g>
<!-- ES -->
<g id="node2" class="node"><title>ES</title>
<ellipse fill="none" stroke="black" cx="243" cy="-55" rx="27" ry="18"/>
<text text-anchor="middle" x="243" y="-52.5" font-family="Times Roman,serif" font-size="10.00">ES</text>
</g>
<!-- re2_intermediate_r -->
<g id="node4" class="node"><title>re2_intermediate_r</title>
<ellipse fill="black" stroke="black" cx="307" cy="-50" rx="0.036" ry="0.036"/>
</g>
<!-- ES&#45;&gt;re2_intermediate_r -->
<g id="edge4" class="edge"><title>ES&#45;&gt;re2_intermediate_r</title>
<path fill="none" stroke="black" d="M270.142,-52.8795C287.04,-51.5594 305.788,-50.0946 306.944,-50.0044"/>
</g>
<!-- re2 -->
<g id="node3" class="node"><title>re2</title>
<polygon fill="none" stroke="black" points="358,-47 344,-47 344,-33 358,-33 358,-47"/>
</g>
<!-- re2_intermediate_p -->
<g id="node7" class="node"><title>re2_intermediate_p</title>
<ellipse fill="black" stroke="black" cx="394" cy="-20" rx="0.036" ry="0.036"/>
</g>
<!-- re2&#45;&gt;re2_intermediate_p -->
<g id="edge6" class="edge"><title>re2&#45;&gt;re2_intermediate_p</title>
<path fill="none" stroke="black" d="M358.101,-36.6974C369.932,-31.1944 392.531,-20.6833 393.932,-20.0318"/>
</g>
<!-- re2_intermediate_r&#45;&gt;re2 -->
<g id="edge2" class="edge"><title>re2_intermediate_r&#45;&gt;re2</title>
<path fill="none" stroke="black" d="M307.126,-49.9713C309.022,-49.5406 331.795,-44.3649 343.759,-41.6457"/>
</g>
<!-- re2_intermediate_p&#45;&gt;S -->
<g id="edge8" class="edge"><title>re2_intermediate_p&#45;&gt;S</title>
<path fill="none" stroke="black" d="M393.863,-19.9426C391.05,-18.7695 345.435,-3.55271e-15 307,-0 135,-0 135,-0 135,-0 107.421,-0 78.0116,-11.1627 56.8574,-21.3879"/>
<polygon fill="black" stroke="black" points="55.109,-18.3497 47.7551,-25.9766 58.2601,-24.6003 55.109,-18.3497"/>
</g>
<!-- re12 -->
<g id="node10" class="node"><title>re12</title>
<polygon fill="none" stroke="black" points="142,-80 128,-80 128,-66 142,-66 142,-80"/>
</g>
<!-- re12_intermediate_p -->
<g id="node14" class="node"><title>re12_intermediate_p</title>
<ellipse fill="black" stroke="black" cx="179" cy="-68" rx="0.036" ry="0.036"/>
</g>
<!-- re12&#45;&gt;re12_intermediate_p -->
<g id="edge14" class="edge"><title>re12&#45;&gt;re12_intermediate_p</title>
<path fill="none" stroke="black" d="M142.266,-72.1744C154.372,-70.7986 177.497,-68.1708 178.93,-68.0079"/>
</g>
<!-- re12&#45;&gt;re12_intermediate_m -->
<g id="edge18" class="edge"><title>re12&#45;&gt;re12_intermediate_m</title>
<path fill="none" stroke="black" d="M152.173,-60.901C164.02,-52.5538 177.833,-42.8225 178.93,-42.0493"/>
<polygon fill="none" stroke="black" points="152.076,-60.9695 149.474,-67.6952 142.266,-67.881 144.867,-61.1553 152.076,-60.9695"/>
</g>
<!-- re12_intermediate_r&#45;&gt;re12 -->
<g id="edge10" class="edge"><title>re12_intermediate_r&#45;&gt;re12</title>
<path fill="none" stroke="black" d="M91.1262,-69.0115C93.0215,-69.1838 115.795,-71.254 127.759,-72.3417"/>
</g>
<!-- re12_intermediate_p&#45;&gt;ES -->
<g id="edge16" class="edge"><title>re12_intermediate_p&#45;&gt;ES</title>
<path fill="none" stroke="black" d="M179.046,-67.9906C179.911,-67.8149 192.746,-65.2079 206.692,-62.3751"/>
<polygon fill="black" stroke="black" points="207.785,-65.7246 216.888,-60.304 206.391,-58.8647 207.785,-65.7246"/>
</g>
</g>
</svg>
