<?xml version="1.0" encoding="UTF-8" standalone="no"?>
<!DOCTYPE svg PUBLIC "-//W3C//DTD SVG 1.1//EN"
 "http://www.w3.org/Graphics/SVG/1.1/DTD/svg11.dtd">
<!-- Generated by graphviz version 2.24.0 (20090616.2323)
 -->
<!-- Title: G Pages: 1 -->
<svg width="740pt" height="458pt"
 viewBox="0.00 0.00 740.00 458.00" xmlns="http://www.w3.org/2000/svg" xmlns:xlink="http://www.w3.org/1999/xlink">
<g id="graph1" class="graph" transform="scale(1 1) rotate(0) translate(4 454)">
<title>G</title>
<polygon fill="white" stroke="white" points="-4,5 -4,-454 737,-454 737,5 -4,5"/>
<!-- taRNA -->
<g id="node1" class="node"><title>taRNA</title>
<ellipse fill="none" stroke="black" cx="287" cy="-250" rx="18" ry="18"/>
<text text-anchor="middle" x="287" y="-247.5" font-family="Times Roman,serif" font-size="10.00">taRNA</text>
</g>
<!-- r1b_intermediate_r -->
<g id="node25" class="node"><title>r1b_intermediate_r</title>
<ellipse fill="black" stroke="black" cx="385" cy="-250" rx="0.036" ry="0.036"/>
</g>
<!-- taRNA&#45;&gt;r1b_intermediate_r -->
<g id="edge20" class="edge"><title>taRNA&#45;&gt;r1b_intermediate_r</title>
<path fill="none" stroke="black" d="M305.433,-250C332.934,-250 381.824,-250 384.852,-250"/>
</g>
<!-- r6_intermediate_m -->
<g id="node63" class="node"><title>r6_intermediate_m</title>
<ellipse fill="black" stroke="black" cx="385" cy="-400" rx="0.036" ry="0.036"/>
</g>
<!-- taRNA&#45;&gt;r6_intermediate_m -->
<g id="edge60" class="edge"><title>taRNA&#45;&gt;r6_intermediate_m</title>
<path fill="none" stroke="black" d="M294.458,-266.531C310.505,-301.827 347.687,-382.081 358,-391 367.269,-399.016 383.918,-399.947 384.95,-399.998"/>
</g>
<!-- r7_intermediate_m -->
<g id="node73" class="node"><title>r7_intermediate_m</title>
<ellipse fill="black" stroke="black" cx="385" cy="-48" rx="0.036" ry="0.036"/>
</g>
<!-- taRNA&#45;&gt;r7_intermediate_m -->
<g id="edge72" class="edge"><title>taRNA&#45;&gt;r7_intermediate_m</title>
<path fill="none" stroke="black" d="M303.045,-241.12C309.874,-236.558 317.326,-230.395 322,-223 362.333,-159.185 307.583,-113.19 358,-57 366.184,-47.8794 383.85,-47.9837 384.947,-47.9991"/>
</g>
<!-- r11_intermediate_m -->
<g id="node110" class="node"><title>r11_intermediate_m</title>
<ellipse fill="black" stroke="black" cx="385" cy="-214" rx="0.036" ry="0.036"/>
</g>
<!-- taRNA&#45;&gt;r11_intermediate_m -->
<g id="edge112" class="edge"><title>taRNA&#45;&gt;r11_intermediate_m</title>
<path fill="none" stroke="black" d="M304.07,-243.729C331.271,-233.737 381.721,-215.205 384.848,-214.056"/>
</g>
<!-- mT7cr -->
<g id="node2" class="node"><title>mT7cr</title>
<ellipse fill="none" stroke="black" cx="287" cy="-432" rx="18" ry="18"/>
<text text-anchor="middle" x="287" y="-429.5" font-family="Times Roman,serif" font-size="10.00">mT7cr</text>
</g>
<!-- r2b_intermediate_r -->
<g id="node37" class="node"><title>r2b_intermediate_r</title>
<ellipse fill="black" stroke="black" cx="385" cy="-432" rx="0.036" ry="0.036"/>
</g>
<!-- mT7cr&#45;&gt;r2b_intermediate_r -->
<g id="edge32" class="edge"><title>mT7cr&#45;&gt;r2b_intermediate_r</title>
<path fill="none" stroke="black" d="M305.433,-432C332.934,-432 381.824,-432 384.852,-432"/>
</g>
<!-- mT7cr&#45;&gt;r6_intermediate_m -->
<g id="edge62" class="edge"><title>mT7cr&#45;&gt;r6_intermediate_m</title>
<path fill="none" stroke="black" d="M304.52,-426.279C331.828,-417.362 381.755,-401.059 384.849,-400.049"/>
</g>
<!-- mGFPcr -->
<g id="node3" class="node"><title>mGFPcr</title>
<ellipse fill="none" stroke="black" cx="287" cy="-61" rx="33.9733" ry="18"/>
<text text-anchor="middle" x="287" y="-58.5" font-family="Times Roman,serif" font-size="10.00">mGFPcr</text>
</g>
<!-- r3b_intermediate_r -->
<g id="node52" class="node"><title>r3b_intermediate_r</title>
<ellipse fill="black" stroke="black" cx="385" cy="-66" rx="0.036" ry="0.036"/>
</g>
<!-- mGFPcr&#45;&gt;r3b_intermediate_r -->
<g id="edge48" class="edge"><title>mGFPcr&#45;&gt;r3b_intermediate_r</title>
<path fill="none" stroke="black" d="M321.551,-62.7628C348.884,-64.1574 382.805,-65.888 384.898,-65.9948"/>
</g>
<!-- mGFPcr&#45;&gt;r7_intermediate_m -->
<g id="edge74" class="edge"><title>mGFPcr&#45;&gt;r7_intermediate_m</title>
<path fill="none" stroke="black" d="M320.452,-56.5625C347.955,-52.9142 382.748,-48.2988 384.895,-48.0139"/>
</g>
<!-- pT7 -->
<g id="node4" class="node"><title>pT7</title>
<polyline fill="none" stroke="black" points="490,-380 460,-380 "/>
<path fill="none" stroke="black" d="M460,-380C454,-380 448,-374 448,-368"/>
<polyline fill="none" stroke="black" points="448,-368 448,-356 "/>
<path fill="none" stroke="black" d="M448,-356C448,-350 454,-344 460,-344"/>
<polyline fill="none" stroke="black" points="460,-344 490,-344 "/>
<path fill="none" stroke="black" d="M490,-344C496,-344 502,-350 502,-356"/>
<polyline fill="none" stroke="black" points="502,-356 502,-368 "/>
<path fill="none" stroke="black" d="M502,-368C502,-374 496,-380 490,-380"/>
<text text-anchor="middle" x="475" y="-359.5" font-family="Times Roman,serif" font-size="10.00">pT7</text>
</g>
<!-- r8_intermediate_r -->
<g id="node78" class="node"><title>r8_intermediate_r</title>
<ellipse fill="black" stroke="black" cx="565" cy="-362" rx="0.036" ry="0.036"/>
</g>
<!-- pT7&#45;&gt;r8_intermediate_r -->
<g id="edge78" class="edge"><title>pT7&#45;&gt;r8_intermediate_r</title>
<path fill="none" stroke="black" d="M502.003,-362C527.685,-362 562.729,-362 564.895,-362"/>
</g>
<!-- r10a_intermediate_m -->
<g id="node95" class="node"><title>r10a_intermediate_m</title>
<ellipse fill="black" stroke="black" cx="565" cy="-320" rx="0.036" ry="0.036"/>
</g>
<!-- pT7&#45;&gt;r10a_intermediate_m -->
<g id="edge96" class="edge"><title>pT7&#45;&gt;r10a_intermediate_m</title>
<path fill="none" stroke="black" d="M502.003,-349.399C527.685,-337.414 562.729,-321.06 564.895,-320.049"/>
</g>
<!-- pGFP -->
<g id="node5" class="node"><title>pGFP</title>
<polyline fill="none" stroke="black" points="490,-36 460,-36 "/>
<path fill="none" stroke="black" d="M460,-36C454,-36 448,-30 448,-24"/>
<polyline fill="none" stroke="black" points="448,-24 448,-12 "/>
<path fill="none" stroke="black" d="M448,-12C448,-6 454,-1.61846e-14 460,-1.46056e-14"/>
<polyline fill="none" stroke="black" points="460,-1.46056e-14 490,-6.71068e-15 "/>
<path fill="none" stroke="black" d="M490,-6.71068e-15C496,-5.1317e-15 502,-6 502,-12"/>
<polyline fill="none" stroke="black" points="502,-12 502,-24 "/>
<path fill="none" stroke="black" d="M502,-24C502,-30 496,-36 490,-36"/>
<text text-anchor="middle" x="475" y="-15.5" font-family="Times Roman,serif" font-size="10.00">pGFP</text>
</g>
<!-- r9_intermediate_r -->
<g id="node84" class="node"><title>r9_intermediate_r</title>
<ellipse fill="black" stroke="black" cx="565" cy="-18" rx="0.036" ry="0.036"/>
</g>
<!-- pGFP&#45;&gt;r9_intermediate_r -->
<g id="edge84" class="edge"><title>pGFP&#45;&gt;r9_intermediate_r</title>
<path fill="none" stroke="black" d="M502.003,-18C527.685,-18 562.729,-18 564.895,-18"/>
</g>
<!-- ara -->
<g id="node6" class="node"><title>ara</title>
<ellipse fill="none" stroke="black" cx="108" cy="-359" rx="18" ry="18"/>
<text text-anchor="middle" x="108" y="-356.5" font-family="Times Roman,serif" font-size="10.00">ara</text>
</g>
<!-- r0_intermediate_r -->
<g id="node10" class="node"><title>r0_intermediate_r</title>
<ellipse fill="black" stroke="black" cx="189" cy="-356" rx="0.036" ry="0.036"/>
</g>
<!-- ara&#45;&gt;r0_intermediate_r -->
<g id="edge4" class="edge"><title>ara&#45;&gt;r0_intermediate_r</title>
<path fill="none" stroke="black" d="M126.38,-358.319C149.532,-357.462 186.594,-356.089 188.888,-356.004"/>
</g>
<!-- r1a_intermediate_m -->
<g id="node21" class="node"><title>r1a_intermediate_m</title>
<ellipse fill="black" stroke="black" cx="189" cy="-338" rx="0.036" ry="0.036"/>
</g>
<!-- ara&#45;&gt;r1a_intermediate_m -->
<g id="edge16" class="edge"><title>ara&#45;&gt;r1a_intermediate_m</title>
<path fill="none" stroke="black" d="M125.576,-354.443C148.654,-348.46 186.54,-338.638 188.886,-338.03"/>
</g>
<!-- pT3 -->
<g id="node7" class="node"><title>pT3</title>
<polyline fill="none" stroke="black" points="490,-171 460,-171 "/>
<path fill="none" stroke="black" d="M460,-171C454,-171 448,-165 448,-159"/>
<polyline fill="none" stroke="black" points="448,-159 448,-147 "/>
<path fill="none" stroke="black" d="M448,-147C448,-141 454,-135 460,-135"/>
<polyline fill="none" stroke="black" points="460,-135 490,-135 "/>
<path fill="none" stroke="black" d="M490,-135C496,-135 502,-141 502,-147"/>
<polyline fill="none" stroke="black" points="502,-147 502,-159 "/>
<path fill="none" stroke="black" d="M502,-159C502,-165 496,-171 490,-171"/>
<text text-anchor="middle" x="475" y="-150.5" font-family="Times Roman,serif" font-size="10.00">pT3</text>
</g>
<!-- r3a_intermediate_m -->
<g id="node48" class="node"><title>r3a_intermediate_m</title>
<ellipse fill="black" stroke="black" cx="565" cy="-121" rx="0.036" ry="0.036"/>
</g>
<!-- pT3&#45;&gt;r3a_intermediate_m -->
<g id="edge44" class="edge"><title>pT3&#45;&gt;r3a_intermediate_m</title>
<path fill="none" stroke="black" d="M502.003,-143.399C527.685,-134.268 562.729,-121.807 564.895,-121.038"/>
</g>
<!-- r12_intermediate_r -->
<g id="node115" class="node"><title>r12_intermediate_r</title>
<ellipse fill="black" stroke="black" cx="565" cy="-153" rx="0.036" ry="0.036"/>
</g>
<!-- pT3&#45;&gt;r12_intermediate_r -->
<g id="edge118" class="edge"><title>pT3&#45;&gt;r12_intermediate_r</title>
<path fill="none" stroke="black" d="M502.003,-153C527.685,-153 562.729,-153 564.895,-153"/>
</g>
<!-- mT3cr -->
<g id="node8" class="node"><title>mT3cr</title>
<ellipse fill="none" stroke="black" cx="287" cy="-196" rx="18" ry="18"/>
<text text-anchor="middle" x="287" y="-193.5" font-family="Times Roman,serif" font-size="10.00">mT3cr</text>
</g>
<!-- r10b_intermediate_r -->
<g id="node99" class="node"><title>r10b_intermediate_r</title>
<ellipse fill="black" stroke="black" cx="385" cy="-196" rx="0.036" ry="0.036"/>
</g>
<!-- mT3cr&#45;&gt;r10b_intermediate_r -->
<g id="edge100" class="edge"><title>mT3cr&#45;&gt;r10b_intermediate_r</title>
<path fill="none" stroke="black" d="M305.433,-196C332.934,-196 381.824,-196 384.852,-196"/>
</g>
<!-- mT3cr&#45;&gt;r11_intermediate_m -->
<g id="edge114" class="edge"><title>mT3cr&#45;&gt;r11_intermediate_m</title>
<path fill="none" stroke="black" d="M304.975,-199.301C332.382,-204.336 381.79,-213.41 384.851,-213.973"/>
</g>
<!-- r0 -->
<g id="node9" class="node"><title>r0</title>
<polygon fill="none" stroke="black" points="294,-354 280,-354 280,-340 294,-340 294,-354"/>
</g>
<!-- r0_empty -->
<g id="node13" class="node"><title>r0_empty</title>
<text text-anchor="middle" x="385" y="-341.5" font-family="Times Roman,serif" font-size="15.00" fill="blue">Ø</text>
</g>
<!-- r0&#45;&gt;r0_empty -->
<g id="edge6" class="edge"><title>r0&#45;&gt;r0_empty</title>
<path fill="none" stroke="black" d="M294.048,-346.928C305.26,-346.814 327.927,-346.582 347.826,-346.379"/>
<polygon fill="black" stroke="black" points="347.941,-349.878 357.905,-346.276 347.87,-342.879 347.941,-349.878"/>
</g>
<!-- r0_intermediate_r&#45;&gt;r0 -->
<g id="edge2" class="edge"><title>r0_intermediate_r&#45;&gt;r0</title>
<path fill="none" stroke="black" d="M189.071,-355.993C191.54,-355.767 257.694,-349.691 279.848,-347.657"/>
</g>
<!-- r1a -->
<g id="node15" class="node"><title>r1a</title>
<polygon fill="none" stroke="black" points="115,-323 101,-323 101,-309 115,-309 115,-323"/>
</g>
<!-- r1a_intermediate_p -->
<g id="node18" class="node"><title>r1a_intermediate_p</title>
<ellipse fill="black" stroke="black" cx="189" cy="-320" rx="0.036" ry="0.036"/>
</g>
<!-- r1a&#45;&gt;r1a_intermediate_p -->
<g id="edge10" class="edge"><title>r1a&#45;&gt;r1a_intermediate_p</title>
<path fill="none" stroke="black" d="M115.188,-316.355C134.392,-317.303 185.659,-319.835 188.845,-319.992"/>
</g>
<!-- r1a&#45;&gt;r1a_intermediate_m -->
<g id="edge14" class="edge"><title>r1a&#45;&gt;r1a_intermediate_m</title>
<path fill="none" stroke="black" d="M126.875,-321.127C149.92,-327.386 186.182,-337.235 188.845,-337.958"/>
<polygon fill="none" stroke="black" points="126.769,-321.098 119.93,-323.385 115.188,-317.952 122.027,-315.665 126.769,-321.098"/>
</g>
<!-- r1a_empty -->
<g id="node16" class="node"><title>r1a_empty</title>
<text text-anchor="middle" x="27" y="-311.5" font-family="Times Roman,serif" font-size="15.00" fill="blue">Ø</text>
</g>
<!-- r1a_empty&#45;&gt;r1a -->
<g id="edge8" class="edge"><title>r1a_empty&#45;&gt;r1a</title>
<path fill="none" stroke="black" d="M54.4229,-316C70.7619,-316 90.2818,-316 100.66,-316"/>
</g>
<!-- r1a_intermediate_p&#45;&gt;taRNA -->
<g id="edge12" class="edge"><title>r1a_intermediate_p&#45;&gt;taRNA</title>
<path fill="none" stroke="black" d="M189.071,-319.949C191.088,-318.509 235.604,-286.711 263.915,-266.489"/>
<polygon fill="black" stroke="black" points="266.013,-269.292 272.116,-260.631 261.944,-263.596 266.013,-269.292"/>
</g>
<!-- r1b -->
<g id="node24" class="node"><title>r1b</title>
<polygon fill="none" stroke="black" points="482,-257 468,-257 468,-243 482,-243 482,-257"/>
</g>
<!-- r1b_empty -->
<g id="node28" class="node"><title>r1b_empty</title>
<text text-anchor="middle" x="565" y="-245.5" font-family="Times Roman,serif" font-size="15.00" fill="blue">Ø</text>
</g>
<!-- r1b&#45;&gt;r1b_empty -->
<g id="edge22" class="edge"><title>r1b&#45;&gt;r1b_empty</title>
<path fill="none" stroke="black" d="M482.062,-250C491.877,-250 510.359,-250 527.389,-250"/>
<polygon fill="black" stroke="black" points="527.715,-253.5 537.715,-250 527.715,-246.5 527.715,-253.5"/>
</g>
<!-- r1b_intermediate_r&#45;&gt;r1b -->
<g id="edge18" class="edge"><title>r1b_intermediate_r&#45;&gt;r1b</title>
<path fill="none" stroke="black" d="M385.065,-250C387.311,-250 446.951,-250 467.848,-250"/>
</g>
<!-- r2a -->
<g id="node30" class="node"><title>r2a</title>
<polygon fill="none" stroke="black" points="115,-439 101,-439 101,-425 115,-425 115,-439"/>
</g>
<!-- r2a_intermediate_p -->
<g id="node33" class="node"><title>r2a_intermediate_p</title>
<ellipse fill="black" stroke="black" cx="189" cy="-432" rx="0.036" ry="0.036"/>
</g>
<!-- r2a&#45;&gt;r2a_intermediate_p -->
<g id="edge26" class="edge"><title>r2a&#45;&gt;r2a_intermediate_p</title>
<path fill="none" stroke="black" d="M115.188,-432C134.392,-432 185.659,-432 188.845,-432"/>
</g>
<!-- r2a_empty -->
<g id="node31" class="node"><title>r2a_empty</title>
<text text-anchor="middle" x="27" y="-427.5" font-family="Times Roman,serif" font-size="15.00" fill="blue">Ø</text>
</g>
<!-- r2a_empty&#45;&gt;r2a -->
<g id="edge24" class="edge"><title>r2a_empty&#45;&gt;r2a</title>
<path fill="none" stroke="black" d="M54.4229,-432C70.7619,-432 90.2818,-432 100.66,-432"/>
</g>
<!-- r2a_intermediate_p&#45;&gt;mT7cr -->
<g id="edge28" class="edge"><title>r2a_intermediate_p&#45;&gt;mT7cr</title>
<path fill="none" stroke="black" d="M189.071,-432C190.962,-432 230.22,-432 258.447,-432"/>
<polygon fill="black" stroke="black" points="258.624,-435.5 268.624,-432 258.624,-428.5 258.624,-435.5"/>
</g>
<!-- r2b -->
<g id="node36" class="node"><title>r2b</title>
<polygon fill="none" stroke="black" points="482,-439 468,-439 468,-425 482,-425 482,-439"/>
</g>
<!-- r2b_empty -->
<g id="node40" class="node"><title>r2b_empty</title>
<text text-anchor="middle" x="565" y="-427.5" font-family="Times Roman,serif" font-size="15.00" fill="blue">Ø</text>
</g>
<!-- r2b&#45;&gt;r2b_empty -->
<g id="edge34" class="edge"><title>r2b&#45;&gt;r2b_empty</title>
<path fill="none" stroke="black" d="M482.062,-432C491.877,-432 510.359,-432 527.389,-432"/>
<polygon fill="black" stroke="black" points="527.715,-435.5 537.715,-432 527.715,-428.5 527.715,-435.5"/>
</g>
<!-- r2b_intermediate_r&#45;&gt;r2b -->
<g id="edge30" class="edge"><title>r2b_intermediate_r&#45;&gt;r2b</title>
<path fill="none" stroke="black" d="M385.065,-432C387.311,-432 446.951,-432 467.848,-432"/>
</g>
<!-- r3a -->
<g id="node42" class="node"><title>r3a</title>
<polygon fill="none" stroke="black" points="115,-91 101,-91 101,-77 115,-77 115,-91"/>
</g>
<!-- r3a_intermediate_p -->
<g id="node45" class="node"><title>r3a_intermediate_p</title>
<ellipse fill="black" stroke="black" cx="189" cy="-70" rx="0.036" ry="0.036"/>
</g>
<!-- r3a&#45;&gt;r3a_intermediate_p -->
<g id="edge38" class="edge"><title>r3a&#45;&gt;r3a_intermediate_p</title>
<path fill="none" stroke="black" d="M115.188,-82.7576C134.392,-79.4383 185.659,-70.5774 188.845,-70.0269"/>
</g>
<!-- r3a&#45;&gt;r3a_intermediate_m -->
<g id="edge42" class="edge"><title>r3a&#45;&gt;r3a_intermediate_m</title>
<path fill="none" stroke="black" d="M127.083,-88.0817C159.695,-94.6901 228.32,-107 287,-107 287,-107 287,-107 385,-107 463.988,-107 561.887,-120.566 564.927,-120.99"/>
<polygon fill="none" stroke="black" points="126.866,-88.0364 120.174,-90.724 115.12,-85.5809 121.811,-82.8933 126.866,-88.0364"/>
</g>
<!-- r3a_empty -->
<g id="node43" class="node"><title>r3a_empty</title>
<text text-anchor="middle" x="27" y="-79.5" font-family="Times Roman,serif" font-size="15.00" fill="blue">Ø</text>
</g>
<!-- r3a_empty&#45;&gt;r3a -->
<g id="edge36" class="edge"><title>r3a_empty&#45;&gt;r3a</title>
<path fill="none" stroke="black" d="M54.4229,-84C70.7619,-84 90.2818,-84 100.66,-84"/>
</g>
<!-- r3a_intermediate_p&#45;&gt;mGFPcr -->
<g id="edge40" class="edge"><title>r3a_intermediate_p&#45;&gt;mGFPcr</title>
<path fill="none" stroke="black" d="M189.071,-69.9935C190.625,-69.8508 217.396,-67.3922 242.553,-65.0819"/>
<polygon fill="black" stroke="black" points="243.151,-68.5418 252.789,-64.1418 242.511,-61.5711 243.151,-68.5418"/>
</g>
<!-- r3b -->
<g id="node51" class="node"><title>r3b</title>
<polygon fill="none" stroke="black" points="482,-73 468,-73 468,-59 482,-59 482,-73"/>
</g>
<!-- r3b_empty -->
<g id="node55" class="node"><title>r3b_empty</title>
<text text-anchor="middle" x="565" y="-61.5" font-family="Times Roman,serif" font-size="15.00" fill="blue">Ø</text>
</g>
<!-- r3b&#45;&gt;r3b_empty -->
<g id="edge50" class="edge"><title>r3b&#45;&gt;r3b_empty</title>
<path fill="none" stroke="black" d="M482.062,-66C491.877,-66 510.359,-66 527.389,-66"/>
<polygon fill="black" stroke="black" points="527.715,-69.5001 537.715,-66 527.715,-62.5001 527.715,-69.5001"/>
</g>
<!-- r3b_intermediate_r&#45;&gt;r3b -->
<g id="edge46" class="edge"><title>r3b_intermediate_r&#45;&gt;r3b</title>
<path fill="none" stroke="black" d="M385.065,-66C387.311,-66 446.951,-66 467.848,-66"/>
</g>
<!-- r6 -->
<g id="node57" class="node"><title>r6</title>
<polygon fill="none" stroke="black" points="294,-396 280,-396 280,-382 294,-382 294,-396"/>
</g>
<!-- r6_intermediate_p -->
<g id="node60" class="node"><title>r6_intermediate_p</title>
<ellipse fill="black" stroke="black" cx="385" cy="-382" rx="0.036" ry="0.036"/>
</g>
<!-- r6&#45;&gt;r6_intermediate_p -->
<g id="edge54" class="edge"><title>r6&#45;&gt;r6_intermediate_p</title>
<path fill="none" stroke="black" d="M294.048,-388.497C316.167,-386.917 382.871,-382.152 384.95,-382.004"/>
</g>
<!-- r6&#45;&gt;r6_intermediate_m -->
<g id="edge58" class="edge"><title>r6&#45;&gt;r6_intermediate_m</title>
<path fill="none" stroke="black" d="M306.103,-391.144C334.099,-394.287 383.172,-399.795 384.95,-399.994"/>
<polygon fill="none" stroke="black" points="305.973,-391.13 299.564,-394.435 294.048,-389.791 300.457,-386.485 305.973,-391.13"/>
</g>
<!-- r6_empty -->
<g id="node58" class="node"><title>r6_empty</title>
<text text-anchor="middle" x="189" y="-387.5" font-family="Times Roman,serif" font-size="15.00" fill="blue">Ø</text>
</g>
<!-- r6_empty&#45;&gt;r6 -->
<g id="edge52" class="edge"><title>r6_empty&#45;&gt;r6</title>
<path fill="none" stroke="black" d="M216.038,-391.172C237.794,-390.506 266.832,-389.617 279.991,-389.215"/>
</g>
<!-- r6_intermediate_p&#45;&gt;pT7 -->
<g id="edge56" class="edge"><title>r6_intermediate_p&#45;&gt;pT7</title>
<path fill="none" stroke="black" d="M385.065,-381.986C386.565,-381.652 413.648,-375.634 437.704,-370.288"/>
<polygon fill="black" stroke="black" points="438.743,-373.643 447.745,-368.057 437.224,-366.809 438.743,-373.643"/>
</g>
<!-- r7 -->
<g id="node67" class="node"><title>r7</title>
<polygon fill="none" stroke="black" points="294,-25 280,-25 280,-11 294,-11 294,-25"/>
</g>
<!-- r7_intermediate_p -->
<g id="node70" class="node"><title>r7_intermediate_p</title>
<ellipse fill="black" stroke="black" cx="385" cy="-18" rx="0.036" ry="0.036"/>
</g>
<!-- r7&#45;&gt;r7_intermediate_p -->
<g id="edge66" class="edge"><title>r7&#45;&gt;r7_intermediate_p</title>
<path fill="none" stroke="black" d="M294.048,-18C316.167,-18 382.871,-18 384.95,-18"/>
</g>
<!-- r7&#45;&gt;r7_intermediate_m -->
<g id="edge70" class="edge"><title>r7&#45;&gt;r7_intermediate_m</title>
<path fill="none" stroke="black" d="M305.721,-23.7309C333.65,-32.2806 383.164,-47.4378 384.95,-47.9848"/>
<polygon fill="none" stroke="black" points="305.522,-23.6702 298.614,-25.7386 294.048,-20.1575 300.956,-18.089 305.522,-23.6702"/>
</g>
<!-- r7_empty -->
<g id="node68" class="node"><title>r7_empty</title>
<text text-anchor="middle" x="189" y="-13.5" font-family="Times Roman,serif" font-size="15.00" fill="blue">Ø</text>
</g>
<!-- r7_empty&#45;&gt;r7 -->
<g id="edge64" class="edge"><title>r7_empty&#45;&gt;r7</title>
<path fill="none" stroke="black" d="M216.038,-18C237.794,-18 266.832,-18 279.991,-18"/>
</g>
<!-- r7_intermediate_p&#45;&gt;pGFP -->
<g id="edge68" class="edge"><title>r7_intermediate_p&#45;&gt;pGFP</title>
<path fill="none" stroke="black" d="M385.065,-18C386.565,-18 413.648,-18 437.704,-18"/>
<polygon fill="black" stroke="black" points="437.745,-21.5001 447.745,-18 437.745,-14.5001 437.745,-21.5001"/>
</g>
<!-- r8 -->
<g id="node77" class="node"><title>r8</title>
<polygon fill="none" stroke="black" points="642,-369 628,-369 628,-355 642,-355 642,-369"/>
</g>
<!-- r8_empty -->
<g id="node81" class="node"><title>r8_empty</title>
<text text-anchor="middle" x="705" y="-357.5" font-family="Times Roman,serif" font-size="15.00" fill="blue">Ø</text>
</g>
<!-- r8&#45;&gt;r8_empty -->
<g id="edge80" class="edge"><title>r8&#45;&gt;r8_empty</title>
<path fill="none" stroke="black" d="M642.228,-362C648.45,-362 657.94,-362 667.672,-362"/>
<polygon fill="black" stroke="black" points="667.773,-365.5 677.773,-362 667.773,-358.5 667.773,-365.5"/>
</g>
<!-- r8_intermediate_r&#45;&gt;r8 -->
<g id="edge76" class="edge"><title>r8_intermediate_r&#45;&gt;r8</title>
<path fill="none" stroke="black" d="M565.051,-362C566.748,-362 610.582,-362 627.98,-362"/>
</g>
<!-- r9 -->
<g id="node83" class="node"><title>r9</title>
<polygon fill="none" stroke="black" points="642,-25 628,-25 628,-11 642,-11 642,-25"/>
</g>
<!-- r9_empty -->
<g id="node87" class="node"><title>r9_empty</title>
<text text-anchor="middle" x="705" y="-13.5" font-family="Times Roman,serif" font-size="15.00" fill="blue">Ø</text>
</g>
<!-- r9&#45;&gt;r9_empty -->
<g id="edge86" class="edge"><title>r9&#45;&gt;r9_empty</title>
<path fill="none" stroke="black" d="M642.228,-18C648.45,-18 657.94,-18 667.672,-18"/>
<polygon fill="black" stroke="black" points="667.773,-21.5001 677.773,-18 667.773,-14.5001 667.773,-21.5001"/>
</g>
<!-- r9_intermediate_r&#45;&gt;r9 -->
<g id="edge82" class="edge"><title>r9_intermediate_r&#45;&gt;r9</title>
<path fill="none" stroke="black" d="M565.051,-18C566.748,-18 610.582,-18 627.98,-18"/>
</g>
<!-- r10a -->
<g id="node89" class="node"><title>r10a</title>
<polygon fill="none" stroke="black" points="115,-252 101,-252 101,-238 115,-238 115,-252"/>
</g>
<!-- r10a_intermediate_p -->
<g id="node92" class="node"><title>r10a_intermediate_p</title>
<ellipse fill="black" stroke="black" cx="189" cy="-229" rx="0.036" ry="0.036"/>
</g>
<!-- r10a&#45;&gt;r10a_intermediate_p -->
<g id="edge90" class="edge"><title>r10a&#45;&gt;r10a_intermediate_p</title>
<path fill="none" stroke="black" d="M115.188,-243.58C134.392,-239.787 185.659,-229.66 188.845,-229.031"/>
</g>
<!-- r10a&#45;&gt;r10a_intermediate_m -->
<g id="edge94" class="edge"><title>r10a&#45;&gt;r10a_intermediate_m</title>
<path fill="none" stroke="black" d="M127.079,-249.765C154.555,-256.507 206.923,-268.909 252,-277 388.05,-301.419 559.547,-319.43 564.873,-319.987"/>
<polygon fill="none" stroke="black" points="126.797,-249.695 120.011,-252.134 115.15,-246.808 121.936,-244.369 126.797,-249.695"/>
</g>
<!-- r10a_empty -->
<g id="node90" class="node"><title>r10a_empty</title>
<text text-anchor="middle" x="27" y="-240.5" font-family="Times Roman,serif" font-size="15.00" fill="blue">Ø</text>
</g>
<!-- r10a_empty&#45;&gt;r10a -->
<g id="edge88" class="edge"><title>r10a_empty&#45;&gt;r10a</title>
<path fill="none" stroke="black" d="M54.4229,-245C70.7619,-245 90.2818,-245 100.66,-245"/>
</g>
<!-- r10a_intermediate_p&#45;&gt;mT3cr -->
<g id="edge92" class="edge"><title>r10a_intermediate_p&#45;&gt;mT3cr</title>
<path fill="none" stroke="black" d="M189.071,-228.976C190.991,-228.329 231.432,-214.712 259.737,-205.18"/>
<polygon fill="black" stroke="black" points="261.162,-208.394 269.522,-201.885 258.928,-201.76 261.162,-208.394"/>
</g>
<!-- r10b -->
<g id="node98" class="node"><title>r10b</title>
<polygon fill="none" stroke="black" points="482,-203 468,-203 468,-189 482,-189 482,-203"/>
</g>
<!-- r10b_empty -->
<g id="node102" class="node"><title>r10b_empty</title>
<text text-anchor="middle" x="565" y="-191.5" font-family="Times Roman,serif" font-size="15.00" fill="blue">Ø</text>
</g>
<!-- r10b&#45;&gt;r10b_empty -->
<g id="edge102" class="edge"><title>r10b&#45;&gt;r10b_empty</title>
<path fill="none" stroke="black" d="M482.062,-196C491.877,-196 510.359,-196 527.389,-196"/>
<polygon fill="black" stroke="black" points="527.715,-199.5 537.715,-196 527.715,-192.5 527.715,-199.5"/>
</g>
<!-- r10b_intermediate_r&#45;&gt;r10b -->
<g id="edge98" class="edge"><title>r10b_intermediate_r&#45;&gt;r10b</title>
<path fill="none" stroke="black" d="M385.065,-196C387.311,-196 446.951,-196 467.848,-196"/>
</g>
<!-- r11 -->
<g id="node104" class="node"><title>r11</title>
<polygon fill="none" stroke="black" points="294,-160 280,-160 280,-146 294,-146 294,-160"/>
</g>
<!-- r11_intermediate_p -->
<g id="node107" class="node"><title>r11_intermediate_p</title>
<ellipse fill="black" stroke="black" cx="385" cy="-153" rx="0.036" ry="0.036"/>
</g>
<!-- r11&#45;&gt;r11_intermediate_p -->
<g id="edge106" class="edge"><title>r11&#45;&gt;r11_intermediate_p</title>
<path fill="none" stroke="black" d="M294.048,-153C316.167,-153 382.871,-153 384.95,-153"/>
</g>
<!-- r11&#45;&gt;r11_intermediate_m -->
<g id="edge110" class="edge"><title>r11&#45;&gt;r11_intermediate_m</title>
<path fill="none" stroke="black" d="M305.631,-160.039C311.124,-162.499 317,-165.527 322,-169 340.584,-181.908 338.752,-193.104 358,-205 368.424,-211.442 383.99,-213.849 384.953,-213.993"/>
<polygon fill="none" stroke="black" points="305.226,-159.876 298.165,-161.343 294.096,-155.39 301.156,-153.923 305.226,-159.876"/>
</g>
<!-- r11_empty -->
<g id="node105" class="node"><title>r11_empty</title>
<text text-anchor="middle" x="189" y="-148.5" font-family="Times Roman,serif" font-size="15.00" fill="blue">Ø</text>
</g>
<!-- r11_empty&#45;&gt;r11 -->
<g id="edge104" class="edge"><title>r11_empty&#45;&gt;r11</title>
<path fill="none" stroke="black" d="M216.038,-153C237.794,-153 266.832,-153 279.991,-153"/>
</g>
<!-- r11_intermediate_p&#45;&gt;pT3 -->
<g id="edge108" class="edge"><title>r11_intermediate_p&#45;&gt;pT3</title>
<path fill="none" stroke="black" d="M385.065,-153C386.565,-153 413.648,-153 437.704,-153"/>
<polygon fill="black" stroke="black" points="437.745,-156.5 447.745,-153 437.745,-149.5 437.745,-156.5"/>
</g>
<!-- r12 -->
<g id="node114" class="node"><title>r12</title>
<polygon fill="none" stroke="black" points="642,-160 628,-160 628,-146 642,-146 642,-160"/>
</g>
<!-- r12_empty -->
<g id="node118" class="node"><title>r12_empty</title>
<text text-anchor="middle" x="705" y="-148.5" font-family="Times Roman,serif" font-size="15.00" fill="blue">Ø</text>
</g>
<!-- r12&#45;&gt;r12_empty -->
<g id="edge120" class="edge"><title>r12&#45;&gt;r12_empty</title>
<path fill="none" stroke="black" d="M642.228,-153C648.45,-153 657.94,-153 667.672,-153"/>
<polygon fill="black" stroke="black" points="667.773,-156.5 677.773,-153 667.773,-149.5 667.773,-156.5"/>
</g>
<!-- r12_intermediate_r&#45;&gt;r12 -->
<g id="edge116" class="edge"><title>r12_intermediate_r&#45;&gt;r12</title>
<path fill="none" stroke="black" d="M565.051,-153C566.748,-153 610.582,-153 627.98,-153"/>
</g>
</g>
</svg>
